<?xml version="1.0" encoding="utf-8"?>
<svg xmlns="http://www.w3.org/2000/svg" xmlns:xlink="http://www.w3.org/1999/xlink" width="600" height="400" viewBox="0 0 2400 1600">
<defs>
  <clipPath id="clip870">
    <rect x="0" y="0" width="2400" height="1600"/>
  </clipPath>
</defs>
<path clip-path="url(#clip870)" d="M0 1600 L2400 1600 L2400 0 L0 0  Z" fill="#ffffff" fill-rule="evenodd" fill-opacity="1"/>
<defs>
  <clipPath id="clip871">
    <rect x="480" y="0" width="1681" height="1600"/>
  </clipPath>
</defs>
<path clip-path="url(#clip870)" d="M170.857 1486.45 L2352.76 1486.45 L2352.76 47.2441 L170.857 47.2441  Z" fill="#ffffff" fill-rule="evenodd" fill-opacity="1"/>
<defs>
  <clipPath id="clip872">
    <rect x="170" y="47" width="2183" height="1440"/>
  </clipPath>
</defs>
<polyline clip-path="url(#clip872)" style="stroke:#000000; stroke-linecap:round; stroke-linejoin:round; stroke-width:2; stroke-opacity:0.1; fill:none" points="440.241,1486.45 440.241,47.2441 "/>
<polyline clip-path="url(#clip872)" style="stroke:#000000; stroke-linecap:round; stroke-linejoin:round; stroke-width:2; stroke-opacity:0.1; fill:none" points="738.992,1486.45 738.992,47.2441 "/>
<polyline clip-path="url(#clip872)" style="stroke:#000000; stroke-linecap:round; stroke-linejoin:round; stroke-width:2; stroke-opacity:0.1; fill:none" points="1037.74,1486.45 1037.74,47.2441 "/>
<polyline clip-path="url(#clip872)" style="stroke:#000000; stroke-linecap:round; stroke-linejoin:round; stroke-width:2; stroke-opacity:0.1; fill:none" points="1336.49,1486.45 1336.49,47.2441 "/>
<polyline clip-path="url(#clip872)" style="stroke:#000000; stroke-linecap:round; stroke-linejoin:round; stroke-width:2; stroke-opacity:0.1; fill:none" points="1635.25,1486.45 1635.25,47.2441 "/>
<polyline clip-path="url(#clip872)" style="stroke:#000000; stroke-linecap:round; stroke-linejoin:round; stroke-width:2; stroke-opacity:0.1; fill:none" points="1934,1486.45 1934,47.2441 "/>
<polyline clip-path="url(#clip872)" style="stroke:#000000; stroke-linecap:round; stroke-linejoin:round; stroke-width:2; stroke-opacity:0.1; fill:none" points="2232.75,1486.45 2232.75,47.2441 "/>
<polyline clip-path="url(#clip872)" style="stroke:#000000; stroke-linecap:round; stroke-linejoin:round; stroke-width:2; stroke-opacity:0.1; fill:none" points="170.857,1486.45 2352.76,1486.45 "/>
<polyline clip-path="url(#clip872)" style="stroke:#000000; stroke-linecap:round; stroke-linejoin:round; stroke-width:2; stroke-opacity:0.1; fill:none" points="170.857,1160.84 2352.76,1160.84 "/>
<polyline clip-path="url(#clip872)" style="stroke:#000000; stroke-linecap:round; stroke-linejoin:round; stroke-width:2; stroke-opacity:0.1; fill:none" points="170.857,835.224 2352.76,835.224 "/>
<polyline clip-path="url(#clip872)" style="stroke:#000000; stroke-linecap:round; stroke-linejoin:round; stroke-width:2; stroke-opacity:0.1; fill:none" points="170.857,509.613 2352.76,509.613 "/>
<polyline clip-path="url(#clip872)" style="stroke:#000000; stroke-linecap:round; stroke-linejoin:round; stroke-width:2; stroke-opacity:0.1; fill:none" points="170.857,184.001 2352.76,184.001 "/>
<polyline clip-path="url(#clip870)" style="stroke:#000000; stroke-linecap:round; stroke-linejoin:round; stroke-width:4; stroke-opacity:1; fill:none" points="170.857,1486.45 2352.76,1486.45 "/>
<polyline clip-path="url(#clip870)" style="stroke:#000000; stroke-linecap:round; stroke-linejoin:round; stroke-width:4; stroke-opacity:1; fill:none" points="440.241,1486.45 440.241,1467.55 "/>
<polyline clip-path="url(#clip870)" style="stroke:#000000; stroke-linecap:round; stroke-linejoin:round; stroke-width:4; stroke-opacity:1; fill:none" points="738.992,1486.45 738.992,1467.55 "/>
<polyline clip-path="url(#clip870)" style="stroke:#000000; stroke-linecap:round; stroke-linejoin:round; stroke-width:4; stroke-opacity:1; fill:none" points="1037.74,1486.45 1037.74,1467.55 "/>
<polyline clip-path="url(#clip870)" style="stroke:#000000; stroke-linecap:round; stroke-linejoin:round; stroke-width:4; stroke-opacity:1; fill:none" points="1336.49,1486.45 1336.49,1467.55 "/>
<polyline clip-path="url(#clip870)" style="stroke:#000000; stroke-linecap:round; stroke-linejoin:round; stroke-width:4; stroke-opacity:1; fill:none" points="1635.25,1486.45 1635.25,1467.55 "/>
<polyline clip-path="url(#clip870)" style="stroke:#000000; stroke-linecap:round; stroke-linejoin:round; stroke-width:4; stroke-opacity:1; fill:none" points="1934,1486.45 1934,1467.55 "/>
<polyline clip-path="url(#clip870)" style="stroke:#000000; stroke-linecap:round; stroke-linejoin:round; stroke-width:4; stroke-opacity:1; fill:none" points="2232.75,1486.45 2232.75,1467.55 "/>
<path clip-path="url(#clip870)" d="M409.709 1532.02 L439.385 1532.02 L439.385 1535.95 L409.709 1535.95 L409.709 1532.02 Z" fill="#000000" fill-rule="nonzero" fill-opacity="1" /><path clip-path="url(#clip870)" d="M463.644 1530.21 Q467 1530.93 468.875 1533.2 Q470.773 1535.47 470.773 1538.8 Q470.773 1543.92 467.255 1546.72 Q463.736 1549.52 457.255 1549.52 Q455.079 1549.52 452.764 1549.08 Q450.473 1548.66 448.019 1547.81 L448.019 1543.29 Q449.963 1544.43 452.278 1545.01 Q454.593 1545.58 457.116 1545.58 Q461.514 1545.58 463.806 1543.85 Q466.121 1542.11 466.121 1538.8 Q466.121 1535.75 463.968 1534.03 Q461.838 1532.3 458.019 1532.3 L453.991 1532.3 L453.991 1528.45 L458.204 1528.45 Q461.653 1528.45 463.482 1527.09 Q465.311 1525.7 465.311 1523.11 Q465.311 1520.45 463.412 1519.03 Q461.537 1517.6 458.019 1517.6 Q456.098 1517.6 453.899 1518.01 Q451.7 1518.43 449.061 1519.31 L449.061 1515.14 Q451.723 1514.4 454.037 1514.03 Q456.375 1513.66 458.436 1513.66 Q463.76 1513.66 466.861 1516.09 Q469.963 1518.5 469.963 1522.62 Q469.963 1525.49 468.32 1527.48 Q466.676 1529.45 463.644 1530.21 Z" fill="#000000" fill-rule="nonzero" fill-opacity="1" /><path clip-path="url(#clip870)" d="M708.935 1532.02 L738.61 1532.02 L738.61 1535.95 L708.935 1535.95 L708.935 1532.02 Z" fill="#000000" fill-rule="nonzero" fill-opacity="1" /><path clip-path="url(#clip870)" d="M752.731 1544.91 L769.05 1544.91 L769.05 1548.85 L747.106 1548.85 L747.106 1544.91 Q749.768 1542.16 754.351 1537.53 Q758.957 1532.88 760.138 1531.53 Q762.383 1529.01 763.263 1527.27 Q764.166 1525.51 764.166 1523.82 Q764.166 1521.07 762.221 1519.33 Q760.3 1517.6 757.198 1517.6 Q754.999 1517.6 752.545 1518.36 Q750.115 1519.13 747.337 1520.68 L747.337 1515.95 Q750.161 1514.82 752.615 1514.24 Q755.069 1513.66 757.106 1513.66 Q762.476 1513.66 765.67 1516.35 Q768.865 1519.03 768.865 1523.52 Q768.865 1525.65 768.055 1527.57 Q767.268 1529.47 765.161 1532.07 Q764.582 1532.74 761.481 1535.95 Q758.379 1539.15 752.731 1544.91 Z" fill="#000000" fill-rule="nonzero" fill-opacity="1" /><path clip-path="url(#clip870)" d="M1007.5 1532.02 L1037.18 1532.02 L1037.18 1535.95 L1007.5 1535.95 L1007.5 1532.02 Z" fill="#000000" fill-rule="nonzero" fill-opacity="1" /><path clip-path="url(#clip870)" d="M1048.08 1544.91 L1055.72 1544.91 L1055.72 1518.55 L1047.41 1520.21 L1047.41 1515.95 L1055.67 1514.29 L1060.35 1514.29 L1060.35 1544.91 L1067.99 1544.91 L1067.99 1548.85 L1048.08 1548.85 L1048.08 1544.91 Z" fill="#000000" fill-rule="nonzero" fill-opacity="1" /><path clip-path="url(#clip870)" d="M1336.49 1517.37 Q1332.88 1517.37 1331.05 1520.93 Q1329.25 1524.47 1329.25 1531.6 Q1329.25 1538.71 1331.05 1542.27 Q1332.88 1545.82 1336.49 1545.82 Q1340.13 1545.82 1341.93 1542.27 Q1343.76 1538.71 1343.76 1531.6 Q1343.76 1524.47 1341.93 1520.93 Q1340.13 1517.37 1336.49 1517.37 M1336.49 1513.66 Q1342.3 1513.66 1345.36 1518.27 Q1348.44 1522.85 1348.44 1531.6 Q1348.44 1540.33 1345.36 1544.94 Q1342.3 1549.52 1336.49 1549.52 Q1330.68 1549.52 1327.61 1544.94 Q1324.55 1540.33 1324.55 1531.6 Q1324.55 1522.85 1327.61 1518.27 Q1330.68 1513.66 1336.49 1513.66 Z" fill="#000000" fill-rule="nonzero" fill-opacity="1" /><path clip-path="url(#clip870)" d="M1625.63 1544.91 L1633.27 1544.91 L1633.27 1518.55 L1624.96 1520.21 L1624.96 1515.95 L1633.22 1514.29 L1637.9 1514.29 L1637.9 1544.91 L1645.53 1544.91 L1645.53 1548.85 L1625.63 1548.85 L1625.63 1544.91 Z" fill="#000000" fill-rule="nonzero" fill-opacity="1" /><path clip-path="url(#clip870)" d="M1928.65 1544.91 L1944.97 1544.91 L1944.97 1548.85 L1923.02 1548.85 L1923.02 1544.91 Q1925.69 1542.16 1930.27 1537.53 Q1934.88 1532.88 1936.06 1531.53 Q1938.3 1529.01 1939.18 1527.27 Q1940.08 1525.51 1940.08 1523.82 Q1940.08 1521.07 1938.14 1519.33 Q1936.22 1517.6 1933.12 1517.6 Q1930.92 1517.6 1928.46 1518.36 Q1926.03 1519.13 1923.26 1520.68 L1923.26 1515.95 Q1926.08 1514.82 1928.53 1514.24 Q1930.99 1513.66 1933.02 1513.66 Q1938.39 1513.66 1941.59 1516.35 Q1944.78 1519.03 1944.78 1523.52 Q1944.78 1525.65 1943.97 1527.57 Q1943.19 1529.47 1941.08 1532.07 Q1940.5 1532.74 1937.4 1535.95 Q1934.3 1539.15 1928.65 1544.91 Z" fill="#000000" fill-rule="nonzero" fill-opacity="1" /><path clip-path="url(#clip870)" d="M2237 1530.21 Q2240.35 1530.93 2242.23 1533.2 Q2244.12 1535.47 2244.12 1538.8 Q2244.12 1543.92 2240.61 1546.72 Q2237.09 1549.52 2230.61 1549.52 Q2228.43 1549.52 2226.12 1549.08 Q2223.82 1548.66 2221.37 1547.81 L2221.37 1543.29 Q2223.31 1544.43 2225.63 1545.01 Q2227.94 1545.58 2230.47 1545.58 Q2234.87 1545.58 2237.16 1543.85 Q2239.47 1542.11 2239.47 1538.8 Q2239.47 1535.75 2237.32 1534.03 Q2235.19 1532.3 2231.37 1532.3 L2227.34 1532.3 L2227.34 1528.45 L2231.56 1528.45 Q2235 1528.45 2236.83 1527.09 Q2238.66 1525.7 2238.66 1523.11 Q2238.66 1520.45 2236.76 1519.03 Q2234.89 1517.6 2231.37 1517.6 Q2229.45 1517.6 2227.25 1518.01 Q2225.05 1518.43 2222.41 1519.31 L2222.41 1515.14 Q2225.07 1514.4 2227.39 1514.03 Q2229.73 1513.66 2231.79 1513.66 Q2237.11 1513.66 2240.21 1516.09 Q2243.31 1518.5 2243.31 1522.62 Q2243.31 1525.49 2241.67 1527.48 Q2240.03 1529.45 2237 1530.21 Z" fill="#000000" fill-rule="nonzero" fill-opacity="1" /><polyline clip-path="url(#clip870)" style="stroke:#000000; stroke-linecap:round; stroke-linejoin:round; stroke-width:4; stroke-opacity:1; fill:none" points="170.857,1486.45 170.857,47.2441 "/>
<polyline clip-path="url(#clip870)" style="stroke:#000000; stroke-linecap:round; stroke-linejoin:round; stroke-width:4; stroke-opacity:1; fill:none" points="170.857,1486.45 189.755,1486.45 "/>
<polyline clip-path="url(#clip870)" style="stroke:#000000; stroke-linecap:round; stroke-linejoin:round; stroke-width:4; stroke-opacity:1; fill:none" points="170.857,1160.84 189.755,1160.84 "/>
<polyline clip-path="url(#clip870)" style="stroke:#000000; stroke-linecap:round; stroke-linejoin:round; stroke-width:4; stroke-opacity:1; fill:none" points="170.857,835.224 189.755,835.224 "/>
<polyline clip-path="url(#clip870)" style="stroke:#000000; stroke-linecap:round; stroke-linejoin:round; stroke-width:4; stroke-opacity:1; fill:none" points="170.857,509.613 189.755,509.613 "/>
<polyline clip-path="url(#clip870)" style="stroke:#000000; stroke-linecap:round; stroke-linejoin:round; stroke-width:4; stroke-opacity:1; fill:none" points="170.857,184.001 189.755,184.001 "/>
<path clip-path="url(#clip870)" d="M122.913 1472.25 Q119.302 1472.25 117.473 1475.81 Q115.668 1479.35 115.668 1486.48 Q115.668 1493.59 117.473 1497.15 Q119.302 1500.7 122.913 1500.7 Q126.547 1500.7 128.353 1497.15 Q130.182 1493.59 130.182 1486.48 Q130.182 1479.35 128.353 1475.81 Q126.547 1472.25 122.913 1472.25 M122.913 1468.54 Q128.723 1468.54 131.779 1473.15 Q134.857 1477.73 134.857 1486.48 Q134.857 1495.21 131.779 1499.82 Q128.723 1504.4 122.913 1504.4 Q117.103 1504.4 114.024 1499.82 Q110.969 1495.21 110.969 1486.48 Q110.969 1477.73 114.024 1473.15 Q117.103 1468.54 122.913 1468.54 Z" fill="#000000" fill-rule="nonzero" fill-opacity="1" /><path clip-path="url(#clip870)" d="M82.7975 1143.56 L101.154 1143.56 L101.154 1147.49 L87.0799 1147.49 L87.0799 1155.96 Q88.0984 1155.62 89.1169 1155.45 Q90.1354 1155.27 91.1539 1155.27 Q96.941 1155.27 100.321 1158.44 Q103.7 1161.61 103.7 1167.03 Q103.7 1172.61 100.228 1175.71 Q96.7558 1178.79 90.4364 1178.79 Q88.2604 1178.79 85.9919 1178.42 Q83.7466 1178.05 81.3392 1177.31 L81.3392 1172.61 Q83.4225 1173.74 85.6447 1174.3 Q87.8669 1174.85 90.3438 1174.85 Q94.3484 1174.85 96.6863 1172.75 Q99.0243 1170.64 99.0243 1167.03 Q99.0243 1163.42 96.6863 1161.31 Q94.3484 1159.2 90.3438 1159.2 Q88.4688 1159.2 86.5938 1159.62 Q84.7419 1160.04 82.7975 1160.92 L82.7975 1143.56 Z" fill="#000000" fill-rule="nonzero" fill-opacity="1" /><path clip-path="url(#clip870)" d="M122.913 1146.63 Q119.302 1146.63 117.473 1150.2 Q115.668 1153.74 115.668 1160.87 Q115.668 1167.98 117.473 1171.54 Q119.302 1175.08 122.913 1175.08 Q126.547 1175.08 128.353 1171.54 Q130.182 1167.98 130.182 1160.87 Q130.182 1153.74 128.353 1150.2 Q126.547 1146.63 122.913 1146.63 M122.913 1142.93 Q128.723 1142.93 131.779 1147.54 Q134.857 1152.12 134.857 1160.87 Q134.857 1169.6 131.779 1174.2 Q128.723 1178.79 122.913 1178.79 Q117.103 1178.79 114.024 1174.2 Q110.969 1169.6 110.969 1160.87 Q110.969 1152.12 114.024 1147.54 Q117.103 1142.93 122.913 1142.93 Z" fill="#000000" fill-rule="nonzero" fill-opacity="1" /><path clip-path="url(#clip870)" d="M53.3995 848.569 L61.0384 848.569 L61.0384 822.204 L52.7282 823.87 L52.7282 819.611 L60.9921 817.944 L65.668 817.944 L65.668 848.569 L73.3068 848.569 L73.3068 852.504 L53.3995 852.504 L53.3995 848.569 Z" fill="#000000" fill-rule="nonzero" fill-opacity="1" /><path clip-path="url(#clip870)" d="M92.7512 821.023 Q89.1401 821.023 87.3114 824.588 Q85.5058 828.13 85.5058 835.259 Q85.5058 842.366 87.3114 845.93 Q89.1401 849.472 92.7512 849.472 Q96.3854 849.472 98.1909 845.93 Q100.02 842.366 100.02 835.259 Q100.02 828.13 98.1909 824.588 Q96.3854 821.023 92.7512 821.023 M92.7512 817.319 Q98.5613 817.319 101.617 821.926 Q104.696 826.509 104.696 835.259 Q104.696 843.986 101.617 848.592 Q98.5613 853.176 92.7512 853.176 Q86.941 853.176 83.8623 848.592 Q80.8068 843.986 80.8068 835.259 Q80.8068 826.509 83.8623 821.926 Q86.941 817.319 92.7512 817.319 Z" fill="#000000" fill-rule="nonzero" fill-opacity="1" /><path clip-path="url(#clip870)" d="M122.913 821.023 Q119.302 821.023 117.473 824.588 Q115.668 828.13 115.668 835.259 Q115.668 842.366 117.473 845.93 Q119.302 849.472 122.913 849.472 Q126.547 849.472 128.353 845.93 Q130.182 842.366 130.182 835.259 Q130.182 828.13 128.353 824.588 Q126.547 821.023 122.913 821.023 M122.913 817.319 Q128.723 817.319 131.779 821.926 Q134.857 826.509 134.857 835.259 Q134.857 843.986 131.779 848.592 Q128.723 853.176 122.913 853.176 Q117.103 853.176 114.024 848.592 Q110.969 843.986 110.969 835.259 Q110.969 826.509 114.024 821.926 Q117.103 817.319 122.913 817.319 Z" fill="#000000" fill-rule="nonzero" fill-opacity="1" /><path clip-path="url(#clip870)" d="M53.3995 522.958 L61.0384 522.958 L61.0384 496.592 L52.7282 498.259 L52.7282 493.999 L60.9921 492.333 L65.668 492.333 L65.668 522.958 L73.3068 522.958 L73.3068 526.893 L53.3995 526.893 L53.3995 522.958 Z" fill="#000000" fill-rule="nonzero" fill-opacity="1" /><path clip-path="url(#clip870)" d="M82.7975 492.333 L101.154 492.333 L101.154 496.268 L87.0799 496.268 L87.0799 504.74 Q88.0984 504.393 89.1169 504.231 Q90.1354 504.046 91.1539 504.046 Q96.941 504.046 100.321 507.217 Q103.7 510.388 103.7 515.805 Q103.7 521.383 100.228 524.485 Q96.7558 527.564 90.4364 527.564 Q88.2604 527.564 85.9919 527.194 Q83.7466 526.823 81.3392 526.083 L81.3392 521.383 Q83.4225 522.518 85.6447 523.073 Q87.8669 523.629 90.3438 523.629 Q94.3484 523.629 96.6863 521.522 Q99.0243 519.416 99.0243 515.805 Q99.0243 512.194 96.6863 510.087 Q94.3484 507.981 90.3438 507.981 Q88.4688 507.981 86.5938 508.397 Q84.7419 508.814 82.7975 509.694 L82.7975 492.333 Z" fill="#000000" fill-rule="nonzero" fill-opacity="1" /><path clip-path="url(#clip870)" d="M122.913 495.411 Q119.302 495.411 117.473 498.976 Q115.668 502.518 115.668 509.647 Q115.668 516.754 117.473 520.319 Q119.302 523.86 122.913 523.86 Q126.547 523.86 128.353 520.319 Q130.182 516.754 130.182 509.647 Q130.182 502.518 128.353 498.976 Q126.547 495.411 122.913 495.411 M122.913 491.708 Q128.723 491.708 131.779 496.314 Q134.857 500.897 134.857 509.647 Q134.857 518.374 131.779 522.981 Q128.723 527.564 122.913 527.564 Q117.103 527.564 114.024 522.981 Q110.969 518.374 110.969 509.647 Q110.969 500.897 114.024 496.314 Q117.103 491.708 122.913 491.708 Z" fill="#000000" fill-rule="nonzero" fill-opacity="1" /><path clip-path="url(#clip870)" d="M56.6171 197.346 L72.9365 197.346 L72.9365 201.281 L50.9921 201.281 L50.9921 197.346 Q53.6541 194.591 58.2375 189.962 Q62.8439 185.309 64.0245 183.966 Q66.2698 181.443 67.1494 179.707 Q68.0522 177.948 68.0522 176.258 Q68.0522 173.503 66.1078 171.767 Q64.1865 170.031 61.0847 170.031 Q58.8856 170.031 56.4319 170.795 Q54.0014 171.559 51.2236 173.11 L51.2236 168.388 Q54.0477 167.253 56.5014 166.675 Q58.955 166.096 60.9921 166.096 Q66.3624 166.096 69.5568 168.781 Q72.7513 171.466 72.7513 175.957 Q72.7513 178.087 71.9411 180.008 Q71.1541 181.906 69.0476 184.499 Q68.4689 185.17 65.367 188.388 Q62.2652 191.582 56.6171 197.346 Z" fill="#000000" fill-rule="nonzero" fill-opacity="1" /><path clip-path="url(#clip870)" d="M92.7512 169.8 Q89.1401 169.8 87.3114 173.364 Q85.5058 176.906 85.5058 184.036 Q85.5058 191.142 87.3114 194.707 Q89.1401 198.249 92.7512 198.249 Q96.3854 198.249 98.1909 194.707 Q100.02 191.142 100.02 184.036 Q100.02 176.906 98.1909 173.364 Q96.3854 169.8 92.7512 169.8 M92.7512 166.096 Q98.5613 166.096 101.617 170.702 Q104.696 175.286 104.696 184.036 Q104.696 192.763 101.617 197.369 Q98.5613 201.952 92.7512 201.952 Q86.941 201.952 83.8623 197.369 Q80.8068 192.763 80.8068 184.036 Q80.8068 175.286 83.8623 170.702 Q86.941 166.096 92.7512 166.096 Z" fill="#000000" fill-rule="nonzero" fill-opacity="1" /><path clip-path="url(#clip870)" d="M122.913 169.8 Q119.302 169.8 117.473 173.364 Q115.668 176.906 115.668 184.036 Q115.668 191.142 117.473 194.707 Q119.302 198.249 122.913 198.249 Q126.547 198.249 128.353 194.707 Q130.182 191.142 130.182 184.036 Q130.182 176.906 128.353 173.364 Q126.547 169.8 122.913 169.8 M122.913 166.096 Q128.723 166.096 131.779 170.702 Q134.857 175.286 134.857 184.036 Q134.857 192.763 131.779 197.369 Q128.723 201.952 122.913 201.952 Q117.103 201.952 114.024 197.369 Q110.969 192.763 110.969 184.036 Q110.969 175.286 114.024 170.702 Q117.103 166.096 122.913 166.096 Z" fill="#000000" fill-rule="nonzero" fill-opacity="1" /><path clip-path="url(#clip872)" d="M290.866 1479.94 L290.866 1486.45 L440.241 1486.45 L440.241 1479.94 L290.866 1479.94 L290.866 1479.94  Z" fill="#009af9" fill-rule="evenodd" fill-opacity="1"/>
<polyline clip-path="url(#clip872)" style="stroke:#000000; stroke-linecap:round; stroke-linejoin:round; stroke-width:4; stroke-opacity:1; fill:none" points="290.866,1479.94 290.866,1486.45 440.241,1486.45 440.241,1479.94 290.866,1479.94 "/>
<path clip-path="url(#clip872)" d="M440.241 1447.37 L440.241 1486.45 L589.617 1486.45 L589.617 1447.37 L440.241 1447.37 L440.241 1447.37  Z" fill="#009af9" fill-rule="evenodd" fill-opacity="1"/>
<polyline clip-path="url(#clip872)" style="stroke:#000000; stroke-linecap:round; stroke-linejoin:round; stroke-width:4; stroke-opacity:1; fill:none" points="440.241,1447.37 440.241,1486.45 589.617,1486.45 589.617,1447.37 440.241,1447.37 "/>
<path clip-path="url(#clip872)" d="M589.617 1414.81 L589.617 1486.45 L738.992 1486.45 L738.992 1414.81 L589.617 1414.81 L589.617 1414.81  Z" fill="#009af9" fill-rule="evenodd" fill-opacity="1"/>
<polyline clip-path="url(#clip872)" style="stroke:#000000; stroke-linecap:round; stroke-linejoin:round; stroke-width:4; stroke-opacity:1; fill:none" points="589.617,1414.81 589.617,1486.45 738.992,1486.45 738.992,1414.81 589.617,1414.81 "/>
<path clip-path="url(#clip872)" d="M738.992 1212.93 L738.992 1486.45 L888.368 1486.45 L888.368 1212.93 L738.992 1212.93 L738.992 1212.93  Z" fill="#009af9" fill-rule="evenodd" fill-opacity="1"/>
<polyline clip-path="url(#clip872)" style="stroke:#000000; stroke-linecap:round; stroke-linejoin:round; stroke-width:4; stroke-opacity:1; fill:none" points="738.992,1212.93 738.992,1486.45 888.368,1486.45 888.368,1212.93 738.992,1212.93 "/>
<path clip-path="url(#clip872)" d="M888.368 906.859 L888.368 1486.45 L1037.74 1486.45 L1037.74 906.859 L888.368 906.859 L888.368 906.859  Z" fill="#009af9" fill-rule="evenodd" fill-opacity="1"/>
<polyline clip-path="url(#clip872)" style="stroke:#000000; stroke-linecap:round; stroke-linejoin:round; stroke-width:4; stroke-opacity:1; fill:none" points="888.368,906.859 888.368,1486.45 1037.74,1486.45 1037.74,906.859 888.368,906.859 "/>
<path clip-path="url(#clip872)" d="M1037.74 529.149 L1037.74 1486.45 L1187.12 1486.45 L1187.12 529.149 L1037.74 529.149 L1037.74 529.149  Z" fill="#009af9" fill-rule="evenodd" fill-opacity="1"/>
<polyline clip-path="url(#clip872)" style="stroke:#000000; stroke-linecap:round; stroke-linejoin:round; stroke-width:4; stroke-opacity:1; fill:none" points="1037.74,529.149 1037.74,1486.45 1187.12,1486.45 1187.12,529.149 1037.74,529.149 "/>
<path clip-path="url(#clip872)" d="M1187.12 47.2441 L1187.12 1486.45 L1336.49 1486.45 L1336.49 47.2441 L1187.12 47.2441 L1187.12 47.2441  Z" fill="#009af9" fill-rule="evenodd" fill-opacity="1"/>
<polyline clip-path="url(#clip872)" style="stroke:#000000; stroke-linecap:round; stroke-linejoin:round; stroke-width:4; stroke-opacity:1; fill:none" points="1187.12,47.2441 1187.12,1486.45 1336.49,1486.45 1336.49,47.2441 1187.12,47.2441 "/>
<path clip-path="url(#clip872)" d="M1336.49 314.246 L1336.49 1486.45 L1485.87 1486.45 L1485.87 314.246 L1336.49 314.246 L1336.49 314.246  Z" fill="#009af9" fill-rule="evenodd" fill-opacity="1"/>
<polyline clip-path="url(#clip872)" style="stroke:#000000; stroke-linecap:round; stroke-linejoin:round; stroke-width:4; stroke-opacity:1; fill:none" points="1336.49,314.246 1336.49,1486.45 1485.87,1486.45 1485.87,314.246 1336.49,314.246 "/>
<path clip-path="url(#clip872)" d="M1485.87 555.198 L1485.87 1486.45 L1635.25 1486.45 L1635.25 555.198 L1485.87 555.198 L1485.87 555.198  Z" fill="#009af9" fill-rule="evenodd" fill-opacity="1"/>
<polyline clip-path="url(#clip872)" style="stroke:#000000; stroke-linecap:round; stroke-linejoin:round; stroke-width:4; stroke-opacity:1; fill:none" points="1485.87,555.198 1485.87,1486.45 1635.25,1486.45 1635.25,555.198 1485.87,555.198 "/>
<path clip-path="url(#clip872)" d="M1635.25 900.347 L1635.25 1486.45 L1784.62 1486.45 L1784.62 900.347 L1635.25 900.347 L1635.25 900.347  Z" fill="#009af9" fill-rule="evenodd" fill-opacity="1"/>
<polyline clip-path="url(#clip872)" style="stroke:#000000; stroke-linecap:round; stroke-linejoin:round; stroke-width:4; stroke-opacity:1; fill:none" points="1635.25,900.347 1635.25,1486.45 1784.62,1486.45 1784.62,900.347 1635.25,900.347 "/>
<path clip-path="url(#clip872)" d="M1784.62 1180.37 L1784.62 1486.45 L1934 1486.45 L1934 1180.37 L1784.62 1180.37 L1784.62 1180.37  Z" fill="#009af9" fill-rule="evenodd" fill-opacity="1"/>
<polyline clip-path="url(#clip872)" style="stroke:#000000; stroke-linecap:round; stroke-linejoin:round; stroke-width:4; stroke-opacity:1; fill:none" points="1784.62,1180.37 1784.62,1486.45 1934,1486.45 1934,1180.37 1784.62,1180.37 "/>
<path clip-path="url(#clip872)" d="M1934 1362.72 L1934 1486.45 L2083.37 1486.45 L2083.37 1362.72 L1934 1362.72 L1934 1362.72  Z" fill="#009af9" fill-rule="evenodd" fill-opacity="1"/>
<polyline clip-path="url(#clip872)" style="stroke:#000000; stroke-linecap:round; stroke-linejoin:round; stroke-width:4; stroke-opacity:1; fill:none" points="1934,1362.72 1934,1486.45 2083.37,1486.45 2083.37,1362.72 1934,1362.72 "/>
<path clip-path="url(#clip872)" d="M2083.37 1460.4 L2083.37 1486.45 L2232.75 1486.45 L2232.75 1460.4 L2083.37 1460.4 L2083.37 1460.4  Z" fill="#009af9" fill-rule="evenodd" fill-opacity="1"/>
<polyline clip-path="url(#clip872)" style="stroke:#000000; stroke-linecap:round; stroke-linejoin:round; stroke-width:4; stroke-opacity:1; fill:none" points="2083.37,1460.4 2083.37,1486.45 2232.75,1486.45 2232.75,1460.4 2083.37,1460.4 "/>
<circle clip-path="url(#clip872)" style="fill:#009af9; stroke:none; fill-opacity:0" cx="365.553" cy="1479.94" r="2"/>
<circle clip-path="url(#clip872)" style="fill:#009af9; stroke:none; fill-opacity:0" cx="514.929" cy="1447.37" r="2"/>
<circle clip-path="url(#clip872)" style="fill:#009af9; stroke:none; fill-opacity:0" cx="664.305" cy="1414.81" r="2"/>
<circle clip-path="url(#clip872)" style="fill:#009af9; stroke:none; fill-opacity:0" cx="813.68" cy="1212.93" r="2"/>
<circle clip-path="url(#clip872)" style="fill:#009af9; stroke:none; fill-opacity:0" cx="963.056" cy="906.859" r="2"/>
<circle clip-path="url(#clip872)" style="fill:#009af9; stroke:none; fill-opacity:0" cx="1112.43" cy="529.149" r="2"/>
<circle clip-path="url(#clip872)" style="fill:#009af9; stroke:none; fill-opacity:0" cx="1261.81" cy="47.2441" r="2"/>
<circle clip-path="url(#clip872)" style="fill:#009af9; stroke:none; fill-opacity:0" cx="1411.18" cy="314.246" r="2"/>
<circle clip-path="url(#clip872)" style="fill:#009af9; stroke:none; fill-opacity:0" cx="1560.56" cy="555.198" r="2"/>
<circle clip-path="url(#clip872)" style="fill:#009af9; stroke:none; fill-opacity:0" cx="1709.93" cy="900.347" r="2"/>
<circle clip-path="url(#clip872)" style="fill:#009af9; stroke:none; fill-opacity:0" cx="1859.31" cy="1180.37" r="2"/>
<circle clip-path="url(#clip872)" style="fill:#009af9; stroke:none; fill-opacity:0" cx="2008.68" cy="1362.72" r="2"/>
<circle clip-path="url(#clip872)" style="fill:#009af9; stroke:none; fill-opacity:0" cx="2158.06" cy="1460.4" r="2"/>
<path clip-path="url(#clip870)" d="M2009.41 198.898 L2280.03 198.898 L2280.03 95.2176 L2009.41 95.2176  Z" fill="#ffffff" fill-rule="evenodd" fill-opacity="1"/>
<polyline clip-path="url(#clip870)" style="stroke:#000000; stroke-linecap:round; stroke-linejoin:round; stroke-width:4; stroke-opacity:1; fill:none" points="2009.41,198.898 2280.03,198.898 2280.03,95.2176 2009.41,95.2176 2009.41,198.898 "/>
<path clip-path="url(#clip870)" d="M2033.65 167.794 L2179.11 167.794 L2179.11 126.322 L2033.65 126.322 L2033.65 167.794  Z" fill="#009af9" fill-rule="evenodd" fill-opacity="1"/>
<polyline clip-path="url(#clip870)" style="stroke:#000000; stroke-linecap:round; stroke-linejoin:round; stroke-width:4; stroke-opacity:1; fill:none" points="2033.65,167.794 2179.11,167.794 2179.11,126.322 2033.65,126.322 2033.65,167.794 "/>
<path clip-path="url(#clip870)" d="M2217.19 166.745 Q2215.39 171.375 2213.68 172.787 Q2211.96 174.199 2209.09 174.199 L2205.69 174.199 L2205.69 170.634 L2208.19 170.634 Q2209.95 170.634 2210.92 169.8 Q2211.89 168.967 2213.07 165.865 L2213.84 163.921 L2203.35 138.412 L2207.87 138.412 L2215.97 158.689 L2224.07 138.412 L2228.58 138.412 L2217.19 166.745 Z" fill="#000000" fill-rule="nonzero" fill-opacity="1" /><path clip-path="url(#clip870)" d="M2235.88 160.402 L2243.51 160.402 L2243.51 134.037 L2235.2 135.703 L2235.2 131.444 L2243.47 129.778 L2248.14 129.778 L2248.14 160.402 L2255.78 160.402 L2255.78 164.338 L2235.88 164.338 L2235.88 160.402 Z" fill="#000000" fill-rule="nonzero" fill-opacity="1" /></svg>
