<?xml version="1.0" encoding="UTF-8"?>
<!DOCTYPE svg PUBLIC "-//W3C//DTD SVG 1.1//EN"
 "http://www.w3.org/Graphics/SVG/1.1/DTD/svg11.dtd">
<svg xmlns="http://www.w3.org/2000/svg" version="1.1"
     width="180mm" height="25mm" viewBox="0 0 100 1" stroke="none"
     preserveAspectRatio="none" shape-rendering="crispEdges">
<defs>
    <pattern id="pat_4boRVK" width=".2" height=".2"
             patternUnits="userSpaceOnUse" patternTransform="scale(13.889,1)" >
        <path d="M.1,0h.1v.1h-.2v.1h.1z" fill="#999" opacity=".5" />
    </pattern>
</defs>
<rect width="100" height="1" fill="url(#pat_4boRVK)" />
<path d="M1,.46V1h-1V.54z" fill="#7E1700" />
<path d="M0,0h1v1h-1z" fill="#7E1700" fill-opacity="1" />
<path d="M2,.46V1h-1V.54z" fill="#7E1901" />
<path d="M1,0h1v1h-1z" fill="#7E1901" fill-opacity="1" />
<path d="M3,.46V1h-1V.54z" fill="#7F1B01" />
<path d="M2,0h1v1h-1z" fill="#7F1B01" fill-opacity="1" />
<path d="M4,.46V1h-1V.54z" fill="#801D02" />
<path d="M3,0h1v1h-1z" fill="#801D02" fill-opacity="1" />
<path d="M5,.46V1h-1V.54z" fill="#811F02" />
<path d="M4,0h1v1h-1z" fill="#811F02" fill-opacity="1" />
<path d="M6,.46V1h-1V.54z" fill="#812103" />
<path d="M5,0h1v1h-1z" fill="#812103" fill-opacity="1" />
<path d="M7,.46V1h-1V.54z" fill="#822304" />
<path d="M6,0h1v1h-1z" fill="#822304" fill-opacity="1" />
<path d="M8,.46V1h-1V.54z" fill="#832504" />
<path d="M7,0h1v1h-1z" fill="#832504" fill-opacity="1" />
<path d="M9,.46V1h-1V.54z" fill="#842705" />
<path d="M8,0h1v1h-1z" fill="#842705" fill-opacity="1" />
<path d="M10,.46V1h-1V.54z" fill="#852905" />
<path d="M9,0h1v1h-1z" fill="#852905" fill-opacity="1" />
<path d="M11,.46V1h-1V.54z" fill="#862B06" />
<path d="M10,0h1v1h-1z" fill="#862B06" fill-opacity="1" />
<path d="M12,.46V1h-1V.54z" fill="#872C07" />
<path d="M11,0h1v1h-1z" fill="#872C07" fill-opacity="1" />
<path d="M13,.46V1h-1V.54z" fill="#882E07" />
<path d="M12,0h1v1h-1z" fill="#882E07" fill-opacity="1" />
<path d="M14,.46V1h-1V.54z" fill="#883008" />
<path d="M13,0h1v1h-1z" fill="#883008" fill-opacity="1" />
<path d="M15,.46V1h-1V.54z" fill="#893208" />
<path d="M14,0h1v1h-1z" fill="#893208" fill-opacity="1" />
<path d="M16,.46V1h-1V.54z" fill="#8A3409" />
<path d="M15,0h1v1h-1z" fill="#8A3409" fill-opacity="1" />
<path d="M17,.46V1h-1V.54z" fill="#8B360A" />
<path d="M16,0h1v1h-1z" fill="#8B360A" fill-opacity="1" />
<path d="M18,.46V1h-1V.54z" fill="#8C380B" />
<path d="M17,0h1v1h-1z" fill="#8C380B" fill-opacity="1" />
<path d="M19,.46V1h-1V.54z" fill="#8D3A0B" />
<path d="M18,0h1v1h-1z" fill="#8D3A0B" fill-opacity="1" />
<path d="M20,.46V1h-1V.54z" fill="#8E3C0C" />
<path d="M19,0h1v1h-1z" fill="#8E3C0C" fill-opacity="1" />
<path d="M21,.46V1h-1V.54z" fill="#8F3E0D" />
<path d="M20,0h1v1h-1z" fill="#8F3E0D" fill-opacity="1" />
<path d="M22,.46V1h-1V.54z" fill="#90400E" />
<path d="M21,0h1v1h-1z" fill="#90400E" fill-opacity="1" />
<path d="M23,.46V1h-1V.54z" fill="#91420E" />
<path d="M22,0h1v1h-1z" fill="#91420E" fill-opacity="1" />
<path d="M24,.46V1h-1V.54z" fill="#92440F" />
<path d="M23,0h1v1h-1z" fill="#92440F" fill-opacity="1" />
<path d="M25,.46V1h-1V.54z" fill="#934610" />
<path d="M24,0h1v1h-1z" fill="#934610" fill-opacity="1" />
<path d="M26,.46V1h-1V.54z" fill="#954811" />
<path d="M25,0h1v1h-1z" fill="#954811" fill-opacity="1" />
<path d="M27,.46V1h-1V.54z" fill="#964A12" />
<path d="M26,0h1v1h-1z" fill="#964A12" fill-opacity="1" />
<path d="M28,.46V1h-1V.54z" fill="#974C13" />
<path d="M27,0h1v1h-1z" fill="#974C13" fill-opacity="1" />
<path d="M29,.46V1h-1V.54z" fill="#984E14" />
<path d="M28,0h1v1h-1z" fill="#984E14" fill-opacity="1" />
<path d="M30,.46V1h-1V.54z" fill="#995115" />
<path d="M29,0h1v1h-1z" fill="#995115" fill-opacity="1" />
<path d="M31,.46V1h-1V.54z" fill="#9A5316" />
<path d="M30,0h1v1h-1z" fill="#9A5316" fill-opacity="1" />
<path d="M32,.46V1h-1V.54z" fill="#9B5517" />
<path d="M31,0h1v1h-1z" fill="#9B5517" fill-opacity="1" />
<path d="M33,.46V1h-1V.54z" fill="#9C5718" />
<path d="M32,0h1v1h-1z" fill="#9C5718" fill-opacity="1" />
<path d="M34,.46V1h-1V.54z" fill="#9D5A19" />
<path d="M33,0h1v1h-1z" fill="#9D5A19" fill-opacity="1" />
<path d="M35,.46V1h-1V.54z" fill="#9F5C1A" />
<path d="M34,0h1v1h-1z" fill="#9F5C1A" fill-opacity="1" />
<path d="M36,.46V1h-1V.54z" fill="#A05E1B" />
<path d="M35,0h1v1h-1z" fill="#A05E1B" fill-opacity="1" />
<path d="M37,.46V1h-1V.54z" fill="#A1611C" />
<path d="M36,0h1v1h-1z" fill="#A1611C" fill-opacity="1" />
<path d="M38,.46V1h-1V.54z" fill="#A2631D" />
<path d="M37,0h1v1h-1z" fill="#A2631D" fill-opacity="1" />
<path d="M39,.46V1h-1V.54z" fill="#A3661E" />
<path d="M38,0h1v1h-1z" fill="#A3661E" fill-opacity="1" />
<path d="M40,.46V1h-1V.54z" fill="#A5681F" />
<path d="M39,0h1v1h-1z" fill="#A5681F" fill-opacity="1" />
<path d="M41,.46V1h-1V.54z" fill="#A66B20" />
<path d="M40,0h1v1h-1z" fill="#A66B20" fill-opacity="1" />
<path d="M42,.46V1h-1V.54z" fill="#A76D21" />
<path d="M41,0h1v1h-1z" fill="#A76D21" fill-opacity="1" />
<path d="M43,.46V1h-1V.54z" fill="#A97023" />
<path d="M42,0h1v1h-1z" fill="#A97023" fill-opacity="1" />
<path d="M44,.46V1h-1V.54z" fill="#AA7324" />
<path d="M43,0h1v1h-1z" fill="#AA7324" fill-opacity="1" />
<path d="M45,.46V1h-1V.54z" fill="#AB7625" />
<path d="M44,0h1v1h-1z" fill="#AB7625" fill-opacity="1" />
<path d="M46,.46V1h-1V.54z" fill="#AD7927" />
<path d="M45,0h1v1h-1z" fill="#AD7927" fill-opacity="1" />
<path d="M47,.46V1h-1V.54z" fill="#AE7C28" />
<path d="M46,0h1v1h-1z" fill="#AE7C28" fill-opacity="1" />
<path d="M48,.46V1h-1V.54z" fill="#B07F2A" />
<path d="M47,0h1v1h-1z" fill="#B07F2A" fill-opacity="1" />
<path d="M49,.46V1h-1V.54z" fill="#B1822C" />
<path d="M48,0h1v1h-1z" fill="#B1822C" fill-opacity="1" />
<path d="M50,.46V1h-1V.54z" fill="#B3862E" />
<path d="M49,0h1v1h-1z" fill="#B3862E" fill-opacity="1" />
<path d="M51,.46V1h-1V.54z" fill="#B58930" />
<path d="M50,0h1v1h-1z" fill="#B58930" fill-opacity="1" />
<path d="M52,.46V1h-1V.54z" fill="#B78D32" />
<path d="M51,0h1v1h-1z" fill="#B78D32" fill-opacity="1" />
<path d="M53,.46V1h-1V.54z" fill="#B89135" />
<path d="M52,0h1v1h-1z" fill="#B89135" fill-opacity="1" />
<path d="M54,.46V1h-1V.54z" fill="#BA9538" />
<path d="M53,0h1v1h-1z" fill="#BA9538" fill-opacity="1" />
<path d="M55,.46V1h-1V.54z" fill="#BC993B" />
<path d="M54,0h1v1h-1z" fill="#BC993B" fill-opacity="1" />
<path d="M56,.46V1h-1V.54z" fill="#BE9E3F" />
<path d="M55,0h1v1h-1z" fill="#BE9E3F" fill-opacity="1" />
<path d="M57,.46V1h-1V.54z" fill="#C0A243" />
<path d="M56,0h1v1h-1z" fill="#C0A243" fill-opacity="1" />
<path d="M58,.46V1h-1V.54z" fill="#C3A747" />
<path d="M57,0h1v1h-1z" fill="#C3A747" fill-opacity="1" />
<path d="M59,.46V1h-1V.54z" fill="#C5AC4C" />
<path d="M58,0h1v1h-1z" fill="#C5AC4C" fill-opacity="1" />
<path d="M60,.46V1h-1V.54z" fill="#C7B152" />
<path d="M59,0h1v1h-1z" fill="#C7B152" fill-opacity="1" />
<path d="M61,.46V1h-1V.54z" fill="#C9B658" />
<path d="M60,0h1v1h-1z" fill="#C9B658" fill-opacity="1" />
<path d="M62,.46V1h-1V.54z" fill="#CBBC5E" />
<path d="M61,0h1v1h-1z" fill="#CBBC5E" fill-opacity="1" />
<path d="M63,.46V1h-1V.54z" fill="#CDC166" />
<path d="M62,0h1v1h-1z" fill="#CDC166" fill-opacity="1" />
<path d="M64,.46V1h-1V.54z" fill="#CFC76E" />
<path d="M63,0h1v1h-1z" fill="#CFC76E" fill-opacity="1" />
<path d="M65,.46V1h-1V.54z" fill="#D0CC76" />
<path d="M64,0h1v1h-1z" fill="#D0CC76" fill-opacity="1" />
<path d="M66,.46V1h-1V.54z" fill="#D2D17F" />
<path d="M65,0h1v1h-1z" fill="#D2D17F" fill-opacity="1" />
<path d="M67,.46V1h-1V.54z" fill="#D2D688" />
<path d="M66,0h1v1h-1z" fill="#D2D688" fill-opacity="1" />
<path d="M68,.46V1h-1V.54z" fill="#D2DB91" />
<path d="M67,0h1v1h-1z" fill="#D2DB91" fill-opacity="1" />
<path d="M69,.46V1h-1V.54z" fill="#D2DF9A" />
<path d="M68,0h1v1h-1z" fill="#D2DF9A" fill-opacity="1" />
<path d="M70,.46V1h-1V.54z" fill="#D0E2A2" />
<path d="M69,0h1v1h-1z" fill="#D0E2A2" fill-opacity="1" />
<path d="M71,.46V1h-1V.54z" fill="#CEE5AB" />
<path d="M70,0h1v1h-1z" fill="#CEE5AB" fill-opacity="1" />
<path d="M72,.46V1h-1V.54z" fill="#CBE8B3" />
<path d="M71,0h1v1h-1z" fill="#CBE8B3" fill-opacity="1" />
<path d="M73,.46V1h-1V.54z" fill="#C7E9BA" />
<path d="M72,0h1v1h-1z" fill="#C7E9BA" fill-opacity="1" />
<path d="M74,.46V1h-1V.54z" fill="#C2EAC1" />
<path d="M73,0h1v1h-1z" fill="#C2EAC1" fill-opacity="1" />
<path d="M75,.46V1h-1V.54z" fill="#BCEAC6" />
<path d="M74,0h1v1h-1z" fill="#BCEAC6" fill-opacity="1" />
<path d="M76,.46V1h-1V.54z" fill="#B6EACB" />
<path d="M75,0h1v1h-1z" fill="#B6EACB" fill-opacity="1" />
<path d="M77,.46V1h-1V.54z" fill="#AEE8D0" />
<path d="M76,0h1v1h-1z" fill="#AEE8D0" fill-opacity="1" />
<path d="M78,.46V1h-1V.54z" fill="#A5E6D3" />
<path d="M77,0h1v1h-1z" fill="#A5E6D3" fill-opacity="1" />
<path d="M79,.46V1h-1V.54z" fill="#9CE3D5" />
<path d="M78,0h1v1h-1z" fill="#9CE3D5" fill-opacity="1" />
<path d="M80,.46V1h-1V.54z" fill="#91DED7" />
<path d="M79,0h1v1h-1z" fill="#91DED7" fill-opacity="1" />
<path d="M81,.46V1h-1V.54z" fill="#86D9D7" />
<path d="M80,0h1v1h-1z" fill="#86D9D7" fill-opacity="1" />
<path d="M82,.46V1h-1V.54z" fill="#7BD4D7" />
<path d="M81,0h1v1h-1z" fill="#7BD4D7" fill-opacity="1" />
<path d="M83,.46V1h-1V.54z" fill="#70CDD6" />
<path d="M82,0h1v1h-1z" fill="#70CDD6" fill-opacity="1" />
<path d="M84,.46V1h-1V.54z" fill="#65C6D5" />
<path d="M83,0h1v1h-1z" fill="#65C6D5" fill-opacity="1" />
<path d="M85,.46V1h-1V.54z" fill="#5ABED2" />
<path d="M84,0h1v1h-1z" fill="#5ABED2" fill-opacity="1" />
<path d="M86,.46V1h-1V.54z" fill="#50B6D0" />
<path d="M85,0h1v1h-1z" fill="#50B6D0" fill-opacity="1" />
<path d="M87,.46V1h-1V.54z" fill="#47AECD" />
<path d="M86,0h1v1h-1z" fill="#47AECD" fill-opacity="1" />
<path d="M88,.46V1h-1V.54z" fill="#40A6CA" />
<path d="M87,0h1v1h-1z" fill="#40A6CA" fill-opacity="1" />
<path d="M89,.46V1h-1V.54z" fill="#399DC7" />
<path d="M88,0h1v1h-1z" fill="#399DC7" fill-opacity="1" />
<path d="M90,.46V1h-1V.54z" fill="#3495C3" />
<path d="M89,0h1v1h-1z" fill="#3495C3" fill-opacity="1" />
<path d="M91,.46V1h-1V.54z" fill="#2F8CC0" />
<path d="M90,0h1v1h-1z" fill="#2F8CC0" fill-opacity="1" />
<path d="M92,.46V1h-1V.54z" fill="#2B84BC" />
<path d="M91,0h1v1h-1z" fill="#2B84BC" fill-opacity="1" />
<path d="M93,.46V1h-1V.54z" fill="#287BB8" />
<path d="M92,0h1v1h-1z" fill="#287BB8" fill-opacity="1" />
<path d="M94,.46V1h-1V.54z" fill="#2572B5" />
<path d="M93,0h1v1h-1z" fill="#2572B5" fill-opacity="1" />
<path d="M95,.46V1h-1V.54z" fill="#2269B1" />
<path d="M94,0h1v1h-1z" fill="#2269B1" fill-opacity="1" />
<path d="M96,.46V1h-1V.54z" fill="#1F5FAC" />
<path d="M95,0h1v1h-1z" fill="#1F5FAC" fill-opacity="1" />
<path d="M97,.46V1h-1V.54z" fill="#1B55A8" />
<path d="M96,0h1v1h-1z" fill="#1B55A8" fill-opacity="1" />
<path d="M98,.46V1h-1V.54z" fill="#1649A3" />
<path d="M97,0h1v1h-1z" fill="#1649A3" fill-opacity="1" />
<path d="M99,.46V1h-1V.54z" fill="#0F3E9E" />
<path d="M98,0h1v1h-1z" fill="#0F3E9E" fill-opacity="1" />
<path d="M100,.46V1h-1V.54z" fill="#023198" />
<path d="M99,0h1v1h-1z" fill="#023198" fill-opacity="1" />
</svg>