<?xml version="1.0" encoding="UTF-8"?>
<!DOCTYPE svg PUBLIC "-//W3C//DTD SVG 1.1//EN"
 "http://www.w3.org/Graphics/SVG/1.1/DTD/svg11.dtd">
<svg xmlns="http://www.w3.org/2000/svg" version="1.1"
     width="180mm" height="25mm" viewBox="0 0 100 1" stroke="none"
     preserveAspectRatio="none" shape-rendering="crispEdges">
<defs>
    <pattern id="pat_rMwxr" width=".2" height=".2"
             patternUnits="userSpaceOnUse" patternTransform="scale(13.889,1)" >
        <path d="M.1,0h.1v.1h-.2v.1h.1z" fill="#999" opacity=".5" />
    </pattern>
</defs>
<rect width="100" height="1" fill="url(#pat_rMwxr)" />
<path d="M1,.46V1h-1V.54z" fill="#FFA500" />
<path d="M0,0h1v1h-1z" fill="#FFA500" fill-opacity="1" />
<path d="M2,.46V1h-1V.54z" fill="#F9A106" />
<path d="M1,0h1v1h-1z" fill="#F9A106" fill-opacity="1" />
<path d="M3,.46V1h-1V.54z" fill="#F29D0D" />
<path d="M2,0h1v1h-1z" fill="#F29D0D" fill-opacity="1" />
<path d="M4,.46V1h-1V.54z" fill="#EC9913" />
<path d="M3,0h1v1h-1z" fill="#EC9913" fill-opacity="1" />
<path d="M5,.46V1h-1V.54z" fill="#E5941A" />
<path d="M4,0h1v1h-1z" fill="#E5941A" fill-opacity="1" />
<path d="M6,.46V1h-1V.54z" fill="#DF9020" />
<path d="M5,0h1v1h-1z" fill="#DF9020" fill-opacity="1" />
<path d="M7,.46V1h-1V.54z" fill="#D88C27" />
<path d="M6,0h1v1h-1z" fill="#D88C27" fill-opacity="1" />
<path d="M8,.46V1h-1V.54z" fill="#D2882D" />
<path d="M7,0h1v1h-1z" fill="#D2882D" fill-opacity="1" />
<path d="M9,.46V1h-1V.54z" fill="#CB8434" />
<path d="M8,0h1v1h-1z" fill="#CB8434" fill-opacity="1" />
<path d="M10,.46V1h-1V.54z" fill="#C5803A" />
<path d="M9,0h1v1h-1z" fill="#C5803A" fill-opacity="1" />
<path d="M11,.46V1h-1V.54z" fill="#BF7C40" />
<path d="M10,0h1v1h-1z" fill="#BF7C40" fill-opacity="1" />
<path d="M12,.46V1h-1V.54z" fill="#BC7943" />
<path d="M11,0h1v1h-1z" fill="#BC7943" fill-opacity="1" />
<path d="M13,.46V1h-1V.54z" fill="#B87747" />
<path d="M12,0h1v1h-1z" fill="#B87747" fill-opacity="1" />
<path d="M14,.46V1h-1V.54z" fill="#B5754A" />
<path d="M13,0h1v1h-1z" fill="#B5754A" fill-opacity="1" />
<path d="M15,.46V1h-1V.54z" fill="#B2734D" />
<path d="M14,0h1v1h-1z" fill="#B2734D" fill-opacity="1" />
<path d="M16,.46V1h-1V.54z" fill="#AF7150" />
<path d="M15,0h1v1h-1z" fill="#AF7150" fill-opacity="1" />
<path d="M17,.46V1h-1V.54z" fill="#AC6F53" />
<path d="M16,0h1v1h-1z" fill="#AC6F53" fill-opacity="1" />
<path d="M18,.46V1h-1V.54z" fill="#A86D57" />
<path d="M17,0h1v1h-1z" fill="#A86D57" fill-opacity="1" />
<path d="M19,.46V1h-1V.54z" fill="#A56B5A" />
<path d="M18,0h1v1h-1z" fill="#A56B5A" fill-opacity="1" />
<path d="M20,.46V1h-1V.54z" fill="#A2695D" />
<path d="M19,0h1v1h-1z" fill="#A2695D" fill-opacity="1" />
<path d="M21,.46V1h-1V.54z" fill="#9F6760" />
<path d="M20,0h1v1h-1z" fill="#9F6760" fill-opacity="1" />
<path d="M22,.46V1h-1V.54z" fill="#9C6563" />
<path d="M21,0h1v1h-1z" fill="#9C6563" fill-opacity="1" />
<path d="M23,.46V1h-1V.54z" fill="#986367" />
<path d="M22,0h1v1h-1z" fill="#986367" fill-opacity="1" />
<path d="M24,.46V1h-1V.54z" fill="#95606A" />
<path d="M23,0h1v1h-1z" fill="#95606A" fill-opacity="1" />
<path d="M25,.46V1h-1V.54z" fill="#925E6D" />
<path d="M24,0h1v1h-1z" fill="#925E6D" fill-opacity="1" />
<path d="M26,.46V1h-1V.54z" fill="#8F5C70" />
<path d="M25,0h1v1h-1z" fill="#8F5C70" fill-opacity="1" />
<path d="M27,.46V1h-1V.54z" fill="#8B5A74" />
<path d="M26,0h1v1h-1z" fill="#8B5A74" fill-opacity="1" />
<path d="M28,.46V1h-1V.54z" fill="#885877" />
<path d="M27,0h1v1h-1z" fill="#885877" fill-opacity="1" />
<path d="M29,.46V1h-1V.54z" fill="#85567A" />
<path d="M28,0h1v1h-1z" fill="#85567A" fill-opacity="1" />
<path d="M30,.46V1h-1V.54z" fill="#82547D" />
<path d="M29,0h1v1h-1z" fill="#82547D" fill-opacity="1" />
<path d="M31,.46V1h-1V.54z" fill="#7F5280" />
<path d="M30,0h1v1h-1z" fill="#7F5280" fill-opacity="1" />
<path d="M32,.46V1h-1V.54z" fill="#7E5181" />
<path d="M31,0h1v1h-1z" fill="#7E5181" fill-opacity="1" />
<path d="M33,.46V1h-1V.54z" fill="#7D5182" />
<path d="M32,0h1v1h-1z" fill="#7D5182" fill-opacity="1" />
<path d="M34,.46V1h-1V.54z" fill="#7B5084" />
<path d="M33,0h1v1h-1z" fill="#7B5084" fill-opacity="1" />
<path d="M35,.46V1h-1V.54z" fill="#7A4F85" />
<path d="M34,0h1v1h-1z" fill="#7A4F85" fill-opacity="1" />
<path d="M36,.46V1h-1V.54z" fill="#794E86" />
<path d="M35,0h1v1h-1z" fill="#794E86" fill-opacity="1" />
<path d="M37,.46V1h-1V.54z" fill="#774D88" />
<path d="M36,0h1v1h-1z" fill="#774D88" fill-opacity="1" />
<path d="M38,.46V1h-1V.54z" fill="#764C89" />
<path d="M37,0h1v1h-1z" fill="#764C89" fill-opacity="1" />
<path d="M39,.46V1h-1V.54z" fill="#754C8A" />
<path d="M38,0h1v1h-1z" fill="#754C8A" fill-opacity="1" />
<path d="M40,.46V1h-1V.54z" fill="#744B8B" />
<path d="M39,0h1v1h-1z" fill="#744B8B" fill-opacity="1" />
<path d="M41,.46V1h-1V.54z" fill="#724A8D" />
<path d="M40,0h1v1h-1z" fill="#724A8D" fill-opacity="1" />
<path d="M42,.46V1h-1V.54z" fill="#71498E" />
<path d="M41,0h1v1h-1z" fill="#71498E" fill-opacity="1" />
<path d="M43,.46V1h-1V.54z" fill="#70488F" />
<path d="M42,0h1v1h-1z" fill="#70488F" fill-opacity="1" />
<path d="M44,.46V1h-1V.54z" fill="#6E4791" />
<path d="M43,0h1v1h-1z" fill="#6E4791" fill-opacity="1" />
<path d="M45,.46V1h-1V.54z" fill="#6D4792" />
<path d="M44,0h1v1h-1z" fill="#6D4792" fill-opacity="1" />
<path d="M46,.46V1h-1V.54z" fill="#6C4693" />
<path d="M45,0h1v1h-1z" fill="#6C4693" fill-opacity="1" />
<path d="M47,.46V1h-1V.54z" fill="#6B4594" />
<path d="M46,0h1v1h-1z" fill="#6B4594" fill-opacity="1" />
<path d="M48,.46V1h-1V.54z" fill="#694496" />
<path d="M47,0h1v1h-1z" fill="#694496" fill-opacity="1" />
<path d="M49,.46V1h-1V.54z" fill="#684397" />
<path d="M48,0h1v1h-1z" fill="#684397" fill-opacity="1" />
<path d="M50,.46V1h-1V.54z" fill="#674298" />
<path d="M49,0h1v1h-1z" fill="#674298" fill-opacity="1" />
<path d="M51,.46V1h-1V.54z" fill="#65429A" />
<path d="M50,0h1v1h-1z" fill="#65429A" fill-opacity="1" />
<path d="M52,.46V1h-1V.54z" fill="#64419B" />
<path d="M51,0h1v1h-1z" fill="#64419B" fill-opacity="1" />
<path d="M53,.46V1h-1V.54z" fill="#63409C" />
<path d="M52,0h1v1h-1z" fill="#63409C" fill-opacity="1" />
<path d="M54,.46V1h-1V.54z" fill="#613F9E" />
<path d="M53,0h1v1h-1z" fill="#613F9E" fill-opacity="1" />
<path d="M55,.46V1h-1V.54z" fill="#603E9F" />
<path d="M54,0h1v1h-1z" fill="#603E9F" fill-opacity="1" />
<path d="M56,.46V1h-1V.54z" fill="#5F3DA0" />
<path d="M55,0h1v1h-1z" fill="#5F3DA0" fill-opacity="1" />
<path d="M57,.46V1h-1V.54z" fill="#5E3DA1" />
<path d="M56,0h1v1h-1z" fill="#5E3DA1" fill-opacity="1" />
<path d="M58,.46V1h-1V.54z" fill="#5C3CA3" />
<path d="M57,0h1v1h-1z" fill="#5C3CA3" fill-opacity="1" />
<path d="M59,.46V1h-1V.54z" fill="#5B3BA4" />
<path d="M58,0h1v1h-1z" fill="#5B3BA4" fill-opacity="1" />
<path d="M60,.46V1h-1V.54z" fill="#5A3AA5" />
<path d="M59,0h1v1h-1z" fill="#5A3AA5" fill-opacity="1" />
<path d="M61,.46V1h-1V.54z" fill="#5839A7" />
<path d="M60,0h1v1h-1z" fill="#5839A7" fill-opacity="1" />
<path d="M62,.46V1h-1V.54z" fill="#5738A8" />
<path d="M61,0h1v1h-1z" fill="#5738A8" fill-opacity="1" />
<path d="M63,.46V1h-1V.54z" fill="#5638A9" />
<path d="M62,0h1v1h-1z" fill="#5638A9" fill-opacity="1" />
<path d="M64,.46V1h-1V.54z" fill="#5537AA" />
<path d="M63,0h1v1h-1z" fill="#5537AA" fill-opacity="1" />
<path d="M65,.46V1h-1V.54z" fill="#5336AC" />
<path d="M64,0h1v1h-1z" fill="#5336AC" fill-opacity="1" />
<path d="M66,.46V1h-1V.54z" fill="#5235AD" />
<path d="M65,0h1v1h-1z" fill="#5235AD" fill-opacity="1" />
<path d="M67,.46V1h-1V.54z" fill="#5134AE" />
<path d="M66,0h1v1h-1z" fill="#5134AE" fill-opacity="1" />
<path d="M68,.46V1h-1V.54z" fill="#4F33B0" />
<path d="M67,0h1v1h-1z" fill="#4F33B0" fill-opacity="1" />
<path d="M69,.46V1h-1V.54z" fill="#4E33B1" />
<path d="M68,0h1v1h-1z" fill="#4E33B1" fill-opacity="1" />
<path d="M70,.46V1h-1V.54z" fill="#4D32B2" />
<path d="M69,0h1v1h-1z" fill="#4D32B2" fill-opacity="1" />
<path d="M71,.46V1h-1V.54z" fill="#4C31B3" />
<path d="M70,0h1v1h-1z" fill="#4C31B3" fill-opacity="1" />
<path d="M72,.46V1h-1V.54z" fill="#4A30B5" />
<path d="M71,0h1v1h-1z" fill="#4A30B5" fill-opacity="1" />
<path d="M73,.46V1h-1V.54z" fill="#492FB6" />
<path d="M72,0h1v1h-1z" fill="#492FB6" fill-opacity="1" />
<path d="M74,.46V1h-1V.54z" fill="#482EB7" />
<path d="M73,0h1v1h-1z" fill="#482EB7" fill-opacity="1" />
<path d="M75,.46V1h-1V.54z" fill="#462EB9" />
<path d="M74,0h1v1h-1z" fill="#462EB9" fill-opacity="1" />
<path d="M76,.46V1h-1V.54z" fill="#452DBA" />
<path d="M75,0h1v1h-1z" fill="#452DBA" fill-opacity="1" />
<path d="M77,.46V1h-1V.54z" fill="#442CBB" />
<path d="M76,0h1v1h-1z" fill="#442CBB" fill-opacity="1" />
<path d="M78,.46V1h-1V.54z" fill="#432BBC" />
<path d="M77,0h1v1h-1z" fill="#432BBC" fill-opacity="1" />
<path d="M79,.46V1h-1V.54z" fill="#412ABE" />
<path d="M78,0h1v1h-1z" fill="#412ABE" fill-opacity="1" />
<path d="M80,.46V1h-1V.54z" fill="#4029BF" />
<path d="M79,0h1v1h-1z" fill="#4029BF" fill-opacity="1" />
<path d="M81,.46V1h-1V.54z" fill="#3D28C2" />
<path d="M80,0h1v1h-1z" fill="#3D28C2" fill-opacity="1" />
<path d="M82,.46V1h-1V.54z" fill="#3A26C5" />
<path d="M81,0h1v1h-1z" fill="#3A26C5" fill-opacity="1" />
<path d="M83,.46V1h-1V.54z" fill="#3723C8" />
<path d="M82,0h1v1h-1z" fill="#3723C8" fill-opacity="1" />
<path d="M84,.46V1h-1V.54z" fill="#3421CB" />
<path d="M83,0h1v1h-1z" fill="#3421CB" fill-opacity="1" />
<path d="M85,.46V1h-1V.54z" fill="#301FCF" />
<path d="M84,0h1v1h-1z" fill="#301FCF" fill-opacity="1" />
<path d="M86,.46V1h-1V.54z" fill="#2D1DD2" />
<path d="M85,0h1v1h-1z" fill="#2D1DD2" fill-opacity="1" />
<path d="M87,.46V1h-1V.54z" fill="#2A1BD5" />
<path d="M86,0h1v1h-1z" fill="#2A1BD5" fill-opacity="1" />
<path d="M88,.46V1h-1V.54z" fill="#2719D8" />
<path d="M87,0h1v1h-1z" fill="#2719D8" fill-opacity="1" />
<path d="M89,.46V1h-1V.54z" fill="#2317DC" />
<path d="M88,0h1v1h-1z" fill="#2317DC" fill-opacity="1" />
<path d="M90,.46V1h-1V.54z" fill="#2015DF" />
<path d="M89,0h1v1h-1z" fill="#2015DF" fill-opacity="1" />
<path d="M91,.46V1h-1V.54z" fill="#1D13E2" />
<path d="M90,0h1v1h-1z" fill="#1D13E2" fill-opacity="1" />
<path d="M92,.46V1h-1V.54z" fill="#1A11E5" />
<path d="M91,0h1v1h-1z" fill="#1A11E5" fill-opacity="1" />
<path d="M93,.46V1h-1V.54z" fill="#170FE8" />
<path d="M92,0h1v1h-1z" fill="#170FE8" fill-opacity="1" />
<path d="M94,.46V1h-1V.54z" fill="#130CEC" />
<path d="M93,0h1v1h-1z" fill="#130CEC" fill-opacity="1" />
<path d="M95,.46V1h-1V.54z" fill="#100AEF" />
<path d="M94,0h1v1h-1z" fill="#100AEF" fill-opacity="1" />
<path d="M96,.46V1h-1V.54z" fill="#0D08F2" />
<path d="M95,0h1v1h-1z" fill="#0D08F2" fill-opacity="1" />
<path d="M97,.46V1h-1V.54z" fill="#0A06F5" />
<path d="M96,0h1v1h-1z" fill="#0A06F5" fill-opacity="1" />
<path d="M98,.46V1h-1V.54z" fill="#0604F9" />
<path d="M97,0h1v1h-1z" fill="#0604F9" fill-opacity="1" />
<path d="M99,.46V1h-1V.54z" fill="#0302FC" />
<path d="M98,0h1v1h-1z" fill="#0302FC" fill-opacity="1" />
<path d="M100,.46V1h-1V.54z" fill="#0000FF" />
<path d="M99,0h1v1h-1z" fill="#0000FF" fill-opacity="1" />
</svg>