<?xml version="1.0" encoding="utf-8"?>
<svg xmlns="http://www.w3.org/2000/svg" xmlns:xlink="http://www.w3.org/1999/xlink" width="600" height="400" viewBox="0 0 2400 1600">
<defs>
  <clipPath id="clip820">
    <rect x="0" y="0" width="2400" height="1600"/>
  </clipPath>
</defs>
<path clip-path="url(#clip820)" d="M0 1600 L2400 1600 L2400 0 L0 0  Z" fill="#ffffff" fill-rule="evenodd" fill-opacity="1"/>
<defs>
  <clipPath id="clip821">
    <rect x="480" y="0" width="1681" height="1600"/>
  </clipPath>
</defs>
<path clip-path="url(#clip820)" d="M212.459 623.18 L1130.38 623.18 L1130.38 123.472 L212.459 123.472  Z" fill="#ffffff" fill-rule="evenodd" fill-opacity="1"/>
<defs>
  <clipPath id="clip822">
    <rect x="212" y="123" width="919" height="501"/>
  </clipPath>
</defs>
<polyline clip-path="url(#clip822)" style="stroke:#000000; stroke-linecap:round; stroke-linejoin:round; stroke-width:2; stroke-opacity:0.1; fill:none" points="375.757,623.18 375.757,123.472 "/>
<polyline clip-path="url(#clip822)" style="stroke:#000000; stroke-linecap:round; stroke-linejoin:round; stroke-width:2; stroke-opacity:0.1; fill:none" points="545.221,623.18 545.221,123.472 "/>
<polyline clip-path="url(#clip822)" style="stroke:#000000; stroke-linecap:round; stroke-linejoin:round; stroke-width:2; stroke-opacity:0.1; fill:none" points="714.686,623.18 714.686,123.472 "/>
<polyline clip-path="url(#clip822)" style="stroke:#000000; stroke-linecap:round; stroke-linejoin:round; stroke-width:2; stroke-opacity:0.1; fill:none" points="884.15,623.18 884.15,123.472 "/>
<polyline clip-path="url(#clip822)" style="stroke:#000000; stroke-linecap:round; stroke-linejoin:round; stroke-width:2; stroke-opacity:0.1; fill:none" points="1053.61,623.18 1053.61,123.472 "/>
<polyline clip-path="url(#clip822)" style="stroke:#000000; stroke-linecap:round; stroke-linejoin:round; stroke-width:2; stroke-opacity:0.1; fill:none" points="212.459,581.726 1130.38,581.726 "/>
<polyline clip-path="url(#clip822)" style="stroke:#000000; stroke-linecap:round; stroke-linejoin:round; stroke-width:2; stroke-opacity:0.1; fill:none" points="212.459,513.94 1130.38,513.94 "/>
<polyline clip-path="url(#clip822)" style="stroke:#000000; stroke-linecap:round; stroke-linejoin:round; stroke-width:2; stroke-opacity:0.1; fill:none" points="212.459,446.155 1130.38,446.155 "/>
<polyline clip-path="url(#clip822)" style="stroke:#000000; stroke-linecap:round; stroke-linejoin:round; stroke-width:2; stroke-opacity:0.1; fill:none" points="212.459,378.369 1130.38,378.369 "/>
<polyline clip-path="url(#clip822)" style="stroke:#000000; stroke-linecap:round; stroke-linejoin:round; stroke-width:2; stroke-opacity:0.1; fill:none" points="212.459,310.583 1130.38,310.583 "/>
<polyline clip-path="url(#clip822)" style="stroke:#000000; stroke-linecap:round; stroke-linejoin:round; stroke-width:2; stroke-opacity:0.1; fill:none" points="212.459,242.797 1130.38,242.797 "/>
<polyline clip-path="url(#clip822)" style="stroke:#000000; stroke-linecap:round; stroke-linejoin:round; stroke-width:2; stroke-opacity:0.1; fill:none" points="212.459,175.012 1130.38,175.012 "/>
<polyline clip-path="url(#clip820)" style="stroke:#000000; stroke-linecap:round; stroke-linejoin:round; stroke-width:4; stroke-opacity:1; fill:none" points="212.459,623.18 1130.38,623.18 "/>
<polyline clip-path="url(#clip820)" style="stroke:#000000; stroke-linecap:round; stroke-linejoin:round; stroke-width:4; stroke-opacity:1; fill:none" points="375.757,623.18 375.757,604.282 "/>
<polyline clip-path="url(#clip820)" style="stroke:#000000; stroke-linecap:round; stroke-linejoin:round; stroke-width:4; stroke-opacity:1; fill:none" points="545.221,623.18 545.221,604.282 "/>
<polyline clip-path="url(#clip820)" style="stroke:#000000; stroke-linecap:round; stroke-linejoin:round; stroke-width:4; stroke-opacity:1; fill:none" points="714.686,623.18 714.686,604.282 "/>
<polyline clip-path="url(#clip820)" style="stroke:#000000; stroke-linecap:round; stroke-linejoin:round; stroke-width:4; stroke-opacity:1; fill:none" points="884.15,623.18 884.15,604.282 "/>
<polyline clip-path="url(#clip820)" style="stroke:#000000; stroke-linecap:round; stroke-linejoin:round; stroke-width:4; stroke-opacity:1; fill:none" points="1053.61,623.18 1053.61,604.282 "/>
<path clip-path="url(#clip820)" d="M322.285 668.751 L351.961 668.751 L351.961 672.686 L322.285 672.686 L322.285 668.751 Z" fill="#000000" fill-rule="nonzero" fill-opacity="1" /><path clip-path="url(#clip820)" d="M362.863 681.645 L370.502 681.645 L370.502 655.279 L362.192 656.946 L362.192 652.687 L370.456 651.02 L375.132 651.02 L375.132 681.645 L382.771 681.645 L382.771 685.58 L362.863 685.58 L362.863 681.645 Z" fill="#000000" fill-rule="nonzero" fill-opacity="1" /><path clip-path="url(#clip820)" d="M392.215 679.7 L397.099 679.7 L397.099 685.58 L392.215 685.58 L392.215 679.7 Z" fill="#000000" fill-rule="nonzero" fill-opacity="1" /><path clip-path="url(#clip820)" d="M417.284 654.099 Q413.673 654.099 411.845 657.663 Q410.039 661.205 410.039 668.335 Q410.039 675.441 411.845 679.006 Q413.673 682.547 417.284 682.547 Q420.919 682.547 422.724 679.006 Q424.553 675.441 424.553 668.335 Q424.553 661.205 422.724 657.663 Q420.919 654.099 417.284 654.099 M417.284 650.395 Q423.095 650.395 426.15 655.001 Q429.229 659.585 429.229 668.335 Q429.229 677.061 426.15 681.668 Q423.095 686.251 417.284 686.251 Q411.474 686.251 408.396 681.668 Q405.34 677.061 405.34 668.335 Q405.34 659.585 408.396 655.001 Q411.474 650.395 417.284 650.395 Z" fill="#000000" fill-rule="nonzero" fill-opacity="1" /><path clip-path="url(#clip820)" d="M492.247 668.751 L521.923 668.751 L521.923 672.686 L492.247 672.686 L492.247 668.751 Z" fill="#000000" fill-rule="nonzero" fill-opacity="1" /><path clip-path="url(#clip820)" d="M542.015 654.099 Q538.404 654.099 536.575 657.663 Q534.77 661.205 534.77 668.335 Q534.77 675.441 536.575 679.006 Q538.404 682.547 542.015 682.547 Q545.649 682.547 547.455 679.006 Q549.284 675.441 549.284 668.335 Q549.284 661.205 547.455 657.663 Q545.649 654.099 542.015 654.099 M542.015 650.395 Q547.825 650.395 550.881 655.001 Q553.96 659.585 553.96 668.335 Q553.96 677.061 550.881 681.668 Q547.825 686.251 542.015 686.251 Q536.205 686.251 533.126 681.668 Q530.071 677.061 530.071 668.335 Q530.071 659.585 533.126 655.001 Q536.205 650.395 542.015 650.395 Z" fill="#000000" fill-rule="nonzero" fill-opacity="1" /><path clip-path="url(#clip820)" d="M562.177 679.7 L567.061 679.7 L567.061 685.58 L562.177 685.58 L562.177 679.7 Z" fill="#000000" fill-rule="nonzero" fill-opacity="1" /><path clip-path="url(#clip820)" d="M577.293 651.02 L595.649 651.02 L595.649 654.955 L581.575 654.955 L581.575 663.427 Q582.594 663.08 583.612 662.918 Q584.631 662.733 585.649 662.733 Q591.436 662.733 594.816 665.904 Q598.196 669.075 598.196 674.492 Q598.196 680.071 594.723 683.172 Q591.251 686.251 584.932 686.251 Q582.756 686.251 580.487 685.881 Q578.242 685.51 575.835 684.77 L575.835 680.071 Q577.918 681.205 580.14 681.76 Q582.362 682.316 584.839 682.316 Q588.844 682.316 591.182 680.21 Q593.52 678.103 593.52 674.492 Q593.52 670.881 591.182 668.774 Q588.844 666.668 584.839 666.668 Q582.964 666.668 581.089 667.085 Q579.237 667.501 577.293 668.381 L577.293 651.02 Z" fill="#000000" fill-rule="nonzero" fill-opacity="1" /><path clip-path="url(#clip820)" d="M692.07 654.099 Q688.459 654.099 686.63 657.663 Q684.825 661.205 684.825 668.335 Q684.825 675.441 686.63 679.006 Q688.459 682.547 692.07 682.547 Q695.704 682.547 697.51 679.006 Q699.338 675.441 699.338 668.335 Q699.338 661.205 697.51 657.663 Q695.704 654.099 692.07 654.099 M692.07 650.395 Q697.88 650.395 700.936 655.001 Q704.014 659.585 704.014 668.335 Q704.014 677.061 700.936 681.668 Q697.88 686.251 692.07 686.251 Q686.26 686.251 683.181 681.668 Q680.126 677.061 680.126 668.335 Q680.126 659.585 683.181 655.001 Q686.26 650.395 692.07 650.395 Z" fill="#000000" fill-rule="nonzero" fill-opacity="1" /><path clip-path="url(#clip820)" d="M712.232 679.7 L717.116 679.7 L717.116 685.58 L712.232 685.58 L712.232 679.7 Z" fill="#000000" fill-rule="nonzero" fill-opacity="1" /><path clip-path="url(#clip820)" d="M737.301 654.099 Q733.69 654.099 731.861 657.663 Q730.056 661.205 730.056 668.335 Q730.056 675.441 731.861 679.006 Q733.69 682.547 737.301 682.547 Q740.935 682.547 742.741 679.006 Q744.57 675.441 744.57 668.335 Q744.57 661.205 742.741 657.663 Q740.935 654.099 737.301 654.099 M737.301 650.395 Q743.111 650.395 746.167 655.001 Q749.246 659.585 749.246 668.335 Q749.246 677.061 746.167 681.668 Q743.111 686.251 737.301 686.251 Q731.491 686.251 728.412 681.668 Q725.357 677.061 725.357 668.335 Q725.357 659.585 728.412 655.001 Q731.491 650.395 737.301 650.395 Z" fill="#000000" fill-rule="nonzero" fill-opacity="1" /><path clip-path="url(#clip820)" d="M862.032 654.099 Q858.421 654.099 856.592 657.663 Q854.787 661.205 854.787 668.335 Q854.787 675.441 856.592 679.006 Q858.421 682.547 862.032 682.547 Q865.666 682.547 867.472 679.006 Q869.301 675.441 869.301 668.335 Q869.301 661.205 867.472 657.663 Q865.666 654.099 862.032 654.099 M862.032 650.395 Q867.842 650.395 870.898 655.001 Q873.976 659.585 873.976 668.335 Q873.976 677.061 870.898 681.668 Q867.842 686.251 862.032 686.251 Q856.222 686.251 853.143 681.668 Q850.088 677.061 850.088 668.335 Q850.088 659.585 853.143 655.001 Q856.222 650.395 862.032 650.395 Z" fill="#000000" fill-rule="nonzero" fill-opacity="1" /><path clip-path="url(#clip820)" d="M882.194 679.7 L887.078 679.7 L887.078 685.58 L882.194 685.58 L882.194 679.7 Z" fill="#000000" fill-rule="nonzero" fill-opacity="1" /><path clip-path="url(#clip820)" d="M897.31 651.02 L915.666 651.02 L915.666 654.955 L901.592 654.955 L901.592 663.427 Q902.611 663.08 903.629 662.918 Q904.648 662.733 905.666 662.733 Q911.453 662.733 914.833 665.904 Q918.212 669.075 918.212 674.492 Q918.212 680.071 914.74 683.172 Q911.268 686.251 904.948 686.251 Q902.773 686.251 900.504 685.881 Q898.259 685.51 895.851 684.77 L895.851 680.071 Q897.935 681.205 900.157 681.76 Q902.379 682.316 904.856 682.316 Q908.86 682.316 911.198 680.21 Q913.536 678.103 913.536 674.492 Q913.536 670.881 911.198 668.774 Q908.86 666.668 904.856 666.668 Q902.981 666.668 901.106 667.085 Q899.254 667.501 897.31 668.381 L897.31 651.02 Z" fill="#000000" fill-rule="nonzero" fill-opacity="1" /><path clip-path="url(#clip820)" d="M1020.77 681.645 L1028.41 681.645 L1028.41 655.279 L1020.1 656.946 L1020.1 652.687 L1028.36 651.02 L1033.04 651.02 L1033.04 681.645 L1040.67 681.645 L1040.67 685.58 L1020.77 685.58 L1020.77 681.645 Z" fill="#000000" fill-rule="nonzero" fill-opacity="1" /><path clip-path="url(#clip820)" d="M1050.12 679.7 L1055 679.7 L1055 685.58 L1050.12 685.58 L1050.12 679.7 Z" fill="#000000" fill-rule="nonzero" fill-opacity="1" /><path clip-path="url(#clip820)" d="M1075.19 654.099 Q1071.58 654.099 1069.75 657.663 Q1067.94 661.205 1067.94 668.335 Q1067.94 675.441 1069.75 679.006 Q1071.58 682.547 1075.19 682.547 Q1078.82 682.547 1080.63 679.006 Q1082.46 675.441 1082.46 668.335 Q1082.46 661.205 1080.63 657.663 Q1078.82 654.099 1075.19 654.099 M1075.19 650.395 Q1081 650.395 1084.05 655.001 Q1087.13 659.585 1087.13 668.335 Q1087.13 677.061 1084.05 681.668 Q1081 686.251 1075.19 686.251 Q1069.38 686.251 1066.3 681.668 Q1063.24 677.061 1063.24 668.335 Q1063.24 659.585 1066.3 655.001 Q1069.38 650.395 1075.19 650.395 Z" fill="#000000" fill-rule="nonzero" fill-opacity="1" /><path clip-path="url(#clip820)" d="M673.379 739.239 Q675.575 735.292 678.63 733.414 Q681.686 731.537 685.824 731.537 Q691.394 731.537 694.417 735.451 Q697.441 739.335 697.441 746.528 L697.441 768.044 L691.553 768.044 L691.553 746.719 Q691.553 741.594 689.738 739.112 Q687.924 736.629 684.2 736.629 Q679.649 736.629 677.007 739.653 Q674.365 742.677 674.365 747.896 L674.365 768.044 L668.477 768.044 L668.477 746.719 Q668.477 741.563 666.663 739.112 Q664.849 736.629 661.061 736.629 Q656.573 736.629 653.931 739.685 Q651.29 742.708 651.29 747.896 L651.29 768.044 L645.401 768.044 L645.401 732.396 L651.29 732.396 L651.29 737.934 Q653.295 734.656 656.096 733.096 Q658.897 731.537 662.748 731.537 Q666.631 731.537 669.336 733.51 Q672.074 735.483 673.379 739.239 Z" fill="#000000" fill-rule="nonzero" fill-opacity="1" /><polyline clip-path="url(#clip820)" style="stroke:#000000; stroke-linecap:round; stroke-linejoin:round; stroke-width:4; stroke-opacity:1; fill:none" points="212.459,623.18 212.459,123.472 "/>
<polyline clip-path="url(#clip820)" style="stroke:#000000; stroke-linecap:round; stroke-linejoin:round; stroke-width:4; stroke-opacity:1; fill:none" points="212.459,581.726 231.357,581.726 "/>
<polyline clip-path="url(#clip820)" style="stroke:#000000; stroke-linecap:round; stroke-linejoin:round; stroke-width:4; stroke-opacity:1; fill:none" points="212.459,513.94 231.357,513.94 "/>
<polyline clip-path="url(#clip820)" style="stroke:#000000; stroke-linecap:round; stroke-linejoin:round; stroke-width:4; stroke-opacity:1; fill:none" points="212.459,446.155 231.357,446.155 "/>
<polyline clip-path="url(#clip820)" style="stroke:#000000; stroke-linecap:round; stroke-linejoin:round; stroke-width:4; stroke-opacity:1; fill:none" points="212.459,378.369 231.357,378.369 "/>
<polyline clip-path="url(#clip820)" style="stroke:#000000; stroke-linecap:round; stroke-linejoin:round; stroke-width:4; stroke-opacity:1; fill:none" points="212.459,310.583 231.357,310.583 "/>
<polyline clip-path="url(#clip820)" style="stroke:#000000; stroke-linecap:round; stroke-linejoin:round; stroke-width:4; stroke-opacity:1; fill:none" points="212.459,242.797 231.357,242.797 "/>
<polyline clip-path="url(#clip820)" style="stroke:#000000; stroke-linecap:round; stroke-linejoin:round; stroke-width:4; stroke-opacity:1; fill:none" points="212.459,175.012 231.357,175.012 "/>
<path clip-path="url(#clip820)" d="M114.584 582.177 L144.26 582.177 L144.26 586.113 L114.584 586.113 L114.584 582.177 Z" fill="#000000" fill-rule="nonzero" fill-opacity="1" /><path clip-path="url(#clip820)" d="M164.931 579.863 Q161.783 579.863 159.931 582.015 Q158.103 584.168 158.103 587.918 Q158.103 591.645 159.931 593.821 Q161.783 595.974 164.931 595.974 Q168.079 595.974 169.908 593.821 Q171.76 591.645 171.76 587.918 Q171.76 584.168 169.908 582.015 Q168.079 579.863 164.931 579.863 M174.214 565.21 L174.214 569.469 Q172.454 568.636 170.649 568.196 Q168.866 567.756 167.107 567.756 Q162.477 567.756 160.024 570.881 Q157.593 574.006 157.246 580.326 Q158.612 578.312 160.672 577.247 Q162.732 576.159 165.209 576.159 Q170.417 576.159 173.427 579.33 Q176.459 582.478 176.459 587.918 Q176.459 593.242 173.311 596.46 Q170.163 599.677 164.931 599.677 Q158.936 599.677 155.765 595.094 Q152.593 590.488 152.593 581.761 Q152.593 573.566 156.482 568.705 Q160.371 563.821 166.922 563.821 Q168.681 563.821 170.464 564.168 Q172.269 564.515 174.214 565.21 Z" fill="#000000" fill-rule="nonzero" fill-opacity="1" /><path clip-path="url(#clip820)" d="M114.26 514.392 L143.936 514.392 L143.936 518.327 L114.26 518.327 L114.26 514.392 Z" fill="#000000" fill-rule="nonzero" fill-opacity="1" /><path clip-path="url(#clip820)" d="M166.876 500.734 L155.07 519.183 L166.876 519.183 L166.876 500.734 M165.649 496.66 L171.528 496.66 L171.528 519.183 L176.459 519.183 L176.459 523.072 L171.528 523.072 L171.528 531.22 L166.876 531.22 L166.876 523.072 L151.274 523.072 L151.274 518.558 L165.649 496.66 Z" fill="#000000" fill-rule="nonzero" fill-opacity="1" /><path clip-path="url(#clip820)" d="M116.343 446.606 L146.019 446.606 L146.019 450.541 L116.343 450.541 L116.343 446.606 Z" fill="#000000" fill-rule="nonzero" fill-opacity="1" /><path clip-path="url(#clip820)" d="M160.14 459.499 L176.459 459.499 L176.459 463.435 L154.515 463.435 L154.515 459.499 Q157.177 456.745 161.76 452.115 Q166.366 447.462 167.547 446.12 Q169.792 443.597 170.672 441.861 Q171.575 440.101 171.575 438.412 Q171.575 435.657 169.63 433.921 Q167.709 432.185 164.607 432.185 Q162.408 432.185 159.954 432.949 Q157.524 433.712 154.746 435.263 L154.746 430.541 Q157.57 429.407 160.024 428.828 Q162.477 428.25 164.515 428.25 Q169.885 428.25 173.079 430.935 Q176.274 433.62 176.274 438.111 Q176.274 440.24 175.464 442.161 Q174.677 444.06 172.57 446.652 Q171.991 447.324 168.889 450.541 Q165.788 453.736 160.14 459.499 Z" fill="#000000" fill-rule="nonzero" fill-opacity="1" /><path clip-path="url(#clip820)" d="M164.515 364.167 Q160.903 364.167 159.075 367.732 Q157.269 371.274 157.269 378.404 Q157.269 385.51 159.075 389.075 Q160.903 392.616 164.515 392.616 Q168.149 392.616 169.954 389.075 Q171.783 385.51 171.783 378.404 Q171.783 371.274 169.954 367.732 Q168.149 364.167 164.515 364.167 M164.515 360.464 Q170.325 360.464 173.38 365.07 Q176.459 369.654 176.459 378.404 Q176.459 387.13 173.38 391.737 Q170.325 396.32 164.515 396.32 Q158.704 396.32 155.626 391.737 Q152.57 387.13 152.57 378.404 Q152.57 369.654 155.626 365.07 Q158.704 360.464 164.515 360.464 Z" fill="#000000" fill-rule="nonzero" fill-opacity="1" /><path clip-path="url(#clip820)" d="M160.14 323.928 L176.459 323.928 L176.459 327.863 L154.515 327.863 L154.515 323.928 Q157.177 321.173 161.76 316.544 Q166.366 311.891 167.547 310.548 Q169.792 308.025 170.672 306.289 Q171.575 304.53 171.575 302.84 Q171.575 300.085 169.63 298.349 Q167.709 296.613 164.607 296.613 Q162.408 296.613 159.954 297.377 Q157.524 298.141 154.746 299.692 L154.746 294.97 Q157.57 293.835 160.024 293.257 Q162.477 292.678 164.515 292.678 Q169.885 292.678 173.079 295.363 Q176.274 298.048 176.274 302.539 Q176.274 304.669 175.464 306.59 Q174.677 308.488 172.57 311.081 Q171.991 311.752 168.889 314.97 Q165.788 318.164 160.14 323.928 Z" fill="#000000" fill-rule="nonzero" fill-opacity="1" /><path clip-path="url(#clip820)" d="M166.876 229.591 L155.07 248.04 L166.876 248.04 L166.876 229.591 M165.649 225.517 L171.528 225.517 L171.528 248.04 L176.459 248.04 L176.459 251.929 L171.528 251.929 L171.528 260.077 L166.876 260.077 L166.876 251.929 L151.274 251.929 L151.274 247.415 L165.649 225.517 Z" fill="#000000" fill-rule="nonzero" fill-opacity="1" /><path clip-path="url(#clip820)" d="M164.931 173.148 Q161.783 173.148 159.931 175.301 Q158.103 177.454 158.103 181.204 Q158.103 184.93 159.931 187.106 Q161.783 189.259 164.931 189.259 Q168.079 189.259 169.908 187.106 Q171.76 184.93 171.76 181.204 Q171.76 177.454 169.908 175.301 Q168.079 173.148 164.931 173.148 M174.214 158.495 L174.214 162.755 Q172.454 161.921 170.649 161.482 Q168.866 161.042 167.107 161.042 Q162.477 161.042 160.024 164.167 Q157.593 167.292 157.246 173.611 Q158.612 171.597 160.672 170.532 Q162.732 169.444 165.209 169.444 Q170.417 169.444 173.427 172.616 Q176.459 175.764 176.459 181.204 Q176.459 186.528 173.311 189.745 Q170.163 192.963 164.931 192.963 Q158.936 192.963 155.765 188.38 Q152.593 183.773 152.593 175.046 Q152.593 166.852 156.482 161.991 Q160.371 157.107 166.922 157.107 Q168.681 157.107 170.464 157.454 Q172.269 157.801 174.214 158.495 Z" fill="#000000" fill-rule="nonzero" fill-opacity="1" /><path clip-path="url(#clip820)" d="M33.7671 395.192 L14.479 395.192 L14.479 389.336 L64.0042 389.336 L64.0042 395.192 L58.657 395.192 Q61.8398 397.038 63.3994 399.871 Q64.9272 402.672 64.9272 406.619 Q64.9272 413.08 59.771 417.154 Q54.6147 421.196 46.212 421.196 Q37.8093 421.196 32.6531 417.154 Q27.4968 413.08 27.4968 406.619 Q27.4968 402.672 29.0564 399.871 Q30.5842 397.038 33.7671 395.192 M46.212 415.149 Q52.6732 415.149 56.3653 412.507 Q60.0256 409.833 60.0256 405.186 Q60.0256 400.539 56.3653 397.866 Q52.6732 395.192 46.212 395.192 Q39.7508 395.192 36.0905 397.866 Q32.3984 400.539 32.3984 405.186 Q32.3984 409.833 36.0905 412.507 Q39.7508 415.149 46.212 415.149 Z" fill="#000000" fill-rule="nonzero" fill-opacity="1" /><path clip-path="url(#clip820)" d="M35.1993 349.518 Q31.2526 347.322 29.3747 344.267 Q27.4968 341.211 27.4968 337.073 Q27.4968 331.503 31.4117 328.48 Q35.2948 325.456 42.4881 325.456 L64.0042 325.456 L64.0042 331.344 L42.679 331.344 Q37.5546 331.344 35.072 333.158 Q32.5894 334.973 32.5894 338.697 Q32.5894 343.248 35.6131 345.89 Q38.6368 348.532 43.8567 348.532 L64.0042 348.532 L64.0042 354.42 L42.679 354.42 Q37.5228 354.42 35.072 356.234 Q32.5894 358.048 32.5894 361.836 Q32.5894 366.324 35.6449 368.965 Q38.6686 371.607 43.8567 371.607 L64.0042 371.607 L64.0042 377.496 L28.3562 377.496 L28.3562 371.607 L33.8944 371.607 Q30.616 369.602 29.0564 366.801 Q27.4968 364 27.4968 360.149 Q27.4968 356.266 29.4702 353.56 Q31.4436 350.823 35.1993 349.518 Z" fill="#000000" fill-rule="nonzero" fill-opacity="1" /><path clip-path="url(#clip820)" d="M551.109 62.2867 L559.657 62.2867 L559.657 72.576 L551.109 72.576 L551.109 62.2867 M551.109 29.6769 L559.657 29.6769 L559.657 39.9662 L551.109 39.9662 L551.109 29.6769 Z" fill="#000000" fill-rule="nonzero" fill-opacity="1" /><path clip-path="url(#clip820)" d="M615.964 48.0275 L615.964 51.6733 L581.694 51.6733 Q582.18 59.3701 586.312 63.421 Q590.484 67.4314 597.897 67.4314 Q602.191 67.4314 606.202 66.3781 Q610.252 65.3249 614.222 63.2184 L614.222 70.267 Q610.212 71.9684 605.999 72.8596 Q601.786 73.7508 597.452 73.7508 Q586.595 73.7508 580.235 67.4314 Q573.916 61.1119 573.916 50.3365 Q573.916 39.1965 579.911 32.6746 Q585.947 26.1121 596.155 26.1121 Q605.31 26.1121 610.617 32.0264 Q615.964 37.9003 615.964 48.0275 M608.511 45.84 Q608.43 39.7232 605.067 36.0774 Q601.746 32.4315 596.236 32.4315 Q589.998 32.4315 586.231 35.9558 Q582.504 39.4801 581.937 45.8805 L608.511 45.84 Z" fill="#000000" fill-rule="nonzero" fill-opacity="1" /><path clip-path="url(#clip820)" d="M632.654 49.9314 Q632.654 58.1548 636.016 62.8538 Q639.419 67.5124 645.333 67.5124 Q651.248 67.5124 654.65 62.8538 Q658.053 58.1548 658.053 49.9314 Q658.053 41.7081 654.65 37.0496 Q651.248 32.3505 645.333 32.3505 Q639.419 32.3505 636.016 37.0496 Q632.654 41.7081 632.654 49.9314 M658.053 65.7705 Q655.704 69.8214 652.098 71.8063 Q648.534 73.7508 643.51 73.7508 Q635.287 73.7508 630.102 67.1883 Q624.957 60.6258 624.957 49.9314 Q624.957 39.2371 630.102 32.6746 Q635.287 26.1121 643.51 26.1121 Q648.534 26.1121 652.098 28.0971 Q655.704 30.0415 658.053 34.0924 L658.053 27.2059 L665.507 27.2059 L665.507 89.8329 L658.053 89.8329 L658.053 65.7705 Z" fill="#000000" fill-rule="nonzero" fill-opacity="1" /><path clip-path="url(#clip820)" d="M680.09 54.671 L680.09 27.2059 L687.544 27.2059 L687.544 54.3874 Q687.544 60.8284 690.055 64.0691 Q692.567 67.2693 697.59 67.2693 Q703.626 67.2693 707.11 63.421 Q710.634 59.5726 710.634 52.9291 L710.634 27.2059 L718.088 27.2059 L718.088 72.576 L710.634 72.576 L710.634 65.6084 Q707.92 69.7404 704.314 71.7658 Q700.75 73.7508 696.01 73.7508 Q688.192 73.7508 684.141 68.8897 Q680.09 64.0286 680.09 54.671 M698.846 26.1121 L698.846 26.1121 Z" fill="#000000" fill-rule="nonzero" fill-opacity="1" /><path clip-path="url(#clip820)" d="M754.06 49.7694 Q745.026 49.7694 741.542 51.8354 Q738.058 53.9013 738.058 58.8839 Q738.058 62.8538 740.651 65.2034 Q743.284 67.5124 747.781 67.5124 Q753.979 67.5124 757.705 63.1374 Q761.473 58.7219 761.473 51.4303 L761.473 49.7694 L754.06 49.7694 M768.926 46.6907 L768.926 72.576 L761.473 72.576 L761.473 65.6895 Q758.921 69.8214 755.113 71.8063 Q751.305 73.7508 745.796 73.7508 Q738.828 73.7508 734.696 69.8619 Q730.605 65.9325 730.605 59.3701 Q730.605 51.7138 735.709 47.825 Q740.854 43.9361 751.021 43.9361 L761.473 43.9361 L761.473 43.2069 Q761.473 38.0623 758.07 35.2672 Q754.708 32.4315 748.591 32.4315 Q744.702 32.4315 741.016 33.3632 Q737.329 34.295 733.927 36.1584 L733.927 29.2718 Q738.018 27.692 741.866 26.9223 Q745.715 26.1121 749.361 26.1121 Q759.204 26.1121 764.065 31.2163 Q768.926 36.3204 768.926 46.6907 Z" fill="#000000" fill-rule="nonzero" fill-opacity="1" /><path clip-path="url(#clip820)" d="M784.279 9.54393 L791.733 9.54393 L791.733 72.576 L784.279 72.576 L784.279 9.54393 Z" fill="#000000" fill-rule="nonzero" fill-opacity="1" /><polyline clip-path="url(#clip822)" style="stroke:#009af9; stroke-linecap:round; stroke-linejoin:round; stroke-width:4; stroke-opacity:1; fill:none" points="518.923,343.01 697.877,389.102 1104.4,348.184 238.438,429.982 803.01,395.615 315.495,363.368 475.148,377.195 953.762,398.302 921.439,316.67 290.972,388.463 "/>
<path clip-path="url(#clip820)" d="M955.563 243.809 L1099.79 243.809 L1099.79 140.129 L955.563 140.129  Z" fill="#ffffff" fill-rule="evenodd" fill-opacity="1"/>
<polyline clip-path="url(#clip820)" style="stroke:#000000; stroke-linecap:round; stroke-linejoin:round; stroke-width:4; stroke-opacity:1; fill:none" points="955.563,243.809 1099.79,243.809 1099.79,140.129 955.563,140.129 955.563,243.809 "/>
<polyline clip-path="url(#clip820)" style="stroke:#009af9; stroke-linecap:round; stroke-linejoin:round; stroke-width:4; stroke-opacity:1; fill:none" points="965.762,191.969 1026.96,191.969 "/>
<path clip-path="url(#clip820)" d="M1051 211.656 Q1049.19 216.286 1047.48 217.698 Q1045.77 219.11 1042.9 219.11 L1039.49 219.11 L1039.49 215.545 L1041.99 215.545 Q1043.75 215.545 1044.73 214.712 Q1045.7 213.879 1046.88 210.777 L1047.64 208.832 L1037.16 183.323 L1041.67 183.323 L1049.77 203.601 L1057.87 183.323 L1062.39 183.323 L1051 211.656 Z" fill="#000000" fill-rule="nonzero" fill-opacity="1" /><path clip-path="url(#clip820)" d="M1069.68 205.314 L1077.32 205.314 L1077.32 178.948 L1069.01 180.615 L1069.01 176.356 L1077.27 174.689 L1081.95 174.689 L1081.95 205.314 L1089.59 205.314 L1089.59 209.249 L1069.68 209.249 L1069.68 205.314 Z" fill="#000000" fill-rule="nonzero" fill-opacity="1" /><path clip-path="url(#clip820)" d="M1434.83 623.18 L2352.76 623.18 L2352.76 123.472 L1434.83 123.472  Z" fill="#ffffff" fill-rule="evenodd" fill-opacity="1"/>
<defs>
  <clipPath id="clip823">
    <rect x="1434" y="123" width="919" height="501"/>
  </clipPath>
</defs>
<polyline clip-path="url(#clip823)" style="stroke:#000000; stroke-linecap:round; stroke-linejoin:round; stroke-width:2; stroke-opacity:0.1; fill:none" points="1474.45,623.18 1474.45,123.472 "/>
<polyline clip-path="url(#clip823)" style="stroke:#000000; stroke-linecap:round; stroke-linejoin:round; stroke-width:2; stroke-opacity:0.1; fill:none" points="1682.67,623.18 1682.67,123.472 "/>
<polyline clip-path="url(#clip823)" style="stroke:#000000; stroke-linecap:round; stroke-linejoin:round; stroke-width:2; stroke-opacity:0.1; fill:none" points="1890.89,623.18 1890.89,123.472 "/>
<polyline clip-path="url(#clip823)" style="stroke:#000000; stroke-linecap:round; stroke-linejoin:round; stroke-width:2; stroke-opacity:0.1; fill:none" points="2099.12,623.18 2099.12,123.472 "/>
<polyline clip-path="url(#clip823)" style="stroke:#000000; stroke-linecap:round; stroke-linejoin:round; stroke-width:2; stroke-opacity:0.1; fill:none" points="2307.34,623.18 2307.34,123.472 "/>
<polyline clip-path="url(#clip823)" style="stroke:#000000; stroke-linecap:round; stroke-linejoin:round; stroke-width:2; stroke-opacity:0.1; fill:none" points="1434.83,608.429 2352.76,608.429 "/>
<polyline clip-path="url(#clip823)" style="stroke:#000000; stroke-linecap:round; stroke-linejoin:round; stroke-width:2; stroke-opacity:0.1; fill:none" points="1434.83,504.317 2352.76,504.317 "/>
<polyline clip-path="url(#clip823)" style="stroke:#000000; stroke-linecap:round; stroke-linejoin:round; stroke-width:2; stroke-opacity:0.1; fill:none" points="1434.83,400.205 2352.76,400.205 "/>
<polyline clip-path="url(#clip823)" style="stroke:#000000; stroke-linecap:round; stroke-linejoin:round; stroke-width:2; stroke-opacity:0.1; fill:none" points="1434.83,296.093 2352.76,296.093 "/>
<polyline clip-path="url(#clip823)" style="stroke:#000000; stroke-linecap:round; stroke-linejoin:round; stroke-width:2; stroke-opacity:0.1; fill:none" points="1434.83,191.981 2352.76,191.981 "/>
<polyline clip-path="url(#clip820)" style="stroke:#000000; stroke-linecap:round; stroke-linejoin:round; stroke-width:4; stroke-opacity:1; fill:none" points="1434.83,623.18 2352.76,623.18 "/>
<polyline clip-path="url(#clip820)" style="stroke:#000000; stroke-linecap:round; stroke-linejoin:round; stroke-width:4; stroke-opacity:1; fill:none" points="1474.45,623.18 1474.45,604.282 "/>
<polyline clip-path="url(#clip820)" style="stroke:#000000; stroke-linecap:round; stroke-linejoin:round; stroke-width:4; stroke-opacity:1; fill:none" points="1682.67,623.18 1682.67,604.282 "/>
<polyline clip-path="url(#clip820)" style="stroke:#000000; stroke-linecap:round; stroke-linejoin:round; stroke-width:4; stroke-opacity:1; fill:none" points="1890.89,623.18 1890.89,604.282 "/>
<polyline clip-path="url(#clip820)" style="stroke:#000000; stroke-linecap:round; stroke-linejoin:round; stroke-width:4; stroke-opacity:1; fill:none" points="2099.12,623.18 2099.12,604.282 "/>
<polyline clip-path="url(#clip820)" style="stroke:#000000; stroke-linecap:round; stroke-linejoin:round; stroke-width:4; stroke-opacity:1; fill:none" points="2307.34,623.18 2307.34,604.282 "/>
<path clip-path="url(#clip820)" d="M1443.35 668.751 L1473.02 668.751 L1473.02 672.686 L1443.35 672.686 L1443.35 668.751 Z" fill="#000000" fill-rule="nonzero" fill-opacity="1" /><path clip-path="url(#clip820)" d="M1495.96 655.094 L1484.16 673.543 L1495.96 673.543 L1495.96 655.094 M1494.74 651.02 L1500.62 651.02 L1500.62 673.543 L1505.55 673.543 L1505.55 677.432 L1500.62 677.432 L1500.62 685.58 L1495.96 685.58 L1495.96 677.432 L1480.36 677.432 L1480.36 672.918 L1494.74 651.02 Z" fill="#000000" fill-rule="nonzero" fill-opacity="1" /><path clip-path="url(#clip820)" d="M1652.61 668.751 L1682.29 668.751 L1682.29 672.686 L1652.61 672.686 L1652.61 668.751 Z" fill="#000000" fill-rule="nonzero" fill-opacity="1" /><path clip-path="url(#clip820)" d="M1696.41 681.645 L1712.73 681.645 L1712.73 685.58 L1690.78 685.58 L1690.78 681.645 Q1693.45 678.89 1698.03 674.26 Q1702.64 669.608 1703.82 668.265 Q1706.06 665.742 1706.94 664.006 Q1707.84 662.247 1707.84 660.557 Q1707.84 657.802 1705.9 656.066 Q1703.98 654.33 1700.88 654.33 Q1698.68 654.33 1696.22 655.094 Q1693.79 655.858 1691.02 657.409 L1691.02 652.687 Q1693.84 651.552 1696.29 650.974 Q1698.75 650.395 1700.78 650.395 Q1706.15 650.395 1709.35 653.08 Q1712.54 655.765 1712.54 660.256 Q1712.54 662.386 1711.73 664.307 Q1710.95 666.205 1708.84 668.798 Q1708.26 669.469 1705.16 672.686 Q1702.06 675.881 1696.41 681.645 Z" fill="#000000" fill-rule="nonzero" fill-opacity="1" /><path clip-path="url(#clip820)" d="M1890.89 654.099 Q1887.28 654.099 1885.46 657.663 Q1883.65 661.205 1883.65 668.335 Q1883.65 675.441 1885.46 679.006 Q1887.28 682.547 1890.89 682.547 Q1894.53 682.547 1896.33 679.006 Q1898.16 675.441 1898.16 668.335 Q1898.16 661.205 1896.33 657.663 Q1894.53 654.099 1890.89 654.099 M1890.89 650.395 Q1896.71 650.395 1899.76 655.001 Q1902.84 659.585 1902.84 668.335 Q1902.84 677.061 1899.76 681.668 Q1896.71 686.251 1890.89 686.251 Q1885.08 686.251 1882.01 681.668 Q1878.95 677.061 1878.95 668.335 Q1878.95 659.585 1882.01 655.001 Q1885.08 650.395 1890.89 650.395 Z" fill="#000000" fill-rule="nonzero" fill-opacity="1" /><path clip-path="url(#clip820)" d="M2093.77 681.645 L2110.09 681.645 L2110.09 685.58 L2088.15 685.58 L2088.15 681.645 Q2090.81 678.89 2095.39 674.26 Q2100 669.608 2101.18 668.265 Q2103.42 665.742 2104.3 664.006 Q2105.21 662.247 2105.21 660.557 Q2105.21 657.802 2103.26 656.066 Q2101.34 654.33 2098.24 654.33 Q2096.04 654.33 2093.59 655.094 Q2091.16 655.858 2088.38 657.409 L2088.38 652.687 Q2091.2 651.552 2093.66 650.974 Q2096.11 650.395 2098.15 650.395 Q2103.52 650.395 2106.71 653.08 Q2109.91 655.765 2109.91 660.256 Q2109.91 662.386 2109.1 664.307 Q2108.31 666.205 2106.2 668.798 Q2105.62 669.469 2102.52 672.686 Q2099.42 675.881 2093.77 681.645 Z" fill="#000000" fill-rule="nonzero" fill-opacity="1" /><path clip-path="url(#clip820)" d="M2310.35 655.094 L2298.55 673.543 L2310.35 673.543 L2310.35 655.094 M2309.13 651.02 L2315 651.02 L2315 673.543 L2319.94 673.543 L2319.94 677.432 L2315 677.432 L2315 685.58 L2310.35 685.58 L2310.35 677.432 L2294.75 677.432 L2294.75 672.918 L2309.13 651.02 Z" fill="#000000" fill-rule="nonzero" fill-opacity="1" /><path clip-path="url(#clip820)" d="M1895.75 739.239 Q1897.95 735.292 1901 733.414 Q1904.06 731.537 1908.2 731.537 Q1913.77 731.537 1916.79 735.451 Q1919.81 739.335 1919.81 746.528 L1919.81 768.044 L1913.93 768.044 L1913.93 746.719 Q1913.93 741.594 1912.11 739.112 Q1910.3 736.629 1906.57 736.629 Q1902.02 736.629 1899.38 739.653 Q1896.74 742.677 1896.74 747.896 L1896.74 768.044 L1890.85 768.044 L1890.85 746.719 Q1890.85 741.563 1889.04 739.112 Q1887.22 736.629 1883.43 736.629 Q1878.95 736.629 1876.3 739.685 Q1873.66 742.708 1873.66 747.896 L1873.66 768.044 L1867.77 768.044 L1867.77 732.396 L1873.66 732.396 L1873.66 737.934 Q1875.67 734.656 1878.47 733.096 Q1881.27 731.537 1885.12 731.537 Q1889 731.537 1891.71 733.51 Q1894.45 735.483 1895.75 739.239 Z" fill="#000000" fill-rule="nonzero" fill-opacity="1" /><polyline clip-path="url(#clip820)" style="stroke:#000000; stroke-linecap:round; stroke-linejoin:round; stroke-width:4; stroke-opacity:1; fill:none" points="1434.83,623.18 1434.83,123.472 "/>
<polyline clip-path="url(#clip820)" style="stroke:#000000; stroke-linecap:round; stroke-linejoin:round; stroke-width:4; stroke-opacity:1; fill:none" points="1434.83,608.429 1453.73,608.429 "/>
<polyline clip-path="url(#clip820)" style="stroke:#000000; stroke-linecap:round; stroke-linejoin:round; stroke-width:4; stroke-opacity:1; fill:none" points="1434.83,504.317 1453.73,504.317 "/>
<polyline clip-path="url(#clip820)" style="stroke:#000000; stroke-linecap:round; stroke-linejoin:round; stroke-width:4; stroke-opacity:1; fill:none" points="1434.83,400.205 1453.73,400.205 "/>
<polyline clip-path="url(#clip820)" style="stroke:#000000; stroke-linecap:round; stroke-linejoin:round; stroke-width:4; stroke-opacity:1; fill:none" points="1434.83,296.093 1453.73,296.093 "/>
<polyline clip-path="url(#clip820)" style="stroke:#000000; stroke-linecap:round; stroke-linejoin:round; stroke-width:4; stroke-opacity:1; fill:none" points="1434.83,191.981 1453.73,191.981 "/>
<path clip-path="url(#clip820)" d="M1292.88 608.88 L1322.56 608.88 L1322.56 612.815 L1292.88 612.815 L1292.88 608.88 Z" fill="#000000" fill-rule="nonzero" fill-opacity="1" /><path clip-path="url(#clip820)" d="M1333.46 621.774 L1341.1 621.774 L1341.1 595.408 L1332.79 597.075 L1332.79 592.816 L1341.05 591.149 L1345.73 591.149 L1345.73 621.774 L1353.37 621.774 L1353.37 625.709 L1333.46 625.709 L1333.46 621.774 Z" fill="#000000" fill-rule="nonzero" fill-opacity="1" /><path clip-path="url(#clip820)" d="M1362.81 619.829 L1367.7 619.829 L1367.7 625.709 L1362.81 625.709 L1362.81 619.829 Z" fill="#000000" fill-rule="nonzero" fill-opacity="1" /><path clip-path="url(#clip820)" d="M1377.93 591.149 L1396.29 591.149 L1396.29 595.084 L1382.21 595.084 L1382.21 603.556 Q1383.23 603.209 1384.25 603.047 Q1385.27 602.862 1386.29 602.862 Q1392.07 602.862 1395.45 606.033 Q1398.83 609.204 1398.83 614.621 Q1398.83 620.2 1395.36 623.301 Q1391.89 626.38 1385.57 626.38 Q1383.39 626.38 1381.12 626.01 Q1378.88 625.639 1376.47 624.899 L1376.47 620.2 Q1378.55 621.334 1380.78 621.889 Q1383 622.445 1385.48 622.445 Q1389.48 622.445 1391.82 620.339 Q1394.16 618.232 1394.16 614.621 Q1394.16 611.01 1391.82 608.903 Q1389.48 606.797 1385.48 606.797 Q1383.6 606.797 1381.73 607.214 Q1379.87 607.63 1377.93 608.51 L1377.93 591.149 Z" fill="#000000" fill-rule="nonzero" fill-opacity="1" /><path clip-path="url(#clip820)" d="M1291.89 504.768 L1321.56 504.768 L1321.56 508.703 L1291.89 508.703 L1291.89 504.768 Z" fill="#000000" fill-rule="nonzero" fill-opacity="1" /><path clip-path="url(#clip820)" d="M1332.47 517.662 L1340.1 517.662 L1340.1 491.296 L1331.79 492.963 L1331.79 488.704 L1340.06 487.037 L1344.73 487.037 L1344.73 517.662 L1352.37 517.662 L1352.37 521.597 L1332.47 521.597 L1332.47 517.662 Z" fill="#000000" fill-rule="nonzero" fill-opacity="1" /><path clip-path="url(#clip820)" d="M1361.82 515.717 L1366.7 515.717 L1366.7 521.597 L1361.82 521.597 L1361.82 515.717 Z" fill="#000000" fill-rule="nonzero" fill-opacity="1" /><path clip-path="url(#clip820)" d="M1386.89 490.116 Q1383.28 490.116 1381.45 493.68 Q1379.64 497.222 1379.64 504.352 Q1379.64 511.458 1381.45 515.023 Q1383.28 518.565 1386.89 518.565 Q1390.52 518.565 1392.33 515.023 Q1394.16 511.458 1394.16 504.352 Q1394.16 497.222 1392.33 493.68 Q1390.52 490.116 1386.89 490.116 M1386.89 486.412 Q1392.7 486.412 1395.75 491.018 Q1398.83 495.602 1398.83 504.352 Q1398.83 513.078 1395.75 517.685 Q1392.7 522.268 1386.89 522.268 Q1381.08 522.268 1378 517.685 Q1374.94 513.078 1374.94 504.352 Q1374.94 495.602 1378 491.018 Q1381.08 486.412 1386.89 486.412 Z" fill="#000000" fill-rule="nonzero" fill-opacity="1" /><path clip-path="url(#clip820)" d="M1292.88 400.656 L1322.56 400.656 L1322.56 404.591 L1292.88 404.591 L1292.88 400.656 Z" fill="#000000" fill-rule="nonzero" fill-opacity="1" /><path clip-path="url(#clip820)" d="M1342.65 386.004 Q1339.04 386.004 1337.21 389.568 Q1335.41 393.11 1335.41 400.24 Q1335.41 407.346 1337.21 410.911 Q1339.04 414.453 1342.65 414.453 Q1346.29 414.453 1348.09 410.911 Q1349.92 407.346 1349.92 400.24 Q1349.92 393.11 1348.09 389.568 Q1346.29 386.004 1342.65 386.004 M1342.65 382.3 Q1348.46 382.3 1351.52 386.906 Q1354.6 391.49 1354.6 400.24 Q1354.6 408.966 1351.52 413.573 Q1348.46 418.156 1342.65 418.156 Q1336.84 418.156 1333.76 413.573 Q1330.71 408.966 1330.71 400.24 Q1330.71 391.49 1333.76 386.906 Q1336.84 382.3 1342.65 382.3 Z" fill="#000000" fill-rule="nonzero" fill-opacity="1" /><path clip-path="url(#clip820)" d="M1362.81 411.605 L1367.7 411.605 L1367.7 417.485 L1362.81 417.485 L1362.81 411.605 Z" fill="#000000" fill-rule="nonzero" fill-opacity="1" /><path clip-path="url(#clip820)" d="M1377.93 382.925 L1396.29 382.925 L1396.29 386.86 L1382.21 386.86 L1382.21 395.332 Q1383.23 394.985 1384.25 394.823 Q1385.27 394.638 1386.29 394.638 Q1392.07 394.638 1395.45 397.809 Q1398.83 400.98 1398.83 406.397 Q1398.83 411.976 1395.36 415.078 Q1391.89 418.156 1385.57 418.156 Q1383.39 418.156 1381.12 417.786 Q1378.88 417.415 1376.47 416.675 L1376.47 411.976 Q1378.55 413.11 1380.78 413.666 Q1383 414.221 1385.48 414.221 Q1389.48 414.221 1391.82 412.115 Q1394.16 410.008 1394.16 406.397 Q1394.16 402.786 1391.82 400.679 Q1389.48 398.573 1385.48 398.573 Q1383.6 398.573 1381.73 398.99 Q1379.87 399.406 1377.93 400.286 L1377.93 382.925 Z" fill="#000000" fill-rule="nonzero" fill-opacity="1" /><path clip-path="url(#clip820)" d="M1341.66 281.892 Q1338.04 281.892 1336.22 285.456 Q1334.41 288.998 1334.41 296.128 Q1334.41 303.234 1336.22 306.799 Q1338.04 310.341 1341.66 310.341 Q1345.29 310.341 1347.1 306.799 Q1348.92 303.234 1348.92 296.128 Q1348.92 288.998 1347.1 285.456 Q1345.29 281.892 1341.66 281.892 M1341.66 278.188 Q1347.47 278.188 1350.52 282.794 Q1353.6 287.378 1353.6 296.128 Q1353.6 304.854 1350.52 309.461 Q1347.47 314.044 1341.66 314.044 Q1335.85 314.044 1332.77 309.461 Q1329.71 304.854 1329.71 296.128 Q1329.71 287.378 1332.77 282.794 Q1335.85 278.188 1341.66 278.188 Z" fill="#000000" fill-rule="nonzero" fill-opacity="1" /><path clip-path="url(#clip820)" d="M1361.82 307.493 L1366.7 307.493 L1366.7 313.373 L1361.82 313.373 L1361.82 307.493 Z" fill="#000000" fill-rule="nonzero" fill-opacity="1" /><path clip-path="url(#clip820)" d="M1386.89 281.892 Q1383.28 281.892 1381.45 285.456 Q1379.64 288.998 1379.64 296.128 Q1379.64 303.234 1381.45 306.799 Q1383.28 310.341 1386.89 310.341 Q1390.52 310.341 1392.33 306.799 Q1394.16 303.234 1394.16 296.128 Q1394.16 288.998 1392.33 285.456 Q1390.52 281.892 1386.89 281.892 M1386.89 278.188 Q1392.7 278.188 1395.75 282.794 Q1398.83 287.378 1398.83 296.128 Q1398.83 304.854 1395.75 309.461 Q1392.7 314.044 1386.89 314.044 Q1381.08 314.044 1378 309.461 Q1374.94 304.854 1374.94 296.128 Q1374.94 287.378 1378 282.794 Q1381.08 278.188 1386.89 278.188 Z" fill="#000000" fill-rule="nonzero" fill-opacity="1" /><path clip-path="url(#clip820)" d="M1342.65 177.78 Q1339.04 177.78 1337.21 181.344 Q1335.41 184.886 1335.41 192.016 Q1335.41 199.122 1337.21 202.687 Q1339.04 206.229 1342.65 206.229 Q1346.29 206.229 1348.09 202.687 Q1349.92 199.122 1349.92 192.016 Q1349.92 184.886 1348.09 181.344 Q1346.29 177.78 1342.65 177.78 M1342.65 174.076 Q1348.46 174.076 1351.52 178.682 Q1354.6 183.266 1354.6 192.016 Q1354.6 200.743 1351.52 205.349 Q1348.46 209.932 1342.65 209.932 Q1336.84 209.932 1333.76 205.349 Q1330.71 200.743 1330.71 192.016 Q1330.71 183.266 1333.76 178.682 Q1336.84 174.076 1342.65 174.076 Z" fill="#000000" fill-rule="nonzero" fill-opacity="1" /><path clip-path="url(#clip820)" d="M1362.81 203.381 L1367.7 203.381 L1367.7 209.261 L1362.81 209.261 L1362.81 203.381 Z" fill="#000000" fill-rule="nonzero" fill-opacity="1" /><path clip-path="url(#clip820)" d="M1377.93 174.701 L1396.29 174.701 L1396.29 178.636 L1382.21 178.636 L1382.21 187.108 Q1383.23 186.761 1384.25 186.599 Q1385.27 186.414 1386.29 186.414 Q1392.07 186.414 1395.45 189.585 Q1398.83 192.756 1398.83 198.173 Q1398.83 203.752 1395.36 206.854 Q1391.89 209.932 1385.57 209.932 Q1383.39 209.932 1381.12 209.562 Q1378.88 209.192 1376.47 208.451 L1376.47 203.752 Q1378.55 204.886 1380.78 205.442 Q1383 205.997 1385.48 205.997 Q1389.48 205.997 1391.82 203.891 Q1394.16 201.784 1394.16 198.173 Q1394.16 194.562 1391.82 192.456 Q1389.48 190.349 1385.48 190.349 Q1383.6 190.349 1381.73 190.766 Q1379.87 191.182 1377.93 192.062 L1377.93 174.701 Z" fill="#000000" fill-rule="nonzero" fill-opacity="1" /><path clip-path="url(#clip820)" d="M1207.03 361.613 L1212.57 361.613 Q1211.3 364.096 1210.66 366.769 Q1210.03 369.443 1210.03 372.307 Q1210.03 376.668 1211.36 378.864 Q1212.7 381.028 1215.37 381.028 Q1217.41 381.028 1218.59 379.469 Q1219.73 377.909 1220.78 373.199 L1221.23 371.193 Q1222.57 364.955 1225.02 362.345 Q1227.44 359.703 1231.8 359.703 Q1236.76 359.703 1239.66 363.65 Q1242.55 367.565 1242.55 374.44 Q1242.55 377.305 1241.98 380.424 Q1241.44 383.511 1240.33 386.949 L1234.28 386.949 Q1235.97 383.702 1236.83 380.551 Q1237.65 377.4 1237.65 374.313 Q1237.65 370.175 1236.25 367.947 Q1234.82 365.719 1232.24 365.719 Q1229.86 365.719 1228.58 367.342 Q1227.31 368.934 1226.13 374.376 L1225.65 376.413 Q1224.51 381.856 1222.15 384.275 Q1219.77 386.694 1215.63 386.694 Q1210.6 386.694 1207.86 383.129 Q1205.12 379.564 1205.12 373.008 Q1205.12 369.761 1205.6 366.897 Q1206.08 364.032 1207.03 361.613 Z" fill="#000000" fill-rule="nonzero" fill-opacity="1" /><path clip-path="url(#clip820)" d="M1792.01 75.2133 Q1792.01 73.6966 1792.14 73.2458 Q1792.3 72.7949 1792.96 72.0981 L1809.06 54.1448 Q1817.88 44.2254 1817.88 35.5766 Q1817.88 29.9611 1814.93 25.9441 Q1812.02 21.9272 1806.65 21.9272 Q1802.96 21.9272 1799.84 24.1816 Q1796.73 26.436 1795.29 30.453 Q1795.54 30.371 1796.4 30.371 Q1798.49 30.371 1799.64 31.6826 Q1800.83 32.9943 1800.83 34.7568 Q1800.83 37.0112 1799.35 38.118 Q1797.92 39.1837 1796.48 39.1837 Q1795.91 39.1837 1795.13 39.0607 Q1794.39 38.9377 1793.2 37.79 Q1792.01 36.6014 1792.01 34.5109 Q1792.01 28.6494 1796.44 23.9767 Q1800.91 19.3039 1807.71 19.3039 Q1815.42 19.3039 1820.46 23.8947 Q1825.54 28.4445 1825.54 35.5766 Q1825.54 38.077 1824.76 40.3724 Q1824.03 42.6268 1823 44.3893 Q1822.02 46.1519 1819.31 48.9801 Q1816.61 51.8084 1814.43 53.8168 Q1812.26 55.8253 1807.38 60.0882 L1798.49 68.7369 L1813.61 68.7369 Q1820.99 68.7369 1821.57 68.0811 Q1822.39 66.8924 1823.41 60.6211 L1825.54 60.6211 L1823.16 75.2133 L1792.01 75.2133 Z" fill="#000000" fill-rule="nonzero" fill-opacity="1" /><path clip-path="url(#clip820)" d="M1852.07 75.2133 L1852.07 72.6309 Q1856.54 72.6309 1857.56 72.0981 Q1858.59 71.5242 1858.59 68.8189 L1858.59 46.3158 Q1858.59 43.2006 1857.48 42.4218 Q1856.41 41.643 1852.07 41.643 L1852.07 39.0197 L1863.87 38.118 L1863.87 46.9306 Q1867.81 38.118 1876.29 38.118 Q1886.13 38.118 1887.48 46.3158 Q1888.92 43.1186 1891.91 40.6183 Q1894.94 38.118 1899.66 38.118 Q1905.97 38.118 1908.47 41.2331 Q1910.31 43.3236 1910.68 45.66 Q1911.05 47.9964 1911.05 54.0628 L1911.05 70.0896 Q1911.13 71.8521 1912.49 72.262 Q1913.84 72.6309 1917.61 72.6309 L1917.61 75.2133 Q1909.04 74.9673 1908.22 74.9673 Q1907.57 74.9673 1898.71 75.2133 L1898.71 72.6309 Q1903.18 72.6309 1904.21 72.0981 Q1905.27 71.5242 1905.27 68.8189 L1905.27 49.267 Q1905.27 45.0042 1903.96 42.5038 Q1902.65 39.9625 1899.04 39.9625 Q1894.7 39.9625 1891.21 43.6105 Q1887.73 47.2586 1887.73 53.407 L1887.73 68.8189 Q1887.73 71.5242 1888.75 72.0981 Q1889.82 72.6309 1894.29 72.6309 L1894.29 75.2133 Q1885.72 74.9673 1884.86 74.9673 Q1884.2 74.9673 1875.39 75.2133 L1875.39 72.6309 Q1879.86 72.6309 1880.88 72.0981 Q1881.95 71.5242 1881.95 68.8189 L1881.95 49.267 Q1881.95 45.0042 1880.64 42.5038 Q1879.33 39.9625 1875.72 39.9625 Q1871.37 39.9625 1867.89 43.6105 Q1864.41 47.2586 1864.41 53.407 L1864.41 68.8189 Q1864.41 71.5242 1865.43 72.0981 Q1866.5 72.6309 1870.92 72.6309 L1870.92 75.2133 Q1862.36 74.9673 1861.54 74.9673 Q1860.88 74.9673 1852.07 75.2133 Z" fill="#000000" fill-rule="nonzero" fill-opacity="1" /><path clip-path="url(#clip820)" d="M1921.28 95.0111 Q1921.28 94.6012 1921.61 93.6994 L1951.25 14.5081 Q1951.25 14.4262 1951.45 13.9753 Q1951.66 13.5244 1951.78 13.2375 Q1951.9 12.9095 1952.15 12.6636 Q1952.44 12.4177 1952.76 12.4177 Q1953.58 12.4177 1953.58 13.4424 Q1953.58 13.5244 1953.34 14.5081 L1923.62 93.7814 Q1923.13 95.216 1922.8 95.6259 Q1922.51 96.0358 1922.02 96.0358 Q1921.28 96.0358 1921.28 95.0111 Z" fill="#000000" fill-rule="nonzero" fill-opacity="1" /><path clip-path="url(#clip820)" d="M1962.85 74.1065 L1962.85 63.0394 Q1962.85 62.0967 1962.9 61.7688 Q1962.94 61.4409 1963.18 61.1949 Q1963.43 60.949 1963.92 60.949 Q1964.49 60.949 1964.7 61.1949 Q1964.94 61.4409 1965.11 62.3836 Q1966.38 68.1631 1969.08 71.2373 Q1971.83 74.2705 1976.79 74.2705 Q1981.5 74.2705 1983.88 72.18 Q1986.26 70.0896 1986.26 66.6465 Q1986.26 60.4981 1977.53 58.9405 Q1972.49 57.9158 1970.4 57.2599 Q1968.31 56.5631 1966.46 55.0465 Q1962.85 52.0953 1962.85 47.9144 Q1962.85 43.7335 1966.01 40.6593 Q1969.21 37.5851 1976.26 37.5851 Q1980.97 37.5851 1984.17 39.9625 Q1985.11 39.2247 1985.6 38.6098 Q1986.71 37.5851 1987.28 37.5851 Q1987.94 37.5851 1988.06 38.036 Q1988.19 38.4459 1988.19 39.6346 L1988.19 48.0783 Q1988.19 49.0211 1988.14 49.349 Q1988.1 49.6769 1987.86 49.9229 Q1987.61 50.1278 1987.08 50.1278 Q1986.14 50.1278 1986.1 49.349 Q1985.44 39.1837 1976.26 39.1837 Q1971.3 39.1837 1969.08 41.1102 Q1966.87 42.9957 1966.87 45.578 Q1966.87 47.0126 1967.53 48.1193 Q1968.22 49.1851 1969.08 49.8409 Q1969.99 50.4557 1971.63 51.0706 Q1973.27 51.6444 1974.25 51.8494 Q1975.27 52.0543 1977.2 52.4642 Q1983.92 53.7349 1986.75 56.4811 Q1990.28 60.0062 1990.28 64.4741 Q1990.28 69.4338 1986.91 72.7949 Q1983.55 76.156 1976.79 76.156 Q1971.34 76.156 1967.53 72.508 Q1967.04 72.9998 1966.67 73.4507 Q1966.3 73.8606 1966.13 74.0246 Q1966.01 74.1885 1965.97 74.3115 Q1965.93 74.3935 1965.85 74.4754 Q1964.17 76.156 1963.76 76.156 Q1963.1 76.156 1962.98 75.7051 Q1962.85 75.2952 1962.85 74.1065 Z" fill="#000000" fill-rule="nonzero" fill-opacity="1" /><polyline clip-path="url(#clip823)" style="stroke:#009af9; stroke-linecap:round; stroke-linejoin:round; stroke-width:4; stroke-opacity:1; fill:none" points="1987.84,465.349 1961.01,148.785 1770.89,316.739 1812.83,544.11 1951.82,609.037 1775.71,321.609 2016.69,215.27 1882.88,480.644 1891.22,427.46 1816.28,137.615 "/>
<path clip-path="url(#clip820)" d="M2177.94 243.809 L2322.16 243.809 L2322.16 140.129 L2177.94 140.129  Z" fill="#ffffff" fill-rule="evenodd" fill-opacity="1"/>
<polyline clip-path="url(#clip820)" style="stroke:#000000; stroke-linecap:round; stroke-linejoin:round; stroke-width:4; stroke-opacity:1; fill:none" points="2177.94,243.809 2322.16,243.809 2322.16,140.129 2177.94,140.129 2177.94,243.809 "/>
<polyline clip-path="url(#clip820)" style="stroke:#009af9; stroke-linecap:round; stroke-linejoin:round; stroke-width:4; stroke-opacity:1; fill:none" points="2188.13,191.969 2249.33,191.969 "/>
<path clip-path="url(#clip820)" d="M2273.37 211.656 Q2271.57 216.286 2269.85 217.698 Q2268.14 219.11 2265.27 219.11 L2261.87 219.11 L2261.87 215.545 L2264.37 215.545 Q2266.13 215.545 2267.1 214.712 Q2268.07 213.879 2269.25 210.777 L2270.02 208.832 L2259.53 183.323 L2264.04 183.323 L2272.14 203.601 L2280.25 183.323 L2284.76 183.323 L2273.37 211.656 Z" fill="#000000" fill-rule="nonzero" fill-opacity="1" /><path clip-path="url(#clip820)" d="M2292.05 205.314 L2299.69 205.314 L2299.69 178.948 L2291.38 180.615 L2291.38 176.356 L2299.64 174.689 L2304.32 174.689 L2304.32 205.314 L2311.96 205.314 L2311.96 209.249 L2292.05 209.249 L2292.05 205.314 Z" fill="#000000" fill-rule="nonzero" fill-opacity="1" /><path clip-path="url(#clip820)" d="M212.459 1423.18 L1130.38 1423.18 L1130.38 923.472 L212.459 923.472  Z" fill="#ffffff" fill-rule="evenodd" fill-opacity="1"/>
<defs>
  <clipPath id="clip824">
    <rect x="212" y="923" width="919" height="501"/>
  </clipPath>
</defs>
<polyline clip-path="url(#clip824)" style="stroke:#000000; stroke-linecap:round; stroke-linejoin:round; stroke-width:2; stroke-opacity:0.1; fill:none" points="294.892,1423.18 294.892,923.472 "/>
<polyline clip-path="url(#clip824)" style="stroke:#000000; stroke-linecap:round; stroke-linejoin:round; stroke-width:2; stroke-opacity:0.1; fill:none" points="419.785,1423.18 419.785,923.472 "/>
<polyline clip-path="url(#clip824)" style="stroke:#000000; stroke-linecap:round; stroke-linejoin:round; stroke-width:2; stroke-opacity:0.1; fill:none" points="544.678,1423.18 544.678,923.472 "/>
<polyline clip-path="url(#clip824)" style="stroke:#000000; stroke-linecap:round; stroke-linejoin:round; stroke-width:2; stroke-opacity:0.1; fill:none" points="669.571,1423.18 669.571,923.472 "/>
<polyline clip-path="url(#clip824)" style="stroke:#000000; stroke-linecap:round; stroke-linejoin:round; stroke-width:2; stroke-opacity:0.1; fill:none" points="794.465,1423.18 794.465,923.472 "/>
<polyline clip-path="url(#clip824)" style="stroke:#000000; stroke-linecap:round; stroke-linejoin:round; stroke-width:2; stroke-opacity:0.1; fill:none" points="919.358,1423.18 919.358,923.472 "/>
<polyline clip-path="url(#clip824)" style="stroke:#000000; stroke-linecap:round; stroke-linejoin:round; stroke-width:2; stroke-opacity:0.1; fill:none" points="1044.25,1423.18 1044.25,923.472 "/>
<polyline clip-path="url(#clip824)" style="stroke:#000000; stroke-linecap:round; stroke-linejoin:round; stroke-width:2; stroke-opacity:0.1; fill:none" points="212.459,1347.34 1130.38,1347.34 "/>
<polyline clip-path="url(#clip824)" style="stroke:#000000; stroke-linecap:round; stroke-linejoin:round; stroke-width:2; stroke-opacity:0.1; fill:none" points="212.459,1222.44 1130.38,1222.44 "/>
<polyline clip-path="url(#clip824)" style="stroke:#000000; stroke-linecap:round; stroke-linejoin:round; stroke-width:2; stroke-opacity:0.1; fill:none" points="212.459,1097.55 1130.38,1097.55 "/>
<polyline clip-path="url(#clip824)" style="stroke:#000000; stroke-linecap:round; stroke-linejoin:round; stroke-width:2; stroke-opacity:0.1; fill:none" points="212.459,972.657 1130.38,972.657 "/>
<polyline clip-path="url(#clip820)" style="stroke:#000000; stroke-linecap:round; stroke-linejoin:round; stroke-width:4; stroke-opacity:1; fill:none" points="212.459,1423.18 1130.38,1423.18 "/>
<polyline clip-path="url(#clip820)" style="stroke:#000000; stroke-linecap:round; stroke-linejoin:round; stroke-width:4; stroke-opacity:1; fill:none" points="294.892,1423.18 294.892,1404.28 "/>
<polyline clip-path="url(#clip820)" style="stroke:#000000; stroke-linecap:round; stroke-linejoin:round; stroke-width:4; stroke-opacity:1; fill:none" points="419.785,1423.18 419.785,1404.28 "/>
<polyline clip-path="url(#clip820)" style="stroke:#000000; stroke-linecap:round; stroke-linejoin:round; stroke-width:4; stroke-opacity:1; fill:none" points="544.678,1423.18 544.678,1404.28 "/>
<polyline clip-path="url(#clip820)" style="stroke:#000000; stroke-linecap:round; stroke-linejoin:round; stroke-width:4; stroke-opacity:1; fill:none" points="669.571,1423.18 669.571,1404.28 "/>
<polyline clip-path="url(#clip820)" style="stroke:#000000; stroke-linecap:round; stroke-linejoin:round; stroke-width:4; stroke-opacity:1; fill:none" points="794.465,1423.18 794.465,1404.28 "/>
<polyline clip-path="url(#clip820)" style="stroke:#000000; stroke-linecap:round; stroke-linejoin:round; stroke-width:4; stroke-opacity:1; fill:none" points="919.358,1423.18 919.358,1404.28 "/>
<polyline clip-path="url(#clip820)" style="stroke:#000000; stroke-linecap:round; stroke-linejoin:round; stroke-width:4; stroke-opacity:1; fill:none" points="1044.25,1423.18 1044.25,1404.28 "/>
<path clip-path="url(#clip820)" d="M241.918 1468.75 L271.594 1468.75 L271.594 1472.69 L241.918 1472.69 L241.918 1468.75 Z" fill="#000000" fill-rule="nonzero" fill-opacity="1" /><path clip-path="url(#clip820)" d="M280.506 1451.02 L302.728 1451.02 L302.728 1453.01 L290.182 1485.58 L285.297 1485.58 L297.103 1454.96 L280.506 1454.96 L280.506 1451.02 Z" fill="#000000" fill-rule="nonzero" fill-opacity="1" /><path clip-path="url(#clip820)" d="M311.848 1479.7 L316.732 1479.7 L316.732 1485.58 L311.848 1485.58 L311.848 1479.7 Z" fill="#000000" fill-rule="nonzero" fill-opacity="1" /><path clip-path="url(#clip820)" d="M326.964 1451.02 L345.32 1451.02 L345.32 1454.96 L331.246 1454.96 L331.246 1463.43 Q332.265 1463.08 333.283 1462.92 Q334.302 1462.73 335.32 1462.73 Q341.107 1462.73 344.487 1465.9 Q347.866 1469.08 347.866 1474.49 Q347.866 1480.07 344.394 1483.17 Q340.922 1486.25 334.603 1486.25 Q332.427 1486.25 330.158 1485.88 Q327.913 1485.51 325.505 1484.77 L325.505 1480.07 Q327.589 1481.2 329.811 1481.76 Q332.033 1482.32 334.51 1482.32 Q338.515 1482.32 340.853 1480.21 Q343.191 1478.1 343.191 1474.49 Q343.191 1470.88 340.853 1468.77 Q338.515 1466.67 334.51 1466.67 Q332.635 1466.67 330.76 1467.08 Q328.908 1467.5 326.964 1468.38 L326.964 1451.02 Z" fill="#000000" fill-rule="nonzero" fill-opacity="1" /><path clip-path="url(#clip820)" d="M366.313 1468.75 L395.989 1468.75 L395.989 1472.69 L366.313 1472.69 L366.313 1468.75 Z" fill="#000000" fill-rule="nonzero" fill-opacity="1" /><path clip-path="url(#clip820)" d="M406.128 1451.02 L424.484 1451.02 L424.484 1454.96 L410.41 1454.96 L410.41 1463.43 Q411.429 1463.08 412.447 1462.92 Q413.466 1462.73 414.484 1462.73 Q420.271 1462.73 423.651 1465.9 Q427.031 1469.08 427.031 1474.49 Q427.031 1480.07 423.558 1483.17 Q420.086 1486.25 413.767 1486.25 Q411.591 1486.25 409.322 1485.88 Q407.077 1485.51 404.67 1484.77 L404.67 1480.07 Q406.753 1481.2 408.975 1481.76 Q411.197 1482.32 413.674 1482.32 Q417.679 1482.32 420.017 1480.21 Q422.355 1478.1 422.355 1474.49 Q422.355 1470.88 420.017 1468.77 Q417.679 1466.67 413.674 1466.67 Q411.799 1466.67 409.924 1467.08 Q408.072 1467.5 406.128 1468.38 L406.128 1451.02 Z" fill="#000000" fill-rule="nonzero" fill-opacity="1" /><path clip-path="url(#clip820)" d="M436.244 1479.7 L441.128 1479.7 L441.128 1485.58 L436.244 1485.58 L436.244 1479.7 Z" fill="#000000" fill-rule="nonzero" fill-opacity="1" /><path clip-path="url(#clip820)" d="M461.313 1454.1 Q457.702 1454.1 455.873 1457.66 Q454.068 1461.2 454.068 1468.33 Q454.068 1475.44 455.873 1479.01 Q457.702 1482.55 461.313 1482.55 Q464.947 1482.55 466.753 1479.01 Q468.581 1475.44 468.581 1468.33 Q468.581 1461.2 466.753 1457.66 Q464.947 1454.1 461.313 1454.1 M461.313 1450.39 Q467.123 1450.39 470.179 1455 Q473.257 1459.58 473.257 1468.33 Q473.257 1477.06 470.179 1481.67 Q467.123 1486.25 461.313 1486.25 Q455.503 1486.25 452.424 1481.67 Q449.368 1477.06 449.368 1468.33 Q449.368 1459.58 452.424 1455 Q455.503 1450.39 461.313 1450.39 Z" fill="#000000" fill-rule="nonzero" fill-opacity="1" /><path clip-path="url(#clip820)" d="M491.704 1468.75 L521.38 1468.75 L521.38 1472.69 L491.704 1472.69 L491.704 1468.75 Z" fill="#000000" fill-rule="nonzero" fill-opacity="1" /><path clip-path="url(#clip820)" d="M535.5 1481.64 L551.82 1481.64 L551.82 1485.58 L529.875 1485.58 L529.875 1481.64 Q532.537 1478.89 537.121 1474.26 Q541.727 1469.61 542.908 1468.27 Q545.153 1465.74 546.033 1464.01 Q546.935 1462.25 546.935 1460.56 Q546.935 1457.8 544.991 1456.07 Q543.07 1454.33 539.968 1454.33 Q537.769 1454.33 535.315 1455.09 Q532.884 1455.86 530.107 1457.41 L530.107 1452.69 Q532.931 1451.55 535.384 1450.97 Q537.838 1450.39 539.875 1450.39 Q545.246 1450.39 548.44 1453.08 Q551.634 1455.77 551.634 1460.26 Q551.634 1462.39 550.824 1464.31 Q550.037 1466.2 547.931 1468.8 Q547.352 1469.47 544.25 1472.69 Q541.148 1475.88 535.5 1481.64 Z" fill="#000000" fill-rule="nonzero" fill-opacity="1" /><path clip-path="url(#clip820)" d="M561.634 1479.7 L566.519 1479.7 L566.519 1485.58 L561.634 1485.58 L561.634 1479.7 Z" fill="#000000" fill-rule="nonzero" fill-opacity="1" /><path clip-path="url(#clip820)" d="M576.75 1451.02 L595.106 1451.02 L595.106 1454.96 L581.032 1454.96 L581.032 1463.43 Q582.051 1463.08 583.069 1462.92 Q584.088 1462.73 585.106 1462.73 Q590.893 1462.73 594.273 1465.9 Q597.653 1469.08 597.653 1474.49 Q597.653 1480.07 594.18 1483.17 Q590.708 1486.25 584.389 1486.25 Q582.213 1486.25 579.944 1485.88 Q577.699 1485.51 575.292 1484.77 L575.292 1480.07 Q577.375 1481.2 579.597 1481.76 Q581.819 1482.32 584.296 1482.32 Q588.301 1482.32 590.639 1480.21 Q592.977 1478.1 592.977 1474.49 Q592.977 1470.88 590.639 1468.77 Q588.301 1466.67 584.296 1466.67 Q582.421 1466.67 580.546 1467.08 Q578.694 1467.5 576.75 1468.38 L576.75 1451.02 Z" fill="#000000" fill-rule="nonzero" fill-opacity="1" /><path clip-path="url(#clip820)" d="M646.956 1454.1 Q643.345 1454.1 641.516 1457.66 Q639.711 1461.2 639.711 1468.33 Q639.711 1475.44 641.516 1479.01 Q643.345 1482.55 646.956 1482.55 Q650.59 1482.55 652.396 1479.01 Q654.224 1475.44 654.224 1468.33 Q654.224 1461.2 652.396 1457.66 Q650.59 1454.1 646.956 1454.1 M646.956 1450.39 Q652.766 1450.39 655.822 1455 Q658.9 1459.58 658.9 1468.33 Q658.9 1477.06 655.822 1481.67 Q652.766 1486.25 646.956 1486.25 Q641.146 1486.25 638.067 1481.67 Q635.011 1477.06 635.011 1468.33 Q635.011 1459.58 638.067 1455 Q641.146 1450.39 646.956 1450.39 Z" fill="#000000" fill-rule="nonzero" fill-opacity="1" /><path clip-path="url(#clip820)" d="M667.118 1479.7 L672.002 1479.7 L672.002 1485.58 L667.118 1485.58 L667.118 1479.7 Z" fill="#000000" fill-rule="nonzero" fill-opacity="1" /><path clip-path="url(#clip820)" d="M692.187 1454.1 Q688.576 1454.1 686.747 1457.66 Q684.942 1461.2 684.942 1468.33 Q684.942 1475.44 686.747 1479.01 Q688.576 1482.55 692.187 1482.55 Q695.821 1482.55 697.627 1479.01 Q699.456 1475.44 699.456 1468.33 Q699.456 1461.2 697.627 1457.66 Q695.821 1454.1 692.187 1454.1 M692.187 1450.39 Q697.997 1450.39 701.053 1455 Q704.131 1459.58 704.131 1468.33 Q704.131 1477.06 701.053 1481.67 Q697.997 1486.25 692.187 1486.25 Q686.377 1486.25 683.298 1481.67 Q680.243 1477.06 680.243 1468.33 Q680.243 1459.58 683.298 1455 Q686.377 1450.39 692.187 1450.39 Z" fill="#000000" fill-rule="nonzero" fill-opacity="1" /><path clip-path="url(#clip820)" d="M766.201 1481.64 L782.52 1481.64 L782.52 1485.58 L760.576 1485.58 L760.576 1481.64 Q763.238 1478.89 767.821 1474.26 Q772.428 1469.61 773.608 1468.27 Q775.854 1465.74 776.733 1464.01 Q777.636 1462.25 777.636 1460.56 Q777.636 1457.8 775.692 1456.07 Q773.77 1454.33 770.668 1454.33 Q768.469 1454.33 766.016 1455.09 Q763.585 1455.86 760.807 1457.41 L760.807 1452.69 Q763.631 1451.55 766.085 1450.97 Q768.539 1450.39 770.576 1450.39 Q775.946 1450.39 779.141 1453.08 Q782.335 1455.77 782.335 1460.26 Q782.335 1462.39 781.525 1464.31 Q780.738 1466.2 778.631 1468.8 Q778.053 1469.47 774.951 1472.69 Q771.849 1475.88 766.201 1481.64 Z" fill="#000000" fill-rule="nonzero" fill-opacity="1" /><path clip-path="url(#clip820)" d="M792.335 1479.7 L797.219 1479.7 L797.219 1485.58 L792.335 1485.58 L792.335 1479.7 Z" fill="#000000" fill-rule="nonzero" fill-opacity="1" /><path clip-path="url(#clip820)" d="M807.451 1451.02 L825.807 1451.02 L825.807 1454.96 L811.733 1454.96 L811.733 1463.43 Q812.752 1463.08 813.77 1462.92 Q814.789 1462.73 815.807 1462.73 Q821.594 1462.73 824.974 1465.9 Q828.353 1469.08 828.353 1474.49 Q828.353 1480.07 824.881 1483.17 Q821.409 1486.25 815.089 1486.25 Q812.914 1486.25 810.645 1485.88 Q808.4 1485.51 805.992 1484.77 L805.992 1480.07 Q808.076 1481.2 810.298 1481.76 Q812.52 1482.32 814.997 1482.32 Q819.001 1482.32 821.339 1480.21 Q823.677 1478.1 823.677 1474.49 Q823.677 1470.88 821.339 1468.77 Q819.001 1466.67 814.997 1466.67 Q813.122 1466.67 811.247 1467.08 Q809.395 1467.5 807.451 1468.38 L807.451 1451.02 Z" fill="#000000" fill-rule="nonzero" fill-opacity="1" /><path clip-path="url(#clip820)" d="M886.522 1451.02 L904.879 1451.02 L904.879 1454.96 L890.805 1454.96 L890.805 1463.43 Q891.823 1463.08 892.842 1462.92 Q893.86 1462.73 894.879 1462.73 Q900.666 1462.73 904.045 1465.9 Q907.425 1469.08 907.425 1474.49 Q907.425 1480.07 903.953 1483.17 Q900.48 1486.25 894.161 1486.25 Q891.985 1486.25 889.717 1485.88 Q887.471 1485.51 885.064 1484.77 L885.064 1480.07 Q887.147 1481.2 889.369 1481.76 Q891.592 1482.32 894.068 1482.32 Q898.073 1482.32 900.411 1480.21 Q902.749 1478.1 902.749 1474.49 Q902.749 1470.88 900.411 1468.77 Q898.073 1466.67 894.068 1466.67 Q892.193 1466.67 890.318 1467.08 Q888.467 1467.5 886.522 1468.38 L886.522 1451.02 Z" fill="#000000" fill-rule="nonzero" fill-opacity="1" /><path clip-path="url(#clip820)" d="M916.638 1479.7 L921.522 1479.7 L921.522 1485.58 L916.638 1485.58 L916.638 1479.7 Z" fill="#000000" fill-rule="nonzero" fill-opacity="1" /><path clip-path="url(#clip820)" d="M941.707 1454.1 Q938.096 1454.1 936.267 1457.66 Q934.462 1461.2 934.462 1468.33 Q934.462 1475.44 936.267 1479.01 Q938.096 1482.55 941.707 1482.55 Q945.341 1482.55 947.147 1479.01 Q948.976 1475.44 948.976 1468.33 Q948.976 1461.2 947.147 1457.66 Q945.341 1454.1 941.707 1454.1 M941.707 1450.39 Q947.517 1450.39 950.573 1455 Q953.651 1459.58 953.651 1468.33 Q953.651 1477.06 950.573 1481.67 Q947.517 1486.25 941.707 1486.25 Q935.897 1486.25 932.818 1481.67 Q929.763 1477.06 929.763 1468.33 Q929.763 1459.58 932.818 1455 Q935.897 1450.39 941.707 1450.39 Z" fill="#000000" fill-rule="nonzero" fill-opacity="1" /><path clip-path="url(#clip820)" d="M1010.57 1451.02 L1032.79 1451.02 L1032.79 1453.01 L1020.25 1485.58 L1015.36 1485.58 L1027.17 1454.96 L1010.57 1454.96 L1010.57 1451.02 Z" fill="#000000" fill-rule="nonzero" fill-opacity="1" /><path clip-path="url(#clip820)" d="M1041.91 1479.7 L1046.8 1479.7 L1046.8 1485.58 L1041.91 1485.58 L1041.91 1479.7 Z" fill="#000000" fill-rule="nonzero" fill-opacity="1" /><path clip-path="url(#clip820)" d="M1057.03 1451.02 L1075.38 1451.02 L1075.38 1454.96 L1061.31 1454.96 L1061.31 1463.43 Q1062.33 1463.08 1063.35 1462.92 Q1064.37 1462.73 1065.38 1462.73 Q1071.17 1462.73 1074.55 1465.9 Q1077.93 1469.08 1077.93 1474.49 Q1077.93 1480.07 1074.46 1483.17 Q1070.99 1486.25 1064.67 1486.25 Q1062.49 1486.25 1060.22 1485.88 Q1057.98 1485.51 1055.57 1484.77 L1055.57 1480.07 Q1057.65 1481.2 1059.88 1481.76 Q1062.1 1482.32 1064.57 1482.32 Q1068.58 1482.32 1070.92 1480.21 Q1073.26 1478.1 1073.26 1474.49 Q1073.26 1470.88 1070.92 1468.77 Q1068.58 1466.67 1064.57 1466.67 Q1062.7 1466.67 1060.82 1467.08 Q1058.97 1467.5 1057.03 1468.38 L1057.03 1451.02 Z" fill="#000000" fill-rule="nonzero" fill-opacity="1" /><path clip-path="url(#clip820)" d="M673.379 1539.24 Q675.575 1535.29 678.63 1533.41 Q681.686 1531.54 685.824 1531.54 Q691.394 1531.54 694.417 1535.45 Q697.441 1539.33 697.441 1546.53 L697.441 1568.04 L691.553 1568.04 L691.553 1546.72 Q691.553 1541.59 689.738 1539.11 Q687.924 1536.63 684.2 1536.63 Q679.649 1536.63 677.007 1539.65 Q674.365 1542.68 674.365 1547.9 L674.365 1568.04 L668.477 1568.04 L668.477 1546.72 Q668.477 1541.56 666.663 1539.11 Q664.849 1536.63 661.061 1536.63 Q656.573 1536.63 653.931 1539.68 Q651.29 1542.71 651.29 1547.9 L651.29 1568.04 L645.401 1568.04 L645.401 1532.4 L651.29 1532.4 L651.29 1537.93 Q653.295 1534.66 656.096 1533.1 Q658.897 1531.54 662.748 1531.54 Q666.631 1531.54 669.336 1533.51 Q672.074 1535.48 673.379 1539.24 Z" fill="#000000" fill-rule="nonzero" fill-opacity="1" /><polyline clip-path="url(#clip820)" style="stroke:#000000; stroke-linecap:round; stroke-linejoin:round; stroke-width:4; stroke-opacity:1; fill:none" points="212.459,1423.18 212.459,923.472 "/>
<polyline clip-path="url(#clip820)" style="stroke:#000000; stroke-linecap:round; stroke-linejoin:round; stroke-width:4; stroke-opacity:1; fill:none" points="212.459,1347.34 231.357,1347.34 "/>
<polyline clip-path="url(#clip820)" style="stroke:#000000; stroke-linecap:round; stroke-linejoin:round; stroke-width:4; stroke-opacity:1; fill:none" points="212.459,1222.44 231.357,1222.44 "/>
<polyline clip-path="url(#clip820)" style="stroke:#000000; stroke-linecap:round; stroke-linejoin:round; stroke-width:4; stroke-opacity:1; fill:none" points="212.459,1097.55 231.357,1097.55 "/>
<polyline clip-path="url(#clip820)" style="stroke:#000000; stroke-linecap:round; stroke-linejoin:round; stroke-width:4; stroke-opacity:1; fill:none" points="212.459,972.657 231.357,972.657 "/>
<path clip-path="url(#clip820)" d="M70.5104 1347.79 L100.186 1347.79 L100.186 1351.72 L70.5104 1351.72 L70.5104 1347.79 Z" fill="#000000" fill-rule="nonzero" fill-opacity="1" /><path clip-path="url(#clip820)" d="M120.279 1333.14 Q116.668 1333.14 114.839 1336.7 Q113.033 1340.24 113.033 1347.37 Q113.033 1354.48 114.839 1358.04 Q116.668 1361.58 120.279 1361.58 Q123.913 1361.58 125.718 1358.04 Q127.547 1354.48 127.547 1347.37 Q127.547 1340.24 125.718 1336.7 Q123.913 1333.14 120.279 1333.14 M120.279 1329.43 Q126.089 1329.43 129.144 1334.04 Q132.223 1338.62 132.223 1347.37 Q132.223 1356.1 129.144 1360.7 Q126.089 1365.29 120.279 1365.29 Q114.468 1365.29 111.39 1360.7 Q108.334 1356.1 108.334 1347.37 Q108.334 1338.62 111.39 1334.04 Q114.468 1329.43 120.279 1329.43 Z" fill="#000000" fill-rule="nonzero" fill-opacity="1" /><path clip-path="url(#clip820)" d="M140.441 1358.74 L145.325 1358.74 L145.325 1364.62 L140.441 1364.62 L140.441 1358.74 Z" fill="#000000" fill-rule="nonzero" fill-opacity="1" /><path clip-path="url(#clip820)" d="M155.556 1330.06 L173.913 1330.06 L173.913 1333.99 L159.839 1333.99 L159.839 1342.46 Q160.857 1342.12 161.876 1341.95 Q162.894 1341.77 163.913 1341.77 Q169.7 1341.77 173.079 1344.94 Q176.459 1348.11 176.459 1353.53 Q176.459 1359.11 172.987 1362.21 Q169.514 1365.29 163.195 1365.29 Q161.019 1365.29 158.751 1364.92 Q156.505 1364.55 154.098 1363.81 L154.098 1359.11 Q156.181 1360.24 158.403 1360.8 Q160.626 1361.35 163.102 1361.35 Q167.107 1361.35 169.445 1359.25 Q171.783 1357.14 171.783 1353.53 Q171.783 1349.92 169.445 1347.81 Q167.107 1345.7 163.102 1345.7 Q161.227 1345.7 159.353 1346.12 Q157.501 1346.54 155.556 1347.42 L155.556 1330.06 Z" fill="#000000" fill-rule="nonzero" fill-opacity="1" /><path clip-path="url(#clip820)" d="M119.283 1208.24 Q115.672 1208.24 113.843 1211.81 Q112.038 1215.35 112.038 1222.48 Q112.038 1229.58 113.843 1233.15 Q115.672 1236.69 119.283 1236.69 Q122.918 1236.69 124.723 1233.15 Q126.552 1229.58 126.552 1222.48 Q126.552 1215.35 124.723 1211.81 Q122.918 1208.24 119.283 1208.24 M119.283 1204.54 Q125.093 1204.54 128.149 1209.15 Q131.228 1213.73 131.228 1222.48 Q131.228 1231.21 128.149 1235.81 Q125.093 1240.39 119.283 1240.39 Q113.473 1240.39 110.394 1235.81 Q107.339 1231.21 107.339 1222.48 Q107.339 1213.73 110.394 1209.15 Q113.473 1204.54 119.283 1204.54 Z" fill="#000000" fill-rule="nonzero" fill-opacity="1" /><path clip-path="url(#clip820)" d="M139.445 1233.84 L144.329 1233.84 L144.329 1239.72 L139.445 1239.72 L139.445 1233.84 Z" fill="#000000" fill-rule="nonzero" fill-opacity="1" /><path clip-path="url(#clip820)" d="M164.515 1208.24 Q160.903 1208.24 159.075 1211.81 Q157.269 1215.35 157.269 1222.48 Q157.269 1229.58 159.075 1233.15 Q160.903 1236.69 164.515 1236.69 Q168.149 1236.69 169.954 1233.15 Q171.783 1229.58 171.783 1222.48 Q171.783 1215.35 169.954 1211.81 Q168.149 1208.24 164.515 1208.24 M164.515 1204.54 Q170.325 1204.54 173.38 1209.15 Q176.459 1213.73 176.459 1222.48 Q176.459 1231.21 173.38 1235.81 Q170.325 1240.39 164.515 1240.39 Q158.704 1240.39 155.626 1235.81 Q152.57 1231.21 152.57 1222.48 Q152.57 1213.73 155.626 1209.15 Q158.704 1204.54 164.515 1204.54 Z" fill="#000000" fill-rule="nonzero" fill-opacity="1" /><path clip-path="url(#clip820)" d="M120.279 1083.35 Q116.668 1083.35 114.839 1086.91 Q113.033 1090.46 113.033 1097.59 Q113.033 1104.69 114.839 1108.26 Q116.668 1111.8 120.279 1111.8 Q123.913 1111.8 125.718 1108.26 Q127.547 1104.69 127.547 1097.59 Q127.547 1090.46 125.718 1086.91 Q123.913 1083.35 120.279 1083.35 M120.279 1079.65 Q126.089 1079.65 129.144 1084.25 Q132.223 1088.84 132.223 1097.59 Q132.223 1106.31 129.144 1110.92 Q126.089 1115.5 120.279 1115.5 Q114.468 1115.5 111.39 1110.92 Q108.334 1106.31 108.334 1097.59 Q108.334 1088.84 111.39 1084.25 Q114.468 1079.65 120.279 1079.65 Z" fill="#000000" fill-rule="nonzero" fill-opacity="1" /><path clip-path="url(#clip820)" d="M140.441 1108.95 L145.325 1108.95 L145.325 1114.83 L140.441 1114.83 L140.441 1108.95 Z" fill="#000000" fill-rule="nonzero" fill-opacity="1" /><path clip-path="url(#clip820)" d="M155.556 1080.27 L173.913 1080.27 L173.913 1084.21 L159.839 1084.21 L159.839 1092.68 Q160.857 1092.33 161.876 1092.17 Q162.894 1091.98 163.913 1091.98 Q169.7 1091.98 173.079 1095.15 Q176.459 1098.33 176.459 1103.74 Q176.459 1109.32 172.987 1112.42 Q169.514 1115.5 163.195 1115.5 Q161.019 1115.5 158.751 1115.13 Q156.505 1114.76 154.098 1114.02 L154.098 1109.32 Q156.181 1110.46 158.403 1111.01 Q160.626 1111.57 163.102 1111.57 Q167.107 1111.57 169.445 1109.46 Q171.783 1107.35 171.783 1103.74 Q171.783 1100.13 169.445 1098.03 Q167.107 1095.92 163.102 1095.92 Q161.227 1095.92 159.353 1096.34 Q157.501 1096.75 155.556 1097.63 L155.556 1080.27 Z" fill="#000000" fill-rule="nonzero" fill-opacity="1" /><path clip-path="url(#clip820)" d="M110.094 986.002 L117.732 986.002 L117.732 959.637 L109.422 961.303 L109.422 957.044 L117.686 955.377 L122.362 955.377 L122.362 986.002 L130.001 986.002 L130.001 989.937 L110.094 989.937 L110.094 986.002 Z" fill="#000000" fill-rule="nonzero" fill-opacity="1" /><path clip-path="url(#clip820)" d="M139.445 984.058 L144.329 984.058 L144.329 989.937 L139.445 989.937 L139.445 984.058 Z" fill="#000000" fill-rule="nonzero" fill-opacity="1" /><path clip-path="url(#clip820)" d="M164.515 958.456 Q160.903 958.456 159.075 962.021 Q157.269 965.563 157.269 972.692 Q157.269 979.799 159.075 983.363 Q160.903 986.905 164.515 986.905 Q168.149 986.905 169.954 983.363 Q171.783 979.799 171.783 972.692 Q171.783 965.563 169.954 962.021 Q168.149 958.456 164.515 958.456 M164.515 954.752 Q170.325 954.752 173.38 959.359 Q176.459 963.942 176.459 972.692 Q176.459 981.419 173.38 986.025 Q170.325 990.609 164.515 990.609 Q158.704 990.609 155.626 986.025 Q152.57 981.419 152.57 972.692 Q152.57 963.942 155.626 959.359 Q158.704 954.752 164.515 954.752 Z" fill="#000000" fill-rule="nonzero" fill-opacity="1" /><path clip-path="url(#clip820)" d="M606.786 867.679 Q606.786 865.179 608.138 864.236 Q609.491 863.252 610.925 863.252 Q612.852 863.252 613.959 864.482 Q615.106 865.671 615.106 867.351 Q615.106 869.032 613.959 870.261 Q612.852 871.45 610.925 871.45 Q609.983 871.45 609.491 871.286 Q610.598 875.139 613.959 877.926 Q617.361 880.714 621.829 880.714 Q627.444 880.714 630.805 875.262 Q632.814 871.737 632.814 863.744 Q632.814 856.694 631.297 853.169 Q628.961 847.799 624.165 847.799 Q617.361 847.799 613.344 853.661 Q612.852 854.398 612.278 854.439 Q611.458 854.439 611.253 853.989 Q611.089 853.497 611.089 852.226 L611.089 827.387 Q611.089 825.378 611.909 825.378 Q612.237 825.378 612.934 825.624 Q618.222 827.96 624.083 828.001 Q630.108 828.001 635.519 825.542 Q635.929 825.296 636.175 825.296 Q636.995 825.296 637.036 826.239 Q637.036 826.567 636.339 827.55 Q635.683 828.493 634.248 829.764 Q632.814 830.994 630.969 832.182 Q629.125 833.371 626.419 834.191 Q623.755 834.97 620.804 834.97 Q617.279 834.97 613.672 833.863 L613.672 850.218 Q618.017 845.955 624.329 845.955 Q631.051 845.955 635.683 851.365 Q640.315 856.776 640.315 864.318 Q640.315 872.229 634.822 877.639 Q629.371 883.05 621.993 883.05 Q615.27 883.05 611.007 878.254 Q606.786 873.458 606.786 867.679 Z" fill="#000000" fill-rule="nonzero" fill-opacity="1" /><path clip-path="url(#clip820)" d="M666.841 881.205 L666.841 878.623 Q671.308 878.623 672.333 878.09 Q673.358 877.516 673.358 874.811 L673.358 852.308 Q673.358 849.193 672.251 848.414 Q671.185 847.635 666.841 847.635 L666.841 845.012 L678.645 844.11 L678.645 852.923 Q682.58 844.11 691.065 844.11 Q700.903 844.11 702.255 852.308 Q703.69 849.111 706.682 846.61 Q709.715 844.11 714.429 844.11 Q720.741 844.11 723.242 847.225 Q725.086 849.316 725.455 851.652 Q725.824 853.989 725.824 860.055 L725.824 876.082 Q725.906 877.844 727.259 878.254 Q728.611 878.623 732.382 878.623 L732.382 881.205 Q723.816 880.96 722.996 880.96 Q722.34 880.96 713.486 881.205 L713.486 878.623 Q717.954 878.623 718.979 878.09 Q720.045 877.516 720.045 874.811 L720.045 855.259 Q720.045 850.996 718.733 848.496 Q717.421 845.955 713.814 845.955 Q709.469 845.955 705.985 849.603 Q702.501 853.251 702.501 859.399 L702.501 874.811 Q702.501 877.516 703.526 878.09 Q704.592 878.623 709.059 878.623 L709.059 881.205 Q700.493 880.96 699.632 880.96 Q698.976 880.96 690.163 881.205 L690.163 878.623 Q694.631 878.623 695.656 878.09 Q696.722 877.516 696.722 874.811 L696.722 855.259 Q696.722 850.996 695.41 848.496 Q694.098 845.955 690.491 845.955 Q686.146 845.955 682.662 849.603 Q679.178 853.251 679.178 859.399 L679.178 874.811 Q679.178 877.516 680.203 878.09 Q681.269 878.623 685.696 878.623 L685.696 881.205 Q677.129 880.96 676.309 880.96 Q675.653 880.96 666.841 881.205 Z" fill="#000000" fill-rule="nonzero" fill-opacity="1" /><polyline clip-path="url(#clip824)" style="stroke:#009af9; stroke-linecap:round; stroke-linejoin:round; stroke-width:4; stroke-opacity:1; fill:none" points="684.347,1309.85 726.349,1409.04 644.418,1216.15 634.397,1097.86 722.554,1246.01 622.303,1330.6 586.351,1089.34 701.136,1135.75 756.492,937.615 694.492,1225.01 "/>
<path clip-path="url(#clip820)" d="M955.563 1043.81 L1099.79 1043.81 L1099.79 940.129 L955.563 940.129  Z" fill="#ffffff" fill-rule="evenodd" fill-opacity="1"/>
<polyline clip-path="url(#clip820)" style="stroke:#000000; stroke-linecap:round; stroke-linejoin:round; stroke-width:4; stroke-opacity:1; fill:none" points="955.563,1043.81 1099.79,1043.81 1099.79,940.129 955.563,940.129 955.563,1043.81 "/>
<polyline clip-path="url(#clip820)" style="stroke:#009af9; stroke-linecap:round; stroke-linejoin:round; stroke-width:4; stroke-opacity:1; fill:none" points="965.762,991.969 1026.96,991.969 "/>
<path clip-path="url(#clip820)" d="M1051 1011.66 Q1049.19 1016.29 1047.48 1017.7 Q1045.77 1019.11 1042.9 1019.11 L1039.49 1019.11 L1039.49 1015.55 L1041.99 1015.55 Q1043.75 1015.55 1044.73 1014.71 Q1045.7 1013.88 1046.88 1010.78 L1047.64 1008.83 L1037.16 983.323 L1041.67 983.323 L1049.77 1003.6 L1057.87 983.323 L1062.39 983.323 L1051 1011.66 Z" fill="#000000" fill-rule="nonzero" fill-opacity="1" /><path clip-path="url(#clip820)" d="M1069.68 1005.31 L1077.32 1005.31 L1077.32 978.948 L1069.01 980.615 L1069.01 976.356 L1077.27 974.689 L1081.95 974.689 L1081.95 1005.31 L1089.59 1005.31 L1089.59 1009.25 L1069.68 1009.25 L1069.68 1005.31 Z" fill="#000000" fill-rule="nonzero" fill-opacity="1" /></svg>
