<?xml version="1.0" encoding="utf-8"?>
<svg xmlns="http://www.w3.org/2000/svg" xmlns:xlink="http://www.w3.org/1999/xlink" width="600" height="400" viewBox="0 0 2400 1600">
<defs>
  <clipPath id="clip580">
    <rect x="0" y="0" width="2400" height="1600"/>
  </clipPath>
</defs>
<path clip-path="url(#clip580)" d="M0 1600 L2400 1600 L2400 0 L0 0  Z" fill="#ffffff" fill-rule="evenodd" fill-opacity="1"/>
<defs>
  <clipPath id="clip581">
    <rect x="480" y="0" width="1681" height="1600"/>
  </clipPath>
</defs>
<path clip-path="url(#clip580)" d="M219.866 1423.18 L2352.76 1423.18 L2352.76 123.472 L219.866 123.472  Z" fill="#ffffff" fill-rule="evenodd" fill-opacity="1"/>
<defs>
  <clipPath id="clip582">
    <rect x="219" y="123" width="2134" height="1301"/>
  </clipPath>
</defs>
<polyline clip-path="url(#clip582)" style="stroke:#000000; stroke-linecap:round; stroke-linejoin:round; stroke-width:2; stroke-opacity:0.1; fill:none" points="503.804,1423.18 503.804,123.472 "/>
<polyline clip-path="url(#clip582)" style="stroke:#000000; stroke-linecap:round; stroke-linejoin:round; stroke-width:2; stroke-opacity:0.1; fill:none" points="950.951,1423.18 950.951,123.472 "/>
<polyline clip-path="url(#clip582)" style="stroke:#000000; stroke-linecap:round; stroke-linejoin:round; stroke-width:2; stroke-opacity:0.1; fill:none" points="1398.1,1423.18 1398.1,123.472 "/>
<polyline clip-path="url(#clip582)" style="stroke:#000000; stroke-linecap:round; stroke-linejoin:round; stroke-width:2; stroke-opacity:0.1; fill:none" points="1845.24,1423.18 1845.24,123.472 "/>
<polyline clip-path="url(#clip582)" style="stroke:#000000; stroke-linecap:round; stroke-linejoin:round; stroke-width:2; stroke-opacity:0.1; fill:none" points="2292.39,1423.18 2292.39,123.472 "/>
<polyline clip-path="url(#clip582)" style="stroke:#000000; stroke-linecap:round; stroke-linejoin:round; stroke-width:2; stroke-opacity:0.1; fill:none" points="219.866,1318.59 2352.76,1318.59 "/>
<polyline clip-path="url(#clip582)" style="stroke:#000000; stroke-linecap:round; stroke-linejoin:round; stroke-width:2; stroke-opacity:0.1; fill:none" points="219.866,1048.74 2352.76,1048.74 "/>
<polyline clip-path="url(#clip582)" style="stroke:#000000; stroke-linecap:round; stroke-linejoin:round; stroke-width:2; stroke-opacity:0.1; fill:none" points="219.866,778.9 2352.76,778.9 "/>
<polyline clip-path="url(#clip582)" style="stroke:#000000; stroke-linecap:round; stroke-linejoin:round; stroke-width:2; stroke-opacity:0.1; fill:none" points="219.866,509.058 2352.76,509.058 "/>
<polyline clip-path="url(#clip582)" style="stroke:#000000; stroke-linecap:round; stroke-linejoin:round; stroke-width:2; stroke-opacity:0.1; fill:none" points="219.866,239.215 2352.76,239.215 "/>
<polyline clip-path="url(#clip580)" style="stroke:#000000; stroke-linecap:round; stroke-linejoin:round; stroke-width:4; stroke-opacity:1; fill:none" points="219.866,1423.18 2352.76,1423.18 "/>
<polyline clip-path="url(#clip580)" style="stroke:#000000; stroke-linecap:round; stroke-linejoin:round; stroke-width:4; stroke-opacity:1; fill:none" points="503.804,1423.18 503.804,1404.28 "/>
<polyline clip-path="url(#clip580)" style="stroke:#000000; stroke-linecap:round; stroke-linejoin:round; stroke-width:4; stroke-opacity:1; fill:none" points="950.951,1423.18 950.951,1404.28 "/>
<polyline clip-path="url(#clip580)" style="stroke:#000000; stroke-linecap:round; stroke-linejoin:round; stroke-width:4; stroke-opacity:1; fill:none" points="1398.1,1423.18 1398.1,1404.28 "/>
<polyline clip-path="url(#clip580)" style="stroke:#000000; stroke-linecap:round; stroke-linejoin:round; stroke-width:4; stroke-opacity:1; fill:none" points="1845.24,1423.18 1845.24,1404.28 "/>
<polyline clip-path="url(#clip580)" style="stroke:#000000; stroke-linecap:round; stroke-linejoin:round; stroke-width:4; stroke-opacity:1; fill:none" points="2292.39,1423.18 2292.39,1404.28 "/>
<path clip-path="url(#clip580)" d="M498.457 1481.64 L514.777 1481.64 L514.777 1485.58 L492.832 1485.58 L492.832 1481.64 Q495.494 1478.89 500.078 1474.26 Q504.684 1469.61 505.865 1468.27 Q508.11 1465.74 508.99 1464.01 Q509.892 1462.25 509.892 1460.56 Q509.892 1457.8 507.948 1456.07 Q506.027 1454.33 502.925 1454.33 Q500.726 1454.33 498.272 1455.09 Q495.841 1455.86 493.064 1457.41 L493.064 1452.69 Q495.888 1451.55 498.341 1450.97 Q500.795 1450.39 502.832 1450.39 Q508.203 1450.39 511.397 1453.08 Q514.591 1455.77 514.591 1460.26 Q514.591 1462.39 513.781 1464.31 Q512.994 1466.2 510.888 1468.8 Q510.309 1469.47 507.207 1472.69 Q504.105 1475.88 498.457 1481.64 Z" fill="#000000" fill-rule="nonzero" fill-opacity="1" /><path clip-path="url(#clip580)" d="M953.96 1455.09 L942.155 1473.54 L953.96 1473.54 L953.96 1455.09 M952.733 1451.02 L958.613 1451.02 L958.613 1473.54 L963.544 1473.54 L963.544 1477.43 L958.613 1477.43 L958.613 1485.58 L953.96 1485.58 L953.96 1477.43 L938.359 1477.43 L938.359 1472.92 L952.733 1451.02 Z" fill="#000000" fill-rule="nonzero" fill-opacity="1" /><path clip-path="url(#clip580)" d="M1398.5 1466.44 Q1395.35 1466.44 1393.5 1468.59 Q1391.67 1470.74 1391.67 1474.49 Q1391.67 1478.22 1393.5 1480.39 Q1395.35 1482.55 1398.5 1482.55 Q1401.65 1482.55 1403.48 1480.39 Q1405.33 1478.22 1405.33 1474.49 Q1405.33 1470.74 1403.48 1468.59 Q1401.65 1466.44 1398.5 1466.44 M1407.79 1451.78 L1407.79 1456.04 Q1406.03 1455.21 1404.22 1454.77 Q1402.44 1454.33 1400.68 1454.33 Q1396.05 1454.33 1393.6 1457.45 Q1391.16 1460.58 1390.82 1466.9 Q1392.18 1464.89 1394.24 1463.82 Q1396.3 1462.73 1398.78 1462.73 Q1403.99 1462.73 1407 1465.9 Q1410.03 1469.05 1410.03 1474.49 Q1410.03 1479.82 1406.88 1483.03 Q1403.73 1486.25 1398.5 1486.25 Q1392.51 1486.25 1389.34 1481.67 Q1386.16 1477.06 1386.16 1468.33 Q1386.16 1460.14 1390.05 1455.28 Q1393.94 1450.39 1400.49 1450.39 Q1402.25 1450.39 1404.04 1450.74 Q1405.84 1451.09 1407.79 1451.78 Z" fill="#000000" fill-rule="nonzero" fill-opacity="1" /><path clip-path="url(#clip580)" d="M1845.24 1469.17 Q1841.91 1469.17 1839.99 1470.95 Q1838.09 1472.73 1838.09 1475.86 Q1838.09 1478.98 1839.99 1480.77 Q1841.91 1482.55 1845.24 1482.55 Q1848.58 1482.55 1850.5 1480.77 Q1852.42 1478.96 1852.42 1475.86 Q1852.42 1472.73 1850.5 1470.95 Q1848.6 1469.17 1845.24 1469.17 M1840.57 1467.18 Q1837.56 1466.44 1835.87 1464.38 Q1834.2 1462.32 1834.2 1459.35 Q1834.2 1455.21 1837.14 1452.8 Q1840.11 1450.39 1845.24 1450.39 Q1850.41 1450.39 1853.35 1452.8 Q1856.29 1455.21 1856.29 1459.35 Q1856.29 1462.32 1854.6 1464.38 Q1852.93 1466.44 1849.94 1467.18 Q1853.32 1467.96 1855.2 1470.26 Q1857.1 1472.55 1857.1 1475.86 Q1857.1 1480.88 1854.02 1483.57 Q1850.96 1486.25 1845.24 1486.25 Q1839.53 1486.25 1836.45 1483.57 Q1833.39 1480.88 1833.39 1475.86 Q1833.39 1472.55 1835.29 1470.26 Q1837.19 1467.96 1840.57 1467.18 M1838.86 1459.79 Q1838.86 1462.48 1840.52 1463.98 Q1842.21 1465.49 1845.24 1465.49 Q1848.25 1465.49 1849.94 1463.98 Q1851.66 1462.48 1851.66 1459.79 Q1851.66 1457.11 1849.94 1455.6 Q1848.25 1454.1 1845.24 1454.1 Q1842.21 1454.1 1840.52 1455.6 Q1838.86 1457.11 1838.86 1459.79 Z" fill="#000000" fill-rule="nonzero" fill-opacity="1" /><path clip-path="url(#clip580)" d="M2267.08 1481.64 L2274.72 1481.64 L2274.72 1455.28 L2266.41 1456.95 L2266.41 1452.69 L2274.67 1451.02 L2279.35 1451.02 L2279.35 1481.64 L2286.99 1481.64 L2286.99 1485.58 L2267.08 1485.58 L2267.08 1481.64 Z" fill="#000000" fill-rule="nonzero" fill-opacity="1" /><path clip-path="url(#clip580)" d="M2306.43 1454.1 Q2302.82 1454.1 2300.99 1457.66 Q2299.19 1461.2 2299.19 1468.33 Q2299.19 1475.44 2300.99 1479.01 Q2302.82 1482.55 2306.43 1482.55 Q2310.06 1482.55 2311.87 1479.01 Q2313.7 1475.44 2313.7 1468.33 Q2313.7 1461.2 2311.87 1457.66 Q2310.06 1454.1 2306.43 1454.1 M2306.43 1450.39 Q2312.24 1450.39 2315.3 1455 Q2318.37 1459.58 2318.37 1468.33 Q2318.37 1477.06 2315.3 1481.67 Q2312.24 1486.25 2306.43 1486.25 Q2300.62 1486.25 2297.54 1481.67 Q2294.49 1477.06 2294.49 1468.33 Q2294.49 1459.58 2297.54 1455 Q2300.62 1450.39 2306.43 1450.39 Z" fill="#000000" fill-rule="nonzero" fill-opacity="1" /><path clip-path="url(#clip580)" d="M1170.6 1561.26 L1170.6 1548.5 L1160.1 1548.5 L1160.1 1543.22 L1176.96 1543.22 L1176.96 1563.62 Q1173.24 1566.26 1168.75 1567.63 Q1164.26 1568.97 1159.17 1568.97 Q1148.03 1568.97 1141.73 1562.47 Q1135.46 1555.95 1135.46 1544.33 Q1135.46 1532.68 1141.73 1526.19 Q1148.03 1519.66 1159.17 1519.66 Q1163.82 1519.66 1167.99 1520.81 Q1172.19 1521.96 1175.72 1524.18 L1175.72 1531.03 Q1172.16 1528 1168.15 1526.48 Q1164.14 1524.95 1159.71 1524.95 Q1150.99 1524.95 1146.6 1529.82 Q1142.24 1534.69 1142.24 1544.33 Q1142.24 1553.94 1146.6 1558.81 Q1150.99 1563.68 1159.71 1563.68 Q1163.12 1563.68 1165.79 1563.11 Q1168.47 1562.51 1170.6 1561.26 Z" fill="#000000" fill-rule="nonzero" fill-opacity="1" /><path clip-path="url(#clip580)" d="M1218.95 1548.76 L1218.95 1551.62 L1192.02 1551.62 Q1192.4 1557.67 1195.65 1560.85 Q1198.93 1564 1204.75 1564 Q1208.12 1564 1211.28 1563.17 Q1214.46 1562.35 1217.58 1560.69 L1217.58 1566.23 Q1214.43 1567.57 1211.12 1568.27 Q1207.81 1568.97 1204.4 1568.97 Q1195.87 1568.97 1190.87 1564 Q1185.91 1559.04 1185.91 1550.57 Q1185.91 1541.82 1190.62 1536.69 Q1195.36 1531.54 1203.38 1531.54 Q1210.58 1531.54 1214.74 1536.18 Q1218.95 1540.8 1218.95 1548.76 M1213.09 1547.04 Q1213.03 1542.23 1210.38 1539.37 Q1207.77 1536.5 1203.45 1536.5 Q1198.54 1536.5 1195.58 1539.27 Q1192.66 1542.04 1192.21 1547.07 L1213.09 1547.04 Z" fill="#000000" fill-rule="nonzero" fill-opacity="1" /><path clip-path="url(#clip580)" d="M1241.07 1568.04 L1222.92 1520.52 L1229.64 1520.52 L1244.7 1560.53 L1259.78 1520.52 L1266.47 1520.52 L1248.36 1568.04 L1241.07 1568.04 Z" fill="#000000" fill-rule="nonzero" fill-opacity="1" /><path clip-path="url(#clip580)" d="M1319.52 1533.76 L1319.52 1539.24 Q1317.04 1537.87 1314.53 1537.2 Q1312.04 1536.5 1309.5 1536.5 Q1303.8 1536.5 1300.65 1540.13 Q1297.5 1543.73 1297.5 1550.25 Q1297.5 1556.78 1300.65 1560.4 Q1303.8 1564 1309.5 1564 Q1312.04 1564 1314.53 1563.33 Q1317.04 1562.63 1319.52 1561.26 L1319.52 1566.68 Q1317.07 1567.82 1314.43 1568.39 Q1311.82 1568.97 1308.86 1568.97 Q1300.81 1568.97 1296.07 1563.91 Q1291.32 1558.85 1291.32 1550.25 Q1291.32 1541.53 1296.1 1536.53 Q1300.9 1531.54 1309.24 1531.54 Q1311.95 1531.54 1314.53 1532.11 Q1317.11 1532.65 1319.52 1533.76 Z" fill="#000000" fill-rule="nonzero" fill-opacity="1" /><path clip-path="url(#clip580)" d="M1353.99 1520.52 L1371.28 1538.25 L1364.88 1538.25 L1350.88 1525.68 L1336.87 1538.25 L1330.47 1538.25 L1347.76 1520.52 L1353.99 1520.52 Z" fill="#000000" fill-rule="nonzero" fill-opacity="1" /><path clip-path="url(#clip580)" d="M1381.37 1547.58 L1398.52 1547.58 L1398.52 1552.8 L1381.37 1552.8 L1381.37 1547.58 Z" fill="#000000" fill-rule="nonzero" fill-opacity="1" /><path clip-path="url(#clip580)" d="M1409.79 1562.63 L1420.29 1562.63 L1420.29 1526.38 L1408.87 1528.67 L1408.87 1522.82 L1420.23 1520.52 L1426.66 1520.52 L1426.66 1562.63 L1437.16 1562.63 L1437.16 1568.04 L1409.79 1568.04 L1409.79 1562.63 Z" fill="#000000" fill-rule="nonzero" fill-opacity="1" /><polyline clip-path="url(#clip580)" style="stroke:#000000; stroke-linecap:round; stroke-linejoin:round; stroke-width:4; stroke-opacity:1; fill:none" points="219.866,1423.18 219.866,123.472 "/>
<polyline clip-path="url(#clip580)" style="stroke:#000000; stroke-linecap:round; stroke-linejoin:round; stroke-width:4; stroke-opacity:1; fill:none" points="219.866,1318.59 238.764,1318.59 "/>
<polyline clip-path="url(#clip580)" style="stroke:#000000; stroke-linecap:round; stroke-linejoin:round; stroke-width:4; stroke-opacity:1; fill:none" points="219.866,1048.74 238.764,1048.74 "/>
<polyline clip-path="url(#clip580)" style="stroke:#000000; stroke-linecap:round; stroke-linejoin:round; stroke-width:4; stroke-opacity:1; fill:none" points="219.866,778.9 238.764,778.9 "/>
<polyline clip-path="url(#clip580)" style="stroke:#000000; stroke-linecap:round; stroke-linejoin:round; stroke-width:4; stroke-opacity:1; fill:none" points="219.866,509.058 238.764,509.058 "/>
<polyline clip-path="url(#clip580)" style="stroke:#000000; stroke-linecap:round; stroke-linejoin:round; stroke-width:4; stroke-opacity:1; fill:none" points="219.866,239.215 238.764,239.215 "/>
<path clip-path="url(#clip580)" d="M126.205 1304.38 Q122.593 1304.38 120.765 1307.95 Q118.959 1311.49 118.959 1318.62 Q118.959 1325.73 120.765 1329.29 Q122.593 1332.83 126.205 1332.83 Q129.839 1332.83 131.644 1329.29 Q133.473 1325.73 133.473 1318.62 Q133.473 1311.49 131.644 1307.95 Q129.839 1304.38 126.205 1304.38 M126.205 1300.68 Q132.015 1300.68 135.07 1305.29 Q138.149 1309.87 138.149 1318.62 Q138.149 1327.35 135.07 1331.95 Q132.015 1336.54 126.205 1336.54 Q120.394 1336.54 117.316 1331.95 Q114.26 1327.35 114.26 1318.62 Q114.26 1309.87 117.316 1305.29 Q120.394 1300.68 126.205 1300.68 Z" fill="#000000" fill-rule="nonzero" fill-opacity="1" /><path clip-path="url(#clip580)" d="M146.366 1329.99 L151.251 1329.99 L151.251 1335.87 L146.366 1335.87 L146.366 1329.99 Z" fill="#000000" fill-rule="nonzero" fill-opacity="1" /><path clip-path="url(#clip580)" d="M174.283 1305.38 L162.477 1323.83 L174.283 1323.83 L174.283 1305.38 M173.056 1301.31 L178.936 1301.31 L178.936 1323.83 L183.866 1323.83 L183.866 1327.72 L178.936 1327.72 L178.936 1335.87 L174.283 1335.87 L174.283 1327.72 L158.681 1327.72 L158.681 1323.2 L173.056 1301.31 Z" fill="#000000" fill-rule="nonzero" fill-opacity="1" /><path clip-path="url(#clip580)" d="M126.529 1034.54 Q122.918 1034.54 121.089 1038.11 Q119.283 1041.65 119.283 1048.78 Q119.283 1055.88 121.089 1059.45 Q122.918 1062.99 126.529 1062.99 Q130.163 1062.99 131.968 1059.45 Q133.797 1055.88 133.797 1048.78 Q133.797 1041.65 131.968 1038.11 Q130.163 1034.54 126.529 1034.54 M126.529 1030.84 Q132.339 1030.84 135.394 1035.44 Q138.473 1040.03 138.473 1048.78 Q138.473 1057.5 135.394 1062.11 Q132.339 1066.69 126.529 1066.69 Q120.718 1066.69 117.64 1062.11 Q114.584 1057.5 114.584 1048.78 Q114.584 1040.03 117.64 1035.44 Q120.718 1030.84 126.529 1030.84 Z" fill="#000000" fill-rule="nonzero" fill-opacity="1" /><path clip-path="url(#clip580)" d="M146.691 1060.14 L151.575 1060.14 L151.575 1066.02 L146.691 1066.02 L146.691 1060.14 Z" fill="#000000" fill-rule="nonzero" fill-opacity="1" /><path clip-path="url(#clip580)" d="M172.339 1046.88 Q169.19 1046.88 167.339 1049.03 Q165.51 1051.19 165.51 1054.94 Q165.51 1058.66 167.339 1060.84 Q169.19 1062.99 172.339 1062.99 Q175.487 1062.99 177.315 1060.84 Q179.167 1058.66 179.167 1054.94 Q179.167 1051.19 177.315 1049.03 Q175.487 1046.88 172.339 1046.88 M181.621 1032.23 L181.621 1036.49 Q179.862 1035.65 178.056 1035.21 Q176.274 1034.77 174.514 1034.77 Q169.885 1034.77 167.431 1037.9 Q165.001 1041.02 164.653 1047.34 Q166.019 1045.33 168.079 1044.26 Q170.139 1043.18 172.616 1043.18 Q177.825 1043.18 180.834 1046.35 Q183.866 1049.5 183.866 1054.94 Q183.866 1060.26 180.718 1063.48 Q177.57 1066.69 172.339 1066.69 Q166.343 1066.69 163.172 1062.11 Q160.001 1057.5 160.001 1048.78 Q160.001 1040.58 163.89 1035.72 Q167.778 1030.84 174.329 1030.84 Q176.089 1030.84 177.871 1031.19 Q179.676 1031.53 181.621 1032.23 Z" fill="#000000" fill-rule="nonzero" fill-opacity="1" /><path clip-path="url(#clip580)" d="M126.783 764.699 Q123.172 764.699 121.343 768.264 Q119.538 771.805 119.538 778.935 Q119.538 786.041 121.343 789.606 Q123.172 793.148 126.783 793.148 Q130.417 793.148 132.223 789.606 Q134.052 786.041 134.052 778.935 Q134.052 771.805 132.223 768.264 Q130.417 764.699 126.783 764.699 M126.783 760.995 Q132.593 760.995 135.649 765.602 Q138.728 770.185 138.728 778.935 Q138.728 787.662 135.649 792.268 Q132.593 796.852 126.783 796.852 Q120.973 796.852 117.894 792.268 Q114.839 787.662 114.839 778.935 Q114.839 770.185 117.894 765.602 Q120.973 760.995 126.783 760.995 Z" fill="#000000" fill-rule="nonzero" fill-opacity="1" /><path clip-path="url(#clip580)" d="M146.945 790.301 L151.829 790.301 L151.829 796.18 L146.945 796.18 L146.945 790.301 Z" fill="#000000" fill-rule="nonzero" fill-opacity="1" /><path clip-path="url(#clip580)" d="M172.014 779.768 Q168.681 779.768 166.76 781.551 Q164.862 783.333 164.862 786.458 Q164.862 789.583 166.76 791.366 Q168.681 793.148 172.014 793.148 Q175.348 793.148 177.269 791.366 Q179.19 789.56 179.19 786.458 Q179.19 783.333 177.269 781.551 Q175.371 779.768 172.014 779.768 M167.339 777.778 Q164.329 777.037 162.64 774.977 Q160.973 772.917 160.973 769.954 Q160.973 765.81 163.913 763.403 Q166.876 760.995 172.014 760.995 Q177.176 760.995 180.116 763.403 Q183.056 765.81 183.056 769.954 Q183.056 772.917 181.366 774.977 Q179.7 777.037 176.714 777.778 Q180.093 778.565 181.968 780.856 Q183.866 783.148 183.866 786.458 Q183.866 791.481 180.788 794.166 Q177.732 796.852 172.014 796.852 Q166.297 796.852 163.218 794.166 Q160.163 791.481 160.163 786.458 Q160.163 783.148 162.061 780.856 Q163.959 778.565 167.339 777.778 M165.626 770.393 Q165.626 773.079 167.292 774.583 Q168.982 776.088 172.014 776.088 Q175.024 776.088 176.714 774.583 Q178.426 773.079 178.426 770.393 Q178.426 767.708 176.714 766.204 Q175.024 764.699 172.014 764.699 Q168.982 764.699 167.292 766.204 Q165.626 767.708 165.626 770.393 Z" fill="#000000" fill-rule="nonzero" fill-opacity="1" /><path clip-path="url(#clip580)" d="M117.501 522.403 L125.14 522.403 L125.14 496.037 L116.83 497.704 L116.83 493.444 L125.093 491.778 L129.769 491.778 L129.769 522.403 L137.408 522.403 L137.408 526.338 L117.501 526.338 L117.501 522.403 Z" fill="#000000" fill-rule="nonzero" fill-opacity="1" /><path clip-path="url(#clip580)" d="M146.853 520.458 L151.737 520.458 L151.737 526.338 L146.853 526.338 L146.853 520.458 Z" fill="#000000" fill-rule="nonzero" fill-opacity="1" /><path clip-path="url(#clip580)" d="M171.922 494.856 Q168.311 494.856 166.482 498.421 Q164.677 501.963 164.677 509.092 Q164.677 516.199 166.482 519.764 Q168.311 523.305 171.922 523.305 Q175.556 523.305 177.362 519.764 Q179.19 516.199 179.19 509.092 Q179.19 501.963 177.362 498.421 Q175.556 494.856 171.922 494.856 M171.922 491.153 Q177.732 491.153 180.788 495.759 Q183.866 500.343 183.866 509.092 Q183.866 517.819 180.788 522.426 Q177.732 527.009 171.922 527.009 Q166.112 527.009 163.033 522.426 Q159.978 517.819 159.978 509.092 Q159.978 500.343 163.033 495.759 Q166.112 491.153 171.922 491.153 Z" fill="#000000" fill-rule="nonzero" fill-opacity="1" /><path clip-path="url(#clip580)" d="M119.098 252.56 L126.737 252.56 L126.737 226.194 L118.427 227.861 L118.427 223.602 L126.691 221.935 L131.367 221.935 L131.367 252.56 L139.005 252.56 L139.005 256.495 L119.098 256.495 L119.098 252.56 Z" fill="#000000" fill-rule="nonzero" fill-opacity="1" /><path clip-path="url(#clip580)" d="M148.45 250.616 L153.334 250.616 L153.334 256.495 L148.45 256.495 L148.45 250.616 Z" fill="#000000" fill-rule="nonzero" fill-opacity="1" /><path clip-path="url(#clip580)" d="M167.547 252.56 L183.866 252.56 L183.866 256.495 L161.922 256.495 L161.922 252.56 Q164.584 249.805 169.167 245.176 Q173.774 240.523 174.954 239.18 Q177.2 236.657 178.079 234.921 Q178.982 233.162 178.982 231.472 Q178.982 228.718 177.038 226.981 Q175.116 225.245 172.014 225.245 Q169.815 225.245 167.362 226.009 Q164.931 226.773 162.153 228.324 L162.153 223.602 Q164.977 222.468 167.431 221.889 Q169.885 221.31 171.922 221.31 Q177.292 221.31 180.487 223.995 Q183.681 226.681 183.681 231.171 Q183.681 233.301 182.871 235.222 Q182.084 237.12 179.977 239.713 Q179.399 240.384 176.297 243.602 Q173.195 246.796 167.547 252.56 Z" fill="#000000" fill-rule="nonzero" fill-opacity="1" /><path clip-path="url(#clip580)" d="M57.2247 888.784 L44.4614 888.784 L44.4614 899.287 L39.1779 899.287 L39.1779 882.418 L59.58 882.418 Q62.2218 886.142 63.5904 890.63 Q64.9272 895.118 64.9272 900.21 Q64.9272 911.35 58.4342 917.652 Q51.9093 923.923 40.2919 923.923 Q28.6427 923.923 22.1496 917.652 Q15.6248 911.35 15.6248 900.21 Q15.6248 895.563 16.7706 891.394 Q17.9164 887.193 20.1444 883.66 L26.9876 883.66 Q23.9639 887.224 22.4361 891.235 Q20.9083 895.245 20.9083 899.669 Q20.9083 908.39 25.7781 912.783 Q30.6479 917.143 40.2919 917.143 Q49.9041 917.143 54.7739 912.783 Q59.6436 908.39 59.6436 899.669 Q59.6436 896.264 59.0707 893.59 Q58.466 890.916 57.2247 888.784 Z" fill="#000000" fill-rule="nonzero" fill-opacity="1" /><path clip-path="url(#clip580)" d="M44.7161 840.436 L47.5806 840.436 L47.5806 867.363 Q53.6281 866.981 56.8109 863.735 Q59.9619 860.457 59.9619 854.632 Q59.9619 851.258 59.1344 848.107 Q58.3069 844.924 56.6518 841.805 L62.1899 841.805 Q63.5267 844.956 64.227 848.266 Q64.9272 851.576 64.9272 854.982 Q64.9272 863.512 59.9619 868.509 Q54.9967 873.474 46.5303 873.474 Q37.7774 873.474 32.6531 868.764 Q27.4968 864.021 27.4968 856.001 Q27.4968 848.807 32.1438 844.638 Q36.7589 840.436 44.7161 840.436 M42.9973 846.293 Q38.1912 846.357 35.3266 848.998 Q32.4621 851.608 32.4621 855.937 Q32.4621 860.839 35.2312 863.799 Q38.0002 866.727 43.0292 867.172 L42.9973 846.293 Z" fill="#000000" fill-rule="nonzero" fill-opacity="1" /><path clip-path="url(#clip580)" d="M64.0042 818.316 L16.4842 836.458 L16.4842 829.742 L56.4926 814.687 L16.4842 799.6 L16.4842 792.916 L64.0042 811.027 L64.0042 818.316 Z" fill="#000000" fill-rule="nonzero" fill-opacity="1" /><path clip-path="url(#clip580)" d="M29.7248 739.858 L35.1993 739.858 Q33.8307 742.341 33.1623 744.855 Q32.4621 747.338 32.4621 749.884 Q32.4621 755.582 36.0905 758.733 Q39.6872 761.884 46.212 761.884 Q52.7369 761.884 56.3653 758.733 Q59.9619 755.582 59.9619 749.884 Q59.9619 747.338 59.2935 744.855 Q58.5933 742.341 57.2247 739.858 L62.6355 739.858 Q63.7814 742.309 64.3543 744.951 Q64.9272 747.561 64.9272 750.521 Q64.9272 758.573 59.8664 763.316 Q54.8057 768.058 46.212 768.058 Q37.491 768.058 32.4939 763.284 Q27.4968 758.478 27.4968 750.139 Q27.4968 747.433 28.0697 744.855 Q28.6108 742.277 29.7248 739.858 Z" fill="#000000" fill-rule="nonzero" fill-opacity="1" /><path clip-path="url(#clip580)" d="M16.4842 705.388 L34.2127 688.105 L34.2127 694.503 L21.6404 708.507 L34.2127 722.512 L34.2127 728.909 L16.4842 711.626 L16.4842 705.388 Z" fill="#000000" fill-rule="nonzero" fill-opacity="1" /><path clip-path="url(#clip580)" d="M43.5384 678.015 L43.5384 660.86 L48.7583 660.86 L48.7583 678.015 L43.5384 678.015 Z" fill="#000000" fill-rule="nonzero" fill-opacity="1" /><path clip-path="url(#clip580)" d="M58.5933 645.168 L58.5933 622.729 L64.0042 622.729 L64.0042 652.903 L58.5933 652.903 Q54.8057 649.242 48.44 642.94 Q42.0425 636.607 40.1964 634.983 Q36.7271 631.896 34.34 630.686 Q31.921 629.445 29.5975 629.445 Q25.8099 629.445 23.4228 632.119 Q21.0356 634.76 21.0356 639.025 Q21.0356 642.049 22.086 645.423 Q23.1363 648.765 25.2688 652.584 L18.7758 652.584 Q17.2162 648.701 16.4205 645.328 Q15.6248 641.954 15.6248 639.153 Q15.6248 631.769 19.3169 627.376 Q23.009 622.984 29.1837 622.984 Q32.112 622.984 34.7537 624.098 Q37.3637 625.18 40.9285 628.076 Q41.8515 628.872 46.2757 633.137 Q50.668 637.402 58.5933 645.168 Z" fill="#000000" fill-rule="nonzero" fill-opacity="1" /><path clip-path="url(#clip580)" d="M636.526 12.096 L648.719 12.096 L664.153 53.2532 L679.668 12.096 L691.861 12.096 L691.861 72.576 L683.881 72.576 L683.881 19.4686 L668.285 60.9499 L660.062 60.9499 L644.466 19.4686 L644.466 72.576 L636.526 72.576 L636.526 12.096 Z" fill="#000000" fill-rule="nonzero" fill-opacity="1" /><path clip-path="url(#clip580)" d="M726.658 76.7889 Q723.499 84.8907 720.501 87.3618 Q717.503 89.8329 712.48 89.8329 L706.525 89.8329 L706.525 83.5945 L710.9 83.5945 Q713.979 83.5945 715.68 82.1361 Q717.382 80.6778 719.448 75.2496 L720.785 71.8468 L702.434 27.2059 L710.333 27.2059 L724.511 62.6918 L738.69 27.2059 L746.589 27.2059 L726.658 76.7889 Z" fill="#000000" fill-rule="nonzero" fill-opacity="1" /><path clip-path="url(#clip580)" d="M782.48 54.671 L782.48 27.2059 L789.934 27.2059 L789.934 54.3874 Q789.934 60.8284 792.445 64.0691 Q794.957 67.2693 799.98 67.2693 Q806.016 67.2693 809.499 63.421 Q813.024 59.5726 813.024 52.9291 L813.024 27.2059 L820.477 27.2059 L820.477 72.576 L813.024 72.576 L813.024 65.6084 Q810.31 69.7404 806.704 71.7658 Q803.139 73.7508 798.4 73.7508 Q790.582 73.7508 786.531 68.8897 Q782.48 64.0286 782.48 54.671 M801.236 26.1121 L801.236 26.1121 Z" fill="#000000" fill-rule="nonzero" fill-opacity="1" /><path clip-path="url(#clip580)" d="M873.544 45.1919 L873.544 72.576 L866.091 72.576 L866.091 45.4349 Q866.091 38.994 863.579 35.7938 Q861.067 32.5936 856.044 32.5936 Q850.008 32.5936 846.525 36.4419 Q843.041 40.2903 843.041 46.9338 L843.041 72.576 L835.547 72.576 L835.547 27.2059 L843.041 27.2059 L843.041 34.2544 Q845.714 30.163 849.32 28.1376 Q852.966 26.1121 857.705 26.1121 Q865.523 26.1121 869.534 30.9732 Q873.544 35.7938 873.544 45.1919 Z" fill="#000000" fill-rule="nonzero" fill-opacity="1" /><path clip-path="url(#clip580)" d="M888.411 27.2059 L895.865 27.2059 L895.865 72.576 L888.411 72.576 L888.411 27.2059 M888.411 9.54393 L895.865 9.54393 L895.865 18.9825 L888.411 18.9825 L888.411 9.54393 Z" fill="#000000" fill-rule="nonzero" fill-opacity="1" /><path clip-path="url(#clip580)" d="M918.833 14.324 L918.833 27.2059 L934.186 27.2059 L934.186 32.9987 L918.833 32.9987 L918.833 57.6282 Q918.833 63.1779 920.332 64.7578 Q921.871 66.3376 926.53 66.3376 L934.186 66.3376 L934.186 72.576 L926.53 72.576 Q917.902 72.576 914.62 69.3758 Q911.339 66.1351 911.339 57.6282 L911.339 32.9987 L905.87 32.9987 L905.87 27.2059 L911.339 27.2059 L911.339 14.324 L918.833 14.324 Z" fill="#000000" fill-rule="nonzero" fill-opacity="1" /><path clip-path="url(#clip580)" d="M966.958 9.54393 L966.958 15.7418 L959.828 15.7418 Q955.818 15.7418 954.238 17.3622 Q952.699 18.9825 952.699 23.1955 L952.699 27.2059 L964.973 27.2059 L964.973 32.9987 L952.699 32.9987 L952.699 72.576 L945.205 72.576 L945.205 32.9987 L938.075 32.9987 L938.075 27.2059 L945.205 27.2059 L945.205 24.0462 Q945.205 16.471 948.729 13.0277 Q952.253 9.54393 959.909 9.54393 L966.958 9.54393 Z" fill="#000000" fill-rule="nonzero" fill-opacity="1" /><path clip-path="url(#clip580)" d="M972.427 54.671 L972.427 27.2059 L979.88 27.2059 L979.88 54.3874 Q979.88 60.8284 982.392 64.0691 Q984.904 67.2693 989.927 67.2693 Q995.963 67.2693 999.446 63.421 Q1002.97 59.5726 1002.97 52.9291 L1002.97 27.2059 L1010.42 27.2059 L1010.42 72.576 L1002.97 72.576 L1002.97 65.6084 Q1000.26 69.7404 996.651 71.7658 Q993.086 73.7508 988.347 73.7508 Q980.529 73.7508 976.478 68.8897 Q972.427 64.0286 972.427 54.671 M991.182 26.1121 L991.182 26.1121 Z" fill="#000000" fill-rule="nonzero" fill-opacity="1" /><path clip-path="url(#clip580)" d="M1025.78 9.54393 L1033.23 9.54393 L1033.23 72.576 L1025.78 72.576 L1025.78 9.54393 Z" fill="#000000" fill-rule="nonzero" fill-opacity="1" /><path clip-path="url(#clip580)" d="M1105.05 34.0924 L1105.05 9.54393 L1112.51 9.54393 L1112.51 72.576 L1105.05 72.576 L1105.05 65.7705 Q1102.7 69.8214 1099.1 71.8063 Q1095.53 73.7508 1090.51 73.7508 Q1082.29 73.7508 1077.1 67.1883 Q1071.96 60.6258 1071.96 49.9314 Q1071.96 39.2371 1077.1 32.6746 Q1082.29 26.1121 1090.51 26.1121 Q1095.53 26.1121 1099.1 28.0971 Q1102.7 30.0415 1105.05 34.0924 M1079.65 49.9314 Q1079.65 58.1548 1083.02 62.8538 Q1086.42 67.5124 1092.33 67.5124 Q1098.25 67.5124 1101.65 62.8538 Q1105.05 58.1548 1105.05 49.9314 Q1105.05 41.7081 1101.65 37.0496 Q1098.25 32.3505 1092.33 32.3505 Q1086.42 32.3505 1083.02 37.0496 Q1079.65 41.7081 1079.65 49.9314 Z" fill="#000000" fill-rule="nonzero" fill-opacity="1" /><path clip-path="url(#clip580)" d="M1148.48 49.7694 Q1139.45 49.7694 1135.96 51.8354 Q1132.48 53.9013 1132.48 58.8839 Q1132.48 62.8538 1135.07 65.2034 Q1137.7 67.5124 1142.2 67.5124 Q1148.4 67.5124 1152.12 63.1374 Q1155.89 58.7219 1155.89 51.4303 L1155.89 49.7694 L1148.48 49.7694 M1163.35 46.6907 L1163.35 72.576 L1155.89 72.576 L1155.89 65.6895 Q1153.34 69.8214 1149.53 71.8063 Q1145.72 73.7508 1140.22 73.7508 Q1133.25 73.7508 1129.12 69.8619 Q1125.02 65.9325 1125.02 59.3701 Q1125.02 51.7138 1130.13 47.825 Q1135.27 43.9361 1145.44 43.9361 L1155.89 43.9361 L1155.89 43.2069 Q1155.89 38.0623 1152.49 35.2672 Q1149.13 32.4315 1143.01 32.4315 Q1139.12 32.4315 1135.44 33.3632 Q1131.75 34.295 1128.35 36.1584 L1128.35 29.2718 Q1132.44 27.692 1136.29 26.9223 Q1140.13 26.1121 1143.78 26.1121 Q1153.62 26.1121 1158.48 31.2163 Q1163.35 36.3204 1163.35 46.6907 Z" fill="#000000" fill-rule="nonzero" fill-opacity="1" /><path clip-path="url(#clip580)" d="M1186.07 14.324 L1186.07 27.2059 L1201.42 27.2059 L1201.42 32.9987 L1186.07 32.9987 L1186.07 57.6282 Q1186.07 63.1779 1187.57 64.7578 Q1189.11 66.3376 1193.77 66.3376 L1201.42 66.3376 L1201.42 72.576 L1193.77 72.576 Q1185.14 72.576 1181.86 69.3758 Q1178.58 66.1351 1178.58 57.6282 L1178.58 32.9987 L1173.11 32.9987 L1173.11 27.2059 L1178.58 27.2059 L1178.58 14.324 L1186.07 14.324 Z" fill="#000000" fill-rule="nonzero" fill-opacity="1" /><path clip-path="url(#clip580)" d="M1231.85 49.7694 Q1222.81 49.7694 1219.33 51.8354 Q1215.85 53.9013 1215.85 58.8839 Q1215.85 62.8538 1218.44 65.2034 Q1221.07 67.5124 1225.57 67.5124 Q1231.77 67.5124 1235.49 63.1374 Q1239.26 58.7219 1239.26 51.4303 L1239.26 49.7694 L1231.85 49.7694 M1246.71 46.6907 L1246.71 72.576 L1239.26 72.576 L1239.26 65.6895 Q1236.71 69.8214 1232.9 71.8063 Q1229.09 73.7508 1223.58 73.7508 Q1216.62 73.7508 1212.48 69.8619 Q1208.39 65.9325 1208.39 59.3701 Q1208.39 51.7138 1213.5 47.825 Q1218.64 43.9361 1228.81 43.9361 L1239.26 43.9361 L1239.26 43.2069 Q1239.26 38.0623 1235.86 35.2672 Q1232.49 32.4315 1226.38 32.4315 Q1222.49 32.4315 1218.8 33.3632 Q1215.12 34.295 1211.71 36.1584 L1211.71 29.2718 Q1215.81 27.692 1219.65 26.9223 Q1223.5 26.1121 1227.15 26.1121 Q1236.99 26.1121 1241.85 31.2163 Q1246.71 36.3204 1246.71 46.6907 Z" fill="#000000" fill-rule="nonzero" fill-opacity="1" /><path clip-path="url(#clip580)" d="M1284.1 27.2059 L1291.56 27.2059 L1300.87 62.6108 L1310.15 27.2059 L1318.94 27.2059 L1328.26 62.6108 L1337.53 27.2059 L1344.99 27.2059 L1333.12 72.576 L1324.33 72.576 L1314.57 35.3887 L1304.76 72.576 L1295.97 72.576 L1284.1 27.2059 Z" fill="#000000" fill-rule="nonzero" fill-opacity="1" /><path clip-path="url(#clip580)" d="M1356.29 27.2059 L1363.74 27.2059 L1363.74 72.576 L1356.29 72.576 L1356.29 27.2059 M1356.29 9.54393 L1363.74 9.54393 L1363.74 18.9825 L1356.29 18.9825 L1356.29 9.54393 Z" fill="#000000" fill-rule="nonzero" fill-opacity="1" /><path clip-path="url(#clip580)" d="M1386.71 14.324 L1386.71 27.2059 L1402.07 27.2059 L1402.07 32.9987 L1386.71 32.9987 L1386.71 57.6282 Q1386.71 63.1779 1388.21 64.7578 Q1389.75 66.3376 1394.41 66.3376 L1402.07 66.3376 L1402.07 72.576 L1394.41 72.576 Q1385.78 72.576 1382.5 69.3758 Q1379.22 66.1351 1379.22 57.6282 L1379.22 32.9987 L1373.75 32.9987 L1373.75 27.2059 L1379.22 27.2059 L1379.22 14.324 L1386.71 14.324 Z" fill="#000000" fill-rule="nonzero" fill-opacity="1" /><path clip-path="url(#clip580)" d="M1449.58 45.1919 L1449.58 72.576 L1442.13 72.576 L1442.13 45.4349 Q1442.13 38.994 1439.62 35.7938 Q1437.11 32.5936 1432.08 32.5936 Q1426.05 32.5936 1422.56 36.4419 Q1419.08 40.2903 1419.08 46.9338 L1419.08 72.576 L1411.59 72.576 L1411.59 9.54393 L1419.08 9.54393 L1419.08 34.2544 Q1421.75 30.163 1425.36 28.1376 Q1429 26.1121 1433.74 26.1121 Q1441.56 26.1121 1445.57 30.9732 Q1449.58 35.7938 1449.58 45.1919 Z" fill="#000000" fill-rule="nonzero" fill-opacity="1" /><path clip-path="url(#clip580)" d="M1509.7 76.7889 Q1506.54 84.8907 1503.54 87.3618 Q1500.54 89.8329 1495.52 89.8329 L1489.57 89.8329 L1489.57 83.5945 L1493.94 83.5945 Q1497.02 83.5945 1498.72 82.1361 Q1500.42 80.6778 1502.49 75.2496 L1503.82 71.8468 L1485.47 27.2059 L1493.37 27.2059 L1507.55 62.6918 L1521.73 27.2059 L1529.63 27.2059 L1509.7 76.7889 Z" fill="#000000" fill-rule="nonzero" fill-opacity="1" /><path clip-path="url(#clip580)" d="M1578.73 48.0275 L1578.73 51.6733 L1544.45 51.6733 Q1544.94 59.3701 1549.07 63.421 Q1553.25 67.4314 1560.66 67.4314 Q1564.95 67.4314 1568.96 66.3781 Q1573.01 65.3249 1576.98 63.2184 L1576.98 70.267 Q1572.97 71.9684 1568.76 72.8596 Q1564.55 73.7508 1560.21 73.7508 Q1549.36 73.7508 1543 67.4314 Q1536.68 61.1119 1536.68 50.3365 Q1536.68 39.1965 1542.67 32.6746 Q1548.71 26.1121 1558.92 26.1121 Q1568.07 26.1121 1573.38 32.0264 Q1578.73 37.9003 1578.73 48.0275 M1571.27 45.84 Q1571.19 39.7232 1567.83 36.0774 Q1564.51 32.4315 1559 32.4315 Q1552.76 32.4315 1548.99 35.9558 Q1545.27 39.4801 1544.7 45.8805 L1571.27 45.84 Z" fill="#000000" fill-rule="nonzero" fill-opacity="1" /><path clip-path="url(#clip580)" d="M1617.25 34.1734 Q1615.99 33.4443 1614.5 33.1202 Q1613.04 32.7556 1611.25 32.7556 Q1604.93 32.7556 1601.53 36.8875 Q1598.17 40.9789 1598.17 48.6757 L1598.17 72.576 L1590.68 72.576 L1590.68 27.2059 L1598.17 27.2059 L1598.17 34.2544 Q1600.52 30.1225 1604.29 28.1376 Q1608.05 26.1121 1613.44 26.1121 Q1614.21 26.1121 1615.14 26.2337 Q1616.07 26.3147 1617.21 26.5172 L1617.25 34.1734 Z" fill="#000000" fill-rule="nonzero" fill-opacity="1" /><path clip-path="url(#clip580)" d="M1649.9 34.1734 Q1648.64 33.4443 1647.15 33.1202 Q1645.69 32.7556 1643.9 32.7556 Q1637.59 32.7556 1634.18 36.8875 Q1630.82 40.9789 1630.82 48.6757 L1630.82 72.576 L1623.33 72.576 L1623.33 27.2059 L1630.82 27.2059 L1630.82 34.2544 Q1633.17 30.1225 1636.94 28.1376 Q1640.7 26.1121 1646.09 26.1121 Q1646.86 26.1121 1647.79 26.2337 Q1648.73 26.3147 1649.86 26.5172 L1649.9 34.1734 Z" fill="#000000" fill-rule="nonzero" fill-opacity="1" /><path clip-path="url(#clip580)" d="M1673.48 32.4315 Q1667.48 32.4315 1664 37.1306 Q1660.51 41.7891 1660.51 49.9314 Q1660.51 58.0738 1663.96 62.7728 Q1667.44 67.4314 1673.48 67.4314 Q1679.43 67.4314 1682.91 62.7323 Q1686.4 58.0333 1686.4 49.9314 Q1686.4 41.8701 1682.91 37.1711 Q1679.43 32.4315 1673.48 32.4315 M1673.48 26.1121 Q1683.2 26.1121 1688.75 32.4315 Q1694.3 38.7509 1694.3 49.9314 Q1694.3 61.0714 1688.75 67.4314 Q1683.2 73.7508 1673.48 73.7508 Q1663.71 73.7508 1658.16 67.4314 Q1652.65 61.0714 1652.65 49.9314 Q1652.65 38.7509 1658.16 32.4315 Q1663.71 26.1121 1673.48 26.1121 Z" fill="#000000" fill-rule="nonzero" fill-opacity="1" /><path clip-path="url(#clip580)" d="M1732.94 34.1734 Q1731.69 33.4443 1730.19 33.1202 Q1728.73 32.7556 1726.95 32.7556 Q1720.63 32.7556 1717.23 36.8875 Q1713.86 40.9789 1713.86 48.6757 L1713.86 72.576 L1706.37 72.576 L1706.37 27.2059 L1713.86 27.2059 L1713.86 34.2544 Q1716.21 30.1225 1719.98 28.1376 Q1723.75 26.1121 1729.14 26.1121 Q1729.91 26.1121 1730.84 26.2337 Q1731.77 26.3147 1732.9 26.5172 L1732.94 34.1734 Z" fill="#000000" fill-rule="nonzero" fill-opacity="1" /><path clip-path="url(#clip580)" d="M1799.7 49.9314 Q1799.7 41.7081 1796.3 37.0496 Q1792.94 32.3505 1787.02 32.3505 Q1781.11 32.3505 1777.71 37.0496 Q1774.34 41.7081 1774.34 49.9314 Q1774.34 58.1548 1777.71 62.8538 Q1781.11 67.5124 1787.02 67.5124 Q1792.94 67.5124 1796.3 62.8538 Q1799.7 58.1548 1799.7 49.9314 M1774.34 34.0924 Q1776.69 30.0415 1780.26 28.0971 Q1783.86 26.1121 1788.85 26.1121 Q1797.11 26.1121 1802.25 32.6746 Q1807.44 39.2371 1807.44 49.9314 Q1807.44 60.6258 1802.25 67.1883 Q1797.11 73.7508 1788.85 73.7508 Q1783.86 73.7508 1780.26 71.8063 Q1776.69 69.8214 1774.34 65.7705 L1774.34 72.576 L1766.85 72.576 L1766.85 9.54393 L1774.34 9.54393 L1774.34 34.0924 Z" fill="#000000" fill-rule="nonzero" fill-opacity="1" /><path clip-path="url(#clip580)" d="M1840.41 49.7694 Q1831.38 49.7694 1827.9 51.8354 Q1824.41 53.9013 1824.41 58.8839 Q1824.41 62.8538 1827.01 65.2034 Q1829.64 67.5124 1834.14 67.5124 Q1840.33 67.5124 1844.06 63.1374 Q1847.83 58.7219 1847.83 51.4303 L1847.83 49.7694 L1840.41 49.7694 M1855.28 46.6907 L1855.28 72.576 L1847.83 72.576 L1847.83 65.6895 Q1845.28 69.8214 1841.47 71.8063 Q1837.66 73.7508 1832.15 73.7508 Q1825.18 73.7508 1821.05 69.8619 Q1816.96 65.9325 1816.96 59.3701 Q1816.96 51.7138 1822.06 47.825 Q1827.21 43.9361 1837.38 43.9361 L1847.83 43.9361 L1847.83 43.2069 Q1847.83 38.0623 1844.42 35.2672 Q1841.06 32.4315 1834.95 32.4315 Q1831.06 32.4315 1827.37 33.3632 Q1823.68 34.295 1820.28 36.1584 L1820.28 29.2718 Q1824.37 27.692 1828.22 26.9223 Q1832.07 26.1121 1835.71 26.1121 Q1845.56 26.1121 1850.42 31.2163 Q1855.28 36.3204 1855.28 46.6907 Z" fill="#000000" fill-rule="nonzero" fill-opacity="1" /><path clip-path="url(#clip580)" d="M1896.92 34.1734 Q1895.67 33.4443 1894.17 33.1202 Q1892.71 32.7556 1890.93 32.7556 Q1884.61 32.7556 1881.21 36.8875 Q1877.84 40.9789 1877.84 48.6757 L1877.84 72.576 L1870.35 72.576 L1870.35 27.2059 L1877.84 27.2059 L1877.84 34.2544 Q1880.19 30.1225 1883.96 28.1376 Q1887.73 26.1121 1893.12 26.1121 Q1893.89 26.1121 1894.82 26.2337 Q1895.75 26.3147 1896.88 26.5172 L1896.92 34.1734 Z" fill="#000000" fill-rule="nonzero" fill-opacity="1" /><path clip-path="url(#clip580)" d="M1933.67 28.5427 L1933.67 35.5912 Q1930.51 33.9709 1927.1 33.1607 Q1923.7 32.3505 1920.05 32.3505 Q1914.51 32.3505 1911.71 34.0519 Q1908.96 35.7533 1908.96 39.156 Q1908.96 41.7486 1910.94 43.2475 Q1912.93 44.7058 1918.92 46.0426 L1921.47 46.6097 Q1929.41 48.3111 1932.73 51.4303 Q1936.1 54.509 1936.1 60.0587 Q1936.1 66.3781 1931.07 70.0644 Q1926.09 73.7508 1917.34 73.7508 Q1913.69 73.7508 1909.72 73.0216 Q1905.8 72.3329 1901.42 70.9151 L1901.42 63.2184 Q1905.55 65.3654 1909.56 66.4591 Q1913.57 67.5124 1917.5 67.5124 Q1922.77 67.5124 1925.6 65.73 Q1928.44 63.9071 1928.44 60.6258 Q1928.44 57.5877 1926.37 55.9673 Q1924.35 54.3469 1917.42 52.8481 L1914.83 52.2405 Q1907.9 50.7821 1904.82 47.7845 Q1901.74 44.7463 1901.74 39.4801 Q1901.74 33.0797 1906.28 29.5959 Q1910.82 26.1121 1919.16 26.1121 Q1923.3 26.1121 1926.94 26.7198 Q1930.59 27.3274 1933.67 28.5427 Z" fill="#000000" fill-rule="nonzero" fill-opacity="1" /><polyline clip-path="url(#clip582)" style="stroke:#009af9; stroke-linecap:round; stroke-linejoin:round; stroke-width:4; stroke-opacity:1; fill:none" points="280.231,324.771 302.588,297.929 324.946,275.893 347.303,258.882 369.66,247.068 392.018,240.567 414.375,239.445 436.732,243.714 459.09,253.329 481.447,268.196 503.804,288.166 526.162,313.039 548.519,342.567 570.876,376.454 593.234,414.363 615.591,455.914 637.948,500.692 660.306,548.25 682.663,598.112 705.02,649.781 727.378,702.74 749.735,756.46 772.092,810.404 794.45,864.033 816.807,916.812 839.164,968.213 861.522,1017.72 883.879,1064.85 906.236,1109.11 928.594,1150.08 950.951,1187.34 973.308,1220.51 995.666,1249.28 1018.02,1273.34 1040.38,1292.47 1062.74,1306.46 1085.1,1315.18 1107.45,1318.54 1129.81,1316.52 1152.17,1309.12 1174.52,1296.42 1196.88,1278.55 1219.24,1255.69 1241.6,1228.06 1263.95,1195.95 1286.31,1159.67 1308.67,1119.59 1331.03,1076.1 1353.38,1029.64 1375.74,980.676 1398.1,929.697 1420.46,877.211 1442.81,823.742 1465.17,769.826 1487.53,716 1509.88,662.803 1532.24,610.766 1554.6,560.409 1576.96,512.235 1599.31,466.725 1621.67,424.334 1644.03,385.487 1666.39,350.57 1688.74,319.932 1711.1,293.881 1733.46,272.676 1755.82,256.528 1778.17,245.601 1800.53,240.001 1822.89,239.787 1845.24,244.958 1867.6,255.465 1889.96,271.202 1912.32,292.012 1934.67,317.686 1957.03,347.969 1979.39,382.557 2001.75,421.106 2024.1,463.229 2046.46,508.507 2068.82,556.486 2091.18,606.688 2113.53,658.61 2135.89,711.734 2158.25,765.529 2180.6,819.458 2202.96,872.982 2225.32,925.566 2247.68,976.684 2270.03,1025.83 2292.39,1072.5 "/>
<polyline clip-path="url(#clip582)" style="stroke:#000000; stroke-linecap:round; stroke-linejoin:round; stroke-width:4; stroke-opacity:1; fill:none" points="280.231,447.077 280.231,202.465 "/>
<polyline clip-path="url(#clip582)" style="stroke:#000000; stroke-linecap:round; stroke-linejoin:round; stroke-width:4; stroke-opacity:1; fill:none" points="302.588,315.998 302.588,279.86 "/>
<polyline clip-path="url(#clip582)" style="stroke:#000000; stroke-linecap:round; stroke-linejoin:round; stroke-width:4; stroke-opacity:1; fill:none" points="324.946,280.23 324.946,271.555 "/>
<polyline clip-path="url(#clip582)" style="stroke:#000000; stroke-linecap:round; stroke-linejoin:round; stroke-width:4; stroke-opacity:1; fill:none" points="347.303,262.138 347.303,255.627 "/>
<polyline clip-path="url(#clip582)" style="stroke:#000000; stroke-linecap:round; stroke-linejoin:round; stroke-width:4; stroke-opacity:1; fill:none" points="369.66,327.488 369.66,166.647 "/>
<polyline clip-path="url(#clip582)" style="stroke:#000000; stroke-linecap:round; stroke-linejoin:round; stroke-width:4; stroke-opacity:1; fill:none" points="392.018,320.495 392.018,160.639 "/>
<polyline clip-path="url(#clip582)" style="stroke:#000000; stroke-linecap:round; stroke-linejoin:round; stroke-width:4; stroke-opacity:1; fill:none" points="414.375,255.279 414.375,223.612 "/>
<polyline clip-path="url(#clip582)" style="stroke:#000000; stroke-linecap:round; stroke-linejoin:round; stroke-width:4; stroke-opacity:1; fill:none" points="436.732,264.919 436.732,222.508 "/>
<polyline clip-path="url(#clip582)" style="stroke:#000000; stroke-linecap:round; stroke-linejoin:round; stroke-width:4; stroke-opacity:1; fill:none" points="459.09,272.86 459.09,233.799 "/>
<polyline clip-path="url(#clip582)" style="stroke:#000000; stroke-linecap:round; stroke-linejoin:round; stroke-width:4; stroke-opacity:1; fill:none" points="481.447,275.676 481.447,260.716 "/>
<polyline clip-path="url(#clip582)" style="stroke:#000000; stroke-linecap:round; stroke-linejoin:round; stroke-width:4; stroke-opacity:1; fill:none" points="503.804,322.402 503.804,253.93 "/>
<polyline clip-path="url(#clip582)" style="stroke:#000000; stroke-linecap:round; stroke-linejoin:round; stroke-width:4; stroke-opacity:1; fill:none" points="526.162,320.692 526.162,305.386 "/>
<polyline clip-path="url(#clip582)" style="stroke:#000000; stroke-linecap:round; stroke-linejoin:round; stroke-width:4; stroke-opacity:1; fill:none" points="548.519,360.198 548.519,324.936 "/>
<polyline clip-path="url(#clip582)" style="stroke:#000000; stroke-linecap:round; stroke-linejoin:round; stroke-width:4; stroke-opacity:1; fill:none" points="570.876,380.858 570.876,372.051 "/>
<polyline clip-path="url(#clip582)" style="stroke:#000000; stroke-linecap:round; stroke-linejoin:round; stroke-width:4; stroke-opacity:1; fill:none" points="593.234,441.517 593.234,387.209 "/>
<polyline clip-path="url(#clip582)" style="stroke:#000000; stroke-linecap:round; stroke-linejoin:round; stroke-width:4; stroke-opacity:1; fill:none" points="615.591,478.736 615.591,433.091 "/>
<polyline clip-path="url(#clip582)" style="stroke:#000000; stroke-linecap:round; stroke-linejoin:round; stroke-width:4; stroke-opacity:1; fill:none" points="637.948,530.93 637.948,470.454 "/>
<polyline clip-path="url(#clip582)" style="stroke:#000000; stroke-linecap:round; stroke-linejoin:round; stroke-width:4; stroke-opacity:1; fill:none" points="660.306,551.359 660.306,545.141 "/>
<polyline clip-path="url(#clip582)" style="stroke:#000000; stroke-linecap:round; stroke-linejoin:round; stroke-width:4; stroke-opacity:1; fill:none" points="682.663,620 682.663,576.225 "/>
<polyline clip-path="url(#clip582)" style="stroke:#000000; stroke-linecap:round; stroke-linejoin:round; stroke-width:4; stroke-opacity:1; fill:none" points="705.02,654.645 705.02,644.917 "/>
<polyline clip-path="url(#clip582)" style="stroke:#000000; stroke-linecap:round; stroke-linejoin:round; stroke-width:4; stroke-opacity:1; fill:none" points="727.378,707.869 727.378,697.611 "/>
<polyline clip-path="url(#clip582)" style="stroke:#000000; stroke-linecap:round; stroke-linejoin:round; stroke-width:4; stroke-opacity:1; fill:none" points="749.735,768.695 749.735,744.225 "/>
<polyline clip-path="url(#clip582)" style="stroke:#000000; stroke-linecap:round; stroke-linejoin:round; stroke-width:4; stroke-opacity:1; fill:none" points="772.092,832.952 772.092,787.856 "/>
<polyline clip-path="url(#clip582)" style="stroke:#000000; stroke-linecap:round; stroke-linejoin:round; stroke-width:4; stroke-opacity:1; fill:none" points="794.45,891.65 794.45,836.416 "/>
<polyline clip-path="url(#clip582)" style="stroke:#000000; stroke-linecap:round; stroke-linejoin:round; stroke-width:4; stroke-opacity:1; fill:none" points="816.807,920.885 816.807,912.739 "/>
<polyline clip-path="url(#clip582)" style="stroke:#000000; stroke-linecap:round; stroke-linejoin:round; stroke-width:4; stroke-opacity:1; fill:none" points="839.164,974.944 839.164,961.482 "/>
<polyline clip-path="url(#clip582)" style="stroke:#000000; stroke-linecap:round; stroke-linejoin:round; stroke-width:4; stroke-opacity:1; fill:none" points="861.522,1030.99 861.522,1004.46 "/>
<polyline clip-path="url(#clip582)" style="stroke:#000000; stroke-linecap:round; stroke-linejoin:round; stroke-width:4; stroke-opacity:1; fill:none" points="883.879,1066.37 883.879,1063.32 "/>
<polyline clip-path="url(#clip582)" style="stroke:#000000; stroke-linecap:round; stroke-linejoin:round; stroke-width:4; stroke-opacity:1; fill:none" points="906.236,1121.78 906.236,1096.44 "/>
<polyline clip-path="url(#clip582)" style="stroke:#000000; stroke-linecap:round; stroke-linejoin:round; stroke-width:4; stroke-opacity:1; fill:none" points="928.594,1218.1 928.594,1082.05 "/>
<polyline clip-path="url(#clip582)" style="stroke:#000000; stroke-linecap:round; stroke-linejoin:round; stroke-width:4; stroke-opacity:1; fill:none" points="950.951,1192.06 950.951,1182.61 "/>
<polyline clip-path="url(#clip582)" style="stroke:#000000; stroke-linecap:round; stroke-linejoin:round; stroke-width:4; stroke-opacity:1; fill:none" points="973.308,1244.62 973.308,1196.41 "/>
<polyline clip-path="url(#clip582)" style="stroke:#000000; stroke-linecap:round; stroke-linejoin:round; stroke-width:4; stroke-opacity:1; fill:none" points="995.666,1252.64 995.666,1245.91 "/>
<polyline clip-path="url(#clip582)" style="stroke:#000000; stroke-linecap:round; stroke-linejoin:round; stroke-width:4; stroke-opacity:1; fill:none" points="1018.02,1280.65 1018.02,1266.03 "/>
<polyline clip-path="url(#clip582)" style="stroke:#000000; stroke-linecap:round; stroke-linejoin:round; stroke-width:4; stroke-opacity:1; fill:none" points="1040.38,1339.47 1040.38,1245.47 "/>
<polyline clip-path="url(#clip582)" style="stroke:#000000; stroke-linecap:round; stroke-linejoin:round; stroke-width:4; stroke-opacity:1; fill:none" points="1062.74,1386.4 1062.74,1226.52 "/>
<polyline clip-path="url(#clip582)" style="stroke:#000000; stroke-linecap:round; stroke-linejoin:round; stroke-width:4; stroke-opacity:1; fill:none" points="1085.1,1331.07 1085.1,1299.29 "/>
<polyline clip-path="url(#clip582)" style="stroke:#000000; stroke-linecap:round; stroke-linejoin:round; stroke-width:4; stroke-opacity:1; fill:none" points="1107.45,1325.5 1107.45,1311.59 "/>
<polyline clip-path="url(#clip582)" style="stroke:#000000; stroke-linecap:round; stroke-linejoin:round; stroke-width:4; stroke-opacity:1; fill:none" points="1129.81,1326.38 1129.81,1306.65 "/>
<polyline clip-path="url(#clip582)" style="stroke:#000000; stroke-linecap:round; stroke-linejoin:round; stroke-width:4; stroke-opacity:1; fill:none" points="1152.17,1322.09 1152.17,1296.14 "/>
<polyline clip-path="url(#clip582)" style="stroke:#000000; stroke-linecap:round; stroke-linejoin:round; stroke-width:4; stroke-opacity:1; fill:none" points="1174.52,1307.31 1174.52,1285.52 "/>
<polyline clip-path="url(#clip582)" style="stroke:#000000; stroke-linecap:round; stroke-linejoin:round; stroke-width:4; stroke-opacity:1; fill:none" points="1196.88,1298.14 1196.88,1258.96 "/>
<polyline clip-path="url(#clip582)" style="stroke:#000000; stroke-linecap:round; stroke-linejoin:round; stroke-width:4; stroke-opacity:1; fill:none" points="1219.24,1276.08 1219.24,1235.3 "/>
<polyline clip-path="url(#clip582)" style="stroke:#000000; stroke-linecap:round; stroke-linejoin:round; stroke-width:4; stroke-opacity:1; fill:none" points="1241.6,1263.01 1241.6,1193.12 "/>
<polyline clip-path="url(#clip582)" style="stroke:#000000; stroke-linecap:round; stroke-linejoin:round; stroke-width:4; stroke-opacity:1; fill:none" points="1263.95,1200.74 1263.95,1191.16 "/>
<polyline clip-path="url(#clip582)" style="stroke:#000000; stroke-linecap:round; stroke-linejoin:round; stroke-width:4; stroke-opacity:1; fill:none" points="1286.31,1200.9 1286.31,1118.44 "/>
<polyline clip-path="url(#clip582)" style="stroke:#000000; stroke-linecap:round; stroke-linejoin:round; stroke-width:4; stroke-opacity:1; fill:none" points="1308.67,1122.48 1308.67,1116.69 "/>
<polyline clip-path="url(#clip582)" style="stroke:#000000; stroke-linecap:round; stroke-linejoin:round; stroke-width:4; stroke-opacity:1; fill:none" points="1331.03,1171.12 1331.03,981.073 "/>
<polyline clip-path="url(#clip582)" style="stroke:#000000; stroke-linecap:round; stroke-linejoin:round; stroke-width:4; stroke-opacity:1; fill:none" points="1353.38,1039.03 1353.38,1020.25 "/>
<polyline clip-path="url(#clip582)" style="stroke:#000000; stroke-linecap:round; stroke-linejoin:round; stroke-width:4; stroke-opacity:1; fill:none" points="1375.74,1215.2 1375.74,746.154 "/>
<polyline clip-path="url(#clip582)" style="stroke:#000000; stroke-linecap:round; stroke-linejoin:round; stroke-width:4; stroke-opacity:1; fill:none" points="1398.1,950.32 1398.1,909.074 "/>
<polyline clip-path="url(#clip582)" style="stroke:#000000; stroke-linecap:round; stroke-linejoin:round; stroke-width:4; stroke-opacity:1; fill:none" points="1420.46,919.157 1420.46,835.264 "/>
<polyline clip-path="url(#clip582)" style="stroke:#000000; stroke-linecap:round; stroke-linejoin:round; stroke-width:4; stroke-opacity:1; fill:none" points="1442.81,848.16 1442.81,799.324 "/>
<polyline clip-path="url(#clip582)" style="stroke:#000000; stroke-linecap:round; stroke-linejoin:round; stroke-width:4; stroke-opacity:1; fill:none" points="1465.17,802.257 1465.17,737.395 "/>
<polyline clip-path="url(#clip582)" style="stroke:#000000; stroke-linecap:round; stroke-linejoin:round; stroke-width:4; stroke-opacity:1; fill:none" points="1487.53,719.966 1487.53,712.034 "/>
<polyline clip-path="url(#clip582)" style="stroke:#000000; stroke-linecap:round; stroke-linejoin:round; stroke-width:4; stroke-opacity:1; fill:none" points="1509.88,683.77 1509.88,641.837 "/>
<polyline clip-path="url(#clip582)" style="stroke:#000000; stroke-linecap:round; stroke-linejoin:round; stroke-width:4; stroke-opacity:1; fill:none" points="1532.24,644.793 1532.24,576.739 "/>
<polyline clip-path="url(#clip582)" style="stroke:#000000; stroke-linecap:round; stroke-linejoin:round; stroke-width:4; stroke-opacity:1; fill:none" points="1554.6,567.422 1554.6,553.396 "/>
<polyline clip-path="url(#clip582)" style="stroke:#000000; stroke-linecap:round; stroke-linejoin:round; stroke-width:4; stroke-opacity:1; fill:none" points="1576.96,517.878 1576.96,506.591 "/>
<polyline clip-path="url(#clip582)" style="stroke:#000000; stroke-linecap:round; stroke-linejoin:round; stroke-width:4; stroke-opacity:1; fill:none" points="1599.31,469.55 1599.31,463.9 "/>
<polyline clip-path="url(#clip582)" style="stroke:#000000; stroke-linecap:round; stroke-linejoin:round; stroke-width:4; stroke-opacity:1; fill:none" points="1621.67,493.384 1621.67,355.284 "/>
<polyline clip-path="url(#clip582)" style="stroke:#000000; stroke-linecap:round; stroke-linejoin:round; stroke-width:4; stroke-opacity:1; fill:none" points="1644.03,398.899 1644.03,372.074 "/>
<polyline clip-path="url(#clip582)" style="stroke:#000000; stroke-linecap:round; stroke-linejoin:round; stroke-width:4; stroke-opacity:1; fill:none" points="1666.39,364.957 1666.39,336.183 "/>
<polyline clip-path="url(#clip582)" style="stroke:#000000; stroke-linecap:round; stroke-linejoin:round; stroke-width:4; stroke-opacity:1; fill:none" points="1688.74,327.502 1688.74,312.362 "/>
<polyline clip-path="url(#clip582)" style="stroke:#000000; stroke-linecap:round; stroke-linejoin:round; stroke-width:4; stroke-opacity:1; fill:none" points="1711.1,341.132 1711.1,246.63 "/>
<polyline clip-path="url(#clip582)" style="stroke:#000000; stroke-linecap:round; stroke-linejoin:round; stroke-width:4; stroke-opacity:1; fill:none" points="1733.46,285.39 1733.46,259.962 "/>
<polyline clip-path="url(#clip582)" style="stroke:#000000; stroke-linecap:round; stroke-linejoin:round; stroke-width:4; stroke-opacity:1; fill:none" points="1755.82,268.069 1755.82,244.988 "/>
<polyline clip-path="url(#clip582)" style="stroke:#000000; stroke-linecap:round; stroke-linejoin:round; stroke-width:4; stroke-opacity:1; fill:none" points="1778.17,257.36 1778.17,233.841 "/>
<polyline clip-path="url(#clip582)" style="stroke:#000000; stroke-linecap:round; stroke-linejoin:round; stroke-width:4; stroke-opacity:1; fill:none" points="1800.53,255.568 1800.53,224.435 "/>
<polyline clip-path="url(#clip582)" style="stroke:#000000; stroke-linecap:round; stroke-linejoin:round; stroke-width:4; stroke-opacity:1; fill:none" points="1822.89,257.338 1822.89,222.235 "/>
<polyline clip-path="url(#clip582)" style="stroke:#000000; stroke-linecap:round; stroke-linejoin:round; stroke-width:4; stroke-opacity:1; fill:none" points="1845.24,268.303 1845.24,221.614 "/>
<polyline clip-path="url(#clip582)" style="stroke:#000000; stroke-linecap:round; stroke-linejoin:round; stroke-width:4; stroke-opacity:1; fill:none" points="1867.6,350.674 1867.6,160.256 "/>
<polyline clip-path="url(#clip582)" style="stroke:#000000; stroke-linecap:round; stroke-linejoin:round; stroke-width:4; stroke-opacity:1; fill:none" points="1889.96,287.061 1889.96,255.343 "/>
<polyline clip-path="url(#clip582)" style="stroke:#000000; stroke-linecap:round; stroke-linejoin:round; stroke-width:4; stroke-opacity:1; fill:none" points="1912.32,338.342 1912.32,245.681 "/>
<polyline clip-path="url(#clip582)" style="stroke:#000000; stroke-linecap:round; stroke-linejoin:round; stroke-width:4; stroke-opacity:1; fill:none" points="1934.67,329.239 1934.67,306.133 "/>
<polyline clip-path="url(#clip582)" style="stroke:#000000; stroke-linecap:round; stroke-linejoin:round; stroke-width:4; stroke-opacity:1; fill:none" points="1957.03,357.007 1957.03,338.931 "/>
<polyline clip-path="url(#clip582)" style="stroke:#000000; stroke-linecap:round; stroke-linejoin:round; stroke-width:4; stroke-opacity:1; fill:none" points="1979.39,384.665 1979.39,380.45 "/>
<polyline clip-path="url(#clip582)" style="stroke:#000000; stroke-linecap:round; stroke-linejoin:round; stroke-width:4; stroke-opacity:1; fill:none" points="2001.75,443.268 2001.75,398.944 "/>
<polyline clip-path="url(#clip582)" style="stroke:#000000; stroke-linecap:round; stroke-linejoin:round; stroke-width:4; stroke-opacity:1; fill:none" points="2024.1,517.511 2024.1,408.947 "/>
<polyline clip-path="url(#clip582)" style="stroke:#000000; stroke-linecap:round; stroke-linejoin:round; stroke-width:4; stroke-opacity:1; fill:none" points="2046.46,522.066 2046.46,494.947 "/>
<polyline clip-path="url(#clip582)" style="stroke:#000000; stroke-linecap:round; stroke-linejoin:round; stroke-width:4; stroke-opacity:1; fill:none" points="2068.82,636.445 2068.82,476.527 "/>
<polyline clip-path="url(#clip582)" style="stroke:#000000; stroke-linecap:round; stroke-linejoin:round; stroke-width:4; stroke-opacity:1; fill:none" points="2091.18,721.37 2091.18,492.006 "/>
<polyline clip-path="url(#clip582)" style="stroke:#000000; stroke-linecap:round; stroke-linejoin:round; stroke-width:4; stroke-opacity:1; fill:none" points="2113.53,693.821 2113.53,623.398 "/>
<polyline clip-path="url(#clip582)" style="stroke:#000000; stroke-linecap:round; stroke-linejoin:round; stroke-width:4; stroke-opacity:1; fill:none" points="2135.89,720.741 2135.89,702.727 "/>
<polyline clip-path="url(#clip582)" style="stroke:#000000; stroke-linecap:round; stroke-linejoin:round; stroke-width:4; stroke-opacity:1; fill:none" points="2158.25,819.963 2158.25,711.096 "/>
<polyline clip-path="url(#clip582)" style="stroke:#000000; stroke-linecap:round; stroke-linejoin:round; stroke-width:4; stroke-opacity:1; fill:none" points="2180.6,853.996 2180.6,784.921 "/>
<polyline clip-path="url(#clip582)" style="stroke:#000000; stroke-linecap:round; stroke-linejoin:round; stroke-width:4; stroke-opacity:1; fill:none" points="2202.96,891.737 2202.96,854.227 "/>
<polyline clip-path="url(#clip582)" style="stroke:#000000; stroke-linecap:round; stroke-linejoin:round; stroke-width:4; stroke-opacity:1; fill:none" points="2225.32,980.122 2225.32,871.009 "/>
<polyline clip-path="url(#clip582)" style="stroke:#000000; stroke-linecap:round; stroke-linejoin:round; stroke-width:4; stroke-opacity:1; fill:none" points="2247.68,978.863 2247.68,974.504 "/>
<polyline clip-path="url(#clip582)" style="stroke:#000000; stroke-linecap:round; stroke-linejoin:round; stroke-width:4; stroke-opacity:1; fill:none" points="2270.03,1063.02 2270.03,988.628 "/>
<polyline clip-path="url(#clip582)" style="stroke:#000000; stroke-linecap:round; stroke-linejoin:round; stroke-width:4; stroke-opacity:1; fill:none" points="2292.39,1078.58 2292.39,1066.42 "/>
<line clip-path="url(#clip582)" x1="296.231" y1="447.077" x2="264.231" y2="447.077" style="stroke:#000000; stroke-width:4; stroke-opacity:1"/>
<line clip-path="url(#clip582)" x1="296.231" y1="202.465" x2="264.231" y2="202.465" style="stroke:#000000; stroke-width:4; stroke-opacity:1"/>
<line clip-path="url(#clip582)" x1="318.588" y1="315.998" x2="286.588" y2="315.998" style="stroke:#000000; stroke-width:4; stroke-opacity:1"/>
<line clip-path="url(#clip582)" x1="318.588" y1="279.86" x2="286.588" y2="279.86" style="stroke:#000000; stroke-width:4; stroke-opacity:1"/>
<line clip-path="url(#clip582)" x1="340.946" y1="280.23" x2="308.946" y2="280.23" style="stroke:#000000; stroke-width:4; stroke-opacity:1"/>
<line clip-path="url(#clip582)" x1="340.946" y1="271.555" x2="308.946" y2="271.555" style="stroke:#000000; stroke-width:4; stroke-opacity:1"/>
<line clip-path="url(#clip582)" x1="363.303" y1="262.138" x2="331.303" y2="262.138" style="stroke:#000000; stroke-width:4; stroke-opacity:1"/>
<line clip-path="url(#clip582)" x1="363.303" y1="255.627" x2="331.303" y2="255.627" style="stroke:#000000; stroke-width:4; stroke-opacity:1"/>
<line clip-path="url(#clip582)" x1="385.66" y1="327.488" x2="353.66" y2="327.488" style="stroke:#000000; stroke-width:4; stroke-opacity:1"/>
<line clip-path="url(#clip582)" x1="385.66" y1="166.647" x2="353.66" y2="166.647" style="stroke:#000000; stroke-width:4; stroke-opacity:1"/>
<line clip-path="url(#clip582)" x1="408.018" y1="320.495" x2="376.018" y2="320.495" style="stroke:#000000; stroke-width:4; stroke-opacity:1"/>
<line clip-path="url(#clip582)" x1="408.018" y1="160.639" x2="376.018" y2="160.639" style="stroke:#000000; stroke-width:4; stroke-opacity:1"/>
<line clip-path="url(#clip582)" x1="430.375" y1="255.279" x2="398.375" y2="255.279" style="stroke:#000000; stroke-width:4; stroke-opacity:1"/>
<line clip-path="url(#clip582)" x1="430.375" y1="223.612" x2="398.375" y2="223.612" style="stroke:#000000; stroke-width:4; stroke-opacity:1"/>
<line clip-path="url(#clip582)" x1="452.732" y1="264.919" x2="420.732" y2="264.919" style="stroke:#000000; stroke-width:4; stroke-opacity:1"/>
<line clip-path="url(#clip582)" x1="452.732" y1="222.508" x2="420.732" y2="222.508" style="stroke:#000000; stroke-width:4; stroke-opacity:1"/>
<line clip-path="url(#clip582)" x1="475.09" y1="272.86" x2="443.09" y2="272.86" style="stroke:#000000; stroke-width:4; stroke-opacity:1"/>
<line clip-path="url(#clip582)" x1="475.09" y1="233.799" x2="443.09" y2="233.799" style="stroke:#000000; stroke-width:4; stroke-opacity:1"/>
<line clip-path="url(#clip582)" x1="497.447" y1="275.676" x2="465.447" y2="275.676" style="stroke:#000000; stroke-width:4; stroke-opacity:1"/>
<line clip-path="url(#clip582)" x1="497.447" y1="260.716" x2="465.447" y2="260.716" style="stroke:#000000; stroke-width:4; stroke-opacity:1"/>
<line clip-path="url(#clip582)" x1="519.804" y1="322.402" x2="487.804" y2="322.402" style="stroke:#000000; stroke-width:4; stroke-opacity:1"/>
<line clip-path="url(#clip582)" x1="519.804" y1="253.93" x2="487.804" y2="253.93" style="stroke:#000000; stroke-width:4; stroke-opacity:1"/>
<line clip-path="url(#clip582)" x1="542.162" y1="320.692" x2="510.162" y2="320.692" style="stroke:#000000; stroke-width:4; stroke-opacity:1"/>
<line clip-path="url(#clip582)" x1="542.162" y1="305.386" x2="510.162" y2="305.386" style="stroke:#000000; stroke-width:4; stroke-opacity:1"/>
<line clip-path="url(#clip582)" x1="564.519" y1="360.198" x2="532.519" y2="360.198" style="stroke:#000000; stroke-width:4; stroke-opacity:1"/>
<line clip-path="url(#clip582)" x1="564.519" y1="324.936" x2="532.519" y2="324.936" style="stroke:#000000; stroke-width:4; stroke-opacity:1"/>
<line clip-path="url(#clip582)" x1="586.876" y1="380.858" x2="554.876" y2="380.858" style="stroke:#000000; stroke-width:4; stroke-opacity:1"/>
<line clip-path="url(#clip582)" x1="586.876" y1="372.051" x2="554.876" y2="372.051" style="stroke:#000000; stroke-width:4; stroke-opacity:1"/>
<line clip-path="url(#clip582)" x1="609.234" y1="441.517" x2="577.234" y2="441.517" style="stroke:#000000; stroke-width:4; stroke-opacity:1"/>
<line clip-path="url(#clip582)" x1="609.234" y1="387.209" x2="577.234" y2="387.209" style="stroke:#000000; stroke-width:4; stroke-opacity:1"/>
<line clip-path="url(#clip582)" x1="631.591" y1="478.736" x2="599.591" y2="478.736" style="stroke:#000000; stroke-width:4; stroke-opacity:1"/>
<line clip-path="url(#clip582)" x1="631.591" y1="433.091" x2="599.591" y2="433.091" style="stroke:#000000; stroke-width:4; stroke-opacity:1"/>
<line clip-path="url(#clip582)" x1="653.948" y1="530.93" x2="621.948" y2="530.93" style="stroke:#000000; stroke-width:4; stroke-opacity:1"/>
<line clip-path="url(#clip582)" x1="653.948" y1="470.454" x2="621.948" y2="470.454" style="stroke:#000000; stroke-width:4; stroke-opacity:1"/>
<line clip-path="url(#clip582)" x1="676.306" y1="551.359" x2="644.306" y2="551.359" style="stroke:#000000; stroke-width:4; stroke-opacity:1"/>
<line clip-path="url(#clip582)" x1="676.306" y1="545.141" x2="644.306" y2="545.141" style="stroke:#000000; stroke-width:4; stroke-opacity:1"/>
<line clip-path="url(#clip582)" x1="698.663" y1="620" x2="666.663" y2="620" style="stroke:#000000; stroke-width:4; stroke-opacity:1"/>
<line clip-path="url(#clip582)" x1="698.663" y1="576.225" x2="666.663" y2="576.225" style="stroke:#000000; stroke-width:4; stroke-opacity:1"/>
<line clip-path="url(#clip582)" x1="721.02" y1="654.645" x2="689.02" y2="654.645" style="stroke:#000000; stroke-width:4; stroke-opacity:1"/>
<line clip-path="url(#clip582)" x1="721.02" y1="644.917" x2="689.02" y2="644.917" style="stroke:#000000; stroke-width:4; stroke-opacity:1"/>
<line clip-path="url(#clip582)" x1="743.378" y1="707.869" x2="711.378" y2="707.869" style="stroke:#000000; stroke-width:4; stroke-opacity:1"/>
<line clip-path="url(#clip582)" x1="743.378" y1="697.611" x2="711.378" y2="697.611" style="stroke:#000000; stroke-width:4; stroke-opacity:1"/>
<line clip-path="url(#clip582)" x1="765.735" y1="768.695" x2="733.735" y2="768.695" style="stroke:#000000; stroke-width:4; stroke-opacity:1"/>
<line clip-path="url(#clip582)" x1="765.735" y1="744.225" x2="733.735" y2="744.225" style="stroke:#000000; stroke-width:4; stroke-opacity:1"/>
<line clip-path="url(#clip582)" x1="788.092" y1="832.952" x2="756.092" y2="832.952" style="stroke:#000000; stroke-width:4; stroke-opacity:1"/>
<line clip-path="url(#clip582)" x1="788.092" y1="787.856" x2="756.092" y2="787.856" style="stroke:#000000; stroke-width:4; stroke-opacity:1"/>
<line clip-path="url(#clip582)" x1="810.45" y1="891.65" x2="778.45" y2="891.65" style="stroke:#000000; stroke-width:4; stroke-opacity:1"/>
<line clip-path="url(#clip582)" x1="810.45" y1="836.416" x2="778.45" y2="836.416" style="stroke:#000000; stroke-width:4; stroke-opacity:1"/>
<line clip-path="url(#clip582)" x1="832.807" y1="920.885" x2="800.807" y2="920.885" style="stroke:#000000; stroke-width:4; stroke-opacity:1"/>
<line clip-path="url(#clip582)" x1="832.807" y1="912.739" x2="800.807" y2="912.739" style="stroke:#000000; stroke-width:4; stroke-opacity:1"/>
<line clip-path="url(#clip582)" x1="855.164" y1="974.944" x2="823.164" y2="974.944" style="stroke:#000000; stroke-width:4; stroke-opacity:1"/>
<line clip-path="url(#clip582)" x1="855.164" y1="961.482" x2="823.164" y2="961.482" style="stroke:#000000; stroke-width:4; stroke-opacity:1"/>
<line clip-path="url(#clip582)" x1="877.522" y1="1030.99" x2="845.522" y2="1030.99" style="stroke:#000000; stroke-width:4; stroke-opacity:1"/>
<line clip-path="url(#clip582)" x1="877.522" y1="1004.46" x2="845.522" y2="1004.46" style="stroke:#000000; stroke-width:4; stroke-opacity:1"/>
<line clip-path="url(#clip582)" x1="899.879" y1="1066.37" x2="867.879" y2="1066.37" style="stroke:#000000; stroke-width:4; stroke-opacity:1"/>
<line clip-path="url(#clip582)" x1="899.879" y1="1063.32" x2="867.879" y2="1063.32" style="stroke:#000000; stroke-width:4; stroke-opacity:1"/>
<line clip-path="url(#clip582)" x1="922.236" y1="1121.78" x2="890.236" y2="1121.78" style="stroke:#000000; stroke-width:4; stroke-opacity:1"/>
<line clip-path="url(#clip582)" x1="922.236" y1="1096.44" x2="890.236" y2="1096.44" style="stroke:#000000; stroke-width:4; stroke-opacity:1"/>
<line clip-path="url(#clip582)" x1="944.594" y1="1218.1" x2="912.594" y2="1218.1" style="stroke:#000000; stroke-width:4; stroke-opacity:1"/>
<line clip-path="url(#clip582)" x1="944.594" y1="1082.05" x2="912.594" y2="1082.05" style="stroke:#000000; stroke-width:4; stroke-opacity:1"/>
<line clip-path="url(#clip582)" x1="966.951" y1="1192.06" x2="934.951" y2="1192.06" style="stroke:#000000; stroke-width:4; stroke-opacity:1"/>
<line clip-path="url(#clip582)" x1="966.951" y1="1182.61" x2="934.951" y2="1182.61" style="stroke:#000000; stroke-width:4; stroke-opacity:1"/>
<line clip-path="url(#clip582)" x1="989.308" y1="1244.62" x2="957.308" y2="1244.62" style="stroke:#000000; stroke-width:4; stroke-opacity:1"/>
<line clip-path="url(#clip582)" x1="989.308" y1="1196.41" x2="957.308" y2="1196.41" style="stroke:#000000; stroke-width:4; stroke-opacity:1"/>
<line clip-path="url(#clip582)" x1="1011.67" y1="1252.64" x2="979.666" y2="1252.64" style="stroke:#000000; stroke-width:4; stroke-opacity:1"/>
<line clip-path="url(#clip582)" x1="1011.67" y1="1245.91" x2="979.666" y2="1245.91" style="stroke:#000000; stroke-width:4; stroke-opacity:1"/>
<line clip-path="url(#clip582)" x1="1034.02" y1="1280.65" x2="1002.02" y2="1280.65" style="stroke:#000000; stroke-width:4; stroke-opacity:1"/>
<line clip-path="url(#clip582)" x1="1034.02" y1="1266.03" x2="1002.02" y2="1266.03" style="stroke:#000000; stroke-width:4; stroke-opacity:1"/>
<line clip-path="url(#clip582)" x1="1056.38" y1="1339.47" x2="1024.38" y2="1339.47" style="stroke:#000000; stroke-width:4; stroke-opacity:1"/>
<line clip-path="url(#clip582)" x1="1056.38" y1="1245.47" x2="1024.38" y2="1245.47" style="stroke:#000000; stroke-width:4; stroke-opacity:1"/>
<line clip-path="url(#clip582)" x1="1078.74" y1="1386.4" x2="1046.74" y2="1386.4" style="stroke:#000000; stroke-width:4; stroke-opacity:1"/>
<line clip-path="url(#clip582)" x1="1078.74" y1="1226.52" x2="1046.74" y2="1226.52" style="stroke:#000000; stroke-width:4; stroke-opacity:1"/>
<line clip-path="url(#clip582)" x1="1101.1" y1="1331.07" x2="1069.1" y2="1331.07" style="stroke:#000000; stroke-width:4; stroke-opacity:1"/>
<line clip-path="url(#clip582)" x1="1101.1" y1="1299.29" x2="1069.1" y2="1299.29" style="stroke:#000000; stroke-width:4; stroke-opacity:1"/>
<line clip-path="url(#clip582)" x1="1123.45" y1="1325.5" x2="1091.45" y2="1325.5" style="stroke:#000000; stroke-width:4; stroke-opacity:1"/>
<line clip-path="url(#clip582)" x1="1123.45" y1="1311.59" x2="1091.45" y2="1311.59" style="stroke:#000000; stroke-width:4; stroke-opacity:1"/>
<line clip-path="url(#clip582)" x1="1145.81" y1="1326.38" x2="1113.81" y2="1326.38" style="stroke:#000000; stroke-width:4; stroke-opacity:1"/>
<line clip-path="url(#clip582)" x1="1145.81" y1="1306.65" x2="1113.81" y2="1306.65" style="stroke:#000000; stroke-width:4; stroke-opacity:1"/>
<line clip-path="url(#clip582)" x1="1168.17" y1="1322.09" x2="1136.17" y2="1322.09" style="stroke:#000000; stroke-width:4; stroke-opacity:1"/>
<line clip-path="url(#clip582)" x1="1168.17" y1="1296.14" x2="1136.17" y2="1296.14" style="stroke:#000000; stroke-width:4; stroke-opacity:1"/>
<line clip-path="url(#clip582)" x1="1190.52" y1="1307.31" x2="1158.52" y2="1307.31" style="stroke:#000000; stroke-width:4; stroke-opacity:1"/>
<line clip-path="url(#clip582)" x1="1190.52" y1="1285.52" x2="1158.52" y2="1285.52" style="stroke:#000000; stroke-width:4; stroke-opacity:1"/>
<line clip-path="url(#clip582)" x1="1212.88" y1="1298.14" x2="1180.88" y2="1298.14" style="stroke:#000000; stroke-width:4; stroke-opacity:1"/>
<line clip-path="url(#clip582)" x1="1212.88" y1="1258.96" x2="1180.88" y2="1258.96" style="stroke:#000000; stroke-width:4; stroke-opacity:1"/>
<line clip-path="url(#clip582)" x1="1235.24" y1="1276.08" x2="1203.24" y2="1276.08" style="stroke:#000000; stroke-width:4; stroke-opacity:1"/>
<line clip-path="url(#clip582)" x1="1235.24" y1="1235.3" x2="1203.24" y2="1235.3" style="stroke:#000000; stroke-width:4; stroke-opacity:1"/>
<line clip-path="url(#clip582)" x1="1257.6" y1="1263.01" x2="1225.6" y2="1263.01" style="stroke:#000000; stroke-width:4; stroke-opacity:1"/>
<line clip-path="url(#clip582)" x1="1257.6" y1="1193.12" x2="1225.6" y2="1193.12" style="stroke:#000000; stroke-width:4; stroke-opacity:1"/>
<line clip-path="url(#clip582)" x1="1279.95" y1="1200.74" x2="1247.95" y2="1200.74" style="stroke:#000000; stroke-width:4; stroke-opacity:1"/>
<line clip-path="url(#clip582)" x1="1279.95" y1="1191.16" x2="1247.95" y2="1191.16" style="stroke:#000000; stroke-width:4; stroke-opacity:1"/>
<line clip-path="url(#clip582)" x1="1302.31" y1="1200.9" x2="1270.31" y2="1200.9" style="stroke:#000000; stroke-width:4; stroke-opacity:1"/>
<line clip-path="url(#clip582)" x1="1302.31" y1="1118.44" x2="1270.31" y2="1118.44" style="stroke:#000000; stroke-width:4; stroke-opacity:1"/>
<line clip-path="url(#clip582)" x1="1324.67" y1="1122.48" x2="1292.67" y2="1122.48" style="stroke:#000000; stroke-width:4; stroke-opacity:1"/>
<line clip-path="url(#clip582)" x1="1324.67" y1="1116.69" x2="1292.67" y2="1116.69" style="stroke:#000000; stroke-width:4; stroke-opacity:1"/>
<line clip-path="url(#clip582)" x1="1347.03" y1="1171.12" x2="1315.03" y2="1171.12" style="stroke:#000000; stroke-width:4; stroke-opacity:1"/>
<line clip-path="url(#clip582)" x1="1347.03" y1="981.073" x2="1315.03" y2="981.073" style="stroke:#000000; stroke-width:4; stroke-opacity:1"/>
<line clip-path="url(#clip582)" x1="1369.38" y1="1039.03" x2="1337.38" y2="1039.03" style="stroke:#000000; stroke-width:4; stroke-opacity:1"/>
<line clip-path="url(#clip582)" x1="1369.38" y1="1020.25" x2="1337.38" y2="1020.25" style="stroke:#000000; stroke-width:4; stroke-opacity:1"/>
<line clip-path="url(#clip582)" x1="1391.74" y1="1215.2" x2="1359.74" y2="1215.2" style="stroke:#000000; stroke-width:4; stroke-opacity:1"/>
<line clip-path="url(#clip582)" x1="1391.74" y1="746.154" x2="1359.74" y2="746.154" style="stroke:#000000; stroke-width:4; stroke-opacity:1"/>
<line clip-path="url(#clip582)" x1="1414.1" y1="950.32" x2="1382.1" y2="950.32" style="stroke:#000000; stroke-width:4; stroke-opacity:1"/>
<line clip-path="url(#clip582)" x1="1414.1" y1="909.074" x2="1382.1" y2="909.074" style="stroke:#000000; stroke-width:4; stroke-opacity:1"/>
<line clip-path="url(#clip582)" x1="1436.46" y1="919.157" x2="1404.46" y2="919.157" style="stroke:#000000; stroke-width:4; stroke-opacity:1"/>
<line clip-path="url(#clip582)" x1="1436.46" y1="835.264" x2="1404.46" y2="835.264" style="stroke:#000000; stroke-width:4; stroke-opacity:1"/>
<line clip-path="url(#clip582)" x1="1458.81" y1="848.16" x2="1426.81" y2="848.16" style="stroke:#000000; stroke-width:4; stroke-opacity:1"/>
<line clip-path="url(#clip582)" x1="1458.81" y1="799.324" x2="1426.81" y2="799.324" style="stroke:#000000; stroke-width:4; stroke-opacity:1"/>
<line clip-path="url(#clip582)" x1="1481.17" y1="802.257" x2="1449.17" y2="802.257" style="stroke:#000000; stroke-width:4; stroke-opacity:1"/>
<line clip-path="url(#clip582)" x1="1481.17" y1="737.395" x2="1449.17" y2="737.395" style="stroke:#000000; stroke-width:4; stroke-opacity:1"/>
<line clip-path="url(#clip582)" x1="1503.53" y1="719.966" x2="1471.53" y2="719.966" style="stroke:#000000; stroke-width:4; stroke-opacity:1"/>
<line clip-path="url(#clip582)" x1="1503.53" y1="712.034" x2="1471.53" y2="712.034" style="stroke:#000000; stroke-width:4; stroke-opacity:1"/>
<line clip-path="url(#clip582)" x1="1525.88" y1="683.77" x2="1493.88" y2="683.77" style="stroke:#000000; stroke-width:4; stroke-opacity:1"/>
<line clip-path="url(#clip582)" x1="1525.88" y1="641.837" x2="1493.88" y2="641.837" style="stroke:#000000; stroke-width:4; stroke-opacity:1"/>
<line clip-path="url(#clip582)" x1="1548.24" y1="644.793" x2="1516.24" y2="644.793" style="stroke:#000000; stroke-width:4; stroke-opacity:1"/>
<line clip-path="url(#clip582)" x1="1548.24" y1="576.739" x2="1516.24" y2="576.739" style="stroke:#000000; stroke-width:4; stroke-opacity:1"/>
<line clip-path="url(#clip582)" x1="1570.6" y1="567.422" x2="1538.6" y2="567.422" style="stroke:#000000; stroke-width:4; stroke-opacity:1"/>
<line clip-path="url(#clip582)" x1="1570.6" y1="553.396" x2="1538.6" y2="553.396" style="stroke:#000000; stroke-width:4; stroke-opacity:1"/>
<line clip-path="url(#clip582)" x1="1592.96" y1="517.878" x2="1560.96" y2="517.878" style="stroke:#000000; stroke-width:4; stroke-opacity:1"/>
<line clip-path="url(#clip582)" x1="1592.96" y1="506.591" x2="1560.96" y2="506.591" style="stroke:#000000; stroke-width:4; stroke-opacity:1"/>
<line clip-path="url(#clip582)" x1="1615.31" y1="469.55" x2="1583.31" y2="469.55" style="stroke:#000000; stroke-width:4; stroke-opacity:1"/>
<line clip-path="url(#clip582)" x1="1615.31" y1="463.9" x2="1583.31" y2="463.9" style="stroke:#000000; stroke-width:4; stroke-opacity:1"/>
<line clip-path="url(#clip582)" x1="1637.67" y1="493.384" x2="1605.67" y2="493.384" style="stroke:#000000; stroke-width:4; stroke-opacity:1"/>
<line clip-path="url(#clip582)" x1="1637.67" y1="355.284" x2="1605.67" y2="355.284" style="stroke:#000000; stroke-width:4; stroke-opacity:1"/>
<line clip-path="url(#clip582)" x1="1660.03" y1="398.899" x2="1628.03" y2="398.899" style="stroke:#000000; stroke-width:4; stroke-opacity:1"/>
<line clip-path="url(#clip582)" x1="1660.03" y1="372.074" x2="1628.03" y2="372.074" style="stroke:#000000; stroke-width:4; stroke-opacity:1"/>
<line clip-path="url(#clip582)" x1="1682.39" y1="364.957" x2="1650.39" y2="364.957" style="stroke:#000000; stroke-width:4; stroke-opacity:1"/>
<line clip-path="url(#clip582)" x1="1682.39" y1="336.183" x2="1650.39" y2="336.183" style="stroke:#000000; stroke-width:4; stroke-opacity:1"/>
<line clip-path="url(#clip582)" x1="1704.74" y1="327.502" x2="1672.74" y2="327.502" style="stroke:#000000; stroke-width:4; stroke-opacity:1"/>
<line clip-path="url(#clip582)" x1="1704.74" y1="312.362" x2="1672.74" y2="312.362" style="stroke:#000000; stroke-width:4; stroke-opacity:1"/>
<line clip-path="url(#clip582)" x1="1727.1" y1="341.132" x2="1695.1" y2="341.132" style="stroke:#000000; stroke-width:4; stroke-opacity:1"/>
<line clip-path="url(#clip582)" x1="1727.1" y1="246.63" x2="1695.1" y2="246.63" style="stroke:#000000; stroke-width:4; stroke-opacity:1"/>
<line clip-path="url(#clip582)" x1="1749.46" y1="285.39" x2="1717.46" y2="285.39" style="stroke:#000000; stroke-width:4; stroke-opacity:1"/>
<line clip-path="url(#clip582)" x1="1749.46" y1="259.962" x2="1717.46" y2="259.962" style="stroke:#000000; stroke-width:4; stroke-opacity:1"/>
<line clip-path="url(#clip582)" x1="1771.82" y1="268.069" x2="1739.82" y2="268.069" style="stroke:#000000; stroke-width:4; stroke-opacity:1"/>
<line clip-path="url(#clip582)" x1="1771.82" y1="244.988" x2="1739.82" y2="244.988" style="stroke:#000000; stroke-width:4; stroke-opacity:1"/>
<line clip-path="url(#clip582)" x1="1794.17" y1="257.36" x2="1762.17" y2="257.36" style="stroke:#000000; stroke-width:4; stroke-opacity:1"/>
<line clip-path="url(#clip582)" x1="1794.17" y1="233.841" x2="1762.17" y2="233.841" style="stroke:#000000; stroke-width:4; stroke-opacity:1"/>
<line clip-path="url(#clip582)" x1="1816.53" y1="255.568" x2="1784.53" y2="255.568" style="stroke:#000000; stroke-width:4; stroke-opacity:1"/>
<line clip-path="url(#clip582)" x1="1816.53" y1="224.435" x2="1784.53" y2="224.435" style="stroke:#000000; stroke-width:4; stroke-opacity:1"/>
<line clip-path="url(#clip582)" x1="1838.89" y1="257.338" x2="1806.89" y2="257.338" style="stroke:#000000; stroke-width:4; stroke-opacity:1"/>
<line clip-path="url(#clip582)" x1="1838.89" y1="222.235" x2="1806.89" y2="222.235" style="stroke:#000000; stroke-width:4; stroke-opacity:1"/>
<line clip-path="url(#clip582)" x1="1861.24" y1="268.303" x2="1829.24" y2="268.303" style="stroke:#000000; stroke-width:4; stroke-opacity:1"/>
<line clip-path="url(#clip582)" x1="1861.24" y1="221.614" x2="1829.24" y2="221.614" style="stroke:#000000; stroke-width:4; stroke-opacity:1"/>
<line clip-path="url(#clip582)" x1="1883.6" y1="350.674" x2="1851.6" y2="350.674" style="stroke:#000000; stroke-width:4; stroke-opacity:1"/>
<line clip-path="url(#clip582)" x1="1883.6" y1="160.256" x2="1851.6" y2="160.256" style="stroke:#000000; stroke-width:4; stroke-opacity:1"/>
<line clip-path="url(#clip582)" x1="1905.96" y1="287.061" x2="1873.96" y2="287.061" style="stroke:#000000; stroke-width:4; stroke-opacity:1"/>
<line clip-path="url(#clip582)" x1="1905.96" y1="255.343" x2="1873.96" y2="255.343" style="stroke:#000000; stroke-width:4; stroke-opacity:1"/>
<line clip-path="url(#clip582)" x1="1928.32" y1="338.342" x2="1896.32" y2="338.342" style="stroke:#000000; stroke-width:4; stroke-opacity:1"/>
<line clip-path="url(#clip582)" x1="1928.32" y1="245.681" x2="1896.32" y2="245.681" style="stroke:#000000; stroke-width:4; stroke-opacity:1"/>
<line clip-path="url(#clip582)" x1="1950.67" y1="329.239" x2="1918.67" y2="329.239" style="stroke:#000000; stroke-width:4; stroke-opacity:1"/>
<line clip-path="url(#clip582)" x1="1950.67" y1="306.133" x2="1918.67" y2="306.133" style="stroke:#000000; stroke-width:4; stroke-opacity:1"/>
<line clip-path="url(#clip582)" x1="1973.03" y1="357.007" x2="1941.03" y2="357.007" style="stroke:#000000; stroke-width:4; stroke-opacity:1"/>
<line clip-path="url(#clip582)" x1="1973.03" y1="338.931" x2="1941.03" y2="338.931" style="stroke:#000000; stroke-width:4; stroke-opacity:1"/>
<line clip-path="url(#clip582)" x1="1995.39" y1="384.665" x2="1963.39" y2="384.665" style="stroke:#000000; stroke-width:4; stroke-opacity:1"/>
<line clip-path="url(#clip582)" x1="1995.39" y1="380.45" x2="1963.39" y2="380.45" style="stroke:#000000; stroke-width:4; stroke-opacity:1"/>
<line clip-path="url(#clip582)" x1="2017.75" y1="443.268" x2="1985.75" y2="443.268" style="stroke:#000000; stroke-width:4; stroke-opacity:1"/>
<line clip-path="url(#clip582)" x1="2017.75" y1="398.944" x2="1985.75" y2="398.944" style="stroke:#000000; stroke-width:4; stroke-opacity:1"/>
<line clip-path="url(#clip582)" x1="2040.1" y1="517.511" x2="2008.1" y2="517.511" style="stroke:#000000; stroke-width:4; stroke-opacity:1"/>
<line clip-path="url(#clip582)" x1="2040.1" y1="408.947" x2="2008.1" y2="408.947" style="stroke:#000000; stroke-width:4; stroke-opacity:1"/>
<line clip-path="url(#clip582)" x1="2062.46" y1="522.066" x2="2030.46" y2="522.066" style="stroke:#000000; stroke-width:4; stroke-opacity:1"/>
<line clip-path="url(#clip582)" x1="2062.46" y1="494.947" x2="2030.46" y2="494.947" style="stroke:#000000; stroke-width:4; stroke-opacity:1"/>
<line clip-path="url(#clip582)" x1="2084.82" y1="636.445" x2="2052.82" y2="636.445" style="stroke:#000000; stroke-width:4; stroke-opacity:1"/>
<line clip-path="url(#clip582)" x1="2084.82" y1="476.527" x2="2052.82" y2="476.527" style="stroke:#000000; stroke-width:4; stroke-opacity:1"/>
<line clip-path="url(#clip582)" x1="2107.18" y1="721.37" x2="2075.18" y2="721.37" style="stroke:#000000; stroke-width:4; stroke-opacity:1"/>
<line clip-path="url(#clip582)" x1="2107.18" y1="492.006" x2="2075.18" y2="492.006" style="stroke:#000000; stroke-width:4; stroke-opacity:1"/>
<line clip-path="url(#clip582)" x1="2129.53" y1="693.821" x2="2097.53" y2="693.821" style="stroke:#000000; stroke-width:4; stroke-opacity:1"/>
<line clip-path="url(#clip582)" x1="2129.53" y1="623.398" x2="2097.53" y2="623.398" style="stroke:#000000; stroke-width:4; stroke-opacity:1"/>
<line clip-path="url(#clip582)" x1="2151.89" y1="720.741" x2="2119.89" y2="720.741" style="stroke:#000000; stroke-width:4; stroke-opacity:1"/>
<line clip-path="url(#clip582)" x1="2151.89" y1="702.727" x2="2119.89" y2="702.727" style="stroke:#000000; stroke-width:4; stroke-opacity:1"/>
<line clip-path="url(#clip582)" x1="2174.25" y1="819.963" x2="2142.25" y2="819.963" style="stroke:#000000; stroke-width:4; stroke-opacity:1"/>
<line clip-path="url(#clip582)" x1="2174.25" y1="711.096" x2="2142.25" y2="711.096" style="stroke:#000000; stroke-width:4; stroke-opacity:1"/>
<line clip-path="url(#clip582)" x1="2196.6" y1="853.996" x2="2164.6" y2="853.996" style="stroke:#000000; stroke-width:4; stroke-opacity:1"/>
<line clip-path="url(#clip582)" x1="2196.6" y1="784.921" x2="2164.6" y2="784.921" style="stroke:#000000; stroke-width:4; stroke-opacity:1"/>
<line clip-path="url(#clip582)" x1="2218.96" y1="891.737" x2="2186.96" y2="891.737" style="stroke:#000000; stroke-width:4; stroke-opacity:1"/>
<line clip-path="url(#clip582)" x1="2218.96" y1="854.227" x2="2186.96" y2="854.227" style="stroke:#000000; stroke-width:4; stroke-opacity:1"/>
<line clip-path="url(#clip582)" x1="2241.32" y1="980.122" x2="2209.32" y2="980.122" style="stroke:#000000; stroke-width:4; stroke-opacity:1"/>
<line clip-path="url(#clip582)" x1="2241.32" y1="871.009" x2="2209.32" y2="871.009" style="stroke:#000000; stroke-width:4; stroke-opacity:1"/>
<line clip-path="url(#clip582)" x1="2263.68" y1="978.863" x2="2231.68" y2="978.863" style="stroke:#000000; stroke-width:4; stroke-opacity:1"/>
<line clip-path="url(#clip582)" x1="2263.68" y1="974.504" x2="2231.68" y2="974.504" style="stroke:#000000; stroke-width:4; stroke-opacity:1"/>
<line clip-path="url(#clip582)" x1="2286.03" y1="1063.02" x2="2254.03" y2="1063.02" style="stroke:#000000; stroke-width:4; stroke-opacity:1"/>
<line clip-path="url(#clip582)" x1="2286.03" y1="988.628" x2="2254.03" y2="988.628" style="stroke:#000000; stroke-width:4; stroke-opacity:1"/>
<line clip-path="url(#clip582)" x1="2308.39" y1="1078.58" x2="2276.39" y2="1078.58" style="stroke:#000000; stroke-width:4; stroke-opacity:1"/>
<line clip-path="url(#clip582)" x1="2308.39" y1="1066.42" x2="2276.39" y2="1066.42" style="stroke:#000000; stroke-width:4; stroke-opacity:1"/>
</svg>
