<?xml version="1.0" encoding="utf-8"?>
<svg xmlns="http://www.w3.org/2000/svg" xmlns:xlink="http://www.w3.org/1999/xlink" width="600" height="400" viewBox="0 0 2400 1600">
<defs>
  <clipPath id="clip220">
    <rect x="0" y="0" width="2400" height="1600"/>
  </clipPath>
</defs>
<path clip-path="url(#clip220)" d="M0 1600 L2400 1600 L2400 0 L0 0  Z" fill="#ffffff" fill-rule="evenodd" fill-opacity="1"/>
<defs>
  <clipPath id="clip221">
    <rect x="480" y="0" width="1681" height="1600"/>
  </clipPath>
</defs>
<defs>
  <clipPath id="clip222">
    <rect x="202" y="47" width="2152" height="1377"/>
  </clipPath>
</defs>
<path clip-path="url(#clip222)" d="M-1176.77 2353.21 L-1176.77 897.351 L-325.094 169.419 L1150.05 589.691 L1150.05 2045.55 L298.376 2773.49 L-1176.77 2353.21  Z" fill="#ffffff" fill-rule="evenodd" fill-opacity="1"/>
<polyline clip-path="url(#clip222)" style="stroke:#000000; stroke-linecap:round; stroke-linejoin:round; stroke-width:2; stroke-opacity:0.1; fill:none" points="813.455,1174.56 1210.65,830.579 1210.65,142.611 "/>
<polyline clip-path="url(#clip222)" style="stroke:#000000; stroke-linecap:round; stroke-linejoin:round; stroke-width:2; stroke-opacity:0.1; fill:none" points="960.97,1217.15 1358.17,873.163 1358.17,185.195 "/>
<polyline clip-path="url(#clip222)" style="stroke:#000000; stroke-linecap:round; stroke-linejoin:round; stroke-width:2; stroke-opacity:0.1; fill:none" points="1108.48,1259.73 1505.68,915.746 1505.68,227.778 "/>
<polyline clip-path="url(#clip222)" style="stroke:#000000; stroke-linecap:round; stroke-linejoin:round; stroke-width:2; stroke-opacity:0.1; fill:none" points="1256,1302.31 1653.2,958.33 1653.2,270.362 "/>
<polyline clip-path="url(#clip222)" style="stroke:#000000; stroke-linecap:round; stroke-linejoin:round; stroke-width:2; stroke-opacity:0.1; fill:none" points="1403.51,1344.9 1800.71,1000.91 1800.71,312.946 "/>
<polyline clip-path="url(#clip222)" style="stroke:#000000; stroke-linecap:round; stroke-linejoin:round; stroke-width:2; stroke-opacity:0.1; fill:none" points="1493,1289.76 805.028,1091.16 805.028,403.195 "/>
<polyline clip-path="url(#clip222)" style="stroke:#000000; stroke-linecap:round; stroke-linejoin:round; stroke-width:2; stroke-opacity:0.1; fill:none" points="1577.05,1216.97 889.082,1018.37 889.082,330.402 "/>
<polyline clip-path="url(#clip222)" style="stroke:#000000; stroke-linecap:round; stroke-linejoin:round; stroke-width:2; stroke-opacity:0.1; fill:none" points="1661.1,1144.18 973.136,945.577 973.136,257.609 "/>
<polyline clip-path="url(#clip222)" style="stroke:#000000; stroke-linecap:round; stroke-linejoin:round; stroke-width:2; stroke-opacity:0.1; fill:none" points="1745.16,1071.38 1057.19,872.784 1057.19,184.816 "/>
<polyline clip-path="url(#clip222)" style="stroke:#000000; stroke-linecap:round; stroke-linejoin:round; stroke-width:2; stroke-opacity:0.1; fill:none" points="734.909,1137.35 1132.11,793.371 1820.07,991.97 "/>
<polyline clip-path="url(#clip222)" style="stroke:#000000; stroke-linecap:round; stroke-linejoin:round; stroke-width:2; stroke-opacity:0.1; fill:none" points="734.909,941.446 1132.11,597.462 1820.07,796.061 "/>
<polyline clip-path="url(#clip222)" style="stroke:#000000; stroke-linecap:round; stroke-linejoin:round; stroke-width:2; stroke-opacity:0.1; fill:none" points="734.909,745.536 1132.11,401.552 1820.07,600.152 "/>
<polyline clip-path="url(#clip222)" style="stroke:#000000; stroke-linecap:round; stroke-linejoin:round; stroke-width:2; stroke-opacity:0.1; fill:none" points="734.909,549.627 1132.11,205.643 1820.07,404.242 "/>
<polyline clip-path="url(#clip220)" style="stroke:#000000; stroke-linecap:round; stroke-linejoin:round; stroke-width:4; stroke-opacity:1; fill:none" points="734.909,1151.89 1422.88,1350.49 "/>
<polyline clip-path="url(#clip220)" style="stroke:#000000; stroke-linecap:round; stroke-linejoin:round; stroke-width:4; stroke-opacity:1; fill:none" points="813.455,1174.56 818.222,1170.43 "/>
<polyline clip-path="url(#clip220)" style="stroke:#000000; stroke-linecap:round; stroke-linejoin:round; stroke-width:4; stroke-opacity:1; fill:none" points="960.97,1217.15 965.736,1213.02 "/>
<polyline clip-path="url(#clip220)" style="stroke:#000000; stroke-linecap:round; stroke-linejoin:round; stroke-width:4; stroke-opacity:1; fill:none" points="1108.48,1259.73 1113.25,1255.6 "/>
<polyline clip-path="url(#clip220)" style="stroke:#000000; stroke-linecap:round; stroke-linejoin:round; stroke-width:4; stroke-opacity:1; fill:none" points="1256,1302.31 1260.77,1298.19 "/>
<polyline clip-path="url(#clip220)" style="stroke:#000000; stroke-linecap:round; stroke-linejoin:round; stroke-width:4; stroke-opacity:1; fill:none" points="1403.51,1344.9 1408.28,1340.77 "/>
<path clip-path="url(#clip220)" d="M749.986 1188.06 Q746.375 1188.06 744.546 1191.62 Q742.741 1195.17 742.741 1202.3 Q742.741 1209.4 744.546 1212.97 Q746.375 1216.51 749.986 1216.51 Q753.62 1216.51 755.426 1212.97 Q757.254 1209.4 757.254 1202.3 Q757.254 1195.17 755.426 1191.62 Q753.62 1188.06 749.986 1188.06 M749.986 1184.36 Q755.796 1184.36 758.852 1188.96 Q761.93 1193.55 761.93 1202.3 Q761.93 1211.02 758.852 1215.63 Q755.796 1220.21 749.986 1220.21 Q744.176 1220.21 741.097 1215.63 Q738.041 1211.02 738.041 1202.3 Q738.041 1193.55 741.097 1188.96 Q744.176 1184.36 749.986 1184.36 Z" fill="#000000" fill-rule="nonzero" fill-opacity="1" /><path clip-path="url(#clip220)" d="M770.148 1213.66 L775.032 1213.66 L775.032 1219.54 L770.148 1219.54 L770.148 1213.66 Z" fill="#000000" fill-rule="nonzero" fill-opacity="1" /><path clip-path="url(#clip220)" d="M789.245 1215.61 L805.564 1215.61 L805.564 1219.54 L783.62 1219.54 L783.62 1215.61 Q786.282 1212.85 790.865 1208.22 Q795.472 1203.57 796.652 1202.23 Q798.898 1199.7 799.777 1197.97 Q800.68 1196.21 800.68 1194.52 Q800.68 1191.76 798.736 1190.03 Q796.814 1188.29 793.712 1188.29 Q791.513 1188.29 789.06 1189.05 Q786.629 1189.82 783.851 1191.37 L783.851 1186.65 Q786.675 1185.51 789.129 1184.93 Q791.583 1184.36 793.62 1184.36 Q798.99 1184.36 802.185 1187.04 Q805.379 1189.73 805.379 1194.22 Q805.379 1196.35 804.569 1198.27 Q803.782 1200.17 801.675 1202.76 Q801.097 1203.43 797.995 1206.65 Q794.893 1209.84 789.245 1215.61 Z" fill="#000000" fill-rule="nonzero" fill-opacity="1" /><path clip-path="url(#clip220)" d="M895.417 1230.64 Q891.806 1230.64 889.977 1234.21 Q888.172 1237.75 888.172 1244.88 Q888.172 1251.99 889.977 1255.55 Q891.806 1259.09 895.417 1259.09 Q899.051 1259.09 900.857 1255.55 Q902.685 1251.99 902.685 1244.88 Q902.685 1237.75 900.857 1234.21 Q899.051 1230.64 895.417 1230.64 M895.417 1226.94 Q901.227 1226.94 904.283 1231.55 Q907.361 1236.13 907.361 1244.88 Q907.361 1253.61 904.283 1258.21 Q901.227 1262.8 895.417 1262.8 Q889.607 1262.8 886.528 1258.21 Q883.473 1253.61 883.473 1244.88 Q883.473 1236.13 886.528 1231.55 Q889.607 1226.94 895.417 1226.94 Z" fill="#000000" fill-rule="nonzero" fill-opacity="1" /><path clip-path="url(#clip220)" d="M915.579 1256.24 L920.463 1256.24 L920.463 1262.12 L915.579 1262.12 L915.579 1256.24 Z" fill="#000000" fill-rule="nonzero" fill-opacity="1" /><path clip-path="url(#clip220)" d="M943.495 1231.64 L931.69 1250.09 L943.495 1250.09 L943.495 1231.64 M942.269 1227.56 L948.148 1227.56 L948.148 1250.09 L953.079 1250.09 L953.079 1253.98 L948.148 1253.98 L948.148 1262.12 L943.495 1262.12 L943.495 1253.98 L927.894 1253.98 L927.894 1249.46 L942.269 1227.56 Z" fill="#000000" fill-rule="nonzero" fill-opacity="1" /><path clip-path="url(#clip220)" d="M1043.26 1273.23 Q1039.64 1273.23 1037.82 1276.79 Q1036.01 1280.33 1036.01 1287.46 Q1036.01 1294.57 1037.82 1298.13 Q1039.64 1301.68 1043.26 1301.68 Q1046.89 1301.68 1048.7 1298.13 Q1050.52 1294.57 1050.52 1287.46 Q1050.52 1280.33 1048.7 1276.79 Q1046.89 1273.23 1043.26 1273.23 M1043.26 1269.52 Q1049.07 1269.52 1052.12 1274.13 Q1055.2 1278.71 1055.2 1287.46 Q1055.2 1296.19 1052.12 1300.8 Q1049.07 1305.38 1043.26 1305.38 Q1037.45 1305.38 1034.37 1300.8 Q1031.31 1296.19 1031.31 1287.46 Q1031.31 1278.71 1034.37 1274.13 Q1037.45 1269.52 1043.26 1269.52 Z" fill="#000000" fill-rule="nonzero" fill-opacity="1" /><path clip-path="url(#clip220)" d="M1063.42 1298.83 L1068.3 1298.83 L1068.3 1304.71 L1063.42 1304.71 L1063.42 1298.83 Z" fill="#000000" fill-rule="nonzero" fill-opacity="1" /><path clip-path="url(#clip220)" d="M1089.07 1285.56 Q1085.92 1285.56 1084.07 1287.72 Q1082.24 1289.87 1082.24 1293.62 Q1082.24 1297.35 1084.07 1299.52 Q1085.92 1301.68 1089.07 1301.68 Q1092.21 1301.68 1094.04 1299.52 Q1095.89 1297.35 1095.89 1293.62 Q1095.89 1289.87 1094.04 1287.72 Q1092.21 1285.56 1089.07 1285.56 M1098.35 1270.91 L1098.35 1275.17 Q1096.59 1274.34 1094.78 1273.9 Q1093 1273.46 1091.24 1273.46 Q1086.61 1273.46 1084.16 1276.58 Q1081.73 1279.71 1081.38 1286.03 Q1082.75 1284.01 1084.81 1282.95 Q1086.87 1281.86 1089.34 1281.86 Q1094.55 1281.86 1097.56 1285.03 Q1100.59 1288.18 1100.59 1293.62 Q1100.59 1298.94 1097.44 1302.16 Q1094.3 1305.38 1089.07 1305.38 Q1083.07 1305.38 1079.9 1300.8 Q1076.73 1296.19 1076.73 1287.46 Q1076.73 1279.27 1080.62 1274.41 Q1084.51 1269.52 1091.06 1269.52 Q1092.82 1269.52 1094.6 1269.87 Q1096.4 1270.22 1098.35 1270.91 Z" fill="#000000" fill-rule="nonzero" fill-opacity="1" /><path clip-path="url(#clip220)" d="M1191.02 1315.81 Q1187.41 1315.81 1185.58 1319.38 Q1183.78 1322.92 1183.78 1330.05 Q1183.78 1337.15 1185.58 1340.72 Q1187.41 1344.26 1191.02 1344.26 Q1194.66 1344.26 1196.46 1340.72 Q1198.29 1337.15 1198.29 1330.05 Q1198.29 1322.92 1196.46 1319.38 Q1194.66 1315.81 1191.02 1315.81 M1191.02 1312.11 Q1196.83 1312.11 1199.89 1316.71 Q1202.97 1321.3 1202.97 1330.05 Q1202.97 1338.77 1199.89 1343.38 Q1196.83 1347.96 1191.02 1347.96 Q1185.21 1347.96 1182.14 1343.38 Q1179.08 1338.77 1179.08 1330.05 Q1179.08 1321.3 1182.14 1316.71 Q1185.21 1312.11 1191.02 1312.11 Z" fill="#000000" fill-rule="nonzero" fill-opacity="1" /><path clip-path="url(#clip220)" d="M1211.19 1341.41 L1216.07 1341.41 L1216.07 1347.29 L1211.19 1347.29 L1211.19 1341.41 Z" fill="#000000" fill-rule="nonzero" fill-opacity="1" /><path clip-path="url(#clip220)" d="M1236.26 1330.88 Q1232.92 1330.88 1231 1332.66 Q1229.1 1334.44 1229.1 1337.57 Q1229.1 1340.69 1231 1342.48 Q1232.92 1344.26 1236.26 1344.26 Q1239.59 1344.26 1241.51 1342.48 Q1243.43 1340.67 1243.43 1337.57 Q1243.43 1334.44 1241.51 1332.66 Q1239.61 1330.88 1236.26 1330.88 M1231.58 1328.89 Q1228.57 1328.15 1226.88 1326.09 Q1225.21 1324.03 1225.21 1321.07 Q1225.21 1316.92 1228.15 1314.51 Q1231.12 1312.11 1236.26 1312.11 Q1241.42 1312.11 1244.36 1314.51 Q1247.3 1316.92 1247.3 1321.07 Q1247.3 1324.03 1245.61 1326.09 Q1243.94 1328.15 1240.95 1328.89 Q1244.33 1329.68 1246.21 1331.97 Q1248.11 1334.26 1248.11 1337.57 Q1248.11 1342.59 1245.03 1345.28 Q1241.97 1347.96 1236.26 1347.96 Q1230.54 1347.96 1227.46 1345.28 Q1224.4 1342.59 1224.4 1337.57 Q1224.4 1334.26 1226.3 1331.97 Q1228.2 1329.68 1231.58 1328.89 M1229.87 1321.5 Q1229.87 1324.19 1231.53 1325.69 Q1233.22 1327.2 1236.26 1327.2 Q1239.26 1327.2 1240.95 1325.69 Q1242.67 1324.19 1242.67 1321.5 Q1242.67 1318.82 1240.95 1317.32 Q1239.26 1315.81 1236.26 1315.81 Q1233.22 1315.81 1231.53 1317.32 Q1229.87 1318.82 1229.87 1321.5 Z" fill="#000000" fill-rule="nonzero" fill-opacity="1" /><path clip-path="url(#clip220)" d="M1329.26 1385.94 L1336.9 1385.94 L1336.9 1359.57 L1328.59 1361.24 L1328.59 1356.98 L1336.85 1355.32 L1341.52 1355.32 L1341.52 1385.94 L1349.16 1385.94 L1349.16 1389.88 L1329.26 1389.88 L1329.26 1385.94 Z" fill="#000000" fill-rule="nonzero" fill-opacity="1" /><path clip-path="url(#clip220)" d="M1358.61 1384 L1363.49 1384 L1363.49 1389.88 L1358.61 1389.88 L1358.61 1384 Z" fill="#000000" fill-rule="nonzero" fill-opacity="1" /><path clip-path="url(#clip220)" d="M1383.68 1358.39 Q1380.07 1358.39 1378.24 1361.96 Q1376.43 1365.5 1376.43 1372.63 Q1376.43 1379.74 1378.24 1383.3 Q1380.07 1386.84 1383.68 1386.84 Q1387.31 1386.84 1389.12 1383.3 Q1390.95 1379.74 1390.95 1372.63 Q1390.95 1365.5 1389.12 1361.96 Q1387.31 1358.39 1383.68 1358.39 M1383.68 1354.69 Q1389.49 1354.69 1392.54 1359.3 Q1395.62 1363.88 1395.62 1372.63 Q1395.62 1381.36 1392.54 1385.96 Q1389.49 1390.55 1383.68 1390.55 Q1377.87 1390.55 1374.79 1385.96 Q1371.73 1381.36 1371.73 1372.63 Q1371.73 1363.88 1374.79 1359.3 Q1377.87 1354.69 1383.68 1354.69 Z" fill="#000000" fill-rule="nonzero" fill-opacity="1" /><path clip-path="url(#clip220)" d="M910.878 1381.81 L916.767 1381.81 L916.767 1411.06 L934.24 1395.68 L941.72 1395.68 L922.814 1412.36 L942.516 1431.33 L934.877 1431.33 L916.767 1413.92 L916.767 1431.33 L910.878 1431.33 L910.878 1381.81 Z" fill="#000000" fill-rule="nonzero" fill-opacity="1" /><path clip-path="url(#clip220)" d="M976.604 1402.53 Q978.8 1398.58 981.856 1396.7 Q984.911 1394.82 989.049 1394.82 Q994.619 1394.82 997.643 1398.74 Q1000.67 1402.62 1000.67 1409.82 L1000.67 1431.33 L994.778 1431.33 L994.778 1410.01 Q994.778 1404.88 992.964 1402.4 Q991.15 1399.92 987.426 1399.92 Q982.874 1399.92 980.233 1402.94 Q977.591 1405.96 977.591 1411.18 L977.591 1431.33 L971.703 1431.33 L971.703 1410.01 Q971.703 1404.85 969.888 1402.4 Q968.074 1399.92 964.287 1399.92 Q959.799 1399.92 957.157 1402.97 Q954.515 1406 954.515 1411.18 L954.515 1431.33 L948.627 1431.33 L948.627 1395.68 L954.515 1395.68 L954.515 1401.22 Q956.52 1397.94 959.321 1396.38 Q962.122 1394.82 965.974 1394.82 Q969.857 1394.82 972.562 1396.8 Q975.299 1398.77 976.604 1402.53 Z" fill="#000000" fill-rule="nonzero" fill-opacity="1" /><polyline clip-path="url(#clip220)" style="stroke:#000000; stroke-linecap:round; stroke-linejoin:round; stroke-width:4; stroke-opacity:1; fill:none" points="1422.88,1350.49 1820.07,1006.5 "/>
<polyline clip-path="url(#clip220)" style="stroke:#000000; stroke-linecap:round; stroke-linejoin:round; stroke-width:4; stroke-opacity:1; fill:none" points="1493,1289.76 1484.74,1287.38 "/>
<polyline clip-path="url(#clip220)" style="stroke:#000000; stroke-linecap:round; stroke-linejoin:round; stroke-width:4; stroke-opacity:1; fill:none" points="1577.05,1216.97 1568.79,1214.59 "/>
<polyline clip-path="url(#clip220)" style="stroke:#000000; stroke-linecap:round; stroke-linejoin:round; stroke-width:4; stroke-opacity:1; fill:none" points="1661.1,1144.18 1652.85,1141.79 "/>
<polyline clip-path="url(#clip220)" style="stroke:#000000; stroke-linecap:round; stroke-linejoin:round; stroke-width:4; stroke-opacity:1; fill:none" points="1745.16,1071.38 1736.9,1069 "/>
<path clip-path="url(#clip220)" d="M1523.65 1297.45 Q1520.04 1297.45 1518.21 1301.02 Q1516.41 1304.56 1516.41 1311.69 Q1516.41 1318.8 1518.21 1322.36 Q1520.04 1325.9 1523.65 1325.9 Q1527.29 1325.9 1529.09 1322.36 Q1530.92 1318.8 1530.92 1311.69 Q1530.92 1304.56 1529.09 1301.02 Q1527.29 1297.45 1523.65 1297.45 M1523.65 1293.75 Q1529.46 1293.75 1532.52 1298.36 Q1535.6 1302.94 1535.6 1311.69 Q1535.6 1320.42 1532.52 1325.02 Q1529.46 1329.61 1523.65 1329.61 Q1517.84 1329.61 1514.76 1325.02 Q1511.71 1320.42 1511.71 1311.69 Q1511.71 1302.94 1514.76 1298.36 Q1517.84 1293.75 1523.65 1293.75 Z" fill="#000000" fill-rule="nonzero" fill-opacity="1" /><path clip-path="url(#clip220)" d="M1543.81 1323.06 L1548.7 1323.06 L1548.7 1328.94 L1543.81 1328.94 L1543.81 1323.06 Z" fill="#000000" fill-rule="nonzero" fill-opacity="1" /><path clip-path="url(#clip220)" d="M1562.91 1325 L1579.23 1325 L1579.23 1328.94 L1557.29 1328.94 L1557.29 1325 Q1559.95 1322.25 1564.53 1317.62 Q1569.14 1312.96 1570.32 1311.62 Q1572.56 1309.1 1573.44 1307.36 Q1574.35 1305.6 1574.35 1303.91 Q1574.35 1301.16 1572.4 1299.42 Q1570.48 1297.69 1567.38 1297.69 Q1565.18 1297.69 1562.73 1298.45 Q1560.3 1299.21 1557.52 1300.76 L1557.52 1296.04 Q1560.34 1294.91 1562.8 1294.33 Q1565.25 1293.75 1567.29 1293.75 Q1572.66 1293.75 1575.85 1296.44 Q1579.05 1299.12 1579.05 1303.61 Q1579.05 1305.74 1578.23 1307.66 Q1577.45 1309.56 1575.34 1312.15 Q1574.76 1312.82 1571.66 1316.04 Q1568.56 1319.24 1562.91 1325 Z" fill="#000000" fill-rule="nonzero" fill-opacity="1" /><path clip-path="url(#clip220)" d="M1607.71 1224.66 Q1604.1 1224.66 1602.27 1228.23 Q1600.46 1231.77 1600.46 1238.9 Q1600.46 1246 1602.27 1249.57 Q1604.1 1253.11 1607.71 1253.11 Q1611.34 1253.11 1613.15 1249.57 Q1614.97 1246 1614.97 1238.9 Q1614.97 1231.77 1613.15 1228.23 Q1611.34 1224.66 1607.71 1224.66 M1607.71 1220.96 Q1613.52 1220.96 1616.57 1225.56 Q1619.65 1230.15 1619.65 1238.9 Q1619.65 1247.62 1616.57 1252.23 Q1613.52 1256.81 1607.71 1256.81 Q1601.9 1256.81 1598.82 1252.23 Q1595.76 1247.62 1595.76 1238.9 Q1595.76 1230.15 1598.82 1225.56 Q1601.9 1220.96 1607.71 1220.96 Z" fill="#000000" fill-rule="nonzero" fill-opacity="1" /><path clip-path="url(#clip220)" d="M1627.87 1250.26 L1632.75 1250.26 L1632.75 1256.14 L1627.87 1256.14 L1627.87 1250.26 Z" fill="#000000" fill-rule="nonzero" fill-opacity="1" /><path clip-path="url(#clip220)" d="M1655.78 1225.66 L1643.98 1244.11 L1655.78 1244.11 L1655.78 1225.66 M1654.56 1221.58 L1660.44 1221.58 L1660.44 1244.11 L1665.37 1244.11 L1665.37 1247.99 L1660.44 1247.99 L1660.44 1256.14 L1655.78 1256.14 L1655.78 1247.99 L1640.18 1247.99 L1640.18 1243.48 L1654.56 1221.58 Z" fill="#000000" fill-rule="nonzero" fill-opacity="1" /><path clip-path="url(#clip220)" d="M1691.76 1151.87 Q1688.15 1151.87 1686.32 1155.43 Q1684.52 1158.97 1684.52 1166.1 Q1684.52 1173.21 1686.32 1176.78 Q1688.15 1180.32 1691.76 1180.32 Q1695.39 1180.32 1697.2 1176.78 Q1699.03 1173.21 1699.03 1166.1 Q1699.03 1158.97 1697.2 1155.43 Q1695.39 1151.87 1691.76 1151.87 M1691.76 1148.16 Q1697.57 1148.16 1700.63 1152.77 Q1703.7 1157.35 1703.7 1166.1 Q1703.7 1174.83 1700.63 1179.44 Q1697.57 1184.02 1691.76 1184.02 Q1685.95 1184.02 1682.87 1179.44 Q1679.82 1174.83 1679.82 1166.1 Q1679.82 1157.35 1682.87 1152.77 Q1685.95 1148.16 1691.76 1148.16 Z" fill="#000000" fill-rule="nonzero" fill-opacity="1" /><path clip-path="url(#clip220)" d="M1711.92 1177.47 L1716.81 1177.47 L1716.81 1183.35 L1711.92 1183.35 L1711.92 1177.47 Z" fill="#000000" fill-rule="nonzero" fill-opacity="1" /><path clip-path="url(#clip220)" d="M1737.57 1164.21 Q1734.42 1164.21 1732.57 1166.36 Q1730.74 1168.51 1730.74 1172.26 Q1730.74 1175.99 1732.57 1178.16 Q1734.42 1180.32 1737.57 1180.32 Q1740.72 1180.32 1742.55 1178.16 Q1744.4 1175.99 1744.4 1172.26 Q1744.4 1168.51 1742.55 1166.36 Q1740.72 1164.21 1737.57 1164.21 M1746.85 1149.55 L1746.85 1153.81 Q1745.09 1152.98 1743.29 1152.54 Q1741.51 1152.1 1739.75 1152.1 Q1735.12 1152.1 1732.66 1155.22 Q1730.23 1158.35 1729.89 1164.67 Q1731.25 1162.65 1733.31 1161.59 Q1735.37 1160.5 1737.85 1160.5 Q1743.06 1160.5 1746.07 1163.67 Q1749.1 1166.82 1749.1 1172.26 Q1749.1 1177.59 1745.95 1180.8 Q1742.8 1184.02 1737.57 1184.02 Q1731.58 1184.02 1728.4 1179.44 Q1725.23 1174.83 1725.23 1166.1 Q1725.23 1157.91 1729.12 1153.05 Q1733.01 1148.16 1739.56 1148.16 Q1741.32 1148.16 1743.1 1148.51 Q1744.91 1148.86 1746.85 1149.55 Z" fill="#000000" fill-rule="nonzero" fill-opacity="1" /><path clip-path="url(#clip220)" d="M1775.81 1079.07 Q1772.2 1079.07 1770.38 1082.64 Q1768.57 1086.18 1768.57 1093.31 Q1768.57 1100.42 1770.38 1103.98 Q1772.2 1107.52 1775.81 1107.52 Q1779.45 1107.52 1781.25 1103.98 Q1783.08 1100.42 1783.08 1093.31 Q1783.08 1086.18 1781.25 1082.64 Q1779.45 1079.07 1775.81 1079.07 M1775.81 1075.37 Q1781.63 1075.37 1784.68 1079.98 Q1787.76 1084.56 1787.76 1093.31 Q1787.76 1102.04 1784.68 1106.64 Q1781.63 1111.23 1775.81 1111.23 Q1770 1111.23 1766.93 1106.64 Q1763.87 1102.04 1763.87 1093.31 Q1763.87 1084.56 1766.93 1079.98 Q1770 1075.37 1775.81 1075.37 Z" fill="#000000" fill-rule="nonzero" fill-opacity="1" /><path clip-path="url(#clip220)" d="M1795.98 1104.68 L1800.86 1104.68 L1800.86 1110.56 L1795.98 1110.56 L1795.98 1104.68 Z" fill="#000000" fill-rule="nonzero" fill-opacity="1" /><path clip-path="url(#clip220)" d="M1821.05 1094.14 Q1817.71 1094.14 1815.79 1095.93 Q1813.89 1097.71 1813.89 1100.83 Q1813.89 1103.96 1815.79 1105.74 Q1817.71 1107.52 1821.05 1107.52 Q1824.38 1107.52 1826.3 1105.74 Q1828.22 1103.94 1828.22 1100.83 Q1828.22 1097.71 1826.3 1095.93 Q1824.4 1094.14 1821.05 1094.14 M1816.37 1092.15 Q1813.36 1091.41 1811.67 1089.35 Q1810 1087.29 1810 1084.33 Q1810 1080.19 1812.94 1077.78 Q1815.91 1075.37 1821.05 1075.37 Q1826.21 1075.37 1829.15 1077.78 Q1832.09 1080.19 1832.09 1084.33 Q1832.09 1087.29 1830.4 1089.35 Q1828.73 1091.41 1825.75 1092.15 Q1829.12 1092.94 1831 1095.23 Q1832.9 1097.52 1832.9 1100.83 Q1832.9 1105.86 1829.82 1108.54 Q1826.76 1111.23 1821.05 1111.23 Q1815.33 1111.23 1812.25 1108.54 Q1809.19 1105.86 1809.19 1100.83 Q1809.19 1097.52 1811.09 1095.23 Q1812.99 1092.94 1816.37 1092.15 M1814.66 1084.77 Q1814.66 1087.45 1816.32 1088.96 Q1818.01 1090.46 1821.05 1090.46 Q1824.06 1090.46 1825.75 1088.96 Q1827.46 1087.45 1827.46 1084.77 Q1827.46 1082.08 1825.75 1080.58 Q1824.06 1079.07 1821.05 1079.07 Q1818.01 1079.07 1816.32 1080.58 Q1814.66 1082.08 1814.66 1084.77 Z" fill="#000000" fill-rule="nonzero" fill-opacity="1" /><path clip-path="url(#clip220)" d="M1743.35 1337.12 L1743.35 1358.64 L1737.5 1358.64 L1737.5 1337.31 Q1737.5 1332.25 1735.52 1329.74 Q1733.55 1327.22 1729.6 1327.22 Q1724.86 1327.22 1722.12 1330.25 Q1719.39 1333.27 1719.39 1338.49 L1719.39 1358.64 L1713.5 1358.64 L1713.5 1309.11 L1719.39 1309.11 L1719.39 1328.53 Q1721.49 1325.32 1724.32 1323.72 Q1727.19 1322.13 1730.91 1322.13 Q1737.05 1322.13 1740.2 1325.95 Q1743.35 1329.74 1743.35 1337.12 Z" fill="#000000" fill-rule="nonzero" fill-opacity="1" /><path clip-path="url(#clip220)" d="M1775.69 1328.47 Q1774.71 1327.89 1773.53 1327.64 Q1772.38 1327.35 1770.98 1327.35 Q1766.02 1327.35 1763.34 1330.6 Q1760.7 1333.81 1760.7 1339.86 L1760.7 1358.64 L1754.81 1358.64 L1754.81 1322.99 L1760.7 1322.99 L1760.7 1328.53 Q1762.55 1325.28 1765.51 1323.72 Q1768.47 1322.13 1772.7 1322.13 Q1773.3 1322.13 1774.04 1322.23 Q1774.77 1322.29 1775.66 1322.45 L1775.69 1328.47 Z" fill="#000000" fill-rule="nonzero" fill-opacity="1" /><polyline clip-path="url(#clip220)" style="stroke:#000000; stroke-linecap:round; stroke-linejoin:round; stroke-width:4; stroke-opacity:1; fill:none" points="734.909,1151.89 734.909,463.92 "/>
<polyline clip-path="url(#clip220)" style="stroke:#000000; stroke-linecap:round; stroke-linejoin:round; stroke-width:4; stroke-opacity:1; fill:none" points="734.909,1137.35 739.675,1133.23 "/>
<polyline clip-path="url(#clip220)" style="stroke:#000000; stroke-linecap:round; stroke-linejoin:round; stroke-width:4; stroke-opacity:1; fill:none" points="734.909,941.446 739.675,937.318 "/>
<polyline clip-path="url(#clip220)" style="stroke:#000000; stroke-linecap:round; stroke-linejoin:round; stroke-width:4; stroke-opacity:1; fill:none" points="734.909,745.536 739.675,741.409 "/>
<polyline clip-path="url(#clip220)" style="stroke:#000000; stroke-linecap:round; stroke-linejoin:round; stroke-width:4; stroke-opacity:1; fill:none" points="734.909,549.627 739.675,545.499 "/>
<path clip-path="url(#clip220)" d="M694.164 1123.15 Q690.553 1123.15 688.724 1126.72 Q686.919 1130.26 686.919 1137.39 Q686.919 1144.5 688.724 1148.06 Q690.553 1151.6 694.164 1151.6 Q697.798 1151.6 699.604 1148.06 Q701.433 1144.5 701.433 1137.39 Q701.433 1130.26 699.604 1126.72 Q697.798 1123.15 694.164 1123.15 M694.164 1119.45 Q699.974 1119.45 703.03 1124.06 Q706.109 1128.64 706.109 1137.39 Q706.109 1146.12 703.03 1150.72 Q699.974 1155.31 694.164 1155.31 Q688.354 1155.31 685.275 1150.72 Q682.22 1146.12 682.22 1137.39 Q682.22 1128.64 685.275 1124.06 Q688.354 1119.45 694.164 1119.45 Z" fill="#000000" fill-rule="nonzero" fill-opacity="1" /><path clip-path="url(#clip220)" d="M685.206 924.166 L703.562 924.166 L703.562 928.101 L689.488 928.101 L689.488 936.573 Q690.507 936.226 691.525 936.064 Q692.544 935.879 693.562 935.879 Q699.349 935.879 702.729 939.05 Q706.109 942.221 706.109 947.638 Q706.109 953.216 702.636 956.318 Q699.164 959.397 692.845 959.397 Q690.669 959.397 688.4 959.027 Q686.155 958.656 683.748 957.915 L683.748 953.216 Q685.831 954.351 688.053 954.906 Q690.275 955.462 692.752 955.462 Q696.757 955.462 699.095 953.355 Q701.433 951.249 701.433 947.638 Q701.433 944.027 699.095 941.92 Q696.757 939.814 692.752 939.814 Q690.877 939.814 689.002 940.23 Q687.15 940.647 685.206 941.527 L685.206 924.166 Z" fill="#000000" fill-rule="nonzero" fill-opacity="1" /><path clip-path="url(#clip220)" d="M654.813 758.881 L662.451 758.881 L662.451 732.516 L654.141 734.182 L654.141 729.923 L662.405 728.256 L667.081 728.256 L667.081 758.881 L674.72 758.881 L674.72 762.816 L654.813 762.816 L654.813 758.881 Z" fill="#000000" fill-rule="nonzero" fill-opacity="1" /><path clip-path="url(#clip220)" d="M694.164 731.335 Q690.553 731.335 688.724 734.9 Q686.919 738.441 686.919 745.571 Q686.919 752.677 688.724 756.242 Q690.553 759.784 694.164 759.784 Q697.798 759.784 699.604 756.242 Q701.433 752.677 701.433 745.571 Q701.433 738.441 699.604 734.9 Q697.798 731.335 694.164 731.335 M694.164 727.631 Q699.974 727.631 703.03 732.238 Q706.109 736.821 706.109 745.571 Q706.109 754.298 703.03 758.904 Q699.974 763.488 694.164 763.488 Q688.354 763.488 685.275 758.904 Q682.22 754.298 682.22 745.571 Q682.22 736.821 685.275 732.238 Q688.354 727.631 694.164 727.631 Z" fill="#000000" fill-rule="nonzero" fill-opacity="1" /><path clip-path="url(#clip220)" d="M655.808 562.972 L663.447 562.972 L663.447 536.606 L655.137 538.273 L655.137 534.014 L663.4 532.347 L668.076 532.347 L668.076 562.972 L675.715 562.972 L675.715 566.907 L655.808 566.907 L655.808 562.972 Z" fill="#000000" fill-rule="nonzero" fill-opacity="1" /><path clip-path="url(#clip220)" d="M685.206 532.347 L703.562 532.347 L703.562 536.282 L689.488 536.282 L689.488 544.754 Q690.507 544.407 691.525 544.245 Q692.544 544.06 693.562 544.06 Q699.349 544.06 702.729 547.231 Q706.109 550.402 706.109 555.819 Q706.109 561.398 702.636 564.5 Q699.164 567.578 692.845 567.578 Q690.669 567.578 688.4 567.208 Q686.155 566.838 683.748 566.097 L683.748 561.398 Q685.831 562.532 688.053 563.088 Q690.275 563.643 692.752 563.643 Q696.757 563.643 699.095 561.537 Q701.433 559.43 701.433 555.819 Q701.433 552.208 699.095 550.102 Q696.757 547.995 692.752 547.995 Q690.877 547.995 689.002 548.412 Q687.15 548.828 685.206 549.708 L685.206 532.347 Z" fill="#000000" fill-rule="nonzero" fill-opacity="1" /><path clip-path="url(#clip220)" d="M547.16 956.782 L547.16 950.894 L576.41 950.894 L561.037 933.42 L561.037 925.94 L577.715 944.847 L596.685 925.145 L596.685 932.784 L579.275 950.894 L596.685 950.894 L596.685 956.782 L547.16 956.782 Z" fill="#000000" fill-rule="nonzero" fill-opacity="1" /><path clip-path="url(#clip220)" d="M567.88 891.056 Q563.934 888.86 562.056 885.805 Q560.178 882.749 560.178 878.611 Q560.178 873.041 564.093 870.018 Q567.976 866.994 575.169 866.994 L596.685 866.994 L596.685 872.882 L575.36 872.882 Q570.236 872.882 567.753 874.697 Q565.27 876.511 565.27 880.235 Q565.27 884.786 568.294 887.428 Q571.318 890.07 576.538 890.07 L596.685 890.07 L596.685 895.958 L575.36 895.958 Q570.204 895.958 567.753 897.772 Q565.27 899.586 565.27 903.374 Q565.27 907.862 568.326 910.504 Q571.35 913.145 576.538 913.145 L596.685 913.145 L596.685 919.034 L561.037 919.034 L561.037 913.145 L566.575 913.145 Q563.297 911.14 561.737 908.339 Q560.178 905.538 560.178 901.687 Q560.178 897.804 562.151 895.099 Q564.125 892.361 567.88 891.056 Z" fill="#000000" fill-rule="nonzero" fill-opacity="1" /><path clip-path="url(#clip220)" d="M575.169 804.96 L596.685 804.96 L596.685 810.817 L575.36 810.817 Q570.299 810.817 567.785 812.79 Q565.27 814.763 565.27 818.71 Q565.27 823.453 568.294 826.19 Q571.318 828.927 576.538 828.927 L596.685 828.927 L596.685 834.815 L547.16 834.815 L547.16 828.927 L566.575 828.927 Q563.361 826.826 561.769 823.994 Q560.178 821.129 560.178 817.405 Q560.178 811.262 563.997 808.111 Q567.785 804.96 575.169 804.96 Z" fill="#000000" fill-rule="nonzero" fill-opacity="1" /><path clip-path="url(#clip220)" d="M566.512 772.622 Q565.939 773.609 565.684 774.787 Q565.398 775.933 565.398 777.333 Q565.398 782.298 568.644 784.972 Q571.859 787.614 577.906 787.614 L596.685 787.614 L596.685 793.502 L561.037 793.502 L561.037 787.614 L566.575 787.614 Q563.329 785.768 561.769 782.808 Q560.178 779.847 560.178 775.614 Q560.178 775.01 560.273 774.277 Q560.337 773.545 560.496 772.654 L566.512 772.622 Z" fill="#000000" fill-rule="nonzero" fill-opacity="1" /><path clip-path="url(#clip220)" d="M549.165 742.194 L566.894 724.911 L566.894 731.309 L554.321 745.314 L566.894 759.318 L566.894 765.716 L549.165 748.433 L549.165 742.194 Z" fill="#000000" fill-rule="nonzero" fill-opacity="1" /><path clip-path="url(#clip220)" d="M576.219 714.822 L576.219 697.666 L581.439 697.666 L581.439 714.822 L576.219 714.822 Z" fill="#000000" fill-rule="nonzero" fill-opacity="1" /><path clip-path="url(#clip220)" d="M591.274 686.399 L591.274 675.895 L555.022 675.895 L557.313 687.322 L551.457 687.322 L549.165 675.959 L549.165 669.53 L591.274 669.53 L591.274 659.026 L596.685 659.026 L596.685 686.399 L591.274 686.399 Z" fill="#000000" fill-rule="nonzero" fill-opacity="1" /><polyline clip-path="url(#clip222)" style="stroke:#009af9; stroke-linecap:round; stroke-linejoin:round; stroke-width:4; stroke-opacity:1; fill:none" points="1263.95,933.752 1414.65,666.634 1641.03,1021.12 1336.29,1055.18 1479.29,1083.97 1140.34,803.79 937.098,1062.28 1000.78,1049.39 1478.06,1004.5 1046.43,1057.91 "/>
<path clip-path="url(#clip220)" d="M2013.59 196.789 L2281.07 196.789 L2281.07 93.1086 L2013.59 93.1086  Z" fill="#ffffff" fill-rule="evenodd" fill-opacity="1"/>
<polyline clip-path="url(#clip220)" style="stroke:#000000; stroke-linecap:round; stroke-linejoin:round; stroke-width:4; stroke-opacity:1; fill:none" points="2013.59,196.789 2281.07,196.789 2281.07,93.1086 2013.59,93.1086 2013.59,196.789 "/>
<polyline clip-path="url(#clip220)" style="stroke:#009af9; stroke-linecap:round; stroke-linejoin:round; stroke-width:4; stroke-opacity:1; fill:none" points="2037.48,144.949 2180.85,144.949 "/>
<path clip-path="url(#clip220)" d="M2218.59 164.636 Q2216.78 169.266 2215.07 170.678 Q2213.36 172.09 2210.49 172.09 L2207.08 172.09 L2207.08 168.525 L2209.58 168.525 Q2211.34 168.525 2212.32 167.692 Q2213.29 166.858 2214.47 163.756 L2215.23 161.812 L2204.75 136.303 L2209.26 136.303 L2217.36 156.581 L2225.46 136.303 L2229.98 136.303 L2218.59 164.636 Z" fill="#000000" fill-rule="nonzero" fill-opacity="1" /><path clip-path="url(#clip220)" d="M2237.27 158.293 L2244.91 158.293 L2244.91 131.928 L2236.6 133.595 L2236.6 129.335 L2244.86 127.669 L2249.54 127.669 L2249.54 158.293 L2257.18 158.293 L2257.18 162.229 L2237.27 162.229 L2237.27 158.293 Z" fill="#000000" fill-rule="nonzero" fill-opacity="1" /></svg>
