<?xml version="1.0" encoding="utf-8" standalone="no"?>
<!DOCTYPE svg PUBLIC "-//W3C//DTD SVG 1.1//EN"
  "http://www.w3.org/Graphics/SVG/1.1/DTD/svg11.dtd">
<svg xmlns:xlink="http://www.w3.org/1999/xlink" width="432pt" height="288pt" viewBox="0 0 432 288" xmlns="http://www.w3.org/2000/svg" version="1.1">
 <metadata>
  <rdf:RDF xmlns:dc="http://purl.org/dc/elements/1.1/" xmlns:cc="http://creativecommons.org/ns#" xmlns:rdf="http://www.w3.org/1999/02/22-rdf-syntax-ns#">
   <cc:Work>
    <dc:type rdf:resource="http://purl.org/dc/dcmitype/StillImage"/>
    <dc:date>2025-07-09T11:55:07.920825</dc:date>
    <dc:format>image/svg+xml</dc:format>
    <dc:creator>
     <cc:Agent>
      <dc:title>Matplotlib v3.10.3, https://matplotlib.org/</dc:title>
     </cc:Agent>
    </dc:creator>
   </cc:Work>
  </rdf:RDF>
 </metadata>
 <defs>
  <style type="text/css">*{stroke-linejoin: round; stroke-linecap: butt}</style>
 </defs>
 <g id="figure_1">
  <g id="patch_1">
   <path d="M 0 288 
L 432 288 
L 432 0 
L 0 0 
z
" style="fill: #ffffff"/>
  </g>
  <g id="axes_1">
   <g id="patch_2">
    <path d="M 27.828396 258.225354 
L 426.285354 258.225354 
L 426.285354 22.658646 
L 27.828396 22.658646 
z
" style="fill: #ffffff"/>
   </g>
   <g id="matplotlib.axis_1">
    <g id="xtick_1">
     <g id="line2d_1">
      <path d="M 27.828396 258.225354 
L 27.828396 22.658646 
" clip-path="url(#p9ae8c6169b)" style="fill: none; stroke: #000000; stroke-opacity: 0.1; stroke-width: 0.5; stroke-linecap: square"/>
     </g>
     <g id="line2d_2">
      <defs>
       <path id="mfda12e1d81" d="M 0 0 
L 0 -3 
" style="stroke: #000000; stroke-width: 0.5"/>
      </defs>
      <g>
       <use xlink:href="#mfda12e1d81" x="27.828396" y="258.225354" style="stroke: #000000; stroke-width: 0.5"/>
      </g>
     </g>
     <g id="text_1">
      <!-- $0$ -->
      <g transform="translate(25.268396 267.804104) scale(0.08 -0.08)">
       <defs>
        <path id="DejaVuSans-30" d="M 2034 4250 
Q 1547 4250 1301 3770 
Q 1056 3291 1056 2328 
Q 1056 1369 1301 889 
Q 1547 409 2034 409 
Q 2525 409 2770 889 
Q 3016 1369 3016 2328 
Q 3016 3291 2770 3770 
Q 2525 4250 2034 4250 
z
M 2034 4750 
Q 2819 4750 3233 4129 
Q 3647 3509 3647 2328 
Q 3647 1150 3233 529 
Q 2819 -91 2034 -91 
Q 1250 -91 836 529 
Q 422 1150 422 2328 
Q 422 3509 836 4129 
Q 1250 4750 2034 4750 
z
" transform="scale(0.015625)"/>
       </defs>
       <use xlink:href="#DejaVuSans-30" transform="translate(0 0.78125)"/>
      </g>
     </g>
    </g>
    <g id="xtick_2">
     <g id="line2d_3">
      <path d="M 107.519787 258.225354 
L 107.519787 22.658646 
" clip-path="url(#p9ae8c6169b)" style="fill: none; stroke: #000000; stroke-opacity: 0.1; stroke-width: 0.5; stroke-linecap: square"/>
     </g>
     <g id="line2d_4">
      <g>
       <use xlink:href="#mfda12e1d81" x="107.519787" y="258.225354" style="stroke: #000000; stroke-width: 0.5"/>
      </g>
     </g>
     <g id="text_2">
      <!-- $1$ -->
      <g transform="translate(104.959787 267.804104) scale(0.08 -0.08)">
       <defs>
        <path id="DejaVuSans-31" d="M 794 531 
L 1825 531 
L 1825 4091 
L 703 3866 
L 703 4441 
L 1819 4666 
L 2450 4666 
L 2450 531 
L 3481 531 
L 3481 0 
L 794 0 
L 794 531 
z
" transform="scale(0.015625)"/>
       </defs>
       <use xlink:href="#DejaVuSans-31" transform="translate(0 0.09375)"/>
      </g>
     </g>
    </g>
    <g id="xtick_3">
     <g id="line2d_5">
      <path d="M 187.211179 258.225354 
L 187.211179 22.658646 
" clip-path="url(#p9ae8c6169b)" style="fill: none; stroke: #000000; stroke-opacity: 0.1; stroke-width: 0.5; stroke-linecap: square"/>
     </g>
     <g id="line2d_6">
      <g>
       <use xlink:href="#mfda12e1d81" x="187.211179" y="258.225354" style="stroke: #000000; stroke-width: 0.5"/>
      </g>
     </g>
     <g id="text_3">
      <!-- $2$ -->
      <g transform="translate(184.651179 267.804104) scale(0.08 -0.08)">
       <defs>
        <path id="DejaVuSans-32" d="M 1228 531 
L 3431 531 
L 3431 0 
L 469 0 
L 469 531 
Q 828 903 1448 1529 
Q 2069 2156 2228 2338 
Q 2531 2678 2651 2914 
Q 2772 3150 2772 3378 
Q 2772 3750 2511 3984 
Q 2250 4219 1831 4219 
Q 1534 4219 1204 4116 
Q 875 4013 500 3803 
L 500 4441 
Q 881 4594 1212 4672 
Q 1544 4750 1819 4750 
Q 2544 4750 2975 4387 
Q 3406 4025 3406 3419 
Q 3406 3131 3298 2873 
Q 3191 2616 2906 2266 
Q 2828 2175 2409 1742 
Q 1991 1309 1228 531 
z
" transform="scale(0.015625)"/>
       </defs>
       <use xlink:href="#DejaVuSans-32" transform="translate(0 0.78125)"/>
      </g>
     </g>
    </g>
    <g id="xtick_4">
     <g id="line2d_7">
      <path d="M 266.902571 258.225354 
L 266.902571 22.658646 
" clip-path="url(#p9ae8c6169b)" style="fill: none; stroke: #000000; stroke-opacity: 0.1; stroke-width: 0.5; stroke-linecap: square"/>
     </g>
     <g id="line2d_8">
      <g>
       <use xlink:href="#mfda12e1d81" x="266.902571" y="258.225354" style="stroke: #000000; stroke-width: 0.5"/>
      </g>
     </g>
     <g id="text_4">
      <!-- $3$ -->
      <g transform="translate(264.342571 267.804104) scale(0.08 -0.08)">
       <defs>
        <path id="DejaVuSans-33" d="M 2597 2516 
Q 3050 2419 3304 2112 
Q 3559 1806 3559 1356 
Q 3559 666 3084 287 
Q 2609 -91 1734 -91 
Q 1441 -91 1130 -33 
Q 819 25 488 141 
L 488 750 
Q 750 597 1062 519 
Q 1375 441 1716 441 
Q 2309 441 2620 675 
Q 2931 909 2931 1356 
Q 2931 1769 2642 2001 
Q 2353 2234 1838 2234 
L 1294 2234 
L 1294 2753 
L 1863 2753 
Q 2328 2753 2575 2939 
Q 2822 3125 2822 3475 
Q 2822 3834 2567 4026 
Q 2313 4219 1838 4219 
Q 1578 4219 1281 4162 
Q 984 4106 628 3988 
L 628 4550 
Q 988 4650 1302 4700 
Q 1616 4750 1894 4750 
Q 2613 4750 3031 4423 
Q 3450 4097 3450 3541 
Q 3450 3153 3228 2886 
Q 3006 2619 2597 2516 
z
" transform="scale(0.015625)"/>
       </defs>
       <use xlink:href="#DejaVuSans-33" transform="translate(0 0.78125)"/>
      </g>
     </g>
    </g>
    <g id="xtick_5">
     <g id="line2d_9">
      <path d="M 346.593963 258.225354 
L 346.593963 22.658646 
" clip-path="url(#p9ae8c6169b)" style="fill: none; stroke: #000000; stroke-opacity: 0.1; stroke-width: 0.5; stroke-linecap: square"/>
     </g>
     <g id="line2d_10">
      <g>
       <use xlink:href="#mfda12e1d81" x="346.593963" y="258.225354" style="stroke: #000000; stroke-width: 0.5"/>
      </g>
     </g>
     <g id="text_5">
      <!-- $4$ -->
      <g transform="translate(344.033963 267.804104) scale(0.08 -0.08)">
       <defs>
        <path id="DejaVuSans-34" d="M 2419 4116 
L 825 1625 
L 2419 1625 
L 2419 4116 
z
M 2253 4666 
L 3047 4666 
L 3047 1625 
L 3713 1625 
L 3713 1100 
L 3047 1100 
L 3047 0 
L 2419 0 
L 2419 1100 
L 313 1100 
L 313 1709 
L 2253 4666 
z
" transform="scale(0.015625)"/>
       </defs>
       <use xlink:href="#DejaVuSans-34" transform="translate(0 0.09375)"/>
      </g>
     </g>
    </g>
    <g id="xtick_6">
     <g id="line2d_11">
      <path d="M 426.285354 258.225354 
L 426.285354 22.658646 
" clip-path="url(#p9ae8c6169b)" style="fill: none; stroke: #000000; stroke-opacity: 0.1; stroke-width: 0.5; stroke-linecap: square"/>
     </g>
     <g id="line2d_12">
      <g>
       <use xlink:href="#mfda12e1d81" x="426.285354" y="258.225354" style="stroke: #000000; stroke-width: 0.5"/>
      </g>
     </g>
     <g id="text_6">
      <!-- $5$ -->
      <g transform="translate(423.725354 267.804104) scale(0.08 -0.08)">
       <defs>
        <path id="DejaVuSans-35" d="M 691 4666 
L 3169 4666 
L 3169 4134 
L 1269 4134 
L 1269 2991 
Q 1406 3038 1543 3061 
Q 1681 3084 1819 3084 
Q 2600 3084 3056 2656 
Q 3513 2228 3513 1497 
Q 3513 744 3044 326 
Q 2575 -91 1722 -91 
Q 1428 -91 1123 -41 
Q 819 9 494 109 
L 494 744 
Q 775 591 1075 516 
Q 1375 441 1709 441 
Q 2250 441 2565 725 
Q 2881 1009 2881 1497 
Q 2881 1984 2565 2268 
Q 2250 2553 1709 2553 
Q 1456 2553 1204 2497 
Q 953 2441 691 2322 
L 691 4666 
z
" transform="scale(0.015625)"/>
       </defs>
       <use xlink:href="#DejaVuSans-35" transform="translate(0 0.09375)"/>
      </g>
     </g>
    </g>
    <g id="text_7">
     <!-- $x$ -->
     <g transform="translate(223.756875 281.826136) scale(0.11 -0.11)">
      <defs>
       <path id="DejaVuSans-Oblique-78" d="M 3841 3500 
L 2234 1784 
L 3219 0 
L 2559 0 
L 1819 1388 
L 531 0 
L -166 0 
L 1556 1844 
L 641 3500 
L 1300 3500 
L 1972 2234 
L 3144 3500 
L 3841 3500 
z
" transform="scale(0.015625)"/>
      </defs>
      <use xlink:href="#DejaVuSans-Oblique-78" transform="translate(0 0.3125)"/>
     </g>
    </g>
   </g>
   <g id="matplotlib.axis_2">
    <g id="ytick_1">
     <g id="line2d_13">
      <path d="M 27.828396 258.225354 
L 426.285354 258.225354 
" clip-path="url(#p9ae8c6169b)" style="fill: none; stroke: #000000; stroke-opacity: 0.1; stroke-width: 0.5; stroke-linecap: square"/>
     </g>
     <g id="line2d_14">
      <defs>
       <path id="m0e5862c08a" d="M 0 0 
L 3 0 
" style="stroke: #000000; stroke-width: 0.5"/>
      </defs>
      <g>
       <use xlink:href="#m0e5862c08a" x="27.828396" y="258.225354" style="stroke: #000000; stroke-width: 0.5"/>
      </g>
     </g>
     <g id="text_8">
      <!-- $0$ -->
      <g transform="translate(19.208396 261.264729) scale(0.08 -0.08)">
       <use xlink:href="#DejaVuSans-30" transform="translate(0 0.78125)"/>
      </g>
     </g>
    </g>
    <g id="ytick_2">
     <g id="line2d_15">
      <path d="M 27.828396 179.703118 
L 426.285354 179.703118 
" clip-path="url(#p9ae8c6169b)" style="fill: none; stroke: #000000; stroke-opacity: 0.1; stroke-width: 0.5; stroke-linecap: square"/>
     </g>
     <g id="line2d_16">
      <g>
       <use xlink:href="#m0e5862c08a" x="27.828396" y="179.703118" style="stroke: #000000; stroke-width: 0.5"/>
      </g>
     </g>
     <g id="text_9">
      <!-- $1$ -->
      <g transform="translate(19.208396 182.742493) scale(0.08 -0.08)">
       <use xlink:href="#DejaVuSans-31" transform="translate(0 0.09375)"/>
      </g>
     </g>
    </g>
    <g id="ytick_3">
     <g id="line2d_17">
      <path d="M 27.828396 101.180882 
L 426.285354 101.180882 
" clip-path="url(#p9ae8c6169b)" style="fill: none; stroke: #000000; stroke-opacity: 0.1; stroke-width: 0.5; stroke-linecap: square"/>
     </g>
     <g id="line2d_18">
      <g>
       <use xlink:href="#m0e5862c08a" x="27.828396" y="101.180882" style="stroke: #000000; stroke-width: 0.5"/>
      </g>
     </g>
     <g id="text_10">
      <!-- $2$ -->
      <g transform="translate(19.208396 104.220257) scale(0.08 -0.08)">
       <use xlink:href="#DejaVuSans-32" transform="translate(0 0.78125)"/>
      </g>
     </g>
    </g>
    <g id="ytick_4">
     <g id="line2d_19">
      <path d="M 27.828396 22.658646 
L 426.285354 22.658646 
" clip-path="url(#p9ae8c6169b)" style="fill: none; stroke: #000000; stroke-opacity: 0.1; stroke-width: 0.5; stroke-linecap: square"/>
     </g>
     <g id="line2d_20">
      <g>
       <use xlink:href="#m0e5862c08a" x="27.828396" y="22.658646" style="stroke: #000000; stroke-width: 0.5"/>
      </g>
     </g>
     <g id="text_11">
      <!-- $3$ -->
      <g transform="translate(19.208396 25.698021) scale(0.08 -0.08)">
       <use xlink:href="#DejaVuSans-33" transform="translate(0 0.78125)"/>
      </g>
     </g>
    </g>
    <g id="text_12">
     <!-- $y$ -->
     <g transform="translate(12.898396 143.742) rotate(-90) scale(0.11 -0.11)">
      <defs>
       <path id="DejaVuSans-Oblique-79" d="M 1588 -325 
Q 1188 -997 936 -1164 
Q 684 -1331 294 -1331 
L -159 -1331 
L -63 -850 
L 269 -850 
Q 509 -850 678 -719 
Q 847 -588 1056 -206 
L 1234 128 
L 459 3500 
L 1069 3500 
L 1650 819 
L 3256 3500 
L 3859 3500 
L 1588 -325 
z
" transform="scale(0.015625)"/>
      </defs>
      <use xlink:href="#DejaVuSans-Oblique-79" transform="translate(0 0.3125)"/>
     </g>
    </g>
   </g>
   <g id="QuadContourSet_1">
    <path d="M 27.828396 258.225354 
L 27.828396 258.225354 
z
" clip-path="url(#p9ae8c6169b)" style="fill: none; stroke: #30123b"/>
    <path d="M 324.870898 258.225354 
L 324.678823 253.41787 
L 324.105058 248.610387 
L 323.156898 243.802903 
L 321.640092 238.402489 
L 320.194835 234.187935 
L 317.615275 228.119269 
L 315.940367 224.572967 
L 313.383771 219.765484 
L 309.565639 213.393946 
L 307.512502 210.150516 
L 304.242217 205.343032 
L 300.773895 200.535548 
L 297.122597 195.728064 
L 293.30108 190.92058 
L 285.416733 181.571325 
L 281.391915 177.035314 
L 276.502634 171.690645 
L 267.28529 162.075677 
L 261.267826 156.073666 
L 252.463091 147.653226 
L 245.168555 141.012466 
L 237.118919 134.015856 
L 229.069284 127.423723 
L 221.019648 121.273136 
L 216.994831 118.365704 
L 208.945195 112.993247 
L 202.552003 109.193355 
L 200.89556 108.244725 
L 196.870742 106.145376 
L 192.845924 104.232391 
L 188.821106 102.557099 
L 184.796288 101.106906 
L 179.342229 99.578387 
L 176.746653 98.980612 
L 172.721835 98.349321 
L 168.697017 98.023266 
L 164.6722 98.019928 
L 160.647382 98.35453 
L 156.622564 99.039443 
L 152.597746 100.096581 
L 148.572929 101.543779 
L 144.548111 103.370165 
L 140.523293 105.616228 
L 135.286218 109.193355 
L 132.473658 111.436688 
L 128.44884 115.071911 
L 124.424022 119.275384 
L 120.399204 124.170788 
L 116.374386 129.941425 
L 114.344022 133.230774 
L 111.72443 138.038258 
L 109.466945 142.845742 
L 107.524902 147.653226 
L 105.87654 152.46071 
L 104.299933 158.058107 
L 103.34686 162.075677 
L 102.421044 166.883161 
L 101.691158 171.690645 
L 101.135676 176.498129 
L 100.733308 181.305613 
L 100.46332 186.113097 
L 100.241535 195.728064 
L 100.324619 205.343032 
L 100.512209 212.550504 
M 101.00076 226.980009 
L 101.486762 243.802903 
L 101.638176 258.225354 
M 27.828396 62.000045 
L 31.181877 60.266649 
M 44.367954 51.930554 
L 47.952484 49.185252 
L 51.977302 45.813139 
L 56.223366 41.888581 
L 60.844057 37.081097 
L 64.898012 32.273613 
L 68.417209 27.46613 
L 71.41836 22.658646 
M 218.467031 22.658646 
L 220.230376 27.46613 
L 222.30808 32.273613 
L 225.044466 37.669778 
L 227.358119 41.888581 
L 230.277369 46.696065 
L 233.432129 51.503549 
L 237.118919 56.770164 
L 241.143737 62.20676 
L 245.168555 67.387239 
L 249.193373 72.363764 
L 255.924559 80.348452 
L 265.292644 90.844335 
L 273.442768 99.578387 
L 282.180563 108.606498 
M 292.989898 119.344793 
L 297.491186 123.682808 
L 307.665626 133.230774 
L 313.590457 138.620466 
L 323.91081 147.653226 
L 329.689728 152.522311 
L 337.739364 159.051299 
L 345.788999 165.202287 
L 355.004263 171.690645 
L 357.863452 173.631114 
L 365.913088 178.604439 
L 370.856745 181.305613 
L 373.962723 182.949868 
L 377.987541 184.852716 
L 382.012359 186.547808 
L 386.037177 188.075019 
L 390.061994 189.352461 
L 394.086812 190.380207 
L 398.11163 191.174917 
L 402.136448 191.740232 
L 406.161266 192.038499 
L 410.186083 192.069964 
L 414.210901 191.834963 
L 418.235719 191.333942 
L 422.260537 190.59029 
L 426.285354 189.625583 
L 426.285354 189.625583 
" clip-path="url(#p9ae8c6169b)" style="fill: none; stroke: #455ed3"/>
    <path d="M 270.681528 258.225354 
L 270.504962 253.41787 
L 269.978346 248.610387 
L 269.097781 243.802903 
L 267.829843 238.995419 
L 266.238375 234.187935 
L 264.285612 229.380451 
L 261.267826 223.237294 
L 259.309368 219.765484 
L 256.292775 214.958 
L 252.90581 210.150516 
L 249.108606 205.343032 
L 244.850693 200.535548 
L 240.068127 195.728064 
L 237.831373 193.674583 
M 219.334247 180.433921 
L 216.994831 179.229489 
L 212.970013 177.432273 
L 208.945195 175.992841 
L 204.920377 174.964712 
L 200.89556 174.333327 
L 196.870742 174.155912 
L 192.845924 174.496929 
L 188.821106 175.429102 
L 184.796288 177.082435 
L 180.771471 179.673931 
L 178.867403 181.305613 
L 176.746653 183.428706 
L 174.590473 186.113097 
L 172.721835 188.868195 
L 171.545501 190.92058 
L 168.697017 197.048709 
L 167.453037 200.535548 
L 166.026541 205.343032 
L 164.6722 211.045616 
L 163.94548 214.958 
L 163.211803 219.765484 
L 162.616214 224.572967 
L 161.759945 234.187935 
L 161.25248 243.802903 
L 161.017085 253.41787 
L 160.988505 258.225354 
M 244.736824 22.658646 
L 246.526286 27.46613 
L 249.193373 33.481438 
L 250.927731 37.081097 
L 253.515344 41.888581 
L 257.243008 48.164819 
L 259.337937 51.503549 
L 262.571518 56.311033 
L 266.001253 61.118516 
L 269.614628 65.926 
L 273.401749 70.733484 
L 277.367097 75.555385 
L 281.978904 80.922668 
M 297.173393 97.244526 
L 301.516004 101.583595 
L 309.565639 109.277612 
L 317.615275 116.575003 
L 325.871369 123.615807 
L 333.714546 129.930784 
L 341.764181 135.976501 
L 349.813817 141.558118 
L 357.863452 146.643815 
L 365.913088 151.191531 
L 373.962723 155.147577 
L 379.032611 157.268193 
L 382.012359 158.444726 
L 386.037177 159.842585 
L 390.061994 161.044605 
L 394.208348 162.075677 
L 398.11163 162.895834 
L 402.136448 163.537661 
L 406.161266 163.975602 
L 410.186083 164.209904 
L 414.210901 164.240852 
L 418.235719 164.068794 
L 422.260537 163.694163 
L 426.285354 163.1175 
L 426.285354 163.1175 
" clip-path="url(#p9ae8c6169b)" style="fill: none; stroke: #3aa3fc"/>
    <path d="M 265.800245 22.658646 
L 267.74416 27.46613 
L 269.317462 30.887629 
L 269.954674 32.273613 
L 272.406665 37.081097 
L 273.342279 38.754973 
L 275.098272 41.888581 
L 277.367097 45.616255 
L 278.027565 46.696065 
L 281.179844 51.503549 
L 281.391915 51.808685 
L 284.54472 56.311033 
L 285.416733 57.490637 
L 288.125207 61.118516 
L 289.44155 62.801125 
L 291.916224 65.926 
L 293.466368 67.806158 
L 295.915245 70.733484 
L 297.491186 72.553438 
L 300.122307 75.540968 
L 301.516004 77.077753 
L 304.540089 80.348452 
L 305.540821 81.404514 
L 305.715642 81.58502 
M 321.809642 97.201853 
L 324.502247 99.578387 
L 325.66491 100.595975 
L 329.689728 104.002278 
L 330.15839 104.385871 
L 333.714546 107.283187 
L 336.159492 109.193355 
L 337.739364 110.425891 
L 341.764181 113.434274 
L 342.55562 114.000839 
L 345.788999 116.320267 
L 349.449533 118.808323 
L 349.813817 119.057167 
L 353.838635 121.676382 
L 357.011164 123.615807 
L 357.863452 124.141168 
L 361.88827 126.479354 
L 365.489742 128.42329 
L 365.913088 128.654446 
L 369.937906 130.704127 
L 373.962723 132.581654 
L 375.483932 133.230774 
L 377.987541 134.315315 
L 382.012359 135.889759 
L 386.037177 137.288165 
L 388.49725 138.038258 
L 390.061994 138.524286 
L 394.086812 139.600956 
L 398.11163 140.49694 
L 402.136448 141.212467 
L 406.161266 141.747744 
L 410.186083 142.102967 
L 414.210901 142.278346 
L 418.235719 142.274119 
L 422.260537 142.090574 
L 426.285354 141.728073 
" clip-path="url(#p9ae8c6169b)" style="fill: none; stroke: #18e0bd"/>
    <path d="M 284.669422 22.658646 
L 285.416733 24.333839 
L 286.825493 27.46613 
L 289.244239 32.273613 
L 289.44155 32.632784 
L 291.911617 37.081097 
L 293.466368 39.654655 
L 294.833711 41.888581 
L 297.491186 45.926944 
L 298.005192 46.696065 
L 301.423465 51.503549 
L 301.516004 51.627052 
L 305.089741 56.311033 
L 305.540821 56.874597 
L 309.008233 61.118516 
L 309.565639 61.773137 
L 313.18433 65.926 
L 313.590457 66.375836 
L 317.615275 70.721031 
L 317.627116 70.733484 
L 321.640092 74.831744 
L 322.356359 75.540968 
L 324.450953 77.564342 
M 341.503334 92.34178 
L 341.764181 92.548653 
L 344.702503 94.770903 
L 345.788999 95.585528 
L 349.813817 98.466415 
L 351.450252 99.578387 
L 353.838635 101.19338 
L 357.863452 103.761747 
L 358.90008 104.385871 
L 361.88827 106.182555 
L 365.913088 108.441922 
L 367.348507 109.193355 
L 369.937906 110.551656 
L 373.962723 112.501944 
L 377.343677 114.000839 
L 377.987541 114.287799 
L 382.012359 115.925764 
L 386.037177 117.39272 
L 390.061994 118.68908 
L 390.485048 118.808323 
L 394.086812 119.832773 
L 398.11163 120.805142 
L 402.136448 121.604343 
L 406.161266 122.230596 
L 410.186083 122.684085 
L 414.210901 122.964981 
L 418.235719 123.073456 
L 422.260537 123.009702 
L 426.285354 122.773952 
" clip-path="url(#p9ae8c6169b)" style="fill: none; stroke: #61fc6c"/>
    <path d="M 302.657254 22.658646 
L 305.087476 27.46613 
L 305.540821 28.283535 
L 307.79633 32.273613 
L 309.565639 35.145745 
L 310.783784 37.081097 
L 313.590457 41.22264 
L 314.052736 41.888581 
L 317.609789 46.696065 
L 317.615275 46.703087 
L 321.467341 51.503549 
L 321.640092 51.708536 
L 325.635622 56.311033 
L 325.66491 56.343371 
L 329.689728 60.653065 
L 330.139953 61.118516 
L 333.714546 64.684932 
L 335.007235 65.926 
L 337.739364 68.470617 
L 340.272939 70.733484 
L 341.764181 72.031695 
L 344.818517 74.573836 
M 363.414285 87.7693 
L 365.913088 89.271296 
L 367.14469 89.96342 
L 369.937906 91.519664 
L 373.962723 93.595766 
L 376.438567 94.770903 
L 377.987541 95.502458 
L 382.012359 97.241374 
L 386.037177 98.807676 
L 388.254039 99.578387 
L 390.061994 100.206182 
L 394.086812 101.436784 
L 398.11163 102.494445 
L 402.136448 103.379452 
L 406.161266 104.092008 
L 408.344898 104.385871 
L 410.186083 104.634356 
L 414.210901 105.005374 
L 418.235719 105.202646 
L 422.260537 105.226329 
L 426.285354 105.076591 
" clip-path="url(#p9ae8c6169b)" style="fill: none; stroke: #b9f635"/>
    <path d="M 320.673747 22.658646 
L 321.640092 24.341658 
L 323.485193 27.46613 
L 325.66491 30.846201 
L 326.61424 32.273613 
L 327.214631 33.110553 
M 341.361172 50.140802 
L 341.764181 50.564592 
L 342.696843 51.503549 
L 345.788999 54.486765 
L 347.771545 56.311033 
L 349.813817 58.122468 
L 353.370066 61.118516 
L 353.838635 61.501038 
L 357.863452 64.62355 
L 359.644324 65.926 
L 361.88827 67.524896 
L 365.913088 70.214978 
L 366.741217 70.733484 
L 369.937906 72.692995 
L 373.962723 74.978579 
L 375.033383 75.540968 
L 377.987541 77.06687 
L 382.012359 78.967689 
L 385.240819 80.348452 
L 386.037177 80.684726 
L 390.061994 82.214254 
L 394.086812 83.563406 
L 398.11163 84.732666 
L 399.827243 85.155936 
L 402.136448 85.720923 
L 406.161266 86.528871 
L 410.186083 87.157658 
L 414.210901 87.607358 
L 418.235719 87.877967 
L 422.260537 87.969424 
L 426.285354 87.881628 
" clip-path="url(#p9ae8c6169b)" style="fill: none; stroke: #f4c73a"/>
    <path d="M 339.715608 22.658646 
L 341.764181 25.607019 
L 343.111363 27.46613 
L 345.788999 30.883377 
L 346.929171 32.273613 
L 348.298015 33.833545 
M 364.632891 49.206982 
L 365.913088 50.209797 
L 367.680574 51.503549 
L 369.937906 53.094951 
L 373.962723 55.730989 
L 374.919313 56.311033 
L 377.987541 58.113479 
L 382.012359 60.277921 
L 383.730227 61.118516 
L 386.037177 62.217869 
L 390.061994 63.943347 
L 394.086812 65.47123 
L 395.457031 65.926 
L 398.11163 66.788402 
L 402.136448 67.9046 
L 406.161266 68.827192 
L 410.186083 69.556267 
L 414.210901 70.091735 
L 418.235719 70.433343 
L 422.260537 70.580693 
L 426.285354 70.53326 
" clip-path="url(#p9ae8c6169b)" style="fill: none; stroke: #fb8122"/>
    <path d="M 361.512738 22.658646 
L 361.88827 23.079772 
L 365.913088 27.324794 
L 366.056204 27.46613 
L 369.115772 30.284646 
M 387.861145 43.235048 
L 390.061994 44.35476 
L 394.086812 46.170832 
L 395.415875 46.696065 
L 398.11163 47.721529 
L 402.136448 49.032268 
L 406.161266 50.120662 
L 410.186083 50.986724 
L 413.417914 51.503549 
L 414.210901 51.626379 
L 418.235719 52.033811 
L 422.260537 52.223302 
L 426.285354 52.193848 
" clip-path="url(#p9ae8c6169b)" style="fill: none; stroke: #dc3b07"/>
    <path d="M 392.401381 22.658646 
L 394.086812 23.631026 
L 395.398614 24.292849 
M 417.74009 31.08044 
L 418.235719 31.143865 
L 422.260537 31.375048 
L 426.285354 31.319214 
" clip-path="url(#p9ae8c6169b)" style="fill: none; stroke: #980e01"/>
    <path clip-path="url(#p9ae8c6169b)" style="fill: none; stroke: #7a0403"/>
   </g>
   <g id="patch_3">
    <path d="M 27.828396 258.225354 
L 27.828396 22.658646 
" style="fill: none; stroke: #000000; stroke-linejoin: miter; stroke-linecap: square"/>
   </g>
   <g id="patch_4">
    <path d="M 27.828396 258.225354 
L 426.285354 258.225354 
" style="fill: none; stroke: #000000; stroke-linejoin: miter; stroke-linecap: square"/>
   </g>
   <g id="text_13">
    <g clip-path="url(#p9ae8c6169b)">
     <!-- 5 -->
     <g style="fill: #455ed3" transform="translate(97.891701 216.670878) rotate(-271.767929) scale(0.1 -0.1)">
      <use xlink:href="#DejaVuSans-35"/>
     </g>
    </g>
   </g>
   <g id="text_14">
    <g clip-path="url(#p9ae8c6169b)">
     <!-- 5 -->
     <g style="fill: #455ed3" transform="translate(36.948095 60.403051) rotate(-35.396383) scale(0.1 -0.1)">
      <use xlink:href="#DejaVuSans-35"/>
     </g>
    </g>
   </g>
   <g id="text_15">
    <g clip-path="url(#p9ae8c6169b)">
     <!-- 5 -->
     <g style="fill: #455ed3" transform="translate(283.375028 113.479056) rotate(-311.94467) scale(0.1 -0.1)">
      <use xlink:href="#DejaVuSans-35"/>
     </g>
    </g>
   </g>
   <g id="text_16">
    <g clip-path="url(#p9ae8c6169b)">
     <!-- 10 -->
     <g style="fill: #3aa3fc" transform="translate(222.384148 184.663425) rotate(-321.124164) scale(0.1 -0.1)">
      <use xlink:href="#DejaVuSans-31"/>
      <use xlink:href="#DejaVuSans-30" transform="translate(63.623047 0)"/>
     </g>
    </g>
   </g>
   <g id="text_17">
    <g clip-path="url(#p9ae8c6169b)">
     <!-- 10 -->
     <g style="fill: #3aa3fc" transform="translate(283.253581 86.052177) rotate(-309.713667) scale(0.1 -0.1)">
      <use xlink:href="#DejaVuSans-31"/>
      <use xlink:href="#DejaVuSans-30" transform="translate(63.623047 0)"/>
     </g>
    </g>
   </g>
   <g id="text_18">
    <g clip-path="url(#p9ae8c6169b)">
     <!-- 15 -->
     <g style="fill: #18e0bd" transform="translate(307.252663 86.719174) rotate(-312.600063) scale(0.1 -0.1)">
      <use xlink:href="#DejaVuSans-31"/>
      <use xlink:href="#DejaVuSans-35" transform="translate(63.623047 0)"/>
     </g>
    </g>
   </g>
   <g id="text_19">
    <g clip-path="url(#p9ae8c6169b)">
     <!-- 20 -->
     <g style="fill: #61fc6c" transform="translate(326.268896 82.704708) rotate(-315.855302) scale(0.1 -0.1)">
      <use xlink:href="#DejaVuSans-32"/>
      <use xlink:href="#DejaVuSans-30" transform="translate(63.623047 0)"/>
     </g>
    </g>
   </g>
   <g id="text_20">
    <g clip-path="url(#p9ae8c6169b)">
     <!-- 25 -->
     <g style="fill: #b9f635" transform="translate(347.143142 79.676679) rotate(-321.449084) scale(0.1 -0.1)">
      <use xlink:href="#DejaVuSans-32"/>
      <use xlink:href="#DejaVuSans-35" transform="translate(63.623047 0)"/>
     </g>
    </g>
   </g>
   <g id="text_21">
    <g clip-path="url(#p9ae8c6169b)">
     <!-- 30 -->
     <g style="fill: #f4c73a" transform="translate(327.881737 38.425541) rotate(-306.596934) scale(0.1 -0.1)">
      <use xlink:href="#DejaVuSans-33"/>
      <use xlink:href="#DejaVuSans-30" transform="translate(63.623047 0)"/>
     </g>
    </g>
   </g>
   <g id="text_22">
    <g clip-path="url(#p9ae8c6169b)">
     <!-- 35 -->
     <g style="fill: #fb8122" transform="translate(349.652413 39.165759) rotate(-313.436628) scale(0.1 -0.1)">
      <use xlink:href="#DejaVuSans-33"/>
      <use xlink:href="#DejaVuSans-35" transform="translate(63.623047 0)"/>
     </g>
    </g>
   </g>
   <g id="text_23">
    <g clip-path="url(#p9ae8c6169b)">
     <!-- 40 -->
     <g style="fill: #dc3b07" transform="translate(371.268649 35.620512) rotate(-322.2097) scale(0.1 -0.1)">
      <use xlink:href="#DejaVuSans-34"/>
      <use xlink:href="#DejaVuSans-30" transform="translate(63.623047 0)"/>
     </g>
    </g>
   </g>
   <g id="text_24">
    <g clip-path="url(#p9ae8c6169b)">
     <!-- 45 -->
     <g style="fill: #980e01" transform="translate(399.248332 29.309925) rotate(-341.135746) scale(0.1 -0.1)">
      <use xlink:href="#DejaVuSans-34"/>
      <use xlink:href="#DejaVuSans-35" transform="translate(63.623047 0)"/>
     </g>
    </g>
   </g>
   <g id="text_25">
    <!-- Plot of $(3x + y^2)|\sin(x) + \cos(y)|$ -->
    <g transform="translate(117.856875 16.658646) scale(0.14 -0.14)">
     <defs>
      <path id="DejaVuSans-50" d="M 1259 4147 
L 1259 2394 
L 2053 2394 
Q 2494 2394 2734 2622 
Q 2975 2850 2975 3272 
Q 2975 3691 2734 3919 
Q 2494 4147 2053 4147 
L 1259 4147 
z
M 628 4666 
L 2053 4666 
Q 2838 4666 3239 4311 
Q 3641 3956 3641 3272 
Q 3641 2581 3239 2228 
Q 2838 1875 2053 1875 
L 1259 1875 
L 1259 0 
L 628 0 
L 628 4666 
z
" transform="scale(0.015625)"/>
      <path id="DejaVuSans-6c" d="M 603 4863 
L 1178 4863 
L 1178 0 
L 603 0 
L 603 4863 
z
" transform="scale(0.015625)"/>
      <path id="DejaVuSans-6f" d="M 1959 3097 
Q 1497 3097 1228 2736 
Q 959 2375 959 1747 
Q 959 1119 1226 758 
Q 1494 397 1959 397 
Q 2419 397 2687 759 
Q 2956 1122 2956 1747 
Q 2956 2369 2687 2733 
Q 2419 3097 1959 3097 
z
M 1959 3584 
Q 2709 3584 3137 3096 
Q 3566 2609 3566 1747 
Q 3566 888 3137 398 
Q 2709 -91 1959 -91 
Q 1206 -91 779 398 
Q 353 888 353 1747 
Q 353 2609 779 3096 
Q 1206 3584 1959 3584 
z
" transform="scale(0.015625)"/>
      <path id="DejaVuSans-74" d="M 1172 4494 
L 1172 3500 
L 2356 3500 
L 2356 3053 
L 1172 3053 
L 1172 1153 
Q 1172 725 1289 603 
Q 1406 481 1766 481 
L 2356 481 
L 2356 0 
L 1766 0 
Q 1100 0 847 248 
Q 594 497 594 1153 
L 594 3053 
L 172 3053 
L 172 3500 
L 594 3500 
L 594 4494 
L 1172 4494 
z
" transform="scale(0.015625)"/>
      <path id="DejaVuSans-20" transform="scale(0.015625)"/>
      <path id="DejaVuSans-66" d="M 2375 4863 
L 2375 4384 
L 1825 4384 
Q 1516 4384 1395 4259 
Q 1275 4134 1275 3809 
L 1275 3500 
L 2222 3500 
L 2222 3053 
L 1275 3053 
L 1275 0 
L 697 0 
L 697 3053 
L 147 3053 
L 147 3500 
L 697 3500 
L 697 3744 
Q 697 4328 969 4595 
Q 1241 4863 1831 4863 
L 2375 4863 
z
" transform="scale(0.015625)"/>
      <path id="DejaVuSans-28" d="M 1984 4856 
Q 1566 4138 1362 3434 
Q 1159 2731 1159 2009 
Q 1159 1288 1364 580 
Q 1569 -128 1984 -844 
L 1484 -844 
Q 1016 -109 783 600 
Q 550 1309 550 2009 
Q 550 2706 781 3412 
Q 1013 4119 1484 4856 
L 1984 4856 
z
" transform="scale(0.015625)"/>
      <path id="DejaVuSans-2b" d="M 2944 4013 
L 2944 2272 
L 4684 2272 
L 4684 1741 
L 2944 1741 
L 2944 0 
L 2419 0 
L 2419 1741 
L 678 1741 
L 678 2272 
L 2419 2272 
L 2419 4013 
L 2944 4013 
z
" transform="scale(0.015625)"/>
      <path id="DejaVuSans-29" d="M 513 4856 
L 1013 4856 
Q 1481 4119 1714 3412 
Q 1947 2706 1947 2009 
Q 1947 1309 1714 600 
Q 1481 -109 1013 -844 
L 513 -844 
Q 928 -128 1133 580 
Q 1338 1288 1338 2009 
Q 1338 2731 1133 3434 
Q 928 4138 513 4856 
z
" transform="scale(0.015625)"/>
      <path id="DejaVuSans-7c" d="M 1344 4891 
L 1344 -1509 
L 813 -1509 
L 813 4891 
L 1344 4891 
z
" transform="scale(0.015625)"/>
      <path id="DejaVuSans-73" d="M 2834 3397 
L 2834 2853 
Q 2591 2978 2328 3040 
Q 2066 3103 1784 3103 
Q 1356 3103 1142 2972 
Q 928 2841 928 2578 
Q 928 2378 1081 2264 
Q 1234 2150 1697 2047 
L 1894 2003 
Q 2506 1872 2764 1633 
Q 3022 1394 3022 966 
Q 3022 478 2636 193 
Q 2250 -91 1575 -91 
Q 1294 -91 989 -36 
Q 684 19 347 128 
L 347 722 
Q 666 556 975 473 
Q 1284 391 1588 391 
Q 1994 391 2212 530 
Q 2431 669 2431 922 
Q 2431 1156 2273 1281 
Q 2116 1406 1581 1522 
L 1381 1569 
Q 847 1681 609 1914 
Q 372 2147 372 2553 
Q 372 3047 722 3315 
Q 1072 3584 1716 3584 
Q 2034 3584 2315 3537 
Q 2597 3491 2834 3397 
z
" transform="scale(0.015625)"/>
      <path id="DejaVuSans-69" d="M 603 3500 
L 1178 3500 
L 1178 0 
L 603 0 
L 603 3500 
z
M 603 4863 
L 1178 4863 
L 1178 4134 
L 603 4134 
L 603 4863 
z
" transform="scale(0.015625)"/>
      <path id="DejaVuSans-6e" d="M 3513 2113 
L 3513 0 
L 2938 0 
L 2938 2094 
Q 2938 2591 2744 2837 
Q 2550 3084 2163 3084 
Q 1697 3084 1428 2787 
Q 1159 2491 1159 1978 
L 1159 0 
L 581 0 
L 581 3500 
L 1159 3500 
L 1159 2956 
Q 1366 3272 1645 3428 
Q 1925 3584 2291 3584 
Q 2894 3584 3203 3211 
Q 3513 2838 3513 2113 
z
" transform="scale(0.015625)"/>
      <path id="DejaVuSans-63" d="M 3122 3366 
L 3122 2828 
Q 2878 2963 2633 3030 
Q 2388 3097 2138 3097 
Q 1578 3097 1268 2742 
Q 959 2388 959 1747 
Q 959 1106 1268 751 
Q 1578 397 2138 397 
Q 2388 397 2633 464 
Q 2878 531 3122 666 
L 3122 134 
Q 2881 22 2623 -34 
Q 2366 -91 2075 -91 
Q 1284 -91 818 406 
Q 353 903 353 1747 
Q 353 2603 823 3093 
Q 1294 3584 2113 3584 
Q 2378 3584 2631 3529 
Q 2884 3475 3122 3366 
z
" transform="scale(0.015625)"/>
     </defs>
     <use xlink:href="#DejaVuSans-50" transform="translate(0 0.765625)"/>
     <use xlink:href="#DejaVuSans-6c" transform="translate(60.302734 0.765625)"/>
     <use xlink:href="#DejaVuSans-6f" transform="translate(88.085938 0.765625)"/>
     <use xlink:href="#DejaVuSans-74" transform="translate(149.267578 0.765625)"/>
     <use xlink:href="#DejaVuSans-20" transform="translate(188.476562 0.765625)"/>
     <use xlink:href="#DejaVuSans-6f" transform="translate(220.263672 0.765625)"/>
     <use xlink:href="#DejaVuSans-66" transform="translate(281.445312 0.765625)"/>
     <use xlink:href="#DejaVuSans-20" transform="translate(316.650391 0.765625)"/>
     <use xlink:href="#DejaVuSans-28" transform="translate(348.4375 0.765625)"/>
     <use xlink:href="#DejaVuSans-33" transform="translate(387.451172 0.765625)"/>
     <use xlink:href="#DejaVuSans-Oblique-78" transform="translate(451.074219 0.765625)"/>
     <use xlink:href="#DejaVuSans-2b" transform="translate(529.736328 0.765625)"/>
     <use xlink:href="#DejaVuSans-Oblique-79" transform="translate(633.007812 0.765625)"/>
     <use xlink:href="#DejaVuSans-32" transform="translate(696.653646 39.046875) scale(0.7)"/>
     <use xlink:href="#DejaVuSans-29" transform="translate(743.924154 0.765625)"/>
     <use xlink:href="#DejaVuSans-7c" transform="translate(782.937826 0.765625)"/>
     <use xlink:href="#DejaVuSans-73" transform="translate(816.629232 0.765625)"/>
     <use xlink:href="#DejaVuSans-69" transform="translate(868.728841 0.765625)"/>
     <use xlink:href="#DejaVuSans-6e" transform="translate(896.512044 0.765625)"/>
     <use xlink:href="#DejaVuSans-28" transform="translate(959.890951 0.765625)"/>
     <use xlink:href="#DejaVuSans-Oblique-78" transform="translate(998.904622 0.765625)"/>
     <use xlink:href="#DejaVuSans-29" transform="translate(1058.08431 0.765625)"/>
     <use xlink:href="#DejaVuSans-2b" transform="translate(1116.580404 0.765625)"/>
     <use xlink:href="#DejaVuSans-63" transform="translate(1219.851888 0.765625)"/>
     <use xlink:href="#DejaVuSans-6f" transform="translate(1274.832357 0.765625)"/>
     <use xlink:href="#DejaVuSans-73" transform="translate(1336.013997 0.765625)"/>
     <use xlink:href="#DejaVuSans-28" transform="translate(1388.113607 0.765625)"/>
     <use xlink:href="#DejaVuSans-Oblique-79" transform="translate(1427.127279 0.765625)"/>
     <use xlink:href="#DejaVuSans-29" transform="translate(1486.306966 0.765625)"/>
     <use xlink:href="#DejaVuSans-7c" transform="translate(1525.320638 0.765625)"/>
    </g>
   </g>
  </g>
 </g>
 <defs>
  <clipPath id="p9ae8c6169b">
   <rect x="27.828396" y="22.658646" width="398.456959" height="235.566709"/>
  </clipPath>
 </defs>
</svg>
