<?xml version="1.0" encoding="utf-8"?>
<svg xmlns="http://www.w3.org/2000/svg" xmlns:xlink="http://www.w3.org/1999/xlink" width="600" height="400" viewBox="0 0 2400 1600">
<defs>
  <clipPath id="clip790">
    <rect x="0" y="0" width="2400" height="1600"/>
  </clipPath>
</defs>
<path clip-path="url(#clip790)" d="M0 1600 L2400 1600 L2400 0 L0 0  Z" fill="#333333" fill-rule="evenodd" fill-opacity="1"/>
<defs>
  <clipPath id="clip791">
    <rect x="480" y="0" width="1681" height="1600"/>
  </clipPath>
</defs>
<path clip-path="url(#clip790)" d="M156.922 1486.45 L2352.76 1486.45 L2352.76 47.2441 L156.922 47.2441  Z" fill="#333333" fill-rule="evenodd" fill-opacity="1"/>
<defs>
  <clipPath id="clip792">
    <rect x="156" y="47" width="2197" height="1440"/>
  </clipPath>
</defs>
<polyline clip-path="url(#clip792)" style="stroke:#ffffff; stroke-linecap:round; stroke-linejoin:round; stroke-width:2; stroke-opacity:0.1; fill:none" points="621.868,1486.45 621.868,47.2441 "/>
<polyline clip-path="url(#clip792)" style="stroke:#ffffff; stroke-linecap:round; stroke-linejoin:round; stroke-width:2; stroke-opacity:0.1; fill:none" points="1197.3,1486.45 1197.3,47.2441 "/>
<polyline clip-path="url(#clip792)" style="stroke:#ffffff; stroke-linecap:round; stroke-linejoin:round; stroke-width:2; stroke-opacity:0.1; fill:none" points="1772.72,1486.45 1772.72,47.2441 "/>
<polyline clip-path="url(#clip792)" style="stroke:#ffffff; stroke-linecap:round; stroke-linejoin:round; stroke-width:2; stroke-opacity:0.1; fill:none" points="2348.15,1486.45 2348.15,47.2441 "/>
<polyline clip-path="url(#clip792)" style="stroke:#ffffff; stroke-linecap:round; stroke-linejoin:round; stroke-width:2; stroke-opacity:0.1; fill:none" points="156.922,1445.72 2352.76,1445.72 "/>
<polyline clip-path="url(#clip792)" style="stroke:#ffffff; stroke-linecap:round; stroke-linejoin:round; stroke-width:2; stroke-opacity:0.1; fill:none" points="156.922,1162.85 2352.76,1162.85 "/>
<polyline clip-path="url(#clip792)" style="stroke:#ffffff; stroke-linecap:round; stroke-linejoin:round; stroke-width:2; stroke-opacity:0.1; fill:none" points="156.922,879.991 2352.76,879.991 "/>
<polyline clip-path="url(#clip792)" style="stroke:#ffffff; stroke-linecap:round; stroke-linejoin:round; stroke-width:2; stroke-opacity:0.1; fill:none" points="156.922,597.129 2352.76,597.129 "/>
<polyline clip-path="url(#clip792)" style="stroke:#ffffff; stroke-linecap:round; stroke-linejoin:round; stroke-width:2; stroke-opacity:0.1; fill:none" points="156.922,314.266 2352.76,314.266 "/>
<polyline clip-path="url(#clip790)" style="stroke:#ffffff; stroke-linecap:round; stroke-linejoin:round; stroke-width:4; stroke-opacity:1; fill:none" points="156.922,1486.45 2352.76,1486.45 "/>
<polyline clip-path="url(#clip790)" style="stroke:#ffffff; stroke-linecap:round; stroke-linejoin:round; stroke-width:4; stroke-opacity:1; fill:none" points="621.868,1486.45 621.868,1467.55 "/>
<polyline clip-path="url(#clip790)" style="stroke:#ffffff; stroke-linecap:round; stroke-linejoin:round; stroke-width:4; stroke-opacity:1; fill:none" points="1197.3,1486.45 1197.3,1467.55 "/>
<polyline clip-path="url(#clip790)" style="stroke:#ffffff; stroke-linecap:round; stroke-linejoin:round; stroke-width:4; stroke-opacity:1; fill:none" points="1772.72,1486.45 1772.72,1467.55 "/>
<polyline clip-path="url(#clip790)" style="stroke:#ffffff; stroke-linecap:round; stroke-linejoin:round; stroke-width:4; stroke-opacity:1; fill:none" points="2348.15,1486.45 2348.15,1467.55 "/>
<path clip-path="url(#clip790)" d="M612.146 1514.29 L630.502 1514.29 L630.502 1518.22 L616.428 1518.22 L616.428 1526.7 Q617.447 1526.35 618.465 1526.19 Q619.484 1526 620.502 1526 Q626.289 1526 629.669 1529.17 Q633.049 1532.34 633.049 1537.76 Q633.049 1543.34 629.576 1546.44 Q626.104 1549.52 619.785 1549.52 Q617.609 1549.52 615.34 1549.15 Q613.095 1548.78 610.688 1548.04 L610.688 1543.34 Q612.771 1544.47 614.993 1545.03 Q617.215 1545.58 619.692 1545.58 Q623.697 1545.58 626.035 1543.48 Q628.373 1541.37 628.373 1537.76 Q628.373 1534.15 626.035 1532.04 Q623.697 1529.94 619.692 1529.94 Q617.817 1529.94 615.942 1530.35 Q614.09 1530.77 612.146 1531.65 L612.146 1514.29 Z" fill="#ffffff" fill-rule="nonzero" fill-opacity="1" /><path clip-path="url(#clip790)" d="M1197.7 1529.7 Q1194.55 1529.7 1192.7 1531.86 Q1190.87 1534.01 1190.87 1537.76 Q1190.87 1541.49 1192.7 1543.66 Q1194.55 1545.82 1197.7 1545.82 Q1200.85 1545.82 1202.68 1543.66 Q1204.53 1541.49 1204.53 1537.76 Q1204.53 1534.01 1202.68 1531.86 Q1200.85 1529.7 1197.7 1529.7 M1206.98 1515.05 L1206.98 1519.31 Q1205.22 1518.48 1203.42 1518.04 Q1201.64 1517.6 1199.88 1517.6 Q1195.25 1517.6 1192.79 1520.72 Q1190.36 1523.85 1190.02 1530.17 Q1191.38 1528.15 1193.44 1527.09 Q1195.5 1526 1197.98 1526 Q1203.19 1526 1206.2 1529.17 Q1209.23 1532.32 1209.23 1537.76 Q1209.23 1543.08 1206.08 1546.3 Q1202.93 1549.52 1197.7 1549.52 Q1191.71 1549.52 1188.53 1544.94 Q1185.36 1540.33 1185.36 1531.6 Q1185.36 1523.41 1189.25 1518.55 Q1193.14 1513.66 1199.69 1513.66 Q1201.45 1513.66 1203.23 1514.01 Q1205.04 1514.36 1206.98 1515.05 Z" fill="#ffffff" fill-rule="nonzero" fill-opacity="1" /><path clip-path="url(#clip790)" d="M1761.61 1514.29 L1783.84 1514.29 L1783.84 1516.28 L1771.29 1548.85 L1766.4 1548.85 L1778.21 1518.22 L1761.61 1518.22 L1761.61 1514.29 Z" fill="#ffffff" fill-rule="nonzero" fill-opacity="1" /><path clip-path="url(#clip790)" d="M2348.15 1532.44 Q2344.82 1532.44 2342.9 1534.22 Q2341 1536 2341 1539.13 Q2341 1542.25 2342.9 1544.03 Q2344.82 1545.82 2348.15 1545.82 Q2351.49 1545.82 2353.41 1544.03 Q2355.33 1542.23 2355.33 1539.13 Q2355.33 1536 2353.41 1534.22 Q2351.51 1532.44 2348.15 1532.44 M2343.48 1530.45 Q2340.47 1529.7 2338.78 1527.64 Q2337.11 1525.58 2337.11 1522.62 Q2337.11 1518.48 2340.05 1516.07 Q2343.01 1513.66 2348.15 1513.66 Q2353.31 1513.66 2356.25 1516.07 Q2359.19 1518.48 2359.19 1522.62 Q2359.19 1525.58 2357.5 1527.64 Q2355.84 1529.7 2352.85 1530.45 Q2356.23 1531.23 2358.11 1533.52 Q2360 1535.82 2360 1539.13 Q2360 1544.15 2356.93 1546.83 Q2353.87 1549.52 2348.15 1549.52 Q2342.43 1549.52 2339.36 1546.83 Q2336.3 1544.15 2336.3 1539.13 Q2336.3 1535.82 2338.2 1533.52 Q2340.1 1531.23 2343.48 1530.45 M2341.76 1523.06 Q2341.76 1525.75 2343.43 1527.25 Q2345.12 1528.76 2348.15 1528.76 Q2351.16 1528.76 2352.85 1527.25 Q2354.56 1525.75 2354.56 1523.06 Q2354.56 1520.38 2352.85 1518.87 Q2351.16 1517.37 2348.15 1517.37 Q2345.12 1517.37 2343.43 1518.87 Q2341.76 1520.38 2341.76 1523.06 Z" fill="#ffffff" fill-rule="nonzero" fill-opacity="1" /><polyline clip-path="url(#clip790)" style="stroke:#ffffff; stroke-linecap:round; stroke-linejoin:round; stroke-width:4; stroke-opacity:1; fill:none" points="156.922,1486.45 156.922,47.2441 "/>
<polyline clip-path="url(#clip790)" style="stroke:#ffffff; stroke-linecap:round; stroke-linejoin:round; stroke-width:4; stroke-opacity:1; fill:none" points="156.922,1445.72 175.82,1445.72 "/>
<polyline clip-path="url(#clip790)" style="stroke:#ffffff; stroke-linecap:round; stroke-linejoin:round; stroke-width:4; stroke-opacity:1; fill:none" points="156.922,1162.85 175.82,1162.85 "/>
<polyline clip-path="url(#clip790)" style="stroke:#ffffff; stroke-linecap:round; stroke-linejoin:round; stroke-width:4; stroke-opacity:1; fill:none" points="156.922,879.991 175.82,879.991 "/>
<polyline clip-path="url(#clip790)" style="stroke:#ffffff; stroke-linecap:round; stroke-linejoin:round; stroke-width:4; stroke-opacity:1; fill:none" points="156.922,597.129 175.82,597.129 "/>
<polyline clip-path="url(#clip790)" style="stroke:#ffffff; stroke-linecap:round; stroke-linejoin:round; stroke-width:4; stroke-opacity:1; fill:none" points="156.922,314.266 175.82,314.266 "/>
<path clip-path="url(#clip790)" d="M57.7745 1459.06 L74.0939 1459.06 L74.0939 1463 L52.1495 1463 L52.1495 1459.06 Q54.8115 1456.31 59.3949 1451.68 Q64.0013 1447.02 65.1819 1445.68 Q67.4272 1443.16 68.3068 1441.42 Q69.2096 1439.66 69.2096 1437.97 Q69.2096 1435.22 67.2652 1433.48 Q65.3439 1431.75 62.2421 1431.75 Q60.043 1431.75 57.5893 1432.51 Q55.1588 1433.27 52.381 1434.82 L52.381 1430.1 Q55.2051 1428.97 57.6588 1428.39 Q60.1124 1427.81 62.1495 1427.81 Q67.5198 1427.81 70.7142 1430.5 Q73.9087 1433.18 73.9087 1437.67 Q73.9087 1439.8 73.0985 1441.72 Q72.3115 1443.62 70.205 1446.21 Q69.6263 1446.88 66.5245 1450.1 Q63.4226 1453.3 57.7745 1459.06 Z" fill="#ffffff" fill-rule="nonzero" fill-opacity="1" /><path clip-path="url(#clip790)" d="M83.9086 1457.12 L88.7928 1457.12 L88.7928 1463 L83.9086 1463 L83.9086 1457.12 Z" fill="#ffffff" fill-rule="nonzero" fill-opacity="1" /><path clip-path="url(#clip790)" d="M108.978 1431.51 Q105.367 1431.51 103.538 1435.08 Q101.733 1438.62 101.733 1445.75 Q101.733 1452.86 103.538 1456.42 Q105.367 1459.96 108.978 1459.96 Q112.612 1459.96 114.418 1456.42 Q116.246 1452.86 116.246 1445.75 Q116.246 1438.62 114.418 1435.08 Q112.612 1431.51 108.978 1431.51 M108.978 1427.81 Q114.788 1427.81 117.844 1432.42 Q120.922 1437 120.922 1445.75 Q120.922 1454.48 117.844 1459.08 Q114.788 1463.67 108.978 1463.67 Q103.168 1463.67 100.089 1459.08 Q97.0335 1454.48 97.0335 1445.75 Q97.0335 1437 100.089 1432.42 Q103.168 1427.81 108.978 1427.81 Z" fill="#ffffff" fill-rule="nonzero" fill-opacity="1" /><path clip-path="url(#clip790)" d="M58.7699 1176.2 L75.0892 1176.2 L75.0892 1180.13 L53.1449 1180.13 L53.1449 1176.2 Q55.8069 1173.44 60.3902 1168.81 Q64.9967 1164.16 66.1772 1162.82 Q68.4226 1160.3 69.3022 1158.56 Q70.205 1156.8 70.205 1155.11 Q70.205 1152.36 68.2606 1150.62 Q66.3393 1148.88 63.2374 1148.88 Q61.0384 1148.88 58.5847 1149.65 Q56.1541 1150.41 53.3764 1151.96 L53.3764 1147.24 Q56.2004 1146.11 58.6541 1145.53 Q61.1078 1144.95 63.1448 1144.95 Q68.5152 1144.95 71.7096 1147.63 Q74.904 1150.32 74.904 1154.81 Q74.904 1156.94 74.0939 1158.86 Q73.3068 1160.76 71.2004 1163.35 Q70.6217 1164.02 67.5198 1167.24 Q64.418 1170.43 58.7699 1176.2 Z" fill="#ffffff" fill-rule="nonzero" fill-opacity="1" /><path clip-path="url(#clip790)" d="M84.904 1174.25 L89.7882 1174.25 L89.7882 1180.13 L84.904 1180.13 L84.904 1174.25 Z" fill="#ffffff" fill-rule="nonzero" fill-opacity="1" /><path clip-path="url(#clip790)" d="M100.02 1145.57 L118.376 1145.57 L118.376 1149.51 L104.302 1149.51 L104.302 1157.98 Q105.321 1157.63 106.339 1157.47 Q107.358 1157.29 108.376 1157.29 Q114.163 1157.29 117.543 1160.46 Q120.922 1163.63 120.922 1169.05 Q120.922 1174.62 117.45 1177.73 Q113.978 1180.8 107.658 1180.8 Q105.483 1180.8 103.214 1180.43 Q100.969 1180.06 98.5613 1179.32 L98.5613 1174.62 Q100.645 1175.76 102.867 1176.31 Q105.089 1176.87 107.566 1176.87 Q111.571 1176.87 113.908 1174.76 Q116.246 1172.66 116.246 1169.05 Q116.246 1165.43 113.908 1163.33 Q111.571 1161.22 107.566 1161.22 Q105.691 1161.22 103.816 1161.64 Q101.964 1162.05 100.02 1162.93 L100.02 1145.57 Z" fill="#ffffff" fill-rule="nonzero" fill-opacity="1" /><path clip-path="url(#clip790)" d="M67.9133 878.637 Q71.2698 879.354 73.1448 881.623 Q75.0429 883.891 75.0429 887.225 Q75.0429 892.34 71.5244 895.141 Q68.0059 897.942 61.5245 897.942 Q59.3486 897.942 57.0338 897.502 Q54.7421 897.086 52.2884 896.229 L52.2884 891.715 Q54.2328 892.85 56.5477 893.428 Q58.8625 894.007 61.3856 894.007 Q65.7837 894.007 68.0754 892.271 Q70.3902 890.535 70.3902 887.225 Q70.3902 884.169 68.2374 882.456 Q66.1078 880.72 62.2884 880.72 L58.2606 880.72 L58.2606 876.878 L62.4735 876.878 Q65.9226 876.878 67.7513 875.512 Q69.58 874.123 69.58 871.53 Q69.58 868.868 67.6819 867.456 Q65.8069 866.021 62.2884 866.021 Q60.3671 866.021 58.168 866.438 Q55.969 866.854 53.3301 867.734 L53.3301 863.567 Q55.9921 862.827 58.3069 862.456 Q60.6449 862.086 62.705 862.086 Q68.0291 862.086 71.1309 864.516 Q74.2327 866.924 74.2327 871.044 Q74.2327 873.915 72.5892 875.905 Q70.9457 877.873 67.9133 878.637 Z" fill="#ffffff" fill-rule="nonzero" fill-opacity="1" /><path clip-path="url(#clip790)" d="M83.9086 891.391 L88.7928 891.391 L88.7928 897.271 L83.9086 897.271 L83.9086 891.391 Z" fill="#ffffff" fill-rule="nonzero" fill-opacity="1" /><path clip-path="url(#clip790)" d="M108.978 865.79 Q105.367 865.79 103.538 869.354 Q101.733 872.896 101.733 880.026 Q101.733 887.132 103.538 890.697 Q105.367 894.239 108.978 894.239 Q112.612 894.239 114.418 890.697 Q116.246 887.132 116.246 880.026 Q116.246 872.896 114.418 869.354 Q112.612 865.79 108.978 865.79 M108.978 862.086 Q114.788 862.086 117.844 866.692 Q120.922 871.276 120.922 880.026 Q120.922 888.752 117.844 893.359 Q114.788 897.942 108.978 897.942 Q103.168 897.942 100.089 893.359 Q97.0335 888.752 97.0335 880.026 Q97.0335 871.276 100.089 866.692 Q103.168 862.086 108.978 862.086 Z" fill="#ffffff" fill-rule="nonzero" fill-opacity="1" /><path clip-path="url(#clip790)" d="M68.9087 595.774 Q72.2652 596.492 74.1402 598.76 Q76.0383 601.029 76.0383 604.362 Q76.0383 609.478 72.5198 612.279 Q69.0013 615.08 62.5198 615.08 Q60.3439 615.08 58.0291 614.64 Q55.7375 614.223 53.2838 613.367 L53.2838 608.853 Q55.2282 609.987 57.543 610.566 Q59.8578 611.145 62.381 611.145 Q66.7791 611.145 69.0707 609.409 Q71.3855 607.672 71.3855 604.362 Q71.3855 601.307 69.2328 599.594 Q67.1032 597.858 63.2837 597.858 L59.256 597.858 L59.256 594.015 L63.4689 594.015 Q66.918 594.015 68.7467 592.649 Q70.5754 591.261 70.5754 588.668 Q70.5754 586.006 68.6772 584.594 Q66.8022 583.159 63.2837 583.159 Q61.3624 583.159 59.1634 583.575 Q56.9643 583.992 54.3254 584.872 L54.3254 580.705 Q56.9875 579.964 59.3023 579.594 Q61.6402 579.224 63.7004 579.224 Q69.0244 579.224 72.1263 581.654 Q75.2281 584.061 75.2281 588.182 Q75.2281 591.052 73.5846 593.043 Q71.9411 595.011 68.9087 595.774 Z" fill="#ffffff" fill-rule="nonzero" fill-opacity="1" /><path clip-path="url(#clip790)" d="M84.904 608.529 L89.7882 608.529 L89.7882 614.409 L84.904 614.409 L84.904 608.529 Z" fill="#ffffff" fill-rule="nonzero" fill-opacity="1" /><path clip-path="url(#clip790)" d="M100.02 579.849 L118.376 579.849 L118.376 583.784 L104.302 583.784 L104.302 592.256 Q105.321 591.909 106.339 591.747 Q107.358 591.561 108.376 591.561 Q114.163 591.561 117.543 594.733 Q120.922 597.904 120.922 603.321 Q120.922 608.899 117.45 612.001 Q113.978 615.08 107.658 615.08 Q105.483 615.08 103.214 614.709 Q100.969 614.339 98.5613 613.598 L98.5613 608.899 Q100.645 610.034 102.867 610.589 Q105.089 611.145 107.566 611.145 Q111.571 611.145 113.908 609.038 Q116.246 606.932 116.246 603.321 Q116.246 599.71 113.908 597.603 Q111.571 595.497 107.566 595.497 Q105.691 595.497 103.816 595.913 Q101.964 596.33 100.02 597.21 L100.02 579.849 Z" fill="#ffffff" fill-rule="nonzero" fill-opacity="1" /><path clip-path="url(#clip790)" d="M66.5939 301.06 L54.7884 319.509 L66.5939 319.509 L66.5939 301.06 M65.367 296.986 L71.2466 296.986 L71.2466 319.509 L76.1772 319.509 L76.1772 323.398 L71.2466 323.398 L71.2466 331.546 L66.5939 331.546 L66.5939 323.398 L50.9921 323.398 L50.9921 318.884 L65.367 296.986 Z" fill="#ffffff" fill-rule="nonzero" fill-opacity="1" /><path clip-path="url(#clip790)" d="M83.9086 325.667 L88.7928 325.667 L88.7928 331.546 L83.9086 331.546 L83.9086 325.667 Z" fill="#ffffff" fill-rule="nonzero" fill-opacity="1" /><path clip-path="url(#clip790)" d="M108.978 300.065 Q105.367 300.065 103.538 303.63 Q101.733 307.171 101.733 314.301 Q101.733 321.407 103.538 324.972 Q105.367 328.514 108.978 328.514 Q112.612 328.514 114.418 324.972 Q116.246 321.407 116.246 314.301 Q116.246 307.171 114.418 303.63 Q112.612 300.065 108.978 300.065 M108.978 296.361 Q114.788 296.361 117.844 300.968 Q120.922 305.551 120.922 314.301 Q120.922 323.028 117.844 327.634 Q114.788 332.217 108.978 332.217 Q103.168 332.217 100.089 327.634 Q97.0335 323.028 97.0335 314.301 Q97.0335 305.551 100.089 300.968 Q103.168 296.361 108.978 296.361 Z" fill="#ffffff" fill-rule="nonzero" fill-opacity="1" /><line clip-path="url(#clip792)" x1="679.411" y1="597.129" x2="679.411" y2="549.129" style="stroke:#009af9; stroke-width:3.2; stroke-opacity:0.5"/>
<line clip-path="url(#clip792)" x1="679.411" y1="597.129" x2="631.411" y2="597.129" style="stroke:#009af9; stroke-width:3.2; stroke-opacity:0.5"/>
<line clip-path="url(#clip792)" x1="679.411" y1="597.129" x2="679.411" y2="645.129" style="stroke:#009af9; stroke-width:3.2; stroke-opacity:0.5"/>
<line clip-path="url(#clip792)" x1="679.411" y1="597.129" x2="727.411" y2="597.129" style="stroke:#009af9; stroke-width:3.2; stroke-opacity:0.5"/>
<line clip-path="url(#clip792)" x1="564.325" y1="879.991" x2="564.325" y2="831.991" style="stroke:#009af9; stroke-width:3.2; stroke-opacity:0.5"/>
<line clip-path="url(#clip792)" x1="564.325" y1="879.991" x2="516.325" y2="879.991" style="stroke:#009af9; stroke-width:3.2; stroke-opacity:0.5"/>
<line clip-path="url(#clip792)" x1="564.325" y1="879.991" x2="564.325" y2="927.991" style="stroke:#009af9; stroke-width:3.2; stroke-opacity:0.5"/>
<line clip-path="url(#clip792)" x1="564.325" y1="879.991" x2="612.325" y2="879.991" style="stroke:#009af9; stroke-width:3.2; stroke-opacity:0.5"/>
<line clip-path="url(#clip792)" x1="449.24" y1="766.846" x2="449.24" y2="718.846" style="stroke:#009af9; stroke-width:3.2; stroke-opacity:0.5"/>
<line clip-path="url(#clip792)" x1="449.24" y1="766.846" x2="401.24" y2="766.846" style="stroke:#009af9; stroke-width:3.2; stroke-opacity:0.5"/>
<line clip-path="url(#clip792)" x1="449.24" y1="766.846" x2="449.24" y2="814.846" style="stroke:#009af9; stroke-width:3.2; stroke-opacity:0.5"/>
<line clip-path="url(#clip792)" x1="449.24" y1="766.846" x2="497.24" y2="766.846" style="stroke:#009af9; stroke-width:3.2; stroke-opacity:0.5"/>
<line clip-path="url(#clip792)" x1="391.697" y1="823.418" x2="391.697" y2="775.418" style="stroke:#009af9; stroke-width:3.2; stroke-opacity:0.5"/>
<line clip-path="url(#clip792)" x1="391.697" y1="823.418" x2="343.697" y2="823.418" style="stroke:#009af9; stroke-width:3.2; stroke-opacity:0.5"/>
<line clip-path="url(#clip792)" x1="391.697" y1="823.418" x2="391.697" y2="871.418" style="stroke:#009af9; stroke-width:3.2; stroke-opacity:0.5"/>
<line clip-path="url(#clip792)" x1="391.697" y1="823.418" x2="439.697" y2="823.418" style="stroke:#009af9; stroke-width:3.2; stroke-opacity:0.5"/>
<line clip-path="url(#clip792)" x1="621.868" y1="540.556" x2="621.868" y2="492.556" style="stroke:#009af9; stroke-width:3.2; stroke-opacity:0.5"/>
<line clip-path="url(#clip792)" x1="621.868" y1="540.556" x2="573.868" y2="540.556" style="stroke:#009af9; stroke-width:3.2; stroke-opacity:0.5"/>
<line clip-path="url(#clip792)" x1="621.868" y1="540.556" x2="621.868" y2="588.556" style="stroke:#009af9; stroke-width:3.2; stroke-opacity:0.5"/>
<line clip-path="url(#clip792)" x1="621.868" y1="540.556" x2="669.868" y2="540.556" style="stroke:#009af9; stroke-width:3.2; stroke-opacity:0.5"/>
<line clip-path="url(#clip792)" x1="852.039" y1="370.839" x2="852.039" y2="322.839" style="stroke:#009af9; stroke-width:3.2; stroke-opacity:0.5"/>
<line clip-path="url(#clip792)" x1="852.039" y1="370.839" x2="804.039" y2="370.839" style="stroke:#009af9; stroke-width:3.2; stroke-opacity:0.5"/>
<line clip-path="url(#clip792)" x1="852.039" y1="370.839" x2="852.039" y2="418.839" style="stroke:#009af9; stroke-width:3.2; stroke-opacity:0.5"/>
<line clip-path="url(#clip792)" x1="852.039" y1="370.839" x2="900.039" y2="370.839" style="stroke:#009af9; stroke-width:3.2; stroke-opacity:0.5"/>
<line clip-path="url(#clip792)" x1="391.697" y1="653.701" x2="391.697" y2="605.701" style="stroke:#009af9; stroke-width:3.2; stroke-opacity:0.5"/>
<line clip-path="url(#clip792)" x1="391.697" y1="653.701" x2="343.697" y2="653.701" style="stroke:#009af9; stroke-width:3.2; stroke-opacity:0.5"/>
<line clip-path="url(#clip792)" x1="391.697" y1="653.701" x2="391.697" y2="701.701" style="stroke:#009af9; stroke-width:3.2; stroke-opacity:0.5"/>
<line clip-path="url(#clip792)" x1="391.697" y1="653.701" x2="439.697" y2="653.701" style="stroke:#009af9; stroke-width:3.2; stroke-opacity:0.5"/>
<line clip-path="url(#clip792)" x1="621.868" y1="653.701" x2="621.868" y2="605.701" style="stroke:#009af9; stroke-width:3.2; stroke-opacity:0.5"/>
<line clip-path="url(#clip792)" x1="621.868" y1="653.701" x2="573.868" y2="653.701" style="stroke:#009af9; stroke-width:3.2; stroke-opacity:0.5"/>
<line clip-path="url(#clip792)" x1="621.868" y1="653.701" x2="621.868" y2="701.701" style="stroke:#009af9; stroke-width:3.2; stroke-opacity:0.5"/>
<line clip-path="url(#clip792)" x1="621.868" y1="653.701" x2="669.868" y2="653.701" style="stroke:#009af9; stroke-width:3.2; stroke-opacity:0.5"/>
<line clip-path="url(#clip792)" x1="276.611" y1="936.563" x2="276.611" y2="888.563" style="stroke:#009af9; stroke-width:3.2; stroke-opacity:0.5"/>
<line clip-path="url(#clip792)" x1="276.611" y1="936.563" x2="228.611" y2="936.563" style="stroke:#009af9; stroke-width:3.2; stroke-opacity:0.5"/>
<line clip-path="url(#clip792)" x1="276.611" y1="936.563" x2="276.611" y2="984.563" style="stroke:#009af9; stroke-width:3.2; stroke-opacity:0.5"/>
<line clip-path="url(#clip792)" x1="276.611" y1="936.563" x2="324.611" y2="936.563" style="stroke:#009af9; stroke-width:3.2; stroke-opacity:0.5"/>
<line clip-path="url(#clip792)" x1="564.325" y1="823.418" x2="564.325" y2="775.418" style="stroke:#009af9; stroke-width:3.2; stroke-opacity:0.5"/>
<line clip-path="url(#clip792)" x1="564.325" y1="823.418" x2="516.325" y2="823.418" style="stroke:#009af9; stroke-width:3.2; stroke-opacity:0.5"/>
<line clip-path="url(#clip792)" x1="564.325" y1="823.418" x2="564.325" y2="871.418" style="stroke:#009af9; stroke-width:3.2; stroke-opacity:0.5"/>
<line clip-path="url(#clip792)" x1="564.325" y1="823.418" x2="612.325" y2="823.418" style="stroke:#009af9; stroke-width:3.2; stroke-opacity:0.5"/>
<line clip-path="url(#clip792)" x1="852.039" y1="483.984" x2="852.039" y2="435.984" style="stroke:#009af9; stroke-width:3.2; stroke-opacity:0.5"/>
<line clip-path="url(#clip792)" x1="852.039" y1="483.984" x2="804.039" y2="483.984" style="stroke:#009af9; stroke-width:3.2; stroke-opacity:0.5"/>
<line clip-path="url(#clip792)" x1="852.039" y1="483.984" x2="852.039" y2="531.984" style="stroke:#009af9; stroke-width:3.2; stroke-opacity:0.5"/>
<line clip-path="url(#clip792)" x1="852.039" y1="483.984" x2="900.039" y2="483.984" style="stroke:#009af9; stroke-width:3.2; stroke-opacity:0.5"/>
<line clip-path="url(#clip792)" x1="506.783" y1="653.701" x2="506.783" y2="605.701" style="stroke:#009af9; stroke-width:3.2; stroke-opacity:0.5"/>
<line clip-path="url(#clip792)" x1="506.783" y1="653.701" x2="458.783" y2="653.701" style="stroke:#009af9; stroke-width:3.2; stroke-opacity:0.5"/>
<line clip-path="url(#clip792)" x1="506.783" y1="653.701" x2="506.783" y2="701.701" style="stroke:#009af9; stroke-width:3.2; stroke-opacity:0.5"/>
<line clip-path="url(#clip792)" x1="506.783" y1="653.701" x2="554.783" y2="653.701" style="stroke:#009af9; stroke-width:3.2; stroke-opacity:0.5"/>
<line clip-path="url(#clip792)" x1="506.783" y1="879.991" x2="506.783" y2="831.991" style="stroke:#009af9; stroke-width:3.2; stroke-opacity:0.5"/>
<line clip-path="url(#clip792)" x1="506.783" y1="879.991" x2="458.783" y2="879.991" style="stroke:#009af9; stroke-width:3.2; stroke-opacity:0.5"/>
<line clip-path="url(#clip792)" x1="506.783" y1="879.991" x2="506.783" y2="927.991" style="stroke:#009af9; stroke-width:3.2; stroke-opacity:0.5"/>
<line clip-path="url(#clip792)" x1="506.783" y1="879.991" x2="554.783" y2="879.991" style="stroke:#009af9; stroke-width:3.2; stroke-opacity:0.5"/>
<line clip-path="url(#clip792)" x1="219.069" y1="879.991" x2="219.069" y2="831.991" style="stroke:#009af9; stroke-width:3.2; stroke-opacity:0.5"/>
<line clip-path="url(#clip792)" x1="219.069" y1="879.991" x2="171.069" y2="879.991" style="stroke:#009af9; stroke-width:3.2; stroke-opacity:0.5"/>
<line clip-path="url(#clip792)" x1="219.069" y1="879.991" x2="219.069" y2="927.991" style="stroke:#009af9; stroke-width:3.2; stroke-opacity:0.5"/>
<line clip-path="url(#clip792)" x1="219.069" y1="879.991" x2="267.069" y2="879.991" style="stroke:#009af9; stroke-width:3.2; stroke-opacity:0.5"/>
<line clip-path="url(#clip792)" x1="1082.21" y1="314.266" x2="1082.21" y2="266.266" style="stroke:#009af9; stroke-width:3.2; stroke-opacity:0.5"/>
<line clip-path="url(#clip792)" x1="1082.21" y1="314.266" x2="1034.21" y2="314.266" style="stroke:#009af9; stroke-width:3.2; stroke-opacity:0.5"/>
<line clip-path="url(#clip792)" x1="1082.21" y1="314.266" x2="1082.21" y2="362.266" style="stroke:#009af9; stroke-width:3.2; stroke-opacity:0.5"/>
<line clip-path="url(#clip792)" x1="1082.21" y1="314.266" x2="1130.21" y2="314.266" style="stroke:#009af9; stroke-width:3.2; stroke-opacity:0.5"/>
<line clip-path="url(#clip792)" x1="1024.67" y1="87.9763" x2="1024.67" y2="39.9763" style="stroke:#009af9; stroke-width:3.2; stroke-opacity:0.5"/>
<line clip-path="url(#clip792)" x1="1024.67" y1="87.9763" x2="976.668" y2="87.9763" style="stroke:#009af9; stroke-width:3.2; stroke-opacity:0.5"/>
<line clip-path="url(#clip792)" x1="1024.67" y1="87.9763" x2="1024.67" y2="135.976" style="stroke:#009af9; stroke-width:3.2; stroke-opacity:0.5"/>
<line clip-path="url(#clip792)" x1="1024.67" y1="87.9763" x2="1072.67" y2="87.9763" style="stroke:#009af9; stroke-width:3.2; stroke-opacity:0.5"/>
<line clip-path="url(#clip792)" x1="852.039" y1="370.839" x2="852.039" y2="322.839" style="stroke:#009af9; stroke-width:3.2; stroke-opacity:0.5"/>
<line clip-path="url(#clip792)" x1="852.039" y1="370.839" x2="804.039" y2="370.839" style="stroke:#009af9; stroke-width:3.2; stroke-opacity:0.5"/>
<line clip-path="url(#clip792)" x1="852.039" y1="370.839" x2="852.039" y2="418.839" style="stroke:#009af9; stroke-width:3.2; stroke-opacity:0.5"/>
<line clip-path="url(#clip792)" x1="852.039" y1="370.839" x2="900.039" y2="370.839" style="stroke:#009af9; stroke-width:3.2; stroke-opacity:0.5"/>
<line clip-path="url(#clip792)" x1="679.411" y1="597.129" x2="679.411" y2="549.129" style="stroke:#009af9; stroke-width:3.2; stroke-opacity:0.5"/>
<line clip-path="url(#clip792)" x1="679.411" y1="597.129" x2="631.411" y2="597.129" style="stroke:#009af9; stroke-width:3.2; stroke-opacity:0.5"/>
<line clip-path="url(#clip792)" x1="679.411" y1="597.129" x2="679.411" y2="645.129" style="stroke:#009af9; stroke-width:3.2; stroke-opacity:0.5"/>
<line clip-path="url(#clip792)" x1="679.411" y1="597.129" x2="727.411" y2="597.129" style="stroke:#009af9; stroke-width:3.2; stroke-opacity:0.5"/>
<line clip-path="url(#clip792)" x1="1024.67" y1="427.411" x2="1024.67" y2="379.411" style="stroke:#009af9; stroke-width:3.2; stroke-opacity:0.5"/>
<line clip-path="url(#clip792)" x1="1024.67" y1="427.411" x2="976.668" y2="427.411" style="stroke:#009af9; stroke-width:3.2; stroke-opacity:0.5"/>
<line clip-path="url(#clip792)" x1="1024.67" y1="427.411" x2="1024.67" y2="475.411" style="stroke:#009af9; stroke-width:3.2; stroke-opacity:0.5"/>
<line clip-path="url(#clip792)" x1="1024.67" y1="427.411" x2="1072.67" y2="427.411" style="stroke:#009af9; stroke-width:3.2; stroke-opacity:0.5"/>
<line clip-path="url(#clip792)" x1="679.411" y1="427.411" x2="679.411" y2="379.411" style="stroke:#009af9; stroke-width:3.2; stroke-opacity:0.5"/>
<line clip-path="url(#clip792)" x1="679.411" y1="427.411" x2="631.411" y2="427.411" style="stroke:#009af9; stroke-width:3.2; stroke-opacity:0.5"/>
<line clip-path="url(#clip792)" x1="679.411" y1="427.411" x2="679.411" y2="475.411" style="stroke:#009af9; stroke-width:3.2; stroke-opacity:0.5"/>
<line clip-path="url(#clip792)" x1="679.411" y1="427.411" x2="727.411" y2="427.411" style="stroke:#009af9; stroke-width:3.2; stroke-opacity:0.5"/>
<line clip-path="url(#clip792)" x1="852.039" y1="653.701" x2="852.039" y2="605.701" style="stroke:#009af9; stroke-width:3.2; stroke-opacity:0.5"/>
<line clip-path="url(#clip792)" x1="852.039" y1="653.701" x2="804.039" y2="653.701" style="stroke:#009af9; stroke-width:3.2; stroke-opacity:0.5"/>
<line clip-path="url(#clip792)" x1="852.039" y1="653.701" x2="852.039" y2="701.701" style="stroke:#009af9; stroke-width:3.2; stroke-opacity:0.5"/>
<line clip-path="url(#clip792)" x1="852.039" y1="653.701" x2="900.039" y2="653.701" style="stroke:#009af9; stroke-width:3.2; stroke-opacity:0.5"/>
<line clip-path="url(#clip792)" x1="679.411" y1="483.984" x2="679.411" y2="435.984" style="stroke:#009af9; stroke-width:3.2; stroke-opacity:0.5"/>
<line clip-path="url(#clip792)" x1="679.411" y1="483.984" x2="631.411" y2="483.984" style="stroke:#009af9; stroke-width:3.2; stroke-opacity:0.5"/>
<line clip-path="url(#clip792)" x1="679.411" y1="483.984" x2="679.411" y2="531.984" style="stroke:#009af9; stroke-width:3.2; stroke-opacity:0.5"/>
<line clip-path="url(#clip792)" x1="679.411" y1="483.984" x2="727.411" y2="483.984" style="stroke:#009af9; stroke-width:3.2; stroke-opacity:0.5"/>
<line clip-path="url(#clip792)" x1="391.697" y1="540.556" x2="391.697" y2="492.556" style="stroke:#009af9; stroke-width:3.2; stroke-opacity:0.5"/>
<line clip-path="url(#clip792)" x1="391.697" y1="540.556" x2="343.697" y2="540.556" style="stroke:#009af9; stroke-width:3.2; stroke-opacity:0.5"/>
<line clip-path="url(#clip792)" x1="391.697" y1="540.556" x2="391.697" y2="588.556" style="stroke:#009af9; stroke-width:3.2; stroke-opacity:0.5"/>
<line clip-path="url(#clip792)" x1="391.697" y1="540.556" x2="439.697" y2="540.556" style="stroke:#009af9; stroke-width:3.2; stroke-opacity:0.5"/>
<line clip-path="url(#clip792)" x1="679.411" y1="710.274" x2="679.411" y2="662.274" style="stroke:#009af9; stroke-width:3.2; stroke-opacity:0.5"/>
<line clip-path="url(#clip792)" x1="679.411" y1="710.274" x2="631.411" y2="710.274" style="stroke:#009af9; stroke-width:3.2; stroke-opacity:0.5"/>
<line clip-path="url(#clip792)" x1="679.411" y1="710.274" x2="679.411" y2="758.274" style="stroke:#009af9; stroke-width:3.2; stroke-opacity:0.5"/>
<line clip-path="url(#clip792)" x1="679.411" y1="710.274" x2="727.411" y2="710.274" style="stroke:#009af9; stroke-width:3.2; stroke-opacity:0.5"/>
<line clip-path="url(#clip792)" x1="506.783" y1="653.701" x2="506.783" y2="605.701" style="stroke:#009af9; stroke-width:3.2; stroke-opacity:0.5"/>
<line clip-path="url(#clip792)" x1="506.783" y1="653.701" x2="458.783" y2="653.701" style="stroke:#009af9; stroke-width:3.2; stroke-opacity:0.5"/>
<line clip-path="url(#clip792)" x1="506.783" y1="653.701" x2="506.783" y2="701.701" style="stroke:#009af9; stroke-width:3.2; stroke-opacity:0.5"/>
<line clip-path="url(#clip792)" x1="506.783" y1="653.701" x2="554.783" y2="653.701" style="stroke:#009af9; stroke-width:3.2; stroke-opacity:0.5"/>
<line clip-path="url(#clip792)" x1="621.868" y1="879.991" x2="621.868" y2="831.991" style="stroke:#009af9; stroke-width:3.2; stroke-opacity:0.5"/>
<line clip-path="url(#clip792)" x1="621.868" y1="879.991" x2="573.868" y2="879.991" style="stroke:#009af9; stroke-width:3.2; stroke-opacity:0.5"/>
<line clip-path="url(#clip792)" x1="621.868" y1="879.991" x2="621.868" y2="927.991" style="stroke:#009af9; stroke-width:3.2; stroke-opacity:0.5"/>
<line clip-path="url(#clip792)" x1="621.868" y1="879.991" x2="669.868" y2="879.991" style="stroke:#009af9; stroke-width:3.2; stroke-opacity:0.5"/>
<line clip-path="url(#clip792)" x1="621.868" y1="653.701" x2="621.868" y2="605.701" style="stroke:#009af9; stroke-width:3.2; stroke-opacity:0.5"/>
<line clip-path="url(#clip792)" x1="621.868" y1="653.701" x2="573.868" y2="653.701" style="stroke:#009af9; stroke-width:3.2; stroke-opacity:0.5"/>
<line clip-path="url(#clip792)" x1="621.868" y1="653.701" x2="621.868" y2="701.701" style="stroke:#009af9; stroke-width:3.2; stroke-opacity:0.5"/>
<line clip-path="url(#clip792)" x1="621.868" y1="653.701" x2="669.868" y2="653.701" style="stroke:#009af9; stroke-width:3.2; stroke-opacity:0.5"/>
<line clip-path="url(#clip792)" x1="736.954" y1="597.129" x2="736.954" y2="549.129" style="stroke:#009af9; stroke-width:3.2; stroke-opacity:0.5"/>
<line clip-path="url(#clip792)" x1="736.954" y1="597.129" x2="688.954" y2="597.129" style="stroke:#009af9; stroke-width:3.2; stroke-opacity:0.5"/>
<line clip-path="url(#clip792)" x1="736.954" y1="597.129" x2="736.954" y2="645.129" style="stroke:#009af9; stroke-width:3.2; stroke-opacity:0.5"/>
<line clip-path="url(#clip792)" x1="736.954" y1="597.129" x2="784.954" y2="597.129" style="stroke:#009af9; stroke-width:3.2; stroke-opacity:0.5"/>
<line clip-path="url(#clip792)" x1="736.954" y1="653.701" x2="736.954" y2="605.701" style="stroke:#009af9; stroke-width:3.2; stroke-opacity:0.5"/>
<line clip-path="url(#clip792)" x1="736.954" y1="653.701" x2="688.954" y2="653.701" style="stroke:#009af9; stroke-width:3.2; stroke-opacity:0.5"/>
<line clip-path="url(#clip792)" x1="736.954" y1="653.701" x2="736.954" y2="701.701" style="stroke:#009af9; stroke-width:3.2; stroke-opacity:0.5"/>
<line clip-path="url(#clip792)" x1="736.954" y1="653.701" x2="784.954" y2="653.701" style="stroke:#009af9; stroke-width:3.2; stroke-opacity:0.5"/>
<line clip-path="url(#clip792)" x1="449.24" y1="766.846" x2="449.24" y2="718.846" style="stroke:#009af9; stroke-width:3.2; stroke-opacity:0.5"/>
<line clip-path="url(#clip792)" x1="449.24" y1="766.846" x2="401.24" y2="766.846" style="stroke:#009af9; stroke-width:3.2; stroke-opacity:0.5"/>
<line clip-path="url(#clip792)" x1="449.24" y1="766.846" x2="449.24" y2="814.846" style="stroke:#009af9; stroke-width:3.2; stroke-opacity:0.5"/>
<line clip-path="url(#clip792)" x1="449.24" y1="766.846" x2="497.24" y2="766.846" style="stroke:#009af9; stroke-width:3.2; stroke-opacity:0.5"/>
<line clip-path="url(#clip792)" x1="506.783" y1="823.418" x2="506.783" y2="775.418" style="stroke:#009af9; stroke-width:3.2; stroke-opacity:0.5"/>
<line clip-path="url(#clip792)" x1="506.783" y1="823.418" x2="458.783" y2="823.418" style="stroke:#009af9; stroke-width:3.2; stroke-opacity:0.5"/>
<line clip-path="url(#clip792)" x1="506.783" y1="823.418" x2="506.783" y2="871.418" style="stroke:#009af9; stroke-width:3.2; stroke-opacity:0.5"/>
<line clip-path="url(#clip792)" x1="506.783" y1="823.418" x2="554.783" y2="823.418" style="stroke:#009af9; stroke-width:3.2; stroke-opacity:0.5"/>
<line clip-path="url(#clip792)" x1="852.039" y1="653.701" x2="852.039" y2="605.701" style="stroke:#009af9; stroke-width:3.2; stroke-opacity:0.5"/>
<line clip-path="url(#clip792)" x1="852.039" y1="653.701" x2="804.039" y2="653.701" style="stroke:#009af9; stroke-width:3.2; stroke-opacity:0.5"/>
<line clip-path="url(#clip792)" x1="852.039" y1="653.701" x2="852.039" y2="701.701" style="stroke:#009af9; stroke-width:3.2; stroke-opacity:0.5"/>
<line clip-path="url(#clip792)" x1="852.039" y1="653.701" x2="900.039" y2="653.701" style="stroke:#009af9; stroke-width:3.2; stroke-opacity:0.5"/>
<line clip-path="url(#clip792)" x1="736.954" y1="257.694" x2="736.954" y2="209.694" style="stroke:#009af9; stroke-width:3.2; stroke-opacity:0.5"/>
<line clip-path="url(#clip792)" x1="736.954" y1="257.694" x2="688.954" y2="257.694" style="stroke:#009af9; stroke-width:3.2; stroke-opacity:0.5"/>
<line clip-path="url(#clip792)" x1="736.954" y1="257.694" x2="736.954" y2="305.694" style="stroke:#009af9; stroke-width:3.2; stroke-opacity:0.5"/>
<line clip-path="url(#clip792)" x1="736.954" y1="257.694" x2="784.954" y2="257.694" style="stroke:#009af9; stroke-width:3.2; stroke-opacity:0.5"/>
<line clip-path="url(#clip792)" x1="909.582" y1="201.121" x2="909.582" y2="153.121" style="stroke:#009af9; stroke-width:3.2; stroke-opacity:0.5"/>
<line clip-path="url(#clip792)" x1="909.582" y1="201.121" x2="861.582" y2="201.121" style="stroke:#009af9; stroke-width:3.2; stroke-opacity:0.5"/>
<line clip-path="url(#clip792)" x1="909.582" y1="201.121" x2="909.582" y2="249.121" style="stroke:#009af9; stroke-width:3.2; stroke-opacity:0.5"/>
<line clip-path="url(#clip792)" x1="909.582" y1="201.121" x2="957.582" y2="201.121" style="stroke:#009af9; stroke-width:3.2; stroke-opacity:0.5"/>
<line clip-path="url(#clip792)" x1="564.325" y1="823.418" x2="564.325" y2="775.418" style="stroke:#009af9; stroke-width:3.2; stroke-opacity:0.5"/>
<line clip-path="url(#clip792)" x1="564.325" y1="823.418" x2="516.325" y2="823.418" style="stroke:#009af9; stroke-width:3.2; stroke-opacity:0.5"/>
<line clip-path="url(#clip792)" x1="564.325" y1="823.418" x2="564.325" y2="871.418" style="stroke:#009af9; stroke-width:3.2; stroke-opacity:0.5"/>
<line clip-path="url(#clip792)" x1="564.325" y1="823.418" x2="612.325" y2="823.418" style="stroke:#009af9; stroke-width:3.2; stroke-opacity:0.5"/>
<line clip-path="url(#clip792)" x1="621.868" y1="766.846" x2="621.868" y2="718.846" style="stroke:#009af9; stroke-width:3.2; stroke-opacity:0.5"/>
<line clip-path="url(#clip792)" x1="621.868" y1="766.846" x2="573.868" y2="766.846" style="stroke:#009af9; stroke-width:3.2; stroke-opacity:0.5"/>
<line clip-path="url(#clip792)" x1="621.868" y1="766.846" x2="621.868" y2="814.846" style="stroke:#009af9; stroke-width:3.2; stroke-opacity:0.5"/>
<line clip-path="url(#clip792)" x1="621.868" y1="766.846" x2="669.868" y2="766.846" style="stroke:#009af9; stroke-width:3.2; stroke-opacity:0.5"/>
<line clip-path="url(#clip792)" x1="909.582" y1="597.129" x2="909.582" y2="549.129" style="stroke:#009af9; stroke-width:3.2; stroke-opacity:0.5"/>
<line clip-path="url(#clip792)" x1="909.582" y1="597.129" x2="861.582" y2="597.129" style="stroke:#009af9; stroke-width:3.2; stroke-opacity:0.5"/>
<line clip-path="url(#clip792)" x1="909.582" y1="597.129" x2="909.582" y2="645.129" style="stroke:#009af9; stroke-width:3.2; stroke-opacity:0.5"/>
<line clip-path="url(#clip792)" x1="909.582" y1="597.129" x2="957.582" y2="597.129" style="stroke:#009af9; stroke-width:3.2; stroke-opacity:0.5"/>
<line clip-path="url(#clip792)" x1="564.325" y1="540.556" x2="564.325" y2="492.556" style="stroke:#009af9; stroke-width:3.2; stroke-opacity:0.5"/>
<line clip-path="url(#clip792)" x1="564.325" y1="540.556" x2="516.325" y2="540.556" style="stroke:#009af9; stroke-width:3.2; stroke-opacity:0.5"/>
<line clip-path="url(#clip792)" x1="564.325" y1="540.556" x2="564.325" y2="588.556" style="stroke:#009af9; stroke-width:3.2; stroke-opacity:0.5"/>
<line clip-path="url(#clip792)" x1="564.325" y1="540.556" x2="612.325" y2="540.556" style="stroke:#009af9; stroke-width:3.2; stroke-opacity:0.5"/>
<line clip-path="url(#clip792)" x1="276.611" y1="879.991" x2="276.611" y2="831.991" style="stroke:#009af9; stroke-width:3.2; stroke-opacity:0.5"/>
<line clip-path="url(#clip792)" x1="276.611" y1="879.991" x2="228.611" y2="879.991" style="stroke:#009af9; stroke-width:3.2; stroke-opacity:0.5"/>
<line clip-path="url(#clip792)" x1="276.611" y1="879.991" x2="276.611" y2="927.991" style="stroke:#009af9; stroke-width:3.2; stroke-opacity:0.5"/>
<line clip-path="url(#clip792)" x1="276.611" y1="879.991" x2="324.611" y2="879.991" style="stroke:#009af9; stroke-width:3.2; stroke-opacity:0.5"/>
<line clip-path="url(#clip792)" x1="679.411" y1="653.701" x2="679.411" y2="605.701" style="stroke:#009af9; stroke-width:3.2; stroke-opacity:0.5"/>
<line clip-path="url(#clip792)" x1="679.411" y1="653.701" x2="631.411" y2="653.701" style="stroke:#009af9; stroke-width:3.2; stroke-opacity:0.5"/>
<line clip-path="url(#clip792)" x1="679.411" y1="653.701" x2="679.411" y2="701.701" style="stroke:#009af9; stroke-width:3.2; stroke-opacity:0.5"/>
<line clip-path="url(#clip792)" x1="679.411" y1="653.701" x2="727.411" y2="653.701" style="stroke:#009af9; stroke-width:3.2; stroke-opacity:0.5"/>
<line clip-path="url(#clip792)" x1="621.868" y1="597.129" x2="621.868" y2="549.129" style="stroke:#009af9; stroke-width:3.2; stroke-opacity:0.5"/>
<line clip-path="url(#clip792)" x1="621.868" y1="597.129" x2="573.868" y2="597.129" style="stroke:#009af9; stroke-width:3.2; stroke-opacity:0.5"/>
<line clip-path="url(#clip792)" x1="621.868" y1="597.129" x2="621.868" y2="645.129" style="stroke:#009af9; stroke-width:3.2; stroke-opacity:0.5"/>
<line clip-path="url(#clip792)" x1="621.868" y1="597.129" x2="669.868" y2="597.129" style="stroke:#009af9; stroke-width:3.2; stroke-opacity:0.5"/>
<line clip-path="url(#clip792)" x1="334.154" y1="1276" x2="334.154" y2="1228" style="stroke:#009af9; stroke-width:3.2; stroke-opacity:0.5"/>
<line clip-path="url(#clip792)" x1="334.154" y1="1276" x2="286.154" y2="1276" style="stroke:#009af9; stroke-width:3.2; stroke-opacity:0.5"/>
<line clip-path="url(#clip792)" x1="334.154" y1="1276" x2="334.154" y2="1324" style="stroke:#009af9; stroke-width:3.2; stroke-opacity:0.5"/>
<line clip-path="url(#clip792)" x1="334.154" y1="1276" x2="382.154" y2="1276" style="stroke:#009af9; stroke-width:3.2; stroke-opacity:0.5"/>
<line clip-path="url(#clip792)" x1="276.611" y1="766.846" x2="276.611" y2="718.846" style="stroke:#009af9; stroke-width:3.2; stroke-opacity:0.5"/>
<line clip-path="url(#clip792)" x1="276.611" y1="766.846" x2="228.611" y2="766.846" style="stroke:#009af9; stroke-width:3.2; stroke-opacity:0.5"/>
<line clip-path="url(#clip792)" x1="276.611" y1="766.846" x2="276.611" y2="814.846" style="stroke:#009af9; stroke-width:3.2; stroke-opacity:0.5"/>
<line clip-path="url(#clip792)" x1="276.611" y1="766.846" x2="324.611" y2="766.846" style="stroke:#009af9; stroke-width:3.2; stroke-opacity:0.5"/>
<line clip-path="url(#clip792)" x1="621.868" y1="597.129" x2="621.868" y2="549.129" style="stroke:#009af9; stroke-width:3.2; stroke-opacity:0.5"/>
<line clip-path="url(#clip792)" x1="621.868" y1="597.129" x2="573.868" y2="597.129" style="stroke:#009af9; stroke-width:3.2; stroke-opacity:0.5"/>
<line clip-path="url(#clip792)" x1="621.868" y1="597.129" x2="621.868" y2="645.129" style="stroke:#009af9; stroke-width:3.2; stroke-opacity:0.5"/>
<line clip-path="url(#clip792)" x1="621.868" y1="597.129" x2="669.868" y2="597.129" style="stroke:#009af9; stroke-width:3.2; stroke-opacity:0.5"/>
<line clip-path="url(#clip792)" x1="679.411" y1="427.411" x2="679.411" y2="379.411" style="stroke:#009af9; stroke-width:3.2; stroke-opacity:0.5"/>
<line clip-path="url(#clip792)" x1="679.411" y1="427.411" x2="631.411" y2="427.411" style="stroke:#009af9; stroke-width:3.2; stroke-opacity:0.5"/>
<line clip-path="url(#clip792)" x1="679.411" y1="427.411" x2="679.411" y2="475.411" style="stroke:#009af9; stroke-width:3.2; stroke-opacity:0.5"/>
<line clip-path="url(#clip792)" x1="679.411" y1="427.411" x2="727.411" y2="427.411" style="stroke:#009af9; stroke-width:3.2; stroke-opacity:0.5"/>
<line clip-path="url(#clip792)" x1="506.783" y1="879.991" x2="506.783" y2="831.991" style="stroke:#009af9; stroke-width:3.2; stroke-opacity:0.5"/>
<line clip-path="url(#clip792)" x1="506.783" y1="879.991" x2="458.783" y2="879.991" style="stroke:#009af9; stroke-width:3.2; stroke-opacity:0.5"/>
<line clip-path="url(#clip792)" x1="506.783" y1="879.991" x2="506.783" y2="927.991" style="stroke:#009af9; stroke-width:3.2; stroke-opacity:0.5"/>
<line clip-path="url(#clip792)" x1="506.783" y1="879.991" x2="554.783" y2="879.991" style="stroke:#009af9; stroke-width:3.2; stroke-opacity:0.5"/>
<line clip-path="url(#clip792)" x1="679.411" y1="427.411" x2="679.411" y2="379.411" style="stroke:#009af9; stroke-width:3.2; stroke-opacity:0.5"/>
<line clip-path="url(#clip792)" x1="679.411" y1="427.411" x2="631.411" y2="427.411" style="stroke:#009af9; stroke-width:3.2; stroke-opacity:0.5"/>
<line clip-path="url(#clip792)" x1="679.411" y1="427.411" x2="679.411" y2="475.411" style="stroke:#009af9; stroke-width:3.2; stroke-opacity:0.5"/>
<line clip-path="url(#clip792)" x1="679.411" y1="427.411" x2="727.411" y2="427.411" style="stroke:#009af9; stroke-width:3.2; stroke-opacity:0.5"/>
<line clip-path="url(#clip792)" x1="391.697" y1="766.846" x2="391.697" y2="718.846" style="stroke:#009af9; stroke-width:3.2; stroke-opacity:0.5"/>
<line clip-path="url(#clip792)" x1="391.697" y1="766.846" x2="343.697" y2="766.846" style="stroke:#009af9; stroke-width:3.2; stroke-opacity:0.5"/>
<line clip-path="url(#clip792)" x1="391.697" y1="766.846" x2="391.697" y2="814.846" style="stroke:#009af9; stroke-width:3.2; stroke-opacity:0.5"/>
<line clip-path="url(#clip792)" x1="391.697" y1="766.846" x2="439.697" y2="766.846" style="stroke:#009af9; stroke-width:3.2; stroke-opacity:0.5"/>
<line clip-path="url(#clip792)" x1="794.497" y1="483.984" x2="794.497" y2="435.984" style="stroke:#009af9; stroke-width:3.2; stroke-opacity:0.5"/>
<line clip-path="url(#clip792)" x1="794.497" y1="483.984" x2="746.497" y2="483.984" style="stroke:#009af9; stroke-width:3.2; stroke-opacity:0.5"/>
<line clip-path="url(#clip792)" x1="794.497" y1="483.984" x2="794.497" y2="531.984" style="stroke:#009af9; stroke-width:3.2; stroke-opacity:0.5"/>
<line clip-path="url(#clip792)" x1="794.497" y1="483.984" x2="842.497" y2="483.984" style="stroke:#009af9; stroke-width:3.2; stroke-opacity:0.5"/>
<line clip-path="url(#clip792)" x1="621.868" y1="710.274" x2="621.868" y2="662.274" style="stroke:#009af9; stroke-width:3.2; stroke-opacity:0.5"/>
<line clip-path="url(#clip792)" x1="621.868" y1="710.274" x2="573.868" y2="710.274" style="stroke:#009af9; stroke-width:3.2; stroke-opacity:0.5"/>
<line clip-path="url(#clip792)" x1="621.868" y1="710.274" x2="621.868" y2="758.274" style="stroke:#009af9; stroke-width:3.2; stroke-opacity:0.5"/>
<line clip-path="url(#clip792)" x1="621.868" y1="710.274" x2="669.868" y2="710.274" style="stroke:#009af9; stroke-width:3.2; stroke-opacity:0.5"/>
<path clip-path="url(#clip792)" d="M1772.72 814.846 L1731.16 790.846 L1731.16 742.846 L1772.72 718.846 L1814.29 742.846 L1814.29 790.846 Z" fill="#e26f46" fill-rule="evenodd" fill-opacity="0.5" stroke="#ffffff" stroke-opacity="0.5" stroke-width="3.2"/>
<path clip-path="url(#clip792)" d="M1427.47 814.846 L1385.9 790.846 L1385.9 742.846 L1427.47 718.846 L1469.04 742.846 L1469.04 790.846 Z" fill="#e26f46" fill-rule="evenodd" fill-opacity="0.5" stroke="#ffffff" stroke-opacity="0.5" stroke-width="3.2"/>
<path clip-path="url(#clip792)" d="M1715.18 871.418 L1673.61 847.418 L1673.61 799.418 L1715.18 775.418 L1756.75 799.418 L1756.75 847.418 Z" fill="#e26f46" fill-rule="evenodd" fill-opacity="0.5" stroke="#ffffff" stroke-opacity="0.5" stroke-width="3.2"/>
<path clip-path="url(#clip792)" d="M909.582 1324 L868.014 1300 L868.014 1252 L909.582 1228 L951.15 1252 L951.15 1300 Z" fill="#e26f46" fill-rule="evenodd" fill-opacity="0.5" stroke="#ffffff" stroke-opacity="0.5" stroke-width="3.2"/>
<path clip-path="url(#clip792)" d="M1485.01 1041.14 L1443.44 1017.14 L1443.44 969.136 L1485.01 945.136 L1526.58 969.136 L1526.58 1017.14 Z" fill="#e26f46" fill-rule="evenodd" fill-opacity="0.5" stroke="#ffffff" stroke-opacity="0.5" stroke-width="3.2"/>
<path clip-path="url(#clip792)" d="M1024.67 1041.14 L983.1 1017.14 L983.1 969.136 L1024.67 945.136 L1066.24 969.136 L1066.24 1017.14 Z" fill="#e26f46" fill-rule="evenodd" fill-opacity="0.5" stroke="#ffffff" stroke-opacity="0.5" stroke-width="3.2"/>
<path clip-path="url(#clip792)" d="M1369.92 758.274 L1328.36 734.274 L1328.36 686.274 L1369.92 662.274 L1411.49 686.274 L1411.49 734.274 Z" fill="#e26f46" fill-rule="evenodd" fill-opacity="0.5" stroke="#ffffff" stroke-opacity="0.5" stroke-width="3.2"/>
<path clip-path="url(#clip792)" d="M564.325 1267.43 L522.757 1243.43 L522.757 1195.43 L564.325 1171.43 L605.893 1195.43 L605.893 1243.43 Z" fill="#e26f46" fill-rule="evenodd" fill-opacity="0.5" stroke="#ffffff" stroke-opacity="0.5" stroke-width="3.2"/>
<path clip-path="url(#clip792)" d="M1542.55 984.563 L1500.99 960.563 L1500.99 912.563 L1542.55 888.563 L1584.12 912.563 L1584.12 960.563 Z" fill="#e26f46" fill-rule="evenodd" fill-opacity="0.5" stroke="#ffffff" stroke-opacity="0.5" stroke-width="3.2"/>
<path clip-path="url(#clip792)" d="M736.954 1097.71 L695.386 1073.71 L695.386 1025.71 L736.954 1001.71 L778.522 1025.71 L778.522 1073.71 Z" fill="#e26f46" fill-rule="evenodd" fill-opacity="0.5" stroke="#ffffff" stroke-opacity="0.5" stroke-width="3.2"/>
<path clip-path="url(#clip792)" d="M621.868 1493.72 L580.3 1469.72 L580.3 1421.72 L621.868 1397.72 L663.436 1421.72 L663.436 1469.72 Z" fill="#e26f46" fill-rule="evenodd" fill-opacity="0.5" stroke="#ffffff" stroke-opacity="0.5" stroke-width="3.2"/>
<path clip-path="url(#clip792)" d="M1139.75 927.991 L1098.19 903.991 L1098.19 855.991 L1139.75 831.991 L1181.32 855.991 L1181.32 903.991 Z" fill="#e26f46" fill-rule="evenodd" fill-opacity="0.5" stroke="#ffffff" stroke-opacity="0.5" stroke-width="3.2"/>
<path clip-path="url(#clip792)" d="M1197.3 1380.57 L1155.73 1356.57 L1155.73 1308.57 L1197.3 1284.57 L1238.86 1308.57 L1238.86 1356.57 Z" fill="#e26f46" fill-rule="evenodd" fill-opacity="0.5" stroke="#ffffff" stroke-opacity="0.5" stroke-width="3.2"/>
<path clip-path="url(#clip792)" d="M1254.84 984.563 L1213.27 960.563 L1213.27 912.563 L1254.84 888.563 L1296.41 912.563 L1296.41 960.563 Z" fill="#e26f46" fill-rule="evenodd" fill-opacity="0.5" stroke="#ffffff" stroke-opacity="0.5" stroke-width="3.2"/>
<path clip-path="url(#clip792)" d="M967.125 984.563 L925.557 960.563 L925.557 912.563 L967.125 888.563 L1008.69 912.563 L1008.69 960.563 Z" fill="#e26f46" fill-rule="evenodd" fill-opacity="0.5" stroke="#ffffff" stroke-opacity="0.5" stroke-width="3.2"/>
<path clip-path="url(#clip792)" d="M1600.1 871.418 L1558.53 847.418 L1558.53 799.418 L1600.1 775.418 L1641.66 799.418 L1641.66 847.418 Z" fill="#e26f46" fill-rule="evenodd" fill-opacity="0.5" stroke="#ffffff" stroke-opacity="0.5" stroke-width="3.2"/>
<path clip-path="url(#clip792)" d="M967.125 927.991 L925.557 903.991 L925.557 855.991 L967.125 831.991 L1008.69 855.991 L1008.69 903.991 Z" fill="#e26f46" fill-rule="evenodd" fill-opacity="0.5" stroke="#ffffff" stroke-opacity="0.5" stroke-width="3.2"/>
<path clip-path="url(#clip792)" d="M1082.21 1097.71 L1040.64 1073.71 L1040.64 1025.71 L1082.21 1001.71 L1123.78 1025.71 L1123.78 1073.71 Z" fill="#e26f46" fill-rule="evenodd" fill-opacity="0.5" stroke="#ffffff" stroke-opacity="0.5" stroke-width="3.2"/>
<path clip-path="url(#clip792)" d="M1312.38 1380.57 L1270.81 1356.57 L1270.81 1308.57 L1312.38 1284.57 L1353.95 1308.57 L1353.95 1356.57 Z" fill="#e26f46" fill-rule="evenodd" fill-opacity="0.5" stroke="#ffffff" stroke-opacity="0.5" stroke-width="3.2"/>
<path clip-path="url(#clip792)" d="M967.125 1210.85 L925.557 1186.85 L925.557 1138.85 L967.125 1114.85 L1008.69 1138.85 L1008.69 1186.85 Z" fill="#e26f46" fill-rule="evenodd" fill-opacity="0.5" stroke="#ffffff" stroke-opacity="0.5" stroke-width="3.2"/>
<path clip-path="url(#clip792)" d="M1139.75 814.846 L1098.19 790.846 L1098.19 742.846 L1139.75 718.846 L1181.32 742.846 L1181.32 790.846 Z" fill="#e26f46" fill-rule="evenodd" fill-opacity="0.5" stroke="#ffffff" stroke-opacity="0.5" stroke-width="3.2"/>
<path clip-path="url(#clip792)" d="M1254.84 1041.14 L1213.27 1017.14 L1213.27 969.136 L1254.84 945.136 L1296.41 969.136 L1296.41 1017.14 Z" fill="#e26f46" fill-rule="evenodd" fill-opacity="0.5" stroke="#ffffff" stroke-opacity="0.5" stroke-width="3.2"/>
<path clip-path="url(#clip792)" d="M1369.92 1210.85 L1328.36 1186.85 L1328.36 1138.85 L1369.92 1114.85 L1411.49 1138.85 L1411.49 1186.85 Z" fill="#e26f46" fill-rule="evenodd" fill-opacity="0.5" stroke="#ffffff" stroke-opacity="0.5" stroke-width="3.2"/>
<path clip-path="url(#clip792)" d="M1254.84 1041.14 L1213.27 1017.14 L1213.27 969.136 L1254.84 945.136 L1296.41 969.136 L1296.41 1017.14 Z" fill="#e26f46" fill-rule="evenodd" fill-opacity="0.5" stroke="#ffffff" stroke-opacity="0.5" stroke-width="3.2"/>
<path clip-path="url(#clip792)" d="M1427.47 984.563 L1385.9 960.563 L1385.9 912.563 L1427.47 888.563 L1469.04 912.563 L1469.04 960.563 Z" fill="#e26f46" fill-rule="evenodd" fill-opacity="0.5" stroke="#ffffff" stroke-opacity="0.5" stroke-width="3.2"/>
<path clip-path="url(#clip792)" d="M1542.55 927.991 L1500.99 903.991 L1500.99 855.991 L1542.55 831.991 L1584.12 855.991 L1584.12 903.991 Z" fill="#e26f46" fill-rule="evenodd" fill-opacity="0.5" stroke="#ffffff" stroke-opacity="0.5" stroke-width="3.2"/>
<path clip-path="url(#clip792)" d="M1657.64 1041.14 L1616.07 1017.14 L1616.07 969.136 L1657.64 945.136 L1699.21 969.136 L1699.21 1017.14 Z" fill="#e26f46" fill-rule="evenodd" fill-opacity="0.5" stroke="#ffffff" stroke-opacity="0.5" stroke-width="3.2"/>
<path clip-path="url(#clip792)" d="M1600.1 927.991 L1558.53 903.991 L1558.53 855.991 L1600.1 831.991 L1641.66 855.991 L1641.66 903.991 Z" fill="#e26f46" fill-rule="evenodd" fill-opacity="0.5" stroke="#ffffff" stroke-opacity="0.5" stroke-width="3.2"/>
<path clip-path="url(#clip792)" d="M1197.3 984.563 L1155.73 960.563 L1155.73 912.563 L1197.3 888.563 L1238.86 912.563 L1238.86 960.563 Z" fill="#e26f46" fill-rule="evenodd" fill-opacity="0.5" stroke="#ffffff" stroke-opacity="0.5" stroke-width="3.2"/>
<path clip-path="url(#clip792)" d="M1024.67 1154.28 L983.1 1130.28 L983.1 1082.28 L1024.67 1058.28 L1066.24 1082.28 L1066.24 1130.28 Z" fill="#e26f46" fill-rule="evenodd" fill-opacity="0.5" stroke="#ffffff" stroke-opacity="0.5" stroke-width="3.2"/>
<path clip-path="url(#clip792)" d="M909.582 1267.43 L868.014 1243.43 L868.014 1195.43 L909.582 1171.43 L951.15 1195.43 L951.15 1243.43 Z" fill="#e26f46" fill-rule="evenodd" fill-opacity="0.5" stroke="#ffffff" stroke-opacity="0.5" stroke-width="3.2"/>
<path clip-path="url(#clip792)" d="M909.582 1267.43 L868.014 1243.43 L868.014 1195.43 L909.582 1171.43 L951.15 1195.43 L951.15 1243.43 Z" fill="#e26f46" fill-rule="evenodd" fill-opacity="0.5" stroke="#ffffff" stroke-opacity="0.5" stroke-width="3.2"/>
<path clip-path="url(#clip792)" d="M1082.21 1097.71 L1040.64 1073.71 L1040.64 1025.71 L1082.21 1001.71 L1123.78 1025.71 L1123.78 1073.71 Z" fill="#e26f46" fill-rule="evenodd" fill-opacity="0.5" stroke="#ffffff" stroke-opacity="0.5" stroke-width="3.2"/>
<path clip-path="url(#clip792)" d="M1197.3 1097.71 L1155.73 1073.71 L1155.73 1025.71 L1197.3 1001.71 L1238.86 1025.71 L1238.86 1073.71 Z" fill="#e26f46" fill-rule="evenodd" fill-opacity="0.5" stroke="#ffffff" stroke-opacity="0.5" stroke-width="3.2"/>
<path clip-path="url(#clip792)" d="M852.039 927.991 L810.471 903.991 L810.471 855.991 L852.039 831.991 L893.607 855.991 L893.607 903.991 Z" fill="#e26f46" fill-rule="evenodd" fill-opacity="0.5" stroke="#ffffff" stroke-opacity="0.5" stroke-width="3.2"/>
<path clip-path="url(#clip792)" d="M1197.3 701.701 L1155.73 677.701 L1155.73 629.701 L1197.3 605.701 L1238.86 629.701 L1238.86 677.701 Z" fill="#e26f46" fill-rule="evenodd" fill-opacity="0.5" stroke="#ffffff" stroke-opacity="0.5" stroke-width="3.2"/>
<path clip-path="url(#clip792)" d="M1600.1 871.418 L1558.53 847.418 L1558.53 799.418 L1600.1 775.418 L1641.66 799.418 L1641.66 847.418 Z" fill="#e26f46" fill-rule="evenodd" fill-opacity="0.5" stroke="#ffffff" stroke-opacity="0.5" stroke-width="3.2"/>
<path clip-path="url(#clip792)" d="M1369.92 1324 L1328.36 1300 L1328.36 1252 L1369.92 1228 L1411.49 1252 L1411.49 1300 Z" fill="#e26f46" fill-rule="evenodd" fill-opacity="0.5" stroke="#ffffff" stroke-opacity="0.5" stroke-width="3.2"/>
<path clip-path="url(#clip792)" d="M967.125 927.991 L925.557 903.991 L925.557 855.991 L967.125 831.991 L1008.69 855.991 L1008.69 903.991 Z" fill="#e26f46" fill-rule="evenodd" fill-opacity="0.5" stroke="#ffffff" stroke-opacity="0.5" stroke-width="3.2"/>
<path clip-path="url(#clip792)" d="M909.582 1210.85 L868.014 1186.85 L868.014 1138.85 L909.582 1114.85 L951.15 1138.85 L951.15 1186.85 Z" fill="#e26f46" fill-rule="evenodd" fill-opacity="0.5" stroke="#ffffff" stroke-opacity="0.5" stroke-width="3.2"/>
<path clip-path="url(#clip792)" d="M909.582 1154.28 L868.014 1130.28 L868.014 1082.28 L909.582 1058.28 L951.15 1082.28 L951.15 1130.28 Z" fill="#e26f46" fill-rule="evenodd" fill-opacity="0.5" stroke="#ffffff" stroke-opacity="0.5" stroke-width="3.2"/>
<path clip-path="url(#clip792)" d="M1254.84 927.991 L1213.27 903.991 L1213.27 855.991 L1254.84 831.991 L1296.41 855.991 L1296.41 903.991 Z" fill="#e26f46" fill-rule="evenodd" fill-opacity="0.5" stroke="#ffffff" stroke-opacity="0.5" stroke-width="3.2"/>
<path clip-path="url(#clip792)" d="M1082.21 1154.28 L1040.64 1130.28 L1040.64 1082.28 L1082.21 1058.28 L1123.78 1082.28 L1123.78 1130.28 Z" fill="#e26f46" fill-rule="evenodd" fill-opacity="0.5" stroke="#ffffff" stroke-opacity="0.5" stroke-width="3.2"/>
<path clip-path="url(#clip792)" d="M621.868 1324 L580.3 1300 L580.3 1252 L621.868 1228 L663.436 1252 L663.436 1300 Z" fill="#e26f46" fill-rule="evenodd" fill-opacity="0.5" stroke="#ffffff" stroke-opacity="0.5" stroke-width="3.2"/>
<path clip-path="url(#clip792)" d="M967.125 1097.71 L925.557 1073.71 L925.557 1025.71 L967.125 1001.71 L1008.69 1025.71 L1008.69 1073.71 Z" fill="#e26f46" fill-rule="evenodd" fill-opacity="0.5" stroke="#ffffff" stroke-opacity="0.5" stroke-width="3.2"/>
<path clip-path="url(#clip792)" d="M1024.67 927.991 L983.1 903.991 L983.1 855.991 L1024.67 831.991 L1066.24 855.991 L1066.24 903.991 Z" fill="#e26f46" fill-rule="evenodd" fill-opacity="0.5" stroke="#ffffff" stroke-opacity="0.5" stroke-width="3.2"/>
<path clip-path="url(#clip792)" d="M1024.67 984.563 L983.1 960.563 L983.1 912.563 L1024.67 888.563 L1066.24 912.563 L1066.24 960.563 Z" fill="#e26f46" fill-rule="evenodd" fill-opacity="0.5" stroke="#ffffff" stroke-opacity="0.5" stroke-width="3.2"/>
<path clip-path="url(#clip792)" d="M1312.38 984.563 L1270.81 960.563 L1270.81 912.563 L1312.38 888.563 L1353.95 912.563 L1353.95 960.563 Z" fill="#e26f46" fill-rule="evenodd" fill-opacity="0.5" stroke="#ffffff" stroke-opacity="0.5" stroke-width="3.2"/>
<path clip-path="url(#clip792)" d="M679.411 1210.85 L637.843 1186.85 L637.843 1138.85 L679.411 1114.85 L720.979 1138.85 L720.979 1186.85 Z" fill="#e26f46" fill-rule="evenodd" fill-opacity="0.5" stroke="#ffffff" stroke-opacity="0.5" stroke-width="3.2"/>
<path clip-path="url(#clip792)" d="M1024.67 1041.14 L983.1 1017.14 L983.1 969.136 L1024.67 945.136 L1066.24 969.136 L1066.24 1017.14 Z" fill="#e26f46" fill-rule="evenodd" fill-opacity="0.5" stroke="#ffffff" stroke-opacity="0.5" stroke-width="3.2"/>
<path clip-path="url(#clip792)" d="M1369.92 662.274 L1361.57 692.994 L1332.39 680.37 L1351.2 706.002 L1323.12 720.978 L1354.9 722.226 L1349.09 753.522 L1369.92 729.474 L1390.76 753.522 L1384.95 722.226 L1416.72 720.978 L1388.64 706.002 L1407.46 680.37 L1378.28 692.994 L1369.92 662.274 Z" fill="#3da44d" fill-rule="evenodd" fill-opacity="0.5" stroke="#ffffff" stroke-opacity="0.5" stroke-width="3.2"/>
<path clip-path="url(#clip792)" d="M1082.21 1001.71 L1073.86 1032.43 L1044.67 1019.8 L1063.49 1045.44 L1035.41 1060.41 L1067.19 1061.66 L1061.38 1092.96 L1082.21 1068.91 L1103.04 1092.96 L1097.23 1061.66 L1129.01 1060.41 L1100.93 1045.44 L1119.75 1019.8 L1090.56 1032.43 L1082.21 1001.71 Z" fill="#3da44d" fill-rule="evenodd" fill-opacity="0.5" stroke="#ffffff" stroke-opacity="0.5" stroke-width="3.2"/>
<path clip-path="url(#clip792)" d="M1830.27 831.991 L1821.92 862.711 L1792.73 850.087 L1811.55 875.719 L1783.47 890.695 L1815.24 891.943 L1809.44 923.239 L1830.27 899.191 L1851.1 923.239 L1845.29 891.943 L1877.07 890.695 L1848.99 875.719 L1867.8 850.087 L1838.62 862.711 L1830.27 831.991 Z" fill="#3da44d" fill-rule="evenodd" fill-opacity="0.5" stroke="#ffffff" stroke-opacity="0.5" stroke-width="3.2"/>
<path clip-path="url(#clip792)" d="M1369.92 888.563 L1361.57 919.283 L1332.39 906.659 L1351.2 932.291 L1323.12 947.267 L1354.9 948.515 L1349.09 979.811 L1369.92 955.763 L1390.76 979.811 L1384.95 948.515 L1416.72 947.267 L1388.64 932.291 L1407.46 906.659 L1378.28 919.283 L1369.92 888.563 Z" fill="#3da44d" fill-rule="evenodd" fill-opacity="0.5" stroke="#ffffff" stroke-opacity="0.5" stroke-width="3.2"/>
<path clip-path="url(#clip792)" d="M1485.01 831.991 L1476.66 862.711 L1447.47 850.087 L1466.29 875.719 L1438.21 890.695 L1469.99 891.943 L1464.18 923.239 L1485.01 899.191 L1505.84 923.239 L1500.03 891.943 L1531.81 890.695 L1503.73 875.719 L1522.55 850.087 L1493.36 862.711 L1485.01 831.991 Z" fill="#3da44d" fill-rule="evenodd" fill-opacity="0.5" stroke="#ffffff" stroke-opacity="0.5" stroke-width="3.2"/>
<path clip-path="url(#clip792)" d="M2117.98 831.991 L2109.63 862.711 L2080.45 850.087 L2099.26 875.719 L2071.18 890.695 L2102.96 891.943 L2097.15 923.239 L2117.98 899.191 L2138.81 923.239 L2133.01 891.943 L2164.78 890.695 L2136.7 875.719 L2155.52 850.087 L2126.33 862.711 L2117.98 831.991 Z" fill="#3da44d" fill-rule="evenodd" fill-opacity="0.5" stroke="#ffffff" stroke-opacity="0.5" stroke-width="3.2"/>
<path clip-path="url(#clip792)" d="M564.325 1114.85 L555.973 1145.57 L526.789 1132.95 L545.605 1158.58 L517.525 1173.56 L549.301 1174.81 L543.493 1206.1 L564.325 1182.05 L585.157 1206.1 L579.349 1174.81 L611.125 1173.56 L583.045 1158.58 L601.861 1132.95 L572.677 1145.57 L564.325 1114.85 Z" fill="#3da44d" fill-rule="evenodd" fill-opacity="0.5" stroke="#ffffff" stroke-opacity="0.5" stroke-width="3.2"/>
<path clip-path="url(#clip792)" d="M1945.35 888.563 L1937 919.283 L1907.82 906.659 L1926.63 932.291 L1898.55 947.267 L1930.33 948.515 L1924.52 979.811 L1945.35 955.763 L1966.18 979.811 L1960.38 948.515 L1992.15 947.267 L1964.07 932.291 L1982.89 906.659 L1953.7 919.283 L1945.35 888.563 Z" fill="#3da44d" fill-rule="evenodd" fill-opacity="0.5" stroke="#ffffff" stroke-opacity="0.5" stroke-width="3.2"/>
<path clip-path="url(#clip792)" d="M1600.1 1114.85 L1591.74 1145.57 L1562.56 1132.95 L1581.38 1158.58 L1553.3 1173.56 L1585.07 1174.81 L1579.26 1206.1 L1600.1 1182.05 L1620.93 1206.1 L1615.12 1174.81 L1646.9 1173.56 L1618.82 1158.58 L1637.63 1132.95 L1608.45 1145.57 L1600.1 1114.85 Z" fill="#3da44d" fill-rule="evenodd" fill-opacity="0.5" stroke="#ffffff" stroke-opacity="0.5" stroke-width="3.2"/>
<path clip-path="url(#clip792)" d="M1887.81 492.556 L1879.46 523.276 L1850.27 510.652 L1869.09 536.284 L1841.01 551.26 L1872.79 552.508 L1866.98 583.804 L1887.81 559.756 L1908.64 583.804 L1902.83 552.508 L1934.61 551.26 L1906.53 536.284 L1925.35 510.652 L1896.16 523.276 L1887.81 492.556 Z" fill="#3da44d" fill-rule="evenodd" fill-opacity="0.5" stroke="#ffffff" stroke-opacity="0.5" stroke-width="3.2"/>
<path clip-path="url(#clip792)" d="M1485.01 718.846 L1476.66 749.566 L1447.47 736.942 L1466.29 762.574 L1438.21 777.55 L1469.99 778.798 L1464.18 810.094 L1485.01 786.046 L1505.84 810.094 L1500.03 778.798 L1531.81 777.55 L1503.73 762.574 L1522.55 736.942 L1493.36 749.566 L1485.01 718.846 Z" fill="#3da44d" fill-rule="evenodd" fill-opacity="0.5" stroke="#ffffff" stroke-opacity="0.5" stroke-width="3.2"/>
<path clip-path="url(#clip792)" d="M1427.47 1001.71 L1419.12 1032.43 L1389.93 1019.8 L1408.75 1045.44 L1380.67 1060.41 L1412.44 1061.66 L1406.64 1092.96 L1427.47 1068.91 L1448.3 1092.96 L1442.49 1061.66 L1474.27 1060.41 L1446.19 1045.44 L1465 1019.8 L1435.82 1032.43 L1427.47 1001.71 Z" fill="#3da44d" fill-rule="evenodd" fill-opacity="0.5" stroke="#ffffff" stroke-opacity="0.5" stroke-width="3.2"/>
<path clip-path="url(#clip792)" d="M1657.64 831.991 L1649.29 862.711 L1620.1 850.087 L1638.92 875.719 L1610.84 890.695 L1642.61 891.943 L1636.81 923.239 L1657.64 899.191 L1678.47 923.239 L1672.66 891.943 L1704.44 890.695 L1676.36 875.719 L1695.17 850.087 L1665.99 862.711 L1657.64 831.991 Z" fill="#3da44d" fill-rule="evenodd" fill-opacity="0.5" stroke="#ffffff" stroke-opacity="0.5" stroke-width="3.2"/>
<path clip-path="url(#clip792)" d="M1024.67 1114.85 L1016.32 1145.57 L987.132 1132.95 L1005.95 1158.58 L977.868 1173.56 L1009.64 1174.81 L1003.84 1206.1 L1024.67 1182.05 L1045.5 1206.1 L1039.69 1174.81 L1071.47 1173.56 L1043.39 1158.58 L1062.2 1132.95 L1033.02 1145.57 L1024.67 1114.85 Z" fill="#3da44d" fill-rule="evenodd" fill-opacity="0.5" stroke="#ffffff" stroke-opacity="0.5" stroke-width="3.2"/>
<path clip-path="url(#clip792)" d="M1082.21 945.136 L1073.86 975.856 L1044.67 963.232 L1063.49 988.864 L1035.41 1003.84 L1067.19 1005.09 L1061.38 1036.38 L1082.21 1012.34 L1103.04 1036.38 L1097.23 1005.09 L1129.01 1003.84 L1100.93 988.864 L1119.75 963.232 L1090.56 975.856 L1082.21 945.136 Z" fill="#3da44d" fill-rule="evenodd" fill-opacity="0.5" stroke="#ffffff" stroke-opacity="0.5" stroke-width="3.2"/>
<path clip-path="url(#clip792)" d="M1427.47 718.846 L1419.12 749.566 L1389.93 736.942 L1408.75 762.574 L1380.67 777.55 L1412.44 778.798 L1406.64 810.094 L1427.47 786.046 L1448.3 810.094 L1442.49 778.798 L1474.27 777.55 L1446.19 762.574 L1465 736.942 L1435.82 749.566 L1427.47 718.846 Z" fill="#3da44d" fill-rule="evenodd" fill-opacity="0.5" stroke="#ffffff" stroke-opacity="0.5" stroke-width="3.2"/>
<path clip-path="url(#clip792)" d="M1485.01 831.991 L1476.66 862.711 L1447.47 850.087 L1466.29 875.719 L1438.21 890.695 L1469.99 891.943 L1464.18 923.239 L1485.01 899.191 L1505.84 923.239 L1500.03 891.943 L1531.81 890.695 L1503.73 875.719 L1522.55 850.087 L1493.36 862.711 L1485.01 831.991 Z" fill="#3da44d" fill-rule="evenodd" fill-opacity="0.5" stroke="#ffffff" stroke-opacity="0.5" stroke-width="3.2"/>
<path clip-path="url(#clip792)" d="M2175.52 379.411 L2167.17 410.131 L2137.99 397.507 L2156.8 423.139 L2128.72 438.115 L2160.5 439.363 L2154.69 470.659 L2175.52 446.611 L2196.36 470.659 L2190.55 439.363 L2222.32 438.115 L2194.24 423.139 L2213.06 397.507 L2183.88 410.131 L2175.52 379.411 Z" fill="#3da44d" fill-rule="evenodd" fill-opacity="0.5" stroke="#ffffff" stroke-opacity="0.5" stroke-width="3.2"/>
<path clip-path="url(#clip792)" d="M2175.52 1058.28 L2167.17 1089 L2137.99 1076.38 L2156.8 1102.01 L2128.72 1116.98 L2160.5 1118.23 L2154.69 1149.53 L2175.52 1125.48 L2196.36 1149.53 L2190.55 1118.23 L2222.32 1116.98 L2194.24 1102.01 L2213.06 1076.38 L2183.88 1089 L2175.52 1058.28 Z" fill="#3da44d" fill-rule="evenodd" fill-opacity="0.5" stroke="#ffffff" stroke-opacity="0.5" stroke-width="3.2"/>
<path clip-path="url(#clip792)" d="M1197.3 1284.57 L1188.94 1315.29 L1159.76 1302.67 L1178.58 1328.3 L1150.5 1343.27 L1182.27 1344.52 L1176.46 1375.82 L1197.3 1351.77 L1218.13 1375.82 L1212.32 1344.52 L1244.1 1343.27 L1216.02 1328.3 L1234.83 1302.67 L1205.65 1315.29 L1197.3 1284.57 Z" fill="#3da44d" fill-rule="evenodd" fill-opacity="0.5" stroke="#ffffff" stroke-opacity="0.5" stroke-width="3.2"/>
<path clip-path="url(#clip792)" d="M1715.18 718.846 L1706.83 749.566 L1677.65 736.942 L1696.46 762.574 L1668.38 777.55 L1700.16 778.798 L1694.35 810.094 L1715.18 786.046 L1736.01 810.094 L1730.21 778.798 L1761.98 777.55 L1733.9 762.574 L1752.72 736.942 L1723.53 749.566 L1715.18 718.846 Z" fill="#3da44d" fill-rule="evenodd" fill-opacity="0.5" stroke="#ffffff" stroke-opacity="0.5" stroke-width="3.2"/>
<path clip-path="url(#clip792)" d="M967.125 945.136 L958.773 975.856 L929.589 963.232 L948.405 988.864 L920.325 1003.84 L952.101 1005.09 L946.293 1036.38 L967.125 1012.34 L987.957 1036.38 L982.149 1005.09 L1013.93 1003.84 L985.845 988.864 L1004.66 963.232 L975.477 975.856 L967.125 945.136 Z" fill="#3da44d" fill-rule="evenodd" fill-opacity="0.5" stroke="#ffffff" stroke-opacity="0.5" stroke-width="3.2"/>
<path clip-path="url(#clip792)" d="M2175.52 945.136 L2167.17 975.856 L2137.99 963.232 L2156.8 988.864 L2128.72 1003.84 L2160.5 1005.09 L2154.69 1036.38 L2175.52 1012.34 L2196.36 1036.38 L2190.55 1005.09 L2222.32 1003.84 L2194.24 988.864 L2213.06 963.232 L2183.88 975.856 L2175.52 945.136 Z" fill="#3da44d" fill-rule="evenodd" fill-opacity="0.5" stroke="#ffffff" stroke-opacity="0.5" stroke-width="3.2"/>
<path clip-path="url(#clip792)" d="M1369.92 1001.71 L1361.57 1032.43 L1332.39 1019.8 L1351.2 1045.44 L1323.12 1060.41 L1354.9 1061.66 L1349.09 1092.96 L1369.92 1068.91 L1390.76 1092.96 L1384.95 1061.66 L1416.72 1060.41 L1388.64 1045.44 L1407.46 1019.8 L1378.28 1032.43 L1369.92 1001.71 Z" fill="#3da44d" fill-rule="evenodd" fill-opacity="0.5" stroke="#ffffff" stroke-opacity="0.5" stroke-width="3.2"/>
<path clip-path="url(#clip792)" d="M1600.1 662.274 L1591.74 692.994 L1562.56 680.37 L1581.38 706.002 L1553.3 720.978 L1585.07 722.226 L1579.26 753.522 L1600.1 729.474 L1620.93 753.522 L1615.12 722.226 L1646.9 720.978 L1618.82 706.002 L1637.63 680.37 L1608.45 692.994 L1600.1 662.274 Z" fill="#3da44d" fill-rule="evenodd" fill-opacity="0.5" stroke="#ffffff" stroke-opacity="0.5" stroke-width="3.2"/>
<path clip-path="url(#clip792)" d="M1887.81 718.846 L1879.46 749.566 L1850.27 736.942 L1869.09 762.574 L1841.01 777.55 L1872.79 778.798 L1866.98 810.094 L1887.81 786.046 L1908.64 810.094 L1902.83 778.798 L1934.61 777.55 L1906.53 762.574 L1925.35 736.942 L1896.16 749.566 L1887.81 718.846 Z" fill="#3da44d" fill-rule="evenodd" fill-opacity="0.5" stroke="#ffffff" stroke-opacity="0.5" stroke-width="3.2"/>
<path clip-path="url(#clip792)" d="M1312.38 945.136 L1304.03 975.856 L1274.85 963.232 L1293.66 988.864 L1265.58 1003.84 L1297.36 1005.09 L1291.55 1036.38 L1312.38 1012.34 L1333.21 1036.38 L1327.41 1005.09 L1359.18 1003.84 L1331.1 988.864 L1349.92 963.232 L1320.73 975.856 L1312.38 945.136 Z" fill="#3da44d" fill-rule="evenodd" fill-opacity="0.5" stroke="#ffffff" stroke-opacity="0.5" stroke-width="3.2"/>
<path clip-path="url(#clip792)" d="M1254.84 831.991 L1246.49 862.711 L1217.3 850.087 L1236.12 875.719 L1208.04 890.695 L1239.82 891.943 L1234.01 923.239 L1254.84 899.191 L1275.67 923.239 L1269.86 891.943 L1301.64 890.695 L1273.56 875.719 L1292.38 850.087 L1263.19 862.711 L1254.84 831.991 Z" fill="#3da44d" fill-rule="evenodd" fill-opacity="0.5" stroke="#ffffff" stroke-opacity="0.5" stroke-width="3.2"/>
<path clip-path="url(#clip792)" d="M1427.47 945.136 L1419.12 975.856 L1389.93 963.232 L1408.75 988.864 L1380.67 1003.84 L1412.44 1005.09 L1406.64 1036.38 L1427.47 1012.34 L1448.3 1036.38 L1442.49 1005.09 L1474.27 1003.84 L1446.19 988.864 L1465 963.232 L1435.82 975.856 L1427.47 945.136 Z" fill="#3da44d" fill-rule="evenodd" fill-opacity="0.5" stroke="#ffffff" stroke-opacity="0.5" stroke-width="3.2"/>
<path clip-path="url(#clip792)" d="M1887.81 831.991 L1879.46 862.711 L1850.27 850.087 L1869.09 875.719 L1841.01 890.695 L1872.79 891.943 L1866.98 923.239 L1887.81 899.191 L1908.64 923.239 L1902.83 891.943 L1934.61 890.695 L1906.53 875.719 L1925.35 850.087 L1896.16 862.711 L1887.81 831.991 Z" fill="#3da44d" fill-rule="evenodd" fill-opacity="0.5" stroke="#ffffff" stroke-opacity="0.5" stroke-width="3.2"/>
<path clip-path="url(#clip792)" d="M2002.9 945.136 L1994.54 975.856 L1965.36 963.232 L1984.18 988.864 L1956.1 1003.84 L1987.87 1005.09 L1982.06 1036.38 L2002.9 1012.34 L2023.73 1036.38 L2017.92 1005.09 L2049.7 1003.84 L2021.62 988.864 L2040.43 963.232 L2011.25 975.856 L2002.9 945.136 Z" fill="#3da44d" fill-rule="evenodd" fill-opacity="0.5" stroke="#ffffff" stroke-opacity="0.5" stroke-width="3.2"/>
<path clip-path="url(#clip792)" d="M2290.61 379.411 L2282.26 410.131 L2253.07 397.507 L2271.89 423.139 L2243.81 438.115 L2275.59 439.363 L2269.78 470.659 L2290.61 446.611 L2311.44 470.659 L2305.63 439.363 L2337.41 438.115 L2309.33 423.139 L2328.15 397.507 L2298.96 410.131 L2290.61 379.411 Z" fill="#3da44d" fill-rule="evenodd" fill-opacity="0.5" stroke="#ffffff" stroke-opacity="0.5" stroke-width="3.2"/>
<path clip-path="url(#clip792)" d="M1427.47 945.136 L1419.12 975.856 L1389.93 963.232 L1408.75 988.864 L1380.67 1003.84 L1412.44 1005.09 L1406.64 1036.38 L1427.47 1012.34 L1448.3 1036.38 L1442.49 1005.09 L1474.27 1003.84 L1446.19 988.864 L1465 963.232 L1435.82 975.856 L1427.47 945.136 Z" fill="#3da44d" fill-rule="evenodd" fill-opacity="0.5" stroke="#ffffff" stroke-opacity="0.5" stroke-width="3.2"/>
<path clip-path="url(#clip792)" d="M1369.92 945.136 L1361.57 975.856 L1332.39 963.232 L1351.2 988.864 L1323.12 1003.84 L1354.9 1005.09 L1349.09 1036.38 L1369.92 1012.34 L1390.76 1036.38 L1384.95 1005.09 L1416.72 1003.84 L1388.64 988.864 L1407.46 963.232 L1378.28 975.856 L1369.92 945.136 Z" fill="#3da44d" fill-rule="evenodd" fill-opacity="0.5" stroke="#ffffff" stroke-opacity="0.5" stroke-width="3.2"/>
<path clip-path="url(#clip792)" d="M1254.84 1058.28 L1246.49 1089 L1217.3 1076.38 L1236.12 1102.01 L1208.04 1116.98 L1239.82 1118.23 L1234.01 1149.53 L1254.84 1125.48 L1275.67 1149.53 L1269.86 1118.23 L1301.64 1116.98 L1273.56 1102.01 L1292.38 1076.38 L1263.19 1089 L1254.84 1058.28 Z" fill="#3da44d" fill-rule="evenodd" fill-opacity="0.5" stroke="#ffffff" stroke-opacity="0.5" stroke-width="3.2"/>
<path clip-path="url(#clip792)" d="M2175.52 831.991 L2167.17 862.711 L2137.99 850.087 L2156.8 875.719 L2128.72 890.695 L2160.5 891.943 L2154.69 923.239 L2175.52 899.191 L2196.36 923.239 L2190.55 891.943 L2222.32 890.695 L2194.24 875.719 L2213.06 850.087 L2183.88 862.711 L2175.52 831.991 Z" fill="#3da44d" fill-rule="evenodd" fill-opacity="0.5" stroke="#ffffff" stroke-opacity="0.5" stroke-width="3.2"/>
<path clip-path="url(#clip792)" d="M1369.92 605.701 L1361.57 636.421 L1332.39 623.797 L1351.2 649.429 L1323.12 664.405 L1354.9 665.653 L1349.09 696.949 L1369.92 672.901 L1390.76 696.949 L1384.95 665.653 L1416.72 664.405 L1388.64 649.429 L1407.46 623.797 L1378.28 636.421 L1369.92 605.701 Z" fill="#3da44d" fill-rule="evenodd" fill-opacity="0.5" stroke="#ffffff" stroke-opacity="0.5" stroke-width="3.2"/>
<path clip-path="url(#clip792)" d="M1427.47 775.418 L1419.12 806.138 L1389.93 793.514 L1408.75 819.146 L1380.67 834.122 L1412.44 835.37 L1406.64 866.666 L1427.47 842.618 L1448.3 866.666 L1442.49 835.37 L1474.27 834.122 L1446.19 819.146 L1465 793.514 L1435.82 806.138 L1427.47 775.418 Z" fill="#3da44d" fill-rule="evenodd" fill-opacity="0.5" stroke="#ffffff" stroke-opacity="0.5" stroke-width="3.2"/>
<path clip-path="url(#clip792)" d="M1197.3 831.991 L1188.94 862.711 L1159.76 850.087 L1178.58 875.719 L1150.5 890.695 L1182.27 891.943 L1176.46 923.239 L1197.3 899.191 L1218.13 923.239 L1212.32 891.943 L1244.1 890.695 L1216.02 875.719 L1234.83 850.087 L1205.65 862.711 L1197.3 831.991 Z" fill="#3da44d" fill-rule="evenodd" fill-opacity="0.5" stroke="#ffffff" stroke-opacity="0.5" stroke-width="3.2"/>
<path clip-path="url(#clip792)" d="M1715.18 775.418 L1706.83 806.138 L1677.65 793.514 L1696.46 819.146 L1668.38 834.122 L1700.16 835.37 L1694.35 866.666 L1715.18 842.618 L1736.01 866.666 L1730.21 835.37 L1761.98 834.122 L1733.9 819.146 L1752.72 793.514 L1723.53 806.138 L1715.18 775.418 Z" fill="#3da44d" fill-rule="evenodd" fill-opacity="0.5" stroke="#ffffff" stroke-opacity="0.5" stroke-width="3.2"/>
<path clip-path="url(#clip792)" d="M1600.1 775.418 L1591.74 806.138 L1562.56 793.514 L1581.38 819.146 L1553.3 834.122 L1585.07 835.37 L1579.26 866.666 L1600.1 842.618 L1620.93 866.666 L1615.12 835.37 L1646.9 834.122 L1618.82 819.146 L1637.63 793.514 L1608.45 806.138 L1600.1 775.418 Z" fill="#3da44d" fill-rule="evenodd" fill-opacity="0.5" stroke="#ffffff" stroke-opacity="0.5" stroke-width="3.2"/>
<path clip-path="url(#clip792)" d="M1715.18 775.418 L1706.83 806.138 L1677.65 793.514 L1696.46 819.146 L1668.38 834.122 L1700.16 835.37 L1694.35 866.666 L1715.18 842.618 L1736.01 866.666 L1730.21 835.37 L1761.98 834.122 L1733.9 819.146 L1752.72 793.514 L1723.53 806.138 L1715.18 775.418 Z" fill="#3da44d" fill-rule="evenodd" fill-opacity="0.5" stroke="#ffffff" stroke-opacity="0.5" stroke-width="3.2"/>
<path clip-path="url(#clip792)" d="M1082.21 1001.71 L1073.86 1032.43 L1044.67 1019.8 L1063.49 1045.44 L1035.41 1060.41 L1067.19 1061.66 L1061.38 1092.96 L1082.21 1068.91 L1103.04 1092.96 L1097.23 1061.66 L1129.01 1060.41 L1100.93 1045.44 L1119.75 1019.8 L1090.56 1032.43 L1082.21 1001.71 Z" fill="#3da44d" fill-rule="evenodd" fill-opacity="0.5" stroke="#ffffff" stroke-opacity="0.5" stroke-width="3.2"/>
<path clip-path="url(#clip792)" d="M1657.64 718.846 L1649.29 749.566 L1620.1 736.942 L1638.92 762.574 L1610.84 777.55 L1642.61 778.798 L1636.81 810.094 L1657.64 786.046 L1678.47 810.094 L1672.66 778.798 L1704.44 777.55 L1676.36 762.574 L1695.17 736.942 L1665.99 749.566 L1657.64 718.846 Z" fill="#3da44d" fill-rule="evenodd" fill-opacity="0.5" stroke="#ffffff" stroke-opacity="0.5" stroke-width="3.2"/>
<path clip-path="url(#clip792)" d="M1600.1 662.274 L1591.74 692.994 L1562.56 680.37 L1581.38 706.002 L1553.3 720.978 L1585.07 722.226 L1579.26 753.522 L1600.1 729.474 L1620.93 753.522 L1615.12 722.226 L1646.9 720.978 L1618.82 706.002 L1637.63 680.37 L1608.45 692.994 L1600.1 662.274 Z" fill="#3da44d" fill-rule="evenodd" fill-opacity="0.5" stroke="#ffffff" stroke-opacity="0.5" stroke-width="3.2"/>
<path clip-path="url(#clip792)" d="M1600.1 831.991 L1591.74 862.711 L1562.56 850.087 L1581.38 875.719 L1553.3 890.695 L1585.07 891.943 L1579.26 923.239 L1600.1 899.191 L1620.93 923.239 L1615.12 891.943 L1646.9 890.695 L1618.82 875.719 L1637.63 850.087 L1608.45 862.711 L1600.1 831.991 Z" fill="#3da44d" fill-rule="evenodd" fill-opacity="0.5" stroke="#ffffff" stroke-opacity="0.5" stroke-width="3.2"/>
<path clip-path="url(#clip792)" d="M1369.92 1114.85 L1361.57 1145.57 L1332.39 1132.95 L1351.2 1158.58 L1323.12 1173.56 L1354.9 1174.81 L1349.09 1206.1 L1369.92 1182.05 L1390.76 1206.1 L1384.95 1174.81 L1416.72 1173.56 L1388.64 1158.58 L1407.46 1132.95 L1378.28 1145.57 L1369.92 1114.85 Z" fill="#3da44d" fill-rule="evenodd" fill-opacity="0.5" stroke="#ffffff" stroke-opacity="0.5" stroke-width="3.2"/>
<path clip-path="url(#clip792)" d="M1485.01 831.991 L1476.66 862.711 L1447.47 850.087 L1466.29 875.719 L1438.21 890.695 L1469.99 891.943 L1464.18 923.239 L1485.01 899.191 L1505.84 923.239 L1500.03 891.943 L1531.81 890.695 L1503.73 875.719 L1522.55 850.087 L1493.36 862.711 L1485.01 831.991 Z" fill="#3da44d" fill-rule="evenodd" fill-opacity="0.5" stroke="#ffffff" stroke-opacity="0.5" stroke-width="3.2"/>
<path clip-path="url(#clip792)" d="M1312.38 605.701 L1304.03 636.421 L1274.85 623.797 L1293.66 649.429 L1265.58 664.405 L1297.36 665.653 L1291.55 696.949 L1312.38 672.901 L1333.21 696.949 L1327.41 665.653 L1359.18 664.405 L1331.1 649.429 L1349.92 623.797 L1320.73 636.421 L1312.38 605.701 Z" fill="#3da44d" fill-rule="evenodd" fill-opacity="0.5" stroke="#ffffff" stroke-opacity="0.5" stroke-width="3.2"/>
<path clip-path="url(#clip792)" d="M1139.75 831.991 L1131.4 862.711 L1102.22 850.087 L1121.03 875.719 L1092.95 890.695 L1124.73 891.943 L1118.92 923.239 L1139.75 899.191 L1160.59 923.239 L1154.78 891.943 L1186.55 890.695 L1158.47 875.719 L1177.29 850.087 L1148.11 862.711 L1139.75 831.991 Z" fill="#3da44d" fill-rule="evenodd" fill-opacity="0.5" stroke="#ffffff" stroke-opacity="0.5" stroke-width="3.2"/>
<path clip-path="url(#clip790)" d="M1830.07 302.578 L2279.56 302.578 L2279.56 95.2176 L1830.07 95.2176  Z" fill="#333333" fill-rule="evenodd" fill-opacity="1"/>
<polyline clip-path="url(#clip790)" style="stroke:#ffffff; stroke-linecap:round; stroke-linejoin:round; stroke-width:4; stroke-opacity:1; fill:none" points="1830.07,302.578 2279.56,302.578 2279.56,95.2176 1830.07,95.2176 1830.07,302.578 "/>
<line clip-path="url(#clip790)" x1="1927.66" y1="147.058" x2="1927.66" y2="122.482" style="stroke:#009af9; stroke-width:1.6384; stroke-opacity:0.5"/>
<line clip-path="url(#clip790)" x1="1927.66" y1="147.058" x2="1903.09" y2="147.058" style="stroke:#009af9; stroke-width:1.6384; stroke-opacity:0.5"/>
<line clip-path="url(#clip790)" x1="1927.66" y1="147.058" x2="1927.66" y2="171.634" style="stroke:#009af9; stroke-width:1.6384; stroke-opacity:0.5"/>
<line clip-path="url(#clip790)" x1="1927.66" y1="147.058" x2="1952.24" y2="147.058" style="stroke:#009af9; stroke-width:1.6384; stroke-opacity:0.5"/>
<path clip-path="url(#clip790)" d="M2043.68 139.176 L2043.68 143.203 Q2041.88 142.277 2039.93 141.815 Q2037.99 141.352 2035.91 141.352 Q2032.73 141.352 2031.14 142.324 Q2029.56 143.296 2029.56 145.24 Q2029.56 146.722 2030.7 147.578 Q2031.83 148.412 2035.26 149.176 L2036.72 149.5 Q2041.25 150.472 2043.15 152.254 Q2045.07 154.014 2045.07 157.185 Q2045.07 160.796 2042.2 162.902 Q2039.35 165.009 2034.35 165.009 Q2032.27 165.009 2030 164.592 Q2027.76 164.199 2025.26 163.388 L2025.26 158.99 Q2027.62 160.217 2029.91 160.842 Q2032.2 161.444 2034.45 161.444 Q2037.46 161.444 2039.08 160.426 Q2040.7 159.384 2040.7 157.509 Q2040.7 155.773 2039.52 154.847 Q2038.36 153.921 2034.4 153.064 L2032.92 152.717 Q2028.96 151.884 2027.2 150.171 Q2025.44 148.435 2025.44 145.426 Q2025.44 141.768 2028.03 139.778 Q2030.63 137.787 2035.4 137.787 Q2037.76 137.787 2039.84 138.134 Q2041.92 138.481 2043.68 139.176 Z" fill="#ffffff" fill-rule="nonzero" fill-opacity="1" /><path clip-path="url(#clip790)" d="M2074.03 150.31 L2074.03 152.393 L2054.45 152.393 Q2054.72 156.791 2057.09 159.106 Q2059.47 161.398 2063.71 161.398 Q2066.16 161.398 2068.45 160.796 Q2070.77 160.194 2073.03 158.99 L2073.03 163.018 Q2070.74 163.99 2068.34 164.5 Q2065.93 165.009 2063.45 165.009 Q2057.25 165.009 2053.61 161.398 Q2050 157.787 2050 151.629 Q2050 145.264 2053.43 141.537 Q2056.88 137.787 2062.71 137.787 Q2067.94 137.787 2070.97 141.166 Q2074.03 144.523 2074.03 150.31 M2069.77 149.06 Q2069.72 145.565 2067.8 143.481 Q2065.91 141.398 2062.76 141.398 Q2059.19 141.398 2057.04 143.412 Q2054.91 145.426 2054.59 149.083 L2069.77 149.06 Z" fill="#ffffff" fill-rule="nonzero" fill-opacity="1" /><path clip-path="url(#clip790)" d="M2085.23 131.051 L2085.23 138.412 L2094.01 138.412 L2094.01 141.722 L2085.23 141.722 L2085.23 155.796 Q2085.23 158.967 2086.09 159.87 Q2086.97 160.773 2089.63 160.773 L2094.01 160.773 L2094.01 164.338 L2089.63 164.338 Q2084.7 164.338 2082.83 162.509 Q2080.95 160.657 2080.95 155.796 L2080.95 141.722 L2077.83 141.722 L2077.83 138.412 L2080.95 138.412 L2080.95 131.051 L2085.23 131.051 Z" fill="#ffffff" fill-rule="nonzero" fill-opacity="1" /><path clip-path="url(#clip790)" d="M2109.65 141.398 Q2106.23 141.398 2104.24 144.083 Q2102.25 146.745 2102.25 151.398 Q2102.25 156.051 2104.22 158.736 Q2106.21 161.398 2109.65 161.398 Q2113.06 161.398 2115.05 158.713 Q2117.04 156.027 2117.04 151.398 Q2117.04 146.791 2115.05 144.106 Q2113.06 141.398 2109.65 141.398 M2109.65 137.787 Q2115.21 137.787 2118.38 141.398 Q2121.55 145.009 2121.55 151.398 Q2121.55 157.764 2118.38 161.398 Q2115.21 165.009 2109.65 165.009 Q2104.08 165.009 2100.9 161.398 Q2097.76 157.764 2097.76 151.398 Q2097.76 145.009 2100.9 141.398 Q2104.08 137.787 2109.65 137.787 Z" fill="#ffffff" fill-rule="nonzero" fill-opacity="1" /><path clip-path="url(#clip790)" d="M2145.14 139.176 L2145.14 143.203 Q2143.34 142.277 2141.39 141.815 Q2139.45 141.352 2137.36 141.352 Q2134.19 141.352 2132.59 142.324 Q2131.02 143.296 2131.02 145.24 Q2131.02 146.722 2132.15 147.578 Q2133.29 148.412 2136.71 149.176 L2138.17 149.5 Q2142.71 150.472 2144.61 152.254 Q2146.53 154.014 2146.53 157.185 Q2146.53 160.796 2143.66 162.902 Q2140.81 165.009 2135.81 165.009 Q2133.73 165.009 2131.46 164.592 Q2129.21 164.199 2126.71 163.388 L2126.71 158.99 Q2129.08 160.217 2131.37 160.842 Q2133.66 161.444 2135.9 161.444 Q2138.91 161.444 2140.53 160.426 Q2142.15 159.384 2142.15 157.509 Q2142.15 155.773 2140.97 154.847 Q2139.82 153.921 2135.86 153.064 L2134.38 152.717 Q2130.42 151.884 2128.66 150.171 Q2126.9 148.435 2126.9 145.426 Q2126.9 141.768 2129.49 139.778 Q2132.09 137.787 2136.85 137.787 Q2139.21 137.787 2141.3 138.134 Q2143.38 138.481 2145.14 139.176 Z" fill="#ffffff" fill-rule="nonzero" fill-opacity="1" /><path clip-path="url(#clip790)" d="M2165.09 151.305 Q2159.93 151.305 2157.94 152.486 Q2155.95 153.666 2155.95 156.514 Q2155.95 158.782 2157.43 160.125 Q2158.94 161.444 2161.51 161.444 Q2165.05 161.444 2167.18 158.944 Q2169.33 156.421 2169.33 152.254 L2169.33 151.305 L2165.09 151.305 M2173.59 149.546 L2173.59 164.338 L2169.33 164.338 L2169.33 160.402 Q2167.87 162.763 2165.7 163.898 Q2163.52 165.009 2160.37 165.009 Q2156.39 165.009 2154.03 162.787 Q2151.69 160.541 2151.69 156.791 Q2151.69 152.416 2154.61 150.194 Q2157.55 147.972 2163.36 147.972 L2169.33 147.972 L2169.33 147.555 Q2169.33 144.615 2167.39 143.018 Q2165.46 141.398 2161.97 141.398 Q2159.75 141.398 2157.64 141.93 Q2155.53 142.463 2153.59 143.527 L2153.59 139.592 Q2155.93 138.69 2158.13 138.25 Q2160.33 137.787 2162.41 137.787 Q2168.03 137.787 2170.81 140.703 Q2173.59 143.62 2173.59 149.546 Z" fill="#ffffff" fill-rule="nonzero" fill-opacity="1" /><path clip-path="url(#clip790)" d="M1927.66 223.474 L1906.38 211.186 L1906.38 186.61 L1927.66 174.322 L1948.95 186.61 L1948.95 211.186 Z" fill="#e26f46" fill-rule="evenodd" fill-opacity="0.5" stroke="#ffffff" stroke-opacity="0.5" stroke-width="1.6384"/>
<path clip-path="url(#clip790)" d="M2025.26 190.252 L2029.77 190.252 L2037.87 212.011 L2045.97 190.252 L2050.49 190.252 L2040.77 216.178 L2034.98 216.178 L2025.26 190.252 Z" fill="#ffffff" fill-rule="nonzero" fill-opacity="1" /><path clip-path="url(#clip790)" d="M2078.54 202.15 L2078.54 204.233 L2058.96 204.233 Q2059.24 208.631 2061.6 210.946 Q2063.98 213.238 2068.22 213.238 Q2070.67 213.238 2072.97 212.636 Q2075.28 212.034 2077.55 210.83 L2077.55 214.858 Q2075.26 215.83 2072.85 216.34 Q2070.44 216.849 2067.97 216.849 Q2061.76 216.849 2058.13 213.238 Q2054.52 209.627 2054.52 203.469 Q2054.52 197.104 2057.94 193.377 Q2061.39 189.627 2067.22 189.627 Q2072.46 189.627 2075.49 193.006 Q2078.54 196.363 2078.54 202.15 M2074.28 200.9 Q2074.24 197.405 2072.32 195.321 Q2070.42 193.238 2067.27 193.238 Q2063.71 193.238 2061.55 195.252 Q2059.42 197.266 2059.1 200.923 L2074.28 200.9 Z" fill="#ffffff" fill-rule="nonzero" fill-opacity="1" /><path clip-path="url(#clip790)" d="M2100.56 194.233 Q2099.84 193.817 2098.98 193.631 Q2098.15 193.423 2097.13 193.423 Q2093.52 193.423 2091.58 195.784 Q2089.65 198.122 2089.65 202.52 L2089.65 216.178 L2085.37 216.178 L2085.37 190.252 L2089.65 190.252 L2089.65 194.28 Q2091 191.918 2093.15 190.784 Q2095.3 189.627 2098.38 189.627 Q2098.82 189.627 2099.35 189.696 Q2099.89 189.743 2100.53 189.858 L2100.56 194.233 Z" fill="#ffffff" fill-rule="nonzero" fill-opacity="1" /><path clip-path="url(#clip790)" d="M2121.55 191.016 L2121.55 195.043 Q2119.75 194.117 2117.8 193.655 Q2115.86 193.192 2113.78 193.192 Q2110.6 193.192 2109.01 194.164 Q2107.43 195.136 2107.43 197.08 Q2107.43 198.562 2108.57 199.418 Q2109.7 200.252 2113.13 201.016 L2114.59 201.34 Q2119.12 202.312 2121.02 204.094 Q2122.94 205.854 2122.94 209.025 Q2122.94 212.636 2120.07 214.742 Q2117.22 216.849 2112.22 216.849 Q2110.14 216.849 2107.87 216.432 Q2105.63 216.039 2103.13 215.228 L2103.13 210.83 Q2105.49 212.057 2107.78 212.682 Q2110.07 213.284 2112.32 213.284 Q2115.33 213.284 2116.95 212.266 Q2118.57 211.224 2118.57 209.349 Q2118.57 207.613 2117.39 206.687 Q2116.23 205.761 2112.27 204.904 L2110.79 204.557 Q2106.83 203.724 2105.07 202.011 Q2103.31 200.275 2103.31 197.266 Q2103.31 193.608 2105.9 191.618 Q2108.5 189.627 2113.27 189.627 Q2115.63 189.627 2117.71 189.974 Q2119.79 190.321 2121.55 191.016 Z" fill="#ffffff" fill-rule="nonzero" fill-opacity="1" /><path clip-path="url(#clip790)" d="M2129.72 190.252 L2133.98 190.252 L2133.98 216.178 L2129.72 216.178 L2129.72 190.252 M2129.72 180.159 L2133.98 180.159 L2133.98 185.553 L2129.72 185.553 L2129.72 180.159 Z" fill="#ffffff" fill-rule="nonzero" fill-opacity="1" /><path clip-path="url(#clip790)" d="M2161.55 191.247 L2161.55 195.229 Q2159.75 194.233 2157.92 193.747 Q2156.11 193.238 2154.26 193.238 Q2150.12 193.238 2147.83 195.877 Q2145.53 198.492 2145.53 203.238 Q2145.53 207.983 2147.83 210.622 Q2150.12 213.238 2154.26 213.238 Q2156.11 213.238 2157.92 212.752 Q2159.75 212.242 2161.55 211.247 L2161.55 215.182 Q2159.77 216.016 2157.85 216.432 Q2155.95 216.849 2153.8 216.849 Q2147.94 216.849 2144.49 213.168 Q2141.04 209.488 2141.04 203.238 Q2141.04 196.895 2144.52 193.261 Q2148.01 189.627 2154.08 189.627 Q2156.04 189.627 2157.92 190.043 Q2159.79 190.437 2161.55 191.247 Z" fill="#ffffff" fill-rule="nonzero" fill-opacity="1" /><path clip-path="url(#clip790)" d="M2179.01 193.238 Q2175.58 193.238 2173.59 195.923 Q2171.6 198.585 2171.6 203.238 Q2171.6 207.891 2173.57 210.576 Q2175.56 213.238 2179.01 213.238 Q2182.41 213.238 2184.4 210.553 Q2186.39 207.867 2186.39 203.238 Q2186.39 198.631 2184.4 195.946 Q2182.41 193.238 2179.01 193.238 M2179.01 189.627 Q2184.56 189.627 2187.73 193.238 Q2190.9 196.849 2190.9 203.238 Q2190.9 209.604 2187.73 213.238 Q2184.56 216.849 2179.01 216.849 Q2173.43 216.849 2170.26 213.238 Q2167.11 209.604 2167.11 203.238 Q2167.11 196.849 2170.26 193.238 Q2173.43 189.627 2179.01 189.627 Z" fill="#ffffff" fill-rule="nonzero" fill-opacity="1" /><path clip-path="url(#clip790)" d="M2197.96 180.159 L2202.22 180.159 L2202.22 216.178 L2197.96 216.178 L2197.96 180.159 Z" fill="#ffffff" fill-rule="nonzero" fill-opacity="1" /><path clip-path="url(#clip790)" d="M2221.18 193.238 Q2217.76 193.238 2215.77 195.923 Q2213.77 198.585 2213.77 203.238 Q2213.77 207.891 2215.74 210.576 Q2217.73 213.238 2221.18 213.238 Q2224.58 213.238 2226.58 210.553 Q2228.57 207.867 2228.57 203.238 Q2228.57 198.631 2226.58 195.946 Q2224.58 193.238 2221.18 193.238 M2221.18 189.627 Q2226.74 189.627 2229.91 193.238 Q2233.08 196.849 2233.08 203.238 Q2233.08 209.604 2229.91 213.238 Q2226.74 216.849 2221.18 216.849 Q2215.6 216.849 2212.43 213.238 Q2209.28 209.604 2209.28 203.238 Q2209.28 196.849 2212.43 193.238 Q2215.6 189.627 2221.18 189.627 Z" fill="#ffffff" fill-rule="nonzero" fill-opacity="1" /><path clip-path="url(#clip790)" d="M2255.16 194.233 Q2254.45 193.817 2253.59 193.631 Q2252.76 193.423 2251.74 193.423 Q2248.13 193.423 2246.18 195.784 Q2244.26 198.122 2244.26 202.52 L2244.26 216.178 L2239.98 216.178 L2239.98 190.252 L2244.26 190.252 L2244.26 194.28 Q2245.6 191.918 2247.76 190.784 Q2249.91 189.627 2252.99 189.627 Q2253.43 189.627 2253.96 189.696 Q2254.49 189.743 2255.14 189.858 L2255.16 194.233 Z" fill="#ffffff" fill-rule="nonzero" fill-opacity="1" /><path clip-path="url(#clip790)" d="M1927.66 226.162 L1923.39 241.89 L1908.45 235.427 L1918.08 248.55 L1903.7 256.218 L1919.97 256.857 L1917 272.881 L1927.66 260.568 L1938.33 272.881 L1935.36 256.857 L1951.63 256.218 L1937.25 248.55 L1946.88 235.427 L1931.94 241.89 L1927.66 226.162 Z" fill="#3da44d" fill-rule="evenodd" fill-opacity="0.5" stroke="#ffffff" stroke-opacity="0.5" stroke-width="1.6384"/>
<path clip-path="url(#clip790)" d="M2025.26 242.092 L2029.77 242.092 L2037.87 263.851 L2045.97 242.092 L2050.49 242.092 L2040.77 268.018 L2034.98 268.018 L2025.26 242.092 Z" fill="#ffffff" fill-rule="nonzero" fill-opacity="1" /><path clip-path="url(#clip790)" d="M2056.37 242.092 L2060.63 242.092 L2060.63 268.018 L2056.37 268.018 L2056.37 242.092 M2056.37 231.999 L2060.63 231.999 L2060.63 237.393 L2056.37 237.393 L2056.37 231.999 Z" fill="#ffffff" fill-rule="nonzero" fill-opacity="1" /><path clip-path="url(#clip790)" d="M2084.56 246.073 Q2083.84 245.657 2082.99 245.471 Q2082.15 245.263 2081.14 245.263 Q2077.53 245.263 2075.58 247.624 Q2073.66 249.962 2073.66 254.36 L2073.66 268.018 L2069.38 268.018 L2069.38 242.092 L2073.66 242.092 L2073.66 246.12 Q2075 243.758 2077.15 242.624 Q2079.31 241.467 2082.39 241.467 Q2082.83 241.467 2083.36 241.536 Q2083.89 241.583 2084.54 241.698 L2084.56 246.073 Z" fill="#ffffff" fill-rule="nonzero" fill-opacity="1" /><path clip-path="url(#clip790)" d="M2105.26 254.754 Q2105.26 250.124 2103.34 247.578 Q2101.44 245.032 2097.99 245.032 Q2094.56 245.032 2092.64 247.578 Q2090.74 250.124 2090.74 254.754 Q2090.74 259.36 2092.64 261.906 Q2094.56 264.453 2097.99 264.453 Q2101.44 264.453 2103.34 261.906 Q2105.26 259.36 2105.26 254.754 M2109.52 264.8 Q2109.52 271.42 2106.58 274.638 Q2103.64 277.879 2097.57 277.879 Q2095.33 277.879 2093.34 277.531 Q2091.34 277.207 2089.47 276.513 L2089.47 272.369 Q2091.34 273.388 2093.17 273.874 Q2095 274.36 2096.9 274.36 Q2101.09 274.36 2103.17 272.161 Q2105.26 269.985 2105.26 265.564 L2105.26 263.457 Q2103.94 265.749 2101.88 266.883 Q2099.82 268.018 2096.95 268.018 Q2092.18 268.018 2089.26 264.383 Q2086.34 260.749 2086.34 254.754 Q2086.34 248.735 2089.26 245.101 Q2092.18 241.467 2096.95 241.467 Q2099.82 241.467 2101.88 242.601 Q2103.94 243.735 2105.26 246.027 L2105.26 242.092 L2109.52 242.092 L2109.52 264.8 Z" fill="#ffffff" fill-rule="nonzero" fill-opacity="1" /><path clip-path="url(#clip790)" d="M2118.29 242.092 L2122.55 242.092 L2122.55 268.018 L2118.29 268.018 L2118.29 242.092 M2118.29 231.999 L2122.55 231.999 L2122.55 237.393 L2118.29 237.393 L2118.29 231.999 Z" fill="#ffffff" fill-rule="nonzero" fill-opacity="1" /><path clip-path="url(#clip790)" d="M2153.01 252.369 L2153.01 268.018 L2148.75 268.018 L2148.75 252.508 Q2148.75 248.828 2147.32 246.999 Q2145.88 245.17 2143.01 245.17 Q2139.56 245.17 2137.57 247.37 Q2135.58 249.569 2135.58 253.365 L2135.58 268.018 L2131.3 268.018 L2131.3 242.092 L2135.58 242.092 L2135.58 246.12 Q2137.11 243.782 2139.17 242.624 Q2141.25 241.467 2143.96 241.467 Q2148.43 241.467 2150.72 244.245 Q2153.01 246.999 2153.01 252.369 Z" fill="#ffffff" fill-rule="nonzero" fill-opacity="1" /><path clip-path="url(#clip790)" d="M2161.51 242.092 L2165.77 242.092 L2165.77 268.018 L2161.51 268.018 L2161.51 242.092 M2161.51 231.999 L2165.77 231.999 L2165.77 237.393 L2161.51 237.393 L2161.51 231.999 Z" fill="#ffffff" fill-rule="nonzero" fill-opacity="1" /><path clip-path="url(#clip790)" d="M2193.33 243.087 L2193.33 247.069 Q2191.53 246.073 2189.7 245.587 Q2187.9 245.078 2186.04 245.078 Q2181.9 245.078 2179.61 247.717 Q2177.32 250.332 2177.32 255.078 Q2177.32 259.823 2179.61 262.462 Q2181.9 265.078 2186.04 265.078 Q2187.9 265.078 2189.7 264.592 Q2191.53 264.082 2193.33 263.087 L2193.33 267.022 Q2191.55 267.856 2189.63 268.272 Q2187.73 268.689 2185.58 268.689 Q2179.72 268.689 2176.27 265.008 Q2172.83 261.328 2172.83 255.078 Q2172.83 248.735 2176.3 245.101 Q2179.79 241.467 2185.86 241.467 Q2187.83 241.467 2189.7 241.883 Q2191.58 242.277 2193.33 243.087 Z" fill="#ffffff" fill-rule="nonzero" fill-opacity="1" /><path clip-path="url(#clip790)" d="M2212.52 254.985 Q2207.36 254.985 2205.37 256.166 Q2203.38 257.346 2203.38 260.194 Q2203.38 262.462 2204.86 263.805 Q2206.37 265.124 2208.94 265.124 Q2212.48 265.124 2214.61 262.624 Q2216.76 260.101 2216.76 255.934 L2216.76 254.985 L2212.52 254.985 M2221.02 253.226 L2221.02 268.018 L2216.76 268.018 L2216.76 264.082 Q2215.3 266.443 2213.13 267.578 Q2210.95 268.689 2207.8 268.689 Q2203.82 268.689 2201.46 266.467 Q2199.12 264.221 2199.12 260.471 Q2199.12 256.096 2202.04 253.874 Q2204.98 251.652 2210.79 251.652 L2216.76 251.652 L2216.76 251.235 Q2216.76 248.295 2214.82 246.698 Q2212.9 245.078 2209.4 245.078 Q2207.18 245.078 2205.07 245.61 Q2202.96 246.143 2201.02 247.207 L2201.02 243.272 Q2203.36 242.37 2205.56 241.93 Q2207.76 241.467 2209.84 241.467 Q2215.46 241.467 2218.24 244.383 Q2221.02 247.3 2221.02 253.226 Z" fill="#ffffff" fill-rule="nonzero" fill-opacity="1" /></svg>
