<?xml version="1.0" encoding="utf-8" standalone="no"?>
<!DOCTYPE svg PUBLIC "-//W3C//DTD SVG 1.1//EN"
  "http://www.w3.org/Graphics/SVG/1.1/DTD/svg11.dtd">
<svg xmlns:xlink="http://www.w3.org/1999/xlink" width="288pt" height="216pt" viewBox="0 0 288 216" xmlns="http://www.w3.org/2000/svg" version="1.1">
 <metadata>
  <rdf:RDF xmlns:dc="http://purl.org/dc/elements/1.1/" xmlns:cc="http://creativecommons.org/ns#" xmlns:rdf="http://www.w3.org/1999/02/22-rdf-syntax-ns#">
   <cc:Work>
    <dc:type rdf:resource="http://purl.org/dc/dcmitype/StillImage"/>
    <dc:date>2022-09-29T12:59:23.890916</dc:date>
    <dc:format>image/svg+xml</dc:format>
    <dc:creator>
     <cc:Agent>
      <dc:title>Matplotlib v3.6.0, https://matplotlib.org/</dc:title>
     </cc:Agent>
    </dc:creator>
   </cc:Work>
  </rdf:RDF>
 </metadata>
 <defs>
  <style type="text/css">*{stroke-linejoin: round; stroke-linecap: butt}</style>
 </defs>
 <g id="figure_1">
  <g id="patch_1">
   <path d="M 0 216 
L 288 216 
L 288 0 
L 0 0 
z
" style="fill: #ffffff"/>
  </g>
  <g id="axes_1">
   <g id="patch_2">
    <path d="M 36 192.24 
L 259.2 192.24 
L 259.2 25.92 
L 36 25.92 
z
" style="fill: #ffffff"/>
   </g>
   <g id="PathCollection_1">
    <defs>
     <path id="m4fd83712a1" d="M -5 0 
L 5 0 
M 0 5 
L 0 -5 
" style="stroke: #ff4500; stroke-opacity: 0.5; stroke-width: 1.5"/>
    </defs>
    <g clip-path="url(#p6a434c6609)">
     <use xlink:href="#m4fd83712a1" x="36" y="103.646658" style="fill: #ff4500; fill-opacity: 0.5; stroke: #ff4500; stroke-opacity: 0.5; stroke-width: 1.5"/>
     <use xlink:href="#m4fd83712a1" x="38.147186" y="97.179777" style="fill: #ff4500; fill-opacity: 0.5; stroke: #ff4500; stroke-opacity: 0.5; stroke-width: 1.5"/>
     <use xlink:href="#m4fd83712a1" x="40.294372" y="93.579745" style="fill: #ff4500; fill-opacity: 0.5; stroke: #ff4500; stroke-opacity: 0.5; stroke-width: 1.5"/>
     <use xlink:href="#m4fd83712a1" x="42.441558" y="139.71808" style="fill: #ff4500; fill-opacity: 0.5; stroke: #ff4500; stroke-opacity: 0.5; stroke-width: 1.5"/>
     <use xlink:href="#m4fd83712a1" x="44.588745" y="110.9466" style="fill: #ff4500; fill-opacity: 0.5; stroke: #ff4500; stroke-opacity: 0.5; stroke-width: 1.5"/>
     <use xlink:href="#m4fd83712a1" x="46.735931" y="129.329125" style="fill: #ff4500; fill-opacity: 0.5; stroke: #ff4500; stroke-opacity: 0.5; stroke-width: 1.5"/>
     <use xlink:href="#m4fd83712a1" x="48.883117" y="157.539795" style="fill: #ff4500; fill-opacity: 0.5; stroke: #ff4500; stroke-opacity: 0.5; stroke-width: 1.5"/>
     <use xlink:href="#m4fd83712a1" x="51.030303" y="90.534911" style="fill: #ff4500; fill-opacity: 0.5; stroke: #ff4500; stroke-opacity: 0.5; stroke-width: 1.5"/>
     <use xlink:href="#m4fd83712a1" x="53.177489" y="135.883374" style="fill: #ff4500; fill-opacity: 0.5; stroke: #ff4500; stroke-opacity: 0.5; stroke-width: 1.5"/>
     <use xlink:href="#m4fd83712a1" x="55.324675" y="124.651217" style="fill: #ff4500; fill-opacity: 0.5; stroke: #ff4500; stroke-opacity: 0.5; stroke-width: 1.5"/>
     <use xlink:href="#m4fd83712a1" x="57.471861" y="97.240338" style="fill: #ff4500; fill-opacity: 0.5; stroke: #ff4500; stroke-opacity: 0.5; stroke-width: 1.5"/>
     <use xlink:href="#m4fd83712a1" x="59.619048" y="79.914626" style="fill: #ff4500; fill-opacity: 0.5; stroke: #ff4500; stroke-opacity: 0.5; stroke-width: 1.5"/>
     <use xlink:href="#m4fd83712a1" x="61.766234" y="85.61115" style="fill: #ff4500; fill-opacity: 0.5; stroke: #ff4500; stroke-opacity: 0.5; stroke-width: 1.5"/>
     <use xlink:href="#m4fd83712a1" x="63.91342" y="102.760219" style="fill: #ff4500; fill-opacity: 0.5; stroke: #ff4500; stroke-opacity: 0.5; stroke-width: 1.5"/>
     <use xlink:href="#m4fd83712a1" x="66.060606" y="101.820853" style="fill: #ff4500; fill-opacity: 0.5; stroke: #ff4500; stroke-opacity: 0.5; stroke-width: 1.5"/>
     <use xlink:href="#m4fd83712a1" x="68.207792" y="127.475398" style="fill: #ff4500; fill-opacity: 0.5; stroke: #ff4500; stroke-opacity: 0.5; stroke-width: 1.5"/>
     <use xlink:href="#m4fd83712a1" x="70.354978" y="107.395919" style="fill: #ff4500; fill-opacity: 0.5; stroke: #ff4500; stroke-opacity: 0.5; stroke-width: 1.5"/>
     <use xlink:href="#m4fd83712a1" x="72.502165" y="36.690781" style="fill: #ff4500; fill-opacity: 0.5; stroke: #ff4500; stroke-opacity: 0.5; stroke-width: 1.5"/>
     <use xlink:href="#m4fd83712a1" x="74.649351" y="75.566016" style="fill: #ff4500; fill-opacity: 0.5; stroke: #ff4500; stroke-opacity: 0.5; stroke-width: 1.5"/>
     <use xlink:href="#m4fd83712a1" x="76.796537" y="93.943532" style="fill: #ff4500; fill-opacity: 0.5; stroke: #ff4500; stroke-opacity: 0.5; stroke-width: 1.5"/>
     <use xlink:href="#m4fd83712a1" x="78.943723" y="109.740832" style="fill: #ff4500; fill-opacity: 0.5; stroke: #ff4500; stroke-opacity: 0.5; stroke-width: 1.5"/>
     <use xlink:href="#m4fd83712a1" x="81.090909" y="89.125626" style="fill: #ff4500; fill-opacity: 0.5; stroke: #ff4500; stroke-opacity: 0.5; stroke-width: 1.5"/>
     <use xlink:href="#m4fd83712a1" x="83.238095" y="118.779706" style="fill: #ff4500; fill-opacity: 0.5; stroke: #ff4500; stroke-opacity: 0.5; stroke-width: 1.5"/>
     <use xlink:href="#m4fd83712a1" x="85.385281" y="81.988186" style="fill: #ff4500; fill-opacity: 0.5; stroke: #ff4500; stroke-opacity: 0.5; stroke-width: 1.5"/>
     <use xlink:href="#m4fd83712a1" x="87.532468" y="184.68" style="fill: #ff4500; fill-opacity: 0.5; stroke: #ff4500; stroke-opacity: 0.5; stroke-width: 1.5"/>
     <use xlink:href="#m4fd83712a1" x="89.679654" y="108.27535" style="fill: #ff4500; fill-opacity: 0.5; stroke: #ff4500; stroke-opacity: 0.5; stroke-width: 1.5"/>
     <use xlink:href="#m4fd83712a1" x="91.82684" y="115.01334" style="fill: #ff4500; fill-opacity: 0.5; stroke: #ff4500; stroke-opacity: 0.5; stroke-width: 1.5"/>
     <use xlink:href="#m4fd83712a1" x="93.974026" y="104.500805" style="fill: #ff4500; fill-opacity: 0.5; stroke: #ff4500; stroke-opacity: 0.5; stroke-width: 1.5"/>
     <use xlink:href="#m4fd83712a1" x="96.121212" y="126.291183" style="fill: #ff4500; fill-opacity: 0.5; stroke: #ff4500; stroke-opacity: 0.5; stroke-width: 1.5"/>
     <use xlink:href="#m4fd83712a1" x="98.268398" y="112.743562" style="fill: #ff4500; fill-opacity: 0.5; stroke: #ff4500; stroke-opacity: 0.5; stroke-width: 1.5"/>
     <use xlink:href="#m4fd83712a1" x="100.415584" y="125.614906" style="fill: #ff4500; fill-opacity: 0.5; stroke: #ff4500; stroke-opacity: 0.5; stroke-width: 1.5"/>
     <use xlink:href="#m4fd83712a1" x="102.562771" y="119.493456" style="fill: #ff4500; fill-opacity: 0.5; stroke: #ff4500; stroke-opacity: 0.5; stroke-width: 1.5"/>
     <use xlink:href="#m4fd83712a1" x="104.709957" y="141.187962" style="fill: #ff4500; fill-opacity: 0.5; stroke: #ff4500; stroke-opacity: 0.5; stroke-width: 1.5"/>
     <use xlink:href="#m4fd83712a1" x="106.857143" y="87.836577" style="fill: #ff4500; fill-opacity: 0.5; stroke: #ff4500; stroke-opacity: 0.5; stroke-width: 1.5"/>
     <use xlink:href="#m4fd83712a1" x="109.004329" y="102.765962" style="fill: #ff4500; fill-opacity: 0.5; stroke: #ff4500; stroke-opacity: 0.5; stroke-width: 1.5"/>
     <use xlink:href="#m4fd83712a1" x="111.151515" y="109.248242" style="fill: #ff4500; fill-opacity: 0.5; stroke: #ff4500; stroke-opacity: 0.5; stroke-width: 1.5"/>
     <use xlink:href="#m4fd83712a1" x="113.298701" y="104.474972" style="fill: #ff4500; fill-opacity: 0.5; stroke: #ff4500; stroke-opacity: 0.5; stroke-width: 1.5"/>
     <use xlink:href="#m4fd83712a1" x="115.445887" y="109.047516" style="fill: #ff4500; fill-opacity: 0.5; stroke: #ff4500; stroke-opacity: 0.5; stroke-width: 1.5"/>
     <use xlink:href="#m4fd83712a1" x="117.593074" y="133.336493" style="fill: #ff4500; fill-opacity: 0.5; stroke: #ff4500; stroke-opacity: 0.5; stroke-width: 1.5"/>
     <use xlink:href="#m4fd83712a1" x="119.74026" y="90.70831" style="fill: #ff4500; fill-opacity: 0.5; stroke: #ff4500; stroke-opacity: 0.5; stroke-width: 1.5"/>
     <use xlink:href="#m4fd83712a1" x="121.887446" y="73.371384" style="fill: #ff4500; fill-opacity: 0.5; stroke: #ff4500; stroke-opacity: 0.5; stroke-width: 1.5"/>
     <use xlink:href="#m4fd83712a1" x="124.034632" y="134.508341" style="fill: #ff4500; fill-opacity: 0.5; stroke: #ff4500; stroke-opacity: 0.5; stroke-width: 1.5"/>
     <use xlink:href="#m4fd83712a1" x="126.181818" y="117.94691" style="fill: #ff4500; fill-opacity: 0.5; stroke: #ff4500; stroke-opacity: 0.5; stroke-width: 1.5"/>
     <use xlink:href="#m4fd83712a1" x="128.329004" y="115.267661" style="fill: #ff4500; fill-opacity: 0.5; stroke: #ff4500; stroke-opacity: 0.5; stroke-width: 1.5"/>
     <use xlink:href="#m4fd83712a1" x="130.47619" y="140.520249" style="fill: #ff4500; fill-opacity: 0.5; stroke: #ff4500; stroke-opacity: 0.5; stroke-width: 1.5"/>
     <use xlink:href="#m4fd83712a1" x="132.623377" y="127.089589" style="fill: #ff4500; fill-opacity: 0.5; stroke: #ff4500; stroke-opacity: 0.5; stroke-width: 1.5"/>
     <use xlink:href="#m4fd83712a1" x="134.770563" y="132.398143" style="fill: #ff4500; fill-opacity: 0.5; stroke: #ff4500; stroke-opacity: 0.5; stroke-width: 1.5"/>
     <use xlink:href="#m4fd83712a1" x="136.917749" y="114.599327" style="fill: #ff4500; fill-opacity: 0.5; stroke: #ff4500; stroke-opacity: 0.5; stroke-width: 1.5"/>
     <use xlink:href="#m4fd83712a1" x="139.064935" y="104.601098" style="fill: #ff4500; fill-opacity: 0.5; stroke: #ff4500; stroke-opacity: 0.5; stroke-width: 1.5"/>
     <use xlink:href="#m4fd83712a1" x="141.212121" y="123.93942" style="fill: #ff4500; fill-opacity: 0.5; stroke: #ff4500; stroke-opacity: 0.5; stroke-width: 1.5"/>
     <use xlink:href="#m4fd83712a1" x="143.359307" y="88.039515" style="fill: #ff4500; fill-opacity: 0.5; stroke: #ff4500; stroke-opacity: 0.5; stroke-width: 1.5"/>
     <use xlink:href="#m4fd83712a1" x="145.506494" y="101.347226" style="fill: #ff4500; fill-opacity: 0.5; stroke: #ff4500; stroke-opacity: 0.5; stroke-width: 1.5"/>
     <use xlink:href="#m4fd83712a1" x="147.65368" y="103.029845" style="fill: #ff4500; fill-opacity: 0.5; stroke: #ff4500; stroke-opacity: 0.5; stroke-width: 1.5"/>
     <use xlink:href="#m4fd83712a1" x="149.800866" y="132.166072" style="fill: #ff4500; fill-opacity: 0.5; stroke: #ff4500; stroke-opacity: 0.5; stroke-width: 1.5"/>
     <use xlink:href="#m4fd83712a1" x="151.948052" y="100.017943" style="fill: #ff4500; fill-opacity: 0.5; stroke: #ff4500; stroke-opacity: 0.5; stroke-width: 1.5"/>
     <use xlink:href="#m4fd83712a1" x="154.095238" y="81.53817" style="fill: #ff4500; fill-opacity: 0.5; stroke: #ff4500; stroke-opacity: 0.5; stroke-width: 1.5"/>
     <use xlink:href="#m4fd83712a1" x="156.242424" y="115.893417" style="fill: #ff4500; fill-opacity: 0.5; stroke: #ff4500; stroke-opacity: 0.5; stroke-width: 1.5"/>
     <use xlink:href="#m4fd83712a1" x="158.38961" y="125.412345" style="fill: #ff4500; fill-opacity: 0.5; stroke: #ff4500; stroke-opacity: 0.5; stroke-width: 1.5"/>
     <use xlink:href="#m4fd83712a1" x="160.536797" y="103.281035" style="fill: #ff4500; fill-opacity: 0.5; stroke: #ff4500; stroke-opacity: 0.5; stroke-width: 1.5"/>
     <use xlink:href="#m4fd83712a1" x="162.683983" y="122.111972" style="fill: #ff4500; fill-opacity: 0.5; stroke: #ff4500; stroke-opacity: 0.5; stroke-width: 1.5"/>
     <use xlink:href="#m4fd83712a1" x="164.831169" y="117.222044" style="fill: #ff4500; fill-opacity: 0.5; stroke: #ff4500; stroke-opacity: 0.5; stroke-width: 1.5"/>
     <use xlink:href="#m4fd83712a1" x="166.978355" y="83.263089" style="fill: #ff4500; fill-opacity: 0.5; stroke: #ff4500; stroke-opacity: 0.5; stroke-width: 1.5"/>
     <use xlink:href="#m4fd83712a1" x="169.125541" y="133.359704" style="fill: #ff4500; fill-opacity: 0.5; stroke: #ff4500; stroke-opacity: 0.5; stroke-width: 1.5"/>
     <use xlink:href="#m4fd83712a1" x="171.272727" y="136.205116" style="fill: #ff4500; fill-opacity: 0.5; stroke: #ff4500; stroke-opacity: 0.5; stroke-width: 1.5"/>
     <use xlink:href="#m4fd83712a1" x="173.419913" y="130.566157" style="fill: #ff4500; fill-opacity: 0.5; stroke: #ff4500; stroke-opacity: 0.5; stroke-width: 1.5"/>
     <use xlink:href="#m4fd83712a1" x="175.5671" y="129.152355" style="fill: #ff4500; fill-opacity: 0.5; stroke: #ff4500; stroke-opacity: 0.5; stroke-width: 1.5"/>
     <use xlink:href="#m4fd83712a1" x="177.714286" y="45.018381" style="fill: #ff4500; fill-opacity: 0.5; stroke: #ff4500; stroke-opacity: 0.5; stroke-width: 1.5"/>
     <use xlink:href="#m4fd83712a1" x="179.861472" y="118.172173" style="fill: #ff4500; fill-opacity: 0.5; stroke: #ff4500; stroke-opacity: 0.5; stroke-width: 1.5"/>
     <use xlink:href="#m4fd83712a1" x="182.008658" y="70.544538" style="fill: #ff4500; fill-opacity: 0.5; stroke: #ff4500; stroke-opacity: 0.5; stroke-width: 1.5"/>
     <use xlink:href="#m4fd83712a1" x="184.155844" y="122.95533" style="fill: #ff4500; fill-opacity: 0.5; stroke: #ff4500; stroke-opacity: 0.5; stroke-width: 1.5"/>
     <use xlink:href="#m4fd83712a1" x="186.30303" y="124.477464" style="fill: #ff4500; fill-opacity: 0.5; stroke: #ff4500; stroke-opacity: 0.5; stroke-width: 1.5"/>
     <use xlink:href="#m4fd83712a1" x="188.450216" y="104.598261" style="fill: #ff4500; fill-opacity: 0.5; stroke: #ff4500; stroke-opacity: 0.5; stroke-width: 1.5"/>
     <use xlink:href="#m4fd83712a1" x="190.597403" y="135.0915" style="fill: #ff4500; fill-opacity: 0.5; stroke: #ff4500; stroke-opacity: 0.5; stroke-width: 1.5"/>
     <use xlink:href="#m4fd83712a1" x="192.744589" y="86.143884" style="fill: #ff4500; fill-opacity: 0.5; stroke: #ff4500; stroke-opacity: 0.5; stroke-width: 1.5"/>
     <use xlink:href="#m4fd83712a1" x="194.891775" y="121.077072" style="fill: #ff4500; fill-opacity: 0.5; stroke: #ff4500; stroke-opacity: 0.5; stroke-width: 1.5"/>
     <use xlink:href="#m4fd83712a1" x="197.038961" y="90.904328" style="fill: #ff4500; fill-opacity: 0.5; stroke: #ff4500; stroke-opacity: 0.5; stroke-width: 1.5"/>
     <use xlink:href="#m4fd83712a1" x="199.186147" y="54.786947" style="fill: #ff4500; fill-opacity: 0.5; stroke: #ff4500; stroke-opacity: 0.5; stroke-width: 1.5"/>
     <use xlink:href="#m4fd83712a1" x="201.333333" y="92.010229" style="fill: #ff4500; fill-opacity: 0.5; stroke: #ff4500; stroke-opacity: 0.5; stroke-width: 1.5"/>
     <use xlink:href="#m4fd83712a1" x="203.480519" y="128.167466" style="fill: #ff4500; fill-opacity: 0.5; stroke: #ff4500; stroke-opacity: 0.5; stroke-width: 1.5"/>
     <use xlink:href="#m4fd83712a1" x="205.627706" y="99.167803" style="fill: #ff4500; fill-opacity: 0.5; stroke: #ff4500; stroke-opacity: 0.5; stroke-width: 1.5"/>
     <use xlink:href="#m4fd83712a1" x="207.774892" y="106.479036" style="fill: #ff4500; fill-opacity: 0.5; stroke: #ff4500; stroke-opacity: 0.5; stroke-width: 1.5"/>
     <use xlink:href="#m4fd83712a1" x="209.922078" y="140.961767" style="fill: #ff4500; fill-opacity: 0.5; stroke: #ff4500; stroke-opacity: 0.5; stroke-width: 1.5"/>
     <use xlink:href="#m4fd83712a1" x="212.069264" y="122.293717" style="fill: #ff4500; fill-opacity: 0.5; stroke: #ff4500; stroke-opacity: 0.5; stroke-width: 1.5"/>
     <use xlink:href="#m4fd83712a1" x="214.21645" y="80.928917" style="fill: #ff4500; fill-opacity: 0.5; stroke: #ff4500; stroke-opacity: 0.5; stroke-width: 1.5"/>
     <use xlink:href="#m4fd83712a1" x="216.363636" y="126.45509" style="fill: #ff4500; fill-opacity: 0.5; stroke: #ff4500; stroke-opacity: 0.5; stroke-width: 1.5"/>
     <use xlink:href="#m4fd83712a1" x="218.510823" y="125.048273" style="fill: #ff4500; fill-opacity: 0.5; stroke: #ff4500; stroke-opacity: 0.5; stroke-width: 1.5"/>
     <use xlink:href="#m4fd83712a1" x="220.658009" y="87.175459" style="fill: #ff4500; fill-opacity: 0.5; stroke: #ff4500; stroke-opacity: 0.5; stroke-width: 1.5"/>
     <use xlink:href="#m4fd83712a1" x="222.805195" y="80.480147" style="fill: #ff4500; fill-opacity: 0.5; stroke: #ff4500; stroke-opacity: 0.5; stroke-width: 1.5"/>
     <use xlink:href="#m4fd83712a1" x="224.952381" y="128.234863" style="fill: #ff4500; fill-opacity: 0.5; stroke: #ff4500; stroke-opacity: 0.5; stroke-width: 1.5"/>
     <use xlink:href="#m4fd83712a1" x="227.099567" y="72.867235" style="fill: #ff4500; fill-opacity: 0.5; stroke: #ff4500; stroke-opacity: 0.5; stroke-width: 1.5"/>
     <use xlink:href="#m4fd83712a1" x="229.246753" y="86.945307" style="fill: #ff4500; fill-opacity: 0.5; stroke: #ff4500; stroke-opacity: 0.5; stroke-width: 1.5"/>
     <use xlink:href="#m4fd83712a1" x="231.393939" y="132.830582" style="fill: #ff4500; fill-opacity: 0.5; stroke: #ff4500; stroke-opacity: 0.5; stroke-width: 1.5"/>
     <use xlink:href="#m4fd83712a1" x="233.541126" y="96.55226" style="fill: #ff4500; fill-opacity: 0.5; stroke: #ff4500; stroke-opacity: 0.5; stroke-width: 1.5"/>
     <use xlink:href="#m4fd83712a1" x="235.688312" y="122.989636" style="fill: #ff4500; fill-opacity: 0.5; stroke: #ff4500; stroke-opacity: 0.5; stroke-width: 1.5"/>
     <use xlink:href="#m4fd83712a1" x="237.835498" y="81.706527" style="fill: #ff4500; fill-opacity: 0.5; stroke: #ff4500; stroke-opacity: 0.5; stroke-width: 1.5"/>
     <use xlink:href="#m4fd83712a1" x="239.982684" y="108.099513" style="fill: #ff4500; fill-opacity: 0.5; stroke: #ff4500; stroke-opacity: 0.5; stroke-width: 1.5"/>
     <use xlink:href="#m4fd83712a1" x="242.12987" y="83.09173" style="fill: #ff4500; fill-opacity: 0.5; stroke: #ff4500; stroke-opacity: 0.5; stroke-width: 1.5"/>
     <use xlink:href="#m4fd83712a1" x="244.277056" y="121.798123" style="fill: #ff4500; fill-opacity: 0.5; stroke: #ff4500; stroke-opacity: 0.5; stroke-width: 1.5"/>
     <use xlink:href="#m4fd83712a1" x="246.424242" y="91.159076" style="fill: #ff4500; fill-opacity: 0.5; stroke: #ff4500; stroke-opacity: 0.5; stroke-width: 1.5"/>
     <use xlink:href="#m4fd83712a1" x="248.571429" y="90.409156" style="fill: #ff4500; fill-opacity: 0.5; stroke: #ff4500; stroke-opacity: 0.5; stroke-width: 1.5"/>
    </g>
   </g>
   <g id="patch_3">
    <path d="M 36 167.753769 
L 58.640823 167.753769 
L 58.640823 163.277977 
L 36 163.277977 
z
" clip-path="url(#p6a434c6609)" style="fill: #008000; opacity: 0.5"/>
   </g>
   <g id="patch_4">
    <path d="M 36 163.277977 
L 47.320411 163.277977 
L 47.320411 158.802185 
L 36 158.802185 
z
" clip-path="url(#p6a434c6609)" style="fill: #008000; opacity: 0.5"/>
   </g>
   <g id="patch_5">
    <path d="M 36 158.802185 
L 58.640823 158.802185 
L 58.640823 154.326393 
L 36 154.326393 
z
" clip-path="url(#p6a434c6609)" style="fill: #008000; opacity: 0.5"/>
   </g>
   <g id="patch_6">
    <path d="M 36 154.326393 
L 81.281645 154.326393 
L 81.281645 149.8506 
L 36 149.8506 
z
" clip-path="url(#p6a434c6609)" style="fill: #008000; opacity: 0.5"/>
   </g>
   <g id="patch_7">
    <path d="M 36 149.8506 
L 81.281645 149.8506 
L 81.281645 145.374808 
L 36 145.374808 
z
" clip-path="url(#p6a434c6609)" style="fill: #008000; opacity: 0.5"/>
   </g>
   <g id="patch_8">
    <path d="M 36 145.374808 
L 36 145.374808 
L 36 140.899016 
L 36 140.899016 
z
" clip-path="url(#p6a434c6609)" style="fill: #008000; opacity: 0.5"/>
   </g>
   <g id="patch_9">
    <path d="M 36 140.899016 
L 58.640823 140.899016 
L 58.640823 136.423223 
L 36 136.423223 
z
" clip-path="url(#p6a434c6609)" style="fill: #008000; opacity: 0.5"/>
   </g>
   <g id="patch_10">
    <path d="M 36 136.423223 
L 69.961234 136.423223 
L 69.961234 131.947431 
L 36 131.947431 
z
" clip-path="url(#p6a434c6609)" style="fill: #008000; opacity: 0.5"/>
   </g>
   <g id="patch_11">
    <path d="M 36 131.947431 
L 92.602057 131.947431 
L 92.602057 127.471639 
L 36 127.471639 
z
" clip-path="url(#p6a434c6609)" style="fill: #008000; opacity: 0.5"/>
   </g>
   <g id="patch_12">
    <path d="M 36 127.471639 
L 92.602057 127.471639 
L 92.602057 122.995846 
L 36 122.995846 
z
" clip-path="url(#p6a434c6609)" style="fill: #008000; opacity: 0.5"/>
   </g>
   <g id="patch_13">
    <path d="M 36 122.995846 
L 81.281645 122.995846 
L 81.281645 118.520054 
L 36 118.520054 
z
" clip-path="url(#p6a434c6609)" style="fill: #008000; opacity: 0.5"/>
   </g>
   <g id="patch_14">
    <path d="M 36 118.520054 
L 92.602057 118.520054 
L 92.602057 114.044262 
L 36 114.044262 
z
" clip-path="url(#p6a434c6609)" style="fill: #008000; opacity: 0.5"/>
   </g>
   <g id="patch_15">
    <path d="M 36 114.044262 
L 137.883702 114.044262 
L 137.883702 109.568469 
L 36 109.568469 
z
" clip-path="url(#p6a434c6609)" style="fill: #008000; opacity: 0.5"/>
   </g>
   <g id="patch_16">
    <path d="M 36 109.568469 
L 92.602057 109.568469 
L 92.602057 105.092677 
L 36 105.092677 
z
" clip-path="url(#p6a434c6609)" style="fill: #008000; opacity: 0.5"/>
   </g>
   <g id="patch_17">
    <path d="M 36 105.092677 
L 137.883702 105.092677 
L 137.883702 100.616885 
L 36 100.616885 
z
" clip-path="url(#p6a434c6609)" style="fill: #008000; opacity: 0.5"/>
   </g>
   <g id="patch_18">
    <path d="M 36 100.616885 
L 81.281645 100.616885 
L 81.281645 96.141092 
L 36 96.141092 
z
" clip-path="url(#p6a434c6609)" style="fill: #008000; opacity: 0.5"/>
   </g>
   <g id="patch_19">
    <path d="M 36 96.141092 
L 92.602057 96.141092 
L 92.602057 91.6653 
L 36 91.6653 
z
" clip-path="url(#p6a434c6609)" style="fill: #008000; opacity: 0.5"/>
   </g>
   <g id="patch_20">
    <path d="M 36 91.6653 
L 92.602057 91.6653 
L 92.602057 87.189508 
L 36 87.189508 
z
" clip-path="url(#p6a434c6609)" style="fill: #008000; opacity: 0.5"/>
   </g>
   <g id="patch_21">
    <path d="M 36 87.189508 
L 137.883702 87.189508 
L 137.883702 82.713715 
L 36 82.713715 
z
" clip-path="url(#p6a434c6609)" style="fill: #008000; opacity: 0.5"/>
   </g>
   <g id="patch_22">
    <path d="M 36 82.713715 
L 126.563291 82.713715 
L 126.563291 78.237923 
L 36 78.237923 
z
" clip-path="url(#p6a434c6609)" style="fill: #008000; opacity: 0.5"/>
   </g>
   <g id="patch_23">
    <path d="M 36 78.237923 
L 69.961234 78.237923 
L 69.961234 73.762131 
L 36 73.762131 
z
" clip-path="url(#p6a434c6609)" style="fill: #008000; opacity: 0.5"/>
   </g>
   <g id="patch_24">
    <path d="M 36 73.762131 
L 47.320411 73.762131 
L 47.320411 69.286339 
L 36 69.286339 
z
" clip-path="url(#p6a434c6609)" style="fill: #008000; opacity: 0.5"/>
   </g>
   <g id="patch_25">
    <path d="M 36 69.286339 
L 47.320411 69.286339 
L 47.320411 64.810546 
L 36 64.810546 
z
" clip-path="url(#p6a434c6609)" style="fill: #008000; opacity: 0.5"/>
   </g>
   <g id="patch_26">
    <path d="M 36 64.810546 
L 47.320411 64.810546 
L 47.320411 60.334754 
L 36 60.334754 
z
" clip-path="url(#p6a434c6609)" style="fill: #008000; opacity: 0.5"/>
   </g>
   <g id="patch_27">
    <path d="M 36 60.334754 
L 36 60.334754 
L 36 55.858962 
L 36 55.858962 
z
" clip-path="url(#p6a434c6609)" style="fill: #008000; opacity: 0.5"/>
   </g>
   <g id="patch_28">
    <path d="M 36 55.858962 
L 47.320411 55.858962 
L 47.320411 51.383169 
L 36 51.383169 
z
" clip-path="url(#p6a434c6609)" style="fill: #008000; opacity: 0.5"/>
   </g>
   <g id="patch_29">
    <path d="M 36 51.383169 
L 36 51.383169 
L 36 46.907377 
L 36 46.907377 
z
" clip-path="url(#p6a434c6609)" style="fill: #008000; opacity: 0.5"/>
   </g>
   <g id="patch_30">
    <path d="M 36 46.907377 
L 47.320411 46.907377 
L 47.320411 42.431585 
L 36 42.431585 
z
" clip-path="url(#p6a434c6609)" style="fill: #008000; opacity: 0.5"/>
   </g>
   <g id="patch_31">
    <path d="M 36 42.431585 
L 36 42.431585 
L 36 37.955792 
L 36 37.955792 
z
" clip-path="url(#p6a434c6609)" style="fill: #008000; opacity: 0.5"/>
   </g>
   <g id="patch_32">
    <path d="M 36 37.955792 
L 47.320411 37.955792 
L 47.320411 33.48 
L 36 33.48 
z
" clip-path="url(#p6a434c6609)" style="fill: #008000; opacity: 0.5"/>
   </g>
   <g id="matplotlib.axis_1">
    <g id="xtick_1">
     <g id="line2d_1">
      <path d="M 36 192.24 
L 36 25.92 
" clip-path="url(#p6a434c6609)" style="fill: none; stroke: #b0b0b0; stroke-width: 0.8; stroke-linecap: square"/>
     </g>
     <g id="line2d_2">
      <defs>
       <path id="m268972dd3d" d="M 0 0 
L 0 3.5 
" style="stroke: #000000; stroke-width: 0.8"/>
      </defs>
      <g>
       <use xlink:href="#m268972dd3d" x="36" y="192.24" style="stroke: #000000; stroke-width: 0.8"/>
      </g>
     </g>
     <g id="text_1">
      <!-- 0.0 -->
      <g transform="translate(28.048437 206.838437) scale(0.1 -0.1)">
       <defs>
        <path id="DejaVuSans-30" d="M 2034 4250 
Q 1547 4250 1301 3770 
Q 1056 3291 1056 2328 
Q 1056 1369 1301 889 
Q 1547 409 2034 409 
Q 2525 409 2770 889 
Q 3016 1369 3016 2328 
Q 3016 3291 2770 3770 
Q 2525 4250 2034 4250 
z
M 2034 4750 
Q 2819 4750 3233 4129 
Q 3647 3509 3647 2328 
Q 3647 1150 3233 529 
Q 2819 -91 2034 -91 
Q 1250 -91 836 529 
Q 422 1150 422 2328 
Q 422 3509 836 4129 
Q 1250 4750 2034 4750 
z
" transform="scale(0.015625)"/>
        <path id="DejaVuSans-2e" d="M 684 794 
L 1344 794 
L 1344 0 
L 684 0 
L 684 794 
z
" transform="scale(0.015625)"/>
       </defs>
       <use xlink:href="#DejaVuSans-30"/>
       <use xlink:href="#DejaVuSans-2e" x="63.623047"/>
       <use xlink:href="#DejaVuSans-30" x="95.410156"/>
      </g>
     </g>
    </g>
    <g id="xtick_2">
     <g id="line2d_3">
      <path d="M 78.514286 192.24 
L 78.514286 25.92 
" clip-path="url(#p6a434c6609)" style="fill: none; stroke: #b0b0b0; stroke-width: 0.8; stroke-linecap: square"/>
     </g>
     <g id="line2d_4">
      <g>
       <use xlink:href="#m268972dd3d" x="78.514286" y="192.24" style="stroke: #000000; stroke-width: 0.8"/>
      </g>
     </g>
     <g id="text_2">
      <!-- 0.2 -->
      <g transform="translate(70.562723 206.838437) scale(0.1 -0.1)">
       <defs>
        <path id="DejaVuSans-32" d="M 1228 531 
L 3431 531 
L 3431 0 
L 469 0 
L 469 531 
Q 828 903 1448 1529 
Q 2069 2156 2228 2338 
Q 2531 2678 2651 2914 
Q 2772 3150 2772 3378 
Q 2772 3750 2511 3984 
Q 2250 4219 1831 4219 
Q 1534 4219 1204 4116 
Q 875 4013 500 3803 
L 500 4441 
Q 881 4594 1212 4672 
Q 1544 4750 1819 4750 
Q 2544 4750 2975 4387 
Q 3406 4025 3406 3419 
Q 3406 3131 3298 2873 
Q 3191 2616 2906 2266 
Q 2828 2175 2409 1742 
Q 1991 1309 1228 531 
z
" transform="scale(0.015625)"/>
       </defs>
       <use xlink:href="#DejaVuSans-30"/>
       <use xlink:href="#DejaVuSans-2e" x="63.623047"/>
       <use xlink:href="#DejaVuSans-32" x="95.410156"/>
      </g>
     </g>
    </g>
    <g id="xtick_3">
     <g id="line2d_5">
      <path d="M 121.028571 192.24 
L 121.028571 25.92 
" clip-path="url(#p6a434c6609)" style="fill: none; stroke: #b0b0b0; stroke-width: 0.8; stroke-linecap: square"/>
     </g>
     <g id="line2d_6">
      <g>
       <use xlink:href="#m268972dd3d" x="121.028571" y="192.24" style="stroke: #000000; stroke-width: 0.8"/>
      </g>
     </g>
     <g id="text_3">
      <!-- 0.4 -->
      <g transform="translate(113.077009 206.838437) scale(0.1 -0.1)">
       <defs>
        <path id="DejaVuSans-34" d="M 2419 4116 
L 825 1625 
L 2419 1625 
L 2419 4116 
z
M 2253 4666 
L 3047 4666 
L 3047 1625 
L 3713 1625 
L 3713 1100 
L 3047 1100 
L 3047 0 
L 2419 0 
L 2419 1100 
L 313 1100 
L 313 1709 
L 2253 4666 
z
" transform="scale(0.015625)"/>
       </defs>
       <use xlink:href="#DejaVuSans-30"/>
       <use xlink:href="#DejaVuSans-2e" x="63.623047"/>
       <use xlink:href="#DejaVuSans-34" x="95.410156"/>
      </g>
     </g>
    </g>
    <g id="xtick_4">
     <g id="line2d_7">
      <path d="M 163.542857 192.24 
L 163.542857 25.92 
" clip-path="url(#p6a434c6609)" style="fill: none; stroke: #b0b0b0; stroke-width: 0.8; stroke-linecap: square"/>
     </g>
     <g id="line2d_8">
      <g>
       <use xlink:href="#m268972dd3d" x="163.542857" y="192.24" style="stroke: #000000; stroke-width: 0.8"/>
      </g>
     </g>
     <g id="text_4">
      <!-- 0.6 -->
      <g transform="translate(155.591295 206.838437) scale(0.1 -0.1)">
       <defs>
        <path id="DejaVuSans-36" d="M 2113 2584 
Q 1688 2584 1439 2293 
Q 1191 2003 1191 1497 
Q 1191 994 1439 701 
Q 1688 409 2113 409 
Q 2538 409 2786 701 
Q 3034 994 3034 1497 
Q 3034 2003 2786 2293 
Q 2538 2584 2113 2584 
z
M 3366 4563 
L 3366 3988 
Q 3128 4100 2886 4159 
Q 2644 4219 2406 4219 
Q 1781 4219 1451 3797 
Q 1122 3375 1075 2522 
Q 1259 2794 1537 2939 
Q 1816 3084 2150 3084 
Q 2853 3084 3261 2657 
Q 3669 2231 3669 1497 
Q 3669 778 3244 343 
Q 2819 -91 2113 -91 
Q 1303 -91 875 529 
Q 447 1150 447 2328 
Q 447 3434 972 4092 
Q 1497 4750 2381 4750 
Q 2619 4750 2861 4703 
Q 3103 4656 3366 4563 
z
" transform="scale(0.015625)"/>
       </defs>
       <use xlink:href="#DejaVuSans-30"/>
       <use xlink:href="#DejaVuSans-2e" x="63.623047"/>
       <use xlink:href="#DejaVuSans-36" x="95.410156"/>
      </g>
     </g>
    </g>
    <g id="xtick_5">
     <g id="line2d_9">
      <path d="M 206.057143 192.24 
L 206.057143 25.92 
" clip-path="url(#p6a434c6609)" style="fill: none; stroke: #b0b0b0; stroke-width: 0.8; stroke-linecap: square"/>
     </g>
     <g id="line2d_10">
      <g>
       <use xlink:href="#m268972dd3d" x="206.057143" y="192.24" style="stroke: #000000; stroke-width: 0.8"/>
      </g>
     </g>
     <g id="text_5">
      <!-- 0.8 -->
      <g transform="translate(198.10558 206.838437) scale(0.1 -0.1)">
       <defs>
        <path id="DejaVuSans-38" d="M 2034 2216 
Q 1584 2216 1326 1975 
Q 1069 1734 1069 1313 
Q 1069 891 1326 650 
Q 1584 409 2034 409 
Q 2484 409 2743 651 
Q 3003 894 3003 1313 
Q 3003 1734 2745 1975 
Q 2488 2216 2034 2216 
z
M 1403 2484 
Q 997 2584 770 2862 
Q 544 3141 544 3541 
Q 544 4100 942 4425 
Q 1341 4750 2034 4750 
Q 2731 4750 3128 4425 
Q 3525 4100 3525 3541 
Q 3525 3141 3298 2862 
Q 3072 2584 2669 2484 
Q 3125 2378 3379 2068 
Q 3634 1759 3634 1313 
Q 3634 634 3220 271 
Q 2806 -91 2034 -91 
Q 1263 -91 848 271 
Q 434 634 434 1313 
Q 434 1759 690 2068 
Q 947 2378 1403 2484 
z
M 1172 3481 
Q 1172 3119 1398 2916 
Q 1625 2713 2034 2713 
Q 2441 2713 2670 2916 
Q 2900 3119 2900 3481 
Q 2900 3844 2670 4047 
Q 2441 4250 2034 4250 
Q 1625 4250 1398 4047 
Q 1172 3844 1172 3481 
z
" transform="scale(0.015625)"/>
       </defs>
       <use xlink:href="#DejaVuSans-30"/>
       <use xlink:href="#DejaVuSans-2e" x="63.623047"/>
       <use xlink:href="#DejaVuSans-38" x="95.410156"/>
      </g>
     </g>
    </g>
    <g id="xtick_6">
     <g id="line2d_11">
      <path d="M 248.571429 192.24 
L 248.571429 25.92 
" clip-path="url(#p6a434c6609)" style="fill: none; stroke: #b0b0b0; stroke-width: 0.8; stroke-linecap: square"/>
     </g>
     <g id="line2d_12">
      <g>
       <use xlink:href="#m268972dd3d" x="248.571429" y="192.24" style="stroke: #000000; stroke-width: 0.8"/>
      </g>
     </g>
     <g id="text_6">
      <!-- 1.0 -->
      <g transform="translate(240.619866 206.838437) scale(0.1 -0.1)">
       <defs>
        <path id="DejaVuSans-31" d="M 794 531 
L 1825 531 
L 1825 4091 
L 703 3866 
L 703 4441 
L 1819 4666 
L 2450 4666 
L 2450 531 
L 3481 531 
L 3481 0 
L 794 0 
L 794 531 
z
" transform="scale(0.015625)"/>
       </defs>
       <use xlink:href="#DejaVuSans-31"/>
       <use xlink:href="#DejaVuSans-2e" x="63.623047"/>
       <use xlink:href="#DejaVuSans-30" x="95.410156"/>
      </g>
     </g>
    </g>
   </g>
   <g id="matplotlib.axis_2">
    <g id="ytick_1">
     <g id="line2d_13">
      <path d="M 36 178.506988 
L 259.2 178.506988 
" clip-path="url(#p6a434c6609)" style="fill: none; stroke: #b0b0b0; stroke-width: 0.8; stroke-linecap: square"/>
     </g>
     <g id="line2d_14">
      <defs>
       <path id="m33e5a1cb17" d="M 0 0 
L -3.5 0 
" style="stroke: #000000; stroke-width: 0.8"/>
      </defs>
      <g>
       <use xlink:href="#m33e5a1cb17" x="36" y="178.506988" style="stroke: #000000; stroke-width: 0.8"/>
      </g>
     </g>
     <g id="text_7">
      <!-- −3 -->
      <g transform="translate(14.257812 182.306207) scale(0.1 -0.1)">
       <defs>
        <path id="DejaVuSans-2212" d="M 678 2272 
L 4684 2272 
L 4684 1741 
L 678 1741 
L 678 2272 
z
" transform="scale(0.015625)"/>
        <path id="DejaVuSans-33" d="M 2597 2516 
Q 3050 2419 3304 2112 
Q 3559 1806 3559 1356 
Q 3559 666 3084 287 
Q 2609 -91 1734 -91 
Q 1441 -91 1130 -33 
Q 819 25 488 141 
L 488 750 
Q 750 597 1062 519 
Q 1375 441 1716 441 
Q 2309 441 2620 675 
Q 2931 909 2931 1356 
Q 2931 1769 2642 2001 
Q 2353 2234 1838 2234 
L 1294 2234 
L 1294 2753 
L 1863 2753 
Q 2328 2753 2575 2939 
Q 2822 3125 2822 3475 
Q 2822 3834 2567 4026 
Q 2313 4219 1838 4219 
Q 1578 4219 1281 4162 
Q 984 4106 628 3988 
L 628 4550 
Q 988 4650 1302 4700 
Q 1616 4750 1894 4750 
Q 2613 4750 3031 4423 
Q 3450 4097 3450 3541 
Q 3450 3153 3228 2886 
Q 3006 2619 2597 2516 
z
" transform="scale(0.015625)"/>
       </defs>
       <use xlink:href="#DejaVuSans-2212"/>
       <use xlink:href="#DejaVuSans-33" x="83.789062"/>
      </g>
     </g>
    </g>
    <g id="ytick_2">
     <g id="line2d_15">
      <path d="M 36 154.671325 
L 259.2 154.671325 
" clip-path="url(#p6a434c6609)" style="fill: none; stroke: #b0b0b0; stroke-width: 0.8; stroke-linecap: square"/>
     </g>
     <g id="line2d_16">
      <g>
       <use xlink:href="#m33e5a1cb17" x="36" y="154.671325" style="stroke: #000000; stroke-width: 0.8"/>
      </g>
     </g>
     <g id="text_8">
      <!-- −2 -->
      <g transform="translate(14.257812 158.470543) scale(0.1 -0.1)">
       <use xlink:href="#DejaVuSans-2212"/>
       <use xlink:href="#DejaVuSans-32" x="83.789062"/>
      </g>
     </g>
    </g>
    <g id="ytick_3">
     <g id="line2d_17">
      <path d="M 36 130.835661 
L 259.2 130.835661 
" clip-path="url(#p6a434c6609)" style="fill: none; stroke: #b0b0b0; stroke-width: 0.8; stroke-linecap: square"/>
     </g>
     <g id="line2d_18">
      <g>
       <use xlink:href="#m33e5a1cb17" x="36" y="130.835661" style="stroke: #000000; stroke-width: 0.8"/>
      </g>
     </g>
     <g id="text_9">
      <!-- −1 -->
      <g transform="translate(14.257812 134.63488) scale(0.1 -0.1)">
       <use xlink:href="#DejaVuSans-2212"/>
       <use xlink:href="#DejaVuSans-31" x="83.789062"/>
      </g>
     </g>
    </g>
    <g id="ytick_4">
     <g id="line2d_19">
      <path d="M 36 106.999998 
L 259.2 106.999998 
" clip-path="url(#p6a434c6609)" style="fill: none; stroke: #b0b0b0; stroke-width: 0.8; stroke-linecap: square"/>
     </g>
     <g id="line2d_20">
      <g>
       <use xlink:href="#m33e5a1cb17" x="36" y="106.999998" style="stroke: #000000; stroke-width: 0.8"/>
      </g>
     </g>
     <g id="text_10">
      <!-- 0 -->
      <g transform="translate(22.6375 110.799217) scale(0.1 -0.1)">
       <use xlink:href="#DejaVuSans-30"/>
      </g>
     </g>
    </g>
    <g id="ytick_5">
     <g id="line2d_21">
      <path d="M 36 83.164334 
L 259.2 83.164334 
" clip-path="url(#p6a434c6609)" style="fill: none; stroke: #b0b0b0; stroke-width: 0.8; stroke-linecap: square"/>
     </g>
     <g id="line2d_22">
      <g>
       <use xlink:href="#m33e5a1cb17" x="36" y="83.164334" style="stroke: #000000; stroke-width: 0.8"/>
      </g>
     </g>
     <g id="text_11">
      <!-- 1 -->
      <g transform="translate(22.6375 86.963553) scale(0.1 -0.1)">
       <use xlink:href="#DejaVuSans-31"/>
      </g>
     </g>
    </g>
    <g id="ytick_6">
     <g id="line2d_23">
      <path d="M 36 59.328671 
L 259.2 59.328671 
" clip-path="url(#p6a434c6609)" style="fill: none; stroke: #b0b0b0; stroke-width: 0.8; stroke-linecap: square"/>
     </g>
     <g id="line2d_24">
      <g>
       <use xlink:href="#m33e5a1cb17" x="36" y="59.328671" style="stroke: #000000; stroke-width: 0.8"/>
      </g>
     </g>
     <g id="text_12">
      <!-- 2 -->
      <g transform="translate(22.6375 63.12789) scale(0.1 -0.1)">
       <use xlink:href="#DejaVuSans-32"/>
      </g>
     </g>
    </g>
    <g id="ytick_7">
     <g id="line2d_25">
      <path d="M 36 35.493008 
L 259.2 35.493008 
" clip-path="url(#p6a434c6609)" style="fill: none; stroke: #b0b0b0; stroke-width: 0.8; stroke-linecap: square"/>
     </g>
     <g id="line2d_26">
      <g>
       <use xlink:href="#m33e5a1cb17" x="36" y="35.493008" style="stroke: #000000; stroke-width: 0.8"/>
      </g>
     </g>
     <g id="text_13">
      <!-- 3 -->
      <g transform="translate(22.6375 39.292226) scale(0.1 -0.1)">
       <use xlink:href="#DejaVuSans-33"/>
      </g>
     </g>
    </g>
   </g>
   <g id="line2d_27">
    <path d="M 36 135.393845 
L 38.147186 58.899227 
L 40.294372 108.991797 
L 42.441558 51.181798 
L 44.588745 102.667412 
L 46.735931 109.034163 
L 48.883117 116.966508 
L 51.030303 89.369467 
L 53.177489 75.76215 
L 55.324675 133.297196 
L 57.471861 88.331864 
L 59.619048 120.671906 
L 61.766234 109.250766 
L 63.91342 100.616545 
L 66.060606 131.338936 
L 68.207792 115.346967 
L 70.354978 125.926721 
L 72.502165 76.104406 
L 74.649351 130.636616 
L 76.796537 88.167455 
L 78.943723 58.777544 
L 81.090909 124.346662 
L 83.238095 151.724087 
L 85.385281 125.7166 
L 87.532468 125.882813 
L 89.679654 97.405517 
L 91.82684 104.170844 
L 93.974026 113.074123 
L 96.121212 70.705571 
L 98.268398 99.870083 
L 100.415584 128.102034 
L 102.562771 109.895858 
L 104.709957 107.811607 
L 106.857143 138.586778 
L 109.004329 95.824028 
L 111.151515 42.862838 
L 113.298701 110.615434 
L 115.445887 128.66546 
L 117.593074 116.106121 
L 119.74026 140.730272 
L 121.887446 124.38601 
L 124.034632 124.934885 
L 126.181818 122.16832 
L 128.329004 78.449395 
L 130.47619 101.109501 
L 132.623377 75.015462 
L 134.770563 99.286895 
L 136.917749 77.059596 
L 139.064935 101.135607 
L 141.212121 117.171704 
L 143.359307 50.394328 
L 145.506494 86.750733 
L 147.65368 162.725002 
L 149.800866 90.234165 
L 151.948052 121.861191 
L 154.095238 117.439551 
L 156.242424 155.990471 
L 158.38961 106.823278 
L 160.536797 130.891671 
L 162.683983 129.860742 
L 164.831169 129.717585 
L 166.978355 155.098172 
L 169.125541 111.658093 
L 171.272727 109.267261 
L 173.419913 103.560029 
L 175.5671 140.540531 
L 177.714286 135.450614 
L 179.861472 71.298459 
L 182.008658 61.129432 
L 184.155844 64.357037 
L 186.30303 138.724194 
L 188.450216 108.07591 
L 190.597403 109.080461 
L 192.744589 140.374872 
L 194.891775 158.709856 
L 197.038961 101.068252 
L 199.186147 74.035889 
L 201.333333 83.722205 
L 203.480519 91.12001 
L 205.627706 141.156421 
L 207.774892 36.076342 
L 209.922078 107.808653 
L 212.069264 95.990272 
L 214.21645 113.562445 
L 216.363636 115.825804 
L 218.510823 94.366997 
L 220.658009 131.585756 
L 222.805195 112.223823 
L 224.952381 72.896261 
L 227.099567 94.548885 
L 229.246753 105.428601 
L 231.393939 79.108715 
L 233.541126 97.155496 
L 235.688312 88.93508 
L 237.835498 39.381506 
L 239.982684 130.227045 
L 242.12987 105.937568 
L 244.277056 122.580512 
L 246.424242 99.454547 
L 248.571429 92.064407 
" clip-path="url(#p6a434c6609)" style="fill: none; stroke: #4682b4; stroke-opacity: 0.5; stroke-width: 4; stroke-linecap: square"/>
   </g>
   <g id="patch_33">
    <path d="M 36 192.24 
L 36 25.92 
" style="fill: none; stroke: #000000; stroke-width: 0.8; stroke-linejoin: miter; stroke-linecap: square"/>
   </g>
   <g id="patch_34">
    <path d="M 259.2 192.24 
L 259.2 25.92 
" style="fill: none; stroke: #000000; stroke-width: 0.8; stroke-linejoin: miter; stroke-linecap: square"/>
   </g>
   <g id="patch_35">
    <path d="M 36 192.24 
L 259.2 192.24 
" style="fill: none; stroke: #000000; stroke-width: 0.8; stroke-linejoin: miter; stroke-linecap: square"/>
   </g>
   <g id="patch_36">
    <path d="M 36 25.92 
L 259.2 25.92 
" style="fill: none; stroke: #000000; stroke-width: 0.8; stroke-linejoin: miter; stroke-linecap: square"/>
   </g>
   <g id="text_14">
    <!-- My title -->
    <g transform="translate(125.235 19.92) scale(0.12 -0.12)">
     <defs>
      <path id="DejaVuSans-4d" d="M 628 4666 
L 1569 4666 
L 2759 1491 
L 3956 4666 
L 4897 4666 
L 4897 0 
L 4281 0 
L 4281 4097 
L 3078 897 
L 2444 897 
L 1241 4097 
L 1241 0 
L 628 0 
L 628 4666 
z
" transform="scale(0.015625)"/>
      <path id="DejaVuSans-79" d="M 2059 -325 
Q 1816 -950 1584 -1140 
Q 1353 -1331 966 -1331 
L 506 -1331 
L 506 -850 
L 844 -850 
Q 1081 -850 1212 -737 
Q 1344 -625 1503 -206 
L 1606 56 
L 191 3500 
L 800 3500 
L 1894 763 
L 2988 3500 
L 3597 3500 
L 2059 -325 
z
" transform="scale(0.015625)"/>
      <path id="DejaVuSans-20" transform="scale(0.015625)"/>
      <path id="DejaVuSans-74" d="M 1172 4494 
L 1172 3500 
L 2356 3500 
L 2356 3053 
L 1172 3053 
L 1172 1153 
Q 1172 725 1289 603 
Q 1406 481 1766 481 
L 2356 481 
L 2356 0 
L 1766 0 
Q 1100 0 847 248 
Q 594 497 594 1153 
L 594 3053 
L 172 3053 
L 172 3500 
L 594 3500 
L 594 4494 
L 1172 4494 
z
" transform="scale(0.015625)"/>
      <path id="DejaVuSans-69" d="M 603 3500 
L 1178 3500 
L 1178 0 
L 603 0 
L 603 3500 
z
M 603 4863 
L 1178 4863 
L 1178 4134 
L 603 4134 
L 603 4863 
z
" transform="scale(0.015625)"/>
      <path id="DejaVuSans-6c" d="M 603 4863 
L 1178 4863 
L 1178 0 
L 603 0 
L 603 4863 
z
" transform="scale(0.015625)"/>
      <path id="DejaVuSans-65" d="M 3597 1894 
L 3597 1613 
L 953 1613 
Q 991 1019 1311 708 
Q 1631 397 2203 397 
Q 2534 397 2845 478 
Q 3156 559 3463 722 
L 3463 178 
Q 3153 47 2828 -22 
Q 2503 -91 2169 -91 
Q 1331 -91 842 396 
Q 353 884 353 1716 
Q 353 2575 817 3079 
Q 1281 3584 2069 3584 
Q 2775 3584 3186 3129 
Q 3597 2675 3597 1894 
z
M 3022 2063 
Q 3016 2534 2758 2815 
Q 2500 3097 2075 3097 
Q 1594 3097 1305 2825 
Q 1016 2553 972 2059 
L 3022 2063 
z
" transform="scale(0.015625)"/>
     </defs>
     <use xlink:href="#DejaVuSans-4d"/>
     <use xlink:href="#DejaVuSans-79" x="86.279297"/>
     <use xlink:href="#DejaVuSans-20" x="145.458984"/>
     <use xlink:href="#DejaVuSans-74" x="177.246094"/>
     <use xlink:href="#DejaVuSans-69" x="216.455078"/>
     <use xlink:href="#DejaVuSans-74" x="244.238281"/>
     <use xlink:href="#DejaVuSans-6c" x="283.447266"/>
     <use xlink:href="#DejaVuSans-65" x="311.230469"/>
    </g>
   </g>
   <g id="legend_1">
    <g id="patch_37">
     <path d="M 207.91875 187.24 
L 252.2 187.24 
Q 254.2 187.24 254.2 185.24 
L 254.2 156.88375 
Q 254.2 154.88375 252.2 154.88375 
L 207.91875 154.88375 
Q 205.91875 154.88375 205.91875 156.88375 
L 205.91875 185.24 
Q 205.91875 187.24 207.91875 187.24 
z
" style="fill: #ffffff; opacity: 0.8; stroke: #cccccc; stroke-linejoin: miter"/>
    </g>
    <g id="line2d_28">
     <path d="M 209.91875 162.982188 
L 219.91875 162.982188 
L 229.91875 162.982188 
" style="fill: none; stroke: #4682b4; stroke-opacity: 0.5; stroke-width: 4; stroke-linecap: square"/>
    </g>
    <g id="text_15">
     <!-- y1 -->
     <g transform="translate(237.91875 166.482188) scale(0.1 -0.1)">
      <use xlink:href="#DejaVuSans-79"/>
      <use xlink:href="#DejaVuSans-31" x="59.179688"/>
     </g>
    </g>
    <g id="PathCollection_2">
     <g>
      <use xlink:href="#m4fd83712a1" x="219.91875" y="178.535313" style="fill: #ff4500; fill-opacity: 0.5; stroke: #ff4500; stroke-opacity: 0.5; stroke-width: 1.5"/>
     </g>
    </g>
    <g id="text_16">
     <!-- y2 -->
     <g transform="translate(237.91875 181.160313) scale(0.1 -0.1)">
      <use xlink:href="#DejaVuSans-79"/>
      <use xlink:href="#DejaVuSans-32" x="59.179688"/>
     </g>
    </g>
   </g>
  </g>
 </g>
 <defs>
  <clipPath id="p6a434c6609">
   <rect x="36" y="25.92" width="223.2" height="166.32"/>
  </clipPath>
 </defs>
</svg>
