<?xml version="1.0" encoding="utf-8" standalone="no"?>
<!DOCTYPE svg PUBLIC "-//W3C//DTD SVG 1.1//EN"
  "http://www.w3.org/Graphics/SVG/1.1/DTD/svg11.dtd">
<svg xmlns:xlink="http://www.w3.org/1999/xlink" width="288pt" height="216pt" viewBox="0 0 288 216" xmlns="http://www.w3.org/2000/svg" version="1.1">
 <metadata>
  <rdf:RDF xmlns:dc="http://purl.org/dc/elements/1.1/" xmlns:cc="http://creativecommons.org/ns#" xmlns:rdf="http://www.w3.org/1999/02/22-rdf-syntax-ns#">
   <cc:Work>
    <dc:type rdf:resource="http://purl.org/dc/dcmitype/StillImage"/>
    <dc:date>2022-05-06T08:27:03.067579</dc:date>
    <dc:format>image/svg+xml</dc:format>
    <dc:creator>
     <cc:Agent>
      <dc:title>Matplotlib v3.5.2, https://matplotlib.org/</dc:title>
     </cc:Agent>
    </dc:creator>
   </cc:Work>
  </rdf:RDF>
 </metadata>
 <defs>
  <style type="text/css">*{stroke-linejoin: round; stroke-linecap: butt}</style>
 </defs>
 <g id="figure_1">
  <g id="patch_1">
   <path d="M 0 216 
L 288 216 
L 288 0 
L 0 0 
z
" style="fill: #ffffff"/>
  </g>
  <g id="axes_1">
   <g id="patch_2">
    <path d="M 36 192.24 
L 259.2 192.24 
L 259.2 25.92 
L 36 25.92 
z
" style="fill: #ffffff"/>
   </g>
   <g id="PathCollection_1">
    <defs>
     <path id="mf3a70bfb9f" d="M -5 0 
L 5 0 
M 0 5 
L 0 -5 
" style="stroke: #ff4500; stroke-opacity: 0.5; stroke-width: 1.5"/>
    </defs>
    <g clip-path="url(#p8b853c6515)">
     <use xlink:href="#mf3a70bfb9f" x="36" y="128.499188" style="fill: #ff4500; fill-opacity: 0.5; stroke: #ff4500; stroke-opacity: 0.5; stroke-width: 1.5"/>
     <use xlink:href="#mf3a70bfb9f" x="38.147186" y="114.72052" style="fill: #ff4500; fill-opacity: 0.5; stroke: #ff4500; stroke-opacity: 0.5; stroke-width: 1.5"/>
     <use xlink:href="#mf3a70bfb9f" x="40.294372" y="96.206049" style="fill: #ff4500; fill-opacity: 0.5; stroke: #ff4500; stroke-opacity: 0.5; stroke-width: 1.5"/>
     <use xlink:href="#mf3a70bfb9f" x="42.441558" y="105.397301" style="fill: #ff4500; fill-opacity: 0.5; stroke: #ff4500; stroke-opacity: 0.5; stroke-width: 1.5"/>
     <use xlink:href="#mf3a70bfb9f" x="44.588745" y="88.128234" style="fill: #ff4500; fill-opacity: 0.5; stroke: #ff4500; stroke-opacity: 0.5; stroke-width: 1.5"/>
     <use xlink:href="#mf3a70bfb9f" x="46.735931" y="130.605632" style="fill: #ff4500; fill-opacity: 0.5; stroke: #ff4500; stroke-opacity: 0.5; stroke-width: 1.5"/>
     <use xlink:href="#mf3a70bfb9f" x="48.883117" y="94.869845" style="fill: #ff4500; fill-opacity: 0.5; stroke: #ff4500; stroke-opacity: 0.5; stroke-width: 1.5"/>
     <use xlink:href="#mf3a70bfb9f" x="51.030303" y="104.787803" style="fill: #ff4500; fill-opacity: 0.5; stroke: #ff4500; stroke-opacity: 0.5; stroke-width: 1.5"/>
     <use xlink:href="#mf3a70bfb9f" x="53.177489" y="94.018574" style="fill: #ff4500; fill-opacity: 0.5; stroke: #ff4500; stroke-opacity: 0.5; stroke-width: 1.5"/>
     <use xlink:href="#mf3a70bfb9f" x="55.324675" y="91.468752" style="fill: #ff4500; fill-opacity: 0.5; stroke: #ff4500; stroke-opacity: 0.5; stroke-width: 1.5"/>
     <use xlink:href="#mf3a70bfb9f" x="57.471861" y="139.388901" style="fill: #ff4500; fill-opacity: 0.5; stroke: #ff4500; stroke-opacity: 0.5; stroke-width: 1.5"/>
     <use xlink:href="#mf3a70bfb9f" x="59.619048" y="151.104969" style="fill: #ff4500; fill-opacity: 0.5; stroke: #ff4500; stroke-opacity: 0.5; stroke-width: 1.5"/>
     <use xlink:href="#mf3a70bfb9f" x="61.766234" y="72.830341" style="fill: #ff4500; fill-opacity: 0.5; stroke: #ff4500; stroke-opacity: 0.5; stroke-width: 1.5"/>
     <use xlink:href="#mf3a70bfb9f" x="63.91342" y="83.521951" style="fill: #ff4500; fill-opacity: 0.5; stroke: #ff4500; stroke-opacity: 0.5; stroke-width: 1.5"/>
     <use xlink:href="#mf3a70bfb9f" x="66.060606" y="85.751598" style="fill: #ff4500; fill-opacity: 0.5; stroke: #ff4500; stroke-opacity: 0.5; stroke-width: 1.5"/>
     <use xlink:href="#mf3a70bfb9f" x="68.207792" y="119.60322" style="fill: #ff4500; fill-opacity: 0.5; stroke: #ff4500; stroke-opacity: 0.5; stroke-width: 1.5"/>
     <use xlink:href="#mf3a70bfb9f" x="70.354978" y="89.907433" style="fill: #ff4500; fill-opacity: 0.5; stroke: #ff4500; stroke-opacity: 0.5; stroke-width: 1.5"/>
     <use xlink:href="#mf3a70bfb9f" x="72.502165" y="85.967614" style="fill: #ff4500; fill-opacity: 0.5; stroke: #ff4500; stroke-opacity: 0.5; stroke-width: 1.5"/>
     <use xlink:href="#mf3a70bfb9f" x="74.649351" y="81.151834" style="fill: #ff4500; fill-opacity: 0.5; stroke: #ff4500; stroke-opacity: 0.5; stroke-width: 1.5"/>
     <use xlink:href="#mf3a70bfb9f" x="76.796537" y="98.990944" style="fill: #ff4500; fill-opacity: 0.5; stroke: #ff4500; stroke-opacity: 0.5; stroke-width: 1.5"/>
     <use xlink:href="#mf3a70bfb9f" x="78.943723" y="111.78593" style="fill: #ff4500; fill-opacity: 0.5; stroke: #ff4500; stroke-opacity: 0.5; stroke-width: 1.5"/>
     <use xlink:href="#mf3a70bfb9f" x="81.090909" y="97.283732" style="fill: #ff4500; fill-opacity: 0.5; stroke: #ff4500; stroke-opacity: 0.5; stroke-width: 1.5"/>
     <use xlink:href="#mf3a70bfb9f" x="83.238095" y="98.087176" style="fill: #ff4500; fill-opacity: 0.5; stroke: #ff4500; stroke-opacity: 0.5; stroke-width: 1.5"/>
     <use xlink:href="#mf3a70bfb9f" x="85.385281" y="96.226306" style="fill: #ff4500; fill-opacity: 0.5; stroke: #ff4500; stroke-opacity: 0.5; stroke-width: 1.5"/>
     <use xlink:href="#mf3a70bfb9f" x="87.532468" y="136.206065" style="fill: #ff4500; fill-opacity: 0.5; stroke: #ff4500; stroke-opacity: 0.5; stroke-width: 1.5"/>
     <use xlink:href="#mf3a70bfb9f" x="89.679654" y="123.164773" style="fill: #ff4500; fill-opacity: 0.5; stroke: #ff4500; stroke-opacity: 0.5; stroke-width: 1.5"/>
     <use xlink:href="#mf3a70bfb9f" x="91.82684" y="80.513499" style="fill: #ff4500; fill-opacity: 0.5; stroke: #ff4500; stroke-opacity: 0.5; stroke-width: 1.5"/>
     <use xlink:href="#mf3a70bfb9f" x="93.974026" y="55.807013" style="fill: #ff4500; fill-opacity: 0.5; stroke: #ff4500; stroke-opacity: 0.5; stroke-width: 1.5"/>
     <use xlink:href="#mf3a70bfb9f" x="96.121212" y="134.122591" style="fill: #ff4500; fill-opacity: 0.5; stroke: #ff4500; stroke-opacity: 0.5; stroke-width: 1.5"/>
     <use xlink:href="#mf3a70bfb9f" x="98.268398" y="41.671462" style="fill: #ff4500; fill-opacity: 0.5; stroke: #ff4500; stroke-opacity: 0.5; stroke-width: 1.5"/>
     <use xlink:href="#mf3a70bfb9f" x="100.415584" y="137.574798" style="fill: #ff4500; fill-opacity: 0.5; stroke: #ff4500; stroke-opacity: 0.5; stroke-width: 1.5"/>
     <use xlink:href="#mf3a70bfb9f" x="102.562771" y="105.485565" style="fill: #ff4500; fill-opacity: 0.5; stroke: #ff4500; stroke-opacity: 0.5; stroke-width: 1.5"/>
     <use xlink:href="#mf3a70bfb9f" x="104.709957" y="61.190499" style="fill: #ff4500; fill-opacity: 0.5; stroke: #ff4500; stroke-opacity: 0.5; stroke-width: 1.5"/>
     <use xlink:href="#mf3a70bfb9f" x="106.857143" y="99.929199" style="fill: #ff4500; fill-opacity: 0.5; stroke: #ff4500; stroke-opacity: 0.5; stroke-width: 1.5"/>
     <use xlink:href="#mf3a70bfb9f" x="109.004329" y="110.01308" style="fill: #ff4500; fill-opacity: 0.5; stroke: #ff4500; stroke-opacity: 0.5; stroke-width: 1.5"/>
     <use xlink:href="#mf3a70bfb9f" x="111.151515" y="129.919617" style="fill: #ff4500; fill-opacity: 0.5; stroke: #ff4500; stroke-opacity: 0.5; stroke-width: 1.5"/>
     <use xlink:href="#mf3a70bfb9f" x="113.298701" y="85.283466" style="fill: #ff4500; fill-opacity: 0.5; stroke: #ff4500; stroke-opacity: 0.5; stroke-width: 1.5"/>
     <use xlink:href="#mf3a70bfb9f" x="115.445887" y="157.973806" style="fill: #ff4500; fill-opacity: 0.5; stroke: #ff4500; stroke-opacity: 0.5; stroke-width: 1.5"/>
     <use xlink:href="#mf3a70bfb9f" x="117.593074" y="141.754886" style="fill: #ff4500; fill-opacity: 0.5; stroke: #ff4500; stroke-opacity: 0.5; stroke-width: 1.5"/>
     <use xlink:href="#mf3a70bfb9f" x="119.74026" y="126.920214" style="fill: #ff4500; fill-opacity: 0.5; stroke: #ff4500; stroke-opacity: 0.5; stroke-width: 1.5"/>
     <use xlink:href="#mf3a70bfb9f" x="121.887446" y="112.240064" style="fill: #ff4500; fill-opacity: 0.5; stroke: #ff4500; stroke-opacity: 0.5; stroke-width: 1.5"/>
     <use xlink:href="#mf3a70bfb9f" x="124.034632" y="89.658782" style="fill: #ff4500; fill-opacity: 0.5; stroke: #ff4500; stroke-opacity: 0.5; stroke-width: 1.5"/>
     <use xlink:href="#mf3a70bfb9f" x="126.181818" y="121.554877" style="fill: #ff4500; fill-opacity: 0.5; stroke: #ff4500; stroke-opacity: 0.5; stroke-width: 1.5"/>
     <use xlink:href="#mf3a70bfb9f" x="128.329004" y="123.226592" style="fill: #ff4500; fill-opacity: 0.5; stroke: #ff4500; stroke-opacity: 0.5; stroke-width: 1.5"/>
     <use xlink:href="#mf3a70bfb9f" x="130.47619" y="65.214646" style="fill: #ff4500; fill-opacity: 0.5; stroke: #ff4500; stroke-opacity: 0.5; stroke-width: 1.5"/>
     <use xlink:href="#mf3a70bfb9f" x="132.623377" y="78.271357" style="fill: #ff4500; fill-opacity: 0.5; stroke: #ff4500; stroke-opacity: 0.5; stroke-width: 1.5"/>
     <use xlink:href="#mf3a70bfb9f" x="134.770563" y="118.335642" style="fill: #ff4500; fill-opacity: 0.5; stroke: #ff4500; stroke-opacity: 0.5; stroke-width: 1.5"/>
     <use xlink:href="#mf3a70bfb9f" x="136.917749" y="120.728356" style="fill: #ff4500; fill-opacity: 0.5; stroke: #ff4500; stroke-opacity: 0.5; stroke-width: 1.5"/>
     <use xlink:href="#mf3a70bfb9f" x="139.064935" y="135.421699" style="fill: #ff4500; fill-opacity: 0.5; stroke: #ff4500; stroke-opacity: 0.5; stroke-width: 1.5"/>
     <use xlink:href="#mf3a70bfb9f" x="141.212121" y="87.220356" style="fill: #ff4500; fill-opacity: 0.5; stroke: #ff4500; stroke-opacity: 0.5; stroke-width: 1.5"/>
     <use xlink:href="#mf3a70bfb9f" x="143.359307" y="147.55762" style="fill: #ff4500; fill-opacity: 0.5; stroke: #ff4500; stroke-opacity: 0.5; stroke-width: 1.5"/>
     <use xlink:href="#mf3a70bfb9f" x="145.506494" y="152.544427" style="fill: #ff4500; fill-opacity: 0.5; stroke: #ff4500; stroke-opacity: 0.5; stroke-width: 1.5"/>
     <use xlink:href="#mf3a70bfb9f" x="147.65368" y="100.493436" style="fill: #ff4500; fill-opacity: 0.5; stroke: #ff4500; stroke-opacity: 0.5; stroke-width: 1.5"/>
     <use xlink:href="#mf3a70bfb9f" x="149.800866" y="138.115176" style="fill: #ff4500; fill-opacity: 0.5; stroke: #ff4500; stroke-opacity: 0.5; stroke-width: 1.5"/>
     <use xlink:href="#mf3a70bfb9f" x="151.948052" y="113.218553" style="fill: #ff4500; fill-opacity: 0.5; stroke: #ff4500; stroke-opacity: 0.5; stroke-width: 1.5"/>
     <use xlink:href="#mf3a70bfb9f" x="154.095238" y="71.912327" style="fill: #ff4500; fill-opacity: 0.5; stroke: #ff4500; stroke-opacity: 0.5; stroke-width: 1.5"/>
     <use xlink:href="#mf3a70bfb9f" x="156.242424" y="90.760733" style="fill: #ff4500; fill-opacity: 0.5; stroke: #ff4500; stroke-opacity: 0.5; stroke-width: 1.5"/>
     <use xlink:href="#mf3a70bfb9f" x="158.38961" y="93.337581" style="fill: #ff4500; fill-opacity: 0.5; stroke: #ff4500; stroke-opacity: 0.5; stroke-width: 1.5"/>
     <use xlink:href="#mf3a70bfb9f" x="160.536797" y="127.139998" style="fill: #ff4500; fill-opacity: 0.5; stroke: #ff4500; stroke-opacity: 0.5; stroke-width: 1.5"/>
     <use xlink:href="#mf3a70bfb9f" x="162.683983" y="84.827647" style="fill: #ff4500; fill-opacity: 0.5; stroke: #ff4500; stroke-opacity: 0.5; stroke-width: 1.5"/>
     <use xlink:href="#mf3a70bfb9f" x="164.831169" y="55.78987" style="fill: #ff4500; fill-opacity: 0.5; stroke: #ff4500; stroke-opacity: 0.5; stroke-width: 1.5"/>
     <use xlink:href="#mf3a70bfb9f" x="166.978355" y="80.801637" style="fill: #ff4500; fill-opacity: 0.5; stroke: #ff4500; stroke-opacity: 0.5; stroke-width: 1.5"/>
     <use xlink:href="#mf3a70bfb9f" x="169.125541" y="121.694611" style="fill: #ff4500; fill-opacity: 0.5; stroke: #ff4500; stroke-opacity: 0.5; stroke-width: 1.5"/>
     <use xlink:href="#mf3a70bfb9f" x="171.272727" y="86.567118" style="fill: #ff4500; fill-opacity: 0.5; stroke: #ff4500; stroke-opacity: 0.5; stroke-width: 1.5"/>
     <use xlink:href="#mf3a70bfb9f" x="173.419913" y="82.520224" style="fill: #ff4500; fill-opacity: 0.5; stroke: #ff4500; stroke-opacity: 0.5; stroke-width: 1.5"/>
     <use xlink:href="#mf3a70bfb9f" x="175.5671" y="103.970089" style="fill: #ff4500; fill-opacity: 0.5; stroke: #ff4500; stroke-opacity: 0.5; stroke-width: 1.5"/>
     <use xlink:href="#mf3a70bfb9f" x="177.714286" y="99.172505" style="fill: #ff4500; fill-opacity: 0.5; stroke: #ff4500; stroke-opacity: 0.5; stroke-width: 1.5"/>
     <use xlink:href="#mf3a70bfb9f" x="179.861472" y="55.465162" style="fill: #ff4500; fill-opacity: 0.5; stroke: #ff4500; stroke-opacity: 0.5; stroke-width: 1.5"/>
     <use xlink:href="#mf3a70bfb9f" x="182.008658" y="55.325976" style="fill: #ff4500; fill-opacity: 0.5; stroke: #ff4500; stroke-opacity: 0.5; stroke-width: 1.5"/>
     <use xlink:href="#mf3a70bfb9f" x="184.155844" y="93.130364" style="fill: #ff4500; fill-opacity: 0.5; stroke: #ff4500; stroke-opacity: 0.5; stroke-width: 1.5"/>
     <use xlink:href="#mf3a70bfb9f" x="186.30303" y="113.861803" style="fill: #ff4500; fill-opacity: 0.5; stroke: #ff4500; stroke-opacity: 0.5; stroke-width: 1.5"/>
     <use xlink:href="#mf3a70bfb9f" x="188.450216" y="98.65134" style="fill: #ff4500; fill-opacity: 0.5; stroke: #ff4500; stroke-opacity: 0.5; stroke-width: 1.5"/>
     <use xlink:href="#mf3a70bfb9f" x="190.597403" y="104.481891" style="fill: #ff4500; fill-opacity: 0.5; stroke: #ff4500; stroke-opacity: 0.5; stroke-width: 1.5"/>
     <use xlink:href="#mf3a70bfb9f" x="192.744589" y="94.68756" style="fill: #ff4500; fill-opacity: 0.5; stroke: #ff4500; stroke-opacity: 0.5; stroke-width: 1.5"/>
     <use xlink:href="#mf3a70bfb9f" x="194.891775" y="89.327735" style="fill: #ff4500; fill-opacity: 0.5; stroke: #ff4500; stroke-opacity: 0.5; stroke-width: 1.5"/>
     <use xlink:href="#mf3a70bfb9f" x="197.038961" y="166.594423" style="fill: #ff4500; fill-opacity: 0.5; stroke: #ff4500; stroke-opacity: 0.5; stroke-width: 1.5"/>
     <use xlink:href="#mf3a70bfb9f" x="199.186147" y="122.056769" style="fill: #ff4500; fill-opacity: 0.5; stroke: #ff4500; stroke-opacity: 0.5; stroke-width: 1.5"/>
     <use xlink:href="#mf3a70bfb9f" x="201.333333" y="81.466792" style="fill: #ff4500; fill-opacity: 0.5; stroke: #ff4500; stroke-opacity: 0.5; stroke-width: 1.5"/>
     <use xlink:href="#mf3a70bfb9f" x="203.480519" y="99.50881" style="fill: #ff4500; fill-opacity: 0.5; stroke: #ff4500; stroke-opacity: 0.5; stroke-width: 1.5"/>
     <use xlink:href="#mf3a70bfb9f" x="205.627706" y="94.85428" style="fill: #ff4500; fill-opacity: 0.5; stroke: #ff4500; stroke-opacity: 0.5; stroke-width: 1.5"/>
     <use xlink:href="#mf3a70bfb9f" x="207.774892" y="83.035193" style="fill: #ff4500; fill-opacity: 0.5; stroke: #ff4500; stroke-opacity: 0.5; stroke-width: 1.5"/>
     <use xlink:href="#mf3a70bfb9f" x="209.922078" y="107.301585" style="fill: #ff4500; fill-opacity: 0.5; stroke: #ff4500; stroke-opacity: 0.5; stroke-width: 1.5"/>
     <use xlink:href="#mf3a70bfb9f" x="212.069264" y="98.079796" style="fill: #ff4500; fill-opacity: 0.5; stroke: #ff4500; stroke-opacity: 0.5; stroke-width: 1.5"/>
     <use xlink:href="#mf3a70bfb9f" x="214.21645" y="142.095611" style="fill: #ff4500; fill-opacity: 0.5; stroke: #ff4500; stroke-opacity: 0.5; stroke-width: 1.5"/>
     <use xlink:href="#mf3a70bfb9f" x="216.363636" y="146.489003" style="fill: #ff4500; fill-opacity: 0.5; stroke: #ff4500; stroke-opacity: 0.5; stroke-width: 1.5"/>
     <use xlink:href="#mf3a70bfb9f" x="218.510823" y="83.280036" style="fill: #ff4500; fill-opacity: 0.5; stroke: #ff4500; stroke-opacity: 0.5; stroke-width: 1.5"/>
     <use xlink:href="#mf3a70bfb9f" x="220.658009" y="71.143861" style="fill: #ff4500; fill-opacity: 0.5; stroke: #ff4500; stroke-opacity: 0.5; stroke-width: 1.5"/>
     <use xlink:href="#mf3a70bfb9f" x="222.805195" y="87.626697" style="fill: #ff4500; fill-opacity: 0.5; stroke: #ff4500; stroke-opacity: 0.5; stroke-width: 1.5"/>
     <use xlink:href="#mf3a70bfb9f" x="224.952381" y="106.387695" style="fill: #ff4500; fill-opacity: 0.5; stroke: #ff4500; stroke-opacity: 0.5; stroke-width: 1.5"/>
     <use xlink:href="#mf3a70bfb9f" x="227.099567" y="135.008019" style="fill: #ff4500; fill-opacity: 0.5; stroke: #ff4500; stroke-opacity: 0.5; stroke-width: 1.5"/>
     <use xlink:href="#mf3a70bfb9f" x="229.246753" y="71.676672" style="fill: #ff4500; fill-opacity: 0.5; stroke: #ff4500; stroke-opacity: 0.5; stroke-width: 1.5"/>
     <use xlink:href="#mf3a70bfb9f" x="231.393939" y="90.920341" style="fill: #ff4500; fill-opacity: 0.5; stroke: #ff4500; stroke-opacity: 0.5; stroke-width: 1.5"/>
     <use xlink:href="#mf3a70bfb9f" x="233.541126" y="81.325578" style="fill: #ff4500; fill-opacity: 0.5; stroke: #ff4500; stroke-opacity: 0.5; stroke-width: 1.5"/>
     <use xlink:href="#mf3a70bfb9f" x="235.688312" y="118.50063" style="fill: #ff4500; fill-opacity: 0.5; stroke: #ff4500; stroke-opacity: 0.5; stroke-width: 1.5"/>
     <use xlink:href="#mf3a70bfb9f" x="237.835498" y="94.627776" style="fill: #ff4500; fill-opacity: 0.5; stroke: #ff4500; stroke-opacity: 0.5; stroke-width: 1.5"/>
     <use xlink:href="#mf3a70bfb9f" x="239.982684" y="99.370789" style="fill: #ff4500; fill-opacity: 0.5; stroke: #ff4500; stroke-opacity: 0.5; stroke-width: 1.5"/>
     <use xlink:href="#mf3a70bfb9f" x="242.12987" y="144.077865" style="fill: #ff4500; fill-opacity: 0.5; stroke: #ff4500; stroke-opacity: 0.5; stroke-width: 1.5"/>
     <use xlink:href="#mf3a70bfb9f" x="244.277056" y="100.418886" style="fill: #ff4500; fill-opacity: 0.5; stroke: #ff4500; stroke-opacity: 0.5; stroke-width: 1.5"/>
     <use xlink:href="#mf3a70bfb9f" x="246.424242" y="132.957008" style="fill: #ff4500; fill-opacity: 0.5; stroke: #ff4500; stroke-opacity: 0.5; stroke-width: 1.5"/>
     <use xlink:href="#mf3a70bfb9f" x="248.571429" y="105.390574" style="fill: #ff4500; fill-opacity: 0.5; stroke: #ff4500; stroke-opacity: 0.5; stroke-width: 1.5"/>
    </g>
   </g>
   <g id="patch_3">
    <path d="M 36 163.651873 
L 50.059163 163.651873 
L 50.059163 159.312811 
L 36 159.312811 
z
" clip-path="url(#p8b853c6515)" style="fill: #008000; opacity: 0.5"/>
   </g>
   <g id="patch_4">
    <path d="M 36 159.312811 
L 50.059163 159.312811 
L 50.059163 154.973748 
L 36 154.973748 
z
" clip-path="url(#p8b853c6515)" style="fill: #008000; opacity: 0.5"/>
   </g>
   <g id="patch_5">
    <path d="M 36 154.973748 
L 50.059163 154.973748 
L 50.059163 150.634686 
L 36 150.634686 
z
" clip-path="url(#p8b853c6515)" style="fill: #008000; opacity: 0.5"/>
   </g>
   <g id="patch_6">
    <path d="M 36 150.634686 
L 64.118326 150.634686 
L 64.118326 146.295623 
L 36 146.295623 
z
" clip-path="url(#p8b853c6515)" style="fill: #008000; opacity: 0.5"/>
   </g>
   <g id="patch_7">
    <path d="M 36 146.295623 
L 78.177489 146.295623 
L 78.177489 141.956561 
L 36 141.956561 
z
" clip-path="url(#p8b853c6515)" style="fill: #008000; opacity: 0.5"/>
   </g>
   <g id="patch_8">
    <path d="M 36 141.956561 
L 106.295815 141.956561 
L 106.295815 137.617499 
L 36 137.617499 
z
" clip-path="url(#p8b853c6515)" style="fill: #008000; opacity: 0.5"/>
   </g>
   <g id="patch_9">
    <path d="M 36 137.617499 
L 92.236652 137.617499 
L 92.236652 133.278436 
L 36 133.278436 
z
" clip-path="url(#p8b853c6515)" style="fill: #008000; opacity: 0.5"/>
   </g>
   <g id="patch_10">
    <path d="M 36 133.278436 
L 64.118326 133.278436 
L 64.118326 128.939374 
L 36 128.939374 
z
" clip-path="url(#p8b853c6515)" style="fill: #008000; opacity: 0.5"/>
   </g>
   <g id="patch_11">
    <path d="M 36 128.939374 
L 148.473303 128.939374 
L 148.473303 124.600311 
L 36 124.600311 
z
" clip-path="url(#p8b853c6515)" style="fill: #008000; opacity: 0.5"/>
   </g>
   <g id="patch_12">
    <path d="M 36 124.600311 
L 92.236652 124.600311 
L 92.236652 120.261249 
L 36 120.261249 
z
" clip-path="url(#p8b853c6515)" style="fill: #008000; opacity: 0.5"/>
   </g>
   <g id="patch_13">
    <path d="M 36 120.261249 
L 106.295815 120.261249 
L 106.295815 115.922186 
L 36 115.922186 
z
" clip-path="url(#p8b853c6515)" style="fill: #008000; opacity: 0.5"/>
   </g>
   <g id="patch_14">
    <path d="M 36 115.922186 
L 134.41414 115.922186 
L 134.41414 111.583124 
L 36 111.583124 
z
" clip-path="url(#p8b853c6515)" style="fill: #008000; opacity: 0.5"/>
   </g>
   <g id="patch_15">
    <path d="M 36 111.583124 
L 162.532466 111.583124 
L 162.532466 107.244061 
L 36 107.244061 
z
" clip-path="url(#p8b853c6515)" style="fill: #008000; opacity: 0.5"/>
   </g>
   <g id="patch_16">
    <path d="M 36 107.244061 
L 120.354978 107.244061 
L 120.354978 102.904999 
L 36 102.904999 
z
" clip-path="url(#p8b853c6515)" style="fill: #008000; opacity: 0.5"/>
   </g>
   <g id="patch_17">
    <path d="M 36 102.904999 
L 148.473303 102.904999 
L 148.473303 98.565937 
L 36 98.565937 
z
" clip-path="url(#p8b853c6515)" style="fill: #008000; opacity: 0.5"/>
   </g>
   <g id="patch_18">
    <path d="M 36 98.565937 
L 106.295815 98.565937 
L 106.295815 94.226874 
L 36 94.226874 
z
" clip-path="url(#p8b853c6515)" style="fill: #008000; opacity: 0.5"/>
   </g>
   <g id="patch_19">
    <path d="M 36 94.226874 
L 106.295815 94.226874 
L 106.295815 89.887812 
L 36 89.887812 
z
" clip-path="url(#p8b853c6515)" style="fill: #008000; opacity: 0.5"/>
   </g>
   <g id="patch_20">
    <path d="M 36 89.887812 
L 92.236652 89.887812 
L 92.236652 85.548749 
L 36 85.548749 
z
" clip-path="url(#p8b853c6515)" style="fill: #008000; opacity: 0.5"/>
   </g>
   <g id="patch_21">
    <path d="M 36 85.548749 
L 120.354978 85.548749 
L 120.354978 81.209687 
L 36 81.209687 
z
" clip-path="url(#p8b853c6515)" style="fill: #008000; opacity: 0.5"/>
   </g>
   <g id="patch_22">
    <path d="M 36 81.209687 
L 64.118326 81.209687 
L 64.118326 76.870624 
L 36 76.870624 
z
" clip-path="url(#p8b853c6515)" style="fill: #008000; opacity: 0.5"/>
   </g>
   <g id="patch_23">
    <path d="M 36 76.870624 
L 78.177489 76.870624 
L 78.177489 72.531562 
L 36 72.531562 
z
" clip-path="url(#p8b853c6515)" style="fill: #008000; opacity: 0.5"/>
   </g>
   <g id="patch_24">
    <path d="M 36 72.531562 
L 106.295815 72.531562 
L 106.295815 68.1925 
L 36 68.1925 
z
" clip-path="url(#p8b853c6515)" style="fill: #008000; opacity: 0.5"/>
   </g>
   <g id="patch_25">
    <path d="M 36 68.1925 
L 64.118326 68.1925 
L 64.118326 63.853437 
L 36 63.853437 
z
" clip-path="url(#p8b853c6515)" style="fill: #008000; opacity: 0.5"/>
   </g>
   <g id="patch_26">
    <path d="M 36 63.853437 
L 50.059163 63.853437 
L 50.059163 59.514375 
L 36 59.514375 
z
" clip-path="url(#p8b853c6515)" style="fill: #008000; opacity: 0.5"/>
   </g>
   <g id="patch_27">
    <path d="M 36 59.514375 
L 36 59.514375 
L 36 55.175312 
L 36 55.175312 
z
" clip-path="url(#p8b853c6515)" style="fill: #008000; opacity: 0.5"/>
   </g>
   <g id="patch_28">
    <path d="M 36 55.175312 
L 36 55.175312 
L 36 50.83625 
L 36 50.83625 
z
" clip-path="url(#p8b853c6515)" style="fill: #008000; opacity: 0.5"/>
   </g>
   <g id="patch_29">
    <path d="M 36 50.83625 
L 36 50.83625 
L 36 46.497187 
L 36 46.497187 
z
" clip-path="url(#p8b853c6515)" style="fill: #008000; opacity: 0.5"/>
   </g>
   <g id="patch_30">
    <path d="M 36 46.497187 
L 36 46.497187 
L 36 42.158125 
L 36 42.158125 
z
" clip-path="url(#p8b853c6515)" style="fill: #008000; opacity: 0.5"/>
   </g>
   <g id="patch_31">
    <path d="M 36 42.158125 
L 36 42.158125 
L 36 37.819062 
L 36 37.819062 
z
" clip-path="url(#p8b853c6515)" style="fill: #008000; opacity: 0.5"/>
   </g>
   <g id="patch_32">
    <path d="M 36 37.819062 
L 50.059163 37.819062 
L 50.059163 33.48 
L 36 33.48 
z
" clip-path="url(#p8b853c6515)" style="fill: #008000; opacity: 0.5"/>
   </g>
   <g id="matplotlib.axis_1">
    <g id="xtick_1">
     <g id="line2d_1">
      <path d="M 36 192.24 
L 36 25.92 
" clip-path="url(#p8b853c6515)" style="fill: none; stroke: #b0b0b0; stroke-width: 0.8; stroke-linecap: square"/>
     </g>
     <g id="line2d_2">
      <defs>
       <path id="m4ac1390171" d="M 0 0 
L 0 3.5 
" style="stroke: #000000; stroke-width: 0.8"/>
      </defs>
      <g>
       <use xlink:href="#m4ac1390171" x="36" y="192.24" style="stroke: #000000; stroke-width: 0.8"/>
      </g>
     </g>
     <g id="text_1">
      <!-- 0.0 -->
      <g transform="translate(28.048437 206.838437)scale(0.1 -0.1)">
       <defs>
        <path id="DejaVuSans-30" d="M 2034 4250 
Q 1547 4250 1301 3770 
Q 1056 3291 1056 2328 
Q 1056 1369 1301 889 
Q 1547 409 2034 409 
Q 2525 409 2770 889 
Q 3016 1369 3016 2328 
Q 3016 3291 2770 3770 
Q 2525 4250 2034 4250 
z
M 2034 4750 
Q 2819 4750 3233 4129 
Q 3647 3509 3647 2328 
Q 3647 1150 3233 529 
Q 2819 -91 2034 -91 
Q 1250 -91 836 529 
Q 422 1150 422 2328 
Q 422 3509 836 4129 
Q 1250 4750 2034 4750 
z
" transform="scale(0.015625)"/>
        <path id="DejaVuSans-2e" d="M 684 794 
L 1344 794 
L 1344 0 
L 684 0 
L 684 794 
z
" transform="scale(0.015625)"/>
       </defs>
       <use xlink:href="#DejaVuSans-30"/>
       <use xlink:href="#DejaVuSans-2e" x="63.623047"/>
       <use xlink:href="#DejaVuSans-30" x="95.410156"/>
      </g>
     </g>
    </g>
    <g id="xtick_2">
     <g id="line2d_3">
      <path d="M 78.514286 192.24 
L 78.514286 25.92 
" clip-path="url(#p8b853c6515)" style="fill: none; stroke: #b0b0b0; stroke-width: 0.8; stroke-linecap: square"/>
     </g>
     <g id="line2d_4">
      <g>
       <use xlink:href="#m4ac1390171" x="78.514286" y="192.24" style="stroke: #000000; stroke-width: 0.8"/>
      </g>
     </g>
     <g id="text_2">
      <!-- 0.2 -->
      <g transform="translate(70.562723 206.838437)scale(0.1 -0.1)">
       <defs>
        <path id="DejaVuSans-32" d="M 1228 531 
L 3431 531 
L 3431 0 
L 469 0 
L 469 531 
Q 828 903 1448 1529 
Q 2069 2156 2228 2338 
Q 2531 2678 2651 2914 
Q 2772 3150 2772 3378 
Q 2772 3750 2511 3984 
Q 2250 4219 1831 4219 
Q 1534 4219 1204 4116 
Q 875 4013 500 3803 
L 500 4441 
Q 881 4594 1212 4672 
Q 1544 4750 1819 4750 
Q 2544 4750 2975 4387 
Q 3406 4025 3406 3419 
Q 3406 3131 3298 2873 
Q 3191 2616 2906 2266 
Q 2828 2175 2409 1742 
Q 1991 1309 1228 531 
z
" transform="scale(0.015625)"/>
       </defs>
       <use xlink:href="#DejaVuSans-30"/>
       <use xlink:href="#DejaVuSans-2e" x="63.623047"/>
       <use xlink:href="#DejaVuSans-32" x="95.410156"/>
      </g>
     </g>
    </g>
    <g id="xtick_3">
     <g id="line2d_5">
      <path d="M 121.028571 192.24 
L 121.028571 25.92 
" clip-path="url(#p8b853c6515)" style="fill: none; stroke: #b0b0b0; stroke-width: 0.8; stroke-linecap: square"/>
     </g>
     <g id="line2d_6">
      <g>
       <use xlink:href="#m4ac1390171" x="121.028571" y="192.24" style="stroke: #000000; stroke-width: 0.8"/>
      </g>
     </g>
     <g id="text_3">
      <!-- 0.4 -->
      <g transform="translate(113.077009 206.838437)scale(0.1 -0.1)">
       <defs>
        <path id="DejaVuSans-34" d="M 2419 4116 
L 825 1625 
L 2419 1625 
L 2419 4116 
z
M 2253 4666 
L 3047 4666 
L 3047 1625 
L 3713 1625 
L 3713 1100 
L 3047 1100 
L 3047 0 
L 2419 0 
L 2419 1100 
L 313 1100 
L 313 1709 
L 2253 4666 
z
" transform="scale(0.015625)"/>
       </defs>
       <use xlink:href="#DejaVuSans-30"/>
       <use xlink:href="#DejaVuSans-2e" x="63.623047"/>
       <use xlink:href="#DejaVuSans-34" x="95.410156"/>
      </g>
     </g>
    </g>
    <g id="xtick_4">
     <g id="line2d_7">
      <path d="M 163.542857 192.24 
L 163.542857 25.92 
" clip-path="url(#p8b853c6515)" style="fill: none; stroke: #b0b0b0; stroke-width: 0.8; stroke-linecap: square"/>
     </g>
     <g id="line2d_8">
      <g>
       <use xlink:href="#m4ac1390171" x="163.542857" y="192.24" style="stroke: #000000; stroke-width: 0.8"/>
      </g>
     </g>
     <g id="text_4">
      <!-- 0.6 -->
      <g transform="translate(155.591295 206.838437)scale(0.1 -0.1)">
       <defs>
        <path id="DejaVuSans-36" d="M 2113 2584 
Q 1688 2584 1439 2293 
Q 1191 2003 1191 1497 
Q 1191 994 1439 701 
Q 1688 409 2113 409 
Q 2538 409 2786 701 
Q 3034 994 3034 1497 
Q 3034 2003 2786 2293 
Q 2538 2584 2113 2584 
z
M 3366 4563 
L 3366 3988 
Q 3128 4100 2886 4159 
Q 2644 4219 2406 4219 
Q 1781 4219 1451 3797 
Q 1122 3375 1075 2522 
Q 1259 2794 1537 2939 
Q 1816 3084 2150 3084 
Q 2853 3084 3261 2657 
Q 3669 2231 3669 1497 
Q 3669 778 3244 343 
Q 2819 -91 2113 -91 
Q 1303 -91 875 529 
Q 447 1150 447 2328 
Q 447 3434 972 4092 
Q 1497 4750 2381 4750 
Q 2619 4750 2861 4703 
Q 3103 4656 3366 4563 
z
" transform="scale(0.015625)"/>
       </defs>
       <use xlink:href="#DejaVuSans-30"/>
       <use xlink:href="#DejaVuSans-2e" x="63.623047"/>
       <use xlink:href="#DejaVuSans-36" x="95.410156"/>
      </g>
     </g>
    </g>
    <g id="xtick_5">
     <g id="line2d_9">
      <path d="M 206.057143 192.24 
L 206.057143 25.92 
" clip-path="url(#p8b853c6515)" style="fill: none; stroke: #b0b0b0; stroke-width: 0.8; stroke-linecap: square"/>
     </g>
     <g id="line2d_10">
      <g>
       <use xlink:href="#m4ac1390171" x="206.057143" y="192.24" style="stroke: #000000; stroke-width: 0.8"/>
      </g>
     </g>
     <g id="text_5">
      <!-- 0.8 -->
      <g transform="translate(198.10558 206.838437)scale(0.1 -0.1)">
       <defs>
        <path id="DejaVuSans-38" d="M 2034 2216 
Q 1584 2216 1326 1975 
Q 1069 1734 1069 1313 
Q 1069 891 1326 650 
Q 1584 409 2034 409 
Q 2484 409 2743 651 
Q 3003 894 3003 1313 
Q 3003 1734 2745 1975 
Q 2488 2216 2034 2216 
z
M 1403 2484 
Q 997 2584 770 2862 
Q 544 3141 544 3541 
Q 544 4100 942 4425 
Q 1341 4750 2034 4750 
Q 2731 4750 3128 4425 
Q 3525 4100 3525 3541 
Q 3525 3141 3298 2862 
Q 3072 2584 2669 2484 
Q 3125 2378 3379 2068 
Q 3634 1759 3634 1313 
Q 3634 634 3220 271 
Q 2806 -91 2034 -91 
Q 1263 -91 848 271 
Q 434 634 434 1313 
Q 434 1759 690 2068 
Q 947 2378 1403 2484 
z
M 1172 3481 
Q 1172 3119 1398 2916 
Q 1625 2713 2034 2713 
Q 2441 2713 2670 2916 
Q 2900 3119 2900 3481 
Q 2900 3844 2670 4047 
Q 2441 4250 2034 4250 
Q 1625 4250 1398 4047 
Q 1172 3844 1172 3481 
z
" transform="scale(0.015625)"/>
       </defs>
       <use xlink:href="#DejaVuSans-30"/>
       <use xlink:href="#DejaVuSans-2e" x="63.623047"/>
       <use xlink:href="#DejaVuSans-38" x="95.410156"/>
      </g>
     </g>
    </g>
    <g id="xtick_6">
     <g id="line2d_11">
      <path d="M 248.571429 192.24 
L 248.571429 25.92 
" clip-path="url(#p8b853c6515)" style="fill: none; stroke: #b0b0b0; stroke-width: 0.8; stroke-linecap: square"/>
     </g>
     <g id="line2d_12">
      <g>
       <use xlink:href="#m4ac1390171" x="248.571429" y="192.24" style="stroke: #000000; stroke-width: 0.8"/>
      </g>
     </g>
     <g id="text_6">
      <!-- 1.0 -->
      <g transform="translate(240.619866 206.838437)scale(0.1 -0.1)">
       <defs>
        <path id="DejaVuSans-31" d="M 794 531 
L 1825 531 
L 1825 4091 
L 703 3866 
L 703 4441 
L 1819 4666 
L 2450 4666 
L 2450 531 
L 3481 531 
L 3481 0 
L 794 0 
L 794 531 
z
" transform="scale(0.015625)"/>
       </defs>
       <use xlink:href="#DejaVuSans-31"/>
       <use xlink:href="#DejaVuSans-2e" x="63.623047"/>
       <use xlink:href="#DejaVuSans-30" x="95.410156"/>
      </g>
     </g>
    </g>
   </g>
   <g id="matplotlib.axis_2">
    <g id="ytick_1">
     <g id="line2d_13">
      <path d="M 36 190.846415 
L 259.2 190.846415 
" clip-path="url(#p8b853c6515)" style="fill: none; stroke: #b0b0b0; stroke-width: 0.8; stroke-linecap: square"/>
     </g>
     <g id="line2d_14">
      <defs>
       <path id="mae3459b416" d="M 0 0 
L -3.5 0 
" style="stroke: #000000; stroke-width: 0.8"/>
      </defs>
      <g>
       <use xlink:href="#mae3459b416" x="36" y="190.846415" style="stroke: #000000; stroke-width: 0.8"/>
      </g>
     </g>
     <g id="text_7">
      <!-- −3 -->
      <g transform="translate(14.257812 194.645633)scale(0.1 -0.1)">
       <defs>
        <path id="DejaVuSans-2212" d="M 678 2272 
L 4684 2272 
L 4684 1741 
L 678 1741 
L 678 2272 
z
" transform="scale(0.015625)"/>
        <path id="DejaVuSans-33" d="M 2597 2516 
Q 3050 2419 3304 2112 
Q 3559 1806 3559 1356 
Q 3559 666 3084 287 
Q 2609 -91 1734 -91 
Q 1441 -91 1130 -33 
Q 819 25 488 141 
L 488 750 
Q 750 597 1062 519 
Q 1375 441 1716 441 
Q 2309 441 2620 675 
Q 2931 909 2931 1356 
Q 2931 1769 2642 2001 
Q 2353 2234 1838 2234 
L 1294 2234 
L 1294 2753 
L 1863 2753 
Q 2328 2753 2575 2939 
Q 2822 3125 2822 3475 
Q 2822 3834 2567 4026 
Q 2313 4219 1838 4219 
Q 1578 4219 1281 4162 
Q 984 4106 628 3988 
L 628 4550 
Q 988 4650 1302 4700 
Q 1616 4750 1894 4750 
Q 2613 4750 3031 4423 
Q 3450 4097 3450 3541 
Q 3450 3153 3228 2886 
Q 3006 2619 2597 2516 
z
" transform="scale(0.015625)"/>
       </defs>
       <use xlink:href="#DejaVuSans-2212"/>
       <use xlink:href="#DejaVuSans-33" x="83.789062"/>
      </g>
     </g>
    </g>
    <g id="ytick_2">
     <g id="line2d_15">
      <path d="M 36 162.148491 
L 259.2 162.148491 
" clip-path="url(#p8b853c6515)" style="fill: none; stroke: #b0b0b0; stroke-width: 0.8; stroke-linecap: square"/>
     </g>
     <g id="line2d_16">
      <g>
       <use xlink:href="#mae3459b416" x="36" y="162.148491" style="stroke: #000000; stroke-width: 0.8"/>
      </g>
     </g>
     <g id="text_8">
      <!-- −2 -->
      <g transform="translate(14.257812 165.94771)scale(0.1 -0.1)">
       <use xlink:href="#DejaVuSans-2212"/>
       <use xlink:href="#DejaVuSans-32" x="83.789062"/>
      </g>
     </g>
    </g>
    <g id="ytick_3">
     <g id="line2d_17">
      <path d="M 36 133.450568 
L 259.2 133.450568 
" clip-path="url(#p8b853c6515)" style="fill: none; stroke: #b0b0b0; stroke-width: 0.8; stroke-linecap: square"/>
     </g>
     <g id="line2d_18">
      <g>
       <use xlink:href="#mae3459b416" x="36" y="133.450568" style="stroke: #000000; stroke-width: 0.8"/>
      </g>
     </g>
     <g id="text_9">
      <!-- −1 -->
      <g transform="translate(14.257812 137.249787)scale(0.1 -0.1)">
       <use xlink:href="#DejaVuSans-2212"/>
       <use xlink:href="#DejaVuSans-31" x="83.789062"/>
      </g>
     </g>
    </g>
    <g id="ytick_4">
     <g id="line2d_19">
      <path d="M 36 104.752644 
L 259.2 104.752644 
" clip-path="url(#p8b853c6515)" style="fill: none; stroke: #b0b0b0; stroke-width: 0.8; stroke-linecap: square"/>
     </g>
     <g id="line2d_20">
      <g>
       <use xlink:href="#mae3459b416" x="36" y="104.752644" style="stroke: #000000; stroke-width: 0.8"/>
      </g>
     </g>
     <g id="text_10">
      <!-- 0 -->
      <g transform="translate(22.6375 108.551863)scale(0.1 -0.1)">
       <use xlink:href="#DejaVuSans-30"/>
      </g>
     </g>
    </g>
    <g id="ytick_5">
     <g id="line2d_21">
      <path d="M 36 76.054721 
L 259.2 76.054721 
" clip-path="url(#p8b853c6515)" style="fill: none; stroke: #b0b0b0; stroke-width: 0.8; stroke-linecap: square"/>
     </g>
     <g id="line2d_22">
      <g>
       <use xlink:href="#mae3459b416" x="36" y="76.054721" style="stroke: #000000; stroke-width: 0.8"/>
      </g>
     </g>
     <g id="text_11">
      <!-- 1 -->
      <g transform="translate(22.6375 79.85394)scale(0.1 -0.1)">
       <use xlink:href="#DejaVuSans-31"/>
      </g>
     </g>
    </g>
    <g id="ytick_6">
     <g id="line2d_23">
      <path d="M 36 47.356798 
L 259.2 47.356798 
" clip-path="url(#p8b853c6515)" style="fill: none; stroke: #b0b0b0; stroke-width: 0.8; stroke-linecap: square"/>
     </g>
     <g id="line2d_24">
      <g>
       <use xlink:href="#mae3459b416" x="36" y="47.356798" style="stroke: #000000; stroke-width: 0.8"/>
      </g>
     </g>
     <g id="text_12">
      <!-- 2 -->
      <g transform="translate(22.6375 51.156016)scale(0.1 -0.1)">
       <use xlink:href="#DejaVuSans-32"/>
      </g>
     </g>
    </g>
   </g>
   <g id="line2d_25">
    <path d="M 36 151.611909 
L 38.147186 116.604543 
L 40.294372 143.767038 
L 42.441558 149.59897 
L 44.588745 121.77693 
L 46.735931 85.740308 
L 48.883117 114.012622 
L 51.030303 132.170774 
L 53.177489 58.751964 
L 55.324675 94.553486 
L 57.471861 102.843185 
L 59.619048 42.020203 
L 61.766234 76.427663 
L 63.91342 54.901523 
L 66.060606 148.338435 
L 68.207792 114.900156 
L 70.354978 165.2748 
L 72.502165 114.847144 
L 74.649351 87.393281 
L 76.796537 105.33551 
L 78.943723 95.934266 
L 81.090909 110.723104 
L 83.238095 81.040291 
L 85.385281 78.188957 
L 87.532468 108.279942 
L 89.679654 53.165822 
L 91.82684 115.527359 
L 93.974026 106.854488 
L 96.121212 143.842072 
L 98.268398 102.263633 
L 100.415584 86.940716 
L 102.562771 130.242102 
L 104.709957 90.794216 
L 106.857143 77.987017 
L 109.004329 103.815639 
L 111.151515 129.120625 
L 113.298701 150.239557 
L 115.445887 97.08164 
L 117.593074 151.317013 
L 119.74026 107.145874 
L 121.887446 68.997872 
L 124.034632 126.227416 
L 126.181818 103.809062 
L 128.329004 138.086546 
L 130.47619 61.320174 
L 132.623377 122.107479 
L 134.770563 66.05279 
L 136.917749 97.660399 
L 139.064935 83.034959 
L 141.212121 140.504162 
L 143.359307 98.324149 
L 145.506494 107.212946 
L 147.65368 92.051127 
L 149.800866 156.379991 
L 151.948052 88.834513 
L 154.095238 112.304203 
L 156.242424 89.941714 
L 158.38961 120.23346 
L 160.536797 117.820691 
L 162.683983 110.218006 
L 164.831169 134.384293 
L 166.978355 86.612943 
L 169.125541 142.538208 
L 171.272727 90.948003 
L 173.419913 168.129646 
L 175.5671 112.953734 
L 177.714286 69.584659 
L 179.861472 128.940924 
L 182.008658 71.10194 
L 184.155844 102.354527 
L 186.30303 105.091954 
L 188.450216 70.964609 
L 190.597403 126.000891 
L 192.744589 75.090174 
L 194.891775 89.563052 
L 197.038961 118.609174 
L 199.186147 119.879973 
L 201.333333 109.85597 
L 203.480519 110.434531 
L 205.627706 96.670826 
L 207.774892 135.918068 
L 209.922078 127.960996 
L 212.069264 109.267973 
L 214.21645 33.709777 
L 216.363636 103.343737 
L 218.510823 184.68 
L 220.658009 68.561625 
L 222.805195 135.367708 
L 224.952381 70.986326 
L 227.099567 101.339142 
L 229.246753 126.424065 
L 231.393939 110.028952 
L 233.541126 113.280509 
L 235.688312 93.344959 
L 237.835498 111.656049 
L 239.982684 105.340113 
L 242.12987 127.428053 
L 244.277056 120.653616 
L 246.424242 127.561154 
L 248.571429 112.11051 
" clip-path="url(#p8b853c6515)" style="fill: none; stroke: #4682b4; stroke-opacity: 0.5; stroke-width: 4; stroke-linecap: square"/>
   </g>
   <g id="patch_33">
    <path d="M 36 192.24 
L 36 25.92 
" style="fill: none; stroke: #000000; stroke-width: 0.8; stroke-linejoin: miter; stroke-linecap: square"/>
   </g>
   <g id="patch_34">
    <path d="M 259.2 192.24 
L 259.2 25.92 
" style="fill: none; stroke: #000000; stroke-width: 0.8; stroke-linejoin: miter; stroke-linecap: square"/>
   </g>
   <g id="patch_35">
    <path d="M 36 192.24 
L 259.2 192.24 
" style="fill: none; stroke: #000000; stroke-width: 0.8; stroke-linejoin: miter; stroke-linecap: square"/>
   </g>
   <g id="patch_36">
    <path d="M 36 25.92 
L 259.2 25.92 
" style="fill: none; stroke: #000000; stroke-width: 0.8; stroke-linejoin: miter; stroke-linecap: square"/>
   </g>
   <g id="text_13">
    <!-- My title -->
    <g transform="translate(125.235 19.92)scale(0.12 -0.12)">
     <defs>
      <path id="DejaVuSans-4d" d="M 628 4666 
L 1569 4666 
L 2759 1491 
L 3956 4666 
L 4897 4666 
L 4897 0 
L 4281 0 
L 4281 4097 
L 3078 897 
L 2444 897 
L 1241 4097 
L 1241 0 
L 628 0 
L 628 4666 
z
" transform="scale(0.015625)"/>
      <path id="DejaVuSans-79" d="M 2059 -325 
Q 1816 -950 1584 -1140 
Q 1353 -1331 966 -1331 
L 506 -1331 
L 506 -850 
L 844 -850 
Q 1081 -850 1212 -737 
Q 1344 -625 1503 -206 
L 1606 56 
L 191 3500 
L 800 3500 
L 1894 763 
L 2988 3500 
L 3597 3500 
L 2059 -325 
z
" transform="scale(0.015625)"/>
      <path id="DejaVuSans-20" transform="scale(0.015625)"/>
      <path id="DejaVuSans-74" d="M 1172 4494 
L 1172 3500 
L 2356 3500 
L 2356 3053 
L 1172 3053 
L 1172 1153 
Q 1172 725 1289 603 
Q 1406 481 1766 481 
L 2356 481 
L 2356 0 
L 1766 0 
Q 1100 0 847 248 
Q 594 497 594 1153 
L 594 3053 
L 172 3053 
L 172 3500 
L 594 3500 
L 594 4494 
L 1172 4494 
z
" transform="scale(0.015625)"/>
      <path id="DejaVuSans-69" d="M 603 3500 
L 1178 3500 
L 1178 0 
L 603 0 
L 603 3500 
z
M 603 4863 
L 1178 4863 
L 1178 4134 
L 603 4134 
L 603 4863 
z
" transform="scale(0.015625)"/>
      <path id="DejaVuSans-6c" d="M 603 4863 
L 1178 4863 
L 1178 0 
L 603 0 
L 603 4863 
z
" transform="scale(0.015625)"/>
      <path id="DejaVuSans-65" d="M 3597 1894 
L 3597 1613 
L 953 1613 
Q 991 1019 1311 708 
Q 1631 397 2203 397 
Q 2534 397 2845 478 
Q 3156 559 3463 722 
L 3463 178 
Q 3153 47 2828 -22 
Q 2503 -91 2169 -91 
Q 1331 -91 842 396 
Q 353 884 353 1716 
Q 353 2575 817 3079 
Q 1281 3584 2069 3584 
Q 2775 3584 3186 3129 
Q 3597 2675 3597 1894 
z
M 3022 2063 
Q 3016 2534 2758 2815 
Q 2500 3097 2075 3097 
Q 1594 3097 1305 2825 
Q 1016 2553 972 2059 
L 3022 2063 
z
" transform="scale(0.015625)"/>
     </defs>
     <use xlink:href="#DejaVuSans-4d"/>
     <use xlink:href="#DejaVuSans-79" x="86.279297"/>
     <use xlink:href="#DejaVuSans-20" x="145.458984"/>
     <use xlink:href="#DejaVuSans-74" x="177.246094"/>
     <use xlink:href="#DejaVuSans-69" x="216.455078"/>
     <use xlink:href="#DejaVuSans-74" x="244.238281"/>
     <use xlink:href="#DejaVuSans-6c" x="283.447266"/>
     <use xlink:href="#DejaVuSans-65" x="311.230469"/>
    </g>
   </g>
   <g id="legend_1">
    <g id="patch_37">
     <path d="M 207.91875 63.27625 
L 252.2 63.27625 
Q 254.2 63.27625 254.2 61.27625 
L 254.2 32.92 
Q 254.2 30.92 252.2 30.92 
L 207.91875 30.92 
Q 205.91875 30.92 205.91875 32.92 
L 205.91875 61.27625 
Q 205.91875 63.27625 207.91875 63.27625 
z
" style="fill: #ffffff; opacity: 0.8; stroke: #cccccc; stroke-linejoin: miter"/>
    </g>
    <g id="line2d_26">
     <path d="M 209.91875 39.018437 
L 219.91875 39.018437 
L 229.91875 39.018437 
" style="fill: none; stroke: #4682b4; stroke-opacity: 0.5; stroke-width: 4; stroke-linecap: square"/>
    </g>
    <g id="text_14">
     <!-- y1 -->
     <g transform="translate(237.91875 42.518437)scale(0.1 -0.1)">
      <use xlink:href="#DejaVuSans-79"/>
      <use xlink:href="#DejaVuSans-31" x="59.179688"/>
     </g>
    </g>
    <g id="PathCollection_2">
     <g>
      <use xlink:href="#mf3a70bfb9f" x="219.91875" y="54.571562" style="fill: #ff4500; fill-opacity: 0.5; stroke: #ff4500; stroke-opacity: 0.5; stroke-width: 1.5"/>
     </g>
    </g>
    <g id="text_15">
     <!-- y2 -->
     <g transform="translate(237.91875 57.196562)scale(0.1 -0.1)">
      <use xlink:href="#DejaVuSans-79"/>
      <use xlink:href="#DejaVuSans-32" x="59.179688"/>
     </g>
    </g>
   </g>
  </g>
 </g>
 <defs>
  <clipPath id="p8b853c6515">
   <rect x="36" y="25.92" width="223.2" height="166.32"/>
  </clipPath>
 </defs>
</svg>
