<?xml version="1.0" encoding="utf-8" standalone="no"?>
<!DOCTYPE svg PUBLIC "-//W3C//DTD SVG 1.1//EN"
  "http://www.w3.org/Graphics/SVG/1.1/DTD/svg11.dtd">
<svg xmlns:xlink="http://www.w3.org/1999/xlink" width="288pt" height="216pt" viewBox="0 0 288 216" xmlns="http://www.w3.org/2000/svg" version="1.1">
 <metadata>
  <rdf:RDF xmlns:dc="http://purl.org/dc/elements/1.1/" xmlns:cc="http://creativecommons.org/ns#" xmlns:rdf="http://www.w3.org/1999/02/22-rdf-syntax-ns#">
   <cc:Work>
    <dc:type rdf:resource="http://purl.org/dc/dcmitype/StillImage"/>
    <dc:date>2022-03-30T15:32:38.514759</dc:date>
    <dc:format>image/svg+xml</dc:format>
    <dc:creator>
     <cc:Agent>
      <dc:title>Matplotlib v3.5.1, https://matplotlib.org/</dc:title>
     </cc:Agent>
    </dc:creator>
   </cc:Work>
  </rdf:RDF>
 </metadata>
 <defs>
  <style type="text/css">*{stroke-linejoin: round; stroke-linecap: butt}</style>
 </defs>
 <g id="figure_1">
  <g id="patch_1">
   <path d="M 0 216 
L 288 216 
L 288 0 
L 0 0 
z
" style="fill: #ffffff"/>
  </g>
  <g id="axes_1">
   <g id="patch_2">
    <path d="M 36 192.24 
L 259.2 192.24 
L 259.2 25.92 
L 36 25.92 
z
" style="fill: #ffffff"/>
   </g>
   <g id="PathCollection_1">
    <defs>
     <path id="me3ecef29e9" d="M -5 0 
L 5 0 
M 0 5 
L 0 -5 
" style="stroke: #ff4500; stroke-opacity: 0.5; stroke-width: 1.5"/>
    </defs>
    <g clip-path="url(#pc4dd5f6abd)">
     <use xlink:href="#me3ecef29e9" x="36" y="56.846141" style="fill: #ff4500; fill-opacity: 0.5; stroke: #ff4500; stroke-opacity: 0.5; stroke-width: 1.5"/>
     <use xlink:href="#me3ecef29e9" x="38.147186" y="85.068814" style="fill: #ff4500; fill-opacity: 0.5; stroke: #ff4500; stroke-opacity: 0.5; stroke-width: 1.5"/>
     <use xlink:href="#me3ecef29e9" x="40.294372" y="121.903387" style="fill: #ff4500; fill-opacity: 0.5; stroke: #ff4500; stroke-opacity: 0.5; stroke-width: 1.5"/>
     <use xlink:href="#me3ecef29e9" x="42.441558" y="71.284679" style="fill: #ff4500; fill-opacity: 0.5; stroke: #ff4500; stroke-opacity: 0.5; stroke-width: 1.5"/>
     <use xlink:href="#me3ecef29e9" x="44.588745" y="101.841744" style="fill: #ff4500; fill-opacity: 0.5; stroke: #ff4500; stroke-opacity: 0.5; stroke-width: 1.5"/>
     <use xlink:href="#me3ecef29e9" x="46.735931" y="119.506892" style="fill: #ff4500; fill-opacity: 0.5; stroke: #ff4500; stroke-opacity: 0.5; stroke-width: 1.5"/>
     <use xlink:href="#me3ecef29e9" x="48.883117" y="95.43359" style="fill: #ff4500; fill-opacity: 0.5; stroke: #ff4500; stroke-opacity: 0.5; stroke-width: 1.5"/>
     <use xlink:href="#me3ecef29e9" x="51.030303" y="67.589611" style="fill: #ff4500; fill-opacity: 0.5; stroke: #ff4500; stroke-opacity: 0.5; stroke-width: 1.5"/>
     <use xlink:href="#me3ecef29e9" x="53.177489" y="98.835438" style="fill: #ff4500; fill-opacity: 0.5; stroke: #ff4500; stroke-opacity: 0.5; stroke-width: 1.5"/>
     <use xlink:href="#me3ecef29e9" x="55.324675" y="113.602778" style="fill: #ff4500; fill-opacity: 0.5; stroke: #ff4500; stroke-opacity: 0.5; stroke-width: 1.5"/>
     <use xlink:href="#me3ecef29e9" x="57.471861" y="133.878411" style="fill: #ff4500; fill-opacity: 0.5; stroke: #ff4500; stroke-opacity: 0.5; stroke-width: 1.5"/>
     <use xlink:href="#me3ecef29e9" x="59.619048" y="109.203672" style="fill: #ff4500; fill-opacity: 0.5; stroke: #ff4500; stroke-opacity: 0.5; stroke-width: 1.5"/>
     <use xlink:href="#me3ecef29e9" x="61.766234" y="108.566677" style="fill: #ff4500; fill-opacity: 0.5; stroke: #ff4500; stroke-opacity: 0.5; stroke-width: 1.5"/>
     <use xlink:href="#me3ecef29e9" x="63.91342" y="96.423114" style="fill: #ff4500; fill-opacity: 0.5; stroke: #ff4500; stroke-opacity: 0.5; stroke-width: 1.5"/>
     <use xlink:href="#me3ecef29e9" x="66.060606" y="103.38857" style="fill: #ff4500; fill-opacity: 0.5; stroke: #ff4500; stroke-opacity: 0.5; stroke-width: 1.5"/>
     <use xlink:href="#me3ecef29e9" x="68.207792" y="109.813854" style="fill: #ff4500; fill-opacity: 0.5; stroke: #ff4500; stroke-opacity: 0.5; stroke-width: 1.5"/>
     <use xlink:href="#me3ecef29e9" x="70.354978" y="160.993977" style="fill: #ff4500; fill-opacity: 0.5; stroke: #ff4500; stroke-opacity: 0.5; stroke-width: 1.5"/>
     <use xlink:href="#me3ecef29e9" x="72.502165" y="64.175753" style="fill: #ff4500; fill-opacity: 0.5; stroke: #ff4500; stroke-opacity: 0.5; stroke-width: 1.5"/>
     <use xlink:href="#me3ecef29e9" x="74.649351" y="90.069483" style="fill: #ff4500; fill-opacity: 0.5; stroke: #ff4500; stroke-opacity: 0.5; stroke-width: 1.5"/>
     <use xlink:href="#me3ecef29e9" x="76.796537" y="82.811299" style="fill: #ff4500; fill-opacity: 0.5; stroke: #ff4500; stroke-opacity: 0.5; stroke-width: 1.5"/>
     <use xlink:href="#me3ecef29e9" x="78.943723" y="76.699624" style="fill: #ff4500; fill-opacity: 0.5; stroke: #ff4500; stroke-opacity: 0.5; stroke-width: 1.5"/>
     <use xlink:href="#me3ecef29e9" x="81.090909" y="66.067121" style="fill: #ff4500; fill-opacity: 0.5; stroke: #ff4500; stroke-opacity: 0.5; stroke-width: 1.5"/>
     <use xlink:href="#me3ecef29e9" x="83.238095" y="119.525177" style="fill: #ff4500; fill-opacity: 0.5; stroke: #ff4500; stroke-opacity: 0.5; stroke-width: 1.5"/>
     <use xlink:href="#me3ecef29e9" x="85.385281" y="110.233677" style="fill: #ff4500; fill-opacity: 0.5; stroke: #ff4500; stroke-opacity: 0.5; stroke-width: 1.5"/>
     <use xlink:href="#me3ecef29e9" x="87.532468" y="127.419707" style="fill: #ff4500; fill-opacity: 0.5; stroke: #ff4500; stroke-opacity: 0.5; stroke-width: 1.5"/>
     <use xlink:href="#me3ecef29e9" x="89.679654" y="114.113177" style="fill: #ff4500; fill-opacity: 0.5; stroke: #ff4500; stroke-opacity: 0.5; stroke-width: 1.5"/>
     <use xlink:href="#me3ecef29e9" x="91.82684" y="170.717831" style="fill: #ff4500; fill-opacity: 0.5; stroke: #ff4500; stroke-opacity: 0.5; stroke-width: 1.5"/>
     <use xlink:href="#me3ecef29e9" x="93.974026" y="67.389478" style="fill: #ff4500; fill-opacity: 0.5; stroke: #ff4500; stroke-opacity: 0.5; stroke-width: 1.5"/>
     <use xlink:href="#me3ecef29e9" x="96.121212" y="110.618285" style="fill: #ff4500; fill-opacity: 0.5; stroke: #ff4500; stroke-opacity: 0.5; stroke-width: 1.5"/>
     <use xlink:href="#me3ecef29e9" x="98.268398" y="100.729513" style="fill: #ff4500; fill-opacity: 0.5; stroke: #ff4500; stroke-opacity: 0.5; stroke-width: 1.5"/>
     <use xlink:href="#me3ecef29e9" x="100.415584" y="132.171327" style="fill: #ff4500; fill-opacity: 0.5; stroke: #ff4500; stroke-opacity: 0.5; stroke-width: 1.5"/>
     <use xlink:href="#me3ecef29e9" x="102.562771" y="112.458678" style="fill: #ff4500; fill-opacity: 0.5; stroke: #ff4500; stroke-opacity: 0.5; stroke-width: 1.5"/>
     <use xlink:href="#me3ecef29e9" x="104.709957" y="134.101696" style="fill: #ff4500; fill-opacity: 0.5; stroke: #ff4500; stroke-opacity: 0.5; stroke-width: 1.5"/>
     <use xlink:href="#me3ecef29e9" x="106.857143" y="117.635417" style="fill: #ff4500; fill-opacity: 0.5; stroke: #ff4500; stroke-opacity: 0.5; stroke-width: 1.5"/>
     <use xlink:href="#me3ecef29e9" x="109.004329" y="110.098472" style="fill: #ff4500; fill-opacity: 0.5; stroke: #ff4500; stroke-opacity: 0.5; stroke-width: 1.5"/>
     <use xlink:href="#me3ecef29e9" x="111.151515" y="107.852199" style="fill: #ff4500; fill-opacity: 0.5; stroke: #ff4500; stroke-opacity: 0.5; stroke-width: 1.5"/>
     <use xlink:href="#me3ecef29e9" x="113.298701" y="107.079189" style="fill: #ff4500; fill-opacity: 0.5; stroke: #ff4500; stroke-opacity: 0.5; stroke-width: 1.5"/>
     <use xlink:href="#me3ecef29e9" x="115.445887" y="120.858204" style="fill: #ff4500; fill-opacity: 0.5; stroke: #ff4500; stroke-opacity: 0.5; stroke-width: 1.5"/>
     <use xlink:href="#me3ecef29e9" x="117.593074" y="76.789802" style="fill: #ff4500; fill-opacity: 0.5; stroke: #ff4500; stroke-opacity: 0.5; stroke-width: 1.5"/>
     <use xlink:href="#me3ecef29e9" x="119.74026" y="134.464261" style="fill: #ff4500; fill-opacity: 0.5; stroke: #ff4500; stroke-opacity: 0.5; stroke-width: 1.5"/>
     <use xlink:href="#me3ecef29e9" x="121.887446" y="144.086817" style="fill: #ff4500; fill-opacity: 0.5; stroke: #ff4500; stroke-opacity: 0.5; stroke-width: 1.5"/>
     <use xlink:href="#me3ecef29e9" x="124.034632" y="78.843576" style="fill: #ff4500; fill-opacity: 0.5; stroke: #ff4500; stroke-opacity: 0.5; stroke-width: 1.5"/>
     <use xlink:href="#me3ecef29e9" x="126.181818" y="73.970379" style="fill: #ff4500; fill-opacity: 0.5; stroke: #ff4500; stroke-opacity: 0.5; stroke-width: 1.5"/>
     <use xlink:href="#me3ecef29e9" x="128.329004" y="91.688672" style="fill: #ff4500; fill-opacity: 0.5; stroke: #ff4500; stroke-opacity: 0.5; stroke-width: 1.5"/>
     <use xlink:href="#me3ecef29e9" x="130.47619" y="71.866809" style="fill: #ff4500; fill-opacity: 0.5; stroke: #ff4500; stroke-opacity: 0.5; stroke-width: 1.5"/>
     <use xlink:href="#me3ecef29e9" x="132.623377" y="73.467813" style="fill: #ff4500; fill-opacity: 0.5; stroke: #ff4500; stroke-opacity: 0.5; stroke-width: 1.5"/>
     <use xlink:href="#me3ecef29e9" x="134.770563" y="97.23195" style="fill: #ff4500; fill-opacity: 0.5; stroke: #ff4500; stroke-opacity: 0.5; stroke-width: 1.5"/>
     <use xlink:href="#me3ecef29e9" x="136.917749" y="69.246985" style="fill: #ff4500; fill-opacity: 0.5; stroke: #ff4500; stroke-opacity: 0.5; stroke-width: 1.5"/>
     <use xlink:href="#me3ecef29e9" x="139.064935" y="167.604148" style="fill: #ff4500; fill-opacity: 0.5; stroke: #ff4500; stroke-opacity: 0.5; stroke-width: 1.5"/>
     <use xlink:href="#me3ecef29e9" x="141.212121" y="131.058489" style="fill: #ff4500; fill-opacity: 0.5; stroke: #ff4500; stroke-opacity: 0.5; stroke-width: 1.5"/>
     <use xlink:href="#me3ecef29e9" x="143.359307" y="131.574326" style="fill: #ff4500; fill-opacity: 0.5; stroke: #ff4500; stroke-opacity: 0.5; stroke-width: 1.5"/>
     <use xlink:href="#me3ecef29e9" x="145.506494" y="130.486923" style="fill: #ff4500; fill-opacity: 0.5; stroke: #ff4500; stroke-opacity: 0.5; stroke-width: 1.5"/>
     <use xlink:href="#me3ecef29e9" x="147.65368" y="131.218419" style="fill: #ff4500; fill-opacity: 0.5; stroke: #ff4500; stroke-opacity: 0.5; stroke-width: 1.5"/>
     <use xlink:href="#me3ecef29e9" x="149.800866" y="112.811265" style="fill: #ff4500; fill-opacity: 0.5; stroke: #ff4500; stroke-opacity: 0.5; stroke-width: 1.5"/>
     <use xlink:href="#me3ecef29e9" x="151.948052" y="147.093098" style="fill: #ff4500; fill-opacity: 0.5; stroke: #ff4500; stroke-opacity: 0.5; stroke-width: 1.5"/>
     <use xlink:href="#me3ecef29e9" x="154.095238" y="95.174937" style="fill: #ff4500; fill-opacity: 0.5; stroke: #ff4500; stroke-opacity: 0.5; stroke-width: 1.5"/>
     <use xlink:href="#me3ecef29e9" x="156.242424" y="81.018087" style="fill: #ff4500; fill-opacity: 0.5; stroke: #ff4500; stroke-opacity: 0.5; stroke-width: 1.5"/>
     <use xlink:href="#me3ecef29e9" x="158.38961" y="144.19358" style="fill: #ff4500; fill-opacity: 0.5; stroke: #ff4500; stroke-opacity: 0.5; stroke-width: 1.5"/>
     <use xlink:href="#me3ecef29e9" x="160.536797" y="98.613213" style="fill: #ff4500; fill-opacity: 0.5; stroke: #ff4500; stroke-opacity: 0.5; stroke-width: 1.5"/>
     <use xlink:href="#me3ecef29e9" x="162.683983" y="102.330166" style="fill: #ff4500; fill-opacity: 0.5; stroke: #ff4500; stroke-opacity: 0.5; stroke-width: 1.5"/>
     <use xlink:href="#me3ecef29e9" x="164.831169" y="111.648938" style="fill: #ff4500; fill-opacity: 0.5; stroke: #ff4500; stroke-opacity: 0.5; stroke-width: 1.5"/>
     <use xlink:href="#me3ecef29e9" x="166.978355" y="57.103729" style="fill: #ff4500; fill-opacity: 0.5; stroke: #ff4500; stroke-opacity: 0.5; stroke-width: 1.5"/>
     <use xlink:href="#me3ecef29e9" x="169.125541" y="91.085518" style="fill: #ff4500; fill-opacity: 0.5; stroke: #ff4500; stroke-opacity: 0.5; stroke-width: 1.5"/>
     <use xlink:href="#me3ecef29e9" x="171.272727" y="113.217905" style="fill: #ff4500; fill-opacity: 0.5; stroke: #ff4500; stroke-opacity: 0.5; stroke-width: 1.5"/>
     <use xlink:href="#me3ecef29e9" x="173.419913" y="107.314289" style="fill: #ff4500; fill-opacity: 0.5; stroke: #ff4500; stroke-opacity: 0.5; stroke-width: 1.5"/>
     <use xlink:href="#me3ecef29e9" x="175.5671" y="148.473398" style="fill: #ff4500; fill-opacity: 0.5; stroke: #ff4500; stroke-opacity: 0.5; stroke-width: 1.5"/>
     <use xlink:href="#me3ecef29e9" x="177.714286" y="123.656937" style="fill: #ff4500; fill-opacity: 0.5; stroke: #ff4500; stroke-opacity: 0.5; stroke-width: 1.5"/>
     <use xlink:href="#me3ecef29e9" x="179.861472" y="61.516782" style="fill: #ff4500; fill-opacity: 0.5; stroke: #ff4500; stroke-opacity: 0.5; stroke-width: 1.5"/>
     <use xlink:href="#me3ecef29e9" x="182.008658" y="111.606294" style="fill: #ff4500; fill-opacity: 0.5; stroke: #ff4500; stroke-opacity: 0.5; stroke-width: 1.5"/>
     <use xlink:href="#me3ecef29e9" x="184.155844" y="65.261638" style="fill: #ff4500; fill-opacity: 0.5; stroke: #ff4500; stroke-opacity: 0.5; stroke-width: 1.5"/>
     <use xlink:href="#me3ecef29e9" x="186.30303" y="114.969609" style="fill: #ff4500; fill-opacity: 0.5; stroke: #ff4500; stroke-opacity: 0.5; stroke-width: 1.5"/>
     <use xlink:href="#me3ecef29e9" x="188.450216" y="91.479283" style="fill: #ff4500; fill-opacity: 0.5; stroke: #ff4500; stroke-opacity: 0.5; stroke-width: 1.5"/>
     <use xlink:href="#me3ecef29e9" x="190.597403" y="125.394217" style="fill: #ff4500; fill-opacity: 0.5; stroke: #ff4500; stroke-opacity: 0.5; stroke-width: 1.5"/>
     <use xlink:href="#me3ecef29e9" x="192.744589" y="91.025453" style="fill: #ff4500; fill-opacity: 0.5; stroke: #ff4500; stroke-opacity: 0.5; stroke-width: 1.5"/>
     <use xlink:href="#me3ecef29e9" x="194.891775" y="76.375649" style="fill: #ff4500; fill-opacity: 0.5; stroke: #ff4500; stroke-opacity: 0.5; stroke-width: 1.5"/>
     <use xlink:href="#me3ecef29e9" x="197.038961" y="94.803285" style="fill: #ff4500; fill-opacity: 0.5; stroke: #ff4500; stroke-opacity: 0.5; stroke-width: 1.5"/>
     <use xlink:href="#me3ecef29e9" x="199.186147" y="162.653824" style="fill: #ff4500; fill-opacity: 0.5; stroke: #ff4500; stroke-opacity: 0.5; stroke-width: 1.5"/>
     <use xlink:href="#me3ecef29e9" x="201.333333" y="102.338656" style="fill: #ff4500; fill-opacity: 0.5; stroke: #ff4500; stroke-opacity: 0.5; stroke-width: 1.5"/>
     <use xlink:href="#me3ecef29e9" x="203.480519" y="119.413684" style="fill: #ff4500; fill-opacity: 0.5; stroke: #ff4500; stroke-opacity: 0.5; stroke-width: 1.5"/>
     <use xlink:href="#me3ecef29e9" x="205.627706" y="117.029684" style="fill: #ff4500; fill-opacity: 0.5; stroke: #ff4500; stroke-opacity: 0.5; stroke-width: 1.5"/>
     <use xlink:href="#me3ecef29e9" x="207.774892" y="119.508874" style="fill: #ff4500; fill-opacity: 0.5; stroke: #ff4500; stroke-opacity: 0.5; stroke-width: 1.5"/>
     <use xlink:href="#me3ecef29e9" x="209.922078" y="105.698246" style="fill: #ff4500; fill-opacity: 0.5; stroke: #ff4500; stroke-opacity: 0.5; stroke-width: 1.5"/>
     <use xlink:href="#me3ecef29e9" x="212.069264" y="112.257259" style="fill: #ff4500; fill-opacity: 0.5; stroke: #ff4500; stroke-opacity: 0.5; stroke-width: 1.5"/>
     <use xlink:href="#me3ecef29e9" x="214.21645" y="155.604817" style="fill: #ff4500; fill-opacity: 0.5; stroke: #ff4500; stroke-opacity: 0.5; stroke-width: 1.5"/>
     <use xlink:href="#me3ecef29e9" x="216.363636" y="109.33634" style="fill: #ff4500; fill-opacity: 0.5; stroke: #ff4500; stroke-opacity: 0.5; stroke-width: 1.5"/>
     <use xlink:href="#me3ecef29e9" x="218.510823" y="165.340122" style="fill: #ff4500; fill-opacity: 0.5; stroke: #ff4500; stroke-opacity: 0.5; stroke-width: 1.5"/>
     <use xlink:href="#me3ecef29e9" x="220.658009" y="139.429976" style="fill: #ff4500; fill-opacity: 0.5; stroke: #ff4500; stroke-opacity: 0.5; stroke-width: 1.5"/>
     <use xlink:href="#me3ecef29e9" x="222.805195" y="97.375852" style="fill: #ff4500; fill-opacity: 0.5; stroke: #ff4500; stroke-opacity: 0.5; stroke-width: 1.5"/>
     <use xlink:href="#me3ecef29e9" x="224.952381" y="136.212036" style="fill: #ff4500; fill-opacity: 0.5; stroke: #ff4500; stroke-opacity: 0.5; stroke-width: 1.5"/>
     <use xlink:href="#me3ecef29e9" x="227.099567" y="81.096908" style="fill: #ff4500; fill-opacity: 0.5; stroke: #ff4500; stroke-opacity: 0.5; stroke-width: 1.5"/>
     <use xlink:href="#me3ecef29e9" x="229.246753" y="112.782031" style="fill: #ff4500; fill-opacity: 0.5; stroke: #ff4500; stroke-opacity: 0.5; stroke-width: 1.5"/>
     <use xlink:href="#me3ecef29e9" x="231.393939" y="117.401068" style="fill: #ff4500; fill-opacity: 0.5; stroke: #ff4500; stroke-opacity: 0.5; stroke-width: 1.5"/>
     <use xlink:href="#me3ecef29e9" x="233.541126" y="143.814993" style="fill: #ff4500; fill-opacity: 0.5; stroke: #ff4500; stroke-opacity: 0.5; stroke-width: 1.5"/>
     <use xlink:href="#me3ecef29e9" x="235.688312" y="91.53043" style="fill: #ff4500; fill-opacity: 0.5; stroke: #ff4500; stroke-opacity: 0.5; stroke-width: 1.5"/>
     <use xlink:href="#me3ecef29e9" x="237.835498" y="112.700963" style="fill: #ff4500; fill-opacity: 0.5; stroke: #ff4500; stroke-opacity: 0.5; stroke-width: 1.5"/>
     <use xlink:href="#me3ecef29e9" x="239.982684" y="107.057867" style="fill: #ff4500; fill-opacity: 0.5; stroke: #ff4500; stroke-opacity: 0.5; stroke-width: 1.5"/>
     <use xlink:href="#me3ecef29e9" x="242.12987" y="145.334917" style="fill: #ff4500; fill-opacity: 0.5; stroke: #ff4500; stroke-opacity: 0.5; stroke-width: 1.5"/>
     <use xlink:href="#me3ecef29e9" x="244.277056" y="49.514072" style="fill: #ff4500; fill-opacity: 0.5; stroke: #ff4500; stroke-opacity: 0.5; stroke-width: 1.5"/>
     <use xlink:href="#me3ecef29e9" x="246.424242" y="160.603431" style="fill: #ff4500; fill-opacity: 0.5; stroke: #ff4500; stroke-opacity: 0.5; stroke-width: 1.5"/>
     <use xlink:href="#me3ecef29e9" x="248.571429" y="101.173308" style="fill: #ff4500; fill-opacity: 0.5; stroke: #ff4500; stroke-opacity: 0.5; stroke-width: 1.5"/>
    </g>
   </g>
   <g id="patch_3">
    <path d="M 36 181.001771 
L 47.260154 181.001771 
L 47.260154 176.084379 
L 36 176.084379 
z
" clip-path="url(#pc4dd5f6abd)" style="fill: #008000; opacity: 0.5"/>
   </g>
   <g id="patch_4">
    <path d="M 36 176.084379 
L 47.260154 176.084379 
L 47.260154 171.166986 
L 36 171.166986 
z
" clip-path="url(#pc4dd5f6abd)" style="fill: #008000; opacity: 0.5"/>
   </g>
   <g id="patch_5">
    <path d="M 36 171.166986 
L 36 171.166986 
L 36 166.249594 
L 36 166.249594 
z
" clip-path="url(#pc4dd5f6abd)" style="fill: #008000; opacity: 0.5"/>
   </g>
   <g id="patch_6">
    <path d="M 36 166.249594 
L 47.260154 166.249594 
L 47.260154 161.332202 
L 36 161.332202 
z
" clip-path="url(#pc4dd5f6abd)" style="fill: #008000; opacity: 0.5"/>
   </g>
   <g id="patch_7">
    <path d="M 36 161.332202 
L 47.260154 161.332202 
L 47.260154 156.414809 
L 36 156.414809 
z
" clip-path="url(#pc4dd5f6abd)" style="fill: #008000; opacity: 0.5"/>
   </g>
   <g id="patch_8">
    <path d="M 36 156.414809 
L 47.260154 156.414809 
L 47.260154 151.497417 
L 36 151.497417 
z
" clip-path="url(#pc4dd5f6abd)" style="fill: #008000; opacity: 0.5"/>
   </g>
   <g id="patch_9">
    <path d="M 36 151.497417 
L 58.520308 151.497417 
L 58.520308 146.580024 
L 36 146.580024 
z
" clip-path="url(#pc4dd5f6abd)" style="fill: #008000; opacity: 0.5"/>
   </g>
   <g id="patch_10">
    <path d="M 36 146.580024 
L 81.040617 146.580024 
L 81.040617 141.662632 
L 36 141.662632 
z
" clip-path="url(#pc4dd5f6abd)" style="fill: #008000; opacity: 0.5"/>
   </g>
   <g id="patch_11">
    <path d="M 36 141.662632 
L 103.560925 141.662632 
L 103.560925 136.74524 
L 36 136.74524 
z
" clip-path="url(#pc4dd5f6abd)" style="fill: #008000; opacity: 0.5"/>
   </g>
   <g id="patch_12">
    <path d="M 36 136.74524 
L 81.040617 136.74524 
L 81.040617 131.827847 
L 36 131.827847 
z
" clip-path="url(#pc4dd5f6abd)" style="fill: #008000; opacity: 0.5"/>
   </g>
   <g id="patch_13">
    <path d="M 36 131.827847 
L 69.780463 131.827847 
L 69.780463 126.910455 
L 36 126.910455 
z
" clip-path="url(#pc4dd5f6abd)" style="fill: #008000; opacity: 0.5"/>
   </g>
   <g id="patch_14">
    <path d="M 36 126.910455 
L 103.560925 126.910455 
L 103.560925 121.993063 
L 36 121.993063 
z
" clip-path="url(#pc4dd5f6abd)" style="fill: #008000; opacity: 0.5"/>
   </g>
   <g id="patch_15">
    <path d="M 36 121.993063 
L 137.341388 121.993063 
L 137.341388 117.07567 
L 36 117.07567 
z
" clip-path="url(#pc4dd5f6abd)" style="fill: #008000; opacity: 0.5"/>
   </g>
   <g id="patch_16">
    <path d="M 36 117.07567 
L 69.780463 117.07567 
L 69.780463 112.158278 
L 36 112.158278 
z
" clip-path="url(#pc4dd5f6abd)" style="fill: #008000; opacity: 0.5"/>
   </g>
   <g id="patch_17">
    <path d="M 36 112.158278 
L 103.560925 112.158278 
L 103.560925 107.240886 
L 36 107.240886 
z
" clip-path="url(#pc4dd5f6abd)" style="fill: #008000; opacity: 0.5"/>
   </g>
   <g id="patch_18">
    <path d="M 36 107.240886 
L 126.081233 107.240886 
L 126.081233 102.323493 
L 36 102.323493 
z
" clip-path="url(#pc4dd5f6abd)" style="fill: #008000; opacity: 0.5"/>
   </g>
   <g id="patch_19">
    <path d="M 36 102.323493 
L 103.560925 102.323493 
L 103.560925 97.406101 
L 36 97.406101 
z
" clip-path="url(#pc4dd5f6abd)" style="fill: #008000; opacity: 0.5"/>
   </g>
   <g id="patch_20">
    <path d="M 36 97.406101 
L 137.341388 97.406101 
L 137.341388 92.488708 
L 36 92.488708 
z
" clip-path="url(#pc4dd5f6abd)" style="fill: #008000; opacity: 0.5"/>
   </g>
   <g id="patch_21">
    <path d="M 36 92.488708 
L 114.821079 92.488708 
L 114.821079 87.571316 
L 36 87.571316 
z
" clip-path="url(#pc4dd5f6abd)" style="fill: #008000; opacity: 0.5"/>
   </g>
   <g id="patch_22">
    <path d="M 36 87.571316 
L 69.780463 87.571316 
L 69.780463 82.653924 
L 36 82.653924 
z
" clip-path="url(#pc4dd5f6abd)" style="fill: #008000; opacity: 0.5"/>
   </g>
   <g id="patch_23">
    <path d="M 36 82.653924 
L 103.560925 82.653924 
L 103.560925 77.736531 
L 36 77.736531 
z
" clip-path="url(#pc4dd5f6abd)" style="fill: #008000; opacity: 0.5"/>
   </g>
   <g id="patch_24">
    <path d="M 36 77.736531 
L 69.780463 77.736531 
L 69.780463 72.819139 
L 36 72.819139 
z
" clip-path="url(#pc4dd5f6abd)" style="fill: #008000; opacity: 0.5"/>
   </g>
   <g id="patch_25">
    <path d="M 36 72.819139 
L 58.520308 72.819139 
L 58.520308 67.901747 
L 36 67.901747 
z
" clip-path="url(#pc4dd5f6abd)" style="fill: #008000; opacity: 0.5"/>
   </g>
   <g id="patch_26">
    <path d="M 36 67.901747 
L 58.520308 67.901747 
L 58.520308 62.984354 
L 36 62.984354 
z
" clip-path="url(#pc4dd5f6abd)" style="fill: #008000; opacity: 0.5"/>
   </g>
   <g id="patch_27">
    <path d="M 36 62.984354 
L 81.040617 62.984354 
L 81.040617 58.066962 
L 36 58.066962 
z
" clip-path="url(#pc4dd5f6abd)" style="fill: #008000; opacity: 0.5"/>
   </g>
   <g id="patch_28">
    <path d="M 36 58.066962 
L 47.260154 58.066962 
L 47.260154 53.149569 
L 36 53.149569 
z
" clip-path="url(#pc4dd5f6abd)" style="fill: #008000; opacity: 0.5"/>
   </g>
   <g id="patch_29">
    <path d="M 36 53.149569 
L 36 53.149569 
L 36 48.232177 
L 36 48.232177 
z
" clip-path="url(#pc4dd5f6abd)" style="fill: #008000; opacity: 0.5"/>
   </g>
   <g id="patch_30">
    <path d="M 36 48.232177 
L 36 48.232177 
L 36 43.314785 
L 36 43.314785 
z
" clip-path="url(#pc4dd5f6abd)" style="fill: #008000; opacity: 0.5"/>
   </g>
   <g id="patch_31">
    <path d="M 36 43.314785 
L 36 43.314785 
L 36 38.397392 
L 36 38.397392 
z
" clip-path="url(#pc4dd5f6abd)" style="fill: #008000; opacity: 0.5"/>
   </g>
   <g id="patch_32">
    <path d="M 36 38.397392 
L 47.260154 38.397392 
L 47.260154 33.48 
L 36 33.48 
z
" clip-path="url(#pc4dd5f6abd)" style="fill: #008000; opacity: 0.5"/>
   </g>
   <g id="matplotlib.axis_1">
    <g id="xtick_1">
     <g id="line2d_1">
      <path d="M 36 192.24 
L 36 25.92 
" clip-path="url(#pc4dd5f6abd)" style="fill: none; stroke: #b0b0b0; stroke-width: 0.8; stroke-linecap: square"/>
     </g>
     <g id="line2d_2">
      <defs>
       <path id="ma0997455ca" d="M 0 0 
L 0 3.5 
" style="stroke: #000000; stroke-width: 0.8"/>
      </defs>
      <g>
       <use xlink:href="#ma0997455ca" x="36" y="192.24" style="stroke: #000000; stroke-width: 0.8"/>
      </g>
     </g>
     <g id="text_1">
      <!-- 0.0 -->
      <g transform="translate(28.048437 206.838437)scale(0.1 -0.1)">
       <defs>
        <path id="DejaVuSans-30" d="M 2034 4250 
Q 1547 4250 1301 3770 
Q 1056 3291 1056 2328 
Q 1056 1369 1301 889 
Q 1547 409 2034 409 
Q 2525 409 2770 889 
Q 3016 1369 3016 2328 
Q 3016 3291 2770 3770 
Q 2525 4250 2034 4250 
z
M 2034 4750 
Q 2819 4750 3233 4129 
Q 3647 3509 3647 2328 
Q 3647 1150 3233 529 
Q 2819 -91 2034 -91 
Q 1250 -91 836 529 
Q 422 1150 422 2328 
Q 422 3509 836 4129 
Q 1250 4750 2034 4750 
z
" transform="scale(0.015625)"/>
        <path id="DejaVuSans-2e" d="M 684 794 
L 1344 794 
L 1344 0 
L 684 0 
L 684 794 
z
" transform="scale(0.015625)"/>
       </defs>
       <use xlink:href="#DejaVuSans-30"/>
       <use xlink:href="#DejaVuSans-2e" x="63.623047"/>
       <use xlink:href="#DejaVuSans-30" x="95.410156"/>
      </g>
     </g>
    </g>
    <g id="xtick_2">
     <g id="line2d_3">
      <path d="M 78.514286 192.24 
L 78.514286 25.92 
" clip-path="url(#pc4dd5f6abd)" style="fill: none; stroke: #b0b0b0; stroke-width: 0.8; stroke-linecap: square"/>
     </g>
     <g id="line2d_4">
      <g>
       <use xlink:href="#ma0997455ca" x="78.514286" y="192.24" style="stroke: #000000; stroke-width: 0.8"/>
      </g>
     </g>
     <g id="text_2">
      <!-- 0.2 -->
      <g transform="translate(70.562723 206.838437)scale(0.1 -0.1)">
       <defs>
        <path id="DejaVuSans-32" d="M 1228 531 
L 3431 531 
L 3431 0 
L 469 0 
L 469 531 
Q 828 903 1448 1529 
Q 2069 2156 2228 2338 
Q 2531 2678 2651 2914 
Q 2772 3150 2772 3378 
Q 2772 3750 2511 3984 
Q 2250 4219 1831 4219 
Q 1534 4219 1204 4116 
Q 875 4013 500 3803 
L 500 4441 
Q 881 4594 1212 4672 
Q 1544 4750 1819 4750 
Q 2544 4750 2975 4387 
Q 3406 4025 3406 3419 
Q 3406 3131 3298 2873 
Q 3191 2616 2906 2266 
Q 2828 2175 2409 1742 
Q 1991 1309 1228 531 
z
" transform="scale(0.015625)"/>
       </defs>
       <use xlink:href="#DejaVuSans-30"/>
       <use xlink:href="#DejaVuSans-2e" x="63.623047"/>
       <use xlink:href="#DejaVuSans-32" x="95.410156"/>
      </g>
     </g>
    </g>
    <g id="xtick_3">
     <g id="line2d_5">
      <path d="M 121.028571 192.24 
L 121.028571 25.92 
" clip-path="url(#pc4dd5f6abd)" style="fill: none; stroke: #b0b0b0; stroke-width: 0.8; stroke-linecap: square"/>
     </g>
     <g id="line2d_6">
      <g>
       <use xlink:href="#ma0997455ca" x="121.028571" y="192.24" style="stroke: #000000; stroke-width: 0.8"/>
      </g>
     </g>
     <g id="text_3">
      <!-- 0.4 -->
      <g transform="translate(113.077009 206.838437)scale(0.1 -0.1)">
       <defs>
        <path id="DejaVuSans-34" d="M 2419 4116 
L 825 1625 
L 2419 1625 
L 2419 4116 
z
M 2253 4666 
L 3047 4666 
L 3047 1625 
L 3713 1625 
L 3713 1100 
L 3047 1100 
L 3047 0 
L 2419 0 
L 2419 1100 
L 313 1100 
L 313 1709 
L 2253 4666 
z
" transform="scale(0.015625)"/>
       </defs>
       <use xlink:href="#DejaVuSans-30"/>
       <use xlink:href="#DejaVuSans-2e" x="63.623047"/>
       <use xlink:href="#DejaVuSans-34" x="95.410156"/>
      </g>
     </g>
    </g>
    <g id="xtick_4">
     <g id="line2d_7">
      <path d="M 163.542857 192.24 
L 163.542857 25.92 
" clip-path="url(#pc4dd5f6abd)" style="fill: none; stroke: #b0b0b0; stroke-width: 0.8; stroke-linecap: square"/>
     </g>
     <g id="line2d_8">
      <g>
       <use xlink:href="#ma0997455ca" x="163.542857" y="192.24" style="stroke: #000000; stroke-width: 0.8"/>
      </g>
     </g>
     <g id="text_4">
      <!-- 0.6 -->
      <g transform="translate(155.591295 206.838437)scale(0.1 -0.1)">
       <defs>
        <path id="DejaVuSans-36" d="M 2113 2584 
Q 1688 2584 1439 2293 
Q 1191 2003 1191 1497 
Q 1191 994 1439 701 
Q 1688 409 2113 409 
Q 2538 409 2786 701 
Q 3034 994 3034 1497 
Q 3034 2003 2786 2293 
Q 2538 2584 2113 2584 
z
M 3366 4563 
L 3366 3988 
Q 3128 4100 2886 4159 
Q 2644 4219 2406 4219 
Q 1781 4219 1451 3797 
Q 1122 3375 1075 2522 
Q 1259 2794 1537 2939 
Q 1816 3084 2150 3084 
Q 2853 3084 3261 2657 
Q 3669 2231 3669 1497 
Q 3669 778 3244 343 
Q 2819 -91 2113 -91 
Q 1303 -91 875 529 
Q 447 1150 447 2328 
Q 447 3434 972 4092 
Q 1497 4750 2381 4750 
Q 2619 4750 2861 4703 
Q 3103 4656 3366 4563 
z
" transform="scale(0.015625)"/>
       </defs>
       <use xlink:href="#DejaVuSans-30"/>
       <use xlink:href="#DejaVuSans-2e" x="63.623047"/>
       <use xlink:href="#DejaVuSans-36" x="95.410156"/>
      </g>
     </g>
    </g>
    <g id="xtick_5">
     <g id="line2d_9">
      <path d="M 206.057143 192.24 
L 206.057143 25.92 
" clip-path="url(#pc4dd5f6abd)" style="fill: none; stroke: #b0b0b0; stroke-width: 0.8; stroke-linecap: square"/>
     </g>
     <g id="line2d_10">
      <g>
       <use xlink:href="#ma0997455ca" x="206.057143" y="192.24" style="stroke: #000000; stroke-width: 0.8"/>
      </g>
     </g>
     <g id="text_5">
      <!-- 0.8 -->
      <g transform="translate(198.10558 206.838437)scale(0.1 -0.1)">
       <defs>
        <path id="DejaVuSans-38" d="M 2034 2216 
Q 1584 2216 1326 1975 
Q 1069 1734 1069 1313 
Q 1069 891 1326 650 
Q 1584 409 2034 409 
Q 2484 409 2743 651 
Q 3003 894 3003 1313 
Q 3003 1734 2745 1975 
Q 2488 2216 2034 2216 
z
M 1403 2484 
Q 997 2584 770 2862 
Q 544 3141 544 3541 
Q 544 4100 942 4425 
Q 1341 4750 2034 4750 
Q 2731 4750 3128 4425 
Q 3525 4100 3525 3541 
Q 3525 3141 3298 2862 
Q 3072 2584 2669 2484 
Q 3125 2378 3379 2068 
Q 3634 1759 3634 1313 
Q 3634 634 3220 271 
Q 2806 -91 2034 -91 
Q 1263 -91 848 271 
Q 434 634 434 1313 
Q 434 1759 690 2068 
Q 947 2378 1403 2484 
z
M 1172 3481 
Q 1172 3119 1398 2916 
Q 1625 2713 2034 2713 
Q 2441 2713 2670 2916 
Q 2900 3119 2900 3481 
Q 2900 3844 2670 4047 
Q 2441 4250 2034 4250 
Q 1625 4250 1398 4047 
Q 1172 3844 1172 3481 
z
" transform="scale(0.015625)"/>
       </defs>
       <use xlink:href="#DejaVuSans-30"/>
       <use xlink:href="#DejaVuSans-2e" x="63.623047"/>
       <use xlink:href="#DejaVuSans-38" x="95.410156"/>
      </g>
     </g>
    </g>
    <g id="xtick_6">
     <g id="line2d_11">
      <path d="M 248.571429 192.24 
L 248.571429 25.92 
" clip-path="url(#pc4dd5f6abd)" style="fill: none; stroke: #b0b0b0; stroke-width: 0.8; stroke-linecap: square"/>
     </g>
     <g id="line2d_12">
      <g>
       <use xlink:href="#ma0997455ca" x="248.571429" y="192.24" style="stroke: #000000; stroke-width: 0.8"/>
      </g>
     </g>
     <g id="text_6">
      <!-- 1.0 -->
      <g transform="translate(240.619866 206.838437)scale(0.1 -0.1)">
       <defs>
        <path id="DejaVuSans-31" d="M 794 531 
L 1825 531 
L 1825 4091 
L 703 3866 
L 703 4441 
L 1819 4666 
L 2450 4666 
L 2450 531 
L 3481 531 
L 3481 0 
L 794 0 
L 794 531 
z
" transform="scale(0.015625)"/>
       </defs>
       <use xlink:href="#DejaVuSans-31"/>
       <use xlink:href="#DejaVuSans-2e" x="63.623047"/>
       <use xlink:href="#DejaVuSans-30" x="95.410156"/>
      </g>
     </g>
    </g>
   </g>
   <g id="matplotlib.axis_2">
    <g id="ytick_1">
     <g id="line2d_13">
      <path d="M 36 186.435108 
L 259.2 186.435108 
" clip-path="url(#pc4dd5f6abd)" style="fill: none; stroke: #b0b0b0; stroke-width: 0.8; stroke-linecap: square"/>
     </g>
     <g id="line2d_14">
      <defs>
       <path id="m222c4721a5" d="M 0 0 
L -3.5 0 
" style="stroke: #000000; stroke-width: 0.8"/>
      </defs>
      <g>
       <use xlink:href="#m222c4721a5" x="36" y="186.435108" style="stroke: #000000; stroke-width: 0.8"/>
      </g>
     </g>
     <g id="text_7">
      <!-- −3 -->
      <g transform="translate(14.257812 190.234327)scale(0.1 -0.1)">
       <defs>
        <path id="DejaVuSans-2212" d="M 678 2272 
L 4684 2272 
L 4684 1741 
L 678 1741 
L 678 2272 
z
" transform="scale(0.015625)"/>
        <path id="DejaVuSans-33" d="M 2597 2516 
Q 3050 2419 3304 2112 
Q 3559 1806 3559 1356 
Q 3559 666 3084 287 
Q 2609 -91 1734 -91 
Q 1441 -91 1130 -33 
Q 819 25 488 141 
L 488 750 
Q 750 597 1062 519 
Q 1375 441 1716 441 
Q 2309 441 2620 675 
Q 2931 909 2931 1356 
Q 2931 1769 2642 2001 
Q 2353 2234 1838 2234 
L 1294 2234 
L 1294 2753 
L 1863 2753 
Q 2328 2753 2575 2939 
Q 2822 3125 2822 3475 
Q 2822 3834 2567 4026 
Q 2313 4219 1838 4219 
Q 1578 4219 1281 4162 
Q 984 4106 628 3988 
L 628 4550 
Q 988 4650 1302 4700 
Q 1616 4750 1894 4750 
Q 2613 4750 3031 4423 
Q 3450 4097 3450 3541 
Q 3450 3153 3228 2886 
Q 3006 2619 2597 2516 
z
" transform="scale(0.015625)"/>
       </defs>
       <use xlink:href="#DejaVuSans-2212"/>
       <use xlink:href="#DejaVuSans-33" x="83.789062"/>
      </g>
     </g>
    </g>
    <g id="ytick_2">
     <g id="line2d_15">
      <path d="M 36 160.387113 
L 259.2 160.387113 
" clip-path="url(#pc4dd5f6abd)" style="fill: none; stroke: #b0b0b0; stroke-width: 0.8; stroke-linecap: square"/>
     </g>
     <g id="line2d_16">
      <g>
       <use xlink:href="#m222c4721a5" x="36" y="160.387113" style="stroke: #000000; stroke-width: 0.8"/>
      </g>
     </g>
     <g id="text_8">
      <!-- −2 -->
      <g transform="translate(14.257812 164.186331)scale(0.1 -0.1)">
       <use xlink:href="#DejaVuSans-2212"/>
       <use xlink:href="#DejaVuSans-32" x="83.789062"/>
      </g>
     </g>
    </g>
    <g id="ytick_3">
     <g id="line2d_17">
      <path d="M 36 134.339117 
L 259.2 134.339117 
" clip-path="url(#pc4dd5f6abd)" style="fill: none; stroke: #b0b0b0; stroke-width: 0.8; stroke-linecap: square"/>
     </g>
     <g id="line2d_18">
      <g>
       <use xlink:href="#m222c4721a5" x="36" y="134.339117" style="stroke: #000000; stroke-width: 0.8"/>
      </g>
     </g>
     <g id="text_9">
      <!-- −1 -->
      <g transform="translate(14.257812 138.138336)scale(0.1 -0.1)">
       <use xlink:href="#DejaVuSans-2212"/>
       <use xlink:href="#DejaVuSans-31" x="83.789062"/>
      </g>
     </g>
    </g>
    <g id="ytick_4">
     <g id="line2d_19">
      <path d="M 36 108.291122 
L 259.2 108.291122 
" clip-path="url(#pc4dd5f6abd)" style="fill: none; stroke: #b0b0b0; stroke-width: 0.8; stroke-linecap: square"/>
     </g>
     <g id="line2d_20">
      <g>
       <use xlink:href="#m222c4721a5" x="36" y="108.291122" style="stroke: #000000; stroke-width: 0.8"/>
      </g>
     </g>
     <g id="text_10">
      <!-- 0 -->
      <g transform="translate(22.6375 112.09034)scale(0.1 -0.1)">
       <use xlink:href="#DejaVuSans-30"/>
      </g>
     </g>
    </g>
    <g id="ytick_5">
     <g id="line2d_21">
      <path d="M 36 82.243126 
L 259.2 82.243126 
" clip-path="url(#pc4dd5f6abd)" style="fill: none; stroke: #b0b0b0; stroke-width: 0.8; stroke-linecap: square"/>
     </g>
     <g id="line2d_22">
      <g>
       <use xlink:href="#m222c4721a5" x="36" y="82.243126" style="stroke: #000000; stroke-width: 0.8"/>
      </g>
     </g>
     <g id="text_11">
      <!-- 1 -->
      <g transform="translate(22.6375 86.042345)scale(0.1 -0.1)">
       <use xlink:href="#DejaVuSans-31"/>
      </g>
     </g>
    </g>
    <g id="ytick_6">
     <g id="line2d_23">
      <path d="M 36 56.195131 
L 259.2 56.195131 
" clip-path="url(#pc4dd5f6abd)" style="fill: none; stroke: #b0b0b0; stroke-width: 0.8; stroke-linecap: square"/>
     </g>
     <g id="line2d_24">
      <g>
       <use xlink:href="#m222c4721a5" x="36" y="56.195131" style="stroke: #000000; stroke-width: 0.8"/>
      </g>
     </g>
     <g id="text_12">
      <!-- 2 -->
      <g transform="translate(22.6375 59.994349)scale(0.1 -0.1)">
       <use xlink:href="#DejaVuSans-32"/>
      </g>
     </g>
    </g>
    <g id="ytick_7">
     <g id="line2d_25">
      <path d="M 36 30.147135 
L 259.2 30.147135 
" clip-path="url(#pc4dd5f6abd)" style="fill: none; stroke: #b0b0b0; stroke-width: 0.8; stroke-linecap: square"/>
     </g>
     <g id="line2d_26">
      <g>
       <use xlink:href="#m222c4721a5" x="36" y="30.147135" style="stroke: #000000; stroke-width: 0.8"/>
      </g>
     </g>
     <g id="text_13">
      <!-- 3 -->
      <g transform="translate(22.6375 33.946354)scale(0.1 -0.1)">
       <use xlink:href="#DejaVuSans-33"/>
      </g>
     </g>
    </g>
   </g>
   <g id="line2d_27">
    <path d="M 36 184.68 
L 38.147186 81.096407 
L 40.294372 85.693533 
L 42.441558 123.568326 
L 44.588745 98.297014 
L 46.735931 90.691111 
L 48.883117 122.751869 
L 51.030303 107.770972 
L 53.177489 112.51753 
L 55.324675 133.44943 
L 57.471861 130.158779 
L 59.619048 71.223226 
L 61.766234 117.961606 
L 63.91342 74.215851 
L 66.060606 112.819224 
L 68.207792 136.969173 
L 70.354978 109.168026 
L 72.502165 85.581309 
L 74.649351 143.928887 
L 76.796537 143.345636 
L 78.943723 113.117141 
L 81.090909 43.188843 
L 83.238095 117.474031 
L 85.385281 137.721327 
L 87.532468 56.368714 
L 89.679654 114.219145 
L 91.82684 96.043383 
L 93.974026 120.844157 
L 96.121212 92.162626 
L 98.268398 82.413533 
L 100.415584 99.531767 
L 102.562771 105.518024 
L 104.709957 104.332123 
L 106.857143 110.23116 
L 109.004329 82.706077 
L 111.151515 117.838025 
L 113.298701 109.852846 
L 115.445887 91.140302 
L 117.593074 101.069499 
L 119.74026 91.568486 
L 121.887446 122.462856 
L 124.034632 88.664367 
L 126.181818 109.37555 
L 128.329004 118.618763 
L 130.47619 141.62599 
L 132.623377 142.004296 
L 134.770563 173.397856 
L 136.917749 64.701613 
L 139.064935 134.708922 
L 141.212121 82.84787 
L 143.359307 46.137455 
L 145.506494 89.599968 
L 147.65368 82.644242 
L 149.800866 61.470858 
L 151.948052 46.347953 
L 154.095238 99.798777 
L 156.242424 124.568673 
L 158.38961 131.837624 
L 160.536797 81.773263 
L 162.683983 111.457066 
L 164.831169 100.55896 
L 166.978355 92.030278 
L 169.125541 118.039664 
L 171.272727 124.553206 
L 173.419913 134.489269 
L 175.5671 133.030744 
L 177.714286 139.964708 
L 179.861472 72.634993 
L 182.008658 129.671921 
L 184.155844 150.615805 
L 186.30303 131.384995 
L 188.450216 88.40762 
L 190.597403 127.877262 
L 192.744589 95.335017 
L 194.891775 137.491862 
L 197.038961 90.775455 
L 199.186147 109.308544 
L 201.333333 113.820789 
L 203.480519 117.14038 
L 205.627706 116.147089 
L 207.774892 151.705704 
L 209.922078 112.892516 
L 212.069264 112.057856 
L 214.21645 133.826789 
L 216.363636 158.912844 
L 218.510823 126.024661 
L 220.658009 118.722093 
L 222.805195 68.193605 
L 224.952381 77.5661 
L 227.099567 81.084269 
L 229.246753 74.211623 
L 231.393939 110.909165 
L 233.541126 133.814084 
L 235.688312 89.831303 
L 237.835498 105.808868 
L 239.982684 102.390459 
L 242.12987 115.291635 
L 244.277056 146.234926 
L 246.424242 103.00302 
L 248.571429 101.854362 
" clip-path="url(#pc4dd5f6abd)" style="fill: none; stroke: #4682b4; stroke-opacity: 0.5; stroke-width: 4; stroke-linecap: square"/>
   </g>
   <g id="patch_33">
    <path d="M 36 192.24 
L 36 25.92 
" style="fill: none; stroke: #000000; stroke-width: 0.8; stroke-linejoin: miter; stroke-linecap: square"/>
   </g>
   <g id="patch_34">
    <path d="M 259.2 192.24 
L 259.2 25.92 
" style="fill: none; stroke: #000000; stroke-width: 0.8; stroke-linejoin: miter; stroke-linecap: square"/>
   </g>
   <g id="patch_35">
    <path d="M 36 192.24 
L 259.2 192.24 
" style="fill: none; stroke: #000000; stroke-width: 0.8; stroke-linejoin: miter; stroke-linecap: square"/>
   </g>
   <g id="patch_36">
    <path d="M 36 25.92 
L 259.2 25.92 
" style="fill: none; stroke: #000000; stroke-width: 0.8; stroke-linejoin: miter; stroke-linecap: square"/>
   </g>
   <g id="text_14">
    <!-- My title -->
    <g transform="translate(125.235 19.92)scale(0.12 -0.12)">
     <defs>
      <path id="DejaVuSans-4d" d="M 628 4666 
L 1569 4666 
L 2759 1491 
L 3956 4666 
L 4897 4666 
L 4897 0 
L 4281 0 
L 4281 4097 
L 3078 897 
L 2444 897 
L 1241 4097 
L 1241 0 
L 628 0 
L 628 4666 
z
" transform="scale(0.015625)"/>
      <path id="DejaVuSans-79" d="M 2059 -325 
Q 1816 -950 1584 -1140 
Q 1353 -1331 966 -1331 
L 506 -1331 
L 506 -850 
L 844 -850 
Q 1081 -850 1212 -737 
Q 1344 -625 1503 -206 
L 1606 56 
L 191 3500 
L 800 3500 
L 1894 763 
L 2988 3500 
L 3597 3500 
L 2059 -325 
z
" transform="scale(0.015625)"/>
      <path id="DejaVuSans-20" transform="scale(0.015625)"/>
      <path id="DejaVuSans-74" d="M 1172 4494 
L 1172 3500 
L 2356 3500 
L 2356 3053 
L 1172 3053 
L 1172 1153 
Q 1172 725 1289 603 
Q 1406 481 1766 481 
L 2356 481 
L 2356 0 
L 1766 0 
Q 1100 0 847 248 
Q 594 497 594 1153 
L 594 3053 
L 172 3053 
L 172 3500 
L 594 3500 
L 594 4494 
L 1172 4494 
z
" transform="scale(0.015625)"/>
      <path id="DejaVuSans-69" d="M 603 3500 
L 1178 3500 
L 1178 0 
L 603 0 
L 603 3500 
z
M 603 4863 
L 1178 4863 
L 1178 4134 
L 603 4134 
L 603 4863 
z
" transform="scale(0.015625)"/>
      <path id="DejaVuSans-6c" d="M 603 4863 
L 1178 4863 
L 1178 0 
L 603 0 
L 603 4863 
z
" transform="scale(0.015625)"/>
      <path id="DejaVuSans-65" d="M 3597 1894 
L 3597 1613 
L 953 1613 
Q 991 1019 1311 708 
Q 1631 397 2203 397 
Q 2534 397 2845 478 
Q 3156 559 3463 722 
L 3463 178 
Q 3153 47 2828 -22 
Q 2503 -91 2169 -91 
Q 1331 -91 842 396 
Q 353 884 353 1716 
Q 353 2575 817 3079 
Q 1281 3584 2069 3584 
Q 2775 3584 3186 3129 
Q 3597 2675 3597 1894 
z
M 3022 2063 
Q 3016 2534 2758 2815 
Q 2500 3097 2075 3097 
Q 1594 3097 1305 2825 
Q 1016 2553 972 2059 
L 3022 2063 
z
" transform="scale(0.015625)"/>
     </defs>
     <use xlink:href="#DejaVuSans-4d"/>
     <use xlink:href="#DejaVuSans-79" x="86.279297"/>
     <use xlink:href="#DejaVuSans-20" x="145.458984"/>
     <use xlink:href="#DejaVuSans-74" x="177.246094"/>
     <use xlink:href="#DejaVuSans-69" x="216.455078"/>
     <use xlink:href="#DejaVuSans-74" x="244.238281"/>
     <use xlink:href="#DejaVuSans-6c" x="283.447266"/>
     <use xlink:href="#DejaVuSans-65" x="311.230469"/>
    </g>
   </g>
   <g id="legend_1">
    <g id="patch_37">
     <path d="M 207.91875 63.27625 
L 252.2 63.27625 
Q 254.2 63.27625 254.2 61.27625 
L 254.2 32.92 
Q 254.2 30.92 252.2 30.92 
L 207.91875 30.92 
Q 205.91875 30.92 205.91875 32.92 
L 205.91875 61.27625 
Q 205.91875 63.27625 207.91875 63.27625 
z
" style="fill: #ffffff; opacity: 0.8; stroke: #cccccc; stroke-linejoin: miter"/>
    </g>
    <g id="line2d_28">
     <path d="M 209.91875 39.018437 
L 219.91875 39.018437 
L 229.91875 39.018437 
" style="fill: none; stroke: #4682b4; stroke-opacity: 0.5; stroke-width: 4; stroke-linecap: square"/>
    </g>
    <g id="text_15">
     <!-- y1 -->
     <g transform="translate(237.91875 42.518437)scale(0.1 -0.1)">
      <use xlink:href="#DejaVuSans-79"/>
      <use xlink:href="#DejaVuSans-31" x="59.179688"/>
     </g>
    </g>
    <g id="PathCollection_2">
     <g>
      <use xlink:href="#me3ecef29e9" x="219.91875" y="54.571562" style="fill: #ff4500; fill-opacity: 0.5; stroke: #ff4500; stroke-opacity: 0.5; stroke-width: 1.5"/>
     </g>
    </g>
    <g id="text_16">
     <!-- y2 -->
     <g transform="translate(237.91875 57.196562)scale(0.1 -0.1)">
      <use xlink:href="#DejaVuSans-79"/>
      <use xlink:href="#DejaVuSans-32" x="59.179688"/>
     </g>
    </g>
   </g>
  </g>
 </g>
 <defs>
  <clipPath id="pc4dd5f6abd">
   <rect x="36" y="25.92" width="223.2" height="166.32"/>
  </clipPath>
 </defs>
</svg>
