<?xml version="1.0" encoding="utf-8" standalone="no"?>
<!DOCTYPE svg PUBLIC "-//W3C//DTD SVG 1.1//EN"
  "http://www.w3.org/Graphics/SVG/1.1/DTD/svg11.dtd">
<svg xmlns:xlink="http://www.w3.org/1999/xlink" width="432pt" height="288pt" viewBox="0 0 432 288" xmlns="http://www.w3.org/2000/svg" version="1.1">
 <metadata>
  <rdf:RDF xmlns:dc="http://purl.org/dc/elements/1.1/" xmlns:cc="http://creativecommons.org/ns#" xmlns:rdf="http://www.w3.org/1999/02/22-rdf-syntax-ns#">
   <cc:Work>
    <dc:type rdf:resource="http://purl.org/dc/dcmitype/StillImage"/>
    <dc:date>2025-07-09T11:42:22.982881</dc:date>
    <dc:format>image/svg+xml</dc:format>
    <dc:creator>
     <cc:Agent>
      <dc:title>Matplotlib v3.10.3, https://matplotlib.org/</dc:title>
     </cc:Agent>
    </dc:creator>
   </cc:Work>
  </rdf:RDF>
 </metadata>
 <defs>
  <style type="text/css">*{stroke-linejoin: round; stroke-linecap: butt}</style>
 </defs>
 <g id="figure_1">
  <g id="patch_1">
   <path d="M 0 288 
L 432 288 
L 432 0 
L 0 0 
z
" style="fill: #ffc0cb"/>
  </g>
  <g id="axes_1">
   <g id="patch_2">
    <path d="M 19.963856 273.025354 
L 422.361999 273.025354 
L 422.361999 6.434646 
L 19.963856 6.434646 
z
" style="fill: #ffc0cb"/>
   </g>
   <g id="matplotlib.axis_1">
    <g id="xtick_1">
     <g id="line2d_1">
      <path d="M 19.963856 273.025354 
L 19.963856 6.434646 
" clip-path="url(#pb247c30c97)" style="fill: none; stroke: #00008b; stroke-opacity: 0.1; stroke-width: 0.5; stroke-linecap: square"/>
     </g>
     <g id="line2d_2">
      <defs>
       <path id="m4907c0651c" d="M 0 0 
L 0 -3 
" style="stroke: #00008b; stroke-width: 0.5"/>
      </defs>
      <g>
       <use xlink:href="#m4907c0651c" x="19.963856" y="273.025354" style="fill: #00008b; stroke: #00008b; stroke-width: 0.5"/>
      </g>
     </g>
     <g id="text_1">
      <!-- $0.0$ -->
      <g style="fill: #00008b" transform="translate(13.563856 282.604104) scale(0.08 -0.08)">
       <defs>
        <path id="DejaVuSans-30" d="M 2034 4250 
Q 1547 4250 1301 3770 
Q 1056 3291 1056 2328 
Q 1056 1369 1301 889 
Q 1547 409 2034 409 
Q 2525 409 2770 889 
Q 3016 1369 3016 2328 
Q 3016 3291 2770 3770 
Q 2525 4250 2034 4250 
z
M 2034 4750 
Q 2819 4750 3233 4129 
Q 3647 3509 3647 2328 
Q 3647 1150 3233 529 
Q 2819 -91 2034 -91 
Q 1250 -91 836 529 
Q 422 1150 422 2328 
Q 422 3509 836 4129 
Q 1250 4750 2034 4750 
z
" transform="scale(0.015625)"/>
        <path id="DejaVuSans-2e" d="M 684 794 
L 1344 794 
L 1344 0 
L 684 0 
L 684 794 
z
" transform="scale(0.015625)"/>
       </defs>
       <use xlink:href="#DejaVuSans-30" transform="translate(0 0.78125)"/>
       <use xlink:href="#DejaVuSans-2e" transform="translate(63.623047 0.78125)"/>
       <use xlink:href="#DejaVuSans-30" transform="translate(95.410156 0.78125)"/>
      </g>
     </g>
    </g>
    <g id="xtick_2">
     <g id="line2d_3">
      <path d="M 100.443485 273.025354 
L 100.443485 6.434646 
" clip-path="url(#pb247c30c97)" style="fill: none; stroke: #00008b; stroke-opacity: 0.1; stroke-width: 0.5; stroke-linecap: square"/>
     </g>
     <g id="line2d_4">
      <g>
       <use xlink:href="#m4907c0651c" x="100.443485" y="273.025354" style="fill: #00008b; stroke: #00008b; stroke-width: 0.5"/>
      </g>
     </g>
     <g id="text_2">
      <!-- $0.2$ -->
      <g style="fill: #00008b" transform="translate(94.283485 282.604104) scale(0.08 -0.08)">
       <defs>
        <path id="DejaVuSans-32" d="M 1228 531 
L 3431 531 
L 3431 0 
L 469 0 
L 469 531 
Q 828 903 1448 1529 
Q 2069 2156 2228 2338 
Q 2531 2678 2651 2914 
Q 2772 3150 2772 3378 
Q 2772 3750 2511 3984 
Q 2250 4219 1831 4219 
Q 1534 4219 1204 4116 
Q 875 4013 500 3803 
L 500 4441 
Q 881 4594 1212 4672 
Q 1544 4750 1819 4750 
Q 2544 4750 2975 4387 
Q 3406 4025 3406 3419 
Q 3406 3131 3298 2873 
Q 3191 2616 2906 2266 
Q 2828 2175 2409 1742 
Q 1991 1309 1228 531 
z
" transform="scale(0.015625)"/>
       </defs>
       <use xlink:href="#DejaVuSans-30" transform="translate(0 0.78125)"/>
       <use xlink:href="#DejaVuSans-2e" transform="translate(63.623047 0.78125)"/>
       <use xlink:href="#DejaVuSans-32" transform="translate(89.910156 0.78125)"/>
      </g>
     </g>
    </g>
    <g id="xtick_3">
     <g id="line2d_5">
      <path d="M 180.923113 273.025354 
L 180.923113 6.434646 
" clip-path="url(#pb247c30c97)" style="fill: none; stroke: #00008b; stroke-opacity: 0.1; stroke-width: 0.5; stroke-linecap: square"/>
     </g>
     <g id="line2d_6">
      <g>
       <use xlink:href="#m4907c0651c" x="180.923113" y="273.025354" style="fill: #00008b; stroke: #00008b; stroke-width: 0.5"/>
      </g>
     </g>
     <g id="text_3">
      <!-- $0.4$ -->
      <g style="fill: #00008b" transform="translate(174.523113 282.604104) scale(0.08 -0.08)">
       <defs>
        <path id="DejaVuSans-34" d="M 2419 4116 
L 825 1625 
L 2419 1625 
L 2419 4116 
z
M 2253 4666 
L 3047 4666 
L 3047 1625 
L 3713 1625 
L 3713 1100 
L 3047 1100 
L 3047 0 
L 2419 0 
L 2419 1100 
L 313 1100 
L 313 1709 
L 2253 4666 
z
" transform="scale(0.015625)"/>
       </defs>
       <use xlink:href="#DejaVuSans-30" transform="translate(0 0.78125)"/>
       <use xlink:href="#DejaVuSans-2e" transform="translate(63.623047 0.78125)"/>
       <use xlink:href="#DejaVuSans-34" transform="translate(95.410156 0.78125)"/>
      </g>
     </g>
    </g>
    <g id="xtick_4">
     <g id="line2d_7">
      <path d="M 261.402742 273.025354 
L 261.402742 6.434646 
" clip-path="url(#pb247c30c97)" style="fill: none; stroke: #00008b; stroke-opacity: 0.1; stroke-width: 0.5; stroke-linecap: square"/>
     </g>
     <g id="line2d_8">
      <g>
       <use xlink:href="#m4907c0651c" x="261.402742" y="273.025354" style="fill: #00008b; stroke: #00008b; stroke-width: 0.5"/>
      </g>
     </g>
     <g id="text_4">
      <!-- $0.6$ -->
      <g style="fill: #00008b" transform="translate(255.002742 282.604104) scale(0.08 -0.08)">
       <defs>
        <path id="DejaVuSans-36" d="M 2113 2584 
Q 1688 2584 1439 2293 
Q 1191 2003 1191 1497 
Q 1191 994 1439 701 
Q 1688 409 2113 409 
Q 2538 409 2786 701 
Q 3034 994 3034 1497 
Q 3034 2003 2786 2293 
Q 2538 2584 2113 2584 
z
M 3366 4563 
L 3366 3988 
Q 3128 4100 2886 4159 
Q 2644 4219 2406 4219 
Q 1781 4219 1451 3797 
Q 1122 3375 1075 2522 
Q 1259 2794 1537 2939 
Q 1816 3084 2150 3084 
Q 2853 3084 3261 2657 
Q 3669 2231 3669 1497 
Q 3669 778 3244 343 
Q 2819 -91 2113 -91 
Q 1303 -91 875 529 
Q 447 1150 447 2328 
Q 447 3434 972 4092 
Q 1497 4750 2381 4750 
Q 2619 4750 2861 4703 
Q 3103 4656 3366 4563 
z
" transform="scale(0.015625)"/>
       </defs>
       <use xlink:href="#DejaVuSans-30" transform="translate(0 0.78125)"/>
       <use xlink:href="#DejaVuSans-2e" transform="translate(63.623047 0.78125)"/>
       <use xlink:href="#DejaVuSans-36" transform="translate(95.410156 0.78125)"/>
      </g>
     </g>
    </g>
    <g id="xtick_5">
     <g id="line2d_9">
      <path d="M 341.882371 273.025354 
L 341.882371 6.434646 
" clip-path="url(#pb247c30c97)" style="fill: none; stroke: #00008b; stroke-opacity: 0.1; stroke-width: 0.5; stroke-linecap: square"/>
     </g>
     <g id="line2d_10">
      <g>
       <use xlink:href="#m4907c0651c" x="341.882371" y="273.025354" style="fill: #00008b; stroke: #00008b; stroke-width: 0.5"/>
      </g>
     </g>
     <g id="text_5">
      <!-- $0.8$ -->
      <g style="fill: #00008b" transform="translate(335.602371 282.604104) scale(0.08 -0.08)">
       <defs>
        <path id="DejaVuSans-38" d="M 2034 2216 
Q 1584 2216 1326 1975 
Q 1069 1734 1069 1313 
Q 1069 891 1326 650 
Q 1584 409 2034 409 
Q 2484 409 2743 651 
Q 3003 894 3003 1313 
Q 3003 1734 2745 1975 
Q 2488 2216 2034 2216 
z
M 1403 2484 
Q 997 2584 770 2862 
Q 544 3141 544 3541 
Q 544 4100 942 4425 
Q 1341 4750 2034 4750 
Q 2731 4750 3128 4425 
Q 3525 4100 3525 3541 
Q 3525 3141 3298 2862 
Q 3072 2584 2669 2484 
Q 3125 2378 3379 2068 
Q 3634 1759 3634 1313 
Q 3634 634 3220 271 
Q 2806 -91 2034 -91 
Q 1263 -91 848 271 
Q 434 634 434 1313 
Q 434 1759 690 2068 
Q 947 2378 1403 2484 
z
M 1172 3481 
Q 1172 3119 1398 2916 
Q 1625 2713 2034 2713 
Q 2441 2713 2670 2916 
Q 2900 3119 2900 3481 
Q 2900 3844 2670 4047 
Q 2441 4250 2034 4250 
Q 1625 4250 1398 4047 
Q 1172 3844 1172 3481 
z
" transform="scale(0.015625)"/>
       </defs>
       <use xlink:href="#DejaVuSans-30" transform="translate(0 0.78125)"/>
       <use xlink:href="#DejaVuSans-2e" transform="translate(63.623047 0.78125)"/>
       <use xlink:href="#DejaVuSans-38" transform="translate(92.785156 0.78125)"/>
      </g>
     </g>
    </g>
    <g id="xtick_6">
     <g id="line2d_11">
      <path d="M 422.361999 273.025354 
L 422.361999 6.434646 
" clip-path="url(#pb247c30c97)" style="fill: none; stroke: #00008b; stroke-opacity: 0.1; stroke-width: 0.5; stroke-linecap: square"/>
     </g>
     <g id="line2d_12">
      <g>
       <use xlink:href="#m4907c0651c" x="422.361999" y="273.025354" style="fill: #00008b; stroke: #00008b; stroke-width: 0.5"/>
      </g>
     </g>
     <g id="text_6">
      <!-- $1.0$ -->
      <g style="fill: #00008b" transform="translate(415.961999 282.604104) scale(0.08 -0.08)">
       <defs>
        <path id="DejaVuSans-31" d="M 794 531 
L 1825 531 
L 1825 4091 
L 703 3866 
L 703 4441 
L 1819 4666 
L 2450 4666 
L 2450 531 
L 3481 531 
L 3481 0 
L 794 0 
L 794 531 
z
" transform="scale(0.015625)"/>
       </defs>
       <use xlink:href="#DejaVuSans-31" transform="translate(0 0.78125)"/>
       <use xlink:href="#DejaVuSans-2e" transform="translate(63.623047 0.78125)"/>
       <use xlink:href="#DejaVuSans-30" transform="translate(95.410156 0.78125)"/>
      </g>
     </g>
    </g>
   </g>
   <g id="matplotlib.axis_2">
    <g id="ytick_1">
     <g id="line2d_13">
      <path d="M 19.963856 273.025354 
L 422.361999 273.025354 
" clip-path="url(#pb247c30c97)" style="fill: none; stroke: #00008b; stroke-opacity: 0.1; stroke-width: 0.5; stroke-linecap: square"/>
     </g>
     <g id="line2d_14">
      <defs>
       <path id="m2e9553d914" d="M 0 0 
L 3 0 
" style="stroke: #00008b; stroke-width: 0.5"/>
      </defs>
      <g>
       <use xlink:href="#m2e9553d914" x="19.963856" y="273.025354" style="fill: #00008b; stroke: #00008b; stroke-width: 0.5"/>
      </g>
     </g>
     <g id="text_7">
      <!-- $0.0$ -->
      <g style="fill: #00008b" transform="translate(3.663856 276.064729) scale(0.08 -0.08)">
       <use xlink:href="#DejaVuSans-30" transform="translate(0 0.78125)"/>
       <use xlink:href="#DejaVuSans-2e" transform="translate(63.623047 0.78125)"/>
       <use xlink:href="#DejaVuSans-30" transform="translate(95.410156 0.78125)"/>
      </g>
     </g>
    </g>
    <g id="ytick_2">
     <g id="line2d_15">
      <path d="M 19.963856 219.707213 
L 422.361999 219.707213 
" clip-path="url(#pb247c30c97)" style="fill: none; stroke: #00008b; stroke-opacity: 0.1; stroke-width: 0.5; stroke-linecap: square"/>
     </g>
     <g id="line2d_16">
      <g>
       <use xlink:href="#m2e9553d914" x="19.963856" y="219.707213" style="fill: #00008b; stroke: #00008b; stroke-width: 0.5"/>
      </g>
     </g>
     <g id="text_8">
      <!-- $0.2$ -->
      <g style="fill: #00008b" transform="translate(4.143856 222.746588) scale(0.08 -0.08)">
       <use xlink:href="#DejaVuSans-30" transform="translate(0 0.78125)"/>
       <use xlink:href="#DejaVuSans-2e" transform="translate(63.623047 0.78125)"/>
       <use xlink:href="#DejaVuSans-32" transform="translate(89.910156 0.78125)"/>
      </g>
     </g>
    </g>
    <g id="ytick_3">
     <g id="line2d_17">
      <path d="M 19.963856 166.389071 
L 422.361999 166.389071 
" clip-path="url(#pb247c30c97)" style="fill: none; stroke: #00008b; stroke-opacity: 0.1; stroke-width: 0.5; stroke-linecap: square"/>
     </g>
     <g id="line2d_18">
      <g>
       <use xlink:href="#m2e9553d914" x="19.963856" y="166.389071" style="fill: #00008b; stroke: #00008b; stroke-width: 0.5"/>
      </g>
     </g>
     <g id="text_9">
      <!-- $0.4$ -->
      <g style="fill: #00008b" transform="translate(3.663856 169.428446) scale(0.08 -0.08)">
       <use xlink:href="#DejaVuSans-30" transform="translate(0 0.78125)"/>
       <use xlink:href="#DejaVuSans-2e" transform="translate(63.623047 0.78125)"/>
       <use xlink:href="#DejaVuSans-34" transform="translate(95.410156 0.78125)"/>
      </g>
     </g>
    </g>
    <g id="ytick_4">
     <g id="line2d_19">
      <path d="M 19.963856 113.070929 
L 422.361999 113.070929 
" clip-path="url(#pb247c30c97)" style="fill: none; stroke: #00008b; stroke-opacity: 0.1; stroke-width: 0.5; stroke-linecap: square"/>
     </g>
     <g id="line2d_20">
      <g>
       <use xlink:href="#m2e9553d914" x="19.963856" y="113.070929" style="fill: #00008b; stroke: #00008b; stroke-width: 0.5"/>
      </g>
     </g>
     <g id="text_10">
      <!-- $0.6$ -->
      <g style="fill: #00008b" transform="translate(3.663856 116.110304) scale(0.08 -0.08)">
       <use xlink:href="#DejaVuSans-30" transform="translate(0 0.78125)"/>
       <use xlink:href="#DejaVuSans-2e" transform="translate(63.623047 0.78125)"/>
       <use xlink:href="#DejaVuSans-36" transform="translate(95.410156 0.78125)"/>
      </g>
     </g>
    </g>
    <g id="ytick_5">
     <g id="line2d_21">
      <path d="M 19.963856 59.752787 
L 422.361999 59.752787 
" clip-path="url(#pb247c30c97)" style="fill: none; stroke: #00008b; stroke-opacity: 0.1; stroke-width: 0.5; stroke-linecap: square"/>
     </g>
     <g id="line2d_22">
      <g>
       <use xlink:href="#m2e9553d914" x="19.963856" y="59.752787" style="fill: #00008b; stroke: #00008b; stroke-width: 0.5"/>
      </g>
     </g>
     <g id="text_11">
      <!-- $0.8$ -->
      <g style="fill: #00008b" transform="translate(3.903856 62.792162) scale(0.08 -0.08)">
       <use xlink:href="#DejaVuSans-30" transform="translate(0 0.78125)"/>
       <use xlink:href="#DejaVuSans-2e" transform="translate(63.623047 0.78125)"/>
       <use xlink:href="#DejaVuSans-38" transform="translate(92.785156 0.78125)"/>
      </g>
     </g>
    </g>
    <g id="ytick_6">
     <g id="line2d_23">
      <path d="M 19.963856 6.434646 
L 422.361999 6.434646 
" clip-path="url(#pb247c30c97)" style="fill: none; stroke: #00008b; stroke-opacity: 0.1; stroke-width: 0.5; stroke-linecap: square"/>
     </g>
     <g id="line2d_24">
      <g>
       <use xlink:href="#m2e9553d914" x="19.963856" y="6.434646" style="fill: #00008b; stroke: #00008b; stroke-width: 0.5"/>
      </g>
     </g>
     <g id="text_12">
      <!-- $1.0$ -->
      <g style="fill: #00008b" transform="translate(3.663856 9.474021) scale(0.08 -0.08)">
       <use xlink:href="#DejaVuSans-31" transform="translate(0 0.78125)"/>
       <use xlink:href="#DejaVuSans-2e" transform="translate(63.623047 0.78125)"/>
       <use xlink:href="#DejaVuSans-30" transform="translate(95.410156 0.78125)"/>
      </g>
     </g>
    </g>
   </g>
   <g id="line2d_25">
    <path d="M 60.20367 118.23389 
L 140.683299 111.902167 
L 221.162928 86.537397 
L 301.642556 111.018896 
L 382.122185 140.561312 
" clip-path="url(#pb247c30c97)" style="fill: none; stroke-dasharray: 11.1,4.8; stroke-dashoffset: 0; stroke: #add8e6; stroke-width: 3"/>
   </g>
   <g id="PathCollection_1">
    <defs>
     <path id="md12742012c" d="M -10.714286 -10.714286 
L -13.714286 -6.428571 
L -2.142857 15 
L 2.142857 15 
L 13.714286 -6.428571 
L 10.714286 -10.714286 
L -10.714286 -10.714286 
L -2.142857 6.428571 
L 0 2.142857 
L -4.285714 -6.428571 
L 13.714286 -6.428571 
L 2.142857 15 
L -2.142857 15 
L 6.428571 -2.142857 
L -2.142857 -2.142857 
L 0 2.142857 
L 2.142857 -2.142857 
L -2.142857 6.428571 
L -10.714286 -10.714286 
" style="stroke: #00008b"/>
    </defs>
    <g clip-path="url(#pb247c30c97)">
     <use xlink:href="#md12742012c" x="60.20367" y="118.23389" style="fill-opacity: 0.2; stroke: #00008b"/>
     <use xlink:href="#md12742012c" x="140.683299" y="111.902167" style="fill-opacity: 0.2; stroke: #00008b"/>
     <use xlink:href="#md12742012c" x="221.162928" y="86.537397" style="fill-opacity: 0.2; stroke: #00008b"/>
     <use xlink:href="#md12742012c" x="301.642556" y="111.018896" style="fill-opacity: 0.2; stroke: #00008b"/>
     <use xlink:href="#md12742012c" x="382.122185" y="140.561312" style="fill-opacity: 0.2; stroke: #00008b"/>
    </g>
   </g>
   <g id="patch_3">
    <path d="M 19.963856 273.025354 
L 19.963856 6.434646 
" style="fill: none; stroke: #00008b; stroke-linejoin: miter; stroke-linecap: square"/>
   </g>
   <g id="patch_4">
    <path d="M 19.963856 273.025354 
L 422.361999 273.025354 
" style="fill: none; stroke: #00008b; stroke-linejoin: miter; stroke-linecap: square"/>
   </g>
  </g>
 </g>
 <defs>
  <clipPath id="pb247c30c97">
   <rect x="19.963856" y="6.434646" width="402.398143" height="266.590709"/>
  </clipPath>
 </defs>
</svg>
