<?xml version="1.0" encoding="utf-8" standalone="no"?>
<!DOCTYPE svg PUBLIC "-//W3C//DTD SVG 1.1//EN"
  "http://www.w3.org/Graphics/SVG/1.1/DTD/svg11.dtd">
<svg xmlns:xlink="http://www.w3.org/1999/xlink" width="432pt" height="288pt" viewBox="0 0 432 288" xmlns="http://www.w3.org/2000/svg" version="1.1">
 <metadata>
  <rdf:RDF xmlns:dc="http://purl.org/dc/elements/1.1/" xmlns:cc="http://creativecommons.org/ns#" xmlns:rdf="http://www.w3.org/1999/02/22-rdf-syntax-ns#">
   <cc:Work>
    <dc:type rdf:resource="http://purl.org/dc/dcmitype/StillImage"/>
    <dc:date>2025-07-09T11:42:19.666701</dc:date>
    <dc:format>image/svg+xml</dc:format>
    <dc:creator>
     <cc:Agent>
      <dc:title>Matplotlib v3.10.3, https://matplotlib.org/</dc:title>
     </cc:Agent>
    </dc:creator>
   </cc:Work>
  </rdf:RDF>
 </metadata>
 <defs>
  <style type="text/css">*{stroke-linejoin: round; stroke-linecap: butt}</style>
 </defs>
 <g id="figure_1">
  <g id="patch_1">
   <path d="M 0 288 
L 432 288 
L 432 0 
L 0 0 
z
" style="fill: #ffffff"/>
  </g>
  <g id="axes_1">
   <g id="patch_2">
    <path d="M 26.644609 129.025354 
L 213.165354 129.025354 
L 213.165354 2.834646 
L 26.644609 2.834646 
z
" style="fill: #ffa500"/>
   </g>
   <g id="matplotlib.axis_1">
    <g id="xtick_1">
     <g id="line2d_1">
      <path d="M 30.146094 129.025354 
L 30.146094 2.834646 
" clip-path="url(#p273c9297be)" style="fill: none; stroke: #000000; stroke-opacity: 0.1; stroke-width: 0.5; stroke-linecap: square"/>
     </g>
     <g id="line2d_2">
      <defs>
       <path id="m36f3d6a595" d="M 0 0 
L 0 -3 
" style="stroke: #000000; stroke-width: 0.5"/>
      </defs>
      <g>
       <use xlink:href="#m36f3d6a595" x="30.146094" y="129.025354" style="stroke: #000000; stroke-width: 0.5"/>
      </g>
     </g>
     <g id="text_1">
      <!-- $0$ -->
      <g transform="translate(27.586094 138.604104) scale(0.08 -0.08)">
       <defs>
        <path id="DejaVuSans-30" d="M 2034 4250 
Q 1547 4250 1301 3770 
Q 1056 3291 1056 2328 
Q 1056 1369 1301 889 
Q 1547 409 2034 409 
Q 2525 409 2770 889 
Q 3016 1369 3016 2328 
Q 3016 3291 2770 3770 
Q 2525 4250 2034 4250 
z
M 2034 4750 
Q 2819 4750 3233 4129 
Q 3647 3509 3647 2328 
Q 3647 1150 3233 529 
Q 2819 -91 2034 -91 
Q 1250 -91 836 529 
Q 422 1150 422 2328 
Q 422 3509 836 4129 
Q 1250 4750 2034 4750 
z
" transform="scale(0.015625)"/>
       </defs>
       <use xlink:href="#DejaVuSans-30" transform="translate(0 0.78125)"/>
      </g>
     </g>
    </g>
    <g id="xtick_2">
     <g id="line2d_3">
      <path d="M 74.581187 129.025354 
L 74.581187 2.834646 
" clip-path="url(#p273c9297be)" style="fill: none; stroke: #000000; stroke-opacity: 0.1; stroke-width: 0.5; stroke-linecap: square"/>
     </g>
     <g id="line2d_4">
      <g>
       <use xlink:href="#m36f3d6a595" x="74.581187" y="129.025354" style="stroke: #000000; stroke-width: 0.5"/>
      </g>
     </g>
     <g id="text_2">
      <!-- $25$ -->
      <g transform="translate(69.461187 138.604104) scale(0.08 -0.08)">
       <defs>
        <path id="DejaVuSans-32" d="M 1228 531 
L 3431 531 
L 3431 0 
L 469 0 
L 469 531 
Q 828 903 1448 1529 
Q 2069 2156 2228 2338 
Q 2531 2678 2651 2914 
Q 2772 3150 2772 3378 
Q 2772 3750 2511 3984 
Q 2250 4219 1831 4219 
Q 1534 4219 1204 4116 
Q 875 4013 500 3803 
L 500 4441 
Q 881 4594 1212 4672 
Q 1544 4750 1819 4750 
Q 2544 4750 2975 4387 
Q 3406 4025 3406 3419 
Q 3406 3131 3298 2873 
Q 3191 2616 2906 2266 
Q 2828 2175 2409 1742 
Q 1991 1309 1228 531 
z
" transform="scale(0.015625)"/>
        <path id="DejaVuSans-35" d="M 691 4666 
L 3169 4666 
L 3169 4134 
L 1269 4134 
L 1269 2991 
Q 1406 3038 1543 3061 
Q 1681 3084 1819 3084 
Q 2600 3084 3056 2656 
Q 3513 2228 3513 1497 
Q 3513 744 3044 326 
Q 2575 -91 1722 -91 
Q 1428 -91 1123 -41 
Q 819 9 494 109 
L 494 744 
Q 775 591 1075 516 
Q 1375 441 1709 441 
Q 2250 441 2565 725 
Q 2881 1009 2881 1497 
Q 2881 1984 2565 2268 
Q 2250 2553 1709 2553 
Q 1456 2553 1204 2497 
Q 953 2441 691 2322 
L 691 4666 
z
" transform="scale(0.015625)"/>
       </defs>
       <use xlink:href="#DejaVuSans-32" transform="translate(0 0.78125)"/>
       <use xlink:href="#DejaVuSans-35" transform="translate(63.623047 0.78125)"/>
      </g>
     </g>
    </g>
    <g id="xtick_3">
     <g id="line2d_5">
      <path d="M 119.01628 129.025354 
L 119.01628 2.834646 
" clip-path="url(#p273c9297be)" style="fill: none; stroke: #000000; stroke-opacity: 0.1; stroke-width: 0.5; stroke-linecap: square"/>
     </g>
     <g id="line2d_6">
      <g>
       <use xlink:href="#m36f3d6a595" x="119.01628" y="129.025354" style="stroke: #000000; stroke-width: 0.5"/>
      </g>
     </g>
     <g id="text_3">
      <!-- $50$ -->
      <g transform="translate(113.89628 138.604104) scale(0.08 -0.08)">
       <use xlink:href="#DejaVuSans-35" transform="translate(0 0.78125)"/>
       <use xlink:href="#DejaVuSans-30" transform="translate(63.623047 0.78125)"/>
      </g>
     </g>
    </g>
    <g id="xtick_4">
     <g id="line2d_7">
      <path d="M 163.451373 129.025354 
L 163.451373 2.834646 
" clip-path="url(#p273c9297be)" style="fill: none; stroke: #000000; stroke-opacity: 0.1; stroke-width: 0.5; stroke-linecap: square"/>
     </g>
     <g id="line2d_8">
      <g>
       <use xlink:href="#m36f3d6a595" x="163.451373" y="129.025354" style="stroke: #000000; stroke-width: 0.5"/>
      </g>
     </g>
     <g id="text_4">
      <!-- $75$ -->
      <g transform="translate(158.331373 138.604104) scale(0.08 -0.08)">
       <defs>
        <path id="DejaVuSans-37" d="M 525 4666 
L 3525 4666 
L 3525 4397 
L 1831 0 
L 1172 0 
L 2766 4134 
L 525 4134 
L 525 4666 
z
" transform="scale(0.015625)"/>
       </defs>
       <use xlink:href="#DejaVuSans-37" transform="translate(0 0.09375)"/>
       <use xlink:href="#DejaVuSans-35" transform="translate(63.623047 0.09375)"/>
      </g>
     </g>
    </g>
    <g id="xtick_5">
     <g id="line2d_9">
      <path d="M 207.886465 129.025354 
L 207.886465 2.834646 
" clip-path="url(#p273c9297be)" style="fill: none; stroke: #000000; stroke-opacity: 0.1; stroke-width: 0.5; stroke-linecap: square"/>
     </g>
     <g id="line2d_10">
      <g>
       <use xlink:href="#m36f3d6a595" x="207.886465" y="129.025354" style="stroke: #000000; stroke-width: 0.5"/>
      </g>
     </g>
     <g id="text_5">
      <!-- $100$ -->
      <g transform="translate(200.246465 138.604104) scale(0.08 -0.08)">
       <defs>
        <path id="DejaVuSans-31" d="M 794 531 
L 1825 531 
L 1825 4091 
L 703 3866 
L 703 4441 
L 1819 4666 
L 2450 4666 
L 2450 531 
L 3481 531 
L 3481 0 
L 794 0 
L 794 531 
z
" transform="scale(0.015625)"/>
       </defs>
       <use xlink:href="#DejaVuSans-31" transform="translate(0 0.78125)"/>
       <use xlink:href="#DejaVuSans-30" transform="translate(63.623047 0.78125)"/>
       <use xlink:href="#DejaVuSans-30" transform="translate(127.246094 0.78125)"/>
      </g>
     </g>
    </g>
   </g>
   <g id="matplotlib.axis_2">
    <g id="ytick_1">
     <g id="line2d_11">
      <path d="M 26.644609 115.556147 
L 213.165354 115.556147 
" clip-path="url(#p273c9297be)" style="fill: none; stroke: #000000; stroke-opacity: 0.1; stroke-width: 0.5; stroke-linecap: square"/>
     </g>
     <g id="line2d_12">
      <defs>
       <path id="m5663731632" d="M 0 0 
L 3 0 
" style="stroke: #000000; stroke-width: 0.5"/>
      </defs>
      <g>
       <use xlink:href="#m5663731632" x="26.644609" y="115.556147" style="stroke: #000000; stroke-width: 0.5"/>
      </g>
     </g>
     <g id="text_6">
      <!-- $-7.5$ -->
      <g transform="translate(3.704609 118.595522) scale(0.08 -0.08)">
       <defs>
        <path id="DejaVuSans-2212" d="M 678 2272 
L 4684 2272 
L 4684 1741 
L 678 1741 
L 678 2272 
z
" transform="scale(0.015625)"/>
        <path id="DejaVuSans-2e" d="M 684 794 
L 1344 794 
L 1344 0 
L 684 0 
L 684 794 
z
" transform="scale(0.015625)"/>
       </defs>
       <use xlink:href="#DejaVuSans-2212" transform="translate(0 0.09375)"/>
       <use xlink:href="#DejaVuSans-37" transform="translate(83.789062 0.09375)"/>
       <use xlink:href="#DejaVuSans-2e" transform="translate(147.412109 0.09375)"/>
       <use xlink:href="#DejaVuSans-35" transform="translate(179.199219 0.09375)"/>
      </g>
     </g>
    </g>
    <g id="ytick_2">
     <g id="line2d_13">
      <path d="M 26.644609 98.200891 
L 213.165354 98.200891 
" clip-path="url(#p273c9297be)" style="fill: none; stroke: #000000; stroke-opacity: 0.1; stroke-width: 0.5; stroke-linecap: square"/>
     </g>
     <g id="line2d_14">
      <g>
       <use xlink:href="#m5663731632" x="26.644609" y="98.200891" style="stroke: #000000; stroke-width: 0.5"/>
      </g>
     </g>
     <g id="text_7">
      <!-- $-5.0$ -->
      <g transform="translate(3.704609 101.240266) scale(0.08 -0.08)">
       <use xlink:href="#DejaVuSans-2212" transform="translate(0 0.78125)"/>
       <use xlink:href="#DejaVuSans-35" transform="translate(83.789062 0.78125)"/>
       <use xlink:href="#DejaVuSans-2e" transform="translate(147.412109 0.78125)"/>
       <use xlink:href="#DejaVuSans-30" transform="translate(179.199219 0.78125)"/>
      </g>
     </g>
    </g>
    <g id="ytick_3">
     <g id="line2d_15">
      <path d="M 26.644609 80.845635 
L 213.165354 80.845635 
" clip-path="url(#p273c9297be)" style="fill: none; stroke: #000000; stroke-opacity: 0.1; stroke-width: 0.5; stroke-linecap: square"/>
     </g>
     <g id="line2d_16">
      <g>
       <use xlink:href="#m5663731632" x="26.644609" y="80.845635" style="stroke: #000000; stroke-width: 0.5"/>
      </g>
     </g>
     <g id="text_8">
      <!-- $-2.5$ -->
      <g transform="translate(3.704609 83.88501) scale(0.08 -0.08)">
       <use xlink:href="#DejaVuSans-2212" transform="translate(0 0.78125)"/>
       <use xlink:href="#DejaVuSans-32" transform="translate(83.789062 0.78125)"/>
       <use xlink:href="#DejaVuSans-2e" transform="translate(147.412109 0.78125)"/>
       <use xlink:href="#DejaVuSans-35" transform="translate(179.199219 0.78125)"/>
      </g>
     </g>
    </g>
    <g id="ytick_4">
     <g id="line2d_17">
      <path d="M 26.644609 63.490379 
L 213.165354 63.490379 
" clip-path="url(#p273c9297be)" style="fill: none; stroke: #000000; stroke-opacity: 0.1; stroke-width: 0.5; stroke-linecap: square"/>
     </g>
     <g id="line2d_18">
      <g>
       <use xlink:href="#m5663731632" x="26.644609" y="63.490379" style="stroke: #000000; stroke-width: 0.5"/>
      </g>
     </g>
     <g id="text_9">
      <!-- $0.0$ -->
      <g transform="translate(10.344609 66.529754) scale(0.08 -0.08)">
       <use xlink:href="#DejaVuSans-30" transform="translate(0 0.78125)"/>
       <use xlink:href="#DejaVuSans-2e" transform="translate(63.623047 0.78125)"/>
       <use xlink:href="#DejaVuSans-30" transform="translate(95.410156 0.78125)"/>
      </g>
     </g>
    </g>
    <g id="ytick_5">
     <g id="line2d_19">
      <path d="M 26.644609 46.135123 
L 213.165354 46.135123 
" clip-path="url(#p273c9297be)" style="fill: none; stroke: #000000; stroke-opacity: 0.1; stroke-width: 0.5; stroke-linecap: square"/>
     </g>
     <g id="line2d_20">
      <g>
       <use xlink:href="#m5663731632" x="26.644609" y="46.135123" style="stroke: #000000; stroke-width: 0.5"/>
      </g>
     </g>
     <g id="text_10">
      <!-- $2.5$ -->
      <g transform="translate(10.344609 49.174498) scale(0.08 -0.08)">
       <use xlink:href="#DejaVuSans-32" transform="translate(0 0.78125)"/>
       <use xlink:href="#DejaVuSans-2e" transform="translate(63.623047 0.78125)"/>
       <use xlink:href="#DejaVuSans-35" transform="translate(95.410156 0.78125)"/>
      </g>
     </g>
    </g>
    <g id="ytick_6">
     <g id="line2d_21">
      <path d="M 26.644609 28.779867 
L 213.165354 28.779867 
" clip-path="url(#p273c9297be)" style="fill: none; stroke: #000000; stroke-opacity: 0.1; stroke-width: 0.5; stroke-linecap: square"/>
     </g>
     <g id="line2d_22">
      <g>
       <use xlink:href="#m5663731632" x="26.644609" y="28.779867" style="stroke: #000000; stroke-width: 0.5"/>
      </g>
     </g>
     <g id="text_11">
      <!-- $5.0$ -->
      <g transform="translate(10.344609 31.819242) scale(0.08 -0.08)">
       <use xlink:href="#DejaVuSans-35" transform="translate(0 0.78125)"/>
       <use xlink:href="#DejaVuSans-2e" transform="translate(63.623047 0.78125)"/>
       <use xlink:href="#DejaVuSans-30" transform="translate(95.410156 0.78125)"/>
      </g>
     </g>
    </g>
    <g id="ytick_7">
     <g id="line2d_23">
      <path d="M 26.644609 11.424611 
L 213.165354 11.424611 
" clip-path="url(#p273c9297be)" style="fill: none; stroke: #000000; stroke-opacity: 0.1; stroke-width: 0.5; stroke-linecap: square"/>
     </g>
     <g id="line2d_24">
      <g>
       <use xlink:href="#m5663731632" x="26.644609" y="11.424611" style="stroke: #000000; stroke-width: 0.5"/>
      </g>
     </g>
     <g id="text_12">
      <!-- $7.5$ -->
      <g transform="translate(10.344609 14.463986) scale(0.08 -0.08)">
       <use xlink:href="#DejaVuSans-37" transform="translate(0 0.09375)"/>
       <use xlink:href="#DejaVuSans-2e" transform="translate(63.623047 0.09375)"/>
       <use xlink:href="#DejaVuSans-35" transform="translate(95.410156 0.09375)"/>
      </g>
     </g>
    </g>
   </g>
   <g id="line2d_25">
    <path d="M 31.923498 63.490379 
L 33.700902 59.883994 
L 35.478305 66.174579 
L 37.255709 69.184339 
L 39.033113 69.595293 
L 40.810517 65.892141 
L 42.58792 74.11087 
L 44.365324 80.603435 
L 46.142728 80.585995 
L 47.920131 84.964809 
L 49.697535 91.780446 
L 51.474939 80.922538 
L 53.252343 82.27442 
L 55.029746 74.772123 
L 56.80715 90.263575 
L 58.584554 91.677684 
L 60.361957 83.696464 
L 62.139361 71.433355 
L 63.916765 61.25331 
L 65.694169 55.76888 
L 67.471572 50.717557 
L 69.248976 52.789037 
L 71.02638 66.959677 
L 72.803783 64.938626 
L 74.581187 68.123058 
L 76.358591 79.669796 
L 78.135995 80.106176 
L 79.913398 80.884609 
L 81.690802 77.501809 
L 83.468206 74.194556 
L 85.245609 78.365117 
L 87.023013 74.309731 
L 88.800417 87.045891 
L 90.57782 86.266946 
L 92.355224 76.065236 
L 94.132628 81.366864 
L 95.910032 94.237477 
L 97.687435 90.906306 
L 99.464839 82.889737 
L 101.242243 86.883768 
L 103.019646 83.35524 
L 104.79705 88.82953 
L 106.574454 82.327052 
L 108.351858 73.503656 
L 110.129261 76.98205 
L 111.906665 75.96786 
L 113.684069 78.476493 
L 115.461472 79.622173 
L 117.238876 73.214148 
L 119.01628 67.160366 
L 120.793684 67.747243 
L 122.571087 70.377058 
L 124.348491 67.672856 
L 126.125895 75.596064 
L 127.903298 84.169719 
L 129.680702 95.350195 
L 131.458106 95.372484 
L 133.23551 95.441373 
L 135.012913 90.903385 
L 136.790317 97.215042 
L 138.567721 90.911056 
L 140.345124 82.84971 
L 142.122528 90.081844 
L 143.899932 85.874892 
L 145.677335 85.015715 
L 147.454739 91.656866 
L 149.232143 101.955945 
L 151.009547 97.53417 
L 152.78695 97.457675 
L 154.564354 85.899727 
L 156.341758 78.166847 
L 158.119161 64.405884 
L 159.896565 60.88279 
L 161.673969 55.749934 
L 163.451373 45.464994 
L 165.228776 33.199595 
L 167.00618 21.557428 
L 168.783584 18.182967 
L 170.560987 27.401848 
L 172.338391 29.569306 
L 174.115795 25.145724 
L 175.893199 17.139045 
L 177.670602 11.016299 
L 179.448006 6.406081 
L 181.22541 11.180619 
L 183.002813 15.166821 
L 184.780217 17.45032 
L 186.557621 24.523559 
L 188.335025 29.704435 
L 190.112428 30.200521 
L 191.889832 27.80065 
L 193.667236 40.823443 
L 195.444639 41.903972 
L 197.222043 36.43504 
L 198.999447 37.19573 
L 200.77685 42.739452 
L 202.554254 41.303167 
L 204.331658 43.631964 
L 206.109062 39.575732 
L 207.886465 39.418407 
" clip-path="url(#p273c9297be)" style="fill: none; stroke: #0d0d0d"/>
   </g>
   <g id="patch_3">
    <path d="M 26.644609 129.025354 
L 26.644609 2.834646 
" style="fill: none; stroke: #000000; stroke-linejoin: miter; stroke-linecap: square"/>
   </g>
   <g id="patch_4">
    <path d="M 26.644609 129.025354 
L 213.165354 129.025354 
" style="fill: none; stroke: #000000; stroke-linejoin: miter; stroke-linecap: square"/>
   </g>
   <g id="line2d_26">
    <path d="M 31.923498 63.490379 
L 33.700902 68.241314 
L 35.478305 64.29397 
L 37.255709 61.214189 
L 39.033113 60.700479 
L 40.810517 56.813791 
L 42.58792 71.194614 
L 44.365324 59.654883 
L 46.142728 67.283889 
L 47.920131 55.775162 
L 49.697535 62.837232 
L 51.474939 74.057262 
L 53.252343 65.602793 
L 55.029746 71.337316 
L 56.80715 70.231528 
L 58.584554 76.162758 
L 60.361957 76.369699 
L 62.139361 81.241891 
L 63.916765 88.689719 
L 65.694169 97.339861 
L 67.471572 101.011604 
L 69.248976 96.06793 
L 71.02638 92.096738 
L 72.803783 77.014827 
L 74.581187 72.793739 
L 76.358591 75.014369 
L 78.135995 80.353078 
L 79.913398 83.107433 
L 81.690802 69.188789 
L 83.468206 75.070027 
L 85.245609 75.095912 
L 87.023013 82.105347 
L 88.800417 80.603756 
L 90.57782 83.914591 
L 92.355224 89.450062 
L 94.132628 92.746412 
L 95.910032 95.744838 
L 97.687435 90.428337 
L 99.464839 93.249678 
L 101.242243 74.19483 
L 103.019646 81.101679 
L 104.79705 93.118894 
L 106.574454 90.622488 
L 108.351858 84.126284 
L 110.129261 82.653829 
L 111.906665 72.032183 
L 113.684069 69.393022 
L 115.461472 67.567355 
L 117.238876 75.269798 
L 119.01628 75.703885 
L 120.793684 88.022203 
L 122.571087 82.626145 
L 124.348491 89.781846 
L 126.125895 80.159439 
L 127.903298 87.551851 
L 129.680702 92.316376 
L 131.458106 108.755053 
L 133.23551 113.372446 
L 135.012913 116.470641 
L 136.790317 122.382461 
L 138.567721 125.453919 
L 140.345124 110.840687 
L 142.122528 106.443662 
L 143.899932 98.048954 
L 145.677335 97.449614 
L 147.454739 90.390741 
L 149.232143 95.347992 
L 151.009547 92.20936 
L 152.78695 92.384087 
L 154.564354 86.890868 
L 156.341758 81.296796 
L 158.119161 75.48579 
L 159.896565 78.046828 
L 161.673969 88.374891 
L 163.451373 83.088676 
L 165.228776 88.407083 
L 167.00618 91.238722 
L 168.783584 80.521237 
L 170.560987 82.969145 
L 172.338391 82.653057 
L 174.115795 63.008076 
L 175.893199 71.065762 
L 177.670602 64.856233 
L 179.448006 64.78585 
L 181.22541 61.916631 
L 183.002813 61.861812 
L 184.780217 61.686371 
L 186.557621 48.931812 
L 188.335025 59.228059 
L 190.112428 50.82149 
L 191.889832 44.907828 
L 193.667236 58.342138 
L 195.444639 56.463342 
L 197.222043 44.038107 
L 198.999447 37.456824 
L 200.77685 39.878453 
L 202.554254 47.547086 
L 204.331658 44.502449 
L 206.109062 51.752105 
L 207.886465 46.468727 
" clip-path="url(#p273c9297be)" style="fill: none; stroke: #f2f2f2"/>
   </g>
   <g id="line2d_27">
    <path d="M 31.923498 63.490379 
L 33.700902 73.57103 
L 35.478305 73.487514 
L 37.255709 75.333007 
L 39.033113 74.049512 
L 40.810517 68.051868 
L 42.58792 76.338984 
L 44.365324 86.716792 
L 46.142728 83.303899 
L 47.920131 86.28834 
L 49.697535 84.084517 
L 51.474939 68.67951 
L 53.252343 62.271372 
L 55.029746 74.971004 
L 56.80715 78.614391 
L 58.584554 76.424034 
L 60.361957 73.527578 
L 62.139361 80.446017 
L 63.916765 97.948875 
L 65.694169 90.170673 
L 67.471572 92.890853 
L 69.248976 89.380991 
L 71.02638 95.934278 
L 72.803783 82.971585 
L 74.581187 69.992879 
L 76.358591 76.726168 
L 78.135995 78.765196 
L 79.913398 73.842953 
L 81.690802 83.677807 
L 83.468206 80.131805 
L 85.245609 85.844186 
L 87.023013 96.689479 
L 88.800417 83.87395 
L 90.57782 81.648551 
L 92.355224 86.485819 
L 94.132628 81.212559 
L 95.910032 77.860806 
L 97.687435 67.032508 
L 99.464839 64.957148 
L 101.242243 58.10896 
L 103.019646 49.050739 
L 104.79705 44.567083 
L 106.574454 42.331671 
L 108.351858 44.958003 
L 110.129261 43.971857 
L 111.906665 53.380868 
L 113.684069 44.438161 
L 115.461472 45.19216 
L 117.238876 38.000474 
L 119.01628 27.801204 
L 120.793684 33.939607 
L 122.571087 35.062532 
L 124.348491 32.118849 
L 126.125895 32.118021 
L 127.903298 37.677518 
L 129.680702 31.708198 
L 131.458106 38.235447 
L 133.23551 50.448478 
L 135.012913 49.945198 
L 136.790317 44.277085 
L 138.567721 44.40643 
L 140.345124 47.503027 
L 142.122528 60.231316 
L 143.899932 62.147223 
L 145.677335 68.727886 
L 147.454739 66.529104 
L 149.232143 69.231843 
L 151.009547 77.207439 
L 152.78695 79.320254 
L 154.564354 75.179162 
L 156.341758 67.417658 
L 158.119161 72.815258 
L 159.896565 64.531108 
L 161.673969 68.468875 
L 163.451373 65.371544 
L 165.228776 58.504221 
L 167.00618 61.012217 
L 168.783584 69.247065 
L 170.560987 43.495256 
L 172.338391 51.126737 
L 174.115795 54.645834 
L 175.893199 51.127402 
L 177.670602 42.254425 
L 179.448006 46.625736 
L 181.22541 58.858722 
L 183.002813 59.134331 
L 184.780217 62.932843 
L 186.557621 74.367652 
L 188.335025 86.400629 
L 190.112428 84.831627 
L 191.889832 89.44635 
L 193.667236 89.817844 
L 195.444639 96.20038 
L 197.222043 109.87643 
L 198.999447 102.184556 
L 200.77685 98.337894 
L 202.554254 86.522996 
L 204.331658 84.58112 
L 206.109062 74.324388 
L 207.886465 78.093182 
" clip-path="url(#p273c9297be)" style="fill: none; stroke: #808080"/>
   </g>
   <g id="legend_1">
    <g id="patch_5">
     <path d="M 170.540354 44.462146 
L 209.165354 44.462146 
L 209.165354 6.834646 
L 170.540354 6.834646 
z
" style="fill: #ffffff; stroke: #000000; stroke-linejoin: miter"/>
    </g>
    <g id="line2d_28">
     <path d="M 173.740354 13.313396 
L 181.740354 13.313396 
L 189.740354 13.313396 
" style="fill: none; stroke: #0d0d0d; stroke-linejoin: miter"/>
    </g>
    <g id="text_13">
     <!-- y1 -->
     <g transform="translate(196.140354 16.113396) scale(0.08 -0.08)">
      <defs>
       <path id="DejaVuSans-79" d="M 2059 -325 
Q 1816 -950 1584 -1140 
Q 1353 -1331 966 -1331 
L 506 -1331 
L 506 -850 
L 844 -850 
Q 1081 -850 1212 -737 
Q 1344 -625 1503 -206 
L 1606 56 
L 191 3500 
L 800 3500 
L 1894 763 
L 2988 3500 
L 3597 3500 
L 2059 -325 
z
" transform="scale(0.015625)"/>
      </defs>
      <use xlink:href="#DejaVuSans-79"/>
      <use xlink:href="#DejaVuSans-31" transform="translate(59.179688 0)"/>
     </g>
    </g>
    <g id="line2d_29">
     <path d="M 173.740354 25.055896 
L 181.740354 25.055896 
L 189.740354 25.055896 
" style="fill: none; stroke: #f2f2f2; stroke-linejoin: miter"/>
    </g>
    <g id="text_14">
     <!-- y5 -->
     <g transform="translate(196.140354 27.855896) scale(0.08 -0.08)">
      <use xlink:href="#DejaVuSans-79"/>
      <use xlink:href="#DejaVuSans-35" transform="translate(59.179688 0)"/>
     </g>
    </g>
    <g id="line2d_30">
     <path d="M 173.740354 36.798396 
L 181.740354 36.798396 
L 189.740354 36.798396 
" style="fill: none; stroke: #808080; stroke-linejoin: miter"/>
    </g>
    <g id="text_15">
     <!-- y9 -->
     <g transform="translate(196.140354 39.598396) scale(0.08 -0.08)">
      <defs>
       <path id="DejaVuSans-39" d="M 703 97 
L 703 672 
Q 941 559 1184 500 
Q 1428 441 1663 441 
Q 2288 441 2617 861 
Q 2947 1281 2994 2138 
Q 2813 1869 2534 1725 
Q 2256 1581 1919 1581 
Q 1219 1581 811 2004 
Q 403 2428 403 3163 
Q 403 3881 828 4315 
Q 1253 4750 1959 4750 
Q 2769 4750 3195 4129 
Q 3622 3509 3622 2328 
Q 3622 1225 3098 567 
Q 2575 -91 1691 -91 
Q 1453 -91 1209 -44 
Q 966 3 703 97 
z
M 1959 2075 
Q 2384 2075 2632 2365 
Q 2881 2656 2881 3163 
Q 2881 3666 2632 3958 
Q 2384 4250 1959 4250 
Q 1534 4250 1286 3958 
Q 1038 3666 1038 3163 
Q 1038 2656 1286 2365 
Q 1534 2075 1959 2075 
z
" transform="scale(0.015625)"/>
      </defs>
      <use xlink:href="#DejaVuSans-79"/>
      <use xlink:href="#DejaVuSans-39" transform="translate(59.179688 0)"/>
     </g>
    </g>
   </g>
  </g>
  <g id="axes_2">
   <g id="patch_6">
    <path d="M 242.644609 129.025354 
L 429.165354 129.025354 
L 429.165354 2.834646 
L 242.644609 2.834646 
z
" style="fill: #ffc0cb"/>
   </g>
   <g id="matplotlib.axis_3">
    <g id="xtick_6">
     <g id="line2d_31">
      <path d="M 246.146094 129.025354 
L 246.146094 2.834646 
" clip-path="url(#p389810db30)" style="fill: none; stroke: #000000; stroke-opacity: 0.1; stroke-width: 0.5; stroke-linecap: square"/>
     </g>
     <g id="line2d_32">
      <g>
       <use xlink:href="#m36f3d6a595" x="246.146094" y="129.025354" style="stroke: #000000; stroke-width: 0.5"/>
      </g>
     </g>
     <g id="text_16">
      <!-- $0$ -->
      <g transform="translate(243.586094 138.604104) scale(0.08 -0.08)">
       <use xlink:href="#DejaVuSans-30" transform="translate(0 0.78125)"/>
      </g>
     </g>
    </g>
    <g id="xtick_7">
     <g id="line2d_33">
      <path d="M 290.581187 129.025354 
L 290.581187 2.834646 
" clip-path="url(#p389810db30)" style="fill: none; stroke: #000000; stroke-opacity: 0.1; stroke-width: 0.5; stroke-linecap: square"/>
     </g>
     <g id="line2d_34">
      <g>
       <use xlink:href="#m36f3d6a595" x="290.581187" y="129.025354" style="stroke: #000000; stroke-width: 0.5"/>
      </g>
     </g>
     <g id="text_17">
      <!-- $25$ -->
      <g transform="translate(285.461187 138.604104) scale(0.08 -0.08)">
       <use xlink:href="#DejaVuSans-32" transform="translate(0 0.78125)"/>
       <use xlink:href="#DejaVuSans-35" transform="translate(63.623047 0.78125)"/>
      </g>
     </g>
    </g>
    <g id="xtick_8">
     <g id="line2d_35">
      <path d="M 335.01628 129.025354 
L 335.01628 2.834646 
" clip-path="url(#p389810db30)" style="fill: none; stroke: #000000; stroke-opacity: 0.1; stroke-width: 0.5; stroke-linecap: square"/>
     </g>
     <g id="line2d_36">
      <g>
       <use xlink:href="#m36f3d6a595" x="335.01628" y="129.025354" style="stroke: #000000; stroke-width: 0.5"/>
      </g>
     </g>
     <g id="text_18">
      <!-- $50$ -->
      <g transform="translate(329.89628 138.604104) scale(0.08 -0.08)">
       <use xlink:href="#DejaVuSans-35" transform="translate(0 0.78125)"/>
       <use xlink:href="#DejaVuSans-30" transform="translate(63.623047 0.78125)"/>
      </g>
     </g>
    </g>
    <g id="xtick_9">
     <g id="line2d_37">
      <path d="M 379.451373 129.025354 
L 379.451373 2.834646 
" clip-path="url(#p389810db30)" style="fill: none; stroke: #000000; stroke-opacity: 0.1; stroke-width: 0.5; stroke-linecap: square"/>
     </g>
     <g id="line2d_38">
      <g>
       <use xlink:href="#m36f3d6a595" x="379.451373" y="129.025354" style="stroke: #000000; stroke-width: 0.5"/>
      </g>
     </g>
     <g id="text_19">
      <!-- $75$ -->
      <g transform="translate(374.331373 138.604104) scale(0.08 -0.08)">
       <use xlink:href="#DejaVuSans-37" transform="translate(0 0.09375)"/>
       <use xlink:href="#DejaVuSans-35" transform="translate(63.623047 0.09375)"/>
      </g>
     </g>
    </g>
    <g id="xtick_10">
     <g id="line2d_39">
      <path d="M 423.886465 129.025354 
L 423.886465 2.834646 
" clip-path="url(#p389810db30)" style="fill: none; stroke: #000000; stroke-opacity: 0.1; stroke-width: 0.5; stroke-linecap: square"/>
     </g>
     <g id="line2d_40">
      <g>
       <use xlink:href="#m36f3d6a595" x="423.886465" y="129.025354" style="stroke: #000000; stroke-width: 0.5"/>
      </g>
     </g>
     <g id="text_20">
      <!-- $100$ -->
      <g transform="translate(416.246465 138.604104) scale(0.08 -0.08)">
       <use xlink:href="#DejaVuSans-31" transform="translate(0 0.78125)"/>
       <use xlink:href="#DejaVuSans-30" transform="translate(63.623047 0.78125)"/>
       <use xlink:href="#DejaVuSans-30" transform="translate(127.246094 0.78125)"/>
      </g>
     </g>
    </g>
   </g>
   <g id="matplotlib.axis_4">
    <g id="ytick_8">
     <g id="line2d_41">
      <path d="M 242.644609 108.251716 
L 429.165354 108.251716 
" clip-path="url(#p389810db30)" style="fill: none; stroke: #000000; stroke-opacity: 0.1; stroke-width: 0.5; stroke-linecap: square"/>
     </g>
     <g id="line2d_42">
      <g>
       <use xlink:href="#m5663731632" x="242.644609" y="108.251716" style="stroke: #000000; stroke-width: 0.5"/>
      </g>
     </g>
     <g id="text_21">
      <!-- $-2.5$ -->
      <g transform="translate(219.704609 111.291091) scale(0.08 -0.08)">
       <use xlink:href="#DejaVuSans-2212" transform="translate(0 0.78125)"/>
       <use xlink:href="#DejaVuSans-32" transform="translate(83.789062 0.78125)"/>
       <use xlink:href="#DejaVuSans-2e" transform="translate(147.412109 0.78125)"/>
       <use xlink:href="#DejaVuSans-35" transform="translate(179.199219 0.78125)"/>
      </g>
     </g>
    </g>
    <g id="ytick_9">
     <g id="line2d_43">
      <path d="M 242.644609 80.83106 
L 429.165354 80.83106 
" clip-path="url(#p389810db30)" style="fill: none; stroke: #000000; stroke-opacity: 0.1; stroke-width: 0.5; stroke-linecap: square"/>
     </g>
     <g id="line2d_44">
      <g>
       <use xlink:href="#m5663731632" x="242.644609" y="80.83106" style="stroke: #000000; stroke-width: 0.5"/>
      </g>
     </g>
     <g id="text_22">
      <!-- $0.0$ -->
      <g transform="translate(226.344609 83.870435) scale(0.08 -0.08)">
       <use xlink:href="#DejaVuSans-30" transform="translate(0 0.78125)"/>
       <use xlink:href="#DejaVuSans-2e" transform="translate(63.623047 0.78125)"/>
       <use xlink:href="#DejaVuSans-30" transform="translate(95.410156 0.78125)"/>
      </g>
     </g>
    </g>
    <g id="ytick_10">
     <g id="line2d_45">
      <path d="M 242.644609 53.410404 
L 429.165354 53.410404 
" clip-path="url(#p389810db30)" style="fill: none; stroke: #000000; stroke-opacity: 0.1; stroke-width: 0.5; stroke-linecap: square"/>
     </g>
     <g id="line2d_46">
      <g>
       <use xlink:href="#m5663731632" x="242.644609" y="53.410404" style="stroke: #000000; stroke-width: 0.5"/>
      </g>
     </g>
     <g id="text_23">
      <!-- $2.5$ -->
      <g transform="translate(226.344609 56.449779) scale(0.08 -0.08)">
       <use xlink:href="#DejaVuSans-32" transform="translate(0 0.78125)"/>
       <use xlink:href="#DejaVuSans-2e" transform="translate(63.623047 0.78125)"/>
       <use xlink:href="#DejaVuSans-35" transform="translate(95.410156 0.78125)"/>
      </g>
     </g>
    </g>
    <g id="ytick_11">
     <g id="line2d_47">
      <path d="M 242.644609 25.989748 
L 429.165354 25.989748 
" clip-path="url(#p389810db30)" style="fill: none; stroke: #000000; stroke-opacity: 0.1; stroke-width: 0.5; stroke-linecap: square"/>
     </g>
     <g id="line2d_48">
      <g>
       <use xlink:href="#m5663731632" x="242.644609" y="25.989748" style="stroke: #000000; stroke-width: 0.5"/>
      </g>
     </g>
     <g id="text_24">
      <!-- $5.0$ -->
      <g transform="translate(226.344609 29.029123) scale(0.08 -0.08)">
       <use xlink:href="#DejaVuSans-35" transform="translate(0 0.78125)"/>
       <use xlink:href="#DejaVuSans-2e" transform="translate(63.623047 0.78125)"/>
       <use xlink:href="#DejaVuSans-30" transform="translate(95.410156 0.78125)"/>
      </g>
     </g>
    </g>
   </g>
   <g id="line2d_49">
    <path d="M 247.923498 80.83106 
L 249.700902 70.90325 
L 251.478305 53.061849 
L 253.255709 55.332551 
L 255.033113 68.491626 
L 256.810517 75.134285 
L 258.58792 70.620429 
L 260.365324 60.140862 
L 262.142728 52.659843 
L 263.920131 53.554605 
L 265.697535 55.95766 
L 267.474939 43.869878 
L 269.252343 42.202891 
L 271.029746 27.658392 
L 272.80715 11.944859 
L 274.584554 15.118464 
L 276.361957 11.597595 
L 278.139361 6.406081 
L 279.916765 18.993662 
L 281.694169 39.174924 
L 283.471572 37.326943 
L 285.248976 37.878001 
L 287.02638 54.642095 
L 288.803783 47.190861 
L 290.581187 49.320417 
L 292.358591 53.960871 
L 294.135995 52.856835 
L 295.913398 66.056313 
L 297.690802 66.815267 
L 299.468206 68.715079 
L 301.245609 72.536872 
L 303.023013 79.079833 
L 304.800417 83.841916 
L 306.57782 72.768896 
L 308.355224 61.395934 
L 310.132628 56.69041 
L 311.910032 51.509666 
L 313.687435 51.336938 
L 315.464839 84.228815 
L 317.242243 96.585678 
L 319.019646 90.396872 
L 320.79705 90.719271 
L 322.574454 80.475015 
L 324.351858 80.219634 
L 326.129261 86.02569 
L 327.906665 101.647527 
L 329.684069 87.704539 
L 331.461472 70.333112 
L 333.238876 63.549426 
L 335.01628 79.045432 
L 336.793684 71.609241 
L 338.571087 62.397984 
L 340.348491 67.758147 
L 342.125895 48.690818 
L 343.903298 46.575776 
L 345.680702 56.005019 
L 347.458106 57.70751 
L 349.23551 21.879011 
L 351.012913 20.848631 
L 352.790317 23.636779 
L 354.567721 35.568137 
L 356.345124 50.460871 
L 358.122528 26.960253 
L 359.899932 39.906462 
L 361.677335 35.718559 
L 363.454739 51.770565 
L 365.232143 43.79441 
L 367.009547 33.170031 
L 368.78695 33.361419 
L 370.564354 29.368313 
L 372.341758 40.467822 
L 374.119161 37.476118 
L 375.896565 33.471501 
L 377.673969 54.262954 
L 379.451373 67.651368 
L 381.228776 77.227801 
L 383.00618 88.019519 
L 384.783584 89.999641 
L 386.560987 93.738551 
L 388.338391 78.196512 
L 390.115795 73.494022 
L 391.893199 56.93404 
L 393.670602 57.444308 
L 395.448006 61.699682 
L 397.22541 56.612256 
L 399.002813 42.835835 
L 400.780217 41.447444 
L 402.557621 39.217346 
L 404.335025 28.556193 
L 406.112428 33.429295 
L 407.889832 40.909001 
L 409.667236 44.43122 
L 411.444639 49.865358 
L 413.222043 49.721462 
L 414.999447 44.539827 
L 416.77685 58.684322 
L 418.554254 71.195035 
L 420.331658 47.715605 
L 422.109062 55.911931 
L 423.886465 62.47006 
" clip-path="url(#p389810db30)" style="fill: none; stroke: #add8e6"/>
   </g>
   <g id="patch_7">
    <path d="M 242.644609 129.025354 
L 242.644609 2.834646 
" style="fill: none; stroke: #000000; stroke-linejoin: miter; stroke-linecap: square"/>
   </g>
   <g id="patch_8">
    <path d="M 242.644609 129.025354 
L 429.165354 129.025354 
" style="fill: none; stroke: #000000; stroke-linejoin: miter; stroke-linecap: square"/>
   </g>
   <g id="line2d_50">
    <path d="M 247.923498 80.83106 
L 249.700902 88.356939 
L 251.478305 96.829452 
L 253.255709 91.945132 
L 255.033113 84.945891 
L 256.810517 95.19652 
L 258.58792 84.7888 
L 260.365324 84.137475 
L 262.142728 75.544237 
L 263.920131 70.657023 
L 265.697535 82.595472 
L 267.474939 64.849955 
L 269.252343 75.255988 
L 271.029746 67.34579 
L 272.80715 63.810648 
L 274.584554 55.337772 
L 276.361957 41.262116 
L 278.139361 39.307739 
L 279.916765 37.016638 
L 281.694169 31.191817 
L 283.471572 32.69033 
L 285.248976 33.96779 
L 287.02638 47.350723 
L 288.803783 35.915386 
L 290.581187 27.201912 
L 292.358591 31.717903 
L 294.135995 36.455234 
L 295.913398 33.395479 
L 297.690802 25.126347 
L 299.468206 26.241965 
L 301.245609 20.83313 
L 303.023013 27.895286 
L 304.800417 29.144687 
L 306.57782 8.699745 
L 308.355224 14.332825 
L 310.132628 15.15575 
L 311.910032 15.04201 
L 313.687435 37.114739 
L 315.464839 34.300936 
L 317.242243 33.251688 
L 319.019646 30.908181 
L 320.79705 34.99374 
L 322.574454 35.860981 
L 324.351858 38.378526 
L 326.129261 53.857169 
L 327.906665 53.016227 
L 329.684069 53.143313 
L 331.461472 47.405119 
L 333.238876 36.871129 
L 335.01628 30.112281 
L 336.793684 35.209798 
L 338.571087 26.788342 
L 340.348491 17.236621 
L 342.125895 13.173188 
L 343.903298 6.549122 
L 345.680702 33.802028 
L 347.458106 54.718328 
L 349.23551 50.731812 
L 351.012913 45.562502 
L 352.790317 59.653924 
L 354.567721 60.728417 
L 356.345124 50.404881 
L 358.122528 60.771974 
L 359.899932 66.208805 
L 361.677335 38.40171 
L 363.454739 64.166386 
L 365.232143 61.79076 
L 367.009547 40.901197 
L 368.78695 56.338518 
L 370.564354 50.868701 
L 372.341758 47.353634 
L 374.119161 58.767188 
L 375.896565 72.178356 
L 377.673969 78.869176 
L 379.451373 76.22805 
L 381.228776 80.236568 
L 383.00618 69.357438 
L 384.783584 67.385556 
L 386.560987 78.527415 
L 388.338391 70.305396 
L 390.115795 63.769102 
L 391.893199 75.363002 
L 393.670602 107.277723 
L 395.448006 96.539945 
L 397.22541 111.589515 
L 399.002813 109.83948 
L 400.780217 94.772465 
L 402.557621 100.201799 
L 404.335025 107.454227 
L 406.112428 125.453919 
L 407.889832 99.399522 
L 409.667236 113.249235 
L 411.444639 100.192011 
L 413.222043 79.741625 
L 414.999447 61.197749 
L 416.77685 49.133623 
L 418.554254 38.14742 
L 420.331658 27.212168 
L 422.109062 24.949729 
L 423.886465 55.21857 
" clip-path="url(#p389810db30)" style="fill: none; stroke: #00008b"/>
   </g>
   <g id="line2d_51">
    <path d="M 247.923498 80.83106 
L 249.700902 101.75419 
L 251.478305 100.128445 
L 253.255709 99.478936 
L 255.033113 106.987355 
L 256.810517 116.31052 
L 258.58792 109.305815 
L 260.365324 104.097226 
L 262.142728 105.520441 
L 263.920131 114.300013 
L 265.697535 87.041201 
L 267.474939 67.121183 
L 269.252343 62.547006 
L 271.029746 66.008019 
L 272.80715 63.305258 
L 274.584554 88.406326 
L 276.361957 110.437198 
L 278.139361 103.163244 
L 279.916765 86.879243 
L 281.694169 78.019793 
L 283.471572 89.235913 
L 285.248976 96.531999 
L 287.02638 91.31169 
L 288.803783 101.141932 
L 290.581187 86.42852 
L 292.358591 87.501988 
L 294.135995 70.235293 
L 295.913398 67.063652 
L 297.690802 72.040824 
L 299.468206 58.396149 
L 301.245609 50.044884 
L 303.023013 49.485571 
L 304.800417 42.033117 
L 306.57782 38.366873 
L 308.355224 47.096989 
L 310.132628 45.470392 
L 311.910032 59.839024 
L 313.687435 59.529754 
L 315.464839 65.490591 
L 317.242243 61.229054 
L 319.019646 67.956921 
L 320.79705 74.675425 
L 322.574454 69.708738 
L 324.351858 73.639612 
L 326.129261 79.689603 
L 327.906665 69.989205 
L 329.684069 71.212366 
L 331.461472 79.922416 
L 333.238876 84.10229 
L 335.01628 86.089107 
L 336.793684 82.446995 
L 338.571087 76.676279 
L 340.348491 81.653064 
L 342.125895 89.922669 
L 343.903298 101.061562 
L 345.680702 81.976619 
L 347.458106 66.424376 
L 349.23551 72.471873 
L 351.012913 102.127548 
L 352.790317 101.487037 
L 354.567721 107.738292 
L 356.345124 113.550261 
L 358.122528 95.723322 
L 359.899932 83.557245 
L 361.677335 86.536706 
L 363.454739 91.508973 
L 365.232143 81.859574 
L 367.009547 80.7596 
L 368.78695 80.361354 
L 370.564354 87.159424 
L 372.341758 100.012923 
L 374.119161 108.507327 
L 375.896565 99.593762 
L 377.673969 87.523316 
L 379.451373 96.55552 
L 381.228776 100.244963 
L 383.00618 98.531539 
L 384.783584 99.842047 
L 386.560987 109.045388 
L 388.338391 103.559539 
L 390.115795 109.694124 
L 391.893199 110.635853 
L 393.670602 102.526106 
L 395.448006 114.016252 
L 397.22541 97.778001 
L 399.002813 104.914858 
L 400.780217 95.268556 
L 402.557621 102.173395 
L 404.335025 80.139645 
L 406.112428 91.958195 
L 407.889832 85.367743 
L 409.667236 82.837035 
L 411.444639 92.827402 
L 413.222043 98.83153 
L 414.999447 114.197537 
L 416.77685 103.738427 
L 418.554254 92.292388 
L 420.331658 93.806811 
L 422.109062 91.3801 
L 423.886465 86.217143 
" clip-path="url(#p389810db30)" style="fill: none; stroke: #566cb8"/>
   </g>
   <g id="legend_2">
    <g id="patch_9">
     <path d="M 381.450354 44.462146 
L 425.165354 44.462146 
L 425.165354 6.834646 
L 381.450354 6.834646 
z
" style="fill: #ffffff; stroke: #000000; stroke-linejoin: miter"/>
    </g>
    <g id="line2d_52">
     <path d="M 384.650354 13.313396 
L 392.650354 13.313396 
L 400.650354 13.313396 
" style="fill: none; stroke: #add8e6; stroke-linejoin: miter"/>
    </g>
    <g id="text_25">
     <!-- y2 -->
     <g transform="translate(407.050354 16.113396) scale(0.08 -0.08)">
      <use xlink:href="#DejaVuSans-79"/>
      <use xlink:href="#DejaVuSans-32" transform="translate(59.179688 0)"/>
     </g>
    </g>
    <g id="line2d_53">
     <path d="M 384.650354 25.055896 
L 392.650354 25.055896 
L 400.650354 25.055896 
" style="fill: none; stroke: #00008b; stroke-linejoin: miter"/>
    </g>
    <g id="text_26">
     <!-- y6 -->
     <g transform="translate(407.050354 27.855896) scale(0.08 -0.08)">
      <defs>
       <path id="DejaVuSans-36" d="M 2113 2584 
Q 1688 2584 1439 2293 
Q 1191 2003 1191 1497 
Q 1191 994 1439 701 
Q 1688 409 2113 409 
Q 2538 409 2786 701 
Q 3034 994 3034 1497 
Q 3034 2003 2786 2293 
Q 2538 2584 2113 2584 
z
M 3366 4563 
L 3366 3988 
Q 3128 4100 2886 4159 
Q 2644 4219 2406 4219 
Q 1781 4219 1451 3797 
Q 1122 3375 1075 2522 
Q 1259 2794 1537 2939 
Q 1816 3084 2150 3084 
Q 2853 3084 3261 2657 
Q 3669 2231 3669 1497 
Q 3669 778 3244 343 
Q 2819 -91 2113 -91 
Q 1303 -91 875 529 
Q 447 1150 447 2328 
Q 447 3434 972 4092 
Q 1497 4750 2381 4750 
Q 2619 4750 2861 4703 
Q 3103 4656 3366 4563 
z
" transform="scale(0.015625)"/>
      </defs>
      <use xlink:href="#DejaVuSans-79"/>
      <use xlink:href="#DejaVuSans-36" transform="translate(59.179688 0)"/>
     </g>
    </g>
    <g id="line2d_54">
     <path d="M 384.650354 36.798396 
L 392.650354 36.798396 
L 400.650354 36.798396 
" style="fill: none; stroke: #566cb8; stroke-linejoin: miter"/>
    </g>
    <g id="text_27">
     <!-- y10 -->
     <g transform="translate(407.050354 39.598396) scale(0.08 -0.08)">
      <use xlink:href="#DejaVuSans-79"/>
      <use xlink:href="#DejaVuSans-31" transform="translate(59.179688 0)"/>
      <use xlink:href="#DejaVuSans-30" transform="translate(122.802734 0)"/>
     </g>
    </g>
   </g>
  </g>
  <g id="axes_3">
   <g id="patch_10">
    <path d="M 26.644609 273.025354 
L 213.165354 273.025354 
L 213.165354 146.834646 
L 26.644609 146.834646 
z
" style="fill: #00008b"/>
   </g>
   <g id="matplotlib.axis_5">
    <g id="xtick_11">
     <g id="line2d_55">
      <path d="M 30.146094 273.025354 
L 30.146094 146.834646 
" clip-path="url(#p18387c98ae)" style="fill: none; stroke: #000000; stroke-opacity: 0.1; stroke-width: 0.5; stroke-linecap: square"/>
     </g>
     <g id="line2d_56">
      <g>
       <use xlink:href="#m36f3d6a595" x="30.146094" y="273.025354" style="stroke: #000000; stroke-width: 0.5"/>
      </g>
     </g>
     <g id="text_28">
      <!-- $0$ -->
      <g transform="translate(27.586094 282.604104) scale(0.08 -0.08)">
       <use xlink:href="#DejaVuSans-30" transform="translate(0 0.78125)"/>
      </g>
     </g>
    </g>
    <g id="xtick_12">
     <g id="line2d_57">
      <path d="M 74.581187 273.025354 
L 74.581187 146.834646 
" clip-path="url(#p18387c98ae)" style="fill: none; stroke: #000000; stroke-opacity: 0.1; stroke-width: 0.5; stroke-linecap: square"/>
     </g>
     <g id="line2d_58">
      <g>
       <use xlink:href="#m36f3d6a595" x="74.581187" y="273.025354" style="stroke: #000000; stroke-width: 0.5"/>
      </g>
     </g>
     <g id="text_29">
      <!-- $25$ -->
      <g transform="translate(69.461187 282.604104) scale(0.08 -0.08)">
       <use xlink:href="#DejaVuSans-32" transform="translate(0 0.78125)"/>
       <use xlink:href="#DejaVuSans-35" transform="translate(63.623047 0.78125)"/>
      </g>
     </g>
    </g>
    <g id="xtick_13">
     <g id="line2d_59">
      <path d="M 119.01628 273.025354 
L 119.01628 146.834646 
" clip-path="url(#p18387c98ae)" style="fill: none; stroke: #000000; stroke-opacity: 0.1; stroke-width: 0.5; stroke-linecap: square"/>
     </g>
     <g id="line2d_60">
      <g>
       <use xlink:href="#m36f3d6a595" x="119.01628" y="273.025354" style="stroke: #000000; stroke-width: 0.5"/>
      </g>
     </g>
     <g id="text_30">
      <!-- $50$ -->
      <g transform="translate(113.89628 282.604104) scale(0.08 -0.08)">
       <use xlink:href="#DejaVuSans-35" transform="translate(0 0.78125)"/>
       <use xlink:href="#DejaVuSans-30" transform="translate(63.623047 0.78125)"/>
      </g>
     </g>
    </g>
    <g id="xtick_14">
     <g id="line2d_61">
      <path d="M 163.451373 273.025354 
L 163.451373 146.834646 
" clip-path="url(#p18387c98ae)" style="fill: none; stroke: #000000; stroke-opacity: 0.1; stroke-width: 0.5; stroke-linecap: square"/>
     </g>
     <g id="line2d_62">
      <g>
       <use xlink:href="#m36f3d6a595" x="163.451373" y="273.025354" style="stroke: #000000; stroke-width: 0.5"/>
      </g>
     </g>
     <g id="text_31">
      <!-- $75$ -->
      <g transform="translate(158.331373 282.604104) scale(0.08 -0.08)">
       <use xlink:href="#DejaVuSans-37" transform="translate(0 0.09375)"/>
       <use xlink:href="#DejaVuSans-35" transform="translate(63.623047 0.09375)"/>
      </g>
     </g>
    </g>
    <g id="xtick_15">
     <g id="line2d_63">
      <path d="M 207.886465 273.025354 
L 207.886465 146.834646 
" clip-path="url(#p18387c98ae)" style="fill: none; stroke: #000000; stroke-opacity: 0.1; stroke-width: 0.5; stroke-linecap: square"/>
     </g>
     <g id="line2d_64">
      <g>
       <use xlink:href="#m36f3d6a595" x="207.886465" y="273.025354" style="stroke: #000000; stroke-width: 0.5"/>
      </g>
     </g>
     <g id="text_32">
      <!-- $100$ -->
      <g transform="translate(200.246465 282.604104) scale(0.08 -0.08)">
       <use xlink:href="#DejaVuSans-31" transform="translate(0 0.78125)"/>
       <use xlink:href="#DejaVuSans-30" transform="translate(63.623047 0.78125)"/>
       <use xlink:href="#DejaVuSans-30" transform="translate(127.246094 0.78125)"/>
      </g>
     </g>
    </g>
   </g>
   <g id="matplotlib.axis_6">
    <g id="ytick_12">
     <g id="line2d_65">
      <path d="M 26.644609 268.081577 
L 213.165354 268.081577 
" clip-path="url(#p18387c98ae)" style="fill: none; stroke: #000000; stroke-opacity: 0.1; stroke-width: 0.5; stroke-linecap: square"/>
     </g>
     <g id="line2d_66">
      <g>
       <use xlink:href="#m5663731632" x="26.644609" y="268.081577" style="stroke: #000000; stroke-width: 0.5"/>
      </g>
     </g>
     <g id="text_33">
      <!-- $-10$ -->
      <g transform="translate(6.184609 271.120952) scale(0.08 -0.08)">
       <use xlink:href="#DejaVuSans-2212" transform="translate(0 0.78125)"/>
       <use xlink:href="#DejaVuSans-31" transform="translate(83.789062 0.78125)"/>
       <use xlink:href="#DejaVuSans-30" transform="translate(147.412109 0.78125)"/>
      </g>
     </g>
    </g>
    <g id="ytick_13">
     <g id="line2d_67">
      <path d="M 26.644609 230.53707 
L 213.165354 230.53707 
" clip-path="url(#p18387c98ae)" style="fill: none; stroke: #000000; stroke-opacity: 0.1; stroke-width: 0.5; stroke-linecap: square"/>
     </g>
     <g id="line2d_68">
      <g>
       <use xlink:href="#m5663731632" x="26.644609" y="230.53707" style="stroke: #000000; stroke-width: 0.5"/>
      </g>
     </g>
     <g id="text_34">
      <!-- $-5$ -->
      <g transform="translate(11.304609 233.576445) scale(0.08 -0.08)">
       <use xlink:href="#DejaVuSans-2212" transform="translate(0 0.09375)"/>
       <use xlink:href="#DejaVuSans-35" transform="translate(83.789062 0.09375)"/>
      </g>
     </g>
    </g>
    <g id="ytick_14">
     <g id="line2d_69">
      <path d="M 26.644609 192.992562 
L 213.165354 192.992562 
" clip-path="url(#p18387c98ae)" style="fill: none; stroke: #000000; stroke-opacity: 0.1; stroke-width: 0.5; stroke-linecap: square"/>
     </g>
     <g id="line2d_70">
      <g>
       <use xlink:href="#m5663731632" x="26.644609" y="192.992562" style="stroke: #000000; stroke-width: 0.5"/>
      </g>
     </g>
     <g id="text_35">
      <!-- $0$ -->
      <g transform="translate(18.024609 196.031937) scale(0.08 -0.08)">
       <use xlink:href="#DejaVuSans-30" transform="translate(0 0.78125)"/>
      </g>
     </g>
    </g>
    <g id="ytick_15">
     <g id="line2d_71">
      <path d="M 26.644609 155.448055 
L 213.165354 155.448055 
" clip-path="url(#p18387c98ae)" style="fill: none; stroke: #000000; stroke-opacity: 0.1; stroke-width: 0.5; stroke-linecap: square"/>
     </g>
     <g id="line2d_72">
      <g>
       <use xlink:href="#m5663731632" x="26.644609" y="155.448055" style="stroke: #000000; stroke-width: 0.5"/>
      </g>
     </g>
     <g id="text_36">
      <!-- $5$ -->
      <g transform="translate(18.024609 158.48743) scale(0.08 -0.08)">
       <use xlink:href="#DejaVuSans-35" transform="translate(0 0.09375)"/>
      </g>
     </g>
    </g>
   </g>
   <g id="patch_11">
    <path d="M 26.644609 273.025354 
L 26.644609 146.834646 
" style="fill: none; stroke: #000000; stroke-linejoin: miter; stroke-linecap: square"/>
   </g>
   <g id="patch_12">
    <path d="M 26.644609 273.025354 
L 213.165354 273.025354 
" style="fill: none; stroke: #000000; stroke-linejoin: miter; stroke-linecap: square"/>
   </g>
   <g id="line2d_73">
    <path d="M 31.923498 192.992562 
L 33.700902 205.574937 
L 35.478305 206.037799 
L 37.255709 212.527571 
L 39.033113 210.234629 
L 40.810517 218.375425 
L 42.58792 214.028737 
L 44.365324 204.180489 
L 46.142728 207.862939 
L 47.920131 207.029271 
L 49.697535 211.519417 
L 51.474939 206.641082 
L 53.252343 224.381199 
L 55.029746 215.688229 
L 56.80715 207.531473 
L 58.584554 220.027825 
L 60.361957 222.985448 
L 62.139361 213.770049 
L 63.916765 215.269851 
L 65.694169 215.637635 
L 67.471572 215.781706 
L 69.248976 225.636859 
L 71.02638 220.745558 
L 72.803783 224.507326 
L 74.581187 226.670764 
L 76.358591 218.993508 
L 78.135995 216.395811 
L 79.913398 201.329048 
L 81.690802 210.095405 
L 83.468206 204.399599 
L 85.245609 198.977555 
L 87.023013 200.037321 
L 88.800417 198.255115 
L 90.57782 191.691274 
L 92.355224 203.239894 
L 94.132628 209.940817 
L 95.910032 202.977165 
L 97.687435 205.466288 
L 99.464839 203.090678 
L 101.242243 197.700643 
L 103.019646 195.255605 
L 104.79705 201.283656 
L 106.574454 197.725212 
L 108.351858 199.711992 
L 110.129261 203.001342 
L 111.906665 204.318582 
L 113.684069 215.223457 
L 115.461472 219.470029 
L 117.238876 220.58596 
L 119.01628 218.603711 
L 120.793684 229.926486 
L 122.571087 234.141145 
L 124.348491 231.169235 
L 126.125895 239.36026 
L 127.903298 234.862228 
L 129.680702 236.534769 
L 131.458106 226.243362 
L 133.23551 226.847837 
L 135.012913 235.023096 
L 136.790317 232.663883 
L 138.567721 229.093838 
L 140.345124 214.353056 
L 142.122528 222.137891 
L 143.899932 223.187348 
L 145.677335 215.976528 
L 147.454739 226.711415 
L 149.232143 233.418517 
L 151.009547 231.982792 
L 152.78695 225.592751 
L 154.564354 227.024519 
L 156.341758 215.618017 
L 158.119161 224.055129 
L 159.896565 223.782619 
L 161.673969 222.273523 
L 163.451373 237.818035 
L 165.228776 248.638916 
L 167.00618 255.164493 
L 168.783584 248.42604 
L 170.560987 256.280835 
L 172.338391 260.072651 
L 174.115795 269.453919 
L 175.893199 254.373504 
L 177.670602 257.10513 
L 179.448006 256.993281 
L 181.22541 245.228412 
L 183.002813 245.079932 
L 184.780217 236.81058 
L 186.557621 223.230973 
L 188.335025 221.021876 
L 190.112428 219.113474 
L 191.889832 214.503444 
L 193.667236 209.537052 
L 195.444639 209.077691 
L 197.222043 212.997492 
L 198.999447 225.165639 
L 200.77685 217.069534 
L 202.554254 215.638523 
L 204.331658 223.430929 
L 206.109062 217.290026 
L 207.886465 213.03444 
" clip-path="url(#p18387c98ae)" style="fill: none; stroke: #ffffe0"/>
   </g>
   <g id="line2d_74">
    <path d="M 31.923498 192.992562 
L 33.700902 192.299968 
L 35.478305 189.173413 
L 37.255709 182.017301 
L 39.033113 184.86039 
L 40.810517 190.044264 
L 42.58792 191.350495 
L 44.365324 175.443269 
L 46.142728 180.473896 
L 47.920131 171.308252 
L 49.697535 167.878357 
L 51.474939 172.481975 
L 53.252343 179.877815 
L 55.029746 167.658245 
L 56.80715 168.004312 
L 58.584554 156.519558 
L 60.361957 162.290097 
L 62.139361 174.066343 
L 63.916765 186.714044 
L 65.694169 188.62513 
L 67.471572 185.905227 
L 69.248976 181.853325 
L 71.02638 176.863883 
L 72.803783 190.727622 
L 74.581187 178.843976 
L 76.358591 175.211908 
L 78.135995 193.938474 
L 79.913398 188.87082 
L 81.690802 204.652862 
L 83.468206 194.571765 
L 85.245609 188.211912 
L 87.023013 179.782538 
L 88.800417 175.108783 
L 90.57782 180.281413 
L 92.355224 176.937493 
L 94.132628 183.935909 
L 95.910032 173.818707 
L 97.687435 177.986909 
L 99.464839 179.293525 
L 101.242243 180.543671 
L 103.019646 189.027475 
L 104.79705 194.406688 
L 106.574454 183.673595 
L 108.351858 182.645714 
L 110.129261 197.119825 
L 111.906665 204.421764 
L 113.684069 199.341265 
L 115.461472 189.099996 
L 117.238876 186.262801 
L 119.01628 177.403624 
L 120.793684 181.340849 
L 122.571087 187.548265 
L 124.348491 186.699845 
L 126.125895 184.461507 
L 127.903298 174.793345 
L 129.680702 171.033405 
L 131.458106 177.589292 
L 133.23551 179.852052 
L 135.012913 183.607178 
L 136.790317 194.294657 
L 138.567721 199.244903 
L 140.345124 188.086508 
L 142.122528 190.665401 
L 143.899932 180.047038 
L 145.677335 181.740438 
L 147.454739 179.462747 
L 149.232143 184.955789 
L 151.009547 202.120565 
L 152.78695 202.501153 
L 154.564354 199.607682 
L 156.341758 203.220127 
L 158.119161 209.339996 
L 159.896565 196.675626 
L 161.673969 201.646504 
L 163.451373 205.559309 
L 165.228776 201.183831 
L 167.00618 201.224194 
L 168.783584 208.726056 
L 170.560987 201.990481 
L 172.338391 197.673396 
L 174.115795 193.790521 
L 175.893199 194.474399 
L 177.670602 199.174655 
L 179.448006 193.540122 
L 181.22541 187.87187 
L 183.002813 171.318956 
L 184.780217 179.276621 
L 186.557621 167.012334 
L 188.335025 172.01096 
L 190.112428 172.273854 
L 191.889832 175.694628 
L 193.667236 178.902893 
L 195.444639 158.584401 
L 197.222043 155.588391 
L 198.999447 155.45655 
L 200.77685 150.406081 
L 202.554254 160.333625 
L 204.331658 168.187323 
L 206.109062 177.825758 
L 207.886465 173.610025 
" clip-path="url(#p18387c98ae)" style="fill: none; stroke: #8b0000"/>
   </g>
   <g id="legend_3">
    <g id="patch_13">
     <path d="M 170.540354 176.719646 
L 209.165354 176.719646 
L 209.165354 150.834646 
L 170.540354 150.834646 
z
" style="fill: #ffffff; stroke: #000000; stroke-linejoin: miter"/>
    </g>
    <g id="line2d_75">
     <path d="M 173.740354 157.313396 
L 181.740354 157.313396 
L 189.740354 157.313396 
" style="fill: none; stroke: #ffffe0; stroke-linejoin: miter"/>
    </g>
    <g id="text_37">
     <!-- y3 -->
     <g transform="translate(196.140354 160.113396) scale(0.08 -0.08)">
      <defs>
       <path id="DejaVuSans-33" d="M 2597 2516 
Q 3050 2419 3304 2112 
Q 3559 1806 3559 1356 
Q 3559 666 3084 287 
Q 2609 -91 1734 -91 
Q 1441 -91 1130 -33 
Q 819 25 488 141 
L 488 750 
Q 750 597 1062 519 
Q 1375 441 1716 441 
Q 2309 441 2620 675 
Q 2931 909 2931 1356 
Q 2931 1769 2642 2001 
Q 2353 2234 1838 2234 
L 1294 2234 
L 1294 2753 
L 1863 2753 
Q 2328 2753 2575 2939 
Q 2822 3125 2822 3475 
Q 2822 3834 2567 4026 
Q 2313 4219 1838 4219 
Q 1578 4219 1281 4162 
Q 984 4106 628 3988 
L 628 4550 
Q 988 4650 1302 4700 
Q 1616 4750 1894 4750 
Q 2613 4750 3031 4423 
Q 3450 4097 3450 3541 
Q 3450 3153 3228 2886 
Q 3006 2619 2597 2516 
z
" transform="scale(0.015625)"/>
      </defs>
      <use xlink:href="#DejaVuSans-79"/>
      <use xlink:href="#DejaVuSans-33" transform="translate(59.179688 0)"/>
     </g>
    </g>
    <g id="line2d_76">
     <path d="M 173.740354 169.055896 
L 181.740354 169.055896 
L 189.740354 169.055896 
" style="fill: none; stroke: #8b0000; stroke-linejoin: miter"/>
    </g>
    <g id="text_38">
     <!-- y7 -->
     <g transform="translate(196.140354 171.855896) scale(0.08 -0.08)">
      <use xlink:href="#DejaVuSans-79"/>
      <use xlink:href="#DejaVuSans-37" transform="translate(59.179688 0)"/>
     </g>
    </g>
   </g>
  </g>
  <g id="axes_4">
   <g id="patch_14">
    <path d="M 242.644609 273.025354 
L 429.165354 273.025354 
L 429.165354 146.834646 
L 242.644609 146.834646 
z
"/>
   </g>
   <g id="matplotlib.axis_7">
    <g id="xtick_16">
     <g id="line2d_77">
      <path d="M 246.146094 273.025354 
L 246.146094 146.834646 
" clip-path="url(#p6908a0e075)" style="fill: none; stroke: #000000; stroke-opacity: 0.1; stroke-width: 0.5; stroke-linecap: square"/>
     </g>
     <g id="line2d_78">
      <g>
       <use xlink:href="#m36f3d6a595" x="246.146094" y="273.025354" style="stroke: #000000; stroke-width: 0.5"/>
      </g>
     </g>
     <g id="text_39">
      <!-- $0$ -->
      <g transform="translate(243.586094 282.604104) scale(0.08 -0.08)">
       <use xlink:href="#DejaVuSans-30" transform="translate(0 0.78125)"/>
      </g>
     </g>
    </g>
    <g id="xtick_17">
     <g id="line2d_79">
      <path d="M 290.581187 273.025354 
L 290.581187 146.834646 
" clip-path="url(#p6908a0e075)" style="fill: none; stroke: #000000; stroke-opacity: 0.1; stroke-width: 0.5; stroke-linecap: square"/>
     </g>
     <g id="line2d_80">
      <g>
       <use xlink:href="#m36f3d6a595" x="290.581187" y="273.025354" style="stroke: #000000; stroke-width: 0.5"/>
      </g>
     </g>
     <g id="text_40">
      <!-- $25$ -->
      <g transform="translate(285.461187 282.604104) scale(0.08 -0.08)">
       <use xlink:href="#DejaVuSans-32" transform="translate(0 0.78125)"/>
       <use xlink:href="#DejaVuSans-35" transform="translate(63.623047 0.78125)"/>
      </g>
     </g>
    </g>
    <g id="xtick_18">
     <g id="line2d_81">
      <path d="M 335.01628 273.025354 
L 335.01628 146.834646 
" clip-path="url(#p6908a0e075)" style="fill: none; stroke: #000000; stroke-opacity: 0.1; stroke-width: 0.5; stroke-linecap: square"/>
     </g>
     <g id="line2d_82">
      <g>
       <use xlink:href="#m36f3d6a595" x="335.01628" y="273.025354" style="stroke: #000000; stroke-width: 0.5"/>
      </g>
     </g>
     <g id="text_41">
      <!-- $50$ -->
      <g transform="translate(329.89628 282.604104) scale(0.08 -0.08)">
       <use xlink:href="#DejaVuSans-35" transform="translate(0 0.78125)"/>
       <use xlink:href="#DejaVuSans-30" transform="translate(63.623047 0.78125)"/>
      </g>
     </g>
    </g>
    <g id="xtick_19">
     <g id="line2d_83">
      <path d="M 379.451373 273.025354 
L 379.451373 146.834646 
" clip-path="url(#p6908a0e075)" style="fill: none; stroke: #000000; stroke-opacity: 0.1; stroke-width: 0.5; stroke-linecap: square"/>
     </g>
     <g id="line2d_84">
      <g>
       <use xlink:href="#m36f3d6a595" x="379.451373" y="273.025354" style="stroke: #000000; stroke-width: 0.5"/>
      </g>
     </g>
     <g id="text_42">
      <!-- $75$ -->
      <g transform="translate(374.331373 282.604104) scale(0.08 -0.08)">
       <use xlink:href="#DejaVuSans-37" transform="translate(0 0.09375)"/>
       <use xlink:href="#DejaVuSans-35" transform="translate(63.623047 0.09375)"/>
      </g>
     </g>
    </g>
    <g id="xtick_20">
     <g id="line2d_85">
      <path d="M 423.886465 273.025354 
L 423.886465 146.834646 
" clip-path="url(#p6908a0e075)" style="fill: none; stroke: #000000; stroke-opacity: 0.1; stroke-width: 0.5; stroke-linecap: square"/>
     </g>
     <g id="line2d_86">
      <g>
       <use xlink:href="#m36f3d6a595" x="423.886465" y="273.025354" style="stroke: #000000; stroke-width: 0.5"/>
      </g>
     </g>
     <g id="text_43">
      <!-- $100$ -->
      <g transform="translate(416.246465 282.604104) scale(0.08 -0.08)">
       <use xlink:href="#DejaVuSans-31" transform="translate(0 0.78125)"/>
       <use xlink:href="#DejaVuSans-30" transform="translate(63.623047 0.78125)"/>
       <use xlink:href="#DejaVuSans-30" transform="translate(127.246094 0.78125)"/>
      </g>
     </g>
    </g>
   </g>
   <g id="matplotlib.axis_8">
    <g id="ytick_16">
     <g id="line2d_87">
      <path d="M 242.644609 248.620645 
L 429.165354 248.620645 
" clip-path="url(#p6908a0e075)" style="fill: none; stroke: #000000; stroke-opacity: 0.1; stroke-width: 0.5; stroke-linecap: square"/>
     </g>
     <g id="line2d_88">
      <g>
       <use xlink:href="#m5663731632" x="242.644609" y="248.620645" style="stroke: #000000; stroke-width: 0.5"/>
      </g>
     </g>
     <g id="text_44">
      <!-- $-5.0$ -->
      <g transform="translate(219.704609 251.66002) scale(0.08 -0.08)">
       <use xlink:href="#DejaVuSans-2212" transform="translate(0 0.78125)"/>
       <use xlink:href="#DejaVuSans-35" transform="translate(83.789062 0.78125)"/>
       <use xlink:href="#DejaVuSans-2e" transform="translate(147.412109 0.78125)"/>
       <use xlink:href="#DejaVuSans-30" transform="translate(179.199219 0.78125)"/>
      </g>
     </g>
    </g>
    <g id="ytick_17">
     <g id="line2d_89">
      <path d="M 242.644609 223.045044 
L 429.165354 223.045044 
" clip-path="url(#p6908a0e075)" style="fill: none; stroke: #000000; stroke-opacity: 0.1; stroke-width: 0.5; stroke-linecap: square"/>
     </g>
     <g id="line2d_90">
      <g>
       <use xlink:href="#m5663731632" x="242.644609" y="223.045044" style="stroke: #000000; stroke-width: 0.5"/>
      </g>
     </g>
     <g id="text_45">
      <!-- $-2.5$ -->
      <g transform="translate(219.704609 226.084419) scale(0.08 -0.08)">
       <use xlink:href="#DejaVuSans-2212" transform="translate(0 0.78125)"/>
       <use xlink:href="#DejaVuSans-32" transform="translate(83.789062 0.78125)"/>
       <use xlink:href="#DejaVuSans-2e" transform="translate(147.412109 0.78125)"/>
       <use xlink:href="#DejaVuSans-35" transform="translate(179.199219 0.78125)"/>
      </g>
     </g>
    </g>
    <g id="ytick_18">
     <g id="line2d_91">
      <path d="M 242.644609 197.469443 
L 429.165354 197.469443 
" clip-path="url(#p6908a0e075)" style="fill: none; stroke: #000000; stroke-opacity: 0.1; stroke-width: 0.5; stroke-linecap: square"/>
     </g>
     <g id="line2d_92">
      <g>
       <use xlink:href="#m5663731632" x="242.644609" y="197.469443" style="stroke: #000000; stroke-width: 0.5"/>
      </g>
     </g>
     <g id="text_46">
      <!-- $0.0$ -->
      <g transform="translate(226.344609 200.508818) scale(0.08 -0.08)">
       <use xlink:href="#DejaVuSans-30" transform="translate(0 0.78125)"/>
       <use xlink:href="#DejaVuSans-2e" transform="translate(63.623047 0.78125)"/>
       <use xlink:href="#DejaVuSans-30" transform="translate(95.410156 0.78125)"/>
      </g>
     </g>
    </g>
    <g id="ytick_19">
     <g id="line2d_93">
      <path d="M 242.644609 171.893842 
L 429.165354 171.893842 
" clip-path="url(#p6908a0e075)" style="fill: none; stroke: #000000; stroke-opacity: 0.1; stroke-width: 0.5; stroke-linecap: square"/>
     </g>
     <g id="line2d_94">
      <g>
       <use xlink:href="#m5663731632" x="242.644609" y="171.893842" style="stroke: #000000; stroke-width: 0.5"/>
      </g>
     </g>
     <g id="text_47">
      <!-- $2.5$ -->
      <g transform="translate(226.344609 174.933217) scale(0.08 -0.08)">
       <use xlink:href="#DejaVuSans-32" transform="translate(0 0.78125)"/>
       <use xlink:href="#DejaVuSans-2e" transform="translate(63.623047 0.78125)"/>
       <use xlink:href="#DejaVuSans-35" transform="translate(95.410156 0.78125)"/>
      </g>
     </g>
    </g>
   </g>
   <g id="patch_15">
    <path d="M 242.644609 273.025354 
L 242.644609 146.834646 
" style="fill: none; stroke: #000000; stroke-linejoin: miter; stroke-linecap: square"/>
   </g>
   <g id="patch_16">
    <path d="M 242.644609 273.025354 
L 429.165354 273.025354 
" style="fill: none; stroke: #000000; stroke-linejoin: miter; stroke-linecap: square"/>
   </g>
   <g id="line2d_95">
    <path d="M 247.923498 197.469443 
L 249.700902 210.714877 
L 251.478305 214.222821 
L 253.255709 214.512969 
L 255.033113 202.796108 
L 256.810517 208.459776 
L 258.58792 223.094063 
L 260.365324 220.829541 
L 262.142728 223.359194 
L 263.920131 243.422459 
L 265.697535 228.806476 
L 267.474939 230.131412 
L 269.252343 236.779349 
L 271.029746 230.304241 
L 272.80715 220.338313 
L 274.584554 220.302426 
L 276.361957 216.018068 
L 278.139361 212.126059 
L 279.916765 214.842045 
L 281.694169 214.458636 
L 283.471572 202.604334 
L 285.248976 208.779348 
L 287.02638 192.777523 
L 288.803783 194.181837 
L 290.581187 175.88501 
L 292.358591 187.026836 
L 294.135995 178.845054 
L 295.913398 170.717387 
L 297.690802 186.513523 
L 299.468206 190.037799 
L 301.245609 194.373554 
L 303.023013 208.374948 
L 304.800417 208.453291 
L 306.57782 216.344761 
L 308.355224 225.884157 
L 310.132628 212.420178 
L 311.910032 227.958434 
L 313.687435 230.289167 
L 315.464839 246.088252 
L 317.242243 269.453919 
L 319.019646 238.795673 
L 320.79705 244.181633 
L 322.574454 225.830909 
L 324.351858 239.097552 
L 326.129261 232.581823 
L 327.906665 246.506467 
L 329.684069 242.531744 
L 331.461472 225.828882 
L 333.238876 233.258164 
L 335.01628 225.877663 
L 336.793684 215.878654 
L 338.571087 214.676823 
L 340.348491 220.483497 
L 342.125895 242.865864 
L 343.903298 237.267924 
L 345.680702 237.569436 
L 347.458106 264.365232 
L 349.23551 256.687359 
L 351.012913 252.846274 
L 352.790317 246.535321 
L 354.567721 236.58242 
L 356.345124 251.963946 
L 358.122528 243.084803 
L 359.899932 229.19039 
L 361.677335 225.732925 
L 363.454739 222.474797 
L 365.232143 226.729051 
L 367.009547 215.536489 
L 368.78695 217.012916 
L 370.564354 194.745141 
L 372.341758 183.542653 
L 374.119161 196.166614 
L 375.896565 188.460501 
L 377.673969 195.313721 
L 379.451373 208.438175 
L 381.228776 226.595729 
L 383.00618 220.279117 
L 384.783584 232.999453 
L 386.560987 231.719214 
L 388.338391 223.878544 
L 390.115795 226.609951 
L 391.893199 244.219704 
L 393.670602 231.54126 
L 395.448006 236.33581 
L 397.22541 246.540225 
L 399.002813 262.976148 
L 400.780217 261.843714 
L 402.557621 259.665311 
L 404.335025 245.149599 
L 406.112428 244.638548 
L 407.889832 234.340203 
L 409.667236 207.138212 
L 411.444639 202.437395 
L 413.222043 210.334231 
L 414.999447 213.232704 
L 416.77685 200.453914 
L 418.554254 197.00158 
L 420.331658 197.150004 
L 422.109062 190.615582 
L 423.886465 184.94653 
" clip-path="url(#p6908a0e075)" style="fill: none; stroke: #cc4ccc"/>
   </g>
   <g id="line2d_96">
    <path d="M 247.923498 197.469443 
L 249.700902 198.386452 
L 251.478305 191.449492 
L 253.255709 204.503876 
L 255.033113 204.451486 
L 256.810517 199.223545 
L 258.58792 210.102104 
L 260.365324 187.814559 
L 262.142728 185.42902 
L 263.920131 177.431332 
L 265.697535 177.689815 
L 267.474939 172.561939 
L 269.252343 163.567292 
L 271.029746 163.593645 
L 272.80715 166.146047 
L 274.584554 174.610265 
L 276.361957 187.177727 
L 278.139361 190.345482 
L 279.916765 172.698555 
L 281.694169 186.851798 
L 283.471572 172.175875 
L 285.248976 174.000571 
L 287.02638 160.842202 
L 288.803783 171.645172 
L 290.581187 173.927779 
L 292.358591 169.436078 
L 294.135995 167.021812 
L 295.913398 184.487015 
L 297.690802 195.349182 
L 299.468206 205.801241 
L 301.245609 206.217981 
L 303.023013 225.81578 
L 304.800417 214.457753 
L 306.57782 214.200259 
L 308.355224 216.275308 
L 310.132628 205.50318 
L 311.910032 201.930859 
L 313.687435 209.658273 
L 315.464839 213.152933 
L 317.242243 218.499076 
L 319.019646 198.980088 
L 320.79705 201.582715 
L 322.574454 225.200576 
L 324.351858 218.594563 
L 326.129261 214.324601 
L 327.906665 207.968639 
L 329.684069 221.949833 
L 331.461472 218.826091 
L 333.238876 226.652042 
L 335.01628 225.212269 
L 336.793684 211.51738 
L 338.571087 210.794133 
L 340.348491 199.588455 
L 342.125895 189.762838 
L 343.903298 183.393443 
L 345.680702 185.887419 
L 347.458106 185.542365 
L 349.23551 187.047619 
L 351.012913 177.718767 
L 352.790317 183.502242 
L 354.567721 184.015805 
L 356.345124 192.254322 
L 358.122528 179.120145 
L 359.899932 159.110807 
L 361.677335 157.912776 
L 363.454739 154.882371 
L 365.232143 174.536136 
L 367.009547 165.652187 
L 368.78695 176.508924 
L 370.564354 175.607877 
L 372.341758 179.919759 
L 374.119161 176.60932 
L 375.896565 177.576532 
L 377.673969 179.428009 
L 379.451373 172.826549 
L 381.228776 192.790523 
L 383.00618 207.974408 
L 384.783584 199.795918 
L 386.560987 208.369071 
L 388.338391 204.40022 
L 390.115795 196.768101 
L 391.893199 217.241494 
L 393.670602 218.409024 
L 395.448006 210.921708 
L 397.22541 200.316485 
L 399.002813 199.011225 
L 400.780217 192.048676 
L 402.557621 171.012728 
L 404.335025 169.997004 
L 406.112428 170.334332 
L 407.889832 161.465329 
L 409.667236 153.054992 
L 411.444639 158.78315 
L 413.222043 150.406081 
L 414.999447 155.397106 
L 416.77685 173.980671 
L 418.554254 176.670513 
L 420.331658 202.143744 
L 422.109062 189.042062 
L 423.886465 198.997157 
" clip-path="url(#p6908a0e075)" style="fill: none; stroke: #ff4c4c"/>
   </g>
   <g id="legend_4">
    <g id="patch_17">
     <path d="M 386.540354 176.719646 
L 425.165354 176.719646 
L 425.165354 150.834646 
L 386.540354 150.834646 
z
" style="fill: #ffffff; stroke: #000000; stroke-linejoin: miter"/>
    </g>
    <g id="line2d_97">
     <path d="M 389.740354 157.313396 
L 397.740354 157.313396 
L 405.740354 157.313396 
" style="fill: none; stroke: #cc4ccc; stroke-linejoin: miter"/>
    </g>
    <g id="text_48">
     <!-- y4 -->
     <g transform="translate(412.140354 160.113396) scale(0.08 -0.08)">
      <defs>
       <path id="DejaVuSans-34" d="M 2419 4116 
L 825 1625 
L 2419 1625 
L 2419 4116 
z
M 2253 4666 
L 3047 4666 
L 3047 1625 
L 3713 1625 
L 3713 1100 
L 3047 1100 
L 3047 0 
L 2419 0 
L 2419 1100 
L 313 1100 
L 313 1709 
L 2253 4666 
z
" transform="scale(0.015625)"/>
      </defs>
      <use xlink:href="#DejaVuSans-79"/>
      <use xlink:href="#DejaVuSans-34" transform="translate(59.179688 0)"/>
     </g>
    </g>
    <g id="line2d_98">
     <path d="M 389.740354 169.055896 
L 397.740354 169.055896 
L 405.740354 169.055896 
" style="fill: none; stroke: #ff4c4c; stroke-linejoin: miter"/>
    </g>
    <g id="text_49">
     <!-- y8 -->
     <g transform="translate(412.140354 171.855896) scale(0.08 -0.08)">
      <defs>
       <path id="DejaVuSans-38" d="M 2034 2216 
Q 1584 2216 1326 1975 
Q 1069 1734 1069 1313 
Q 1069 891 1326 650 
Q 1584 409 2034 409 
Q 2484 409 2743 651 
Q 3003 894 3003 1313 
Q 3003 1734 2745 1975 
Q 2488 2216 2034 2216 
z
M 1403 2484 
Q 997 2584 770 2862 
Q 544 3141 544 3541 
Q 544 4100 942 4425 
Q 1341 4750 2034 4750 
Q 2731 4750 3128 4425 
Q 3525 4100 3525 3541 
Q 3525 3141 3298 2862 
Q 3072 2584 2669 2484 
Q 3125 2378 3379 2068 
Q 3634 1759 3634 1313 
Q 3634 634 3220 271 
Q 2806 -91 2034 -91 
Q 1263 -91 848 271 
Q 434 634 434 1313 
Q 434 1759 690 2068 
Q 947 2378 1403 2484 
z
M 1172 3481 
Q 1172 3119 1398 2916 
Q 1625 2713 2034 2713 
Q 2441 2713 2670 2916 
Q 2900 3119 2900 3481 
Q 2900 3844 2670 4047 
Q 2441 4250 2034 4250 
Q 1625 4250 1398 4047 
Q 1172 3844 1172 3481 
z
" transform="scale(0.015625)"/>
      </defs>
      <use xlink:href="#DejaVuSans-79"/>
      <use xlink:href="#DejaVuSans-38" transform="translate(59.179688 0)"/>
     </g>
    </g>
   </g>
  </g>
 </g>
 <defs>
  <clipPath id="p273c9297be">
   <rect x="26.644609" y="2.834646" width="186.520745" height="126.190709"/>
  </clipPath>
  <clipPath id="p389810db30">
   <rect x="242.644609" y="2.834646" width="186.520745" height="126.190709"/>
  </clipPath>
  <clipPath id="p18387c98ae">
   <rect x="26.644609" y="146.834646" width="186.520745" height="126.190709"/>
  </clipPath>
  <clipPath id="p6908a0e075">
   <rect x="242.644609" y="146.834646" width="186.520745" height="126.190709"/>
  </clipPath>
 </defs>
</svg>
