<?xml version="1.0" encoding="utf-8" standalone="no"?>
<!DOCTYPE svg PUBLIC "-//W3C//DTD SVG 1.1//EN"
  "http://www.w3.org/Graphics/SVG/1.1/DTD/svg11.dtd">
<svg xmlns:xlink="http://www.w3.org/1999/xlink" width="432pt" height="288pt" viewBox="0 0 432 288" xmlns="http://www.w3.org/2000/svg" version="1.1">
 <metadata>
  <rdf:RDF xmlns:dc="http://purl.org/dc/elements/1.1/" xmlns:cc="http://creativecommons.org/ns#" xmlns:rdf="http://www.w3.org/1999/02/22-rdf-syntax-ns#">
   <cc:Work>
    <dc:type rdf:resource="http://purl.org/dc/dcmitype/StillImage"/>
    <dc:date>2025-07-09T11:42:13.651779</dc:date>
    <dc:format>image/svg+xml</dc:format>
    <dc:creator>
     <cc:Agent>
      <dc:title>Matplotlib v3.10.3, https://matplotlib.org/</dc:title>
     </cc:Agent>
    </dc:creator>
   </cc:Work>
  </rdf:RDF>
 </metadata>
 <defs>
  <style type="text/css">*{stroke-linejoin: round; stroke-linecap: butt}</style>
 </defs>
 <g id="figure_1">
  <g id="patch_1">
   <path d="M 0 288 
L 432 288 
L 432 0 
L 0 0 
z
" style="fill: #ffffff"/>
  </g>
  <g id="axes_1">
   <g id="patch_2">
    <path d="M 19.963856 273.025354 
L 429.165354 273.025354 
L 429.165354 2.834646 
L 19.963856 2.834646 
z
" style="fill: #ffffff"/>
   </g>
   <g id="matplotlib.axis_1">
    <g id="xtick_1">
     <g id="line2d_1">
      <path d="M 112.81643 273.025354 
L 112.81643 2.834646 
" clip-path="url(#p0dbf49c4ce)" style="fill: none; stroke: #000000; stroke-opacity: 0.1; stroke-width: 0.5; stroke-linecap: square"/>
     </g>
     <g id="line2d_2">
      <defs>
       <path id="m8fbfb11f7f" d="M 0 0 
L 0 -3 
" style="stroke: #000000; stroke-width: 0.5"/>
      </defs>
      <g>
       <use xlink:href="#m8fbfb11f7f" x="112.81643" y="273.025354" style="stroke: #000000; stroke-width: 0.5"/>
      </g>
     </g>
     <g id="text_1">
      <!-- $5$ -->
      <g transform="translate(110.25643 282.604104) scale(0.08 -0.08)">
       <defs>
        <path id="DejaVuSans-35" d="M 691 4666 
L 3169 4666 
L 3169 4134 
L 1269 4134 
L 1269 2991 
Q 1406 3038 1543 3061 
Q 1681 3084 1819 3084 
Q 2600 3084 3056 2656 
Q 3513 2228 3513 1497 
Q 3513 744 3044 326 
Q 2575 -91 1722 -91 
Q 1428 -91 1123 -41 
Q 819 9 494 109 
L 494 744 
Q 775 591 1075 516 
Q 1375 441 1709 441 
Q 2250 441 2565 725 
Q 2881 1009 2881 1497 
Q 2881 1984 2565 2268 
Q 2250 2553 1709 2553 
Q 1456 2553 1204 2497 
Q 953 2441 691 2322 
L 691 4666 
z
" transform="scale(0.015625)"/>
       </defs>
       <use xlink:href="#DejaVuSans-35" transform="translate(0 0.09375)"/>
      </g>
     </g>
    </g>
    <g id="xtick_2">
     <g id="line2d_3">
      <path d="M 214.40568 273.025354 
L 214.40568 2.834646 
" clip-path="url(#p0dbf49c4ce)" style="fill: none; stroke: #000000; stroke-opacity: 0.1; stroke-width: 0.5; stroke-linecap: square"/>
     </g>
     <g id="line2d_4">
      <g>
       <use xlink:href="#m8fbfb11f7f" x="214.40568" y="273.025354" style="stroke: #000000; stroke-width: 0.5"/>
      </g>
     </g>
     <g id="text_2">
      <!-- $10$ -->
      <g transform="translate(209.28568 282.604104) scale(0.08 -0.08)">
       <defs>
        <path id="DejaVuSans-31" d="M 794 531 
L 1825 531 
L 1825 4091 
L 703 3866 
L 703 4441 
L 1819 4666 
L 2450 4666 
L 2450 531 
L 3481 531 
L 3481 0 
L 794 0 
L 794 531 
z
" transform="scale(0.015625)"/>
        <path id="DejaVuSans-30" d="M 2034 4250 
Q 1547 4250 1301 3770 
Q 1056 3291 1056 2328 
Q 1056 1369 1301 889 
Q 1547 409 2034 409 
Q 2525 409 2770 889 
Q 3016 1369 3016 2328 
Q 3016 3291 2770 3770 
Q 2525 4250 2034 4250 
z
M 2034 4750 
Q 2819 4750 3233 4129 
Q 3647 3509 3647 2328 
Q 3647 1150 3233 529 
Q 2819 -91 2034 -91 
Q 1250 -91 836 529 
Q 422 1150 422 2328 
Q 422 3509 836 4129 
Q 1250 4750 2034 4750 
z
" transform="scale(0.015625)"/>
       </defs>
       <use xlink:href="#DejaVuSans-31" transform="translate(0 0.78125)"/>
       <use xlink:href="#DejaVuSans-30" transform="translate(63.623047 0.78125)"/>
      </g>
     </g>
    </g>
    <g id="xtick_3">
     <g id="line2d_5">
      <path d="M 315.99493 273.025354 
L 315.99493 2.834646 
" clip-path="url(#p0dbf49c4ce)" style="fill: none; stroke: #000000; stroke-opacity: 0.1; stroke-width: 0.5; stroke-linecap: square"/>
     </g>
     <g id="line2d_6">
      <g>
       <use xlink:href="#m8fbfb11f7f" x="315.99493" y="273.025354" style="stroke: #000000; stroke-width: 0.5"/>
      </g>
     </g>
     <g id="text_3">
      <!-- $15$ -->
      <g transform="translate(310.87493 282.604104) scale(0.08 -0.08)">
       <use xlink:href="#DejaVuSans-31" transform="translate(0 0.09375)"/>
       <use xlink:href="#DejaVuSans-35" transform="translate(63.623047 0.09375)"/>
      </g>
     </g>
    </g>
    <g id="xtick_4">
     <g id="line2d_7">
      <path d="M 417.58418 273.025354 
L 417.58418 2.834646 
" clip-path="url(#p0dbf49c4ce)" style="fill: none; stroke: #000000; stroke-opacity: 0.1; stroke-width: 0.5; stroke-linecap: square"/>
     </g>
     <g id="line2d_8">
      <g>
       <use xlink:href="#m8fbfb11f7f" x="417.58418" y="273.025354" style="stroke: #000000; stroke-width: 0.5"/>
      </g>
     </g>
     <g id="text_4">
      <!-- $20$ -->
      <g transform="translate(412.46418 282.604104) scale(0.08 -0.08)">
       <defs>
        <path id="DejaVuSans-32" d="M 1228 531 
L 3431 531 
L 3431 0 
L 469 0 
L 469 531 
Q 828 903 1448 1529 
Q 2069 2156 2228 2338 
Q 2531 2678 2651 2914 
Q 2772 3150 2772 3378 
Q 2772 3750 2511 3984 
Q 2250 4219 1831 4219 
Q 1534 4219 1204 4116 
Q 875 4013 500 3803 
L 500 4441 
Q 881 4594 1212 4672 
Q 1544 4750 1819 4750 
Q 2544 4750 2975 4387 
Q 3406 4025 3406 3419 
Q 3406 3131 3298 2873 
Q 3191 2616 2906 2266 
Q 2828 2175 2409 1742 
Q 1991 1309 1228 531 
z
" transform="scale(0.015625)"/>
       </defs>
       <use xlink:href="#DejaVuSans-32" transform="translate(0 0.78125)"/>
       <use xlink:href="#DejaVuSans-30" transform="translate(63.623047 0.78125)"/>
      </g>
     </g>
    </g>
   </g>
   <g id="matplotlib.axis_2">
    <g id="ytick_1">
     <g id="line2d_9">
      <path d="M 19.963856 214.866818 
L 429.165354 214.866818 
" clip-path="url(#p0dbf49c4ce)" style="fill: none; stroke: #000000; stroke-opacity: 0.1; stroke-width: 0.5; stroke-linecap: square"/>
     </g>
     <g id="line2d_10">
      <defs>
       <path id="md43cd20455" d="M 0 0 
L 3 0 
" style="stroke: #000000; stroke-width: 0.5"/>
      </defs>
      <g>
       <use xlink:href="#md43cd20455" x="19.963856" y="214.866818" style="stroke: #000000; stroke-width: 0.5"/>
      </g>
     </g>
     <g id="text_5">
      <!-- $0.2$ -->
      <g transform="translate(4.143856 217.906193) scale(0.08 -0.08)">
       <defs>
        <path id="DejaVuSans-2e" d="M 684 794 
L 1344 794 
L 1344 0 
L 684 0 
L 684 794 
z
" transform="scale(0.015625)"/>
       </defs>
       <use xlink:href="#DejaVuSans-30" transform="translate(0 0.78125)"/>
       <use xlink:href="#DejaVuSans-2e" transform="translate(63.623047 0.78125)"/>
       <use xlink:href="#DejaVuSans-32" transform="translate(89.910156 0.78125)"/>
      </g>
     </g>
    </g>
    <g id="ytick_2">
     <g id="line2d_11">
      <path d="M 19.963856 153.991659 
L 429.165354 153.991659 
" clip-path="url(#p0dbf49c4ce)" style="fill: none; stroke: #000000; stroke-opacity: 0.1; stroke-width: 0.5; stroke-linecap: square"/>
     </g>
     <g id="line2d_12">
      <g>
       <use xlink:href="#md43cd20455" x="19.963856" y="153.991659" style="stroke: #000000; stroke-width: 0.5"/>
      </g>
     </g>
     <g id="text_6">
      <!-- $0.4$ -->
      <g transform="translate(3.663856 157.031034) scale(0.08 -0.08)">
       <defs>
        <path id="DejaVuSans-34" d="M 2419 4116 
L 825 1625 
L 2419 1625 
L 2419 4116 
z
M 2253 4666 
L 3047 4666 
L 3047 1625 
L 3713 1625 
L 3713 1100 
L 3047 1100 
L 3047 0 
L 2419 0 
L 2419 1100 
L 313 1100 
L 313 1709 
L 2253 4666 
z
" transform="scale(0.015625)"/>
       </defs>
       <use xlink:href="#DejaVuSans-30" transform="translate(0 0.78125)"/>
       <use xlink:href="#DejaVuSans-2e" transform="translate(63.623047 0.78125)"/>
       <use xlink:href="#DejaVuSans-34" transform="translate(95.410156 0.78125)"/>
      </g>
     </g>
    </g>
    <g id="ytick_3">
     <g id="line2d_13">
      <path d="M 19.963856 93.116501 
L 429.165354 93.116501 
" clip-path="url(#p0dbf49c4ce)" style="fill: none; stroke: #000000; stroke-opacity: 0.1; stroke-width: 0.5; stroke-linecap: square"/>
     </g>
     <g id="line2d_14">
      <g>
       <use xlink:href="#md43cd20455" x="19.963856" y="93.116501" style="stroke: #000000; stroke-width: 0.5"/>
      </g>
     </g>
     <g id="text_7">
      <!-- $0.6$ -->
      <g transform="translate(3.663856 96.155876) scale(0.08 -0.08)">
       <defs>
        <path id="DejaVuSans-36" d="M 2113 2584 
Q 1688 2584 1439 2293 
Q 1191 2003 1191 1497 
Q 1191 994 1439 701 
Q 1688 409 2113 409 
Q 2538 409 2786 701 
Q 3034 994 3034 1497 
Q 3034 2003 2786 2293 
Q 2538 2584 2113 2584 
z
M 3366 4563 
L 3366 3988 
Q 3128 4100 2886 4159 
Q 2644 4219 2406 4219 
Q 1781 4219 1451 3797 
Q 1122 3375 1075 2522 
Q 1259 2794 1537 2939 
Q 1816 3084 2150 3084 
Q 2853 3084 3261 2657 
Q 3669 2231 3669 1497 
Q 3669 778 3244 343 
Q 2819 -91 2113 -91 
Q 1303 -91 875 529 
Q 447 1150 447 2328 
Q 447 3434 972 4092 
Q 1497 4750 2381 4750 
Q 2619 4750 2861 4703 
Q 3103 4656 3366 4563 
z
" transform="scale(0.015625)"/>
       </defs>
       <use xlink:href="#DejaVuSans-30" transform="translate(0 0.78125)"/>
       <use xlink:href="#DejaVuSans-2e" transform="translate(63.623047 0.78125)"/>
       <use xlink:href="#DejaVuSans-36" transform="translate(95.410156 0.78125)"/>
      </g>
     </g>
    </g>
    <g id="ytick_4">
     <g id="line2d_15">
      <path d="M 19.963856 32.241342 
L 429.165354 32.241342 
" clip-path="url(#p0dbf49c4ce)" style="fill: none; stroke: #000000; stroke-opacity: 0.1; stroke-width: 0.5; stroke-linecap: square"/>
     </g>
     <g id="line2d_16">
      <g>
       <use xlink:href="#md43cd20455" x="19.963856" y="32.241342" style="stroke: #000000; stroke-width: 0.5"/>
      </g>
     </g>
     <g id="text_8">
      <!-- $0.8$ -->
      <g transform="translate(3.903856 35.280717) scale(0.08 -0.08)">
       <defs>
        <path id="DejaVuSans-38" d="M 2034 2216 
Q 1584 2216 1326 1975 
Q 1069 1734 1069 1313 
Q 1069 891 1326 650 
Q 1584 409 2034 409 
Q 2484 409 2743 651 
Q 3003 894 3003 1313 
Q 3003 1734 2745 1975 
Q 2488 2216 2034 2216 
z
M 1403 2484 
Q 997 2584 770 2862 
Q 544 3141 544 3541 
Q 544 4100 942 4425 
Q 1341 4750 2034 4750 
Q 2731 4750 3128 4425 
Q 3525 4100 3525 3541 
Q 3525 3141 3298 2862 
Q 3072 2584 2669 2484 
Q 3125 2378 3379 2068 
Q 3634 1759 3634 1313 
Q 3634 634 3220 271 
Q 2806 -91 2034 -91 
Q 1263 -91 848 271 
Q 434 634 434 1313 
Q 434 1759 690 2068 
Q 947 2378 1403 2484 
z
M 1172 3481 
Q 1172 3119 1398 2916 
Q 1625 2713 2034 2713 
Q 2441 2713 2670 2916 
Q 2900 3119 2900 3481 
Q 2900 3844 2670 4047 
Q 2441 4250 2034 4250 
Q 1625 4250 1398 4047 
Q 1172 3844 1172 3481 
z
" transform="scale(0.015625)"/>
       </defs>
       <use xlink:href="#DejaVuSans-30" transform="translate(0 0.78125)"/>
       <use xlink:href="#DejaVuSans-2e" transform="translate(63.623047 0.78125)"/>
       <use xlink:href="#DejaVuSans-38" transform="translate(92.785156 0.78125)"/>
      </g>
     </g>
    </g>
   </g>
   <g id="line2d_17">
    <path d="M 31.54503 88.492868 
L 51.86288 78.165516 
L 72.18073 36.794327 
L 92.49858 76.724857 
L 112.81643 124.909991 
L 133.13428 46.23606 
L 153.45213 254.483562 
L 173.76998 257.813671 
L 194.08783 32.184156 
L 214.40568 10.481553 
" clip-path="url(#p0dbf49c4ce)" style="fill: none; stroke-dasharray: 4,6.6; stroke-dashoffset: 0; stroke: #000000; stroke-width: 4"/>
   </g>
   <g id="PathCollection_1">
    <defs>
     <path id="mf13c5b0676" d="M 0 -6 
L -5.196152 -3 
L -5.196152 3 
L -0 6 
L 5.196152 3 
L 5.196152 -3 
z
" style="stroke: #808080; stroke-opacity: 0.8; stroke-width: 3"/>
    </defs>
    <g clip-path="url(#p0dbf49c4ce)">
     <use xlink:href="#mf13c5b0676" x="31.54503" y="88.492868" style="fill-opacity: 0.8; stroke: #808080; stroke-opacity: 0.8; stroke-width: 3"/>
     <use xlink:href="#mf13c5b0676" x="51.86288" y="78.165516" style="fill-opacity: 0.8; stroke: #808080; stroke-opacity: 0.8; stroke-width: 3"/>
     <use xlink:href="#mf13c5b0676" x="72.18073" y="36.794327" style="fill-opacity: 0.8; stroke: #808080; stroke-opacity: 0.8; stroke-width: 3"/>
     <use xlink:href="#mf13c5b0676" x="92.49858" y="76.724857" style="fill-opacity: 0.8; stroke: #808080; stroke-opacity: 0.8; stroke-width: 3"/>
     <use xlink:href="#mf13c5b0676" x="112.81643" y="124.909991" style="fill-opacity: 0.8; stroke: #808080; stroke-opacity: 0.8; stroke-width: 3"/>
     <use xlink:href="#mf13c5b0676" x="133.13428" y="46.23606" style="fill-opacity: 0.8; stroke: #808080; stroke-opacity: 0.8; stroke-width: 3"/>
     <use xlink:href="#mf13c5b0676" x="153.45213" y="254.483562" style="fill-opacity: 0.8; stroke: #808080; stroke-opacity: 0.8; stroke-width: 3"/>
     <use xlink:href="#mf13c5b0676" x="173.76998" y="257.813671" style="fill-opacity: 0.8; stroke: #808080; stroke-opacity: 0.8; stroke-width: 3"/>
     <use xlink:href="#mf13c5b0676" x="194.08783" y="32.184156" style="fill-opacity: 0.8; stroke: #808080; stroke-opacity: 0.8; stroke-width: 3"/>
     <use xlink:href="#mf13c5b0676" x="214.40568" y="10.481553" style="fill-opacity: 0.8; stroke: #808080; stroke-opacity: 0.8; stroke-width: 3"/>
    </g>
   </g>
   <g id="line2d_18">
    <path d="M 31.54503 63.038205 
L 51.86288 36.156759 
L 72.18073 121.067888 
L 92.49858 155.867854 
L 112.81643 158.531554 
L 133.13428 109.97943 
L 153.45213 216.005539 
L 173.76998 184.511937 
L 194.08783 251.497171 
L 214.40568 247.392177 
L 234.72353 104.275307 
L 255.04138 263.26667 
L 275.35923 85.504007 
L 295.67708 251.792532 
L 315.99493 100.494539 
L 336.31278 237.115396 
L 356.63063 121.274138 
L 376.94848 121.446043 
L 397.26633 204.390592 
L 417.58418 265.378447 
" clip-path="url(#p0dbf49c4ce)" style="fill: none; stroke-dasharray: 4,6.6; stroke-dashoffset: 0; stroke: #ffa500; stroke-width: 4"/>
   </g>
   <g id="PathCollection_2">
    <defs>
     <path id="mb3c971cbe4" d="M -0 8.485281 
L 8.485281 0 
L 0 -8.485281 
L -8.485281 -0 
z
" style="stroke: #808080; stroke-opacity: 0.8; stroke-width: 3"/>
    </defs>
    <g clip-path="url(#p0dbf49c4ce)">
     <use xlink:href="#mb3c971cbe4" x="31.54503" y="63.038205" style="fill: #ffa500; fill-opacity: 0.8; stroke: #808080; stroke-opacity: 0.8; stroke-width: 3"/>
     <use xlink:href="#mb3c971cbe4" x="51.86288" y="36.156759" style="fill: #ffa500; fill-opacity: 0.8; stroke: #808080; stroke-opacity: 0.8; stroke-width: 3"/>
     <use xlink:href="#mb3c971cbe4" x="72.18073" y="121.067888" style="fill: #ffa500; fill-opacity: 0.8; stroke: #808080; stroke-opacity: 0.8; stroke-width: 3"/>
     <use xlink:href="#mb3c971cbe4" x="92.49858" y="155.867854" style="fill: #ffa500; fill-opacity: 0.8; stroke: #808080; stroke-opacity: 0.8; stroke-width: 3"/>
     <use xlink:href="#mb3c971cbe4" x="112.81643" y="158.531554" style="fill: #ffa500; fill-opacity: 0.8; stroke: #808080; stroke-opacity: 0.8; stroke-width: 3"/>
     <use xlink:href="#mb3c971cbe4" x="133.13428" y="109.97943" style="fill: #ffa500; fill-opacity: 0.8; stroke: #808080; stroke-opacity: 0.8; stroke-width: 3"/>
     <use xlink:href="#mb3c971cbe4" x="153.45213" y="216.005539" style="fill: #ffa500; fill-opacity: 0.8; stroke: #808080; stroke-opacity: 0.8; stroke-width: 3"/>
     <use xlink:href="#mb3c971cbe4" x="173.76998" y="184.511937" style="fill: #ffa500; fill-opacity: 0.8; stroke: #808080; stroke-opacity: 0.8; stroke-width: 3"/>
     <use xlink:href="#mb3c971cbe4" x="194.08783" y="251.497171" style="fill: #ffa500; fill-opacity: 0.8; stroke: #808080; stroke-opacity: 0.8; stroke-width: 3"/>
     <use xlink:href="#mb3c971cbe4" x="214.40568" y="247.392177" style="fill: #ffa500; fill-opacity: 0.8; stroke: #808080; stroke-opacity: 0.8; stroke-width: 3"/>
     <use xlink:href="#mb3c971cbe4" x="234.72353" y="104.275307" style="fill: #ffa500; fill-opacity: 0.8; stroke: #808080; stroke-opacity: 0.8; stroke-width: 3"/>
     <use xlink:href="#mb3c971cbe4" x="255.04138" y="263.26667" style="fill: #ffa500; fill-opacity: 0.8; stroke: #808080; stroke-opacity: 0.8; stroke-width: 3"/>
     <use xlink:href="#mb3c971cbe4" x="275.35923" y="85.504007" style="fill: #ffa500; fill-opacity: 0.8; stroke: #808080; stroke-opacity: 0.8; stroke-width: 3"/>
     <use xlink:href="#mb3c971cbe4" x="295.67708" y="251.792532" style="fill: #ffa500; fill-opacity: 0.8; stroke: #808080; stroke-opacity: 0.8; stroke-width: 3"/>
     <use xlink:href="#mb3c971cbe4" x="315.99493" y="100.494539" style="fill: #ffa500; fill-opacity: 0.8; stroke: #808080; stroke-opacity: 0.8; stroke-width: 3"/>
     <use xlink:href="#mb3c971cbe4" x="336.31278" y="237.115396" style="fill: #ffa500; fill-opacity: 0.8; stroke: #808080; stroke-opacity: 0.8; stroke-width: 3"/>
     <use xlink:href="#mb3c971cbe4" x="356.63063" y="121.274138" style="fill: #ffa500; fill-opacity: 0.8; stroke: #808080; stroke-opacity: 0.8; stroke-width: 3"/>
     <use xlink:href="#mb3c971cbe4" x="376.94848" y="121.446043" style="fill: #ffa500; fill-opacity: 0.8; stroke: #808080; stroke-opacity: 0.8; stroke-width: 3"/>
     <use xlink:href="#mb3c971cbe4" x="397.26633" y="204.390592" style="fill: #ffa500; fill-opacity: 0.8; stroke: #808080; stroke-opacity: 0.8; stroke-width: 3"/>
     <use xlink:href="#mb3c971cbe4" x="417.58418" y="265.378447" style="fill: #ffa500; fill-opacity: 0.8; stroke: #808080; stroke-opacity: 0.8; stroke-width: 3"/>
    </g>
   </g>
   <g id="patch_3">
    <path d="M 19.963856 273.025354 
L 19.963856 2.834646 
" style="fill: none; stroke: #000000; stroke-linejoin: miter; stroke-linecap: square"/>
   </g>
   <g id="patch_4">
    <path d="M 19.963856 273.025354 
L 429.165354 273.025354 
" style="fill: none; stroke: #000000; stroke-linejoin: miter; stroke-linecap: square"/>
   </g>
   <g id="legend_1">
    <g id="patch_5">
     <path d="M 386.540354 32.719646 
L 425.165354 32.719646 
L 425.165354 6.834646 
L 386.540354 6.834646 
z
" style="fill: #ffffff; stroke: #000000; stroke-linejoin: miter"/>
    </g>
    <g id="line2d_19">
     <path d="M 389.740354 13.313396 
L 397.740354 13.313396 
L 405.740354 13.313396 
" style="fill: none; stroke-dasharray: 1,1.65; stroke-dashoffset: 0; stroke: #000000; stroke-linejoin: miter"/>
     <defs>
      <path id="m77e9faee5e" d="M 0 -3.2 
L -2.771281 -1.6 
L -2.771281 1.6 
L -0 3.2 
L 2.771281 1.6 
L 2.771281 -1.6 
z
" style="stroke: #808080; stroke-opacity: 0.8; stroke-width: 1.6; stroke-linejoin: miter"/>
     </defs>
     <g>
      <use xlink:href="#m77e9faee5e" x="397.740354" y="13.313396" style="fill-opacity: 0.8; stroke: #808080; stroke-opacity: 0.8; stroke-width: 1.6; stroke-linejoin: miter"/>
     </g>
    </g>
    <g id="text_9">
     <!-- y1 -->
     <g transform="translate(412.140354 16.113396) scale(0.08 -0.08)">
      <defs>
       <path id="DejaVuSans-79" d="M 2059 -325 
Q 1816 -950 1584 -1140 
Q 1353 -1331 966 -1331 
L 506 -1331 
L 506 -850 
L 844 -850 
Q 1081 -850 1212 -737 
Q 1344 -625 1503 -206 
L 1606 56 
L 191 3500 
L 800 3500 
L 1894 763 
L 2988 3500 
L 3597 3500 
L 2059 -325 
z
" transform="scale(0.015625)"/>
      </defs>
      <use xlink:href="#DejaVuSans-79"/>
      <use xlink:href="#DejaVuSans-31" transform="translate(59.179688 0)"/>
     </g>
    </g>
    <g id="line2d_20">
     <path d="M 389.740354 25.055896 
L 397.740354 25.055896 
L 405.740354 25.055896 
" style="fill: none; stroke-dasharray: 1,1.65; stroke-dashoffset: 0; stroke: #ffa500; stroke-linejoin: miter"/>
     <defs>
      <path id="m1a21787527" d="M -0 4.525483 
L 4.525483 0 
L 0 -4.525483 
L -4.525483 -0 
z
" style="stroke: #808080; stroke-opacity: 0.8; stroke-width: 1.6; stroke-linejoin: miter"/>
     </defs>
     <g>
      <use xlink:href="#m1a21787527" x="397.740354" y="25.055896" style="fill: #ffa500; fill-opacity: 0.8; stroke: #808080; stroke-opacity: 0.8; stroke-width: 1.6; stroke-linejoin: miter"/>
     </g>
    </g>
    <g id="text_10">
     <!-- y2 -->
     <g transform="translate(412.140354 27.855896) scale(0.08 -0.08)">
      <use xlink:href="#DejaVuSans-79"/>
      <use xlink:href="#DejaVuSans-32" transform="translate(59.179688 0)"/>
     </g>
    </g>
   </g>
  </g>
 </g>
 <defs>
  <clipPath id="p0dbf49c4ce">
   <rect x="19.963856" y="2.834646" width="409.201498" height="270.190709"/>
  </clipPath>
 </defs>
</svg>
