<?xml version="1.0" encoding="utf-8" standalone="no"?>
<!DOCTYPE svg PUBLIC "-//W3C//DTD SVG 1.1//EN"
  "http://www.w3.org/Graphics/SVG/1.1/DTD/svg11.dtd">
<svg xmlns:xlink="http://www.w3.org/1999/xlink" width="432pt" height="288pt" viewBox="0 0 432 288" xmlns="http://www.w3.org/2000/svg" version="1.1">
 <metadata>
  <rdf:RDF xmlns:dc="http://purl.org/dc/elements/1.1/" xmlns:cc="http://creativecommons.org/ns#" xmlns:rdf="http://www.w3.org/1999/02/22-rdf-syntax-ns#">
   <cc:Work>
    <dc:type rdf:resource="http://purl.org/dc/dcmitype/StillImage"/>
    <dc:date>2025-07-09T11:42:14.101458</dc:date>
    <dc:format>image/svg+xml</dc:format>
    <dc:creator>
     <cc:Agent>
      <dc:title>Matplotlib v3.10.3, https://matplotlib.org/</dc:title>
     </cc:Agent>
    </dc:creator>
   </cc:Work>
  </rdf:RDF>
 </metadata>
 <defs>
  <style type="text/css">*{stroke-linejoin: round; stroke-linecap: butt}</style>
 </defs>
 <g id="figure_1">
  <g id="patch_1">
   <path d="M 0 288 
L 432 288 
L 432 0 
L 0 0 
z
" style="fill: #ffffff"/>
  </g>
  <g id="axes_1">
   <g id="patch_2">
    <path d="M 19.941356 273.025354 
L 429.165354 273.025354 
L 429.165354 2.834646 
L 19.941356 2.834646 
z
" style="fill: #ffffff"/>
   </g>
   <g id="matplotlib.axis_1">
    <g id="xtick_1">
     <g id="line2d_1">
      <path d="M 27.623567 273.025354 
L 27.623567 2.834646 
" clip-path="url(#p074b9f25f8)" style="fill: none; stroke: #000000; stroke-opacity: 0.1; stroke-width: 0.5; stroke-linecap: square"/>
     </g>
     <g id="line2d_2">
      <defs>
       <path id="m960bb9615c" d="M 0 0 
L 0 -3 
" style="stroke: #000000; stroke-width: 0.5"/>
      </defs>
      <g>
       <use xlink:href="#m960bb9615c" x="27.623567" y="273.025354" style="stroke: #000000; stroke-width: 0.5"/>
      </g>
     </g>
     <g id="text_1">
      <!-- $0$ -->
      <g transform="translate(25.063567 282.604104) scale(0.08 -0.08)">
       <defs>
        <path id="DejaVuSans-30" d="M 2034 4250 
Q 1547 4250 1301 3770 
Q 1056 3291 1056 2328 
Q 1056 1369 1301 889 
Q 1547 409 2034 409 
Q 2525 409 2770 889 
Q 3016 1369 3016 2328 
Q 3016 3291 2770 3770 
Q 2525 4250 2034 4250 
z
M 2034 4750 
Q 2819 4750 3233 4129 
Q 3647 3509 3647 2328 
Q 3647 1150 3233 529 
Q 2819 -91 2034 -91 
Q 1250 -91 836 529 
Q 422 1150 422 2328 
Q 422 3509 836 4129 
Q 1250 4750 2034 4750 
z
" transform="scale(0.015625)"/>
       </defs>
       <use xlink:href="#DejaVuSans-30" transform="translate(0 0.78125)"/>
      </g>
     </g>
    </g>
    <g id="xtick_2">
     <g id="line2d_3">
      <path d="M 125.113561 273.025354 
L 125.113561 2.834646 
" clip-path="url(#p074b9f25f8)" style="fill: none; stroke: #000000; stroke-opacity: 0.1; stroke-width: 0.5; stroke-linecap: square"/>
     </g>
     <g id="line2d_4">
      <g>
       <use xlink:href="#m960bb9615c" x="125.113561" y="273.025354" style="stroke: #000000; stroke-width: 0.5"/>
      </g>
     </g>
     <g id="text_2">
      <!-- $25$ -->
      <g transform="translate(119.993561 282.604104) scale(0.08 -0.08)">
       <defs>
        <path id="DejaVuSans-32" d="M 1228 531 
L 3431 531 
L 3431 0 
L 469 0 
L 469 531 
Q 828 903 1448 1529 
Q 2069 2156 2228 2338 
Q 2531 2678 2651 2914 
Q 2772 3150 2772 3378 
Q 2772 3750 2511 3984 
Q 2250 4219 1831 4219 
Q 1534 4219 1204 4116 
Q 875 4013 500 3803 
L 500 4441 
Q 881 4594 1212 4672 
Q 1544 4750 1819 4750 
Q 2544 4750 2975 4387 
Q 3406 4025 3406 3419 
Q 3406 3131 3298 2873 
Q 3191 2616 2906 2266 
Q 2828 2175 2409 1742 
Q 1991 1309 1228 531 
z
" transform="scale(0.015625)"/>
        <path id="DejaVuSans-35" d="M 691 4666 
L 3169 4666 
L 3169 4134 
L 1269 4134 
L 1269 2991 
Q 1406 3038 1543 3061 
Q 1681 3084 1819 3084 
Q 2600 3084 3056 2656 
Q 3513 2228 3513 1497 
Q 3513 744 3044 326 
Q 2575 -91 1722 -91 
Q 1428 -91 1123 -41 
Q 819 9 494 109 
L 494 744 
Q 775 591 1075 516 
Q 1375 441 1709 441 
Q 2250 441 2565 725 
Q 2881 1009 2881 1497 
Q 2881 1984 2565 2268 
Q 2250 2553 1709 2553 
Q 1456 2553 1204 2497 
Q 953 2441 691 2322 
L 691 4666 
z
" transform="scale(0.015625)"/>
       </defs>
       <use xlink:href="#DejaVuSans-32" transform="translate(0 0.78125)"/>
       <use xlink:href="#DejaVuSans-35" transform="translate(63.623047 0.78125)"/>
      </g>
     </g>
    </g>
    <g id="xtick_3">
     <g id="line2d_5">
      <path d="M 222.603555 273.025354 
L 222.603555 2.834646 
" clip-path="url(#p074b9f25f8)" style="fill: none; stroke: #000000; stroke-opacity: 0.1; stroke-width: 0.5; stroke-linecap: square"/>
     </g>
     <g id="line2d_6">
      <g>
       <use xlink:href="#m960bb9615c" x="222.603555" y="273.025354" style="stroke: #000000; stroke-width: 0.5"/>
      </g>
     </g>
     <g id="text_3">
      <!-- $50$ -->
      <g transform="translate(217.483555 282.604104) scale(0.08 -0.08)">
       <use xlink:href="#DejaVuSans-35" transform="translate(0 0.78125)"/>
       <use xlink:href="#DejaVuSans-30" transform="translate(63.623047 0.78125)"/>
      </g>
     </g>
    </g>
    <g id="xtick_4">
     <g id="line2d_7">
      <path d="M 320.093549 273.025354 
L 320.093549 2.834646 
" clip-path="url(#p074b9f25f8)" style="fill: none; stroke: #000000; stroke-opacity: 0.1; stroke-width: 0.5; stroke-linecap: square"/>
     </g>
     <g id="line2d_8">
      <g>
       <use xlink:href="#m960bb9615c" x="320.093549" y="273.025354" style="stroke: #000000; stroke-width: 0.5"/>
      </g>
     </g>
     <g id="text_4">
      <!-- $75$ -->
      <g transform="translate(314.973549 282.604104) scale(0.08 -0.08)">
       <defs>
        <path id="DejaVuSans-37" d="M 525 4666 
L 3525 4666 
L 3525 4397 
L 1831 0 
L 1172 0 
L 2766 4134 
L 525 4134 
L 525 4666 
z
" transform="scale(0.015625)"/>
       </defs>
       <use xlink:href="#DejaVuSans-37" transform="translate(0 0.09375)"/>
       <use xlink:href="#DejaVuSans-35" transform="translate(63.623047 0.09375)"/>
      </g>
     </g>
    </g>
    <g id="xtick_5">
     <g id="line2d_9">
      <path d="M 417.583543 273.025354 
L 417.583543 2.834646 
" clip-path="url(#p074b9f25f8)" style="fill: none; stroke: #000000; stroke-opacity: 0.1; stroke-width: 0.5; stroke-linecap: square"/>
     </g>
     <g id="line2d_10">
      <g>
       <use xlink:href="#m960bb9615c" x="417.583543" y="273.025354" style="stroke: #000000; stroke-width: 0.5"/>
      </g>
     </g>
     <g id="text_5">
      <!-- $100$ -->
      <g transform="translate(409.943543 282.604104) scale(0.08 -0.08)">
       <defs>
        <path id="DejaVuSans-31" d="M 794 531 
L 1825 531 
L 1825 4091 
L 703 3866 
L 703 4441 
L 1819 4666 
L 2450 4666 
L 2450 531 
L 3481 531 
L 3481 0 
L 794 0 
L 794 531 
z
" transform="scale(0.015625)"/>
       </defs>
       <use xlink:href="#DejaVuSans-31" transform="translate(0 0.78125)"/>
       <use xlink:href="#DejaVuSans-30" transform="translate(63.623047 0.78125)"/>
       <use xlink:href="#DejaVuSans-30" transform="translate(127.246094 0.78125)"/>
      </g>
     </g>
    </g>
   </g>
   <g id="matplotlib.axis_2">
    <g id="ytick_1">
     <g id="line2d_11">
      <path d="M 19.941356 265.378447 
L 429.165354 265.378447 
" clip-path="url(#p074b9f25f8)" style="fill: none; stroke: #000000; stroke-opacity: 0.1; stroke-width: 0.5; stroke-linecap: square"/>
     </g>
     <g id="line2d_12">
      <defs>
       <path id="mf715587674" d="M 0 0 
L 3 0 
" style="stroke: #000000; stroke-width: 0.5"/>
      </defs>
      <g>
       <use xlink:href="#mf715587674" x="19.941356" y="265.378447" style="stroke: #000000; stroke-width: 0.5"/>
      </g>
     </g>
     <g id="text_6">
      <!-- $0.0$ -->
      <g transform="translate(3.641356 268.417822) scale(0.08 -0.08)">
       <defs>
        <path id="DejaVuSans-2e" d="M 684 794 
L 1344 794 
L 1344 0 
L 684 0 
L 684 794 
z
" transform="scale(0.015625)"/>
       </defs>
       <use xlink:href="#DejaVuSans-30" transform="translate(0 0.78125)"/>
       <use xlink:href="#DejaVuSans-2e" transform="translate(63.623047 0.78125)"/>
       <use xlink:href="#DejaVuSans-30" transform="translate(95.410156 0.78125)"/>
      </g>
     </g>
    </g>
    <g id="ytick_2">
     <g id="line2d_13">
      <path d="M 19.941356 187.53769 
L 429.165354 187.53769 
" clip-path="url(#p074b9f25f8)" style="fill: none; stroke: #000000; stroke-opacity: 0.1; stroke-width: 0.5; stroke-linecap: square"/>
     </g>
     <g id="line2d_14">
      <g>
       <use xlink:href="#mf715587674" x="19.941356" y="187.53769" style="stroke: #000000; stroke-width: 0.5"/>
      </g>
     </g>
     <g id="text_7">
      <!-- $0.1$ -->
      <g transform="translate(3.641356 190.577065) scale(0.08 -0.08)">
       <use xlink:href="#DejaVuSans-30" transform="translate(0 0.78125)"/>
       <use xlink:href="#DejaVuSans-2e" transform="translate(63.623047 0.78125)"/>
       <use xlink:href="#DejaVuSans-31" transform="translate(95.410156 0.78125)"/>
      </g>
     </g>
    </g>
    <g id="ytick_3">
     <g id="line2d_15">
      <path d="M 19.941356 109.696933 
L 429.165354 109.696933 
" clip-path="url(#p074b9f25f8)" style="fill: none; stroke: #000000; stroke-opacity: 0.1; stroke-width: 0.5; stroke-linecap: square"/>
     </g>
     <g id="line2d_16">
      <g>
       <use xlink:href="#mf715587674" x="19.941356" y="109.696933" style="stroke: #000000; stroke-width: 0.5"/>
      </g>
     </g>
     <g id="text_8">
      <!-- $0.2$ -->
      <g transform="translate(4.121356 112.736308) scale(0.08 -0.08)">
       <use xlink:href="#DejaVuSans-30" transform="translate(0 0.78125)"/>
       <use xlink:href="#DejaVuSans-2e" transform="translate(63.623047 0.78125)"/>
       <use xlink:href="#DejaVuSans-32" transform="translate(89.910156 0.78125)"/>
      </g>
     </g>
    </g>
    <g id="ytick_4">
     <g id="line2d_17">
      <path d="M 19.941356 31.856176 
L 429.165354 31.856176 
" clip-path="url(#p074b9f25f8)" style="fill: none; stroke: #000000; stroke-opacity: 0.1; stroke-width: 0.5; stroke-linecap: square"/>
     </g>
     <g id="line2d_18">
      <g>
       <use xlink:href="#mf715587674" x="19.941356" y="31.856176" style="stroke: #000000; stroke-width: 0.5"/>
      </g>
     </g>
     <g id="text_9">
      <!-- $0.3$ -->
      <g transform="translate(3.641356 34.895551) scale(0.08 -0.08)">
       <defs>
        <path id="DejaVuSans-33" d="M 2597 2516 
Q 3050 2419 3304 2112 
Q 3559 1806 3559 1356 
Q 3559 666 3084 287 
Q 2609 -91 1734 -91 
Q 1441 -91 1130 -33 
Q 819 25 488 141 
L 488 750 
Q 750 597 1062 519 
Q 1375 441 1716 441 
Q 2309 441 2620 675 
Q 2931 909 2931 1356 
Q 2931 1769 2642 2001 
Q 2353 2234 1838 2234 
L 1294 2234 
L 1294 2753 
L 1863 2753 
Q 2328 2753 2575 2939 
Q 2822 3125 2822 3475 
Q 2822 3834 2567 4026 
Q 2313 4219 1838 4219 
Q 1578 4219 1281 4162 
Q 984 4106 628 3988 
L 628 4550 
Q 988 4650 1302 4700 
Q 1616 4750 1894 4750 
Q 2613 4750 3031 4423 
Q 3450 4097 3450 3541 
Q 3450 3153 3228 2886 
Q 3006 2619 2597 2516 
z
" transform="scale(0.015625)"/>
       </defs>
       <use xlink:href="#DejaVuSans-30" transform="translate(0 0.78125)"/>
       <use xlink:href="#DejaVuSans-2e" transform="translate(63.623047 0.78125)"/>
       <use xlink:href="#DejaVuSans-33" transform="translate(95.410156 0.78125)"/>
      </g>
     </g>
    </g>
   </g>
   <g id="line2d_19">
    <path d="M 31.523167 105.755456 
L 35.422767 96.951768 
L 39.322367 61.684348 
L 43.221966 95.723659 
L 47.121566 136.799717 
L 51.021166 69.733079 
L 54.920766 247.256429 
L 58.820365 250.095225 
L 62.719965 57.754347 
L 66.619565 39.253674 
L 70.519165 84.05629 
L 74.418764 61.140845 
L 78.318364 133.524465 
L 82.217964 163.190159 
L 86.117564 165.460865 
L 90.017164 124.071962 
L 93.916763 214.455327 
L 97.816363 187.608187 
L 101.715963 244.71064 
L 105.615563 241.211284 
L 109.515162 119.209407 
L 113.414762 254.743706 
L 117.314362 103.207562 
L 121.213962 244.962424 
L 125.113561 115.98644 
L 129.013161 232.450705 
L 132.912761 133.700285 
L 136.812361 133.846829 
L 140.71196 204.554011 
L 144.61156 256.543919 
L 148.51116 174.521965 
L 152.41076 111.117989 
L 156.310359 167.282046 
L 160.209959 85.104724 
L 164.109559 246.654876 
L 168.009159 18.285911 
L 171.908758 171.494102 
L 175.808358 249.803464 
L 179.707958 212.36612 
L 183.607558 133.581336 
L 187.507157 160.519162 
L 191.406757 196.307756 
L 195.306357 67.152341 
L 199.205957 132.620766 
L 203.105556 196.984586 
L 207.005156 94.536907 
L 210.904756 186.143606 
L 214.804356 201.197427 
L 218.703955 26.045114 
L 222.603555 87.579094 
L 226.503155 153.704552 
L 230.402755 162.509959 
L 234.302354 228.633553 
L 238.201954 48.596061 
L 242.101554 67.725265 
L 246.001154 66.850168 
L 249.900754 200.468542 
L 253.800353 73.280296 
L 257.699953 113.344294 
L 261.599553 168.706381 
L 265.499153 146.687789 
L 269.398752 136.444997 
L 273.298352 73.375682 
L 277.197952 244.298401 
L 281.097552 50.089825 
L 284.997151 259.391366 
L 288.896751 94.035145 
L 292.796351 68.576743 
L 296.695951 117.794814 
L 300.59555 75.022556 
L 304.49515 98.289045 
L 308.39475 177.535085 
L 312.29435 243.938864 
L 316.193949 75.028721 
L 320.093549 48.067085 
L 323.993149 188.388011 
L 327.892749 102.809349 
L 331.792348 169.226553 
L 335.691948 148.231963 
L 339.591548 216.93018 
L 343.491148 83.866543 
L 347.390747 229.288672 
L 351.290347 186.932405 
L 355.189947 252.021558 
L 359.089547 261.811302 
L 362.989146 29.625151 
L 366.888746 10.481553 
L 370.788346 138.705968 
L 374.687946 67.502061 
L 378.587545 136.730323 
L 382.487145 181.387318 
L 386.386745 154.941836 
L 390.286345 92.192806 
L 394.185945 246.373562 
L 398.085544 92.043862 
L 401.985144 30.003445 
L 405.884744 112.440031 
L 409.784344 116.380947 
L 413.683943 108.634782 
L 417.583543 224.709768 
" clip-path="url(#p074b9f25f8)" style="fill: none; stroke: #009afa"/>
   </g>
   <g id="FillBetweenPolyCollection_1">
    <defs>
     <path id="mbca7169937" d="M 31.523167 -182.244544 
L 31.523167 -22.621553 
L 35.422767 -22.621553 
L 39.322367 -22.621553 
L 43.221966 -22.621553 
L 47.121566 -22.621553 
L 51.021166 -22.621553 
L 54.920766 -22.621553 
L 58.820365 -22.621553 
L 62.719965 -22.621553 
L 66.619565 -22.621553 
L 70.519165 -22.621553 
L 74.418764 -22.621553 
L 78.318364 -22.621553 
L 82.217964 -22.621553 
L 86.117564 -22.621553 
L 90.017164 -22.621553 
L 93.916763 -22.621553 
L 97.816363 -22.621553 
L 101.715963 -22.621553 
L 105.615563 -22.621553 
L 109.515162 -22.621553 
L 113.414762 -22.621553 
L 117.314362 -22.621553 
L 121.213962 -22.621553 
L 125.113561 -22.621553 
L 129.013161 -22.621553 
L 132.912761 -22.621553 
L 136.812361 -22.621553 
L 140.71196 -22.621553 
L 144.61156 -22.621553 
L 148.51116 -22.621553 
L 152.41076 -22.621553 
L 156.310359 -22.621553 
L 160.209959 -22.621553 
L 164.109559 -22.621553 
L 168.009159 -22.621553 
L 171.908758 -22.621553 
L 175.808358 -22.621553 
L 179.707958 -22.621553 
L 183.607558 -22.621553 
L 187.507157 -22.621553 
L 191.406757 -22.621553 
L 195.306357 -22.621553 
L 199.205957 -22.621553 
L 203.105556 -22.621553 
L 207.005156 -22.621553 
L 210.904756 -22.621553 
L 214.804356 -22.621553 
L 218.703955 -22.621553 
L 222.603555 -22.621553 
L 226.503155 -22.621553 
L 230.402755 -22.621553 
L 234.302354 -22.621553 
L 238.201954 -22.621553 
L 242.101554 -22.621553 
L 246.001154 -22.621553 
L 249.900754 -22.621553 
L 253.800353 -22.621553 
L 257.699953 -22.621553 
L 261.599553 -22.621553 
L 265.499153 -22.621553 
L 269.398752 -22.621553 
L 273.298352 -22.621553 
L 277.197952 -22.621553 
L 281.097552 -22.621553 
L 284.997151 -22.621553 
L 288.896751 -22.621553 
L 292.796351 -22.621553 
L 296.695951 -22.621553 
L 300.59555 -22.621553 
L 304.49515 -22.621553 
L 308.39475 -22.621553 
L 312.29435 -22.621553 
L 316.193949 -22.621553 
L 320.093549 -22.621553 
L 323.993149 -22.621553 
L 327.892749 -22.621553 
L 331.792348 -22.621553 
L 335.691948 -22.621553 
L 339.591548 -22.621553 
L 343.491148 -22.621553 
L 347.390747 -22.621553 
L 351.290347 -22.621553 
L 355.189947 -22.621553 
L 359.089547 -22.621553 
L 362.989146 -22.621553 
L 366.888746 -22.621553 
L 370.788346 -22.621553 
L 374.687946 -22.621553 
L 378.587545 -22.621553 
L 382.487145 -22.621553 
L 386.386745 -22.621553 
L 390.286345 -22.621553 
L 394.185945 -22.621553 
L 398.085544 -22.621553 
L 401.985144 -22.621553 
L 405.884744 -22.621553 
L 409.784344 -22.621553 
L 413.683943 -22.621553 
L 417.583543 -22.621553 
L 417.583543 -63.290232 
L 417.583543 -63.290232 
L 413.683943 -179.365218 
L 409.784344 -171.619053 
L 405.884744 -175.559969 
L 401.985144 -257.996555 
L 398.085544 -195.956138 
L 394.185945 -41.626438 
L 390.286345 -195.807194 
L 386.386745 -133.058164 
L 382.487145 -106.612682 
L 378.587545 -151.269677 
L 374.687946 -220.497939 
L 370.788346 -149.294032 
L 366.888746 -277.518447 
L 362.989146 -258.374849 
L 359.089547 -26.188698 
L 355.189947 -35.978442 
L 351.290347 -101.067595 
L 347.390747 -58.711328 
L 343.491148 -204.133457 
L 339.591548 -71.06982 
L 335.691948 -139.768037 
L 331.792348 -118.773447 
L 327.892749 -185.190651 
L 323.993149 -99.611989 
L 320.093549 -239.932915 
L 316.193949 -212.971279 
L 312.29435 -44.061136 
L 308.39475 -110.464915 
L 304.49515 -189.710955 
L 300.59555 -212.977444 
L 296.695951 -170.205186 
L 292.796351 -219.423257 
L 288.896751 -193.964855 
L 284.997151 -28.608634 
L 281.097552 -237.910175 
L 277.197952 -43.701599 
L 273.298352 -214.624318 
L 269.398752 -151.555003 
L 265.499153 -141.312211 
L 261.599553 -119.293619 
L 257.699953 -174.655706 
L 253.800353 -214.719704 
L 249.900754 -87.531458 
L 246.001154 -221.149832 
L 242.101554 -220.274735 
L 238.201954 -239.403939 
L 234.302354 -59.366447 
L 230.402755 -125.490041 
L 226.503155 -134.295448 
L 222.603555 -200.420906 
L 218.703955 -261.954886 
L 214.804356 -86.802573 
L 210.904756 -101.856394 
L 207.005156 -193.463093 
L 203.105556 -91.015414 
L 199.205957 -155.379234 
L 195.306357 -220.847659 
L 191.406757 -91.692244 
L 187.507157 -127.480838 
L 183.607558 -154.418664 
L 179.707958 -75.63388 
L 175.808358 -38.196536 
L 171.908758 -116.505898 
L 168.009159 -269.714089 
L 164.109559 -41.345124 
L 160.209959 -202.895276 
L 156.310359 -120.717954 
L 152.41076 -176.882011 
L 148.51116 -113.478035 
L 144.61156 -31.456081 
L 140.71196 -83.445989 
L 136.812361 -154.153171 
L 132.912761 -154.299715 
L 129.013161 -55.549295 
L 125.113561 -172.01356 
L 121.213962 -43.037576 
L 117.314362 -184.792438 
L 113.414762 -33.256294 
L 109.515162 -168.790593 
L 105.615563 -46.788716 
L 101.715963 -43.28936 
L 97.816363 -100.391813 
L 93.916763 -73.544673 
L 90.017164 -163.928038 
L 86.117564 -122.539135 
L 82.217964 -124.809841 
L 78.318364 -154.475535 
L 74.418764 -226.859155 
L 70.519165 -203.94371 
L 66.619565 -248.746326 
L 62.719965 -230.245653 
L 58.820365 -37.904775 
L 54.920766 -40.743571 
L 51.021166 -218.266921 
L 47.121566 -151.200283 
L 43.221966 -192.276341 
L 39.322367 -226.315652 
L 35.422767 -191.048232 
L 31.523167 -182.244544 
z
"/>
    </defs>
    <g clip-path="url(#p074b9f25f8)">
     <use xlink:href="#mbca7169937" x="0" y="288" style="fill: #008000"/>
    </g>
   </g>
   <g id="line2d_20">
    <path d="M 31.523167 149.572674 
L 417.583543 135.887275 
" clip-path="url(#p074b9f25f8)" style="fill: none; stroke: #009afa"/>
   </g>
   <g id="patch_3">
    <path d="M 19.941356 273.025354 
L 19.941356 2.834646 
" style="fill: none; stroke: #000000; stroke-linejoin: miter; stroke-linecap: square"/>
   </g>
   <g id="patch_4">
    <path d="M 19.941356 273.025354 
L 429.165354 273.025354 
" style="fill: none; stroke: #000000; stroke-linejoin: miter; stroke-linecap: square"/>
   </g>
   <g id="legend_1">
    <g id="patch_5">
     <path d="M 386.540354 20.977146 
L 425.165354 20.977146 
L 425.165354 6.834646 
L 386.540354 6.834646 
z
" style="fill: #ffffff; stroke: #000000; stroke-linejoin: miter"/>
    </g>
    <g id="patch_6">
     <path d="M 389.740354 16.113396 
L 405.740354 16.113396 
L 405.740354 10.513396 
L 389.740354 10.513396 
z
" style="fill: #008000; stroke: #009afa; stroke-linejoin: miter"/>
    </g>
    <g id="text_10">
     <!-- y1 -->
     <g transform="translate(412.140354 16.113396) scale(0.08 -0.08)">
      <defs>
       <path id="DejaVuSans-79" d="M 2059 -325 
Q 1816 -950 1584 -1140 
Q 1353 -1331 966 -1331 
L 506 -1331 
L 506 -850 
L 844 -850 
Q 1081 -850 1212 -737 
Q 1344 -625 1503 -206 
L 1606 56 
L 191 3500 
L 800 3500 
L 1894 763 
L 2988 3500 
L 3597 3500 
L 2059 -325 
z
" transform="scale(0.015625)"/>
      </defs>
      <use xlink:href="#DejaVuSans-79"/>
      <use xlink:href="#DejaVuSans-31" transform="translate(59.179688 0)"/>
     </g>
    </g>
   </g>
  </g>
 </g>
 <defs>
  <clipPath id="p074b9f25f8">
   <rect x="19.941356" y="2.834646" width="409.223998" height="270.190709"/>
  </clipPath>
 </defs>
</svg>
