<?xml version="1.0" encoding="utf-8" standalone="no"?>
<!DOCTYPE svg PUBLIC "-//W3C//DTD SVG 1.1//EN"
  "http://www.w3.org/Graphics/SVG/1.1/DTD/svg11.dtd">
<svg xmlns:xlink="http://www.w3.org/1999/xlink" width="432pt" height="288pt" viewBox="0 0 432 288" xmlns="http://www.w3.org/2000/svg" version="1.1">
 <metadata>
  <rdf:RDF xmlns:dc="http://purl.org/dc/elements/1.1/" xmlns:cc="http://creativecommons.org/ns#" xmlns:rdf="http://www.w3.org/1999/02/22-rdf-syntax-ns#">
   <cc:Work>
    <dc:type rdf:resource="http://purl.org/dc/dcmitype/StillImage"/>
    <dc:date>2025-07-09T11:42:49.507509</dc:date>
    <dc:format>image/svg+xml</dc:format>
    <dc:creator>
     <cc:Agent>
      <dc:title>Matplotlib v3.10.3, https://matplotlib.org/</dc:title>
     </cc:Agent>
    </dc:creator>
   </cc:Work>
  </rdf:RDF>
 </metadata>
 <defs>
  <style type="text/css">*{stroke-linejoin: round; stroke-linecap: butt}</style>
 </defs>
 <g id="figure_1">
  <g id="patch_1">
   <path d="M 0 288 
L 432 288 
L 432 0 
L 0 0 
z
" style="fill: #ffffff"/>
  </g>
  <g id="axes_1">
   <g id="patch_2">
    <path d="M 12.308396 129.025354 
L 144.323271 129.025354 
L 144.323271 19.634646 
L 12.308396 19.634646 
z
" style="fill: #ffffff"/>
   </g>
   <g id="matplotlib.axis_1">
    <g id="xtick_1">
     <g id="line2d_1">
      <path d="M 56.231527 129.025354 
L 56.231527 19.634646 
" clip-path="url(#pd679d9034f)" style="fill: none; stroke: #000000; stroke-opacity: 0.1; stroke-width: 0.5; stroke-linecap: square"/>
     </g>
     <g id="line2d_2">
      <defs>
       <path id="m707ef06a75" d="M 0 0 
L 0 -3 
" style="stroke: #000000; stroke-width: 0.5"/>
      </defs>
      <g>
       <use xlink:href="#m707ef06a75" x="56.231527" y="129.025354" style="stroke: #000000; stroke-width: 0.5"/>
      </g>
     </g>
     <g id="line2d_3">
      <defs>
       <path id="m4d15fc4146" d="M 0 0 
L 0 3 
" style="stroke: #000000; stroke-width: 0.5"/>
      </defs>
      <g>
       <use xlink:href="#m4d15fc4146" x="56.231527" y="19.634646" style="stroke: #000000; stroke-width: 0.5"/>
      </g>
     </g>
     <g id="text_1">
      <!-- $-1$ -->
      <g transform="translate(50.311527 138.604104) scale(0.08 -0.08)">
       <defs>
        <path id="DejaVuSans-2212" d="M 678 2272 
L 4684 2272 
L 4684 1741 
L 678 1741 
L 678 2272 
z
" transform="scale(0.015625)"/>
        <path id="DejaVuSans-31" d="M 794 531 
L 1825 531 
L 1825 4091 
L 703 3866 
L 703 4441 
L 1819 4666 
L 2450 4666 
L 2450 531 
L 3481 531 
L 3481 0 
L 794 0 
L 794 531 
z
" transform="scale(0.015625)"/>
       </defs>
       <use xlink:href="#DejaVuSans-2212" transform="translate(0 0.09375)"/>
       <use xlink:href="#DejaVuSans-31" transform="translate(83.789062 0.09375)"/>
      </g>
     </g>
    </g>
    <g id="xtick_2">
     <g id="line2d_4">
      <path d="M 100.509368 129.025354 
L 100.509368 19.634646 
" clip-path="url(#pd679d9034f)" style="fill: none; stroke: #000000; stroke-opacity: 0.1; stroke-width: 0.5; stroke-linecap: square"/>
     </g>
     <g id="line2d_5">
      <g>
       <use xlink:href="#m707ef06a75" x="100.509368" y="129.025354" style="stroke: #000000; stroke-width: 0.5"/>
      </g>
     </g>
     <g id="line2d_6">
      <g>
       <use xlink:href="#m4d15fc4146" x="100.509368" y="19.634646" style="stroke: #000000; stroke-width: 0.5"/>
      </g>
     </g>
     <g id="text_2">
      <!-- $0$ -->
      <g transform="translate(97.949368 138.604104) scale(0.08 -0.08)">
       <defs>
        <path id="DejaVuSans-30" d="M 2034 4250 
Q 1547 4250 1301 3770 
Q 1056 3291 1056 2328 
Q 1056 1369 1301 889 
Q 1547 409 2034 409 
Q 2525 409 2770 889 
Q 3016 1369 3016 2328 
Q 3016 3291 2770 3770 
Q 2525 4250 2034 4250 
z
M 2034 4750 
Q 2819 4750 3233 4129 
Q 3647 3509 3647 2328 
Q 3647 1150 3233 529 
Q 2819 -91 2034 -91 
Q 1250 -91 836 529 
Q 422 1150 422 2328 
Q 422 3509 836 4129 
Q 1250 4750 2034 4750 
z
" transform="scale(0.015625)"/>
       </defs>
       <use xlink:href="#DejaVuSans-30" transform="translate(0 0.78125)"/>
      </g>
     </g>
    </g>
   </g>
   <g id="matplotlib.axis_2">
    <g id="ytick_1">
     <g id="line2d_7">
      <path d="M 12.308396 90.337511 
L 144.323271 90.337511 
" clip-path="url(#pd679d9034f)" style="fill: none; stroke: #000000; stroke-opacity: 0.1; stroke-width: 0.5; stroke-linecap: square"/>
     </g>
     <g id="line2d_8">
      <defs>
       <path id="mc76e83e3ff" d="M 0 0 
L 3 0 
" style="stroke: #000000; stroke-width: 0.5"/>
      </defs>
      <g>
       <use xlink:href="#mc76e83e3ff" x="12.308396" y="90.337511" style="stroke: #000000; stroke-width: 0.5"/>
      </g>
     </g>
     <g id="line2d_9">
      <defs>
       <path id="m5a337e7c44" d="M 0 0 
L -3 0 
" style="stroke: #000000; stroke-width: 0.5"/>
      </defs>
      <g>
       <use xlink:href="#m5a337e7c44" x="144.323271" y="90.337511" style="stroke: #000000; stroke-width: 0.5"/>
      </g>
     </g>
     <g id="text_3">
      <!-- $0$ -->
      <g transform="translate(3.688396 93.376886) scale(0.08 -0.08)">
       <use xlink:href="#DejaVuSans-30" transform="translate(0 0.78125)"/>
      </g>
     </g>
    </g>
    <g id="ytick_2">
     <g id="line2d_10">
      <path d="M 12.308396 49.900239 
L 144.323271 49.900239 
" clip-path="url(#pd679d9034f)" style="fill: none; stroke: #000000; stroke-opacity: 0.1; stroke-width: 0.5; stroke-linecap: square"/>
     </g>
     <g id="line2d_11">
      <g>
       <use xlink:href="#mc76e83e3ff" x="12.308396" y="49.900239" style="stroke: #000000; stroke-width: 0.5"/>
      </g>
     </g>
     <g id="line2d_12">
      <g>
       <use xlink:href="#m5a337e7c44" x="144.323271" y="49.900239" style="stroke: #000000; stroke-width: 0.5"/>
      </g>
     </g>
     <g id="text_4">
      <!-- $1$ -->
      <g transform="translate(3.688396 52.939614) scale(0.08 -0.08)">
       <use xlink:href="#DejaVuSans-31" transform="translate(0 0.09375)"/>
      </g>
     </g>
    </g>
   </g>
   <g id="PathCollection_1">
    <defs>
     <path id="m58bd11a478" d="M 0 2 
C 0.530406 2 1.03916 1.789267 1.414214 1.414214 
C 1.789267 1.03916 2 0.530406 2 0 
C 2 -0.530406 1.789267 -1.03916 1.414214 -1.414214 
C 1.03916 -1.789267 0.530406 -2 0 -2 
C -0.530406 -2 -1.03916 -1.789267 -1.414214 -1.414214 
C -1.789267 -1.03916 -2 -0.530406 -2 0 
C -2 0.530406 -1.789267 1.03916 -1.414214 1.414214 
C -1.03916 1.789267 -0.530406 2 0 2 
z
"/>
    </defs>
    <g clip-path="url(#pd679d9034f)">
     <use xlink:href="#m58bd11a478" x="123.511465" y="125.929391" style="fill: #009afa"/>
     <use xlink:href="#m58bd11a478" x="140.587001" y="22.730609" style="fill: #009afa"/>
     <use xlink:href="#m58bd11a478" x="26.31471" y="96.218094" style="fill: #009afa"/>
     <use xlink:href="#m58bd11a478" x="43.181366" y="106.821204" style="fill: #009afa"/>
     <use xlink:href="#m58bd11a478" x="70.207143" y="68.728195" style="fill: #009afa"/>
     <use xlink:href="#m58bd11a478" x="70.128103" y="122.960875" style="fill: #009afa"/>
     <use xlink:href="#m58bd11a478" x="104.593396" y="73.313759" style="fill: #009afa"/>
     <use xlink:href="#m58bd11a478" x="96.540433" y="63.098888" style="fill: #009afa"/>
     <use xlink:href="#m58bd11a478" x="36.213361" y="92.786995" style="fill: #009afa"/>
     <use xlink:href="#m58bd11a478" x="16.044666" y="88.200712" style="fill: #009afa"/>
    </g>
   </g>
   <g id="patch_3">
    <path d="M 12.308396 129.025354 
L 12.308396 19.634646 
" style="fill: none; stroke: #000000; stroke-linejoin: miter; stroke-linecap: square"/>
   </g>
   <g id="patch_4">
    <path d="M 144.323271 129.025354 
L 144.323271 19.634646 
" style="fill: none; stroke: #000000; stroke-linejoin: miter; stroke-linecap: square"/>
   </g>
   <g id="patch_5">
    <path d="M 12.308396 129.025354 
L 144.323271 129.025354 
" style="fill: none; stroke: #000000; stroke-linejoin: miter; stroke-linecap: square"/>
   </g>
   <g id="patch_6">
    <path d="M 12.308396 19.634646 
L 144.323271 19.634646 
" style="fill: none; stroke: #000000; stroke-linejoin: miter; stroke-linecap: square"/>
   </g>
   <g id="text_5">
    <!-- :box -->
    <g transform="translate(63.306302 13.634646) scale(0.14 -0.14)">
     <defs>
      <path id="DejaVuSans-3a" d="M 750 794 
L 1409 794 
L 1409 0 
L 750 0 
L 750 794 
z
M 750 3309 
L 1409 3309 
L 1409 2516 
L 750 2516 
L 750 3309 
z
" transform="scale(0.015625)"/>
      <path id="DejaVuSans-62" d="M 3116 1747 
Q 3116 2381 2855 2742 
Q 2594 3103 2138 3103 
Q 1681 3103 1420 2742 
Q 1159 2381 1159 1747 
Q 1159 1113 1420 752 
Q 1681 391 2138 391 
Q 2594 391 2855 752 
Q 3116 1113 3116 1747 
z
M 1159 2969 
Q 1341 3281 1617 3432 
Q 1894 3584 2278 3584 
Q 2916 3584 3314 3078 
Q 3713 2572 3713 1747 
Q 3713 922 3314 415 
Q 2916 -91 2278 -91 
Q 1894 -91 1617 61 
Q 1341 213 1159 525 
L 1159 0 
L 581 0 
L 581 4863 
L 1159 4863 
L 1159 2969 
z
" transform="scale(0.015625)"/>
      <path id="DejaVuSans-6f" d="M 1959 3097 
Q 1497 3097 1228 2736 
Q 959 2375 959 1747 
Q 959 1119 1226 758 
Q 1494 397 1959 397 
Q 2419 397 2687 759 
Q 2956 1122 2956 1747 
Q 2956 2369 2687 2733 
Q 2419 3097 1959 3097 
z
M 1959 3584 
Q 2709 3584 3137 3096 
Q 3566 2609 3566 1747 
Q 3566 888 3137 398 
Q 2709 -91 1959 -91 
Q 1206 -91 779 398 
Q 353 888 353 1747 
Q 353 2609 779 3096 
Q 1206 3584 1959 3584 
z
" transform="scale(0.015625)"/>
      <path id="DejaVuSans-78" d="M 3513 3500 
L 2247 1797 
L 3578 0 
L 2900 0 
L 1881 1375 
L 863 0 
L 184 0 
L 1544 1831 
L 300 3500 
L 978 3500 
L 1906 2253 
L 2834 3500 
L 3513 3500 
z
" transform="scale(0.015625)"/>
     </defs>
     <use xlink:href="#DejaVuSans-3a"/>
     <use xlink:href="#DejaVuSans-62" transform="translate(33.691406 0)"/>
     <use xlink:href="#DejaVuSans-6f" transform="translate(97.167969 0)"/>
     <use xlink:href="#DejaVuSans-78" transform="translate(155.224609 0)"/>
    </g>
   </g>
  </g>
  <g id="axes_2">
   <g id="patch_7">
    <path d="M 159.466312 129.025354 
L 291.481188 129.025354 
L 291.481188 19.634646 
L 159.466312 19.634646 
z
" style="fill: #ffffff"/>
   </g>
   <g id="matplotlib.axis_3">
    <g id="xtick_3">
     <g id="line2d_13">
      <path d="M 203.389444 129.025354 
L 203.389444 19.634646 
" clip-path="url(#p70e9dfd8d7)" style="fill: none; stroke: #000000; stroke-opacity: 0.1; stroke-width: 0.5; stroke-linecap: square"/>
     </g>
     <g id="line2d_14">
      <g>
       <use xlink:href="#m707ef06a75" x="203.389444" y="129.025354" style="stroke: #000000; stroke-width: 0.5"/>
      </g>
     </g>
     <g id="text_6">
      <!-- $-1$ -->
      <g transform="translate(197.469444 138.604104) scale(0.08 -0.08)">
       <use xlink:href="#DejaVuSans-2212" transform="translate(0 0.09375)"/>
       <use xlink:href="#DejaVuSans-31" transform="translate(83.789062 0.09375)"/>
      </g>
     </g>
    </g>
    <g id="xtick_4">
     <g id="line2d_15">
      <path d="M 247.667285 129.025354 
L 247.667285 19.634646 
" clip-path="url(#p70e9dfd8d7)" style="fill: none; stroke: #000000; stroke-opacity: 0.1; stroke-width: 0.5; stroke-linecap: square"/>
     </g>
     <g id="line2d_16">
      <g>
       <use xlink:href="#m707ef06a75" x="247.667285" y="129.025354" style="stroke: #000000; stroke-width: 0.5"/>
      </g>
     </g>
     <g id="text_7">
      <!-- $0$ -->
      <g transform="translate(245.107285 138.604104) scale(0.08 -0.08)">
       <use xlink:href="#DejaVuSans-30" transform="translate(0 0.78125)"/>
      </g>
     </g>
    </g>
   </g>
   <g id="matplotlib.axis_4">
    <g id="ytick_3">
     <g id="line2d_17">
      <path d="M 159.466312 90.337511 
L 291.481188 90.337511 
" clip-path="url(#p70e9dfd8d7)" style="fill: none; stroke: #000000; stroke-opacity: 0.1; stroke-width: 0.5; stroke-linecap: square"/>
     </g>
     <g id="line2d_18">
      <g>
       <use xlink:href="#mc76e83e3ff" x="159.466312" y="90.337511" style="stroke: #000000; stroke-width: 0.5"/>
      </g>
     </g>
     <g id="text_8">
      <!-- $0$ -->
      <g transform="translate(150.846312 93.376886) scale(0.08 -0.08)">
       <use xlink:href="#DejaVuSans-30" transform="translate(0 0.78125)"/>
      </g>
     </g>
    </g>
    <g id="ytick_4">
     <g id="line2d_19">
      <path d="M 159.466312 49.900239 
L 291.481188 49.900239 
" clip-path="url(#p70e9dfd8d7)" style="fill: none; stroke: #000000; stroke-opacity: 0.1; stroke-width: 0.5; stroke-linecap: square"/>
     </g>
     <g id="line2d_20">
      <g>
       <use xlink:href="#mc76e83e3ff" x="159.466312" y="49.900239" style="stroke: #000000; stroke-width: 0.5"/>
      </g>
     </g>
     <g id="text_9">
      <!-- $1$ -->
      <g transform="translate(150.846312 52.939614) scale(0.08 -0.08)">
       <use xlink:href="#DejaVuSans-31" transform="translate(0 0.09375)"/>
      </g>
     </g>
    </g>
   </g>
   <g id="PathCollection_2">
    <defs>
     <path id="m8c72b72c7e" d="M 0 2 
C 0.530406 2 1.03916 1.789267 1.414214 1.414214 
C 1.789267 1.03916 2 0.530406 2 0 
C 2 -0.530406 1.789267 -1.03916 1.414214 -1.414214 
C 1.03916 -1.789267 0.530406 -2 0 -2 
C -0.530406 -2 -1.03916 -1.789267 -1.414214 -1.414214 
C -1.789267 -1.03916 -2 -0.530406 -2 0 
C -2 0.530406 -1.789267 1.03916 -1.414214 1.414214 
C -1.03916 1.789267 -0.530406 2 0 2 
z
"/>
    </defs>
    <g clip-path="url(#p70e9dfd8d7)">
     <use xlink:href="#m8c72b72c7e" x="270.669382" y="125.929391" style="fill: #e36f47"/>
     <use xlink:href="#m8c72b72c7e" x="287.744918" y="22.730609" style="fill: #e36f47"/>
     <use xlink:href="#m8c72b72c7e" x="173.472626" y="96.218094" style="fill: #e36f47"/>
     <use xlink:href="#m8c72b72c7e" x="190.339283" y="106.821204" style="fill: #e36f47"/>
     <use xlink:href="#m8c72b72c7e" x="217.365059" y="68.728195" style="fill: #e36f47"/>
     <use xlink:href="#m8c72b72c7e" x="217.28602" y="122.960875" style="fill: #e36f47"/>
     <use xlink:href="#m8c72b72c7e" x="251.751313" y="73.313759" style="fill: #e36f47"/>
     <use xlink:href="#m8c72b72c7e" x="243.698349" y="63.098888" style="fill: #e36f47"/>
     <use xlink:href="#m8c72b72c7e" x="183.371278" y="92.786995" style="fill: #e36f47"/>
     <use xlink:href="#m8c72b72c7e" x="163.202582" y="88.200712" style="fill: #e36f47"/>
    </g>
   </g>
   <g id="patch_8">
    <path d="M 159.466312 129.025354 
L 159.466312 19.634646 
" style="fill: none; stroke: #000000; stroke-linejoin: miter; stroke-linecap: square"/>
   </g>
   <g id="patch_9">
    <path d="M 291.481188 129.025354 
L 291.481188 19.634646 
" style="fill: none; opacity: 0.5; stroke: #000000; stroke-width: 0.5; stroke-linejoin: miter; stroke-linecap: square"/>
   </g>
   <g id="patch_10">
    <path d="M 159.466312 129.025354 
L 291.481188 129.025354 
" style="fill: none; stroke: #000000; stroke-linejoin: miter; stroke-linecap: square"/>
   </g>
   <g id="patch_11">
    <path d="M 159.466312 19.634646 
L 291.481188 19.634646 
" style="fill: none; opacity: 0.5; stroke: #000000; stroke-width: 0.5; stroke-linejoin: miter; stroke-linecap: square"/>
   </g>
   <g id="text_10">
    <!-- :semi -->
    <g transform="translate(206.39875 13.634646) scale(0.14 -0.14)">
     <defs>
      <path id="DejaVuSans-73" d="M 2834 3397 
L 2834 2853 
Q 2591 2978 2328 3040 
Q 2066 3103 1784 3103 
Q 1356 3103 1142 2972 
Q 928 2841 928 2578 
Q 928 2378 1081 2264 
Q 1234 2150 1697 2047 
L 1894 2003 
Q 2506 1872 2764 1633 
Q 3022 1394 3022 966 
Q 3022 478 2636 193 
Q 2250 -91 1575 -91 
Q 1294 -91 989 -36 
Q 684 19 347 128 
L 347 722 
Q 666 556 975 473 
Q 1284 391 1588 391 
Q 1994 391 2212 530 
Q 2431 669 2431 922 
Q 2431 1156 2273 1281 
Q 2116 1406 1581 1522 
L 1381 1569 
Q 847 1681 609 1914 
Q 372 2147 372 2553 
Q 372 3047 722 3315 
Q 1072 3584 1716 3584 
Q 2034 3584 2315 3537 
Q 2597 3491 2834 3397 
z
" transform="scale(0.015625)"/>
      <path id="DejaVuSans-65" d="M 3597 1894 
L 3597 1613 
L 953 1613 
Q 991 1019 1311 708 
Q 1631 397 2203 397 
Q 2534 397 2845 478 
Q 3156 559 3463 722 
L 3463 178 
Q 3153 47 2828 -22 
Q 2503 -91 2169 -91 
Q 1331 -91 842 396 
Q 353 884 353 1716 
Q 353 2575 817 3079 
Q 1281 3584 2069 3584 
Q 2775 3584 3186 3129 
Q 3597 2675 3597 1894 
z
M 3022 2063 
Q 3016 2534 2758 2815 
Q 2500 3097 2075 3097 
Q 1594 3097 1305 2825 
Q 1016 2553 972 2059 
L 3022 2063 
z
" transform="scale(0.015625)"/>
      <path id="DejaVuSans-6d" d="M 3328 2828 
Q 3544 3216 3844 3400 
Q 4144 3584 4550 3584 
Q 5097 3584 5394 3201 
Q 5691 2819 5691 2113 
L 5691 0 
L 5113 0 
L 5113 2094 
Q 5113 2597 4934 2840 
Q 4756 3084 4391 3084 
Q 3944 3084 3684 2787 
Q 3425 2491 3425 1978 
L 3425 0 
L 2847 0 
L 2847 2094 
Q 2847 2600 2669 2842 
Q 2491 3084 2119 3084 
Q 1678 3084 1418 2786 
Q 1159 2488 1159 1978 
L 1159 0 
L 581 0 
L 581 3500 
L 1159 3500 
L 1159 2956 
Q 1356 3278 1631 3431 
Q 1906 3584 2284 3584 
Q 2666 3584 2933 3390 
Q 3200 3197 3328 2828 
z
" transform="scale(0.015625)"/>
      <path id="DejaVuSans-69" d="M 603 3500 
L 1178 3500 
L 1178 0 
L 603 0 
L 603 3500 
z
M 603 4863 
L 1178 4863 
L 1178 4134 
L 603 4134 
L 603 4863 
z
" transform="scale(0.015625)"/>
     </defs>
     <use xlink:href="#DejaVuSans-3a"/>
     <use xlink:href="#DejaVuSans-73" transform="translate(33.691406 0)"/>
     <use xlink:href="#DejaVuSans-65" transform="translate(85.791016 0)"/>
     <use xlink:href="#DejaVuSans-6d" transform="translate(147.314453 0)"/>
     <use xlink:href="#DejaVuSans-69" transform="translate(244.726562 0)"/>
    </g>
   </g>
  </g>
  <g id="axes_3">
   <g id="patch_12">
    <path d="M 297.150479 129.025354 
L 429.165354 129.025354 
L 429.165354 19.634646 
L 297.150479 19.634646 
z
" style="fill: #ffffff"/>
   </g>
   <g id="matplotlib.axis_5">
    <g id="xtick_5">
     <g id="line2d_21">
      <path d="M 341.07361 129.025354 
L 341.07361 19.634646 
" clip-path="url(#pe2edf13767)" style="fill: none; stroke: #000000; stroke-opacity: 0.1; stroke-width: 0.5; stroke-linecap: square"/>
     </g>
     <g id="line2d_22">
      <g>
       <use xlink:href="#m707ef06a75" x="341.07361" y="90.337511" style="stroke: #000000; stroke-width: 0.5"/>
      </g>
     </g>
     <g id="text_11">
      <!-- $-1$ -->
      <g transform="translate(335.15361 99.916261) scale(0.08 -0.08)">
       <use xlink:href="#DejaVuSans-2212" transform="translate(0 0.09375)"/>
       <use xlink:href="#DejaVuSans-31" transform="translate(83.789062 0.09375)"/>
      </g>
     </g>
    </g>
    <g id="xtick_6">
     <g id="line2d_23">
      <path d="M 385.351451 129.025354 
L 385.351451 19.634646 
" clip-path="url(#pe2edf13767)" style="fill: none; stroke: #000000; stroke-opacity: 0.1; stroke-width: 0.5; stroke-linecap: square"/>
     </g>
     <g id="line2d_24">
      <g>
       <use xlink:href="#m707ef06a75" x="385.351451" y="90.337511" style="stroke: #000000; stroke-width: 0.5"/>
      </g>
     </g>
    </g>
   </g>
   <g id="matplotlib.axis_6">
    <g id="ytick_5">
     <g id="line2d_25">
      <path d="M 297.150479 90.337511 
L 429.165354 90.337511 
" clip-path="url(#pe2edf13767)" style="fill: none; stroke: #000000; stroke-opacity: 0.1; stroke-width: 0.5; stroke-linecap: square"/>
     </g>
     <g id="line2d_26">
      <g>
       <use xlink:href="#mc76e83e3ff" x="385.351451" y="90.337511" style="stroke: #000000; stroke-width: 0.5"/>
      </g>
     </g>
    </g>
    <g id="ytick_6">
     <g id="line2d_27">
      <path d="M 297.150479 49.900239 
L 429.165354 49.900239 
" clip-path="url(#pe2edf13767)" style="fill: none; stroke: #000000; stroke-opacity: 0.1; stroke-width: 0.5; stroke-linecap: square"/>
     </g>
     <g id="line2d_28">
      <g>
       <use xlink:href="#mc76e83e3ff" x="385.351451" y="49.900239" style="stroke: #000000; stroke-width: 0.5"/>
      </g>
     </g>
     <g id="text_12">
      <!-- $1$ -->
      <g transform="translate(376.731451 52.939614) scale(0.08 -0.08)">
       <use xlink:href="#DejaVuSans-31" transform="translate(0 0.09375)"/>
      </g>
     </g>
    </g>
   </g>
   <g id="patch_13">
    <path d="M 385.351451 129.025354 
L 385.351451 19.634646 
" style="fill: none; stroke: #000000; stroke-linejoin: miter; stroke-linecap: square"/>
   </g>
   <g id="patch_14">
    <path d="M 297.150479 90.337511 
L 429.165354 90.337511 
" style="fill: none; stroke: #000000; stroke-linejoin: miter; stroke-linecap: square"/>
   </g>
   <g id="text_13">
    <!-- :origin -->
    <g transform="translate(340.869479 13.634646) scale(0.14 -0.14)">
     <defs>
      <path id="DejaVuSans-72" d="M 2631 2963 
Q 2534 3019 2420 3045 
Q 2306 3072 2169 3072 
Q 1681 3072 1420 2755 
Q 1159 2438 1159 1844 
L 1159 0 
L 581 0 
L 581 3500 
L 1159 3500 
L 1159 2956 
Q 1341 3275 1631 3429 
Q 1922 3584 2338 3584 
Q 2397 3584 2469 3576 
Q 2541 3569 2628 3553 
L 2631 2963 
z
" transform="scale(0.015625)"/>
      <path id="DejaVuSans-67" d="M 2906 1791 
Q 2906 2416 2648 2759 
Q 2391 3103 1925 3103 
Q 1463 3103 1205 2759 
Q 947 2416 947 1791 
Q 947 1169 1205 825 
Q 1463 481 1925 481 
Q 2391 481 2648 825 
Q 2906 1169 2906 1791 
z
M 3481 434 
Q 3481 -459 3084 -895 
Q 2688 -1331 1869 -1331 
Q 1566 -1331 1297 -1286 
Q 1028 -1241 775 -1147 
L 775 -588 
Q 1028 -725 1275 -790 
Q 1522 -856 1778 -856 
Q 2344 -856 2625 -561 
Q 2906 -266 2906 331 
L 2906 616 
Q 2728 306 2450 153 
Q 2172 0 1784 0 
Q 1141 0 747 490 
Q 353 981 353 1791 
Q 353 2603 747 3093 
Q 1141 3584 1784 3584 
Q 2172 3584 2450 3431 
Q 2728 3278 2906 2969 
L 2906 3500 
L 3481 3500 
L 3481 434 
z
" transform="scale(0.015625)"/>
      <path id="DejaVuSans-6e" d="M 3513 2113 
L 3513 0 
L 2938 0 
L 2938 2094 
Q 2938 2591 2744 2837 
Q 2550 3084 2163 3084 
Q 1697 3084 1428 2787 
Q 1159 2491 1159 1978 
L 1159 0 
L 581 0 
L 581 3500 
L 1159 3500 
L 1159 2956 
Q 1366 3272 1645 3428 
Q 1925 3584 2291 3584 
Q 2894 3584 3203 3211 
Q 3513 2838 3513 2113 
z
" transform="scale(0.015625)"/>
     </defs>
     <use xlink:href="#DejaVuSans-3a"/>
     <use xlink:href="#DejaVuSans-6f" transform="translate(33.691406 0)"/>
     <use xlink:href="#DejaVuSans-72" transform="translate(94.873047 0)"/>
     <use xlink:href="#DejaVuSans-69" transform="translate(135.986328 0)"/>
     <use xlink:href="#DejaVuSans-67" transform="translate(163.769531 0)"/>
     <use xlink:href="#DejaVuSans-69" transform="translate(227.246094 0)"/>
     <use xlink:href="#DejaVuSans-6e" transform="translate(255.029297 0)"/>
    </g>
   </g>
   <g id="PathCollection_3">
    <defs>
     <path id="m0d9a48e288" d="M 0 2 
C 0.530406 2 1.03916 1.789267 1.414214 1.414214 
C 1.789267 1.03916 2 0.530406 2 0 
C 2 -0.530406 1.789267 -1.03916 1.414214 -1.414214 
C 1.03916 -1.789267 0.530406 -2 0 -2 
C -0.530406 -2 -1.03916 -1.789267 -1.414214 -1.414214 
C -1.789267 -1.03916 -2 -0.530406 -2 0 
C -2 0.530406 -1.789267 1.03916 -1.414214 1.414214 
C -1.03916 1.789267 -0.530406 2 0 2 
z
"/>
    </defs>
    <g clip-path="url(#pe2edf13767)">
     <use xlink:href="#m0d9a48e288" x="408.353548" y="125.929391" style="fill: #3ea44e"/>
     <use xlink:href="#m0d9a48e288" x="425.429084" y="22.730609" style="fill: #3ea44e"/>
     <use xlink:href="#m0d9a48e288" x="311.156793" y="96.218094" style="fill: #3ea44e"/>
     <use xlink:href="#m0d9a48e288" x="328.02345" y="106.821204" style="fill: #3ea44e"/>
     <use xlink:href="#m0d9a48e288" x="355.049226" y="68.728195" style="fill: #3ea44e"/>
     <use xlink:href="#m0d9a48e288" x="354.970186" y="122.960875" style="fill: #3ea44e"/>
     <use xlink:href="#m0d9a48e288" x="389.435479" y="73.313759" style="fill: #3ea44e"/>
     <use xlink:href="#m0d9a48e288" x="381.382516" y="63.098888" style="fill: #3ea44e"/>
     <use xlink:href="#m0d9a48e288" x="321.055444" y="92.786995" style="fill: #3ea44e"/>
     <use xlink:href="#m0d9a48e288" x="300.886749" y="88.200712" style="fill: #3ea44e"/>
    </g>
   </g>
  </g>
  <g id="axes_4">
   <g id="patch_15">
    <path d="M 12.308396 273.025354 
L 144.323271 273.025354 
L 144.323271 163.634646 
L 12.308396 163.634646 
z
" style="fill: #ffffff"/>
   </g>
   <g id="matplotlib.axis_7">
    <g id="xtick_7">
     <g id="line2d_29">
      <path d="M 56.231527 273.025354 
L 56.231527 163.634646 
" clip-path="url(#pb9bab507ff)" style="fill: none; stroke: #000000; stroke-opacity: 0.1; stroke-width: 0.5; stroke-linecap: square"/>
     </g>
     <g id="line2d_30">
      <defs>
       <path id="mcae00c4b7b" d="M 0 0 
L 0 -3 
" style="stroke: #000000; stroke-opacity: 0.1; stroke-width: 0.5"/>
      </defs>
      <g>
       <use xlink:href="#mcae00c4b7b" x="56.231527" y="273.025354" style="fill-opacity: 0.1; stroke: #000000; stroke-opacity: 0.1; stroke-width: 0.5"/>
      </g>
     </g>
     <g id="text_14">
      <!-- $-1$ -->
      <g transform="translate(50.311527 282.604104) scale(0.08 -0.08)">
       <use xlink:href="#DejaVuSans-2212" transform="translate(0 0.09375)"/>
       <use xlink:href="#DejaVuSans-31" transform="translate(83.789062 0.09375)"/>
      </g>
     </g>
    </g>
    <g id="xtick_8">
     <g id="line2d_31">
      <path d="M 100.509368 273.025354 
L 100.509368 163.634646 
" clip-path="url(#pb9bab507ff)" style="fill: none; stroke: #000000; stroke-opacity: 0.1; stroke-width: 0.5; stroke-linecap: square"/>
     </g>
     <g id="line2d_32">
      <g>
       <use xlink:href="#mcae00c4b7b" x="100.509368" y="273.025354" style="fill-opacity: 0.1; stroke: #000000; stroke-opacity: 0.1; stroke-width: 0.5"/>
      </g>
     </g>
     <g id="text_15">
      <!-- $0$ -->
      <g transform="translate(97.949368 282.604104) scale(0.08 -0.08)">
       <use xlink:href="#DejaVuSans-30" transform="translate(0 0.78125)"/>
      </g>
     </g>
    </g>
   </g>
   <g id="matplotlib.axis_8">
    <g id="ytick_7">
     <g id="line2d_33">
      <path d="M 12.308396 234.337511 
L 144.323271 234.337511 
" clip-path="url(#pb9bab507ff)" style="fill: none; stroke: #000000; stroke-opacity: 0.1; stroke-width: 0.5; stroke-linecap: square"/>
     </g>
     <g id="line2d_34">
      <defs>
       <path id="m775f1fbbb1" d="M 0 0 
L 3 0 
" style="stroke: #000000; stroke-opacity: 0.1; stroke-width: 0.5"/>
      </defs>
      <g>
       <use xlink:href="#m775f1fbbb1" x="12.308396" y="234.337511" style="fill-opacity: 0.1; stroke: #000000; stroke-opacity: 0.1; stroke-width: 0.5"/>
      </g>
     </g>
     <g id="text_16">
      <!-- $0$ -->
      <g transform="translate(3.688396 237.376886) scale(0.08 -0.08)">
       <use xlink:href="#DejaVuSans-30" transform="translate(0 0.78125)"/>
      </g>
     </g>
    </g>
    <g id="ytick_8">
     <g id="line2d_35">
      <path d="M 12.308396 193.900239 
L 144.323271 193.900239 
" clip-path="url(#pb9bab507ff)" style="fill: none; stroke: #000000; stroke-opacity: 0.1; stroke-width: 0.5; stroke-linecap: square"/>
     </g>
     <g id="line2d_36">
      <g>
       <use xlink:href="#m775f1fbbb1" x="12.308396" y="193.900239" style="fill-opacity: 0.1; stroke: #000000; stroke-opacity: 0.1; stroke-width: 0.5"/>
      </g>
     </g>
     <g id="text_17">
      <!-- $1$ -->
      <g transform="translate(3.688396 196.939614) scale(0.08 -0.08)">
       <use xlink:href="#DejaVuSans-31" transform="translate(0 0.09375)"/>
      </g>
     </g>
    </g>
   </g>
   <g id="line2d_37">
    <path d="M 12.308396 234.337511 
L 144.323271 234.337511 
" clip-path="url(#pb9bab507ff)" style="fill: none; stroke: #000000; stroke-width: 0.75; stroke-linecap: square"/>
   </g>
   <g id="line2d_38">
    <path d="M 100.509368 273.025354 
L 100.509368 163.634646 
" clip-path="url(#pb9bab507ff)" style="fill: none; stroke: #000000; stroke-width: 0.75; stroke-linecap: square"/>
   </g>
   <g id="text_18">
    <!-- :zerolines -->
    <g transform="translate(44.693958 157.634646) scale(0.14 -0.14)">
     <defs>
      <path id="DejaVuSans-7a" d="M 353 3500 
L 3084 3500 
L 3084 2975 
L 922 459 
L 3084 459 
L 3084 0 
L 275 0 
L 275 525 
L 2438 3041 
L 353 3041 
L 353 3500 
z
" transform="scale(0.015625)"/>
      <path id="DejaVuSans-6c" d="M 603 4863 
L 1178 4863 
L 1178 0 
L 603 0 
L 603 4863 
z
" transform="scale(0.015625)"/>
     </defs>
     <use xlink:href="#DejaVuSans-3a"/>
     <use xlink:href="#DejaVuSans-7a" transform="translate(33.691406 0)"/>
     <use xlink:href="#DejaVuSans-65" transform="translate(86.181641 0)"/>
     <use xlink:href="#DejaVuSans-72" transform="translate(147.705078 0)"/>
     <use xlink:href="#DejaVuSans-6f" transform="translate(186.568359 0)"/>
     <use xlink:href="#DejaVuSans-6c" transform="translate(247.75 0)"/>
     <use xlink:href="#DejaVuSans-69" transform="translate(275.533203 0)"/>
     <use xlink:href="#DejaVuSans-6e" transform="translate(303.316406 0)"/>
     <use xlink:href="#DejaVuSans-65" transform="translate(366.695312 0)"/>
     <use xlink:href="#DejaVuSans-73" transform="translate(428.21875 0)"/>
    </g>
   </g>
   <g id="PathCollection_4">
    <defs>
     <path id="mc90edeeb4d" d="M 0 2 
C 0.530406 2 1.03916 1.789267 1.414214 1.414214 
C 1.789267 1.03916 2 0.530406 2 0 
C 2 -0.530406 1.789267 -1.03916 1.414214 -1.414214 
C 1.03916 -1.789267 0.530406 -2 0 -2 
C -0.530406 -2 -1.03916 -1.789267 -1.414214 -1.414214 
C -1.789267 -1.03916 -2 -0.530406 -2 0 
C -2 0.530406 -1.789267 1.03916 -1.414214 1.414214 
C -1.03916 1.789267 -0.530406 2 0 2 
z
"/>
    </defs>
    <g clip-path="url(#pb9bab507ff)">
     <use xlink:href="#mc90edeeb4d" x="123.511465" y="269.929391" style="fill: #c371d2"/>
     <use xlink:href="#mc90edeeb4d" x="140.587001" y="166.730609" style="fill: #c371d2"/>
     <use xlink:href="#mc90edeeb4d" x="26.31471" y="240.218094" style="fill: #c371d2"/>
     <use xlink:href="#mc90edeeb4d" x="43.181366" y="250.821204" style="fill: #c371d2"/>
     <use xlink:href="#mc90edeeb4d" x="70.207143" y="212.728195" style="fill: #c371d2"/>
     <use xlink:href="#mc90edeeb4d" x="70.128103" y="266.960875" style="fill: #c371d2"/>
     <use xlink:href="#mc90edeeb4d" x="104.593396" y="217.313759" style="fill: #c371d2"/>
     <use xlink:href="#mc90edeeb4d" x="96.540433" y="207.098888" style="fill: #c371d2"/>
     <use xlink:href="#mc90edeeb4d" x="36.213361" y="236.786995" style="fill: #c371d2"/>
     <use xlink:href="#mc90edeeb4d" x="16.044666" y="232.200712" style="fill: #c371d2"/>
    </g>
   </g>
  </g>
  <g id="axes_5">
   <g id="patch_16">
    <path d="M 159.466312 273.025354 
L 291.481188 273.025354 
L 291.481188 163.634646 
L 159.466312 163.634646 
z
" style="fill: #ffffff"/>
   </g>
   <g id="matplotlib.axis_9">
    <g id="xtick_9">
     <g id="line2d_39">
      <path d="M 203.389444 273.025354 
L 203.389444 163.634646 
" clip-path="url(#p45ca7ca50a)" style="fill: none; stroke: #000000; stroke-opacity: 0.1; stroke-width: 0.5; stroke-linecap: square"/>
     </g>
     <g id="line2d_40">
      <g>
       <use xlink:href="#mcae00c4b7b" x="203.389444" y="273.025354" style="fill-opacity: 0.1; stroke: #000000; stroke-opacity: 0.1; stroke-width: 0.5"/>
      </g>
     </g>
     <g id="text_19">
      <!-- $-1$ -->
      <g transform="translate(197.469444 282.604104) scale(0.08 -0.08)">
       <use xlink:href="#DejaVuSans-2212" transform="translate(0 0.09375)"/>
       <use xlink:href="#DejaVuSans-31" transform="translate(83.789062 0.09375)"/>
      </g>
     </g>
    </g>
    <g id="xtick_10">
     <g id="line2d_41">
      <path d="M 247.667285 273.025354 
L 247.667285 163.634646 
" clip-path="url(#p45ca7ca50a)" style="fill: none; stroke: #000000; stroke-opacity: 0.1; stroke-width: 0.5; stroke-linecap: square"/>
     </g>
     <g id="line2d_42">
      <g>
       <use xlink:href="#mcae00c4b7b" x="247.667285" y="273.025354" style="fill-opacity: 0.1; stroke: #000000; stroke-opacity: 0.1; stroke-width: 0.5"/>
      </g>
     </g>
     <g id="text_20">
      <!-- $0$ -->
      <g transform="translate(245.107285 282.604104) scale(0.08 -0.08)">
       <use xlink:href="#DejaVuSans-30" transform="translate(0 0.78125)"/>
      </g>
     </g>
    </g>
   </g>
   <g id="matplotlib.axis_10">
    <g id="ytick_9">
     <g id="line2d_43">
      <path d="M 159.466312 234.337511 
L 291.481188 234.337511 
" clip-path="url(#p45ca7ca50a)" style="fill: none; stroke: #000000; stroke-opacity: 0.1; stroke-width: 0.5; stroke-linecap: square"/>
     </g>
     <g id="line2d_44">
      <g>
       <use xlink:href="#m775f1fbbb1" x="159.466312" y="234.337511" style="fill-opacity: 0.1; stroke: #000000; stroke-opacity: 0.1; stroke-width: 0.5"/>
      </g>
     </g>
     <g id="text_21">
      <!-- $0$ -->
      <g transform="translate(150.846312 237.376886) scale(0.08 -0.08)">
       <use xlink:href="#DejaVuSans-30" transform="translate(0 0.78125)"/>
      </g>
     </g>
    </g>
    <g id="ytick_10">
     <g id="line2d_45">
      <path d="M 159.466312 193.900239 
L 291.481188 193.900239 
" clip-path="url(#p45ca7ca50a)" style="fill: none; stroke: #000000; stroke-opacity: 0.1; stroke-width: 0.5; stroke-linecap: square"/>
     </g>
     <g id="line2d_46">
      <g>
       <use xlink:href="#m775f1fbbb1" x="159.466312" y="193.900239" style="fill-opacity: 0.1; stroke: #000000; stroke-opacity: 0.1; stroke-width: 0.5"/>
      </g>
     </g>
     <g id="text_22">
      <!-- $1$ -->
      <g transform="translate(150.846312 196.939614) scale(0.08 -0.08)">
       <use xlink:href="#DejaVuSans-31" transform="translate(0 0.09375)"/>
      </g>
     </g>
    </g>
   </g>
   <g id="text_23">
    <!-- :grid -->
    <g transform="translate(209.405469 157.634646) scale(0.14 -0.14)">
     <defs>
      <path id="DejaVuSans-64" d="M 2906 2969 
L 2906 4863 
L 3481 4863 
L 3481 0 
L 2906 0 
L 2906 525 
Q 2725 213 2448 61 
Q 2172 -91 1784 -91 
Q 1150 -91 751 415 
Q 353 922 353 1747 
Q 353 2572 751 3078 
Q 1150 3584 1784 3584 
Q 2172 3584 2448 3432 
Q 2725 3281 2906 2969 
z
M 947 1747 
Q 947 1113 1208 752 
Q 1469 391 1925 391 
Q 2381 391 2643 752 
Q 2906 1113 2906 1747 
Q 2906 2381 2643 2742 
Q 2381 3103 1925 3103 
Q 1469 3103 1208 2742 
Q 947 2381 947 1747 
z
" transform="scale(0.015625)"/>
     </defs>
     <use xlink:href="#DejaVuSans-3a"/>
     <use xlink:href="#DejaVuSans-67" transform="translate(33.691406 0)"/>
     <use xlink:href="#DejaVuSans-72" transform="translate(97.167969 0)"/>
     <use xlink:href="#DejaVuSans-69" transform="translate(138.28125 0)"/>
     <use xlink:href="#DejaVuSans-64" transform="translate(166.064453 0)"/>
    </g>
   </g>
   <g id="PathCollection_5">
    <defs>
     <path id="m04ae55150d" d="M 0 2 
C 0.530406 2 1.03916 1.789267 1.414214 1.414214 
C 1.789267 1.03916 2 0.530406 2 0 
C 2 -0.530406 1.789267 -1.03916 1.414214 -1.414214 
C 1.03916 -1.789267 0.530406 -2 0 -2 
C -0.530406 -2 -1.03916 -1.789267 -1.414214 -1.414214 
C -1.789267 -1.03916 -2 -0.530406 -2 0 
C -2 0.530406 -1.789267 1.03916 -1.414214 1.414214 
C -1.03916 1.789267 -0.530406 2 0 2 
z
"/>
    </defs>
    <g clip-path="url(#p45ca7ca50a)">
     <use xlink:href="#m04ae55150d" x="270.669382" y="269.929391" style="fill: #ac8e18"/>
     <use xlink:href="#m04ae55150d" x="287.744918" y="166.730609" style="fill: #ac8e18"/>
     <use xlink:href="#m04ae55150d" x="173.472626" y="240.218094" style="fill: #ac8e18"/>
     <use xlink:href="#m04ae55150d" x="190.339283" y="250.821204" style="fill: #ac8e18"/>
     <use xlink:href="#m04ae55150d" x="217.365059" y="212.728195" style="fill: #ac8e18"/>
     <use xlink:href="#m04ae55150d" x="217.28602" y="266.960875" style="fill: #ac8e18"/>
     <use xlink:href="#m04ae55150d" x="251.751313" y="217.313759" style="fill: #ac8e18"/>
     <use xlink:href="#m04ae55150d" x="243.698349" y="207.098888" style="fill: #ac8e18"/>
     <use xlink:href="#m04ae55150d" x="183.371278" y="236.786995" style="fill: #ac8e18"/>
     <use xlink:href="#m04ae55150d" x="163.202582" y="232.200712" style="fill: #ac8e18"/>
    </g>
   </g>
  </g>
  <g id="axes_6">
   <g id="patch_17">
    <path d="M 297.150479 273.025354 
L 429.165354 273.025354 
L 429.165354 163.634646 
L 297.150479 163.634646 
z
" style="fill: #ffffff"/>
   </g>
   <g id="matplotlib.axis_11"/>
   <g id="matplotlib.axis_12"/>
   <g id="text_24">
    <!-- :none -->
    <g transform="translate(343.336979 157.634646) scale(0.14 -0.14)">
     <use xlink:href="#DejaVuSans-3a"/>
     <use xlink:href="#DejaVuSans-6e" transform="translate(33.691406 0)"/>
     <use xlink:href="#DejaVuSans-6f" transform="translate(97.070312 0)"/>
     <use xlink:href="#DejaVuSans-6e" transform="translate(158.251953 0)"/>
     <use xlink:href="#DejaVuSans-65" transform="translate(221.630859 0)"/>
    </g>
   </g>
   <g id="PathCollection_6">
    <defs>
     <path id="mc9bc3df19c" d="M 0 2 
C 0.530406 2 1.03916 1.789267 1.414214 1.414214 
C 1.789267 1.03916 2 0.530406 2 0 
C 2 -0.530406 1.789267 -1.03916 1.414214 -1.414214 
C 1.03916 -1.789267 0.530406 -2 0 -2 
C -0.530406 -2 -1.03916 -1.789267 -1.414214 -1.414214 
C -1.789267 -1.03916 -2 -0.530406 -2 0 
C -2 0.530406 -1.789267 1.03916 -1.414214 1.414214 
C -1.03916 1.789267 -0.530406 2 0 2 
z
"/>
    </defs>
    <g clip-path="url(#p909398522e)">
     <use xlink:href="#mc9bc3df19c" x="408.353548" y="269.929391" style="fill: #00aaae"/>
     <use xlink:href="#mc9bc3df19c" x="425.429084" y="166.730609" style="fill: #00aaae"/>
     <use xlink:href="#mc9bc3df19c" x="311.156793" y="240.218094" style="fill: #00aaae"/>
     <use xlink:href="#mc9bc3df19c" x="328.02345" y="250.821204" style="fill: #00aaae"/>
     <use xlink:href="#mc9bc3df19c" x="355.049226" y="212.728195" style="fill: #00aaae"/>
     <use xlink:href="#mc9bc3df19c" x="354.970186" y="266.960875" style="fill: #00aaae"/>
     <use xlink:href="#mc9bc3df19c" x="389.435479" y="217.313759" style="fill: #00aaae"/>
     <use xlink:href="#mc9bc3df19c" x="381.382516" y="207.098888" style="fill: #00aaae"/>
     <use xlink:href="#mc9bc3df19c" x="321.055444" y="236.786995" style="fill: #00aaae"/>
     <use xlink:href="#mc9bc3df19c" x="300.886749" y="232.200712" style="fill: #00aaae"/>
    </g>
   </g>
  </g>
 </g>
 <defs>
  <clipPath id="pd679d9034f">
   <rect x="12.308396" y="19.634646" width="132.014875" height="109.390709"/>
  </clipPath>
  <clipPath id="p70e9dfd8d7">
   <rect x="159.466312" y="19.634646" width="132.014875" height="109.390709"/>
  </clipPath>
  <clipPath id="pe2edf13767">
   <rect x="297.150479" y="19.634646" width="132.014875" height="109.390709"/>
  </clipPath>
  <clipPath id="pb9bab507ff">
   <rect x="12.308396" y="163.634646" width="132.014875" height="109.390709"/>
  </clipPath>
  <clipPath id="p45ca7ca50a">
   <rect x="159.466312" y="163.634646" width="132.014875" height="109.390709"/>
  </clipPath>
  <clipPath id="p909398522e">
   <rect x="297.150479" y="163.634646" width="132.014875" height="109.390709"/>
  </clipPath>
 </defs>
</svg>
