<?xml version="1.0" encoding="utf-8" standalone="no"?>
<!DOCTYPE svg PUBLIC "-//W3C//DTD SVG 1.1//EN"
  "http://www.w3.org/Graphics/SVG/1.1/DTD/svg11.dtd">
<svg xmlns:xlink="http://www.w3.org/1999/xlink" width="432pt" height="288pt" viewBox="0 0 432 288" xmlns="http://www.w3.org/2000/svg" version="1.1">
 <metadata>
  <rdf:RDF xmlns:dc="http://purl.org/dc/elements/1.1/" xmlns:cc="http://creativecommons.org/ns#" xmlns:rdf="http://www.w3.org/1999/02/22-rdf-syntax-ns#">
   <cc:Work>
    <dc:type rdf:resource="http://purl.org/dc/dcmitype/StillImage"/>
    <dc:date>2025-07-09T11:42:18.511260</dc:date>
    <dc:format>image/svg+xml</dc:format>
    <dc:creator>
     <cc:Agent>
      <dc:title>Matplotlib v3.10.3, https://matplotlib.org/</dc:title>
     </cc:Agent>
    </dc:creator>
   </cc:Work>
  </rdf:RDF>
 </metadata>
 <defs>
  <style type="text/css">*{stroke-linejoin: round; stroke-linecap: butt}</style>
 </defs>
 <g id="figure_1">
  <g id="patch_1">
   <path d="M 0 288 
L 432 288 
L 432 0 
L 0 0 
z
" style="fill: #ffffff"/>
  </g>
  <g id="axes_1">
   <g id="patch_2">
    <path d="M 22.488283 273.025354 
L 429.165354 273.025354 
L 429.165354 2.834646 
L 22.488283 2.834646 
z
" style="fill: #ffffff"/>
   </g>
   <g id="matplotlib.axis_1">
    <g id="xtick_1">
     <g id="line2d_1">
      <path d="M 96.562124 273.025354 
L 96.562124 2.834646 
" clip-path="url(#p9714706074)" style="fill: none; stroke: #000000; stroke-opacity: 0.1; stroke-width: 0.5; stroke-linecap: square"/>
     </g>
     <g id="line2d_2">
      <defs>
       <path id="m5e84133a6e" d="M 0 0 
L 0 -3 
" style="stroke: #000000; stroke-width: 0.5"/>
      </defs>
      <g>
       <use xlink:href="#m5e84133a6e" x="96.562124" y="273.025354" style="stroke: #000000; stroke-width: 0.5"/>
      </g>
     </g>
     <g id="text_1">
      <!-- $-2$ -->
      <g transform="translate(90.642124 282.604104) scale(0.08 -0.08)">
       <defs>
        <path id="DejaVuSans-2212" d="M 678 2272 
L 4684 2272 
L 4684 1741 
L 678 1741 
L 678 2272 
z
" transform="scale(0.015625)"/>
        <path id="DejaVuSans-32" d="M 1228 531 
L 3431 531 
L 3431 0 
L 469 0 
L 469 531 
Q 828 903 1448 1529 
Q 2069 2156 2228 2338 
Q 2531 2678 2651 2914 
Q 2772 3150 2772 3378 
Q 2772 3750 2511 3984 
Q 2250 4219 1831 4219 
Q 1534 4219 1204 4116 
Q 875 4013 500 3803 
L 500 4441 
Q 881 4594 1212 4672 
Q 1544 4750 1819 4750 
Q 2544 4750 2975 4387 
Q 3406 4025 3406 3419 
Q 3406 3131 3298 2873 
Q 3191 2616 2906 2266 
Q 2828 2175 2409 1742 
Q 1991 1309 1228 531 
z
" transform="scale(0.015625)"/>
       </defs>
       <use xlink:href="#DejaVuSans-2212" transform="translate(0 0.78125)"/>
       <use xlink:href="#DejaVuSans-32" transform="translate(83.789062 0.78125)"/>
      </g>
     </g>
    </g>
    <g id="xtick_2">
     <g id="line2d_3">
      <path d="M 199.97388 273.025354 
L 199.97388 2.834646 
" clip-path="url(#p9714706074)" style="fill: none; stroke: #000000; stroke-opacity: 0.1; stroke-width: 0.5; stroke-linecap: square"/>
     </g>
     <g id="line2d_4">
      <g>
       <use xlink:href="#m5e84133a6e" x="199.97388" y="273.025354" style="stroke: #000000; stroke-width: 0.5"/>
      </g>
     </g>
     <g id="text_2">
      <!-- $0$ -->
      <g transform="translate(197.41388 282.604104) scale(0.08 -0.08)">
       <defs>
        <path id="DejaVuSans-30" d="M 2034 4250 
Q 1547 4250 1301 3770 
Q 1056 3291 1056 2328 
Q 1056 1369 1301 889 
Q 1547 409 2034 409 
Q 2525 409 2770 889 
Q 3016 1369 3016 2328 
Q 3016 3291 2770 3770 
Q 2525 4250 2034 4250 
z
M 2034 4750 
Q 2819 4750 3233 4129 
Q 3647 3509 3647 2328 
Q 3647 1150 3233 529 
Q 2819 -91 2034 -91 
Q 1250 -91 836 529 
Q 422 1150 422 2328 
Q 422 3509 836 4129 
Q 1250 4750 2034 4750 
z
" transform="scale(0.015625)"/>
       </defs>
       <use xlink:href="#DejaVuSans-30" transform="translate(0 0.78125)"/>
      </g>
     </g>
    </g>
    <g id="xtick_3">
     <g id="line2d_5">
      <path d="M 303.385636 273.025354 
L 303.385636 2.834646 
" clip-path="url(#p9714706074)" style="fill: none; stroke: #000000; stroke-opacity: 0.1; stroke-width: 0.5; stroke-linecap: square"/>
     </g>
     <g id="line2d_6">
      <g>
       <use xlink:href="#m5e84133a6e" x="303.385636" y="273.025354" style="stroke: #000000; stroke-width: 0.5"/>
      </g>
     </g>
     <g id="text_3">
      <!-- $2$ -->
      <g transform="translate(300.825636 282.604104) scale(0.08 -0.08)">
       <use xlink:href="#DejaVuSans-32" transform="translate(0 0.78125)"/>
      </g>
     </g>
    </g>
    <g id="xtick_4">
     <g id="line2d_7">
      <path d="M 406.797392 273.025354 
L 406.797392 2.834646 
" clip-path="url(#p9714706074)" style="fill: none; stroke: #000000; stroke-opacity: 0.1; stroke-width: 0.5; stroke-linecap: square"/>
     </g>
     <g id="line2d_8">
      <g>
       <use xlink:href="#m5e84133a6e" x="406.797392" y="273.025354" style="stroke: #000000; stroke-width: 0.5"/>
      </g>
     </g>
     <g id="text_4">
      <!-- $4$ -->
      <g transform="translate(404.237392 282.604104) scale(0.08 -0.08)">
       <defs>
        <path id="DejaVuSans-34" d="M 2419 4116 
L 825 1625 
L 2419 1625 
L 2419 4116 
z
M 2253 4666 
L 3047 4666 
L 3047 1625 
L 3713 1625 
L 3713 1100 
L 3047 1100 
L 3047 0 
L 2419 0 
L 2419 1100 
L 313 1100 
L 313 1709 
L 2253 4666 
z
" transform="scale(0.015625)"/>
       </defs>
       <use xlink:href="#DejaVuSans-34" transform="translate(0 0.09375)"/>
      </g>
     </g>
    </g>
   </g>
   <g id="matplotlib.axis_2">
    <g id="ytick_1">
     <g id="line2d_9">
      <path d="M 22.488283 273.025354 
L 429.165354 273.025354 
" clip-path="url(#p9714706074)" style="fill: none; stroke: #000000; stroke-opacity: 0.1; stroke-width: 0.5; stroke-linecap: square"/>
     </g>
     <g id="line2d_10">
      <defs>
       <path id="m26788ba81e" d="M 0 0 
L 3 0 
" style="stroke: #000000; stroke-width: 0.5"/>
      </defs>
      <g>
       <use xlink:href="#m26788ba81e" x="22.488283" y="273.025354" style="stroke: #000000; stroke-width: 0.5"/>
      </g>
     </g>
     <g id="text_5">
      <!-- $0$ -->
      <g transform="translate(13.868283 276.064729) scale(0.08 -0.08)">
       <use xlink:href="#DejaVuSans-30" transform="translate(0 0.78125)"/>
      </g>
     </g>
    </g>
    <g id="ytick_2">
     <g id="line2d_11">
      <path d="M 22.488283 226.198542 
L 429.165354 226.198542 
" clip-path="url(#p9714706074)" style="fill: none; stroke: #000000; stroke-opacity: 0.1; stroke-width: 0.5; stroke-linecap: square"/>
     </g>
     <g id="line2d_12">
      <g>
       <use xlink:href="#m26788ba81e" x="22.488283" y="226.198542" style="stroke: #000000; stroke-width: 0.5"/>
      </g>
     </g>
     <g id="text_6">
      <!-- $100$ -->
      <g transform="translate(3.708283 229.237917) scale(0.08 -0.08)">
       <defs>
        <path id="DejaVuSans-31" d="M 794 531 
L 1825 531 
L 1825 4091 
L 703 3866 
L 703 4441 
L 1819 4666 
L 2450 4666 
L 2450 531 
L 3481 531 
L 3481 0 
L 794 0 
L 794 531 
z
" transform="scale(0.015625)"/>
       </defs>
       <use xlink:href="#DejaVuSans-31" transform="translate(0 0.78125)"/>
       <use xlink:href="#DejaVuSans-30" transform="translate(63.623047 0.78125)"/>
       <use xlink:href="#DejaVuSans-30" transform="translate(127.246094 0.78125)"/>
      </g>
     </g>
    </g>
    <g id="ytick_3">
     <g id="line2d_13">
      <path d="M 22.488283 179.371729 
L 429.165354 179.371729 
" clip-path="url(#p9714706074)" style="fill: none; stroke: #000000; stroke-opacity: 0.1; stroke-width: 0.5; stroke-linecap: square"/>
     </g>
     <g id="line2d_14">
      <g>
       <use xlink:href="#m26788ba81e" x="22.488283" y="179.371729" style="stroke: #000000; stroke-width: 0.5"/>
      </g>
     </g>
     <g id="text_7">
      <!-- $200$ -->
      <g transform="translate(3.708283 182.411104) scale(0.08 -0.08)">
       <use xlink:href="#DejaVuSans-32" transform="translate(0 0.78125)"/>
       <use xlink:href="#DejaVuSans-30" transform="translate(63.623047 0.78125)"/>
       <use xlink:href="#DejaVuSans-30" transform="translate(127.246094 0.78125)"/>
      </g>
     </g>
    </g>
    <g id="ytick_4">
     <g id="line2d_15">
      <path d="M 22.488283 132.544917 
L 429.165354 132.544917 
" clip-path="url(#p9714706074)" style="fill: none; stroke: #000000; stroke-opacity: 0.1; stroke-width: 0.5; stroke-linecap: square"/>
     </g>
     <g id="line2d_16">
      <g>
       <use xlink:href="#m26788ba81e" x="22.488283" y="132.544917" style="stroke: #000000; stroke-width: 0.5"/>
      </g>
     </g>
     <g id="text_8">
      <!-- $300$ -->
      <g transform="translate(3.708283 135.584292) scale(0.08 -0.08)">
       <defs>
        <path id="DejaVuSans-33" d="M 2597 2516 
Q 3050 2419 3304 2112 
Q 3559 1806 3559 1356 
Q 3559 666 3084 287 
Q 2609 -91 1734 -91 
Q 1441 -91 1130 -33 
Q 819 25 488 141 
L 488 750 
Q 750 597 1062 519 
Q 1375 441 1716 441 
Q 2309 441 2620 675 
Q 2931 909 2931 1356 
Q 2931 1769 2642 2001 
Q 2353 2234 1838 2234 
L 1294 2234 
L 1294 2753 
L 1863 2753 
Q 2328 2753 2575 2939 
Q 2822 3125 2822 3475 
Q 2822 3834 2567 4026 
Q 2313 4219 1838 4219 
Q 1578 4219 1281 4162 
Q 984 4106 628 3988 
L 628 4550 
Q 988 4650 1302 4700 
Q 1616 4750 1894 4750 
Q 2613 4750 3031 4423 
Q 3450 4097 3450 3541 
Q 3450 3153 3228 2886 
Q 3006 2619 2597 2516 
z
" transform="scale(0.015625)"/>
       </defs>
       <use xlink:href="#DejaVuSans-33" transform="translate(0 0.78125)"/>
       <use xlink:href="#DejaVuSans-30" transform="translate(63.623047 0.78125)"/>
       <use xlink:href="#DejaVuSans-30" transform="translate(127.246094 0.78125)"/>
      </g>
     </g>
    </g>
    <g id="ytick_5">
     <g id="line2d_17">
      <path d="M 22.488283 85.718104 
L 429.165354 85.718104 
" clip-path="url(#p9714706074)" style="fill: none; stroke: #000000; stroke-opacity: 0.1; stroke-width: 0.5; stroke-linecap: square"/>
     </g>
     <g id="line2d_18">
      <g>
       <use xlink:href="#m26788ba81e" x="22.488283" y="85.718104" style="stroke: #000000; stroke-width: 0.5"/>
      </g>
     </g>
     <g id="text_9">
      <!-- $400$ -->
      <g transform="translate(3.708283 88.757479) scale(0.08 -0.08)">
       <use xlink:href="#DejaVuSans-34" transform="translate(0 0.78125)"/>
       <use xlink:href="#DejaVuSans-30" transform="translate(63.623047 0.78125)"/>
       <use xlink:href="#DejaVuSans-30" transform="translate(127.246094 0.78125)"/>
      </g>
     </g>
    </g>
    <g id="ytick_6">
     <g id="line2d_19">
      <path d="M 22.488283 38.891291 
L 429.165354 38.891291 
" clip-path="url(#p9714706074)" style="fill: none; stroke: #000000; stroke-opacity: 0.1; stroke-width: 0.5; stroke-linecap: square"/>
     </g>
     <g id="line2d_20">
      <g>
       <use xlink:href="#m26788ba81e" x="22.488283" y="38.891291" style="stroke: #000000; stroke-width: 0.5"/>
      </g>
     </g>
     <g id="text_10">
      <!-- $500$ -->
      <g transform="translate(3.708283 41.930666) scale(0.08 -0.08)">
       <defs>
        <path id="DejaVuSans-35" d="M 691 4666 
L 3169 4666 
L 3169 4134 
L 1269 4134 
L 1269 2991 
Q 1406 3038 1543 3061 
Q 1681 3084 1819 3084 
Q 2600 3084 3056 2656 
Q 3513 2228 3513 1497 
Q 3513 744 3044 326 
Q 2575 -91 1722 -91 
Q 1428 -91 1123 -41 
Q 819 9 494 109 
L 494 744 
Q 775 591 1075 516 
Q 1375 441 1709 441 
Q 2250 441 2565 725 
Q 2881 1009 2881 1497 
Q 2881 1984 2565 2268 
Q 2250 2553 1709 2553 
Q 1456 2553 1204 2497 
Q 953 2441 691 2322 
L 691 4666 
z
" transform="scale(0.015625)"/>
       </defs>
       <use xlink:href="#DejaVuSans-35" transform="translate(0 0.78125)"/>
       <use xlink:href="#DejaVuSans-30" transform="translate(63.623047 0.78125)"/>
       <use xlink:href="#DejaVuSans-30" transform="translate(127.246094 0.78125)"/>
      </g>
     </g>
    </g>
   </g>
   <g id="patch_3">
    <path d="M 44.856246 260.850383 
L 44.856246 273.025354 
L 70.709185 273.025354 
L 70.709185 260.850383 
L 44.856246 260.850383 
" clip-path="url(#p9714706074)" style="fill: #009afa; stroke: #000000; stroke-linejoin: miter"/>
   </g>
   <g id="patch_4">
    <path d="M 70.709185 250.548484 
L 70.709185 273.025354 
L 96.562124 273.025354 
L 96.562124 250.548484 
L 70.709185 250.548484 
" clip-path="url(#p9714706074)" style="fill: #009afa; stroke: #000000; stroke-linejoin: miter"/>
   </g>
   <g id="patch_5">
    <path d="M 96.562124 200.443795 
L 96.562124 273.025354 
L 122.415063 273.025354 
L 122.415063 200.443795 
L 96.562124 200.443795 
" clip-path="url(#p9714706074)" style="fill: #009afa; stroke: #000000; stroke-linejoin: miter"/>
   </g>
   <g id="patch_6">
    <path d="M 122.415063 140.505475 
L 122.415063 273.025354 
L 148.268002 273.025354 
L 148.268002 140.505475 
L 122.415063 140.505475 
" clip-path="url(#p9714706074)" style="fill: #009afa; stroke: #000000; stroke-linejoin: miter"/>
   </g>
   <g id="patch_7">
    <path d="M 148.268002 45.447045 
L 148.268002 273.025354 
L 174.120941 273.025354 
L 174.120941 45.447045 
L 148.268002 45.447045 
" clip-path="url(#p9714706074)" style="fill: #009afa; stroke: #000000; stroke-linejoin: miter"/>
   </g>
   <g id="patch_8">
    <path d="M 174.120941 29.525929 
L 174.120941 273.025354 
L 199.97388 273.025354 
L 199.97388 29.525929 
L 174.120941 29.525929 
" clip-path="url(#p9714706074)" style="fill: #009afa; stroke: #000000; stroke-linejoin: miter"/>
   </g>
   <g id="patch_9">
    <path d="M 199.97388 2.834646 
L 199.97388 273.025354 
L 225.826819 273.025354 
L 225.826819 2.834646 
L 199.97388 2.834646 
" clip-path="url(#p9714706074)" style="fill: #009afa; stroke: #000000; stroke-linejoin: miter"/>
   </g>
   <g id="patch_10">
    <path d="M 225.826819 54.34414 
L 225.826819 273.025354 
L 251.679758 273.025354 
L 251.679758 54.34414 
L 225.826819 54.34414 
" clip-path="url(#p9714706074)" style="fill: #009afa; stroke: #000000; stroke-linejoin: miter"/>
   </g>
   <g id="patch_11">
    <path d="M 251.679758 156.894859 
L 251.679758 273.025354 
L 277.532697 273.025354 
L 277.532697 156.894859 
L 251.679758 156.894859 
" clip-path="url(#p9714706074)" style="fill: #009afa; stroke: #000000; stroke-linejoin: miter"/>
   </g>
   <g id="patch_12">
    <path d="M 277.532697 211.68223 
L 277.532697 273.025354 
L 303.385636 273.025354 
L 303.385636 211.68223 
L 277.532697 211.68223 
" clip-path="url(#p9714706074)" style="fill: #009afa; stroke: #000000; stroke-linejoin: miter"/>
   </g>
   <g id="patch_13">
    <path d="M 303.385636 256.167702 
L 303.385636 273.025354 
L 329.238575 273.025354 
L 329.238575 256.167702 
L 303.385636 256.167702 
" clip-path="url(#p9714706074)" style="fill: #009afa; stroke: #000000; stroke-linejoin: miter"/>
   </g>
   <g id="patch_14">
    <path d="M 329.238575 265.064796 
L 329.238575 273.025354 
L 355.091514 273.025354 
L 355.091514 265.064796 
L 329.238575 265.064796 
" clip-path="url(#p9714706074)" style="fill: #009afa; stroke: #000000; stroke-linejoin: miter"/>
   </g>
   <g id="patch_15">
    <path d="M 355.091514 272.088818 
L 355.091514 273.025354 
L 380.944453 273.025354 
L 380.944453 272.088818 
L 355.091514 272.088818 
" clip-path="url(#p9714706074)" style="fill: #009afa; stroke: #000000; stroke-linejoin: miter"/>
   </g>
   <g id="patch_16">
    <path d="M 380.944453 271.152282 
L 380.944453 273.025354 
L 406.797392 273.025354 
L 406.797392 271.152282 
L 380.944453 271.152282 
" clip-path="url(#p9714706074)" style="fill: #009afa; stroke: #000000; stroke-linejoin: miter"/>
   </g>
   <g id="PathCollection_1">
    <defs>
     <path id="mcdacd6fb59" d="M 0 0 
C 0 0 0 0 0 0 
C 0 0 0 0 0 0 
C 0 0 0 0 0 0 
C 0 0 0 0 0 0 
C 0 0 0 0 0 0 
C 0 0 0 0 0 0 
C 0 0 0 0 0 0 
C 0 0 0 0 0 0 
z
" style="stroke: #000000; stroke-opacity: 0"/>
    </defs>
    <g clip-path="url(#p9714706074)">
     <use xlink:href="#mcdacd6fb59" x="57.782716" y="260.850383" style="fill: #009afa; fill-opacity: 0; stroke: #000000; stroke-opacity: 0"/>
     <use xlink:href="#mcdacd6fb59" x="83.635655" y="250.548484" style="fill: #009afa; fill-opacity: 0; stroke: #000000; stroke-opacity: 0"/>
     <use xlink:href="#mcdacd6fb59" x="109.488594" y="200.443795" style="fill: #009afa; fill-opacity: 0; stroke: #000000; stroke-opacity: 0"/>
     <use xlink:href="#mcdacd6fb59" x="135.341532" y="140.505475" style="fill: #009afa; fill-opacity: 0; stroke: #000000; stroke-opacity: 0"/>
     <use xlink:href="#mcdacd6fb59" x="161.194471" y="45.447045" style="fill: #009afa; fill-opacity: 0; stroke: #000000; stroke-opacity: 0"/>
     <use xlink:href="#mcdacd6fb59" x="187.04741" y="29.525929" style="fill: #009afa; fill-opacity: 0; stroke: #000000; stroke-opacity: 0"/>
     <use xlink:href="#mcdacd6fb59" x="212.900349" y="2.834646" style="fill: #009afa; fill-opacity: 0; stroke: #000000; stroke-opacity: 0"/>
     <use xlink:href="#mcdacd6fb59" x="238.753288" y="54.34414" style="fill: #009afa; fill-opacity: 0; stroke: #000000; stroke-opacity: 0"/>
     <use xlink:href="#mcdacd6fb59" x="264.606227" y="156.894859" style="fill: #009afa; fill-opacity: 0; stroke: #000000; stroke-opacity: 0"/>
     <use xlink:href="#mcdacd6fb59" x="290.459166" y="211.68223" style="fill: #009afa; fill-opacity: 0; stroke: #000000; stroke-opacity: 0"/>
     <use xlink:href="#mcdacd6fb59" x="316.312105" y="256.167702" style="fill: #009afa; fill-opacity: 0; stroke: #000000; stroke-opacity: 0"/>
     <use xlink:href="#mcdacd6fb59" x="342.165044" y="265.064796" style="fill: #009afa; fill-opacity: 0; stroke: #000000; stroke-opacity: 0"/>
     <use xlink:href="#mcdacd6fb59" x="368.017983" y="272.088818" style="fill: #009afa; fill-opacity: 0; stroke: #000000; stroke-opacity: 0"/>
     <use xlink:href="#mcdacd6fb59" x="393.870922" y="271.152282" style="fill: #009afa; fill-opacity: 0; stroke: #000000; stroke-opacity: 0"/>
    </g>
   </g>
   <g id="patch_17">
    <path d="M 22.488283 273.025354 
L 22.488283 2.834646 
" style="fill: none; stroke: #000000; stroke-linejoin: miter; stroke-linecap: square"/>
   </g>
   <g id="patch_18">
    <path d="M 22.488283 273.025354 
L 429.165354 273.025354 
" style="fill: none; stroke: #000000; stroke-linejoin: miter; stroke-linecap: square"/>
   </g>
   <g id="legend_1">
    <g id="patch_19">
     <path d="M 386.540354 20.977146 
L 425.165354 20.977146 
L 425.165354 6.834646 
L 386.540354 6.834646 
z
" style="fill: #ffffff; stroke: #000000; stroke-linejoin: miter"/>
    </g>
    <g id="patch_20">
     <path d="M 389.740354 16.113396 
L 405.740354 16.113396 
L 405.740354 10.513396 
L 389.740354 10.513396 
z
" style="fill: #009afa; stroke: #000000; stroke-linejoin: miter"/>
    </g>
    <g id="text_11">
     <!-- y1 -->
     <g transform="translate(412.140354 16.113396) scale(0.08 -0.08)">
      <defs>
       <path id="DejaVuSans-79" d="M 2059 -325 
Q 1816 -950 1584 -1140 
Q 1353 -1331 966 -1331 
L 506 -1331 
L 506 -850 
L 844 -850 
Q 1081 -850 1212 -737 
Q 1344 -625 1503 -206 
L 1606 56 
L 191 3500 
L 800 3500 
L 1894 763 
L 2988 3500 
L 3597 3500 
L 2059 -325 
z
" transform="scale(0.015625)"/>
      </defs>
      <use xlink:href="#DejaVuSans-79"/>
      <use xlink:href="#DejaVuSans-31" transform="translate(59.179688 0)"/>
     </g>
    </g>
   </g>
  </g>
 </g>
 <defs>
  <clipPath id="p9714706074">
   <rect x="22.488283" y="2.834646" width="406.677071" height="270.190709"/>
  </clipPath>
 </defs>
</svg>
