<?xml version="1.0" encoding="utf-8"?>
<svg xmlns="http://www.w3.org/2000/svg" xmlns:xlink="http://www.w3.org/1999/xlink" width="600" height="400" viewBox="0 0 2400 1600">
<defs>
  <clipPath id="clip460">
    <rect x="0" y="0" width="2400" height="1600"/>
  </clipPath>
</defs>
<path clip-path="url(#clip460)" d="M0 1600 L2400 1600 L2400 0 L0 0  Z" fill="#ffffff" fill-rule="evenodd" fill-opacity="1"/>
<defs>
  <clipPath id="clip461">
    <rect x="186" y="47" width="2167" height="1440"/>
  </clipPath>
</defs>
<path clip-path="url(#clip460)" d="M186.76 1486.45 L2352.76 1486.45 L2352.76 47.2441 L186.76 47.2441  Z" fill="#ffffff" fill-rule="evenodd" fill-opacity="1"/>
<polyline clip-path="url(#clip461)" style="stroke:#000000; stroke-linecap:round; stroke-linejoin:round; stroke-width:2; stroke-opacity:0.1; fill:none" points="555.48,1486.45 555.48,47.2441 "/>
<polyline clip-path="url(#clip461)" style="stroke:#000000; stroke-linecap:round; stroke-linejoin:round; stroke-width:2; stroke-opacity:0.1; fill:none" points="1104.92,1486.45 1104.92,47.2441 "/>
<polyline clip-path="url(#clip461)" style="stroke:#000000; stroke-linecap:round; stroke-linejoin:round; stroke-width:2; stroke-opacity:0.1; fill:none" points="1654.37,1486.45 1654.37,47.2441 "/>
<polyline clip-path="url(#clip461)" style="stroke:#000000; stroke-linecap:round; stroke-linejoin:round; stroke-width:2; stroke-opacity:0.1; fill:none" points="2203.81,1486.45 2203.81,47.2441 "/>
<polyline clip-path="url(#clip461)" style="stroke:#000000; stroke-linecap:round; stroke-linejoin:round; stroke-width:2; stroke-opacity:0.1; fill:none" points="186.76,1447.06 2352.76,1447.06 "/>
<polyline clip-path="url(#clip461)" style="stroke:#000000; stroke-linecap:round; stroke-linejoin:round; stroke-width:2; stroke-opacity:0.1; fill:none" points="186.76,1106.39 2352.76,1106.39 "/>
<polyline clip-path="url(#clip461)" style="stroke:#000000; stroke-linecap:round; stroke-linejoin:round; stroke-width:2; stroke-opacity:0.1; fill:none" points="186.76,765.709 2352.76,765.709 "/>
<polyline clip-path="url(#clip461)" style="stroke:#000000; stroke-linecap:round; stroke-linejoin:round; stroke-width:2; stroke-opacity:0.1; fill:none" points="186.76,425.031 2352.76,425.031 "/>
<polyline clip-path="url(#clip461)" style="stroke:#000000; stroke-linecap:round; stroke-linejoin:round; stroke-width:2; stroke-opacity:0.1; fill:none" points="186.76,84.3533 2352.76,84.3533 "/>
<polyline clip-path="url(#clip460)" style="stroke:#000000; stroke-linecap:round; stroke-linejoin:round; stroke-width:4; stroke-opacity:1; fill:none" points="186.76,1486.45 2352.76,1486.45 "/>
<polyline clip-path="url(#clip460)" style="stroke:#000000; stroke-linecap:round; stroke-linejoin:round; stroke-width:4; stroke-opacity:1; fill:none" points="555.48,1486.45 555.48,1467.55 "/>
<polyline clip-path="url(#clip460)" style="stroke:#000000; stroke-linecap:round; stroke-linejoin:round; stroke-width:4; stroke-opacity:1; fill:none" points="1104.92,1486.45 1104.92,1467.55 "/>
<polyline clip-path="url(#clip460)" style="stroke:#000000; stroke-linecap:round; stroke-linejoin:round; stroke-width:4; stroke-opacity:1; fill:none" points="1654.37,1486.45 1654.37,1467.55 "/>
<polyline clip-path="url(#clip460)" style="stroke:#000000; stroke-linecap:round; stroke-linejoin:round; stroke-width:4; stroke-opacity:1; fill:none" points="2203.81,1486.45 2203.81,1467.55 "/>
<path clip-path="url(#clip460)" d="M509.543 1532.02 L539.219 1532.02 L539.219 1535.95 L509.543 1535.95 L509.543 1532.02 Z" fill="#000000" fill-rule="nonzero" fill-opacity="1" /><path clip-path="url(#clip460)" d="M550.122 1544.91 L557.761 1544.91 L557.761 1518.55 L549.45 1520.21 L549.45 1515.95 L557.714 1514.29 L562.39 1514.29 L562.39 1544.91 L570.029 1544.91 L570.029 1548.85 L550.122 1548.85 L550.122 1544.91 Z" fill="#000000" fill-rule="nonzero" fill-opacity="1" /><path clip-path="url(#clip460)" d="M589.473 1517.37 Q585.862 1517.37 584.034 1520.93 Q582.228 1524.47 582.228 1531.6 Q582.228 1538.71 584.034 1542.27 Q585.862 1545.82 589.473 1545.82 Q593.108 1545.82 594.913 1542.27 Q596.742 1538.71 596.742 1531.6 Q596.742 1524.47 594.913 1520.93 Q593.108 1517.37 589.473 1517.37 M589.473 1513.66 Q595.283 1513.66 598.339 1518.27 Q601.418 1522.85 601.418 1531.6 Q601.418 1540.33 598.339 1544.94 Q595.283 1549.52 589.473 1549.52 Q583.663 1549.52 580.585 1544.94 Q577.529 1540.33 577.529 1531.6 Q577.529 1522.85 580.585 1518.27 Q583.663 1513.66 589.473 1513.66 Z" fill="#000000" fill-rule="nonzero" fill-opacity="1" /><path clip-path="url(#clip460)" d="M1104.92 1517.37 Q1101.31 1517.37 1099.48 1520.93 Q1097.68 1524.47 1097.68 1531.6 Q1097.68 1538.71 1099.48 1542.27 Q1101.31 1545.82 1104.92 1545.82 Q1108.56 1545.82 1110.36 1542.27 Q1112.19 1538.71 1112.19 1531.6 Q1112.19 1524.47 1110.36 1520.93 Q1108.56 1517.37 1104.92 1517.37 M1104.92 1513.66 Q1110.73 1513.66 1113.79 1518.27 Q1116.87 1522.85 1116.87 1531.6 Q1116.87 1540.33 1113.79 1544.94 Q1110.73 1549.52 1104.92 1549.52 Q1099.11 1549.52 1096.04 1544.94 Q1092.98 1540.33 1092.98 1531.6 Q1092.98 1522.85 1096.04 1518.27 Q1099.11 1513.66 1104.92 1513.66 Z" fill="#000000" fill-rule="nonzero" fill-opacity="1" /><path clip-path="url(#clip460)" d="M1629.06 1544.91 L1636.7 1544.91 L1636.7 1518.55 L1628.39 1520.21 L1628.39 1515.95 L1636.65 1514.29 L1641.33 1514.29 L1641.33 1544.91 L1648.96 1544.91 L1648.96 1548.85 L1629.06 1548.85 L1629.06 1544.91 Z" fill="#000000" fill-rule="nonzero" fill-opacity="1" /><path clip-path="url(#clip460)" d="M1668.41 1517.37 Q1664.8 1517.37 1662.97 1520.93 Q1661.16 1524.47 1661.16 1531.6 Q1661.16 1538.71 1662.97 1542.27 Q1664.8 1545.82 1668.41 1545.82 Q1672.04 1545.82 1673.85 1542.27 Q1675.68 1538.71 1675.68 1531.6 Q1675.68 1524.47 1673.85 1520.93 Q1672.04 1517.37 1668.41 1517.37 M1668.41 1513.66 Q1674.22 1513.66 1677.27 1518.27 Q1680.35 1522.85 1680.35 1531.6 Q1680.35 1540.33 1677.27 1544.94 Q1674.22 1549.52 1668.41 1549.52 Q1662.6 1549.52 1659.52 1544.94 Q1656.46 1540.33 1656.46 1531.6 Q1656.46 1522.85 1659.52 1518.27 Q1662.6 1513.66 1668.41 1513.66 Z" fill="#000000" fill-rule="nonzero" fill-opacity="1" /><path clip-path="url(#clip460)" d="M2182.59 1544.91 L2198.91 1544.91 L2198.91 1548.85 L2176.96 1548.85 L2176.96 1544.91 Q2179.62 1542.16 2184.21 1537.53 Q2188.81 1532.88 2189.99 1531.53 Q2192.24 1529.01 2193.12 1527.27 Q2194.02 1525.51 2194.02 1523.82 Q2194.02 1521.07 2192.08 1519.33 Q2190.16 1517.6 2187.05 1517.6 Q2184.86 1517.6 2182.4 1518.36 Q2179.97 1519.13 2177.19 1520.68 L2177.19 1515.95 Q2180.02 1514.82 2182.47 1514.24 Q2184.92 1513.66 2186.96 1513.66 Q2192.33 1513.66 2195.53 1516.35 Q2198.72 1519.03 2198.72 1523.52 Q2198.72 1525.65 2197.91 1527.57 Q2197.12 1529.47 2195.02 1532.07 Q2194.44 1532.74 2191.34 1535.95 Q2188.23 1539.15 2182.59 1544.91 Z" fill="#000000" fill-rule="nonzero" fill-opacity="1" /><path clip-path="url(#clip460)" d="M2218.72 1517.37 Q2215.11 1517.37 2213.28 1520.93 Q2211.48 1524.47 2211.48 1531.6 Q2211.48 1538.71 2213.28 1542.27 Q2215.11 1545.82 2218.72 1545.82 Q2222.35 1545.82 2224.16 1542.27 Q2225.99 1538.71 2225.99 1531.6 Q2225.99 1524.47 2224.16 1520.93 Q2222.35 1517.37 2218.72 1517.37 M2218.72 1513.66 Q2224.53 1513.66 2227.59 1518.27 Q2230.66 1522.85 2230.66 1531.6 Q2230.66 1540.33 2227.59 1544.94 Q2224.53 1549.52 2218.72 1549.52 Q2212.91 1549.52 2209.83 1544.94 Q2206.78 1540.33 2206.78 1531.6 Q2206.78 1522.85 2209.83 1518.27 Q2212.91 1513.66 2218.72 1513.66 Z" fill="#000000" fill-rule="nonzero" fill-opacity="1" /><polyline clip-path="url(#clip460)" style="stroke:#000000; stroke-linecap:round; stroke-linejoin:round; stroke-width:4; stroke-opacity:1; fill:none" points="186.76,1486.45 186.76,47.2441 "/>
<polyline clip-path="url(#clip460)" style="stroke:#000000; stroke-linecap:round; stroke-linejoin:round; stroke-width:4; stroke-opacity:1; fill:none" points="186.76,1447.06 205.658,1447.06 "/>
<polyline clip-path="url(#clip460)" style="stroke:#000000; stroke-linecap:round; stroke-linejoin:round; stroke-width:4; stroke-opacity:1; fill:none" points="186.76,1106.39 205.658,1106.39 "/>
<polyline clip-path="url(#clip460)" style="stroke:#000000; stroke-linecap:round; stroke-linejoin:round; stroke-width:4; stroke-opacity:1; fill:none" points="186.76,765.709 205.658,765.709 "/>
<polyline clip-path="url(#clip460)" style="stroke:#000000; stroke-linecap:round; stroke-linejoin:round; stroke-width:4; stroke-opacity:1; fill:none" points="186.76,425.031 205.658,425.031 "/>
<polyline clip-path="url(#clip460)" style="stroke:#000000; stroke-linecap:round; stroke-linejoin:round; stroke-width:4; stroke-opacity:1; fill:none" points="186.76,84.3533 205.658,84.3533 "/>
<path clip-path="url(#clip460)" d="M63.4226 1432.86 Q59.8115 1432.86 57.9828 1436.43 Q56.1773 1439.97 56.1773 1447.1 Q56.1773 1454.21 57.9828 1457.77 Q59.8115 1461.31 63.4226 1461.31 Q67.0569 1461.31 68.8624 1457.77 Q70.6911 1454.21 70.6911 1447.1 Q70.6911 1439.97 68.8624 1436.43 Q67.0569 1432.86 63.4226 1432.86 M63.4226 1429.16 Q69.2328 1429.16 72.2883 1433.77 Q75.367 1438.35 75.367 1447.1 Q75.367 1455.83 72.2883 1460.43 Q69.2328 1465.02 63.4226 1465.02 Q57.6125 1465.02 54.5338 1460.43 Q51.4782 1455.83 51.4782 1447.1 Q51.4782 1438.35 54.5338 1433.77 Q57.6125 1429.16 63.4226 1429.16 Z" fill="#000000" fill-rule="nonzero" fill-opacity="1" /><path clip-path="url(#clip460)" d="M83.5845 1458.46 L88.4688 1458.46 L88.4688 1464.34 L83.5845 1464.34 L83.5845 1458.46 Z" fill="#000000" fill-rule="nonzero" fill-opacity="1" /><path clip-path="url(#clip460)" d="M108.654 1432.86 Q105.043 1432.86 103.214 1436.43 Q101.409 1439.97 101.409 1447.1 Q101.409 1454.21 103.214 1457.77 Q105.043 1461.31 108.654 1461.31 Q112.288 1461.31 114.094 1457.77 Q115.922 1454.21 115.922 1447.1 Q115.922 1439.97 114.094 1436.43 Q112.288 1432.86 108.654 1432.86 M108.654 1429.16 Q114.464 1429.16 117.52 1433.77 Q120.598 1438.35 120.598 1447.1 Q120.598 1455.83 117.52 1460.43 Q114.464 1465.02 108.654 1465.02 Q102.844 1465.02 99.765 1460.43 Q96.7095 1455.83 96.7095 1447.1 Q96.7095 1438.35 99.765 1433.77 Q102.844 1429.16 108.654 1429.16 Z" fill="#000000" fill-rule="nonzero" fill-opacity="1" /><path clip-path="url(#clip460)" d="M138.816 1432.86 Q135.205 1432.86 133.376 1436.43 Q131.57 1439.97 131.57 1447.1 Q131.57 1454.21 133.376 1457.77 Q135.205 1461.31 138.816 1461.31 Q142.45 1461.31 144.256 1457.77 Q146.084 1454.21 146.084 1447.1 Q146.084 1439.97 144.256 1436.43 Q142.45 1432.86 138.816 1432.86 M138.816 1429.16 Q144.626 1429.16 147.681 1433.77 Q150.76 1438.35 150.76 1447.1 Q150.76 1455.83 147.681 1460.43 Q144.626 1465.02 138.816 1465.02 Q133.006 1465.02 129.927 1460.43 Q126.871 1455.83 126.871 1447.1 Q126.871 1438.35 129.927 1433.77 Q133.006 1429.16 138.816 1429.16 Z" fill="#000000" fill-rule="nonzero" fill-opacity="1" /><path clip-path="url(#clip460)" d="M65.0198 1092.19 Q61.4087 1092.19 59.58 1095.75 Q57.7745 1099.29 57.7745 1106.42 Q57.7745 1113.53 59.58 1117.09 Q61.4087 1120.63 65.0198 1120.63 Q68.6541 1120.63 70.4596 1117.09 Q72.2883 1113.53 72.2883 1106.42 Q72.2883 1099.29 70.4596 1095.75 Q68.6541 1092.19 65.0198 1092.19 M65.0198 1088.48 Q70.83 1088.48 73.8855 1093.09 Q76.9642 1097.67 76.9642 1106.42 Q76.9642 1115.15 73.8855 1119.75 Q70.83 1124.34 65.0198 1124.34 Q59.2097 1124.34 56.131 1119.75 Q53.0754 1115.15 53.0754 1106.42 Q53.0754 1097.67 56.131 1093.09 Q59.2097 1088.48 65.0198 1088.48 Z" fill="#000000" fill-rule="nonzero" fill-opacity="1" /><path clip-path="url(#clip460)" d="M85.1818 1117.79 L90.066 1117.79 L90.066 1123.67 L85.1818 1123.67 L85.1818 1117.79 Z" fill="#000000" fill-rule="nonzero" fill-opacity="1" /><path clip-path="url(#clip460)" d="M110.251 1092.19 Q106.64 1092.19 104.811 1095.75 Q103.006 1099.29 103.006 1106.42 Q103.006 1113.53 104.811 1117.09 Q106.64 1120.63 110.251 1120.63 Q113.885 1120.63 115.691 1117.09 Q117.52 1113.53 117.52 1106.42 Q117.52 1099.29 115.691 1095.75 Q113.885 1092.19 110.251 1092.19 M110.251 1088.48 Q116.061 1088.48 119.117 1093.09 Q122.195 1097.67 122.195 1106.42 Q122.195 1115.15 119.117 1119.75 Q116.061 1124.34 110.251 1124.34 Q104.441 1124.34 101.362 1119.75 Q98.3067 1115.15 98.3067 1106.42 Q98.3067 1097.67 101.362 1093.09 Q104.441 1088.48 110.251 1088.48 Z" fill="#000000" fill-rule="nonzero" fill-opacity="1" /><path clip-path="url(#clip460)" d="M134.441 1119.73 L150.76 1119.73 L150.76 1123.67 L128.816 1123.67 L128.816 1119.73 Q131.478 1116.98 136.061 1112.35 Q140.668 1107.69 141.848 1106.35 Q144.093 1103.83 144.973 1102.09 Q145.876 1100.33 145.876 1098.64 Q145.876 1095.89 143.931 1094.15 Q142.01 1092.42 138.908 1092.42 Q136.709 1092.42 134.256 1093.18 Q131.825 1093.94 129.047 1095.5 L129.047 1090.77 Q131.871 1089.64 134.325 1089.06 Q136.779 1088.48 138.816 1088.48 Q144.186 1088.48 147.38 1091.17 Q150.575 1093.85 150.575 1098.34 Q150.575 1100.47 149.765 1102.39 Q148.978 1104.29 146.871 1106.88 Q146.293 1107.56 143.191 1110.77 Q140.089 1113.97 134.441 1119.73 Z" fill="#000000" fill-rule="nonzero" fill-opacity="1" /><path clip-path="url(#clip460)" d="M62.9365 751.507 Q59.3254 751.507 57.4967 755.072 Q55.6912 758.614 55.6912 765.743 Q55.6912 772.85 57.4967 776.415 Q59.3254 779.956 62.9365 779.956 Q66.5707 779.956 68.3763 776.415 Q70.205 772.85 70.205 765.743 Q70.205 758.614 68.3763 755.072 Q66.5707 751.507 62.9365 751.507 M62.9365 747.804 Q68.7467 747.804 71.8022 752.41 Q74.8809 756.994 74.8809 765.743 Q74.8809 774.47 71.8022 779.077 Q68.7467 783.66 62.9365 783.66 Q57.1264 783.66 54.0477 779.077 Q50.9921 774.47 50.9921 765.743 Q50.9921 756.994 54.0477 752.41 Q57.1264 747.804 62.9365 747.804 Z" fill="#000000" fill-rule="nonzero" fill-opacity="1" /><path clip-path="url(#clip460)" d="M83.0984 777.109 L87.9827 777.109 L87.9827 782.989 L83.0984 782.989 L83.0984 777.109 Z" fill="#000000" fill-rule="nonzero" fill-opacity="1" /><path clip-path="url(#clip460)" d="M108.168 751.507 Q104.557 751.507 102.728 755.072 Q100.922 758.614 100.922 765.743 Q100.922 772.85 102.728 776.415 Q104.557 779.956 108.168 779.956 Q111.802 779.956 113.608 776.415 Q115.436 772.85 115.436 765.743 Q115.436 758.614 113.608 755.072 Q111.802 751.507 108.168 751.507 M108.168 747.804 Q113.978 747.804 117.033 752.41 Q120.112 756.994 120.112 765.743 Q120.112 774.47 117.033 779.077 Q113.978 783.66 108.168 783.66 Q102.358 783.66 99.2789 779.077 Q96.2234 774.47 96.2234 765.743 Q96.2234 756.994 99.2789 752.41 Q102.358 747.804 108.168 747.804 Z" fill="#000000" fill-rule="nonzero" fill-opacity="1" /><path clip-path="url(#clip460)" d="M141.177 752.503 L129.371 770.952 L141.177 770.952 L141.177 752.503 M139.95 748.429 L145.83 748.429 L145.83 770.952 L150.76 770.952 L150.76 774.841 L145.83 774.841 L145.83 782.989 L141.177 782.989 L141.177 774.841 L125.575 774.841 L125.575 770.327 L139.95 748.429 Z" fill="#000000" fill-rule="nonzero" fill-opacity="1" /><path clip-path="url(#clip460)" d="M63.2606 410.83 Q59.6495 410.83 57.8208 414.394 Q56.0152 417.936 56.0152 425.066 Q56.0152 432.172 57.8208 435.737 Q59.6495 439.279 63.2606 439.279 Q66.8948 439.279 68.7004 435.737 Q70.5291 432.172 70.5291 425.066 Q70.5291 417.936 68.7004 414.394 Q66.8948 410.83 63.2606 410.83 M63.2606 407.126 Q69.0707 407.126 72.1263 411.732 Q75.205 416.316 75.205 425.066 Q75.205 433.793 72.1263 438.399 Q69.0707 442.982 63.2606 442.982 Q57.4504 442.982 54.3717 438.399 Q51.3162 433.793 51.3162 425.066 Q51.3162 416.316 54.3717 411.732 Q57.4504 407.126 63.2606 407.126 Z" fill="#000000" fill-rule="nonzero" fill-opacity="1" /><path clip-path="url(#clip460)" d="M83.4225 436.431 L88.3067 436.431 L88.3067 442.311 L83.4225 442.311 L83.4225 436.431 Z" fill="#000000" fill-rule="nonzero" fill-opacity="1" /><path clip-path="url(#clip460)" d="M108.492 410.83 Q104.881 410.83 103.052 414.394 Q101.246 417.936 101.246 425.066 Q101.246 432.172 103.052 435.737 Q104.881 439.279 108.492 439.279 Q112.126 439.279 113.932 435.737 Q115.76 432.172 115.76 425.066 Q115.76 417.936 113.932 414.394 Q112.126 410.83 108.492 410.83 M108.492 407.126 Q114.302 407.126 117.358 411.732 Q120.436 416.316 120.436 425.066 Q120.436 433.793 117.358 438.399 Q114.302 442.982 108.492 442.982 Q102.682 442.982 99.603 438.399 Q96.5474 433.793 96.5474 425.066 Q96.5474 416.316 99.603 411.732 Q102.682 407.126 108.492 407.126 Z" fill="#000000" fill-rule="nonzero" fill-opacity="1" /><path clip-path="url(#clip460)" d="M139.232 423.168 Q136.084 423.168 134.232 425.32 Q132.404 427.473 132.404 431.223 Q132.404 434.95 134.232 437.126 Q136.084 439.279 139.232 439.279 Q142.381 439.279 144.209 437.126 Q146.061 434.95 146.061 431.223 Q146.061 427.473 144.209 425.32 Q142.381 423.168 139.232 423.168 M148.515 408.515 L148.515 412.774 Q146.756 411.941 144.95 411.501 Q143.168 411.061 141.408 411.061 Q136.779 411.061 134.325 414.186 Q131.894 417.311 131.547 423.631 Q132.913 421.617 134.973 420.552 Q137.033 419.464 139.51 419.464 Q144.718 419.464 147.728 422.635 Q150.76 425.783 150.76 431.223 Q150.76 436.547 147.612 439.765 Q144.464 442.982 139.232 442.982 Q133.237 442.982 130.066 438.399 Q126.894 433.793 126.894 425.066 Q126.894 416.871 130.783 412.01 Q134.672 407.126 141.223 407.126 Q142.982 407.126 144.765 407.473 Q146.57 407.82 148.515 408.515 Z" fill="#000000" fill-rule="nonzero" fill-opacity="1" /><path clip-path="url(#clip460)" d="M63.5152 70.1519 Q59.9041 70.1519 58.0754 73.7167 Q56.2699 77.2584 56.2699 84.388 Q56.2699 91.4944 58.0754 95.0592 Q59.9041 98.6009 63.5152 98.6009 Q67.1494 98.6009 68.955 95.0592 Q70.7837 91.4944 70.7837 84.388 Q70.7837 77.2584 68.955 73.7167 Q67.1494 70.1519 63.5152 70.1519 M63.5152 66.4483 Q69.3254 66.4483 72.3809 71.0547 Q75.4596 75.638 75.4596 84.388 Q75.4596 93.1148 72.3809 97.7212 Q69.3254 102.305 63.5152 102.305 Q57.7051 102.305 54.6264 97.7212 Q51.5708 93.1148 51.5708 84.388 Q51.5708 75.638 54.6264 71.0547 Q57.7051 66.4483 63.5152 66.4483 Z" fill="#000000" fill-rule="nonzero" fill-opacity="1" /><path clip-path="url(#clip460)" d="M83.6771 95.7537 L88.5614 95.7537 L88.5614 101.633 L83.6771 101.633 L83.6771 95.7537 Z" fill="#000000" fill-rule="nonzero" fill-opacity="1" /><path clip-path="url(#clip460)" d="M108.746 70.1519 Q105.135 70.1519 103.307 73.7167 Q101.501 77.2584 101.501 84.388 Q101.501 91.4944 103.307 95.0592 Q105.135 98.6009 108.746 98.6009 Q112.381 98.6009 114.186 95.0592 Q116.015 91.4944 116.015 84.388 Q116.015 77.2584 114.186 73.7167 Q112.381 70.1519 108.746 70.1519 M108.746 66.4483 Q114.557 66.4483 117.612 71.0547 Q120.691 75.638 120.691 84.388 Q120.691 93.1148 117.612 97.7212 Q114.557 102.305 108.746 102.305 Q102.936 102.305 99.8576 97.7212 Q96.8021 93.1148 96.8021 84.388 Q96.8021 75.638 99.8576 71.0547 Q102.936 66.4483 108.746 66.4483 Z" fill="#000000" fill-rule="nonzero" fill-opacity="1" /><path clip-path="url(#clip460)" d="M138.908 85.2213 Q135.575 85.2213 133.654 87.0037 Q131.756 88.7861 131.756 91.9111 Q131.756 95.0361 133.654 96.8185 Q135.575 98.6009 138.908 98.6009 Q142.242 98.6009 144.163 96.8185 Q146.084 95.0129 146.084 91.9111 Q146.084 88.7861 144.163 87.0037 Q142.265 85.2213 138.908 85.2213 M134.232 83.2306 Q131.223 82.4898 129.533 80.4297 Q127.867 78.3695 127.867 75.4065 Q127.867 71.263 130.807 68.8556 Q133.769 66.4483 138.908 66.4483 Q144.07 66.4483 147.01 68.8556 Q149.95 71.263 149.95 75.4065 Q149.95 78.3695 148.26 80.4297 Q146.593 82.4898 143.607 83.2306 Q146.987 84.0176 148.862 86.3093 Q150.76 88.6009 150.76 91.9111 Q150.76 96.9342 147.681 99.6194 Q144.626 102.305 138.908 102.305 Q133.191 102.305 130.112 99.6194 Q127.057 96.9342 127.057 91.9111 Q127.057 88.6009 128.955 86.3093 Q130.853 84.0176 134.232 83.2306 M132.519 75.8464 Q132.519 78.5315 134.186 80.0361 Q135.876 81.5408 138.908 81.5408 Q141.918 81.5408 143.607 80.0361 Q145.32 78.5315 145.32 75.8464 Q145.32 73.1612 143.607 71.6566 Q141.918 70.1519 138.908 70.1519 Q135.876 70.1519 134.186 71.6566 Q132.519 73.1612 132.519 75.8464 Z" fill="#000000" fill-rule="nonzero" fill-opacity="1" /><polyline clip-path="url(#clip461)" style="stroke:#009af9; stroke-linecap:round; stroke-linejoin:round; stroke-width:12; stroke-opacity:1; fill:none" points="248.062,1445.72 258.184,1445.52 268.306,1445.3 324.954,1443.39 381.602,1439.76 420.281,1435.66 458.96,1429.61 490.322,1422.78 521.683,1413.71 553.185,1401.79 584.686,1386.4 603.843,1375.05 623,1362 642.156,1347.07 661.313,1330.09 677.015,1314.52 692.716,1297.37 708.418,1278.55 724.12,1257.98 739.833,1235.58 755.546,1211.3 771.259,1185.08 786.972,1156.91 806.14,1119.85 825.308,1079.86 844.476,1036.98 863.644,991.316 879.358,951.915 895.071,910.866 910.784,868.31 926.498,824.416 964.794,713.113 1003.09,598.562 1034.48,505.208 1065.87,415.144 1081.6,372.094 1097.34,330.916 1113.08,291.958 1128.81,255.555 1138.39,234.782 1147.97,215.147 1157.55,196.715 1167.14,179.549 1176.72,163.71 1186.3,149.252 1195.88,136.226 1205.46,124.679 1213.31,116.345 1221.16,109.053 1229.02,102.82 1236.87,97.6609 1244.72,93.5883 1252.58,90.6122 1260.43,88.74 1268.28,87.9763 1276.13,88.3224 1283.98,89.7768 1291.83,92.3361 1299.68,95.994 1307.53,100.741 1315.38,106.567 1323.23,113.457 1331.08,121.393 1340.66,132.479 1350.25,145.058 1359.84,159.086 1369.42,174.513 1379.01,191.285 1388.59,209.344 1398.18,228.628 1407.77,249.072 1423.48,284.917 1439.2,323.374 1454.92,364.109 1470.64,406.779 1508.94,516.702 1547.25,631.03 1578.65,724.733 1610.04,815.974 1625.77,860.122 1641.49,902.968 1657.21,944.335 1672.93,984.075 1692.1,1030.15 1711.26,1073.46 1730.43,1113.89 1749.59,1151.4 1765.3,1179.94 1781.01,1206.51 1796.73,1231.15 1812.44,1253.9 1831.58,1279.15 1850.73,1301.81 1869.87,1322.02 1889.02,1339.94 1904.71,1353.03 1920.4,1364.79 1936.09,1375.32 1951.78,1384.7 1967.53,1393.06 1983.27,1400.46 1999.02,1406.97 2014.76,1412.68 2053.08,1423.74 2091.4,1431.54 2122.61,1436.09 2153.82,1439.4 2210.96,1443.22 2268.11,1445.22 2279.78,1445.49 2291.45,1445.72 "/>
</svg>
