<?xml version="1.0" encoding="utf-8"?>
<svg xmlns="http://www.w3.org/2000/svg" xmlns:xlink="http://www.w3.org/1999/xlink" width="600" height="400" viewBox="0 0 2400 1600">
<defs>
  <clipPath id="clip960">
    <rect x="0" y="0" width="2400" height="1600"/>
  </clipPath>
</defs>
<path clip-path="url(#clip960)" d="M0 1600 L2400 1600 L2400 0 L0 0  Z" fill="#ffffff" fill-rule="evenodd" fill-opacity="1"/>
<defs>
  <clipPath id="clip961">
    <rect x="480" y="0" width="1681" height="1600"/>
  </clipPath>
</defs>
<path clip-path="url(#clip960)" d="M249.542 1423.18 L2352.76 1423.18 L2352.76 47.2441 L249.542 47.2441  Z" fill="#ffffff" fill-rule="evenodd" fill-opacity="1"/>
<defs>
  <clipPath id="clip962">
    <rect x="249" y="47" width="2104" height="1377"/>
  </clipPath>
</defs>
<polyline clip-path="url(#clip962)" style="stroke:#000000; stroke-linecap:round; stroke-linejoin:round; stroke-width:2; stroke-opacity:0.1; fill:none" points="301.249,1423.18 301.249,47.2441 "/>
<polyline clip-path="url(#clip962)" style="stroke:#000000; stroke-linecap:round; stroke-linejoin:round; stroke-width:2; stroke-opacity:0.1; fill:none" points="983.906,1423.18 983.906,47.2441 "/>
<polyline clip-path="url(#clip962)" style="stroke:#000000; stroke-linecap:round; stroke-linejoin:round; stroke-width:2; stroke-opacity:0.1; fill:none" points="1666.56,1423.18 1666.56,47.2441 "/>
<polyline clip-path="url(#clip962)" style="stroke:#000000; stroke-linecap:round; stroke-linejoin:round; stroke-width:2; stroke-opacity:0.1; fill:none" points="2349.22,1423.18 2349.22,47.2441 "/>
<polyline clip-path="url(#clip962)" style="stroke:#000000; stroke-linecap:round; stroke-linejoin:round; stroke-width:2; stroke-opacity:0.1; fill:none" points="249.542,1332.8 2352.76,1332.8 "/>
<polyline clip-path="url(#clip962)" style="stroke:#000000; stroke-linecap:round; stroke-linejoin:round; stroke-width:2; stroke-opacity:0.1; fill:none" points="249.542,1053.52 2352.76,1053.52 "/>
<polyline clip-path="url(#clip962)" style="stroke:#000000; stroke-linecap:round; stroke-linejoin:round; stroke-width:2; stroke-opacity:0.1; fill:none" points="249.542,774.242 2352.76,774.242 "/>
<polyline clip-path="url(#clip962)" style="stroke:#000000; stroke-linecap:round; stroke-linejoin:round; stroke-width:2; stroke-opacity:0.1; fill:none" points="249.542,494.963 2352.76,494.963 "/>
<polyline clip-path="url(#clip962)" style="stroke:#000000; stroke-linecap:round; stroke-linejoin:round; stroke-width:2; stroke-opacity:0.1; fill:none" points="249.542,215.683 2352.76,215.683 "/>
<polyline clip-path="url(#clip960)" style="stroke:#000000; stroke-linecap:round; stroke-linejoin:round; stroke-width:4; stroke-opacity:1; fill:none" points="249.542,1423.18 2352.76,1423.18 "/>
<polyline clip-path="url(#clip960)" style="stroke:#000000; stroke-linecap:round; stroke-linejoin:round; stroke-width:4; stroke-opacity:1; fill:none" points="301.249,1423.18 301.249,1404.28 "/>
<polyline clip-path="url(#clip960)" style="stroke:#000000; stroke-linecap:round; stroke-linejoin:round; stroke-width:4; stroke-opacity:1; fill:none" points="983.906,1423.18 983.906,1404.28 "/>
<polyline clip-path="url(#clip960)" style="stroke:#000000; stroke-linecap:round; stroke-linejoin:round; stroke-width:4; stroke-opacity:1; fill:none" points="1666.56,1423.18 1666.56,1404.28 "/>
<polyline clip-path="url(#clip960)" style="stroke:#000000; stroke-linecap:round; stroke-linejoin:round; stroke-width:4; stroke-opacity:1; fill:none" points="2349.22,1423.18 2349.22,1404.28 "/>
<path clip-path="url(#clip960)" d="M271.192 1468.75 L300.867 1468.75 L300.867 1472.69 L271.192 1472.69 L271.192 1468.75 Z" fill="#000000" fill-rule="nonzero" fill-opacity="1" /><path clip-path="url(#clip960)" d="M314.988 1481.64 L331.307 1481.64 L331.307 1485.58 L309.363 1485.58 L309.363 1481.64 Q312.025 1478.89 316.608 1474.26 Q321.215 1469.61 322.395 1468.27 Q324.64 1465.74 325.52 1464.01 Q326.423 1462.25 326.423 1460.56 Q326.423 1457.8 324.478 1456.07 Q322.557 1454.33 319.455 1454.33 Q317.256 1454.33 314.803 1455.09 Q312.372 1455.86 309.594 1457.41 L309.594 1452.69 Q312.418 1451.55 314.872 1450.97 Q317.326 1450.39 319.363 1450.39 Q324.733 1450.39 327.927 1453.08 Q331.122 1455.77 331.122 1460.26 Q331.122 1462.39 330.312 1464.31 Q329.525 1466.2 327.418 1468.8 Q326.839 1469.47 323.738 1472.69 Q320.636 1475.88 314.988 1481.64 Z" fill="#000000" fill-rule="nonzero" fill-opacity="1" /><path clip-path="url(#clip960)" d="M953.663 1468.75 L983.339 1468.75 L983.339 1472.69 L953.663 1472.69 L953.663 1468.75 Z" fill="#000000" fill-rule="nonzero" fill-opacity="1" /><path clip-path="url(#clip960)" d="M994.241 1481.64 L1001.88 1481.64 L1001.88 1455.28 L993.57 1456.95 L993.57 1452.69 L1001.83 1451.02 L1006.51 1451.02 L1006.51 1481.64 L1014.15 1481.64 L1014.15 1485.58 L994.241 1485.58 L994.241 1481.64 Z" fill="#000000" fill-rule="nonzero" fill-opacity="1" /><path clip-path="url(#clip960)" d="M1666.56 1454.1 Q1662.95 1454.1 1661.12 1457.66 Q1659.32 1461.2 1659.32 1468.33 Q1659.32 1475.44 1661.12 1479.01 Q1662.95 1482.55 1666.56 1482.55 Q1670.2 1482.55 1672 1479.01 Q1673.83 1475.44 1673.83 1468.33 Q1673.83 1461.2 1672 1457.66 Q1670.2 1454.1 1666.56 1454.1 M1666.56 1450.39 Q1672.37 1450.39 1675.43 1455 Q1678.51 1459.58 1678.51 1468.33 Q1678.51 1477.06 1675.43 1481.67 Q1672.37 1486.25 1666.56 1486.25 Q1660.75 1486.25 1657.67 1481.67 Q1654.62 1477.06 1654.62 1468.33 Q1654.62 1459.58 1657.67 1455 Q1660.75 1450.39 1666.56 1450.39 Z" fill="#000000" fill-rule="nonzero" fill-opacity="1" /><path clip-path="url(#clip960)" d="M2339.6 1481.64 L2347.24 1481.64 L2347.24 1455.28 L2338.93 1456.95 L2338.93 1452.69 L2347.19 1451.02 L2351.87 1451.02 L2351.87 1481.64 L2359.51 1481.64 L2359.51 1485.58 L2339.6 1485.58 L2339.6 1481.64 Z" fill="#000000" fill-rule="nonzero" fill-opacity="1" /><path clip-path="url(#clip960)" d="M1249.46 1522.27 L1249.46 1532.4 L1261.52 1532.4 L1261.52 1536.95 L1249.46 1536.95 L1249.46 1556.3 Q1249.46 1560.66 1250.64 1561.9 Q1251.85 1563.14 1255.51 1563.14 L1261.52 1563.14 L1261.52 1568.04 L1255.51 1568.04 Q1248.73 1568.04 1246.15 1565.53 Q1243.57 1562.98 1243.57 1556.3 L1243.57 1536.95 L1239.27 1536.95 L1239.27 1532.4 L1243.57 1532.4 L1243.57 1522.27 L1249.46 1522.27 Z" fill="#000000" fill-rule="nonzero" fill-opacity="1" /><path clip-path="url(#clip960)" d="M1304.01 1518.58 Q1299.75 1525.9 1297.68 1533.06 Q1295.61 1540.23 1295.61 1547.58 Q1295.61 1554.93 1297.68 1562.16 Q1299.78 1569.35 1304.01 1576.64 L1298.92 1576.64 Q1294.15 1569.16 1291.76 1561.93 Q1289.4 1554.71 1289.4 1547.58 Q1289.4 1540.48 1291.76 1533.29 Q1294.11 1526.09 1298.92 1518.58 L1304.01 1518.58 Z" fill="#000000" fill-rule="nonzero" fill-opacity="1" /><path clip-path="url(#clip960)" d="M1338.1 1533.45 L1338.1 1538.98 Q1335.62 1537.71 1332.95 1537.07 Q1330.27 1536.44 1327.41 1536.44 Q1323.05 1536.44 1320.85 1537.77 Q1318.69 1539.11 1318.69 1541.79 Q1318.69 1543.82 1320.25 1545 Q1321.81 1546.15 1326.52 1547.2 L1328.52 1547.64 Q1334.76 1548.98 1337.37 1551.43 Q1340.01 1553.85 1340.01 1558.21 Q1340.01 1563.17 1336.06 1566.07 Q1332.15 1568.97 1325.27 1568.97 Q1322.41 1568.97 1319.29 1568.39 Q1316.2 1567.85 1312.77 1566.74 L1312.77 1560.69 Q1316.01 1562.38 1319.16 1563.24 Q1322.31 1564.07 1325.4 1564.07 Q1329.54 1564.07 1331.77 1562.66 Q1334 1561.23 1334 1558.65 Q1334 1556.27 1332.37 1554.99 Q1330.78 1553.72 1325.34 1552.54 L1323.3 1552.07 Q1317.86 1550.92 1315.44 1548.56 Q1313.02 1546.18 1313.02 1542.04 Q1313.02 1537.01 1316.59 1534.27 Q1320.15 1531.54 1326.71 1531.54 Q1329.95 1531.54 1332.82 1532.01 Q1335.68 1532.49 1338.1 1533.45 Z" fill="#000000" fill-rule="nonzero" fill-opacity="1" /><path clip-path="url(#clip960)" d="M1348.41 1518.58 L1353.51 1518.58 Q1358.28 1526.09 1360.64 1533.29 Q1363.02 1540.48 1363.02 1547.58 Q1363.02 1554.71 1360.64 1561.93 Q1358.28 1569.16 1353.51 1576.64 L1348.41 1576.64 Q1352.65 1569.35 1354.72 1562.16 Q1356.82 1554.93 1356.82 1547.58 Q1356.82 1540.23 1354.72 1533.06 Q1352.65 1525.9 1348.41 1518.58 Z" fill="#000000" fill-rule="nonzero" fill-opacity="1" /><polyline clip-path="url(#clip960)" style="stroke:#000000; stroke-linecap:round; stroke-linejoin:round; stroke-width:4; stroke-opacity:1; fill:none" points="249.542,1423.18 249.542,47.2441 "/>
<polyline clip-path="url(#clip960)" style="stroke:#000000; stroke-linecap:round; stroke-linejoin:round; stroke-width:4; stroke-opacity:1; fill:none" points="249.542,1332.8 268.44,1332.8 "/>
<polyline clip-path="url(#clip960)" style="stroke:#000000; stroke-linecap:round; stroke-linejoin:round; stroke-width:4; stroke-opacity:1; fill:none" points="249.542,1053.52 268.44,1053.52 "/>
<polyline clip-path="url(#clip960)" style="stroke:#000000; stroke-linecap:round; stroke-linejoin:round; stroke-width:4; stroke-opacity:1; fill:none" points="249.542,774.242 268.44,774.242 "/>
<polyline clip-path="url(#clip960)" style="stroke:#000000; stroke-linecap:round; stroke-linejoin:round; stroke-width:4; stroke-opacity:1; fill:none" points="249.542,494.963 268.44,494.963 "/>
<polyline clip-path="url(#clip960)" style="stroke:#000000; stroke-linecap:round; stroke-linejoin:round; stroke-width:4; stroke-opacity:1; fill:none" points="249.542,215.683 268.44,215.683 "/>
<path clip-path="url(#clip960)" d="M126.205 1318.6 Q122.593 1318.6 120.765 1322.16 Q118.959 1325.71 118.959 1332.84 Q118.959 1339.94 120.765 1343.51 Q122.593 1347.05 126.205 1347.05 Q129.839 1347.05 131.644 1343.51 Q133.473 1339.94 133.473 1332.84 Q133.473 1325.71 131.644 1322.16 Q129.839 1318.6 126.205 1318.6 M126.205 1314.9 Q132.015 1314.9 135.07 1319.5 Q138.149 1324.09 138.149 1332.84 Q138.149 1341.56 135.07 1346.17 Q132.015 1350.75 126.205 1350.75 Q120.394 1350.75 117.316 1346.17 Q114.26 1341.56 114.26 1332.84 Q114.26 1324.09 117.316 1319.5 Q120.394 1314.9 126.205 1314.9 Z" fill="#000000" fill-rule="nonzero" fill-opacity="1" /><path clip-path="url(#clip960)" d="M146.366 1344.2 L151.251 1344.2 L151.251 1350.08 L146.366 1350.08 L146.366 1344.2 Z" fill="#000000" fill-rule="nonzero" fill-opacity="1" /><path clip-path="url(#clip960)" d="M171.436 1318.6 Q167.825 1318.6 165.996 1322.16 Q164.19 1325.71 164.19 1332.84 Q164.19 1339.94 165.996 1343.51 Q167.825 1347.05 171.436 1347.05 Q175.07 1347.05 176.876 1343.51 Q178.704 1339.94 178.704 1332.84 Q178.704 1325.71 176.876 1322.16 Q175.07 1318.6 171.436 1318.6 M171.436 1314.9 Q177.246 1314.9 180.301 1319.5 Q183.38 1324.09 183.38 1332.84 Q183.38 1341.56 180.301 1346.17 Q177.246 1350.75 171.436 1350.75 Q165.626 1350.75 162.547 1346.17 Q159.491 1341.56 159.491 1332.84 Q159.491 1324.09 162.547 1319.5 Q165.626 1314.9 171.436 1314.9 Z" fill="#000000" fill-rule="nonzero" fill-opacity="1" /><path clip-path="url(#clip960)" d="M201.598 1318.6 Q197.987 1318.6 196.158 1322.16 Q194.352 1325.71 194.352 1332.84 Q194.352 1339.94 196.158 1343.51 Q197.987 1347.05 201.598 1347.05 Q205.232 1347.05 207.037 1343.51 Q208.866 1339.94 208.866 1332.84 Q208.866 1325.71 207.037 1322.16 Q205.232 1318.6 201.598 1318.6 M201.598 1314.9 Q207.408 1314.9 210.463 1319.5 Q213.542 1324.09 213.542 1332.84 Q213.542 1341.56 210.463 1346.17 Q207.408 1350.75 201.598 1350.75 Q195.787 1350.75 192.709 1346.17 Q189.653 1341.56 189.653 1332.84 Q189.653 1324.09 192.709 1319.5 Q195.787 1314.9 201.598 1314.9 Z" fill="#000000" fill-rule="nonzero" fill-opacity="1" /><path clip-path="url(#clip960)" d="M127.2 1039.32 Q123.589 1039.32 121.76 1042.89 Q119.955 1046.43 119.955 1053.56 Q119.955 1060.66 121.76 1064.23 Q123.589 1067.77 127.2 1067.77 Q130.834 1067.77 132.64 1064.23 Q134.468 1060.66 134.468 1053.56 Q134.468 1046.43 132.64 1042.89 Q130.834 1039.32 127.2 1039.32 M127.2 1035.62 Q133.01 1035.62 136.066 1040.22 Q139.144 1044.81 139.144 1053.56 Q139.144 1062.28 136.066 1066.89 Q133.01 1071.47 127.2 1071.47 Q121.39 1071.47 118.311 1066.89 Q115.256 1062.28 115.256 1053.56 Q115.256 1044.81 118.311 1040.22 Q121.39 1035.62 127.2 1035.62 Z" fill="#000000" fill-rule="nonzero" fill-opacity="1" /><path clip-path="url(#clip960)" d="M147.362 1064.92 L152.246 1064.92 L152.246 1070.8 L147.362 1070.8 L147.362 1064.92 Z" fill="#000000" fill-rule="nonzero" fill-opacity="1" /><path clip-path="url(#clip960)" d="M166.459 1066.87 L182.778 1066.87 L182.778 1070.8 L160.834 1070.8 L160.834 1066.87 Q163.496 1064.11 168.079 1059.48 Q172.686 1054.83 173.866 1053.49 Q176.112 1050.96 176.991 1049.23 Q177.894 1047.47 177.894 1045.78 Q177.894 1043.02 175.95 1041.29 Q174.028 1039.55 170.927 1039.55 Q168.727 1039.55 166.274 1040.32 Q163.843 1041.08 161.065 1042.63 L161.065 1037.91 Q163.89 1036.77 166.343 1036.2 Q168.797 1035.62 170.834 1035.62 Q176.204 1035.62 179.399 1038.3 Q182.593 1040.99 182.593 1045.48 Q182.593 1047.61 181.783 1049.53 Q180.996 1051.43 178.889 1054.02 Q178.311 1054.69 175.209 1057.91 Q172.107 1061.1 166.459 1066.87 Z" fill="#000000" fill-rule="nonzero" fill-opacity="1" /><path clip-path="url(#clip960)" d="M192.639 1036.24 L210.996 1036.24 L210.996 1040.18 L196.922 1040.18 L196.922 1048.65 Q197.94 1048.3 198.959 1048.14 Q199.977 1047.95 200.996 1047.95 Q206.783 1047.95 210.162 1051.13 Q213.542 1054.3 213.542 1059.71 Q213.542 1065.29 210.07 1068.39 Q206.598 1071.47 200.278 1071.47 Q198.102 1071.47 195.834 1071.1 Q193.588 1070.73 191.181 1069.99 L191.181 1065.29 Q193.264 1066.43 195.487 1066.98 Q197.709 1067.54 200.186 1067.54 Q204.19 1067.54 206.528 1065.43 Q208.866 1063.32 208.866 1059.71 Q208.866 1056.1 206.528 1054 Q204.19 1051.89 200.186 1051.89 Q198.311 1051.89 196.436 1052.31 Q194.584 1052.72 192.639 1053.6 L192.639 1036.24 Z" fill="#000000" fill-rule="nonzero" fill-opacity="1" /><path clip-path="url(#clip960)" d="M126.205 760.041 Q122.593 760.041 120.765 763.606 Q118.959 767.147 118.959 774.277 Q118.959 781.383 120.765 784.948 Q122.593 788.49 126.205 788.49 Q129.839 788.49 131.644 784.948 Q133.473 781.383 133.473 774.277 Q133.473 767.147 131.644 763.606 Q129.839 760.041 126.205 760.041 M126.205 756.337 Q132.015 756.337 135.07 760.944 Q138.149 765.527 138.149 774.277 Q138.149 783.004 135.07 787.61 Q132.015 792.193 126.205 792.193 Q120.394 792.193 117.316 787.61 Q114.26 783.004 114.26 774.277 Q114.26 765.527 117.316 760.944 Q120.394 756.337 126.205 756.337 Z" fill="#000000" fill-rule="nonzero" fill-opacity="1" /><path clip-path="url(#clip960)" d="M146.366 785.643 L151.251 785.643 L151.251 791.522 L146.366 791.522 L146.366 785.643 Z" fill="#000000" fill-rule="nonzero" fill-opacity="1" /><path clip-path="url(#clip960)" d="M161.482 756.962 L179.839 756.962 L179.839 760.897 L165.765 760.897 L165.765 769.37 Q166.783 769.022 167.802 768.86 Q168.82 768.675 169.839 768.675 Q175.626 768.675 179.005 771.846 Q182.385 775.018 182.385 780.434 Q182.385 786.013 178.913 789.115 Q175.44 792.193 169.121 792.193 Q166.945 792.193 164.677 791.823 Q162.431 791.453 160.024 790.712 L160.024 786.013 Q162.107 787.147 164.329 787.703 Q166.552 788.258 169.028 788.258 Q173.033 788.258 175.371 786.152 Q177.709 784.045 177.709 780.434 Q177.709 776.823 175.371 774.717 Q173.033 772.61 169.028 772.61 Q167.153 772.61 165.278 773.027 Q163.427 773.444 161.482 774.323 L161.482 756.962 Z" fill="#000000" fill-rule="nonzero" fill-opacity="1" /><path clip-path="url(#clip960)" d="M201.598 760.041 Q197.987 760.041 196.158 763.606 Q194.352 767.147 194.352 774.277 Q194.352 781.383 196.158 784.948 Q197.987 788.49 201.598 788.49 Q205.232 788.49 207.037 784.948 Q208.866 781.383 208.866 774.277 Q208.866 767.147 207.037 763.606 Q205.232 760.041 201.598 760.041 M201.598 756.337 Q207.408 756.337 210.463 760.944 Q213.542 765.527 213.542 774.277 Q213.542 783.004 210.463 787.61 Q207.408 792.193 201.598 792.193 Q195.787 792.193 192.709 787.61 Q189.653 783.004 189.653 774.277 Q189.653 765.527 192.709 760.944 Q195.787 756.337 201.598 756.337 Z" fill="#000000" fill-rule="nonzero" fill-opacity="1" /><path clip-path="url(#clip960)" d="M127.2 480.761 Q123.589 480.761 121.76 484.326 Q119.955 487.868 119.955 494.997 Q119.955 502.104 121.76 505.669 Q123.589 509.21 127.2 509.21 Q130.834 509.21 132.64 505.669 Q134.468 502.104 134.468 494.997 Q134.468 487.868 132.64 484.326 Q130.834 480.761 127.2 480.761 M127.2 477.058 Q133.01 477.058 136.066 481.664 Q139.144 486.247 139.144 494.997 Q139.144 503.724 136.066 508.331 Q133.01 512.914 127.2 512.914 Q121.39 512.914 118.311 508.331 Q115.256 503.724 115.256 494.997 Q115.256 486.247 118.311 481.664 Q121.39 477.058 127.2 477.058 Z" fill="#000000" fill-rule="nonzero" fill-opacity="1" /><path clip-path="url(#clip960)" d="M147.362 506.363 L152.246 506.363 L152.246 512.243 L147.362 512.243 L147.362 506.363 Z" fill="#000000" fill-rule="nonzero" fill-opacity="1" /><path clip-path="url(#clip960)" d="M161.251 477.683 L183.473 477.683 L183.473 479.673 L170.927 512.243 L166.042 512.243 L177.848 481.618 L161.251 481.618 L161.251 477.683 Z" fill="#000000" fill-rule="nonzero" fill-opacity="1" /><path clip-path="url(#clip960)" d="M192.639 477.683 L210.996 477.683 L210.996 481.618 L196.922 481.618 L196.922 490.09 Q197.94 489.743 198.959 489.581 Q199.977 489.395 200.996 489.395 Q206.783 489.395 210.162 492.567 Q213.542 495.738 213.542 501.155 Q213.542 506.733 210.07 509.835 Q206.598 512.914 200.278 512.914 Q198.102 512.914 195.834 512.544 Q193.588 512.173 191.181 511.432 L191.181 506.733 Q193.264 507.868 195.487 508.423 Q197.709 508.979 200.186 508.979 Q204.19 508.979 206.528 506.872 Q208.866 504.766 208.866 501.155 Q208.866 497.544 206.528 495.437 Q204.19 493.331 200.186 493.331 Q198.311 493.331 196.436 493.747 Q194.584 494.164 192.639 495.044 L192.639 477.683 Z" fill="#000000" fill-rule="nonzero" fill-opacity="1" /><path clip-path="url(#clip960)" d="M117.015 229.028 L124.654 229.028 L124.654 202.662 L116.343 204.329 L116.343 200.07 L124.607 198.403 L129.283 198.403 L129.283 229.028 L136.922 229.028 L136.922 232.963 L117.015 232.963 L117.015 229.028 Z" fill="#000000" fill-rule="nonzero" fill-opacity="1" /><path clip-path="url(#clip960)" d="M146.366 227.083 L151.251 227.083 L151.251 232.963 L146.366 232.963 L146.366 227.083 Z" fill="#000000" fill-rule="nonzero" fill-opacity="1" /><path clip-path="url(#clip960)" d="M171.436 201.482 Q167.825 201.482 165.996 205.047 Q164.19 208.588 164.19 215.718 Q164.19 222.824 165.996 226.389 Q167.825 229.931 171.436 229.931 Q175.07 229.931 176.876 226.389 Q178.704 222.824 178.704 215.718 Q178.704 208.588 176.876 205.047 Q175.07 201.482 171.436 201.482 M171.436 197.778 Q177.246 197.778 180.301 202.384 Q183.38 206.968 183.38 215.718 Q183.38 224.445 180.301 229.051 Q177.246 233.634 171.436 233.634 Q165.626 233.634 162.547 229.051 Q159.491 224.445 159.491 215.718 Q159.491 206.968 162.547 202.384 Q165.626 197.778 171.436 197.778 Z" fill="#000000" fill-rule="nonzero" fill-opacity="1" /><path clip-path="url(#clip960)" d="M201.598 201.482 Q197.987 201.482 196.158 205.047 Q194.352 208.588 194.352 215.718 Q194.352 222.824 196.158 226.389 Q197.987 229.931 201.598 229.931 Q205.232 229.931 207.037 226.389 Q208.866 222.824 208.866 215.718 Q208.866 208.588 207.037 205.047 Q205.232 201.482 201.598 201.482 M201.598 197.778 Q207.408 197.778 210.463 202.384 Q213.542 206.968 213.542 215.718 Q213.542 224.445 210.463 229.051 Q207.408 233.634 201.598 233.634 Q195.787 233.634 192.709 229.051 Q189.653 224.445 189.653 215.718 Q189.653 206.968 192.709 202.384 Q195.787 197.778 201.598 197.778 Z" fill="#000000" fill-rule="nonzero" fill-opacity="1" /><path clip-path="url(#clip960)" d="M16.4842 811.521 L16.4842 805.06 L45.3526 805.06 Q52.9915 805.06 56.3653 802.291 Q59.7073 799.522 59.7073 793.315 Q59.7073 787.14 56.3653 784.371 Q52.9915 781.602 45.3526 781.602 L16.4842 781.602 L16.4842 775.141 L46.1484 775.141 Q55.4423 775.141 60.1847 779.756 Q64.9272 784.339 64.9272 793.315 Q64.9272 802.322 60.1847 806.938 Q55.4423 811.521 46.1484 811.521 L16.4842 811.521 Z" fill="#000000" fill-rule="nonzero" fill-opacity="1" /><path clip-path="url(#clip960)" d="M14.5426 728.544 Q21.8632 732.809 29.0246 734.878 Q36.186 736.947 43.5384 736.947 Q50.8908 736.947 58.1159 734.878 Q65.3091 732.777 72.5979 728.544 L72.5979 733.636 Q65.1182 738.411 57.8931 740.798 Q50.668 743.153 43.5384 743.153 Q36.4406 743.153 29.2474 740.798 Q22.0542 738.443 14.5426 733.636 L14.5426 728.544 Z" fill="#000000" fill-rule="nonzero" fill-opacity="1" /><path clip-path="url(#clip960)" d="M64.0042 704.672 L16.4842 722.815 L16.4842 716.099 L56.4926 701.044 L16.4842 685.957 L16.4842 679.273 L64.0042 697.384 L64.0042 704.672 Z" fill="#000000" fill-rule="nonzero" fill-opacity="1" /><path clip-path="url(#clip960)" d="M14.5426 673.512 L14.5426 668.42 Q22.0542 663.646 29.2474 661.29 Q36.4406 658.903 43.5384 658.903 Q50.668 658.903 57.8931 661.29 Q65.1182 663.646 72.5979 668.42 L72.5979 673.512 Q65.3091 669.279 58.1159 667.21 Q50.8908 665.11 43.5384 665.11 Q36.186 665.11 29.0246 667.21 Q21.8632 669.279 14.5426 673.512 Z" fill="#000000" fill-rule="nonzero" fill-opacity="1" /><circle clip-path="url(#clip962)" cx="1448.36" cy="967.871" r="14.4" fill="#009af9" fill-rule="evenodd" fill-opacity="1" stroke="#000000" stroke-opacity="1" stroke-width="3.2"/>
<circle clip-path="url(#clip962)" cx="848.447" cy="1319.99" r="14.4" fill="#009af9" fill-rule="evenodd" fill-opacity="1" stroke="#000000" stroke-opacity="1" stroke-width="3.2"/>
<circle clip-path="url(#clip962)" cx="835.073" cy="1336.06" r="14.4" fill="#009af9" fill-rule="evenodd" fill-opacity="1" stroke="#000000" stroke-opacity="1" stroke-width="3.2"/>
<circle clip-path="url(#clip962)" cx="2293.23" cy="511.587" r="14.4" fill="#009af9" fill-rule="evenodd" fill-opacity="1" stroke="#000000" stroke-opacity="1" stroke-width="3.2"/>
<circle clip-path="url(#clip962)" cx="1742.25" cy="401.018" r="14.4" fill="#009af9" fill-rule="evenodd" fill-opacity="1" stroke="#000000" stroke-opacity="1" stroke-width="3.2"/>
<circle clip-path="url(#clip962)" cx="1294.87" cy="1236.34" r="14.4" fill="#009af9" fill-rule="evenodd" fill-opacity="1" stroke="#000000" stroke-opacity="1" stroke-width="3.2"/>
<circle clip-path="url(#clip962)" cx="1740.24" cy="461.989" r="14.4" fill="#009af9" fill-rule="evenodd" fill-opacity="1" stroke="#000000" stroke-opacity="1" stroke-width="3.2"/>
<circle clip-path="url(#clip962)" cx="1948.22" cy="306.752" r="14.4" fill="#009af9" fill-rule="evenodd" fill-opacity="1" stroke="#000000" stroke-opacity="1" stroke-width="3.2"/>
<circle clip-path="url(#clip962)" cx="309.067" cy="1384.24" r="14.4" fill="#009af9" fill-rule="evenodd" fill-opacity="1" stroke="#000000" stroke-opacity="1" stroke-width="3.2"/>
<circle clip-path="url(#clip962)" cx="2125.25" cy="86.1857" r="14.4" fill="#009af9" fill-rule="evenodd" fill-opacity="1" stroke="#000000" stroke-opacity="1" stroke-width="3.2"/>
<circle clip-path="url(#clip962)" cx="1448.36" cy="1049.22" r="14.4" fill="#e26f46" fill-rule="evenodd" fill-opacity="1" stroke="#000000" stroke-opacity="1" stroke-width="3.2"/>
<circle clip-path="url(#clip962)" cx="848.447" cy="1329.7" r="14.4" fill="#e26f46" fill-rule="evenodd" fill-opacity="1" stroke="#000000" stroke-opacity="1" stroke-width="3.2"/>
<circle clip-path="url(#clip962)" cx="835.073" cy="1330.1" r="14.4" fill="#e26f46" fill-rule="evenodd" fill-opacity="1" stroke="#000000" stroke-opacity="1" stroke-width="3.2"/>
<circle clip-path="url(#clip962)" cx="2293.23" cy="550.724" r="14.4" fill="#e26f46" fill-rule="evenodd" fill-opacity="1" stroke="#000000" stroke-opacity="1" stroke-width="3.2"/>
<circle clip-path="url(#clip962)" cx="1742.25" cy="512.655" r="14.4" fill="#e26f46" fill-rule="evenodd" fill-opacity="1" stroke="#000000" stroke-opacity="1" stroke-width="3.2"/>
<circle clip-path="url(#clip962)" cx="1294.87" cy="1212.25" r="14.4" fill="#e26f46" fill-rule="evenodd" fill-opacity="1" stroke="#000000" stroke-opacity="1" stroke-width="3.2"/>
<circle clip-path="url(#clip962)" cx="1740.24" cy="516.49" r="14.4" fill="#e26f46" fill-rule="evenodd" fill-opacity="1" stroke="#000000" stroke-opacity="1" stroke-width="3.2"/>
<circle clip-path="url(#clip962)" cx="1948.22" cy="232.966" r="14.4" fill="#e26f46" fill-rule="evenodd" fill-opacity="1" stroke="#000000" stroke-opacity="1" stroke-width="3.2"/>
<circle clip-path="url(#clip962)" cx="309.067" cy="1332.8" r="14.4" fill="#e26f46" fill-rule="evenodd" fill-opacity="1" stroke="#000000" stroke-opacity="1" stroke-width="3.2"/>
<circle clip-path="url(#clip962)" cx="2125.25" cy="281.067" r="14.4" fill="#e26f46" fill-rule="evenodd" fill-opacity="1" stroke="#000000" stroke-opacity="1" stroke-width="3.2"/>
<polyline clip-path="url(#clip962)" style="stroke:#3da44d; stroke-linecap:round; stroke-linejoin:round; stroke-width:4; stroke-opacity:1; fill:none" points="309.067,1332.8 329.551,1332.8 449.523,1332.77 505.335,1332.74 580.142,1332.65 641.957,1332.49 699.438,1332.18 771.596,1331.42 836.323,1330.06 910.412,1327.08 965.793,1323.19 1001.21,1319.6 1036.63,1314.86 1068.95,1309.28 1101.28,1302.26 1138.07,1292.14 1174.86,1279.31 1204.02,1266.87 1233.18,1252.14 1251.3,1241.72 1269.42,1230.26 1287.53,1217.67 1305.65,1203.92 1319.52,1192.55 1333.4,1180.45 1347.27,1167.57 1361.15,1153.91 1380.71,1133.29 1400.27,1111.03 1419.83,1087.11 1439.39,1061.52 1454.01,1041.31 1468.62,1020.18 1483.24,998.151 1497.86,975.235 1514.48,948.139 1531.1,919.988 1547.73,890.849 1564.35,860.797 1597.28,798.934 1630.2,734.67 1666.42,662.389 1702.65,589.96 1730.32,535.605 1757.99,482.99 1775.44,451.067 1792.9,420.384 1810.36,391.149 1827.82,363.569 1843.96,339.704 1860.11,317.572 1876.26,297.314 1892.4,279.061 1909.06,262.463 1925.71,248.24 1942.36,236.494 1959.01,227.309 1975.89,220.681 1992.77,216.801 2001.21,215.901 2009.65,215.698 2018.09,216.192 2026.53,217.381 2035.34,219.364 2044.16,222.098 2052.97,225.58 2061.78,229.8 2079.41,240.425 2097.03,253.887 2110.91,266.42 2124.8,280.585 2138.68,296.313 2152.57,313.529 2168.38,334.837 2184.19,357.837 2199.99,382.389 2215.8,408.349 2231.61,435.566 2247.42,463.886 2263.23,493.152 2279.04,523.206 2282.59,530.042 2286.14,536.909 2289.68,543.803 2293.23,550.724 "/>
<path clip-path="url(#clip960)" d="M319.649 300.469 L877.7 300.469 L877.7 93.1086 L319.649 93.1086  Z" fill="#ffffff" fill-rule="evenodd" fill-opacity="1"/>
<polyline clip-path="url(#clip960)" style="stroke:#000000; stroke-linecap:round; stroke-linejoin:round; stroke-width:4; stroke-opacity:1; fill:none" points="319.649,300.469 877.7,300.469 877.7,93.1086 319.649,93.1086 319.649,300.469 "/>
<circle clip-path="url(#clip960)" cx="413.125" cy="144.949" r="20.48" fill="#009af9" fill-rule="evenodd" fill-opacity="1" stroke="#000000" stroke-opacity="1" stroke-width="4.55111"/>
<path clip-path="url(#clip960)" d="M528.847 128.803 L528.847 133.363 Q526.185 132.09 523.824 131.465 Q521.463 130.84 519.263 130.84 Q515.444 130.84 513.361 132.321 Q511.301 133.803 511.301 136.534 Q511.301 138.826 512.666 140.007 Q514.055 141.164 517.898 141.882 L520.722 142.46 Q525.953 143.456 528.43 145.979 Q530.93 148.479 530.93 152.692 Q530.93 157.715 527.55 160.307 Q524.194 162.9 517.689 162.9 Q515.236 162.9 512.458 162.344 Q509.703 161.789 506.74 160.701 L506.74 155.886 Q509.588 157.483 512.319 158.293 Q515.051 159.104 517.689 159.104 Q521.694 159.104 523.87 157.53 Q526.046 155.956 526.046 153.039 Q526.046 150.493 524.472 149.057 Q522.921 147.622 519.356 146.905 L516.509 146.349 Q511.277 145.307 508.939 143.085 Q506.602 140.863 506.602 136.905 Q506.602 132.321 509.819 129.682 Q513.06 127.044 518.731 127.044 Q521.162 127.044 523.685 127.483 Q526.208 127.923 528.847 128.803 Z" fill="#000000" fill-rule="nonzero" fill-opacity="1" /><path clip-path="url(#clip960)" d="M549.819 149.196 Q544.657 149.196 542.666 150.377 Q540.675 151.557 540.675 154.405 Q540.675 156.673 542.157 158.016 Q543.661 159.335 546.231 159.335 Q549.773 159.335 551.902 156.835 Q554.055 154.312 554.055 150.145 L554.055 149.196 L549.819 149.196 M558.314 147.437 L558.314 162.229 L554.055 162.229 L554.055 158.293 Q552.597 160.655 550.421 161.789 Q548.245 162.9 545.097 162.9 Q541.115 162.9 538.754 160.678 Q536.416 158.432 536.416 154.682 Q536.416 150.307 539.333 148.085 Q542.273 145.863 548.083 145.863 L554.055 145.863 L554.055 145.446 Q554.055 142.507 552.111 140.909 Q550.189 139.289 546.694 139.289 Q544.472 139.289 542.365 139.821 Q540.259 140.354 538.314 141.419 L538.314 137.483 Q540.652 136.581 542.851 136.141 Q545.05 135.678 547.134 135.678 Q552.759 135.678 555.536 138.594 Q558.314 141.511 558.314 147.437 Z" fill="#000000" fill-rule="nonzero" fill-opacity="1" /><path clip-path="url(#clip960)" d="M587.272 141.28 Q588.87 138.409 591.092 137.044 Q593.314 135.678 596.323 135.678 Q600.374 135.678 602.573 138.525 Q604.772 141.349 604.772 146.581 L604.772 162.229 L600.49 162.229 L600.49 146.719 Q600.49 142.993 599.17 141.187 Q597.851 139.382 595.143 139.382 Q591.833 139.382 589.911 141.581 Q587.99 143.78 587.99 147.576 L587.99 162.229 L583.708 162.229 L583.708 146.719 Q583.708 142.969 582.388 141.187 Q581.069 139.382 578.314 139.382 Q575.05 139.382 573.129 141.604 Q571.208 143.803 571.208 147.576 L571.208 162.229 L566.925 162.229 L566.925 136.303 L571.208 136.303 L571.208 140.331 Q572.666 137.946 574.703 136.812 Q576.74 135.678 579.541 135.678 Q582.365 135.678 584.333 137.113 Q586.323 138.548 587.272 141.28 Z" fill="#000000" fill-rule="nonzero" fill-opacity="1" /><path clip-path="url(#clip960)" d="M617.388 158.34 L617.388 172.09 L613.106 172.09 L613.106 136.303 L617.388 136.303 L617.388 140.238 Q618.731 137.923 620.768 136.812 Q622.828 135.678 625.675 135.678 Q630.397 135.678 633.337 139.428 Q636.3 143.178 636.3 149.289 Q636.3 155.4 633.337 159.15 Q630.397 162.9 625.675 162.9 Q622.828 162.9 620.768 161.789 Q618.731 160.655 617.388 158.34 M631.879 149.289 Q631.879 144.59 629.934 141.928 Q628.013 139.243 624.633 139.243 Q621.254 139.243 619.309 141.928 Q617.388 144.59 617.388 149.289 Q617.388 153.988 619.309 156.673 Q621.254 159.335 624.633 159.335 Q628.013 159.335 629.934 156.673 Q631.879 153.988 631.879 149.289 Z" fill="#000000" fill-rule="nonzero" fill-opacity="1" /><path clip-path="url(#clip960)" d="M643.36 126.21 L647.619 126.21 L647.619 162.229 L643.36 162.229 L643.36 126.21 Z" fill="#000000" fill-rule="nonzero" fill-opacity="1" /><path clip-path="url(#clip960)" d="M678.707 148.201 L678.707 150.284 L659.124 150.284 Q659.402 154.682 661.763 156.997 Q664.147 159.289 668.383 159.289 Q670.837 159.289 673.128 158.687 Q675.443 158.085 677.712 156.881 L677.712 160.909 Q675.42 161.881 673.013 162.391 Q670.605 162.9 668.128 162.9 Q661.925 162.9 658.291 159.289 Q654.679 155.678 654.679 149.52 Q654.679 143.155 658.105 139.428 Q661.554 135.678 667.388 135.678 Q672.619 135.678 675.652 139.057 Q678.707 142.414 678.707 148.201 M674.448 146.951 Q674.402 143.456 672.48 141.372 Q670.582 139.289 667.434 139.289 Q663.869 139.289 661.716 141.303 Q659.587 143.317 659.263 146.974 L674.448 146.951 Z" fill="#000000" fill-rule="nonzero" fill-opacity="1" /><path clip-path="url(#clip960)" d="M702.225 137.067 L702.225 141.094 Q700.42 140.169 698.475 139.706 Q696.531 139.243 694.448 139.243 Q691.276 139.243 689.679 140.215 Q688.105 141.187 688.105 143.131 Q688.105 144.613 689.239 145.469 Q690.374 146.303 693.8 147.067 L695.258 147.391 Q699.795 148.363 701.693 150.145 Q703.614 151.905 703.614 155.076 Q703.614 158.687 700.744 160.793 Q697.897 162.9 692.897 162.9 Q690.813 162.9 688.545 162.483 Q686.3 162.09 683.8 161.28 L683.8 156.881 Q686.161 158.108 688.452 158.733 Q690.744 159.335 692.989 159.335 Q695.999 159.335 697.619 158.317 Q699.239 157.275 699.239 155.4 Q699.239 153.664 698.059 152.738 Q696.901 151.812 692.943 150.956 L691.462 150.608 Q687.503 149.775 685.744 148.062 Q683.985 146.326 683.985 143.317 Q683.985 139.659 686.577 137.669 Q689.17 135.678 693.938 135.678 Q696.3 135.678 698.383 136.025 Q700.466 136.372 702.225 137.067 Z" fill="#000000" fill-rule="nonzero" fill-opacity="1" /><circle clip-path="url(#clip960)" cx="413.125" cy="196.789" r="20.48" fill="#e26f46" fill-rule="evenodd" fill-opacity="1" stroke="#000000" stroke-opacity="1" stroke-width="4.55111"/>
<path clip-path="url(#clip960)" d="M506.602 179.509 L512.898 179.509 L528.222 208.421 L528.222 179.509 L532.759 179.509 L532.759 214.069 L526.463 214.069 L511.139 185.157 L511.139 214.069 L506.602 214.069 L506.602 179.509 Z" fill="#000000" fill-rule="nonzero" fill-opacity="1" /><path clip-path="url(#clip960)" d="M551.925 191.129 Q548.499 191.129 546.509 193.814 Q544.518 196.476 544.518 201.129 Q544.518 205.782 546.486 208.467 Q548.476 211.129 551.925 211.129 Q555.328 211.129 557.319 208.444 Q559.31 205.758 559.31 201.129 Q559.31 196.522 557.319 193.837 Q555.328 191.129 551.925 191.129 M551.925 187.518 Q557.481 187.518 560.652 191.129 Q563.823 194.74 563.823 201.129 Q563.823 207.495 560.652 211.129 Q557.481 214.74 551.925 214.74 Q546.347 214.74 543.175 211.129 Q540.027 207.495 540.027 201.129 Q540.027 194.74 543.175 191.129 Q546.347 187.518 551.925 187.518 Z" fill="#000000" fill-rule="nonzero" fill-opacity="1" /><path clip-path="url(#clip960)" d="M570.884 188.143 L575.143 188.143 L575.143 214.069 L570.884 214.069 L570.884 188.143 M570.884 178.05 L575.143 178.05 L575.143 183.444 L570.884 183.444 L570.884 178.05 Z" fill="#000000" fill-rule="nonzero" fill-opacity="1" /><path clip-path="url(#clip960)" d="M600.582 188.907 L600.582 192.934 Q598.777 192.009 596.833 191.546 Q594.888 191.083 592.805 191.083 Q589.633 191.083 588.036 192.055 Q586.462 193.027 586.462 194.971 Q586.462 196.453 587.596 197.309 Q588.731 198.143 592.157 198.907 L593.615 199.231 Q598.152 200.203 600.05 201.985 Q601.971 203.745 601.971 206.916 Q601.971 210.527 599.101 212.633 Q596.254 214.74 591.254 214.74 Q589.171 214.74 586.902 214.323 Q584.657 213.93 582.157 213.12 L582.157 208.721 Q584.518 209.948 586.809 210.573 Q589.101 211.175 591.346 211.175 Q594.356 211.175 595.976 210.157 Q597.596 209.115 597.596 207.24 Q597.596 205.504 596.416 204.578 Q595.258 203.652 591.3 202.796 L589.819 202.448 Q585.86 201.615 584.101 199.902 Q582.342 198.166 582.342 195.157 Q582.342 191.499 584.934 189.509 Q587.527 187.518 592.295 187.518 Q594.657 187.518 596.74 187.865 Q598.823 188.212 600.582 188.907 Z" fill="#000000" fill-rule="nonzero" fill-opacity="1" /><path clip-path="url(#clip960)" d="M630.93 200.041 L630.93 202.124 L611.346 202.124 Q611.624 206.522 613.985 208.837 Q616.369 211.129 620.606 211.129 Q623.059 211.129 625.351 210.527 Q627.666 209.925 629.934 208.721 L629.934 212.749 Q627.643 213.721 625.235 214.231 Q622.828 214.74 620.351 214.74 Q614.147 214.74 610.513 211.129 Q606.902 207.518 606.902 201.36 Q606.902 194.995 610.328 191.268 Q613.777 187.518 619.61 187.518 Q624.842 187.518 627.874 190.897 Q630.93 194.254 630.93 200.041 M626.67 198.791 Q626.624 195.296 624.703 193.212 Q622.805 191.129 619.656 191.129 Q616.092 191.129 613.939 193.143 Q611.809 195.157 611.485 198.814 L626.67 198.791 Z" fill="#000000" fill-rule="nonzero" fill-opacity="1" /><path clip-path="url(#clip960)" d="M668.013 192.124 Q667.295 191.708 666.439 191.522 Q665.605 191.314 664.587 191.314 Q660.976 191.314 659.031 193.675 Q657.11 196.013 657.11 200.411 L657.11 214.069 L652.828 214.069 L652.828 188.143 L657.11 188.143 L657.11 192.171 Q658.453 189.809 660.605 188.675 Q662.758 187.518 665.837 187.518 Q666.277 187.518 666.809 187.587 Q667.341 187.634 667.99 187.749 L668.013 192.124 Z" fill="#000000" fill-rule="nonzero" fill-opacity="1" /><path clip-path="url(#clip960)" d="M693.614 200.041 L693.614 202.124 L674.031 202.124 Q674.309 206.522 676.67 208.837 Q679.054 211.129 683.29 211.129 Q685.744 211.129 688.036 210.527 Q690.351 209.925 692.619 208.721 L692.619 212.749 Q690.327 213.721 687.92 214.231 Q685.513 214.74 683.036 214.74 Q676.832 214.74 673.198 211.129 Q669.587 207.518 669.587 201.36 Q669.587 194.995 673.013 191.268 Q676.462 187.518 682.295 187.518 Q687.526 187.518 690.559 190.897 Q693.614 194.254 693.614 200.041 M689.355 198.791 Q689.309 195.296 687.388 193.212 Q685.489 191.129 682.341 191.129 Q678.777 191.129 676.624 193.143 Q674.494 195.157 674.17 198.814 L689.355 198.791 Z" fill="#000000" fill-rule="nonzero" fill-opacity="1" /><path clip-path="url(#clip960)" d="M720.79 193.12 Q722.387 190.249 724.61 188.884 Q726.832 187.518 729.841 187.518 Q733.892 187.518 736.091 190.365 Q738.29 193.189 738.29 198.421 L738.29 214.069 L734.008 214.069 L734.008 198.559 Q734.008 194.833 732.688 193.027 Q731.369 191.222 728.661 191.222 Q725.35 191.222 723.429 193.421 Q721.508 195.62 721.508 199.416 L721.508 214.069 L717.225 214.069 L717.225 198.559 Q717.225 194.809 715.906 193.027 Q714.587 191.222 711.832 191.222 Q708.568 191.222 706.647 193.444 Q704.725 195.643 704.725 199.416 L704.725 214.069 L700.443 214.069 L700.443 188.143 L704.725 188.143 L704.725 192.171 Q706.184 189.786 708.221 188.652 Q710.258 187.518 713.059 187.518 Q715.883 187.518 717.85 188.953 Q719.841 190.388 720.79 193.12 Z" fill="#000000" fill-rule="nonzero" fill-opacity="1" /><path clip-path="url(#clip960)" d="M756.832 191.129 Q753.406 191.129 751.415 193.814 Q749.424 196.476 749.424 201.129 Q749.424 205.782 751.392 208.467 Q753.383 211.129 756.832 211.129 Q760.234 211.129 762.225 208.444 Q764.216 205.758 764.216 201.129 Q764.216 196.522 762.225 193.837 Q760.234 191.129 756.832 191.129 M756.832 187.518 Q762.387 187.518 765.558 191.129 Q768.73 194.74 768.73 201.129 Q768.73 207.495 765.558 211.129 Q762.387 214.74 756.832 214.74 Q751.253 214.74 748.082 211.129 Q744.934 207.495 744.934 201.129 Q744.934 194.74 748.082 191.129 Q751.253 187.518 756.832 187.518 Z" fill="#000000" fill-rule="nonzero" fill-opacity="1" /><path clip-path="url(#clip960)" d="M772.734 188.143 L777.248 188.143 L785.35 209.902 L793.452 188.143 L797.966 188.143 L788.244 214.069 L782.457 214.069 L772.734 188.143 Z" fill="#000000" fill-rule="nonzero" fill-opacity="1" /><path clip-path="url(#clip960)" d="M826.021 200.041 L826.021 202.124 L806.438 202.124 Q806.716 206.522 809.077 208.837 Q811.461 211.129 815.697 211.129 Q818.151 211.129 820.442 210.527 Q822.757 209.925 825.026 208.721 L825.026 212.749 Q822.734 213.721 820.327 214.231 Q817.919 214.74 815.442 214.74 Q809.239 214.74 805.605 211.129 Q801.993 207.518 801.993 201.36 Q801.993 194.995 805.419 191.268 Q808.868 187.518 814.702 187.518 Q819.933 187.518 822.966 190.897 Q826.021 194.254 826.021 200.041 M821.762 198.791 Q821.716 195.296 819.794 193.212 Q817.896 191.129 814.748 191.129 Q811.183 191.129 809.03 193.143 Q806.901 195.157 806.577 198.814 L821.762 198.791 Z" fill="#000000" fill-rule="nonzero" fill-opacity="1" /><path clip-path="url(#clip960)" d="M850.072 192.078 L850.072 178.05 L854.331 178.05 L854.331 214.069 L850.072 214.069 L850.072 210.18 Q848.729 212.495 846.669 213.629 Q844.632 214.74 841.762 214.74 Q837.063 214.74 834.1 210.99 Q831.16 207.24 831.16 201.129 Q831.16 195.018 834.1 191.268 Q837.063 187.518 841.762 187.518 Q844.632 187.518 846.669 188.652 Q848.729 189.763 850.072 192.078 M835.558 201.129 Q835.558 205.828 837.479 208.513 Q839.424 211.175 842.803 211.175 Q846.183 211.175 848.127 208.513 Q850.072 205.828 850.072 201.129 Q850.072 196.43 848.127 193.768 Q846.183 191.083 842.803 191.083 Q839.424 191.083 837.479 193.768 Q835.558 196.43 835.558 201.129 Z" fill="#000000" fill-rule="nonzero" fill-opacity="1" /><polyline clip-path="url(#clip960)" style="stroke:#3da44d; stroke-linecap:round; stroke-linejoin:round; stroke-width:4; stroke-opacity:1; fill:none" points="343.018,248.629 483.232,248.629 "/>
<path clip-path="url(#clip960)" d="M506.602 231.349 L535.837 231.349 L535.837 235.284 L523.569 235.284 L523.569 265.909 L518.87 265.909 L518.87 235.284 L506.602 235.284 L506.602 231.349 Z" fill="#000000" fill-rule="nonzero" fill-opacity="1" /><path clip-path="url(#clip960)" d="M548.222 243.964 Q547.504 243.548 546.648 243.362 Q545.814 243.154 544.796 243.154 Q541.185 243.154 539.24 245.515 Q537.319 247.853 537.319 252.251 L537.319 265.909 L533.037 265.909 L533.037 239.983 L537.319 239.983 L537.319 244.011 Q538.662 241.649 540.814 240.515 Q542.967 239.358 546.046 239.358 Q546.486 239.358 547.018 239.427 Q547.55 239.474 548.199 239.589 L548.222 243.964 Z" fill="#000000" fill-rule="nonzero" fill-opacity="1" /><path clip-path="url(#clip960)" d="M552.249 255.677 L552.249 239.983 L556.509 239.983 L556.509 255.515 Q556.509 259.196 557.944 261.048 Q559.379 262.876 562.249 262.876 Q565.698 262.876 567.689 260.677 Q569.703 258.478 569.703 254.682 L569.703 239.983 L573.962 239.983 L573.962 265.909 L569.703 265.909 L569.703 261.927 Q568.152 264.288 566.092 265.446 Q564.055 266.58 561.347 266.58 Q556.879 266.58 554.564 263.802 Q552.249 261.024 552.249 255.677 M562.967 239.358 L562.967 239.358 Z" fill="#000000" fill-rule="nonzero" fill-opacity="1" /><path clip-path="url(#clip960)" d="M604.911 251.881 L604.911 253.964 L585.328 253.964 Q585.606 258.362 587.967 260.677 Q590.351 262.969 594.587 262.969 Q597.041 262.969 599.332 262.367 Q601.647 261.765 603.916 260.561 L603.916 264.589 Q601.624 265.561 599.217 266.071 Q596.809 266.58 594.333 266.58 Q588.129 266.58 584.495 262.969 Q580.884 259.358 580.884 253.2 Q580.884 246.835 584.309 243.108 Q587.758 239.358 593.592 239.358 Q598.823 239.358 601.856 242.737 Q604.911 246.094 604.911 251.881 M600.652 250.631 Q600.606 247.136 598.684 245.052 Q596.786 242.969 593.638 242.969 Q590.073 242.969 587.921 244.983 Q585.791 246.997 585.467 250.654 L600.652 250.631 Z" fill="#000000" fill-rule="nonzero" fill-opacity="1" /><path clip-path="url(#clip960)" d="M640.096 229.89 L640.096 233.432 L636.022 233.432 Q633.73 233.432 632.828 234.358 Q631.948 235.284 631.948 237.691 L631.948 239.983 L638.962 239.983 L638.962 243.293 L631.948 243.293 L631.948 265.909 L627.666 265.909 L627.666 243.293 L623.592 243.293 L623.592 239.983 L627.666 239.983 L627.666 238.177 Q627.666 233.849 629.68 231.881 Q631.693 229.89 636.068 229.89 L640.096 229.89 Z" fill="#000000" fill-rule="nonzero" fill-opacity="1" /><path clip-path="url(#clip960)" d="M643.221 255.677 L643.221 239.983 L647.48 239.983 L647.48 255.515 Q647.48 259.196 648.916 261.048 Q650.351 262.876 653.221 262.876 Q656.67 262.876 658.661 260.677 Q660.675 258.478 660.675 254.682 L660.675 239.983 L664.934 239.983 L664.934 265.909 L660.675 265.909 L660.675 261.927 Q659.124 264.288 657.064 265.446 Q655.027 266.58 652.318 266.58 Q647.851 266.58 645.536 263.802 Q643.221 261.024 643.221 255.677 M653.939 239.358 L653.939 239.358 Z" fill="#000000" fill-rule="nonzero" fill-opacity="1" /><path clip-path="url(#clip960)" d="M695.258 250.261 L695.258 265.909 L690.999 265.909 L690.999 250.399 Q690.999 246.719 689.563 244.89 Q688.128 243.062 685.258 243.062 Q681.809 243.062 679.818 245.261 Q677.827 247.46 677.827 251.256 L677.827 265.909 L673.545 265.909 L673.545 239.983 L677.827 239.983 L677.827 244.011 Q679.355 241.673 681.415 240.515 Q683.499 239.358 686.207 239.358 Q690.675 239.358 692.966 242.136 Q695.258 244.89 695.258 250.261 Z" fill="#000000" fill-rule="nonzero" fill-opacity="1" /><path clip-path="url(#clip960)" d="M722.411 240.978 L722.411 244.96 Q720.605 243.964 718.776 243.478 Q716.971 242.969 715.119 242.969 Q710.975 242.969 708.684 245.608 Q706.392 248.224 706.392 252.969 Q706.392 257.714 708.684 260.353 Q710.975 262.969 715.119 262.969 Q716.971 262.969 718.776 262.483 Q720.605 261.973 722.411 260.978 L722.411 264.913 Q720.628 265.747 718.707 266.163 Q716.809 266.58 714.656 266.58 Q708.799 266.58 705.35 262.899 Q701.901 259.219 701.901 252.969 Q701.901 246.626 705.374 242.992 Q708.869 239.358 714.934 239.358 Q716.901 239.358 718.776 239.775 Q720.651 240.168 722.411 240.978 Z" fill="#000000" fill-rule="nonzero" fill-opacity="1" /><path clip-path="url(#clip960)" d="M734.031 232.622 L734.031 239.983 L742.804 239.983 L742.804 243.293 L734.031 243.293 L734.031 257.367 Q734.031 260.538 734.887 261.441 Q735.767 262.344 738.429 262.344 L742.804 262.344 L742.804 265.909 L738.429 265.909 Q733.498 265.909 731.623 264.08 Q729.748 262.228 729.748 257.367 L729.748 243.293 L726.623 243.293 L726.623 239.983 L729.748 239.983 L729.748 232.622 L734.031 232.622 Z" fill="#000000" fill-rule="nonzero" fill-opacity="1" /><path clip-path="url(#clip960)" d="M748.406 239.983 L752.665 239.983 L752.665 265.909 L748.406 265.909 L748.406 239.983 M748.406 229.89 L752.665 229.89 L752.665 235.284 L748.406 235.284 L748.406 229.89 Z" fill="#000000" fill-rule="nonzero" fill-opacity="1" /><path clip-path="url(#clip960)" d="M771.623 242.969 Q768.197 242.969 766.207 245.654 Q764.216 248.316 764.216 252.969 Q764.216 257.622 766.183 260.307 Q768.174 262.969 771.623 262.969 Q775.026 262.969 777.017 260.284 Q779.007 257.598 779.007 252.969 Q779.007 248.362 777.017 245.677 Q775.026 242.969 771.623 242.969 M771.623 239.358 Q777.179 239.358 780.35 242.969 Q783.521 246.58 783.521 252.969 Q783.521 259.335 780.35 262.969 Q777.179 266.58 771.623 266.58 Q766.045 266.58 762.873 262.969 Q759.725 259.335 759.725 252.969 Q759.725 246.58 762.873 242.969 Q766.045 239.358 771.623 239.358 Z" fill="#000000" fill-rule="nonzero" fill-opacity="1" /><path clip-path="url(#clip960)" d="M812.132 250.261 L812.132 265.909 L807.873 265.909 L807.873 250.399 Q807.873 246.719 806.438 244.89 Q805.003 243.062 802.132 243.062 Q798.683 243.062 796.693 245.261 Q794.702 247.46 794.702 251.256 L794.702 265.909 L790.419 265.909 L790.419 239.983 L794.702 239.983 L794.702 244.011 Q796.23 241.673 798.29 240.515 Q800.373 239.358 803.081 239.358 Q807.549 239.358 809.841 242.136 Q812.132 244.89 812.132 250.261 Z" fill="#000000" fill-rule="nonzero" fill-opacity="1" /></svg>
