<?xml version="1.0" encoding="utf-8"?>
<svg xmlns="http://www.w3.org/2000/svg" xmlns:xlink="http://www.w3.org/1999/xlink" width="600" height="400" viewBox="0 0 2400 1600">
<defs>
  <clipPath id="clip920">
    <rect x="0" y="0" width="2400" height="1600"/>
  </clipPath>
</defs>
<path clip-path="url(#clip920)" d="M0 1600 L2400 1600 L2400 0 L0 0  Z" fill="#ffffff" fill-rule="evenodd" fill-opacity="1"/>
<defs>
  <clipPath id="clip921">
    <rect x="193" y="47" width="2160" height="1415"/>
  </clipPath>
</defs>
<path clip-path="url(#clip920)" d="M193.936 1461.17 L2352.76 1461.17 L2352.76 47.2441 L193.936 47.2441  Z" fill="#ffffff" fill-rule="evenodd" fill-opacity="1"/>
<path clip-path="url(#clip921)" d="M1273.27 754.177 L1940.28 754.177 L1940.26 748.287 L1940.18 742.398 L1940.05 736.51 L1939.87 730.624 L1939.63 724.739 L1939.35 718.856 L1939.01 712.976 L1938.62 707.1 L1938.18 701.227 L1937.68 695.358 L1937.14 689.493 L1936.54 683.634 L1935.89 677.781 L1935.19 671.933 L1934.44 666.091 L1933.64 660.257 L1932.78 654.43 L1931.88 648.61 L1930.92 642.799 L1929.91 636.997 L1928.85 631.203 L1927.74 625.42 L1926.57 619.646 L1925.36 613.883 L1924.1 608.13 L1922.78 602.39 L1921.42 596.66 L1920 590.944 L1918.53 585.24 L1917.02 579.549 L1915.45 573.871 L1913.83 568.208 L1912.17 562.56 L1910.45 556.926 L1908.68 551.307 L1906.87 545.705 L1905 540.118 L1903.09 534.549 L1901.12 528.996 L1899.11 523.461 L1897.05 517.944 L1894.94 512.446 L1892.78 506.966 L1890.57 501.506 L1888.32 496.065 L1886.01 490.644 L1883.66 485.244 L1881.27 479.865 L1878.82 474.507 L1273.27 754.177  Z" fill="#009af9" fill-rule="evenodd" fill-opacity="1"/>
<polyline clip-path="url(#clip921)" style="stroke:#000000; stroke-linecap:round; stroke-linejoin:round; stroke-width:4; stroke-opacity:1; fill:none" points="1273.27,754.177 1940.28,754.177 1940.26,748.287 1940.18,742.398 1940.05,736.51 1939.87,730.624 1939.63,724.739 1939.35,718.856 1939.01,712.976 1938.62,707.1 1938.18,701.227 1937.68,695.358 1937.14,689.493 1936.54,683.634 1935.89,677.781 1935.19,671.933 1934.44,666.091 1933.64,660.257 1932.78,654.43 1931.88,648.61 1930.92,642.799 1929.91,636.997 1928.85,631.203 1927.74,625.42 1926.57,619.646 1925.36,613.883 1924.1,608.13 1922.78,602.39 1921.42,596.66 1920,590.944 1918.53,585.24 1917.02,579.549 1915.45,573.871 1913.83,568.208 1912.17,562.56 1910.45,556.926 1908.68,551.307 1906.87,545.705 1905,540.118 1903.09,534.549 1901.12,528.996 1899.11,523.461 1897.05,517.944 1894.94,512.446 1892.78,506.966 1890.57,501.506 1888.32,496.065 1886.01,490.644 1883.66,485.244 1881.27,479.865 1878.82,474.507 1273.27,754.177 "/>
<path clip-path="url(#clip921)" d="M1273.27 754.177 L1878.82 474.507 L1875.23 466.864 L1871.54 459.266 L1867.76 451.716 L1863.89 444.214 L1859.92 436.762 L1855.85 429.36 L1851.69 422.011 L1847.44 414.715 L1843.1 407.474 L1838.66 400.288 L1834.14 393.158 L1829.52 386.087 L1824.82 379.074 L1820.02 372.122 L1815.14 365.231 L1810.18 358.402 L1805.12 351.637 L1799.98 344.936 L1794.76 338.301 L1789.45 331.732 L1784.06 325.231 L1778.59 318.799 L1773.04 312.437 L1767.41 306.145 L1761.7 299.925 L1755.91 293.778 L1750.04 287.705 L1744.1 281.707 L1738.08 275.784 L1731.98 269.938 L1725.82 264.17 L1719.58 258.48 L1713.27 252.87 L1706.88 247.34 L1700.43 241.891 L1693.91 236.524 L1687.33 231.24 L1680.67 226.04 L1673.95 220.925 L1667.17 215.895 L1660.32 210.952 L1653.42 206.095 L1646.45 201.327 L1639.42 196.647 L1632.33 192.056 L1625.19 187.555 L1617.99 183.146 L1610.73 178.827 L1603.42 174.601 L1273.27 754.177  Z" fill="#e26f46" fill-rule="evenodd" fill-opacity="1"/>
<polyline clip-path="url(#clip921)" style="stroke:#000000; stroke-linecap:round; stroke-linejoin:round; stroke-width:4; stroke-opacity:1; fill:none" points="1273.27,754.177 1878.82,474.507 1875.23,466.864 1871.54,459.266 1867.76,451.716 1863.89,444.214 1859.92,436.762 1855.85,429.36 1851.69,422.011 1847.44,414.715 1843.1,407.474 1838.66,400.288 1834.14,393.158 1829.52,386.087 1824.82,379.074 1820.02,372.122 1815.14,365.231 1810.18,358.402 1805.12,351.637 1799.98,344.936 1794.76,338.301 1789.45,331.732 1784.06,325.231 1778.59,318.799 1773.04,312.437 1767.41,306.145 1761.7,299.925 1755.91,293.778 1750.04,287.705 1744.1,281.707 1738.08,275.784 1731.98,269.938 1725.82,264.17 1719.58,258.48 1713.27,252.87 1706.88,247.34 1700.43,241.891 1693.91,236.524 1687.33,231.24 1680.67,226.04 1673.95,220.925 1667.17,215.895 1660.32,210.952 1653.42,206.095 1646.45,201.327 1639.42,196.647 1632.33,192.056 1625.19,187.555 1617.99,183.146 1610.73,178.827 1603.42,174.601 1273.27,754.177 "/>
<path clip-path="url(#clip921)" d="M1273.27 754.177 L1603.42 174.601 L1578.95 161.332 L1553.95 149.094 L1528.46 137.91 L1502.52 127.8 L1476.19 118.78 L1449.5 110.867 L1422.51 104.075 L1395.26 98.4142 L1367.79 93.8956 L1340.16 90.527 L1312.41 88.3141 L1284.6 87.2608 L1256.76 87.369 L1228.95 88.6384 L1201.23 91.0668 L1173.62 94.6501 L1146.19 99.3819 L1118.98 105.254 L1092.04 112.256 L1065.42 120.377 L1039.15 129.6 L1013.3 139.912 L987.898 151.294 L962.993 163.725 L938.628 177.185 L914.846 191.649 L891.688 207.093 L869.194 223.49 L847.405 240.811 L826.357 259.026 L806.087 278.103 L786.631 298.01 L768.022 318.711 L750.294 340.17 L733.476 362.35 L717.598 385.213 L702.688 408.718 L688.771 432.825 L675.873 457.491 L664.014 482.675 L653.217 508.33 L643.5 534.415 L634.879 560.881 L627.37 587.685 L620.986 614.778 L615.738 642.114 L611.635 669.646 L608.685 697.324 L606.891 725.102 L1273.27 754.177  Z" fill="#3da44d" fill-rule="evenodd" fill-opacity="1"/>
<polyline clip-path="url(#clip921)" style="stroke:#000000; stroke-linecap:round; stroke-linejoin:round; stroke-width:4; stroke-opacity:1; fill:none" points="1273.27,754.177 1603.42,174.601 1578.95,161.332 1553.95,149.094 1528.46,137.91 1502.52,127.8 1476.19,118.78 1449.5,110.867 1422.51,104.075 1395.26,98.4142 1367.79,93.8956 1340.16,90.527 1312.41,88.3141 1284.6,87.2608 1256.76,87.369 1228.95,88.6384 1201.23,91.0668 1173.62,94.6501 1146.19,99.3819 1118.98,105.254 1092.04,112.256 1065.42,120.377 1039.15,129.6 1013.3,139.912 987.898,151.294 962.993,163.725 938.628,177.185 914.846,191.649 891.688,207.093 869.194,223.49 847.405,240.811 826.357,259.026 806.087,278.103 786.631,298.01 768.022,318.711 750.294,340.17 733.476,362.35 717.598,385.213 702.688,408.718 688.771,432.825 675.873,457.491 664.014,482.675 653.217,508.33 643.5,534.415 634.879,560.881 627.37,587.685 620.986,614.778 615.738,642.114 611.635,669.646 608.685,697.324 606.891,725.102 1273.27,754.177 "/>
<path clip-path="url(#clip921)" d="M1273.27 754.177 L606.891 725.102 L606.41 768.45 L608.746 811.738 L613.888 854.783 L621.816 897.402 L632.495 939.417 L645.882 980.649 L661.918 1020.93 L680.537 1060.07 L701.659 1097.93 L725.196 1134.34 L751.048 1169.13 L779.106 1202.18 L809.251 1233.33 L841.356 1262.46 L875.286 1289.45 L910.897 1314.17 L948.038 1336.53 L986.553 1356.42 L1026.28 1373.77 L1067.05 1388.51 L1108.69 1400.57 L1151.03 1409.89 L1193.88 1416.45 L1237.07 1420.21 L1280.41 1421.15 L1323.72 1419.28 L1366.81 1414.6 L1409.52 1407.13 L1451.64 1396.9 L1493.02 1383.95 L1533.46 1368.35 L1572.81 1350.15 L1610.89 1329.43 L1647.54 1306.29 L1682.62 1280.81 L1715.96 1253.11 L1747.44 1223.3 L1776.91 1191.5 L1804.25 1157.87 L1829.35 1122.52 L1852.11 1085.62 L1872.41 1047.32 L1890.19 1007.78 L1905.36 967.173 L1917.86 925.663 L1927.64 883.43 L1934.65 840.65 L1938.87 797.505 L1940.28 754.177 L1273.27 754.177  Z" fill="#c271d2" fill-rule="evenodd" fill-opacity="1"/>
<polyline clip-path="url(#clip921)" style="stroke:#000000; stroke-linecap:round; stroke-linejoin:round; stroke-width:4; stroke-opacity:1; fill:none" points="1273.27,754.177 606.891,725.102 606.41,768.45 608.746,811.738 613.888,854.783 621.816,897.402 632.495,939.417 645.882,980.649 661.918,1020.93 680.537,1060.07 701.659,1097.93 725.196,1134.34 751.048,1169.13 779.106,1202.18 809.251,1233.33 841.356,1262.46 875.286,1289.45 910.897,1314.17 948.038,1336.53 986.553,1356.42 1026.28,1373.77 1067.05,1388.51 1108.69,1400.57 1151.03,1409.89 1193.88,1416.45 1237.07,1420.21 1280.41,1421.15 1323.72,1419.28 1366.81,1414.6 1409.52,1407.13 1451.64,1396.9 1493.02,1383.95 1533.46,1368.35 1572.81,1350.15 1610.89,1329.43 1647.54,1306.29 1682.62,1280.81 1715.96,1253.11 1747.44,1223.3 1776.91,1191.5 1804.25,1157.87 1829.35,1122.52 1852.11,1085.62 1872.41,1047.32 1890.19,1007.78 1905.36,967.173 1917.86,925.663 1927.64,883.43 1934.65,840.65 1938.87,797.505 1940.28,754.177 1273.27,754.177 "/>
<path clip-path="url(#clip920)" d="M265.897 353.575 L513.445 353.575 L513.445 94.3749 L265.897 94.3749  Z" fill="#ffffff" fill-rule="evenodd" fill-opacity="1"/>
<polyline clip-path="url(#clip920)" style="stroke:#000000; stroke-linecap:round; stroke-linejoin:round; stroke-width:4; stroke-opacity:1; fill:none" points="265.897,353.575 513.445,353.575 513.445,94.3749 265.897,94.3749 265.897,353.575 "/>
<path clip-path="url(#clip920)" d="M289.884 166.951 L433.805 166.951 L433.805 125.479 L289.884 125.479 L289.884 166.951  Z" fill="#009af9" fill-rule="evenodd" fill-opacity="1"/>
<polyline clip-path="url(#clip920)" style="stroke:#000000; stroke-linecap:round; stroke-linejoin:round; stroke-width:4; stroke-opacity:1; fill:none" points="289.884,166.951 433.805,166.951 433.805,125.479 289.884,125.479 289.884,166.951 "/>
<path clip-path="url(#clip920)" d="M473.625 133.541 L467.282 150.74 L479.991 150.74 L473.625 133.541 M470.986 128.935 L476.287 128.935 L489.458 163.495 L484.597 163.495 L481.449 154.629 L465.87 154.629 L462.722 163.495 L457.792 163.495 L470.986 128.935 Z" fill="#000000" fill-rule="nonzero" fill-opacity="1" /><path clip-path="url(#clip920)" d="M289.884 218.791 L433.805 218.791 L433.805 177.319 L289.884 177.319 L289.884 218.791  Z" fill="#e26f46" fill-rule="evenodd" fill-opacity="1"/>
<polyline clip-path="url(#clip920)" style="stroke:#000000; stroke-linecap:round; stroke-linejoin:round; stroke-width:4; stroke-opacity:1; fill:none" points="289.884,218.791 433.805,218.791 433.805,177.319 289.884,177.319 289.884,218.791 "/>
<path clip-path="url(#clip920)" d="M462.468 198.83 L462.468 211.492 L469.968 211.492 Q473.741 211.492 475.546 209.941 Q477.375 208.367 477.375 205.15 Q477.375 201.909 475.546 200.381 Q473.741 198.83 469.968 198.83 L462.468 198.83 M462.468 184.617 L462.468 195.034 L469.389 195.034 Q472.815 195.034 474.481 193.761 Q476.171 192.465 476.171 189.826 Q476.171 187.21 474.481 185.914 Q472.815 184.617 469.389 184.617 L462.468 184.617 M457.792 180.775 L469.736 180.775 Q475.083 180.775 477.977 182.997 Q480.87 185.219 480.87 189.317 Q480.87 192.488 479.389 194.363 Q477.907 196.238 475.037 196.701 Q478.486 197.441 480.384 199.803 Q482.306 202.141 482.306 205.659 Q482.306 210.289 479.157 212.812 Q476.009 215.335 470.199 215.335 L457.792 215.335 L457.792 180.775 Z" fill="#000000" fill-rule="nonzero" fill-opacity="1" /><path clip-path="url(#clip920)" d="M289.884 270.631 L433.805 270.631 L433.805 229.159 L289.884 229.159 L289.884 270.631  Z" fill="#3da44d" fill-rule="evenodd" fill-opacity="1"/>
<polyline clip-path="url(#clip920)" style="stroke:#000000; stroke-linecap:round; stroke-linejoin:round; stroke-width:4; stroke-opacity:1; fill:none" points="289.884,270.631 433.805,270.631 433.805,229.159 289.884,229.159 289.884,270.631 "/>
<path clip-path="url(#clip920)" d="M485.662 235.277 L485.662 240.207 Q483.301 238.008 480.616 236.92 Q477.954 235.832 474.944 235.832 Q469.019 235.832 465.87 239.467 Q462.722 243.078 462.722 249.93 Q462.722 256.758 465.87 260.393 Q469.019 264.004 474.944 264.004 Q477.954 264.004 480.616 262.916 Q483.301 261.828 485.662 259.629 L485.662 264.513 Q483.208 266.18 480.454 267.013 Q477.722 267.846 474.667 267.846 Q466.819 267.846 462.306 263.055 Q457.792 258.24 457.792 249.93 Q457.792 241.596 462.306 236.805 Q466.819 231.99 474.667 231.99 Q477.769 231.99 480.5 232.823 Q483.255 233.633 485.662 235.277 Z" fill="#000000" fill-rule="nonzero" fill-opacity="1" /><path clip-path="url(#clip920)" d="M289.884 322.471 L433.805 322.471 L433.805 280.999 L289.884 280.999 L289.884 322.471  Z" fill="#c271d2" fill-rule="evenodd" fill-opacity="1"/>
<polyline clip-path="url(#clip920)" style="stroke:#000000; stroke-linecap:round; stroke-linejoin:round; stroke-width:4; stroke-opacity:1; fill:none" points="289.884,322.471 433.805,322.471 433.805,280.999 289.884,280.999 289.884,322.471 "/>
<path clip-path="url(#clip920)" d="M462.468 288.297 L462.468 315.172 L468.116 315.172 Q475.269 315.172 478.579 311.932 Q481.912 308.691 481.912 301.7 Q481.912 294.756 478.579 291.538 Q475.269 288.297 468.116 288.297 L462.468 288.297 M457.792 284.455 L467.398 284.455 Q477.444 284.455 482.143 288.645 Q486.843 292.811 486.843 301.7 Q486.843 310.635 482.12 314.825 Q477.398 319.015 467.398 319.015 L457.792 319.015 L457.792 284.455 Z" fill="#000000" fill-rule="nonzero" fill-opacity="1" /></svg>
