<?xml version="1.0" encoding="utf-8"?>
<svg xmlns="http://www.w3.org/2000/svg" xmlns:xlink="http://www.w3.org/1999/xlink" width="600" height="400" viewBox="0 0 2400 1600">
<defs>
  <clipPath id="clip330">
    <rect x="0" y="0" width="2400" height="1600"/>
  </clipPath>
</defs>
<path clip-path="url(#clip330)" d="M0 1600 L2400 1600 L2400 0 L0 0  Z" fill="#ffffff" fill-rule="evenodd" fill-opacity="1"/>
<defs>
  <clipPath id="clip331">
    <rect x="480" y="0" width="1681" height="1600"/>
  </clipPath>
</defs>
<path clip-path="url(#clip330)" d="M186.274 686.448 L1152.76 686.448 L1152.76 47.2441 L186.274 47.2441  Z" fill="#ffffff" fill-rule="evenodd" fill-opacity="1"/>
<defs>
  <clipPath id="clip332">
    <rect x="186" y="47" width="967" height="640"/>
  </clipPath>
</defs>
<polyline clip-path="url(#clip332)" style="stroke:#000000; stroke-linecap:round; stroke-linejoin:round; stroke-width:2; stroke-opacity:0.1; fill:none" points="204.417,686.448 204.417,47.2441 "/>
<polyline clip-path="url(#clip332)" style="stroke:#000000; stroke-linecap:round; stroke-linejoin:round; stroke-width:2; stroke-opacity:0.1; fill:none" points="434.664,686.448 434.664,47.2441 "/>
<polyline clip-path="url(#clip332)" style="stroke:#000000; stroke-linecap:round; stroke-linejoin:round; stroke-width:2; stroke-opacity:0.1; fill:none" points="664.91,686.448 664.91,47.2441 "/>
<polyline clip-path="url(#clip332)" style="stroke:#000000; stroke-linecap:round; stroke-linejoin:round; stroke-width:2; stroke-opacity:0.1; fill:none" points="895.156,686.448 895.156,47.2441 "/>
<polyline clip-path="url(#clip332)" style="stroke:#000000; stroke-linecap:round; stroke-linejoin:round; stroke-width:2; stroke-opacity:0.1; fill:none" points="1125.4,686.448 1125.4,47.2441 "/>
<polyline clip-path="url(#clip332)" style="stroke:#000000; stroke-linecap:round; stroke-linejoin:round; stroke-width:2; stroke-opacity:0.1; fill:none" points="186.274,668.385 1152.76,668.385 "/>
<polyline clip-path="url(#clip332)" style="stroke:#000000; stroke-linecap:round; stroke-linejoin:round; stroke-width:2; stroke-opacity:0.1; fill:none" points="186.274,517.49 1152.76,517.49 "/>
<polyline clip-path="url(#clip332)" style="stroke:#000000; stroke-linecap:round; stroke-linejoin:round; stroke-width:2; stroke-opacity:0.1; fill:none" points="186.274,366.595 1152.76,366.595 "/>
<polyline clip-path="url(#clip332)" style="stroke:#000000; stroke-linecap:round; stroke-linejoin:round; stroke-width:2; stroke-opacity:0.1; fill:none" points="186.274,215.701 1152.76,215.701 "/>
<polyline clip-path="url(#clip332)" style="stroke:#000000; stroke-linecap:round; stroke-linejoin:round; stroke-width:2; stroke-opacity:0.1; fill:none" points="186.274,64.8056 1152.76,64.8056 "/>
<polyline clip-path="url(#clip330)" style="stroke:#000000; stroke-linecap:round; stroke-linejoin:round; stroke-width:4; stroke-opacity:1; fill:none" points="186.274,686.448 1152.76,686.448 "/>
<polyline clip-path="url(#clip330)" style="stroke:#000000; stroke-linecap:round; stroke-linejoin:round; stroke-width:4; stroke-opacity:1; fill:none" points="204.417,686.448 204.417,667.55 "/>
<polyline clip-path="url(#clip330)" style="stroke:#000000; stroke-linecap:round; stroke-linejoin:round; stroke-width:4; stroke-opacity:1; fill:none" points="434.664,686.448 434.664,667.55 "/>
<polyline clip-path="url(#clip330)" style="stroke:#000000; stroke-linecap:round; stroke-linejoin:round; stroke-width:4; stroke-opacity:1; fill:none" points="664.91,686.448 664.91,667.55 "/>
<polyline clip-path="url(#clip330)" style="stroke:#000000; stroke-linecap:round; stroke-linejoin:round; stroke-width:4; stroke-opacity:1; fill:none" points="895.156,686.448 895.156,667.55 "/>
<polyline clip-path="url(#clip330)" style="stroke:#000000; stroke-linecap:round; stroke-linejoin:round; stroke-width:4; stroke-opacity:1; fill:none" points="1125.4,686.448 1125.4,667.55 "/>
<path clip-path="url(#clip330)" d="M204.417 717.367 Q200.806 717.367 198.978 720.931 Q197.172 724.473 197.172 731.603 Q197.172 738.709 198.978 742.274 Q200.806 745.815 204.417 745.815 Q208.052 745.815 209.857 742.274 Q211.686 738.709 211.686 731.603 Q211.686 724.473 209.857 720.931 Q208.052 717.367 204.417 717.367 M204.417 713.663 Q210.228 713.663 213.283 718.269 Q216.362 722.853 216.362 731.603 Q216.362 740.329 213.283 744.936 Q210.228 749.519 204.417 749.519 Q198.607 749.519 195.529 744.936 Q192.473 740.329 192.473 731.603 Q192.473 722.853 195.529 718.269 Q198.607 713.663 204.417 713.663 Z" fill="#000000" fill-rule="nonzero" fill-opacity="1" /><path clip-path="url(#clip330)" d="M413.935 744.913 L430.254 744.913 L430.254 748.848 L408.31 748.848 L408.31 744.913 Q410.972 742.158 415.555 737.528 Q420.161 732.876 421.342 731.533 Q423.587 729.01 424.467 727.274 Q425.37 725.515 425.37 723.825 Q425.37 721.07 423.425 719.334 Q421.504 717.598 418.402 717.598 Q416.203 717.598 413.749 718.362 Q411.319 719.126 408.541 720.677 L408.541 715.955 Q411.365 714.82 413.819 714.242 Q416.273 713.663 418.31 713.663 Q423.68 713.663 426.874 716.348 Q430.069 719.033 430.069 723.524 Q430.069 725.654 429.259 727.575 Q428.472 729.473 426.365 732.066 Q425.786 732.737 422.685 735.954 Q419.583 739.149 413.935 744.913 Z" fill="#000000" fill-rule="nonzero" fill-opacity="1" /><path clip-path="url(#clip330)" d="M440.115 714.288 L458.471 714.288 L458.471 718.223 L444.397 718.223 L444.397 726.695 Q445.416 726.348 446.434 726.186 Q447.453 726.001 448.472 726.001 Q454.259 726.001 457.638 729.172 Q461.018 732.343 461.018 737.76 Q461.018 743.339 457.546 746.44 Q454.073 749.519 447.754 749.519 Q445.578 749.519 443.31 749.149 Q441.064 748.778 438.657 748.038 L438.657 743.339 Q440.74 744.473 442.962 745.028 Q445.184 745.584 447.661 745.584 Q451.666 745.584 454.004 743.478 Q456.342 741.371 456.342 737.76 Q456.342 734.149 454.004 732.042 Q451.666 729.936 447.661 729.936 Q445.786 729.936 443.911 730.353 Q442.06 730.769 440.115 731.649 L440.115 714.288 Z" fill="#000000" fill-rule="nonzero" fill-opacity="1" /><path clip-path="url(#clip330)" d="M639.609 714.288 L657.966 714.288 L657.966 718.223 L643.892 718.223 L643.892 726.695 Q644.91 726.348 645.929 726.186 Q646.947 726.001 647.966 726.001 Q653.753 726.001 657.132 729.172 Q660.512 732.343 660.512 737.76 Q660.512 743.339 657.04 746.44 Q653.567 749.519 647.248 749.519 Q645.072 749.519 642.804 749.149 Q640.558 748.778 638.151 748.038 L638.151 743.339 Q640.234 744.473 642.456 745.028 Q644.679 745.584 647.155 745.584 Q651.16 745.584 653.498 743.478 Q655.836 741.371 655.836 737.76 Q655.836 734.149 653.498 732.042 Q651.16 729.936 647.155 729.936 Q645.281 729.936 643.406 730.353 Q641.554 730.769 639.609 731.649 L639.609 714.288 Z" fill="#000000" fill-rule="nonzero" fill-opacity="1" /><path clip-path="url(#clip330)" d="M679.725 717.367 Q676.114 717.367 674.285 720.931 Q672.479 724.473 672.479 731.603 Q672.479 738.709 674.285 742.274 Q676.114 745.815 679.725 745.815 Q683.359 745.815 685.165 742.274 Q686.993 738.709 686.993 731.603 Q686.993 724.473 685.165 720.931 Q683.359 717.367 679.725 717.367 M679.725 713.663 Q685.535 713.663 688.59 718.269 Q691.669 722.853 691.669 731.603 Q691.669 740.329 688.59 744.936 Q685.535 749.519 679.725 749.519 Q673.915 749.519 670.836 744.936 Q667.78 740.329 667.78 731.603 Q667.78 722.853 670.836 718.269 Q673.915 713.663 679.725 713.663 Z" fill="#000000" fill-rule="nonzero" fill-opacity="1" /><path clip-path="url(#clip330)" d="M869.011 714.288 L891.233 714.288 L891.233 716.279 L878.687 748.848 L873.802 748.848 L885.608 718.223 L869.011 718.223 L869.011 714.288 Z" fill="#000000" fill-rule="nonzero" fill-opacity="1" /><path clip-path="url(#clip330)" d="M900.399 714.288 L918.756 714.288 L918.756 718.223 L904.682 718.223 L904.682 726.695 Q905.7 726.348 906.719 726.186 Q907.737 726.001 908.756 726.001 Q914.543 726.001 917.922 729.172 Q921.302 732.343 921.302 737.76 Q921.302 743.339 917.83 746.44 Q914.358 749.519 908.038 749.519 Q905.862 749.519 903.594 749.149 Q901.348 748.778 898.941 748.038 L898.941 743.339 Q901.024 744.473 903.247 745.028 Q905.469 745.584 907.946 745.584 Q911.95 745.584 914.288 743.478 Q916.626 741.371 916.626 737.76 Q916.626 734.149 914.288 732.042 Q911.95 729.936 907.946 729.936 Q906.071 729.936 904.196 730.353 Q902.344 730.769 900.399 731.649 L900.399 714.288 Z" fill="#000000" fill-rule="nonzero" fill-opacity="1" /><path clip-path="url(#clip330)" d="M1085.01 744.913 L1092.65 744.913 L1092.65 718.547 L1084.34 720.214 L1084.34 715.955 L1092.6 714.288 L1097.28 714.288 L1097.28 744.913 L1104.92 744.913 L1104.92 748.848 L1085.01 748.848 L1085.01 744.913 Z" fill="#000000" fill-rule="nonzero" fill-opacity="1" /><path clip-path="url(#clip330)" d="M1124.36 717.367 Q1120.75 717.367 1118.92 720.931 Q1117.12 724.473 1117.12 731.603 Q1117.12 738.709 1118.92 742.274 Q1120.75 745.815 1124.36 745.815 Q1128 745.815 1129.8 742.274 Q1131.63 738.709 1131.63 731.603 Q1131.63 724.473 1129.8 720.931 Q1128 717.367 1124.36 717.367 M1124.36 713.663 Q1130.17 713.663 1133.23 718.269 Q1136.31 722.853 1136.31 731.603 Q1136.31 740.329 1133.23 744.936 Q1130.17 749.519 1124.36 749.519 Q1118.55 749.519 1115.47 744.936 Q1112.42 740.329 1112.42 731.603 Q1112.42 722.853 1115.47 718.269 Q1118.55 713.663 1124.36 713.663 Z" fill="#000000" fill-rule="nonzero" fill-opacity="1" /><path clip-path="url(#clip330)" d="M1154.52 717.367 Q1150.91 717.367 1149.08 720.931 Q1147.28 724.473 1147.28 731.603 Q1147.28 738.709 1149.08 742.274 Q1150.91 745.815 1154.52 745.815 Q1158.16 745.815 1159.96 742.274 Q1161.79 738.709 1161.79 731.603 Q1161.79 724.473 1159.96 720.931 Q1158.16 717.367 1154.52 717.367 M1154.52 713.663 Q1160.33 713.663 1163.39 718.269 Q1166.47 722.853 1166.47 731.603 Q1166.47 740.329 1163.39 744.936 Q1160.33 749.519 1154.52 749.519 Q1148.71 749.519 1145.63 744.936 Q1142.58 740.329 1142.58 731.603 Q1142.58 722.853 1145.63 718.269 Q1148.71 713.663 1154.52 713.663 Z" fill="#000000" fill-rule="nonzero" fill-opacity="1" /><polyline clip-path="url(#clip330)" style="stroke:#000000; stroke-linecap:round; stroke-linejoin:round; stroke-width:4; stroke-opacity:1; fill:none" points="186.274,686.448 186.274,47.2441 "/>
<polyline clip-path="url(#clip330)" style="stroke:#000000; stroke-linecap:round; stroke-linejoin:round; stroke-width:4; stroke-opacity:1; fill:none" points="186.274,668.385 205.172,668.385 "/>
<polyline clip-path="url(#clip330)" style="stroke:#000000; stroke-linecap:round; stroke-linejoin:round; stroke-width:4; stroke-opacity:1; fill:none" points="186.274,517.49 205.172,517.49 "/>
<polyline clip-path="url(#clip330)" style="stroke:#000000; stroke-linecap:round; stroke-linejoin:round; stroke-width:4; stroke-opacity:1; fill:none" points="186.274,366.595 205.172,366.595 "/>
<polyline clip-path="url(#clip330)" style="stroke:#000000; stroke-linecap:round; stroke-linejoin:round; stroke-width:4; stroke-opacity:1; fill:none" points="186.274,215.701 205.172,215.701 "/>
<polyline clip-path="url(#clip330)" style="stroke:#000000; stroke-linecap:round; stroke-linejoin:round; stroke-width:4; stroke-opacity:1; fill:none" points="186.274,64.8056 205.172,64.8056 "/>
<path clip-path="url(#clip330)" d="M62.9365 654.184 Q59.3254 654.184 57.4967 657.749 Q55.6912 661.29 55.6912 668.42 Q55.6912 675.526 57.4967 679.091 Q59.3254 682.633 62.9365 682.633 Q66.5707 682.633 68.3763 679.091 Q70.205 675.526 70.205 668.42 Q70.205 661.29 68.3763 657.749 Q66.5707 654.184 62.9365 654.184 M62.9365 650.48 Q68.7467 650.48 71.8022 655.087 Q74.8809 659.67 74.8809 668.42 Q74.8809 677.147 71.8022 681.753 Q68.7467 686.337 62.9365 686.337 Q57.1264 686.337 54.0477 681.753 Q50.9921 677.147 50.9921 668.42 Q50.9921 659.67 54.0477 655.087 Q57.1264 650.48 62.9365 650.48 Z" fill="#000000" fill-rule="nonzero" fill-opacity="1" /><path clip-path="url(#clip330)" d="M83.0984 679.786 L87.9827 679.786 L87.9827 685.665 L83.0984 685.665 L83.0984 679.786 Z" fill="#000000" fill-rule="nonzero" fill-opacity="1" /><path clip-path="url(#clip330)" d="M108.168 654.184 Q104.557 654.184 102.728 657.749 Q100.922 661.29 100.922 668.42 Q100.922 675.526 102.728 679.091 Q104.557 682.633 108.168 682.633 Q111.802 682.633 113.608 679.091 Q115.436 675.526 115.436 668.42 Q115.436 661.29 113.608 657.749 Q111.802 654.184 108.168 654.184 M108.168 650.48 Q113.978 650.48 117.033 655.087 Q120.112 659.67 120.112 668.42 Q120.112 677.147 117.033 681.753 Q113.978 686.337 108.168 686.337 Q102.358 686.337 99.2789 681.753 Q96.2234 677.147 96.2234 668.42 Q96.2234 659.67 99.2789 655.087 Q102.358 650.48 108.168 650.48 Z" fill="#000000" fill-rule="nonzero" fill-opacity="1" /><path clip-path="url(#clip330)" d="M138.33 654.184 Q134.719 654.184 132.89 657.749 Q131.084 661.29 131.084 668.42 Q131.084 675.526 132.89 679.091 Q134.719 682.633 138.33 682.633 Q141.964 682.633 143.769 679.091 Q145.598 675.526 145.598 668.42 Q145.598 661.29 143.769 657.749 Q141.964 654.184 138.33 654.184 M138.33 650.48 Q144.14 650.48 147.195 655.087 Q150.274 659.67 150.274 668.42 Q150.274 677.147 147.195 681.753 Q144.14 686.337 138.33 686.337 Q132.519 686.337 129.441 681.753 Q126.385 677.147 126.385 668.42 Q126.385 659.67 129.441 655.087 Q132.519 650.48 138.33 650.48 Z" fill="#000000" fill-rule="nonzero" fill-opacity="1" /><path clip-path="url(#clip330)" d="M63.9319 503.289 Q60.3208 503.289 58.4921 506.854 Q56.6865 510.395 56.6865 517.525 Q56.6865 524.632 58.4921 528.196 Q60.3208 531.738 63.9319 531.738 Q67.5661 531.738 69.3717 528.196 Q71.2004 524.632 71.2004 517.525 Q71.2004 510.395 69.3717 506.854 Q67.5661 503.289 63.9319 503.289 M63.9319 499.585 Q69.742 499.585 72.7976 504.192 Q75.8763 508.775 75.8763 517.525 Q75.8763 526.252 72.7976 530.858 Q69.742 535.442 63.9319 535.442 Q58.1217 535.442 55.043 530.858 Q51.9875 526.252 51.9875 517.525 Q51.9875 508.775 55.043 504.192 Q58.1217 499.585 63.9319 499.585 Z" fill="#000000" fill-rule="nonzero" fill-opacity="1" /><path clip-path="url(#clip330)" d="M84.0938 528.891 L88.978 528.891 L88.978 534.77 L84.0938 534.77 L84.0938 528.891 Z" fill="#000000" fill-rule="nonzero" fill-opacity="1" /><path clip-path="url(#clip330)" d="M103.191 530.835 L119.51 530.835 L119.51 534.77 L97.566 534.77 L97.566 530.835 Q100.228 528.081 104.811 523.451 Q109.418 518.798 110.598 517.456 Q112.844 514.933 113.723 513.196 Q114.626 511.437 114.626 509.747 Q114.626 506.993 112.682 505.257 Q110.76 503.521 107.658 503.521 Q105.459 503.521 103.006 504.284 Q100.575 505.048 97.7974 506.599 L97.7974 501.877 Q100.621 500.743 103.075 500.164 Q105.529 499.585 107.566 499.585 Q112.936 499.585 116.131 502.271 Q119.325 504.956 119.325 509.446 Q119.325 511.576 118.515 513.497 Q117.728 515.395 115.621 517.988 Q115.043 518.659 111.941 521.877 Q108.839 525.071 103.191 530.835 Z" fill="#000000" fill-rule="nonzero" fill-opacity="1" /><path clip-path="url(#clip330)" d="M129.371 500.21 L147.728 500.21 L147.728 504.146 L133.654 504.146 L133.654 512.618 Q134.672 512.27 135.691 512.108 Q136.709 511.923 137.728 511.923 Q143.515 511.923 146.894 515.095 Q150.274 518.266 150.274 523.682 Q150.274 529.261 146.802 532.363 Q143.33 535.442 137.01 535.442 Q134.834 535.442 132.566 535.071 Q130.32 534.701 127.913 533.96 L127.913 529.261 Q129.996 530.395 132.219 530.951 Q134.441 531.506 136.918 531.506 Q140.922 531.506 143.26 529.4 Q145.598 527.294 145.598 523.682 Q145.598 520.071 143.26 517.965 Q140.922 515.858 136.918 515.858 Q135.043 515.858 133.168 516.275 Q131.316 516.692 129.371 517.571 L129.371 500.21 Z" fill="#000000" fill-rule="nonzero" fill-opacity="1" /><path clip-path="url(#clip330)" d="M62.9365 352.394 Q59.3254 352.394 57.4967 355.959 Q55.6912 359.501 55.6912 366.63 Q55.6912 373.737 57.4967 377.301 Q59.3254 380.843 62.9365 380.843 Q66.5707 380.843 68.3763 377.301 Q70.205 373.737 70.205 366.63 Q70.205 359.501 68.3763 355.959 Q66.5707 352.394 62.9365 352.394 M62.9365 348.69 Q68.7467 348.69 71.8022 353.297 Q74.8809 357.88 74.8809 366.63 Q74.8809 375.357 71.8022 379.963 Q68.7467 384.547 62.9365 384.547 Q57.1264 384.547 54.0477 379.963 Q50.9921 375.357 50.9921 366.63 Q50.9921 357.88 54.0477 353.297 Q57.1264 348.69 62.9365 348.69 Z" fill="#000000" fill-rule="nonzero" fill-opacity="1" /><path clip-path="url(#clip330)" d="M83.0984 377.996 L87.9827 377.996 L87.9827 383.875 L83.0984 383.875 L83.0984 377.996 Z" fill="#000000" fill-rule="nonzero" fill-opacity="1" /><path clip-path="url(#clip330)" d="M98.2141 349.315 L116.57 349.315 L116.57 353.251 L102.496 353.251 L102.496 361.723 Q103.515 361.376 104.534 361.214 Q105.552 361.028 106.571 361.028 Q112.358 361.028 115.737 364.2 Q119.117 367.371 119.117 372.788 Q119.117 378.366 115.645 381.468 Q112.172 384.547 105.853 384.547 Q103.677 384.547 101.409 384.176 Q99.1632 383.806 96.7558 383.065 L96.7558 378.366 Q98.8391 379.5 101.061 380.056 Q103.284 380.612 105.76 380.612 Q109.765 380.612 112.103 378.505 Q114.441 376.399 114.441 372.788 Q114.441 369.176 112.103 367.07 Q109.765 364.964 105.76 364.964 Q103.885 364.964 102.01 365.38 Q100.159 365.797 98.2141 366.676 L98.2141 349.315 Z" fill="#000000" fill-rule="nonzero" fill-opacity="1" /><path clip-path="url(#clip330)" d="M138.33 352.394 Q134.719 352.394 132.89 355.959 Q131.084 359.501 131.084 366.63 Q131.084 373.737 132.89 377.301 Q134.719 380.843 138.33 380.843 Q141.964 380.843 143.769 377.301 Q145.598 373.737 145.598 366.63 Q145.598 359.501 143.769 355.959 Q141.964 352.394 138.33 352.394 M138.33 348.69 Q144.14 348.69 147.195 353.297 Q150.274 357.88 150.274 366.63 Q150.274 375.357 147.195 379.963 Q144.14 384.547 138.33 384.547 Q132.519 384.547 129.441 379.963 Q126.385 375.357 126.385 366.63 Q126.385 357.88 129.441 353.297 Q132.519 348.69 138.33 348.69 Z" fill="#000000" fill-rule="nonzero" fill-opacity="1" /><path clip-path="url(#clip330)" d="M63.9319 201.499 Q60.3208 201.499 58.4921 205.064 Q56.6865 208.606 56.6865 215.735 Q56.6865 222.842 58.4921 226.407 Q60.3208 229.948 63.9319 229.948 Q67.5661 229.948 69.3717 226.407 Q71.2004 222.842 71.2004 215.735 Q71.2004 208.606 69.3717 205.064 Q67.5661 201.499 63.9319 201.499 M63.9319 197.796 Q69.742 197.796 72.7976 202.402 Q75.8763 206.985 75.8763 215.735 Q75.8763 224.462 72.7976 229.069 Q69.742 233.652 63.9319 233.652 Q58.1217 233.652 55.043 229.069 Q51.9875 224.462 51.9875 215.735 Q51.9875 206.985 55.043 202.402 Q58.1217 197.796 63.9319 197.796 Z" fill="#000000" fill-rule="nonzero" fill-opacity="1" /><path clip-path="url(#clip330)" d="M84.0938 227.101 L88.978 227.101 L88.978 232.981 L84.0938 232.981 L84.0938 227.101 Z" fill="#000000" fill-rule="nonzero" fill-opacity="1" /><path clip-path="url(#clip330)" d="M97.9826 198.421 L120.205 198.421 L120.205 200.411 L107.658 232.981 L102.774 232.981 L114.58 202.356 L97.9826 202.356 L97.9826 198.421 Z" fill="#000000" fill-rule="nonzero" fill-opacity="1" /><path clip-path="url(#clip330)" d="M129.371 198.421 L147.728 198.421 L147.728 202.356 L133.654 202.356 L133.654 210.828 Q134.672 210.481 135.691 210.319 Q136.709 210.133 137.728 210.133 Q143.515 210.133 146.894 213.305 Q150.274 216.476 150.274 221.893 Q150.274 227.471 146.802 230.573 Q143.33 233.652 137.01 233.652 Q134.834 233.652 132.566 233.281 Q130.32 232.911 127.913 232.17 L127.913 227.471 Q129.996 228.606 132.219 229.161 Q134.441 229.717 136.918 229.717 Q140.922 229.717 143.26 227.61 Q145.598 225.504 145.598 221.893 Q145.598 218.282 143.26 216.175 Q140.922 214.069 136.918 214.069 Q135.043 214.069 133.168 214.485 Q131.316 214.902 129.371 215.782 L129.371 198.421 Z" fill="#000000" fill-rule="nonzero" fill-opacity="1" /><path clip-path="url(#clip330)" d="M53.7467 78.1505 L61.3856 78.1505 L61.3856 51.7849 L53.0754 53.4515 L53.0754 49.1923 L61.3393 47.5256 L66.0152 47.5256 L66.0152 78.1505 L73.654 78.1505 L73.654 82.0856 L53.7467 82.0856 L53.7467 78.1505 Z" fill="#000000" fill-rule="nonzero" fill-opacity="1" /><path clip-path="url(#clip330)" d="M83.0984 76.2061 L87.9827 76.2061 L87.9827 82.0856 L83.0984 82.0856 L83.0984 76.2061 Z" fill="#000000" fill-rule="nonzero" fill-opacity="1" /><path clip-path="url(#clip330)" d="M108.168 50.6043 Q104.557 50.6043 102.728 54.1691 Q100.922 57.7108 100.922 64.8404 Q100.922 71.9468 102.728 75.5116 Q104.557 79.0533 108.168 79.0533 Q111.802 79.0533 113.608 75.5116 Q115.436 71.9468 115.436 64.8404 Q115.436 57.7108 113.608 54.1691 Q111.802 50.6043 108.168 50.6043 M108.168 46.9007 Q113.978 46.9007 117.033 51.5071 Q120.112 56.0904 120.112 64.8404 Q120.112 73.5672 117.033 78.1736 Q113.978 82.7569 108.168 82.7569 Q102.358 82.7569 99.2789 78.1736 Q96.2234 73.5672 96.2234 64.8404 Q96.2234 56.0904 99.2789 51.5071 Q102.358 46.9007 108.168 46.9007 Z" fill="#000000" fill-rule="nonzero" fill-opacity="1" /><path clip-path="url(#clip330)" d="M138.33 50.6043 Q134.719 50.6043 132.89 54.1691 Q131.084 57.7108 131.084 64.8404 Q131.084 71.9468 132.89 75.5116 Q134.719 79.0533 138.33 79.0533 Q141.964 79.0533 143.769 75.5116 Q145.598 71.9468 145.598 64.8404 Q145.598 57.7108 143.769 54.1691 Q141.964 50.6043 138.33 50.6043 M138.33 46.9007 Q144.14 46.9007 147.195 51.5071 Q150.274 56.0904 150.274 64.8404 Q150.274 73.5672 147.195 78.1736 Q144.14 82.7569 138.33 82.7569 Q132.519 82.7569 129.441 78.1736 Q126.385 73.5672 126.385 64.8404 Q126.385 56.0904 129.441 51.5071 Q132.519 46.9007 138.33 46.9007 Z" fill="#000000" fill-rule="nonzero" fill-opacity="1" /><polyline clip-path="url(#clip332)" style="stroke:#009af9; stroke-linecap:round; stroke-linejoin:round; stroke-width:4; stroke-opacity:1; fill:none" points="213.627,190.023 222.837,515.234 232.047,192.919 241.257,590.095 250.467,104.418 259.677,454.35 268.886,68.5911 278.096,443.586 287.306,442.88 296.516,529.086 305.726,464.728 314.936,263.607 324.145,455.28 333.355,210.127 342.565,663.975 351.775,99.8174 360.985,203.357 370.195,347.22 379.405,236.698 388.614,91.6028 397.824,371.35 407.034,339.733 416.244,341.869 425.454,558.213 434.664,448.592 443.874,330.052 453.083,612.373 462.293,610.403 471.503,569.641 480.713,404.633 489.923,168.318 499.133,76.3768 508.343,206.751 517.552,655.625 526.762,122.92 535.972,274.56 545.182,528.006 554.392,94.0951 563.602,545.532 572.812,340.172 582.021,228.768 591.231,247.767 600.441,307.689 609.651,442.749 618.861,610.384 628.071,668.357 637.28,133.383 646.49,650.666 655.7,649.491 664.91,482.797 674.12,443.218 683.33,331.863 692.54,514.734 701.749,284.945 710.959,71.8824 720.169,166.006 729.379,440.311 738.589,576.08 747.799,417.497 757.009,520.755 766.218,92.3158 775.428,125.244 784.638,281.867 793.848,132.071 803.058,205.501 812.268,552.234 821.478,65.3348 830.687,650.58 839.897,560.9 849.107,619.224 858.317,318.116 867.527,558.849 876.737,650.253 885.946,220.427 895.156,252.981 904.366,200.905 913.576,199.686 922.786,293.612 931.996,142.867 941.206,587.288 950.415,237.873 959.625,92.9729 968.835,380.444 978.045,272.88 987.255,134.697 996.465,547.523 1005.67,308.549 1014.88,145.871 1024.09,370.598 1033.3,362.69 1042.51,365.088 1051.72,552.826 1060.93,418.84 1070.14,659.851 1079.35,650.622 1088.56,232.997 1097.77,84.3669 1106.98,550.762 1116.19,176.706 1125.4,630.985 "/>
<path clip-path="url(#clip330)" d="M218.49 665.141 L367.569 665.141 L367.569 561.461 L218.49 561.461  Z" fill="#ffffff" fill-rule="evenodd" fill-opacity="1"/>
<polyline clip-path="url(#clip330)" style="stroke:#000000; stroke-linecap:round; stroke-linejoin:round; stroke-width:4; stroke-opacity:1; fill:none" points="218.49,665.141 367.569,665.141 367.569,561.461 218.49,561.461 218.49,665.141 "/>
<polyline clip-path="url(#clip330)" style="stroke:#009af9; stroke-linecap:round; stroke-linejoin:round; stroke-width:4; stroke-opacity:1; fill:none" points="229.229,613.301 293.661,613.301 "/>
<path clip-path="url(#clip330)" d="M318.242 632.988 Q316.437 637.618 314.724 639.03 Q313.011 640.442 310.14 640.442 L306.738 640.442 L306.738 636.877 L309.238 636.877 Q310.997 636.877 311.969 636.044 Q312.941 635.211 314.122 632.109 L314.886 630.164 L304.4 604.655 L308.913 604.655 L317.015 624.933 L325.117 604.655 L329.631 604.655 L318.242 632.988 Z" fill="#000000" fill-rule="nonzero" fill-opacity="1" /><path clip-path="url(#clip330)" d="M336.923 626.646 L344.561 626.646 L344.561 600.28 L336.251 601.947 L336.251 597.688 L344.515 596.021 L349.191 596.021 L349.191 626.646 L356.83 626.646 L356.83 630.581 L336.923 630.581 L336.923 626.646 Z" fill="#000000" fill-rule="nonzero" fill-opacity="1" /><path clip-path="url(#clip330)" d="M1386.27 686.448 L2352.76 686.448 L2352.76 47.2441 L1386.27 47.2441  Z" fill="#ffffff" fill-rule="evenodd" fill-opacity="1"/>
<defs>
  <clipPath id="clip333">
    <rect x="1386" y="47" width="967" height="640"/>
  </clipPath>
</defs>
<polyline clip-path="url(#clip333)" style="stroke:#000000; stroke-linecap:round; stroke-linejoin:round; stroke-width:2; stroke-opacity:0.1; fill:none" points="1404.42,686.448 1404.42,47.2441 "/>
<polyline clip-path="url(#clip333)" style="stroke:#000000; stroke-linecap:round; stroke-linejoin:round; stroke-width:2; stroke-opacity:0.1; fill:none" points="1634.66,686.448 1634.66,47.2441 "/>
<polyline clip-path="url(#clip333)" style="stroke:#000000; stroke-linecap:round; stroke-linejoin:round; stroke-width:2; stroke-opacity:0.1; fill:none" points="1864.91,686.448 1864.91,47.2441 "/>
<polyline clip-path="url(#clip333)" style="stroke:#000000; stroke-linecap:round; stroke-linejoin:round; stroke-width:2; stroke-opacity:0.1; fill:none" points="2095.16,686.448 2095.16,47.2441 "/>
<polyline clip-path="url(#clip333)" style="stroke:#000000; stroke-linecap:round; stroke-linejoin:round; stroke-width:2; stroke-opacity:0.1; fill:none" points="2325.4,686.448 2325.4,47.2441 "/>
<polyline clip-path="url(#clip333)" style="stroke:#000000; stroke-linecap:round; stroke-linejoin:round; stroke-width:2; stroke-opacity:0.1; fill:none" points="1386.27,673.057 2352.76,673.057 "/>
<polyline clip-path="url(#clip333)" style="stroke:#000000; stroke-linecap:round; stroke-linejoin:round; stroke-width:2; stroke-opacity:0.1; fill:none" points="1386.27,520.774 2352.76,520.774 "/>
<polyline clip-path="url(#clip333)" style="stroke:#000000; stroke-linecap:round; stroke-linejoin:round; stroke-width:2; stroke-opacity:0.1; fill:none" points="1386.27,368.491 2352.76,368.491 "/>
<polyline clip-path="url(#clip333)" style="stroke:#000000; stroke-linecap:round; stroke-linejoin:round; stroke-width:2; stroke-opacity:0.1; fill:none" points="1386.27,216.209 2352.76,216.209 "/>
<polyline clip-path="url(#clip333)" style="stroke:#000000; stroke-linecap:round; stroke-linejoin:round; stroke-width:2; stroke-opacity:0.1; fill:none" points="1386.27,63.9259 2352.76,63.9259 "/>
<polyline clip-path="url(#clip330)" style="stroke:#000000; stroke-linecap:round; stroke-linejoin:round; stroke-width:4; stroke-opacity:1; fill:none" points="1386.27,686.448 2352.76,686.448 "/>
<polyline clip-path="url(#clip330)" style="stroke:#000000; stroke-linecap:round; stroke-linejoin:round; stroke-width:4; stroke-opacity:1; fill:none" points="1404.42,686.448 1404.42,667.55 "/>
<polyline clip-path="url(#clip330)" style="stroke:#000000; stroke-linecap:round; stroke-linejoin:round; stroke-width:4; stroke-opacity:1; fill:none" points="1634.66,686.448 1634.66,667.55 "/>
<polyline clip-path="url(#clip330)" style="stroke:#000000; stroke-linecap:round; stroke-linejoin:round; stroke-width:4; stroke-opacity:1; fill:none" points="1864.91,686.448 1864.91,667.55 "/>
<polyline clip-path="url(#clip330)" style="stroke:#000000; stroke-linecap:round; stroke-linejoin:round; stroke-width:4; stroke-opacity:1; fill:none" points="2095.16,686.448 2095.16,667.55 "/>
<polyline clip-path="url(#clip330)" style="stroke:#000000; stroke-linecap:round; stroke-linejoin:round; stroke-width:4; stroke-opacity:1; fill:none" points="2325.4,686.448 2325.4,667.55 "/>
<path clip-path="url(#clip330)" d="M1404.42 717.367 Q1400.81 717.367 1398.98 720.931 Q1397.17 724.473 1397.17 731.603 Q1397.17 738.709 1398.98 742.274 Q1400.81 745.815 1404.42 745.815 Q1408.05 745.815 1409.86 742.274 Q1411.69 738.709 1411.69 731.603 Q1411.69 724.473 1409.86 720.931 Q1408.05 717.367 1404.42 717.367 M1404.42 713.663 Q1410.23 713.663 1413.28 718.269 Q1416.36 722.853 1416.36 731.603 Q1416.36 740.329 1413.28 744.936 Q1410.23 749.519 1404.42 749.519 Q1398.61 749.519 1395.53 744.936 Q1392.47 740.329 1392.47 731.603 Q1392.47 722.853 1395.53 718.269 Q1398.61 713.663 1404.42 713.663 Z" fill="#000000" fill-rule="nonzero" fill-opacity="1" /><path clip-path="url(#clip330)" d="M1613.93 744.913 L1630.25 744.913 L1630.25 748.848 L1608.31 748.848 L1608.31 744.913 Q1610.97 742.158 1615.56 737.528 Q1620.16 732.876 1621.34 731.533 Q1623.59 729.01 1624.47 727.274 Q1625.37 725.515 1625.37 723.825 Q1625.37 721.07 1623.43 719.334 Q1621.5 717.598 1618.4 717.598 Q1616.2 717.598 1613.75 718.362 Q1611.32 719.126 1608.54 720.677 L1608.54 715.955 Q1611.37 714.82 1613.82 714.242 Q1616.27 713.663 1618.31 713.663 Q1623.68 713.663 1626.87 716.348 Q1630.07 719.033 1630.07 723.524 Q1630.07 725.654 1629.26 727.575 Q1628.47 729.473 1626.37 732.066 Q1625.79 732.737 1622.68 735.954 Q1619.58 739.149 1613.93 744.913 Z" fill="#000000" fill-rule="nonzero" fill-opacity="1" /><path clip-path="url(#clip330)" d="M1640.12 714.288 L1658.47 714.288 L1658.47 718.223 L1644.4 718.223 L1644.4 726.695 Q1645.42 726.348 1646.43 726.186 Q1647.45 726.001 1648.47 726.001 Q1654.26 726.001 1657.64 729.172 Q1661.02 732.343 1661.02 737.76 Q1661.02 743.339 1657.55 746.44 Q1654.07 749.519 1647.75 749.519 Q1645.58 749.519 1643.31 749.149 Q1641.06 748.778 1638.66 748.038 L1638.66 743.339 Q1640.74 744.473 1642.96 745.028 Q1645.18 745.584 1647.66 745.584 Q1651.67 745.584 1654 743.478 Q1656.34 741.371 1656.34 737.76 Q1656.34 734.149 1654 732.042 Q1651.67 729.936 1647.66 729.936 Q1645.79 729.936 1643.91 730.353 Q1642.06 730.769 1640.12 731.649 L1640.12 714.288 Z" fill="#000000" fill-rule="nonzero" fill-opacity="1" /><path clip-path="url(#clip330)" d="M1839.61 714.288 L1857.97 714.288 L1857.97 718.223 L1843.89 718.223 L1843.89 726.695 Q1844.91 726.348 1845.93 726.186 Q1846.95 726.001 1847.97 726.001 Q1853.75 726.001 1857.13 729.172 Q1860.51 732.343 1860.51 737.76 Q1860.51 743.339 1857.04 746.44 Q1853.57 749.519 1847.25 749.519 Q1845.07 749.519 1842.8 749.149 Q1840.56 748.778 1838.15 748.038 L1838.15 743.339 Q1840.23 744.473 1842.46 745.028 Q1844.68 745.584 1847.16 745.584 Q1851.16 745.584 1853.5 743.478 Q1855.84 741.371 1855.84 737.76 Q1855.84 734.149 1853.5 732.042 Q1851.16 729.936 1847.16 729.936 Q1845.28 729.936 1843.41 730.353 Q1841.55 730.769 1839.61 731.649 L1839.61 714.288 Z" fill="#000000" fill-rule="nonzero" fill-opacity="1" /><path clip-path="url(#clip330)" d="M1879.72 717.367 Q1876.11 717.367 1874.28 720.931 Q1872.48 724.473 1872.48 731.603 Q1872.48 738.709 1874.28 742.274 Q1876.11 745.815 1879.72 745.815 Q1883.36 745.815 1885.16 742.274 Q1886.99 738.709 1886.99 731.603 Q1886.99 724.473 1885.16 720.931 Q1883.36 717.367 1879.72 717.367 M1879.72 713.663 Q1885.53 713.663 1888.59 718.269 Q1891.67 722.853 1891.67 731.603 Q1891.67 740.329 1888.59 744.936 Q1885.53 749.519 1879.72 749.519 Q1873.91 749.519 1870.84 744.936 Q1867.78 740.329 1867.78 731.603 Q1867.78 722.853 1870.84 718.269 Q1873.91 713.663 1879.72 713.663 Z" fill="#000000" fill-rule="nonzero" fill-opacity="1" /><path clip-path="url(#clip330)" d="M2069.01 714.288 L2091.23 714.288 L2091.23 716.279 L2078.69 748.848 L2073.8 748.848 L2085.61 718.223 L2069.01 718.223 L2069.01 714.288 Z" fill="#000000" fill-rule="nonzero" fill-opacity="1" /><path clip-path="url(#clip330)" d="M2100.4 714.288 L2118.76 714.288 L2118.76 718.223 L2104.68 718.223 L2104.68 726.695 Q2105.7 726.348 2106.72 726.186 Q2107.74 726.001 2108.76 726.001 Q2114.54 726.001 2117.92 729.172 Q2121.3 732.343 2121.3 737.76 Q2121.3 743.339 2117.83 746.44 Q2114.36 749.519 2108.04 749.519 Q2105.86 749.519 2103.59 749.149 Q2101.35 748.778 2098.94 748.038 L2098.94 743.339 Q2101.02 744.473 2103.25 745.028 Q2105.47 745.584 2107.95 745.584 Q2111.95 745.584 2114.29 743.478 Q2116.63 741.371 2116.63 737.76 Q2116.63 734.149 2114.29 732.042 Q2111.95 729.936 2107.95 729.936 Q2106.07 729.936 2104.2 730.353 Q2102.34 730.769 2100.4 731.649 L2100.4 714.288 Z" fill="#000000" fill-rule="nonzero" fill-opacity="1" /><path clip-path="url(#clip330)" d="M2285.01 744.913 L2292.65 744.913 L2292.65 718.547 L2284.34 720.214 L2284.34 715.955 L2292.6 714.288 L2297.28 714.288 L2297.28 744.913 L2304.92 744.913 L2304.92 748.848 L2285.01 748.848 L2285.01 744.913 Z" fill="#000000" fill-rule="nonzero" fill-opacity="1" /><path clip-path="url(#clip330)" d="M2324.36 717.367 Q2320.75 717.367 2318.92 720.931 Q2317.12 724.473 2317.12 731.603 Q2317.12 738.709 2318.92 742.274 Q2320.75 745.815 2324.36 745.815 Q2328 745.815 2329.8 742.274 Q2331.63 738.709 2331.63 731.603 Q2331.63 724.473 2329.8 720.931 Q2328 717.367 2324.36 717.367 M2324.36 713.663 Q2330.17 713.663 2333.23 718.269 Q2336.31 722.853 2336.31 731.603 Q2336.31 740.329 2333.23 744.936 Q2330.17 749.519 2324.36 749.519 Q2318.55 749.519 2315.47 744.936 Q2312.42 740.329 2312.42 731.603 Q2312.42 722.853 2315.47 718.269 Q2318.55 713.663 2324.36 713.663 Z" fill="#000000" fill-rule="nonzero" fill-opacity="1" /><path clip-path="url(#clip330)" d="M2354.52 717.367 Q2350.91 717.367 2349.08 720.931 Q2347.28 724.473 2347.28 731.603 Q2347.28 738.709 2349.08 742.274 Q2350.91 745.815 2354.52 745.815 Q2358.16 745.815 2359.96 742.274 Q2361.79 738.709 2361.79 731.603 Q2361.79 724.473 2359.96 720.931 Q2358.16 717.367 2354.52 717.367 M2354.52 713.663 Q2360.33 713.663 2363.39 718.269 Q2366.47 722.853 2366.47 731.603 Q2366.47 740.329 2363.39 744.936 Q2360.33 749.519 2354.52 749.519 Q2348.71 749.519 2345.63 744.936 Q2342.58 740.329 2342.58 731.603 Q2342.58 722.853 2345.63 718.269 Q2348.71 713.663 2354.52 713.663 Z" fill="#000000" fill-rule="nonzero" fill-opacity="1" /><polyline clip-path="url(#clip330)" style="stroke:#000000; stroke-linecap:round; stroke-linejoin:round; stroke-width:4; stroke-opacity:1; fill:none" points="1386.27,686.448 1386.27,47.2441 "/>
<polyline clip-path="url(#clip330)" style="stroke:#000000; stroke-linecap:round; stroke-linejoin:round; stroke-width:4; stroke-opacity:1; fill:none" points="1386.27,673.057 1405.17,673.057 "/>
<polyline clip-path="url(#clip330)" style="stroke:#000000; stroke-linecap:round; stroke-linejoin:round; stroke-width:4; stroke-opacity:1; fill:none" points="1386.27,520.774 1405.17,520.774 "/>
<polyline clip-path="url(#clip330)" style="stroke:#000000; stroke-linecap:round; stroke-linejoin:round; stroke-width:4; stroke-opacity:1; fill:none" points="1386.27,368.491 1405.17,368.491 "/>
<polyline clip-path="url(#clip330)" style="stroke:#000000; stroke-linecap:round; stroke-linejoin:round; stroke-width:4; stroke-opacity:1; fill:none" points="1386.27,216.209 1405.17,216.209 "/>
<polyline clip-path="url(#clip330)" style="stroke:#000000; stroke-linecap:round; stroke-linejoin:round; stroke-width:4; stroke-opacity:1; fill:none" points="1386.27,63.9259 1405.17,63.9259 "/>
<path clip-path="url(#clip330)" d="M1262.94 658.855 Q1259.33 658.855 1257.5 662.42 Q1255.69 665.962 1255.69 673.091 Q1255.69 680.198 1257.5 683.763 Q1259.33 687.304 1262.94 687.304 Q1266.57 687.304 1268.38 683.763 Q1270.2 680.198 1270.2 673.091 Q1270.2 665.962 1268.38 662.42 Q1266.57 658.855 1262.94 658.855 M1262.94 655.152 Q1268.75 655.152 1271.8 659.758 Q1274.88 664.341 1274.88 673.091 Q1274.88 681.818 1271.8 686.425 Q1268.75 691.008 1262.94 691.008 Q1257.13 691.008 1254.05 686.425 Q1250.99 681.818 1250.99 673.091 Q1250.99 664.341 1254.05 659.758 Q1257.13 655.152 1262.94 655.152 Z" fill="#000000" fill-rule="nonzero" fill-opacity="1" /><path clip-path="url(#clip330)" d="M1283.1 684.457 L1287.98 684.457 L1287.98 690.337 L1283.1 690.337 L1283.1 684.457 Z" fill="#000000" fill-rule="nonzero" fill-opacity="1" /><path clip-path="url(#clip330)" d="M1308.17 658.855 Q1304.56 658.855 1302.73 662.42 Q1300.92 665.962 1300.92 673.091 Q1300.92 680.198 1302.73 683.763 Q1304.56 687.304 1308.17 687.304 Q1311.8 687.304 1313.61 683.763 Q1315.44 680.198 1315.44 673.091 Q1315.44 665.962 1313.61 662.42 Q1311.8 658.855 1308.17 658.855 M1308.17 655.152 Q1313.98 655.152 1317.03 659.758 Q1320.11 664.341 1320.11 673.091 Q1320.11 681.818 1317.03 686.425 Q1313.98 691.008 1308.17 691.008 Q1302.36 691.008 1299.28 686.425 Q1296.22 681.818 1296.22 673.091 Q1296.22 664.341 1299.28 659.758 Q1302.36 655.152 1308.17 655.152 Z" fill="#000000" fill-rule="nonzero" fill-opacity="1" /><path clip-path="url(#clip330)" d="M1338.33 658.855 Q1334.72 658.855 1332.89 662.42 Q1331.08 665.962 1331.08 673.091 Q1331.08 680.198 1332.89 683.763 Q1334.72 687.304 1338.33 687.304 Q1341.96 687.304 1343.77 683.763 Q1345.6 680.198 1345.6 673.091 Q1345.6 665.962 1343.77 662.42 Q1341.96 658.855 1338.33 658.855 M1338.33 655.152 Q1344.14 655.152 1347.2 659.758 Q1350.27 664.341 1350.27 673.091 Q1350.27 681.818 1347.2 686.425 Q1344.14 691.008 1338.33 691.008 Q1332.52 691.008 1329.44 686.425 Q1326.39 681.818 1326.39 673.091 Q1326.39 664.341 1329.44 659.758 Q1332.52 655.152 1338.33 655.152 Z" fill="#000000" fill-rule="nonzero" fill-opacity="1" /><path clip-path="url(#clip330)" d="M1263.93 506.573 Q1260.32 506.573 1258.49 510.137 Q1256.69 513.679 1256.69 520.809 Q1256.69 527.915 1258.49 531.48 Q1260.32 535.022 1263.93 535.022 Q1267.57 535.022 1269.37 531.48 Q1271.2 527.915 1271.2 520.809 Q1271.2 513.679 1269.37 510.137 Q1267.57 506.573 1263.93 506.573 M1263.93 502.869 Q1269.74 502.869 1272.8 507.475 Q1275.88 512.059 1275.88 520.809 Q1275.88 529.535 1272.8 534.142 Q1269.74 538.725 1263.93 538.725 Q1258.12 538.725 1255.04 534.142 Q1251.99 529.535 1251.99 520.809 Q1251.99 512.059 1255.04 507.475 Q1258.12 502.869 1263.93 502.869 Z" fill="#000000" fill-rule="nonzero" fill-opacity="1" /><path clip-path="url(#clip330)" d="M1284.09 532.174 L1288.98 532.174 L1288.98 538.054 L1284.09 538.054 L1284.09 532.174 Z" fill="#000000" fill-rule="nonzero" fill-opacity="1" /><path clip-path="url(#clip330)" d="M1303.19 534.119 L1319.51 534.119 L1319.51 538.054 L1297.57 538.054 L1297.57 534.119 Q1300.23 531.364 1304.81 526.735 Q1309.42 522.082 1310.6 520.739 Q1312.84 518.216 1313.72 516.48 Q1314.63 514.721 1314.63 513.031 Q1314.63 510.276 1312.68 508.54 Q1310.76 506.804 1307.66 506.804 Q1305.46 506.804 1303.01 507.568 Q1300.58 508.332 1297.8 509.883 L1297.8 505.161 Q1300.62 504.026 1303.08 503.448 Q1305.53 502.869 1307.57 502.869 Q1312.94 502.869 1316.13 505.554 Q1319.33 508.239 1319.33 512.73 Q1319.33 514.86 1318.51 516.781 Q1317.73 518.679 1315.62 521.272 Q1315.04 521.943 1311.94 525.16 Q1308.84 528.355 1303.19 534.119 Z" fill="#000000" fill-rule="nonzero" fill-opacity="1" /><path clip-path="url(#clip330)" d="M1329.37 503.494 L1347.73 503.494 L1347.73 507.429 L1333.65 507.429 L1333.65 515.901 Q1334.67 515.554 1335.69 515.392 Q1336.71 515.207 1337.73 515.207 Q1343.51 515.207 1346.89 518.378 Q1350.27 521.549 1350.27 526.966 Q1350.27 532.545 1346.8 535.647 Q1343.33 538.725 1337.01 538.725 Q1334.83 538.725 1332.57 538.355 Q1330.32 537.985 1327.91 537.244 L1327.91 532.545 Q1330 533.679 1332.22 534.235 Q1334.44 534.79 1336.92 534.79 Q1340.92 534.79 1343.26 532.684 Q1345.6 530.577 1345.6 526.966 Q1345.6 523.355 1343.26 521.248 Q1340.92 519.142 1336.92 519.142 Q1335.04 519.142 1333.17 519.559 Q1331.32 519.975 1329.37 520.855 L1329.37 503.494 Z" fill="#000000" fill-rule="nonzero" fill-opacity="1" /><path clip-path="url(#clip330)" d="M1262.94 354.29 Q1259.33 354.29 1257.5 357.855 Q1255.69 361.396 1255.69 368.526 Q1255.69 375.632 1257.5 379.197 Q1259.33 382.739 1262.94 382.739 Q1266.57 382.739 1268.38 379.197 Q1270.2 375.632 1270.2 368.526 Q1270.2 361.396 1268.38 357.855 Q1266.57 354.29 1262.94 354.29 M1262.94 350.586 Q1268.75 350.586 1271.8 355.193 Q1274.88 359.776 1274.88 368.526 Q1274.88 377.253 1271.8 381.859 Q1268.75 386.443 1262.94 386.443 Q1257.13 386.443 1254.05 381.859 Q1250.99 377.253 1250.99 368.526 Q1250.99 359.776 1254.05 355.193 Q1257.13 350.586 1262.94 350.586 Z" fill="#000000" fill-rule="nonzero" fill-opacity="1" /><path clip-path="url(#clip330)" d="M1283.1 379.892 L1287.98 379.892 L1287.98 385.771 L1283.1 385.771 L1283.1 379.892 Z" fill="#000000" fill-rule="nonzero" fill-opacity="1" /><path clip-path="url(#clip330)" d="M1298.21 351.211 L1316.57 351.211 L1316.57 355.146 L1302.5 355.146 L1302.5 363.619 Q1303.51 363.271 1304.53 363.109 Q1305.55 362.924 1306.57 362.924 Q1312.36 362.924 1315.74 366.095 Q1319.12 369.267 1319.12 374.683 Q1319.12 380.262 1315.64 383.364 Q1312.17 386.443 1305.85 386.443 Q1303.68 386.443 1301.41 386.072 Q1299.16 385.702 1296.76 384.961 L1296.76 380.262 Q1298.84 381.396 1301.06 381.952 Q1303.28 382.507 1305.76 382.507 Q1309.76 382.507 1312.1 380.401 Q1314.44 378.294 1314.44 374.683 Q1314.44 371.072 1312.1 368.966 Q1309.76 366.859 1305.76 366.859 Q1303.89 366.859 1302.01 367.276 Q1300.16 367.693 1298.21 368.572 L1298.21 351.211 Z" fill="#000000" fill-rule="nonzero" fill-opacity="1" /><path clip-path="url(#clip330)" d="M1338.33 354.29 Q1334.72 354.29 1332.89 357.855 Q1331.08 361.396 1331.08 368.526 Q1331.08 375.632 1332.89 379.197 Q1334.72 382.739 1338.33 382.739 Q1341.96 382.739 1343.77 379.197 Q1345.6 375.632 1345.6 368.526 Q1345.6 361.396 1343.77 357.855 Q1341.96 354.29 1338.33 354.29 M1338.33 350.586 Q1344.14 350.586 1347.2 355.193 Q1350.27 359.776 1350.27 368.526 Q1350.27 377.253 1347.2 381.859 Q1344.14 386.443 1338.33 386.443 Q1332.52 386.443 1329.44 381.859 Q1326.39 377.253 1326.39 368.526 Q1326.39 359.776 1329.44 355.193 Q1332.52 350.586 1338.33 350.586 Z" fill="#000000" fill-rule="nonzero" fill-opacity="1" /><path clip-path="url(#clip330)" d="M1263.93 202.007 Q1260.32 202.007 1258.49 205.572 Q1256.69 209.114 1256.69 216.243 Q1256.69 223.35 1258.49 226.915 Q1260.32 230.456 1263.93 230.456 Q1267.57 230.456 1269.37 226.915 Q1271.2 223.35 1271.2 216.243 Q1271.2 209.114 1269.37 205.572 Q1267.57 202.007 1263.93 202.007 M1263.93 198.304 Q1269.74 198.304 1272.8 202.91 Q1275.88 207.493 1275.88 216.243 Q1275.88 224.97 1272.8 229.577 Q1269.74 234.16 1263.93 234.16 Q1258.12 234.16 1255.04 229.577 Q1251.99 224.97 1251.99 216.243 Q1251.99 207.493 1255.04 202.91 Q1258.12 198.304 1263.93 198.304 Z" fill="#000000" fill-rule="nonzero" fill-opacity="1" /><path clip-path="url(#clip330)" d="M1284.09 227.609 L1288.98 227.609 L1288.98 233.489 L1284.09 233.489 L1284.09 227.609 Z" fill="#000000" fill-rule="nonzero" fill-opacity="1" /><path clip-path="url(#clip330)" d="M1297.98 198.929 L1320.2 198.929 L1320.2 200.919 L1307.66 233.489 L1302.77 233.489 L1314.58 202.864 L1297.98 202.864 L1297.98 198.929 Z" fill="#000000" fill-rule="nonzero" fill-opacity="1" /><path clip-path="url(#clip330)" d="M1329.37 198.929 L1347.73 198.929 L1347.73 202.864 L1333.65 202.864 L1333.65 211.336 Q1334.67 210.989 1335.69 210.827 Q1336.71 210.641 1337.73 210.641 Q1343.51 210.641 1346.89 213.813 Q1350.27 216.984 1350.27 222.401 Q1350.27 227.979 1346.8 231.081 Q1343.33 234.16 1337.01 234.16 Q1334.83 234.16 1332.57 233.789 Q1330.32 233.419 1327.91 232.678 L1327.91 227.979 Q1330 229.114 1332.22 229.669 Q1334.44 230.225 1336.92 230.225 Q1340.92 230.225 1343.26 228.118 Q1345.6 226.012 1345.6 222.401 Q1345.6 218.79 1343.26 216.683 Q1340.92 214.577 1336.92 214.577 Q1335.04 214.577 1333.17 214.993 Q1331.32 215.41 1329.37 216.29 L1329.37 198.929 Z" fill="#000000" fill-rule="nonzero" fill-opacity="1" /><path clip-path="url(#clip330)" d="M1253.75 77.2707 L1261.39 77.2707 L1261.39 50.9051 L1253.08 52.5718 L1253.08 48.3125 L1261.34 46.6459 L1266.02 46.6459 L1266.02 77.2707 L1273.65 77.2707 L1273.65 81.2059 L1253.75 81.2059 L1253.75 77.2707 Z" fill="#000000" fill-rule="nonzero" fill-opacity="1" /><path clip-path="url(#clip330)" d="M1283.1 75.3263 L1287.98 75.3263 L1287.98 81.2059 L1283.1 81.2059 L1283.1 75.3263 Z" fill="#000000" fill-rule="nonzero" fill-opacity="1" /><path clip-path="url(#clip330)" d="M1308.17 49.7246 Q1304.56 49.7246 1302.73 53.2893 Q1300.92 56.831 1300.92 63.9606 Q1300.92 71.067 1302.73 74.6318 Q1304.56 78.1735 1308.17 78.1735 Q1311.8 78.1735 1313.61 74.6318 Q1315.44 71.067 1315.44 63.9606 Q1315.44 56.831 1313.61 53.2893 Q1311.8 49.7246 1308.17 49.7246 M1308.17 46.0209 Q1313.98 46.0209 1317.03 50.6273 Q1320.11 55.2106 1320.11 63.9606 Q1320.11 72.6874 1317.03 77.2938 Q1313.98 81.8772 1308.17 81.8772 Q1302.36 81.8772 1299.28 77.2938 Q1296.22 72.6874 1296.22 63.9606 Q1296.22 55.2106 1299.28 50.6273 Q1302.36 46.0209 1308.17 46.0209 Z" fill="#000000" fill-rule="nonzero" fill-opacity="1" /><path clip-path="url(#clip330)" d="M1338.33 49.7246 Q1334.72 49.7246 1332.89 53.2893 Q1331.08 56.831 1331.08 63.9606 Q1331.08 71.067 1332.89 74.6318 Q1334.72 78.1735 1338.33 78.1735 Q1341.96 78.1735 1343.77 74.6318 Q1345.6 71.067 1345.6 63.9606 Q1345.6 56.831 1343.77 53.2893 Q1341.96 49.7246 1338.33 49.7246 M1338.33 46.0209 Q1344.14 46.0209 1347.2 50.6273 Q1350.27 55.2106 1350.27 63.9606 Q1350.27 72.6874 1347.2 77.2938 Q1344.14 81.8772 1338.33 81.8772 Q1332.52 81.8772 1329.44 77.2938 Q1326.39 72.6874 1326.39 63.9606 Q1326.39 55.2106 1329.44 50.6273 Q1332.52 46.0209 1338.33 46.0209 Z" fill="#000000" fill-rule="nonzero" fill-opacity="1" /><polyline clip-path="url(#clip333)" style="stroke:#009af9; stroke-linecap:round; stroke-linejoin:round; stroke-width:4; stroke-opacity:1; fill:none" points="1413.63,460.694 1422.84,407.648 1432.05,148.447 1441.26,227.001 1450.47,340.309 1459.68,258.225 1468.89,279.855 1478.1,393.896 1487.31,371.024 1496.52,587.116 1505.73,414.765 1514.94,531.972 1524.15,65.3348 1533.36,302.682 1542.57,275.616 1551.78,99.9873 1560.98,248.65 1570.19,432.044 1579.4,553.772 1588.61,647.747 1597.82,547.646 1607.03,349.392 1616.24,540.405 1625.45,247.927 1634.66,335.665 1643.87,291.723 1653.08,109.183 1662.29,266.839 1671.5,607.854 1680.71,245.31 1689.92,453.028 1699.13,277.76 1708.34,378.386 1717.55,156.591 1726.76,265.187 1735.97,456.409 1745.18,171.88 1754.39,427.579 1763.6,332.96 1772.81,502.086 1782.02,605.73 1791.23,581.217 1800.44,259.509 1809.65,430.376 1818.86,559.195 1828.07,276.316 1837.28,487.717 1846.49,461.495 1855.7,403.629 1864.91,455.398 1874.12,165.836 1883.33,181.494 1892.54,499.194 1901.75,440.281 1910.96,394.068 1920.17,661.634 1929.38,376.434 1938.59,490.549 1947.8,285.966 1957.01,460.547 1966.22,398.16 1975.43,328.569 1984.64,492.763 1993.85,530.154 2003.06,156.416 2012.27,157.777 2021.48,387.047 2030.69,198.247 2039.9,82.5775 2049.11,660.188 2058.32,572.802 2067.53,184.258 2076.74,486.611 2085.95,644.484 2095.16,158.633 2104.37,314.235 2113.58,668.357 2122.79,88.3247 2132,108.413 2141.21,653.643 2150.42,294.395 2159.63,391.632 2168.84,410.092 2178.05,141.787 2187.25,577.514 2196.46,557.82 2205.67,562.549 2214.88,392.279 2224.09,560.068 2233.3,306.699 2242.51,511.781 2251.72,159.933 2260.93,129.707 2270.14,335.144 2279.35,449.596 2288.56,282.169 2297.77,233.688 2306.98,241.395 2316.19,588.289 2325.4,419.664 "/>
<path clip-path="url(#clip330)" d="M1418.49 665.141 L1567.2 665.141 L1567.2 561.461 L1418.49 561.461  Z" fill="#ffffff" fill-rule="evenodd" fill-opacity="1"/>
<polyline clip-path="url(#clip330)" style="stroke:#000000; stroke-linecap:round; stroke-linejoin:round; stroke-width:4; stroke-opacity:1; fill:none" points="1418.49,665.141 1567.2,665.141 1567.2,561.461 1418.49,561.461 1418.49,665.141 "/>
<polyline clip-path="url(#clip330)" style="stroke:#009af9; stroke-linecap:round; stroke-linejoin:round; stroke-width:4; stroke-opacity:1; fill:none" points="1429.23,613.301 1493.66,613.301 "/>
<path clip-path="url(#clip330)" d="M1518.24 632.988 Q1516.44 637.618 1514.72 639.03 Q1513.01 640.442 1510.14 640.442 L1506.74 640.442 L1506.74 636.877 L1509.24 636.877 Q1511 636.877 1511.97 636.044 Q1512.94 635.211 1514.12 632.109 L1514.89 630.164 L1504.4 604.655 L1508.91 604.655 L1517.02 624.933 L1525.12 604.655 L1529.63 604.655 L1518.24 632.988 Z" fill="#000000" fill-rule="nonzero" fill-opacity="1" /><path clip-path="url(#clip330)" d="M1540.14 626.646 L1556.46 626.646 L1556.46 630.581 L1534.52 630.581 L1534.52 626.646 Q1537.18 623.891 1541.76 619.262 Q1546.37 614.609 1547.55 613.266 Q1549.79 610.743 1550.67 609.007 Q1551.58 607.248 1551.58 605.558 Q1551.58 602.803 1549.63 601.067 Q1547.71 599.331 1544.61 599.331 Q1542.41 599.331 1539.95 600.095 Q1537.52 600.859 1534.75 602.41 L1534.75 597.688 Q1537.57 596.553 1540.02 595.975 Q1542.48 595.396 1544.52 595.396 Q1549.89 595.396 1553.08 598.081 Q1556.27 600.766 1556.27 605.257 Q1556.27 607.387 1555.46 609.308 Q1554.68 611.206 1552.57 613.799 Q1551.99 614.47 1548.89 617.688 Q1545.79 620.882 1540.14 626.646 Z" fill="#000000" fill-rule="nonzero" fill-opacity="1" /><path clip-path="url(#clip330)" d="M186.274 1486.45 L1152.76 1486.45 L1152.76 847.244 L186.274 847.244  Z" fill="#ffffff" fill-rule="evenodd" fill-opacity="1"/>
<defs>
  <clipPath id="clip334">
    <rect x="186" y="847" width="967" height="640"/>
  </clipPath>
</defs>
<polyline clip-path="url(#clip334)" style="stroke:#000000; stroke-linecap:round; stroke-linejoin:round; stroke-width:2; stroke-opacity:0.1; fill:none" points="204.417,1486.45 204.417,847.244 "/>
<polyline clip-path="url(#clip334)" style="stroke:#000000; stroke-linecap:round; stroke-linejoin:round; stroke-width:2; stroke-opacity:0.1; fill:none" points="434.664,1486.45 434.664,847.244 "/>
<polyline clip-path="url(#clip334)" style="stroke:#000000; stroke-linecap:round; stroke-linejoin:round; stroke-width:2; stroke-opacity:0.1; fill:none" points="664.91,1486.45 664.91,847.244 "/>
<polyline clip-path="url(#clip334)" style="stroke:#000000; stroke-linecap:round; stroke-linejoin:round; stroke-width:2; stroke-opacity:0.1; fill:none" points="895.156,1486.45 895.156,847.244 "/>
<polyline clip-path="url(#clip334)" style="stroke:#000000; stroke-linecap:round; stroke-linejoin:round; stroke-width:2; stroke-opacity:0.1; fill:none" points="1125.4,1486.45 1125.4,847.244 "/>
<polyline clip-path="url(#clip334)" style="stroke:#000000; stroke-linecap:round; stroke-linejoin:round; stroke-width:2; stroke-opacity:0.1; fill:none" points="186.274,1471.96 1152.76,1471.96 "/>
<polyline clip-path="url(#clip334)" style="stroke:#000000; stroke-linecap:round; stroke-linejoin:round; stroke-width:2; stroke-opacity:0.1; fill:none" points="186.274,1320.22 1152.76,1320.22 "/>
<polyline clip-path="url(#clip334)" style="stroke:#000000; stroke-linecap:round; stroke-linejoin:round; stroke-width:2; stroke-opacity:0.1; fill:none" points="186.274,1168.47 1152.76,1168.47 "/>
<polyline clip-path="url(#clip334)" style="stroke:#000000; stroke-linecap:round; stroke-linejoin:round; stroke-width:2; stroke-opacity:0.1; fill:none" points="186.274,1016.73 1152.76,1016.73 "/>
<polyline clip-path="url(#clip334)" style="stroke:#000000; stroke-linecap:round; stroke-linejoin:round; stroke-width:2; stroke-opacity:0.1; fill:none" points="186.274,864.988 1152.76,864.988 "/>
<polyline clip-path="url(#clip330)" style="stroke:#000000; stroke-linecap:round; stroke-linejoin:round; stroke-width:4; stroke-opacity:1; fill:none" points="186.274,1486.45 1152.76,1486.45 "/>
<polyline clip-path="url(#clip330)" style="stroke:#000000; stroke-linecap:round; stroke-linejoin:round; stroke-width:4; stroke-opacity:1; fill:none" points="204.417,1486.45 204.417,1467.55 "/>
<polyline clip-path="url(#clip330)" style="stroke:#000000; stroke-linecap:round; stroke-linejoin:round; stroke-width:4; stroke-opacity:1; fill:none" points="434.664,1486.45 434.664,1467.55 "/>
<polyline clip-path="url(#clip330)" style="stroke:#000000; stroke-linecap:round; stroke-linejoin:round; stroke-width:4; stroke-opacity:1; fill:none" points="664.91,1486.45 664.91,1467.55 "/>
<polyline clip-path="url(#clip330)" style="stroke:#000000; stroke-linecap:round; stroke-linejoin:round; stroke-width:4; stroke-opacity:1; fill:none" points="895.156,1486.45 895.156,1467.55 "/>
<polyline clip-path="url(#clip330)" style="stroke:#000000; stroke-linecap:round; stroke-linejoin:round; stroke-width:4; stroke-opacity:1; fill:none" points="1125.4,1486.45 1125.4,1467.55 "/>
<path clip-path="url(#clip330)" d="M204.417 1517.37 Q200.806 1517.37 198.978 1520.93 Q197.172 1524.47 197.172 1531.6 Q197.172 1538.71 198.978 1542.27 Q200.806 1545.82 204.417 1545.82 Q208.052 1545.82 209.857 1542.27 Q211.686 1538.71 211.686 1531.6 Q211.686 1524.47 209.857 1520.93 Q208.052 1517.37 204.417 1517.37 M204.417 1513.66 Q210.228 1513.66 213.283 1518.27 Q216.362 1522.85 216.362 1531.6 Q216.362 1540.33 213.283 1544.94 Q210.228 1549.52 204.417 1549.52 Q198.607 1549.52 195.529 1544.94 Q192.473 1540.33 192.473 1531.6 Q192.473 1522.85 195.529 1518.27 Q198.607 1513.66 204.417 1513.66 Z" fill="#000000" fill-rule="nonzero" fill-opacity="1" /><path clip-path="url(#clip330)" d="M413.935 1544.91 L430.254 1544.91 L430.254 1548.85 L408.31 1548.85 L408.31 1544.91 Q410.972 1542.16 415.555 1537.53 Q420.161 1532.88 421.342 1531.53 Q423.587 1529.01 424.467 1527.27 Q425.37 1525.51 425.37 1523.82 Q425.37 1521.07 423.425 1519.33 Q421.504 1517.6 418.402 1517.6 Q416.203 1517.6 413.749 1518.36 Q411.319 1519.13 408.541 1520.68 L408.541 1515.95 Q411.365 1514.82 413.819 1514.24 Q416.273 1513.66 418.31 1513.66 Q423.68 1513.66 426.874 1516.35 Q430.069 1519.03 430.069 1523.52 Q430.069 1525.65 429.259 1527.57 Q428.472 1529.47 426.365 1532.07 Q425.786 1532.74 422.685 1535.95 Q419.583 1539.15 413.935 1544.91 Z" fill="#000000" fill-rule="nonzero" fill-opacity="1" /><path clip-path="url(#clip330)" d="M440.115 1514.29 L458.471 1514.29 L458.471 1518.22 L444.397 1518.22 L444.397 1526.7 Q445.416 1526.35 446.434 1526.19 Q447.453 1526 448.472 1526 Q454.259 1526 457.638 1529.17 Q461.018 1532.34 461.018 1537.76 Q461.018 1543.34 457.546 1546.44 Q454.073 1549.52 447.754 1549.52 Q445.578 1549.52 443.31 1549.15 Q441.064 1548.78 438.657 1548.04 L438.657 1543.34 Q440.74 1544.47 442.962 1545.03 Q445.184 1545.58 447.661 1545.58 Q451.666 1545.58 454.004 1543.48 Q456.342 1541.37 456.342 1537.76 Q456.342 1534.15 454.004 1532.04 Q451.666 1529.94 447.661 1529.94 Q445.786 1529.94 443.911 1530.35 Q442.06 1530.77 440.115 1531.65 L440.115 1514.29 Z" fill="#000000" fill-rule="nonzero" fill-opacity="1" /><path clip-path="url(#clip330)" d="M639.609 1514.29 L657.966 1514.29 L657.966 1518.22 L643.892 1518.22 L643.892 1526.7 Q644.91 1526.35 645.929 1526.19 Q646.947 1526 647.966 1526 Q653.753 1526 657.132 1529.17 Q660.512 1532.34 660.512 1537.76 Q660.512 1543.34 657.04 1546.44 Q653.567 1549.52 647.248 1549.52 Q645.072 1549.52 642.804 1549.15 Q640.558 1548.78 638.151 1548.04 L638.151 1543.34 Q640.234 1544.47 642.456 1545.03 Q644.679 1545.58 647.155 1545.58 Q651.16 1545.58 653.498 1543.48 Q655.836 1541.37 655.836 1537.76 Q655.836 1534.15 653.498 1532.04 Q651.16 1529.94 647.155 1529.94 Q645.281 1529.94 643.406 1530.35 Q641.554 1530.77 639.609 1531.65 L639.609 1514.29 Z" fill="#000000" fill-rule="nonzero" fill-opacity="1" /><path clip-path="url(#clip330)" d="M679.725 1517.37 Q676.114 1517.37 674.285 1520.93 Q672.479 1524.47 672.479 1531.6 Q672.479 1538.71 674.285 1542.27 Q676.114 1545.82 679.725 1545.82 Q683.359 1545.82 685.165 1542.27 Q686.993 1538.71 686.993 1531.6 Q686.993 1524.47 685.165 1520.93 Q683.359 1517.37 679.725 1517.37 M679.725 1513.66 Q685.535 1513.66 688.59 1518.27 Q691.669 1522.85 691.669 1531.6 Q691.669 1540.33 688.59 1544.94 Q685.535 1549.52 679.725 1549.52 Q673.915 1549.52 670.836 1544.94 Q667.78 1540.33 667.78 1531.6 Q667.78 1522.85 670.836 1518.27 Q673.915 1513.66 679.725 1513.66 Z" fill="#000000" fill-rule="nonzero" fill-opacity="1" /><path clip-path="url(#clip330)" d="M869.011 1514.29 L891.233 1514.29 L891.233 1516.28 L878.687 1548.85 L873.802 1548.85 L885.608 1518.22 L869.011 1518.22 L869.011 1514.29 Z" fill="#000000" fill-rule="nonzero" fill-opacity="1" /><path clip-path="url(#clip330)" d="M900.399 1514.29 L918.756 1514.29 L918.756 1518.22 L904.682 1518.22 L904.682 1526.7 Q905.7 1526.35 906.719 1526.19 Q907.737 1526 908.756 1526 Q914.543 1526 917.922 1529.17 Q921.302 1532.34 921.302 1537.76 Q921.302 1543.34 917.83 1546.44 Q914.358 1549.52 908.038 1549.52 Q905.862 1549.52 903.594 1549.15 Q901.348 1548.78 898.941 1548.04 L898.941 1543.34 Q901.024 1544.47 903.247 1545.03 Q905.469 1545.58 907.946 1545.58 Q911.95 1545.58 914.288 1543.48 Q916.626 1541.37 916.626 1537.76 Q916.626 1534.15 914.288 1532.04 Q911.95 1529.94 907.946 1529.94 Q906.071 1529.94 904.196 1530.35 Q902.344 1530.77 900.399 1531.65 L900.399 1514.29 Z" fill="#000000" fill-rule="nonzero" fill-opacity="1" /><path clip-path="url(#clip330)" d="M1085.01 1544.91 L1092.65 1544.91 L1092.65 1518.55 L1084.34 1520.21 L1084.34 1515.95 L1092.6 1514.29 L1097.28 1514.29 L1097.28 1544.91 L1104.92 1544.91 L1104.92 1548.85 L1085.01 1548.85 L1085.01 1544.91 Z" fill="#000000" fill-rule="nonzero" fill-opacity="1" /><path clip-path="url(#clip330)" d="M1124.36 1517.37 Q1120.75 1517.37 1118.92 1520.93 Q1117.12 1524.47 1117.12 1531.6 Q1117.12 1538.71 1118.92 1542.27 Q1120.75 1545.82 1124.36 1545.82 Q1128 1545.82 1129.8 1542.27 Q1131.63 1538.71 1131.63 1531.6 Q1131.63 1524.47 1129.8 1520.93 Q1128 1517.37 1124.36 1517.37 M1124.36 1513.66 Q1130.17 1513.66 1133.23 1518.27 Q1136.31 1522.85 1136.31 1531.6 Q1136.31 1540.33 1133.23 1544.94 Q1130.17 1549.52 1124.36 1549.52 Q1118.55 1549.52 1115.47 1544.94 Q1112.42 1540.33 1112.42 1531.6 Q1112.42 1522.85 1115.47 1518.27 Q1118.55 1513.66 1124.36 1513.66 Z" fill="#000000" fill-rule="nonzero" fill-opacity="1" /><path clip-path="url(#clip330)" d="M1154.52 1517.37 Q1150.91 1517.37 1149.08 1520.93 Q1147.28 1524.47 1147.28 1531.6 Q1147.28 1538.71 1149.08 1542.27 Q1150.91 1545.82 1154.52 1545.82 Q1158.16 1545.82 1159.96 1542.27 Q1161.79 1538.71 1161.79 1531.6 Q1161.79 1524.47 1159.96 1520.93 Q1158.16 1517.37 1154.52 1517.37 M1154.52 1513.66 Q1160.33 1513.66 1163.39 1518.27 Q1166.47 1522.85 1166.47 1531.6 Q1166.47 1540.33 1163.39 1544.94 Q1160.33 1549.52 1154.52 1549.52 Q1148.71 1549.52 1145.63 1544.94 Q1142.58 1540.33 1142.58 1531.6 Q1142.58 1522.85 1145.63 1518.27 Q1148.71 1513.66 1154.52 1513.66 Z" fill="#000000" fill-rule="nonzero" fill-opacity="1" /><polyline clip-path="url(#clip330)" style="stroke:#000000; stroke-linecap:round; stroke-linejoin:round; stroke-width:4; stroke-opacity:1; fill:none" points="186.274,1486.45 186.274,847.244 "/>
<polyline clip-path="url(#clip330)" style="stroke:#000000; stroke-linecap:round; stroke-linejoin:round; stroke-width:4; stroke-opacity:1; fill:none" points="186.274,1471.96 205.172,1471.96 "/>
<polyline clip-path="url(#clip330)" style="stroke:#000000; stroke-linecap:round; stroke-linejoin:round; stroke-width:4; stroke-opacity:1; fill:none" points="186.274,1320.22 205.172,1320.22 "/>
<polyline clip-path="url(#clip330)" style="stroke:#000000; stroke-linecap:round; stroke-linejoin:round; stroke-width:4; stroke-opacity:1; fill:none" points="186.274,1168.47 205.172,1168.47 "/>
<polyline clip-path="url(#clip330)" style="stroke:#000000; stroke-linecap:round; stroke-linejoin:round; stroke-width:4; stroke-opacity:1; fill:none" points="186.274,1016.73 205.172,1016.73 "/>
<polyline clip-path="url(#clip330)" style="stroke:#000000; stroke-linecap:round; stroke-linejoin:round; stroke-width:4; stroke-opacity:1; fill:none" points="186.274,864.988 205.172,864.988 "/>
<path clip-path="url(#clip330)" d="M62.9365 1457.76 Q59.3254 1457.76 57.4967 1461.32 Q55.6912 1464.86 55.6912 1471.99 Q55.6912 1479.1 57.4967 1482.66 Q59.3254 1486.21 62.9365 1486.21 Q66.5707 1486.21 68.3763 1482.66 Q70.205 1479.1 70.205 1471.99 Q70.205 1464.86 68.3763 1461.32 Q66.5707 1457.76 62.9365 1457.76 M62.9365 1454.05 Q68.7467 1454.05 71.8022 1458.66 Q74.8809 1463.24 74.8809 1471.99 Q74.8809 1480.72 71.8022 1485.33 Q68.7467 1489.91 62.9365 1489.91 Q57.1264 1489.91 54.0477 1485.33 Q50.9921 1480.72 50.9921 1471.99 Q50.9921 1463.24 54.0477 1458.66 Q57.1264 1454.05 62.9365 1454.05 Z" fill="#000000" fill-rule="nonzero" fill-opacity="1" /><path clip-path="url(#clip330)" d="M83.0984 1483.36 L87.9827 1483.36 L87.9827 1489.24 L83.0984 1489.24 L83.0984 1483.36 Z" fill="#000000" fill-rule="nonzero" fill-opacity="1" /><path clip-path="url(#clip330)" d="M108.168 1457.76 Q104.557 1457.76 102.728 1461.32 Q100.922 1464.86 100.922 1471.99 Q100.922 1479.1 102.728 1482.66 Q104.557 1486.21 108.168 1486.21 Q111.802 1486.21 113.608 1482.66 Q115.436 1479.1 115.436 1471.99 Q115.436 1464.86 113.608 1461.32 Q111.802 1457.76 108.168 1457.76 M108.168 1454.05 Q113.978 1454.05 117.033 1458.66 Q120.112 1463.24 120.112 1471.99 Q120.112 1480.72 117.033 1485.33 Q113.978 1489.91 108.168 1489.91 Q102.358 1489.91 99.2789 1485.33 Q96.2234 1480.72 96.2234 1471.99 Q96.2234 1463.24 99.2789 1458.66 Q102.358 1454.05 108.168 1454.05 Z" fill="#000000" fill-rule="nonzero" fill-opacity="1" /><path clip-path="url(#clip330)" d="M138.33 1457.76 Q134.719 1457.76 132.89 1461.32 Q131.084 1464.86 131.084 1471.99 Q131.084 1479.1 132.89 1482.66 Q134.719 1486.21 138.33 1486.21 Q141.964 1486.21 143.769 1482.66 Q145.598 1479.1 145.598 1471.99 Q145.598 1464.86 143.769 1461.32 Q141.964 1457.76 138.33 1457.76 M138.33 1454.05 Q144.14 1454.05 147.195 1458.66 Q150.274 1463.24 150.274 1471.99 Q150.274 1480.72 147.195 1485.33 Q144.14 1489.91 138.33 1489.91 Q132.519 1489.91 129.441 1485.33 Q126.385 1480.72 126.385 1471.99 Q126.385 1463.24 129.441 1458.66 Q132.519 1454.05 138.33 1454.05 Z" fill="#000000" fill-rule="nonzero" fill-opacity="1" /><path clip-path="url(#clip330)" d="M63.9319 1306.01 Q60.3208 1306.01 58.4921 1309.58 Q56.6865 1313.12 56.6865 1320.25 Q56.6865 1327.36 58.4921 1330.92 Q60.3208 1334.46 63.9319 1334.46 Q67.5661 1334.46 69.3717 1330.92 Q71.2004 1327.36 71.2004 1320.25 Q71.2004 1313.12 69.3717 1309.58 Q67.5661 1306.01 63.9319 1306.01 M63.9319 1302.31 Q69.742 1302.31 72.7976 1306.92 Q75.8763 1311.5 75.8763 1320.25 Q75.8763 1328.98 72.7976 1333.58 Q69.742 1338.17 63.9319 1338.17 Q58.1217 1338.17 55.043 1333.58 Q51.9875 1328.98 51.9875 1320.25 Q51.9875 1311.5 55.043 1306.92 Q58.1217 1302.31 63.9319 1302.31 Z" fill="#000000" fill-rule="nonzero" fill-opacity="1" /><path clip-path="url(#clip330)" d="M84.0938 1331.62 L88.978 1331.62 L88.978 1337.5 L84.0938 1337.5 L84.0938 1331.62 Z" fill="#000000" fill-rule="nonzero" fill-opacity="1" /><path clip-path="url(#clip330)" d="M103.191 1333.56 L119.51 1333.56 L119.51 1337.5 L97.566 1337.5 L97.566 1333.56 Q100.228 1330.81 104.811 1326.18 Q109.418 1321.52 110.598 1320.18 Q112.844 1317.66 113.723 1315.92 Q114.626 1314.16 114.626 1312.47 Q114.626 1309.72 112.682 1307.98 Q110.76 1306.25 107.658 1306.25 Q105.459 1306.25 103.006 1307.01 Q100.575 1307.77 97.7974 1309.32 L97.7974 1304.6 Q100.621 1303.47 103.075 1302.89 Q105.529 1302.31 107.566 1302.31 Q112.936 1302.31 116.131 1305 Q119.325 1307.68 119.325 1312.17 Q119.325 1314.3 118.515 1316.22 Q117.728 1318.12 115.621 1320.71 Q115.043 1321.39 111.941 1324.6 Q108.839 1327.8 103.191 1333.56 Z" fill="#000000" fill-rule="nonzero" fill-opacity="1" /><path clip-path="url(#clip330)" d="M129.371 1302.94 L147.728 1302.94 L147.728 1306.87 L133.654 1306.87 L133.654 1315.34 Q134.672 1315 135.691 1314.83 Q136.709 1314.65 137.728 1314.65 Q143.515 1314.65 146.894 1317.82 Q150.274 1320.99 150.274 1326.41 Q150.274 1331.99 146.802 1335.09 Q143.33 1338.17 137.01 1338.17 Q134.834 1338.17 132.566 1337.8 Q130.32 1337.43 127.913 1336.69 L127.913 1331.99 Q129.996 1333.12 132.219 1333.68 Q134.441 1334.23 136.918 1334.23 Q140.922 1334.23 143.26 1332.13 Q145.598 1330.02 145.598 1326.41 Q145.598 1322.8 143.26 1320.69 Q140.922 1318.58 136.918 1318.58 Q135.043 1318.58 133.168 1319 Q131.316 1319.42 129.371 1320.3 L129.371 1302.94 Z" fill="#000000" fill-rule="nonzero" fill-opacity="1" /><path clip-path="url(#clip330)" d="M62.9365 1154.27 Q59.3254 1154.27 57.4967 1157.84 Q55.6912 1161.38 55.6912 1168.51 Q55.6912 1175.61 57.4967 1179.18 Q59.3254 1182.72 62.9365 1182.72 Q66.5707 1182.72 68.3763 1179.18 Q70.205 1175.61 70.205 1168.51 Q70.205 1161.38 68.3763 1157.84 Q66.5707 1154.27 62.9365 1154.27 M62.9365 1150.57 Q68.7467 1150.57 71.8022 1155.17 Q74.8809 1159.76 74.8809 1168.51 Q74.8809 1177.23 71.8022 1181.84 Q68.7467 1186.42 62.9365 1186.42 Q57.1264 1186.42 54.0477 1181.84 Q50.9921 1177.23 50.9921 1168.51 Q50.9921 1159.76 54.0477 1155.17 Q57.1264 1150.57 62.9365 1150.57 Z" fill="#000000" fill-rule="nonzero" fill-opacity="1" /><path clip-path="url(#clip330)" d="M83.0984 1179.87 L87.9827 1179.87 L87.9827 1185.75 L83.0984 1185.75 L83.0984 1179.87 Z" fill="#000000" fill-rule="nonzero" fill-opacity="1" /><path clip-path="url(#clip330)" d="M98.2141 1151.19 L116.57 1151.19 L116.57 1155.13 L102.496 1155.13 L102.496 1163.6 Q103.515 1163.25 104.534 1163.09 Q105.552 1162.91 106.571 1162.91 Q112.358 1162.91 115.737 1166.08 Q119.117 1169.25 119.117 1174.67 Q119.117 1180.24 115.645 1183.35 Q112.172 1186.42 105.853 1186.42 Q103.677 1186.42 101.409 1186.05 Q99.1632 1185.68 96.7558 1184.94 L96.7558 1180.24 Q98.8391 1181.38 101.061 1181.93 Q103.284 1182.49 105.76 1182.49 Q109.765 1182.49 112.103 1180.38 Q114.441 1178.28 114.441 1174.67 Q114.441 1171.05 112.103 1168.95 Q109.765 1166.84 105.76 1166.84 Q103.885 1166.84 102.01 1167.26 Q100.159 1167.67 98.2141 1168.55 L98.2141 1151.19 Z" fill="#000000" fill-rule="nonzero" fill-opacity="1" /><path clip-path="url(#clip330)" d="M138.33 1154.27 Q134.719 1154.27 132.89 1157.84 Q131.084 1161.38 131.084 1168.51 Q131.084 1175.61 132.89 1179.18 Q134.719 1182.72 138.33 1182.72 Q141.964 1182.72 143.769 1179.18 Q145.598 1175.61 145.598 1168.51 Q145.598 1161.38 143.769 1157.84 Q141.964 1154.27 138.33 1154.27 M138.33 1150.57 Q144.14 1150.57 147.195 1155.17 Q150.274 1159.76 150.274 1168.51 Q150.274 1177.23 147.195 1181.84 Q144.14 1186.42 138.33 1186.42 Q132.519 1186.42 129.441 1181.84 Q126.385 1177.23 126.385 1168.51 Q126.385 1159.76 129.441 1155.17 Q132.519 1150.57 138.33 1150.57 Z" fill="#000000" fill-rule="nonzero" fill-opacity="1" /><path clip-path="url(#clip330)" d="M63.9319 1002.53 Q60.3208 1002.53 58.4921 1006.09 Q56.6865 1009.64 56.6865 1016.77 Q56.6865 1023.87 58.4921 1027.44 Q60.3208 1030.98 63.9319 1030.98 Q67.5661 1030.98 69.3717 1027.44 Q71.2004 1023.87 71.2004 1016.77 Q71.2004 1009.64 69.3717 1006.09 Q67.5661 1002.53 63.9319 1002.53 M63.9319 998.825 Q69.742 998.825 72.7976 1003.43 Q75.8763 1008.02 75.8763 1016.77 Q75.8763 1025.49 72.7976 1030.1 Q69.742 1034.68 63.9319 1034.68 Q58.1217 1034.68 55.043 1030.1 Q51.9875 1025.49 51.9875 1016.77 Q51.9875 1008.02 55.043 1003.43 Q58.1217 998.825 63.9319 998.825 Z" fill="#000000" fill-rule="nonzero" fill-opacity="1" /><path clip-path="url(#clip330)" d="M84.0938 1028.13 L88.978 1028.13 L88.978 1034.01 L84.0938 1034.01 L84.0938 1028.13 Z" fill="#000000" fill-rule="nonzero" fill-opacity="1" /><path clip-path="url(#clip330)" d="M97.9826 999.45 L120.205 999.45 L120.205 1001.44 L107.658 1034.01 L102.774 1034.01 L114.58 1003.39 L97.9826 1003.39 L97.9826 999.45 Z" fill="#000000" fill-rule="nonzero" fill-opacity="1" /><path clip-path="url(#clip330)" d="M129.371 999.45 L147.728 999.45 L147.728 1003.39 L133.654 1003.39 L133.654 1011.86 Q134.672 1011.51 135.691 1011.35 Q136.709 1011.16 137.728 1011.16 Q143.515 1011.16 146.894 1014.33 Q150.274 1017.51 150.274 1022.92 Q150.274 1028.5 146.802 1031.6 Q143.33 1034.68 137.01 1034.68 Q134.834 1034.68 132.566 1034.31 Q130.32 1033.94 127.913 1033.2 L127.913 1028.5 Q129.996 1029.64 132.219 1030.19 Q134.441 1030.75 136.918 1030.75 Q140.922 1030.75 143.26 1028.64 Q145.598 1026.53 145.598 1022.92 Q145.598 1019.31 143.26 1017.2 Q140.922 1015.1 136.918 1015.1 Q135.043 1015.1 133.168 1015.52 Q131.316 1015.93 129.371 1016.81 L129.371 999.45 Z" fill="#000000" fill-rule="nonzero" fill-opacity="1" /><path clip-path="url(#clip330)" d="M53.7467 878.332 L61.3856 878.332 L61.3856 851.967 L53.0754 853.633 L53.0754 849.374 L61.3393 847.708 L66.0152 847.708 L66.0152 878.332 L73.654 878.332 L73.654 882.268 L53.7467 882.268 L53.7467 878.332 Z" fill="#000000" fill-rule="nonzero" fill-opacity="1" /><path clip-path="url(#clip330)" d="M83.0984 876.388 L87.9827 876.388 L87.9827 882.268 L83.0984 882.268 L83.0984 876.388 Z" fill="#000000" fill-rule="nonzero" fill-opacity="1" /><path clip-path="url(#clip330)" d="M108.168 850.786 Q104.557 850.786 102.728 854.351 Q100.922 857.893 100.922 865.022 Q100.922 872.129 102.728 875.694 Q104.557 879.235 108.168 879.235 Q111.802 879.235 113.608 875.694 Q115.436 872.129 115.436 865.022 Q115.436 857.893 113.608 854.351 Q111.802 850.786 108.168 850.786 M108.168 847.083 Q113.978 847.083 117.033 851.689 Q120.112 856.272 120.112 865.022 Q120.112 873.749 117.033 878.356 Q113.978 882.939 108.168 882.939 Q102.358 882.939 99.2789 878.356 Q96.2234 873.749 96.2234 865.022 Q96.2234 856.272 99.2789 851.689 Q102.358 847.083 108.168 847.083 Z" fill="#000000" fill-rule="nonzero" fill-opacity="1" /><path clip-path="url(#clip330)" d="M138.33 850.786 Q134.719 850.786 132.89 854.351 Q131.084 857.893 131.084 865.022 Q131.084 872.129 132.89 875.694 Q134.719 879.235 138.33 879.235 Q141.964 879.235 143.769 875.694 Q145.598 872.129 145.598 865.022 Q145.598 857.893 143.769 854.351 Q141.964 850.786 138.33 850.786 M138.33 847.083 Q144.14 847.083 147.195 851.689 Q150.274 856.272 150.274 865.022 Q150.274 873.749 147.195 878.356 Q144.14 882.939 138.33 882.939 Q132.519 882.939 129.441 878.356 Q126.385 873.749 126.385 865.022 Q126.385 856.272 129.441 851.689 Q132.519 847.083 138.33 847.083 Z" fill="#000000" fill-rule="nonzero" fill-opacity="1" /><polyline clip-path="url(#clip334)" style="stroke:#009af9; stroke-linecap:round; stroke-linejoin:round; stroke-width:4; stroke-opacity:1; fill:none" points="213.627,1151.07 222.837,940.323 232.047,938.452 241.257,1185.79 250.467,1072.78 259.677,945.827 268.886,1037.51 278.096,1455.96 287.306,960.392 296.516,1245.46 305.726,880.788 314.936,1225.58 324.145,1160.53 333.355,1399.91 342.565,1414.58 351.775,1200.28 360.985,1394.83 370.195,943.149 379.405,1033.06 388.614,1406.23 397.824,948.888 407.034,1357.59 416.244,1379.85 425.454,923.259 434.664,1302.35 443.874,865.335 453.083,975.378 462.293,1194.16 471.503,1052.71 480.713,992.517 489.923,1151.86 499.133,995.539 508.343,1151.41 517.552,1078.85 526.762,1198.34 535.972,1154.79 545.182,888.473 554.392,1420.35 563.602,914.793 572.812,1315.55 582.021,1210.23 591.231,1331 600.441,886.897 609.651,1147.39 618.861,1330.9 628.071,1104.39 637.28,1198.06 646.49,1288.28 655.7,1369.18 664.91,1064.15 674.12,1038.12 683.33,978.073 692.54,1394.24 701.749,1041.79 710.959,908.969 720.169,1345.86 729.379,865.749 738.589,1083.82 747.799,1358.1 757.009,1337.09 766.218,1180.39 775.428,1096.46 784.638,1377.75 793.848,1057.82 803.058,1286.33 812.268,978.376 821.478,1143.67 830.687,1342.9 839.897,1041.27 849.107,1280.83 858.317,1010.47 867.527,995.501 876.737,1333.64 885.946,1008.94 895.156,975.192 904.366,1356.29 913.576,1077.86 922.786,928.929 931.996,1427.06 941.206,964.274 950.415,882.334 959.625,873.033 968.835,916.364 978.045,1117.36 987.255,1090.81 996.465,1440.92 1005.67,1163.67 1014.88,1384.82 1024.09,1238.24 1033.3,1437.7 1042.51,1468.36 1051.72,1466.95 1060.93,1408.34 1070.14,1312.54 1079.35,1093.43 1088.56,1383.68 1097.77,1341.28 1106.98,1139.94 1116.19,1446.55 1125.4,1186.19 "/>
<path clip-path="url(#clip330)" d="M970.883 972.231 L1120.54 972.231 L1120.54 868.551 L970.883 868.551  Z" fill="#ffffff" fill-rule="evenodd" fill-opacity="1"/>
<polyline clip-path="url(#clip330)" style="stroke:#000000; stroke-linecap:round; stroke-linejoin:round; stroke-width:4; stroke-opacity:1; fill:none" points="970.883,972.231 1120.54,972.231 1120.54,868.551 970.883,868.551 970.883,972.231 "/>
<polyline clip-path="url(#clip330)" style="stroke:#009af9; stroke-linecap:round; stroke-linejoin:round; stroke-width:4; stroke-opacity:1; fill:none" points="981.621,920.391 1046.05,920.391 "/>
<path clip-path="url(#clip330)" d="M1070.63 940.078 Q1068.83 944.708 1067.12 946.12 Q1065.4 947.532 1062.53 947.532 L1059.13 947.532 L1059.13 943.967 L1061.63 943.967 Q1063.39 943.967 1064.36 943.134 Q1065.33 942.3 1066.51 939.199 L1067.28 937.254 L1056.79 911.745 L1061.31 911.745 L1069.41 932.023 L1077.51 911.745 L1082.02 911.745 L1070.63 940.078 Z" fill="#000000" fill-rule="nonzero" fill-opacity="1" /><path clip-path="url(#clip330)" d="M1102.67 919.037 Q1106.03 919.754 1107.9 922.023 Q1109.8 924.291 1109.8 927.625 Q1109.8 932.74 1106.28 935.541 Q1102.76 938.342 1096.28 938.342 Q1094.11 938.342 1091.79 937.902 Q1089.5 937.486 1087.05 936.629 L1087.05 932.115 Q1088.99 933.25 1091.31 933.828 Q1093.62 934.407 1096.14 934.407 Q1100.54 934.407 1102.83 932.671 Q1105.15 930.935 1105.15 927.625 Q1105.15 924.569 1103 922.856 Q1100.87 921.12 1097.05 921.12 L1093.02 921.12 L1093.02 917.277 L1097.23 917.277 Q1100.68 917.277 1102.51 915.912 Q1104.34 914.523 1104.34 911.93 Q1104.34 909.268 1102.44 907.856 Q1100.57 906.421 1097.05 906.421 Q1095.13 906.421 1092.93 906.838 Q1090.73 907.254 1088.09 908.134 L1088.09 903.967 Q1090.75 903.227 1093.07 902.856 Q1095.4 902.486 1097.46 902.486 Q1102.79 902.486 1105.89 904.916 Q1108.99 907.324 1108.99 911.444 Q1108.99 914.315 1107.35 916.305 Q1105.7 918.273 1102.67 919.037 Z" fill="#000000" fill-rule="nonzero" fill-opacity="1" /><path clip-path="url(#clip330)" d="M1386.27 1486.45 L2352.76 1486.45 L2352.76 847.244 L1386.27 847.244  Z" fill="#ffffff" fill-rule="evenodd" fill-opacity="1"/>
<defs>
  <clipPath id="clip335">
    <rect x="1386" y="847" width="967" height="640"/>
  </clipPath>
</defs>
<polyline clip-path="url(#clip335)" style="stroke:#000000; stroke-linecap:round; stroke-linejoin:round; stroke-width:2; stroke-opacity:0.1; fill:none" points="1404.42,1486.45 1404.42,847.244 "/>
<polyline clip-path="url(#clip335)" style="stroke:#000000; stroke-linecap:round; stroke-linejoin:round; stroke-width:2; stroke-opacity:0.1; fill:none" points="1634.66,1486.45 1634.66,847.244 "/>
<polyline clip-path="url(#clip335)" style="stroke:#000000; stroke-linecap:round; stroke-linejoin:round; stroke-width:2; stroke-opacity:0.1; fill:none" points="1864.91,1486.45 1864.91,847.244 "/>
<polyline clip-path="url(#clip335)" style="stroke:#000000; stroke-linecap:round; stroke-linejoin:round; stroke-width:2; stroke-opacity:0.1; fill:none" points="2095.16,1486.45 2095.16,847.244 "/>
<polyline clip-path="url(#clip335)" style="stroke:#000000; stroke-linecap:round; stroke-linejoin:round; stroke-width:2; stroke-opacity:0.1; fill:none" points="2325.4,1486.45 2325.4,847.244 "/>
<polyline clip-path="url(#clip335)" style="stroke:#000000; stroke-linecap:round; stroke-linejoin:round; stroke-width:2; stroke-opacity:0.1; fill:none" points="1386.27,1472.82 2352.76,1472.82 "/>
<polyline clip-path="url(#clip335)" style="stroke:#000000; stroke-linecap:round; stroke-linejoin:round; stroke-width:2; stroke-opacity:0.1; fill:none" points="1386.27,1319.92 2352.76,1319.92 "/>
<polyline clip-path="url(#clip335)" style="stroke:#000000; stroke-linecap:round; stroke-linejoin:round; stroke-width:2; stroke-opacity:0.1; fill:none" points="1386.27,1167.03 2352.76,1167.03 "/>
<polyline clip-path="url(#clip335)" style="stroke:#000000; stroke-linecap:round; stroke-linejoin:round; stroke-width:2; stroke-opacity:0.1; fill:none" points="1386.27,1014.13 2352.76,1014.13 "/>
<polyline clip-path="url(#clip335)" style="stroke:#000000; stroke-linecap:round; stroke-linejoin:round; stroke-width:2; stroke-opacity:0.1; fill:none" points="1386.27,861.234 2352.76,861.234 "/>
<polyline clip-path="url(#clip330)" style="stroke:#000000; stroke-linecap:round; stroke-linejoin:round; stroke-width:4; stroke-opacity:1; fill:none" points="1386.27,1486.45 2352.76,1486.45 "/>
<polyline clip-path="url(#clip330)" style="stroke:#000000; stroke-linecap:round; stroke-linejoin:round; stroke-width:4; stroke-opacity:1; fill:none" points="1404.42,1486.45 1404.42,1467.55 "/>
<polyline clip-path="url(#clip330)" style="stroke:#000000; stroke-linecap:round; stroke-linejoin:round; stroke-width:4; stroke-opacity:1; fill:none" points="1634.66,1486.45 1634.66,1467.55 "/>
<polyline clip-path="url(#clip330)" style="stroke:#000000; stroke-linecap:round; stroke-linejoin:round; stroke-width:4; stroke-opacity:1; fill:none" points="1864.91,1486.45 1864.91,1467.55 "/>
<polyline clip-path="url(#clip330)" style="stroke:#000000; stroke-linecap:round; stroke-linejoin:round; stroke-width:4; stroke-opacity:1; fill:none" points="2095.16,1486.45 2095.16,1467.55 "/>
<polyline clip-path="url(#clip330)" style="stroke:#000000; stroke-linecap:round; stroke-linejoin:round; stroke-width:4; stroke-opacity:1; fill:none" points="2325.4,1486.45 2325.4,1467.55 "/>
<path clip-path="url(#clip330)" d="M1404.42 1517.37 Q1400.81 1517.37 1398.98 1520.93 Q1397.17 1524.47 1397.17 1531.6 Q1397.17 1538.71 1398.98 1542.27 Q1400.81 1545.82 1404.42 1545.82 Q1408.05 1545.82 1409.86 1542.27 Q1411.69 1538.71 1411.69 1531.6 Q1411.69 1524.47 1409.86 1520.93 Q1408.05 1517.37 1404.42 1517.37 M1404.42 1513.66 Q1410.23 1513.66 1413.28 1518.27 Q1416.36 1522.85 1416.36 1531.6 Q1416.36 1540.33 1413.28 1544.94 Q1410.23 1549.52 1404.42 1549.52 Q1398.61 1549.52 1395.53 1544.94 Q1392.47 1540.33 1392.47 1531.6 Q1392.47 1522.85 1395.53 1518.27 Q1398.61 1513.66 1404.42 1513.66 Z" fill="#000000" fill-rule="nonzero" fill-opacity="1" /><path clip-path="url(#clip330)" d="M1613.93 1544.91 L1630.25 1544.91 L1630.25 1548.85 L1608.31 1548.85 L1608.31 1544.91 Q1610.97 1542.16 1615.56 1537.53 Q1620.16 1532.88 1621.34 1531.53 Q1623.59 1529.01 1624.47 1527.27 Q1625.37 1525.51 1625.37 1523.82 Q1625.37 1521.07 1623.43 1519.33 Q1621.5 1517.6 1618.4 1517.6 Q1616.2 1517.6 1613.75 1518.36 Q1611.32 1519.13 1608.54 1520.68 L1608.54 1515.95 Q1611.37 1514.82 1613.82 1514.24 Q1616.27 1513.66 1618.31 1513.66 Q1623.68 1513.66 1626.87 1516.35 Q1630.07 1519.03 1630.07 1523.52 Q1630.07 1525.65 1629.26 1527.57 Q1628.47 1529.47 1626.37 1532.07 Q1625.79 1532.74 1622.68 1535.95 Q1619.58 1539.15 1613.93 1544.91 Z" fill="#000000" fill-rule="nonzero" fill-opacity="1" /><path clip-path="url(#clip330)" d="M1640.12 1514.29 L1658.47 1514.29 L1658.47 1518.22 L1644.4 1518.22 L1644.4 1526.7 Q1645.42 1526.35 1646.43 1526.19 Q1647.45 1526 1648.47 1526 Q1654.26 1526 1657.64 1529.17 Q1661.02 1532.34 1661.02 1537.76 Q1661.02 1543.34 1657.55 1546.44 Q1654.07 1549.52 1647.75 1549.52 Q1645.58 1549.52 1643.31 1549.15 Q1641.06 1548.78 1638.66 1548.04 L1638.66 1543.34 Q1640.74 1544.47 1642.96 1545.03 Q1645.18 1545.58 1647.66 1545.58 Q1651.67 1545.58 1654 1543.48 Q1656.34 1541.37 1656.34 1537.76 Q1656.34 1534.15 1654 1532.04 Q1651.67 1529.94 1647.66 1529.94 Q1645.79 1529.94 1643.91 1530.35 Q1642.06 1530.77 1640.12 1531.65 L1640.12 1514.29 Z" fill="#000000" fill-rule="nonzero" fill-opacity="1" /><path clip-path="url(#clip330)" d="M1839.61 1514.29 L1857.97 1514.29 L1857.97 1518.22 L1843.89 1518.22 L1843.89 1526.7 Q1844.91 1526.35 1845.93 1526.19 Q1846.95 1526 1847.97 1526 Q1853.75 1526 1857.13 1529.17 Q1860.51 1532.34 1860.51 1537.76 Q1860.51 1543.34 1857.04 1546.44 Q1853.57 1549.52 1847.25 1549.52 Q1845.07 1549.52 1842.8 1549.15 Q1840.56 1548.78 1838.15 1548.04 L1838.15 1543.34 Q1840.23 1544.47 1842.46 1545.03 Q1844.68 1545.58 1847.16 1545.58 Q1851.16 1545.58 1853.5 1543.48 Q1855.84 1541.37 1855.84 1537.76 Q1855.84 1534.15 1853.5 1532.04 Q1851.16 1529.94 1847.16 1529.94 Q1845.28 1529.94 1843.41 1530.35 Q1841.55 1530.77 1839.61 1531.65 L1839.61 1514.29 Z" fill="#000000" fill-rule="nonzero" fill-opacity="1" /><path clip-path="url(#clip330)" d="M1879.72 1517.37 Q1876.11 1517.37 1874.28 1520.93 Q1872.48 1524.47 1872.48 1531.6 Q1872.48 1538.71 1874.28 1542.27 Q1876.11 1545.82 1879.72 1545.82 Q1883.36 1545.82 1885.16 1542.27 Q1886.99 1538.71 1886.99 1531.6 Q1886.99 1524.47 1885.16 1520.93 Q1883.36 1517.37 1879.72 1517.37 M1879.72 1513.66 Q1885.53 1513.66 1888.59 1518.27 Q1891.67 1522.85 1891.67 1531.6 Q1891.67 1540.33 1888.59 1544.94 Q1885.53 1549.52 1879.72 1549.52 Q1873.91 1549.52 1870.84 1544.94 Q1867.78 1540.33 1867.78 1531.6 Q1867.78 1522.85 1870.84 1518.27 Q1873.91 1513.66 1879.72 1513.66 Z" fill="#000000" fill-rule="nonzero" fill-opacity="1" /><path clip-path="url(#clip330)" d="M2069.01 1514.29 L2091.23 1514.29 L2091.23 1516.28 L2078.69 1548.85 L2073.8 1548.85 L2085.61 1518.22 L2069.01 1518.22 L2069.01 1514.29 Z" fill="#000000" fill-rule="nonzero" fill-opacity="1" /><path clip-path="url(#clip330)" d="M2100.4 1514.29 L2118.76 1514.29 L2118.76 1518.22 L2104.68 1518.22 L2104.68 1526.7 Q2105.7 1526.35 2106.72 1526.19 Q2107.74 1526 2108.76 1526 Q2114.54 1526 2117.92 1529.17 Q2121.3 1532.34 2121.3 1537.76 Q2121.3 1543.34 2117.83 1546.44 Q2114.36 1549.52 2108.04 1549.52 Q2105.86 1549.52 2103.59 1549.15 Q2101.35 1548.78 2098.94 1548.04 L2098.94 1543.34 Q2101.02 1544.47 2103.25 1545.03 Q2105.47 1545.58 2107.95 1545.58 Q2111.95 1545.58 2114.29 1543.48 Q2116.63 1541.37 2116.63 1537.76 Q2116.63 1534.15 2114.29 1532.04 Q2111.95 1529.94 2107.95 1529.94 Q2106.07 1529.94 2104.2 1530.35 Q2102.34 1530.77 2100.4 1531.65 L2100.4 1514.29 Z" fill="#000000" fill-rule="nonzero" fill-opacity="1" /><path clip-path="url(#clip330)" d="M2285.01 1544.91 L2292.65 1544.91 L2292.65 1518.55 L2284.34 1520.21 L2284.34 1515.95 L2292.6 1514.29 L2297.28 1514.29 L2297.28 1544.91 L2304.92 1544.91 L2304.92 1548.85 L2285.01 1548.85 L2285.01 1544.91 Z" fill="#000000" fill-rule="nonzero" fill-opacity="1" /><path clip-path="url(#clip330)" d="M2324.36 1517.37 Q2320.75 1517.37 2318.92 1520.93 Q2317.12 1524.47 2317.12 1531.6 Q2317.12 1538.71 2318.92 1542.27 Q2320.75 1545.82 2324.36 1545.82 Q2328 1545.82 2329.8 1542.27 Q2331.63 1538.71 2331.63 1531.6 Q2331.63 1524.47 2329.8 1520.93 Q2328 1517.37 2324.36 1517.37 M2324.36 1513.66 Q2330.17 1513.66 2333.23 1518.27 Q2336.31 1522.85 2336.31 1531.6 Q2336.31 1540.33 2333.23 1544.94 Q2330.17 1549.52 2324.36 1549.52 Q2318.55 1549.52 2315.47 1544.94 Q2312.42 1540.33 2312.42 1531.6 Q2312.42 1522.85 2315.47 1518.27 Q2318.55 1513.66 2324.36 1513.66 Z" fill="#000000" fill-rule="nonzero" fill-opacity="1" /><path clip-path="url(#clip330)" d="M2354.52 1517.37 Q2350.91 1517.37 2349.08 1520.93 Q2347.28 1524.47 2347.28 1531.6 Q2347.28 1538.71 2349.08 1542.27 Q2350.91 1545.82 2354.52 1545.82 Q2358.16 1545.82 2359.96 1542.27 Q2361.79 1538.71 2361.79 1531.6 Q2361.79 1524.47 2359.96 1520.93 Q2358.16 1517.37 2354.52 1517.37 M2354.52 1513.66 Q2360.33 1513.66 2363.39 1518.27 Q2366.47 1522.85 2366.47 1531.6 Q2366.47 1540.33 2363.39 1544.94 Q2360.33 1549.52 2354.52 1549.52 Q2348.71 1549.52 2345.63 1544.94 Q2342.58 1540.33 2342.58 1531.6 Q2342.58 1522.85 2345.63 1518.27 Q2348.71 1513.66 2354.52 1513.66 Z" fill="#000000" fill-rule="nonzero" fill-opacity="1" /><polyline clip-path="url(#clip330)" style="stroke:#000000; stroke-linecap:round; stroke-linejoin:round; stroke-width:4; stroke-opacity:1; fill:none" points="1386.27,1486.45 1386.27,847.244 "/>
<polyline clip-path="url(#clip330)" style="stroke:#000000; stroke-linecap:round; stroke-linejoin:round; stroke-width:4; stroke-opacity:1; fill:none" points="1386.27,1472.82 1405.17,1472.82 "/>
<polyline clip-path="url(#clip330)" style="stroke:#000000; stroke-linecap:round; stroke-linejoin:round; stroke-width:4; stroke-opacity:1; fill:none" points="1386.27,1319.92 1405.17,1319.92 "/>
<polyline clip-path="url(#clip330)" style="stroke:#000000; stroke-linecap:round; stroke-linejoin:round; stroke-width:4; stroke-opacity:1; fill:none" points="1386.27,1167.03 1405.17,1167.03 "/>
<polyline clip-path="url(#clip330)" style="stroke:#000000; stroke-linecap:round; stroke-linejoin:round; stroke-width:4; stroke-opacity:1; fill:none" points="1386.27,1014.13 1405.17,1014.13 "/>
<polyline clip-path="url(#clip330)" style="stroke:#000000; stroke-linecap:round; stroke-linejoin:round; stroke-width:4; stroke-opacity:1; fill:none" points="1386.27,861.234 1405.17,861.234 "/>
<path clip-path="url(#clip330)" d="M1262.94 1458.62 Q1259.33 1458.62 1257.5 1462.18 Q1255.69 1465.73 1255.69 1472.86 Q1255.69 1479.96 1257.5 1483.53 Q1259.33 1487.07 1262.94 1487.07 Q1266.57 1487.07 1268.38 1483.53 Q1270.2 1479.96 1270.2 1472.86 Q1270.2 1465.73 1268.38 1462.18 Q1266.57 1458.62 1262.94 1458.62 M1262.94 1454.92 Q1268.75 1454.92 1271.8 1459.52 Q1274.88 1464.11 1274.88 1472.86 Q1274.88 1481.58 1271.8 1486.19 Q1268.75 1490.77 1262.94 1490.77 Q1257.13 1490.77 1254.05 1486.19 Q1250.99 1481.58 1250.99 1472.86 Q1250.99 1464.11 1254.05 1459.52 Q1257.13 1454.92 1262.94 1454.92 Z" fill="#000000" fill-rule="nonzero" fill-opacity="1" /><path clip-path="url(#clip330)" d="M1283.1 1484.22 L1287.98 1484.22 L1287.98 1490.1 L1283.1 1490.1 L1283.1 1484.22 Z" fill="#000000" fill-rule="nonzero" fill-opacity="1" /><path clip-path="url(#clip330)" d="M1308.17 1458.62 Q1304.56 1458.62 1302.73 1462.18 Q1300.92 1465.73 1300.92 1472.86 Q1300.92 1479.96 1302.73 1483.53 Q1304.56 1487.07 1308.17 1487.07 Q1311.8 1487.07 1313.61 1483.53 Q1315.44 1479.96 1315.44 1472.86 Q1315.44 1465.73 1313.61 1462.18 Q1311.8 1458.62 1308.17 1458.62 M1308.17 1454.92 Q1313.98 1454.92 1317.03 1459.52 Q1320.11 1464.11 1320.11 1472.86 Q1320.11 1481.58 1317.03 1486.19 Q1313.98 1490.77 1308.17 1490.77 Q1302.36 1490.77 1299.28 1486.19 Q1296.22 1481.58 1296.22 1472.86 Q1296.22 1464.11 1299.28 1459.52 Q1302.36 1454.92 1308.17 1454.92 Z" fill="#000000" fill-rule="nonzero" fill-opacity="1" /><path clip-path="url(#clip330)" d="M1338.33 1458.62 Q1334.72 1458.62 1332.89 1462.18 Q1331.08 1465.73 1331.08 1472.86 Q1331.08 1479.96 1332.89 1483.53 Q1334.72 1487.07 1338.33 1487.07 Q1341.96 1487.07 1343.77 1483.53 Q1345.6 1479.96 1345.6 1472.86 Q1345.6 1465.73 1343.77 1462.18 Q1341.96 1458.62 1338.33 1458.62 M1338.33 1454.92 Q1344.14 1454.92 1347.2 1459.52 Q1350.27 1464.11 1350.27 1472.86 Q1350.27 1481.58 1347.2 1486.19 Q1344.14 1490.77 1338.33 1490.77 Q1332.52 1490.77 1329.44 1486.19 Q1326.39 1481.58 1326.39 1472.86 Q1326.39 1464.11 1329.44 1459.52 Q1332.52 1454.92 1338.33 1454.92 Z" fill="#000000" fill-rule="nonzero" fill-opacity="1" /><path clip-path="url(#clip330)" d="M1263.93 1305.72 Q1260.32 1305.72 1258.49 1309.29 Q1256.69 1312.83 1256.69 1319.96 Q1256.69 1327.07 1258.49 1330.63 Q1260.32 1334.17 1263.93 1334.17 Q1267.57 1334.17 1269.37 1330.63 Q1271.2 1327.07 1271.2 1319.96 Q1271.2 1312.83 1269.37 1309.29 Q1267.57 1305.72 1263.93 1305.72 M1263.93 1302.02 Q1269.74 1302.02 1272.8 1306.63 Q1275.88 1311.21 1275.88 1319.96 Q1275.88 1328.69 1272.8 1333.29 Q1269.74 1337.88 1263.93 1337.88 Q1258.12 1337.88 1255.04 1333.29 Q1251.99 1328.69 1251.99 1319.96 Q1251.99 1311.21 1255.04 1306.63 Q1258.12 1302.02 1263.93 1302.02 Z" fill="#000000" fill-rule="nonzero" fill-opacity="1" /><path clip-path="url(#clip330)" d="M1284.09 1331.33 L1288.98 1331.33 L1288.98 1337.2 L1284.09 1337.2 L1284.09 1331.33 Z" fill="#000000" fill-rule="nonzero" fill-opacity="1" /><path clip-path="url(#clip330)" d="M1303.19 1333.27 L1319.51 1333.27 L1319.51 1337.2 L1297.57 1337.2 L1297.57 1333.27 Q1300.23 1330.51 1304.81 1325.89 Q1309.42 1321.23 1310.6 1319.89 Q1312.84 1317.37 1313.72 1315.63 Q1314.63 1313.87 1314.63 1312.18 Q1314.63 1309.43 1312.68 1307.69 Q1310.76 1305.95 1307.66 1305.95 Q1305.46 1305.95 1303.01 1306.72 Q1300.58 1307.48 1297.8 1309.03 L1297.8 1304.31 Q1300.62 1303.18 1303.08 1302.6 Q1305.53 1302.02 1307.57 1302.02 Q1312.94 1302.02 1316.13 1304.7 Q1319.33 1307.39 1319.33 1311.88 Q1319.33 1314.01 1318.51 1315.93 Q1317.73 1317.83 1315.62 1320.42 Q1315.04 1321.09 1311.94 1324.31 Q1308.84 1327.51 1303.19 1333.27 Z" fill="#000000" fill-rule="nonzero" fill-opacity="1" /><path clip-path="url(#clip330)" d="M1329.37 1302.64 L1347.73 1302.64 L1347.73 1306.58 L1333.65 1306.58 L1333.65 1315.05 Q1334.67 1314.7 1335.69 1314.54 Q1336.71 1314.36 1337.73 1314.36 Q1343.51 1314.36 1346.89 1317.53 Q1350.27 1320.7 1350.27 1326.12 Q1350.27 1331.7 1346.8 1334.8 Q1343.33 1337.88 1337.01 1337.88 Q1334.83 1337.88 1332.57 1337.51 Q1330.32 1337.14 1327.91 1336.39 L1327.91 1331.7 Q1330 1332.83 1332.22 1333.39 Q1334.44 1333.94 1336.92 1333.94 Q1340.92 1333.94 1343.26 1331.83 Q1345.6 1329.73 1345.6 1326.12 Q1345.6 1322.51 1343.26 1320.4 Q1340.92 1318.29 1336.92 1318.29 Q1335.04 1318.29 1333.17 1318.71 Q1331.32 1319.13 1329.37 1320.01 L1329.37 1302.64 Z" fill="#000000" fill-rule="nonzero" fill-opacity="1" /><path clip-path="url(#clip330)" d="M1262.94 1152.83 Q1259.33 1152.83 1257.5 1156.39 Q1255.69 1159.93 1255.69 1167.06 Q1255.69 1174.17 1257.5 1177.73 Q1259.33 1181.28 1262.94 1181.28 Q1266.57 1181.28 1268.38 1177.73 Q1270.2 1174.17 1270.2 1167.06 Q1270.2 1159.93 1268.38 1156.39 Q1266.57 1152.83 1262.94 1152.83 M1262.94 1149.12 Q1268.75 1149.12 1271.8 1153.73 Q1274.88 1158.31 1274.88 1167.06 Q1274.88 1175.79 1271.8 1180.4 Q1268.75 1184.98 1262.94 1184.98 Q1257.13 1184.98 1254.05 1180.4 Q1250.99 1175.79 1250.99 1167.06 Q1250.99 1158.31 1254.05 1153.73 Q1257.13 1149.12 1262.94 1149.12 Z" fill="#000000" fill-rule="nonzero" fill-opacity="1" /><path clip-path="url(#clip330)" d="M1283.1 1178.43 L1287.98 1178.43 L1287.98 1184.31 L1283.1 1184.31 L1283.1 1178.43 Z" fill="#000000" fill-rule="nonzero" fill-opacity="1" /><path clip-path="url(#clip330)" d="M1298.21 1149.75 L1316.57 1149.75 L1316.57 1153.68 L1302.5 1153.68 L1302.5 1162.16 Q1303.51 1161.81 1304.53 1161.65 Q1305.55 1161.46 1306.57 1161.46 Q1312.36 1161.46 1315.74 1164.63 Q1319.12 1167.8 1319.12 1173.22 Q1319.12 1178.8 1315.64 1181.9 Q1312.17 1184.98 1305.85 1184.98 Q1303.68 1184.98 1301.41 1184.61 Q1299.16 1184.24 1296.76 1183.5 L1296.76 1178.8 Q1298.84 1179.93 1301.06 1180.49 Q1303.28 1181.04 1305.76 1181.04 Q1309.76 1181.04 1312.1 1178.94 Q1314.44 1176.83 1314.44 1173.22 Q1314.44 1169.61 1312.1 1167.5 Q1309.76 1165.4 1305.76 1165.4 Q1303.89 1165.4 1302.01 1165.81 Q1300.16 1166.23 1298.21 1167.11 L1298.21 1149.75 Z" fill="#000000" fill-rule="nonzero" fill-opacity="1" /><path clip-path="url(#clip330)" d="M1338.33 1152.83 Q1334.72 1152.83 1332.89 1156.39 Q1331.08 1159.93 1331.08 1167.06 Q1331.08 1174.17 1332.89 1177.73 Q1334.72 1181.28 1338.33 1181.28 Q1341.96 1181.28 1343.77 1177.73 Q1345.6 1174.17 1345.6 1167.06 Q1345.6 1159.93 1343.77 1156.39 Q1341.96 1152.83 1338.33 1152.83 M1338.33 1149.12 Q1344.14 1149.12 1347.2 1153.73 Q1350.27 1158.31 1350.27 1167.06 Q1350.27 1175.79 1347.2 1180.4 Q1344.14 1184.98 1338.33 1184.98 Q1332.52 1184.98 1329.44 1180.4 Q1326.39 1175.79 1326.39 1167.06 Q1326.39 1158.31 1329.44 1153.73 Q1332.52 1149.12 1338.33 1149.12 Z" fill="#000000" fill-rule="nonzero" fill-opacity="1" /><path clip-path="url(#clip330)" d="M1263.93 999.93 Q1260.32 999.93 1258.49 1003.49 Q1256.69 1007.04 1256.69 1014.17 Q1256.69 1021.27 1258.49 1024.84 Q1260.32 1028.38 1263.93 1028.38 Q1267.57 1028.38 1269.37 1024.84 Q1271.2 1021.27 1271.2 1014.17 Q1271.2 1007.04 1269.37 1003.49 Q1267.57 999.93 1263.93 999.93 M1263.93 996.226 Q1269.74 996.226 1272.8 1000.83 Q1275.88 1005.42 1275.88 1014.17 Q1275.88 1022.89 1272.8 1027.5 Q1269.74 1032.08 1263.93 1032.08 Q1258.12 1032.08 1255.04 1027.5 Q1251.99 1022.89 1251.99 1014.17 Q1251.99 1005.42 1255.04 1000.83 Q1258.12 996.226 1263.93 996.226 Z" fill="#000000" fill-rule="nonzero" fill-opacity="1" /><path clip-path="url(#clip330)" d="M1284.09 1025.53 L1288.98 1025.53 L1288.98 1031.41 L1284.09 1031.41 L1284.09 1025.53 Z" fill="#000000" fill-rule="nonzero" fill-opacity="1" /><path clip-path="url(#clip330)" d="M1297.98 996.851 L1320.2 996.851 L1320.2 998.842 L1307.66 1031.41 L1302.77 1031.41 L1314.58 1000.79 L1297.98 1000.79 L1297.98 996.851 Z" fill="#000000" fill-rule="nonzero" fill-opacity="1" /><path clip-path="url(#clip330)" d="M1329.37 996.851 L1347.73 996.851 L1347.73 1000.79 L1333.65 1000.79 L1333.65 1009.26 Q1334.67 1008.91 1335.69 1008.75 Q1336.71 1008.56 1337.73 1008.56 Q1343.51 1008.56 1346.89 1011.74 Q1350.27 1014.91 1350.27 1020.32 Q1350.27 1025.9 1346.8 1029 Q1343.33 1032.08 1337.01 1032.08 Q1334.83 1032.08 1332.57 1031.71 Q1330.32 1031.34 1327.91 1030.6 L1327.91 1025.9 Q1330 1027.04 1332.22 1027.59 Q1334.44 1028.15 1336.92 1028.15 Q1340.92 1028.15 1343.26 1026.04 Q1345.6 1023.93 1345.6 1020.32 Q1345.6 1016.71 1343.26 1014.61 Q1340.92 1012.5 1336.92 1012.5 Q1335.04 1012.5 1333.17 1012.92 Q1331.32 1013.33 1329.37 1014.21 L1329.37 996.851 Z" fill="#000000" fill-rule="nonzero" fill-opacity="1" /><path clip-path="url(#clip330)" d="M1253.75 874.579 L1261.39 874.579 L1261.39 848.214 L1253.08 849.88 L1253.08 845.621 L1261.34 843.954 L1266.02 843.954 L1266.02 874.579 L1273.65 874.579 L1273.65 878.514 L1253.75 878.514 L1253.75 874.579 Z" fill="#000000" fill-rule="nonzero" fill-opacity="1" /><path clip-path="url(#clip330)" d="M1283.1 872.635 L1287.98 872.635 L1287.98 878.514 L1283.1 878.514 L1283.1 872.635 Z" fill="#000000" fill-rule="nonzero" fill-opacity="1" /><path clip-path="url(#clip330)" d="M1308.17 847.033 Q1304.56 847.033 1302.73 850.598 Q1300.92 854.139 1300.92 861.269 Q1300.92 868.376 1302.73 871.94 Q1304.56 875.482 1308.17 875.482 Q1311.8 875.482 1313.61 871.94 Q1315.44 868.376 1315.44 861.269 Q1315.44 854.139 1313.61 850.598 Q1311.8 847.033 1308.17 847.033 M1308.17 843.329 Q1313.98 843.329 1317.03 847.936 Q1320.11 852.519 1320.11 861.269 Q1320.11 869.996 1317.03 874.602 Q1313.98 879.186 1308.17 879.186 Q1302.36 879.186 1299.28 874.602 Q1296.22 869.996 1296.22 861.269 Q1296.22 852.519 1299.28 847.936 Q1302.36 843.329 1308.17 843.329 Z" fill="#000000" fill-rule="nonzero" fill-opacity="1" /><path clip-path="url(#clip330)" d="M1338.33 847.033 Q1334.72 847.033 1332.89 850.598 Q1331.08 854.139 1331.08 861.269 Q1331.08 868.376 1332.89 871.94 Q1334.72 875.482 1338.33 875.482 Q1341.96 875.482 1343.77 871.94 Q1345.6 868.376 1345.6 861.269 Q1345.6 854.139 1343.77 850.598 Q1341.96 847.033 1338.33 847.033 M1338.33 843.329 Q1344.14 843.329 1347.2 847.936 Q1350.27 852.519 1350.27 861.269 Q1350.27 869.996 1347.2 874.602 Q1344.14 879.186 1338.33 879.186 Q1332.52 879.186 1329.44 874.602 Q1326.39 869.996 1326.39 861.269 Q1326.39 852.519 1329.44 847.936 Q1332.52 843.329 1338.33 843.329 Z" fill="#000000" fill-rule="nonzero" fill-opacity="1" /><polyline clip-path="url(#clip335)" style="stroke:#009af9; stroke-linecap:round; stroke-linejoin:round; stroke-width:4; stroke-opacity:1; fill:none" points="1413.63,1136.15 1422.84,1272.35 1432.05,874.305 1441.26,984.304 1450.47,884.686 1459.68,878.778 1468.89,914.079 1478.1,926.127 1487.31,1444.53 1496.52,968.634 1505.73,1151.49 1514.94,967.721 1524.15,1249.92 1533.36,1106.97 1542.57,908.416 1551.78,1333.79 1560.98,991.069 1570.19,1136.84 1579.4,1315.76 1588.61,1015.13 1597.82,949.551 1607.03,1176.82 1616.24,1246.78 1625.45,1008.48 1634.66,1212.15 1643.87,1017.58 1653.08,1022.45 1662.29,1423.48 1671.5,1231.15 1680.71,1098.86 1689.92,1319.71 1699.13,1122.38 1708.34,1430.65 1717.55,1059.84 1726.76,1159.57 1735.97,1043.89 1745.18,1225.9 1754.39,878.526 1763.6,1357.92 1772.81,891.443 1782.02,1003.72 1791.23,1321.63 1800.44,1371.61 1809.65,1219.53 1818.86,991.088 1828.07,1252.35 1837.28,872.498 1846.49,1188.12 1855.7,1141.86 1864.91,1393.98 1874.12,1292.33 1883.33,950.081 1892.54,875.043 1901.75,1151.55 1910.96,868.185 1920.17,941.042 1929.38,1211.09 1938.59,1243.43 1947.8,1101.25 1957.01,1044.43 1966.22,1145.2 1975.43,1462.46 1984.64,1128.1 1993.85,1040.61 2003.06,1239.83 2012.27,1191.24 2021.48,1390.09 2030.69,1293.61 2039.9,1309.09 2049.11,1002.73 2058.32,1359.95 2067.53,1325.46 2076.74,978.102 2085.95,949.415 2095.16,1436.01 2104.37,1266.57 2113.58,905.407 2122.79,1044.17 2132,1010.79 2141.21,1258.26 2150.42,1328.69 2159.63,1056.26 2168.84,1468.36 2178.05,1189.66 2187.25,1092.69 2196.46,1074.53 2205.67,912.707 2214.88,907.266 2224.09,907.643 2233.3,1406.92 2242.51,1373.77 2251.72,994.197 2260.93,885.639 2270.14,1203.21 2279.35,1283.84 2288.56,1176.25 2297.77,1091.44 2306.98,865.335 2316.19,1131.75 2325.4,1309.37 "/>
<path clip-path="url(#clip330)" d="M1418.49 1465.14 L1569.28 1465.14 L1569.28 1361.46 L1418.49 1361.46  Z" fill="#ffffff" fill-rule="evenodd" fill-opacity="1"/>
<polyline clip-path="url(#clip330)" style="stroke:#000000; stroke-linecap:round; stroke-linejoin:round; stroke-width:4; stroke-opacity:1; fill:none" points="1418.49,1465.14 1569.28,1465.14 1569.28,1361.46 1418.49,1361.46 1418.49,1465.14 "/>
<polyline clip-path="url(#clip330)" style="stroke:#009af9; stroke-linecap:round; stroke-linejoin:round; stroke-width:4; stroke-opacity:1; fill:none" points="1429.23,1413.3 1493.66,1413.3 "/>
<path clip-path="url(#clip330)" d="M1518.24 1432.99 Q1516.44 1437.62 1514.72 1439.03 Q1513.01 1440.44 1510.14 1440.44 L1506.74 1440.44 L1506.74 1436.88 L1509.24 1436.88 Q1511 1436.88 1511.97 1436.04 Q1512.94 1435.21 1514.12 1432.11 L1514.89 1430.16 L1504.4 1404.66 L1508.91 1404.66 L1517.02 1424.93 L1525.12 1404.66 L1529.63 1404.66 L1518.24 1432.99 Z" fill="#000000" fill-rule="nonzero" fill-opacity="1" /><path clip-path="url(#clip330)" d="M1548.96 1400.1 L1537.15 1418.54 L1548.96 1418.54 L1548.96 1400.1 M1547.73 1396.02 L1553.61 1396.02 L1553.61 1418.54 L1558.54 1418.54 L1558.54 1422.43 L1553.61 1422.43 L1553.61 1430.58 L1548.96 1430.58 L1548.96 1422.43 L1533.36 1422.43 L1533.36 1417.92 L1547.73 1396.02 Z" fill="#000000" fill-rule="nonzero" fill-opacity="1" /></svg>
