<?xml version="1.0" encoding="utf-8" standalone="no"?>
<!DOCTYPE svg PUBLIC "-//W3C//DTD SVG 1.1//EN"
  "http://www.w3.org/Graphics/SVG/1.1/DTD/svg11.dtd">
<svg xmlns:xlink="http://www.w3.org/1999/xlink" width="288pt" height="216pt" viewBox="0 0 288 216" xmlns="http://www.w3.org/2000/svg" version="1.1">
 <metadata>
  <rdf:RDF xmlns:dc="http://purl.org/dc/elements/1.1/" xmlns:cc="http://creativecommons.org/ns#" xmlns:rdf="http://www.w3.org/1999/02/22-rdf-syntax-ns#">
   <cc:Work>
    <dc:type rdf:resource="http://purl.org/dc/dcmitype/StillImage"/>
    <dc:date>2022-06-22T14:46:30.058627</dc:date>
    <dc:format>image/svg+xml</dc:format>
    <dc:creator>
     <cc:Agent>
      <dc:title>Matplotlib v3.5.2, https://matplotlib.org/</dc:title>
     </cc:Agent>
    </dc:creator>
   </cc:Work>
  </rdf:RDF>
 </metadata>
 <defs>
  <style type="text/css">*{stroke-linejoin: round; stroke-linecap: butt}</style>
 </defs>
 <g id="figure_1">
  <g id="patch_1">
   <path d="M 0 216 
L 288 216 
L 288 0 
L 0 0 
z
" style="fill: #ffffff"/>
  </g>
  <g id="axes_1">
   <g id="patch_2">
    <path d="M 36 192.24 
L 259.2 192.24 
L 259.2 25.92 
L 36 25.92 
z
" style="fill: #ffffff"/>
   </g>
   <g id="PathCollection_1">
    <defs>
     <path id="me0be15d85d" d="M -5 0 
L 5 0 
M 0 5 
L 0 -5 
" style="stroke: #ff4500; stroke-opacity: 0.5; stroke-width: 1.5"/>
    </defs>
    <g clip-path="url(#p728b0858ac)">
     <use xlink:href="#me0be15d85d" x="36" y="100.914329" style="fill: #ff4500; fill-opacity: 0.5; stroke: #ff4500; stroke-opacity: 0.5; stroke-width: 1.5"/>
     <use xlink:href="#me0be15d85d" x="38.147186" y="107.177909" style="fill: #ff4500; fill-opacity: 0.5; stroke: #ff4500; stroke-opacity: 0.5; stroke-width: 1.5"/>
     <use xlink:href="#me0be15d85d" x="40.294372" y="71.808005" style="fill: #ff4500; fill-opacity: 0.5; stroke: #ff4500; stroke-opacity: 0.5; stroke-width: 1.5"/>
     <use xlink:href="#me0be15d85d" x="42.441558" y="101.135693" style="fill: #ff4500; fill-opacity: 0.5; stroke: #ff4500; stroke-opacity: 0.5; stroke-width: 1.5"/>
     <use xlink:href="#me0be15d85d" x="44.588745" y="82.839627" style="fill: #ff4500; fill-opacity: 0.5; stroke: #ff4500; stroke-opacity: 0.5; stroke-width: 1.5"/>
     <use xlink:href="#me0be15d85d" x="46.735931" y="88.520144" style="fill: #ff4500; fill-opacity: 0.5; stroke: #ff4500; stroke-opacity: 0.5; stroke-width: 1.5"/>
     <use xlink:href="#me0be15d85d" x="48.883117" y="143.52834" style="fill: #ff4500; fill-opacity: 0.5; stroke: #ff4500; stroke-opacity: 0.5; stroke-width: 1.5"/>
     <use xlink:href="#me0be15d85d" x="51.030303" y="94.14987" style="fill: #ff4500; fill-opacity: 0.5; stroke: #ff4500; stroke-opacity: 0.5; stroke-width: 1.5"/>
     <use xlink:href="#me0be15d85d" x="53.177489" y="128.445611" style="fill: #ff4500; fill-opacity: 0.5; stroke: #ff4500; stroke-opacity: 0.5; stroke-width: 1.5"/>
     <use xlink:href="#me0be15d85d" x="55.324675" y="127.490924" style="fill: #ff4500; fill-opacity: 0.5; stroke: #ff4500; stroke-opacity: 0.5; stroke-width: 1.5"/>
     <use xlink:href="#me0be15d85d" x="57.471861" y="128.482458" style="fill: #ff4500; fill-opacity: 0.5; stroke: #ff4500; stroke-opacity: 0.5; stroke-width: 1.5"/>
     <use xlink:href="#me0be15d85d" x="59.619048" y="42.985249" style="fill: #ff4500; fill-opacity: 0.5; stroke: #ff4500; stroke-opacity: 0.5; stroke-width: 1.5"/>
     <use xlink:href="#me0be15d85d" x="61.766234" y="126.081245" style="fill: #ff4500; fill-opacity: 0.5; stroke: #ff4500; stroke-opacity: 0.5; stroke-width: 1.5"/>
     <use xlink:href="#me0be15d85d" x="63.91342" y="142.004895" style="fill: #ff4500; fill-opacity: 0.5; stroke: #ff4500; stroke-opacity: 0.5; stroke-width: 1.5"/>
     <use xlink:href="#me0be15d85d" x="66.060606" y="127.531253" style="fill: #ff4500; fill-opacity: 0.5; stroke: #ff4500; stroke-opacity: 0.5; stroke-width: 1.5"/>
     <use xlink:href="#me0be15d85d" x="68.207792" y="152.701249" style="fill: #ff4500; fill-opacity: 0.5; stroke: #ff4500; stroke-opacity: 0.5; stroke-width: 1.5"/>
     <use xlink:href="#me0be15d85d" x="70.354978" y="112.776998" style="fill: #ff4500; fill-opacity: 0.5; stroke: #ff4500; stroke-opacity: 0.5; stroke-width: 1.5"/>
     <use xlink:href="#me0be15d85d" x="72.502165" y="72.455344" style="fill: #ff4500; fill-opacity: 0.5; stroke: #ff4500; stroke-opacity: 0.5; stroke-width: 1.5"/>
     <use xlink:href="#me0be15d85d" x="74.649351" y="119.735338" style="fill: #ff4500; fill-opacity: 0.5; stroke: #ff4500; stroke-opacity: 0.5; stroke-width: 1.5"/>
     <use xlink:href="#me0be15d85d" x="76.796537" y="142.84246" style="fill: #ff4500; fill-opacity: 0.5; stroke: #ff4500; stroke-opacity: 0.5; stroke-width: 1.5"/>
     <use xlink:href="#me0be15d85d" x="78.943723" y="127.18302" style="fill: #ff4500; fill-opacity: 0.5; stroke: #ff4500; stroke-opacity: 0.5; stroke-width: 1.5"/>
     <use xlink:href="#me0be15d85d" x="81.090909" y="131.203124" style="fill: #ff4500; fill-opacity: 0.5; stroke: #ff4500; stroke-opacity: 0.5; stroke-width: 1.5"/>
     <use xlink:href="#me0be15d85d" x="83.238095" y="93.132079" style="fill: #ff4500; fill-opacity: 0.5; stroke: #ff4500; stroke-opacity: 0.5; stroke-width: 1.5"/>
     <use xlink:href="#me0be15d85d" x="85.385281" y="102.956178" style="fill: #ff4500; fill-opacity: 0.5; stroke: #ff4500; stroke-opacity: 0.5; stroke-width: 1.5"/>
     <use xlink:href="#me0be15d85d" x="87.532468" y="97.889361" style="fill: #ff4500; fill-opacity: 0.5; stroke: #ff4500; stroke-opacity: 0.5; stroke-width: 1.5"/>
     <use xlink:href="#me0be15d85d" x="89.679654" y="142.006071" style="fill: #ff4500; fill-opacity: 0.5; stroke: #ff4500; stroke-opacity: 0.5; stroke-width: 1.5"/>
     <use xlink:href="#me0be15d85d" x="91.82684" y="120.1399" style="fill: #ff4500; fill-opacity: 0.5; stroke: #ff4500; stroke-opacity: 0.5; stroke-width: 1.5"/>
     <use xlink:href="#me0be15d85d" x="93.974026" y="129.950707" style="fill: #ff4500; fill-opacity: 0.5; stroke: #ff4500; stroke-opacity: 0.5; stroke-width: 1.5"/>
     <use xlink:href="#me0be15d85d" x="96.121212" y="124.072034" style="fill: #ff4500; fill-opacity: 0.5; stroke: #ff4500; stroke-opacity: 0.5; stroke-width: 1.5"/>
     <use xlink:href="#me0be15d85d" x="98.268398" y="131.015788" style="fill: #ff4500; fill-opacity: 0.5; stroke: #ff4500; stroke-opacity: 0.5; stroke-width: 1.5"/>
     <use xlink:href="#me0be15d85d" x="100.415584" y="111.135113" style="fill: #ff4500; fill-opacity: 0.5; stroke: #ff4500; stroke-opacity: 0.5; stroke-width: 1.5"/>
     <use xlink:href="#me0be15d85d" x="102.562771" y="115.939358" style="fill: #ff4500; fill-opacity: 0.5; stroke: #ff4500; stroke-opacity: 0.5; stroke-width: 1.5"/>
     <use xlink:href="#me0be15d85d" x="104.709957" y="82.524641" style="fill: #ff4500; fill-opacity: 0.5; stroke: #ff4500; stroke-opacity: 0.5; stroke-width: 1.5"/>
     <use xlink:href="#me0be15d85d" x="106.857143" y="87.522927" style="fill: #ff4500; fill-opacity: 0.5; stroke: #ff4500; stroke-opacity: 0.5; stroke-width: 1.5"/>
     <use xlink:href="#me0be15d85d" x="109.004329" y="129.209823" style="fill: #ff4500; fill-opacity: 0.5; stroke: #ff4500; stroke-opacity: 0.5; stroke-width: 1.5"/>
     <use xlink:href="#me0be15d85d" x="111.151515" y="140.048685" style="fill: #ff4500; fill-opacity: 0.5; stroke: #ff4500; stroke-opacity: 0.5; stroke-width: 1.5"/>
     <use xlink:href="#me0be15d85d" x="113.298701" y="136.835142" style="fill: #ff4500; fill-opacity: 0.5; stroke: #ff4500; stroke-opacity: 0.5; stroke-width: 1.5"/>
     <use xlink:href="#me0be15d85d" x="115.445887" y="77.07777" style="fill: #ff4500; fill-opacity: 0.5; stroke: #ff4500; stroke-opacity: 0.5; stroke-width: 1.5"/>
     <use xlink:href="#me0be15d85d" x="117.593074" y="156.993317" style="fill: #ff4500; fill-opacity: 0.5; stroke: #ff4500; stroke-opacity: 0.5; stroke-width: 1.5"/>
     <use xlink:href="#me0be15d85d" x="119.74026" y="132.365696" style="fill: #ff4500; fill-opacity: 0.5; stroke: #ff4500; stroke-opacity: 0.5; stroke-width: 1.5"/>
     <use xlink:href="#me0be15d85d" x="121.887446" y="100.007824" style="fill: #ff4500; fill-opacity: 0.5; stroke: #ff4500; stroke-opacity: 0.5; stroke-width: 1.5"/>
     <use xlink:href="#me0be15d85d" x="124.034632" y="157.999759" style="fill: #ff4500; fill-opacity: 0.5; stroke: #ff4500; stroke-opacity: 0.5; stroke-width: 1.5"/>
     <use xlink:href="#me0be15d85d" x="126.181818" y="92.343895" style="fill: #ff4500; fill-opacity: 0.5; stroke: #ff4500; stroke-opacity: 0.5; stroke-width: 1.5"/>
     <use xlink:href="#me0be15d85d" x="128.329004" y="144.009904" style="fill: #ff4500; fill-opacity: 0.5; stroke: #ff4500; stroke-opacity: 0.5; stroke-width: 1.5"/>
     <use xlink:href="#me0be15d85d" x="130.47619" y="74.639732" style="fill: #ff4500; fill-opacity: 0.5; stroke: #ff4500; stroke-opacity: 0.5; stroke-width: 1.5"/>
     <use xlink:href="#me0be15d85d" x="132.623377" y="115.95045" style="fill: #ff4500; fill-opacity: 0.5; stroke: #ff4500; stroke-opacity: 0.5; stroke-width: 1.5"/>
     <use xlink:href="#me0be15d85d" x="134.770563" y="70.998107" style="fill: #ff4500; fill-opacity: 0.5; stroke: #ff4500; stroke-opacity: 0.5; stroke-width: 1.5"/>
     <use xlink:href="#me0be15d85d" x="136.917749" y="118.058071" style="fill: #ff4500; fill-opacity: 0.5; stroke: #ff4500; stroke-opacity: 0.5; stroke-width: 1.5"/>
     <use xlink:href="#me0be15d85d" x="139.064935" y="102.211926" style="fill: #ff4500; fill-opacity: 0.5; stroke: #ff4500; stroke-opacity: 0.5; stroke-width: 1.5"/>
     <use xlink:href="#me0be15d85d" x="141.212121" y="118.247496" style="fill: #ff4500; fill-opacity: 0.5; stroke: #ff4500; stroke-opacity: 0.5; stroke-width: 1.5"/>
     <use xlink:href="#me0be15d85d" x="143.359307" y="114.676131" style="fill: #ff4500; fill-opacity: 0.5; stroke: #ff4500; stroke-opacity: 0.5; stroke-width: 1.5"/>
     <use xlink:href="#me0be15d85d" x="145.506494" y="71.618325" style="fill: #ff4500; fill-opacity: 0.5; stroke: #ff4500; stroke-opacity: 0.5; stroke-width: 1.5"/>
     <use xlink:href="#me0be15d85d" x="147.65368" y="92.68957" style="fill: #ff4500; fill-opacity: 0.5; stroke: #ff4500; stroke-opacity: 0.5; stroke-width: 1.5"/>
     <use xlink:href="#me0be15d85d" x="149.800866" y="138.701213" style="fill: #ff4500; fill-opacity: 0.5; stroke: #ff4500; stroke-opacity: 0.5; stroke-width: 1.5"/>
     <use xlink:href="#me0be15d85d" x="151.948052" y="89.047581" style="fill: #ff4500; fill-opacity: 0.5; stroke: #ff4500; stroke-opacity: 0.5; stroke-width: 1.5"/>
     <use xlink:href="#me0be15d85d" x="154.095238" y="86.585054" style="fill: #ff4500; fill-opacity: 0.5; stroke: #ff4500; stroke-opacity: 0.5; stroke-width: 1.5"/>
     <use xlink:href="#me0be15d85d" x="156.242424" y="92.557084" style="fill: #ff4500; fill-opacity: 0.5; stroke: #ff4500; stroke-opacity: 0.5; stroke-width: 1.5"/>
     <use xlink:href="#me0be15d85d" x="158.38961" y="118.496644" style="fill: #ff4500; fill-opacity: 0.5; stroke: #ff4500; stroke-opacity: 0.5; stroke-width: 1.5"/>
     <use xlink:href="#me0be15d85d" x="160.536797" y="105.414859" style="fill: #ff4500; fill-opacity: 0.5; stroke: #ff4500; stroke-opacity: 0.5; stroke-width: 1.5"/>
     <use xlink:href="#me0be15d85d" x="162.683983" y="91.912543" style="fill: #ff4500; fill-opacity: 0.5; stroke: #ff4500; stroke-opacity: 0.5; stroke-width: 1.5"/>
     <use xlink:href="#me0be15d85d" x="164.831169" y="132.158119" style="fill: #ff4500; fill-opacity: 0.5; stroke: #ff4500; stroke-opacity: 0.5; stroke-width: 1.5"/>
     <use xlink:href="#me0be15d85d" x="166.978355" y="68.468661" style="fill: #ff4500; fill-opacity: 0.5; stroke: #ff4500; stroke-opacity: 0.5; stroke-width: 1.5"/>
     <use xlink:href="#me0be15d85d" x="169.125541" y="85.647723" style="fill: #ff4500; fill-opacity: 0.5; stroke: #ff4500; stroke-opacity: 0.5; stroke-width: 1.5"/>
     <use xlink:href="#me0be15d85d" x="171.272727" y="96.447906" style="fill: #ff4500; fill-opacity: 0.5; stroke: #ff4500; stroke-opacity: 0.5; stroke-width: 1.5"/>
     <use xlink:href="#me0be15d85d" x="173.419913" y="98.171354" style="fill: #ff4500; fill-opacity: 0.5; stroke: #ff4500; stroke-opacity: 0.5; stroke-width: 1.5"/>
     <use xlink:href="#me0be15d85d" x="175.5671" y="132.283738" style="fill: #ff4500; fill-opacity: 0.5; stroke: #ff4500; stroke-opacity: 0.5; stroke-width: 1.5"/>
     <use xlink:href="#me0be15d85d" x="177.714286" y="97.345836" style="fill: #ff4500; fill-opacity: 0.5; stroke: #ff4500; stroke-opacity: 0.5; stroke-width: 1.5"/>
     <use xlink:href="#me0be15d85d" x="179.861472" y="76.815472" style="fill: #ff4500; fill-opacity: 0.5; stroke: #ff4500; stroke-opacity: 0.5; stroke-width: 1.5"/>
     <use xlink:href="#me0be15d85d" x="182.008658" y="142.849147" style="fill: #ff4500; fill-opacity: 0.5; stroke: #ff4500; stroke-opacity: 0.5; stroke-width: 1.5"/>
     <use xlink:href="#me0be15d85d" x="184.155844" y="122.950137" style="fill: #ff4500; fill-opacity: 0.5; stroke: #ff4500; stroke-opacity: 0.5; stroke-width: 1.5"/>
     <use xlink:href="#me0be15d85d" x="186.30303" y="106.231907" style="fill: #ff4500; fill-opacity: 0.5; stroke: #ff4500; stroke-opacity: 0.5; stroke-width: 1.5"/>
     <use xlink:href="#me0be15d85d" x="188.450216" y="96.295819" style="fill: #ff4500; fill-opacity: 0.5; stroke: #ff4500; stroke-opacity: 0.5; stroke-width: 1.5"/>
     <use xlink:href="#me0be15d85d" x="190.597403" y="103.870338" style="fill: #ff4500; fill-opacity: 0.5; stroke: #ff4500; stroke-opacity: 0.5; stroke-width: 1.5"/>
     <use xlink:href="#me0be15d85d" x="192.744589" y="89.365588" style="fill: #ff4500; fill-opacity: 0.5; stroke: #ff4500; stroke-opacity: 0.5; stroke-width: 1.5"/>
     <use xlink:href="#me0be15d85d" x="194.891775" y="137.680312" style="fill: #ff4500; fill-opacity: 0.5; stroke: #ff4500; stroke-opacity: 0.5; stroke-width: 1.5"/>
     <use xlink:href="#me0be15d85d" x="197.038961" y="100.832565" style="fill: #ff4500; fill-opacity: 0.5; stroke: #ff4500; stroke-opacity: 0.5; stroke-width: 1.5"/>
     <use xlink:href="#me0be15d85d" x="199.186147" y="148.284691" style="fill: #ff4500; fill-opacity: 0.5; stroke: #ff4500; stroke-opacity: 0.5; stroke-width: 1.5"/>
     <use xlink:href="#me0be15d85d" x="201.333333" y="82.591393" style="fill: #ff4500; fill-opacity: 0.5; stroke: #ff4500; stroke-opacity: 0.5; stroke-width: 1.5"/>
     <use xlink:href="#me0be15d85d" x="203.480519" y="76.151201" style="fill: #ff4500; fill-opacity: 0.5; stroke: #ff4500; stroke-opacity: 0.5; stroke-width: 1.5"/>
     <use xlink:href="#me0be15d85d" x="205.627706" y="113.149045" style="fill: #ff4500; fill-opacity: 0.5; stroke: #ff4500; stroke-opacity: 0.5; stroke-width: 1.5"/>
     <use xlink:href="#me0be15d85d" x="207.774892" y="136.476536" style="fill: #ff4500; fill-opacity: 0.5; stroke: #ff4500; stroke-opacity: 0.5; stroke-width: 1.5"/>
     <use xlink:href="#me0be15d85d" x="209.922078" y="165.940266" style="fill: #ff4500; fill-opacity: 0.5; stroke: #ff4500; stroke-opacity: 0.5; stroke-width: 1.5"/>
     <use xlink:href="#me0be15d85d" x="212.069264" y="115.519665" style="fill: #ff4500; fill-opacity: 0.5; stroke: #ff4500; stroke-opacity: 0.5; stroke-width: 1.5"/>
     <use xlink:href="#me0be15d85d" x="214.21645" y="99.925145" style="fill: #ff4500; fill-opacity: 0.5; stroke: #ff4500; stroke-opacity: 0.5; stroke-width: 1.5"/>
     <use xlink:href="#me0be15d85d" x="216.363636" y="123.647665" style="fill: #ff4500; fill-opacity: 0.5; stroke: #ff4500; stroke-opacity: 0.5; stroke-width: 1.5"/>
     <use xlink:href="#me0be15d85d" x="218.510823" y="118.301923" style="fill: #ff4500; fill-opacity: 0.5; stroke: #ff4500; stroke-opacity: 0.5; stroke-width: 1.5"/>
     <use xlink:href="#me0be15d85d" x="220.658009" y="114.75361" style="fill: #ff4500; fill-opacity: 0.5; stroke: #ff4500; stroke-opacity: 0.5; stroke-width: 1.5"/>
     <use xlink:href="#me0be15d85d" x="222.805195" y="80.050354" style="fill: #ff4500; fill-opacity: 0.5; stroke: #ff4500; stroke-opacity: 0.5; stroke-width: 1.5"/>
     <use xlink:href="#me0be15d85d" x="224.952381" y="130.622966" style="fill: #ff4500; fill-opacity: 0.5; stroke: #ff4500; stroke-opacity: 0.5; stroke-width: 1.5"/>
     <use xlink:href="#me0be15d85d" x="227.099567" y="142.146244" style="fill: #ff4500; fill-opacity: 0.5; stroke: #ff4500; stroke-opacity: 0.5; stroke-width: 1.5"/>
     <use xlink:href="#me0be15d85d" x="229.246753" y="103.955225" style="fill: #ff4500; fill-opacity: 0.5; stroke: #ff4500; stroke-opacity: 0.5; stroke-width: 1.5"/>
     <use xlink:href="#me0be15d85d" x="231.393939" y="136.428858" style="fill: #ff4500; fill-opacity: 0.5; stroke: #ff4500; stroke-opacity: 0.5; stroke-width: 1.5"/>
     <use xlink:href="#me0be15d85d" x="233.541126" y="142.760786" style="fill: #ff4500; fill-opacity: 0.5; stroke: #ff4500; stroke-opacity: 0.5; stroke-width: 1.5"/>
     <use xlink:href="#me0be15d85d" x="235.688312" y="96.919701" style="fill: #ff4500; fill-opacity: 0.5; stroke: #ff4500; stroke-opacity: 0.5; stroke-width: 1.5"/>
     <use xlink:href="#me0be15d85d" x="237.835498" y="142.814544" style="fill: #ff4500; fill-opacity: 0.5; stroke: #ff4500; stroke-opacity: 0.5; stroke-width: 1.5"/>
     <use xlink:href="#me0be15d85d" x="239.982684" y="96.461971" style="fill: #ff4500; fill-opacity: 0.5; stroke: #ff4500; stroke-opacity: 0.5; stroke-width: 1.5"/>
     <use xlink:href="#me0be15d85d" x="242.12987" y="91.763325" style="fill: #ff4500; fill-opacity: 0.5; stroke: #ff4500; stroke-opacity: 0.5; stroke-width: 1.5"/>
     <use xlink:href="#me0be15d85d" x="244.277056" y="114.303804" style="fill: #ff4500; fill-opacity: 0.5; stroke: #ff4500; stroke-opacity: 0.5; stroke-width: 1.5"/>
     <use xlink:href="#me0be15d85d" x="246.424242" y="115.928967" style="fill: #ff4500; fill-opacity: 0.5; stroke: #ff4500; stroke-opacity: 0.5; stroke-width: 1.5"/>
     <use xlink:href="#me0be15d85d" x="248.571429" y="87.134463" style="fill: #ff4500; fill-opacity: 0.5; stroke: #ff4500; stroke-opacity: 0.5; stroke-width: 1.5"/>
    </g>
   </g>
   <g id="patch_3">
    <path d="M 36 178.617495 
L 50.185058 178.617495 
L 50.185058 174.435594 
L 36 174.435594 
z
" clip-path="url(#p728b0858ac)" style="fill: #008000; opacity: 0.5"/>
   </g>
   <g id="patch_4">
    <path d="M 36 174.435594 
L 50.185058 174.435594 
L 50.185058 170.253692 
L 36 170.253692 
z
" clip-path="url(#p728b0858ac)" style="fill: #008000; opacity: 0.5"/>
   </g>
   <g id="patch_5">
    <path d="M 36 170.253692 
L 78.555174 170.253692 
L 78.555174 166.07179 
L 36 166.07179 
z
" clip-path="url(#p728b0858ac)" style="fill: #008000; opacity: 0.5"/>
   </g>
   <g id="patch_6">
    <path d="M 36 166.07179 
L 78.555174 166.07179 
L 78.555174 161.889889 
L 36 161.889889 
z
" clip-path="url(#p728b0858ac)" style="fill: #008000; opacity: 0.5"/>
   </g>
   <g id="patch_7">
    <path d="M 36 161.889889 
L 36 161.889889 
L 36 157.707987 
L 36 157.707987 
z
" clip-path="url(#p728b0858ac)" style="fill: #008000; opacity: 0.5"/>
   </g>
   <g id="patch_8">
    <path d="M 36 157.707987 
L 106.925289 157.707987 
L 106.925289 153.526085 
L 36 153.526085 
z
" clip-path="url(#p728b0858ac)" style="fill: #008000; opacity: 0.5"/>
   </g>
   <g id="patch_9">
    <path d="M 36 153.526085 
L 92.740232 153.526085 
L 92.740232 149.344184 
L 36 149.344184 
z
" clip-path="url(#p728b0858ac)" style="fill: #008000; opacity: 0.5"/>
   </g>
   <g id="patch_10">
    <path d="M 36 149.344184 
L 135.295405 149.344184 
L 135.295405 145.162282 
L 36 145.162282 
z
" clip-path="url(#p728b0858ac)" style="fill: #008000; opacity: 0.5"/>
   </g>
   <g id="patch_11">
    <path d="M 36 145.162282 
L 36 145.162282 
L 36 140.980381 
L 36 140.980381 
z
" clip-path="url(#p728b0858ac)" style="fill: #008000; opacity: 0.5"/>
   </g>
   <g id="patch_12">
    <path d="M 36 140.980381 
L 50.185058 140.980381 
L 50.185058 136.798479 
L 36 136.798479 
z
" clip-path="url(#p728b0858ac)" style="fill: #008000; opacity: 0.5"/>
   </g>
   <g id="patch_13">
    <path d="M 36 136.798479 
L 121.110347 136.798479 
L 121.110347 132.616577 
L 36 132.616577 
z
" clip-path="url(#p728b0858ac)" style="fill: #008000; opacity: 0.5"/>
   </g>
   <g id="patch_14">
    <path d="M 36 132.616577 
L 135.295405 132.616577 
L 135.295405 128.434676 
L 36 128.434676 
z
" clip-path="url(#p728b0858ac)" style="fill: #008000; opacity: 0.5"/>
   </g>
   <g id="patch_15">
    <path d="M 36 128.434676 
L 135.295405 128.434676 
L 135.295405 124.252774 
L 36 124.252774 
z
" clip-path="url(#p728b0858ac)" style="fill: #008000; opacity: 0.5"/>
   </g>
   <g id="patch_16">
    <path d="M 36 124.252774 
L 135.295405 124.252774 
L 135.295405 120.070872 
L 36 120.070872 
z
" clip-path="url(#p728b0858ac)" style="fill: #008000; opacity: 0.5"/>
   </g>
   <g id="patch_17">
    <path d="M 36 120.070872 
L 135.295405 120.070872 
L 135.295405 115.888971 
L 36 115.888971 
z
" clip-path="url(#p728b0858ac)" style="fill: #008000; opacity: 0.5"/>
   </g>
   <g id="patch_18">
    <path d="M 36 115.888971 
L 64.370116 115.888971 
L 64.370116 111.707069 
L 36 111.707069 
z
" clip-path="url(#p728b0858ac)" style="fill: #008000; opacity: 0.5"/>
   </g>
   <g id="patch_19">
    <path d="M 36 111.707069 
L 121.110347 111.707069 
L 121.110347 107.525167 
L 36 107.525167 
z
" clip-path="url(#p728b0858ac)" style="fill: #008000; opacity: 0.5"/>
   </g>
   <g id="patch_20">
    <path d="M 36 107.525167 
L 149.480463 107.525167 
L 149.480463 103.343266 
L 36 103.343266 
z
" clip-path="url(#p728b0858ac)" style="fill: #008000; opacity: 0.5"/>
   </g>
   <g id="patch_21">
    <path d="M 36 103.343266 
L 92.740232 103.343266 
L 92.740232 99.161364 
L 36 99.161364 
z
" clip-path="url(#p728b0858ac)" style="fill: #008000; opacity: 0.5"/>
   </g>
   <g id="patch_22">
    <path d="M 36 99.161364 
L 50.185058 99.161364 
L 50.185058 94.979463 
L 36 94.979463 
z
" clip-path="url(#p728b0858ac)" style="fill: #008000; opacity: 0.5"/>
   </g>
   <g id="patch_23">
    <path d="M 36 94.979463 
L 106.925289 94.979463 
L 106.925289 90.797561 
L 36 90.797561 
z
" clip-path="url(#p728b0858ac)" style="fill: #008000; opacity: 0.5"/>
   </g>
   <g id="patch_24">
    <path d="M 36 90.797561 
L 50.185058 90.797561 
L 50.185058 86.615659 
L 36 86.615659 
z
" clip-path="url(#p728b0858ac)" style="fill: #008000; opacity: 0.5"/>
   </g>
   <g id="patch_25">
    <path d="M 36 86.615659 
L 64.370116 86.615659 
L 64.370116 82.433758 
L 36 82.433758 
z
" clip-path="url(#p728b0858ac)" style="fill: #008000; opacity: 0.5"/>
   </g>
   <g id="patch_26">
    <path d="M 36 82.433758 
L 78.555174 82.433758 
L 78.555174 78.251856 
L 36 78.251856 
z
" clip-path="url(#p728b0858ac)" style="fill: #008000; opacity: 0.5"/>
   </g>
   <g id="patch_27">
    <path d="M 36 78.251856 
L 78.555174 78.251856 
L 78.555174 74.069954 
L 36 74.069954 
z
" clip-path="url(#p728b0858ac)" style="fill: #008000; opacity: 0.5"/>
   </g>
   <g id="patch_28">
    <path d="M 36 74.069954 
L 50.185058 74.069954 
L 50.185058 69.888053 
L 36 69.888053 
z
" clip-path="url(#p728b0858ac)" style="fill: #008000; opacity: 0.5"/>
   </g>
   <g id="patch_29">
    <path d="M 36 69.888053 
L 50.185058 69.888053 
L 50.185058 65.706151 
L 36 65.706151 
z
" clip-path="url(#p728b0858ac)" style="fill: #008000; opacity: 0.5"/>
   </g>
   <g id="patch_30">
    <path d="M 36 65.706151 
L 50.185058 65.706151 
L 50.185058 61.52425 
L 36 61.52425 
z
" clip-path="url(#p728b0858ac)" style="fill: #008000; opacity: 0.5"/>
   </g>
   <g id="patch_31">
    <path d="M 36 61.52425 
L 50.185058 61.52425 
L 50.185058 57.342348 
L 36 57.342348 
z
" clip-path="url(#p728b0858ac)" style="fill: #008000; opacity: 0.5"/>
   </g>
   <g id="patch_32">
    <path d="M 36 57.342348 
L 64.370116 57.342348 
L 64.370116 53.160446 
L 36 53.160446 
z
" clip-path="url(#p728b0858ac)" style="fill: #008000; opacity: 0.5"/>
   </g>
   <g id="matplotlib.axis_1">
    <g id="xtick_1">
     <g id="line2d_1">
      <path d="M 36 192.24 
L 36 25.92 
" clip-path="url(#p728b0858ac)" style="fill: none; stroke: #b0b0b0; stroke-width: 0.8; stroke-linecap: square"/>
     </g>
     <g id="line2d_2">
      <defs>
       <path id="m044edf96dd" d="M 0 0 
L 0 3.5 
" style="stroke: #000000; stroke-width: 0.8"/>
      </defs>
      <g>
       <use xlink:href="#m044edf96dd" x="36" y="192.24" style="stroke: #000000; stroke-width: 0.8"/>
      </g>
     </g>
     <g id="text_1">
      <!-- 0.0 -->
      <g transform="translate(28.048437 206.838437)scale(0.1 -0.1)">
       <defs>
        <path id="DejaVuSans-30" d="M 2034 4250 
Q 1547 4250 1301 3770 
Q 1056 3291 1056 2328 
Q 1056 1369 1301 889 
Q 1547 409 2034 409 
Q 2525 409 2770 889 
Q 3016 1369 3016 2328 
Q 3016 3291 2770 3770 
Q 2525 4250 2034 4250 
z
M 2034 4750 
Q 2819 4750 3233 4129 
Q 3647 3509 3647 2328 
Q 3647 1150 3233 529 
Q 2819 -91 2034 -91 
Q 1250 -91 836 529 
Q 422 1150 422 2328 
Q 422 3509 836 4129 
Q 1250 4750 2034 4750 
z
" transform="scale(0.015625)"/>
        <path id="DejaVuSans-2e" d="M 684 794 
L 1344 794 
L 1344 0 
L 684 0 
L 684 794 
z
" transform="scale(0.015625)"/>
       </defs>
       <use xlink:href="#DejaVuSans-30"/>
       <use xlink:href="#DejaVuSans-2e" x="63.623047"/>
       <use xlink:href="#DejaVuSans-30" x="95.410156"/>
      </g>
     </g>
    </g>
    <g id="xtick_2">
     <g id="line2d_3">
      <path d="M 78.514286 192.24 
L 78.514286 25.92 
" clip-path="url(#p728b0858ac)" style="fill: none; stroke: #b0b0b0; stroke-width: 0.8; stroke-linecap: square"/>
     </g>
     <g id="line2d_4">
      <g>
       <use xlink:href="#m044edf96dd" x="78.514286" y="192.24" style="stroke: #000000; stroke-width: 0.8"/>
      </g>
     </g>
     <g id="text_2">
      <!-- 0.2 -->
      <g transform="translate(70.562723 206.838437)scale(0.1 -0.1)">
       <defs>
        <path id="DejaVuSans-32" d="M 1228 531 
L 3431 531 
L 3431 0 
L 469 0 
L 469 531 
Q 828 903 1448 1529 
Q 2069 2156 2228 2338 
Q 2531 2678 2651 2914 
Q 2772 3150 2772 3378 
Q 2772 3750 2511 3984 
Q 2250 4219 1831 4219 
Q 1534 4219 1204 4116 
Q 875 4013 500 3803 
L 500 4441 
Q 881 4594 1212 4672 
Q 1544 4750 1819 4750 
Q 2544 4750 2975 4387 
Q 3406 4025 3406 3419 
Q 3406 3131 3298 2873 
Q 3191 2616 2906 2266 
Q 2828 2175 2409 1742 
Q 1991 1309 1228 531 
z
" transform="scale(0.015625)"/>
       </defs>
       <use xlink:href="#DejaVuSans-30"/>
       <use xlink:href="#DejaVuSans-2e" x="63.623047"/>
       <use xlink:href="#DejaVuSans-32" x="95.410156"/>
      </g>
     </g>
    </g>
    <g id="xtick_3">
     <g id="line2d_5">
      <path d="M 121.028571 192.24 
L 121.028571 25.92 
" clip-path="url(#p728b0858ac)" style="fill: none; stroke: #b0b0b0; stroke-width: 0.8; stroke-linecap: square"/>
     </g>
     <g id="line2d_6">
      <g>
       <use xlink:href="#m044edf96dd" x="121.028571" y="192.24" style="stroke: #000000; stroke-width: 0.8"/>
      </g>
     </g>
     <g id="text_3">
      <!-- 0.4 -->
      <g transform="translate(113.077009 206.838437)scale(0.1 -0.1)">
       <defs>
        <path id="DejaVuSans-34" d="M 2419 4116 
L 825 1625 
L 2419 1625 
L 2419 4116 
z
M 2253 4666 
L 3047 4666 
L 3047 1625 
L 3713 1625 
L 3713 1100 
L 3047 1100 
L 3047 0 
L 2419 0 
L 2419 1100 
L 313 1100 
L 313 1709 
L 2253 4666 
z
" transform="scale(0.015625)"/>
       </defs>
       <use xlink:href="#DejaVuSans-30"/>
       <use xlink:href="#DejaVuSans-2e" x="63.623047"/>
       <use xlink:href="#DejaVuSans-34" x="95.410156"/>
      </g>
     </g>
    </g>
    <g id="xtick_4">
     <g id="line2d_7">
      <path d="M 163.542857 192.24 
L 163.542857 25.92 
" clip-path="url(#p728b0858ac)" style="fill: none; stroke: #b0b0b0; stroke-width: 0.8; stroke-linecap: square"/>
     </g>
     <g id="line2d_8">
      <g>
       <use xlink:href="#m044edf96dd" x="163.542857" y="192.24" style="stroke: #000000; stroke-width: 0.8"/>
      </g>
     </g>
     <g id="text_4">
      <!-- 0.6 -->
      <g transform="translate(155.591295 206.838437)scale(0.1 -0.1)">
       <defs>
        <path id="DejaVuSans-36" d="M 2113 2584 
Q 1688 2584 1439 2293 
Q 1191 2003 1191 1497 
Q 1191 994 1439 701 
Q 1688 409 2113 409 
Q 2538 409 2786 701 
Q 3034 994 3034 1497 
Q 3034 2003 2786 2293 
Q 2538 2584 2113 2584 
z
M 3366 4563 
L 3366 3988 
Q 3128 4100 2886 4159 
Q 2644 4219 2406 4219 
Q 1781 4219 1451 3797 
Q 1122 3375 1075 2522 
Q 1259 2794 1537 2939 
Q 1816 3084 2150 3084 
Q 2853 3084 3261 2657 
Q 3669 2231 3669 1497 
Q 3669 778 3244 343 
Q 2819 -91 2113 -91 
Q 1303 -91 875 529 
Q 447 1150 447 2328 
Q 447 3434 972 4092 
Q 1497 4750 2381 4750 
Q 2619 4750 2861 4703 
Q 3103 4656 3366 4563 
z
" transform="scale(0.015625)"/>
       </defs>
       <use xlink:href="#DejaVuSans-30"/>
       <use xlink:href="#DejaVuSans-2e" x="63.623047"/>
       <use xlink:href="#DejaVuSans-36" x="95.410156"/>
      </g>
     </g>
    </g>
    <g id="xtick_5">
     <g id="line2d_9">
      <path d="M 206.057143 192.24 
L 206.057143 25.92 
" clip-path="url(#p728b0858ac)" style="fill: none; stroke: #b0b0b0; stroke-width: 0.8; stroke-linecap: square"/>
     </g>
     <g id="line2d_10">
      <g>
       <use xlink:href="#m044edf96dd" x="206.057143" y="192.24" style="stroke: #000000; stroke-width: 0.8"/>
      </g>
     </g>
     <g id="text_5">
      <!-- 0.8 -->
      <g transform="translate(198.10558 206.838437)scale(0.1 -0.1)">
       <defs>
        <path id="DejaVuSans-38" d="M 2034 2216 
Q 1584 2216 1326 1975 
Q 1069 1734 1069 1313 
Q 1069 891 1326 650 
Q 1584 409 2034 409 
Q 2484 409 2743 651 
Q 3003 894 3003 1313 
Q 3003 1734 2745 1975 
Q 2488 2216 2034 2216 
z
M 1403 2484 
Q 997 2584 770 2862 
Q 544 3141 544 3541 
Q 544 4100 942 4425 
Q 1341 4750 2034 4750 
Q 2731 4750 3128 4425 
Q 3525 4100 3525 3541 
Q 3525 3141 3298 2862 
Q 3072 2584 2669 2484 
Q 3125 2378 3379 2068 
Q 3634 1759 3634 1313 
Q 3634 634 3220 271 
Q 2806 -91 2034 -91 
Q 1263 -91 848 271 
Q 434 634 434 1313 
Q 434 1759 690 2068 
Q 947 2378 1403 2484 
z
M 1172 3481 
Q 1172 3119 1398 2916 
Q 1625 2713 2034 2713 
Q 2441 2713 2670 2916 
Q 2900 3119 2900 3481 
Q 2900 3844 2670 4047 
Q 2441 4250 2034 4250 
Q 1625 4250 1398 4047 
Q 1172 3844 1172 3481 
z
" transform="scale(0.015625)"/>
       </defs>
       <use xlink:href="#DejaVuSans-30"/>
       <use xlink:href="#DejaVuSans-2e" x="63.623047"/>
       <use xlink:href="#DejaVuSans-38" x="95.410156"/>
      </g>
     </g>
    </g>
    <g id="xtick_6">
     <g id="line2d_11">
      <path d="M 248.571429 192.24 
L 248.571429 25.92 
" clip-path="url(#p728b0858ac)" style="fill: none; stroke: #b0b0b0; stroke-width: 0.8; stroke-linecap: square"/>
     </g>
     <g id="line2d_12">
      <g>
       <use xlink:href="#m044edf96dd" x="248.571429" y="192.24" style="stroke: #000000; stroke-width: 0.8"/>
      </g>
     </g>
     <g id="text_6">
      <!-- 1.0 -->
      <g transform="translate(240.619866 206.838437)scale(0.1 -0.1)">
       <defs>
        <path id="DejaVuSans-31" d="M 794 531 
L 1825 531 
L 1825 4091 
L 703 3866 
L 703 4441 
L 1819 4666 
L 2450 4666 
L 2450 531 
L 3481 531 
L 3481 0 
L 794 0 
L 794 531 
z
" transform="scale(0.015625)"/>
       </defs>
       <use xlink:href="#DejaVuSans-31"/>
       <use xlink:href="#DejaVuSans-2e" x="63.623047"/>
       <use xlink:href="#DejaVuSans-30" x="95.410156"/>
      </g>
     </g>
    </g>
   </g>
   <g id="matplotlib.axis_2">
    <g id="ytick_1">
     <g id="line2d_13">
      <path d="M 36 171.708674 
L 259.2 171.708674 
" clip-path="url(#p728b0858ac)" style="fill: none; stroke: #b0b0b0; stroke-width: 0.8; stroke-linecap: square"/>
     </g>
     <g id="line2d_14">
      <defs>
       <path id="m00fbd18880" d="M 0 0 
L -3.5 0 
" style="stroke: #000000; stroke-width: 0.8"/>
      </defs>
      <g>
       <use xlink:href="#m00fbd18880" x="36" y="171.708674" style="stroke: #000000; stroke-width: 0.8"/>
      </g>
     </g>
     <g id="text_7">
      <!-- −2 -->
      <g transform="translate(14.257812 175.507893)scale(0.1 -0.1)">
       <defs>
        <path id="DejaVuSans-2212" d="M 678 2272 
L 4684 2272 
L 4684 1741 
L 678 1741 
L 678 2272 
z
" transform="scale(0.015625)"/>
       </defs>
       <use xlink:href="#DejaVuSans-2212"/>
       <use xlink:href="#DejaVuSans-32" x="83.789062"/>
      </g>
     </g>
    </g>
    <g id="ytick_2">
     <g id="line2d_15">
      <path d="M 36 143.802517 
L 259.2 143.802517 
" clip-path="url(#p728b0858ac)" style="fill: none; stroke: #b0b0b0; stroke-width: 0.8; stroke-linecap: square"/>
     </g>
     <g id="line2d_16">
      <g>
       <use xlink:href="#m00fbd18880" x="36" y="143.802517" style="stroke: #000000; stroke-width: 0.8"/>
      </g>
     </g>
     <g id="text_8">
      <!-- −1 -->
      <g transform="translate(14.257812 147.601736)scale(0.1 -0.1)">
       <use xlink:href="#DejaVuSans-2212"/>
       <use xlink:href="#DejaVuSans-31" x="83.789062"/>
      </g>
     </g>
    </g>
    <g id="ytick_3">
     <g id="line2d_17">
      <path d="M 36 115.89636 
L 259.2 115.89636 
" clip-path="url(#p728b0858ac)" style="fill: none; stroke: #b0b0b0; stroke-width: 0.8; stroke-linecap: square"/>
     </g>
     <g id="line2d_18">
      <g>
       <use xlink:href="#m00fbd18880" x="36" y="115.89636" style="stroke: #000000; stroke-width: 0.8"/>
      </g>
     </g>
     <g id="text_9">
      <!-- 0 -->
      <g transform="translate(22.6375 119.695579)scale(0.1 -0.1)">
       <use xlink:href="#DejaVuSans-30"/>
      </g>
     </g>
    </g>
    <g id="ytick_4">
     <g id="line2d_19">
      <path d="M 36 87.990203 
L 259.2 87.990203 
" clip-path="url(#p728b0858ac)" style="fill: none; stroke: #b0b0b0; stroke-width: 0.8; stroke-linecap: square"/>
     </g>
     <g id="line2d_20">
      <g>
       <use xlink:href="#m00fbd18880" x="36" y="87.990203" style="stroke: #000000; stroke-width: 0.8"/>
      </g>
     </g>
     <g id="text_10">
      <!-- 1 -->
      <g transform="translate(22.6375 91.789422)scale(0.1 -0.1)">
       <use xlink:href="#DejaVuSans-31"/>
      </g>
     </g>
    </g>
    <g id="ytick_5">
     <g id="line2d_21">
      <path d="M 36 60.084046 
L 259.2 60.084046 
" clip-path="url(#p728b0858ac)" style="fill: none; stroke: #b0b0b0; stroke-width: 0.8; stroke-linecap: square"/>
     </g>
     <g id="line2d_22">
      <g>
       <use xlink:href="#m00fbd18880" x="36" y="60.084046" style="stroke: #000000; stroke-width: 0.8"/>
      </g>
     </g>
     <g id="text_11">
      <!-- 2 -->
      <g transform="translate(22.6375 63.883265)scale(0.1 -0.1)">
       <use xlink:href="#DejaVuSans-32"/>
      </g>
     </g>
    </g>
    <g id="ytick_6">
     <g id="line2d_23">
      <path d="M 36 32.177889 
L 259.2 32.177889 
" clip-path="url(#p728b0858ac)" style="fill: none; stroke: #b0b0b0; stroke-width: 0.8; stroke-linecap: square"/>
     </g>
     <g id="line2d_24">
      <g>
       <use xlink:href="#m00fbd18880" x="36" y="32.177889" style="stroke: #000000; stroke-width: 0.8"/>
      </g>
     </g>
     <g id="text_12">
      <!-- 3 -->
      <g transform="translate(22.6375 35.977108)scale(0.1 -0.1)">
       <defs>
        <path id="DejaVuSans-33" d="M 2597 2516 
Q 3050 2419 3304 2112 
Q 3559 1806 3559 1356 
Q 3559 666 3084 287 
Q 2609 -91 1734 -91 
Q 1441 -91 1130 -33 
Q 819 25 488 141 
L 488 750 
Q 750 597 1062 519 
Q 1375 441 1716 441 
Q 2309 441 2620 675 
Q 2931 909 2931 1356 
Q 2931 1769 2642 2001 
Q 2353 2234 1838 2234 
L 1294 2234 
L 1294 2753 
L 1863 2753 
Q 2328 2753 2575 2939 
Q 2822 3125 2822 3475 
Q 2822 3834 2567 4026 
Q 2313 4219 1838 4219 
Q 1578 4219 1281 4162 
Q 984 4106 628 3988 
L 628 4550 
Q 988 4650 1302 4700 
Q 1616 4750 1894 4750 
Q 2613 4750 3031 4423 
Q 3450 4097 3450 3541 
Q 3450 3153 3228 2886 
Q 3006 2619 2597 2516 
z
" transform="scale(0.015625)"/>
       </defs>
       <use xlink:href="#DejaVuSans-33"/>
      </g>
     </g>
    </g>
   </g>
   <g id="line2d_25">
    <path d="M 36 99.539645 
L 38.147186 109.270957 
L 40.294372 36.246087 
L 42.441558 97.14938 
L 44.588745 41.3496 
L 46.735931 123.4333 
L 48.883117 149.919736 
L 51.030303 154.102685 
L 53.177489 108.013851 
L 55.324675 128.851999 
L 57.471861 96.581022 
L 59.619048 139.630224 
L 61.766234 95.173843 
L 63.91342 148.913736 
L 66.060606 97.675689 
L 68.207792 99.682023 
L 70.354978 64.016731 
L 72.502165 124.222126 
L 74.649351 139.061557 
L 76.796537 132.685517 
L 78.943723 136.157484 
L 81.090909 105.684942 
L 83.238095 87.294777 
L 85.385281 112.37313 
L 87.532468 72.569383 
L 89.679654 117.445009 
L 91.82684 127.376874 
L 93.974026 65.76378 
L 96.121212 104.402782 
L 98.268398 133.730024 
L 100.415584 92.804079 
L 102.562771 86.901554 
L 104.709957 109.168811 
L 106.857143 73.534061 
L 109.004329 153.593929 
L 111.151515 151.352483 
L 113.298701 91.470734 
L 115.445887 127.040062 
L 117.593074 127.321871 
L 119.74026 66.653662 
L 121.887446 115.865413 
L 124.034632 106.054492 
L 126.181818 143.892132 
L 128.329004 56.246994 
L 130.47619 94.690414 
L 132.623377 80.514428 
L 134.770563 132.556883 
L 136.917749 127.910744 
L 139.064935 163.341658 
L 141.212121 80.567368 
L 143.359307 109.828312 
L 145.506494 123.325883 
L 147.65368 33.48 
L 149.800866 179.012965 
L 151.948052 124.311976 
L 154.095238 90.754686 
L 156.242424 114.808643 
L 158.38961 154.212213 
L 160.536797 131.551347 
L 162.683983 67.841282 
L 164.831169 124.058416 
L 166.978355 81.268068 
L 169.125541 86.022708 
L 171.272727 113.49154 
L 173.419913 79.738458 
L 175.5671 134.043105 
L 177.714286 135.71729 
L 179.861472 142.913474 
L 182.008658 112.694668 
L 184.155844 118.33175 
L 186.30303 66.705071 
L 188.450216 182.846504 
L 190.597403 129.338718 
L 192.744589 154.164939 
L 194.891775 184.68 
L 197.038961 137.397892 
L 199.186147 92.861117 
L 201.333333 140.438944 
L 203.480519 88.378821 
L 205.627706 80.595448 
L 207.774892 151.336679 
L 209.922078 112.643348 
L 212.069264 86.850886 
L 214.21645 111.815948 
L 216.363636 100.980232 
L 218.510823 100.585968 
L 220.658009 100.47056 
L 222.805195 107.500217 
L 224.952381 138.375708 
L 227.099567 102.167125 
L 229.246753 132.014274 
L 231.393939 151.251029 
L 233.541126 99.643961 
L 235.688312 161.846057 
L 237.835498 97.450069 
L 239.982684 136.970005 
L 242.12987 95.077792 
L 244.277056 148.670659 
L 246.424242 139.16341 
L 248.571429 75.048399 
" clip-path="url(#p728b0858ac)" style="fill: none; stroke: #4682b4; stroke-opacity: 0.5; stroke-width: 4; stroke-linecap: square"/>
   </g>
   <g id="patch_33">
    <path d="M 36 192.24 
L 36 25.92 
" style="fill: none; stroke: #000000; stroke-width: 0.8; stroke-linejoin: miter; stroke-linecap: square"/>
   </g>
   <g id="patch_34">
    <path d="M 259.2 192.24 
L 259.2 25.92 
" style="fill: none; stroke: #000000; stroke-width: 0.8; stroke-linejoin: miter; stroke-linecap: square"/>
   </g>
   <g id="patch_35">
    <path d="M 36 192.24 
L 259.2 192.24 
" style="fill: none; stroke: #000000; stroke-width: 0.8; stroke-linejoin: miter; stroke-linecap: square"/>
   </g>
   <g id="patch_36">
    <path d="M 36 25.92 
L 259.2 25.92 
" style="fill: none; stroke: #000000; stroke-width: 0.8; stroke-linejoin: miter; stroke-linecap: square"/>
   </g>
   <g id="text_13">
    <!-- My title -->
    <g transform="translate(125.235 19.92)scale(0.12 -0.12)">
     <defs>
      <path id="DejaVuSans-4d" d="M 628 4666 
L 1569 4666 
L 2759 1491 
L 3956 4666 
L 4897 4666 
L 4897 0 
L 4281 0 
L 4281 4097 
L 3078 897 
L 2444 897 
L 1241 4097 
L 1241 0 
L 628 0 
L 628 4666 
z
" transform="scale(0.015625)"/>
      <path id="DejaVuSans-79" d="M 2059 -325 
Q 1816 -950 1584 -1140 
Q 1353 -1331 966 -1331 
L 506 -1331 
L 506 -850 
L 844 -850 
Q 1081 -850 1212 -737 
Q 1344 -625 1503 -206 
L 1606 56 
L 191 3500 
L 800 3500 
L 1894 763 
L 2988 3500 
L 3597 3500 
L 2059 -325 
z
" transform="scale(0.015625)"/>
      <path id="DejaVuSans-20" transform="scale(0.015625)"/>
      <path id="DejaVuSans-74" d="M 1172 4494 
L 1172 3500 
L 2356 3500 
L 2356 3053 
L 1172 3053 
L 1172 1153 
Q 1172 725 1289 603 
Q 1406 481 1766 481 
L 2356 481 
L 2356 0 
L 1766 0 
Q 1100 0 847 248 
Q 594 497 594 1153 
L 594 3053 
L 172 3053 
L 172 3500 
L 594 3500 
L 594 4494 
L 1172 4494 
z
" transform="scale(0.015625)"/>
      <path id="DejaVuSans-69" d="M 603 3500 
L 1178 3500 
L 1178 0 
L 603 0 
L 603 3500 
z
M 603 4863 
L 1178 4863 
L 1178 4134 
L 603 4134 
L 603 4863 
z
" transform="scale(0.015625)"/>
      <path id="DejaVuSans-6c" d="M 603 4863 
L 1178 4863 
L 1178 0 
L 603 0 
L 603 4863 
z
" transform="scale(0.015625)"/>
      <path id="DejaVuSans-65" d="M 3597 1894 
L 3597 1613 
L 953 1613 
Q 991 1019 1311 708 
Q 1631 397 2203 397 
Q 2534 397 2845 478 
Q 3156 559 3463 722 
L 3463 178 
Q 3153 47 2828 -22 
Q 2503 -91 2169 -91 
Q 1331 -91 842 396 
Q 353 884 353 1716 
Q 353 2575 817 3079 
Q 1281 3584 2069 3584 
Q 2775 3584 3186 3129 
Q 3597 2675 3597 1894 
z
M 3022 2063 
Q 3016 2534 2758 2815 
Q 2500 3097 2075 3097 
Q 1594 3097 1305 2825 
Q 1016 2553 972 2059 
L 3022 2063 
z
" transform="scale(0.015625)"/>
     </defs>
     <use xlink:href="#DejaVuSans-4d"/>
     <use xlink:href="#DejaVuSans-79" x="86.279297"/>
     <use xlink:href="#DejaVuSans-20" x="145.458984"/>
     <use xlink:href="#DejaVuSans-74" x="177.246094"/>
     <use xlink:href="#DejaVuSans-69" x="216.455078"/>
     <use xlink:href="#DejaVuSans-74" x="244.238281"/>
     <use xlink:href="#DejaVuSans-6c" x="283.447266"/>
     <use xlink:href="#DejaVuSans-65" x="311.230469"/>
    </g>
   </g>
   <g id="legend_1">
    <g id="patch_37">
     <path d="M 207.91875 63.27625 
L 252.2 63.27625 
Q 254.2 63.27625 254.2 61.27625 
L 254.2 32.92 
Q 254.2 30.92 252.2 30.92 
L 207.91875 30.92 
Q 205.91875 30.92 205.91875 32.92 
L 205.91875 61.27625 
Q 205.91875 63.27625 207.91875 63.27625 
z
" style="fill: #ffffff; opacity: 0.8; stroke: #cccccc; stroke-linejoin: miter"/>
    </g>
    <g id="line2d_26">
     <path d="M 209.91875 39.018437 
L 219.91875 39.018437 
L 229.91875 39.018437 
" style="fill: none; stroke: #4682b4; stroke-opacity: 0.5; stroke-width: 4; stroke-linecap: square"/>
    </g>
    <g id="text_14">
     <!-- y1 -->
     <g transform="translate(237.91875 42.518437)scale(0.1 -0.1)">
      <use xlink:href="#DejaVuSans-79"/>
      <use xlink:href="#DejaVuSans-31" x="59.179688"/>
     </g>
    </g>
    <g id="PathCollection_2">
     <g>
      <use xlink:href="#me0be15d85d" x="219.91875" y="54.571562" style="fill: #ff4500; fill-opacity: 0.5; stroke: #ff4500; stroke-opacity: 0.5; stroke-width: 1.5"/>
     </g>
    </g>
    <g id="text_15">
     <!-- y2 -->
     <g transform="translate(237.91875 57.196562)scale(0.1 -0.1)">
      <use xlink:href="#DejaVuSans-79"/>
      <use xlink:href="#DejaVuSans-32" x="59.179688"/>
     </g>
    </g>
   </g>
  </g>
 </g>
 <defs>
  <clipPath id="p728b0858ac">
   <rect x="36" y="25.92" width="223.2" height="166.32"/>
  </clipPath>
 </defs>
</svg>
