<?xml version="1.0" encoding="utf-8"?>
<svg xmlns="http://www.w3.org/2000/svg" xmlns:xlink="http://www.w3.org/1999/xlink" width="600" height="400" viewBox="0 0 2400 1600">
<defs>
  <clipPath id="clip710">
    <rect x="0" y="0" width="2400" height="1600"/>
  </clipPath>
</defs>
<path clip-path="url(#clip710)" d="M0 1600 L2400 1600 L2400 0 L0 0  Z" fill="#ffffff" fill-rule="evenodd" fill-opacity="1"/>
<defs>
  <clipPath id="clip711">
    <rect x="480" y="0" width="1681" height="1600"/>
  </clipPath>
</defs>
<path clip-path="url(#clip710)" d="M193.936 1486.45 L1152.76 1486.45 L1152.76 47.2441 L193.936 47.2441  Z" fill="#ffffff" fill-rule="evenodd" fill-opacity="1"/>
<defs>
  <clipPath id="clip712">
    <rect x="193" y="47" width="960" height="1440"/>
  </clipPath>
</defs>
<path clip-path="url(#clip712)" d="M672.668 762.064 L1125.62 762.064 L1125.52 752.647 L1125.23 743.234 L1124.74 733.83 L1124.05 724.438 L1123.17 715.062 L1122.1 705.706 L1120.83 696.375 L1119.37 687.072 L1117.71 677.801 L1115.86 668.567 L1113.83 659.373 L1111.59 650.224 L1109.18 641.123 L1106.57 632.074 L1103.77 623.082 L1100.79 614.149 L1097.62 605.281 L1094.27 596.48 L1090.74 587.751 L1087.02 579.097 L1083.13 570.523 L1079.06 562.031 L1074.81 553.625 L1070.39 545.31 L1065.8 537.088 L1061.04 528.964 L1056.11 520.94 L1051.01 513.021 L1045.75 505.209 L1040.33 497.508 L1034.75 489.922 L1029.01 482.453 L1023.12 475.105 L1017.08 467.881 L1010.89 460.785 L1004.56 453.818 L998.076 446.985 L991.455 440.288 L984.697 433.73 L977.803 427.314 L970.778 421.043 L963.624 414.919 L956.344 408.945 L948.942 403.124 L941.42 397.458 L933.781 391.949 L926.03 386.601 L918.17 381.415 L910.203 376.393 L672.668 762.064  Z" fill="#009af9" fill-rule="evenodd" fill-opacity="1"/>
<polyline clip-path="url(#clip712)" style="stroke:#000000; stroke-linecap:round; stroke-linejoin:round; stroke-width:4; stroke-opacity:1; fill:none" points="672.668,762.064 1125.62,762.064 1125.52,752.647 1125.23,743.234 1124.74,733.83 1124.05,724.438 1123.17,715.062 1122.1,705.706 1120.83,696.375 1119.37,687.072 1117.71,677.801 1115.86,668.567 1113.83,659.373 1111.59,650.224 1109.18,641.123 1106.57,632.074 1103.77,623.082 1100.79,614.149 1097.62,605.281 1094.27,596.48 1090.74,587.751 1087.02,579.097 1083.13,570.523 1079.06,562.031 1074.81,553.625 1070.39,545.31 1065.8,537.088 1061.04,528.964 1056.11,520.94 1051.01,513.021 1045.75,505.209 1040.33,497.508 1034.75,489.922 1029.01,482.453 1023.12,475.105 1017.08,467.881 1010.89,460.785 1004.56,453.818 998.076,446.985 991.455,440.288 984.697,433.73 977.803,427.314 970.778,421.043 963.624,414.919 956.344,408.945 948.942,403.124 941.42,397.458 933.781,391.949 926.03,386.601 918.17,381.415 910.203,376.393 672.668,762.064 "/>
<path clip-path="url(#clip712)" d="M672.668 762.064 L579.994 318.695 L569.912 320.922 L559.884 323.379 L549.914 326.064 L540.008 328.975 L530.171 332.111 L520.408 335.471 L510.724 339.052 L501.124 342.854 L491.613 346.873 L482.196 351.107 L472.879 355.556 L463.665 360.215 L454.56 365.083 L445.568 370.158 L436.694 375.436 L427.942 380.915 L419.318 386.593 L410.826 392.465 L402.469 398.529 L394.253 404.783 L386.182 411.221 L378.26 417.843 L370.49 424.643 L362.878 431.618 L355.426 438.765 L348.139 446.08 L341.021 453.559 L334.075 461.199 L327.306 468.995 L320.715 476.943 L314.308 485.039 L308.087 493.28 L302.055 501.659 L296.216 510.175 L290.572 518.821 L285.127 527.593 L279.883 536.488 L274.843 545.499 L270.011 554.623 L265.387 563.855 L260.975 573.19 L256.777 582.623 L252.795 592.149 L249.031 601.764 L245.487 611.462 L242.165 621.238 L239.067 631.087 L236.194 641.004 L233.549 650.985 L672.668 762.064  Z" fill="#e26f46" fill-rule="evenodd" fill-opacity="1"/>
<polyline clip-path="url(#clip712)" style="stroke:#000000; stroke-linecap:round; stroke-linejoin:round; stroke-width:4; stroke-opacity:1; fill:none" points="672.668,762.064 579.994,318.695 569.912,320.922 559.884,323.379 549.914,326.064 540.008,328.975 530.171,332.111 520.408,335.471 510.724,339.052 501.124,342.854 491.613,346.873 482.196,351.107 472.879,355.556 463.665,360.215 454.56,365.083 445.568,370.158 436.694,375.436 427.942,380.915 419.318,386.593 410.826,392.465 402.469,398.529 394.253,404.783 386.182,411.221 378.26,417.843 370.49,424.643 362.878,431.618 355.426,438.765 348.139,446.08 341.021,453.559 334.075,461.199 327.306,468.995 320.715,476.943 314.308,485.039 308.087,493.28 302.055,501.659 296.216,510.175 290.572,518.821 285.127,527.593 279.883,536.488 274.843,545.499 270.011,554.623 265.387,563.855 260.975,573.19 256.777,582.623 252.795,592.149 249.031,601.764 245.487,611.462 242.165,621.238 239.067,631.087 236.194,641.004 233.549,650.985 672.668,762.064 "/>
<path clip-path="url(#clip712)" d="M672.668 762.064 L221.072 797.077 L221.667 804.042 L222.368 810.996 L223.177 817.94 L224.093 824.87 L225.115 831.784 L226.244 838.683 L227.48 845.563 L228.822 852.423 L230.269 859.262 L231.821 866.077 L233.479 872.868 L235.241 879.633 L237.108 886.369 L239.078 893.076 L241.151 899.751 L243.327 906.394 L245.606 913.002 L247.986 919.575 L250.467 926.11 L253.049 932.606 L255.731 939.061 L258.512 945.474 L261.392 951.844 L264.369 958.168 L267.444 964.445 L270.616 970.675 L273.883 976.854 L277.245 982.983 L280.701 989.059 L284.251 995.08 L287.893 1001.05 L291.627 1006.96 L295.452 1012.81 L299.366 1018.6 L303.369 1024.33 L307.46 1030 L311.639 1035.6 L315.903 1041.14 L320.252 1046.61 L324.685 1052.02 L329.201 1057.35 L333.799 1062.62 L338.478 1067.81 L343.236 1072.93 L348.072 1077.98 L352.986 1082.95 L357.976 1087.85 L363.041 1092.66 L368.18 1097.4 L672.668 762.064  Z" fill="#3da44d" fill-rule="evenodd" fill-opacity="1"/>
<polyline clip-path="url(#clip712)" style="stroke:#000000; stroke-linecap:round; stroke-linejoin:round; stroke-width:4; stroke-opacity:1; fill:none" points="672.668,762.064 221.072,797.077 221.667,804.042 222.368,810.996 223.177,817.94 224.093,824.87 225.115,831.784 226.244,838.683 227.48,845.563 228.822,852.423 230.269,859.262 231.821,866.077 233.479,872.868 235.241,879.633 237.108,886.369 239.078,893.076 241.151,899.751 243.327,906.394 245.606,913.002 247.986,919.575 250.467,926.11 253.049,932.606 255.731,939.061 258.512,945.474 261.392,951.844 264.369,958.168 267.444,964.445 270.616,970.675 273.883,976.854 277.245,982.983 280.701,989.059 284.251,995.08 287.893,1001.05 291.627,1006.96 295.452,1012.81 299.366,1018.6 303.369,1024.33 307.46,1030 311.639,1035.6 315.903,1041.14 320.252,1046.61 324.685,1052.02 329.201,1057.35 333.799,1062.62 338.478,1067.81 343.236,1072.93 348.072,1077.98 352.986,1082.95 357.976,1087.85 363.041,1092.66 368.18,1097.4 672.668,762.064 "/>
<path clip-path="url(#clip712)" d="M672.668 762.064 L541.514 1195.61 L551.639 1198.55 L561.83 1201.24 L572.081 1203.7 L582.386 1205.93 L592.74 1207.91 L603.138 1209.65 L613.573 1211.14 L624.04 1212.4 L634.534 1213.41 L645.048 1214.17 L655.577 1214.69 L666.116 1214.97 L676.658 1215 L687.197 1214.78 L697.729 1214.32 L708.248 1213.62 L718.747 1212.67 L729.221 1211.47 L739.664 1210.03 L750.072 1208.35 L760.437 1206.43 L770.755 1204.27 L781.019 1201.86 L791.225 1199.22 L801.367 1196.35 L811.439 1193.23 L821.436 1189.89 L831.352 1186.31 L841.182 1182.5 L850.921 1178.47 L860.564 1174.2 L870.104 1169.72 L879.538 1165.01 L888.86 1160.09 L898.064 1154.95 L907.147 1149.6 L916.102 1144.04 L924.926 1138.27 L933.613 1132.3 L942.158 1126.12 L950.558 1119.75 L958.807 1113.19 L966.901 1106.44 L974.836 1099.49 L982.607 1092.37 L990.21 1085.07 L997.641 1077.59 L1004.9 1069.94 L1011.97 1062.13 L672.668 762.064  Z" fill="#c271d2" fill-rule="evenodd" fill-opacity="1"/>
<polyline clip-path="url(#clip712)" style="stroke:#000000; stroke-linecap:round; stroke-linejoin:round; stroke-width:4; stroke-opacity:1; fill:none" points="672.668,762.064 541.514,1195.61 551.639,1198.55 561.83,1201.24 572.081,1203.7 582.386,1205.93 592.74,1207.91 603.138,1209.65 613.573,1211.14 624.04,1212.4 634.534,1213.41 645.048,1214.17 655.577,1214.69 666.116,1214.97 676.658,1215 687.197,1214.78 697.729,1214.32 708.248,1213.62 718.747,1212.67 729.221,1211.47 739.664,1210.03 750.072,1208.35 760.437,1206.43 770.755,1204.27 781.019,1201.86 791.225,1199.22 801.367,1196.35 811.439,1193.23 821.436,1189.89 831.352,1186.31 841.182,1182.5 850.921,1178.47 860.564,1174.2 870.104,1169.72 879.538,1165.01 888.86,1160.09 898.064,1154.95 907.147,1149.6 916.102,1144.04 924.926,1138.27 933.613,1132.3 942.158,1126.12 950.558,1119.75 958.807,1113.19 966.901,1106.44 974.836,1099.49 982.607,1092.37 990.21,1085.07 997.641,1077.59 1004.9,1069.94 1011.97,1062.13 672.668,762.064 "/>
<path clip-path="url(#clip710)" d="M225.897 354.418 L344.533 354.418 L344.533 95.2176 L225.897 95.2176  Z" fill="#ffffff" fill-rule="evenodd" fill-opacity="1"/>
<polyline clip-path="url(#clip710)" style="stroke:#000000; stroke-linecap:round; stroke-linejoin:round; stroke-width:4; stroke-opacity:1; fill:none" points="225.897,354.418 344.533,354.418 344.533,95.2176 225.897,95.2176 225.897,354.418 "/>
<path clip-path="url(#clip710)" d="M236.55 167.794 L300.472 167.794 L300.472 126.322 L236.55 126.322 L236.55 167.794  Z" fill="#009af9" fill-rule="evenodd" fill-opacity="1"/>
<polyline clip-path="url(#clip710)" style="stroke:#000000; stroke-linecap:round; stroke-linejoin:round; stroke-width:4; stroke-opacity:1; fill:none" points="236.55,167.794 300.472,167.794 300.472,126.322 236.55,126.322 236.55,167.794 "/>
<path clip-path="url(#clip710)" d="M311.796 160.402 L319.435 160.402 L319.435 134.037 L311.125 135.703 L311.125 131.444 L319.389 129.778 L324.065 129.778 L324.065 160.402 L331.704 160.402 L331.704 164.338 L311.796 164.338 L311.796 160.402 Z" fill="#000000" fill-rule="nonzero" fill-opacity="1" /><path clip-path="url(#clip710)" d="M236.55 219.634 L300.472 219.634 L300.472 178.162 L236.55 178.162 L236.55 219.634  Z" fill="#e26f46" fill-rule="evenodd" fill-opacity="1"/>
<polyline clip-path="url(#clip710)" style="stroke:#000000; stroke-linecap:round; stroke-linejoin:round; stroke-width:4; stroke-opacity:1; fill:none" points="236.55,219.634 300.472,219.634 300.472,178.162 236.55,178.162 236.55,219.634 "/>
<path clip-path="url(#clip710)" d="M326.75 197.543 Q330.106 198.261 331.981 200.529 Q333.88 202.798 333.88 206.131 Q333.88 211.247 330.361 214.048 Q326.843 216.849 320.361 216.849 Q318.185 216.849 315.87 216.409 Q313.579 215.992 311.125 215.136 L311.125 210.622 Q313.07 211.756 315.384 212.335 Q317.699 212.914 320.222 212.914 Q324.62 212.914 326.912 211.178 Q329.227 209.441 329.227 206.131 Q329.227 203.076 327.074 201.363 Q324.944 199.627 321.125 199.627 L317.097 199.627 L317.097 195.784 L321.31 195.784 Q324.759 195.784 326.588 194.418 Q328.417 193.03 328.417 190.437 Q328.417 187.775 326.519 186.363 Q324.644 184.928 321.125 184.928 Q319.204 184.928 317.005 185.344 Q314.806 185.761 312.167 186.641 L312.167 182.474 Q314.829 181.733 317.144 181.363 Q319.482 180.993 321.542 180.993 Q326.866 180.993 329.968 183.423 Q333.069 185.83 333.069 189.951 Q333.069 192.821 331.426 194.812 Q329.782 196.78 326.75 197.543 Z" fill="#000000" fill-rule="nonzero" fill-opacity="1" /><path clip-path="url(#clip710)" d="M236.55 271.474 L300.472 271.474 L300.472 230.002 L236.55 230.002 L236.55 271.474  Z" fill="#3da44d" fill-rule="evenodd" fill-opacity="1"/>
<polyline clip-path="url(#clip710)" style="stroke:#000000; stroke-linecap:round; stroke-linejoin:round; stroke-width:4; stroke-opacity:1; fill:none" points="236.55,271.474 300.472,271.474 300.472,230.002 236.55,230.002 236.55,271.474 "/>
<path clip-path="url(#clip710)" d="M312.583 233.458 L330.94 233.458 L330.94 237.393 L316.866 237.393 L316.866 245.865 Q317.884 245.518 318.903 245.356 Q319.921 245.17 320.94 245.17 Q326.727 245.17 330.106 248.342 Q333.486 251.513 333.486 256.93 Q333.486 262.508 330.014 265.61 Q326.542 268.689 320.222 268.689 Q318.046 268.689 315.778 268.318 Q313.532 267.948 311.125 267.207 L311.125 262.508 Q313.208 263.643 315.431 264.198 Q317.653 264.754 320.13 264.754 Q324.134 264.754 326.472 262.647 Q328.81 260.541 328.81 256.93 Q328.81 253.319 326.472 251.212 Q324.134 249.106 320.13 249.106 Q318.255 249.106 316.38 249.522 Q314.528 249.939 312.583 250.819 L312.583 233.458 Z" fill="#000000" fill-rule="nonzero" fill-opacity="1" /><path clip-path="url(#clip710)" d="M236.55 323.314 L300.472 323.314 L300.472 281.842 L236.55 281.842 L236.55 323.314  Z" fill="#c271d2" fill-rule="evenodd" fill-opacity="1"/>
<polyline clip-path="url(#clip710)" style="stroke:#000000; stroke-linecap:round; stroke-linejoin:round; stroke-width:4; stroke-opacity:1; fill:none" points="236.55,323.314 300.472,323.314 300.472,281.842 236.55,281.842 236.55,323.314 "/>
<path clip-path="url(#clip710)" d="M311.125 285.298 L333.347 285.298 L333.347 287.288 L320.801 319.858 L315.917 319.858 L327.722 289.233 L311.125 289.233 L311.125 285.298 Z" fill="#000000" fill-rule="nonzero" fill-opacity="1" /><path clip-path="url(#clip710)" d="M1393.94 1486.45 L2352.76 1486.45 L2352.76 47.2441 L1393.94 47.2441  Z" fill="#ffffff" fill-rule="evenodd" fill-opacity="1"/>
<defs>
  <clipPath id="clip713">
    <rect x="1393" y="47" width="960" height="1440"/>
  </clipPath>
</defs>
<path clip-path="url(#clip713)" d="M1873.35 776.531 L2110.53 391.436 L2104.54 387.813 L2098.5 384.283 L2092.4 380.847 L2086.26 377.505 L2080.06 374.259 L2073.81 371.109 L2067.51 368.057 L2061.17 365.102 L2054.78 362.245 L2048.35 359.488 L2041.88 356.83 L2035.37 354.273 L2028.81 351.817 L2022.22 349.463 L2015.6 347.211 L2008.94 345.061 L2002.25 343.015 L1995.53 341.073 L1988.78 339.235 L1982 337.501 L1975.19 335.873 L1968.36 334.35 L1961.51 332.933 L1954.64 331.622 L1947.74 330.418 L1940.83 329.32 L1933.91 328.33 L1926.97 327.446 L1920.01 326.671 L1913.05 326.003 L1906.07 325.442 L1899.09 324.99 L1892.1 324.646 L1885.11 324.41 L1878.11 324.282 L1871.12 324.262 L1864.12 324.351 L1857.12 324.548 L1850.13 324.853 L1843.15 325.266 L1836.17 325.787 L1829.2 326.416 L1822.24 327.153 L1815.3 327.997 L1808.37 328.949 L1801.45 330.008 L1794.55 331.173 L1787.67 332.446 L1780.81 333.824 L1873.35 776.531  Z" fill="#009af9" fill-rule="evenodd" fill-opacity="1"/>
<polyline clip-path="url(#clip713)" style="stroke:#000000; stroke-linecap:round; stroke-linejoin:round; stroke-width:4; stroke-opacity:1; fill:none" points="1873.35,776.531 2110.53,391.436 2104.54,387.813 2098.5,384.283 2092.4,380.847 2086.26,377.505 2080.06,374.259 2073.81,371.109 2067.51,368.057 2061.17,365.102 2054.78,362.245 2048.35,359.488 2041.88,356.83 2035.37,354.273 2028.81,351.817 2022.22,349.463 2015.6,347.211 2008.94,345.061 2002.25,343.015 1995.53,341.073 1988.78,339.235 1982,337.501 1975.19,335.873 1968.36,334.35 1961.51,332.933 1954.64,331.622 1947.74,330.418 1940.83,329.32 1933.91,328.33 1926.97,327.446 1920.01,326.671 1913.05,326.003 1906.07,325.442 1899.09,324.99 1892.1,324.646 1885.11,324.41 1878.11,324.282 1871.12,324.262 1864.12,324.351 1857.12,324.548 1850.13,324.853 1843.15,325.266 1836.17,325.787 1829.2,326.416 1822.24,327.153 1815.3,327.997 1808.37,328.949 1801.45,330.008 1794.55,331.173 1787.67,332.446 1780.81,333.824 1873.35,776.531 "/>
<path clip-path="url(#clip713)" d="M1873.35 776.531 L1434.88 665.618 L1434.16 668.529 L1433.45 671.446 L1432.76 674.367 L1432.09 677.293 L1431.44 680.223 L1430.81 683.157 L1430.2 686.096 L1429.61 689.038 L1429.04 691.984 L1428.49 694.934 L1427.96 697.888 L1427.45 700.845 L1426.96 703.805 L1426.48 706.769 L1426.03 709.736 L1425.6 712.705 L1425.18 715.678 L1424.79 718.653 L1424.42 721.63 L1424.06 724.61 L1423.73 727.593 L1423.41 730.577 L1423.12 733.564 L1422.84 736.552 L1422.59 739.542 L1422.35 742.534 L1422.14 745.527 L1421.94 748.522 L1421.76 751.518 L1421.61 754.515 L1421.47 757.513 L1421.36 760.512 L1421.26 763.511 L1421.18 766.511 L1421.13 769.512 L1421.09 772.513 L1421.07 775.514 L1421.08 778.515 L1421.1 781.516 L1421.14 784.516 L1421.2 787.517 L1421.29 790.517 L1421.39 793.516 L1421.51 796.514 L1421.66 799.512 L1421.82 802.509 L1422 805.504 L1422.2 808.498 L1422.42 811.491 L1873.35 776.531  Z" fill="#e26f46" fill-rule="evenodd" fill-opacity="1"/>
<polyline clip-path="url(#clip713)" style="stroke:#000000; stroke-linecap:round; stroke-linejoin:round; stroke-width:4; stroke-opacity:1; fill:none" points="1873.35,776.531 1434.88,665.618 1434.16,668.529 1433.45,671.446 1432.76,674.367 1432.09,677.293 1431.44,680.223 1430.81,683.157 1430.2,686.096 1429.61,689.038 1429.04,691.984 1428.49,694.934 1427.96,697.888 1427.45,700.845 1426.96,703.805 1426.48,706.769 1426.03,709.736 1425.6,712.705 1425.18,715.678 1424.79,718.653 1424.42,721.63 1424.06,724.61 1423.73,727.593 1423.41,730.577 1423.12,733.564 1422.84,736.552 1422.59,739.542 1422.35,742.534 1422.14,745.527 1421.94,748.522 1421.76,751.518 1421.61,754.515 1421.47,757.513 1421.36,760.512 1421.26,763.511 1421.18,766.511 1421.13,769.512 1421.09,772.513 1421.07,775.514 1421.08,778.515 1421.1,781.516 1421.14,784.516 1421.2,787.517 1421.29,790.517 1421.39,793.516 1421.51,796.514 1421.66,799.512 1421.82,802.509 1422,805.504 1422.2,808.498 1422.42,811.491 1873.35,776.531 "/>
<path clip-path="url(#clip713)" d="M1873.35 776.531 L1569.31 1111.37 L1572.35 1114.1 L1575.42 1116.82 L1578.51 1119.5 L1581.63 1122.15 L1584.77 1124.78 L1587.93 1127.37 L1591.12 1129.94 L1594.33 1132.48 L1597.56 1134.99 L1600.82 1137.47 L1604.1 1139.93 L1607.4 1142.35 L1610.72 1144.74 L1614.06 1147.1 L1617.42 1149.43 L1620.81 1151.73 L1624.22 1154 L1627.64 1156.24 L1631.09 1158.45 L1634.55 1160.63 L1638.04 1162.77 L1641.55 1164.89 L1645.07 1166.97 L1648.61 1169.02 L1652.17 1171.04 L1655.75 1173.02 L1659.35 1174.98 L1662.97 1176.9 L1666.6 1178.78 L1670.25 1180.64 L1673.91 1182.46 L1677.59 1184.25 L1681.29 1186 L1685 1187.72 L1688.73 1189.41 L1692.48 1191.07 L1696.24 1192.69 L1700.01 1194.27 L1703.8 1195.82 L1707.6 1197.34 L1711.41 1198.82 L1715.24 1200.27 L1719.08 1201.68 L1722.94 1203.06 L1726.8 1204.41 L1730.68 1205.72 L1734.57 1206.99 L1738.47 1208.23 L1742.39 1209.43 L1873.35 776.531  Z" fill="#3da44d" fill-rule="evenodd" fill-opacity="1"/>
<polyline clip-path="url(#clip713)" style="stroke:#000000; stroke-linecap:round; stroke-linejoin:round; stroke-width:4; stroke-opacity:1; fill:none" points="1873.35,776.531 1569.31,1111.37 1572.35,1114.1 1575.42,1116.82 1578.51,1119.5 1581.63,1122.15 1584.77,1124.78 1587.93,1127.37 1591.12,1129.94 1594.33,1132.48 1597.56,1134.99 1600.82,1137.47 1604.1,1139.93 1607.4,1142.35 1610.72,1144.74 1614.06,1147.1 1617.42,1149.43 1620.81,1151.73 1624.22,1154 1627.64,1156.24 1631.09,1158.45 1634.55,1160.63 1638.04,1162.77 1641.55,1164.89 1645.07,1166.97 1648.61,1169.02 1652.17,1171.04 1655.75,1173.02 1659.35,1174.98 1662.97,1176.9 1666.6,1178.78 1670.25,1180.64 1673.91,1182.46 1677.59,1184.25 1681.29,1186 1685,1187.72 1688.73,1189.41 1692.48,1191.07 1696.24,1192.69 1700.01,1194.27 1703.8,1195.82 1707.6,1197.34 1711.41,1198.82 1715.24,1200.27 1719.08,1201.68 1722.94,1203.06 1726.8,1204.41 1730.68,1205.72 1734.57,1206.99 1738.47,1208.23 1742.39,1209.43 1873.35,776.531 "/>
<path clip-path="url(#clip713)" d="M1873.35 776.531 L2212.14 1076.15 L2216.53 1071.11 L2220.85 1066 L2225.09 1060.84 L2229.25 1055.61 L2233.33 1050.32 L2237.34 1044.97 L2241.27 1039.56 L2245.11 1034.1 L2248.88 1028.57 L2252.56 1023 L2256.16 1017.37 L2259.68 1011.68 L2263.11 1005.95 L2266.46 1000.16 L2269.72 994.33 L2272.9 988.449 L2275.99 982.521 L2278.99 976.549 L2281.9 970.533 L2284.72 964.475 L2287.45 958.375 L2290.09 952.236 L2292.65 946.058 L2295.1 939.844 L2297.47 933.594 L2299.75 927.309 L2301.93 920.992 L2304.02 914.643 L2306.01 908.264 L2307.91 901.856 L2309.71 895.421 L2311.42 888.959 L2313.04 882.474 L2314.55 875.965 L2315.97 869.434 L2317.3 862.883 L2318.53 856.313 L2319.66 849.726 L2320.69 843.123 L2321.63 836.505 L2322.46 829.874 L2323.2 823.232 L2323.84 816.579 L2324.39 809.918 L2324.83 803.249 L2325.18 796.575 L2325.42 789.896 L2325.57 783.214 L2325.62 776.531 L1873.35 776.531  Z" fill="#c271d2" fill-rule="evenodd" fill-opacity="1"/>
<polyline clip-path="url(#clip713)" style="stroke:#000000; stroke-linecap:round; stroke-linejoin:round; stroke-width:4; stroke-opacity:1; fill:none" points="1873.35,776.531 2212.14,1076.15 2216.53,1071.11 2220.85,1066 2225.09,1060.84 2229.25,1055.61 2233.33,1050.32 2237.34,1044.97 2241.27,1039.56 2245.11,1034.1 2248.88,1028.57 2252.56,1023 2256.16,1017.37 2259.68,1011.68 2263.11,1005.95 2266.46,1000.16 2269.72,994.33 2272.9,988.449 2275.99,982.521 2278.99,976.549 2281.9,970.533 2284.72,964.475 2287.45,958.375 2290.09,952.236 2292.65,946.058 2295.1,939.844 2297.47,933.594 2299.75,927.309 2301.93,920.992 2304.02,914.643 2306.01,908.264 2307.91,901.856 2309.71,895.421 2311.42,888.959 2313.04,882.474 2314.55,875.965 2315.97,869.434 2317.3,862.883 2318.53,856.313 2319.66,849.726 2320.69,843.123 2321.63,836.505 2322.46,829.874 2323.2,823.232 2323.84,816.579 2324.39,809.918 2324.83,803.249 2325.18,796.575 2325.42,789.896 2325.57,783.214 2325.62,776.531 1873.35,776.531 "/>
<path clip-path="url(#clip710)" d="M1425.9 354.418 L1546.96 354.418 L1546.96 95.2176 L1425.9 95.2176  Z" fill="#ffffff" fill-rule="evenodd" fill-opacity="1"/>
<polyline clip-path="url(#clip710)" style="stroke:#000000; stroke-linecap:round; stroke-linejoin:round; stroke-width:4; stroke-opacity:1; fill:none" points="1425.9,354.418 1546.96,354.418 1546.96,95.2176 1425.9,95.2176 1425.9,354.418 "/>
<path clip-path="url(#clip710)" d="M1436.55 167.794 L1500.47 167.794 L1500.47 126.322 L1436.55 126.322 L1436.55 167.794  Z" fill="#009af9" fill-rule="evenodd" fill-opacity="1"/>
<polyline clip-path="url(#clip710)" style="stroke:#000000; stroke-linecap:round; stroke-linejoin:round; stroke-width:4; stroke-opacity:1; fill:none" points="1436.55,167.794 1500.47,167.794 1500.47,126.322 1436.55,126.322 1436.55,167.794 "/>
<path clip-path="url(#clip710)" d="M1516.75 160.402 L1533.07 160.402 L1533.07 164.338 L1511.13 164.338 L1511.13 160.402 Q1513.79 157.648 1518.37 153.018 Q1522.98 148.365 1524.16 147.023 Q1526.4 144.5 1527.28 142.764 Q1528.19 141.004 1528.19 139.315 Q1528.19 136.56 1526.24 134.824 Q1524.32 133.088 1521.22 133.088 Q1519.02 133.088 1516.56 133.852 Q1514.13 134.615 1511.36 136.166 L1511.36 131.444 Q1514.18 130.31 1516.63 129.731 Q1519.09 129.153 1521.13 129.153 Q1526.5 129.153 1529.69 131.838 Q1532.88 134.523 1532.88 139.014 Q1532.88 141.143 1532.07 143.065 Q1531.29 144.963 1529.18 147.555 Q1528.6 148.227 1525.5 151.444 Q1522.4 154.639 1516.75 160.402 Z" fill="#000000" fill-rule="nonzero" fill-opacity="1" /><path clip-path="url(#clip710)" d="M1436.55 219.634 L1500.47 219.634 L1500.47 178.162 L1436.55 178.162 L1436.55 219.634  Z" fill="#e26f46" fill-rule="evenodd" fill-opacity="1"/>
<polyline clip-path="url(#clip710)" style="stroke:#000000; stroke-linecap:round; stroke-linejoin:round; stroke-width:4; stroke-opacity:1; fill:none" points="1436.55,219.634 1500.47,219.634 1500.47,178.162 1436.55,178.162 1436.55,219.634 "/>
<path clip-path="url(#clip710)" d="M1526.73 185.692 L1514.92 204.141 L1526.73 204.141 L1526.73 185.692 M1525.5 181.618 L1531.38 181.618 L1531.38 204.141 L1536.31 204.141 L1536.31 208.029 L1531.38 208.029 L1531.38 216.178 L1526.73 216.178 L1526.73 208.029 L1511.13 208.029 L1511.13 203.516 L1525.5 181.618 Z" fill="#000000" fill-rule="nonzero" fill-opacity="1" /><path clip-path="url(#clip710)" d="M1436.55 271.474 L1500.47 271.474 L1500.47 230.002 L1436.55 230.002 L1436.55 271.474  Z" fill="#3da44d" fill-rule="evenodd" fill-opacity="1"/>
<polyline clip-path="url(#clip710)" style="stroke:#000000; stroke-linecap:round; stroke-linejoin:round; stroke-width:4; stroke-opacity:1; fill:none" points="1436.55,271.474 1500.47,271.474 1500.47,230.002 1436.55,230.002 1436.55,271.474 "/>
<path clip-path="url(#clip710)" d="M1523.46 248.874 Q1520.31 248.874 1518.46 251.027 Q1516.63 253.18 1516.63 256.93 Q1516.63 260.656 1518.46 262.832 Q1520.31 264.985 1523.46 264.985 Q1526.61 264.985 1528.44 262.832 Q1530.29 260.656 1530.29 256.93 Q1530.29 253.18 1528.44 251.027 Q1526.61 248.874 1523.46 248.874 M1532.75 234.221 L1532.75 238.481 Q1530.99 237.647 1529.18 237.208 Q1527.4 236.768 1525.64 236.768 Q1521.01 236.768 1518.56 239.893 Q1516.13 243.018 1515.78 249.337 Q1517.14 247.323 1519.2 246.258 Q1521.26 245.17 1523.74 245.17 Q1528.95 245.17 1531.96 248.342 Q1534.99 251.49 1534.99 256.93 Q1534.99 262.254 1531.84 265.471 Q1528.69 268.689 1523.46 268.689 Q1517.47 268.689 1514.3 264.106 Q1511.13 259.499 1511.13 250.772 Q1511.13 242.578 1515.01 237.717 Q1518.9 232.833 1525.45 232.833 Q1527.21 232.833 1529 233.18 Q1530.8 233.527 1532.75 234.221 Z" fill="#000000" fill-rule="nonzero" fill-opacity="1" /><path clip-path="url(#clip710)" d="M1436.55 323.314 L1500.47 323.314 L1500.47 281.842 L1436.55 281.842 L1436.55 323.314  Z" fill="#c271d2" fill-rule="evenodd" fill-opacity="1"/>
<polyline clip-path="url(#clip710)" style="stroke:#000000; stroke-linecap:round; stroke-linejoin:round; stroke-width:4; stroke-opacity:1; fill:none" points="1436.55,323.314 1500.47,323.314 1500.47,281.842 1436.55,281.842 1436.55,323.314 "/>
<path clip-path="url(#clip710)" d="M1522.98 303.446 Q1519.64 303.446 1517.72 305.228 Q1515.82 307.01 1515.82 310.135 Q1515.82 313.26 1517.72 315.043 Q1519.64 316.825 1522.98 316.825 Q1526.31 316.825 1528.23 315.043 Q1530.15 313.237 1530.15 310.135 Q1530.15 307.01 1528.23 305.228 Q1526.33 303.446 1522.98 303.446 M1518.3 301.455 Q1515.29 300.714 1513.6 298.654 Q1511.94 296.594 1511.94 293.631 Q1511.94 289.487 1514.88 287.08 Q1517.84 284.673 1522.98 284.673 Q1528.14 284.673 1531.08 287.08 Q1534.02 289.487 1534.02 293.631 Q1534.02 296.594 1532.33 298.654 Q1530.66 300.714 1527.68 301.455 Q1531.06 302.242 1532.93 304.534 Q1534.83 306.825 1534.83 310.135 Q1534.83 315.159 1531.75 317.844 Q1528.69 320.529 1522.98 320.529 Q1517.26 320.529 1514.18 317.844 Q1511.13 315.159 1511.13 310.135 Q1511.13 306.825 1513.02 304.534 Q1514.92 302.242 1518.3 301.455 M1516.59 294.071 Q1516.59 296.756 1518.25 298.26 Q1519.94 299.765 1522.98 299.765 Q1525.99 299.765 1527.68 298.26 Q1529.39 296.756 1529.39 294.071 Q1529.39 291.385 1527.68 289.881 Q1525.99 288.376 1522.98 288.376 Q1519.94 288.376 1518.25 289.881 Q1516.59 291.385 1516.59 294.071 Z" fill="#000000" fill-rule="nonzero" fill-opacity="1" /></svg>
