<?xml version="1.0" encoding="utf-8"?>
<svg xmlns="http://www.w3.org/2000/svg" xmlns:xlink="http://www.w3.org/1999/xlink" width="600" height="400" viewBox="0 0 2400 1600">
<defs>
  <clipPath id="clip730">
    <rect x="0" y="0" width="2400" height="1600"/>
  </clipPath>
</defs>
<path clip-path="url(#clip730)" d="M0 1600 L2400 1600 L2400 0 L0 0  Z" fill="#ffffff" fill-rule="evenodd" fill-opacity="1"/>
<defs>
  <clipPath id="clip731">
    <rect x="280" y="953" width="873" height="508"/>
  </clipPath>
</defs>
<path clip-path="url(#clip730)" d="M280.964 661.168 L1152.76 661.168 L1152.76 153.712 L280.964 153.712  Z" fill="#ffffff" fill-rule="evenodd" fill-opacity="1"/>
<defs>
  <clipPath id="clip732">
    <rect x="280" y="153" width="873" height="508"/>
  </clipPath>
</defs>
<polyline clip-path="url(#clip732)" style="stroke:#000000; stroke-linecap:round; stroke-linejoin:round; stroke-width:2; stroke-opacity:0.1; fill:none" points="397.02,661.168 397.02,153.712 "/>
<polyline clip-path="url(#clip732)" style="stroke:#000000; stroke-linecap:round; stroke-linejoin:round; stroke-width:2; stroke-opacity:0.1; fill:none" points="579.786,661.168 579.786,153.712 "/>
<polyline clip-path="url(#clip732)" style="stroke:#000000; stroke-linecap:round; stroke-linejoin:round; stroke-width:2; stroke-opacity:0.1; fill:none" points="762.551,661.168 762.551,153.712 "/>
<polyline clip-path="url(#clip732)" style="stroke:#000000; stroke-linecap:round; stroke-linejoin:round; stroke-width:2; stroke-opacity:0.1; fill:none" points="945.317,661.168 945.317,153.712 "/>
<polyline clip-path="url(#clip732)" style="stroke:#000000; stroke-linecap:round; stroke-linejoin:round; stroke-width:2; stroke-opacity:0.1; fill:none" points="1128.08,661.168 1128.08,153.712 "/>
<polyline clip-path="url(#clip732)" style="stroke:#000000; stroke-linecap:round; stroke-linejoin:round; stroke-width:2; stroke-opacity:0.1; fill:none" points="280.964,618.676 1152.76,618.676 "/>
<polyline clip-path="url(#clip732)" style="stroke:#000000; stroke-linecap:round; stroke-linejoin:round; stroke-width:2; stroke-opacity:0.1; fill:none" points="280.964,541.561 1152.76,541.561 "/>
<polyline clip-path="url(#clip732)" style="stroke:#000000; stroke-linecap:round; stroke-linejoin:round; stroke-width:2; stroke-opacity:0.1; fill:none" points="280.964,464.445 1152.76,464.445 "/>
<polyline clip-path="url(#clip732)" style="stroke:#000000; stroke-linecap:round; stroke-linejoin:round; stroke-width:2; stroke-opacity:0.1; fill:none" points="280.964,387.33 1152.76,387.33 "/>
<polyline clip-path="url(#clip732)" style="stroke:#000000; stroke-linecap:round; stroke-linejoin:round; stroke-width:2; stroke-opacity:0.1; fill:none" points="280.964,310.215 1152.76,310.215 "/>
<polyline clip-path="url(#clip732)" style="stroke:#000000; stroke-linecap:round; stroke-linejoin:round; stroke-width:2; stroke-opacity:0.1; fill:none" points="280.964,233.099 1152.76,233.099 "/>
<polyline clip-path="url(#clip732)" style="stroke:#000000; stroke-linecap:round; stroke-linejoin:round; stroke-width:2; stroke-opacity:0.1; fill:none" points="280.964,155.984 1152.76,155.984 "/>
<polyline clip-path="url(#clip730)" style="stroke:#000000; stroke-linecap:round; stroke-linejoin:round; stroke-width:4; stroke-opacity:1; fill:none" points="280.964,661.168 1152.76,661.168 "/>
<polyline clip-path="url(#clip730)" style="stroke:#000000; stroke-linecap:round; stroke-linejoin:round; stroke-width:4; stroke-opacity:1; fill:none" points="397.02,661.168 397.02,642.27 "/>
<polyline clip-path="url(#clip730)" style="stroke:#000000; stroke-linecap:round; stroke-linejoin:round; stroke-width:4; stroke-opacity:1; fill:none" points="579.786,661.168 579.786,642.27 "/>
<polyline clip-path="url(#clip730)" style="stroke:#000000; stroke-linecap:round; stroke-linejoin:round; stroke-width:4; stroke-opacity:1; fill:none" points="762.551,661.168 762.551,642.27 "/>
<polyline clip-path="url(#clip730)" style="stroke:#000000; stroke-linecap:round; stroke-linejoin:round; stroke-width:4; stroke-opacity:1; fill:none" points="945.317,661.168 945.317,642.27 "/>
<polyline clip-path="url(#clip730)" style="stroke:#000000; stroke-linecap:round; stroke-linejoin:round; stroke-width:4; stroke-opacity:1; fill:none" points="1128.08,661.168 1128.08,642.27 "/>
<path clip-path="url(#clip730)" d="M391.673 719.633 L407.992 719.633 L407.992 723.568 L386.048 723.568 L386.048 719.633 Q388.71 716.878 393.293 712.248 Q397.9 707.596 399.08 706.253 Q401.326 703.73 402.205 701.994 Q403.108 700.235 403.108 698.545 Q403.108 695.79 401.164 694.054 Q399.242 692.318 396.141 692.318 Q393.941 692.318 391.488 693.082 Q389.057 693.846 386.279 695.397 L386.279 690.675 Q389.104 689.54 391.557 688.962 Q394.011 688.383 396.048 688.383 Q401.418 688.383 404.613 691.068 Q407.807 693.753 407.807 698.244 Q407.807 700.374 406.997 702.295 Q406.21 704.193 404.103 706.786 Q403.525 707.457 400.423 710.674 Q397.321 713.869 391.673 719.633 Z" fill="#000000" fill-rule="nonzero" fill-opacity="1" /><path clip-path="url(#clip730)" d="M582.795 693.082 L570.99 711.531 L582.795 711.531 L582.795 693.082 M581.568 689.008 L587.448 689.008 L587.448 711.531 L592.378 711.531 L592.378 715.42 L587.448 715.42 L587.448 723.568 L582.795 723.568 L582.795 715.42 L567.193 715.42 L567.193 710.906 L581.568 689.008 Z" fill="#000000" fill-rule="nonzero" fill-opacity="1" /><path clip-path="url(#clip730)" d="M762.956 704.424 Q759.808 704.424 757.956 706.577 Q756.128 708.73 756.128 712.48 Q756.128 716.207 757.956 718.383 Q759.808 720.535 762.956 720.535 Q766.105 720.535 767.933 718.383 Q769.785 716.207 769.785 712.48 Q769.785 708.73 767.933 706.577 Q766.105 704.424 762.956 704.424 M772.239 689.772 L772.239 694.031 Q770.48 693.198 768.674 692.758 Q766.892 692.318 765.132 692.318 Q760.503 692.318 758.049 695.443 Q755.619 698.568 755.271 704.887 Q756.637 702.874 758.697 701.809 Q760.757 700.721 763.234 700.721 Q768.443 700.721 771.452 703.892 Q774.484 707.04 774.484 712.48 Q774.484 717.804 771.336 721.022 Q768.188 724.239 762.956 724.239 Q756.961 724.239 753.79 719.656 Q750.619 715.049 750.619 706.323 Q750.619 698.128 754.507 693.267 Q758.396 688.383 764.947 688.383 Q766.706 688.383 768.489 688.73 Q770.294 689.077 772.239 689.772 Z" fill="#000000" fill-rule="nonzero" fill-opacity="1" /><path clip-path="url(#clip730)" d="M945.317 707.156 Q941.984 707.156 940.062 708.938 Q938.164 710.721 938.164 713.846 Q938.164 716.971 940.062 718.753 Q941.984 720.535 945.317 720.535 Q948.65 720.535 950.572 718.753 Q952.493 716.948 952.493 713.846 Q952.493 710.721 950.572 708.938 Q948.673 707.156 945.317 707.156 M940.641 705.165 Q937.632 704.424 935.942 702.364 Q934.275 700.304 934.275 697.341 Q934.275 693.198 937.215 690.79 Q940.178 688.383 945.317 688.383 Q950.479 688.383 953.419 690.79 Q956.359 693.198 956.359 697.341 Q956.359 700.304 954.669 702.364 Q953.002 704.424 950.016 705.165 Q953.396 705.952 955.271 708.244 Q957.169 710.536 957.169 713.846 Q957.169 718.869 954.09 721.554 Q951.035 724.239 945.317 724.239 Q939.599 724.239 936.521 721.554 Q933.465 718.869 933.465 713.846 Q933.465 710.536 935.363 708.244 Q937.261 705.952 940.641 705.165 M938.928 697.781 Q938.928 700.466 940.595 701.971 Q942.285 703.475 945.317 703.475 Q948.326 703.475 950.016 701.971 Q951.729 700.466 951.729 697.781 Q951.729 695.096 950.016 693.591 Q948.326 692.087 945.317 692.087 Q942.285 692.087 940.595 693.591 Q938.928 695.096 938.928 697.781 Z" fill="#000000" fill-rule="nonzero" fill-opacity="1" /><path clip-path="url(#clip730)" d="M1102.77 719.633 L1110.41 719.633 L1110.41 693.267 L1102.1 694.934 L1102.1 690.675 L1110.36 689.008 L1115.04 689.008 L1115.04 719.633 L1122.68 719.633 L1122.68 723.568 L1102.77 723.568 L1102.77 719.633 Z" fill="#000000" fill-rule="nonzero" fill-opacity="1" /><path clip-path="url(#clip730)" d="M1142.12 692.087 Q1138.51 692.087 1136.68 695.651 Q1134.88 699.193 1134.88 706.323 Q1134.88 713.429 1136.68 716.994 Q1138.51 720.535 1142.12 720.535 Q1145.76 720.535 1147.56 716.994 Q1149.39 713.429 1149.39 706.323 Q1149.39 699.193 1147.56 695.651 Q1145.76 692.087 1142.12 692.087 M1142.12 688.383 Q1147.93 688.383 1150.99 692.989 Q1154.07 697.573 1154.07 706.323 Q1154.07 715.049 1150.99 719.656 Q1147.93 724.239 1142.12 724.239 Q1136.31 724.239 1133.23 719.656 Q1130.18 715.049 1130.18 706.323 Q1130.18 697.573 1133.23 692.989 Q1136.31 688.383 1142.12 688.383 Z" fill="#000000" fill-rule="nonzero" fill-opacity="1" /><polyline clip-path="url(#clip730)" style="stroke:#000000; stroke-linecap:round; stroke-linejoin:round; stroke-width:4; stroke-opacity:1; fill:none" points="280.964,661.168 280.964,153.712 "/>
<polyline clip-path="url(#clip730)" style="stroke:#000000; stroke-linecap:round; stroke-linejoin:round; stroke-width:4; stroke-opacity:1; fill:none" points="280.964,618.676 299.862,618.676 "/>
<polyline clip-path="url(#clip730)" style="stroke:#000000; stroke-linecap:round; stroke-linejoin:round; stroke-width:4; stroke-opacity:1; fill:none" points="280.964,541.561 299.862,541.561 "/>
<polyline clip-path="url(#clip730)" style="stroke:#000000; stroke-linecap:round; stroke-linejoin:round; stroke-width:4; stroke-opacity:1; fill:none" points="280.964,464.445 299.862,464.445 "/>
<polyline clip-path="url(#clip730)" style="stroke:#000000; stroke-linecap:round; stroke-linejoin:round; stroke-width:4; stroke-opacity:1; fill:none" points="280.964,387.33 299.862,387.33 "/>
<polyline clip-path="url(#clip730)" style="stroke:#000000; stroke-linecap:round; stroke-linejoin:round; stroke-width:4; stroke-opacity:1; fill:none" points="280.964,310.215 299.862,310.215 "/>
<polyline clip-path="url(#clip730)" style="stroke:#000000; stroke-linecap:round; stroke-linejoin:round; stroke-width:4; stroke-opacity:1; fill:none" points="280.964,233.099 299.862,233.099 "/>
<polyline clip-path="url(#clip730)" style="stroke:#000000; stroke-linecap:round; stroke-linejoin:round; stroke-width:4; stroke-opacity:1; fill:none" points="280.964,155.984 299.862,155.984 "/>
<path clip-path="url(#clip730)" d="M139.016 619.127 L168.691 619.127 L168.691 623.063 L139.016 623.063 L139.016 619.127 Z" fill="#000000" fill-rule="nonzero" fill-opacity="1" /><path clip-path="url(#clip730)" d="M179.594 632.021 L187.233 632.021 L187.233 605.655 L178.923 607.322 L178.923 603.063 L187.187 601.396 L191.862 601.396 L191.862 632.021 L199.501 632.021 L199.501 635.956 L179.594 635.956 L179.594 632.021 Z" fill="#000000" fill-rule="nonzero" fill-opacity="1" /><path clip-path="url(#clip730)" d="M208.946 630.076 L213.83 630.076 L213.83 635.956 L208.946 635.956 L208.946 630.076 Z" fill="#000000" fill-rule="nonzero" fill-opacity="1" /><path clip-path="url(#clip730)" d="M224.061 601.396 L242.418 601.396 L242.418 605.331 L228.344 605.331 L228.344 613.803 Q229.362 613.456 230.381 613.294 Q231.399 613.109 232.418 613.109 Q238.205 613.109 241.584 616.28 Q244.964 619.451 244.964 624.868 Q244.964 630.447 241.492 633.549 Q238.02 636.627 231.7 636.627 Q229.524 636.627 227.256 636.257 Q225.01 635.887 222.603 635.146 L222.603 630.447 Q224.686 631.581 226.909 632.137 Q229.131 632.692 231.608 632.692 Q235.612 632.692 237.95 630.586 Q240.288 628.479 240.288 624.868 Q240.288 621.257 237.95 619.15 Q235.612 617.044 231.608 617.044 Q229.733 617.044 227.858 617.461 Q226.006 617.877 224.061 618.757 L224.061 601.396 Z" fill="#000000" fill-rule="nonzero" fill-opacity="1" /><path clip-path="url(#clip730)" d="M138.02 542.012 L167.696 542.012 L167.696 545.947 L138.02 545.947 L138.02 542.012 Z" fill="#000000" fill-rule="nonzero" fill-opacity="1" /><path clip-path="url(#clip730)" d="M178.599 554.905 L186.237 554.905 L186.237 528.54 L177.927 530.207 L177.927 525.947 L186.191 524.281 L190.867 524.281 L190.867 554.905 L198.506 554.905 L198.506 558.841 L178.599 558.841 L178.599 554.905 Z" fill="#000000" fill-rule="nonzero" fill-opacity="1" /><path clip-path="url(#clip730)" d="M207.95 552.961 L212.835 552.961 L212.835 558.841 L207.95 558.841 L207.95 552.961 Z" fill="#000000" fill-rule="nonzero" fill-opacity="1" /><path clip-path="url(#clip730)" d="M233.02 527.359 Q229.409 527.359 227.58 530.924 Q225.774 534.466 225.774 541.595 Q225.774 548.702 227.58 552.267 Q229.409 555.808 233.02 555.808 Q236.654 555.808 238.459 552.267 Q240.288 548.702 240.288 541.595 Q240.288 534.466 238.459 530.924 Q236.654 527.359 233.02 527.359 M233.02 523.656 Q238.83 523.656 241.885 528.262 Q244.964 532.845 244.964 541.595 Q244.964 550.322 241.885 554.929 Q238.83 559.512 233.02 559.512 Q227.209 559.512 224.131 554.929 Q221.075 550.322 221.075 541.595 Q221.075 532.845 224.131 528.262 Q227.209 523.656 233.02 523.656 Z" fill="#000000" fill-rule="nonzero" fill-opacity="1" /><path clip-path="url(#clip730)" d="M139.016 464.897 L168.691 464.897 L168.691 468.832 L139.016 468.832 L139.016 464.897 Z" fill="#000000" fill-rule="nonzero" fill-opacity="1" /><path clip-path="url(#clip730)" d="M188.784 450.244 Q185.173 450.244 183.344 453.809 Q181.538 457.35 181.538 464.48 Q181.538 471.586 183.344 475.151 Q185.173 478.693 188.784 478.693 Q192.418 478.693 194.224 475.151 Q196.052 471.586 196.052 464.48 Q196.052 457.35 194.224 453.809 Q192.418 450.244 188.784 450.244 M188.784 446.54 Q194.594 446.54 197.649 451.147 Q200.728 455.73 200.728 464.48 Q200.728 473.207 197.649 477.813 Q194.594 482.397 188.784 482.397 Q182.974 482.397 179.895 477.813 Q176.839 473.207 176.839 464.48 Q176.839 455.73 179.895 451.147 Q182.974 446.54 188.784 446.54 Z" fill="#000000" fill-rule="nonzero" fill-opacity="1" /><path clip-path="url(#clip730)" d="M208.946 475.846 L213.83 475.846 L213.83 481.725 L208.946 481.725 L208.946 475.846 Z" fill="#000000" fill-rule="nonzero" fill-opacity="1" /><path clip-path="url(#clip730)" d="M224.061 447.165 L242.418 447.165 L242.418 451.1 L228.344 451.1 L228.344 459.573 Q229.362 459.225 230.381 459.063 Q231.399 458.878 232.418 458.878 Q238.205 458.878 241.584 462.049 Q244.964 465.221 244.964 470.637 Q244.964 476.216 241.492 479.318 Q238.02 482.397 231.7 482.397 Q229.524 482.397 227.256 482.026 Q225.01 481.656 222.603 480.915 L222.603 476.216 Q224.686 477.35 226.909 477.906 Q229.131 478.461 231.608 478.461 Q235.612 478.461 237.95 476.355 Q240.288 474.248 240.288 470.637 Q240.288 467.026 237.95 464.92 Q235.612 462.813 231.608 462.813 Q229.733 462.813 227.858 463.23 Q226.006 463.647 224.061 464.526 L224.061 447.165 Z" fill="#000000" fill-rule="nonzero" fill-opacity="1" /><path clip-path="url(#clip730)" d="M187.788 373.129 Q184.177 373.129 182.349 376.693 Q180.543 380.235 180.543 387.365 Q180.543 394.471 182.349 398.036 Q184.177 401.578 187.788 401.578 Q191.423 401.578 193.228 398.036 Q195.057 394.471 195.057 387.365 Q195.057 380.235 193.228 376.693 Q191.423 373.129 187.788 373.129 M187.788 369.425 Q193.599 369.425 196.654 374.031 Q199.733 378.615 199.733 387.365 Q199.733 396.091 196.654 400.698 Q193.599 405.281 187.788 405.281 Q181.978 405.281 178.9 400.698 Q175.844 396.091 175.844 387.365 Q175.844 378.615 178.9 374.031 Q181.978 369.425 187.788 369.425 Z" fill="#000000" fill-rule="nonzero" fill-opacity="1" /><path clip-path="url(#clip730)" d="M207.95 398.73 L212.835 398.73 L212.835 404.61 L207.95 404.61 L207.95 398.73 Z" fill="#000000" fill-rule="nonzero" fill-opacity="1" /><path clip-path="url(#clip730)" d="M233.02 373.129 Q229.409 373.129 227.58 376.693 Q225.774 380.235 225.774 387.365 Q225.774 394.471 227.58 398.036 Q229.409 401.578 233.02 401.578 Q236.654 401.578 238.459 398.036 Q240.288 394.471 240.288 387.365 Q240.288 380.235 238.459 376.693 Q236.654 373.129 233.02 373.129 M233.02 369.425 Q238.83 369.425 241.885 374.031 Q244.964 378.615 244.964 387.365 Q244.964 396.091 241.885 400.698 Q238.83 405.281 233.02 405.281 Q227.209 405.281 224.131 400.698 Q221.075 396.091 221.075 387.365 Q221.075 378.615 224.131 374.031 Q227.209 369.425 233.02 369.425 Z" fill="#000000" fill-rule="nonzero" fill-opacity="1" /><path clip-path="url(#clip730)" d="M188.784 296.013 Q185.173 296.013 183.344 299.578 Q181.538 303.12 181.538 310.249 Q181.538 317.356 183.344 320.921 Q185.173 324.462 188.784 324.462 Q192.418 324.462 194.224 320.921 Q196.052 317.356 196.052 310.249 Q196.052 303.12 194.224 299.578 Q192.418 296.013 188.784 296.013 M188.784 292.31 Q194.594 292.31 197.649 296.916 Q200.728 301.499 200.728 310.249 Q200.728 318.976 197.649 323.583 Q194.594 328.166 188.784 328.166 Q182.974 328.166 179.895 323.583 Q176.839 318.976 176.839 310.249 Q176.839 301.499 179.895 296.916 Q182.974 292.31 188.784 292.31 Z" fill="#000000" fill-rule="nonzero" fill-opacity="1" /><path clip-path="url(#clip730)" d="M208.946 321.615 L213.83 321.615 L213.83 327.495 L208.946 327.495 L208.946 321.615 Z" fill="#000000" fill-rule="nonzero" fill-opacity="1" /><path clip-path="url(#clip730)" d="M224.061 292.935 L242.418 292.935 L242.418 296.87 L228.344 296.87 L228.344 305.342 Q229.362 304.995 230.381 304.833 Q231.399 304.647 232.418 304.647 Q238.205 304.647 241.584 307.819 Q244.964 310.99 244.964 316.407 Q244.964 321.985 241.492 325.087 Q238.02 328.166 231.7 328.166 Q229.524 328.166 227.256 327.796 Q225.01 327.425 222.603 326.684 L222.603 321.985 Q224.686 323.12 226.909 323.675 Q229.131 324.231 231.608 324.231 Q235.612 324.231 237.95 322.124 Q240.288 320.018 240.288 316.407 Q240.288 312.796 237.95 310.689 Q235.612 308.583 231.608 308.583 Q229.733 308.583 227.858 308.999 Q226.006 309.416 224.061 310.296 L224.061 292.935 Z" fill="#000000" fill-rule="nonzero" fill-opacity="1" /><path clip-path="url(#clip730)" d="M178.599 246.444 L186.237 246.444 L186.237 220.078 L177.927 221.745 L177.927 217.486 L186.191 215.819 L190.867 215.819 L190.867 246.444 L198.506 246.444 L198.506 250.379 L178.599 250.379 L178.599 246.444 Z" fill="#000000" fill-rule="nonzero" fill-opacity="1" /><path clip-path="url(#clip730)" d="M207.95 244.5 L212.835 244.5 L212.835 250.379 L207.95 250.379 L207.95 244.5 Z" fill="#000000" fill-rule="nonzero" fill-opacity="1" /><path clip-path="url(#clip730)" d="M233.02 218.898 Q229.409 218.898 227.58 222.463 Q225.774 226.004 225.774 233.134 Q225.774 240.24 227.58 243.805 Q229.409 247.347 233.02 247.347 Q236.654 247.347 238.459 243.805 Q240.288 240.24 240.288 233.134 Q240.288 226.004 238.459 222.463 Q236.654 218.898 233.02 218.898 M233.02 215.194 Q238.83 215.194 241.885 219.801 Q244.964 224.384 244.964 233.134 Q244.964 241.861 241.885 246.467 Q238.83 251.051 233.02 251.051 Q227.209 251.051 224.131 246.467 Q221.075 241.861 221.075 233.134 Q221.075 224.384 224.131 219.801 Q227.209 215.194 233.02 215.194 Z" fill="#000000" fill-rule="nonzero" fill-opacity="1" /><path clip-path="url(#clip730)" d="M179.594 169.329 L187.233 169.329 L187.233 142.963 L178.923 144.63 L178.923 140.371 L187.187 138.704 L191.862 138.704 L191.862 169.329 L199.501 169.329 L199.501 173.264 L179.594 173.264 L179.594 169.329 Z" fill="#000000" fill-rule="nonzero" fill-opacity="1" /><path clip-path="url(#clip730)" d="M208.946 167.384 L213.83 167.384 L213.83 173.264 L208.946 173.264 L208.946 167.384 Z" fill="#000000" fill-rule="nonzero" fill-opacity="1" /><path clip-path="url(#clip730)" d="M224.061 138.704 L242.418 138.704 L242.418 142.639 L228.344 142.639 L228.344 151.111 Q229.362 150.764 230.381 150.602 Q231.399 150.417 232.418 150.417 Q238.205 150.417 241.584 153.588 Q244.964 156.759 244.964 162.176 Q244.964 167.755 241.492 170.856 Q238.02 173.935 231.7 173.935 Q229.524 173.935 227.256 173.565 Q225.01 173.194 222.603 172.454 L222.603 167.755 Q224.686 168.889 226.909 169.444 Q229.131 170 231.608 170 Q235.612 170 237.95 167.894 Q240.288 165.787 240.288 162.176 Q240.288 158.565 237.95 156.458 Q235.612 154.352 231.608 154.352 Q229.733 154.352 227.858 154.769 Q226.006 155.185 224.061 156.065 L224.061 138.704 Z" fill="#000000" fill-rule="nonzero" fill-opacity="1" /><path clip-path="url(#clip730)" d="M58.9593 460.594 Q55.0126 458.397 53.1347 455.342 Q51.2568 452.286 51.2568 448.149 Q51.2568 442.579 55.1717 439.555 Q59.0548 436.531 66.2481 436.531 L87.7642 436.531 L87.7642 442.42 L66.439 442.42 Q61.3146 442.42 58.832 444.234 Q56.3494 446.048 56.3494 449.772 Q56.3494 454.323 59.3731 456.965 Q62.3968 459.607 67.6167 459.607 L87.7642 459.607 L87.7642 465.495 L66.439 465.495 Q61.2828 465.495 58.832 467.309 Q56.3494 469.124 56.3494 472.911 Q56.3494 477.399 59.4049 480.041 Q62.4286 482.683 67.6167 482.683 L87.7642 482.683 L87.7642 488.571 L52.1162 488.571 L52.1162 482.683 L57.6544 482.683 Q54.376 480.677 52.8164 477.877 Q51.2568 475.076 51.2568 471.224 Q51.2568 467.341 53.2302 464.636 Q55.2036 461.899 58.9593 460.594 Z" fill="#000000" fill-rule="nonzero" fill-opacity="1" /><path clip-path="url(#clip730)" d="M69.8447 408.649 Q69.8447 415.747 71.4679 418.485 Q73.0912 421.222 77.0061 421.222 Q80.1253 421.222 81.9714 419.185 Q83.7856 417.116 83.7856 413.583 Q83.7856 408.713 80.3481 405.785 Q76.8788 402.825 71.1497 402.825 L69.8447 402.825 L69.8447 408.649 M67.4257 396.968 L87.7642 396.968 L87.7642 402.825 L82.3533 402.825 Q85.5998 404.83 87.1594 407.822 Q88.6872 410.814 88.6872 415.143 Q88.6872 420.617 85.6316 423.864 Q82.5443 427.078 77.3881 427.078 Q71.3725 427.078 68.3169 423.068 Q65.2614 419.026 65.2614 411.037 L65.2614 402.825 L64.6885 402.825 Q60.6462 402.825 58.4501 405.498 Q56.2221 408.14 56.2221 412.946 Q56.2221 416.002 56.9541 418.898 Q57.6862 421.795 59.1503 424.468 L53.7395 424.468 Q52.4981 421.254 51.8934 418.23 Q51.2568 415.206 51.2568 412.342 Q51.2568 404.607 55.2672 400.788 Q59.2776 396.968 67.4257 396.968 Z" fill="#000000" fill-rule="nonzero" fill-opacity="1" /><path clip-path="url(#clip730)" d="M53.1665 362.18 L58.7047 362.18 Q57.4316 364.662 56.795 367.336 Q56.1584 370.01 56.1584 372.874 Q56.1584 377.235 57.4952 379.431 Q58.832 381.595 61.5056 381.595 Q63.5426 381.595 64.7203 380.036 Q65.8661 378.476 66.9165 373.765 L67.3621 371.76 Q68.6989 365.522 71.1497 362.912 Q73.5686 360.27 77.9291 360.27 Q82.8944 360.27 85.7908 364.217 Q88.6872 368.132 88.6872 375.007 Q88.6872 377.871 88.1143 380.99 Q87.5732 384.078 86.4592 387.515 L80.4118 387.515 Q82.0987 384.269 82.958 381.118 Q83.7856 377.967 83.7856 374.879 Q83.7856 370.742 82.3851 368.514 Q80.9529 366.286 78.3747 366.286 Q75.9876 366.286 74.7145 367.909 Q73.4413 369.5 72.2637 374.943 L71.7862 376.98 Q70.6404 382.423 68.2851 384.842 Q65.898 387.261 61.7602 387.261 Q56.7313 387.261 53.9941 383.696 Q51.2568 380.131 51.2568 373.574 Q51.2568 370.328 51.7343 367.463 Q52.2117 364.599 53.1665 362.18 Z" fill="#000000" fill-rule="nonzero" fill-opacity="1" /><path clip-path="url(#clip730)" d="M53.1665 328.219 L58.7047 328.219 Q57.4316 330.701 56.795 333.375 Q56.1584 336.049 56.1584 338.913 Q56.1584 343.274 57.4952 345.47 Q58.832 347.634 61.5056 347.634 Q63.5426 347.634 64.7203 346.075 Q65.8661 344.515 66.9165 339.804 L67.3621 337.799 Q68.6989 331.561 71.1497 328.951 Q73.5686 326.309 77.9291 326.309 Q82.8944 326.309 85.7908 330.256 Q88.6872 334.171 88.6872 341.046 Q88.6872 343.91 88.1143 347.029 Q87.5732 350.117 86.4592 353.554 L80.4118 353.554 Q82.0987 350.308 82.958 347.157 Q83.7856 344.006 83.7856 340.918 Q83.7856 336.781 82.3851 334.553 Q80.9529 332.325 78.3747 332.325 Q75.9876 332.325 74.7145 333.948 Q73.4413 335.539 72.2637 340.982 L71.7862 343.019 Q70.6404 348.462 68.2851 350.881 Q65.898 353.3 61.7602 353.3 Q56.7313 353.3 53.9941 349.735 Q51.2568 346.17 51.2568 339.613 Q51.2568 336.367 51.7343 333.502 Q52.2117 330.638 53.1665 328.219 Z" fill="#000000" fill-rule="nonzero" fill-opacity="1" /><path clip-path="url(#clip730)" d="M604.022 92.436 L604.022 119.82 L596.568 119.82 L596.568 92.679 Q596.568 86.2381 594.057 83.0379 Q591.545 79.8377 586.522 79.8377 Q580.486 79.8377 577.002 83.686 Q573.519 87.5344 573.519 94.1779 L573.519 119.82 L566.025 119.82 L566.025 74.45 L573.519 74.45 L573.519 81.4985 Q576.192 77.4071 579.798 75.3817 Q583.443 73.3562 588.183 73.3562 Q596.001 73.3562 600.012 78.2173 Q604.022 83.0379 604.022 92.436 Z" fill="#000000" fill-rule="nonzero" fill-opacity="1" /><path clip-path="url(#clip730)" d="M636.47 79.6756 Q630.474 79.6756 626.991 84.3747 Q623.507 89.0332 623.507 97.1755 Q623.507 105.318 626.95 110.017 Q630.434 114.675 636.47 114.675 Q642.425 114.675 645.908 109.976 Q649.392 105.277 649.392 97.1755 Q649.392 89.1142 645.908 84.4152 Q642.425 79.6756 636.47 79.6756 M636.47 73.3562 Q646.192 73.3562 651.742 79.6756 Q657.291 85.995 657.291 97.1755 Q657.291 108.316 651.742 114.675 Q646.192 120.995 636.47 120.995 Q626.707 120.995 621.157 114.675 Q615.648 108.316 615.648 97.1755 Q615.648 85.995 621.157 79.6756 Q626.707 73.3562 636.47 73.3562 Z" fill="#000000" fill-rule="nonzero" fill-opacity="1" /><path clip-path="url(#clip730)" d="M677.019 61.5681 L677.019 74.45 L692.372 74.45 L692.372 80.2428 L677.019 80.2428 L677.019 104.872 Q677.019 110.422 678.518 112.002 Q680.058 113.582 684.716 113.582 L692.372 113.582 L692.372 119.82 L684.716 119.82 Q676.088 119.82 672.806 116.62 Q669.525 113.379 669.525 104.872 L669.525 80.2428 L664.056 80.2428 L664.056 74.45 L669.525 74.45 L669.525 61.5681 L677.019 61.5681 Z" fill="#000000" fill-rule="nonzero" fill-opacity="1" /><path clip-path="url(#clip730)" d="M739.889 92.436 L739.889 119.82 L732.436 119.82 L732.436 92.679 Q732.436 86.2381 729.924 83.0379 Q727.413 79.8377 722.389 79.8377 Q716.354 79.8377 712.87 83.686 Q709.386 87.5344 709.386 94.1779 L709.386 119.82 L701.892 119.82 L701.892 56.788 L709.386 56.788 L709.386 81.4985 Q712.06 77.4071 715.665 75.3817 Q719.311 73.3562 724.05 73.3562 Q731.869 73.3562 735.879 78.2173 Q739.889 83.0379 739.889 92.436 Z" fill="#000000" fill-rule="nonzero" fill-opacity="1" /><path clip-path="url(#clip730)" d="M754.756 74.45 L762.21 74.45 L762.21 119.82 L754.756 119.82 L754.756 74.45 M754.756 56.788 L762.21 56.788 L762.21 66.2266 L754.756 66.2266 L754.756 56.788 Z" fill="#000000" fill-rule="nonzero" fill-opacity="1" /><path clip-path="url(#clip730)" d="M815.52 92.436 L815.52 119.82 L808.066 119.82 L808.066 92.679 Q808.066 86.2381 805.555 83.0379 Q803.043 79.8377 798.02 79.8377 Q791.984 79.8377 788.5 83.686 Q785.016 87.5344 785.016 94.1779 L785.016 119.82 L777.522 119.82 L777.522 74.45 L785.016 74.45 L785.016 81.4985 Q787.69 77.4071 791.295 75.3817 Q794.941 73.3562 799.681 73.3562 Q807.499 73.3562 811.509 78.2173 Q815.52 83.0379 815.52 92.436 Z" fill="#000000" fill-rule="nonzero" fill-opacity="1" /><path clip-path="url(#clip730)" d="M860.242 96.6084 Q860.242 88.5066 856.879 84.0506 Q853.558 79.5946 847.522 79.5946 Q841.527 79.5946 838.164 84.0506 Q834.843 88.5066 834.843 96.6084 Q834.843 104.67 838.164 109.126 Q841.527 113.582 847.522 113.582 Q853.558 113.582 856.879 109.126 Q860.242 104.67 860.242 96.6084 M867.695 114.189 Q867.695 125.775 862.551 131.406 Q857.406 137.077 846.793 137.077 Q842.863 137.077 839.38 136.469 Q835.896 135.902 832.615 134.687 L832.615 127.436 Q835.896 129.218 839.096 130.069 Q842.296 130.92 845.618 130.92 Q852.95 130.92 856.596 127.071 Q860.242 123.263 860.242 115.526 L860.242 111.84 Q857.933 115.85 854.327 117.835 Q850.722 119.82 845.699 119.82 Q837.354 119.82 832.25 113.46 Q827.146 107.1 827.146 96.6084 Q827.146 86.0761 832.25 79.7161 Q837.354 73.3562 845.699 73.3562 Q850.722 73.3562 854.327 75.3412 Q857.933 77.3261 860.242 81.3365 L860.242 74.45 L867.695 74.45 L867.695 114.189 Z" fill="#000000" fill-rule="nonzero" fill-opacity="1" /><polyline clip-path="url(#clip732)" style="stroke:#009af9; stroke-linecap:round; stroke-linejoin:round; stroke-width:4; stroke-opacity:1; fill:none" points="305.637,422.566 397.02,438.174 488.403,618.485 579.786,328.936 671.169,436.205 762.551,301.767 853.934,508.877 945.317,646.806 1036.7,168.074 1128.08,500.615 "/>
<path clip-path="url(#clip730)" d="M1480.96 661.168 L2352.76 661.168 L2352.76 153.712 L1480.96 153.712  Z" fill="#ffffff" fill-rule="evenodd" fill-opacity="1"/>
<defs>
  <clipPath id="clip733">
    <rect x="1480" y="153" width="873" height="508"/>
  </clipPath>
</defs>
<polyline clip-path="url(#clip733)" style="stroke:#000000; stroke-linecap:round; stroke-linejoin:round; stroke-width:2; stroke-opacity:0.1; fill:none" points="1597.02,661.168 1597.02,153.712 "/>
<polyline clip-path="url(#clip733)" style="stroke:#000000; stroke-linecap:round; stroke-linejoin:round; stroke-width:2; stroke-opacity:0.1; fill:none" points="1779.79,661.168 1779.79,153.712 "/>
<polyline clip-path="url(#clip733)" style="stroke:#000000; stroke-linecap:round; stroke-linejoin:round; stroke-width:2; stroke-opacity:0.1; fill:none" points="1962.55,661.168 1962.55,153.712 "/>
<polyline clip-path="url(#clip733)" style="stroke:#000000; stroke-linecap:round; stroke-linejoin:round; stroke-width:2; stroke-opacity:0.1; fill:none" points="2145.32,661.168 2145.32,153.712 "/>
<polyline clip-path="url(#clip733)" style="stroke:#000000; stroke-linecap:round; stroke-linejoin:round; stroke-width:2; stroke-opacity:0.1; fill:none" points="2328.08,661.168 2328.08,153.712 "/>
<polyline clip-path="url(#clip733)" style="stroke:#000000; stroke-linecap:round; stroke-linejoin:round; stroke-width:2; stroke-opacity:0.1; fill:none" points="1480.96,618.676 2352.76,618.676 "/>
<polyline clip-path="url(#clip733)" style="stroke:#000000; stroke-linecap:round; stroke-linejoin:round; stroke-width:2; stroke-opacity:0.1; fill:none" points="1480.96,541.561 2352.76,541.561 "/>
<polyline clip-path="url(#clip733)" style="stroke:#000000; stroke-linecap:round; stroke-linejoin:round; stroke-width:2; stroke-opacity:0.1; fill:none" points="1480.96,464.445 2352.76,464.445 "/>
<polyline clip-path="url(#clip733)" style="stroke:#000000; stroke-linecap:round; stroke-linejoin:round; stroke-width:2; stroke-opacity:0.1; fill:none" points="1480.96,387.33 2352.76,387.33 "/>
<polyline clip-path="url(#clip733)" style="stroke:#000000; stroke-linecap:round; stroke-linejoin:round; stroke-width:2; stroke-opacity:0.1; fill:none" points="1480.96,310.215 2352.76,310.215 "/>
<polyline clip-path="url(#clip733)" style="stroke:#000000; stroke-linecap:round; stroke-linejoin:round; stroke-width:2; stroke-opacity:0.1; fill:none" points="1480.96,233.099 2352.76,233.099 "/>
<polyline clip-path="url(#clip733)" style="stroke:#000000; stroke-linecap:round; stroke-linejoin:round; stroke-width:2; stroke-opacity:0.1; fill:none" points="1480.96,155.984 2352.76,155.984 "/>
<polyline clip-path="url(#clip730)" style="stroke:#000000; stroke-linecap:round; stroke-linejoin:round; stroke-width:4; stroke-opacity:1; fill:none" points="1480.96,661.168 2352.76,661.168 "/>
<polyline clip-path="url(#clip730)" style="stroke:#000000; stroke-linecap:round; stroke-linejoin:round; stroke-width:4; stroke-opacity:1; fill:none" points="1597.02,661.168 1597.02,642.27 "/>
<polyline clip-path="url(#clip730)" style="stroke:#000000; stroke-linecap:round; stroke-linejoin:round; stroke-width:4; stroke-opacity:1; fill:none" points="1779.79,661.168 1779.79,642.27 "/>
<polyline clip-path="url(#clip730)" style="stroke:#000000; stroke-linecap:round; stroke-linejoin:round; stroke-width:4; stroke-opacity:1; fill:none" points="1962.55,661.168 1962.55,642.27 "/>
<polyline clip-path="url(#clip730)" style="stroke:#000000; stroke-linecap:round; stroke-linejoin:round; stroke-width:4; stroke-opacity:1; fill:none" points="2145.32,661.168 2145.32,642.27 "/>
<polyline clip-path="url(#clip730)" style="stroke:#000000; stroke-linecap:round; stroke-linejoin:round; stroke-width:4; stroke-opacity:1; fill:none" points="2328.08,661.168 2328.08,642.27 "/>
<path clip-path="url(#clip730)" d="M1591.67 719.633 L1607.99 719.633 L1607.99 723.568 L1586.05 723.568 L1586.05 719.633 Q1588.71 716.878 1593.29 712.248 Q1597.9 707.596 1599.08 706.253 Q1601.33 703.73 1602.21 701.994 Q1603.11 700.235 1603.11 698.545 Q1603.11 695.79 1601.16 694.054 Q1599.24 692.318 1596.14 692.318 Q1593.94 692.318 1591.49 693.082 Q1589.06 693.846 1586.28 695.397 L1586.28 690.675 Q1589.1 689.54 1591.56 688.962 Q1594.01 688.383 1596.05 688.383 Q1601.42 688.383 1604.61 691.068 Q1607.81 693.753 1607.81 698.244 Q1607.81 700.374 1607 702.295 Q1606.21 704.193 1604.1 706.786 Q1603.52 707.457 1600.42 710.674 Q1597.32 713.869 1591.67 719.633 Z" fill="#000000" fill-rule="nonzero" fill-opacity="1" /><path clip-path="url(#clip730)" d="M1782.8 693.082 L1770.99 711.531 L1782.8 711.531 L1782.8 693.082 M1781.57 689.008 L1787.45 689.008 L1787.45 711.531 L1792.38 711.531 L1792.38 715.42 L1787.45 715.42 L1787.45 723.568 L1782.8 723.568 L1782.8 715.42 L1767.19 715.42 L1767.19 710.906 L1781.57 689.008 Z" fill="#000000" fill-rule="nonzero" fill-opacity="1" /><path clip-path="url(#clip730)" d="M1962.96 704.424 Q1959.81 704.424 1957.96 706.577 Q1956.13 708.73 1956.13 712.48 Q1956.13 716.207 1957.96 718.383 Q1959.81 720.535 1962.96 720.535 Q1966.1 720.535 1967.93 718.383 Q1969.79 716.207 1969.79 712.48 Q1969.79 708.73 1967.93 706.577 Q1966.1 704.424 1962.96 704.424 M1972.24 689.772 L1972.24 694.031 Q1970.48 693.198 1968.67 692.758 Q1966.89 692.318 1965.13 692.318 Q1960.5 692.318 1958.05 695.443 Q1955.62 698.568 1955.27 704.887 Q1956.64 702.874 1958.7 701.809 Q1960.76 700.721 1963.23 700.721 Q1968.44 700.721 1971.45 703.892 Q1974.48 707.04 1974.48 712.48 Q1974.48 717.804 1971.34 721.022 Q1968.19 724.239 1962.96 724.239 Q1956.96 724.239 1953.79 719.656 Q1950.62 715.049 1950.62 706.323 Q1950.62 698.128 1954.51 693.267 Q1958.4 688.383 1964.95 688.383 Q1966.71 688.383 1968.49 688.73 Q1970.29 689.077 1972.24 689.772 Z" fill="#000000" fill-rule="nonzero" fill-opacity="1" /><path clip-path="url(#clip730)" d="M2145.32 707.156 Q2141.98 707.156 2140.06 708.938 Q2138.16 710.721 2138.16 713.846 Q2138.16 716.971 2140.06 718.753 Q2141.98 720.535 2145.32 720.535 Q2148.65 720.535 2150.57 718.753 Q2152.49 716.948 2152.49 713.846 Q2152.49 710.721 2150.57 708.938 Q2148.67 707.156 2145.32 707.156 M2140.64 705.165 Q2137.63 704.424 2135.94 702.364 Q2134.28 700.304 2134.28 697.341 Q2134.28 693.198 2137.22 690.79 Q2140.18 688.383 2145.32 688.383 Q2150.48 688.383 2153.42 690.79 Q2156.36 693.198 2156.36 697.341 Q2156.36 700.304 2154.67 702.364 Q2153 704.424 2150.02 705.165 Q2153.4 705.952 2155.27 708.244 Q2157.17 710.536 2157.17 713.846 Q2157.17 718.869 2154.09 721.554 Q2151.03 724.239 2145.32 724.239 Q2139.6 724.239 2136.52 721.554 Q2133.47 718.869 2133.47 713.846 Q2133.47 710.536 2135.36 708.244 Q2137.26 705.952 2140.64 705.165 M2138.93 697.781 Q2138.93 700.466 2140.59 701.971 Q2142.28 703.475 2145.32 703.475 Q2148.33 703.475 2150.02 701.971 Q2151.73 700.466 2151.73 697.781 Q2151.73 695.096 2150.02 693.591 Q2148.33 692.087 2145.32 692.087 Q2142.28 692.087 2140.59 693.591 Q2138.93 695.096 2138.93 697.781 Z" fill="#000000" fill-rule="nonzero" fill-opacity="1" /><path clip-path="url(#clip730)" d="M2302.77 719.633 L2310.41 719.633 L2310.41 693.267 L2302.1 694.934 L2302.1 690.675 L2310.36 689.008 L2315.04 689.008 L2315.04 719.633 L2322.68 719.633 L2322.68 723.568 L2302.77 723.568 L2302.77 719.633 Z" fill="#000000" fill-rule="nonzero" fill-opacity="1" /><path clip-path="url(#clip730)" d="M2342.12 692.087 Q2338.51 692.087 2336.68 695.651 Q2334.88 699.193 2334.88 706.323 Q2334.88 713.429 2336.68 716.994 Q2338.51 720.535 2342.12 720.535 Q2345.76 720.535 2347.56 716.994 Q2349.39 713.429 2349.39 706.323 Q2349.39 699.193 2347.56 695.651 Q2345.76 692.087 2342.12 692.087 M2342.12 688.383 Q2347.93 688.383 2350.99 692.989 Q2354.07 697.573 2354.07 706.323 Q2354.07 715.049 2350.99 719.656 Q2347.93 724.239 2342.12 724.239 Q2336.31 724.239 2333.23 719.656 Q2330.18 715.049 2330.18 706.323 Q2330.18 697.573 2333.23 692.989 Q2336.31 688.383 2342.12 688.383 Z" fill="#000000" fill-rule="nonzero" fill-opacity="1" /><polyline clip-path="url(#clip730)" style="stroke:#000000; stroke-linecap:round; stroke-linejoin:round; stroke-width:4; stroke-opacity:1; fill:none" points="1480.96,661.168 1480.96,153.712 "/>
<polyline clip-path="url(#clip730)" style="stroke:#000000; stroke-linecap:round; stroke-linejoin:round; stroke-width:4; stroke-opacity:1; fill:none" points="1480.96,618.676 1499.86,618.676 "/>
<polyline clip-path="url(#clip730)" style="stroke:#000000; stroke-linecap:round; stroke-linejoin:round; stroke-width:4; stroke-opacity:1; fill:none" points="1480.96,541.561 1499.86,541.561 "/>
<polyline clip-path="url(#clip730)" style="stroke:#000000; stroke-linecap:round; stroke-linejoin:round; stroke-width:4; stroke-opacity:1; fill:none" points="1480.96,464.445 1499.86,464.445 "/>
<polyline clip-path="url(#clip730)" style="stroke:#000000; stroke-linecap:round; stroke-linejoin:round; stroke-width:4; stroke-opacity:1; fill:none" points="1480.96,387.33 1499.86,387.33 "/>
<polyline clip-path="url(#clip730)" style="stroke:#000000; stroke-linecap:round; stroke-linejoin:round; stroke-width:4; stroke-opacity:1; fill:none" points="1480.96,310.215 1499.86,310.215 "/>
<polyline clip-path="url(#clip730)" style="stroke:#000000; stroke-linecap:round; stroke-linejoin:round; stroke-width:4; stroke-opacity:1; fill:none" points="1480.96,233.099 1499.86,233.099 "/>
<polyline clip-path="url(#clip730)" style="stroke:#000000; stroke-linecap:round; stroke-linejoin:round; stroke-width:4; stroke-opacity:1; fill:none" points="1480.96,155.984 1499.86,155.984 "/>
<path clip-path="url(#clip730)" d="M1339.02 619.127 L1368.69 619.127 L1368.69 623.063 L1339.02 623.063 L1339.02 619.127 Z" fill="#000000" fill-rule="nonzero" fill-opacity="1" /><path clip-path="url(#clip730)" d="M1379.59 632.021 L1387.23 632.021 L1387.23 605.655 L1378.92 607.322 L1378.92 603.063 L1387.19 601.396 L1391.86 601.396 L1391.86 632.021 L1399.5 632.021 L1399.5 635.956 L1379.59 635.956 L1379.59 632.021 Z" fill="#000000" fill-rule="nonzero" fill-opacity="1" /><path clip-path="url(#clip730)" d="M1408.95 630.076 L1413.83 630.076 L1413.83 635.956 L1408.95 635.956 L1408.95 630.076 Z" fill="#000000" fill-rule="nonzero" fill-opacity="1" /><path clip-path="url(#clip730)" d="M1424.06 601.396 L1442.42 601.396 L1442.42 605.331 L1428.34 605.331 L1428.34 613.803 Q1429.36 613.456 1430.38 613.294 Q1431.4 613.109 1432.42 613.109 Q1438.2 613.109 1441.58 616.28 Q1444.96 619.451 1444.96 624.868 Q1444.96 630.447 1441.49 633.549 Q1438.02 636.627 1431.7 636.627 Q1429.52 636.627 1427.26 636.257 Q1425.01 635.887 1422.6 635.146 L1422.6 630.447 Q1424.69 631.581 1426.91 632.137 Q1429.13 632.692 1431.61 632.692 Q1435.61 632.692 1437.95 630.586 Q1440.29 628.479 1440.29 624.868 Q1440.29 621.257 1437.95 619.15 Q1435.61 617.044 1431.61 617.044 Q1429.73 617.044 1427.86 617.461 Q1426.01 617.877 1424.06 618.757 L1424.06 601.396 Z" fill="#000000" fill-rule="nonzero" fill-opacity="1" /><path clip-path="url(#clip730)" d="M1338.02 542.012 L1367.7 542.012 L1367.7 545.947 L1338.02 545.947 L1338.02 542.012 Z" fill="#000000" fill-rule="nonzero" fill-opacity="1" /><path clip-path="url(#clip730)" d="M1378.6 554.905 L1386.24 554.905 L1386.24 528.54 L1377.93 530.207 L1377.93 525.947 L1386.19 524.281 L1390.87 524.281 L1390.87 554.905 L1398.51 554.905 L1398.51 558.841 L1378.6 558.841 L1378.6 554.905 Z" fill="#000000" fill-rule="nonzero" fill-opacity="1" /><path clip-path="url(#clip730)" d="M1407.95 552.961 L1412.83 552.961 L1412.83 558.841 L1407.95 558.841 L1407.95 552.961 Z" fill="#000000" fill-rule="nonzero" fill-opacity="1" /><path clip-path="url(#clip730)" d="M1433.02 527.359 Q1429.41 527.359 1427.58 530.924 Q1425.77 534.466 1425.77 541.595 Q1425.77 548.702 1427.58 552.267 Q1429.41 555.808 1433.02 555.808 Q1436.65 555.808 1438.46 552.267 Q1440.29 548.702 1440.29 541.595 Q1440.29 534.466 1438.46 530.924 Q1436.65 527.359 1433.02 527.359 M1433.02 523.656 Q1438.83 523.656 1441.89 528.262 Q1444.96 532.845 1444.96 541.595 Q1444.96 550.322 1441.89 554.929 Q1438.83 559.512 1433.02 559.512 Q1427.21 559.512 1424.13 554.929 Q1421.08 550.322 1421.08 541.595 Q1421.08 532.845 1424.13 528.262 Q1427.21 523.656 1433.02 523.656 Z" fill="#000000" fill-rule="nonzero" fill-opacity="1" /><path clip-path="url(#clip730)" d="M1339.02 464.897 L1368.69 464.897 L1368.69 468.832 L1339.02 468.832 L1339.02 464.897 Z" fill="#000000" fill-rule="nonzero" fill-opacity="1" /><path clip-path="url(#clip730)" d="M1388.78 450.244 Q1385.17 450.244 1383.34 453.809 Q1381.54 457.35 1381.54 464.48 Q1381.54 471.586 1383.34 475.151 Q1385.17 478.693 1388.78 478.693 Q1392.42 478.693 1394.22 475.151 Q1396.05 471.586 1396.05 464.48 Q1396.05 457.35 1394.22 453.809 Q1392.42 450.244 1388.78 450.244 M1388.78 446.54 Q1394.59 446.54 1397.65 451.147 Q1400.73 455.73 1400.73 464.48 Q1400.73 473.207 1397.65 477.813 Q1394.59 482.397 1388.78 482.397 Q1382.97 482.397 1379.89 477.813 Q1376.84 473.207 1376.84 464.48 Q1376.84 455.73 1379.89 451.147 Q1382.97 446.54 1388.78 446.54 Z" fill="#000000" fill-rule="nonzero" fill-opacity="1" /><path clip-path="url(#clip730)" d="M1408.95 475.846 L1413.83 475.846 L1413.83 481.725 L1408.95 481.725 L1408.95 475.846 Z" fill="#000000" fill-rule="nonzero" fill-opacity="1" /><path clip-path="url(#clip730)" d="M1424.06 447.165 L1442.42 447.165 L1442.42 451.1 L1428.34 451.1 L1428.34 459.573 Q1429.36 459.225 1430.38 459.063 Q1431.4 458.878 1432.42 458.878 Q1438.2 458.878 1441.58 462.049 Q1444.96 465.221 1444.96 470.637 Q1444.96 476.216 1441.49 479.318 Q1438.02 482.397 1431.7 482.397 Q1429.52 482.397 1427.26 482.026 Q1425.01 481.656 1422.6 480.915 L1422.6 476.216 Q1424.69 477.35 1426.91 477.906 Q1429.13 478.461 1431.61 478.461 Q1435.61 478.461 1437.95 476.355 Q1440.29 474.248 1440.29 470.637 Q1440.29 467.026 1437.95 464.92 Q1435.61 462.813 1431.61 462.813 Q1429.73 462.813 1427.86 463.23 Q1426.01 463.647 1424.06 464.526 L1424.06 447.165 Z" fill="#000000" fill-rule="nonzero" fill-opacity="1" /><path clip-path="url(#clip730)" d="M1387.79 373.129 Q1384.18 373.129 1382.35 376.693 Q1380.54 380.235 1380.54 387.365 Q1380.54 394.471 1382.35 398.036 Q1384.18 401.578 1387.79 401.578 Q1391.42 401.578 1393.23 398.036 Q1395.06 394.471 1395.06 387.365 Q1395.06 380.235 1393.23 376.693 Q1391.42 373.129 1387.79 373.129 M1387.79 369.425 Q1393.6 369.425 1396.65 374.031 Q1399.73 378.615 1399.73 387.365 Q1399.73 396.091 1396.65 400.698 Q1393.6 405.281 1387.79 405.281 Q1381.98 405.281 1378.9 400.698 Q1375.84 396.091 1375.84 387.365 Q1375.84 378.615 1378.9 374.031 Q1381.98 369.425 1387.79 369.425 Z" fill="#000000" fill-rule="nonzero" fill-opacity="1" /><path clip-path="url(#clip730)" d="M1407.95 398.73 L1412.83 398.73 L1412.83 404.61 L1407.95 404.61 L1407.95 398.73 Z" fill="#000000" fill-rule="nonzero" fill-opacity="1" /><path clip-path="url(#clip730)" d="M1433.02 373.129 Q1429.41 373.129 1427.58 376.693 Q1425.77 380.235 1425.77 387.365 Q1425.77 394.471 1427.58 398.036 Q1429.41 401.578 1433.02 401.578 Q1436.65 401.578 1438.46 398.036 Q1440.29 394.471 1440.29 387.365 Q1440.29 380.235 1438.46 376.693 Q1436.65 373.129 1433.02 373.129 M1433.02 369.425 Q1438.83 369.425 1441.89 374.031 Q1444.96 378.615 1444.96 387.365 Q1444.96 396.091 1441.89 400.698 Q1438.83 405.281 1433.02 405.281 Q1427.21 405.281 1424.13 400.698 Q1421.08 396.091 1421.08 387.365 Q1421.08 378.615 1424.13 374.031 Q1427.21 369.425 1433.02 369.425 Z" fill="#000000" fill-rule="nonzero" fill-opacity="1" /><path clip-path="url(#clip730)" d="M1388.78 296.013 Q1385.17 296.013 1383.34 299.578 Q1381.54 303.12 1381.54 310.249 Q1381.54 317.356 1383.34 320.921 Q1385.17 324.462 1388.78 324.462 Q1392.42 324.462 1394.22 320.921 Q1396.05 317.356 1396.05 310.249 Q1396.05 303.12 1394.22 299.578 Q1392.42 296.013 1388.78 296.013 M1388.78 292.31 Q1394.59 292.31 1397.65 296.916 Q1400.73 301.499 1400.73 310.249 Q1400.73 318.976 1397.65 323.583 Q1394.59 328.166 1388.78 328.166 Q1382.97 328.166 1379.89 323.583 Q1376.84 318.976 1376.84 310.249 Q1376.84 301.499 1379.89 296.916 Q1382.97 292.31 1388.78 292.31 Z" fill="#000000" fill-rule="nonzero" fill-opacity="1" /><path clip-path="url(#clip730)" d="M1408.95 321.615 L1413.83 321.615 L1413.83 327.495 L1408.95 327.495 L1408.95 321.615 Z" fill="#000000" fill-rule="nonzero" fill-opacity="1" /><path clip-path="url(#clip730)" d="M1424.06 292.935 L1442.42 292.935 L1442.42 296.87 L1428.34 296.87 L1428.34 305.342 Q1429.36 304.995 1430.38 304.833 Q1431.4 304.647 1432.42 304.647 Q1438.2 304.647 1441.58 307.819 Q1444.96 310.99 1444.96 316.407 Q1444.96 321.985 1441.49 325.087 Q1438.02 328.166 1431.7 328.166 Q1429.52 328.166 1427.26 327.796 Q1425.01 327.425 1422.6 326.684 L1422.6 321.985 Q1424.69 323.12 1426.91 323.675 Q1429.13 324.231 1431.61 324.231 Q1435.61 324.231 1437.95 322.124 Q1440.29 320.018 1440.29 316.407 Q1440.29 312.796 1437.95 310.689 Q1435.61 308.583 1431.61 308.583 Q1429.73 308.583 1427.86 308.999 Q1426.01 309.416 1424.06 310.296 L1424.06 292.935 Z" fill="#000000" fill-rule="nonzero" fill-opacity="1" /><path clip-path="url(#clip730)" d="M1378.6 246.444 L1386.24 246.444 L1386.24 220.078 L1377.93 221.745 L1377.93 217.486 L1386.19 215.819 L1390.87 215.819 L1390.87 246.444 L1398.51 246.444 L1398.51 250.379 L1378.6 250.379 L1378.6 246.444 Z" fill="#000000" fill-rule="nonzero" fill-opacity="1" /><path clip-path="url(#clip730)" d="M1407.95 244.5 L1412.83 244.5 L1412.83 250.379 L1407.95 250.379 L1407.95 244.5 Z" fill="#000000" fill-rule="nonzero" fill-opacity="1" /><path clip-path="url(#clip730)" d="M1433.02 218.898 Q1429.41 218.898 1427.58 222.463 Q1425.77 226.004 1425.77 233.134 Q1425.77 240.24 1427.58 243.805 Q1429.41 247.347 1433.02 247.347 Q1436.65 247.347 1438.46 243.805 Q1440.29 240.24 1440.29 233.134 Q1440.29 226.004 1438.46 222.463 Q1436.65 218.898 1433.02 218.898 M1433.02 215.194 Q1438.83 215.194 1441.89 219.801 Q1444.96 224.384 1444.96 233.134 Q1444.96 241.861 1441.89 246.467 Q1438.83 251.051 1433.02 251.051 Q1427.21 251.051 1424.13 246.467 Q1421.08 241.861 1421.08 233.134 Q1421.08 224.384 1424.13 219.801 Q1427.21 215.194 1433.02 215.194 Z" fill="#000000" fill-rule="nonzero" fill-opacity="1" /><path clip-path="url(#clip730)" d="M1379.59 169.329 L1387.23 169.329 L1387.23 142.963 L1378.92 144.63 L1378.92 140.371 L1387.19 138.704 L1391.86 138.704 L1391.86 169.329 L1399.5 169.329 L1399.5 173.264 L1379.59 173.264 L1379.59 169.329 Z" fill="#000000" fill-rule="nonzero" fill-opacity="1" /><path clip-path="url(#clip730)" d="M1408.95 167.384 L1413.83 167.384 L1413.83 173.264 L1408.95 173.264 L1408.95 167.384 Z" fill="#000000" fill-rule="nonzero" fill-opacity="1" /><path clip-path="url(#clip730)" d="M1424.06 138.704 L1442.42 138.704 L1442.42 142.639 L1428.34 142.639 L1428.34 151.111 Q1429.36 150.764 1430.38 150.602 Q1431.4 150.417 1432.42 150.417 Q1438.2 150.417 1441.58 153.588 Q1444.96 156.759 1444.96 162.176 Q1444.96 167.755 1441.49 170.856 Q1438.02 173.935 1431.7 173.935 Q1429.52 173.935 1427.26 173.565 Q1425.01 173.194 1422.6 172.454 L1422.6 167.755 Q1424.69 168.889 1426.91 169.444 Q1429.13 170 1431.61 170 Q1435.61 170 1437.95 167.894 Q1440.29 165.787 1440.29 162.176 Q1440.29 158.565 1437.95 156.458 Q1435.61 154.352 1431.61 154.352 Q1429.73 154.352 1427.86 154.769 Q1426.01 155.185 1424.06 156.065 L1424.06 138.704 Z" fill="#000000" fill-rule="nonzero" fill-opacity="1" /><path clip-path="url(#clip730)" d="M1258.96 534.738 Q1255.01 532.542 1253.13 529.487 Q1251.26 526.431 1251.26 522.293 Q1251.26 516.723 1255.17 513.7 Q1259.05 510.676 1266.25 510.676 L1287.76 510.676 L1287.76 516.564 L1266.44 516.564 Q1261.31 516.564 1258.83 518.378 Q1256.35 520.193 1256.35 523.917 Q1256.35 528.468 1259.37 531.11 Q1262.4 533.752 1267.62 533.752 L1287.76 533.752 L1287.76 539.64 L1266.44 539.64 Q1261.28 539.64 1258.83 541.454 Q1256.35 543.268 1256.35 547.056 Q1256.35 551.544 1259.4 554.185 Q1262.43 556.827 1267.62 556.827 L1287.76 556.827 L1287.76 562.715 L1252.12 562.715 L1252.12 556.827 L1257.65 556.827 Q1254.38 554.822 1252.82 552.021 Q1251.26 549.22 1251.26 545.369 Q1251.26 541.486 1253.23 538.78 Q1255.2 536.043 1258.96 534.738 Z" fill="#000000" fill-rule="nonzero" fill-opacity="1" /><path clip-path="url(#clip730)" d="M1269.84 482.794 Q1269.84 489.892 1271.47 492.629 Q1273.09 495.366 1277.01 495.366 Q1280.13 495.366 1281.97 493.329 Q1283.79 491.26 1283.79 487.727 Q1283.79 482.858 1280.35 479.929 Q1276.88 476.969 1271.15 476.969 L1269.84 476.969 L1269.84 482.794 M1267.43 471.113 L1287.76 471.113 L1287.76 476.969 L1282.35 476.969 Q1285.6 478.975 1287.16 481.967 Q1288.69 484.958 1288.69 489.287 Q1288.69 494.762 1285.63 498.008 Q1282.54 501.223 1277.39 501.223 Q1271.37 501.223 1268.32 497.212 Q1265.26 493.17 1265.26 485.181 L1265.26 476.969 L1264.69 476.969 Q1260.65 476.969 1258.45 479.643 Q1256.22 482.285 1256.22 487.091 Q1256.22 490.146 1256.95 493.043 Q1257.69 495.939 1259.15 498.613 L1253.74 498.613 Q1252.5 495.398 1251.89 492.374 Q1251.26 489.351 1251.26 486.486 Q1251.26 478.752 1255.27 474.932 Q1259.28 471.113 1267.43 471.113 Z" fill="#000000" fill-rule="nonzero" fill-opacity="1" /><path clip-path="url(#clip730)" d="M1253.17 436.324 L1258.7 436.324 Q1257.43 438.807 1256.79 441.481 Q1256.16 444.154 1256.16 447.019 Q1256.16 451.379 1257.5 453.575 Q1258.83 455.74 1261.51 455.74 Q1263.54 455.74 1264.72 454.18 Q1265.87 452.621 1266.92 447.91 L1267.36 445.905 Q1268.7 439.666 1271.15 437.056 Q1273.57 434.415 1277.93 434.415 Q1282.89 434.415 1285.79 438.361 Q1288.69 442.276 1288.69 449.151 Q1288.69 452.016 1288.11 455.135 Q1287.57 458.222 1286.46 461.66 L1280.41 461.66 Q1282.1 458.413 1282.96 455.262 Q1283.79 452.111 1283.79 449.024 Q1283.79 444.886 1282.39 442.658 Q1280.95 440.43 1278.37 440.43 Q1275.99 440.43 1274.71 442.054 Q1273.44 443.645 1272.26 449.088 L1271.79 451.125 Q1270.64 456.567 1268.29 458.986 Q1265.9 461.405 1261.76 461.405 Q1256.73 461.405 1253.99 457.84 Q1251.26 454.276 1251.26 447.719 Q1251.26 444.472 1251.73 441.608 Q1252.21 438.743 1253.17 436.324 Z" fill="#000000" fill-rule="nonzero" fill-opacity="1" /><path clip-path="url(#clip730)" d="M1253.17 402.363 L1258.7 402.363 Q1257.43 404.846 1256.79 407.52 Q1256.16 410.193 1256.16 413.058 Q1256.16 417.418 1257.5 419.614 Q1258.83 421.779 1261.51 421.779 Q1263.54 421.779 1264.72 420.219 Q1265.87 418.66 1266.92 413.949 L1267.36 411.944 Q1268.7 405.705 1271.15 403.095 Q1273.57 400.454 1277.93 400.454 Q1282.89 400.454 1285.79 404.4 Q1288.69 408.315 1288.69 415.19 Q1288.69 418.055 1288.11 421.174 Q1287.57 424.261 1286.46 427.699 L1280.41 427.699 Q1282.1 424.452 1282.96 421.301 Q1283.79 418.15 1283.79 415.063 Q1283.79 410.925 1282.39 408.697 Q1280.95 406.469 1278.37 406.469 Q1275.99 406.469 1274.71 408.092 Q1273.44 409.684 1272.26 415.127 L1271.79 417.164 Q1270.64 422.606 1268.29 425.025 Q1265.9 427.444 1261.76 427.444 Q1256.73 427.444 1253.99 423.879 Q1251.26 420.315 1251.26 413.758 Q1251.26 410.511 1251.73 407.647 Q1252.21 404.782 1253.17 402.363 Z" fill="#000000" fill-rule="nonzero" fill-opacity="1" /><path clip-path="url(#clip730)" d="M1238.3 356.339 Q1245.62 360.604 1252.78 362.673 Q1259.95 364.742 1267.3 364.742 Q1274.65 364.742 1281.88 362.673 Q1289.07 360.572 1296.36 356.339 L1296.36 361.432 Q1288.88 366.206 1281.65 368.593 Q1274.43 370.949 1267.3 370.949 Q1260.2 370.949 1253.01 368.593 Q1245.81 366.238 1238.3 361.432 L1238.3 356.339 Z" fill="#000000" fill-rule="nonzero" fill-opacity="1" /><path clip-path="url(#clip730)" d="M1238.24 345.199 L1238.24 339.311 L1267.49 339.311 L1252.12 321.837 L1252.12 314.357 L1268.79 333.264 L1287.76 313.562 L1287.76 321.201 L1270.35 339.311 L1287.76 339.311 L1287.76 345.199 L1238.24 345.199 Z" fill="#000000" fill-rule="nonzero" fill-opacity="1" /><path clip-path="url(#clip730)" d="M1269.53 283.77 Q1263.16 283.77 1259.66 286.412 Q1256.16 289.022 1256.16 293.764 Q1256.16 298.475 1259.66 301.117 Q1263.16 303.727 1269.53 303.727 Q1275.86 303.727 1279.36 301.117 Q1282.86 298.475 1282.86 293.764 Q1282.86 289.022 1279.36 286.412 Q1275.86 283.77 1269.53 283.77 M1283.34 277.914 Q1292.44 277.914 1296.87 281.956 Q1301.32 285.998 1301.32 294.337 Q1301.32 297.425 1300.85 300.162 Q1300.4 302.899 1299.45 305.477 L1293.75 305.477 Q1295.15 302.899 1295.82 300.385 Q1296.49 297.87 1296.49 295.26 Q1296.49 289.499 1293.46 286.635 Q1290.47 283.77 1284.39 283.77 L1281.49 283.77 Q1284.64 285.584 1286.2 288.417 Q1287.76 291.25 1287.76 295.197 Q1287.76 301.753 1282.77 305.764 Q1277.77 309.774 1269.53 309.774 Q1261.25 309.774 1256.25 305.764 Q1251.26 301.753 1251.26 295.197 Q1251.26 291.25 1252.82 288.417 Q1254.38 285.584 1257.53 283.77 L1252.12 283.77 L1252.12 277.914 L1283.34 277.914 Z" fill="#000000" fill-rule="nonzero" fill-opacity="1" /><path clip-path="url(#clip730)" d="M1238.3 266.774 L1238.3 261.681 Q1245.81 256.907 1253.01 254.552 Q1260.2 252.165 1267.3 252.165 Q1274.43 252.165 1281.65 254.552 Q1288.88 256.907 1296.36 261.681 L1296.36 266.774 Q1289.07 262.541 1281.88 260.472 Q1274.65 258.371 1267.3 258.371 Q1259.95 258.371 1252.78 260.472 Q1245.62 262.541 1238.3 266.774 Z" fill="#000000" fill-rule="nonzero" fill-opacity="1" /><path clip-path="url(#clip730)" d="M1848.01 61.5681 L1848.01 74.45 L1863.37 74.45 L1863.37 80.2428 L1848.01 80.2428 L1848.01 104.872 Q1848.01 110.422 1849.51 112.002 Q1851.05 113.582 1855.71 113.582 L1863.37 113.582 L1863.37 119.82 L1855.71 119.82 Q1847.08 119.82 1843.8 116.62 Q1840.52 113.379 1840.52 104.872 L1840.52 80.2428 L1835.05 80.2428 L1835.05 74.45 L1840.52 74.45 L1840.52 61.5681 L1848.01 61.5681 Z" fill="#000000" fill-rule="nonzero" fill-opacity="1" /><path clip-path="url(#clip730)" d="M1899.46 81.4175 Q1898.21 80.6884 1896.71 80.3643 Q1895.25 79.9997 1893.47 79.9997 Q1887.15 79.9997 1883.74 84.1316 Q1880.38 88.223 1880.38 95.9198 L1880.38 119.82 L1872.89 119.82 L1872.89 74.45 L1880.38 74.45 L1880.38 81.4985 Q1882.73 77.3666 1886.5 75.3817 Q1890.27 73.3562 1895.65 73.3562 Q1896.42 73.3562 1897.35 73.4778 Q1898.29 73.5588 1899.42 73.7613 L1899.46 81.4175 Z" fill="#000000" fill-rule="nonzero" fill-opacity="1" /><path clip-path="url(#clip730)" d="M1906.51 101.915 L1906.51 74.45 L1913.96 74.45 L1913.96 101.632 Q1913.96 108.072 1916.48 111.313 Q1918.99 114.513 1924.01 114.513 Q1930.05 114.513 1933.53 110.665 Q1937.05 106.817 1937.05 100.173 L1937.05 74.45 L1944.51 74.45 L1944.51 119.82 L1937.05 119.82 L1937.05 112.853 Q1934.34 116.984 1930.73 119.01 Q1927.17 120.995 1922.43 120.995 Q1914.61 120.995 1910.56 116.134 Q1906.51 111.273 1906.51 101.915 M1925.27 73.3562 L1925.27 73.3562 Z" fill="#000000" fill-rule="nonzero" fill-opacity="1" /><path clip-path="url(#clip730)" d="M1998.67 95.2716 L1998.67 98.9174 L1964.4 98.9174 Q1964.88 106.614 1969.02 110.665 Q1973.19 114.675 1980.6 114.675 Q1984.89 114.675 1988.91 113.622 Q1992.96 112.569 1996.93 110.463 L1996.93 117.511 Q1992.92 119.212 1988.7 120.104 Q1984.49 120.995 1980.16 120.995 Q1969.3 120.995 1962.94 114.675 Q1956.62 108.356 1956.62 97.5806 Q1956.62 86.4406 1962.61 79.9187 Q1968.65 73.3562 1978.86 73.3562 Q1988.01 73.3562 1993.32 79.2705 Q1998.67 85.1444 1998.67 95.2716 M1991.21 93.0841 Q1991.13 86.9673 1987.77 83.3214 Q1984.45 79.6756 1978.94 79.6756 Q1972.7 79.6756 1968.93 83.1999 Q1965.21 86.7242 1964.64 93.1246 L1991.21 93.0841 Z" fill="#000000" fill-rule="nonzero" fill-opacity="1" /><polyline clip-path="url(#clip733)" style="stroke:#009af9; stroke-linecap:round; stroke-linejoin:round; stroke-width:4; stroke-opacity:1; fill:none" points="1505.64,422.566 1597.02,438.174 1688.4,618.485 1779.79,328.936 1871.17,436.205 1962.55,301.767 2053.93,508.877 2145.32,646.806 2236.7,168.074 2328.08,500.615 "/>
<path clip-path="url(#clip730)" d="M280.964 1461.17 L1152.76 1461.17 L1152.76 953.712 L280.964 953.712  Z" fill="#ffffff" fill-rule="evenodd" fill-opacity="1"/>
<polyline clip-path="url(#clip731)" style="stroke:#000000; stroke-linecap:round; stroke-linejoin:round; stroke-width:2; stroke-opacity:0.1; fill:none" points="397.02,1461.17 397.02,953.712 "/>
<polyline clip-path="url(#clip731)" style="stroke:#000000; stroke-linecap:round; stroke-linejoin:round; stroke-width:2; stroke-opacity:0.1; fill:none" points="579.786,1461.17 579.786,953.712 "/>
<polyline clip-path="url(#clip731)" style="stroke:#000000; stroke-linecap:round; stroke-linejoin:round; stroke-width:2; stroke-opacity:0.1; fill:none" points="762.551,1461.17 762.551,953.712 "/>
<polyline clip-path="url(#clip731)" style="stroke:#000000; stroke-linecap:round; stroke-linejoin:round; stroke-width:2; stroke-opacity:0.1; fill:none" points="945.317,1461.17 945.317,953.712 "/>
<polyline clip-path="url(#clip731)" style="stroke:#000000; stroke-linecap:round; stroke-linejoin:round; stroke-width:2; stroke-opacity:0.1; fill:none" points="1128.08,1461.17 1128.08,953.712 "/>
<polyline clip-path="url(#clip731)" style="stroke:#000000; stroke-linecap:round; stroke-linejoin:round; stroke-width:2; stroke-opacity:0.1; fill:none" points="280.964,1418.68 1152.76,1418.68 "/>
<polyline clip-path="url(#clip731)" style="stroke:#000000; stroke-linecap:round; stroke-linejoin:round; stroke-width:2; stroke-opacity:0.1; fill:none" points="280.964,1341.56 1152.76,1341.56 "/>
<polyline clip-path="url(#clip731)" style="stroke:#000000; stroke-linecap:round; stroke-linejoin:round; stroke-width:2; stroke-opacity:0.1; fill:none" points="280.964,1264.45 1152.76,1264.45 "/>
<polyline clip-path="url(#clip731)" style="stroke:#000000; stroke-linecap:round; stroke-linejoin:round; stroke-width:2; stroke-opacity:0.1; fill:none" points="280.964,1187.33 1152.76,1187.33 "/>
<polyline clip-path="url(#clip731)" style="stroke:#000000; stroke-linecap:round; stroke-linejoin:round; stroke-width:2; stroke-opacity:0.1; fill:none" points="280.964,1110.21 1152.76,1110.21 "/>
<polyline clip-path="url(#clip731)" style="stroke:#000000; stroke-linecap:round; stroke-linejoin:round; stroke-width:2; stroke-opacity:0.1; fill:none" points="280.964,1033.1 1152.76,1033.1 "/>
<polyline clip-path="url(#clip731)" style="stroke:#000000; stroke-linecap:round; stroke-linejoin:round; stroke-width:2; stroke-opacity:0.1; fill:none" points="280.964,955.984 1152.76,955.984 "/>
<polyline clip-path="url(#clip730)" style="stroke:#000000; stroke-linecap:round; stroke-linejoin:round; stroke-width:4; stroke-opacity:1; fill:none" points="280.964,1461.17 1152.76,1461.17 "/>
<polyline clip-path="url(#clip730)" style="stroke:#000000; stroke-linecap:round; stroke-linejoin:round; stroke-width:4; stroke-opacity:1; fill:none" points="397.02,1461.17 397.02,1442.27 "/>
<polyline clip-path="url(#clip730)" style="stroke:#000000; stroke-linecap:round; stroke-linejoin:round; stroke-width:4; stroke-opacity:1; fill:none" points="579.786,1461.17 579.786,1442.27 "/>
<polyline clip-path="url(#clip730)" style="stroke:#000000; stroke-linecap:round; stroke-linejoin:round; stroke-width:4; stroke-opacity:1; fill:none" points="762.551,1461.17 762.551,1442.27 "/>
<polyline clip-path="url(#clip730)" style="stroke:#000000; stroke-linecap:round; stroke-linejoin:round; stroke-width:4; stroke-opacity:1; fill:none" points="945.317,1461.17 945.317,1442.27 "/>
<polyline clip-path="url(#clip730)" style="stroke:#000000; stroke-linecap:round; stroke-linejoin:round; stroke-width:4; stroke-opacity:1; fill:none" points="1128.08,1461.17 1128.08,1442.27 "/>
<path clip-path="url(#clip730)" d="M391.673 1519.63 L407.992 1519.63 L407.992 1523.57 L386.048 1523.57 L386.048 1519.63 Q388.71 1516.88 393.293 1512.25 Q397.9 1507.6 399.08 1506.25 Q401.326 1503.73 402.205 1501.99 Q403.108 1500.23 403.108 1498.54 Q403.108 1495.79 401.164 1494.05 Q399.242 1492.32 396.141 1492.32 Q393.941 1492.32 391.488 1493.08 Q389.057 1493.85 386.279 1495.4 L386.279 1490.67 Q389.104 1489.54 391.557 1488.96 Q394.011 1488.38 396.048 1488.38 Q401.418 1488.38 404.613 1491.07 Q407.807 1493.75 407.807 1498.24 Q407.807 1500.37 406.997 1502.29 Q406.21 1504.19 404.103 1506.79 Q403.525 1507.46 400.423 1510.67 Q397.321 1513.87 391.673 1519.63 Z" fill="#000000" fill-rule="nonzero" fill-opacity="1" /><path clip-path="url(#clip730)" d="M582.795 1493.08 L570.99 1511.53 L582.795 1511.53 L582.795 1493.08 M581.568 1489.01 L587.448 1489.01 L587.448 1511.53 L592.378 1511.53 L592.378 1515.42 L587.448 1515.42 L587.448 1523.57 L582.795 1523.57 L582.795 1515.42 L567.193 1515.42 L567.193 1510.91 L581.568 1489.01 Z" fill="#000000" fill-rule="nonzero" fill-opacity="1" /><path clip-path="url(#clip730)" d="M762.956 1504.42 Q759.808 1504.42 757.956 1506.58 Q756.128 1508.73 756.128 1512.48 Q756.128 1516.21 757.956 1518.38 Q759.808 1520.54 762.956 1520.54 Q766.105 1520.54 767.933 1518.38 Q769.785 1516.21 769.785 1512.48 Q769.785 1508.73 767.933 1506.58 Q766.105 1504.42 762.956 1504.42 M772.239 1489.77 L772.239 1494.03 Q770.48 1493.2 768.674 1492.76 Q766.892 1492.32 765.132 1492.32 Q760.503 1492.32 758.049 1495.44 Q755.619 1498.57 755.271 1504.89 Q756.637 1502.87 758.697 1501.81 Q760.757 1500.72 763.234 1500.72 Q768.443 1500.72 771.452 1503.89 Q774.484 1507.04 774.484 1512.48 Q774.484 1517.8 771.336 1521.02 Q768.188 1524.24 762.956 1524.24 Q756.961 1524.24 753.79 1519.66 Q750.619 1515.05 750.619 1506.32 Q750.619 1498.13 754.507 1493.27 Q758.396 1488.38 764.947 1488.38 Q766.706 1488.38 768.489 1488.73 Q770.294 1489.08 772.239 1489.77 Z" fill="#000000" fill-rule="nonzero" fill-opacity="1" /><path clip-path="url(#clip730)" d="M945.317 1507.16 Q941.984 1507.16 940.062 1508.94 Q938.164 1510.72 938.164 1513.85 Q938.164 1516.97 940.062 1518.75 Q941.984 1520.54 945.317 1520.54 Q948.65 1520.54 950.572 1518.75 Q952.493 1516.95 952.493 1513.85 Q952.493 1510.72 950.572 1508.94 Q948.673 1507.16 945.317 1507.16 M940.641 1505.17 Q937.632 1504.42 935.942 1502.36 Q934.275 1500.3 934.275 1497.34 Q934.275 1493.2 937.215 1490.79 Q940.178 1488.38 945.317 1488.38 Q950.479 1488.38 953.419 1490.79 Q956.359 1493.2 956.359 1497.34 Q956.359 1500.3 954.669 1502.36 Q953.002 1504.42 950.016 1505.17 Q953.396 1505.95 955.271 1508.24 Q957.169 1510.54 957.169 1513.85 Q957.169 1518.87 954.09 1521.55 Q951.035 1524.24 945.317 1524.24 Q939.599 1524.24 936.521 1521.55 Q933.465 1518.87 933.465 1513.85 Q933.465 1510.54 935.363 1508.24 Q937.261 1505.95 940.641 1505.17 M938.928 1497.78 Q938.928 1500.47 940.595 1501.97 Q942.285 1503.48 945.317 1503.48 Q948.326 1503.48 950.016 1501.97 Q951.729 1500.47 951.729 1497.78 Q951.729 1495.1 950.016 1493.59 Q948.326 1492.09 945.317 1492.09 Q942.285 1492.09 940.595 1493.59 Q938.928 1495.1 938.928 1497.78 Z" fill="#000000" fill-rule="nonzero" fill-opacity="1" /><path clip-path="url(#clip730)" d="M1102.77 1519.63 L1110.41 1519.63 L1110.41 1493.27 L1102.1 1494.93 L1102.1 1490.67 L1110.36 1489.01 L1115.04 1489.01 L1115.04 1519.63 L1122.68 1519.63 L1122.68 1523.57 L1102.77 1523.57 L1102.77 1519.63 Z" fill="#000000" fill-rule="nonzero" fill-opacity="1" /><path clip-path="url(#clip730)" d="M1142.12 1492.09 Q1138.51 1492.09 1136.68 1495.65 Q1134.88 1499.19 1134.88 1506.32 Q1134.88 1513.43 1136.68 1516.99 Q1138.51 1520.54 1142.12 1520.54 Q1145.76 1520.54 1147.56 1516.99 Q1149.39 1513.43 1149.39 1506.32 Q1149.39 1499.19 1147.56 1495.65 Q1145.76 1492.09 1142.12 1492.09 M1142.12 1488.38 Q1147.93 1488.38 1150.99 1492.99 Q1154.07 1497.57 1154.07 1506.32 Q1154.07 1515.05 1150.99 1519.66 Q1147.93 1524.24 1142.12 1524.24 Q1136.31 1524.24 1133.23 1519.66 Q1130.18 1515.05 1130.18 1506.32 Q1130.18 1497.57 1133.23 1492.99 Q1136.31 1488.38 1142.12 1488.38 Z" fill="#000000" fill-rule="nonzero" fill-opacity="1" /><polyline clip-path="url(#clip730)" style="stroke:#000000; stroke-linecap:round; stroke-linejoin:round; stroke-width:4; stroke-opacity:1; fill:none" points="280.964,1461.17 280.964,953.712 "/>
<polyline clip-path="url(#clip730)" style="stroke:#000000; stroke-linecap:round; stroke-linejoin:round; stroke-width:4; stroke-opacity:1; fill:none" points="280.964,1418.68 299.862,1418.68 "/>
<polyline clip-path="url(#clip730)" style="stroke:#000000; stroke-linecap:round; stroke-linejoin:round; stroke-width:4; stroke-opacity:1; fill:none" points="280.964,1341.56 299.862,1341.56 "/>
<polyline clip-path="url(#clip730)" style="stroke:#000000; stroke-linecap:round; stroke-linejoin:round; stroke-width:4; stroke-opacity:1; fill:none" points="280.964,1264.45 299.862,1264.45 "/>
<polyline clip-path="url(#clip730)" style="stroke:#000000; stroke-linecap:round; stroke-linejoin:round; stroke-width:4; stroke-opacity:1; fill:none" points="280.964,1187.33 299.862,1187.33 "/>
<polyline clip-path="url(#clip730)" style="stroke:#000000; stroke-linecap:round; stroke-linejoin:round; stroke-width:4; stroke-opacity:1; fill:none" points="280.964,1110.21 299.862,1110.21 "/>
<polyline clip-path="url(#clip730)" style="stroke:#000000; stroke-linecap:round; stroke-linejoin:round; stroke-width:4; stroke-opacity:1; fill:none" points="280.964,1033.1 299.862,1033.1 "/>
<polyline clip-path="url(#clip730)" style="stroke:#000000; stroke-linecap:round; stroke-linejoin:round; stroke-width:4; stroke-opacity:1; fill:none" points="280.964,955.984 299.862,955.984 "/>
<path clip-path="url(#clip730)" d="M139.016 1419.13 L168.691 1419.13 L168.691 1423.06 L139.016 1423.06 L139.016 1419.13 Z" fill="#000000" fill-rule="nonzero" fill-opacity="1" /><path clip-path="url(#clip730)" d="M179.594 1432.02 L187.233 1432.02 L187.233 1405.66 L178.923 1407.32 L178.923 1403.06 L187.187 1401.4 L191.862 1401.4 L191.862 1432.02 L199.501 1432.02 L199.501 1435.96 L179.594 1435.96 L179.594 1432.02 Z" fill="#000000" fill-rule="nonzero" fill-opacity="1" /><path clip-path="url(#clip730)" d="M208.946 1430.08 L213.83 1430.08 L213.83 1435.96 L208.946 1435.96 L208.946 1430.08 Z" fill="#000000" fill-rule="nonzero" fill-opacity="1" /><path clip-path="url(#clip730)" d="M224.061 1401.4 L242.418 1401.4 L242.418 1405.33 L228.344 1405.33 L228.344 1413.8 Q229.362 1413.46 230.381 1413.29 Q231.399 1413.11 232.418 1413.11 Q238.205 1413.11 241.584 1416.28 Q244.964 1419.45 244.964 1424.87 Q244.964 1430.45 241.492 1433.55 Q238.02 1436.63 231.7 1436.63 Q229.524 1436.63 227.256 1436.26 Q225.01 1435.89 222.603 1435.15 L222.603 1430.45 Q224.686 1431.58 226.909 1432.14 Q229.131 1432.69 231.608 1432.69 Q235.612 1432.69 237.95 1430.59 Q240.288 1428.48 240.288 1424.87 Q240.288 1421.26 237.95 1419.15 Q235.612 1417.04 231.608 1417.04 Q229.733 1417.04 227.858 1417.46 Q226.006 1417.88 224.061 1418.76 L224.061 1401.4 Z" fill="#000000" fill-rule="nonzero" fill-opacity="1" /><path clip-path="url(#clip730)" d="M138.02 1342.01 L167.696 1342.01 L167.696 1345.95 L138.02 1345.95 L138.02 1342.01 Z" fill="#000000" fill-rule="nonzero" fill-opacity="1" /><path clip-path="url(#clip730)" d="M178.599 1354.91 L186.237 1354.91 L186.237 1328.54 L177.927 1330.21 L177.927 1325.95 L186.191 1324.28 L190.867 1324.28 L190.867 1354.91 L198.506 1354.91 L198.506 1358.84 L178.599 1358.84 L178.599 1354.91 Z" fill="#000000" fill-rule="nonzero" fill-opacity="1" /><path clip-path="url(#clip730)" d="M207.95 1352.96 L212.835 1352.96 L212.835 1358.84 L207.95 1358.84 L207.95 1352.96 Z" fill="#000000" fill-rule="nonzero" fill-opacity="1" /><path clip-path="url(#clip730)" d="M233.02 1327.36 Q229.409 1327.36 227.58 1330.92 Q225.774 1334.47 225.774 1341.6 Q225.774 1348.7 227.58 1352.27 Q229.409 1355.81 233.02 1355.81 Q236.654 1355.81 238.459 1352.27 Q240.288 1348.7 240.288 1341.6 Q240.288 1334.47 238.459 1330.92 Q236.654 1327.36 233.02 1327.36 M233.02 1323.66 Q238.83 1323.66 241.885 1328.26 Q244.964 1332.85 244.964 1341.6 Q244.964 1350.32 241.885 1354.93 Q238.83 1359.51 233.02 1359.51 Q227.209 1359.51 224.131 1354.93 Q221.075 1350.32 221.075 1341.6 Q221.075 1332.85 224.131 1328.26 Q227.209 1323.66 233.02 1323.66 Z" fill="#000000" fill-rule="nonzero" fill-opacity="1" /><path clip-path="url(#clip730)" d="M139.016 1264.9 L168.691 1264.9 L168.691 1268.83 L139.016 1268.83 L139.016 1264.9 Z" fill="#000000" fill-rule="nonzero" fill-opacity="1" /><path clip-path="url(#clip730)" d="M188.784 1250.24 Q185.173 1250.24 183.344 1253.81 Q181.538 1257.35 181.538 1264.48 Q181.538 1271.59 183.344 1275.15 Q185.173 1278.69 188.784 1278.69 Q192.418 1278.69 194.224 1275.15 Q196.052 1271.59 196.052 1264.48 Q196.052 1257.35 194.224 1253.81 Q192.418 1250.24 188.784 1250.24 M188.784 1246.54 Q194.594 1246.54 197.649 1251.15 Q200.728 1255.73 200.728 1264.48 Q200.728 1273.21 197.649 1277.81 Q194.594 1282.4 188.784 1282.4 Q182.974 1282.4 179.895 1277.81 Q176.839 1273.21 176.839 1264.48 Q176.839 1255.73 179.895 1251.15 Q182.974 1246.54 188.784 1246.54 Z" fill="#000000" fill-rule="nonzero" fill-opacity="1" /><path clip-path="url(#clip730)" d="M208.946 1275.85 L213.83 1275.85 L213.83 1281.73 L208.946 1281.73 L208.946 1275.85 Z" fill="#000000" fill-rule="nonzero" fill-opacity="1" /><path clip-path="url(#clip730)" d="M224.061 1247.17 L242.418 1247.17 L242.418 1251.1 L228.344 1251.1 L228.344 1259.57 Q229.362 1259.23 230.381 1259.06 Q231.399 1258.88 232.418 1258.88 Q238.205 1258.88 241.584 1262.05 Q244.964 1265.22 244.964 1270.64 Q244.964 1276.22 241.492 1279.32 Q238.02 1282.4 231.7 1282.4 Q229.524 1282.4 227.256 1282.03 Q225.01 1281.66 222.603 1280.92 L222.603 1276.22 Q224.686 1277.35 226.909 1277.91 Q229.131 1278.46 231.608 1278.46 Q235.612 1278.46 237.95 1276.35 Q240.288 1274.25 240.288 1270.64 Q240.288 1267.03 237.95 1264.92 Q235.612 1262.81 231.608 1262.81 Q229.733 1262.81 227.858 1263.23 Q226.006 1263.65 224.061 1264.53 L224.061 1247.17 Z" fill="#000000" fill-rule="nonzero" fill-opacity="1" /><path clip-path="url(#clip730)" d="M187.788 1173.13 Q184.177 1173.13 182.349 1176.69 Q180.543 1180.24 180.543 1187.36 Q180.543 1194.47 182.349 1198.04 Q184.177 1201.58 187.788 1201.58 Q191.423 1201.58 193.228 1198.04 Q195.057 1194.47 195.057 1187.36 Q195.057 1180.24 193.228 1176.69 Q191.423 1173.13 187.788 1173.13 M187.788 1169.42 Q193.599 1169.42 196.654 1174.03 Q199.733 1178.61 199.733 1187.36 Q199.733 1196.09 196.654 1200.7 Q193.599 1205.28 187.788 1205.28 Q181.978 1205.28 178.9 1200.7 Q175.844 1196.09 175.844 1187.36 Q175.844 1178.61 178.9 1174.03 Q181.978 1169.42 187.788 1169.42 Z" fill="#000000" fill-rule="nonzero" fill-opacity="1" /><path clip-path="url(#clip730)" d="M207.95 1198.73 L212.835 1198.73 L212.835 1204.61 L207.95 1204.61 L207.95 1198.73 Z" fill="#000000" fill-rule="nonzero" fill-opacity="1" /><path clip-path="url(#clip730)" d="M233.02 1173.13 Q229.409 1173.13 227.58 1176.69 Q225.774 1180.24 225.774 1187.36 Q225.774 1194.47 227.58 1198.04 Q229.409 1201.58 233.02 1201.58 Q236.654 1201.58 238.459 1198.04 Q240.288 1194.47 240.288 1187.36 Q240.288 1180.24 238.459 1176.69 Q236.654 1173.13 233.02 1173.13 M233.02 1169.42 Q238.83 1169.42 241.885 1174.03 Q244.964 1178.61 244.964 1187.36 Q244.964 1196.09 241.885 1200.7 Q238.83 1205.28 233.02 1205.28 Q227.209 1205.28 224.131 1200.7 Q221.075 1196.09 221.075 1187.36 Q221.075 1178.61 224.131 1174.03 Q227.209 1169.42 233.02 1169.42 Z" fill="#000000" fill-rule="nonzero" fill-opacity="1" /><path clip-path="url(#clip730)" d="M188.784 1096.01 Q185.173 1096.01 183.344 1099.58 Q181.538 1103.12 181.538 1110.25 Q181.538 1117.36 183.344 1120.92 Q185.173 1124.46 188.784 1124.46 Q192.418 1124.46 194.224 1120.92 Q196.052 1117.36 196.052 1110.25 Q196.052 1103.12 194.224 1099.58 Q192.418 1096.01 188.784 1096.01 M188.784 1092.31 Q194.594 1092.31 197.649 1096.92 Q200.728 1101.5 200.728 1110.25 Q200.728 1118.98 197.649 1123.58 Q194.594 1128.17 188.784 1128.17 Q182.974 1128.17 179.895 1123.58 Q176.839 1118.98 176.839 1110.25 Q176.839 1101.5 179.895 1096.92 Q182.974 1092.31 188.784 1092.31 Z" fill="#000000" fill-rule="nonzero" fill-opacity="1" /><path clip-path="url(#clip730)" d="M208.946 1121.61 L213.83 1121.61 L213.83 1127.49 L208.946 1127.49 L208.946 1121.61 Z" fill="#000000" fill-rule="nonzero" fill-opacity="1" /><path clip-path="url(#clip730)" d="M224.061 1092.93 L242.418 1092.93 L242.418 1096.87 L228.344 1096.87 L228.344 1105.34 Q229.362 1104.99 230.381 1104.83 Q231.399 1104.65 232.418 1104.65 Q238.205 1104.65 241.584 1107.82 Q244.964 1110.99 244.964 1116.41 Q244.964 1121.99 241.492 1125.09 Q238.02 1128.17 231.7 1128.17 Q229.524 1128.17 227.256 1127.8 Q225.01 1127.43 222.603 1126.68 L222.603 1121.99 Q224.686 1123.12 226.909 1123.68 Q229.131 1124.23 231.608 1124.23 Q235.612 1124.23 237.95 1122.12 Q240.288 1120.02 240.288 1116.41 Q240.288 1112.8 237.95 1110.69 Q235.612 1108.58 231.608 1108.58 Q229.733 1108.58 227.858 1109 Q226.006 1109.42 224.061 1110.3 L224.061 1092.93 Z" fill="#000000" fill-rule="nonzero" fill-opacity="1" /><path clip-path="url(#clip730)" d="M178.599 1046.44 L186.237 1046.44 L186.237 1020.08 L177.927 1021.75 L177.927 1017.49 L186.191 1015.82 L190.867 1015.82 L190.867 1046.44 L198.506 1046.44 L198.506 1050.38 L178.599 1050.38 L178.599 1046.44 Z" fill="#000000" fill-rule="nonzero" fill-opacity="1" /><path clip-path="url(#clip730)" d="M207.95 1044.5 L212.835 1044.5 L212.835 1050.38 L207.95 1050.38 L207.95 1044.5 Z" fill="#000000" fill-rule="nonzero" fill-opacity="1" /><path clip-path="url(#clip730)" d="M233.02 1018.9 Q229.409 1018.9 227.58 1022.46 Q225.774 1026 225.774 1033.13 Q225.774 1040.24 227.58 1043.81 Q229.409 1047.35 233.02 1047.35 Q236.654 1047.35 238.459 1043.81 Q240.288 1040.24 240.288 1033.13 Q240.288 1026 238.459 1022.46 Q236.654 1018.9 233.02 1018.9 M233.02 1015.19 Q238.83 1015.19 241.885 1019.8 Q244.964 1024.38 244.964 1033.13 Q244.964 1041.86 241.885 1046.47 Q238.83 1051.05 233.02 1051.05 Q227.209 1051.05 224.131 1046.47 Q221.075 1041.86 221.075 1033.13 Q221.075 1024.38 224.131 1019.8 Q227.209 1015.19 233.02 1015.19 Z" fill="#000000" fill-rule="nonzero" fill-opacity="1" /><path clip-path="url(#clip730)" d="M179.594 969.329 L187.233 969.329 L187.233 942.963 L178.923 944.63 L178.923 940.371 L187.187 938.704 L191.862 938.704 L191.862 969.329 L199.501 969.329 L199.501 973.264 L179.594 973.264 L179.594 969.329 Z" fill="#000000" fill-rule="nonzero" fill-opacity="1" /><path clip-path="url(#clip730)" d="M208.946 967.384 L213.83 967.384 L213.83 973.264 L208.946 973.264 L208.946 967.384 Z" fill="#000000" fill-rule="nonzero" fill-opacity="1" /><path clip-path="url(#clip730)" d="M224.061 938.704 L242.418 938.704 L242.418 942.639 L228.344 942.639 L228.344 951.111 Q229.362 950.764 230.381 950.602 Q231.399 950.417 232.418 950.417 Q238.205 950.417 241.584 953.588 Q244.964 956.759 244.964 962.176 Q244.964 967.755 241.492 970.856 Q238.02 973.935 231.7 973.935 Q229.524 973.935 227.256 973.565 Q225.01 973.194 222.603 972.454 L222.603 967.755 Q224.686 968.889 226.909 969.444 Q229.131 970 231.608 970 Q235.612 970 237.95 967.894 Q240.288 965.787 240.288 962.176 Q240.288 958.565 237.95 956.458 Q235.612 954.352 231.608 954.352 Q229.733 954.352 227.858 954.769 Q226.006 955.185 224.061 956.065 L224.061 938.704 Z" fill="#000000" fill-rule="nonzero" fill-opacity="1" /><path clip-path="url(#clip730)" d="M58.9593 1260.59 Q55.0126 1258.4 53.1347 1255.34 Q51.2568 1252.29 51.2568 1248.15 Q51.2568 1242.58 55.1717 1239.55 Q59.0548 1236.53 66.2481 1236.53 L87.7642 1236.53 L87.7642 1242.42 L66.439 1242.42 Q61.3146 1242.42 58.832 1244.23 Q56.3494 1246.05 56.3494 1249.77 Q56.3494 1254.32 59.3731 1256.97 Q62.3968 1259.61 67.6167 1259.61 L87.7642 1259.61 L87.7642 1265.5 L66.439 1265.5 Q61.2828 1265.5 58.832 1267.31 Q56.3494 1269.12 56.3494 1272.91 Q56.3494 1277.4 59.4049 1280.04 Q62.4286 1282.68 67.6167 1282.68 L87.7642 1282.68 L87.7642 1288.57 L52.1162 1288.57 L52.1162 1282.68 L57.6544 1282.68 Q54.376 1280.68 52.8164 1277.88 Q51.2568 1275.08 51.2568 1271.22 Q51.2568 1267.34 53.2302 1264.64 Q55.2036 1261.9 58.9593 1260.59 Z" fill="#000000" fill-rule="nonzero" fill-opacity="1" /><path clip-path="url(#clip730)" d="M69.8447 1208.65 Q69.8447 1215.75 71.4679 1218.48 Q73.0912 1221.22 77.0061 1221.22 Q80.1253 1221.22 81.9714 1219.18 Q83.7856 1217.12 83.7856 1213.58 Q83.7856 1208.71 80.3481 1205.78 Q76.8788 1202.82 71.1497 1202.82 L69.8447 1202.82 L69.8447 1208.65 M67.4257 1196.97 L87.7642 1196.97 L87.7642 1202.82 L82.3533 1202.82 Q85.5998 1204.83 87.1594 1207.82 Q88.6872 1210.81 88.6872 1215.14 Q88.6872 1220.62 85.6316 1223.86 Q82.5443 1227.08 77.3881 1227.08 Q71.3725 1227.08 68.3169 1223.07 Q65.2614 1219.03 65.2614 1211.04 L65.2614 1202.82 L64.6885 1202.82 Q60.6462 1202.82 58.4501 1205.5 Q56.2221 1208.14 56.2221 1212.95 Q56.2221 1216 56.9541 1218.9 Q57.6862 1221.79 59.1503 1224.47 L53.7395 1224.47 Q52.4981 1221.25 51.8934 1218.23 Q51.2568 1215.21 51.2568 1212.34 Q51.2568 1204.61 55.2672 1200.79 Q59.2776 1196.97 67.4257 1196.97 Z" fill="#000000" fill-rule="nonzero" fill-opacity="1" /><path clip-path="url(#clip730)" d="M53.1665 1162.18 L58.7047 1162.18 Q57.4316 1164.66 56.795 1167.34 Q56.1584 1170.01 56.1584 1172.87 Q56.1584 1177.23 57.4952 1179.43 Q58.832 1181.6 61.5056 1181.6 Q63.5426 1181.6 64.7203 1180.04 Q65.8661 1178.48 66.9165 1173.77 L67.3621 1171.76 Q68.6989 1165.52 71.1497 1162.91 Q73.5686 1160.27 77.9291 1160.27 Q82.8944 1160.27 85.7908 1164.22 Q88.6872 1168.13 88.6872 1175.01 Q88.6872 1177.87 88.1143 1180.99 Q87.5732 1184.08 86.4592 1187.52 L80.4118 1187.52 Q82.0987 1184.27 82.958 1181.12 Q83.7856 1177.97 83.7856 1174.88 Q83.7856 1170.74 82.3851 1168.51 Q80.9529 1166.29 78.3747 1166.29 Q75.9876 1166.29 74.7145 1167.91 Q73.4413 1169.5 72.2637 1174.94 L71.7862 1176.98 Q70.6404 1182.42 68.2851 1184.84 Q65.898 1187.26 61.7602 1187.26 Q56.7313 1187.26 53.9941 1183.7 Q51.2568 1180.13 51.2568 1173.57 Q51.2568 1170.33 51.7343 1167.46 Q52.2117 1164.6 53.1665 1162.18 Z" fill="#000000" fill-rule="nonzero" fill-opacity="1" /><path clip-path="url(#clip730)" d="M53.1665 1128.22 L58.7047 1128.22 Q57.4316 1130.7 56.795 1133.38 Q56.1584 1136.05 56.1584 1138.91 Q56.1584 1143.27 57.4952 1145.47 Q58.832 1147.63 61.5056 1147.63 Q63.5426 1147.63 64.7203 1146.07 Q65.8661 1144.51 66.9165 1139.8 L67.3621 1137.8 Q68.6989 1131.56 71.1497 1128.95 Q73.5686 1126.31 77.9291 1126.31 Q82.8944 1126.31 85.7908 1130.26 Q88.6872 1134.17 88.6872 1141.05 Q88.6872 1143.91 88.1143 1147.03 Q87.5732 1150.12 86.4592 1153.55 L80.4118 1153.55 Q82.0987 1150.31 82.958 1147.16 Q83.7856 1144.01 83.7856 1140.92 Q83.7856 1136.78 82.3851 1134.55 Q80.9529 1132.32 78.3747 1132.32 Q75.9876 1132.32 74.7145 1133.95 Q73.4413 1135.54 72.2637 1140.98 L71.7862 1143.02 Q70.6404 1148.46 68.2851 1150.88 Q65.898 1153.3 61.7602 1153.3 Q56.7313 1153.3 53.9941 1149.73 Q51.2568 1146.17 51.2568 1139.61 Q51.2568 1136.37 51.7343 1133.5 Q52.2117 1130.64 53.1665 1128.22 Z" fill="#000000" fill-rule="nonzero" fill-opacity="1" /><path clip-path="url(#clip730)" d="M650.223 856.788 L650.223 862.986 L643.093 862.986 Q639.083 862.986 637.503 864.606 Q635.963 866.227 635.963 870.44 L635.963 874.45 L648.238 874.45 L648.238 880.243 L635.963 880.243 L635.963 919.82 L628.469 919.82 L628.469 880.243 L621.34 880.243 L621.34 874.45 L628.469 874.45 L628.469 871.29 Q628.469 863.715 631.994 860.272 Q635.518 856.788 643.174 856.788 L650.223 856.788 Z" fill="#000000" fill-rule="nonzero" fill-opacity="1" /><path clip-path="url(#clip730)" d="M677.08 897.014 Q668.047 897.014 664.563 899.079 Q661.079 901.145 661.079 906.128 Q661.079 910.098 663.672 912.447 Q666.305 914.756 670.801 914.756 Q676.999 914.756 680.726 910.381 Q684.493 905.966 684.493 898.674 L684.493 897.014 L677.08 897.014 M691.947 893.935 L691.947 919.82 L684.493 919.82 L684.493 912.934 Q681.941 917.065 678.133 919.05 Q674.325 920.995 668.816 920.995 Q661.849 920.995 657.717 917.106 Q653.625 913.177 653.625 906.614 Q653.625 898.958 658.729 895.069 Q663.874 891.18 674.042 891.18 L684.493 891.18 L684.493 890.451 Q684.493 885.306 681.09 882.511 Q677.728 879.676 671.611 879.676 Q667.722 879.676 664.036 880.607 Q660.35 881.539 656.947 883.402 L656.947 876.516 Q661.039 874.936 664.887 874.166 Q668.735 873.356 672.381 873.356 Q682.225 873.356 687.086 878.46 Q691.947 883.565 691.947 893.935 Z" fill="#000000" fill-rule="nonzero" fill-opacity="1" /><path clip-path="url(#clip730)" d="M707.3 856.788 L714.753 856.788 L714.753 919.82 L707.3 919.82 L707.3 856.788 Z" fill="#000000" fill-rule="nonzero" fill-opacity="1" /><path clip-path="url(#clip730)" d="M759.273 875.787 L759.273 882.835 Q756.113 881.215 752.71 880.405 Q749.308 879.595 745.662 879.595 Q740.112 879.595 737.317 881.296 Q734.562 882.997 734.562 886.4 Q734.562 888.993 736.547 890.492 Q738.532 891.95 744.528 893.287 L747.08 893.854 Q755.019 895.555 758.341 898.674 Q761.703 901.753 761.703 907.303 Q761.703 913.622 756.68 917.309 Q751.698 920.995 742.948 920.995 Q739.302 920.995 735.332 920.266 Q731.403 919.577 727.028 918.159 L727.028 910.463 Q731.16 912.609 735.17 913.703 Q739.18 914.756 743.11 914.756 Q748.376 914.756 751.212 912.974 Q754.047 911.151 754.047 907.87 Q754.047 904.832 751.981 903.211 Q749.956 901.591 743.029 900.092 L740.436 899.485 Q733.509 898.026 730.43 895.029 Q727.352 891.99 727.352 886.724 Q727.352 880.324 731.889 876.84 Q736.426 873.356 744.771 873.356 Q748.903 873.356 752.548 873.964 Q756.194 874.571 759.273 875.787 Z" fill="#000000" fill-rule="nonzero" fill-opacity="1" /><path clip-path="url(#clip730)" d="M812.38 895.272 L812.38 898.917 L778.11 898.917 Q778.596 906.614 782.728 910.665 Q786.9 914.675 794.313 914.675 Q798.607 914.675 802.618 913.622 Q806.669 912.569 810.638 910.463 L810.638 917.511 Q806.628 919.212 802.415 920.104 Q798.202 920.995 793.868 920.995 Q783.011 920.995 776.651 914.675 Q770.332 908.356 770.332 897.581 Q770.332 886.441 776.327 879.919 Q782.363 873.356 792.571 873.356 Q801.726 873.356 807.033 879.271 Q812.38 885.144 812.38 895.272 M804.927 893.084 Q804.846 886.967 801.483 883.321 Q798.162 879.676 792.652 879.676 Q786.414 879.676 782.647 883.2 Q778.92 886.724 778.353 893.125 L804.927 893.084 Z" fill="#000000" fill-rule="nonzero" fill-opacity="1" /><polyline clip-path="url(#clip731)" style="stroke:#009af9; stroke-linecap:round; stroke-linejoin:round; stroke-width:4; stroke-opacity:1; fill:none" points="305.637,1222.57 397.02,1238.17 488.403,1418.49 579.786,1128.94 671.169,1236.2 762.551,1101.77 853.934,1308.88 945.317,1446.81 1036.7,968.074 1128.08,1300.62 "/>
</svg>
