<?xml version="1.0" encoding="utf-8"?>
<svg xmlns="http://www.w3.org/2000/svg" xmlns:xlink="http://www.w3.org/1999/xlink" width="600" height="400" viewBox="0 0 2400 1600">
<defs>
  <clipPath id="clip400">
    <rect x="0" y="0" width="2400" height="1600"/>
  </clipPath>
</defs>
<path clip-path="url(#clip400)" d="M0 1600 L2400 1600 L2400 0 L0 0  Z" fill="#ffffff" fill-rule="evenodd" fill-opacity="1"/>
<defs>
  <clipPath id="clip401">
    <rect x="480" y="0" width="1681" height="1600"/>
  </clipPath>
</defs>
<path clip-path="url(#clip400)" d="M257.69 1423.18 L1121.26 1423.18 L1121.26 47.2441 L257.69 47.2441  Z" fill="#ffffff" fill-rule="evenodd" fill-opacity="1"/>
<defs>
  <clipPath id="clip402">
    <rect x="257" y="47" width="865" height="1377"/>
  </clipPath>
</defs>
<polyline clip-path="url(#clip402)" style="stroke:#000000; stroke-linecap:round; stroke-linejoin:round; stroke-width:2; stroke-opacity:0.1; fill:none" points="430.712,1423.18 430.712,47.2441 "/>
<polyline clip-path="url(#clip402)" style="stroke:#000000; stroke-linecap:round; stroke-linejoin:round; stroke-width:2; stroke-opacity:0.1; fill:none" points="652.748,1423.18 652.748,47.2441 "/>
<polyline clip-path="url(#clip402)" style="stroke:#000000; stroke-linecap:round; stroke-linejoin:round; stroke-width:2; stroke-opacity:0.1; fill:none" points="874.783,1423.18 874.783,47.2441 "/>
<polyline clip-path="url(#clip402)" style="stroke:#000000; stroke-linecap:round; stroke-linejoin:round; stroke-width:2; stroke-opacity:0.1; fill:none" points="1096.82,1423.18 1096.82,47.2441 "/>
<polyline clip-path="url(#clip402)" style="stroke:#000000; stroke-linecap:round; stroke-linejoin:round; stroke-width:2; stroke-opacity:0.1; fill:none" points="257.69,1292.29 1121.26,1292.29 "/>
<polyline clip-path="url(#clip402)" style="stroke:#000000; stroke-linecap:round; stroke-linejoin:round; stroke-width:2; stroke-opacity:0.1; fill:none" points="257.69,1136.65 1121.26,1136.65 "/>
<polyline clip-path="url(#clip402)" style="stroke:#000000; stroke-linecap:round; stroke-linejoin:round; stroke-width:2; stroke-opacity:0.1; fill:none" points="257.69,981.012 1121.26,981.012 "/>
<polyline clip-path="url(#clip402)" style="stroke:#000000; stroke-linecap:round; stroke-linejoin:round; stroke-width:2; stroke-opacity:0.1; fill:none" points="257.69,825.372 1121.26,825.372 "/>
<polyline clip-path="url(#clip402)" style="stroke:#000000; stroke-linecap:round; stroke-linejoin:round; stroke-width:2; stroke-opacity:0.1; fill:none" points="257.69,669.732 1121.26,669.732 "/>
<polyline clip-path="url(#clip402)" style="stroke:#000000; stroke-linecap:round; stroke-linejoin:round; stroke-width:2; stroke-opacity:0.1; fill:none" points="257.69,514.091 1121.26,514.091 "/>
<polyline clip-path="url(#clip402)" style="stroke:#000000; stroke-linecap:round; stroke-linejoin:round; stroke-width:2; stroke-opacity:0.1; fill:none" points="257.69,358.451 1121.26,358.451 "/>
<polyline clip-path="url(#clip402)" style="stroke:#000000; stroke-linecap:round; stroke-linejoin:round; stroke-width:2; stroke-opacity:0.1; fill:none" points="257.69,202.811 1121.26,202.811 "/>
<polyline clip-path="url(#clip400)" style="stroke:#000000; stroke-linecap:round; stroke-linejoin:round; stroke-width:4; stroke-opacity:1; fill:none" points="257.69,1423.18 1121.26,1423.18 "/>
<polyline clip-path="url(#clip400)" style="stroke:#000000; stroke-linecap:round; stroke-linejoin:round; stroke-width:4; stroke-opacity:1; fill:none" points="430.712,1423.18 430.712,1404.28 "/>
<polyline clip-path="url(#clip400)" style="stroke:#000000; stroke-linecap:round; stroke-linejoin:round; stroke-width:4; stroke-opacity:1; fill:none" points="652.748,1423.18 652.748,1404.28 "/>
<polyline clip-path="url(#clip400)" style="stroke:#000000; stroke-linecap:round; stroke-linejoin:round; stroke-width:4; stroke-opacity:1; fill:none" points="874.783,1423.18 874.783,1404.28 "/>
<polyline clip-path="url(#clip400)" style="stroke:#000000; stroke-linecap:round; stroke-linejoin:round; stroke-width:4; stroke-opacity:1; fill:none" points="1096.82,1423.18 1096.82,1404.28 "/>
<path clip-path="url(#clip400)" d="M377.737 1468.75 L407.413 1468.75 L407.413 1472.69 L377.737 1472.69 L377.737 1468.75 Z" fill="#000000" fill-rule="nonzero" fill-opacity="1" /><path clip-path="url(#clip400)" d="M427.506 1454.1 Q423.895 1454.1 422.066 1457.66 Q420.26 1461.2 420.26 1468.33 Q420.26 1475.44 422.066 1479.01 Q423.895 1482.55 427.506 1482.55 Q431.14 1482.55 432.945 1479.01 Q434.774 1475.44 434.774 1468.33 Q434.774 1461.2 432.945 1457.66 Q431.14 1454.1 427.506 1454.1 M427.506 1450.39 Q433.316 1450.39 436.371 1455 Q439.45 1459.58 439.45 1468.33 Q439.45 1477.06 436.371 1481.67 Q433.316 1486.25 427.506 1486.25 Q421.696 1486.25 418.617 1481.67 Q415.561 1477.06 415.561 1468.33 Q415.561 1459.58 418.617 1455 Q421.696 1450.39 427.506 1450.39 Z" fill="#000000" fill-rule="nonzero" fill-opacity="1" /><path clip-path="url(#clip400)" d="M447.668 1479.7 L452.552 1479.7 L452.552 1485.58 L447.668 1485.58 L447.668 1479.7 Z" fill="#000000" fill-rule="nonzero" fill-opacity="1" /><path clip-path="url(#clip400)" d="M462.783 1451.02 L481.14 1451.02 L481.14 1454.96 L467.066 1454.96 L467.066 1463.43 Q468.084 1463.08 469.103 1462.92 Q470.121 1462.73 471.14 1462.73 Q476.927 1462.73 480.306 1465.9 Q483.686 1469.08 483.686 1474.49 Q483.686 1480.07 480.214 1483.17 Q476.742 1486.25 470.422 1486.25 Q468.246 1486.25 465.978 1485.88 Q463.732 1485.51 461.325 1484.77 L461.325 1480.07 Q463.408 1481.2 465.63 1481.76 Q467.853 1482.32 470.33 1482.32 Q474.334 1482.32 476.672 1480.21 Q479.01 1478.1 479.01 1474.49 Q479.01 1470.88 476.672 1468.77 Q474.334 1466.67 470.33 1466.67 Q468.455 1466.67 466.58 1467.08 Q464.728 1467.5 462.783 1468.38 L462.783 1451.02 Z" fill="#000000" fill-rule="nonzero" fill-opacity="1" /><path clip-path="url(#clip400)" d="M630.132 1454.1 Q626.521 1454.1 624.692 1457.66 Q622.887 1461.2 622.887 1468.33 Q622.887 1475.44 624.692 1479.01 Q626.521 1482.55 630.132 1482.55 Q633.766 1482.55 635.572 1479.01 Q637.4 1475.44 637.4 1468.33 Q637.4 1461.2 635.572 1457.66 Q633.766 1454.1 630.132 1454.1 M630.132 1450.39 Q635.942 1450.39 638.998 1455 Q642.076 1459.58 642.076 1468.33 Q642.076 1477.06 638.998 1481.67 Q635.942 1486.25 630.132 1486.25 Q624.322 1486.25 621.243 1481.67 Q618.188 1477.06 618.188 1468.33 Q618.188 1459.58 621.243 1455 Q624.322 1450.39 630.132 1450.39 Z" fill="#000000" fill-rule="nonzero" fill-opacity="1" /><path clip-path="url(#clip400)" d="M650.294 1479.7 L655.178 1479.7 L655.178 1485.58 L650.294 1485.58 L650.294 1479.7 Z" fill="#000000" fill-rule="nonzero" fill-opacity="1" /><path clip-path="url(#clip400)" d="M675.363 1454.1 Q671.752 1454.1 669.923 1457.66 Q668.118 1461.2 668.118 1468.33 Q668.118 1475.44 669.923 1479.01 Q671.752 1482.55 675.363 1482.55 Q678.997 1482.55 680.803 1479.01 Q682.632 1475.44 682.632 1468.33 Q682.632 1461.2 680.803 1457.66 Q678.997 1454.1 675.363 1454.1 M675.363 1450.39 Q681.173 1450.39 684.229 1455 Q687.308 1459.58 687.308 1468.33 Q687.308 1477.06 684.229 1481.67 Q681.173 1486.25 675.363 1486.25 Q669.553 1486.25 666.474 1481.67 Q663.419 1477.06 663.419 1468.33 Q663.419 1459.58 666.474 1455 Q669.553 1450.39 675.363 1450.39 Z" fill="#000000" fill-rule="nonzero" fill-opacity="1" /><path clip-path="url(#clip400)" d="M852.665 1454.1 Q849.054 1454.1 847.226 1457.66 Q845.42 1461.2 845.42 1468.33 Q845.42 1475.44 847.226 1479.01 Q849.054 1482.55 852.665 1482.55 Q856.3 1482.55 858.105 1479.01 Q859.934 1475.44 859.934 1468.33 Q859.934 1461.2 858.105 1457.66 Q856.3 1454.1 852.665 1454.1 M852.665 1450.39 Q858.476 1450.39 861.531 1455 Q864.61 1459.58 864.61 1468.33 Q864.61 1477.06 861.531 1481.67 Q858.476 1486.25 852.665 1486.25 Q846.855 1486.25 843.777 1481.67 Q840.721 1477.06 840.721 1468.33 Q840.721 1459.58 843.777 1455 Q846.855 1450.39 852.665 1450.39 Z" fill="#000000" fill-rule="nonzero" fill-opacity="1" /><path clip-path="url(#clip400)" d="M872.827 1479.7 L877.712 1479.7 L877.712 1485.58 L872.827 1485.58 L872.827 1479.7 Z" fill="#000000" fill-rule="nonzero" fill-opacity="1" /><path clip-path="url(#clip400)" d="M887.943 1451.02 L906.299 1451.02 L906.299 1454.96 L892.225 1454.96 L892.225 1463.43 Q893.244 1463.08 894.262 1462.92 Q895.281 1462.73 896.299 1462.73 Q902.086 1462.73 905.466 1465.9 Q908.846 1469.08 908.846 1474.49 Q908.846 1480.07 905.373 1483.17 Q901.901 1486.25 895.582 1486.25 Q893.406 1486.25 891.137 1485.88 Q888.892 1485.51 886.485 1484.77 L886.485 1480.07 Q888.568 1481.2 890.79 1481.76 Q893.012 1482.32 895.489 1482.32 Q899.494 1482.32 901.832 1480.21 Q904.17 1478.1 904.17 1474.49 Q904.17 1470.88 901.832 1468.77 Q899.494 1466.67 895.489 1466.67 Q893.614 1466.67 891.739 1467.08 Q889.887 1467.5 887.943 1468.38 L887.943 1451.02 Z" fill="#000000" fill-rule="nonzero" fill-opacity="1" /><path clip-path="url(#clip400)" d="M1063.97 1481.64 L1071.61 1481.64 L1071.61 1455.28 L1063.3 1456.95 L1063.3 1452.69 L1071.56 1451.02 L1076.24 1451.02 L1076.24 1481.64 L1083.88 1481.64 L1083.88 1485.58 L1063.97 1485.58 L1063.97 1481.64 Z" fill="#000000" fill-rule="nonzero" fill-opacity="1" /><path clip-path="url(#clip400)" d="M1093.32 1479.7 L1098.21 1479.7 L1098.21 1485.58 L1093.32 1485.58 L1093.32 1479.7 Z" fill="#000000" fill-rule="nonzero" fill-opacity="1" /><path clip-path="url(#clip400)" d="M1118.39 1454.1 Q1114.78 1454.1 1112.95 1457.66 Q1111.15 1461.2 1111.15 1468.33 Q1111.15 1475.44 1112.95 1479.01 Q1114.78 1482.55 1118.39 1482.55 Q1122.03 1482.55 1123.83 1479.01 Q1125.66 1475.44 1125.66 1468.33 Q1125.66 1461.2 1123.83 1457.66 Q1122.03 1454.1 1118.39 1454.1 M1118.39 1450.39 Q1124.2 1450.39 1127.26 1455 Q1130.34 1459.58 1130.34 1468.33 Q1130.34 1477.06 1127.26 1481.67 Q1124.2 1486.25 1118.39 1486.25 Q1112.58 1486.25 1109.5 1481.67 Q1106.45 1477.06 1106.45 1468.33 Q1106.45 1459.58 1109.5 1455 Q1112.58 1450.39 1118.39 1450.39 Z" fill="#000000" fill-rule="nonzero" fill-opacity="1" /><path clip-path="url(#clip400)" d="M701.188 1533.45 L701.188 1538.98 Q698.705 1537.71 696.032 1537.07 Q693.358 1536.44 690.494 1536.44 Q686.133 1536.44 683.937 1537.77 Q681.772 1539.11 681.772 1541.79 Q681.772 1543.82 683.332 1545 Q684.892 1546.15 689.602 1547.2 L691.608 1547.64 Q697.846 1548.98 700.456 1551.43 Q703.098 1553.85 703.098 1558.21 Q703.098 1563.17 699.151 1566.07 Q695.236 1568.97 688.361 1568.97 Q685.496 1568.97 682.377 1568.39 Q679.29 1567.85 675.852 1566.74 L675.852 1560.69 Q679.099 1562.38 682.25 1563.24 Q685.401 1564.07 688.488 1564.07 Q692.626 1564.07 694.854 1562.66 Q697.082 1561.23 697.082 1558.65 Q697.082 1556.27 695.459 1554.99 Q693.867 1553.72 688.425 1552.54 L686.388 1552.07 Q680.945 1550.92 678.526 1548.56 Q676.107 1546.18 676.107 1542.04 Q676.107 1537.01 679.672 1534.27 Q683.237 1531.54 689.793 1531.54 Q693.04 1531.54 695.904 1532.01 Q698.769 1532.49 701.188 1533.45 Z" fill="#000000" fill-rule="nonzero" fill-opacity="1" /><polyline clip-path="url(#clip400)" style="stroke:#000000; stroke-linecap:round; stroke-linejoin:round; stroke-width:4; stroke-opacity:1; fill:none" points="257.69,1423.18 257.69,47.2441 "/>
<polyline clip-path="url(#clip400)" style="stroke:#000000; stroke-linecap:round; stroke-linejoin:round; stroke-width:4; stroke-opacity:1; fill:none" points="257.69,1292.29 276.588,1292.29 "/>
<polyline clip-path="url(#clip400)" style="stroke:#000000; stroke-linecap:round; stroke-linejoin:round; stroke-width:4; stroke-opacity:1; fill:none" points="257.69,1136.65 276.588,1136.65 "/>
<polyline clip-path="url(#clip400)" style="stroke:#000000; stroke-linecap:round; stroke-linejoin:round; stroke-width:4; stroke-opacity:1; fill:none" points="257.69,981.012 276.588,981.012 "/>
<polyline clip-path="url(#clip400)" style="stroke:#000000; stroke-linecap:round; stroke-linejoin:round; stroke-width:4; stroke-opacity:1; fill:none" points="257.69,825.372 276.588,825.372 "/>
<polyline clip-path="url(#clip400)" style="stroke:#000000; stroke-linecap:round; stroke-linejoin:round; stroke-width:4; stroke-opacity:1; fill:none" points="257.69,669.732 276.588,669.732 "/>
<polyline clip-path="url(#clip400)" style="stroke:#000000; stroke-linecap:round; stroke-linejoin:round; stroke-width:4; stroke-opacity:1; fill:none" points="257.69,514.091 276.588,514.091 "/>
<polyline clip-path="url(#clip400)" style="stroke:#000000; stroke-linecap:round; stroke-linejoin:round; stroke-width:4; stroke-opacity:1; fill:none" points="257.69,358.451 276.588,358.451 "/>
<polyline clip-path="url(#clip400)" style="stroke:#000000; stroke-linecap:round; stroke-linejoin:round; stroke-width:4; stroke-opacity:1; fill:none" points="257.69,202.811 276.588,202.811 "/>
<path clip-path="url(#clip400)" d="M114.839 1292.74 L144.515 1292.74 L144.515 1296.68 L114.839 1296.68 L114.839 1292.74 Z" fill="#000000" fill-rule="nonzero" fill-opacity="1" /><path clip-path="url(#clip400)" d="M164.607 1278.09 Q160.996 1278.09 159.167 1281.66 Q157.362 1285.2 157.362 1292.33 Q157.362 1299.43 159.167 1303 Q160.996 1306.54 164.607 1306.54 Q168.241 1306.54 170.047 1303 Q171.876 1299.43 171.876 1292.33 Q171.876 1285.2 170.047 1281.66 Q168.241 1278.09 164.607 1278.09 M164.607 1274.39 Q170.417 1274.39 173.473 1278.99 Q176.551 1283.58 176.551 1292.33 Q176.551 1301.05 173.473 1305.66 Q170.417 1310.24 164.607 1310.24 Q158.797 1310.24 155.718 1305.66 Q152.663 1301.05 152.663 1292.33 Q152.663 1283.58 155.718 1278.99 Q158.797 1274.39 164.607 1274.39 Z" fill="#000000" fill-rule="nonzero" fill-opacity="1" /><path clip-path="url(#clip400)" d="M184.769 1303.69 L189.653 1303.69 L189.653 1309.57 L184.769 1309.57 L184.769 1303.69 Z" fill="#000000" fill-rule="nonzero" fill-opacity="1" /><path clip-path="url(#clip400)" d="M209.838 1293.16 Q206.505 1293.16 204.584 1294.94 Q202.686 1296.73 202.686 1299.85 Q202.686 1302.98 204.584 1304.76 Q206.505 1306.54 209.838 1306.54 Q213.172 1306.54 215.093 1304.76 Q217.014 1302.95 217.014 1299.85 Q217.014 1296.73 215.093 1294.94 Q213.195 1293.16 209.838 1293.16 M205.162 1291.17 Q202.153 1290.43 200.463 1288.37 Q198.797 1286.31 198.797 1283.35 Q198.797 1279.2 201.737 1276.8 Q204.699 1274.39 209.838 1274.39 Q215 1274.39 217.94 1276.8 Q220.88 1279.2 220.88 1283.35 Q220.88 1286.31 219.19 1288.37 Q217.523 1290.43 214.537 1291.17 Q217.917 1291.96 219.792 1294.25 Q221.69 1296.54 221.69 1299.85 Q221.69 1304.87 218.611 1307.56 Q215.556 1310.24 209.838 1310.24 Q204.121 1310.24 201.042 1307.56 Q197.987 1304.87 197.987 1299.85 Q197.987 1296.54 199.885 1294.25 Q201.783 1291.96 205.162 1291.17 M203.449 1283.79 Q203.449 1286.47 205.116 1287.98 Q206.806 1289.48 209.838 1289.48 Q212.848 1289.48 214.537 1287.98 Q216.25 1286.47 216.25 1283.79 Q216.25 1281.1 214.537 1279.6 Q212.848 1278.09 209.838 1278.09 Q206.806 1278.09 205.116 1279.6 Q203.449 1281.1 203.449 1283.79 Z" fill="#000000" fill-rule="nonzero" fill-opacity="1" /><path clip-path="url(#clip400)" d="M114.584 1137.1 L144.26 1137.1 L144.26 1141.04 L114.584 1141.04 L114.584 1137.1 Z" fill="#000000" fill-rule="nonzero" fill-opacity="1" /><path clip-path="url(#clip400)" d="M164.352 1122.45 Q160.741 1122.45 158.913 1126.02 Q157.107 1129.56 157.107 1136.69 Q157.107 1143.79 158.913 1147.36 Q160.741 1150.9 164.352 1150.9 Q167.987 1150.9 169.792 1147.36 Q171.621 1143.79 171.621 1136.69 Q171.621 1129.56 169.792 1126.02 Q167.987 1122.45 164.352 1122.45 M164.352 1118.75 Q170.163 1118.75 173.218 1123.35 Q176.297 1127.94 176.297 1136.69 Q176.297 1145.41 173.218 1150.02 Q170.163 1154.6 164.352 1154.6 Q158.542 1154.6 155.464 1150.02 Q152.408 1145.41 152.408 1136.69 Q152.408 1127.94 155.464 1123.35 Q158.542 1118.75 164.352 1118.75 Z" fill="#000000" fill-rule="nonzero" fill-opacity="1" /><path clip-path="url(#clip400)" d="M184.514 1148.05 L189.399 1148.05 L189.399 1153.93 L184.514 1153.93 L184.514 1148.05 Z" fill="#000000" fill-rule="nonzero" fill-opacity="1" /><path clip-path="url(#clip400)" d="M210.162 1134.79 Q207.014 1134.79 205.162 1136.94 Q203.334 1139.09 203.334 1142.84 Q203.334 1146.57 205.162 1148.75 Q207.014 1150.9 210.162 1150.9 Q213.311 1150.9 215.139 1148.75 Q216.991 1146.57 216.991 1142.84 Q216.991 1139.09 215.139 1136.94 Q213.311 1134.79 210.162 1134.79 M219.445 1120.14 L219.445 1124.4 Q217.686 1123.56 215.88 1123.12 Q214.098 1122.68 212.338 1122.68 Q207.709 1122.68 205.255 1125.81 Q202.824 1128.93 202.477 1135.25 Q203.843 1133.24 205.903 1132.17 Q207.963 1131.09 210.44 1131.09 Q215.649 1131.09 218.658 1134.26 Q221.69 1137.41 221.69 1142.84 Q221.69 1148.17 218.542 1151.39 Q215.394 1154.6 210.162 1154.6 Q204.167 1154.6 200.996 1150.02 Q197.825 1145.41 197.825 1136.69 Q197.825 1128.49 201.713 1123.63 Q205.602 1118.75 212.153 1118.75 Q213.912 1118.75 215.695 1119.09 Q217.5 1119.44 219.445 1120.14 Z" fill="#000000" fill-rule="nonzero" fill-opacity="1" /><path clip-path="url(#clip400)" d="M114.26 981.464 L143.936 981.464 L143.936 985.399 L114.26 985.399 L114.26 981.464 Z" fill="#000000" fill-rule="nonzero" fill-opacity="1" /><path clip-path="url(#clip400)" d="M164.028 966.811 Q160.417 966.811 158.589 970.376 Q156.783 973.918 156.783 981.047 Q156.783 988.154 158.589 991.718 Q160.417 995.26 164.028 995.26 Q167.663 995.26 169.468 991.718 Q171.297 988.154 171.297 981.047 Q171.297 973.918 169.468 970.376 Q167.663 966.811 164.028 966.811 M164.028 963.107 Q169.839 963.107 172.894 967.714 Q175.973 972.297 175.973 981.047 Q175.973 989.774 172.894 994.38 Q169.839 998.964 164.028 998.964 Q158.218 998.964 155.14 994.38 Q152.084 989.774 152.084 981.047 Q152.084 972.297 155.14 967.714 Q158.218 963.107 164.028 963.107 Z" fill="#000000" fill-rule="nonzero" fill-opacity="1" /><path clip-path="url(#clip400)" d="M184.19 992.413 L189.075 992.413 L189.075 998.292 L184.19 998.292 L184.19 992.413 Z" fill="#000000" fill-rule="nonzero" fill-opacity="1" /><path clip-path="url(#clip400)" d="M212.107 967.806 L200.301 986.255 L212.107 986.255 L212.107 967.806 M210.88 963.732 L216.76 963.732 L216.76 986.255 L221.69 986.255 L221.69 990.144 L216.76 990.144 L216.76 998.292 L212.107 998.292 L212.107 990.144 L196.505 990.144 L196.505 985.63 L210.88 963.732 Z" fill="#000000" fill-rule="nonzero" fill-opacity="1" /><path clip-path="url(#clip400)" d="M116.343 825.823 L146.019 825.823 L146.019 829.759 L116.343 829.759 L116.343 825.823 Z" fill="#000000" fill-rule="nonzero" fill-opacity="1" /><path clip-path="url(#clip400)" d="M166.112 811.171 Q162.501 811.171 160.672 814.736 Q158.866 818.277 158.866 825.407 Q158.866 832.513 160.672 836.078 Q162.501 839.62 166.112 839.62 Q169.746 839.62 171.552 836.078 Q173.38 832.513 173.38 825.407 Q173.38 818.277 171.552 814.736 Q169.746 811.171 166.112 811.171 M166.112 807.467 Q171.922 807.467 174.977 812.074 Q178.056 816.657 178.056 825.407 Q178.056 834.134 174.977 838.74 Q171.922 843.323 166.112 843.323 Q160.302 843.323 157.223 838.74 Q154.167 834.134 154.167 825.407 Q154.167 816.657 157.223 812.074 Q160.302 807.467 166.112 807.467 Z" fill="#000000" fill-rule="nonzero" fill-opacity="1" /><path clip-path="url(#clip400)" d="M186.274 836.772 L191.158 836.772 L191.158 842.652 L186.274 842.652 L186.274 836.772 Z" fill="#000000" fill-rule="nonzero" fill-opacity="1" /><path clip-path="url(#clip400)" d="M205.371 838.717 L221.69 838.717 L221.69 842.652 L199.746 842.652 L199.746 838.717 Q202.408 835.962 206.991 831.333 Q211.598 826.68 212.778 825.337 Q215.024 822.814 215.903 821.078 Q216.806 819.319 216.806 817.629 Q216.806 814.874 214.861 813.138 Q212.94 811.402 209.838 811.402 Q207.639 811.402 205.186 812.166 Q202.755 812.93 199.977 814.481 L199.977 809.759 Q202.801 808.624 205.255 808.046 Q207.709 807.467 209.746 807.467 Q215.116 807.467 218.311 810.152 Q221.505 812.837 221.505 817.328 Q221.505 819.458 220.695 821.379 Q219.908 823.277 217.801 825.87 Q217.223 826.541 214.121 829.759 Q211.019 832.953 205.371 838.717 Z" fill="#000000" fill-rule="nonzero" fill-opacity="1" /><path clip-path="url(#clip400)" d="M164.515 655.53 Q160.903 655.53 159.075 659.095 Q157.269 662.637 157.269 669.766 Q157.269 676.873 159.075 680.438 Q160.903 683.979 164.515 683.979 Q168.149 683.979 169.954 680.438 Q171.783 676.873 171.783 669.766 Q171.783 662.637 169.954 659.095 Q168.149 655.53 164.515 655.53 M164.515 651.827 Q170.325 651.827 173.38 656.433 Q176.459 661.016 176.459 669.766 Q176.459 678.493 173.38 683.1 Q170.325 687.683 164.515 687.683 Q158.704 687.683 155.626 683.1 Q152.57 678.493 152.57 669.766 Q152.57 661.016 155.626 656.433 Q158.704 651.827 164.515 651.827 Z" fill="#000000" fill-rule="nonzero" fill-opacity="1" /><path clip-path="url(#clip400)" d="M184.676 681.132 L189.561 681.132 L189.561 687.012 L184.676 687.012 L184.676 681.132 Z" fill="#000000" fill-rule="nonzero" fill-opacity="1" /><path clip-path="url(#clip400)" d="M209.746 655.53 Q206.135 655.53 204.306 659.095 Q202.5 662.637 202.5 669.766 Q202.5 676.873 204.306 680.438 Q206.135 683.979 209.746 683.979 Q213.38 683.979 215.186 680.438 Q217.014 676.873 217.014 669.766 Q217.014 662.637 215.186 659.095 Q213.38 655.53 209.746 655.53 M209.746 651.827 Q215.556 651.827 218.611 656.433 Q221.69 661.016 221.69 669.766 Q221.69 678.493 218.611 683.1 Q215.556 687.683 209.746 687.683 Q203.936 687.683 200.857 683.1 Q197.801 678.493 197.801 669.766 Q197.801 661.016 200.857 656.433 Q203.936 651.827 209.746 651.827 Z" fill="#000000" fill-rule="nonzero" fill-opacity="1" /><path clip-path="url(#clip400)" d="M166.112 499.89 Q162.501 499.89 160.672 503.455 Q158.866 506.996 158.866 514.126 Q158.866 521.233 160.672 524.797 Q162.501 528.339 166.112 528.339 Q169.746 528.339 171.552 524.797 Q173.38 521.233 173.38 514.126 Q173.38 506.996 171.552 503.455 Q169.746 499.89 166.112 499.89 M166.112 496.186 Q171.922 496.186 174.977 500.793 Q178.056 505.376 178.056 514.126 Q178.056 522.853 174.977 527.459 Q171.922 532.043 166.112 532.043 Q160.302 532.043 157.223 527.459 Q154.167 522.853 154.167 514.126 Q154.167 505.376 157.223 500.793 Q160.302 496.186 166.112 496.186 Z" fill="#000000" fill-rule="nonzero" fill-opacity="1" /><path clip-path="url(#clip400)" d="M186.274 525.492 L191.158 525.492 L191.158 531.371 L186.274 531.371 L186.274 525.492 Z" fill="#000000" fill-rule="nonzero" fill-opacity="1" /><path clip-path="url(#clip400)" d="M205.371 527.436 L221.69 527.436 L221.69 531.371 L199.746 531.371 L199.746 527.436 Q202.408 524.682 206.991 520.052 Q211.598 515.399 212.778 514.057 Q215.024 511.534 215.903 509.797 Q216.806 508.038 216.806 506.348 Q216.806 503.594 214.861 501.858 Q212.94 500.122 209.838 500.122 Q207.639 500.122 205.186 500.885 Q202.755 501.649 199.977 503.2 L199.977 498.478 Q202.801 497.344 205.255 496.765 Q207.709 496.186 209.746 496.186 Q215.116 496.186 218.311 498.872 Q221.505 501.557 221.505 506.047 Q221.505 508.177 220.695 510.098 Q219.908 511.996 217.801 514.589 Q217.223 515.26 214.121 518.478 Q211.019 521.672 205.371 527.436 Z" fill="#000000" fill-rule="nonzero" fill-opacity="1" /><path clip-path="url(#clip400)" d="M164.028 344.25 Q160.417 344.25 158.589 347.814 Q156.783 351.356 156.783 358.486 Q156.783 365.592 158.589 369.157 Q160.417 372.699 164.028 372.699 Q167.663 372.699 169.468 369.157 Q171.297 365.592 171.297 358.486 Q171.297 351.356 169.468 347.814 Q167.663 344.25 164.028 344.25 M164.028 340.546 Q169.839 340.546 172.894 345.152 Q175.973 349.736 175.973 358.486 Q175.973 367.213 172.894 371.819 Q169.839 376.402 164.028 376.402 Q158.218 376.402 155.14 371.819 Q152.084 367.213 152.084 358.486 Q152.084 349.736 155.14 345.152 Q158.218 340.546 164.028 340.546 Z" fill="#000000" fill-rule="nonzero" fill-opacity="1" /><path clip-path="url(#clip400)" d="M184.19 369.851 L189.075 369.851 L189.075 375.731 L184.19 375.731 L184.19 369.851 Z" fill="#000000" fill-rule="nonzero" fill-opacity="1" /><path clip-path="url(#clip400)" d="M212.107 345.245 L200.301 363.694 L212.107 363.694 L212.107 345.245 M210.88 341.171 L216.76 341.171 L216.76 363.694 L221.69 363.694 L221.69 367.583 L216.76 367.583 L216.76 375.731 L212.107 375.731 L212.107 367.583 L196.505 367.583 L196.505 363.069 L210.88 341.171 Z" fill="#000000" fill-rule="nonzero" fill-opacity="1" /><path clip-path="url(#clip400)" d="M164.352 188.609 Q160.741 188.609 158.913 192.174 Q157.107 195.716 157.107 202.845 Q157.107 209.952 158.913 213.517 Q160.741 217.058 164.352 217.058 Q167.987 217.058 169.792 213.517 Q171.621 209.952 171.621 202.845 Q171.621 195.716 169.792 192.174 Q167.987 188.609 164.352 188.609 M164.352 184.906 Q170.163 184.906 173.218 189.512 Q176.297 194.095 176.297 202.845 Q176.297 211.572 173.218 216.179 Q170.163 220.762 164.352 220.762 Q158.542 220.762 155.464 216.179 Q152.408 211.572 152.408 202.845 Q152.408 194.095 155.464 189.512 Q158.542 184.906 164.352 184.906 Z" fill="#000000" fill-rule="nonzero" fill-opacity="1" /><path clip-path="url(#clip400)" d="M184.514 214.211 L189.399 214.211 L189.399 220.091 L184.514 220.091 L184.514 214.211 Z" fill="#000000" fill-rule="nonzero" fill-opacity="1" /><path clip-path="url(#clip400)" d="M210.162 200.947 Q207.014 200.947 205.162 203.1 Q203.334 205.253 203.334 209.003 Q203.334 212.73 205.162 214.906 Q207.014 217.058 210.162 217.058 Q213.311 217.058 215.139 214.906 Q216.991 212.73 216.991 209.003 Q216.991 205.253 215.139 203.1 Q213.311 200.947 210.162 200.947 M219.445 186.295 L219.445 190.554 Q217.686 189.72 215.88 189.281 Q214.098 188.841 212.338 188.841 Q207.709 188.841 205.255 191.966 Q202.824 195.091 202.477 201.41 Q203.843 199.396 205.903 198.332 Q207.963 197.244 210.44 197.244 Q215.649 197.244 218.658 200.415 Q221.69 203.563 221.69 209.003 Q221.69 214.327 218.542 217.544 Q215.394 220.762 210.162 220.762 Q204.167 220.762 200.996 216.179 Q197.825 211.572 197.825 202.845 Q197.825 194.651 201.713 189.79 Q205.602 184.906 212.153 184.906 Q213.912 184.906 215.695 185.253 Q217.5 185.6 219.445 186.295 Z" fill="#000000" fill-rule="nonzero" fill-opacity="1" /><path clip-path="url(#clip400)" d="M29.4065 723.499 L34.9447 723.499 Q33.6716 725.982 33.035 728.655 Q32.3984 731.329 32.3984 734.193 Q32.3984 738.554 33.7352 740.75 Q35.072 742.914 37.7456 742.914 Q39.7826 742.914 40.9603 741.355 Q42.1061 739.795 43.1565 735.085 L43.6021 733.079 Q44.9389 726.841 47.3897 724.231 Q49.8086 721.589 54.1691 721.589 Q59.1344 721.589 62.0308 725.536 Q64.9272 729.451 64.9272 736.326 Q64.9272 739.191 64.3543 742.31 Q63.8132 745.397 62.6992 748.835 L56.6518 748.835 Q58.3387 745.588 59.198 742.437 Q60.0256 739.286 60.0256 736.199 Q60.0256 732.061 58.6251 729.833 Q57.1929 727.605 54.6147 727.605 Q52.2276 727.605 50.9545 729.228 Q49.6813 730.82 48.5037 736.262 L48.0262 738.299 Q46.8804 743.742 44.5251 746.161 Q42.138 748.58 38.0002 748.58 Q32.9713 748.58 30.2341 745.015 Q27.4968 741.45 27.4968 734.894 Q27.4968 731.647 27.9743 728.783 Q28.4517 725.918 29.4065 723.499 Z" fill="#000000" fill-rule="nonzero" fill-opacity="1" /><polyline clip-path="url(#clip402)" style="stroke:#000003; stroke-linecap:round; stroke-linejoin:round; stroke-width:12; stroke-opacity:1; fill:none" points="652.748,669.732 657.152,668.244 "/>
<polyline clip-path="url(#clip402)" style="stroke:#010007; stroke-linecap:round; stroke-linejoin:round; stroke-width:12; stroke-opacity:1; fill:none" points="657.152,668.244 661.076,663.889 "/>
<polyline clip-path="url(#clip402)" style="stroke:#02010c; stroke-linecap:round; stroke-linejoin:round; stroke-width:12; stroke-opacity:1; fill:none" points="661.076,663.889 664.068,656.982 "/>
<polyline clip-path="url(#clip402)" style="stroke:#030211; stroke-linecap:round; stroke-linejoin:round; stroke-width:12; stroke-opacity:1; fill:none" points="664.068,656.982 665.733,648.034 "/>
<polyline clip-path="url(#clip402)" style="stroke:#050417; stroke-linecap:round; stroke-linejoin:round; stroke-width:12; stroke-opacity:1; fill:none" points="665.733,648.034 665.757,637.716 "/>
<polyline clip-path="url(#clip402)" style="stroke:#07051c; stroke-linecap:round; stroke-linejoin:round; stroke-width:12; stroke-opacity:1; fill:none" points="665.757,637.716 663.928,626.83 "/>
<polyline clip-path="url(#clip402)" style="stroke:#0a0622; stroke-linecap:round; stroke-linejoin:round; stroke-width:12; stroke-opacity:1; fill:none" points="663.928,626.83 660.15,616.258 "/>
<polyline clip-path="url(#clip402)" style="stroke:#0d0828; stroke-linecap:round; stroke-linejoin:round; stroke-width:12; stroke-opacity:1; fill:none" points="660.15,616.258 654.455,606.918 "/>
<polyline clip-path="url(#clip402)" style="stroke:#10092e; stroke-linecap:round; stroke-linejoin:round; stroke-width:12; stroke-opacity:1; fill:none" points="654.455,606.918 647.002,599.706 "/>
<polyline clip-path="url(#clip402)" style="stroke:#130a34; stroke-linecap:round; stroke-linejoin:round; stroke-width:12; stroke-opacity:1; fill:none" points="647.002,599.706 638.077,595.449 "/>
<polyline clip-path="url(#clip402)" style="stroke:#170b3b; stroke-linecap:round; stroke-linejoin:round; stroke-width:12; stroke-opacity:1; fill:none" points="638.077,595.449 628.077,594.849 "/>
<polyline clip-path="url(#clip402)" style="stroke:#1b0c41; stroke-linecap:round; stroke-linejoin:round; stroke-width:12; stroke-opacity:1; fill:none" points="628.077,594.849 617.498,598.444 "/>
<polyline clip-path="url(#clip402)" style="stroke:#1f0c47; stroke-linecap:round; stroke-linejoin:round; stroke-width:12; stroke-opacity:1; fill:none" points="617.498,598.444 606.911,606.563 "/>
<polyline clip-path="url(#clip402)" style="stroke:#230b4d; stroke-linecap:round; stroke-linejoin:round; stroke-width:12; stroke-opacity:1; fill:none" points="606.911,606.563 596.93,619.304 "/>
<polyline clip-path="url(#clip402)" style="stroke:#270b53; stroke-linecap:round; stroke-linejoin:round; stroke-width:12; stroke-opacity:1; fill:none" points="596.93,619.304 588.189,636.513 "/>
<polyline clip-path="url(#clip402)" style="stroke:#2c0a58; stroke-linecap:round; stroke-linejoin:round; stroke-width:12; stroke-opacity:1; fill:none" points="588.189,636.513 581.303,657.777 "/>
<polyline clip-path="url(#clip402)" style="stroke:#30095c; stroke-linecap:round; stroke-linejoin:round; stroke-width:12; stroke-opacity:1; fill:none" points="581.303,657.777 576.838,682.434 "/>
<polyline clip-path="url(#clip402)" style="stroke:#350960; stroke-linecap:round; stroke-linejoin:round; stroke-width:12; stroke-opacity:1; fill:none" points="576.838,682.434 575.278,709.594 "/>
<polyline clip-path="url(#clip402)" style="stroke:#390963; stroke-linecap:round; stroke-linejoin:round; stroke-width:12; stroke-opacity:1; fill:none" points="575.278,709.594 576.996,738.169 "/>
<polyline clip-path="url(#clip402)" style="stroke:#3e0965; stroke-linecap:round; stroke-linejoin:round; stroke-width:12; stroke-opacity:1; fill:none" points="576.996,738.169 582.23,766.914 "/>
<polyline clip-path="url(#clip402)" style="stroke:#420968; stroke-linecap:round; stroke-linejoin:round; stroke-width:12; stroke-opacity:1; fill:none" points="582.23,766.914 591.062,794.486 "/>
<polyline clip-path="url(#clip402)" style="stroke:#470a69; stroke-linecap:round; stroke-linejoin:round; stroke-width:12; stroke-opacity:1; fill:none" points="591.062,794.486 603.406,819.497 "/>
<polyline clip-path="url(#clip402)" style="stroke:#4b0b6b; stroke-linecap:round; stroke-linejoin:round; stroke-width:12; stroke-opacity:1; fill:none" points="603.406,819.497 619.004,840.583 "/>
<polyline clip-path="url(#clip402)" style="stroke:#4f0d6c; stroke-linecap:round; stroke-linejoin:round; stroke-width:12; stroke-opacity:1; fill:none" points="619.004,840.583 637.427,856.466 "/>
<polyline clip-path="url(#clip402)" style="stroke:#530e6c; stroke-linecap:round; stroke-linejoin:round; stroke-width:12; stroke-opacity:1; fill:none" points="637.427,856.466 658.083,866.025 "/>
<polyline clip-path="url(#clip402)" style="stroke:#57106d; stroke-linecap:round; stroke-linejoin:round; stroke-width:12; stroke-opacity:1; fill:none" points="658.083,866.025 680.243,868.347 "/>
<polyline clip-path="url(#clip402)" style="stroke:#5b116e; stroke-linecap:round; stroke-linejoin:round; stroke-width:12; stroke-opacity:1; fill:none" points="680.243,868.347 703.059,862.789 "/>
<polyline clip-path="url(#clip402)" style="stroke:#5f136e; stroke-linecap:round; stroke-linejoin:round; stroke-width:12; stroke-opacity:1; fill:none" points="703.059,862.789 725.6,849.018 "/>
<polyline clip-path="url(#clip402)" style="stroke:#64146e; stroke-linecap:round; stroke-linejoin:round; stroke-width:12; stroke-opacity:1; fill:none" points="725.6,849.018 746.892,827.041 "/>
<polyline clip-path="url(#clip402)" style="stroke:#68166e; stroke-linecap:round; stroke-linejoin:round; stroke-width:12; stroke-opacity:1; fill:none" points="746.892,827.041 765.953,797.225 "/>
<polyline clip-path="url(#clip402)" style="stroke:#6c176e; stroke-linecap:round; stroke-linejoin:round; stroke-width:12; stroke-opacity:1; fill:none" points="765.953,797.225 781.84,760.298 "/>
<polyline clip-path="url(#clip402)" style="stroke:#70196e; stroke-linecap:round; stroke-linejoin:round; stroke-width:12; stroke-opacity:1; fill:none" points="781.84,760.298 793.692,717.336 "/>
<polyline clip-path="url(#clip402)" style="stroke:#741a6d; stroke-linecap:round; stroke-linejoin:round; stroke-width:12; stroke-opacity:1; fill:none" points="793.692,717.336 800.771,669.732 "/>
<polyline clip-path="url(#clip402)" style="stroke:#781c6d; stroke-linecap:round; stroke-linejoin:round; stroke-width:12; stroke-opacity:1; fill:none" points="800.771,669.732 802.501,619.152 "/>
<polyline clip-path="url(#clip402)" style="stroke:#7c1d6c; stroke-linecap:round; stroke-linejoin:round; stroke-width:12; stroke-opacity:1; fill:none" points="802.501,619.152 798.497,567.479 "/>
<polyline clip-path="url(#clip402)" style="stroke:#801f6b; stroke-linecap:round; stroke-linejoin:round; stroke-width:12; stroke-opacity:1; fill:none" points="798.497,567.479 788.594,516.74 "/>
<polyline clip-path="url(#clip402)" style="stroke:#84206b; stroke-linecap:round; stroke-linejoin:round; stroke-width:12; stroke-opacity:1; fill:none" points="788.594,516.74 772.863,469.027 "/>
<polyline clip-path="url(#clip402)" style="stroke:#88216a; stroke-linecap:round; stroke-linejoin:round; stroke-width:12; stroke-opacity:1; fill:none" points="772.863,469.027 751.619,426.415 "/>
<polyline clip-path="url(#clip402)" style="stroke:#8c2369; stroke-linecap:round; stroke-linejoin:round; stroke-width:12; stroke-opacity:1; fill:none" points="751.619,426.415 725.419,390.871 "/>
<polyline clip-path="url(#clip402)" style="stroke:#912467; stroke-linecap:round; stroke-linejoin:round; stroke-width:12; stroke-opacity:1; fill:none" points="725.419,390.871 695.048,364.17 "/>
<polyline clip-path="url(#clip402)" style="stroke:#952666; stroke-linecap:round; stroke-linejoin:round; stroke-width:12; stroke-opacity:1; fill:none" points="695.048,364.17 661.498,347.811 "/>
<polyline clip-path="url(#clip402)" style="stroke:#992765; stroke-linecap:round; stroke-linejoin:round; stroke-width:12; stroke-opacity:1; fill:none" points="661.498,347.811 625.936,342.946 "/>
<polyline clip-path="url(#clip402)" style="stroke:#9d2963; stroke-linecap:round; stroke-linejoin:round; stroke-width:12; stroke-opacity:1; fill:none" points="625.936,342.946 589.663,350.315 "/>
<polyline clip-path="url(#clip402)" style="stroke:#a12a62; stroke-linecap:round; stroke-linejoin:round; stroke-width:12; stroke-opacity:1; fill:none" points="589.663,350.315 554.065,370.202 "/>
<polyline clip-path="url(#clip402)" style="stroke:#a52c60; stroke-linecap:round; stroke-linejoin:round; stroke-width:12; stroke-opacity:1; fill:none" points="554.065,370.202 520.563,402.402 "/>
<polyline clip-path="url(#clip402)" style="stroke:#a92e5e; stroke-linecap:round; stroke-linejoin:round; stroke-width:12; stroke-opacity:1; fill:none" points="520.563,402.402 490.556,446.212 "/>
<polyline clip-path="url(#clip402)" style="stroke:#ad2f5c; stroke-linecap:round; stroke-linejoin:round; stroke-width:12; stroke-opacity:1; fill:none" points="490.556,446.212 465.362,500.44 "/>
<polyline clip-path="url(#clip402)" style="stroke:#b1315a; stroke-linecap:round; stroke-linejoin:round; stroke-width:12; stroke-opacity:1; fill:none" points="465.362,500.44 446.161,563.431 "/>
<polyline clip-path="url(#clip402)" style="stroke:#b53358; stroke-linecap:round; stroke-linejoin:round; stroke-width:12; stroke-opacity:1; fill:none" points="446.161,563.431 433.95,633.119 "/>
<polyline clip-path="url(#clip402)" style="stroke:#b83555; stroke-linecap:round; stroke-linejoin:round; stroke-width:12; stroke-opacity:1; fill:none" points="433.95,633.119 429.484,707.092 "/>
<polyline clip-path="url(#clip402)" style="stroke:#bc3753; stroke-linecap:round; stroke-linejoin:round; stroke-width:12; stroke-opacity:1; fill:none" points="429.484,707.092 433.25,782.676 "/>
<polyline clip-path="url(#clip402)" style="stroke:#c03951; stroke-linecap:round; stroke-linejoin:round; stroke-width:12; stroke-opacity:1; fill:none" points="433.25,782.676 445.427,857.033 "/>
<polyline clip-path="url(#clip402)" style="stroke:#c43c4e; stroke-linecap:round; stroke-linejoin:round; stroke-width:12; stroke-opacity:1; fill:none" points="445.427,857.033 465.875,927.265 "/>
<polyline clip-path="url(#clip402)" style="stroke:#c73e4b; stroke-linecap:round; stroke-linejoin:round; stroke-width:12; stroke-opacity:1; fill:none" points="465.875,927.265 494.127,990.528 "/>
<polyline clip-path="url(#clip402)" style="stroke:#cb4149; stroke-linecap:round; stroke-linejoin:round; stroke-width:12; stroke-opacity:1; fill:none" points="494.127,990.528 529.394,1044.14 "/>
<polyline clip-path="url(#clip402)" style="stroke:#ce4346; stroke-linecap:round; stroke-linejoin:round; stroke-width:12; stroke-opacity:1; fill:none" points="529.394,1044.14 570.591,1085.72 "/>
<polyline clip-path="url(#clip402)" style="stroke:#d24643; stroke-linecap:round; stroke-linejoin:round; stroke-width:12; stroke-opacity:1; fill:none" points="570.591,1085.72 616.361,1113.23 "/>
<polyline clip-path="url(#clip402)" style="stroke:#d54940; stroke-linecap:round; stroke-linejoin:round; stroke-width:12; stroke-opacity:1; fill:none" points="616.361,1113.23 665.127,1125.13 "/>
<polyline clip-path="url(#clip402)" style="stroke:#d84c3d; stroke-linecap:round; stroke-linejoin:round; stroke-width:12; stroke-opacity:1; fill:none" points="665.127,1125.13 715.141,1120.44 "/>
<polyline clip-path="url(#clip402)" style="stroke:#db4f3a; stroke-linecap:round; stroke-linejoin:round; stroke-width:12; stroke-opacity:1; fill:none" points="715.141,1120.44 764.55,1098.75 "/>
<polyline clip-path="url(#clip402)" style="stroke:#de5237; stroke-linecap:round; stroke-linejoin:round; stroke-width:12; stroke-opacity:1; fill:none" points="764.55,1098.75 811.463,1060.32 "/>
<polyline clip-path="url(#clip402)" style="stroke:#e15634; stroke-linecap:round; stroke-linejoin:round; stroke-width:12; stroke-opacity:1; fill:none" points="811.463,1060.32 854.022,1006.05 "/>
<polyline clip-path="url(#clip402)" style="stroke:#e35931; stroke-linecap:round; stroke-linejoin:round; stroke-width:12; stroke-opacity:1; fill:none" points="854.022,1006.05 890.478,937.467 "/>
<polyline clip-path="url(#clip402)" style="stroke:#e65d2e; stroke-linecap:round; stroke-linejoin:round; stroke-width:12; stroke-opacity:1; fill:none" points="890.478,937.467 919.26,856.708 "/>
<polyline clip-path="url(#clip402)" style="stroke:#e8612b; stroke-linecap:round; stroke-linejoin:round; stroke-width:12; stroke-opacity:1; fill:none" points="919.26,856.708 939.041,766.428 "/>
<polyline clip-path="url(#clip402)" style="stroke:#ea6428; stroke-linecap:round; stroke-linejoin:round; stroke-width:12; stroke-opacity:1; fill:none" points="939.041,766.428 948.795,669.732 "/>
<polyline clip-path="url(#clip402)" style="stroke:#ed6825; stroke-linecap:round; stroke-linejoin:round; stroke-width:12; stroke-opacity:1; fill:none" points="948.795,669.732 947.85,570.06 "/>
<polyline clip-path="url(#clip402)" style="stroke:#ef6c21; stroke-linecap:round; stroke-linejoin:round; stroke-width:12; stroke-opacity:1; fill:none" points="947.85,570.06 935.917,471.07 "/>
<polyline clip-path="url(#clip402)" style="stroke:#f0711e; stroke-linecap:round; stroke-linejoin:round; stroke-width:12; stroke-opacity:1; fill:none" points="935.917,471.07 913.119,376.497 "/>
<polyline clip-path="url(#clip402)" style="stroke:#f2751b; stroke-linecap:round; stroke-linejoin:round; stroke-width:12; stroke-opacity:1; fill:none" points="913.119,376.497 879.993,290.02 "/>
<polyline clip-path="url(#clip402)" style="stroke:#f47917; stroke-linecap:round; stroke-linejoin:round; stroke-width:12; stroke-opacity:1; fill:none" points="879.993,290.02 837.482,215.113 "/>
<polyline clip-path="url(#clip402)" style="stroke:#f57e14; stroke-linecap:round; stroke-linejoin:round; stroke-width:12; stroke-opacity:1; fill:none" points="837.482,215.113 786.91,154.912 "/>
<polyline clip-path="url(#clip402)" style="stroke:#f68210; stroke-linecap:round; stroke-linejoin:round; stroke-width:12; stroke-opacity:1; fill:none" points="786.91,154.912 729.946,112.081 "/>
<polyline clip-path="url(#clip402)" style="stroke:#f8870d; stroke-linecap:round; stroke-linejoin:round; stroke-width:12; stroke-opacity:1; fill:none" points="729.946,112.081 668.541,88.7044 "/>
<polyline clip-path="url(#clip402)" style="stroke:#f98b0a; stroke-linecap:round; stroke-linejoin:round; stroke-width:12; stroke-opacity:1; fill:none" points="668.541,88.7044 604.87,86.1857 "/>
<polyline clip-path="url(#clip402)" style="stroke:#f99007; stroke-linecap:round; stroke-linejoin:round; stroke-width:12; stroke-opacity:1; fill:none" points="604.87,86.1857 541.249,105.181 "/>
<polyline clip-path="url(#clip402)" style="stroke:#fa9506; stroke-linecap:round; stroke-linejoin:round; stroke-width:12; stroke-opacity:1; fill:none" points="541.249,105.181 480.053,145.554 "/>
<polyline clip-path="url(#clip402)" style="stroke:#fb9906; stroke-linecap:round; stroke-linejoin:round; stroke-width:12; stroke-opacity:1; fill:none" points="480.053,145.554 423.628,206.36 "/>
<polyline clip-path="url(#clip402)" style="stroke:#fb9e07; stroke-linecap:round; stroke-linejoin:round; stroke-width:12; stroke-opacity:1; fill:none" points="423.628,206.36 374.202,285.862 "/>
<polyline clip-path="url(#clip402)" style="stroke:#fba309; stroke-linecap:round; stroke-linejoin:round; stroke-width:12; stroke-opacity:1; fill:none" points="374.202,285.862 333.793,381.576 "/>
<polyline clip-path="url(#clip402)" style="stroke:#fba80d; stroke-linecap:round; stroke-linejoin:round; stroke-width:12; stroke-opacity:1; fill:none" points="333.793,381.576 304.134,490.35 "/>
<polyline clip-path="url(#clip402)" style="stroke:#fbad11; stroke-linecap:round; stroke-linejoin:round; stroke-width:12; stroke-opacity:1; fill:none" points="304.134,490.35 286.596,608.461 "/>
<polyline clip-path="url(#clip402)" style="stroke:#fbb216; stroke-linecap:round; stroke-linejoin:round; stroke-width:12; stroke-opacity:1; fill:none" points="286.596,608.461 282.131,731.749 "/>
<polyline clip-path="url(#clip402)" style="stroke:#fbb71c; stroke-linecap:round; stroke-linejoin:round; stroke-width:12; stroke-opacity:1; fill:none" points="282.131,731.749 291.222,855.758 "/>
<polyline clip-path="url(#clip402)" style="stroke:#fabc21; stroke-linecap:round; stroke-linejoin:round; stroke-width:12; stroke-opacity:1; fill:none" points="291.222,855.758 313.858,975.897 "/>
<polyline clip-path="url(#clip402)" style="stroke:#fac127; stroke-linecap:round; stroke-linejoin:round; stroke-width:12; stroke-opacity:1; fill:none" points="313.858,975.897 349.52,1087.62 "/>
<polyline clip-path="url(#clip402)" style="stroke:#f9c62e; stroke-linecap:round; stroke-linejoin:round; stroke-width:12; stroke-opacity:1; fill:none" points="349.52,1087.62 397.191,1186.57 "/>
<polyline clip-path="url(#clip402)" style="stroke:#f8cb34; stroke-linecap:round; stroke-linejoin:round; stroke-width:12; stroke-opacity:1; fill:none" points="397.191,1186.57 455.382,1268.79 "/>
<polyline clip-path="url(#clip402)" style="stroke:#f7d03b; stroke-linecap:round; stroke-linejoin:round; stroke-width:12; stroke-opacity:1; fill:none" points="455.382,1268.79 522.177,1330.85 "/>
<polyline clip-path="url(#clip402)" style="stroke:#f6d543; stroke-linecap:round; stroke-linejoin:round; stroke-width:12; stroke-opacity:1; fill:none" points="522.177,1330.85 595.295,1369.99 "/>
<polyline clip-path="url(#clip402)" style="stroke:#f5da4b; stroke-linecap:round; stroke-linejoin:round; stroke-width:12; stroke-opacity:1; fill:none" points="595.295,1369.99 672.17,1384.24 "/>
<polyline clip-path="url(#clip402)" style="stroke:#f3df53; stroke-linecap:round; stroke-linejoin:round; stroke-width:12; stroke-opacity:1; fill:none" points="672.17,1384.24 750.039,1372.52 "/>
<polyline clip-path="url(#clip402)" style="stroke:#f2e45d; stroke-linecap:round; stroke-linejoin:round; stroke-width:12; stroke-opacity:1; fill:none" points="750.039,1372.52 826.041,1334.71 "/>
<polyline clip-path="url(#clip402)" style="stroke:#f1e966; stroke-linecap:round; stroke-linejoin:round; stroke-width:12; stroke-opacity:1; fill:none" points="826.041,1334.71 897.325,1271.62 "/>
<polyline clip-path="url(#clip402)" style="stroke:#f1ed71; stroke-linecap:round; stroke-linejoin:round; stroke-width:12; stroke-opacity:1; fill:none" points="897.325,1271.62 961.152,1185.05 "/>
<polyline clip-path="url(#clip402)" style="stroke:#f1f17c; stroke-linecap:round; stroke-linejoin:round; stroke-width:12; stroke-opacity:1; fill:none" points="961.152,1185.05 1015,1077.71 "/>
<polyline clip-path="url(#clip402)" style="stroke:#f2f586; stroke-linecap:round; stroke-linejoin:round; stroke-width:12; stroke-opacity:1; fill:none" points="1015,1077.71 1056.68,953.117 "/>
<polyline clip-path="url(#clip402)" style="stroke:#f5f891; stroke-linecap:round; stroke-linejoin:round; stroke-width:12; stroke-opacity:1; fill:none" points="1056.68,953.117 1084.39,815.52 "/>
<polyline clip-path="url(#clip402)" style="stroke:#f8fb9b; stroke-linecap:round; stroke-linejoin:round; stroke-width:12; stroke-opacity:1; fill:none" points="1084.39,815.52 1096.82,669.732 "/>
<path clip-path="url(#clip400)" d="M1426.19 1423.18 L2289.76 1423.18 L2289.76 47.2441 L1426.19 47.2441  Z" fill="#ffffff" fill-rule="evenodd" fill-opacity="1"/>
<defs>
  <clipPath id="clip403">
    <rect x="1426" y="47" width="865" height="1377"/>
  </clipPath>
</defs>
<polyline clip-path="url(#clip403)" style="stroke:#000000; stroke-linecap:round; stroke-linejoin:round; stroke-width:2; stroke-opacity:0.1; fill:none" points="1599.22,1423.18 1599.22,47.2441 "/>
<polyline clip-path="url(#clip403)" style="stroke:#000000; stroke-linecap:round; stroke-linejoin:round; stroke-width:2; stroke-opacity:0.1; fill:none" points="1821.25,1423.18 1821.25,47.2441 "/>
<polyline clip-path="url(#clip403)" style="stroke:#000000; stroke-linecap:round; stroke-linejoin:round; stroke-width:2; stroke-opacity:0.1; fill:none" points="2043.29,1423.18 2043.29,47.2441 "/>
<polyline clip-path="url(#clip403)" style="stroke:#000000; stroke-linecap:round; stroke-linejoin:round; stroke-width:2; stroke-opacity:0.1; fill:none" points="2265.32,1423.18 2265.32,47.2441 "/>
<polyline clip-path="url(#clip403)" style="stroke:#000000; stroke-linecap:round; stroke-linejoin:round; stroke-width:2; stroke-opacity:0.1; fill:none" points="1426.19,1292.29 2289.76,1292.29 "/>
<polyline clip-path="url(#clip403)" style="stroke:#000000; stroke-linecap:round; stroke-linejoin:round; stroke-width:2; stroke-opacity:0.1; fill:none" points="1426.19,1136.65 2289.76,1136.65 "/>
<polyline clip-path="url(#clip403)" style="stroke:#000000; stroke-linecap:round; stroke-linejoin:round; stroke-width:2; stroke-opacity:0.1; fill:none" points="1426.19,981.012 2289.76,981.012 "/>
<polyline clip-path="url(#clip403)" style="stroke:#000000; stroke-linecap:round; stroke-linejoin:round; stroke-width:2; stroke-opacity:0.1; fill:none" points="1426.19,825.372 2289.76,825.372 "/>
<polyline clip-path="url(#clip403)" style="stroke:#000000; stroke-linecap:round; stroke-linejoin:round; stroke-width:2; stroke-opacity:0.1; fill:none" points="1426.19,669.732 2289.76,669.732 "/>
<polyline clip-path="url(#clip403)" style="stroke:#000000; stroke-linecap:round; stroke-linejoin:round; stroke-width:2; stroke-opacity:0.1; fill:none" points="1426.19,514.091 2289.76,514.091 "/>
<polyline clip-path="url(#clip403)" style="stroke:#000000; stroke-linecap:round; stroke-linejoin:round; stroke-width:2; stroke-opacity:0.1; fill:none" points="1426.19,358.451 2289.76,358.451 "/>
<polyline clip-path="url(#clip403)" style="stroke:#000000; stroke-linecap:round; stroke-linejoin:round; stroke-width:2; stroke-opacity:0.1; fill:none" points="1426.19,202.811 2289.76,202.811 "/>
<polyline clip-path="url(#clip400)" style="stroke:#000000; stroke-linecap:round; stroke-linejoin:round; stroke-width:4; stroke-opacity:1; fill:none" points="1426.19,1423.18 2289.76,1423.18 "/>
<polyline clip-path="url(#clip400)" style="stroke:#000000; stroke-linecap:round; stroke-linejoin:round; stroke-width:4; stroke-opacity:1; fill:none" points="1599.22,1423.18 1599.22,1404.28 "/>
<polyline clip-path="url(#clip400)" style="stroke:#000000; stroke-linecap:round; stroke-linejoin:round; stroke-width:4; stroke-opacity:1; fill:none" points="1821.25,1423.18 1821.25,1404.28 "/>
<polyline clip-path="url(#clip400)" style="stroke:#000000; stroke-linecap:round; stroke-linejoin:round; stroke-width:4; stroke-opacity:1; fill:none" points="2043.29,1423.18 2043.29,1404.28 "/>
<polyline clip-path="url(#clip400)" style="stroke:#000000; stroke-linecap:round; stroke-linejoin:round; stroke-width:4; stroke-opacity:1; fill:none" points="2265.32,1423.18 2265.32,1404.28 "/>
<path clip-path="url(#clip400)" d="M1546.24 1468.75 L1575.92 1468.75 L1575.92 1472.69 L1546.24 1472.69 L1546.24 1468.75 Z" fill="#000000" fill-rule="nonzero" fill-opacity="1" /><path clip-path="url(#clip400)" d="M1596.01 1454.1 Q1592.4 1454.1 1590.57 1457.66 Q1588.76 1461.2 1588.76 1468.33 Q1588.76 1475.44 1590.57 1479.01 Q1592.4 1482.55 1596.01 1482.55 Q1599.64 1482.55 1601.45 1479.01 Q1603.28 1475.44 1603.28 1468.33 Q1603.28 1461.2 1601.45 1457.66 Q1599.64 1454.1 1596.01 1454.1 M1596.01 1450.39 Q1601.82 1450.39 1604.88 1455 Q1607.95 1459.58 1607.95 1468.33 Q1607.95 1477.06 1604.88 1481.67 Q1601.82 1486.25 1596.01 1486.25 Q1590.2 1486.25 1587.12 1481.67 Q1584.07 1477.06 1584.07 1468.33 Q1584.07 1459.58 1587.12 1455 Q1590.2 1450.39 1596.01 1450.39 Z" fill="#000000" fill-rule="nonzero" fill-opacity="1" /><path clip-path="url(#clip400)" d="M1616.17 1479.7 L1621.06 1479.7 L1621.06 1485.58 L1616.17 1485.58 L1616.17 1479.7 Z" fill="#000000" fill-rule="nonzero" fill-opacity="1" /><path clip-path="url(#clip400)" d="M1631.29 1451.02 L1649.64 1451.02 L1649.64 1454.96 L1635.57 1454.96 L1635.57 1463.43 Q1636.59 1463.08 1637.61 1462.92 Q1638.63 1462.73 1639.64 1462.73 Q1645.43 1462.73 1648.81 1465.9 Q1652.19 1469.08 1652.19 1474.49 Q1652.19 1480.07 1648.72 1483.17 Q1645.25 1486.25 1638.93 1486.25 Q1636.75 1486.25 1634.48 1485.88 Q1632.24 1485.51 1629.83 1484.77 L1629.83 1480.07 Q1631.91 1481.2 1634.13 1481.76 Q1636.36 1482.32 1638.83 1482.32 Q1642.84 1482.32 1645.18 1480.21 Q1647.51 1478.1 1647.51 1474.49 Q1647.51 1470.88 1645.18 1468.77 Q1642.84 1466.67 1638.83 1466.67 Q1636.96 1466.67 1635.08 1467.08 Q1633.23 1467.5 1631.29 1468.38 L1631.29 1451.02 Z" fill="#000000" fill-rule="nonzero" fill-opacity="1" /><path clip-path="url(#clip400)" d="M1798.64 1454.1 Q1795.02 1454.1 1793.2 1457.66 Q1791.39 1461.2 1791.39 1468.33 Q1791.39 1475.44 1793.2 1479.01 Q1795.02 1482.55 1798.64 1482.55 Q1802.27 1482.55 1804.08 1479.01 Q1805.9 1475.44 1805.9 1468.33 Q1805.9 1461.2 1804.08 1457.66 Q1802.27 1454.1 1798.64 1454.1 M1798.64 1450.39 Q1804.45 1450.39 1807.5 1455 Q1810.58 1459.58 1810.58 1468.33 Q1810.58 1477.06 1807.5 1481.67 Q1804.45 1486.25 1798.64 1486.25 Q1792.83 1486.25 1789.75 1481.67 Q1786.69 1477.06 1786.69 1468.33 Q1786.69 1459.58 1789.75 1455 Q1792.83 1450.39 1798.64 1450.39 Z" fill="#000000" fill-rule="nonzero" fill-opacity="1" /><path clip-path="url(#clip400)" d="M1818.8 1479.7 L1823.68 1479.7 L1823.68 1485.58 L1818.8 1485.58 L1818.8 1479.7 Z" fill="#000000" fill-rule="nonzero" fill-opacity="1" /><path clip-path="url(#clip400)" d="M1843.87 1454.1 Q1840.26 1454.1 1838.43 1457.66 Q1836.62 1461.2 1836.62 1468.33 Q1836.62 1475.44 1838.43 1479.01 Q1840.26 1482.55 1843.87 1482.55 Q1847.5 1482.55 1849.31 1479.01 Q1851.14 1475.44 1851.14 1468.33 Q1851.14 1461.2 1849.31 1457.66 Q1847.5 1454.1 1843.87 1454.1 M1843.87 1450.39 Q1849.68 1450.39 1852.73 1455 Q1855.81 1459.58 1855.81 1468.33 Q1855.81 1477.06 1852.73 1481.67 Q1849.68 1486.25 1843.87 1486.25 Q1838.06 1486.25 1834.98 1481.67 Q1831.92 1477.06 1831.92 1468.33 Q1831.92 1459.58 1834.98 1455 Q1838.06 1450.39 1843.87 1450.39 Z" fill="#000000" fill-rule="nonzero" fill-opacity="1" /><path clip-path="url(#clip400)" d="M2021.17 1454.1 Q2017.56 1454.1 2015.73 1457.66 Q2013.92 1461.2 2013.92 1468.33 Q2013.92 1475.44 2015.73 1479.01 Q2017.56 1482.55 2021.17 1482.55 Q2024.8 1482.55 2026.61 1479.01 Q2028.44 1475.44 2028.44 1468.33 Q2028.44 1461.2 2026.61 1457.66 Q2024.8 1454.1 2021.17 1454.1 M2021.17 1450.39 Q2026.98 1450.39 2030.04 1455 Q2033.11 1459.58 2033.11 1468.33 Q2033.11 1477.06 2030.04 1481.67 Q2026.98 1486.25 2021.17 1486.25 Q2015.36 1486.25 2012.28 1481.67 Q2009.22 1477.06 2009.22 1468.33 Q2009.22 1459.58 2012.28 1455 Q2015.36 1450.39 2021.17 1450.39 Z" fill="#000000" fill-rule="nonzero" fill-opacity="1" /><path clip-path="url(#clip400)" d="M2041.33 1479.7 L2046.22 1479.7 L2046.22 1485.58 L2041.33 1485.58 L2041.33 1479.7 Z" fill="#000000" fill-rule="nonzero" fill-opacity="1" /><path clip-path="url(#clip400)" d="M2056.45 1451.02 L2074.8 1451.02 L2074.8 1454.96 L2060.73 1454.96 L2060.73 1463.43 Q2061.75 1463.08 2062.77 1462.92 Q2063.78 1462.73 2064.8 1462.73 Q2070.59 1462.73 2073.97 1465.9 Q2077.35 1469.08 2077.35 1474.49 Q2077.35 1480.07 2073.88 1483.17 Q2070.41 1486.25 2064.09 1486.25 Q2061.91 1486.25 2059.64 1485.88 Q2057.4 1485.51 2054.99 1484.77 L2054.99 1480.07 Q2057.07 1481.2 2059.29 1481.76 Q2061.52 1482.32 2063.99 1482.32 Q2068 1482.32 2070.34 1480.21 Q2072.67 1478.1 2072.67 1474.49 Q2072.67 1470.88 2070.34 1468.77 Q2068 1466.67 2063.99 1466.67 Q2062.12 1466.67 2060.24 1467.08 Q2058.39 1467.5 2056.45 1468.38 L2056.45 1451.02 Z" fill="#000000" fill-rule="nonzero" fill-opacity="1" /><path clip-path="url(#clip400)" d="M2232.48 1481.64 L2240.11 1481.64 L2240.11 1455.28 L2231.8 1456.95 L2231.8 1452.69 L2240.07 1451.02 L2244.74 1451.02 L2244.74 1481.64 L2252.38 1481.64 L2252.38 1485.58 L2232.48 1485.58 L2232.48 1481.64 Z" fill="#000000" fill-rule="nonzero" fill-opacity="1" /><path clip-path="url(#clip400)" d="M2261.83 1479.7 L2266.71 1479.7 L2266.71 1485.58 L2261.83 1485.58 L2261.83 1479.7 Z" fill="#000000" fill-rule="nonzero" fill-opacity="1" /><path clip-path="url(#clip400)" d="M2286.9 1454.1 Q2283.29 1454.1 2281.46 1457.66 Q2279.65 1461.2 2279.65 1468.33 Q2279.65 1475.44 2281.46 1479.01 Q2283.29 1482.55 2286.9 1482.55 Q2290.53 1482.55 2292.34 1479.01 Q2294.17 1475.44 2294.17 1468.33 Q2294.17 1461.2 2292.34 1457.66 Q2290.53 1454.1 2286.9 1454.1 M2286.9 1450.39 Q2292.71 1450.39 2295.76 1455 Q2298.84 1459.58 2298.84 1468.33 Q2298.84 1477.06 2295.76 1481.67 Q2292.71 1486.25 2286.9 1486.25 Q2281.09 1486.25 2278.01 1481.67 Q2274.95 1477.06 2274.95 1468.33 Q2274.95 1459.58 2278.01 1455 Q2281.09 1450.39 2286.9 1450.39 Z" fill="#000000" fill-rule="nonzero" fill-opacity="1" /><path clip-path="url(#clip400)" d="M1869.69 1533.45 L1869.69 1538.98 Q1867.21 1537.71 1864.54 1537.07 Q1861.86 1536.44 1859 1536.44 Q1854.64 1536.44 1852.44 1537.77 Q1850.28 1539.11 1850.28 1541.79 Q1850.28 1543.82 1851.84 1545 Q1853.4 1546.15 1858.11 1547.2 L1860.11 1547.64 Q1866.35 1548.98 1868.96 1551.43 Q1871.6 1553.85 1871.6 1558.21 Q1871.6 1563.17 1867.65 1566.07 Q1863.74 1568.97 1856.86 1568.97 Q1854 1568.97 1850.88 1568.39 Q1847.79 1567.85 1844.36 1566.74 L1844.36 1560.69 Q1847.6 1562.38 1850.75 1563.24 Q1853.9 1564.07 1856.99 1564.07 Q1861.13 1564.07 1863.36 1562.66 Q1865.59 1561.23 1865.59 1558.65 Q1865.59 1556.27 1863.96 1554.99 Q1862.37 1553.72 1856.93 1552.54 L1854.89 1552.07 Q1849.45 1550.92 1847.03 1548.56 Q1844.61 1546.18 1844.61 1542.04 Q1844.61 1537.01 1848.18 1534.27 Q1851.74 1531.54 1858.3 1531.54 Q1861.54 1531.54 1864.41 1532.01 Q1867.27 1532.49 1869.69 1533.45 Z" fill="#000000" fill-rule="nonzero" fill-opacity="1" /><polyline clip-path="url(#clip400)" style="stroke:#000000; stroke-linecap:round; stroke-linejoin:round; stroke-width:4; stroke-opacity:1; fill:none" points="1426.19,1423.18 1426.19,47.2441 "/>
<polyline clip-path="url(#clip400)" style="stroke:#000000; stroke-linecap:round; stroke-linejoin:round; stroke-width:4; stroke-opacity:1; fill:none" points="1426.19,1292.29 1445.09,1292.29 "/>
<polyline clip-path="url(#clip400)" style="stroke:#000000; stroke-linecap:round; stroke-linejoin:round; stroke-width:4; stroke-opacity:1; fill:none" points="1426.19,1136.65 1445.09,1136.65 "/>
<polyline clip-path="url(#clip400)" style="stroke:#000000; stroke-linecap:round; stroke-linejoin:round; stroke-width:4; stroke-opacity:1; fill:none" points="1426.19,981.012 1445.09,981.012 "/>
<polyline clip-path="url(#clip400)" style="stroke:#000000; stroke-linecap:round; stroke-linejoin:round; stroke-width:4; stroke-opacity:1; fill:none" points="1426.19,825.372 1445.09,825.372 "/>
<polyline clip-path="url(#clip400)" style="stroke:#000000; stroke-linecap:round; stroke-linejoin:round; stroke-width:4; stroke-opacity:1; fill:none" points="1426.19,669.732 1445.09,669.732 "/>
<polyline clip-path="url(#clip400)" style="stroke:#000000; stroke-linecap:round; stroke-linejoin:round; stroke-width:4; stroke-opacity:1; fill:none" points="1426.19,514.091 1445.09,514.091 "/>
<polyline clip-path="url(#clip400)" style="stroke:#000000; stroke-linecap:round; stroke-linejoin:round; stroke-width:4; stroke-opacity:1; fill:none" points="1426.19,358.451 1445.09,358.451 "/>
<polyline clip-path="url(#clip400)" style="stroke:#000000; stroke-linecap:round; stroke-linejoin:round; stroke-width:4; stroke-opacity:1; fill:none" points="1426.19,202.811 1445.09,202.811 "/>
<path clip-path="url(#clip400)" d="M1283.34 1292.74 L1313.02 1292.74 L1313.02 1296.68 L1283.34 1296.68 L1283.34 1292.74 Z" fill="#000000" fill-rule="nonzero" fill-opacity="1" /><path clip-path="url(#clip400)" d="M1333.11 1278.09 Q1329.5 1278.09 1327.67 1281.66 Q1325.87 1285.2 1325.87 1292.33 Q1325.87 1299.43 1327.67 1303 Q1329.5 1306.54 1333.11 1306.54 Q1336.75 1306.54 1338.55 1303 Q1340.38 1299.43 1340.38 1292.33 Q1340.38 1285.2 1338.55 1281.66 Q1336.75 1278.09 1333.11 1278.09 M1333.11 1274.39 Q1338.92 1274.39 1341.98 1278.99 Q1345.06 1283.58 1345.06 1292.33 Q1345.06 1301.05 1341.98 1305.66 Q1338.92 1310.24 1333.11 1310.24 Q1327.3 1310.24 1324.22 1305.66 Q1321.17 1301.05 1321.17 1292.33 Q1321.17 1283.58 1324.22 1278.99 Q1327.3 1274.39 1333.11 1274.39 Z" fill="#000000" fill-rule="nonzero" fill-opacity="1" /><path clip-path="url(#clip400)" d="M1353.27 1303.69 L1358.16 1303.69 L1358.16 1309.57 L1353.27 1309.57 L1353.27 1303.69 Z" fill="#000000" fill-rule="nonzero" fill-opacity="1" /><path clip-path="url(#clip400)" d="M1378.34 1293.16 Q1375.01 1293.16 1373.09 1294.94 Q1371.19 1296.73 1371.19 1299.85 Q1371.19 1302.98 1373.09 1304.76 Q1375.01 1306.54 1378.34 1306.54 Q1381.68 1306.54 1383.6 1304.76 Q1385.52 1302.95 1385.52 1299.85 Q1385.52 1296.73 1383.6 1294.94 Q1381.7 1293.16 1378.34 1293.16 M1373.67 1291.17 Q1370.66 1290.43 1368.97 1288.37 Q1367.3 1286.31 1367.3 1283.35 Q1367.3 1279.2 1370.24 1276.8 Q1373.2 1274.39 1378.34 1274.39 Q1383.5 1274.39 1386.44 1276.8 Q1389.38 1279.2 1389.38 1283.35 Q1389.38 1286.31 1387.69 1288.37 Q1386.03 1290.43 1383.04 1291.17 Q1386.42 1291.96 1388.3 1294.25 Q1390.19 1296.54 1390.19 1299.85 Q1390.19 1304.87 1387.12 1307.56 Q1384.06 1310.24 1378.34 1310.24 Q1372.62 1310.24 1369.55 1307.56 Q1366.49 1304.87 1366.49 1299.85 Q1366.49 1296.54 1368.39 1294.25 Q1370.29 1291.96 1373.67 1291.17 M1371.95 1283.79 Q1371.95 1286.47 1373.62 1287.98 Q1375.31 1289.48 1378.34 1289.48 Q1381.35 1289.48 1383.04 1287.98 Q1384.75 1286.47 1384.75 1283.79 Q1384.75 1281.1 1383.04 1279.6 Q1381.35 1278.09 1378.34 1278.09 Q1375.31 1278.09 1373.62 1279.6 Q1371.95 1281.1 1371.95 1283.79 Z" fill="#000000" fill-rule="nonzero" fill-opacity="1" /><path clip-path="url(#clip400)" d="M1283.09 1137.1 L1312.76 1137.1 L1312.76 1141.04 L1283.09 1141.04 L1283.09 1137.1 Z" fill="#000000" fill-rule="nonzero" fill-opacity="1" /><path clip-path="url(#clip400)" d="M1332.86 1122.45 Q1329.25 1122.45 1327.42 1126.02 Q1325.61 1129.56 1325.61 1136.69 Q1325.61 1143.79 1327.42 1147.36 Q1329.25 1150.9 1332.86 1150.9 Q1336.49 1150.9 1338.3 1147.36 Q1340.12 1143.79 1340.12 1136.69 Q1340.12 1129.56 1338.3 1126.02 Q1336.49 1122.45 1332.86 1122.45 M1332.86 1118.75 Q1338.67 1118.75 1341.72 1123.35 Q1344.8 1127.94 1344.8 1136.69 Q1344.8 1145.41 1341.72 1150.02 Q1338.67 1154.6 1332.86 1154.6 Q1327.05 1154.6 1323.97 1150.02 Q1320.91 1145.41 1320.91 1136.69 Q1320.91 1127.94 1323.97 1123.35 Q1327.05 1118.75 1332.86 1118.75 Z" fill="#000000" fill-rule="nonzero" fill-opacity="1" /><path clip-path="url(#clip400)" d="M1353.02 1148.05 L1357.9 1148.05 L1357.9 1153.93 L1353.02 1153.93 L1353.02 1148.05 Z" fill="#000000" fill-rule="nonzero" fill-opacity="1" /><path clip-path="url(#clip400)" d="M1378.67 1134.79 Q1375.52 1134.79 1373.67 1136.94 Q1371.84 1139.09 1371.84 1142.84 Q1371.84 1146.57 1373.67 1148.75 Q1375.52 1150.9 1378.67 1150.9 Q1381.81 1150.9 1383.64 1148.75 Q1385.5 1146.57 1385.5 1142.84 Q1385.5 1139.09 1383.64 1136.94 Q1381.81 1134.79 1378.67 1134.79 M1387.95 1120.14 L1387.95 1124.4 Q1386.19 1123.56 1384.38 1123.12 Q1382.6 1122.68 1380.84 1122.68 Q1376.21 1122.68 1373.76 1125.81 Q1371.33 1128.93 1370.98 1135.25 Q1372.35 1133.24 1374.41 1132.17 Q1376.47 1131.09 1378.94 1131.09 Q1384.15 1131.09 1387.16 1134.26 Q1390.19 1137.41 1390.19 1142.84 Q1390.19 1148.17 1387.05 1151.39 Q1383.9 1154.6 1378.67 1154.6 Q1372.67 1154.6 1369.5 1150.02 Q1366.33 1145.41 1366.33 1136.69 Q1366.33 1128.49 1370.22 1123.63 Q1374.11 1118.75 1380.66 1118.75 Q1382.42 1118.75 1384.2 1119.09 Q1386 1119.44 1387.95 1120.14 Z" fill="#000000" fill-rule="nonzero" fill-opacity="1" /><path clip-path="url(#clip400)" d="M1282.76 981.464 L1312.44 981.464 L1312.44 985.399 L1282.76 985.399 L1282.76 981.464 Z" fill="#000000" fill-rule="nonzero" fill-opacity="1" /><path clip-path="url(#clip400)" d="M1332.53 966.811 Q1328.92 966.811 1327.09 970.376 Q1325.29 973.918 1325.29 981.047 Q1325.29 988.154 1327.09 991.718 Q1328.92 995.26 1332.53 995.26 Q1336.17 995.26 1337.97 991.718 Q1339.8 988.154 1339.8 981.047 Q1339.8 973.918 1337.97 970.376 Q1336.17 966.811 1332.53 966.811 M1332.53 963.107 Q1338.34 963.107 1341.4 967.714 Q1344.48 972.297 1344.48 981.047 Q1344.48 989.774 1341.4 994.38 Q1338.34 998.964 1332.53 998.964 Q1326.72 998.964 1323.64 994.38 Q1320.59 989.774 1320.59 981.047 Q1320.59 972.297 1323.64 967.714 Q1326.72 963.107 1332.53 963.107 Z" fill="#000000" fill-rule="nonzero" fill-opacity="1" /><path clip-path="url(#clip400)" d="M1352.69 992.413 L1357.58 992.413 L1357.58 998.292 L1352.69 998.292 L1352.69 992.413 Z" fill="#000000" fill-rule="nonzero" fill-opacity="1" /><path clip-path="url(#clip400)" d="M1380.61 967.806 L1368.81 986.255 L1380.61 986.255 L1380.61 967.806 M1379.38 963.732 L1385.26 963.732 L1385.26 986.255 L1390.19 986.255 L1390.19 990.144 L1385.26 990.144 L1385.26 998.292 L1380.61 998.292 L1380.61 990.144 L1365.01 990.144 L1365.01 985.63 L1379.38 963.732 Z" fill="#000000" fill-rule="nonzero" fill-opacity="1" /><path clip-path="url(#clip400)" d="M1284.85 825.823 L1314.52 825.823 L1314.52 829.759 L1284.85 829.759 L1284.85 825.823 Z" fill="#000000" fill-rule="nonzero" fill-opacity="1" /><path clip-path="url(#clip400)" d="M1334.62 811.171 Q1331 811.171 1329.18 814.736 Q1327.37 818.277 1327.37 825.407 Q1327.37 832.513 1329.18 836.078 Q1331 839.62 1334.62 839.62 Q1338.25 839.62 1340.06 836.078 Q1341.88 832.513 1341.88 825.407 Q1341.88 818.277 1340.06 814.736 Q1338.25 811.171 1334.62 811.171 M1334.62 807.467 Q1340.43 807.467 1343.48 812.074 Q1346.56 816.657 1346.56 825.407 Q1346.56 834.134 1343.48 838.74 Q1340.43 843.323 1334.62 843.323 Q1328.81 843.323 1325.73 838.74 Q1322.67 834.134 1322.67 825.407 Q1322.67 816.657 1325.73 812.074 Q1328.81 807.467 1334.62 807.467 Z" fill="#000000" fill-rule="nonzero" fill-opacity="1" /><path clip-path="url(#clip400)" d="M1354.78 836.772 L1359.66 836.772 L1359.66 842.652 L1354.78 842.652 L1354.78 836.772 Z" fill="#000000" fill-rule="nonzero" fill-opacity="1" /><path clip-path="url(#clip400)" d="M1373.87 838.717 L1390.19 838.717 L1390.19 842.652 L1368.25 842.652 L1368.25 838.717 Q1370.91 835.962 1375.5 831.333 Q1380.1 826.68 1381.28 825.337 Q1383.53 822.814 1384.41 821.078 Q1385.31 819.319 1385.31 817.629 Q1385.31 814.874 1383.37 813.138 Q1381.44 811.402 1378.34 811.402 Q1376.14 811.402 1373.69 812.166 Q1371.26 812.93 1368.48 814.481 L1368.48 809.759 Q1371.31 808.624 1373.76 808.046 Q1376.21 807.467 1378.25 807.467 Q1383.62 807.467 1386.81 810.152 Q1390.01 812.837 1390.01 817.328 Q1390.01 819.458 1389.2 821.379 Q1388.41 823.277 1386.31 825.87 Q1385.73 826.541 1382.62 829.759 Q1379.52 832.953 1373.87 838.717 Z" fill="#000000" fill-rule="nonzero" fill-opacity="1" /><path clip-path="url(#clip400)" d="M1333.02 655.53 Q1329.41 655.53 1327.58 659.095 Q1325.77 662.637 1325.77 669.766 Q1325.77 676.873 1327.58 680.438 Q1329.41 683.979 1333.02 683.979 Q1336.65 683.979 1338.46 680.438 Q1340.29 676.873 1340.29 669.766 Q1340.29 662.637 1338.46 659.095 Q1336.65 655.53 1333.02 655.53 M1333.02 651.827 Q1338.83 651.827 1341.88 656.433 Q1344.96 661.016 1344.96 669.766 Q1344.96 678.493 1341.88 683.1 Q1338.83 687.683 1333.02 687.683 Q1327.21 687.683 1324.13 683.1 Q1321.07 678.493 1321.07 669.766 Q1321.07 661.016 1324.13 656.433 Q1327.21 651.827 1333.02 651.827 Z" fill="#000000" fill-rule="nonzero" fill-opacity="1" /><path clip-path="url(#clip400)" d="M1353.18 681.132 L1358.06 681.132 L1358.06 687.012 L1353.18 687.012 L1353.18 681.132 Z" fill="#000000" fill-rule="nonzero" fill-opacity="1" /><path clip-path="url(#clip400)" d="M1378.25 655.53 Q1374.64 655.53 1372.81 659.095 Q1371 662.637 1371 669.766 Q1371 676.873 1372.81 680.438 Q1374.64 683.979 1378.25 683.979 Q1381.88 683.979 1383.69 680.438 Q1385.52 676.873 1385.52 669.766 Q1385.52 662.637 1383.69 659.095 Q1381.88 655.53 1378.25 655.53 M1378.25 651.827 Q1384.06 651.827 1387.12 656.433 Q1390.19 661.016 1390.19 669.766 Q1390.19 678.493 1387.12 683.1 Q1384.06 687.683 1378.25 687.683 Q1372.44 687.683 1369.36 683.1 Q1366.31 678.493 1366.31 669.766 Q1366.31 661.016 1369.36 656.433 Q1372.44 651.827 1378.25 651.827 Z" fill="#000000" fill-rule="nonzero" fill-opacity="1" /><path clip-path="url(#clip400)" d="M1334.62 499.89 Q1331 499.89 1329.18 503.455 Q1327.37 506.996 1327.37 514.126 Q1327.37 521.233 1329.18 524.797 Q1331 528.339 1334.62 528.339 Q1338.25 528.339 1340.06 524.797 Q1341.88 521.233 1341.88 514.126 Q1341.88 506.996 1340.06 503.455 Q1338.25 499.89 1334.62 499.89 M1334.62 496.186 Q1340.43 496.186 1343.48 500.793 Q1346.56 505.376 1346.56 514.126 Q1346.56 522.853 1343.48 527.459 Q1340.43 532.043 1334.62 532.043 Q1328.81 532.043 1325.73 527.459 Q1322.67 522.853 1322.67 514.126 Q1322.67 505.376 1325.73 500.793 Q1328.81 496.186 1334.62 496.186 Z" fill="#000000" fill-rule="nonzero" fill-opacity="1" /><path clip-path="url(#clip400)" d="M1354.78 525.492 L1359.66 525.492 L1359.66 531.371 L1354.78 531.371 L1354.78 525.492 Z" fill="#000000" fill-rule="nonzero" fill-opacity="1" /><path clip-path="url(#clip400)" d="M1373.87 527.436 L1390.19 527.436 L1390.19 531.371 L1368.25 531.371 L1368.25 527.436 Q1370.91 524.682 1375.5 520.052 Q1380.1 515.399 1381.28 514.057 Q1383.53 511.534 1384.41 509.797 Q1385.31 508.038 1385.31 506.348 Q1385.31 503.594 1383.37 501.858 Q1381.44 500.122 1378.34 500.122 Q1376.14 500.122 1373.69 500.885 Q1371.26 501.649 1368.48 503.2 L1368.48 498.478 Q1371.31 497.344 1373.76 496.765 Q1376.21 496.186 1378.25 496.186 Q1383.62 496.186 1386.81 498.872 Q1390.01 501.557 1390.01 506.047 Q1390.01 508.177 1389.2 510.098 Q1388.41 511.996 1386.31 514.589 Q1385.73 515.26 1382.62 518.478 Q1379.52 521.672 1373.87 527.436 Z" fill="#000000" fill-rule="nonzero" fill-opacity="1" /><path clip-path="url(#clip400)" d="M1332.53 344.25 Q1328.92 344.25 1327.09 347.814 Q1325.29 351.356 1325.29 358.486 Q1325.29 365.592 1327.09 369.157 Q1328.92 372.699 1332.53 372.699 Q1336.17 372.699 1337.97 369.157 Q1339.8 365.592 1339.8 358.486 Q1339.8 351.356 1337.97 347.814 Q1336.17 344.25 1332.53 344.25 M1332.53 340.546 Q1338.34 340.546 1341.4 345.152 Q1344.48 349.736 1344.48 358.486 Q1344.48 367.213 1341.4 371.819 Q1338.34 376.402 1332.53 376.402 Q1326.72 376.402 1323.64 371.819 Q1320.59 367.213 1320.59 358.486 Q1320.59 349.736 1323.64 345.152 Q1326.72 340.546 1332.53 340.546 Z" fill="#000000" fill-rule="nonzero" fill-opacity="1" /><path clip-path="url(#clip400)" d="M1352.69 369.851 L1357.58 369.851 L1357.58 375.731 L1352.69 375.731 L1352.69 369.851 Z" fill="#000000" fill-rule="nonzero" fill-opacity="1" /><path clip-path="url(#clip400)" d="M1380.61 345.245 L1368.81 363.694 L1380.61 363.694 L1380.61 345.245 M1379.38 341.171 L1385.26 341.171 L1385.26 363.694 L1390.19 363.694 L1390.19 367.583 L1385.26 367.583 L1385.26 375.731 L1380.61 375.731 L1380.61 367.583 L1365.01 367.583 L1365.01 363.069 L1379.38 341.171 Z" fill="#000000" fill-rule="nonzero" fill-opacity="1" /><path clip-path="url(#clip400)" d="M1332.86 188.609 Q1329.25 188.609 1327.42 192.174 Q1325.61 195.716 1325.61 202.845 Q1325.61 209.952 1327.42 213.517 Q1329.25 217.058 1332.86 217.058 Q1336.49 217.058 1338.3 213.517 Q1340.12 209.952 1340.12 202.845 Q1340.12 195.716 1338.3 192.174 Q1336.49 188.609 1332.86 188.609 M1332.86 184.906 Q1338.67 184.906 1341.72 189.512 Q1344.8 194.095 1344.8 202.845 Q1344.8 211.572 1341.72 216.179 Q1338.67 220.762 1332.86 220.762 Q1327.05 220.762 1323.97 216.179 Q1320.91 211.572 1320.91 202.845 Q1320.91 194.095 1323.97 189.512 Q1327.05 184.906 1332.86 184.906 Z" fill="#000000" fill-rule="nonzero" fill-opacity="1" /><path clip-path="url(#clip400)" d="M1353.02 214.211 L1357.9 214.211 L1357.9 220.091 L1353.02 220.091 L1353.02 214.211 Z" fill="#000000" fill-rule="nonzero" fill-opacity="1" /><path clip-path="url(#clip400)" d="M1378.67 200.947 Q1375.52 200.947 1373.67 203.1 Q1371.84 205.253 1371.84 209.003 Q1371.84 212.73 1373.67 214.906 Q1375.52 217.058 1378.67 217.058 Q1381.81 217.058 1383.64 214.906 Q1385.5 212.73 1385.5 209.003 Q1385.5 205.253 1383.64 203.1 Q1381.81 200.947 1378.67 200.947 M1387.95 186.295 L1387.95 190.554 Q1386.19 189.72 1384.38 189.281 Q1382.6 188.841 1380.84 188.841 Q1376.21 188.841 1373.76 191.966 Q1371.33 195.091 1370.98 201.41 Q1372.35 199.396 1374.41 198.332 Q1376.47 197.244 1378.94 197.244 Q1384.15 197.244 1387.16 200.415 Q1390.19 203.563 1390.19 209.003 Q1390.19 214.327 1387.05 217.544 Q1383.9 220.762 1378.67 220.762 Q1372.67 220.762 1369.5 216.179 Q1366.33 211.572 1366.33 202.845 Q1366.33 194.651 1370.22 189.79 Q1374.11 184.906 1380.66 184.906 Q1382.42 184.906 1384.2 185.253 Q1386 185.6 1387.95 186.295 Z" fill="#000000" fill-rule="nonzero" fill-opacity="1" /><path clip-path="url(#clip400)" d="M1197.91 723.499 L1203.45 723.499 Q1202.18 725.982 1201.54 728.655 Q1200.9 731.329 1200.9 734.193 Q1200.9 738.554 1202.24 740.75 Q1203.58 742.914 1206.25 742.914 Q1208.29 742.914 1209.46 741.355 Q1210.61 739.795 1211.66 735.085 L1212.11 733.079 Q1213.44 726.841 1215.89 724.231 Q1218.31 721.589 1222.67 721.589 Q1227.64 721.589 1230.53 725.536 Q1233.43 729.451 1233.43 736.326 Q1233.43 739.191 1232.86 742.31 Q1232.32 745.397 1231.2 748.835 L1225.16 748.835 Q1226.84 745.588 1227.7 742.437 Q1228.53 739.286 1228.53 736.199 Q1228.53 732.061 1227.13 729.833 Q1225.7 727.605 1223.12 727.605 Q1220.73 727.605 1219.46 729.228 Q1218.19 730.82 1217.01 736.262 L1216.53 738.299 Q1215.38 743.742 1213.03 746.161 Q1210.64 748.58 1206.5 748.58 Q1201.48 748.58 1198.74 745.015 Q1196 741.45 1196 734.894 Q1196 731.647 1196.48 728.783 Q1196.96 725.918 1197.91 723.499 Z" fill="#000000" fill-rule="nonzero" fill-opacity="1" /><circle clip-path="url(#clip403)" cx="1821.25" cy="669.732" r="14.4" fill="#c5c1b6" fill-rule="evenodd" fill-opacity="1" stroke="#000000" stroke-opacity="1" stroke-width="3.2"/>
<circle clip-path="url(#clip403)" cx="1825.66" cy="668.244" r="14.4" fill="#c4bfb4" fill-rule="evenodd" fill-opacity="1" stroke="#000000" stroke-opacity="1" stroke-width="3.2"/>
<circle clip-path="url(#clip403)" cx="1829.58" cy="663.889" r="14.4" fill="#c3bcb1" fill-rule="evenodd" fill-opacity="1" stroke="#000000" stroke-opacity="1" stroke-width="3.2"/>
<circle clip-path="url(#clip403)" cx="1832.57" cy="656.982" r="14.4" fill="#c2b9ae" fill-rule="evenodd" fill-opacity="1" stroke="#000000" stroke-opacity="1" stroke-width="3.2"/>
<circle clip-path="url(#clip403)" cx="1834.24" cy="648.034" r="14.4" fill="#c1b6ab" fill-rule="evenodd" fill-opacity="1" stroke="#000000" stroke-opacity="1" stroke-width="3.2"/>
<circle clip-path="url(#clip403)" cx="1834.26" cy="637.716" r="14.4" fill="#c0b3a9" fill-rule="evenodd" fill-opacity="1" stroke="#000000" stroke-opacity="1" stroke-width="3.2"/>
<circle clip-path="url(#clip403)" cx="1832.43" cy="626.83" r="14.4" fill="#c0b2a7" fill-rule="evenodd" fill-opacity="1" stroke="#000000" stroke-opacity="1" stroke-width="3.2"/>
<circle clip-path="url(#clip403)" cx="1828.65" cy="616.258" r="14.4" fill="#c0b1a6" fill-rule="evenodd" fill-opacity="1" stroke="#000000" stroke-opacity="1" stroke-width="3.2"/>
<circle clip-path="url(#clip403)" cx="1822.96" cy="606.918" r="14.4" fill="#c0b1a6" fill-rule="evenodd" fill-opacity="1" stroke="#000000" stroke-opacity="1" stroke-width="3.2"/>
<circle clip-path="url(#clip403)" cx="1815.51" cy="599.706" r="14.4" fill="#c0b2a8" fill-rule="evenodd" fill-opacity="1" stroke="#000000" stroke-opacity="1" stroke-width="3.2"/>
<circle clip-path="url(#clip403)" cx="1806.58" cy="595.449" r="14.4" fill="#c1b5aa" fill-rule="evenodd" fill-opacity="1" stroke="#000000" stroke-opacity="1" stroke-width="3.2"/>
<circle clip-path="url(#clip403)" cx="1796.58" cy="594.849" r="14.4" fill="#c2b9ae" fill-rule="evenodd" fill-opacity="1" stroke="#000000" stroke-opacity="1" stroke-width="3.2"/>
<circle clip-path="url(#clip403)" cx="1786" cy="598.444" r="14.4" fill="#c4bfb3" fill-rule="evenodd" fill-opacity="1" stroke="#000000" stroke-opacity="1" stroke-width="3.2"/>
<circle clip-path="url(#clip403)" cx="1775.41" cy="606.563" r="14.4" fill="#c6c5ba" fill-rule="evenodd" fill-opacity="1" stroke="#000000" stroke-opacity="1" stroke-width="3.2"/>
<circle clip-path="url(#clip403)" cx="1765.43" cy="619.304" r="14.4" fill="#c8cdc1" fill-rule="evenodd" fill-opacity="1" stroke="#000000" stroke-opacity="1" stroke-width="3.2"/>
<circle clip-path="url(#clip403)" cx="1756.69" cy="636.513" r="14.4" fill="#cbd5c8" fill-rule="evenodd" fill-opacity="1" stroke="#000000" stroke-opacity="1" stroke-width="3.2"/>
<circle clip-path="url(#clip403)" cx="1749.81" cy="657.777" r="14.4" fill="#c7d3ca" fill-rule="evenodd" fill-opacity="1" stroke="#000000" stroke-opacity="1" stroke-width="3.2"/>
<circle clip-path="url(#clip403)" cx="1745.34" cy="682.434" r="14.4" fill="#bfcbc8" fill-rule="evenodd" fill-opacity="1" stroke="#000000" stroke-opacity="1" stroke-width="3.2"/>
<circle clip-path="url(#clip403)" cx="1743.78" cy="709.594" r="14.4" fill="#b8c4c5" fill-rule="evenodd" fill-opacity="1" stroke="#000000" stroke-opacity="1" stroke-width="3.2"/>
<circle clip-path="url(#clip403)" cx="1745.5" cy="738.169" r="14.4" fill="#b2bdc3" fill-rule="evenodd" fill-opacity="1" stroke="#000000" stroke-opacity="1" stroke-width="3.2"/>
<circle clip-path="url(#clip403)" cx="1750.73" cy="766.914" r="14.4" fill="#aeb9c2" fill-rule="evenodd" fill-opacity="1" stroke="#000000" stroke-opacity="1" stroke-width="3.2"/>
<circle clip-path="url(#clip403)" cx="1759.57" cy="794.486" r="14.4" fill="#abb6c1" fill-rule="evenodd" fill-opacity="1" stroke="#000000" stroke-opacity="1" stroke-width="3.2"/>
<circle clip-path="url(#clip403)" cx="1771.91" cy="819.497" r="14.4" fill="#aab5c1" fill-rule="evenodd" fill-opacity="1" stroke="#000000" stroke-opacity="1" stroke-width="3.2"/>
<circle clip-path="url(#clip403)" cx="1787.51" cy="840.583" r="14.4" fill="#abb6c1" fill-rule="evenodd" fill-opacity="1" stroke="#000000" stroke-opacity="1" stroke-width="3.2"/>
<circle clip-path="url(#clip403)" cx="1805.93" cy="856.466" r="14.4" fill="#afbac3" fill-rule="evenodd" fill-opacity="1" stroke="#000000" stroke-opacity="1" stroke-width="3.2"/>
<circle clip-path="url(#clip403)" cx="1826.59" cy="866.025" r="14.4" fill="#b6c1c5" fill-rule="evenodd" fill-opacity="1" stroke="#000000" stroke-opacity="1" stroke-width="3.2"/>
<circle clip-path="url(#clip403)" cx="1848.75" cy="868.347" r="14.4" fill="#becac7" fill-rule="evenodd" fill-opacity="1" stroke="#000000" stroke-opacity="1" stroke-width="3.2"/>
<circle clip-path="url(#clip403)" cx="1871.56" cy="862.789" r="14.4" fill="#c9d5cb" fill-rule="evenodd" fill-opacity="1" stroke="#000000" stroke-opacity="1" stroke-width="3.2"/>
<circle clip-path="url(#clip403)" cx="1894.1" cy="849.018" r="14.4" fill="#c8cec2" fill-rule="evenodd" fill-opacity="1" stroke="#000000" stroke-opacity="1" stroke-width="3.2"/>
<circle clip-path="url(#clip403)" cx="1915.4" cy="827.041" r="14.4" fill="#c4bfb4" fill-rule="evenodd" fill-opacity="1" stroke="#000000" stroke-opacity="1" stroke-width="3.2"/>
<circle clip-path="url(#clip403)" cx="1934.46" cy="797.225" r="14.4" fill="#bfafa5" fill-rule="evenodd" fill-opacity="1" stroke="#000000" stroke-opacity="1" stroke-width="3.2"/>
<circle clip-path="url(#clip403)" cx="1950.34" cy="760.298" r="14.4" fill="#ba9f96" fill-rule="evenodd" fill-opacity="1" stroke="#000000" stroke-opacity="1" stroke-width="3.2"/>
<circle clip-path="url(#clip403)" cx="1962.2" cy="717.336" r="14.4" fill="#b68f87" fill-rule="evenodd" fill-opacity="1" stroke="#000000" stroke-opacity="1" stroke-width="3.2"/>
<circle clip-path="url(#clip403)" cx="1969.28" cy="669.732" r="14.4" fill="#b18179" fill-rule="evenodd" fill-opacity="1" stroke="#000000" stroke-opacity="1" stroke-width="3.2"/>
<circle clip-path="url(#clip403)" cx="1971" cy="619.152" r="14.4" fill="#ad736c" fill-rule="evenodd" fill-opacity="1" stroke="#000000" stroke-opacity="1" stroke-width="3.2"/>
<circle clip-path="url(#clip403)" cx="1967" cy="567.479" r="14.4" fill="#aa6862" fill-rule="evenodd" fill-opacity="1" stroke="#000000" stroke-opacity="1" stroke-width="3.2"/>
<circle clip-path="url(#clip403)" cx="1957.1" cy="516.74" r="14.4" fill="#a7605a" fill-rule="evenodd" fill-opacity="1" stroke="#000000" stroke-opacity="1" stroke-width="3.2"/>
<circle clip-path="url(#clip403)" cx="1941.37" cy="469.027" r="14.4" fill="#a65b55" fill-rule="evenodd" fill-opacity="1" stroke="#000000" stroke-opacity="1" stroke-width="3.2"/>
<circle clip-path="url(#clip403)" cx="1920.12" cy="426.415" r="14.4" fill="#a55954" fill-rule="evenodd" fill-opacity="1" stroke="#000000" stroke-opacity="1" stroke-width="3.2"/>
<circle clip-path="url(#clip403)" cx="1893.92" cy="390.871" r="14.4" fill="#a65c57" fill-rule="evenodd" fill-opacity="1" stroke="#000000" stroke-opacity="1" stroke-width="3.2"/>
<circle clip-path="url(#clip403)" cx="1863.55" cy="364.17" r="14.4" fill="#a8635d" fill-rule="evenodd" fill-opacity="1" stroke="#000000" stroke-opacity="1" stroke-width="3.2"/>
<circle clip-path="url(#clip403)" cx="1830" cy="347.811" r="14.4" fill="#ab6d67" fill-rule="evenodd" fill-opacity="1" stroke="#000000" stroke-opacity="1" stroke-width="3.2"/>
<circle clip-path="url(#clip403)" cx="1794.44" cy="342.946" r="14.4" fill="#b07b74" fill-rule="evenodd" fill-opacity="1" stroke="#000000" stroke-opacity="1" stroke-width="3.2"/>
<circle clip-path="url(#clip403)" cx="1758.17" cy="350.315" r="14.4" fill="#b58d85" fill-rule="evenodd" fill-opacity="1" stroke="#000000" stroke-opacity="1" stroke-width="3.2"/>
<circle clip-path="url(#clip403)" cx="1722.57" cy="370.202" r="14.4" fill="#bba298" fill-rule="evenodd" fill-opacity="1" stroke="#000000" stroke-opacity="1" stroke-width="3.2"/>
<circle clip-path="url(#clip403)" cx="1689.07" cy="402.402" r="14.4" fill="#c2b8ad" fill-rule="evenodd" fill-opacity="1" stroke="#000000" stroke-opacity="1" stroke-width="3.2"/>
<circle clip-path="url(#clip403)" cx="1659.06" cy="446.212" r="14.4" fill="#c9d0c4" fill-rule="evenodd" fill-opacity="1" stroke="#000000" stroke-opacity="1" stroke-width="3.2"/>
<circle clip-path="url(#clip403)" cx="1633.87" cy="500.44" r="14.4" fill="#bcc8c7" fill-rule="evenodd" fill-opacity="1" stroke="#000000" stroke-opacity="1" stroke-width="3.2"/>
<circle clip-path="url(#clip403)" cx="1614.67" cy="563.431" r="14.4" fill="#a5b0bf" fill-rule="evenodd" fill-opacity="1" stroke="#000000" stroke-opacity="1" stroke-width="3.2"/>
<circle clip-path="url(#clip403)" cx="1602.45" cy="633.119" r="14.4" fill="#9099b9" fill-rule="evenodd" fill-opacity="1" stroke="#000000" stroke-opacity="1" stroke-width="3.2"/>
<circle clip-path="url(#clip403)" cx="1597.99" cy="707.092" r="14.4" fill="#7d85b2" fill-rule="evenodd" fill-opacity="1" stroke="#000000" stroke-opacity="1" stroke-width="3.2"/>
<circle clip-path="url(#clip403)" cx="1601.75" cy="782.676" r="14.4" fill="#6d74ad" fill-rule="evenodd" fill-opacity="1" stroke="#000000" stroke-opacity="1" stroke-width="3.2"/>
<circle clip-path="url(#clip403)" cx="1613.93" cy="857.033" r="14.4" fill="#6066a9" fill-rule="evenodd" fill-opacity="1" stroke="#000000" stroke-opacity="1" stroke-width="3.2"/>
<circle clip-path="url(#clip403)" cx="1634.38" cy="927.265" r="14.4" fill="#585ea7" fill-rule="evenodd" fill-opacity="1" stroke="#000000" stroke-opacity="1" stroke-width="3.2"/>
<circle clip-path="url(#clip403)" cx="1662.63" cy="990.528" r="14.4" fill="#555ba6" fill-rule="evenodd" fill-opacity="1" stroke="#000000" stroke-opacity="1" stroke-width="3.2"/>
<circle clip-path="url(#clip403)" cx="1697.9" cy="1044.14" r="14.4" fill="#575da6" fill-rule="evenodd" fill-opacity="1" stroke="#000000" stroke-opacity="1" stroke-width="3.2"/>
<circle clip-path="url(#clip403)" cx="1739.09" cy="1085.72" r="14.4" fill="#5e64a9" fill-rule="evenodd" fill-opacity="1" stroke="#000000" stroke-opacity="1" stroke-width="3.2"/>
<circle clip-path="url(#clip403)" cx="1784.86" cy="1113.23" r="14.4" fill="#6b71ad" fill-rule="evenodd" fill-opacity="1" stroke="#000000" stroke-opacity="1" stroke-width="3.2"/>
<circle clip-path="url(#clip403)" cx="1833.63" cy="1125.13" r="14.4" fill="#7c84b2" fill-rule="evenodd" fill-opacity="1" stroke="#000000" stroke-opacity="1" stroke-width="3.2"/>
<circle clip-path="url(#clip403)" cx="1883.64" cy="1120.44" r="14.4" fill="#919bb9" fill-rule="evenodd" fill-opacity="1" stroke="#000000" stroke-opacity="1" stroke-width="3.2"/>
<circle clip-path="url(#clip403)" cx="1933.05" cy="1098.75" r="14.4" fill="#abb5c1" fill-rule="evenodd" fill-opacity="1" stroke="#000000" stroke-opacity="1" stroke-width="3.2"/>
<circle clip-path="url(#clip403)" cx="1979.97" cy="1060.32" r="14.4" fill="#c7d3ca" fill-rule="evenodd" fill-opacity="1" stroke="#000000" stroke-opacity="1" stroke-width="3.2"/>
<circle clip-path="url(#clip403)" cx="2022.53" cy="1006.05" r="14.4" fill="#c3bdb2" fill-rule="evenodd" fill-opacity="1" stroke="#000000" stroke-opacity="1" stroke-width="3.2"/>
<circle clip-path="url(#clip403)" cx="2058.98" cy="937.467" r="14.4" fill="#b99c93" fill-rule="evenodd" fill-opacity="1" stroke="#000000" stroke-opacity="1" stroke-width="3.2"/>
<circle clip-path="url(#clip403)" cx="2087.76" cy="856.708" r="14.4" fill="#b07b74" fill-rule="evenodd" fill-opacity="1" stroke="#000000" stroke-opacity="1" stroke-width="3.2"/>
<circle clip-path="url(#clip403)" cx="2107.54" cy="766.428" r="14.4" fill="#a65c57" fill-rule="evenodd" fill-opacity="1" stroke="#000000" stroke-opacity="1" stroke-width="3.2"/>
<circle clip-path="url(#clip403)" cx="2117.3" cy="669.732" r="14.4" fill="#9e403c" fill-rule="evenodd" fill-opacity="1" stroke="#000000" stroke-opacity="1" stroke-width="3.2"/>
<circle clip-path="url(#clip403)" cx="2116.35" cy="570.06" r="14.4" fill="#972825" fill-rule="evenodd" fill-opacity="1" stroke="#000000" stroke-opacity="1" stroke-width="3.2"/>
<circle clip-path="url(#clip403)" cx="2104.42" cy="471.07" r="14.4" fill="#911413" fill-rule="evenodd" fill-opacity="1" stroke="#000000" stroke-opacity="1" stroke-width="3.2"/>
<circle clip-path="url(#clip403)" cx="2081.62" cy="376.497" r="14.4" fill="#8d0706" fill-rule="evenodd" fill-opacity="1" stroke="#000000" stroke-opacity="1" stroke-width="3.2"/>
<circle clip-path="url(#clip403)" cx="2048.5" cy="290.02" r="14.4" fill="#8b0000" fill-rule="evenodd" fill-opacity="1" stroke="#000000" stroke-opacity="1" stroke-width="3.2"/>
<circle clip-path="url(#clip403)" cx="2005.99" cy="215.113" r="14.4" fill="#8b0000" fill-rule="evenodd" fill-opacity="1" stroke="#000000" stroke-opacity="1" stroke-width="3.2"/>
<circle clip-path="url(#clip403)" cx="1955.41" cy="154.912" r="14.4" fill="#8d0706" fill-rule="evenodd" fill-opacity="1" stroke="#000000" stroke-opacity="1" stroke-width="3.2"/>
<circle clip-path="url(#clip403)" cx="1898.45" cy="112.081" r="14.4" fill="#911513" fill-rule="evenodd" fill-opacity="1" stroke="#000000" stroke-opacity="1" stroke-width="3.2"/>
<circle clip-path="url(#clip403)" cx="1837.05" cy="88.7044" r="14.4" fill="#972a27" fill-rule="evenodd" fill-opacity="1" stroke="#000000" stroke-opacity="1" stroke-width="3.2"/>
<circle clip-path="url(#clip403)" cx="1773.37" cy="86.1857" r="14.4" fill="#9f4541" fill-rule="evenodd" fill-opacity="1" stroke="#000000" stroke-opacity="1" stroke-width="3.2"/>
<circle clip-path="url(#clip403)" cx="1709.75" cy="105.181" r="14.4" fill="#a9655f" fill-rule="evenodd" fill-opacity="1" stroke="#000000" stroke-opacity="1" stroke-width="3.2"/>
<circle clip-path="url(#clip403)" cx="1648.56" cy="145.554" r="14.4" fill="#b48a82" fill-rule="evenodd" fill-opacity="1" stroke="#000000" stroke-opacity="1" stroke-width="3.2"/>
<circle clip-path="url(#clip403)" cx="1592.13" cy="206.36" r="14.4" fill="#c0b2a7" fill-rule="evenodd" fill-opacity="1" stroke="#000000" stroke-opacity="1" stroke-width="3.2"/>
<circle clip-path="url(#clip403)" cx="1542.71" cy="285.862" r="14.4" fill="#c9d5cb" fill-rule="evenodd" fill-opacity="1" stroke="#000000" stroke-opacity="1" stroke-width="3.2"/>
<circle clip-path="url(#clip403)" cx="1502.3" cy="381.576" r="14.4" fill="#a2acbe" fill-rule="evenodd" fill-opacity="1" stroke="#000000" stroke-opacity="1" stroke-width="3.2"/>
<circle clip-path="url(#clip403)" cx="1472.64" cy="490.35" r="14.4" fill="#7c84b2" fill-rule="evenodd" fill-opacity="1" stroke="#000000" stroke-opacity="1" stroke-width="3.2"/>
<circle clip-path="url(#clip403)" cx="1455.1" cy="608.461" r="14.4" fill="#595fa7" fill-rule="evenodd" fill-opacity="1" stroke="#000000" stroke-opacity="1" stroke-width="3.2"/>
<circle clip-path="url(#clip403)" cx="1450.63" cy="731.749" r="14.4" fill="#3b3e9d" fill-rule="evenodd" fill-opacity="1" stroke="#000000" stroke-opacity="1" stroke-width="3.2"/>
<circle clip-path="url(#clip403)" cx="1459.73" cy="855.758" r="14.4" fill="#212495" fill-rule="evenodd" fill-opacity="1" stroke="#000000" stroke-opacity="1" stroke-width="3.2"/>
<circle clip-path="url(#clip403)" cx="1482.36" cy="975.897" r="14.4" fill="#0f108f" fill-rule="evenodd" fill-opacity="1" stroke="#000000" stroke-opacity="1" stroke-width="3.2"/>
<circle clip-path="url(#clip403)" cx="1518.02" cy="1087.62" r="14.4" fill="#03038c" fill-rule="evenodd" fill-opacity="1" stroke="#000000" stroke-opacity="1" stroke-width="3.2"/>
<circle clip-path="url(#clip403)" cx="1565.7" cy="1186.57" r="14.4" fill="#00008b" fill-rule="evenodd" fill-opacity="1" stroke="#000000" stroke-opacity="1" stroke-width="3.2"/>
<circle clip-path="url(#clip403)" cx="1623.89" cy="1268.79" r="14.4" fill="#04048c" fill-rule="evenodd" fill-opacity="1" stroke="#000000" stroke-opacity="1" stroke-width="3.2"/>
<circle clip-path="url(#clip403)" cx="1690.68" cy="1330.85" r="14.4" fill="#111290" fill-rule="evenodd" fill-opacity="1" stroke="#000000" stroke-opacity="1" stroke-width="3.2"/>
<circle clip-path="url(#clip403)" cx="1763.8" cy="1369.99" r="14.4" fill="#262897" fill-rule="evenodd" fill-opacity="1" stroke="#000000" stroke-opacity="1" stroke-width="3.2"/>
<circle clip-path="url(#clip403)" cx="1840.67" cy="1384.24" r="14.4" fill="#4246a0" fill-rule="evenodd" fill-opacity="1" stroke="#000000" stroke-opacity="1" stroke-width="3.2"/>
<circle clip-path="url(#clip403)" cx="1918.54" cy="1372.52" r="14.4" fill="#656bab" fill-rule="evenodd" fill-opacity="1" stroke="#000000" stroke-opacity="1" stroke-width="3.2"/>
<circle clip-path="url(#clip403)" cx="1994.55" cy="1334.71" r="14.4" fill="#8d96b8" fill-rule="evenodd" fill-opacity="1" stroke="#000000" stroke-opacity="1" stroke-width="3.2"/>
<circle clip-path="url(#clip403)" cx="2065.83" cy="1271.62" r="14.4" fill="#b9c4c6" fill-rule="evenodd" fill-opacity="1" stroke="#000000" stroke-opacity="1" stroke-width="3.2"/>
<circle clip-path="url(#clip403)" cx="2129.66" cy="1185.05" r="14.4" fill="#c3bbb0" fill-rule="evenodd" fill-opacity="1" stroke="#000000" stroke-opacity="1" stroke-width="3.2"/>
<circle clip-path="url(#clip403)" cx="2183.51" cy="1077.71" r="14.4" fill="#b48981" fill-rule="evenodd" fill-opacity="1" stroke="#000000" stroke-opacity="1" stroke-width="3.2"/>
<circle clip-path="url(#clip403)" cx="2225.18" cy="953.117" r="14.4" fill="#a55852" fill-rule="evenodd" fill-opacity="1" stroke="#000000" stroke-opacity="1" stroke-width="3.2"/>
<circle clip-path="url(#clip403)" cx="2252.89" cy="815.52" r="14.4" fill="#972927" fill-rule="evenodd" fill-opacity="1" stroke="#000000" stroke-opacity="1" stroke-width="3.2"/>
<circle clip-path="url(#clip403)" cx="2265.32" cy="669.732" r="14.4" fill="#8b0000" fill-rule="evenodd" fill-opacity="1" stroke="#000000" stroke-opacity="1" stroke-width="3.2"/>
</svg>
