<?xml version="1.0" encoding="utf-8"?>
<svg xmlns="http://www.w3.org/2000/svg" xmlns:xlink="http://www.w3.org/1999/xlink" width="600" height="400" viewBox="0 0 2400 1600">
<defs>
  <clipPath id="clip700">
    <rect x="0" y="0" width="2400" height="1600"/>
  </clipPath>
</defs>
<path clip-path="url(#clip700)" d="M0 1600 L2400 1600 L2400 0 L0 0  Z" fill="#ffffff" fill-rule="evenodd" fill-opacity="1"/>
<defs>
  <clipPath id="clip701">
    <rect x="480" y="0" width="1681" height="1600"/>
  </clipPath>
</defs>
<path clip-path="url(#clip700)" d="M110.881 1486.45 L2352.76 1486.45 L2352.76 47.2441 L110.881 47.2441  Z" fill="#ffffff" fill-rule="evenodd" fill-opacity="1"/>
<defs>
  <clipPath id="clip702">
    <rect x="110" y="47" width="2243" height="1440"/>
  </clipPath>
</defs>
<polyline clip-path="url(#clip702)" style="stroke:#000000; stroke-linecap:round; stroke-linejoin:round; stroke-width:2; stroke-opacity:0.1; fill:none" points="152.967,1486.45 152.967,47.2441 "/>
<polyline clip-path="url(#clip702)" style="stroke:#000000; stroke-linecap:round; stroke-linejoin:round; stroke-width:2; stroke-opacity:0.1; fill:none" points="534.456,1486.45 534.456,47.2441 "/>
<polyline clip-path="url(#clip702)" style="stroke:#000000; stroke-linecap:round; stroke-linejoin:round; stroke-width:2; stroke-opacity:0.1; fill:none" points="915.945,1486.45 915.945,47.2441 "/>
<polyline clip-path="url(#clip702)" style="stroke:#000000; stroke-linecap:round; stroke-linejoin:round; stroke-width:2; stroke-opacity:0.1; fill:none" points="1297.43,1486.45 1297.43,47.2441 "/>
<polyline clip-path="url(#clip702)" style="stroke:#000000; stroke-linecap:round; stroke-linejoin:round; stroke-width:2; stroke-opacity:0.1; fill:none" points="1678.92,1486.45 1678.92,47.2441 "/>
<polyline clip-path="url(#clip702)" style="stroke:#000000; stroke-linecap:round; stroke-linejoin:round; stroke-width:2; stroke-opacity:0.1; fill:none" points="2060.41,1486.45 2060.41,47.2441 "/>
<polyline clip-path="url(#clip702)" style="stroke:#000000; stroke-linecap:round; stroke-linejoin:round; stroke-width:2; stroke-opacity:0.1; fill:none" points="110.881,1445.72 2352.76,1445.72 "/>
<polyline clip-path="url(#clip702)" style="stroke:#000000; stroke-linecap:round; stroke-linejoin:round; stroke-width:2; stroke-opacity:0.1; fill:none" points="110.881,1018.49 2352.76,1018.49 "/>
<polyline clip-path="url(#clip702)" style="stroke:#000000; stroke-linecap:round; stroke-linejoin:round; stroke-width:2; stroke-opacity:0.1; fill:none" points="110.881,591.269 2352.76,591.269 "/>
<polyline clip-path="url(#clip702)" style="stroke:#000000; stroke-linecap:round; stroke-linejoin:round; stroke-width:2; stroke-opacity:0.1; fill:none" points="110.881,164.045 2352.76,164.045 "/>
<polyline clip-path="url(#clip700)" style="stroke:#000000; stroke-linecap:round; stroke-linejoin:round; stroke-width:4; stroke-opacity:1; fill:none" points="110.881,1486.45 2352.76,1486.45 "/>
<polyline clip-path="url(#clip700)" style="stroke:#000000; stroke-linecap:round; stroke-linejoin:round; stroke-width:4; stroke-opacity:1; fill:none" points="152.967,1486.45 152.967,1467.55 "/>
<polyline clip-path="url(#clip700)" style="stroke:#000000; stroke-linecap:round; stroke-linejoin:round; stroke-width:4; stroke-opacity:1; fill:none" points="534.456,1486.45 534.456,1467.55 "/>
<polyline clip-path="url(#clip700)" style="stroke:#000000; stroke-linecap:round; stroke-linejoin:round; stroke-width:4; stroke-opacity:1; fill:none" points="915.945,1486.45 915.945,1467.55 "/>
<polyline clip-path="url(#clip700)" style="stroke:#000000; stroke-linecap:round; stroke-linejoin:round; stroke-width:4; stroke-opacity:1; fill:none" points="1297.43,1486.45 1297.43,1467.55 "/>
<polyline clip-path="url(#clip700)" style="stroke:#000000; stroke-linecap:round; stroke-linejoin:round; stroke-width:4; stroke-opacity:1; fill:none" points="1678.92,1486.45 1678.92,1467.55 "/>
<polyline clip-path="url(#clip700)" style="stroke:#000000; stroke-linecap:round; stroke-linejoin:round; stroke-width:4; stroke-opacity:1; fill:none" points="2060.41,1486.45 2060.41,1467.55 "/>
<path clip-path="url(#clip700)" d="M99.7379 1517.37 Q96.1268 1517.37 94.2981 1520.93 Q92.4926 1524.47 92.4926 1531.6 Q92.4926 1538.71 94.2981 1542.27 Q96.1268 1545.82 99.7379 1545.82 Q103.372 1545.82 105.178 1542.27 Q107.006 1538.71 107.006 1531.6 Q107.006 1524.47 105.178 1520.93 Q103.372 1517.37 99.7379 1517.37 M99.7379 1513.66 Q105.548 1513.66 108.604 1518.27 Q111.682 1522.85 111.682 1531.6 Q111.682 1540.33 108.604 1544.94 Q105.548 1549.52 99.7379 1549.52 Q93.9277 1549.52 90.8491 1544.94 Q87.7935 1540.33 87.7935 1531.6 Q87.7935 1522.85 90.8491 1518.27 Q93.9277 1513.66 99.7379 1513.66 Z" fill="#000000" fill-rule="nonzero" fill-opacity="1" /><path clip-path="url(#clip700)" d="M129.9 1517.37 Q126.289 1517.37 124.46 1520.93 Q122.654 1524.47 122.654 1531.6 Q122.654 1538.71 124.46 1542.27 Q126.289 1545.82 129.9 1545.82 Q133.534 1545.82 135.34 1542.27 Q137.168 1538.71 137.168 1531.6 Q137.168 1524.47 135.34 1520.93 Q133.534 1517.37 129.9 1517.37 M129.9 1513.66 Q135.71 1513.66 138.765 1518.27 Q141.844 1522.85 141.844 1531.6 Q141.844 1540.33 138.765 1544.94 Q135.71 1549.52 129.9 1549.52 Q124.09 1549.52 121.011 1544.94 Q117.955 1540.33 117.955 1531.6 Q117.955 1522.85 121.011 1518.27 Q124.09 1513.66 129.9 1513.66 Z" fill="#000000" fill-rule="nonzero" fill-opacity="1" /><path clip-path="url(#clip700)" d="M150.548 1542.97 L155.432 1542.97 L155.432 1548.85 L150.548 1548.85 L150.548 1542.97 M150.548 1524.33 L155.432 1524.33 L155.432 1530.21 L150.548 1530.21 L150.548 1524.33 Z" fill="#000000" fill-rule="nonzero" fill-opacity="1" /><path clip-path="url(#clip700)" d="M176.034 1517.37 Q172.423 1517.37 170.594 1520.93 Q168.788 1524.47 168.788 1531.6 Q168.788 1538.71 170.594 1542.27 Q172.423 1545.82 176.034 1545.82 Q179.668 1545.82 181.474 1542.27 Q183.302 1538.71 183.302 1531.6 Q183.302 1524.47 181.474 1520.93 Q179.668 1517.37 176.034 1517.37 M176.034 1513.66 Q181.844 1513.66 184.899 1518.27 Q187.978 1522.85 187.978 1531.6 Q187.978 1540.33 184.899 1544.94 Q181.844 1549.52 176.034 1549.52 Q170.224 1549.52 167.145 1544.94 Q164.089 1540.33 164.089 1531.6 Q164.089 1522.85 167.145 1518.27 Q170.224 1513.66 176.034 1513.66 Z" fill="#000000" fill-rule="nonzero" fill-opacity="1" /><path clip-path="url(#clip700)" d="M206.196 1517.37 Q202.585 1517.37 200.756 1520.93 Q198.95 1524.47 198.95 1531.6 Q198.95 1538.71 200.756 1542.27 Q202.585 1545.82 206.196 1545.82 Q209.83 1545.82 211.635 1542.27 Q213.464 1538.71 213.464 1531.6 Q213.464 1524.47 211.635 1520.93 Q209.83 1517.37 206.196 1517.37 M206.196 1513.66 Q212.006 1513.66 215.061 1518.27 Q218.14 1522.85 218.14 1531.6 Q218.14 1540.33 215.061 1544.94 Q212.006 1549.52 206.196 1549.52 Q200.386 1549.52 197.307 1544.94 Q194.251 1540.33 194.251 1531.6 Q194.251 1522.85 197.307 1518.27 Q200.386 1513.66 206.196 1513.66 Z" fill="#000000" fill-rule="nonzero" fill-opacity="1" /><path clip-path="url(#clip700)" d="M481.227 1517.37 Q477.616 1517.37 475.787 1520.93 Q473.982 1524.47 473.982 1531.6 Q473.982 1538.71 475.787 1542.27 Q477.616 1545.82 481.227 1545.82 Q484.861 1545.82 486.667 1542.27 Q488.496 1538.71 488.496 1531.6 Q488.496 1524.47 486.667 1520.93 Q484.861 1517.37 481.227 1517.37 M481.227 1513.66 Q487.037 1513.66 490.093 1518.27 Q493.172 1522.85 493.172 1531.6 Q493.172 1540.33 490.093 1544.94 Q487.037 1549.52 481.227 1549.52 Q475.417 1549.52 472.338 1544.94 Q469.283 1540.33 469.283 1531.6 Q469.283 1522.85 472.338 1518.27 Q475.417 1513.66 481.227 1513.66 Z" fill="#000000" fill-rule="nonzero" fill-opacity="1" /><path clip-path="url(#clip700)" d="M514.236 1518.36 L502.431 1536.81 L514.236 1536.81 L514.236 1518.36 M513.009 1514.29 L518.889 1514.29 L518.889 1536.81 L523.82 1536.81 L523.82 1540.7 L518.889 1540.7 L518.889 1548.85 L514.236 1548.85 L514.236 1540.7 L498.634 1540.7 L498.634 1536.19 L513.009 1514.29 Z" fill="#000000" fill-rule="nonzero" fill-opacity="1" /><path clip-path="url(#clip700)" d="M532.037 1542.97 L536.921 1542.97 L536.921 1548.85 L532.037 1548.85 L532.037 1542.97 M532.037 1524.33 L536.921 1524.33 L536.921 1530.21 L532.037 1530.21 L532.037 1524.33 Z" fill="#000000" fill-rule="nonzero" fill-opacity="1" /><path clip-path="url(#clip700)" d="M548.333 1544.91 L555.972 1544.91 L555.972 1518.55 L547.662 1520.21 L547.662 1515.95 L555.926 1514.29 L560.602 1514.29 L560.602 1544.91 L568.241 1544.91 L568.241 1548.85 L548.333 1548.85 L548.333 1544.91 Z" fill="#000000" fill-rule="nonzero" fill-opacity="1" /><path clip-path="url(#clip700)" d="M587.685 1517.37 Q584.074 1517.37 582.245 1520.93 Q580.44 1524.47 580.44 1531.6 Q580.44 1538.71 582.245 1542.27 Q584.074 1545.82 587.685 1545.82 Q591.319 1545.82 593.125 1542.27 Q594.953 1538.71 594.953 1531.6 Q594.953 1524.47 593.125 1520.93 Q591.319 1517.37 587.685 1517.37 M587.685 1513.66 Q593.495 1513.66 596.551 1518.27 Q599.629 1522.85 599.629 1531.6 Q599.629 1540.33 596.551 1544.94 Q593.495 1549.52 587.685 1549.52 Q581.875 1549.52 578.796 1544.94 Q575.741 1540.33 575.741 1531.6 Q575.741 1522.85 578.796 1518.27 Q581.875 1513.66 587.685 1513.66 Z" fill="#000000" fill-rule="nonzero" fill-opacity="1" /><path clip-path="url(#clip700)" d="M862.716 1517.37 Q859.105 1517.37 857.277 1520.93 Q855.471 1524.47 855.471 1531.6 Q855.471 1538.71 857.277 1542.27 Q859.105 1545.82 862.716 1545.82 Q866.351 1545.82 868.156 1542.27 Q869.985 1538.71 869.985 1531.6 Q869.985 1524.47 868.156 1520.93 Q866.351 1517.37 862.716 1517.37 M862.716 1513.66 Q868.527 1513.66 871.582 1518.27 Q874.661 1522.85 874.661 1531.6 Q874.661 1540.33 871.582 1544.94 Q868.527 1549.52 862.716 1549.52 Q856.906 1549.52 853.828 1544.94 Q850.772 1540.33 850.772 1531.6 Q850.772 1522.85 853.828 1518.27 Q856.906 1513.66 862.716 1513.66 Z" fill="#000000" fill-rule="nonzero" fill-opacity="1" /><path clip-path="url(#clip700)" d="M892.878 1532.44 Q889.545 1532.44 887.624 1534.22 Q885.726 1536 885.726 1539.13 Q885.726 1542.25 887.624 1544.03 Q889.545 1545.82 892.878 1545.82 Q896.212 1545.82 898.133 1544.03 Q900.054 1542.23 900.054 1539.13 Q900.054 1536 898.133 1534.22 Q896.235 1532.44 892.878 1532.44 M888.202 1530.45 Q885.193 1529.7 883.503 1527.64 Q881.837 1525.58 881.837 1522.62 Q881.837 1518.48 884.776 1516.07 Q887.739 1513.66 892.878 1513.66 Q898.04 1513.66 900.98 1516.07 Q903.92 1518.48 903.92 1522.62 Q903.92 1525.58 902.23 1527.64 Q900.563 1529.7 897.577 1530.45 Q900.957 1531.23 902.832 1533.52 Q904.73 1535.82 904.73 1539.13 Q904.73 1544.15 901.651 1546.83 Q898.596 1549.52 892.878 1549.52 Q887.161 1549.52 884.082 1546.83 Q881.026 1544.15 881.026 1539.13 Q881.026 1535.82 882.925 1533.52 Q884.823 1531.23 888.202 1530.45 M886.489 1523.06 Q886.489 1525.75 888.156 1527.25 Q889.846 1528.76 892.878 1528.76 Q895.888 1528.76 897.577 1527.25 Q899.29 1525.75 899.29 1523.06 Q899.29 1520.38 897.577 1518.87 Q895.888 1517.37 892.878 1517.37 Q889.846 1517.37 888.156 1518.87 Q886.489 1520.38 886.489 1523.06 Z" fill="#000000" fill-rule="nonzero" fill-opacity="1" /><path clip-path="url(#clip700)" d="M913.526 1542.97 L918.411 1542.97 L918.411 1548.85 L913.526 1548.85 L913.526 1542.97 M913.526 1524.33 L918.411 1524.33 L918.411 1530.21 L913.526 1530.21 L913.526 1524.33 Z" fill="#000000" fill-rule="nonzero" fill-opacity="1" /><path clip-path="url(#clip700)" d="M933.04 1544.91 L949.359 1544.91 L949.359 1548.85 L927.415 1548.85 L927.415 1544.91 Q930.077 1542.16 934.66 1537.53 Q939.267 1532.88 940.447 1531.53 Q942.693 1529.01 943.572 1527.27 Q944.475 1525.51 944.475 1523.82 Q944.475 1521.07 942.531 1519.33 Q940.61 1517.6 937.508 1517.6 Q935.309 1517.6 932.855 1518.36 Q930.424 1519.13 927.647 1520.68 L927.647 1515.95 Q930.471 1514.82 932.924 1514.24 Q935.378 1513.66 937.415 1513.66 Q942.785 1513.66 945.98 1516.35 Q949.174 1519.03 949.174 1523.52 Q949.174 1525.65 948.364 1527.57 Q947.577 1529.47 945.471 1532.07 Q944.892 1532.74 941.79 1535.95 Q938.688 1539.15 933.04 1544.91 Z" fill="#000000" fill-rule="nonzero" fill-opacity="1" /><path clip-path="url(#clip700)" d="M969.174 1517.37 Q965.563 1517.37 963.734 1520.93 Q961.929 1524.47 961.929 1531.6 Q961.929 1538.71 963.734 1542.27 Q965.563 1545.82 969.174 1545.82 Q972.808 1545.82 974.614 1542.27 Q976.443 1538.71 976.443 1531.6 Q976.443 1524.47 974.614 1520.93 Q972.808 1517.37 969.174 1517.37 M969.174 1513.66 Q974.984 1513.66 978.04 1518.27 Q981.119 1522.85 981.119 1531.6 Q981.119 1540.33 978.04 1544.94 Q974.984 1549.52 969.174 1549.52 Q963.364 1549.52 960.285 1544.94 Q957.23 1540.33 957.23 1531.6 Q957.23 1522.85 960.285 1518.27 Q963.364 1513.66 969.174 1513.66 Z" fill="#000000" fill-rule="nonzero" fill-opacity="1" /><path clip-path="url(#clip700)" d="M1233.97 1544.91 L1241.61 1544.91 L1241.61 1518.55 L1233.3 1520.21 L1233.3 1515.95 L1241.57 1514.29 L1246.24 1514.29 L1246.24 1544.91 L1253.88 1544.91 L1253.88 1548.85 L1233.97 1548.85 L1233.97 1544.91 Z" fill="#000000" fill-rule="nonzero" fill-opacity="1" /><path clip-path="url(#clip700)" d="M1267.35 1544.91 L1283.67 1544.91 L1283.67 1548.85 L1261.73 1548.85 L1261.73 1544.91 Q1264.39 1542.16 1268.97 1537.53 Q1273.58 1532.88 1274.76 1531.53 Q1277.01 1529.01 1277.89 1527.27 Q1278.79 1525.51 1278.79 1523.82 Q1278.79 1521.07 1276.84 1519.33 Q1274.92 1517.6 1271.82 1517.6 Q1269.62 1517.6 1267.17 1518.36 Q1264.74 1519.13 1261.96 1520.68 L1261.96 1515.95 Q1264.78 1514.82 1267.24 1514.24 Q1269.69 1513.66 1271.73 1513.66 Q1277.1 1513.66 1280.29 1516.35 Q1283.49 1519.03 1283.49 1523.52 Q1283.49 1525.65 1282.68 1527.57 Q1281.89 1529.47 1279.78 1532.07 Q1279.21 1532.74 1276.1 1535.95 Q1273 1539.15 1267.35 1544.91 Z" fill="#000000" fill-rule="nonzero" fill-opacity="1" /><path clip-path="url(#clip700)" d="M1293.97 1542.97 L1298.86 1542.97 L1298.86 1548.85 L1293.97 1548.85 L1293.97 1542.97 M1293.97 1524.33 L1298.86 1524.33 L1298.86 1530.21 L1293.97 1530.21 L1293.97 1524.33 Z" fill="#000000" fill-rule="nonzero" fill-opacity="1" /><path clip-path="url(#clip700)" d="M1323.63 1530.21 Q1326.98 1530.93 1328.86 1533.2 Q1330.76 1535.47 1330.76 1538.8 Q1330.76 1543.92 1327.24 1546.72 Q1323.72 1549.52 1317.24 1549.52 Q1315.06 1549.52 1312.75 1549.08 Q1310.46 1548.66 1308 1547.81 L1308 1543.29 Q1309.95 1544.43 1312.26 1545.01 Q1314.58 1545.58 1317.1 1545.58 Q1321.5 1545.58 1323.79 1543.85 Q1326.1 1542.11 1326.1 1538.8 Q1326.1 1535.75 1323.95 1534.03 Q1321.82 1532.3 1318 1532.3 L1313.97 1532.3 L1313.97 1528.45 L1318.19 1528.45 Q1321.64 1528.45 1323.46 1527.09 Q1325.29 1525.7 1325.29 1523.11 Q1325.29 1520.45 1323.4 1519.03 Q1321.52 1517.6 1318 1517.6 Q1316.08 1517.6 1313.88 1518.01 Q1311.68 1518.43 1309.04 1519.31 L1309.04 1515.14 Q1311.71 1514.4 1314.02 1514.03 Q1316.36 1513.66 1318.42 1513.66 Q1323.74 1513.66 1326.84 1516.09 Q1329.95 1518.5 1329.95 1522.62 Q1329.95 1525.49 1328.3 1527.48 Q1326.66 1529.45 1323.63 1530.21 Z" fill="#000000" fill-rule="nonzero" fill-opacity="1" /><path clip-path="url(#clip700)" d="M1349.62 1517.37 Q1346.01 1517.37 1344.18 1520.93 Q1342.38 1524.47 1342.38 1531.6 Q1342.38 1538.71 1344.18 1542.27 Q1346.01 1545.82 1349.62 1545.82 Q1353.26 1545.82 1355.06 1542.27 Q1356.89 1538.71 1356.89 1531.6 Q1356.89 1524.47 1355.06 1520.93 Q1353.26 1517.37 1349.62 1517.37 M1349.62 1513.66 Q1355.43 1513.66 1358.49 1518.27 Q1361.57 1522.85 1361.57 1531.6 Q1361.57 1540.33 1358.49 1544.94 Q1355.43 1549.52 1349.62 1549.52 Q1343.81 1549.52 1340.73 1544.94 Q1337.68 1540.33 1337.68 1531.6 Q1337.68 1522.85 1340.73 1518.27 Q1343.81 1513.66 1349.62 1513.66 Z" fill="#000000" fill-rule="nonzero" fill-opacity="1" /><path clip-path="url(#clip700)" d="M1615.46 1544.91 L1623.1 1544.91 L1623.1 1518.55 L1614.79 1520.21 L1614.79 1515.95 L1623.06 1514.29 L1627.73 1514.29 L1627.73 1544.91 L1635.37 1544.91 L1635.37 1548.85 L1615.46 1548.85 L1615.46 1544.91 Z" fill="#000000" fill-rule="nonzero" fill-opacity="1" /><path clip-path="url(#clip700)" d="M1655.39 1529.7 Q1652.25 1529.7 1650.39 1531.86 Q1648.57 1534.01 1648.57 1537.76 Q1648.57 1541.49 1650.39 1543.66 Q1652.25 1545.82 1655.39 1545.82 Q1658.54 1545.82 1660.37 1543.66 Q1662.22 1541.49 1662.22 1537.76 Q1662.22 1534.01 1660.37 1531.86 Q1658.54 1529.7 1655.39 1529.7 M1664.68 1515.05 L1664.68 1519.31 Q1662.92 1518.48 1661.11 1518.04 Q1659.33 1517.6 1657.57 1517.6 Q1652.94 1517.6 1650.49 1520.72 Q1648.06 1523.85 1647.71 1530.17 Q1649.07 1528.15 1651.13 1527.09 Q1653.19 1526 1655.67 1526 Q1660.88 1526 1663.89 1529.17 Q1666.92 1532.32 1666.92 1537.76 Q1666.92 1543.08 1663.77 1546.3 Q1660.63 1549.52 1655.39 1549.52 Q1649.4 1549.52 1646.23 1544.94 Q1643.06 1540.33 1643.06 1531.6 Q1643.06 1523.41 1646.94 1518.55 Q1650.83 1513.66 1657.38 1513.66 Q1659.14 1513.66 1660.93 1514.01 Q1662.73 1514.36 1664.68 1515.05 Z" fill="#000000" fill-rule="nonzero" fill-opacity="1" /><path clip-path="url(#clip700)" d="M1675.46 1542.97 L1680.35 1542.97 L1680.35 1548.85 L1675.46 1548.85 L1675.46 1542.97 M1675.46 1524.33 L1680.35 1524.33 L1680.35 1530.21 L1675.46 1530.21 L1675.46 1524.33 Z" fill="#000000" fill-rule="nonzero" fill-opacity="1" /><path clip-path="url(#clip700)" d="M1703.8 1518.36 L1691.99 1536.81 L1703.8 1536.81 L1703.8 1518.36 M1702.57 1514.29 L1708.45 1514.29 L1708.45 1536.81 L1713.38 1536.81 L1713.38 1540.7 L1708.45 1540.7 L1708.45 1548.85 L1703.8 1548.85 L1703.8 1540.7 L1688.19 1540.7 L1688.19 1536.19 L1702.57 1514.29 Z" fill="#000000" fill-rule="nonzero" fill-opacity="1" /><path clip-path="url(#clip700)" d="M1731.11 1517.37 Q1727.5 1517.37 1725.67 1520.93 Q1723.87 1524.47 1723.87 1531.6 Q1723.87 1538.71 1725.67 1542.27 Q1727.5 1545.82 1731.11 1545.82 Q1734.75 1545.82 1736.55 1542.27 Q1738.38 1538.71 1738.38 1531.6 Q1738.38 1524.47 1736.55 1520.93 Q1734.75 1517.37 1731.11 1517.37 M1731.11 1513.66 Q1736.92 1513.66 1739.98 1518.27 Q1743.06 1522.85 1743.06 1531.6 Q1743.06 1540.33 1739.98 1544.94 Q1736.92 1549.52 1731.11 1549.52 Q1725.3 1549.52 1722.22 1544.94 Q1719.17 1540.33 1719.17 1531.6 Q1719.17 1522.85 1722.22 1518.27 Q1725.3 1513.66 1731.11 1513.66 Z" fill="#000000" fill-rule="nonzero" fill-opacity="1" /><path clip-path="url(#clip700)" d="M2001.04 1544.91 L2017.36 1544.91 L2017.36 1548.85 L1995.41 1548.85 L1995.41 1544.91 Q1998.08 1542.16 2002.66 1537.53 Q2007.27 1532.88 2008.45 1531.53 Q2010.69 1529.01 2011.57 1527.27 Q2012.47 1525.51 2012.47 1523.82 Q2012.47 1521.07 2010.53 1519.33 Q2008.61 1517.6 2005.51 1517.6 Q2003.31 1517.6 2000.85 1518.36 Q1998.42 1519.13 1995.64 1520.68 L1995.64 1515.95 Q1998.47 1514.82 2000.92 1514.24 Q2003.38 1513.66 2005.41 1513.66 Q2010.78 1513.66 2013.98 1516.35 Q2017.17 1519.03 2017.17 1523.52 Q2017.17 1525.65 2016.36 1527.57 Q2015.58 1529.47 2013.47 1532.07 Q2012.89 1532.74 2009.79 1535.95 Q2006.69 1539.15 2001.04 1544.91 Z" fill="#000000" fill-rule="nonzero" fill-opacity="1" /><path clip-path="url(#clip700)" d="M2037.17 1517.37 Q2033.56 1517.37 2031.73 1520.93 Q2029.93 1524.47 2029.93 1531.6 Q2029.93 1538.71 2031.73 1542.27 Q2033.56 1545.82 2037.17 1545.82 Q2040.81 1545.82 2042.61 1542.27 Q2044.44 1538.71 2044.44 1531.6 Q2044.44 1524.47 2042.61 1520.93 Q2040.81 1517.37 2037.17 1517.37 M2037.17 1513.66 Q2042.98 1513.66 2046.04 1518.27 Q2049.12 1522.85 2049.12 1531.6 Q2049.12 1540.33 2046.04 1544.94 Q2042.98 1549.52 2037.17 1549.52 Q2031.36 1549.52 2028.28 1544.94 Q2025.23 1540.33 2025.23 1531.6 Q2025.23 1522.85 2028.28 1518.27 Q2031.36 1513.66 2037.17 1513.66 Z" fill="#000000" fill-rule="nonzero" fill-opacity="1" /><path clip-path="url(#clip700)" d="M2057.82 1542.97 L2062.7 1542.97 L2062.7 1548.85 L2057.82 1548.85 L2057.82 1542.97 M2057.82 1524.33 L2062.7 1524.33 L2062.7 1530.21 L2057.82 1530.21 L2057.82 1524.33 Z" fill="#000000" fill-rule="nonzero" fill-opacity="1" /><path clip-path="url(#clip700)" d="M2073.35 1514.29 L2091.71 1514.29 L2091.71 1518.22 L2077.64 1518.22 L2077.64 1526.7 Q2078.65 1526.35 2079.67 1526.19 Q2080.69 1526 2081.71 1526 Q2087.5 1526 2090.88 1529.17 Q2094.26 1532.34 2094.26 1537.76 Q2094.26 1543.34 2090.78 1546.44 Q2087.31 1549.52 2080.99 1549.52 Q2078.82 1549.52 2076.55 1549.15 Q2074.3 1548.78 2071.89 1548.04 L2071.89 1543.34 Q2073.98 1544.47 2076.2 1545.03 Q2078.42 1545.58 2080.9 1545.58 Q2084.9 1545.58 2087.24 1543.48 Q2089.58 1541.37 2089.58 1537.76 Q2089.58 1534.15 2087.24 1532.04 Q2084.9 1529.94 2080.9 1529.94 Q2079.02 1529.94 2077.15 1530.35 Q2075.3 1530.77 2073.35 1531.65 L2073.35 1514.29 Z" fill="#000000" fill-rule="nonzero" fill-opacity="1" /><path clip-path="url(#clip700)" d="M2113.47 1517.37 Q2109.86 1517.37 2108.03 1520.93 Q2106.22 1524.47 2106.22 1531.6 Q2106.22 1538.71 2108.03 1542.27 Q2109.86 1545.82 2113.47 1545.82 Q2117.1 1545.82 2118.91 1542.27 Q2120.74 1538.71 2120.74 1531.6 Q2120.74 1524.47 2118.91 1520.93 Q2117.1 1517.37 2113.47 1517.37 M2113.47 1513.66 Q2119.28 1513.66 2122.33 1518.27 Q2125.41 1522.85 2125.41 1531.6 Q2125.41 1540.33 2122.33 1544.94 Q2119.28 1549.52 2113.47 1549.52 Q2107.66 1549.52 2104.58 1544.94 Q2101.52 1540.33 2101.52 1531.6 Q2101.52 1522.85 2104.58 1518.27 Q2107.66 1513.66 2113.47 1513.66 Z" fill="#000000" fill-rule="nonzero" fill-opacity="1" /><polyline clip-path="url(#clip700)" style="stroke:#000000; stroke-linecap:round; stroke-linejoin:round; stroke-width:4; stroke-opacity:1; fill:none" points="110.881,1486.45 110.881,47.2441 "/>
<polyline clip-path="url(#clip700)" style="stroke:#000000; stroke-linecap:round; stroke-linejoin:round; stroke-width:4; stroke-opacity:1; fill:none" points="110.881,1445.72 129.779,1445.72 "/>
<polyline clip-path="url(#clip700)" style="stroke:#000000; stroke-linecap:round; stroke-linejoin:round; stroke-width:4; stroke-opacity:1; fill:none" points="110.881,1018.49 129.779,1018.49 "/>
<polyline clip-path="url(#clip700)" style="stroke:#000000; stroke-linecap:round; stroke-linejoin:round; stroke-width:4; stroke-opacity:1; fill:none" points="110.881,591.269 129.779,591.269 "/>
<polyline clip-path="url(#clip700)" style="stroke:#000000; stroke-linecap:round; stroke-linejoin:round; stroke-width:4; stroke-opacity:1; fill:none" points="110.881,164.045 129.779,164.045 "/>
<path clip-path="url(#clip700)" d="M62.9365 1431.51 Q59.3254 1431.51 57.4967 1435.08 Q55.6912 1438.62 55.6912 1445.75 Q55.6912 1452.86 57.4967 1456.42 Q59.3254 1459.96 62.9365 1459.96 Q66.5707 1459.96 68.3763 1456.42 Q70.205 1452.86 70.205 1445.75 Q70.205 1438.62 68.3763 1435.08 Q66.5707 1431.51 62.9365 1431.51 M62.9365 1427.81 Q68.7467 1427.81 71.8022 1432.42 Q74.8809 1437 74.8809 1445.75 Q74.8809 1454.48 71.8022 1459.08 Q68.7467 1463.67 62.9365 1463.67 Q57.1264 1463.67 54.0477 1459.08 Q50.9921 1454.48 50.9921 1445.75 Q50.9921 1437 54.0477 1432.42 Q57.1264 1427.81 62.9365 1427.81 Z" fill="#000000" fill-rule="nonzero" fill-opacity="1" /><path clip-path="url(#clip700)" d="M54.9736 1031.84 L62.6124 1031.84 L62.6124 1005.47 L54.3023 1007.14 L54.3023 1002.88 L62.5661 1001.21 L67.242 1001.21 L67.242 1031.84 L74.8809 1031.84 L74.8809 1035.77 L54.9736 1035.77 L54.9736 1031.84 Z" fill="#000000" fill-rule="nonzero" fill-opacity="1" /><path clip-path="url(#clip700)" d="M58.5615 604.613 L74.8809 604.613 L74.8809 608.549 L52.9366 608.549 L52.9366 604.613 Q55.5986 601.859 60.1819 597.229 Q64.7883 592.576 65.9689 591.234 Q68.2143 588.711 69.0939 586.975 Q69.9967 585.215 69.9967 583.526 Q69.9967 580.771 68.0522 579.035 Q66.1309 577.299 63.0291 577.299 Q60.83 577.299 58.3763 578.063 Q55.9458 578.827 53.168 580.377 L53.168 575.655 Q55.9921 574.521 58.4458 573.942 Q60.8995 573.364 62.9365 573.364 Q68.3068 573.364 71.5013 576.049 Q74.6957 578.734 74.6957 583.225 Q74.6957 585.354 73.8855 587.276 Q73.0985 589.174 70.992 591.766 Q70.4133 592.438 67.3115 595.655 Q64.2096 598.85 58.5615 604.613 Z" fill="#000000" fill-rule="nonzero" fill-opacity="1" /><path clip-path="url(#clip700)" d="M67.7513 162.691 Q71.1078 163.408 72.9827 165.677 Q74.8809 167.946 74.8809 171.279 Q74.8809 176.395 71.3624 179.195 Q67.8439 181.996 61.3624 181.996 Q59.1865 181.996 56.8717 181.557 Q54.5801 181.14 52.1264 180.283 L52.1264 175.77 Q54.0708 176.904 56.3856 177.482 Q58.7004 178.061 61.2236 178.061 Q65.6217 178.061 67.9133 176.325 Q70.2281 174.589 70.2281 171.279 Q70.2281 168.223 68.0754 166.51 Q65.9457 164.774 62.1263 164.774 L58.0986 164.774 L58.0986 160.932 L62.3115 160.932 Q65.7606 160.932 67.5893 159.566 Q69.418 158.177 69.418 155.584 Q69.418 152.922 67.5198 151.51 Q65.6448 150.075 62.1263 150.075 Q60.205 150.075 58.006 150.492 Q55.8069 150.909 53.168 151.788 L53.168 147.622 Q55.8301 146.881 58.1449 146.51 Q60.4828 146.14 62.543 146.14 Q67.867 146.14 70.9689 148.571 Q74.0707 150.978 74.0707 155.098 Q74.0707 157.969 72.4272 159.959 Q70.7837 161.927 67.7513 162.691 Z" fill="#000000" fill-rule="nonzero" fill-opacity="1" /><polyline clip-path="url(#clip702)" style="stroke:#009af9; stroke-linecap:round; stroke-linejoin:round; stroke-width:4; stroke-opacity:1; fill:none" points="174.33,1445.72 331.504,1149.59 391.016,976.363 510.041,853.458 543.612,758.126 630.591,680.234 777.083,614.377 825.914,557.329 900.686,507.01 1024.29,461.997 1083.8,421.278 1193.67,384.105 1306.59,349.909 1353.89,318.248 1494.28,288.773 1530.91,261.201 1665.19,235.3 1756.75,210.881 1813.21,187.782 1968.86,165.868 1999.37,145.024 2148.92,125.15 2173.33,106.159 2289.31,87.9763 "/>
<path clip-path="url(#clip700)" d="M185.61 198.898 L462.228 198.898 L462.228 95.2176 L185.61 95.2176  Z" fill="#ffffff" fill-rule="evenodd" fill-opacity="1"/>
<polyline clip-path="url(#clip700)" style="stroke:#000000; stroke-linecap:round; stroke-linejoin:round; stroke-width:4; stroke-opacity:1; fill:none" points="185.61,198.898 462.228,198.898 462.228,95.2176 185.61,95.2176 185.61,198.898 "/>
<polyline clip-path="url(#clip700)" style="stroke:#009af9; stroke-linecap:round; stroke-linejoin:round; stroke-width:4; stroke-opacity:1; fill:none" points="210.52,147.058 359.978,147.058 "/>
<path clip-path="url(#clip700)" d="M398.73 166.745 Q396.925 171.375 395.212 172.787 Q393.499 174.199 390.629 174.199 L387.226 174.199 L387.226 170.634 L389.726 170.634 Q391.485 170.634 392.457 169.8 Q393.429 168.967 394.61 165.865 L395.374 163.921 L384.888 138.412 L389.402 138.412 L397.504 158.689 L405.605 138.412 L410.119 138.412 L398.73 166.745 Z" fill="#000000" fill-rule="nonzero" fill-opacity="1" /><path clip-path="url(#clip700)" d="M417.411 160.402 L425.05 160.402 L425.05 134.037 L416.74 135.703 L416.74 131.444 L425.003 129.778 L429.679 129.778 L429.679 160.402 L437.318 160.402 L437.318 164.338 L417.411 164.338 L417.411 160.402 Z" fill="#000000" fill-rule="nonzero" fill-opacity="1" /></svg>
