<?xml version="1.0" encoding="utf-8"?>
<svg xmlns="http://www.w3.org/2000/svg" xmlns:xlink="http://www.w3.org/1999/xlink" width="600" height="400" viewBox="0 0 2400 1600">
<defs>
  <clipPath id="clip550">
    <rect x="0" y="0" width="2400" height="1600"/>
  </clipPath>
</defs>
<path clip-path="url(#clip550)" d="M0 1600 L2400 1600 L2400 0 L0 0  Z" fill="#ffffff" fill-rule="evenodd" fill-opacity="1"/>
<defs>
  <clipPath id="clip551">
    <rect x="480" y="0" width="1681" height="1600"/>
  </clipPath>
</defs>
<path clip-path="url(#clip550)" d="M205.121 1423.18 L2150.46 1423.18 L2150.46 47.2441 L205.121 47.2441  Z" fill="#ffffff" fill-rule="evenodd" fill-opacity="1"/>
<defs>
  <clipPath id="clip552">
    <rect x="205" y="47" width="1946" height="1377"/>
  </clipPath>
</defs>
<polyline clip-path="url(#clip552)" style="stroke:#000000; stroke-linecap:round; stroke-linejoin:round; stroke-width:2; stroke-opacity:0.1; fill:none" points="260.178,1423.18 260.178,47.2441 "/>
<polyline clip-path="url(#clip552)" style="stroke:#000000; stroke-linecap:round; stroke-linejoin:round; stroke-width:2; stroke-opacity:0.1; fill:none" points="718.984,1423.18 718.984,47.2441 "/>
<polyline clip-path="url(#clip552)" style="stroke:#000000; stroke-linecap:round; stroke-linejoin:round; stroke-width:2; stroke-opacity:0.1; fill:none" points="1177.79,1423.18 1177.79,47.2441 "/>
<polyline clip-path="url(#clip552)" style="stroke:#000000; stroke-linecap:round; stroke-linejoin:round; stroke-width:2; stroke-opacity:0.1; fill:none" points="1636.6,1423.18 1636.6,47.2441 "/>
<polyline clip-path="url(#clip552)" style="stroke:#000000; stroke-linecap:round; stroke-linejoin:round; stroke-width:2; stroke-opacity:0.1; fill:none" points="2095.4,1423.18 2095.4,47.2441 "/>
<polyline clip-path="url(#clip550)" style="stroke:#000000; stroke-linecap:round; stroke-linejoin:round; stroke-width:4; stroke-opacity:1; fill:none" points="205.121,1423.18 2150.46,1423.18 "/>
<polyline clip-path="url(#clip550)" style="stroke:#000000; stroke-linecap:round; stroke-linejoin:round; stroke-width:4; stroke-opacity:1; fill:none" points="260.178,1423.18 260.178,1404.28 "/>
<polyline clip-path="url(#clip550)" style="stroke:#000000; stroke-linecap:round; stroke-linejoin:round; stroke-width:4; stroke-opacity:1; fill:none" points="718.984,1423.18 718.984,1404.28 "/>
<polyline clip-path="url(#clip550)" style="stroke:#000000; stroke-linecap:round; stroke-linejoin:round; stroke-width:4; stroke-opacity:1; fill:none" points="1177.79,1423.18 1177.79,1404.28 "/>
<polyline clip-path="url(#clip550)" style="stroke:#000000; stroke-linecap:round; stroke-linejoin:round; stroke-width:4; stroke-opacity:1; fill:none" points="1636.6,1423.18 1636.6,1404.28 "/>
<polyline clip-path="url(#clip550)" style="stroke:#000000; stroke-linecap:round; stroke-linejoin:round; stroke-width:4; stroke-opacity:1; fill:none" points="2095.4,1423.18 2095.4,1404.28 "/>
<path clip-path="url(#clip550)" d="M237.562 1454.1 Q233.951 1454.1 232.122 1457.66 Q230.317 1461.2 230.317 1468.33 Q230.317 1475.44 232.122 1479.01 Q233.951 1482.55 237.562 1482.55 Q241.196 1482.55 243.002 1479.01 Q244.831 1475.44 244.831 1468.33 Q244.831 1461.2 243.002 1457.66 Q241.196 1454.1 237.562 1454.1 M237.562 1450.39 Q243.372 1450.39 246.428 1455 Q249.506 1459.58 249.506 1468.33 Q249.506 1477.06 246.428 1481.67 Q243.372 1486.25 237.562 1486.25 Q231.752 1486.25 228.673 1481.67 Q225.618 1477.06 225.618 1468.33 Q225.618 1459.58 228.673 1455 Q231.752 1450.39 237.562 1450.39 Z" fill="#000000" fill-rule="nonzero" fill-opacity="1" /><path clip-path="url(#clip550)" d="M257.724 1479.7 L262.608 1479.7 L262.608 1485.58 L257.724 1485.58 L257.724 1479.7 Z" fill="#000000" fill-rule="nonzero" fill-opacity="1" /><path clip-path="url(#clip550)" d="M282.793 1454.1 Q279.182 1454.1 277.354 1457.66 Q275.548 1461.2 275.548 1468.33 Q275.548 1475.44 277.354 1479.01 Q279.182 1482.55 282.793 1482.55 Q286.428 1482.55 288.233 1479.01 Q290.062 1475.44 290.062 1468.33 Q290.062 1461.2 288.233 1457.66 Q286.428 1454.1 282.793 1454.1 M282.793 1450.39 Q288.603 1450.39 291.659 1455 Q294.738 1459.58 294.738 1468.33 Q294.738 1477.06 291.659 1481.67 Q288.603 1486.25 282.793 1486.25 Q276.983 1486.25 273.904 1481.67 Q270.849 1477.06 270.849 1468.33 Q270.849 1459.58 273.904 1455 Q276.983 1450.39 282.793 1450.39 Z" fill="#000000" fill-rule="nonzero" fill-opacity="1" /><path clip-path="url(#clip550)" d="M690.72 1481.64 L707.039 1481.64 L707.039 1485.58 L685.095 1485.58 L685.095 1481.64 Q687.757 1478.89 692.34 1474.26 Q696.947 1469.61 698.127 1468.27 Q700.373 1465.74 701.252 1464.01 Q702.155 1462.25 702.155 1460.56 Q702.155 1457.8 700.211 1456.07 Q698.289 1454.33 695.187 1454.33 Q692.988 1454.33 690.535 1455.09 Q688.104 1455.86 685.326 1457.41 L685.326 1452.69 Q688.15 1451.55 690.604 1450.97 Q693.058 1450.39 695.095 1450.39 Q700.465 1450.39 703.66 1453.08 Q706.854 1455.77 706.854 1460.26 Q706.854 1462.39 706.044 1464.31 Q705.257 1466.2 703.15 1468.8 Q702.572 1469.47 699.47 1472.69 Q696.368 1475.88 690.72 1481.64 Z" fill="#000000" fill-rule="nonzero" fill-opacity="1" /><path clip-path="url(#clip550)" d="M716.854 1479.7 L721.738 1479.7 L721.738 1485.58 L716.854 1485.58 L716.854 1479.7 Z" fill="#000000" fill-rule="nonzero" fill-opacity="1" /><path clip-path="url(#clip550)" d="M731.97 1451.02 L750.326 1451.02 L750.326 1454.96 L736.252 1454.96 L736.252 1463.43 Q737.271 1463.08 738.289 1462.92 Q739.308 1462.73 740.326 1462.73 Q746.113 1462.73 749.493 1465.9 Q752.872 1469.08 752.872 1474.49 Q752.872 1480.07 749.4 1483.17 Q745.928 1486.25 739.608 1486.25 Q737.433 1486.25 735.164 1485.88 Q732.919 1485.51 730.511 1484.77 L730.511 1480.07 Q732.595 1481.2 734.817 1481.76 Q737.039 1482.32 739.516 1482.32 Q743.52 1482.32 745.858 1480.21 Q748.196 1478.1 748.196 1474.49 Q748.196 1470.88 745.858 1468.77 Q743.52 1466.67 739.516 1466.67 Q737.641 1466.67 735.766 1467.08 Q733.914 1467.5 731.97 1468.38 L731.97 1451.02 Z" fill="#000000" fill-rule="nonzero" fill-opacity="1" /><path clip-path="url(#clip550)" d="M1144.95 1451.02 L1163.31 1451.02 L1163.31 1454.96 L1149.24 1454.96 L1149.24 1463.43 Q1150.25 1463.08 1151.27 1462.92 Q1152.29 1462.73 1153.31 1462.73 Q1159.1 1462.73 1162.48 1465.9 Q1165.86 1469.08 1165.86 1474.49 Q1165.86 1480.07 1162.38 1483.17 Q1158.91 1486.25 1152.59 1486.25 Q1150.42 1486.25 1148.15 1485.88 Q1145.9 1485.51 1143.5 1484.77 L1143.5 1480.07 Q1145.58 1481.2 1147.8 1481.76 Q1150.02 1482.32 1152.5 1482.32 Q1156.5 1482.32 1158.84 1480.21 Q1161.18 1478.1 1161.18 1474.49 Q1161.18 1470.88 1158.84 1468.77 Q1156.5 1466.67 1152.5 1466.67 Q1150.63 1466.67 1148.75 1467.08 Q1146.9 1467.5 1144.95 1468.38 L1144.95 1451.02 Z" fill="#000000" fill-rule="nonzero" fill-opacity="1" /><path clip-path="url(#clip550)" d="M1175.07 1479.7 L1179.95 1479.7 L1179.95 1485.58 L1175.07 1485.58 L1175.07 1479.7 Z" fill="#000000" fill-rule="nonzero" fill-opacity="1" /><path clip-path="url(#clip550)" d="M1200.14 1454.1 Q1196.53 1454.1 1194.7 1457.66 Q1192.89 1461.2 1192.89 1468.33 Q1192.89 1475.44 1194.7 1479.01 Q1196.53 1482.55 1200.14 1482.55 Q1203.77 1482.55 1205.58 1479.01 Q1207.41 1475.44 1207.41 1468.33 Q1207.41 1461.2 1205.58 1457.66 Q1203.77 1454.1 1200.14 1454.1 M1200.14 1450.39 Q1205.95 1450.39 1209 1455 Q1212.08 1459.58 1212.08 1468.33 Q1212.08 1477.06 1209 1481.67 Q1205.95 1486.25 1200.14 1486.25 Q1194.33 1486.25 1191.25 1481.67 Q1188.19 1477.06 1188.19 1468.33 Q1188.19 1459.58 1191.25 1455 Q1194.33 1450.39 1200.14 1450.39 Z" fill="#000000" fill-rule="nonzero" fill-opacity="1" /><path clip-path="url(#clip550)" d="M1602.91 1451.02 L1625.14 1451.02 L1625.14 1453.01 L1612.59 1485.58 L1607.71 1485.58 L1619.51 1454.96 L1602.91 1454.96 L1602.91 1451.02 Z" fill="#000000" fill-rule="nonzero" fill-opacity="1" /><path clip-path="url(#clip550)" d="M1634.26 1479.7 L1639.14 1479.7 L1639.14 1485.58 L1634.26 1485.58 L1634.26 1479.7 Z" fill="#000000" fill-rule="nonzero" fill-opacity="1" /><path clip-path="url(#clip550)" d="M1649.37 1451.02 L1667.73 1451.02 L1667.73 1454.96 L1653.66 1454.96 L1653.66 1463.43 Q1654.67 1463.08 1655.69 1462.92 Q1656.71 1462.73 1657.73 1462.73 Q1663.52 1462.73 1666.9 1465.9 Q1670.28 1469.08 1670.28 1474.49 Q1670.28 1480.07 1666.8 1483.17 Q1663.33 1486.25 1657.01 1486.25 Q1654.84 1486.25 1652.57 1485.88 Q1650.32 1485.51 1647.91 1484.77 L1647.91 1480.07 Q1650 1481.2 1652.22 1481.76 Q1654.44 1482.32 1656.92 1482.32 Q1660.92 1482.32 1663.26 1480.21 Q1665.6 1478.1 1665.6 1474.49 Q1665.6 1470.88 1663.26 1468.77 Q1660.92 1466.67 1656.92 1466.67 Q1655.04 1466.67 1653.17 1467.08 Q1651.32 1467.5 1649.37 1468.38 L1649.37 1451.02 Z" fill="#000000" fill-rule="nonzero" fill-opacity="1" /><path clip-path="url(#clip550)" d="M2047.47 1481.64 L2055.11 1481.64 L2055.11 1455.28 L2046.8 1456.95 L2046.8 1452.69 L2055.07 1451.02 L2059.74 1451.02 L2059.74 1481.64 L2067.38 1481.64 L2067.38 1485.58 L2047.47 1485.58 L2047.47 1481.64 Z" fill="#000000" fill-rule="nonzero" fill-opacity="1" /><path clip-path="url(#clip550)" d="M2086.82 1454.1 Q2083.21 1454.1 2081.39 1457.66 Q2079.58 1461.2 2079.58 1468.33 Q2079.58 1475.44 2081.39 1479.01 Q2083.21 1482.55 2086.82 1482.55 Q2090.46 1482.55 2092.26 1479.01 Q2094.09 1475.44 2094.09 1468.33 Q2094.09 1461.2 2092.26 1457.66 Q2090.46 1454.1 2086.82 1454.1 M2086.82 1450.39 Q2092.64 1450.39 2095.69 1455 Q2098.77 1459.58 2098.77 1468.33 Q2098.77 1477.06 2095.69 1481.67 Q2092.64 1486.25 2086.82 1486.25 Q2081.01 1486.25 2077.94 1481.67 Q2074.88 1477.06 2074.88 1468.33 Q2074.88 1459.58 2077.94 1455 Q2081.01 1450.39 2086.82 1450.39 Z" fill="#000000" fill-rule="nonzero" fill-opacity="1" /><path clip-path="url(#clip550)" d="M2106.99 1479.7 L2111.87 1479.7 L2111.87 1485.58 L2106.99 1485.58 L2106.99 1479.7 Z" fill="#000000" fill-rule="nonzero" fill-opacity="1" /><path clip-path="url(#clip550)" d="M2132.06 1454.1 Q2128.45 1454.1 2126.62 1457.66 Q2124.81 1461.2 2124.81 1468.33 Q2124.81 1475.44 2126.62 1479.01 Q2128.45 1482.55 2132.06 1482.55 Q2135.69 1482.55 2137.5 1479.01 Q2139.32 1475.44 2139.32 1468.33 Q2139.32 1461.2 2137.5 1457.66 Q2135.69 1454.1 2132.06 1454.1 M2132.06 1450.39 Q2137.87 1450.39 2140.92 1455 Q2144 1459.58 2144 1468.33 Q2144 1477.06 2140.92 1481.67 Q2137.87 1486.25 2132.06 1486.25 Q2126.25 1486.25 2123.17 1481.67 Q2120.11 1477.06 2120.11 1468.33 Q2120.11 1459.58 2123.17 1455 Q2126.25 1450.39 2132.06 1450.39 Z" fill="#000000" fill-rule="nonzero" fill-opacity="1" /><path clip-path="url(#clip550)" d="M1189.5 1533.45 L1189.5 1538.98 Q1187.02 1537.71 1184.35 1537.07 Q1181.67 1536.44 1178.81 1536.44 Q1174.45 1536.44 1172.25 1537.77 Q1170.09 1539.11 1170.09 1541.79 Q1170.09 1543.82 1171.65 1545 Q1173.21 1546.15 1177.92 1547.2 L1179.92 1547.64 Q1186.16 1548.98 1188.77 1551.43 Q1191.41 1553.85 1191.41 1558.21 Q1191.41 1563.17 1187.47 1566.07 Q1183.55 1568.97 1176.68 1568.97 Q1173.81 1568.97 1170.69 1568.39 Q1167.6 1567.85 1164.17 1566.74 L1164.17 1560.69 Q1167.41 1562.38 1170.56 1563.24 Q1173.72 1564.07 1176.8 1564.07 Q1180.94 1564.07 1183.17 1562.66 Q1185.4 1561.23 1185.4 1558.65 Q1185.4 1556.27 1183.77 1554.99 Q1182.18 1553.72 1176.74 1552.54 L1174.7 1552.07 Q1169.26 1550.92 1166.84 1548.56 Q1164.42 1546.18 1164.42 1542.04 Q1164.42 1537.01 1167.99 1534.27 Q1171.55 1531.54 1178.11 1531.54 Q1181.35 1531.54 1184.22 1532.01 Q1187.08 1532.49 1189.5 1533.45 Z" fill="#000000" fill-rule="nonzero" fill-opacity="1" /><polyline clip-path="url(#clip550)" style="stroke:#000000; stroke-linecap:round; stroke-linejoin:round; stroke-width:4; stroke-opacity:1; fill:none" points="205.121,1423.18 205.121,47.2441 "/>
<polyline clip-path="url(#clip550)" style="stroke:#000000; stroke-linecap:round; stroke-linejoin:round; stroke-width:4; stroke-opacity:1; fill:none" points="205.121,1410.2 224.019,1410.2 "/>
<polyline clip-path="url(#clip550)" style="stroke:#000000; stroke-linecap:round; stroke-linejoin:round; stroke-width:4; stroke-opacity:1; fill:none" points="205.121,1150.59 224.019,1150.59 "/>
<polyline clip-path="url(#clip550)" style="stroke:#000000; stroke-linecap:round; stroke-linejoin:round; stroke-width:4; stroke-opacity:1; fill:none" points="205.121,890.978 224.019,890.978 "/>
<polyline clip-path="url(#clip550)" style="stroke:#000000; stroke-linecap:round; stroke-linejoin:round; stroke-width:4; stroke-opacity:1; fill:none" points="205.121,631.368 224.019,631.368 "/>
<polyline clip-path="url(#clip550)" style="stroke:#000000; stroke-linecap:round; stroke-linejoin:round; stroke-width:4; stroke-opacity:1; fill:none" points="205.121,371.757 224.019,371.757 "/>
<polyline clip-path="url(#clip550)" style="stroke:#000000; stroke-linecap:round; stroke-linejoin:round; stroke-width:4; stroke-opacity:1; fill:none" points="205.121,112.147 224.019,112.147 "/>
<path clip-path="url(#clip550)" d="M157.177 1396 Q153.566 1396 151.737 1399.56 Q149.931 1403.1 149.931 1410.23 Q149.931 1417.34 151.737 1420.91 Q153.566 1424.45 157.177 1424.45 Q160.811 1424.45 162.616 1420.91 Q164.445 1417.34 164.445 1410.23 Q164.445 1403.1 162.616 1399.56 Q160.811 1396 157.177 1396 M157.177 1392.29 Q162.987 1392.29 166.042 1396.9 Q169.121 1401.48 169.121 1410.23 Q169.121 1418.96 166.042 1423.57 Q162.987 1428.15 157.177 1428.15 Q151.366 1428.15 148.288 1423.57 Q145.232 1418.96 145.232 1410.23 Q145.232 1401.48 148.288 1396.9 Q151.366 1392.29 157.177 1392.29 Z" fill="#000000" fill-rule="nonzero" fill-opacity="1" /><path clip-path="url(#clip550)" d="M117.825 1163.93 L125.464 1163.93 L125.464 1137.57 L117.154 1139.23 L117.154 1134.98 L125.418 1133.31 L130.093 1133.31 L130.093 1163.93 L137.732 1163.93 L137.732 1167.87 L117.825 1167.87 L117.825 1163.93 Z" fill="#000000" fill-rule="nonzero" fill-opacity="1" /><path clip-path="url(#clip550)" d="M157.177 1136.39 Q153.566 1136.39 151.737 1139.95 Q149.931 1143.49 149.931 1150.62 Q149.931 1157.73 151.737 1161.29 Q153.566 1164.84 157.177 1164.84 Q160.811 1164.84 162.616 1161.29 Q164.445 1157.73 164.445 1150.62 Q164.445 1143.49 162.616 1139.95 Q160.811 1136.39 157.177 1136.39 M157.177 1132.68 Q162.987 1132.68 166.042 1137.29 Q169.121 1141.87 169.121 1150.62 Q169.121 1159.35 166.042 1163.96 Q162.987 1168.54 157.177 1168.54 Q151.366 1168.54 148.288 1163.96 Q145.232 1159.35 145.232 1150.62 Q145.232 1141.87 148.288 1137.29 Q151.366 1132.68 157.177 1132.68 Z" fill="#000000" fill-rule="nonzero" fill-opacity="1" /><path clip-path="url(#clip550)" d="M121.043 904.323 L137.362 904.323 L137.362 908.258 L115.418 908.258 L115.418 904.323 Q118.08 901.569 122.663 896.939 Q127.269 892.286 128.45 890.944 Q130.695 888.42 131.575 886.684 Q132.478 884.925 132.478 883.235 Q132.478 880.481 130.533 878.745 Q128.612 877.008 125.51 877.008 Q123.311 877.008 120.857 877.772 Q118.427 878.536 115.649 880.087 L115.649 875.365 Q118.473 874.231 120.927 873.652 Q123.38 873.073 125.418 873.073 Q130.788 873.073 133.982 875.758 Q137.177 878.444 137.177 882.934 Q137.177 885.064 136.367 886.985 Q135.579 888.883 133.473 891.476 Q132.894 892.147 129.792 895.365 Q126.691 898.559 121.043 904.323 Z" fill="#000000" fill-rule="nonzero" fill-opacity="1" /><path clip-path="url(#clip550)" d="M157.177 876.777 Q153.566 876.777 151.737 880.342 Q149.931 883.883 149.931 891.013 Q149.931 898.119 151.737 901.684 Q153.566 905.226 157.177 905.226 Q160.811 905.226 162.616 901.684 Q164.445 898.119 164.445 891.013 Q164.445 883.883 162.616 880.342 Q160.811 876.777 157.177 876.777 M157.177 873.073 Q162.987 873.073 166.042 877.68 Q169.121 882.263 169.121 891.013 Q169.121 899.74 166.042 904.346 Q162.987 908.93 157.177 908.93 Q151.366 908.93 148.288 904.346 Q145.232 899.74 145.232 891.013 Q145.232 882.263 148.288 877.68 Q151.366 873.073 157.177 873.073 Z" fill="#000000" fill-rule="nonzero" fill-opacity="1" /><path clip-path="url(#clip550)" d="M131.181 630.014 Q134.538 630.731 136.413 633 Q138.311 635.268 138.311 638.602 Q138.311 643.717 134.792 646.518 Q131.274 649.319 124.793 649.319 Q122.617 649.319 120.302 648.879 Q118.01 648.463 115.556 647.606 L115.556 643.092 Q117.501 644.226 119.816 644.805 Q122.13 645.384 124.654 645.384 Q129.052 645.384 131.343 643.648 Q133.658 641.912 133.658 638.602 Q133.658 635.546 131.505 633.833 Q129.376 632.097 125.556 632.097 L121.529 632.097 L121.529 628.254 L125.742 628.254 Q129.191 628.254 131.019 626.889 Q132.848 625.5 132.848 622.907 Q132.848 620.245 130.95 618.833 Q129.075 617.398 125.556 617.398 Q123.635 617.398 121.436 617.815 Q119.237 618.231 116.598 619.111 L116.598 614.944 Q119.26 614.204 121.575 613.833 Q123.913 613.463 125.973 613.463 Q131.297 613.463 134.399 615.893 Q137.501 618.301 137.501 622.421 Q137.501 625.291 135.857 627.282 Q134.214 629.25 131.181 630.014 Z" fill="#000000" fill-rule="nonzero" fill-opacity="1" /><path clip-path="url(#clip550)" d="M157.177 617.166 Q153.566 617.166 151.737 620.731 Q149.931 624.273 149.931 631.402 Q149.931 638.509 151.737 642.074 Q153.566 645.615 157.177 645.615 Q160.811 645.615 162.616 642.074 Q164.445 638.509 164.445 631.402 Q164.445 624.273 162.616 620.731 Q160.811 617.166 157.177 617.166 M157.177 613.463 Q162.987 613.463 166.042 618.069 Q169.121 622.653 169.121 631.402 Q169.121 640.129 166.042 644.736 Q162.987 649.319 157.177 649.319 Q151.366 649.319 148.288 644.736 Q145.232 640.129 145.232 631.402 Q145.232 622.653 148.288 618.069 Q151.366 613.463 157.177 613.463 Z" fill="#000000" fill-rule="nonzero" fill-opacity="1" /><path clip-path="url(#clip550)" d="M129.862 358.551 L118.056 377 L129.862 377 L129.862 358.551 M128.635 354.477 L134.515 354.477 L134.515 377 L139.445 377 L139.445 380.889 L134.515 380.889 L134.515 389.037 L129.862 389.037 L129.862 380.889 L114.26 380.889 L114.26 376.375 L128.635 354.477 Z" fill="#000000" fill-rule="nonzero" fill-opacity="1" /><path clip-path="url(#clip550)" d="M157.177 357.556 Q153.566 357.556 151.737 361.121 Q149.931 364.662 149.931 371.792 Q149.931 378.898 151.737 382.463 Q153.566 386.005 157.177 386.005 Q160.811 386.005 162.616 382.463 Q164.445 378.898 164.445 371.792 Q164.445 364.662 162.616 361.121 Q160.811 357.556 157.177 357.556 M157.177 353.852 Q162.987 353.852 166.042 358.459 Q169.121 363.042 169.121 371.792 Q169.121 380.519 166.042 385.125 Q162.987 389.709 157.177 389.709 Q151.366 389.709 148.288 385.125 Q145.232 380.519 145.232 371.792 Q145.232 363.042 148.288 358.459 Q151.366 353.852 157.177 353.852 Z" fill="#000000" fill-rule="nonzero" fill-opacity="1" /><path clip-path="url(#clip550)" d="M117.061 94.8667 L135.417 94.8667 L135.417 98.8019 L121.343 98.8019 L121.343 107.274 Q122.362 106.927 123.38 106.765 Q124.399 106.58 125.418 106.58 Q131.205 106.58 134.584 109.751 Q137.964 112.922 137.964 118.339 Q137.964 123.917 134.492 127.019 Q131.019 130.098 124.7 130.098 Q122.524 130.098 120.255 129.728 Q118.01 129.357 115.603 128.617 L115.603 123.917 Q117.686 125.052 119.908 125.607 Q122.13 126.163 124.607 126.163 Q128.612 126.163 130.95 124.056 Q133.288 121.95 133.288 118.339 Q133.288 114.728 130.95 112.621 Q128.612 110.515 124.607 110.515 Q122.732 110.515 120.857 110.931 Q119.006 111.348 117.061 112.228 L117.061 94.8667 Z" fill="#000000" fill-rule="nonzero" fill-opacity="1" /><path clip-path="url(#clip550)" d="M157.177 97.9454 Q153.566 97.9454 151.737 101.51 Q149.931 105.052 149.931 112.181 Q149.931 119.288 151.737 122.853 Q153.566 126.394 157.177 126.394 Q160.811 126.394 162.616 122.853 Q164.445 119.288 164.445 112.181 Q164.445 105.052 162.616 101.51 Q160.811 97.9454 157.177 97.9454 M157.177 94.2417 Q162.987 94.2417 166.042 98.8482 Q169.121 103.431 169.121 112.181 Q169.121 120.908 166.042 125.515 Q162.987 130.098 157.177 130.098 Q151.366 130.098 148.288 125.515 Q145.232 120.908 145.232 112.181 Q145.232 103.431 148.288 98.8482 Q151.366 94.2417 157.177 94.2417 Z" fill="#000000" fill-rule="nonzero" fill-opacity="1" /><path clip-path="url(#clip550)" d="M35.1993 733.255 Q31.2526 731.058 29.3747 728.003 Q27.4968 724.947 27.4968 720.81 Q27.4968 715.24 31.4117 712.216 Q35.2948 709.192 42.4881 709.192 L64.0042 709.192 L64.0042 715.08 L42.679 715.08 Q37.5546 715.08 35.072 716.895 Q32.5894 718.709 32.5894 722.433 Q32.5894 726.984 35.6131 729.626 Q38.6368 732.268 43.8567 732.268 L64.0042 732.268 L64.0042 738.156 L42.679 738.156 Q37.5228 738.156 35.072 739.97 Q32.5894 741.785 32.5894 745.572 Q32.5894 750.06 35.6449 752.702 Q38.6686 755.344 43.8567 755.344 L64.0042 755.344 L64.0042 761.232 L28.3562 761.232 L28.3562 755.344 L33.8944 755.344 Q30.616 753.338 29.0564 750.537 Q27.4968 747.736 27.4968 743.885 Q27.4968 740.002 29.4702 737.297 Q31.4436 734.559 35.1993 733.255 Z" fill="#000000" fill-rule="nonzero" fill-opacity="1" /><polyline clip-path="url(#clip552)" style="stroke:#009af9; stroke-linecap:round; stroke-linejoin:round; stroke-width:4; stroke-opacity:1; fill:none" points="260.178,1384.24 351.939,1319.34 443.7,1254.43 535.461,1189.53 627.222,1124.63 718.984,1059.73 810.745,994.822 902.506,929.92 994.267,865.017 1086.03,800.115 1177.79,735.212 1269.55,670.309 1361.31,605.407 1453.07,540.504 1544.83,475.601 1636.6,410.699 1728.36,345.796 1820.12,280.894 1911.88,215.991 2003.64,151.088 2095.4,86.1857 "/>
<path clip-path="url(#clip550)" d="M269.966 196.789 L516.93 196.789 L516.93 93.1086 L269.966 93.1086  Z" fill="#ffffff" fill-rule="evenodd" fill-opacity="1"/>
<polyline clip-path="url(#clip550)" style="stroke:#000000; stroke-linecap:round; stroke-linejoin:round; stroke-width:4; stroke-opacity:1; fill:none" points="269.966,196.789 516.93,196.789 516.93,93.1086 269.966,93.1086 269.966,196.789 "/>
<polyline clip-path="url(#clip550)" style="stroke:#009af9; stroke-linecap:round; stroke-linejoin:round; stroke-width:4; stroke-opacity:1; fill:none" points="291.58,144.949 421.27,144.949 "/>
<path clip-path="url(#clip550)" d="M456.727 164.636 Q454.921 169.266 453.208 170.678 Q451.495 172.09 448.625 172.09 L445.222 172.09 L445.222 168.525 L447.722 168.525 Q449.482 168.525 450.454 167.692 Q451.426 166.858 452.607 163.756 L453.37 161.812 L442.884 136.303 L447.398 136.303 L455.5 156.581 L463.602 136.303 L468.116 136.303 L456.727 164.636 Z" fill="#000000" fill-rule="nonzero" fill-opacity="1" /><path clip-path="url(#clip550)" d="M475.407 158.293 L483.046 158.293 L483.046 131.928 L474.736 133.595 L474.736 129.335 L483 127.669 L487.676 127.669 L487.676 158.293 L495.315 158.293 L495.315 162.229 L475.407 162.229 L475.407 158.293 Z" fill="#000000" fill-rule="nonzero" fill-opacity="1" /><polyline clip-path="url(#clip550)" style="stroke:#000000; stroke-linecap:round; stroke-linejoin:round; stroke-width:4; stroke-opacity:1; fill:none" points="2150.46,1423.18 2150.46,47.2441 "/>
<polyline clip-path="url(#clip550)" style="stroke:#000000; stroke-linecap:round; stroke-linejoin:round; stroke-width:4; stroke-opacity:1; fill:none" points="2150.46,1410.2 2131.56,1410.2 "/>
<polyline clip-path="url(#clip550)" style="stroke:#000000; stroke-linecap:round; stroke-linejoin:round; stroke-width:4; stroke-opacity:1; fill:none" points="2150.46,1079.2 2131.56,1079.2 "/>
<polyline clip-path="url(#clip550)" style="stroke:#000000; stroke-linecap:round; stroke-linejoin:round; stroke-width:4; stroke-opacity:1; fill:none" points="2150.46,748.192 2131.56,748.192 "/>
<polyline clip-path="url(#clip550)" style="stroke:#000000; stroke-linecap:round; stroke-linejoin:round; stroke-width:4; stroke-opacity:1; fill:none" points="2150.46,417.189 2131.56,417.189 "/>
<polyline clip-path="url(#clip550)" style="stroke:#000000; stroke-linecap:round; stroke-linejoin:round; stroke-width:4; stroke-opacity:1; fill:none" points="2150.46,86.1857 2131.56,86.1857 "/>
<path clip-path="url(#clip550)" d="M2198.4 1396 Q2194.79 1396 2192.96 1399.56 Q2191.16 1403.1 2191.16 1410.23 Q2191.16 1417.34 2192.96 1420.91 Q2194.79 1424.45 2198.4 1424.45 Q2202.04 1424.45 2203.84 1420.91 Q2205.67 1417.34 2205.67 1410.23 Q2205.67 1403.1 2203.84 1399.56 Q2202.04 1396 2198.4 1396 M2198.4 1392.29 Q2204.21 1392.29 2207.27 1396.9 Q2210.35 1401.48 2210.35 1410.23 Q2210.35 1418.96 2207.27 1423.57 Q2204.21 1428.15 2198.4 1428.15 Q2192.59 1428.15 2189.51 1423.57 Q2186.46 1418.96 2186.46 1410.23 Q2186.46 1401.48 2189.51 1396.9 Q2192.59 1392.29 2198.4 1392.29 Z" fill="#000000" fill-rule="nonzero" fill-opacity="1" /><path clip-path="url(#clip550)" d="M2218.56 1421.6 L2223.45 1421.6 L2223.45 1427.48 L2218.56 1427.48 L2218.56 1421.6 Z" fill="#000000" fill-rule="nonzero" fill-opacity="1" /><path clip-path="url(#clip550)" d="M2243.63 1396 Q2240.02 1396 2238.19 1399.56 Q2236.39 1403.1 2236.39 1410.23 Q2236.39 1417.34 2238.19 1420.91 Q2240.02 1424.45 2243.63 1424.45 Q2247.27 1424.45 2249.07 1420.91 Q2250.9 1417.34 2250.9 1410.23 Q2250.9 1403.1 2249.07 1399.56 Q2247.27 1396 2243.63 1396 M2243.63 1392.29 Q2249.44 1392.29 2252.5 1396.9 Q2255.58 1401.48 2255.58 1410.23 Q2255.58 1418.96 2252.5 1423.57 Q2249.44 1428.15 2243.63 1428.15 Q2237.82 1428.15 2234.74 1423.57 Q2231.69 1418.96 2231.69 1410.23 Q2231.69 1401.48 2234.74 1396.9 Q2237.82 1392.29 2243.63 1392.29 Z" fill="#000000" fill-rule="nonzero" fill-opacity="1" /><path clip-path="url(#clip550)" d="M2273.8 1396 Q2270.18 1396 2268.36 1399.56 Q2266.55 1403.1 2266.55 1410.23 Q2266.55 1417.34 2268.36 1420.91 Q2270.18 1424.45 2273.8 1424.45 Q2277.43 1424.45 2279.24 1420.91 Q2281.06 1417.34 2281.06 1410.23 Q2281.06 1403.1 2279.24 1399.56 Q2277.43 1396 2273.8 1396 M2273.8 1392.29 Q2279.61 1392.29 2282.66 1396.9 Q2285.74 1401.48 2285.74 1410.23 Q2285.74 1418.96 2282.66 1423.57 Q2279.61 1428.15 2273.8 1428.15 Q2267.99 1428.15 2264.91 1423.57 Q2261.85 1418.96 2261.85 1410.23 Q2261.85 1401.48 2264.91 1396.9 Q2267.99 1392.29 2273.8 1392.29 Z" fill="#000000" fill-rule="nonzero" fill-opacity="1" /><path clip-path="url(#clip550)" d="M2198.4 1064.99 Q2194.79 1064.99 2192.96 1068.56 Q2191.16 1072.1 2191.16 1079.23 Q2191.16 1086.34 2192.96 1089.9 Q2194.79 1093.44 2198.4 1093.44 Q2202.04 1093.44 2203.84 1089.9 Q2205.67 1086.34 2205.67 1079.23 Q2205.67 1072.1 2203.84 1068.56 Q2202.04 1064.99 2198.4 1064.99 M2198.4 1061.29 Q2204.21 1061.29 2207.27 1065.9 Q2210.35 1070.48 2210.35 1079.23 Q2210.35 1087.96 2207.27 1092.56 Q2204.21 1097.15 2198.4 1097.15 Q2192.59 1097.15 2189.51 1092.56 Q2186.46 1087.96 2186.46 1079.23 Q2186.46 1070.48 2189.51 1065.9 Q2192.59 1061.29 2198.4 1061.29 Z" fill="#000000" fill-rule="nonzero" fill-opacity="1" /><path clip-path="url(#clip550)" d="M2218.56 1090.6 L2223.45 1090.6 L2223.45 1096.48 L2218.56 1096.48 L2218.56 1090.6 Z" fill="#000000" fill-rule="nonzero" fill-opacity="1" /><path clip-path="url(#clip550)" d="M2237.66 1092.54 L2253.98 1092.54 L2253.98 1096.48 L2232.04 1096.48 L2232.04 1092.54 Q2234.7 1089.79 2239.28 1085.16 Q2243.89 1080.5 2245.07 1079.16 Q2247.31 1076.64 2248.19 1074.9 Q2249.1 1073.14 2249.1 1071.45 Q2249.1 1068.7 2247.15 1066.96 Q2245.23 1065.23 2242.13 1065.23 Q2239.93 1065.23 2237.48 1065.99 Q2235.05 1066.75 2232.27 1068.3 L2232.27 1063.58 Q2235.09 1062.45 2237.55 1061.87 Q2240 1061.29 2242.04 1061.29 Q2247.41 1061.29 2250.6 1063.98 Q2253.8 1066.66 2253.8 1071.15 Q2253.8 1073.28 2252.99 1075.2 Q2252.2 1077.1 2250.09 1079.69 Q2249.51 1080.36 2246.41 1083.58 Q2243.31 1086.78 2237.66 1092.54 Z" fill="#000000" fill-rule="nonzero" fill-opacity="1" /><path clip-path="url(#clip550)" d="M2263.84 1061.92 L2282.2 1061.92 L2282.2 1065.85 L2268.12 1065.85 L2268.12 1074.32 Q2269.14 1073.98 2270.16 1073.81 Q2271.18 1073.63 2272.2 1073.63 Q2277.99 1073.63 2281.36 1076.8 Q2284.74 1079.97 2284.74 1085.39 Q2284.74 1090.97 2281.27 1094.07 Q2277.8 1097.15 2271.48 1097.15 Q2269.3 1097.15 2267.04 1096.78 Q2264.79 1096.41 2262.38 1095.67 L2262.38 1090.97 Q2264.47 1092.1 2266.69 1092.66 Q2268.91 1093.21 2271.39 1093.21 Q2275.39 1093.21 2277.73 1091.11 Q2280.07 1089 2280.07 1085.39 Q2280.07 1081.78 2277.73 1079.67 Q2275.39 1077.56 2271.39 1077.56 Q2269.51 1077.56 2267.64 1077.98 Q2265.79 1078.4 2263.84 1079.28 L2263.84 1061.92 Z" fill="#000000" fill-rule="nonzero" fill-opacity="1" /><path clip-path="url(#clip550)" d="M2198.4 733.991 Q2194.79 733.991 2192.96 737.556 Q2191.16 741.098 2191.16 748.227 Q2191.16 755.334 2192.96 758.898 Q2194.79 762.44 2198.4 762.44 Q2202.04 762.44 2203.84 758.898 Q2205.67 755.334 2205.67 748.227 Q2205.67 741.098 2203.84 737.556 Q2202.04 733.991 2198.4 733.991 M2198.4 730.287 Q2204.21 730.287 2207.27 734.894 Q2210.35 739.477 2210.35 748.227 Q2210.35 756.954 2207.27 761.56 Q2204.21 766.144 2198.4 766.144 Q2192.59 766.144 2189.51 761.56 Q2186.46 756.954 2186.46 748.227 Q2186.46 739.477 2189.51 734.894 Q2192.59 730.287 2198.4 730.287 Z" fill="#000000" fill-rule="nonzero" fill-opacity="1" /><path clip-path="url(#clip550)" d="M2218.56 759.593 L2223.45 759.593 L2223.45 765.472 L2218.56 765.472 L2218.56 759.593 Z" fill="#000000" fill-rule="nonzero" fill-opacity="1" /><path clip-path="url(#clip550)" d="M2233.68 730.912 L2252.04 730.912 L2252.04 734.848 L2237.96 734.848 L2237.96 743.32 Q2238.98 742.973 2240 742.811 Q2241.02 742.625 2242.04 742.625 Q2247.82 742.625 2251.2 745.797 Q2254.58 748.968 2254.58 754.385 Q2254.58 759.963 2251.11 763.065 Q2247.64 766.144 2241.32 766.144 Q2239.14 766.144 2236.87 765.773 Q2234.63 765.403 2232.22 764.662 L2232.22 759.963 Q2234.3 761.098 2236.53 761.653 Q2238.75 762.209 2241.23 762.209 Q2245.23 762.209 2247.57 760.102 Q2249.91 757.996 2249.91 754.385 Q2249.91 750.773 2247.57 748.667 Q2245.23 746.561 2241.23 746.561 Q2239.35 746.561 2237.48 746.977 Q2235.62 747.394 2233.68 748.274 L2233.68 730.912 Z" fill="#000000" fill-rule="nonzero" fill-opacity="1" /><path clip-path="url(#clip550)" d="M2273.8 733.991 Q2270.18 733.991 2268.36 737.556 Q2266.55 741.098 2266.55 748.227 Q2266.55 755.334 2268.36 758.898 Q2270.18 762.44 2273.8 762.44 Q2277.43 762.44 2279.24 758.898 Q2281.06 755.334 2281.06 748.227 Q2281.06 741.098 2279.24 737.556 Q2277.43 733.991 2273.8 733.991 M2273.8 730.287 Q2279.61 730.287 2282.66 734.894 Q2285.74 739.477 2285.74 748.227 Q2285.74 756.954 2282.66 761.56 Q2279.61 766.144 2273.8 766.144 Q2267.99 766.144 2264.91 761.56 Q2261.85 756.954 2261.85 748.227 Q2261.85 739.477 2264.91 734.894 Q2267.99 730.287 2273.8 730.287 Z" fill="#000000" fill-rule="nonzero" fill-opacity="1" /><path clip-path="url(#clip550)" d="M2198.4 402.988 Q2194.79 402.988 2192.96 406.553 Q2191.16 410.094 2191.16 417.224 Q2191.16 424.33 2192.96 427.895 Q2194.79 431.437 2198.4 431.437 Q2202.04 431.437 2203.84 427.895 Q2205.67 424.33 2205.67 417.224 Q2205.67 410.094 2203.84 406.553 Q2202.04 402.988 2198.4 402.988 M2198.4 399.284 Q2204.21 399.284 2207.27 403.891 Q2210.35 408.474 2210.35 417.224 Q2210.35 425.951 2207.27 430.557 Q2204.21 435.14 2198.4 435.14 Q2192.59 435.14 2189.51 430.557 Q2186.46 425.951 2186.46 417.224 Q2186.46 408.474 2189.51 403.891 Q2192.59 399.284 2198.4 399.284 Z" fill="#000000" fill-rule="nonzero" fill-opacity="1" /><path clip-path="url(#clip550)" d="M2218.56 428.589 L2223.45 428.589 L2223.45 434.469 L2218.56 434.469 L2218.56 428.589 Z" fill="#000000" fill-rule="nonzero" fill-opacity="1" /><path clip-path="url(#clip550)" d="M2232.45 399.909 L2254.68 399.909 L2254.68 401.9 L2242.13 434.469 L2237.24 434.469 L2249.05 403.844 L2232.45 403.844 L2232.45 399.909 Z" fill="#000000" fill-rule="nonzero" fill-opacity="1" /><path clip-path="url(#clip550)" d="M2263.84 399.909 L2282.2 399.909 L2282.2 403.844 L2268.12 403.844 L2268.12 412.316 Q2269.14 411.969 2270.16 411.807 Q2271.18 411.622 2272.2 411.622 Q2277.99 411.622 2281.36 414.793 Q2284.74 417.965 2284.74 423.381 Q2284.74 428.96 2281.27 432.062 Q2277.8 435.14 2271.48 435.14 Q2269.3 435.14 2267.04 434.77 Q2264.79 434.4 2262.38 433.659 L2262.38 428.96 Q2264.47 430.094 2266.69 430.65 Q2268.91 431.205 2271.39 431.205 Q2275.39 431.205 2277.73 429.099 Q2280.07 426.992 2280.07 423.381 Q2280.07 419.77 2277.73 417.664 Q2275.39 415.557 2271.39 415.557 Q2269.51 415.557 2267.64 415.974 Q2265.79 416.39 2263.84 417.27 L2263.84 399.909 Z" fill="#000000" fill-rule="nonzero" fill-opacity="1" /><path clip-path="url(#clip550)" d="M2187.13 99.5305 L2194.77 99.5305 L2194.77 73.1649 L2186.46 74.8316 L2186.46 70.5723 L2194.72 68.9057 L2199.4 68.9057 L2199.4 99.5305 L2207.04 99.5305 L2207.04 103.466 L2187.13 103.466 L2187.13 99.5305 Z" fill="#000000" fill-rule="nonzero" fill-opacity="1" /><path clip-path="url(#clip550)" d="M2216.48 97.5861 L2221.37 97.5861 L2221.37 103.466 L2216.48 103.466 L2216.48 97.5861 Z" fill="#000000" fill-rule="nonzero" fill-opacity="1" /><path clip-path="url(#clip550)" d="M2241.55 71.9844 Q2237.94 71.9844 2236.11 75.5492 Q2234.3 79.0908 2234.3 86.2204 Q2234.3 93.3268 2236.11 96.8916 Q2237.94 100.433 2241.55 100.433 Q2245.18 100.433 2246.99 96.8916 Q2248.82 93.3268 2248.82 86.2204 Q2248.82 79.0908 2246.99 75.5492 Q2245.18 71.9844 2241.55 71.9844 M2241.55 68.2807 Q2247.36 68.2807 2250.42 72.8871 Q2253.49 77.4704 2253.49 86.2204 Q2253.49 94.9472 2250.42 99.5537 Q2247.36 104.137 2241.55 104.137 Q2235.74 104.137 2232.66 99.5537 Q2229.61 94.9472 2229.61 86.2204 Q2229.61 77.4704 2232.66 72.8871 Q2235.74 68.2807 2241.55 68.2807 Z" fill="#000000" fill-rule="nonzero" fill-opacity="1" /><path clip-path="url(#clip550)" d="M2271.71 71.9844 Q2268.1 71.9844 2266.27 75.5492 Q2264.47 79.0908 2264.47 86.2204 Q2264.47 93.3268 2266.27 96.8916 Q2268.1 100.433 2271.71 100.433 Q2275.35 100.433 2277.15 96.8916 Q2278.98 93.3268 2278.98 86.2204 Q2278.98 79.0908 2277.15 75.5492 Q2275.35 71.9844 2271.71 71.9844 M2271.71 68.2807 Q2277.52 68.2807 2280.58 72.8871 Q2283.66 77.4704 2283.66 86.2204 Q2283.66 94.9472 2280.58 99.5537 Q2277.52 104.137 2271.71 104.137 Q2265.9 104.137 2262.82 99.5537 Q2259.77 94.9472 2259.77 86.2204 Q2259.77 77.4704 2262.82 72.8871 Q2265.9 68.2807 2271.71 68.2807 Z" fill="#000000" fill-rule="nonzero" fill-opacity="1" /><path clip-path="url(#clip550)" d="M2343.12 1124.63 L2343.12 1118.78 L2378.76 1118.78 L2378.76 1124.63 L2343.12 1124.63 M2329.24 1124.63 L2329.24 1118.78 L2336.65 1118.78 L2336.65 1124.63 L2329.24 1124.63 Z" fill="#000000" fill-rule="nonzero" fill-opacity="1" /><path clip-path="url(#clip550)" d="M2357.25 1076.89 L2378.76 1076.89 L2378.76 1082.75 L2357.44 1082.75 Q2352.38 1082.75 2349.86 1084.72 Q2347.35 1086.69 2347.35 1090.64 Q2347.35 1095.38 2350.37 1098.12 Q2353.4 1100.86 2358.62 1100.86 L2378.76 1100.86 L2378.76 1106.75 L2343.12 1106.75 L2343.12 1100.86 L2348.65 1100.86 Q2345.44 1098.76 2343.85 1095.92 Q2342.26 1093.06 2342.26 1089.34 Q2342.26 1083.19 2346.08 1080.04 Q2349.86 1076.89 2357.25 1076.89 Z" fill="#000000" fill-rule="nonzero" fill-opacity="1" /><path clip-path="url(#clip550)" d="M2343.12 1069.41 L2343.12 1063.21 L2373.03 1052.07 L2343.12 1040.93 L2343.12 1034.72 L2378.76 1048.09 L2378.76 1056.04 L2343.12 1069.41 Z" fill="#000000" fill-rule="nonzero" fill-opacity="1" /><path clip-path="url(#clip550)" d="M2359.48 996.142 L2362.34 996.142 L2362.34 1023.07 Q2368.39 1022.69 2371.57 1019.44 Q2374.72 1016.16 2374.72 1010.34 Q2374.72 1006.96 2373.89 1003.81 Q2373.07 1000.63 2371.41 997.511 L2376.95 997.511 Q2378.29 1000.66 2378.99 1003.97 Q2379.69 1007.28 2379.69 1010.69 Q2379.69 1019.22 2374.72 1024.22 Q2369.76 1029.18 2361.29 1029.18 Q2352.54 1029.18 2347.41 1024.47 Q2342.26 1019.73 2342.26 1011.71 Q2342.26 1004.51 2346.9 1000.34 Q2351.52 996.142 2359.48 996.142 M2357.76 1002 Q2352.95 1002.06 2350.09 1004.7 Q2347.22 1007.31 2347.22 1011.64 Q2347.22 1016.54 2349.99 1019.5 Q2352.76 1022.43 2357.79 1022.88 L2357.76 1002 Z" fill="#000000" fill-rule="nonzero" fill-opacity="1" /><path clip-path="url(#clip550)" d="M2348.59 965.873 Q2348.02 966.86 2347.76 968.038 Q2347.48 969.184 2347.48 970.584 Q2347.48 975.549 2350.72 978.223 Q2353.94 980.865 2359.99 980.865 L2378.76 980.865 L2378.76 986.753 L2343.12 986.753 L2343.12 980.865 L2348.65 980.865 Q2345.41 979.019 2343.85 976.058 Q2342.26 973.098 2342.26 968.865 Q2342.26 968.26 2342.35 967.528 Q2342.42 966.796 2342.57 965.905 L2348.59 965.873 Z" fill="#000000" fill-rule="nonzero" fill-opacity="1" /><path clip-path="url(#clip550)" d="M2344.17 937.005 L2349.7 937.005 Q2348.43 939.487 2347.79 942.161 Q2347.16 944.835 2347.16 947.699 Q2347.16 952.06 2348.49 954.256 Q2349.83 956.42 2352.51 956.42 Q2354.54 956.42 2355.72 954.861 Q2356.87 953.301 2357.92 948.59 L2358.36 946.585 Q2359.7 940.347 2362.15 937.737 Q2364.57 935.095 2368.93 935.095 Q2373.89 935.095 2376.79 939.042 Q2379.69 942.957 2379.69 949.832 Q2379.69 952.696 2379.11 955.816 Q2378.57 958.903 2377.46 962.34 L2371.41 962.34 Q2373.1 959.094 2373.96 955.943 Q2374.79 952.792 2374.79 949.704 Q2374.79 945.567 2373.38 943.339 Q2371.95 941.111 2369.37 941.111 Q2366.99 941.111 2365.71 942.734 Q2364.44 944.325 2363.26 949.768 L2362.79 951.805 Q2361.64 957.248 2359.28 959.667 Q2356.9 962.086 2352.76 962.086 Q2347.73 962.086 2344.99 958.521 Q2342.26 954.956 2342.26 948.399 Q2342.26 945.153 2342.73 942.288 Q2343.21 939.424 2344.17 937.005 Z" fill="#000000" fill-rule="nonzero" fill-opacity="1" /><path clip-path="url(#clip550)" d="M2359.48 895.278 L2362.34 895.278 L2362.34 922.205 Q2368.39 921.823 2371.57 918.576 Q2374.72 915.298 2374.72 909.473 Q2374.72 906.099 2373.89 902.948 Q2373.07 899.765 2371.41 896.646 L2376.95 896.646 Q2378.29 899.797 2378.99 903.107 Q2379.69 906.418 2379.69 909.823 Q2379.69 918.353 2374.72 923.35 Q2369.76 928.316 2361.29 928.316 Q2352.54 928.316 2347.41 923.605 Q2342.26 918.863 2342.26 910.842 Q2342.26 903.649 2346.9 899.479 Q2351.52 895.278 2359.48 895.278 M2357.76 901.134 Q2352.95 901.198 2350.09 903.84 Q2347.22 906.449 2347.22 910.778 Q2347.22 915.68 2349.99 918.64 Q2352.76 921.568 2357.79 922.014 L2357.76 901.134 Z" fill="#000000" fill-rule="nonzero" fill-opacity="1" /><path clip-path="url(#clip550)" d="M2348.53 841.487 L2329.24 841.487 L2329.24 835.631 L2378.76 835.631 L2378.76 841.487 L2373.42 841.487 Q2376.6 843.333 2378.16 846.166 Q2379.69 848.967 2379.69 852.914 Q2379.69 859.375 2374.53 863.449 Q2369.37 867.491 2360.97 867.491 Q2352.57 867.491 2347.41 863.449 Q2342.26 859.375 2342.26 852.914 Q2342.26 848.967 2343.82 846.166 Q2345.34 843.333 2348.53 841.487 M2360.97 861.444 Q2367.43 861.444 2371.12 858.802 Q2374.79 856.129 2374.79 851.482 Q2374.79 846.835 2371.12 844.161 Q2367.43 841.487 2360.97 841.487 Q2354.51 841.487 2350.85 844.161 Q2347.16 846.835 2347.16 851.482 Q2347.16 856.129 2350.85 858.802 Q2354.51 861.444 2360.97 861.444 Z" fill="#000000" fill-rule="nonzero" fill-opacity="1" /><path clip-path="url(#clip550)" d="M2343.12 823.568 L2343.12 817.712 L2378.76 817.712 L2378.76 823.568 L2343.12 823.568 M2329.24 823.568 L2329.24 817.712 L2336.65 817.712 L2336.65 823.568 L2329.24 823.568 Z" fill="#000000" fill-rule="nonzero" fill-opacity="1" /><path clip-path="url(#clip550)" d="M2344.17 782.732 L2349.7 782.732 Q2348.43 785.215 2347.79 787.888 Q2347.16 790.562 2347.16 793.426 Q2347.16 797.787 2348.49 799.983 Q2349.83 802.147 2352.51 802.147 Q2354.54 802.147 2355.72 800.588 Q2356.87 799.028 2357.92 794.318 L2358.36 792.312 Q2359.7 786.074 2362.15 783.464 Q2364.57 780.822 2368.93 780.822 Q2373.89 780.822 2376.79 784.769 Q2379.69 788.684 2379.69 795.559 Q2379.69 798.423 2379.11 801.543 Q2378.57 804.63 2377.46 808.067 L2371.41 808.067 Q2373.1 804.821 2373.96 801.67 Q2374.79 798.519 2374.79 795.432 Q2374.79 791.294 2373.38 789.066 Q2371.95 786.838 2369.37 786.838 Q2366.99 786.838 2365.71 788.461 Q2364.44 790.053 2363.26 795.495 L2362.79 797.532 Q2361.64 802.975 2359.28 805.394 Q2356.9 807.813 2352.76 807.813 Q2347.73 807.813 2344.99 804.248 Q2342.26 800.683 2342.26 794.127 Q2342.26 790.88 2342.73 788.016 Q2343.21 785.151 2344.17 782.732 Z" fill="#000000" fill-rule="nonzero" fill-opacity="1" /><path clip-path="url(#clip550)" d="M2332.99 765.704 L2343.12 765.704 L2343.12 753.641 L2347.67 753.641 L2347.67 765.704 L2367.02 765.704 Q2371.38 765.704 2372.62 764.526 Q2373.86 763.317 2373.86 759.656 L2373.86 753.641 L2378.76 753.641 L2378.76 759.656 Q2378.76 766.436 2376.25 769.014 Q2373.7 771.592 2367.02 771.592 L2347.67 771.592 L2347.67 775.889 L2343.12 775.889 L2343.12 771.592 L2332.99 771.592 L2332.99 765.704 Z" fill="#000000" fill-rule="nonzero" fill-opacity="1" /><path clip-path="url(#clip550)" d="M2360.84 729.737 Q2360.84 736.835 2362.47 739.572 Q2364.09 742.31 2368.01 742.31 Q2371.12 742.31 2372.97 740.273 Q2374.79 738.204 2374.79 734.671 Q2374.79 729.801 2371.35 726.873 Q2367.88 723.913 2362.15 723.913 L2360.84 723.913 L2360.84 729.737 M2358.43 718.056 L2378.76 718.056 L2378.76 723.913 L2373.35 723.913 Q2376.6 725.918 2378.16 728.91 Q2379.69 731.902 2379.69 736.23 Q2379.69 741.705 2376.63 744.951 Q2373.54 748.166 2368.39 748.166 Q2362.37 748.166 2359.32 744.156 Q2356.26 740.114 2356.26 732.125 L2356.26 723.913 L2355.69 723.913 Q2351.65 723.913 2349.45 726.586 Q2347.22 729.228 2347.22 734.034 Q2347.22 737.09 2347.95 739.986 Q2348.69 742.883 2350.15 745.556 L2344.74 745.556 Q2343.5 742.342 2342.89 739.318 Q2342.26 736.294 2342.26 733.43 Q2342.26 725.695 2346.27 721.876 Q2350.28 718.056 2358.43 718.056 Z" fill="#000000" fill-rule="nonzero" fill-opacity="1" /><path clip-path="url(#clip550)" d="M2357.25 676.361 L2378.76 676.361 L2378.76 682.217 L2357.44 682.217 Q2352.38 682.217 2349.86 684.191 Q2347.35 686.164 2347.35 690.111 Q2347.35 694.853 2350.37 697.591 Q2353.4 700.328 2358.62 700.328 L2378.76 700.328 L2378.76 706.216 L2343.12 706.216 L2343.12 700.328 L2348.65 700.328 Q2345.44 698.227 2343.85 695.394 Q2342.26 692.53 2342.26 688.806 Q2342.26 682.663 2346.08 679.512 Q2349.86 676.361 2357.25 676.361 Z" fill="#000000" fill-rule="nonzero" fill-opacity="1" /><path clip-path="url(#clip550)" d="M2344.48 639.026 L2349.96 639.026 Q2348.59 641.509 2347.92 644.023 Q2347.22 646.506 2347.22 649.052 Q2347.22 654.749 2350.85 657.9 Q2354.45 661.051 2360.97 661.051 Q2367.5 661.051 2371.12 657.9 Q2374.72 654.749 2374.72 649.052 Q2374.72 646.506 2374.05 644.023 Q2373.35 641.509 2371.98 639.026 L2377.4 639.026 Q2378.54 641.477 2379.11 644.119 Q2379.69 646.729 2379.69 649.689 Q2379.69 657.741 2374.63 662.484 Q2369.57 667.226 2360.97 667.226 Q2352.25 667.226 2347.25 662.452 Q2342.26 657.646 2342.26 649.307 Q2342.26 646.601 2342.83 644.023 Q2343.37 641.445 2344.48 639.026 Z" fill="#000000" fill-rule="nonzero" fill-opacity="1" /><path clip-path="url(#clip550)" d="M2359.48 598.349 L2362.34 598.349 L2362.34 625.276 Q2368.39 624.894 2371.57 621.648 Q2374.72 618.369 2374.72 612.545 Q2374.72 609.171 2373.89 606.02 Q2373.07 602.837 2371.41 599.718 L2376.95 599.718 Q2378.29 602.869 2378.99 606.179 Q2379.69 609.489 2379.69 612.895 Q2379.69 621.425 2374.72 626.422 Q2369.76 631.387 2361.29 631.387 Q2352.54 631.387 2347.41 626.677 Q2342.26 621.934 2342.26 613.913 Q2342.26 606.72 2346.9 602.551 Q2351.52 598.349 2359.48 598.349 M2357.76 604.206 Q2352.95 604.269 2350.09 606.911 Q2347.22 609.521 2347.22 613.85 Q2347.22 618.751 2349.99 621.711 Q2352.76 624.64 2357.79 625.085 L2357.76 604.206 Z" fill="#000000" fill-rule="nonzero" fill-opacity="1" /><path clip-path="url(#clip550)" d="M2329.3 553.948 Q2336.62 558.213 2343.78 560.282 Q2350.95 562.351 2358.3 562.351 Q2365.65 562.351 2372.88 560.282 Q2380.07 558.182 2387.36 553.948 L2387.36 559.041 Q2379.88 563.815 2372.65 566.202 Q2365.43 568.558 2358.3 568.558 Q2351.2 568.558 2344.01 566.202 Q2336.81 563.847 2329.3 559.041 L2329.3 553.948 Z" fill="#000000" fill-rule="nonzero" fill-opacity="1" /><path clip-path="url(#clip550)" d="M2349.96 514.831 Q2346.01 512.635 2344.13 509.579 Q2342.26 506.524 2342.26 502.386 Q2342.26 496.816 2346.17 493.793 Q2350.05 490.769 2357.25 490.769 L2378.76 490.769 L2378.76 496.657 L2357.44 496.657 Q2352.31 496.657 2349.83 498.471 Q2347.35 500.286 2347.35 504.01 Q2347.35 508.561 2350.37 511.203 Q2353.4 513.845 2358.62 513.845 L2378.76 513.845 L2378.76 519.733 L2357.44 519.733 Q2352.28 519.733 2349.83 521.547 Q2347.35 523.361 2347.35 527.149 Q2347.35 531.637 2350.4 534.278 Q2353.43 536.92 2358.62 536.92 L2378.76 536.92 L2378.76 542.808 L2343.12 542.808 L2343.12 536.92 L2348.65 536.92 Q2345.38 534.915 2343.82 532.114 Q2342.26 529.313 2342.26 525.462 Q2342.26 521.579 2344.23 518.873 Q2346.2 516.136 2349.96 514.831 Z" fill="#000000" fill-rule="nonzero" fill-opacity="1" /><path clip-path="url(#clip550)" d="M2331.24 454.803 L2348.97 437.52 L2348.97 443.917 L2336.4 457.922 L2348.97 471.926 L2348.97 478.324 L2331.24 461.041 L2331.24 454.803 Z" fill="#000000" fill-rule="nonzero" fill-opacity="1" /><path clip-path="url(#clip550)" d="M2358.3 427.43 L2358.3 410.274 L2363.52 410.274 L2363.52 427.43 L2358.3 427.43 Z" fill="#000000" fill-rule="nonzero" fill-opacity="1" /><path clip-path="url(#clip550)" d="M2373.35 399.007 L2373.35 388.504 L2337.1 388.504 L2339.39 399.93 L2333.54 399.93 L2331.24 388.567 L2331.24 382.138 L2373.35 382.138 L2373.35 371.635 L2378.76 371.635 L2378.76 399.007 L2373.35 399.007 Z" fill="#000000" fill-rule="nonzero" fill-opacity="1" /><path clip-path="url(#clip550)" d="M2329.3 360.399 L2329.3 355.307 Q2336.81 350.532 2344.01 348.177 Q2351.2 345.79 2358.3 345.79 Q2365.43 345.79 2372.65 348.177 Q2379.88 350.532 2387.36 355.307 L2387.36 360.399 Q2380.07 356.166 2372.88 354.097 Q2365.65 351.996 2358.3 351.996 Q2350.95 351.996 2343.78 354.097 Q2336.62 356.166 2329.3 360.399 Z" fill="#000000" fill-rule="nonzero" fill-opacity="1" /><polyline clip-path="url(#clip552)" style="stroke:#009af9; stroke-linecap:round; stroke-linejoin:round; stroke-width:4; stroke-opacity:1; fill:none" points="260.178,86.1857 351.939,1031.91 443.7,1189.53 535.461,1254.43 627.222,1289.83 718.984,1312.12 810.745,1327.45 902.506,1338.63 994.267,1347.15 1086.03,1353.86 1177.79,1359.28 1269.55,1363.74 1361.31,1367.49 1453.07,1370.68 1544.83,1373.42 1636.6,1375.81 1728.36,1377.91 1820.12,1379.76 1911.88,1381.42 2003.64,1382.9 2095.4,1384.24 "/>
<path clip-path="url(#clip550)" d="M1839.02 196.789 L2085.61 196.789 L2085.61 93.1086 L1839.02 93.1086  Z" fill="#ffffff" fill-rule="evenodd" fill-opacity="1"/>
<polyline clip-path="url(#clip550)" style="stroke:#000000; stroke-linecap:round; stroke-linejoin:round; stroke-width:4; stroke-opacity:1; fill:none" points="1839.02,196.789 2085.61,196.789 2085.61,93.1086 1839.02,93.1086 1839.02,196.789 "/>
<polyline clip-path="url(#clip550)" style="stroke:#009af9; stroke-linecap:round; stroke-linejoin:round; stroke-width:4; stroke-opacity:1; fill:none" points="1860.63,144.949 1990.32,144.949 "/>
<path clip-path="url(#clip550)" d="M2025.78 164.636 Q2023.98 169.266 2022.26 170.678 Q2020.55 172.09 2017.68 172.09 L2014.28 172.09 L2014.28 168.525 L2016.78 168.525 Q2018.54 168.525 2019.51 167.692 Q2020.48 166.858 2021.66 163.756 L2022.42 161.812 L2011.94 136.303 L2016.45 136.303 L2024.55 156.581 L2032.66 136.303 L2037.17 136.303 L2025.78 164.636 Z" fill="#000000" fill-rule="nonzero" fill-opacity="1" /><path clip-path="url(#clip550)" d="M2047.68 158.293 L2064 158.293 L2064 162.229 L2042.05 162.229 L2042.05 158.293 Q2044.72 155.539 2049.3 150.909 Q2053.91 146.256 2055.09 144.914 Q2057.33 142.391 2058.21 140.655 Q2059.11 138.895 2059.11 137.206 Q2059.11 134.451 2057.17 132.715 Q2055.25 130.979 2052.15 130.979 Q2049.95 130.979 2047.49 131.743 Q2045.06 132.507 2042.29 134.057 L2042.29 129.335 Q2045.11 128.201 2047.56 127.622 Q2050.02 127.044 2052.05 127.044 Q2057.42 127.044 2060.62 129.729 Q2063.81 132.414 2063.81 136.905 Q2063.81 139.034 2063 140.956 Q2062.22 142.854 2060.11 145.446 Q2059.53 146.118 2056.43 149.335 Q2053.33 152.53 2047.68 158.293 Z" fill="#000000" fill-rule="nonzero" fill-opacity="1" /></svg>
