<?xml version="1.0" encoding="utf-8"?>
<svg xmlns="http://www.w3.org/2000/svg" xmlns:xlink="http://www.w3.org/1999/xlink" width="600" height="400" viewBox="0 0 2400 1600">
<defs>
  <clipPath id="clip410">
    <rect x="0" y="0" width="2400" height="1600"/>
  </clipPath>
</defs>
<path clip-path="url(#clip410)" d="M0 1600 L2400 1600 L2400 0 L0 0  Z" fill="#333333" fill-rule="evenodd" fill-opacity="1"/>
<defs>
  <clipPath id="clip411">
    <rect x="480" y="0" width="1681" height="1600"/>
  </clipPath>
</defs>
<path clip-path="url(#clip410)" d="M251.372 1423.18 L2352.76 1423.18 L2352.76 123.472 L251.372 123.472  Z" fill="#333333" fill-rule="evenodd" fill-opacity="1"/>
<defs>
  <clipPath id="clip412">
    <rect x="251" y="123" width="2102" height="1301"/>
  </clipPath>
</defs>
<polyline clip-path="url(#clip412)" style="stroke:#ffffff; stroke-linecap:round; stroke-linejoin:round; stroke-width:2; stroke-opacity:0.1; fill:none" points="2052.56,1423.18 2052.56,123.472 "/>
<polyline clip-path="url(#clip412)" style="stroke:#ffffff; stroke-linecap:round; stroke-linejoin:round; stroke-width:2; stroke-opacity:0.1; fill:none" points="1932.48,1423.18 1932.48,123.472 "/>
<polyline clip-path="url(#clip412)" style="stroke:#ffffff; stroke-linecap:round; stroke-linejoin:round; stroke-width:2; stroke-opacity:0.1; fill:none" points="1812.4,1423.18 1812.4,123.472 "/>
<polyline clip-path="url(#clip412)" style="stroke:#ffffff; stroke-linecap:round; stroke-linejoin:round; stroke-width:2; stroke-opacity:0.1; fill:none" points="1692.32,1423.18 1692.32,123.472 "/>
<polyline clip-path="url(#clip412)" style="stroke:#ffffff; stroke-linecap:round; stroke-linejoin:round; stroke-width:2; stroke-opacity:0.1; fill:none" points="1572.24,1423.18 1572.24,123.472 "/>
<polyline clip-path="url(#clip412)" style="stroke:#ffffff; stroke-linecap:round; stroke-linejoin:round; stroke-width:2; stroke-opacity:0.1; fill:none" points="1452.16,1423.18 1452.16,123.472 "/>
<polyline clip-path="url(#clip412)" style="stroke:#ffffff; stroke-linecap:round; stroke-linejoin:round; stroke-width:2; stroke-opacity:0.1; fill:none" points="1332.08,1423.18 1332.08,123.472 "/>
<polyline clip-path="url(#clip412)" style="stroke:#ffffff; stroke-linecap:round; stroke-linejoin:round; stroke-width:2; stroke-opacity:0.1; fill:none" points="1212,1423.18 1212,123.472 "/>
<polyline clip-path="url(#clip412)" style="stroke:#ffffff; stroke-linecap:round; stroke-linejoin:round; stroke-width:2; stroke-opacity:0.1; fill:none" points="1091.93,1423.18 1091.93,123.472 "/>
<polyline clip-path="url(#clip412)" style="stroke:#ffffff; stroke-linecap:round; stroke-linejoin:round; stroke-width:2; stroke-opacity:0.1; fill:none" points="971.847,1423.18 971.847,123.472 "/>
<polyline clip-path="url(#clip412)" style="stroke:#ffffff; stroke-linecap:round; stroke-linejoin:round; stroke-width:2; stroke-opacity:0.1; fill:none" points="851.768,1423.18 851.768,123.472 "/>
<polyline clip-path="url(#clip412)" style="stroke:#ffffff; stroke-linecap:round; stroke-linejoin:round; stroke-width:2; stroke-opacity:0.1; fill:none" points="2352.76,915.612 251.372,915.612 "/>
<polyline clip-path="url(#clip412)" style="stroke:#ffffff; stroke-linecap:round; stroke-linejoin:round; stroke-width:2; stroke-opacity:0.1; fill:none" points="2352.76,154.712 251.372,154.712 "/>
<polyline clip-path="url(#clip410)" style="stroke:#ffffff; stroke-linecap:round; stroke-linejoin:round; stroke-width:4; stroke-opacity:1; fill:none" points="2352.76,1423.18 251.372,1423.18 "/>
<polyline clip-path="url(#clip410)" style="stroke:#ffffff; stroke-linecap:round; stroke-linejoin:round; stroke-width:4; stroke-opacity:1; fill:none" points="2052.56,1423.18 2052.56,1404.28 "/>
<polyline clip-path="url(#clip410)" style="stroke:#ffffff; stroke-linecap:round; stroke-linejoin:round; stroke-width:4; stroke-opacity:1; fill:none" points="1932.48,1423.18 1932.48,1404.28 "/>
<polyline clip-path="url(#clip410)" style="stroke:#ffffff; stroke-linecap:round; stroke-linejoin:round; stroke-width:4; stroke-opacity:1; fill:none" points="1812.4,1423.18 1812.4,1404.28 "/>
<polyline clip-path="url(#clip410)" style="stroke:#ffffff; stroke-linecap:round; stroke-linejoin:round; stroke-width:4; stroke-opacity:1; fill:none" points="1692.32,1423.18 1692.32,1404.28 "/>
<polyline clip-path="url(#clip410)" style="stroke:#ffffff; stroke-linecap:round; stroke-linejoin:round; stroke-width:4; stroke-opacity:1; fill:none" points="1572.24,1423.18 1572.24,1404.28 "/>
<polyline clip-path="url(#clip410)" style="stroke:#ffffff; stroke-linecap:round; stroke-linejoin:round; stroke-width:4; stroke-opacity:1; fill:none" points="1452.16,1423.18 1452.16,1404.28 "/>
<polyline clip-path="url(#clip410)" style="stroke:#ffffff; stroke-linecap:round; stroke-linejoin:round; stroke-width:4; stroke-opacity:1; fill:none" points="1332.08,1423.18 1332.08,1404.28 "/>
<polyline clip-path="url(#clip410)" style="stroke:#ffffff; stroke-linecap:round; stroke-linejoin:round; stroke-width:4; stroke-opacity:1; fill:none" points="1212,1423.18 1212,1404.28 "/>
<polyline clip-path="url(#clip410)" style="stroke:#ffffff; stroke-linecap:round; stroke-linejoin:round; stroke-width:4; stroke-opacity:1; fill:none" points="1091.93,1423.18 1091.93,1404.28 "/>
<polyline clip-path="url(#clip410)" style="stroke:#ffffff; stroke-linecap:round; stroke-linejoin:round; stroke-width:4; stroke-opacity:1; fill:none" points="971.847,1423.18 971.847,1404.28 "/>
<polyline clip-path="url(#clip410)" style="stroke:#ffffff; stroke-linecap:round; stroke-linejoin:round; stroke-width:4; stroke-opacity:1; fill:none" points="851.768,1423.18 851.768,1404.28 "/>
<path clip-path="url(#clip410)" d="M2052.56 1454.1 Q2048.95 1454.1 2047.12 1457.66 Q2045.31 1461.2 2045.31 1468.33 Q2045.31 1475.44 2047.12 1479.01 Q2048.95 1482.55 2052.56 1482.55 Q2056.19 1482.55 2058 1479.01 Q2059.83 1475.44 2059.83 1468.33 Q2059.83 1461.2 2058 1457.66 Q2056.19 1454.1 2052.56 1454.1 M2052.56 1450.39 Q2058.37 1450.39 2061.42 1455 Q2064.5 1459.58 2064.5 1468.33 Q2064.5 1477.06 2061.42 1481.67 Q2058.37 1486.25 2052.56 1486.25 Q2046.75 1486.25 2043.67 1481.67 Q2040.61 1477.06 2040.61 1468.33 Q2040.61 1459.58 2043.67 1455 Q2046.75 1450.39 2052.56 1450.39 Z" fill="#ffffff" fill-rule="nonzero" fill-opacity="1" /><path clip-path="url(#clip410)" d="M1927.13 1481.64 L1943.45 1481.64 L1943.45 1485.58 L1921.51 1485.58 L1921.51 1481.64 Q1924.17 1478.89 1928.75 1474.26 Q1933.36 1469.61 1934.54 1468.27 Q1936.78 1465.74 1937.66 1464.01 Q1938.57 1462.25 1938.57 1460.56 Q1938.57 1457.8 1936.62 1456.07 Q1934.7 1454.33 1931.6 1454.33 Q1929.4 1454.33 1926.95 1455.09 Q1924.52 1455.86 1921.74 1457.41 L1921.74 1452.69 Q1924.56 1451.55 1927.02 1450.97 Q1929.47 1450.39 1931.51 1450.39 Q1936.88 1450.39 1940.07 1453.08 Q1943.27 1455.77 1943.27 1460.26 Q1943.27 1462.39 1942.46 1464.31 Q1941.67 1466.2 1939.56 1468.8 Q1938.98 1469.47 1935.88 1472.69 Q1932.78 1475.88 1927.13 1481.64 Z" fill="#ffffff" fill-rule="nonzero" fill-opacity="1" /><path clip-path="url(#clip410)" d="M1815.41 1455.09 L1803.6 1473.54 L1815.41 1473.54 L1815.41 1455.09 M1814.18 1451.02 L1820.06 1451.02 L1820.06 1473.54 L1824.99 1473.54 L1824.99 1477.43 L1820.06 1477.43 L1820.06 1485.58 L1815.41 1485.58 L1815.41 1477.43 L1799.81 1477.43 L1799.81 1472.92 L1814.18 1451.02 Z" fill="#ffffff" fill-rule="nonzero" fill-opacity="1" /><path clip-path="url(#clip410)" d="M1692.73 1466.44 Q1689.58 1466.44 1687.73 1468.59 Q1685.9 1470.74 1685.9 1474.49 Q1685.9 1478.22 1687.73 1480.39 Q1689.58 1482.55 1692.73 1482.55 Q1695.87 1482.55 1697.7 1480.39 Q1699.55 1478.22 1699.55 1474.49 Q1699.55 1470.74 1697.7 1468.59 Q1695.87 1466.44 1692.73 1466.44 M1702.01 1451.78 L1702.01 1456.04 Q1700.25 1455.21 1698.44 1454.77 Q1696.66 1454.33 1694.9 1454.33 Q1690.27 1454.33 1687.82 1457.45 Q1685.39 1460.58 1685.04 1466.9 Q1686.41 1464.89 1688.47 1463.82 Q1690.53 1462.73 1693 1462.73 Q1698.21 1462.73 1701.22 1465.9 Q1704.25 1469.05 1704.25 1474.49 Q1704.25 1479.82 1701.11 1483.03 Q1697.96 1486.25 1692.73 1486.25 Q1686.73 1486.25 1683.56 1481.67 Q1680.39 1477.06 1680.39 1468.33 Q1680.39 1460.14 1684.28 1455.28 Q1688.17 1450.39 1694.72 1450.39 Q1696.48 1450.39 1698.26 1450.74 Q1700.06 1451.09 1702.01 1451.78 Z" fill="#ffffff" fill-rule="nonzero" fill-opacity="1" /><path clip-path="url(#clip410)" d="M1572.24 1469.17 Q1568.91 1469.17 1566.99 1470.95 Q1565.09 1472.73 1565.09 1475.86 Q1565.09 1478.98 1566.99 1480.77 Q1568.91 1482.55 1572.24 1482.55 Q1575.58 1482.55 1577.5 1480.77 Q1579.42 1478.96 1579.42 1475.86 Q1579.42 1472.73 1577.5 1470.95 Q1575.6 1469.17 1572.24 1469.17 M1567.57 1467.18 Q1564.56 1466.44 1562.87 1464.38 Q1561.2 1462.32 1561.2 1459.35 Q1561.2 1455.21 1564.14 1452.8 Q1567.1 1450.39 1572.24 1450.39 Q1577.4 1450.39 1580.34 1452.8 Q1583.28 1455.21 1583.28 1459.35 Q1583.28 1462.32 1581.59 1464.38 Q1579.93 1466.44 1576.94 1467.18 Q1580.32 1467.96 1582.2 1470.26 Q1584.09 1472.55 1584.09 1475.86 Q1584.09 1480.88 1581.02 1483.57 Q1577.96 1486.25 1572.24 1486.25 Q1566.52 1486.25 1563.45 1483.57 Q1560.39 1480.88 1560.39 1475.86 Q1560.39 1472.55 1562.29 1470.26 Q1564.19 1467.96 1567.57 1467.18 M1565.85 1459.79 Q1565.85 1462.48 1567.52 1463.98 Q1569.21 1465.49 1572.24 1465.49 Q1575.25 1465.49 1576.94 1463.98 Q1578.65 1462.48 1578.65 1459.79 Q1578.65 1457.11 1576.94 1455.6 Q1575.25 1454.1 1572.24 1454.1 Q1569.21 1454.1 1567.52 1455.6 Q1565.85 1457.11 1565.85 1459.79 Z" fill="#ffffff" fill-rule="nonzero" fill-opacity="1" /><path clip-path="url(#clip410)" d="M1426.85 1481.64 L1434.49 1481.64 L1434.49 1455.28 L1426.18 1456.95 L1426.18 1452.69 L1434.44 1451.02 L1439.12 1451.02 L1439.12 1481.64 L1446.76 1481.64 L1446.76 1485.58 L1426.85 1485.58 L1426.85 1481.64 Z" fill="#ffffff" fill-rule="nonzero" fill-opacity="1" /><path clip-path="url(#clip410)" d="M1466.2 1454.1 Q1462.59 1454.1 1460.76 1457.66 Q1458.96 1461.2 1458.96 1468.33 Q1458.96 1475.44 1460.76 1479.01 Q1462.59 1482.55 1466.2 1482.55 Q1469.84 1482.55 1471.64 1479.01 Q1473.47 1475.44 1473.47 1468.33 Q1473.47 1461.2 1471.64 1457.66 Q1469.84 1454.1 1466.2 1454.1 M1466.2 1450.39 Q1472.01 1450.39 1475.07 1455 Q1478.15 1459.58 1478.15 1468.33 Q1478.15 1477.06 1475.07 1481.67 Q1472.01 1486.25 1466.2 1486.25 Q1460.39 1486.25 1457.31 1481.67 Q1454.26 1477.06 1454.26 1468.33 Q1454.26 1459.58 1457.31 1455 Q1460.39 1450.39 1466.2 1450.39 Z" fill="#ffffff" fill-rule="nonzero" fill-opacity="1" /><path clip-path="url(#clip410)" d="M1307.57 1481.64 L1315.21 1481.64 L1315.21 1455.28 L1306.9 1456.95 L1306.9 1452.69 L1315.16 1451.02 L1319.84 1451.02 L1319.84 1481.64 L1327.48 1481.64 L1327.48 1485.58 L1307.57 1485.58 L1307.57 1481.64 Z" fill="#ffffff" fill-rule="nonzero" fill-opacity="1" /><path clip-path="url(#clip410)" d="M1340.95 1481.64 L1357.27 1481.64 L1357.27 1485.58 L1335.32 1485.58 L1335.32 1481.64 Q1337.99 1478.89 1342.57 1474.26 Q1347.18 1469.61 1348.36 1468.27 Q1350.6 1465.74 1351.48 1464.01 Q1352.38 1462.25 1352.38 1460.56 Q1352.38 1457.8 1350.44 1456.07 Q1348.52 1454.33 1345.42 1454.33 Q1343.22 1454.33 1340.76 1455.09 Q1338.33 1455.86 1335.56 1457.41 L1335.56 1452.69 Q1338.38 1451.55 1340.83 1450.97 Q1343.29 1450.39 1345.32 1450.39 Q1350.69 1450.39 1353.89 1453.08 Q1357.08 1455.77 1357.08 1460.26 Q1357.08 1462.39 1356.27 1464.31 Q1355.49 1466.2 1353.38 1468.8 Q1352.8 1469.47 1349.7 1472.69 Q1346.6 1475.88 1340.95 1481.64 Z" fill="#ffffff" fill-rule="nonzero" fill-opacity="1" /><path clip-path="url(#clip410)" d="M1186.45 1481.64 L1194.09 1481.64 L1194.09 1455.28 L1185.78 1456.95 L1185.78 1452.69 L1194.04 1451.02 L1198.72 1451.02 L1198.72 1481.64 L1206.36 1481.64 L1206.36 1485.58 L1186.45 1485.58 L1186.45 1481.64 Z" fill="#ffffff" fill-rule="nonzero" fill-opacity="1" /><path clip-path="url(#clip410)" d="M1228.65 1455.09 L1216.84 1473.54 L1228.65 1473.54 L1228.65 1455.09 M1227.42 1451.02 L1233.3 1451.02 L1233.3 1473.54 L1238.23 1473.54 L1238.23 1477.43 L1233.3 1477.43 L1233.3 1485.58 L1228.65 1485.58 L1228.65 1477.43 L1213.05 1477.43 L1213.05 1472.92 L1227.42 1451.02 Z" fill="#ffffff" fill-rule="nonzero" fill-opacity="1" /><path clip-path="url(#clip410)" d="M1066.53 1481.64 L1074.17 1481.64 L1074.17 1455.28 L1065.86 1456.95 L1065.86 1452.69 L1074.12 1451.02 L1078.8 1451.02 L1078.8 1481.64 L1086.44 1481.64 L1086.44 1485.58 L1066.53 1485.58 L1066.53 1481.64 Z" fill="#ffffff" fill-rule="nonzero" fill-opacity="1" /><path clip-path="url(#clip410)" d="M1106.46 1466.44 Q1103.31 1466.44 1101.46 1468.59 Q1099.63 1470.74 1099.63 1474.49 Q1099.63 1478.22 1101.46 1480.39 Q1103.31 1482.55 1106.46 1482.55 Q1109.61 1482.55 1111.44 1480.39 Q1113.29 1478.22 1113.29 1474.49 Q1113.29 1470.74 1111.44 1468.59 Q1109.61 1466.44 1106.46 1466.44 M1115.74 1451.78 L1115.74 1456.04 Q1113.99 1455.21 1112.18 1454.77 Q1110.4 1454.33 1108.64 1454.33 Q1104.01 1454.33 1101.56 1457.45 Q1099.12 1460.58 1098.78 1466.9 Q1100.14 1464.89 1102.2 1463.82 Q1104.26 1462.73 1106.74 1462.73 Q1111.95 1462.73 1114.96 1465.9 Q1117.99 1469.05 1117.99 1474.49 Q1117.99 1479.82 1114.84 1483.03 Q1111.69 1486.25 1106.46 1486.25 Q1100.47 1486.25 1097.3 1481.67 Q1094.12 1477.06 1094.12 1468.33 Q1094.12 1460.14 1098.01 1455.28 Q1101.9 1450.39 1108.45 1450.39 Q1110.21 1450.39 1112 1450.74 Q1113.8 1451.09 1115.74 1451.78 Z" fill="#ffffff" fill-rule="nonzero" fill-opacity="1" /><path clip-path="url(#clip410)" d="M946.581 1481.64 L954.219 1481.64 L954.219 1455.28 L945.909 1456.95 L945.909 1452.69 L954.173 1451.02 L958.849 1451.02 L958.849 1481.64 L966.488 1481.64 L966.488 1485.58 L946.581 1485.58 L946.581 1481.64 Z" fill="#ffffff" fill-rule="nonzero" fill-opacity="1" /><path clip-path="url(#clip410)" d="M985.932 1469.17 Q982.599 1469.17 980.678 1470.95 Q978.779 1472.73 978.779 1475.86 Q978.779 1478.98 980.678 1480.77 Q982.599 1482.55 985.932 1482.55 Q989.265 1482.55 991.187 1480.77 Q993.108 1478.96 993.108 1475.86 Q993.108 1472.73 991.187 1470.95 Q989.289 1469.17 985.932 1469.17 M981.256 1467.18 Q978.247 1466.44 976.557 1464.38 Q974.891 1462.32 974.891 1459.35 Q974.891 1455.21 977.83 1452.8 Q980.793 1450.39 985.932 1450.39 Q991.094 1450.39 994.034 1452.8 Q996.974 1455.21 996.974 1459.35 Q996.974 1462.32 995.284 1464.38 Q993.617 1466.44 990.631 1467.18 Q994.011 1467.96 995.886 1470.26 Q997.784 1472.55 997.784 1475.86 Q997.784 1480.88 994.705 1483.57 Q991.65 1486.25 985.932 1486.25 Q980.215 1486.25 977.136 1483.57 Q974.08 1480.88 974.08 1475.86 Q974.08 1472.55 975.979 1470.26 Q977.877 1467.96 981.256 1467.18 M979.543 1459.79 Q979.543 1462.48 981.21 1463.98 Q982.9 1465.49 985.932 1465.49 Q988.941 1465.49 990.631 1463.98 Q992.344 1462.48 992.344 1459.79 Q992.344 1457.11 990.631 1455.6 Q988.941 1454.1 985.932 1454.1 Q982.9 1454.1 981.21 1455.6 Q979.543 1457.11 979.543 1459.79 Z" fill="#ffffff" fill-rule="nonzero" fill-opacity="1" /><path clip-path="url(#clip410)" d="M830.541 1481.64 L846.86 1481.64 L846.86 1485.58 L824.916 1485.58 L824.916 1481.64 Q827.578 1478.89 832.161 1474.26 Q836.768 1469.61 837.948 1468.27 Q840.194 1465.74 841.073 1464.01 Q841.976 1462.25 841.976 1460.56 Q841.976 1457.8 840.031 1456.07 Q838.11 1454.33 835.008 1454.33 Q832.809 1454.33 830.356 1455.09 Q827.925 1455.86 825.147 1457.41 L825.147 1452.69 Q827.971 1451.55 830.425 1450.97 Q832.879 1450.39 834.916 1450.39 Q840.286 1450.39 843.481 1453.08 Q846.675 1455.77 846.675 1460.26 Q846.675 1462.39 845.865 1464.31 Q845.078 1466.2 842.971 1468.8 Q842.393 1469.47 839.291 1472.69 Q836.189 1475.88 830.541 1481.64 Z" fill="#ffffff" fill-rule="nonzero" fill-opacity="1" /><path clip-path="url(#clip410)" d="M866.675 1454.1 Q863.064 1454.1 861.235 1457.66 Q859.43 1461.2 859.43 1468.33 Q859.43 1475.44 861.235 1479.01 Q863.064 1482.55 866.675 1482.55 Q870.309 1482.55 872.115 1479.01 Q873.943 1475.44 873.943 1468.33 Q873.943 1461.2 872.115 1457.66 Q870.309 1454.1 866.675 1454.1 M866.675 1450.39 Q872.485 1450.39 875.541 1455 Q878.619 1459.58 878.619 1468.33 Q878.619 1477.06 875.541 1481.67 Q872.485 1486.25 866.675 1486.25 Q860.865 1486.25 857.786 1481.67 Q854.73 1477.06 854.73 1468.33 Q854.73 1459.58 857.786 1455 Q860.865 1450.39 866.675 1450.39 Z" fill="#ffffff" fill-rule="nonzero" fill-opacity="1" /><path clip-path="url(#clip410)" d="M1105.95 1520.52 L1112.86 1520.52 L1124.67 1538.19 L1136.54 1520.52 L1143.45 1520.52 L1128.17 1543.34 L1144.47 1568.04 L1137.56 1568.04 L1124.19 1547.83 L1110.73 1568.04 L1103.79 1568.04 L1120.75 1542.68 L1105.95 1520.52 Z" fill="#ffffff" fill-rule="nonzero" fill-opacity="1" /><path clip-path="url(#clip410)" d="M1152.9 1520.52 L1159.33 1520.52 L1159.33 1562.63 L1182.47 1562.63 L1182.47 1568.04 L1152.9 1568.04 L1152.9 1520.52 Z" fill="#ffffff" fill-rule="nonzero" fill-opacity="1" /><path clip-path="url(#clip410)" d="M1206.59 1526.86 L1197.87 1550.51 L1215.35 1550.51 L1206.59 1526.86 M1202.97 1520.52 L1210.25 1520.52 L1228.37 1568.04 L1221.68 1568.04 L1217.35 1555.85 L1195.93 1555.85 L1191.6 1568.04 L1184.82 1568.04 L1202.97 1520.52 Z" fill="#ffffff" fill-rule="nonzero" fill-opacity="1" /><path clip-path="url(#clip410)" d="M1241.73 1545.35 L1241.73 1562.76 L1252.05 1562.76 Q1257.23 1562.76 1259.72 1560.63 Q1262.23 1558.46 1262.23 1554.04 Q1262.23 1549.58 1259.72 1547.48 Q1257.23 1545.35 1252.05 1545.35 L1241.73 1545.35 M1241.73 1525.81 L1241.73 1540.13 L1251.25 1540.13 Q1255.96 1540.13 1258.25 1538.38 Q1260.58 1536.6 1260.58 1532.97 Q1260.58 1529.37 1258.25 1527.59 Q1255.96 1525.81 1251.25 1525.81 L1241.73 1525.81 M1235.3 1520.52 L1251.73 1520.52 Q1259.08 1520.52 1263.06 1523.58 Q1267.04 1526.63 1267.04 1532.27 Q1267.04 1536.63 1265 1539.21 Q1262.96 1541.79 1259.02 1542.42 Q1263.76 1543.44 1266.37 1546.69 Q1269.01 1549.9 1269.01 1554.74 Q1269.01 1561.11 1264.68 1564.57 Q1260.35 1568.04 1252.36 1568.04 L1235.3 1568.04 L1235.3 1520.52 Z" fill="#ffffff" fill-rule="nonzero" fill-opacity="1" /><path clip-path="url(#clip410)" d="M1280.02 1520.52 L1310.07 1520.52 L1310.07 1525.93 L1286.45 1525.93 L1286.45 1540 L1309.08 1540 L1309.08 1545.41 L1286.45 1545.41 L1286.45 1562.63 L1310.64 1562.63 L1310.64 1568.04 L1280.02 1568.04 L1280.02 1520.52 Z" fill="#ffffff" fill-rule="nonzero" fill-opacity="1" /><path clip-path="url(#clip410)" d="M1321.21 1520.52 L1327.64 1520.52 L1327.64 1562.63 L1350.78 1562.63 L1350.78 1568.04 L1321.21 1568.04 L1321.21 1520.52 Z" fill="#ffffff" fill-rule="nonzero" fill-opacity="1" /><path clip-path="url(#clip410)" d="M1392.06 1518.58 Q1387.79 1525.9 1385.73 1533.06 Q1383.66 1540.23 1383.66 1547.58 Q1383.66 1554.93 1385.73 1562.16 Q1387.83 1569.35 1392.06 1576.64 L1386.97 1576.64 Q1382.19 1569.16 1379.81 1561.93 Q1377.45 1554.71 1377.45 1547.58 Q1377.45 1540.48 1379.81 1533.29 Q1382.16 1526.09 1386.97 1518.58 L1392.06 1518.58 Z" fill="#ffffff" fill-rule="nonzero" fill-opacity="1" /><path clip-path="url(#clip410)" d="M1403.68 1520.52 L1410.11 1520.52 L1410.11 1540 L1433.47 1540 L1433.47 1520.52 L1439.9 1520.52 L1439.9 1568.04 L1433.47 1568.04 L1433.47 1545.41 L1410.11 1545.41 L1410.11 1568.04 L1403.68 1568.04 L1403.68 1520.52 Z" fill="#ffffff" fill-rule="nonzero" fill-opacity="1" /><path clip-path="url(#clip410)" d="M1449.89 1532.4 L1477.71 1532.4 L1477.71 1537.74 L1455.68 1563.37 L1477.71 1563.37 L1477.71 1568.04 L1449.1 1568.04 L1449.1 1562.7 L1471.12 1537.07 L1449.89 1537.07 L1449.89 1532.4 Z" fill="#ffffff" fill-rule="nonzero" fill-opacity="1" /><path clip-path="url(#clip410)" d="M1485.73 1518.58 L1490.82 1518.58 Q1495.6 1526.09 1497.95 1533.29 Q1500.34 1540.48 1500.34 1547.58 Q1500.34 1554.71 1497.95 1561.93 Q1495.6 1569.16 1490.82 1576.64 L1485.73 1576.64 Q1489.96 1569.35 1492.03 1562.16 Q1494.13 1554.93 1494.13 1547.58 Q1494.13 1540.23 1492.03 1533.06 Q1489.96 1525.9 1485.73 1518.58 Z" fill="#ffffff" fill-rule="nonzero" fill-opacity="1" /><polyline clip-path="url(#clip410)" style="stroke:#ffffff; stroke-linecap:round; stroke-linejoin:round; stroke-width:4; stroke-opacity:1; fill:none" points="251.372,1423.18 251.372,123.472 "/>
<polyline clip-path="url(#clip410)" style="stroke:#ffffff; stroke-linecap:round; stroke-linejoin:round; stroke-width:4; stroke-opacity:1; fill:none" points="251.372,915.612 270.27,915.612 "/>
<polyline clip-path="url(#clip410)" style="stroke:#ffffff; stroke-linecap:round; stroke-linejoin:round; stroke-width:4; stroke-opacity:1; fill:none" points="251.372,154.712 270.27,154.712 "/>
<path clip-path="url(#clip410)" d="M114.931 935.405 L122.57 935.405 L122.57 909.039 L114.26 910.706 L114.26 906.447 L122.524 904.78 L127.2 904.78 L127.2 935.405 L134.839 935.405 L134.839 939.34 L114.931 939.34 L114.931 935.405 Z" fill="#ffffff" fill-rule="nonzero" fill-opacity="1" /><path clip-path="url(#clip410)" d="M154.283 907.859 Q150.672 907.859 148.843 911.423 Q147.038 914.965 147.038 922.095 Q147.038 929.201 148.843 932.766 Q150.672 936.307 154.283 936.307 Q157.917 936.307 159.723 932.766 Q161.552 929.201 161.552 922.095 Q161.552 914.965 159.723 911.423 Q157.917 907.859 154.283 907.859 M154.283 904.155 Q160.093 904.155 163.149 908.761 Q166.227 913.345 166.227 922.095 Q166.227 930.821 163.149 935.428 Q160.093 940.011 154.283 940.011 Q148.473 940.011 145.394 935.428 Q142.339 930.821 142.339 922.095 Q142.339 913.345 145.394 908.761 Q148.473 904.155 154.283 904.155 Z" fill="#ffffff" fill-rule="nonzero" fill-opacity="1" /><path clip-path="url(#clip410)" d="M166.227 898.256 L190.339 898.256 L190.339 901.454 L166.227 901.454 L166.227 898.256 Z" fill="#ffffff" fill-rule="nonzero" fill-opacity="1" /><path clip-path="url(#clip410)" d="M199.197 908.732 L205.404 908.732 L205.404 887.31 L198.652 888.664 L198.652 885.204 L205.366 883.849 L209.166 883.849 L209.166 908.732 L215.372 908.732 L215.372 911.929 L199.197 911.929 L199.197 908.732 Z" fill="#ffffff" fill-rule="nonzero" fill-opacity="1" /><path clip-path="url(#clip410)" d="M144.667 174.505 L152.305 174.505 L152.305 148.139 L143.995 149.806 L143.995 145.546 L152.259 143.88 L156.935 143.88 L156.935 174.505 L164.574 174.505 L164.574 178.44 L144.667 178.44 L144.667 174.505 Z" fill="#ffffff" fill-rule="nonzero" fill-opacity="1" /><path clip-path="url(#clip410)" d="M184.018 146.958 Q180.407 146.958 178.578 150.523 Q176.773 154.065 176.773 161.194 Q176.773 168.301 178.578 171.866 Q180.407 175.407 184.018 175.407 Q187.652 175.407 189.458 171.866 Q191.287 168.301 191.287 161.194 Q191.287 154.065 189.458 150.523 Q187.652 146.958 184.018 146.958 M184.018 143.255 Q189.828 143.255 192.884 147.861 Q195.963 152.444 195.963 161.194 Q195.963 169.921 192.884 174.528 Q189.828 179.111 184.018 179.111 Q178.208 179.111 175.129 174.528 Q172.074 169.921 172.074 161.194 Q172.074 152.444 175.129 147.861 Q178.208 143.255 184.018 143.255 Z" fill="#ffffff" fill-rule="nonzero" fill-opacity="1" /><path clip-path="url(#clip410)" d="M205.667 125.451 Q202.733 125.451 201.248 128.347 Q199.781 131.225 199.781 137.017 Q199.781 142.791 201.248 145.688 Q202.733 148.565 205.667 148.565 Q208.62 148.565 210.087 145.688 Q211.573 142.791 211.573 137.017 Q211.573 131.225 210.087 128.347 Q208.62 125.451 205.667 125.451 M205.667 122.441 Q210.388 122.441 212.871 126.184 Q215.372 129.908 215.372 137.017 Q215.372 144.108 212.871 147.851 Q210.388 151.575 205.667 151.575 Q200.947 151.575 198.445 147.851 Q195.963 144.108 195.963 137.017 Q195.963 129.908 198.445 126.184 Q200.947 122.441 205.667 122.441 Z" fill="#ffffff" fill-rule="nonzero" fill-opacity="1" /><path clip-path="url(#clip410)" d="M16.4842 960.828 L16.4842 953.921 L36.0269 940.744 L16.4842 927.663 L16.4842 920.756 L41.3741 937.561 L64.0042 937.561 L64.0042 944.022 L41.3741 944.022 L16.4842 960.828 Z" fill="#ffffff" fill-rule="nonzero" fill-opacity="1" /><path clip-path="url(#clip410)" d="M16.4842 914.486 L16.4842 908.056 L58.5933 908.056 L58.5933 884.917 L64.0042 884.917 L64.0042 914.486 L16.4842 914.486 Z" fill="#ffffff" fill-rule="nonzero" fill-opacity="1" /><path clip-path="url(#clip410)" d="M22.818 860.791 L46.4666 869.512 L46.4666 852.038 L22.818 860.791 M16.4842 864.419 L16.4842 857.131 L64.0042 839.02 L64.0042 845.704 L51.8138 850.033 L51.8138 871.453 L64.0042 875.782 L64.0042 882.562 L16.4842 864.419 Z" fill="#ffffff" fill-rule="nonzero" fill-opacity="1" /><path clip-path="url(#clip410)" d="M41.3104 825.652 L58.7206 825.652 L58.7206 815.34 Q58.7206 810.152 56.5881 807.669 Q54.4238 805.155 49.9996 805.155 Q45.5436 805.155 43.4429 807.669 Q41.3104 810.152 41.3104 815.34 L41.3104 825.652 M21.7677 825.652 L36.0905 825.652 L36.0905 816.135 Q36.0905 811.425 34.34 809.133 Q32.5576 806.81 28.9291 806.81 Q25.3325 806.81 23.5501 809.133 Q21.7677 811.425 21.7677 816.135 L21.7677 825.652 M16.4842 832.081 L16.4842 815.658 Q16.4842 808.306 19.5397 804.327 Q22.5952 800.348 28.2289 800.348 Q32.5894 800.348 35.1675 802.385 Q37.7456 804.422 38.3822 808.369 Q39.4007 803.627 42.6472 801.017 Q45.8619 798.375 50.6998 798.375 Q57.0655 798.375 60.5348 802.704 Q64.0042 807.032 64.0042 815.021 L64.0042 832.081 L16.4842 832.081 Z" fill="#ffffff" fill-rule="nonzero" fill-opacity="1" /><path clip-path="url(#clip410)" d="M16.4842 787.362 L16.4842 757.316 L21.895 757.316 L21.895 780.933 L35.9632 780.933 L35.9632 758.303 L41.3741 758.303 L41.3741 780.933 L58.5933 780.933 L58.5933 756.743 L64.0042 756.743 L64.0042 787.362 L16.4842 787.362 Z" fill="#ffffff" fill-rule="nonzero" fill-opacity="1" /><path clip-path="url(#clip410)" d="M16.4842 746.176 L16.4842 739.747 L58.5933 739.747 L58.5933 716.608 L64.0042 716.608 L64.0042 746.176 L16.4842 746.176 Z" fill="#ffffff" fill-rule="nonzero" fill-opacity="1" /><path clip-path="url(#clip410)" d="M14.5426 675.326 Q21.8632 679.591 29.0246 681.66 Q36.186 683.729 43.5384 683.729 Q50.8908 683.729 58.1159 681.66 Q65.3091 679.559 72.5979 675.326 L72.5979 680.418 Q65.1182 685.193 57.8931 687.58 Q50.668 689.935 43.5384 689.935 Q36.4406 689.935 29.2474 687.58 Q22.0542 685.225 14.5426 680.418 L14.5426 675.326 Z" fill="#ffffff" fill-rule="nonzero" fill-opacity="1" /><path clip-path="url(#clip410)" d="M16.4842 667.942 L16.4842 661.449 L56.6518 651.455 L16.4842 641.492 L16.4842 634.267 L56.6518 624.273 L16.4842 614.311 L16.4842 607.786 L64.0042 619.721 L64.0042 627.806 L22.7544 637.832 L64.0042 647.953 L64.0042 656.038 L16.4842 667.942 Z" fill="#ffffff" fill-rule="nonzero" fill-opacity="1" /><path clip-path="url(#clip410)" d="M14.5426 600.433 L14.5426 595.341 Q22.0542 590.567 29.2474 588.211 Q36.4406 585.824 43.5384 585.824 Q50.668 585.824 57.8931 588.211 Q65.1182 590.567 72.5979 595.341 L72.5979 600.433 Q65.3091 596.2 58.1159 594.131 Q50.8908 592.031 43.5384 592.031 Q36.186 592.031 29.0246 594.131 Q21.8632 596.2 14.5426 600.433 Z" fill="#ffffff" fill-rule="nonzero" fill-opacity="1" /><path clip-path="url(#clip410)" d="M1192.37 12.096 L1243.53 12.096 L1243.53 18.9825 L1222.06 18.9825 L1222.06 72.576 L1213.84 72.576 L1213.84 18.9825 L1192.37 18.9825 L1192.37 12.096 Z" fill="#ffffff" fill-rule="nonzero" fill-opacity="1" /><path clip-path="url(#clip410)" d="M1251.43 12.096 L1259.61 12.096 L1259.61 72.576 L1251.43 72.576 L1251.43 12.096 Z" fill="#ffffff" fill-rule="nonzero" fill-opacity="1" /><path clip-path="url(#clip410)" d="M1267.51 12.096 L1318.67 12.096 L1318.67 18.9825 L1297.2 18.9825 L1297.2 72.576 L1288.98 72.576 L1288.98 18.9825 L1267.51 18.9825 L1267.51 12.096 Z" fill="#ffffff" fill-rule="nonzero" fill-opacity="1" /><path clip-path="url(#clip410)" d="M1326.57 12.096 L1334.75 12.096 L1334.75 65.6895 L1364.2 65.6895 L1364.2 72.576 L1326.57 72.576 L1326.57 12.096 Z" fill="#ffffff" fill-rule="nonzero" fill-opacity="1" /><path clip-path="url(#clip410)" d="M1372.79 12.096 L1411.03 12.096 L1411.03 18.9825 L1380.98 18.9825 L1380.98 36.8875 L1409.78 36.8875 L1409.78 43.7741 L1380.98 43.7741 L1380.98 65.6895 L1411.76 65.6895 L1411.76 72.576 L1372.79 72.576 L1372.79 12.096 Z" fill="#ffffff" fill-rule="nonzero" fill-opacity="1" /><polyline clip-path="url(#clip412)" style="stroke:#009af9; stroke-linecap:round; stroke-linejoin:round; stroke-width:4; stroke-opacity:1; fill:none" points="1992.52,203.966 1932.48,374.127 1872.44,325.385 1812.4,265.098 1752.36,559.651 1692.32,213.872 1632.28,911.329 1572.24,914.659 1512.2,516.074 1452.16,317.579 1392.12,944.537 1332.08,380.753 1272.04,204.652 1212,312.456 1151.97,160.419 1091.93,822.29 1031.89,813.321 971.847,297.523 911.807,524.112 851.768,1384.39 "/>
<polyline clip-path="url(#clip412)" style="stroke:#e26f46; stroke-linecap:round; stroke-linejoin:round; stroke-width:4; stroke-opacity:1; fill:none" points="1992.52,168.595 1932.48,388.29 1872.44,346.999 1812.4,617.871 1752.36,262.365 1692.32,228.793 1632.28,327.213 1572.24,1200.29 1512.2,407.539 1452.16,479.165 1392.12,1232.45 1332.08,403.925 1272.04,319.014 1212,213.478 1151.97,176.418 1091.93,551.419 1031.89,1059.64 971.847,327.353 911.807,198.128 851.768,514.328 "/>
<polyline clip-path="url(#clip412)" style="stroke:#3da44d; stroke-linecap:round; stroke-linejoin:round; stroke-width:4; stroke-opacity:1; fill:none" points="1992.52,556.59 1932.48,243.189 1872.44,1116.04 1812.4,826.261 1752.36,291.255 1692.32,1386.4 1632.28,260.368 1572.24,466.243 1512.2,718.911 1452.16,358.173 1392.12,670.191 1332.08,456.773 1272.04,185.203 1212,1004.72 1151.97,701.372 1091.93,273.276 1031.89,675.565 971.847,266.878 911.807,376.43 851.768,160.256 "/>
<polyline clip-path="url(#clip412)" style="stroke:#90ee90; stroke-linecap:round; stroke-linejoin:round; stroke-width:16; stroke-opacity:0.6; fill:none" stroke-dasharray="64, 40" points="4454.14,273.432 -1850.01,273.432 "/>
<polyline clip-path="url(#clip412)" style="stroke:#008000; stroke-linecap:round; stroke-linejoin:round; stroke-width:16; stroke-opacity:0.6; fill:none" stroke-dasharray="64, 40" points="4454.14,352.546 -1850.01,352.546 "/>
<polyline clip-path="url(#clip412)" style="stroke:#006400; stroke-linecap:round; stroke-linejoin:round; stroke-width:16; stroke-opacity:0.6; fill:none" stroke-dasharray="64, 40" points="4454.14,295.359 -1850.01,295.359 "/>
<polyline clip-path="url(#clip412)" style="stroke:#ed5d92; stroke-linecap:round; stroke-linejoin:round; stroke-width:4; stroke-opacity:1; fill:none" points="1752.36,2722.89 1752.36,-1176.24 "/>
<polyline clip-path="url(#clip412)" style="stroke:#ed5d92; stroke-linecap:round; stroke-linejoin:round; stroke-width:4; stroke-opacity:1; fill:none" points="1452.16,2722.89 1452.16,-1176.24 "/>
</svg>
