<?xml version="1.0" encoding="utf-8"?>
<svg xmlns="http://www.w3.org/2000/svg" xmlns:xlink="http://www.w3.org/1999/xlink" width="600" height="400" viewBox="0 0 2400 1600">
<defs>
  <clipPath id="clip690">
    <rect x="0" y="0" width="2400" height="1600"/>
  </clipPath>
</defs>
<path clip-path="url(#clip690)" d="M0 1600 L2400 1600 L2400 0 L0 0  Z" fill="#ffffff" fill-rule="evenodd" fill-opacity="1"/>
<defs>
  <clipPath id="clip691">
    <rect x="480" y="0" width="1681" height="1600"/>
  </clipPath>
</defs>
<path clip-path="url(#clip690)" d="M447.244 1552.76 L1952.76 1552.76 L1952.76 47.2441 L447.244 47.2441  Z" fill="#ffffff" fill-rule="evenodd" fill-opacity="1"/>
<defs>
  <clipPath id="clip692">
    <rect x="447" y="47" width="1507" height="1507"/>
  </clipPath>
</defs>
<polyline clip-path="url(#clip692)" style="stroke:#000000; stroke-linecap:round; stroke-linejoin:round; stroke-width:4; stroke-opacity:1; fill:none" points="1378.4,941.186 1390.3,955.11 1402.17,968.947 1413.98,982.61 1425.68,996.014 1437.25,1009.07 1448.65,1021.69 1459.84,1033.79 1470.8,1045.29 1481.49,1056.09 1491.88,1066.1 1501.93,1075.25 1511.61,1083.45 1520.89,1090.61 1529.73,1096.74 1538.14,1101.86 1546.08,1106.02 1553.53,1109.24 1560.49,1111.57 1566.92,1113.04 1572.82,1113.68 1578.16,1113.53 1582.92,1112.62 1587.09,1111 1590.65,1108.69 1593.57,1105.73 1595.84,1102.14 1597.41,1097.95 1598.25,1093.18 1598.33,1087.84 1597.62,1081.95 1596.07,1075.53 1593.65,1068.61 1590.33,1061.19 1586.07,1053.31 1580.84,1044.97 1574.6,1036.2 1567.32,1027.02 1559,1017.44 1549.72,1007.51 1539.57,997.253 1528.64,986.701 1517,975.889 1504.76,964.848 1491.99,953.611 1478.78,942.211 1465.23,930.681 1451.42,919.053 1437.43,907.36 1423.35,895.634 "/>
<polyline clip-path="url(#clip692)" style="stroke:#000000; stroke-linecap:round; stroke-linejoin:round; stroke-width:4; stroke-opacity:1; fill:none" points="1439.49,932.505 1423.35,895.634 1462.53,904.845 "/>
<polyline clip-path="url(#clip692)" style="stroke:#000000; stroke-linecap:round; stroke-linejoin:round; stroke-width:4; stroke-opacity:1; fill:none" points="1423.35,895.634 1437.43,907.36 "/>
<polyline clip-path="url(#clip692)" style="stroke:#000000; stroke-linecap:round; stroke-linejoin:round; stroke-width:4; stroke-opacity:1; fill:none" points="1350.14,956.524 1361.13,980.466 1372.25,1004.31 1383.64,1027.98 1395.42,1051.36 1407.73,1074.37 1420.7,1096.92 1434.46,1118.91 1449.13,1140.25 1464.86,1160.84 1481.78,1180.59 1500.01,1199.42 1519.68,1217.22 1540.9,1233.9 1563.43,1249.31 1586.86,1263.27 1610.78,1275.6 1634.8,1286.12 1658.5,1294.66 1681.48,1301.04 1703.33,1305.09 1723.66,1306.62 1742.05,1305.46 1758.09,1301.43 1771.39,1294.35 1781.55,1284.06 1788.46,1270.67 1792.28,1254.57 1793.21,1236.17 1791.41,1215.87 1787.09,1194.06 1780.41,1171.17 1771.57,1147.58 1760.73,1123.7 1748.1,1099.94 1733.84,1076.69 1718.15,1054.36 1701.2,1033.36 1683.15,1013.92 1664.09,995.931 1644.12,979.273 1623.33,963.811 1601.81,949.411 1579.65,935.94 1556.94,923.266 1533.77,911.257 1510.24,899.778 1486.44,888.697 1462.45,877.883 1438.37,867.201 "/>
<polyline clip-path="url(#clip692)" style="stroke:#000000; stroke-linecap:round; stroke-linejoin:round; stroke-width:4; stroke-opacity:1; fill:none" points="1463.98,898.253 1438.37,867.201 1478.58,865.346 "/>
<polyline clip-path="url(#clip692)" style="stroke:#000000; stroke-linecap:round; stroke-linejoin:round; stroke-width:4; stroke-opacity:1; fill:none" points="1438.37,867.201 1462.45,877.883 "/>
<polyline clip-path="url(#clip692)" style="stroke:#000000; stroke-linecap:round; stroke-linejoin:round; stroke-width:4; stroke-opacity:1; fill:none" points="1286.4,805.391 1274.39,819.668 1262.4,833.927 1250.41,848.151 1238.45,862.323 1226.52,876.426 1214.62,890.44 1202.76,904.351 1190.95,918.138 1179.19,931.787 1167.5,945.278 1155.88,958.594 1144.33,971.718 1132.87,984.633 1121.5,997.321 1110.22,1009.76 1099.05,1021.95 1087.98,1033.85 1077.04,1045.45 1066.22,1056.74 1055.53,1067.7 1044.98,1078.31 1034.58,1088.56 1024.33,1098.42 1014.23,1107.87 1004.31,1116.91 994.546,1125.53 984.944,1133.75 975.494,1141.59 966.19,1149.06 957.024,1156.18 947.99,1162.96 939.081,1169.44 930.289,1175.61 921.608,1181.51 913.031,1187.14 904.55,1192.53 896.16,1197.7 887.853,1202.65 879.622,1207.41 871.46,1212 863.361,1216.43 855.316,1220.72 847.321,1224.89 839.367,1228.95 831.447,1232.93 823.555,1236.84 815.684,1240.69 807.827,1244.51 799.977,1248.31 "/>
<polyline clip-path="url(#clip692)" style="stroke:#000000; stroke-linecap:round; stroke-linejoin:round; stroke-width:4; stroke-opacity:1; fill:none" points="840.223,1248.82 799.977,1248.31 824.532,1216.42 "/>
<polyline clip-path="url(#clip692)" style="stroke:#000000; stroke-linecap:round; stroke-linejoin:round; stroke-width:4; stroke-opacity:1; fill:none" points="799.977,1248.31 807.827,1244.51 "/>
<polyline clip-path="url(#clip692)" style="stroke:#000000; stroke-linecap:round; stroke-linejoin:round; stroke-width:4; stroke-opacity:1; fill:none" points="1286.4,805.391 1276.42,821.987 1266.45,838.56 1256.48,855.084 1246.52,871.537 1236.55,887.894 1226.59,904.131 1216.64,920.224 1206.69,936.149 1196.75,951.883 1186.82,967.401 1176.89,982.679 1166.97,997.694 1157.07,1012.42 1147.17,1026.84 1137.29,1040.92 1127.42,1054.64 1117.56,1067.97 1107.72,1080.9 1097.89,1093.4 1088.08,1105.44 1078.28,1117.01 1068.5,1128.07 1058.74,1138.6 1049,1148.58 1039.28,1157.99 1029.58,1166.82 1019.9,1175.1 1010.24,1182.85 1000.6,1190.1 990.97,1196.88 981.358,1203.19 971.762,1209.08 962.18,1214.55 952.611,1219.65 943.055,1224.38 933.511,1228.78 923.977,1232.87 914.454,1236.67 904.94,1240.2 895.434,1243.5 885.936,1246.58 876.444,1249.47 866.959,1252.19 857.478,1254.76 848.002,1257.22 838.529,1259.58 829.058,1261.87 819.59,1264.11 810.122,1266.33 "/>
<polyline clip-path="url(#clip692)" style="stroke:#000000; stroke-linecap:round; stroke-linejoin:round; stroke-width:4; stroke-opacity:1; fill:none" points="849.278,1275.65 810.122,1266.33 841.069,1240.59 "/>
<polyline clip-path="url(#clip692)" style="stroke:#000000; stroke-linecap:round; stroke-linejoin:round; stroke-width:4; stroke-opacity:1; fill:none" points="810.122,1266.33 819.59,1264.11 "/>
<polyline clip-path="url(#clip692)" style="stroke:#000000; stroke-linecap:round; stroke-linejoin:round; stroke-width:4; stroke-opacity:1; fill:none" points="662.317,1337.68 674.321,1323.41 686.317,1309.15 698.3,1294.92 710.262,1280.75 722.197,1266.65 734.096,1252.63 745.955,1238.72 757.764,1224.94 769.519,1211.29 781.211,1197.8 792.833,1184.48 804.38,1171.36 815.844,1158.44 827.217,1145.75 838.494,1133.31 849.667,1121.13 860.729,1109.23 871.673,1097.62 882.493,1086.33 893.181,1075.37 903.731,1064.76 914.135,1054.52 924.387,1044.66 934.48,1035.2 944.407,1026.16 954.168,1017.54 963.77,1009.32 973.219,1001.49 982.523,994.018 991.689,986.898 1000.72,980.111 1009.63,973.638 1018.42,967.462 1027.11,961.565 1035.68,955.93 1044.16,950.539 1052.55,945.376 1060.86,940.422 1069.09,935.66 1077.25,931.072 1085.35,926.642 1093.4,922.352 1101.39,918.183 1109.35,914.12 1117.27,910.144 1125.16,906.237 1133.03,902.383 1140.89,898.564 1148.74,894.763 "/>
<polyline clip-path="url(#clip692)" style="stroke:#000000; stroke-linecap:round; stroke-linejoin:round; stroke-width:4; stroke-opacity:1; fill:none" points="1108.49,894.253 1148.74,894.763 1124.18,926.654 "/>
<polyline clip-path="url(#clip692)" style="stroke:#000000; stroke-linecap:round; stroke-linejoin:round; stroke-width:4; stroke-opacity:1; fill:none" points="1148.74,894.763 1140.89,898.564 "/>
<polyline clip-path="url(#clip692)" style="stroke:#000000; stroke-linecap:round; stroke-linejoin:round; stroke-width:4; stroke-opacity:1; fill:none" points="662.317,1337.68 672.289,1321.09 682.26,1304.51 692.229,1287.99 702.196,1271.54 712.16,1255.18 722.119,1238.94 732.073,1222.85 742.021,1206.92 751.963,1191.19 761.897,1175.67 771.823,1160.39 781.739,1145.38 791.645,1130.65 801.541,1116.24 811.425,1102.16 821.296,1088.44 831.153,1075.1 840.997,1062.17 850.825,1049.67 860.637,1037.63 870.432,1026.07 880.21,1015.01 889.97,1004.48 899.71,994.495 909.43,985.088 919.129,976.255 928.81,967.974 938.472,960.22 948.116,952.969 957.744,946.198 967.355,939.882 976.952,933.997 986.534,928.52 996.102,923.427 1005.66,918.693 1015.2,914.294 1024.74,910.207 1034.26,906.408 1043.77,902.872 1053.28,899.577 1062.78,896.496 1072.27,893.608 1081.75,890.887 1091.24,888.31 1100.71,885.853 1110.18,883.492 1119.66,881.203 1129.12,878.962 1138.59,876.744 "/>
<polyline clip-path="url(#clip692)" style="stroke:#000000; stroke-linecap:round; stroke-linejoin:round; stroke-width:4; stroke-opacity:1; fill:none" points="1099.44,867.427 1138.59,876.744 1107.64,902.479 "/>
<polyline clip-path="url(#clip692)" style="stroke:#000000; stroke-linecap:round; stroke-linejoin:round; stroke-width:4; stroke-opacity:1; fill:none" points="1138.59,876.744 1129.12,878.962 "/>
<polyline clip-path="url(#clip692)" style="stroke:#000000; stroke-linecap:round; stroke-linejoin:round; stroke-width:4; stroke-opacity:1; fill:none" points="662.317,1337.68 670.229,1318.77 678.147,1299.88 686.075,1281.05 694.021,1262.32 701.988,1243.71 709.983,1225.25 718.011,1206.97 726.077,1188.91 734.188,1171.09 742.349,1153.54 750.565,1136.3 758.842,1119.4 767.184,1102.86 775.599,1086.72 784.091,1071 792.666,1055.74 801.33,1040.97 810.087,1026.72 818.944,1013.01 827.905,999.887 836.977,987.372 846.166,975.497 855.475,964.292 864.912,953.789 874.481,944.016 884.183,934.973 894.011,926.631 903.961,918.96 914.027,911.93 924.204,905.509 934.485,899.667 944.866,894.373 955.341,889.598 965.905,885.311 976.551,881.481 987.274,878.078 998.069,875.071 1008.93,872.43 1019.85,870.124 1030.83,868.123 1041.86,866.397 1052.93,864.914 1064.04,863.644 1075.18,862.558 1086.35,861.624 1097.55,860.812 1108.76,860.091 1119.98,859.432 1131.2,858.802 "/>
<polyline clip-path="url(#clip692)" style="stroke:#000000; stroke-linecap:round; stroke-linejoin:round; stroke-width:4; stroke-opacity:1; fill:none" points="1094.25,842.845 1131.2,858.802 1096.27,878.789 "/>
<polyline clip-path="url(#clip692)" style="stroke:#000000; stroke-linecap:round; stroke-linejoin:round; stroke-width:4; stroke-opacity:1; fill:none" points="1131.2,858.802 1119.98,859.432 "/>
<polyline clip-path="url(#clip692)" style="stroke:#000000; stroke-linecap:round; stroke-linejoin:round; stroke-width:4; stroke-opacity:1; fill:none" points="1737.68,262.317 1725.08,272.73 1712.49,283.135 1699.94,293.525 1687.44,303.894 1675.01,314.233 1662.66,324.536 1650.42,334.794 1638.29,345.002 1626.3,355.15 1614.47,365.233 1602.8,375.242 1591.33,385.171 1580.06,395.012 1569.01,404.758 1558.2,414.401 1547.64,423.934 1537.36,433.349 1527.37,442.641 1517.69,451.8 1508.33,460.82 1499.31,469.693 1490.65,478.413 1482.37,486.971 1474.48,495.36 1467,503.574 1459.92,511.613 1453.25,519.483 1446.94,527.191 1441,534.746 1435.39,542.154 1430.11,549.423 1425.14,556.56 1420.46,563.572 1416.05,570.468 1411.9,577.253 1407.98,583.935 1404.29,590.523 1400.81,597.022 1397.51,603.441 1394.38,609.786 1391.4,616.065 1388.57,622.286 1385.85,628.456 1383.23,634.581 1380.7,640.67 1378.24,646.73 1375.83,652.767 1373.45,658.79 1371.09,664.806 "/>
<polyline clip-path="url(#clip692)" style="stroke:#000000; stroke-linecap:round; stroke-linejoin:round; stroke-width:4; stroke-opacity:1; fill:none" points="1400.99,637.865 1371.09,664.806 1367.48,624.719 "/>
<polyline clip-path="url(#clip692)" style="stroke:#000000; stroke-linecap:round; stroke-linejoin:round; stroke-width:4; stroke-opacity:1; fill:none" points="1371.09,664.806 1373.45,658.79 "/>
<path clip-path="url(#clip692)" d="M1450.52 805.391 L1450 792.351 L1448.45 779.394 L1445.87 766.6 L1442.29 754.053 L1437.72 741.829 L1432.19 730.008 L1425.74 718.663 L1418.41 707.867 L1410.24 697.687 L1401.29 688.188 L1391.62 679.43 L1381.28 671.468 L1370.34 664.353 L1358.87 658.13 L1346.94 652.838 L1334.62 648.51 L1322.01 645.174 L1309.17 642.852 L1296.18 641.556 L1283.13 641.297 L1270.11 642.075 L1257.18 643.885 L1244.44 646.717 L1231.97 650.552 L1219.84 655.366 L1208.13 661.128 L1196.92 667.802 L1186.27 675.346 L1176.25 683.713 L1166.93 692.848 L1158.37 702.696 L1150.61 713.192 L1143.72 724.271 L1137.72 735.864 L1132.67 747.896 L1128.59 760.291 L1125.5 772.971 L1123.44 785.857 L1122.4 798.866 L1122.4 811.916 L1123.44 824.925 L1125.5 837.81 L1128.59 850.491 L1132.67 862.886 L1137.72 874.918 L1143.72 886.51 L1150.61 897.59 L1158.37 908.086 L1166.93 917.933 L1176.25 927.069 L1186.27 935.435 L1196.92 942.98 L1208.13 949.654 L1219.84 955.416 L1231.97 960.23 L1244.44 964.065 L1257.18 966.896 L1270.11 968.707 L1283.13 969.485 L1296.18 969.225 L1309.17 967.93 L1322.01 965.607 L1334.62 962.271 L1346.94 957.944 L1358.87 952.651 L1370.34 946.428 L1381.28 939.313 L1391.62 931.352 L1401.29 922.594 L1410.24 913.095 L1418.41 902.915 L1425.74 892.118 L1432.19 880.774 L1437.72 868.952 L1442.29 856.729 L1445.87 844.181 L1448.45 831.388 L1450 818.431 L1450.52 805.391 L1450.52 805.391  Z" fill="#009af9" fill-rule="evenodd" fill-opacity="1"/>
<polyline clip-path="url(#clip692)" style="stroke:#000000; stroke-linecap:round; stroke-linejoin:round; stroke-width:4; stroke-opacity:1; fill:none" points="1450.52,805.391 1450,792.351 1448.45,779.394 1445.87,766.6 1442.29,754.053 1437.72,741.829 1432.19,730.008 1425.74,718.663 1418.41,707.867 1410.24,697.687 1401.29,688.188 1391.62,679.43 1381.28,671.468 1370.34,664.353 1358.87,658.13 1346.94,652.838 1334.62,648.51 1322.01,645.174 1309.17,642.852 1296.18,641.556 1283.13,641.297 1270.11,642.075 1257.18,643.885 1244.44,646.717 1231.97,650.552 1219.84,655.366 1208.13,661.128 1196.92,667.802 1186.27,675.346 1176.25,683.713 1166.93,692.848 1158.37,702.696 1150.61,713.192 1143.72,724.271 1137.72,735.864 1132.67,747.896 1128.59,760.291 1125.5,772.971 1123.44,785.857 1122.4,798.866 1122.4,811.916 1123.44,824.925 1125.5,837.81 1128.59,850.491 1132.67,862.886 1137.72,874.918 1143.72,886.51 1150.61,897.59 1158.37,908.086 1166.93,917.933 1176.25,927.069 1186.27,935.435 1196.92,942.98 1208.13,949.654 1219.84,955.416 1231.97,960.23 1244.44,964.065 1257.18,966.896 1270.11,968.707 1283.13,969.485 1296.18,969.225 1309.17,967.93 1322.01,965.607 1334.62,962.271 1346.94,957.944 1358.87,952.651 1370.34,946.428 1381.28,939.313 1391.62,931.352 1401.29,922.594 1410.24,913.095 1418.41,902.915 1425.74,892.118 1432.19,880.774 1437.72,868.952 1442.29,856.729 1445.87,844.181 1448.45,831.388 1450,818.431 1450.52,805.391 "/>
<path clip-path="url(#clip692)" d="M826.444 1337.68 L825.925 1324.64 L824.372 1311.69 L821.794 1298.89 L818.208 1286.34 L813.636 1274.12 L808.108 1262.3 L801.658 1250.96 L794.327 1240.16 L786.161 1229.98 L777.213 1220.48 L767.538 1211.72 L757.197 1203.76 L746.257 1196.65 L734.786 1190.42 L722.858 1185.13 L710.546 1180.8 L697.929 1177.47 L685.087 1175.14 L672.102 1173.85 L659.054 1173.59 L646.027 1174.37 L633.103 1176.18 L620.364 1179.01 L607.89 1182.84 L595.76 1187.66 L584.051 1193.42 L572.836 1200.09 L562.188 1207.64 L552.172 1216 L542.853 1225.14 L534.289 1234.99 L526.535 1245.48 L519.639 1256.56 L513.645 1268.16 L508.591 1280.19 L504.509 1292.58 L501.425 1305.26 L499.357 1318.15 L498.321 1331.16 L498.321 1344.21 L499.357 1357.22 L501.425 1370.1 L504.509 1382.78 L508.591 1395.18 L513.645 1407.21 L519.639 1418.8 L526.535 1429.88 L534.289 1440.38 L542.853 1450.23 L552.172 1459.36 L562.188 1467.73 L572.836 1475.27 L584.051 1481.95 L595.76 1487.71 L607.89 1492.52 L620.364 1496.36 L633.103 1499.19 L646.027 1501 L659.054 1501.78 L672.102 1501.52 L685.087 1500.22 L697.929 1497.9 L710.546 1494.56 L722.858 1490.24 L734.786 1484.94 L746.257 1478.72 L757.197 1471.61 L767.538 1463.64 L777.213 1454.89 L786.161 1445.39 L794.327 1435.21 L801.658 1424.41 L808.108 1413.07 L813.636 1401.24 L818.208 1389.02 L821.794 1376.47 L824.372 1363.68 L825.925 1350.72 L826.444 1337.68 L826.444 1337.68  Z" fill="#009af9" fill-rule="evenodd" fill-opacity="1"/>
<polyline clip-path="url(#clip692)" style="stroke:#000000; stroke-linecap:round; stroke-linejoin:round; stroke-width:4; stroke-opacity:1; fill:none" points="826.444,1337.68 825.925,1324.64 824.372,1311.69 821.794,1298.89 818.208,1286.34 813.636,1274.12 808.108,1262.3 801.658,1250.96 794.327,1240.16 786.161,1229.98 777.213,1220.48 767.538,1211.72 757.197,1203.76 746.257,1196.65 734.786,1190.42 722.858,1185.13 710.546,1180.8 697.929,1177.47 685.087,1175.14 672.102,1173.85 659.054,1173.59 646.027,1174.37 633.103,1176.18 620.364,1179.01 607.89,1182.84 595.76,1187.66 584.051,1193.42 572.836,1200.09 562.188,1207.64 552.172,1216 542.853,1225.14 534.289,1234.99 526.535,1245.48 519.639,1256.56 513.645,1268.16 508.591,1280.19 504.509,1292.58 501.425,1305.26 499.357,1318.15 498.321,1331.16 498.321,1344.21 499.357,1357.22 501.425,1370.1 504.509,1382.78 508.591,1395.18 513.645,1407.21 519.639,1418.8 526.535,1429.88 534.289,1440.38 542.853,1450.23 552.172,1459.36 562.188,1467.73 572.836,1475.27 584.051,1481.95 595.76,1487.71 607.89,1492.52 620.364,1496.36 633.103,1499.19 646.027,1501 659.054,1501.78 672.102,1501.52 685.087,1500.22 697.929,1497.9 710.546,1494.56 722.858,1490.24 734.786,1484.94 746.257,1478.72 757.197,1471.61 767.538,1463.64 777.213,1454.89 786.161,1445.39 794.327,1435.21 801.658,1424.41 808.108,1413.07 813.636,1401.24 818.208,1389.02 821.794,1376.47 824.372,1363.68 825.925,1350.72 826.444,1337.68 "/>
<path clip-path="url(#clip692)" d="M1901.81 262.317 L1901.29 249.277 L1899.74 236.32 L1897.16 223.527 L1893.57 210.979 L1889 198.756 L1883.47 186.934 L1877.02 175.59 L1869.69 164.793 L1861.53 154.613 L1852.58 145.114 L1842.9 136.356 L1832.56 128.395 L1821.62 121.28 L1810.15 115.057 L1798.22 109.764 L1785.91 105.437 L1773.29 102.101 L1760.45 99.778 L1747.47 98.4827 L1734.42 98.2232 L1721.39 99.0012 L1708.47 100.812 L1695.73 103.643 L1683.26 107.478 L1671.13 112.292 L1659.42 118.054 L1648.2 124.728 L1637.55 132.273 L1627.54 140.639 L1618.22 149.775 L1609.65 159.622 L1601.9 170.118 L1595 181.198 L1589.01 192.79 L1583.96 204.822 L1579.87 217.217 L1576.79 229.898 L1574.72 242.783 L1573.69 255.792 L1573.69 268.842 L1574.72 281.851 L1576.79 294.737 L1579.87 307.417 L1583.96 319.812 L1589.01 331.844 L1595 343.437 L1601.9 354.516 L1609.65 365.012 L1618.22 374.86 L1627.54 383.995 L1637.55 392.362 L1648.2 399.906 L1659.42 406.58 L1671.13 412.343 L1683.26 417.156 L1695.73 420.991 L1708.47 423.823 L1721.39 425.633 L1734.42 426.411 L1747.47 426.152 L1760.45 424.856 L1773.29 422.534 L1785.91 419.198 L1798.22 414.87 L1810.15 409.578 L1821.62 403.355 L1832.56 396.24 L1842.9 388.278 L1852.58 379.52 L1861.53 370.021 L1869.69 359.841 L1877.02 349.045 L1883.47 337.7 L1889 325.879 L1893.57 313.655 L1897.16 301.108 L1899.74 288.315 L1901.29 275.357 L1901.81 262.317 L1901.81 262.317  Z" fill="#009af9" fill-rule="evenodd" fill-opacity="1"/>
<polyline clip-path="url(#clip692)" style="stroke:#000000; stroke-linecap:round; stroke-linejoin:round; stroke-width:4; stroke-opacity:1; fill:none" points="1901.81,262.317 1901.29,249.277 1899.74,236.32 1897.16,223.527 1893.57,210.979 1889,198.756 1883.47,186.934 1877.02,175.59 1869.69,164.793 1861.53,154.613 1852.58,145.114 1842.9,136.356 1832.56,128.395 1821.62,121.28 1810.15,115.057 1798.22,109.764 1785.91,105.437 1773.29,102.101 1760.45,99.778 1747.47,98.4827 1734.42,98.2232 1721.39,99.0012 1708.47,100.812 1695.73,103.643 1683.26,107.478 1671.13,112.292 1659.42,118.054 1648.2,124.728 1637.55,132.273 1627.54,140.639 1618.22,149.775 1609.65,159.622 1601.9,170.118 1595,181.198 1589.01,192.79 1583.96,204.822 1579.87,217.217 1576.79,229.898 1574.72,242.783 1573.69,255.792 1573.69,268.842 1574.72,281.851 1576.79,294.737 1579.87,307.417 1583.96,319.812 1589.01,331.844 1595,343.437 1601.9,354.516 1609.65,365.012 1618.22,374.86 1627.54,383.995 1637.55,392.362 1648.2,399.906 1659.42,406.58 1671.13,412.343 1683.26,417.156 1695.73,420.991 1708.47,423.823 1721.39,425.633 1734.42,426.411 1747.47,426.152 1760.45,424.856 1773.29,422.534 1785.91,419.198 1798.22,414.87 1810.15,409.578 1821.62,403.355 1832.56,396.24 1842.9,388.278 1852.58,379.52 1861.53,370.021 1869.69,359.841 1877.02,349.045 1883.47,337.7 1889,325.879 1893.57,313.655 1897.16,301.108 1899.74,288.315 1901.29,275.357 1901.81,262.317 "/>
<circle clip-path="url(#clip692)" style="fill:#009af9; stroke:none; fill-opacity:0" cx="1286.4" cy="805.391" r="2"/>
<circle clip-path="url(#clip692)" style="fill:#009af9; stroke:none; fill-opacity:0" cx="662.317" cy="1337.68" r="2"/>
<circle clip-path="url(#clip692)" style="fill:#009af9; stroke:none; fill-opacity:0" cx="1737.68" cy="262.317" r="2"/>
<path clip-path="url(#clip690)" d="M1233.87 806.819 L1233.87 820.511 L1230.14 820.511 L1230.14 806.94 Q1230.14 803.72 1228.88 802.12 Q1227.63 800.52 1225.12 800.52 Q1222.1 800.52 1220.36 802.444 Q1218.61 804.368 1218.61 807.69 L1218.61 820.511 L1214.87 820.511 L1214.87 797.826 L1218.61 797.826 L1218.61 801.35 Q1219.95 799.304 1221.75 798.292 Q1223.58 797.279 1225.95 797.279 Q1229.86 797.279 1231.86 799.709 Q1233.87 802.12 1233.87 806.819 Z" fill="#000000" fill-rule="nonzero" fill-opacity="1" /><path clip-path="url(#clip690)" d="M1250.09 800.439 Q1247.09 800.439 1245.35 802.788 Q1243.61 805.117 1243.61 809.189 Q1243.61 813.26 1245.33 815.609 Q1247.07 817.939 1250.09 817.939 Q1253.07 817.939 1254.81 815.589 Q1256.55 813.239 1256.55 809.189 Q1256.55 805.158 1254.81 802.808 Q1253.07 800.439 1250.09 800.439 M1250.09 797.279 Q1254.95 797.279 1257.73 800.439 Q1260.5 803.598 1260.5 809.189 Q1260.5 814.759 1257.73 817.939 Q1254.95 821.098 1250.09 821.098 Q1245.21 821.098 1242.43 817.939 Q1239.68 814.759 1239.68 809.189 Q1239.68 803.598 1242.43 800.439 Q1245.21 797.279 1250.09 797.279 Z" fill="#000000" fill-rule="nonzero" fill-opacity="1" /><path clip-path="url(#clip690)" d="M1281.61 801.269 L1281.61 788.995 L1285.33 788.995 L1285.33 820.511 L1281.61 820.511 L1281.61 817.108 Q1280.43 819.134 1278.63 820.126 Q1276.85 821.098 1274.33 821.098 Q1270.22 821.098 1267.63 817.817 Q1265.06 814.536 1265.06 809.189 Q1265.06 803.841 1267.63 800.56 Q1270.22 797.279 1274.33 797.279 Q1276.85 797.279 1278.63 798.271 Q1280.43 799.244 1281.61 801.269 M1268.91 809.189 Q1268.91 813.3 1270.59 815.65 Q1272.29 817.979 1275.25 817.979 Q1278.2 817.979 1279.9 815.65 Q1281.61 813.3 1281.61 809.189 Q1281.61 805.077 1279.9 802.748 Q1278.2 800.398 1275.25 800.398 Q1272.29 800.398 1270.59 802.748 Q1268.91 805.077 1268.91 809.189 Z" fill="#000000" fill-rule="nonzero" fill-opacity="1" /><path clip-path="url(#clip690)" d="M1312.41 808.237 L1312.41 810.059 L1295.28 810.059 Q1295.52 813.908 1297.59 815.933 Q1299.67 817.939 1303.38 817.939 Q1305.53 817.939 1307.53 817.412 Q1309.56 816.885 1311.54 815.832 L1311.54 819.356 Q1309.54 820.207 1307.43 820.653 Q1305.32 821.098 1303.16 821.098 Q1297.73 821.098 1294.55 817.939 Q1291.39 814.779 1291.39 809.391 Q1291.39 803.821 1294.39 800.56 Q1297.4 797.279 1302.51 797.279 Q1307.09 797.279 1309.74 800.236 Q1312.41 803.173 1312.41 808.237 M1308.69 807.143 Q1308.65 804.084 1306.96 802.262 Q1305.3 800.439 1302.55 800.439 Q1299.43 800.439 1297.55 802.201 Q1295.68 803.963 1295.4 807.163 L1308.69 807.143 Z" fill="#000000" fill-rule="nonzero" fill-opacity="1" /><path clip-path="url(#clip690)" d="M1335.77 827.397 L1335.77 830.294 L1314.22 830.294 L1314.22 827.397 L1335.77 827.397 Z" fill="#000000" fill-rule="nonzero" fill-opacity="1" /><path clip-path="url(#clip690)" d="M1340.51 817.068 L1347.19 817.068 L1347.19 793.998 L1339.92 795.456 L1339.92 791.729 L1347.15 790.271 L1351.24 790.271 L1351.24 817.068 L1357.93 817.068 L1357.93 820.511 L1340.51 820.511 L1340.51 817.068 Z" fill="#000000" fill-rule="nonzero" fill-opacity="1" /><path clip-path="url(#clip690)" d="M609.949 1339.11 L609.949 1352.8 L606.222 1352.8 L606.222 1339.23 Q606.222 1336.01 604.967 1334.41 Q603.711 1332.81 601.199 1332.81 Q598.181 1332.81 596.439 1334.74 Q594.697 1336.66 594.697 1339.98 L594.697 1352.8 L590.95 1352.8 L590.95 1330.12 L594.697 1330.12 L594.697 1333.64 Q596.034 1331.6 597.837 1330.58 Q599.66 1329.57 602.03 1329.57 Q605.939 1329.57 607.944 1332 Q609.949 1334.41 609.949 1339.11 Z" fill="#000000" fill-rule="nonzero" fill-opacity="1" /><path clip-path="url(#clip690)" d="M626.173 1332.73 Q623.175 1332.73 621.433 1335.08 Q619.692 1337.41 619.692 1341.48 Q619.692 1345.55 621.413 1347.9 Q623.155 1350.23 626.173 1350.23 Q629.15 1350.23 630.892 1347.88 Q632.634 1345.53 632.634 1341.48 Q632.634 1337.45 630.892 1335.1 Q629.15 1332.73 626.173 1332.73 M626.173 1329.57 Q631.034 1329.57 633.809 1332.73 Q636.584 1335.89 636.584 1341.48 Q636.584 1347.05 633.809 1350.23 Q631.034 1353.39 626.173 1353.39 Q621.292 1353.39 618.517 1350.23 Q615.762 1347.05 615.762 1341.48 Q615.762 1335.89 618.517 1332.73 Q621.292 1329.57 626.173 1329.57 Z" fill="#000000" fill-rule="nonzero" fill-opacity="1" /><path clip-path="url(#clip690)" d="M657.689 1333.56 L657.689 1321.29 L661.416 1321.29 L661.416 1352.8 L657.689 1352.8 L657.689 1349.4 Q656.514 1351.43 654.712 1352.42 Q652.929 1353.39 650.418 1353.39 Q646.306 1353.39 643.713 1350.11 Q641.141 1346.83 641.141 1341.48 Q641.141 1336.13 643.713 1332.85 Q646.306 1329.57 650.418 1329.57 Q652.929 1329.57 654.712 1330.56 Q656.514 1331.54 657.689 1333.56 M644.989 1341.48 Q644.989 1345.59 646.671 1347.94 Q648.372 1350.27 651.329 1350.27 Q654.286 1350.27 655.988 1347.94 Q657.689 1345.59 657.689 1341.48 Q657.689 1337.37 655.988 1335.04 Q654.286 1332.69 651.329 1332.69 Q648.372 1332.69 646.671 1335.04 Q644.989 1337.37 644.989 1341.48 Z" fill="#000000" fill-rule="nonzero" fill-opacity="1" /><path clip-path="url(#clip690)" d="M688.496 1340.53 L688.496 1342.35 L671.361 1342.35 Q671.604 1346.2 673.67 1348.23 Q675.756 1350.23 679.463 1350.23 Q681.61 1350.23 683.615 1349.7 Q685.64 1349.18 687.625 1348.12 L687.625 1351.65 Q685.62 1352.5 683.514 1352.94 Q681.407 1353.39 679.24 1353.39 Q673.812 1353.39 670.632 1350.23 Q667.472 1347.07 667.472 1341.68 Q667.472 1336.11 670.47 1332.85 Q673.488 1329.57 678.592 1329.57 Q683.169 1329.57 685.823 1332.53 Q688.496 1335.46 688.496 1340.53 M684.769 1339.43 Q684.729 1336.38 683.048 1334.55 Q681.387 1332.73 678.632 1332.73 Q675.513 1332.73 673.629 1334.49 Q671.766 1336.25 671.482 1339.46 L684.769 1339.43 Z" fill="#000000" fill-rule="nonzero" fill-opacity="1" /><path clip-path="url(#clip690)" d="M711.85 1359.69 L711.85 1362.59 L690.299 1362.59 L690.299 1359.69 L711.85 1359.69 Z" fill="#000000" fill-rule="nonzero" fill-opacity="1" /><path clip-path="url(#clip690)" d="M719.405 1349.36 L733.684 1349.36 L733.684 1352.8 L714.483 1352.8 L714.483 1349.36 Q716.812 1346.95 720.822 1342.9 Q724.853 1338.83 725.886 1337.65 Q727.851 1335.44 728.62 1333.93 Q729.41 1332.39 729.41 1330.91 Q729.41 1328.5 727.709 1326.98 Q726.028 1325.46 723.314 1325.46 Q721.39 1325.46 719.243 1326.13 Q717.116 1326.8 714.685 1328.15 L714.685 1324.02 Q717.156 1323.03 719.303 1322.52 Q721.45 1322.02 723.233 1322.02 Q727.932 1322.02 730.727 1324.37 Q733.522 1326.71 733.522 1330.64 Q733.522 1332.51 732.813 1334.19 Q732.124 1335.85 730.281 1338.12 Q729.775 1338.71 727.061 1341.52 Q724.347 1344.32 719.405 1349.36 Z" fill="#000000" fill-rule="nonzero" fill-opacity="1" /><path clip-path="url(#clip690)" d="M1684.9 263.745 L1684.9 277.437 L1681.17 277.437 L1681.17 263.867 Q1681.17 260.646 1679.92 259.046 Q1678.66 257.446 1676.15 257.446 Q1673.13 257.446 1671.39 259.37 Q1669.65 261.294 1669.65 264.616 L1669.65 277.437 L1665.9 277.437 L1665.9 254.752 L1669.65 254.752 L1669.65 258.276 Q1670.98 256.231 1672.79 255.218 Q1674.61 254.205 1676.98 254.205 Q1680.89 254.205 1682.89 256.636 Q1684.9 259.046 1684.9 263.745 Z" fill="#000000" fill-rule="nonzero" fill-opacity="1" /><path clip-path="url(#clip690)" d="M1701.12 257.365 Q1698.13 257.365 1696.38 259.715 Q1694.64 262.044 1694.64 266.115 Q1694.64 270.186 1696.36 272.536 Q1698.11 274.865 1701.12 274.865 Q1704.1 274.865 1705.84 272.515 Q1707.58 270.166 1707.58 266.115 Q1707.58 262.084 1705.84 259.735 Q1704.1 257.365 1701.12 257.365 M1701.12 254.205 Q1705.98 254.205 1708.76 257.365 Q1711.53 260.525 1711.53 266.115 Q1711.53 271.685 1708.76 274.865 Q1705.98 278.025 1701.12 278.025 Q1696.24 278.025 1693.47 274.865 Q1690.71 271.685 1690.71 266.115 Q1690.71 260.525 1693.47 257.365 Q1696.24 254.205 1701.12 254.205 Z" fill="#000000" fill-rule="nonzero" fill-opacity="1" /><path clip-path="url(#clip690)" d="M1732.64 258.195 L1732.64 245.921 L1736.37 245.921 L1736.37 277.437 L1732.64 277.437 L1732.64 274.034 Q1731.46 276.06 1729.66 277.052 Q1727.88 278.025 1725.37 278.025 Q1721.26 278.025 1718.66 274.743 Q1716.09 271.462 1716.09 266.115 Q1716.09 260.768 1718.66 257.487 Q1721.26 254.205 1725.37 254.205 Q1727.88 254.205 1729.66 255.198 Q1731.46 256.17 1732.64 258.195 M1719.94 266.115 Q1719.94 270.227 1721.62 272.576 Q1723.32 274.905 1726.28 274.905 Q1729.24 274.905 1730.94 272.576 Q1732.64 270.227 1732.64 266.115 Q1732.64 262.003 1730.94 259.674 Q1729.24 257.324 1726.28 257.324 Q1723.32 257.324 1721.62 259.674 Q1719.94 262.003 1719.94 266.115 Z" fill="#000000" fill-rule="nonzero" fill-opacity="1" /><path clip-path="url(#clip690)" d="M1763.45 265.163 L1763.45 266.986 L1746.31 266.986 Q1746.55 270.834 1748.62 272.86 Q1750.71 274.865 1754.41 274.865 Q1756.56 274.865 1758.57 274.338 Q1760.59 273.812 1762.58 272.758 L1762.58 276.283 Q1760.57 277.133 1758.46 277.579 Q1756.36 278.025 1754.19 278.025 Q1748.76 278.025 1745.58 274.865 Q1742.42 271.705 1742.42 266.317 Q1742.42 260.747 1745.42 257.487 Q1748.44 254.205 1753.54 254.205 Q1758.12 254.205 1760.77 257.162 Q1763.45 260.099 1763.45 265.163 M1759.72 264.069 Q1759.68 261.011 1758 259.188 Q1756.34 257.365 1753.58 257.365 Q1750.46 257.365 1748.58 259.127 Q1746.72 260.889 1746.43 264.089 L1759.72 264.069 Z" fill="#000000" fill-rule="nonzero" fill-opacity="1" /><path clip-path="url(#clip690)" d="M1786.8 284.324 L1786.8 287.22 L1765.25 287.22 L1765.25 284.324 L1786.8 284.324 Z" fill="#000000" fill-rule="nonzero" fill-opacity="1" /><path clip-path="url(#clip690)" d="M1803.23 261.132 Q1806.16 261.76 1807.8 263.745 Q1809.46 265.73 1809.46 268.647 Q1809.46 273.123 1806.39 275.574 Q1803.31 278.025 1797.64 278.025 Q1795.73 278.025 1793.71 277.64 Q1791.7 277.275 1789.55 276.526 L1789.55 272.576 Q1791.26 273.569 1793.28 274.075 Q1795.31 274.581 1797.51 274.581 Q1801.36 274.581 1803.37 273.062 Q1805.39 271.543 1805.39 268.647 Q1805.39 265.973 1803.51 264.474 Q1801.65 262.955 1798.3 262.955 L1794.78 262.955 L1794.78 259.593 L1798.47 259.593 Q1801.48 259.593 1803.08 258.398 Q1804.68 257.183 1804.68 254.914 Q1804.68 252.585 1803.02 251.349 Q1801.38 250.094 1798.3 250.094 Q1796.62 250.094 1794.7 250.458 Q1792.78 250.823 1790.47 251.592 L1790.47 247.947 Q1792.8 247.298 1794.82 246.974 Q1796.87 246.65 1798.67 246.65 Q1803.33 246.65 1806.04 248.777 Q1808.76 250.884 1808.76 254.489 Q1808.76 257 1807.32 258.742 Q1805.88 260.464 1803.23 261.132 Z" fill="#000000" fill-rule="nonzero" fill-opacity="1" /></svg>
