<?xml version="1.0" encoding="UTF-8"?>
<!DOCTYPE svg PUBLIC "-//W3C//DTD SVG 1.1//EN"
 "http://www.w3.org/Graphics/SVG/1.1/DTD/svg11.dtd">
<svg xmlns="http://www.w3.org/2000/svg" version="1.1"
     width="180mm" height="25mm" viewBox="0 0 100 1" stroke="none"
     preserveAspectRatio="none" shape-rendering="crispEdges">
<defs>
    <pattern id="pat_aczgI" width=".2" height=".2"
             patternUnits="userSpaceOnUse" patternTransform="scale(13.889,1)" >
        <path d="M.1,0h.1v.1h-.2v.1h.1z" fill="#999" opacity=".5" />
    </pattern>
</defs>
<rect width="100" height="1" fill="url(#pat_aczgI)" />
<path d="M1,.46V1h-1V.54z" fill="#E8FA5B" />
<path d="M0,0h1v1h-1z" fill="#E8FA5B" fill-opacity="1" />
<path d="M2,.46V1h-1V.54z" fill="#EAF658" />
<path d="M1,0h1v1h-1z" fill="#EAF658" fill-opacity="1" />
<path d="M3,.46V1h-1V.54z" fill="#ECF256" />
<path d="M2,0h1v1h-1z" fill="#ECF256" fill-opacity="1" />
<path d="M4,.46V1h-1V.54z" fill="#EEED54" />
<path d="M3,0h1v1h-1z" fill="#EEED54" fill-opacity="1" />
<path d="M5,.46V1h-1V.54z" fill="#F0E951" />
<path d="M4,0h1v1h-1z" fill="#F0E951" fill-opacity="1" />
<path d="M6,.46V1h-1V.54z" fill="#F1E44F" />
<path d="M5,0h1v1h-1z" fill="#F1E44F" fill-opacity="1" />
<path d="M7,.46V1h-1V.54z" fill="#F3E04D" />
<path d="M6,0h1v1h-1z" fill="#F3E04D" fill-opacity="1" />
<path d="M8,.46V1h-1V.54z" fill="#F4DC4B" />
<path d="M7,0h1v1h-1z" fill="#F4DC4B" fill-opacity="1" />
<path d="M9,.46V1h-1V.54z" fill="#F5D748" />
<path d="M8,0h1v1h-1z" fill="#F5D748" fill-opacity="1" />
<path d="M10,.46V1h-1V.54z" fill="#F6D347" />
<path d="M9,0h1v1h-1z" fill="#F6D347" fill-opacity="1" />
<path d="M11,.46V1h-1V.54z" fill="#F7CF45" />
<path d="M10,0h1v1h-1z" fill="#F7CF45" fill-opacity="1" />
<path d="M12,.46V1h-1V.54z" fill="#F8CA43" />
<path d="M11,0h1v1h-1z" fill="#F8CA43" fill-opacity="1" />
<path d="M13,.46V1h-1V.54z" fill="#F9C641" />
<path d="M12,0h1v1h-1z" fill="#F9C641" fill-opacity="1" />
<path d="M14,.46V1h-1V.54z" fill="#FAC240" />
<path d="M13,0h1v1h-1z" fill="#FAC240" fill-opacity="1" />
<path d="M15,.46V1h-1V.54z" fill="#FABE3F" />
<path d="M14,0h1v1h-1z" fill="#FABE3F" fill-opacity="1" />
<path d="M16,.46V1h-1V.54z" fill="#FBBA3E" />
<path d="M15,0h1v1h-1z" fill="#FBBA3E" fill-opacity="1" />
<path d="M17,.46V1h-1V.54z" fill="#FBB53D" />
<path d="M16,0h1v1h-1z" fill="#FBB53D" fill-opacity="1" />
<path d="M18,.46V1h-1V.54z" fill="#FCB13D" />
<path d="M17,0h1v1h-1z" fill="#FCB13D" fill-opacity="1" />
<path d="M19,.46V1h-1V.54z" fill="#FCAD3C" />
<path d="M18,0h1v1h-1z" fill="#FCAD3C" fill-opacity="1" />
<path d="M20,.46V1h-1V.54z" fill="#FCA93C" />
<path d="M19,0h1v1h-1z" fill="#FCA93C" fill-opacity="1" />
<path d="M21,.46V1h-1V.54z" fill="#FCA53D" />
<path d="M20,0h1v1h-1z" fill="#FCA53D" fill-opacity="1" />
<path d="M22,.46V1h-1V.54z" fill="#FBA13D" />
<path d="M21,0h1v1h-1z" fill="#FBA13D" fill-opacity="1" />
<path d="M23,.46V1h-1V.54z" fill="#FB9D3E" />
<path d="M22,0h1v1h-1z" fill="#FB9D3E" fill-opacity="1" />
<path d="M24,.46V1h-1V.54z" fill="#FB993F" />
<path d="M23,0h1v1h-1z" fill="#FB993F" fill-opacity="1" />
<path d="M25,.46V1h-1V.54z" fill="#FA9540" />
<path d="M24,0h1v1h-1z" fill="#FA9540" fill-opacity="1" />
<path d="M26,.46V1h-1V.54z" fill="#F99142" />
<path d="M25,0h1v1h-1z" fill="#F99142" fill-opacity="1" />
<path d="M27,.46V1h-1V.54z" fill="#F88E44" />
<path d="M26,0h1v1h-1z" fill="#F88E44" fill-opacity="1" />
<path d="M28,.46V1h-1V.54z" fill="#F78A46" />
<path d="M27,0h1v1h-1z" fill="#F78A46" fill-opacity="1" />
<path d="M29,.46V1h-1V.54z" fill="#F58749" />
<path d="M28,0h1v1h-1z" fill="#F58749" fill-opacity="1" />
<path d="M30,.46V1h-1V.54z" fill="#F4844C" />
<path d="M29,0h1v1h-1z" fill="#F4844C" fill-opacity="1" />
<path d="M31,.46V1h-1V.54z" fill="#F2814E" />
<path d="M30,0h1v1h-1z" fill="#F2814E" fill-opacity="1" />
<path d="M32,.46V1h-1V.54z" fill="#EF7E51" />
<path d="M31,0h1v1h-1z" fill="#EF7E51" fill-opacity="1" />
<path d="M33,.46V1h-1V.54z" fill="#ED7B54" />
<path d="M32,0h1v1h-1z" fill="#ED7B54" fill-opacity="1" />
<path d="M34,.46V1h-1V.54z" fill="#EB7958" />
<path d="M33,0h1v1h-1z" fill="#EB7958" fill-opacity="1" />
<path d="M35,.46V1h-1V.54z" fill="#E8765B" />
<path d="M34,0h1v1h-1z" fill="#E8765B" fill-opacity="1" />
<path d="M36,.46V1h-1V.54z" fill="#E5745E" />
<path d="M35,0h1v1h-1z" fill="#E5745E" fill-opacity="1" />
<path d="M37,.46V1h-1V.54z" fill="#E27261" />
<path d="M36,0h1v1h-1z" fill="#E27261" fill-opacity="1" />
<path d="M38,.46V1h-1V.54z" fill="#DF7064" />
<path d="M37,0h1v1h-1z" fill="#DF7064" fill-opacity="1" />
<path d="M39,.46V1h-1V.54z" fill="#DB6E67" />
<path d="M38,0h1v1h-1z" fill="#DB6E67" fill-opacity="1" />
<path d="M40,.46V1h-1V.54z" fill="#D86D6A" />
<path d="M39,0h1v1h-1z" fill="#D86D6A" fill-opacity="1" />
<path d="M41,.46V1h-1V.54z" fill="#D46B6D" />
<path d="M40,0h1v1h-1z" fill="#D46B6D" fill-opacity="1" />
<path d="M42,.46V1h-1V.54z" fill="#D06A70" />
<path d="M41,0h1v1h-1z" fill="#D06A70" fill-opacity="1" />
<path d="M43,.46V1h-1V.54z" fill="#CD6873" />
<path d="M42,0h1v1h-1z" fill="#CD6873" fill-opacity="1" />
<path d="M44,.46V1h-1V.54z" fill="#C96775" />
<path d="M43,0h1v1h-1z" fill="#C96775" fill-opacity="1" />
<path d="M45,.46V1h-1V.54z" fill="#C56677" />
<path d="M44,0h1v1h-1z" fill="#C56677" fill-opacity="1" />
<path d="M46,.46V1h-1V.54z" fill="#C1647A" />
<path d="M45,0h1v1h-1z" fill="#C1647A" fill-opacity="1" />
<path d="M47,.46V1h-1V.54z" fill="#BD637C" />
<path d="M46,0h1v1h-1z" fill="#BD637C" fill-opacity="1" />
<path d="M48,.46V1h-1V.54z" fill="#BA627E" />
<path d="M47,0h1v1h-1z" fill="#BA627E" fill-opacity="1" />
<path d="M49,.46V1h-1V.54z" fill="#B66180" />
<path d="M48,0h1v1h-1z" fill="#B66180" fill-opacity="1" />
<path d="M50,.46V1h-1V.54z" fill="#B26081" />
<path d="M49,0h1v1h-1z" fill="#B26081" fill-opacity="1" />
<path d="M51,.46V1h-1V.54z" fill="#AE5E83" />
<path d="M50,0h1v1h-1z" fill="#AE5E83" fill-opacity="1" />
<path d="M52,.46V1h-1V.54z" fill="#AA5D84" />
<path d="M51,0h1v1h-1z" fill="#AA5D84" fill-opacity="1" />
<path d="M53,.46V1h-1V.54z" fill="#A65C85" />
<path d="M52,0h1v1h-1z" fill="#A65C85" fill-opacity="1" />
<path d="M54,.46V1h-1V.54z" fill="#A25B87" />
<path d="M53,0h1v1h-1z" fill="#A25B87" fill-opacity="1" />
<path d="M55,.46V1h-1V.54z" fill="#9F5A88" />
<path d="M54,0h1v1h-1z" fill="#9F5A88" fill-opacity="1" />
<path d="M56,.46V1h-1V.54z" fill="#9B5989" />
<path d="M55,0h1v1h-1z" fill="#9B5989" fill-opacity="1" />
<path d="M57,.46V1h-1V.54z" fill="#97578A" />
<path d="M56,0h1v1h-1z" fill="#97578A" fill-opacity="1" />
<path d="M58,.46V1h-1V.54z" fill="#93568B" />
<path d="M57,0h1v1h-1z" fill="#93568B" fill-opacity="1" />
<path d="M59,.46V1h-1V.54z" fill="#90558C" />
<path d="M58,0h1v1h-1z" fill="#90558C" fill-opacity="1" />
<path d="M60,.46V1h-1V.54z" fill="#8C538C" />
<path d="M59,0h1v1h-1z" fill="#8C538C" fill-opacity="1" />
<path d="M61,.46V1h-1V.54z" fill="#89528D" />
<path d="M60,0h1v1h-1z" fill="#89528D" fill-opacity="1" />
<path d="M62,.46V1h-1V.54z" fill="#85518E" />
<path d="M61,0h1v1h-1z" fill="#85518E" fill-opacity="1" />
<path d="M63,.46V1h-1V.54z" fill="#824F8F" />
<path d="M62,0h1v1h-1z" fill="#824F8F" fill-opacity="1" />
<path d="M64,.46V1h-1V.54z" fill="#7E4E90" />
<path d="M63,0h1v1h-1z" fill="#7E4E90" fill-opacity="1" />
<path d="M65,.46V1h-1V.54z" fill="#7B4C91" />
<path d="M64,0h1v1h-1z" fill="#7B4C91" fill-opacity="1" />
<path d="M66,.46V1h-1V.54z" fill="#774B91" />
<path d="M65,0h1v1h-1z" fill="#774B91" fill-opacity="1" />
<path d="M67,.46V1h-1V.54z" fill="#744992" />
<path d="M66,0h1v1h-1z" fill="#744992" fill-opacity="1" />
<path d="M68,.46V1h-1V.54z" fill="#704793" />
<path d="M67,0h1v1h-1z" fill="#704793" fill-opacity="1" />
<path d="M69,.46V1h-1V.54z" fill="#6D4694" />
<path d="M68,0h1v1h-1z" fill="#6D4694" fill-opacity="1" />
<path d="M70,.46V1h-1V.54z" fill="#694496" />
<path d="M69,0h1v1h-1z" fill="#694496" fill-opacity="1" />
<path d="M71,.46V1h-1V.54z" fill="#664297" />
<path d="M70,0h1v1h-1z" fill="#664297" fill-opacity="1" />
<path d="M72,.46V1h-1V.54z" fill="#624198" />
<path d="M71,0h1v1h-1z" fill="#624198" fill-opacity="1" />
<path d="M73,.46V1h-1V.54z" fill="#5E3F99" />
<path d="M72,0h1v1h-1z" fill="#5E3F99" fill-opacity="1" />
<path d="M74,.46V1h-1V.54z" fill="#5B3D9B" />
<path d="M73,0h1v1h-1z" fill="#5B3D9B" fill-opacity="1" />
<path d="M75,.46V1h-1V.54z" fill="#573C9C" />
<path d="M74,0h1v1h-1z" fill="#573C9C" fill-opacity="1" />
<path d="M76,.46V1h-1V.54z" fill="#533A9D" />
<path d="M75,0h1v1h-1z" fill="#533A9D" fill-opacity="1" />
<path d="M77,.46V1h-1V.54z" fill="#4F389E" />
<path d="M76,0h1v1h-1z" fill="#4F389E" fill-opacity="1" />
<path d="M78,.46V1h-1V.54z" fill="#4A379F" />
<path d="M77,0h1v1h-1z" fill="#4A379F" fill-opacity="1" />
<path d="M79,.46V1h-1V.54z" fill="#4635A0" />
<path d="M78,0h1v1h-1z" fill="#4635A0" fill-opacity="1" />
<path d="M80,.46V1h-1V.54z" fill="#4134A0" />
<path d="M79,0h1v1h-1z" fill="#4134A0" fill-opacity="1" />
<path d="M81,.46V1h-1V.54z" fill="#3C339F" />
<path d="M80,0h1v1h-1z" fill="#3C339F" fill-opacity="1" />
<path d="M82,.46V1h-1V.54z" fill="#36339C" />
<path d="M81,0h1v1h-1z" fill="#36339C" fill-opacity="1" />
<path d="M83,.46V1h-1V.54z" fill="#303399" />
<path d="M82,0h1v1h-1z" fill="#303399" fill-opacity="1" />
<path d="M84,.46V1h-1V.54z" fill="#2A3394" />
<path d="M83,0h1v1h-1z" fill="#2A3394" fill-opacity="1" />
<path d="M85,.46V1h-1V.54z" fill="#25348E" />
<path d="M84,0h1v1h-1z" fill="#25348E" fill-opacity="1" />
<path d="M86,.46V1h-1V.54z" fill="#1F3487" />
<path d="M85,0h1v1h-1z" fill="#1F3487" fill-opacity="1" />
<path d="M87,.46V1h-1V.54z" fill="#1B3480" />
<path d="M86,0h1v1h-1z" fill="#1B3480" fill-opacity="1" />
<path d="M88,.46V1h-1V.54z" fill="#173379" />
<path d="M87,0h1v1h-1z" fill="#173379" fill-opacity="1" />
<path d="M89,.46V1h-1V.54z" fill="#133372" />
<path d="M88,0h1v1h-1z" fill="#133372" fill-opacity="1" />
<path d="M90,.46V1h-1V.54z" fill="#10326C" />
<path d="M89,0h1v1h-1z" fill="#10326C" fill-opacity="1" />
<path d="M91,.46V1h-1V.54z" fill="#0E3165" />
<path d="M90,0h1v1h-1z" fill="#0E3165" fill-opacity="1" />
<path d="M92,.46V1h-1V.54z" fill="#0B305F" />
<path d="M91,0h1v1h-1z" fill="#0B305F" fill-opacity="1" />
<path d="M93,.46V1h-1V.54z" fill="#092F59" />
<path d="M92,0h1v1h-1z" fill="#092F59" fill-opacity="1" />
<path d="M94,.46V1h-1V.54z" fill="#082D53" />
<path d="M93,0h1v1h-1z" fill="#082D53" fill-opacity="1" />
<path d="M95,.46V1h-1V.54z" fill="#072C4D" />
<path d="M94,0h1v1h-1z" fill="#072C4D" fill-opacity="1" />
<path d="M96,.46V1h-1V.54z" fill="#062A48" />
<path d="M95,0h1v1h-1z" fill="#062A48" fill-opacity="1" />
<path d="M97,.46V1h-1V.54z" fill="#052942" />
<path d="M96,0h1v1h-1z" fill="#052942" fill-opacity="1" />
<path d="M98,.46V1h-1V.54z" fill="#05273D" />
<path d="M97,0h1v1h-1z" fill="#05273D" fill-opacity="1" />
<path d="M99,.46V1h-1V.54z" fill="#042538" />
<path d="M98,0h1v1h-1z" fill="#042538" fill-opacity="1" />
<path d="M100,.46V1h-1V.54z" fill="#042333" />
<path d="M99,0h1v1h-1z" fill="#042333" fill-opacity="1" />
</svg>