<?xml version="1.0" encoding="utf-8"?>
<svg xmlns="http://www.w3.org/2000/svg" xmlns:xlink="http://www.w3.org/1999/xlink" width="600" height="400" viewBox="0 0 2400 1600">
<defs>
  <clipPath id="clip890">
    <rect x="0" y="0" width="2400" height="1600"/>
  </clipPath>
</defs>
<path clip-path="url(#clip890)" d="M0 1600 L2400 1600 L2400 0 L0 0  Z" fill="#ffffff" fill-rule="evenodd" fill-opacity="1"/>
<defs>
  <clipPath id="clip891">
    <rect x="480" y="0" width="1681" height="1600"/>
  </clipPath>
</defs>
<path clip-path="url(#clip890)" d="M192.941 419.781 L2352.76 419.781 L2352.76 47.2441 L192.941 47.2441  Z" fill="#ffffff" fill-rule="evenodd" fill-opacity="1"/>
<defs>
  <clipPath id="clip892">
    <rect x="192" y="47" width="2161" height="374"/>
  </clipPath>
</defs>
<polyline clip-path="url(#clip892)" style="stroke:#000000; stroke-linecap:round; stroke-linejoin:round; stroke-width:2; stroke-opacity:0.1; fill:none" points="254.067,419.781 254.067,47.2441 "/>
<polyline clip-path="url(#clip892)" style="stroke:#000000; stroke-linecap:round; stroke-linejoin:round; stroke-width:2; stroke-opacity:0.1; fill:none" points="763.458,419.781 763.458,47.2441 "/>
<polyline clip-path="url(#clip892)" style="stroke:#000000; stroke-linecap:round; stroke-linejoin:round; stroke-width:2; stroke-opacity:0.1; fill:none" points="1272.85,419.781 1272.85,47.2441 "/>
<polyline clip-path="url(#clip892)" style="stroke:#000000; stroke-linecap:round; stroke-linejoin:round; stroke-width:2; stroke-opacity:0.1; fill:none" points="1782.24,419.781 1782.24,47.2441 "/>
<polyline clip-path="url(#clip892)" style="stroke:#000000; stroke-linecap:round; stroke-linejoin:round; stroke-width:2; stroke-opacity:0.1; fill:none" points="2291.63,419.781 2291.63,47.2441 "/>
<polyline clip-path="url(#clip892)" style="stroke:#000000; stroke-linecap:round; stroke-linejoin:round; stroke-width:2; stroke-opacity:0.1; fill:none" points="192.941,332.562 2352.76,332.562 "/>
<polyline clip-path="url(#clip892)" style="stroke:#000000; stroke-linecap:round; stroke-linejoin:round; stroke-width:2; stroke-opacity:0.1; fill:none" points="192.941,240.97 2352.76,240.97 "/>
<polyline clip-path="url(#clip892)" style="stroke:#000000; stroke-linecap:round; stroke-linejoin:round; stroke-width:2; stroke-opacity:0.1; fill:none" points="192.941,149.379 2352.76,149.379 "/>
<polyline clip-path="url(#clip892)" style="stroke:#000000; stroke-linecap:round; stroke-linejoin:round; stroke-width:2; stroke-opacity:0.1; fill:none" points="192.941,57.7876 2352.76,57.7876 "/>
<polyline clip-path="url(#clip890)" style="stroke:#000000; stroke-linecap:round; stroke-linejoin:round; stroke-width:4; stroke-opacity:1; fill:none" points="192.941,419.781 2352.76,419.781 "/>
<polyline clip-path="url(#clip890)" style="stroke:#000000; stroke-linecap:round; stroke-linejoin:round; stroke-width:4; stroke-opacity:1; fill:none" points="254.067,419.781 254.067,400.884 "/>
<polyline clip-path="url(#clip890)" style="stroke:#000000; stroke-linecap:round; stroke-linejoin:round; stroke-width:4; stroke-opacity:1; fill:none" points="763.458,419.781 763.458,400.884 "/>
<polyline clip-path="url(#clip890)" style="stroke:#000000; stroke-linecap:round; stroke-linejoin:round; stroke-width:4; stroke-opacity:1; fill:none" points="1272.85,419.781 1272.85,400.884 "/>
<polyline clip-path="url(#clip890)" style="stroke:#000000; stroke-linecap:round; stroke-linejoin:round; stroke-width:4; stroke-opacity:1; fill:none" points="1782.24,419.781 1782.24,400.884 "/>
<polyline clip-path="url(#clip890)" style="stroke:#000000; stroke-linecap:round; stroke-linejoin:round; stroke-width:4; stroke-opacity:1; fill:none" points="2291.63,419.781 2291.63,400.884 "/>
<path clip-path="url(#clip890)" d="M231.452 450.7 Q227.841 450.7 226.012 454.265 Q224.207 457.806 224.207 464.936 Q224.207 472.042 226.012 475.607 Q227.841 479.149 231.452 479.149 Q235.086 479.149 236.892 475.607 Q238.72 472.042 238.72 464.936 Q238.72 457.806 236.892 454.265 Q235.086 450.7 231.452 450.7 M231.452 446.996 Q237.262 446.996 240.318 451.603 Q243.396 456.186 243.396 464.936 Q243.396 473.663 240.318 478.269 Q237.262 482.853 231.452 482.853 Q225.642 482.853 222.563 478.269 Q219.507 473.663 219.507 464.936 Q219.507 456.186 222.563 451.603 Q225.642 446.996 231.452 446.996 Z" fill="#000000" fill-rule="nonzero" fill-opacity="1" /><path clip-path="url(#clip890)" d="M251.614 476.302 L256.498 476.302 L256.498 482.181 L251.614 482.181 L251.614 476.302 Z" fill="#000000" fill-rule="nonzero" fill-opacity="1" /><path clip-path="url(#clip890)" d="M276.683 450.7 Q273.072 450.7 271.243 454.265 Q269.438 457.806 269.438 464.936 Q269.438 472.042 271.243 475.607 Q273.072 479.149 276.683 479.149 Q280.317 479.149 282.123 475.607 Q283.952 472.042 283.952 464.936 Q283.952 457.806 282.123 454.265 Q280.317 450.7 276.683 450.7 M276.683 446.996 Q282.493 446.996 285.549 451.603 Q288.627 456.186 288.627 464.936 Q288.627 473.663 285.549 478.269 Q282.493 482.853 276.683 482.853 Q270.873 482.853 267.794 478.269 Q264.739 473.663 264.739 464.936 Q264.739 456.186 267.794 451.603 Q270.873 446.996 276.683 446.996 Z" fill="#000000" fill-rule="nonzero" fill-opacity="1" /><path clip-path="url(#clip890)" d="M735.194 478.246 L751.513 478.246 L751.513 482.181 L729.569 482.181 L729.569 478.246 Q732.231 475.491 736.814 470.862 Q741.421 466.209 742.602 464.866 Q744.847 462.343 745.726 460.607 Q746.629 458.848 746.629 457.158 Q746.629 454.404 744.685 452.667 Q742.764 450.931 739.662 450.931 Q737.463 450.931 735.009 451.695 Q732.578 452.459 729.801 454.01 L729.801 449.288 Q732.625 448.154 735.078 447.575 Q737.532 446.996 739.569 446.996 Q744.939 446.996 748.134 449.681 Q751.328 452.367 751.328 456.857 Q751.328 458.987 750.518 460.908 Q749.731 462.806 747.625 465.399 Q747.046 466.07 743.944 469.288 Q740.842 472.482 735.194 478.246 Z" fill="#000000" fill-rule="nonzero" fill-opacity="1" /><path clip-path="url(#clip890)" d="M761.328 476.302 L766.212 476.302 L766.212 482.181 L761.328 482.181 L761.328 476.302 Z" fill="#000000" fill-rule="nonzero" fill-opacity="1" /><path clip-path="url(#clip890)" d="M776.444 447.621 L794.8 447.621 L794.8 451.556 L780.726 451.556 L780.726 460.029 Q781.745 459.681 782.763 459.519 Q783.782 459.334 784.8 459.334 Q790.587 459.334 793.967 462.505 Q797.347 465.677 797.347 471.093 Q797.347 476.672 793.874 479.774 Q790.402 482.853 784.083 482.853 Q781.907 482.853 779.638 482.482 Q777.393 482.112 774.986 481.371 L774.986 476.672 Q777.069 477.806 779.291 478.362 Q781.513 478.917 783.99 478.917 Q787.995 478.917 790.333 476.811 Q792.671 474.704 792.671 471.093 Q792.671 467.482 790.333 465.376 Q787.995 463.269 783.99 463.269 Q782.115 463.269 780.24 463.686 Q778.388 464.103 776.444 464.982 L776.444 447.621 Z" fill="#000000" fill-rule="nonzero" fill-opacity="1" /><path clip-path="url(#clip890)" d="M1240.01 447.621 L1258.37 447.621 L1258.37 451.556 L1244.3 451.556 L1244.3 460.029 Q1245.31 459.681 1246.33 459.519 Q1247.35 459.334 1248.37 459.334 Q1254.16 459.334 1257.54 462.505 Q1260.92 465.677 1260.92 471.093 Q1260.92 476.672 1257.44 479.774 Q1253.97 482.853 1247.65 482.853 Q1245.48 482.853 1243.21 482.482 Q1240.96 482.112 1238.55 481.371 L1238.55 476.672 Q1240.64 477.806 1242.86 478.362 Q1245.08 478.917 1247.56 478.917 Q1251.56 478.917 1253.9 476.811 Q1256.24 474.704 1256.24 471.093 Q1256.24 467.482 1253.9 465.376 Q1251.56 463.269 1247.56 463.269 Q1245.68 463.269 1243.81 463.686 Q1241.96 464.103 1240.01 464.982 L1240.01 447.621 Z" fill="#000000" fill-rule="nonzero" fill-opacity="1" /><path clip-path="url(#clip890)" d="M1270.13 476.302 L1275.01 476.302 L1275.01 482.181 L1270.13 482.181 L1270.13 476.302 Z" fill="#000000" fill-rule="nonzero" fill-opacity="1" /><path clip-path="url(#clip890)" d="M1295.2 450.7 Q1291.59 450.7 1289.76 454.265 Q1287.95 457.806 1287.95 464.936 Q1287.95 472.042 1289.76 475.607 Q1291.59 479.149 1295.2 479.149 Q1298.83 479.149 1300.64 475.607 Q1302.47 472.042 1302.47 464.936 Q1302.47 457.806 1300.64 454.265 Q1298.83 450.7 1295.2 450.7 M1295.2 446.996 Q1301.01 446.996 1304.06 451.603 Q1307.14 456.186 1307.14 464.936 Q1307.14 473.663 1304.06 478.269 Q1301.01 482.853 1295.2 482.853 Q1289.39 482.853 1286.31 478.269 Q1283.25 473.663 1283.25 464.936 Q1283.25 456.186 1286.31 451.603 Q1289.39 446.996 1295.2 446.996 Z" fill="#000000" fill-rule="nonzero" fill-opacity="1" /><path clip-path="url(#clip890)" d="M1748.56 447.621 L1770.78 447.621 L1770.78 449.612 L1758.23 482.181 L1753.35 482.181 L1765.16 451.556 L1748.56 451.556 L1748.56 447.621 Z" fill="#000000" fill-rule="nonzero" fill-opacity="1" /><path clip-path="url(#clip890)" d="M1779.9 476.302 L1784.78 476.302 L1784.78 482.181 L1779.9 482.181 L1779.9 476.302 Z" fill="#000000" fill-rule="nonzero" fill-opacity="1" /><path clip-path="url(#clip890)" d="M1795.02 447.621 L1813.37 447.621 L1813.37 451.556 L1799.3 451.556 L1799.3 460.029 Q1800.32 459.681 1801.34 459.519 Q1802.35 459.334 1803.37 459.334 Q1809.16 459.334 1812.54 462.505 Q1815.92 465.677 1815.92 471.093 Q1815.92 476.672 1812.45 479.774 Q1808.97 482.853 1802.66 482.853 Q1800.48 482.853 1798.21 482.482 Q1795.97 482.112 1793.56 481.371 L1793.56 476.672 Q1795.64 477.806 1797.86 478.362 Q1800.09 478.917 1802.56 478.917 Q1806.57 478.917 1808.91 476.811 Q1811.24 474.704 1811.24 471.093 Q1811.24 467.482 1808.91 465.376 Q1806.57 463.269 1802.56 463.269 Q1800.69 463.269 1798.81 463.686 Q1796.96 464.103 1795.02 464.982 L1795.02 447.621 Z" fill="#000000" fill-rule="nonzero" fill-opacity="1" /><path clip-path="url(#clip890)" d="M2243.7 478.246 L2251.34 478.246 L2251.34 451.88 L2243.03 453.547 L2243.03 449.288 L2251.29 447.621 L2255.97 447.621 L2255.97 478.246 L2263.61 478.246 L2263.61 482.181 L2243.7 482.181 L2243.7 478.246 Z" fill="#000000" fill-rule="nonzero" fill-opacity="1" /><path clip-path="url(#clip890)" d="M2283.05 450.7 Q2279.44 450.7 2277.61 454.265 Q2275.81 457.806 2275.81 464.936 Q2275.81 472.042 2277.61 475.607 Q2279.44 479.149 2283.05 479.149 Q2286.69 479.149 2288.49 475.607 Q2290.32 472.042 2290.32 464.936 Q2290.32 457.806 2288.49 454.265 Q2286.69 450.7 2283.05 450.7 M2283.05 446.996 Q2288.86 446.996 2291.92 451.603 Q2295 456.186 2295 464.936 Q2295 473.663 2291.92 478.269 Q2288.86 482.853 2283.05 482.853 Q2277.24 482.853 2274.16 478.269 Q2271.11 473.663 2271.11 464.936 Q2271.11 456.186 2274.16 451.603 Q2277.24 446.996 2283.05 446.996 Z" fill="#000000" fill-rule="nonzero" fill-opacity="1" /><path clip-path="url(#clip890)" d="M2303.21 476.302 L2308.1 476.302 L2308.1 482.181 L2303.21 482.181 L2303.21 476.302 Z" fill="#000000" fill-rule="nonzero" fill-opacity="1" /><path clip-path="url(#clip890)" d="M2328.28 450.7 Q2324.67 450.7 2322.84 454.265 Q2321.04 457.806 2321.04 464.936 Q2321.04 472.042 2322.84 475.607 Q2324.67 479.149 2328.28 479.149 Q2331.92 479.149 2333.72 475.607 Q2335.55 472.042 2335.55 464.936 Q2335.55 457.806 2333.72 454.265 Q2331.92 450.7 2328.28 450.7 M2328.28 446.996 Q2334.09 446.996 2337.15 451.603 Q2340.23 456.186 2340.23 464.936 Q2340.23 473.663 2337.15 478.269 Q2334.09 482.853 2328.28 482.853 Q2322.47 482.853 2319.4 478.269 Q2316.34 473.663 2316.34 464.936 Q2316.34 456.186 2319.4 451.603 Q2322.47 446.996 2328.28 446.996 Z" fill="#000000" fill-rule="nonzero" fill-opacity="1" /><polyline clip-path="url(#clip890)" style="stroke:#000000; stroke-linecap:round; stroke-linejoin:round; stroke-width:4; stroke-opacity:1; fill:none" points="192.941,419.781 192.941,47.2441 "/>
<polyline clip-path="url(#clip890)" style="stroke:#000000; stroke-linecap:round; stroke-linejoin:round; stroke-width:4; stroke-opacity:1; fill:none" points="192.941,332.562 211.838,332.562 "/>
<polyline clip-path="url(#clip890)" style="stroke:#000000; stroke-linecap:round; stroke-linejoin:round; stroke-width:4; stroke-opacity:1; fill:none" points="192.941,240.97 211.838,240.97 "/>
<polyline clip-path="url(#clip890)" style="stroke:#000000; stroke-linecap:round; stroke-linejoin:round; stroke-width:4; stroke-opacity:1; fill:none" points="192.941,149.379 211.838,149.379 "/>
<polyline clip-path="url(#clip890)" style="stroke:#000000; stroke-linecap:round; stroke-linejoin:round; stroke-width:4; stroke-opacity:1; fill:none" points="192.941,57.7876 211.838,57.7876 "/>
<path clip-path="url(#clip890)" d="M50.9921 333.013 L80.6679 333.013 L80.6679 336.948 L50.9921 336.948 L50.9921 333.013 Z" fill="#000000" fill-rule="nonzero" fill-opacity="1" /><path clip-path="url(#clip890)" d="M100.76 318.36 Q97.1493 318.36 95.3206 321.925 Q93.515 325.467 93.515 332.596 Q93.515 339.703 95.3206 343.268 Q97.1493 346.809 100.76 346.809 Q104.395 346.809 106.2 343.268 Q108.029 339.703 108.029 332.596 Q108.029 325.467 106.2 321.925 Q104.395 318.36 100.76 318.36 M100.76 314.657 Q106.571 314.657 109.626 319.263 Q112.705 323.846 112.705 332.596 Q112.705 341.323 109.626 345.93 Q106.571 350.513 100.76 350.513 Q94.9502 350.513 91.8715 345.93 Q88.816 341.323 88.816 332.596 Q88.816 323.846 91.8715 319.263 Q94.9502 314.657 100.76 314.657 Z" fill="#000000" fill-rule="nonzero" fill-opacity="1" /><path clip-path="url(#clip890)" d="M120.922 343.962 L125.807 343.962 L125.807 349.842 L120.922 349.842 L120.922 343.962 Z" fill="#000000" fill-rule="nonzero" fill-opacity="1" /><path clip-path="url(#clip890)" d="M136.038 315.282 L154.394 315.282 L154.394 319.217 L140.32 319.217 L140.32 327.689 Q141.339 327.342 142.357 327.18 Q143.376 326.995 144.394 326.995 Q150.181 326.995 153.561 330.166 Q156.941 333.337 156.941 338.754 Q156.941 344.332 153.468 347.434 Q149.996 350.513 143.677 350.513 Q141.501 350.513 139.232 350.143 Q136.987 349.772 134.58 349.031 L134.58 344.332 Q136.663 345.467 138.885 346.022 Q141.107 346.578 143.584 346.578 Q147.589 346.578 149.927 344.471 Q152.265 342.365 152.265 338.754 Q152.265 335.143 149.927 333.036 Q147.589 330.93 143.584 330.93 Q141.709 330.93 139.834 331.346 Q137.982 331.763 136.038 332.643 L136.038 315.282 Z" fill="#000000" fill-rule="nonzero" fill-opacity="1" /><path clip-path="url(#clip890)" d="M99.765 226.769 Q96.1539 226.769 94.3252 230.334 Q92.5197 233.875 92.5197 241.005 Q92.5197 248.111 94.3252 251.676 Q96.1539 255.218 99.765 255.218 Q103.399 255.218 105.205 251.676 Q107.033 248.111 107.033 241.005 Q107.033 233.875 105.205 230.334 Q103.399 226.769 99.765 226.769 M99.765 223.065 Q105.575 223.065 108.631 227.672 Q111.709 232.255 111.709 241.005 Q111.709 249.732 108.631 254.338 Q105.575 258.922 99.765 258.922 Q93.9549 258.922 90.8762 254.338 Q87.8206 249.732 87.8206 241.005 Q87.8206 232.255 90.8762 227.672 Q93.9549 223.065 99.765 223.065 Z" fill="#000000" fill-rule="nonzero" fill-opacity="1" /><path clip-path="url(#clip890)" d="M119.927 252.371 L124.811 252.371 L124.811 258.25 L119.927 258.25 L119.927 252.371 Z" fill="#000000" fill-rule="nonzero" fill-opacity="1" /><path clip-path="url(#clip890)" d="M144.996 226.769 Q141.385 226.769 139.556 230.334 Q137.751 233.875 137.751 241.005 Q137.751 248.111 139.556 251.676 Q141.385 255.218 144.996 255.218 Q148.63 255.218 150.436 251.676 Q152.265 248.111 152.265 241.005 Q152.265 233.875 150.436 230.334 Q148.63 226.769 144.996 226.769 M144.996 223.065 Q150.806 223.065 153.862 227.672 Q156.941 232.255 156.941 241.005 Q156.941 249.732 153.862 254.338 Q150.806 258.922 144.996 258.922 Q139.186 258.922 136.107 254.338 Q133.052 249.732 133.052 241.005 Q133.052 232.255 136.107 227.672 Q139.186 223.065 144.996 223.065 Z" fill="#000000" fill-rule="nonzero" fill-opacity="1" /><path clip-path="url(#clip890)" d="M100.76 135.178 Q97.1493 135.178 95.3206 138.742 Q93.515 142.284 93.515 149.414 Q93.515 156.52 95.3206 160.085 Q97.1493 163.627 100.76 163.627 Q104.395 163.627 106.2 160.085 Q108.029 156.52 108.029 149.414 Q108.029 142.284 106.2 138.742 Q104.395 135.178 100.76 135.178 M100.76 131.474 Q106.571 131.474 109.626 136.08 Q112.705 140.664 112.705 149.414 Q112.705 158.14 109.626 162.747 Q106.571 167.33 100.76 167.33 Q94.9502 167.33 91.8715 162.747 Q88.816 158.14 88.816 149.414 Q88.816 140.664 91.8715 136.08 Q94.9502 131.474 100.76 131.474 Z" fill="#000000" fill-rule="nonzero" fill-opacity="1" /><path clip-path="url(#clip890)" d="M120.922 160.779 L125.807 160.779 L125.807 166.659 L120.922 166.659 L120.922 160.779 Z" fill="#000000" fill-rule="nonzero" fill-opacity="1" /><path clip-path="url(#clip890)" d="M136.038 132.099 L154.394 132.099 L154.394 136.034 L140.32 136.034 L140.32 144.506 Q141.339 144.159 142.357 143.997 Q143.376 143.812 144.394 143.812 Q150.181 143.812 153.561 146.983 Q156.941 150.154 156.941 155.571 Q156.941 161.15 153.468 164.252 Q149.996 167.33 143.677 167.33 Q141.501 167.33 139.232 166.96 Q136.987 166.59 134.58 165.849 L134.58 161.15 Q136.663 162.284 138.885 162.84 Q141.107 163.395 143.584 163.395 Q147.589 163.395 149.927 161.289 Q152.265 159.182 152.265 155.571 Q152.265 151.96 149.927 149.853 Q147.589 147.747 143.584 147.747 Q141.709 147.747 139.834 148.164 Q137.982 148.58 136.038 149.46 L136.038 132.099 Z" fill="#000000" fill-rule="nonzero" fill-opacity="1" /><path clip-path="url(#clip890)" d="M90.5752 71.1324 L98.2141 71.1324 L98.2141 44.7668 L89.904 46.4335 L89.904 42.1743 L98.1678 40.5076 L102.844 40.5076 L102.844 71.1324 L110.483 71.1324 L110.483 75.0676 L90.5752 75.0676 L90.5752 71.1324 Z" fill="#000000" fill-rule="nonzero" fill-opacity="1" /><path clip-path="url(#clip890)" d="M119.927 69.188 L124.811 69.188 L124.811 75.0676 L119.927 75.0676 L119.927 69.188 Z" fill="#000000" fill-rule="nonzero" fill-opacity="1" /><path clip-path="url(#clip890)" d="M144.996 43.5863 Q141.385 43.5863 139.556 47.1511 Q137.751 50.6927 137.751 57.8223 Q137.751 64.9288 139.556 68.4936 Q141.385 72.0352 144.996 72.0352 Q148.63 72.0352 150.436 68.4936 Q152.265 64.9288 152.265 57.8223 Q152.265 50.6927 150.436 47.1511 Q148.63 43.5863 144.996 43.5863 M144.996 39.8826 Q150.806 39.8826 153.862 44.4891 Q156.941 49.0724 156.941 57.8223 Q156.941 66.5491 153.862 71.1556 Q150.806 75.7389 144.996 75.7389 Q139.186 75.7389 136.107 71.1556 Q133.052 66.5491 133.052 57.8223 Q133.052 49.0724 136.107 44.4891 Q139.186 39.8826 144.996 39.8826 Z" fill="#000000" fill-rule="nonzero" fill-opacity="1" /><polyline clip-path="url(#clip892)" style="stroke:#009af9; stroke-linecap:round; stroke-linejoin:round; stroke-width:4; stroke-opacity:1; fill:none" points="254.067,57.7876 274.649,74.2302 295.23,116.943 315.812,178.586 336.393,248.949 356.975,316.631 377.556,370.89 398.137,403.339 418.719,409.238 439.3,388.176 459.882,344.053 480.463,284.368 501.045,218.954 521.626,158.36 542.208,112.157 562.789,87.4257 583.37,87.6832 603.952,112.388 624.533,157.111 645.115,214.317 665.696,274.63 686.278,328.368 706.859,367.089 727.44,384.917 748.022,379.426 768.603,351.958 789.185,307.334 809.766,253.016 830.348,197.863 850.929,150.689 871.51,118.861 892.092,107.149 912.673,117.018 933.255,146.463 953.836,190.395 974.418,241.517 994.999,291.529 1015.58,332.475 1036.16,358.006 1056.74,364.356 1077.32,350.896 1097.91,320.17 1118.49,277.425 1139.07,229.719 1159.65,184.761 1180.23,149.67 1200.81,129.845 1221.39,128.143 1241.98,144.474 1262.56,175.872 1283.14,217.026 1303.72,261.177 1324.3,301.221 1344.88,330.854 1365.46,345.555 1386.05,343.279 1406.63,324.727 1427.21,293.186 1447.79,253.946 1468.37,213.421 1488.95,178.101 1509.53,153.516 1530.12,143.374 1550.7,149.004 1571.28,169.192 1591.86,200.426 1612.44,237.503 1633.02,274.392 1653.6,305.212 1674.19,325.167 1694.77,331.292 1715.35,322.886 1735.93,301.581 1756.51,271.033 1777.09,236.3 1797.67,203.007 1818.26,176.436 1838.84,160.691 1859.42,158.067 1880,168.721 1900.58,190.686 1921.16,220.234 1941.74,252.499 1962.33,282.28 1982.91,304.875 2003.49,316.824 2024.07,316.434 2044.65,304.013 2065.23,281.784 2085.81,253.489 2106.4,223.763 2126.98,197.376 2147.56,178.471 2168.14,169.915 2188.72,172.864 2209.3,186.619 2229.88,208.769 2250.47,235.613 2271.05,262.775 2291.63,285.915 "/>
<path clip-path="url(#clip890)" d="M192.941 953.115 L2352.76 953.115 L2352.76 580.577 L192.941 580.577  Z" fill="#ffffff" fill-rule="evenodd" fill-opacity="1"/>
<defs>
  <clipPath id="clip893">
    <rect x="192" y="580" width="2161" height="374"/>
  </clipPath>
</defs>
<polyline clip-path="url(#clip893)" style="stroke:#000000; stroke-linecap:round; stroke-linejoin:round; stroke-width:2; stroke-opacity:0.1; fill:none" points="254.067,953.115 254.067,580.577 "/>
<polyline clip-path="url(#clip893)" style="stroke:#000000; stroke-linecap:round; stroke-linejoin:round; stroke-width:2; stroke-opacity:0.1; fill:none" points="763.458,953.115 763.458,580.577 "/>
<polyline clip-path="url(#clip893)" style="stroke:#000000; stroke-linecap:round; stroke-linejoin:round; stroke-width:2; stroke-opacity:0.1; fill:none" points="1272.85,953.115 1272.85,580.577 "/>
<polyline clip-path="url(#clip893)" style="stroke:#000000; stroke-linecap:round; stroke-linejoin:round; stroke-width:2; stroke-opacity:0.1; fill:none" points="1782.24,953.115 1782.24,580.577 "/>
<polyline clip-path="url(#clip893)" style="stroke:#000000; stroke-linecap:round; stroke-linejoin:round; stroke-width:2; stroke-opacity:0.1; fill:none" points="2291.63,953.115 2291.63,580.577 "/>
<polyline clip-path="url(#clip893)" style="stroke:#000000; stroke-linecap:round; stroke-linejoin:round; stroke-width:2; stroke-opacity:0.1; fill:none" points="192.941,887.038 2352.76,887.038 "/>
<polyline clip-path="url(#clip893)" style="stroke:#000000; stroke-linecap:round; stroke-linejoin:round; stroke-width:2; stroke-opacity:0.1; fill:none" points="192.941,788.399 2352.76,788.399 "/>
<polyline clip-path="url(#clip893)" style="stroke:#000000; stroke-linecap:round; stroke-linejoin:round; stroke-width:2; stroke-opacity:0.1; fill:none" points="192.941,689.76 2352.76,689.76 "/>
<polyline clip-path="url(#clip893)" style="stroke:#000000; stroke-linecap:round; stroke-linejoin:round; stroke-width:2; stroke-opacity:0.1; fill:none" points="192.941,591.121 2352.76,591.121 "/>
<polyline clip-path="url(#clip890)" style="stroke:#000000; stroke-linecap:round; stroke-linejoin:round; stroke-width:4; stroke-opacity:1; fill:none" points="192.941,953.115 2352.76,953.115 "/>
<polyline clip-path="url(#clip890)" style="stroke:#000000; stroke-linecap:round; stroke-linejoin:round; stroke-width:4; stroke-opacity:1; fill:none" points="254.067,953.115 254.067,934.217 "/>
<polyline clip-path="url(#clip890)" style="stroke:#000000; stroke-linecap:round; stroke-linejoin:round; stroke-width:4; stroke-opacity:1; fill:none" points="763.458,953.115 763.458,934.217 "/>
<polyline clip-path="url(#clip890)" style="stroke:#000000; stroke-linecap:round; stroke-linejoin:round; stroke-width:4; stroke-opacity:1; fill:none" points="1272.85,953.115 1272.85,934.217 "/>
<polyline clip-path="url(#clip890)" style="stroke:#000000; stroke-linecap:round; stroke-linejoin:round; stroke-width:4; stroke-opacity:1; fill:none" points="1782.24,953.115 1782.24,934.217 "/>
<polyline clip-path="url(#clip890)" style="stroke:#000000; stroke-linecap:round; stroke-linejoin:round; stroke-width:4; stroke-opacity:1; fill:none" points="2291.63,953.115 2291.63,934.217 "/>
<path clip-path="url(#clip890)" d="M231.452 984.033 Q227.841 984.033 226.012 987.598 Q224.207 991.14 224.207 998.269 Q224.207 1005.38 226.012 1008.94 Q227.841 1012.48 231.452 1012.48 Q235.086 1012.48 236.892 1008.94 Q238.72 1005.38 238.72 998.269 Q238.72 991.14 236.892 987.598 Q235.086 984.033 231.452 984.033 M231.452 980.33 Q237.262 980.33 240.318 984.936 Q243.396 989.519 243.396 998.269 Q243.396 1007 240.318 1011.6 Q237.262 1016.19 231.452 1016.19 Q225.642 1016.19 222.563 1011.6 Q219.507 1007 219.507 998.269 Q219.507 989.519 222.563 984.936 Q225.642 980.33 231.452 980.33 Z" fill="#000000" fill-rule="nonzero" fill-opacity="1" /><path clip-path="url(#clip890)" d="M251.614 1009.63 L256.498 1009.63 L256.498 1015.51 L251.614 1015.51 L251.614 1009.63 Z" fill="#000000" fill-rule="nonzero" fill-opacity="1" /><path clip-path="url(#clip890)" d="M276.683 984.033 Q273.072 984.033 271.243 987.598 Q269.438 991.14 269.438 998.269 Q269.438 1005.38 271.243 1008.94 Q273.072 1012.48 276.683 1012.48 Q280.317 1012.48 282.123 1008.94 Q283.952 1005.38 283.952 998.269 Q283.952 991.14 282.123 987.598 Q280.317 984.033 276.683 984.033 M276.683 980.33 Q282.493 980.33 285.549 984.936 Q288.627 989.519 288.627 998.269 Q288.627 1007 285.549 1011.6 Q282.493 1016.19 276.683 1016.19 Q270.873 1016.19 267.794 1011.6 Q264.739 1007 264.739 998.269 Q264.739 989.519 267.794 984.936 Q270.873 980.33 276.683 980.33 Z" fill="#000000" fill-rule="nonzero" fill-opacity="1" /><path clip-path="url(#clip890)" d="M735.194 1011.58 L751.513 1011.58 L751.513 1015.51 L729.569 1015.51 L729.569 1011.58 Q732.231 1008.82 736.814 1004.2 Q741.421 999.542 742.602 998.2 Q744.847 995.677 745.726 993.941 Q746.629 992.181 746.629 990.492 Q746.629 987.737 744.685 986.001 Q742.764 984.265 739.662 984.265 Q737.463 984.265 735.009 985.029 Q732.578 985.792 729.801 987.343 L729.801 982.621 Q732.625 981.487 735.078 980.908 Q737.532 980.33 739.569 980.33 Q744.939 980.33 748.134 983.015 Q751.328 985.7 751.328 990.191 Q751.328 992.32 750.518 994.242 Q749.731 996.14 747.625 998.732 Q747.046 999.404 743.944 1002.62 Q740.842 1005.82 735.194 1011.58 Z" fill="#000000" fill-rule="nonzero" fill-opacity="1" /><path clip-path="url(#clip890)" d="M761.328 1009.63 L766.212 1009.63 L766.212 1015.51 L761.328 1015.51 L761.328 1009.63 Z" fill="#000000" fill-rule="nonzero" fill-opacity="1" /><path clip-path="url(#clip890)" d="M776.444 980.955 L794.8 980.955 L794.8 984.89 L780.726 984.89 L780.726 993.362 Q781.745 993.015 782.763 992.853 Q783.782 992.667 784.8 992.667 Q790.587 992.667 793.967 995.839 Q797.347 999.01 797.347 1004.43 Q797.347 1010.01 793.874 1013.11 Q790.402 1016.19 784.083 1016.19 Q781.907 1016.19 779.638 1015.82 Q777.393 1015.45 774.986 1014.7 L774.986 1010.01 Q777.069 1011.14 779.291 1011.7 Q781.513 1012.25 783.99 1012.25 Q787.995 1012.25 790.333 1010.14 Q792.671 1008.04 792.671 1004.43 Q792.671 1000.82 790.333 998.709 Q787.995 996.603 783.99 996.603 Q782.115 996.603 780.24 997.019 Q778.388 997.436 776.444 998.316 L776.444 980.955 Z" fill="#000000" fill-rule="nonzero" fill-opacity="1" /><path clip-path="url(#clip890)" d="M1240.01 980.955 L1258.37 980.955 L1258.37 984.89 L1244.3 984.89 L1244.3 993.362 Q1245.31 993.015 1246.33 992.853 Q1247.35 992.667 1248.37 992.667 Q1254.16 992.667 1257.54 995.839 Q1260.92 999.01 1260.92 1004.43 Q1260.92 1010.01 1257.44 1013.11 Q1253.97 1016.19 1247.65 1016.19 Q1245.48 1016.19 1243.21 1015.82 Q1240.96 1015.45 1238.55 1014.7 L1238.55 1010.01 Q1240.64 1011.14 1242.86 1011.7 Q1245.08 1012.25 1247.56 1012.25 Q1251.56 1012.25 1253.9 1010.14 Q1256.24 1008.04 1256.24 1004.43 Q1256.24 1000.82 1253.9 998.709 Q1251.56 996.603 1247.56 996.603 Q1245.68 996.603 1243.81 997.019 Q1241.96 997.436 1240.01 998.316 L1240.01 980.955 Z" fill="#000000" fill-rule="nonzero" fill-opacity="1" /><path clip-path="url(#clip890)" d="M1270.13 1009.63 L1275.01 1009.63 L1275.01 1015.51 L1270.13 1015.51 L1270.13 1009.63 Z" fill="#000000" fill-rule="nonzero" fill-opacity="1" /><path clip-path="url(#clip890)" d="M1295.2 984.033 Q1291.59 984.033 1289.76 987.598 Q1287.95 991.14 1287.95 998.269 Q1287.95 1005.38 1289.76 1008.94 Q1291.59 1012.48 1295.2 1012.48 Q1298.83 1012.48 1300.64 1008.94 Q1302.47 1005.38 1302.47 998.269 Q1302.47 991.14 1300.64 987.598 Q1298.83 984.033 1295.2 984.033 M1295.2 980.33 Q1301.01 980.33 1304.06 984.936 Q1307.14 989.519 1307.14 998.269 Q1307.14 1007 1304.06 1011.6 Q1301.01 1016.19 1295.2 1016.19 Q1289.39 1016.19 1286.31 1011.6 Q1283.25 1007 1283.25 998.269 Q1283.25 989.519 1286.31 984.936 Q1289.39 980.33 1295.2 980.33 Z" fill="#000000" fill-rule="nonzero" fill-opacity="1" /><path clip-path="url(#clip890)" d="M1748.56 980.955 L1770.78 980.955 L1770.78 982.945 L1758.23 1015.51 L1753.35 1015.51 L1765.16 984.89 L1748.56 984.89 L1748.56 980.955 Z" fill="#000000" fill-rule="nonzero" fill-opacity="1" /><path clip-path="url(#clip890)" d="M1779.9 1009.63 L1784.78 1009.63 L1784.78 1015.51 L1779.9 1015.51 L1779.9 1009.63 Z" fill="#000000" fill-rule="nonzero" fill-opacity="1" /><path clip-path="url(#clip890)" d="M1795.02 980.955 L1813.37 980.955 L1813.37 984.89 L1799.3 984.89 L1799.3 993.362 Q1800.32 993.015 1801.34 992.853 Q1802.35 992.667 1803.37 992.667 Q1809.16 992.667 1812.54 995.839 Q1815.92 999.01 1815.92 1004.43 Q1815.92 1010.01 1812.45 1013.11 Q1808.97 1016.19 1802.66 1016.19 Q1800.48 1016.19 1798.21 1015.82 Q1795.97 1015.45 1793.56 1014.7 L1793.56 1010.01 Q1795.64 1011.14 1797.86 1011.7 Q1800.09 1012.25 1802.56 1012.25 Q1806.57 1012.25 1808.91 1010.14 Q1811.24 1008.04 1811.24 1004.43 Q1811.24 1000.82 1808.91 998.709 Q1806.57 996.603 1802.56 996.603 Q1800.69 996.603 1798.81 997.019 Q1796.96 997.436 1795.02 998.316 L1795.02 980.955 Z" fill="#000000" fill-rule="nonzero" fill-opacity="1" /><path clip-path="url(#clip890)" d="M2243.7 1011.58 L2251.34 1011.58 L2251.34 985.214 L2243.03 986.88 L2243.03 982.621 L2251.29 980.955 L2255.97 980.955 L2255.97 1011.58 L2263.61 1011.58 L2263.61 1015.51 L2243.7 1015.51 L2243.7 1011.58 Z" fill="#000000" fill-rule="nonzero" fill-opacity="1" /><path clip-path="url(#clip890)" d="M2283.05 984.033 Q2279.44 984.033 2277.61 987.598 Q2275.81 991.14 2275.81 998.269 Q2275.81 1005.38 2277.61 1008.94 Q2279.44 1012.48 2283.05 1012.48 Q2286.69 1012.48 2288.49 1008.94 Q2290.32 1005.38 2290.32 998.269 Q2290.32 991.14 2288.49 987.598 Q2286.69 984.033 2283.05 984.033 M2283.05 980.33 Q2288.86 980.33 2291.92 984.936 Q2295 989.519 2295 998.269 Q2295 1007 2291.92 1011.6 Q2288.86 1016.19 2283.05 1016.19 Q2277.24 1016.19 2274.16 1011.6 Q2271.11 1007 2271.11 998.269 Q2271.11 989.519 2274.16 984.936 Q2277.24 980.33 2283.05 980.33 Z" fill="#000000" fill-rule="nonzero" fill-opacity="1" /><path clip-path="url(#clip890)" d="M2303.21 1009.63 L2308.1 1009.63 L2308.1 1015.51 L2303.21 1015.51 L2303.21 1009.63 Z" fill="#000000" fill-rule="nonzero" fill-opacity="1" /><path clip-path="url(#clip890)" d="M2328.28 984.033 Q2324.67 984.033 2322.84 987.598 Q2321.04 991.14 2321.04 998.269 Q2321.04 1005.38 2322.84 1008.94 Q2324.67 1012.48 2328.28 1012.48 Q2331.92 1012.48 2333.72 1008.94 Q2335.55 1005.38 2335.55 998.269 Q2335.55 991.14 2333.72 987.598 Q2331.92 984.033 2328.28 984.033 M2328.28 980.33 Q2334.09 980.33 2337.15 984.936 Q2340.23 989.519 2340.23 998.269 Q2340.23 1007 2337.15 1011.6 Q2334.09 1016.19 2328.28 1016.19 Q2322.47 1016.19 2319.4 1011.6 Q2316.34 1007 2316.34 998.269 Q2316.34 989.519 2319.4 984.936 Q2322.47 980.33 2328.28 980.33 Z" fill="#000000" fill-rule="nonzero" fill-opacity="1" /><polyline clip-path="url(#clip890)" style="stroke:#000000; stroke-linecap:round; stroke-linejoin:round; stroke-width:4; stroke-opacity:1; fill:none" points="192.941,953.115 192.941,580.577 "/>
<polyline clip-path="url(#clip890)" style="stroke:#000000; stroke-linecap:round; stroke-linejoin:round; stroke-width:4; stroke-opacity:1; fill:none" points="192.941,887.038 211.838,887.038 "/>
<polyline clip-path="url(#clip890)" style="stroke:#000000; stroke-linecap:round; stroke-linejoin:round; stroke-width:4; stroke-opacity:1; fill:none" points="192.941,788.399 211.838,788.399 "/>
<polyline clip-path="url(#clip890)" style="stroke:#000000; stroke-linecap:round; stroke-linejoin:round; stroke-width:4; stroke-opacity:1; fill:none" points="192.941,689.76 211.838,689.76 "/>
<polyline clip-path="url(#clip890)" style="stroke:#000000; stroke-linecap:round; stroke-linejoin:round; stroke-width:4; stroke-opacity:1; fill:none" points="192.941,591.121 211.838,591.121 "/>
<path clip-path="url(#clip890)" d="M50.9921 887.49 L80.6679 887.49 L80.6679 891.425 L50.9921 891.425 L50.9921 887.49 Z" fill="#000000" fill-rule="nonzero" fill-opacity="1" /><path clip-path="url(#clip890)" d="M100.76 872.837 Q97.1493 872.837 95.3206 876.402 Q93.515 879.943 93.515 887.073 Q93.515 894.179 95.3206 897.744 Q97.1493 901.286 100.76 901.286 Q104.395 901.286 106.2 897.744 Q108.029 894.179 108.029 887.073 Q108.029 879.943 106.2 876.402 Q104.395 872.837 100.76 872.837 M100.76 869.133 Q106.571 869.133 109.626 873.74 Q112.705 878.323 112.705 887.073 Q112.705 895.8 109.626 900.406 Q106.571 904.989 100.76 904.989 Q94.9502 904.989 91.8715 900.406 Q88.816 895.8 88.816 887.073 Q88.816 878.323 91.8715 873.74 Q94.9502 869.133 100.76 869.133 Z" fill="#000000" fill-rule="nonzero" fill-opacity="1" /><path clip-path="url(#clip890)" d="M120.922 898.439 L125.807 898.439 L125.807 904.318 L120.922 904.318 L120.922 898.439 Z" fill="#000000" fill-rule="nonzero" fill-opacity="1" /><path clip-path="url(#clip890)" d="M136.038 869.758 L154.394 869.758 L154.394 873.693 L140.32 873.693 L140.32 882.165 Q141.339 881.818 142.357 881.656 Q143.376 881.471 144.394 881.471 Q150.181 881.471 153.561 884.642 Q156.941 887.814 156.941 893.23 Q156.941 898.809 153.468 901.911 Q149.996 904.989 143.677 904.989 Q141.501 904.989 139.232 904.619 Q136.987 904.249 134.58 903.508 L134.58 898.809 Q136.663 899.943 138.885 900.499 Q141.107 901.054 143.584 901.054 Q147.589 901.054 149.927 898.948 Q152.265 896.841 152.265 893.23 Q152.265 889.619 149.927 887.513 Q147.589 885.406 143.584 885.406 Q141.709 885.406 139.834 885.823 Q137.982 886.24 136.038 887.119 L136.038 869.758 Z" fill="#000000" fill-rule="nonzero" fill-opacity="1" /><path clip-path="url(#clip890)" d="M99.765 774.198 Q96.1539 774.198 94.3252 777.763 Q92.5197 781.304 92.5197 788.434 Q92.5197 795.54 94.3252 799.105 Q96.1539 802.647 99.765 802.647 Q103.399 802.647 105.205 799.105 Q107.033 795.54 107.033 788.434 Q107.033 781.304 105.205 777.763 Q103.399 774.198 99.765 774.198 M99.765 770.494 Q105.575 770.494 108.631 775.101 Q111.709 779.684 111.709 788.434 Q111.709 797.161 108.631 801.767 Q105.575 806.35 99.765 806.35 Q93.9549 806.35 90.8762 801.767 Q87.8206 797.161 87.8206 788.434 Q87.8206 779.684 90.8762 775.101 Q93.9549 770.494 99.765 770.494 Z" fill="#000000" fill-rule="nonzero" fill-opacity="1" /><path clip-path="url(#clip890)" d="M119.927 799.799 L124.811 799.799 L124.811 805.679 L119.927 805.679 L119.927 799.799 Z" fill="#000000" fill-rule="nonzero" fill-opacity="1" /><path clip-path="url(#clip890)" d="M144.996 774.198 Q141.385 774.198 139.556 777.763 Q137.751 781.304 137.751 788.434 Q137.751 795.54 139.556 799.105 Q141.385 802.647 144.996 802.647 Q148.63 802.647 150.436 799.105 Q152.265 795.54 152.265 788.434 Q152.265 781.304 150.436 777.763 Q148.63 774.198 144.996 774.198 M144.996 770.494 Q150.806 770.494 153.862 775.101 Q156.941 779.684 156.941 788.434 Q156.941 797.161 153.862 801.767 Q150.806 806.35 144.996 806.35 Q139.186 806.35 136.107 801.767 Q133.052 797.161 133.052 788.434 Q133.052 779.684 136.107 775.101 Q139.186 770.494 144.996 770.494 Z" fill="#000000" fill-rule="nonzero" fill-opacity="1" /><path clip-path="url(#clip890)" d="M100.76 675.559 Q97.1493 675.559 95.3206 679.123 Q93.515 682.665 93.515 689.795 Q93.515 696.901 95.3206 700.466 Q97.1493 704.008 100.76 704.008 Q104.395 704.008 106.2 700.466 Q108.029 696.901 108.029 689.795 Q108.029 682.665 106.2 679.123 Q104.395 675.559 100.76 675.559 M100.76 671.855 Q106.571 671.855 109.626 676.461 Q112.705 681.045 112.705 689.795 Q112.705 698.522 109.626 703.128 Q106.571 707.711 100.76 707.711 Q94.9502 707.711 91.8715 703.128 Q88.816 698.522 88.816 689.795 Q88.816 681.045 91.8715 676.461 Q94.9502 671.855 100.76 671.855 Z" fill="#000000" fill-rule="nonzero" fill-opacity="1" /><path clip-path="url(#clip890)" d="M120.922 701.16 L125.807 701.16 L125.807 707.04 L120.922 707.04 L120.922 701.16 Z" fill="#000000" fill-rule="nonzero" fill-opacity="1" /><path clip-path="url(#clip890)" d="M136.038 672.48 L154.394 672.48 L154.394 676.415 L140.32 676.415 L140.32 684.887 Q141.339 684.54 142.357 684.378 Q143.376 684.193 144.394 684.193 Q150.181 684.193 153.561 687.364 Q156.941 690.535 156.941 695.952 Q156.941 701.531 153.468 704.633 Q149.996 707.711 143.677 707.711 Q141.501 707.711 139.232 707.341 Q136.987 706.971 134.58 706.23 L134.58 701.531 Q136.663 702.665 138.885 703.221 Q141.107 703.776 143.584 703.776 Q147.589 703.776 149.927 701.67 Q152.265 699.563 152.265 695.952 Q152.265 692.341 149.927 690.235 Q147.589 688.128 143.584 688.128 Q141.709 688.128 139.834 688.545 Q137.982 688.961 136.038 689.841 L136.038 672.48 Z" fill="#000000" fill-rule="nonzero" fill-opacity="1" /><path clip-path="url(#clip890)" d="M90.5752 604.466 L98.2141 604.466 L98.2141 578.1 L89.904 579.767 L89.904 575.508 L98.1678 573.841 L102.844 573.841 L102.844 604.466 L110.483 604.466 L110.483 608.401 L90.5752 608.401 L90.5752 604.466 Z" fill="#000000" fill-rule="nonzero" fill-opacity="1" /><path clip-path="url(#clip890)" d="M119.927 602.521 L124.811 602.521 L124.811 608.401 L119.927 608.401 L119.927 602.521 Z" fill="#000000" fill-rule="nonzero" fill-opacity="1" /><path clip-path="url(#clip890)" d="M144.996 576.92 Q141.385 576.92 139.556 580.484 Q137.751 584.026 137.751 591.156 Q137.751 598.262 139.556 601.827 Q141.385 605.369 144.996 605.369 Q148.63 605.369 150.436 601.827 Q152.265 598.262 152.265 591.156 Q152.265 584.026 150.436 580.484 Q148.63 576.92 144.996 576.92 M144.996 573.216 Q150.806 573.216 153.862 577.822 Q156.941 582.406 156.941 591.156 Q156.941 599.882 153.862 604.489 Q150.806 609.072 144.996 609.072 Q139.186 609.072 136.107 604.489 Q133.052 599.882 133.052 591.156 Q133.052 582.406 136.107 577.822 Q139.186 573.216 144.996 573.216 Z" fill="#000000" fill-rule="nonzero" fill-opacity="1" /><polyline clip-path="url(#clip893)" style="stroke:#009af9; stroke-linecap:round; stroke-linejoin:round; stroke-width:4; stroke-opacity:1; fill:none" points="254.067,591.121 274.649,612.42 295.23,660.117 315.812,725.166 336.393,796.324 356.975,862.053 377.556,912.344 398.137,940.203 418.719,942.571 439.3,920.576 459.882,879.106 480.463,825.823 501.045,769.793 521.626,719.981 542.208,683.849 562.789,666.268 583.37,668.912 603.952,690.174 624.533,725.619 645.115,768.844 665.696,812.6 686.278,849.98 706.859,875.486 727.44,885.809 748.022,880.219 768.603,860.531 789.185,830.667 809.766,795.918 830.348,762.031 850.929,734.279 871.51,716.664 892.092,711.355 912.673,718.464 933.255,736.144 953.836,760.994 974.418,788.689 994.999,814.71 1015.58,835.066 1036.16,846.893 1056.74,848.834 1077.32,841.165 1097.91,825.655 1118.49,805.205 1139.07,783.316 1159.65,763.513 1180.23,748.785 1200.81,741.147 1221.39,741.383 1241.98,748.992 1262.56,762.346 1283.14,779.008 1303.72,796.166 1324.3,811.094 1344.88,821.579 1365.46,826.233 1386.05,824.67 1406.63,817.499 1427.21,806.178 1447.79,792.729 1468.37,779.39 1488.95,768.252 1509.53,760.934 1530.12,758.362 1550.7,760.66 1571.28,767.182 1591.86,776.654 1612.44,787.415 1633.02,797.697 1653.6,805.914 1674.19,810.895 1694.77,812.049 1715.35,809.419 1735.93,803.641 1756.51,795.808 1777.09,787.271 1797.67,779.414 1818.26,773.43 1838.84,770.15 1859.42,769.931 1880,772.626 1900.58,777.641 1921.16,784.051 1941.74,790.768 1962.33,796.717 1982.91,801.01 2003.49,803.068 2024.07,802.701 2044.65,800.108 2065.23,795.828 2085.81,790.632 2106.4,785.391 2126.98,780.931 2147.56,777.906 2168.14,776.708 2188.72,777.418 2209.3,779.811 2229.88,783.413 2250.47,787.586 2271.05,791.642 2291.63,794.95 "/>
<path clip-path="url(#clip890)" d="M192.941 1486.45 L2352.76 1486.45 L2352.76 1113.91 L192.941 1113.91  Z" fill="#ffffff" fill-rule="evenodd" fill-opacity="1"/>
<defs>
  <clipPath id="clip894">
    <rect x="192" y="1113" width="2161" height="374"/>
  </clipPath>
</defs>
<polyline clip-path="url(#clip894)" style="stroke:#000000; stroke-linecap:round; stroke-linejoin:round; stroke-width:2; stroke-opacity:0.1; fill:none" points="254.067,1486.45 254.067,1113.91 "/>
<polyline clip-path="url(#clip894)" style="stroke:#000000; stroke-linecap:round; stroke-linejoin:round; stroke-width:2; stroke-opacity:0.1; fill:none" points="763.458,1486.45 763.458,1113.91 "/>
<polyline clip-path="url(#clip894)" style="stroke:#000000; stroke-linecap:round; stroke-linejoin:round; stroke-width:2; stroke-opacity:0.1; fill:none" points="1272.85,1486.45 1272.85,1113.91 "/>
<polyline clip-path="url(#clip894)" style="stroke:#000000; stroke-linecap:round; stroke-linejoin:round; stroke-width:2; stroke-opacity:0.1; fill:none" points="1782.24,1486.45 1782.24,1113.91 "/>
<polyline clip-path="url(#clip894)" style="stroke:#000000; stroke-linecap:round; stroke-linejoin:round; stroke-width:2; stroke-opacity:0.1; fill:none" points="2291.63,1486.45 2291.63,1113.91 "/>
<polyline clip-path="url(#clip894)" style="stroke:#000000; stroke-linecap:round; stroke-linejoin:round; stroke-width:2; stroke-opacity:0.1; fill:none" points="192.941,1440.5 2352.76,1440.5 "/>
<polyline clip-path="url(#clip894)" style="stroke:#000000; stroke-linecap:round; stroke-linejoin:round; stroke-width:2; stroke-opacity:0.1; fill:none" points="192.941,1335.15 2352.76,1335.15 "/>
<polyline clip-path="url(#clip894)" style="stroke:#000000; stroke-linecap:round; stroke-linejoin:round; stroke-width:2; stroke-opacity:0.1; fill:none" points="192.941,1229.8 2352.76,1229.8 "/>
<polyline clip-path="url(#clip894)" style="stroke:#000000; stroke-linecap:round; stroke-linejoin:round; stroke-width:2; stroke-opacity:0.1; fill:none" points="192.941,1124.45 2352.76,1124.45 "/>
<polyline clip-path="url(#clip890)" style="stroke:#000000; stroke-linecap:round; stroke-linejoin:round; stroke-width:4; stroke-opacity:1; fill:none" points="192.941,1486.45 2352.76,1486.45 "/>
<polyline clip-path="url(#clip890)" style="stroke:#000000; stroke-linecap:round; stroke-linejoin:round; stroke-width:4; stroke-opacity:1; fill:none" points="254.067,1486.45 254.067,1467.55 "/>
<polyline clip-path="url(#clip890)" style="stroke:#000000; stroke-linecap:round; stroke-linejoin:round; stroke-width:4; stroke-opacity:1; fill:none" points="763.458,1486.45 763.458,1467.55 "/>
<polyline clip-path="url(#clip890)" style="stroke:#000000; stroke-linecap:round; stroke-linejoin:round; stroke-width:4; stroke-opacity:1; fill:none" points="1272.85,1486.45 1272.85,1467.55 "/>
<polyline clip-path="url(#clip890)" style="stroke:#000000; stroke-linecap:round; stroke-linejoin:round; stroke-width:4; stroke-opacity:1; fill:none" points="1782.24,1486.45 1782.24,1467.55 "/>
<polyline clip-path="url(#clip890)" style="stroke:#000000; stroke-linecap:round; stroke-linejoin:round; stroke-width:4; stroke-opacity:1; fill:none" points="2291.63,1486.45 2291.63,1467.55 "/>
<path clip-path="url(#clip890)" d="M231.452 1517.37 Q227.841 1517.37 226.012 1520.93 Q224.207 1524.47 224.207 1531.6 Q224.207 1538.71 226.012 1542.27 Q227.841 1545.82 231.452 1545.82 Q235.086 1545.82 236.892 1542.27 Q238.72 1538.71 238.72 1531.6 Q238.72 1524.47 236.892 1520.93 Q235.086 1517.37 231.452 1517.37 M231.452 1513.66 Q237.262 1513.66 240.318 1518.27 Q243.396 1522.85 243.396 1531.6 Q243.396 1540.33 240.318 1544.94 Q237.262 1549.52 231.452 1549.52 Q225.642 1549.52 222.563 1544.94 Q219.507 1540.33 219.507 1531.6 Q219.507 1522.85 222.563 1518.27 Q225.642 1513.66 231.452 1513.66 Z" fill="#000000" fill-rule="nonzero" fill-opacity="1" /><path clip-path="url(#clip890)" d="M251.614 1542.97 L256.498 1542.97 L256.498 1548.85 L251.614 1548.85 L251.614 1542.97 Z" fill="#000000" fill-rule="nonzero" fill-opacity="1" /><path clip-path="url(#clip890)" d="M276.683 1517.37 Q273.072 1517.37 271.243 1520.93 Q269.438 1524.47 269.438 1531.6 Q269.438 1538.71 271.243 1542.27 Q273.072 1545.82 276.683 1545.82 Q280.317 1545.82 282.123 1542.27 Q283.952 1538.71 283.952 1531.6 Q283.952 1524.47 282.123 1520.93 Q280.317 1517.37 276.683 1517.37 M276.683 1513.66 Q282.493 1513.66 285.549 1518.27 Q288.627 1522.85 288.627 1531.6 Q288.627 1540.33 285.549 1544.94 Q282.493 1549.52 276.683 1549.52 Q270.873 1549.52 267.794 1544.94 Q264.739 1540.33 264.739 1531.6 Q264.739 1522.85 267.794 1518.27 Q270.873 1513.66 276.683 1513.66 Z" fill="#000000" fill-rule="nonzero" fill-opacity="1" /><path clip-path="url(#clip890)" d="M735.194 1544.91 L751.513 1544.91 L751.513 1548.85 L729.569 1548.85 L729.569 1544.91 Q732.231 1542.16 736.814 1537.53 Q741.421 1532.88 742.602 1531.53 Q744.847 1529.01 745.726 1527.27 Q746.629 1525.51 746.629 1523.82 Q746.629 1521.07 744.685 1519.33 Q742.764 1517.6 739.662 1517.6 Q737.463 1517.6 735.009 1518.36 Q732.578 1519.13 729.801 1520.68 L729.801 1515.95 Q732.625 1514.82 735.078 1514.24 Q737.532 1513.66 739.569 1513.66 Q744.939 1513.66 748.134 1516.35 Q751.328 1519.03 751.328 1523.52 Q751.328 1525.65 750.518 1527.57 Q749.731 1529.47 747.625 1532.07 Q747.046 1532.74 743.944 1535.95 Q740.842 1539.15 735.194 1544.91 Z" fill="#000000" fill-rule="nonzero" fill-opacity="1" /><path clip-path="url(#clip890)" d="M761.328 1542.97 L766.212 1542.97 L766.212 1548.85 L761.328 1548.85 L761.328 1542.97 Z" fill="#000000" fill-rule="nonzero" fill-opacity="1" /><path clip-path="url(#clip890)" d="M776.444 1514.29 L794.8 1514.29 L794.8 1518.22 L780.726 1518.22 L780.726 1526.7 Q781.745 1526.35 782.763 1526.19 Q783.782 1526 784.8 1526 Q790.587 1526 793.967 1529.17 Q797.347 1532.34 797.347 1537.76 Q797.347 1543.34 793.874 1546.44 Q790.402 1549.52 784.083 1549.52 Q781.907 1549.52 779.638 1549.15 Q777.393 1548.78 774.986 1548.04 L774.986 1543.34 Q777.069 1544.47 779.291 1545.03 Q781.513 1545.58 783.99 1545.58 Q787.995 1545.58 790.333 1543.48 Q792.671 1541.37 792.671 1537.76 Q792.671 1534.15 790.333 1532.04 Q787.995 1529.94 783.99 1529.94 Q782.115 1529.94 780.24 1530.35 Q778.388 1530.77 776.444 1531.65 L776.444 1514.29 Z" fill="#000000" fill-rule="nonzero" fill-opacity="1" /><path clip-path="url(#clip890)" d="M1240.01 1514.29 L1258.37 1514.29 L1258.37 1518.22 L1244.3 1518.22 L1244.3 1526.7 Q1245.31 1526.35 1246.33 1526.19 Q1247.35 1526 1248.37 1526 Q1254.16 1526 1257.54 1529.17 Q1260.92 1532.34 1260.92 1537.76 Q1260.92 1543.34 1257.44 1546.44 Q1253.97 1549.52 1247.65 1549.52 Q1245.48 1549.52 1243.21 1549.15 Q1240.96 1548.78 1238.55 1548.04 L1238.55 1543.34 Q1240.64 1544.47 1242.86 1545.03 Q1245.08 1545.58 1247.56 1545.58 Q1251.56 1545.58 1253.9 1543.48 Q1256.24 1541.37 1256.24 1537.76 Q1256.24 1534.15 1253.9 1532.04 Q1251.56 1529.94 1247.56 1529.94 Q1245.68 1529.94 1243.81 1530.35 Q1241.96 1530.77 1240.01 1531.65 L1240.01 1514.29 Z" fill="#000000" fill-rule="nonzero" fill-opacity="1" /><path clip-path="url(#clip890)" d="M1270.13 1542.97 L1275.01 1542.97 L1275.01 1548.85 L1270.13 1548.85 L1270.13 1542.97 Z" fill="#000000" fill-rule="nonzero" fill-opacity="1" /><path clip-path="url(#clip890)" d="M1295.2 1517.37 Q1291.59 1517.37 1289.76 1520.93 Q1287.95 1524.47 1287.95 1531.6 Q1287.95 1538.71 1289.76 1542.27 Q1291.59 1545.82 1295.2 1545.82 Q1298.83 1545.82 1300.64 1542.27 Q1302.47 1538.71 1302.47 1531.6 Q1302.47 1524.47 1300.64 1520.93 Q1298.83 1517.37 1295.2 1517.37 M1295.2 1513.66 Q1301.01 1513.66 1304.06 1518.27 Q1307.14 1522.85 1307.14 1531.6 Q1307.14 1540.33 1304.06 1544.94 Q1301.01 1549.52 1295.2 1549.52 Q1289.39 1549.52 1286.31 1544.94 Q1283.25 1540.33 1283.25 1531.6 Q1283.25 1522.85 1286.31 1518.27 Q1289.39 1513.66 1295.2 1513.66 Z" fill="#000000" fill-rule="nonzero" fill-opacity="1" /><path clip-path="url(#clip890)" d="M1748.56 1514.29 L1770.78 1514.29 L1770.78 1516.28 L1758.23 1548.85 L1753.35 1548.85 L1765.16 1518.22 L1748.56 1518.22 L1748.56 1514.29 Z" fill="#000000" fill-rule="nonzero" fill-opacity="1" /><path clip-path="url(#clip890)" d="M1779.9 1542.97 L1784.78 1542.97 L1784.78 1548.85 L1779.9 1548.85 L1779.9 1542.97 Z" fill="#000000" fill-rule="nonzero" fill-opacity="1" /><path clip-path="url(#clip890)" d="M1795.02 1514.29 L1813.37 1514.29 L1813.37 1518.22 L1799.3 1518.22 L1799.3 1526.7 Q1800.32 1526.35 1801.34 1526.19 Q1802.35 1526 1803.37 1526 Q1809.16 1526 1812.54 1529.17 Q1815.92 1532.34 1815.92 1537.76 Q1815.92 1543.34 1812.45 1546.44 Q1808.97 1549.52 1802.66 1549.52 Q1800.48 1549.52 1798.21 1549.15 Q1795.97 1548.78 1793.56 1548.04 L1793.56 1543.34 Q1795.64 1544.47 1797.86 1545.03 Q1800.09 1545.58 1802.56 1545.58 Q1806.57 1545.58 1808.91 1543.48 Q1811.24 1541.37 1811.24 1537.76 Q1811.24 1534.15 1808.91 1532.04 Q1806.57 1529.94 1802.56 1529.94 Q1800.69 1529.94 1798.81 1530.35 Q1796.96 1530.77 1795.02 1531.65 L1795.02 1514.29 Z" fill="#000000" fill-rule="nonzero" fill-opacity="1" /><path clip-path="url(#clip890)" d="M2243.7 1544.91 L2251.34 1544.91 L2251.34 1518.55 L2243.03 1520.21 L2243.03 1515.95 L2251.29 1514.29 L2255.97 1514.29 L2255.97 1544.91 L2263.61 1544.91 L2263.61 1548.85 L2243.7 1548.85 L2243.7 1544.91 Z" fill="#000000" fill-rule="nonzero" fill-opacity="1" /><path clip-path="url(#clip890)" d="M2283.05 1517.37 Q2279.44 1517.37 2277.61 1520.93 Q2275.81 1524.47 2275.81 1531.6 Q2275.81 1538.71 2277.61 1542.27 Q2279.44 1545.82 2283.05 1545.82 Q2286.69 1545.82 2288.49 1542.27 Q2290.32 1538.71 2290.32 1531.6 Q2290.32 1524.47 2288.49 1520.93 Q2286.69 1517.37 2283.05 1517.37 M2283.05 1513.66 Q2288.86 1513.66 2291.92 1518.27 Q2295 1522.85 2295 1531.6 Q2295 1540.33 2291.92 1544.94 Q2288.86 1549.52 2283.05 1549.52 Q2277.24 1549.52 2274.16 1544.94 Q2271.11 1540.33 2271.11 1531.6 Q2271.11 1522.85 2274.16 1518.27 Q2277.24 1513.66 2283.05 1513.66 Z" fill="#000000" fill-rule="nonzero" fill-opacity="1" /><path clip-path="url(#clip890)" d="M2303.21 1542.97 L2308.1 1542.97 L2308.1 1548.85 L2303.21 1548.85 L2303.21 1542.97 Z" fill="#000000" fill-rule="nonzero" fill-opacity="1" /><path clip-path="url(#clip890)" d="M2328.28 1517.37 Q2324.67 1517.37 2322.84 1520.93 Q2321.04 1524.47 2321.04 1531.6 Q2321.04 1538.71 2322.84 1542.27 Q2324.67 1545.82 2328.28 1545.82 Q2331.92 1545.82 2333.72 1542.27 Q2335.55 1538.71 2335.55 1531.6 Q2335.55 1524.47 2333.72 1520.93 Q2331.92 1517.37 2328.28 1517.37 M2328.28 1513.66 Q2334.09 1513.66 2337.15 1518.27 Q2340.23 1522.85 2340.23 1531.6 Q2340.23 1540.33 2337.15 1544.94 Q2334.09 1549.52 2328.28 1549.52 Q2322.47 1549.52 2319.4 1544.94 Q2316.34 1540.33 2316.34 1531.6 Q2316.34 1522.85 2319.4 1518.27 Q2322.47 1513.66 2328.28 1513.66 Z" fill="#000000" fill-rule="nonzero" fill-opacity="1" /><polyline clip-path="url(#clip890)" style="stroke:#000000; stroke-linecap:round; stroke-linejoin:round; stroke-width:4; stroke-opacity:1; fill:none" points="192.941,1486.45 192.941,1113.91 "/>
<polyline clip-path="url(#clip890)" style="stroke:#000000; stroke-linecap:round; stroke-linejoin:round; stroke-width:4; stroke-opacity:1; fill:none" points="192.941,1440.5 211.838,1440.5 "/>
<polyline clip-path="url(#clip890)" style="stroke:#000000; stroke-linecap:round; stroke-linejoin:round; stroke-width:4; stroke-opacity:1; fill:none" points="192.941,1335.15 211.838,1335.15 "/>
<polyline clip-path="url(#clip890)" style="stroke:#000000; stroke-linecap:round; stroke-linejoin:round; stroke-width:4; stroke-opacity:1; fill:none" points="192.941,1229.8 211.838,1229.8 "/>
<polyline clip-path="url(#clip890)" style="stroke:#000000; stroke-linecap:round; stroke-linejoin:round; stroke-width:4; stroke-opacity:1; fill:none" points="192.941,1124.45 211.838,1124.45 "/>
<path clip-path="url(#clip890)" d="M50.9921 1440.95 L80.6679 1440.95 L80.6679 1444.89 L50.9921 1444.89 L50.9921 1440.95 Z" fill="#000000" fill-rule="nonzero" fill-opacity="1" /><path clip-path="url(#clip890)" d="M100.76 1426.3 Q97.1493 1426.3 95.3206 1429.87 Q93.515 1433.41 93.515 1440.54 Q93.515 1447.64 95.3206 1451.21 Q97.1493 1454.75 100.76 1454.75 Q104.395 1454.75 106.2 1451.21 Q108.029 1447.64 108.029 1440.54 Q108.029 1433.41 106.2 1429.87 Q104.395 1426.3 100.76 1426.3 M100.76 1422.6 Q106.571 1422.6 109.626 1427.2 Q112.705 1431.79 112.705 1440.54 Q112.705 1449.26 109.626 1453.87 Q106.571 1458.45 100.76 1458.45 Q94.9502 1458.45 91.8715 1453.87 Q88.816 1449.26 88.816 1440.54 Q88.816 1431.79 91.8715 1427.2 Q94.9502 1422.6 100.76 1422.6 Z" fill="#000000" fill-rule="nonzero" fill-opacity="1" /><path clip-path="url(#clip890)" d="M120.922 1451.9 L125.807 1451.9 L125.807 1457.78 L120.922 1457.78 L120.922 1451.9 Z" fill="#000000" fill-rule="nonzero" fill-opacity="1" /><path clip-path="url(#clip890)" d="M136.038 1423.22 L154.394 1423.22 L154.394 1427.16 L140.32 1427.16 L140.32 1435.63 Q141.339 1435.28 142.357 1435.12 Q143.376 1434.94 144.394 1434.94 Q150.181 1434.94 153.561 1438.11 Q156.941 1441.28 156.941 1446.7 Q156.941 1452.27 153.468 1455.38 Q149.996 1458.45 143.677 1458.45 Q141.501 1458.45 139.232 1458.08 Q136.987 1457.71 134.58 1456.97 L134.58 1452.27 Q136.663 1453.41 138.885 1453.96 Q141.107 1454.52 143.584 1454.52 Q147.589 1454.52 149.927 1452.41 Q152.265 1450.31 152.265 1446.7 Q152.265 1443.08 149.927 1440.98 Q147.589 1438.87 143.584 1438.87 Q141.709 1438.87 139.834 1439.29 Q137.982 1439.7 136.038 1440.58 L136.038 1423.22 Z" fill="#000000" fill-rule="nonzero" fill-opacity="1" /><path clip-path="url(#clip890)" d="M99.765 1320.95 Q96.1539 1320.95 94.3252 1324.52 Q92.5197 1328.06 92.5197 1335.19 Q92.5197 1342.29 94.3252 1345.86 Q96.1539 1349.4 99.765 1349.4 Q103.399 1349.4 105.205 1345.86 Q107.033 1342.29 107.033 1335.19 Q107.033 1328.06 105.205 1324.52 Q103.399 1320.95 99.765 1320.95 M99.765 1317.25 Q105.575 1317.25 108.631 1321.86 Q111.709 1326.44 111.709 1335.19 Q111.709 1343.92 108.631 1348.52 Q105.575 1353.1 99.765 1353.1 Q93.9549 1353.1 90.8762 1348.52 Q87.8206 1343.92 87.8206 1335.19 Q87.8206 1326.44 90.8762 1321.86 Q93.9549 1317.25 99.765 1317.25 Z" fill="#000000" fill-rule="nonzero" fill-opacity="1" /><path clip-path="url(#clip890)" d="M119.927 1346.55 L124.811 1346.55 L124.811 1352.43 L119.927 1352.43 L119.927 1346.55 Z" fill="#000000" fill-rule="nonzero" fill-opacity="1" /><path clip-path="url(#clip890)" d="M144.996 1320.95 Q141.385 1320.95 139.556 1324.52 Q137.751 1328.06 137.751 1335.19 Q137.751 1342.29 139.556 1345.86 Q141.385 1349.4 144.996 1349.4 Q148.63 1349.4 150.436 1345.86 Q152.265 1342.29 152.265 1335.19 Q152.265 1328.06 150.436 1324.52 Q148.63 1320.95 144.996 1320.95 M144.996 1317.25 Q150.806 1317.25 153.862 1321.86 Q156.941 1326.44 156.941 1335.19 Q156.941 1343.92 153.862 1348.52 Q150.806 1353.1 144.996 1353.1 Q139.186 1353.1 136.107 1348.52 Q133.052 1343.92 133.052 1335.19 Q133.052 1326.44 136.107 1321.86 Q139.186 1317.25 144.996 1317.25 Z" fill="#000000" fill-rule="nonzero" fill-opacity="1" /><path clip-path="url(#clip890)" d="M100.76 1215.6 Q97.1493 1215.6 95.3206 1219.17 Q93.515 1222.71 93.515 1229.84 Q93.515 1236.95 95.3206 1240.51 Q97.1493 1244.05 100.76 1244.05 Q104.395 1244.05 106.2 1240.51 Q108.029 1236.95 108.029 1229.84 Q108.029 1222.71 106.2 1219.17 Q104.395 1215.6 100.76 1215.6 M100.76 1211.9 Q106.571 1211.9 109.626 1216.51 Q112.705 1221.09 112.705 1229.84 Q112.705 1238.57 109.626 1243.17 Q106.571 1247.76 100.76 1247.76 Q94.9502 1247.76 91.8715 1243.17 Q88.816 1238.57 88.816 1229.84 Q88.816 1221.09 91.8715 1216.51 Q94.9502 1211.9 100.76 1211.9 Z" fill="#000000" fill-rule="nonzero" fill-opacity="1" /><path clip-path="url(#clip890)" d="M120.922 1241.2 L125.807 1241.2 L125.807 1247.08 L120.922 1247.08 L120.922 1241.2 Z" fill="#000000" fill-rule="nonzero" fill-opacity="1" /><path clip-path="url(#clip890)" d="M136.038 1212.52 L154.394 1212.52 L154.394 1216.46 L140.32 1216.46 L140.32 1224.93 Q141.339 1224.58 142.357 1224.42 Q143.376 1224.24 144.394 1224.24 Q150.181 1224.24 153.561 1227.41 Q156.941 1230.58 156.941 1236 Q156.941 1241.57 153.468 1244.68 Q149.996 1247.76 143.677 1247.76 Q141.501 1247.76 139.232 1247.38 Q136.987 1247.01 134.58 1246.27 L134.58 1241.57 Q136.663 1242.71 138.885 1243.26 Q141.107 1243.82 143.584 1243.82 Q147.589 1243.82 149.927 1241.71 Q152.265 1239.61 152.265 1236 Q152.265 1232.38 149.927 1230.28 Q147.589 1228.17 143.584 1228.17 Q141.709 1228.17 139.834 1228.59 Q137.982 1229.01 136.038 1229.88 L136.038 1212.52 Z" fill="#000000" fill-rule="nonzero" fill-opacity="1" /><path clip-path="url(#clip890)" d="M90.5752 1137.8 L98.2141 1137.8 L98.2141 1111.43 L89.904 1113.1 L89.904 1108.84 L98.1678 1107.17 L102.844 1107.17 L102.844 1137.8 L110.483 1137.8 L110.483 1141.73 L90.5752 1141.73 L90.5752 1137.8 Z" fill="#000000" fill-rule="nonzero" fill-opacity="1" /><path clip-path="url(#clip890)" d="M119.927 1135.85 L124.811 1135.85 L124.811 1141.73 L119.927 1141.73 L119.927 1135.85 Z" fill="#000000" fill-rule="nonzero" fill-opacity="1" /><path clip-path="url(#clip890)" d="M144.996 1110.25 Q141.385 1110.25 139.556 1113.82 Q137.751 1117.36 137.751 1124.49 Q137.751 1131.6 139.556 1135.16 Q141.385 1138.7 144.996 1138.7 Q148.63 1138.7 150.436 1135.16 Q152.265 1131.6 152.265 1124.49 Q152.265 1117.36 150.436 1113.82 Q148.63 1110.25 144.996 1110.25 M144.996 1106.55 Q150.806 1106.55 153.862 1111.16 Q156.941 1115.74 156.941 1124.49 Q156.941 1133.22 153.862 1137.82 Q150.806 1142.41 144.996 1142.41 Q139.186 1142.41 136.107 1137.82 Q133.052 1133.22 133.052 1124.49 Q133.052 1115.74 136.107 1111.16 Q139.186 1106.55 144.996 1106.55 Z" fill="#000000" fill-rule="nonzero" fill-opacity="1" /><polyline clip-path="url(#clip894)" style="stroke:#009af9; stroke-linecap:round; stroke-linejoin:round; stroke-width:4; stroke-opacity:1; fill:none" points="254.067,1124.45 274.649,1150.96 295.23,1203.57 315.812,1271.59 336.393,1342.96 356.975,1406.26 377.556,1452.42 398.137,1475.9 418.719,1475.24 439.3,1452.85 459.882,1414.31 480.463,1367.16 501.045,1319.56 521.626,1278.96 542.208,1251 562.789,1238.81 583.37,1242.78 603.952,1260.74 624.533,1288.54 645.115,1320.93 665.696,1352.41 686.278,1378.19 706.859,1394.79 727.44,1400.53 748.022,1395.54 768.603,1381.64 789.185,1361.85 809.766,1339.81 830.348,1319.16 850.929,1302.98 871.51,1293.36 892.092,1291.17 912.673,1296.02 933.255,1306.5 953.836,1320.43 974.418,1335.31 994.999,1348.73 1015.58,1358.76 1036.16,1364.15 1056.74,1364.51 1077.32,1360.27 1097.91,1352.53 1118.49,1342.84 1139.07,1332.88 1159.65,1324.23 1180.23,1318.11 1200.81,1315.23 1221.39,1315.72 1241.98,1319.19 1262.56,1324.81 1283.14,1331.5 1303.72,1338.11 1324.3,1343.63 1344.88,1347.3 1365.46,1348.73 1386.05,1347.91 1406.63,1345.18 1427.21,1341.16 1447.79,1336.59 1468.37,1332.23 1488.95,1328.75 1509.53,1326.6 1530.12,1325.99 1550.7,1326.86 1571.28,1328.93 1591.86,1331.78 1612.44,1334.88 1633.02,1337.72 1653.6,1339.89 1674.19,1341.11 1694.77,1341.29 1715.35,1340.5 1735.93,1338.95 1756.51,1336.96 1777.09,1334.88 1797.67,1333.04 1818.26,1331.71 1838.84,1331.04 1859.42,1331.07 1880,1331.74 1900.58,1332.87 1921.16,1334.25 1941.74,1335.64 1962.33,1336.81 1982.91,1337.62 2003.49,1337.97 2024.07,1337.84 2044.65,1337.31 2065.23,1336.49 2085.81,1335.55 2106.4,1334.63 2126.98,1333.88 2147.56,1333.41 2168.14,1333.25 2188.72,1333.4 2209.3,1333.81 2229.88,1334.39 2250.47,1335.03 2271.05,1335.63 2291.63,1336.1 "/>
</svg>
