<?xml version="1.0" encoding="utf-8"?>
<svg xmlns="http://www.w3.org/2000/svg" xmlns:xlink="http://www.w3.org/1999/xlink" width="600" height="400" viewBox="0 0 2400 1600">
<defs>
  <clipPath id="clip530">
    <rect x="0" y="0" width="2400" height="1600"/>
  </clipPath>
</defs>
<path clip-path="url(#clip530)" d="M0 1600 L2400 1600 L2400 0 L0 0  Z" fill="#ffffff" fill-rule="evenodd" fill-opacity="1"/>
<defs>
  <clipPath id="clip531">
    <rect x="480" y="0" width="1681" height="1600"/>
  </clipPath>
</defs>
<path clip-path="url(#clip530)" d="M257.204 1153.06 L2352.76 1153.06 L2352.76 123.472 L257.204 123.472  Z" fill="#ffffff" fill-rule="evenodd" fill-opacity="1"/>
<defs>
  <clipPath id="clip532">
    <rect x="257" y="123" width="2097" height="1031"/>
  </clipPath>
</defs>
<polyline clip-path="url(#clip532)" style="stroke:#000000; stroke-linecap:round; stroke-linejoin:round; stroke-width:2; stroke-opacity:0.1; fill:none" points="257.204,1153.06 257.204,123.472 "/>
<polyline clip-path="url(#clip532)" style="stroke:#000000; stroke-linecap:round; stroke-linejoin:round; stroke-width:2; stroke-opacity:0.1; fill:none" points="590.721,1153.06 590.721,123.472 "/>
<polyline clip-path="url(#clip532)" style="stroke:#000000; stroke-linecap:round; stroke-linejoin:round; stroke-width:2; stroke-opacity:0.1; fill:none" points="924.239,1153.06 924.239,123.472 "/>
<polyline clip-path="url(#clip532)" style="stroke:#000000; stroke-linecap:round; stroke-linejoin:round; stroke-width:2; stroke-opacity:0.1; fill:none" points="1257.76,1153.06 1257.76,123.472 "/>
<polyline clip-path="url(#clip532)" style="stroke:#000000; stroke-linecap:round; stroke-linejoin:round; stroke-width:2; stroke-opacity:0.1; fill:none" points="1591.27,1153.06 1591.27,123.472 "/>
<polyline clip-path="url(#clip532)" style="stroke:#000000; stroke-linecap:round; stroke-linejoin:round; stroke-width:2; stroke-opacity:0.1; fill:none" points="1924.79,1153.06 1924.79,123.472 "/>
<polyline clip-path="url(#clip532)" style="stroke:#000000; stroke-linecap:round; stroke-linejoin:round; stroke-width:2; stroke-opacity:0.1; fill:none" points="2258.31,1153.06 2258.31,123.472 "/>
<polyline clip-path="url(#clip532)" style="stroke:#000000; stroke-linecap:round; stroke-linejoin:round; stroke-width:2; stroke-opacity:0.1; fill:none" points="257.204,1123.94 2352.76,1123.94 "/>
<polyline clip-path="url(#clip532)" style="stroke:#000000; stroke-linecap:round; stroke-linejoin:round; stroke-width:2; stroke-opacity:0.1; fill:none" points="257.204,881.11 2352.76,881.11 "/>
<polyline clip-path="url(#clip532)" style="stroke:#000000; stroke-linecap:round; stroke-linejoin:round; stroke-width:2; stroke-opacity:0.1; fill:none" points="257.204,638.277 2352.76,638.277 "/>
<polyline clip-path="url(#clip532)" style="stroke:#000000; stroke-linecap:round; stroke-linejoin:round; stroke-width:2; stroke-opacity:0.1; fill:none" points="257.204,395.444 2352.76,395.444 "/>
<polyline clip-path="url(#clip532)" style="stroke:#000000; stroke-linecap:round; stroke-linejoin:round; stroke-width:2; stroke-opacity:0.1; fill:none" points="257.204,152.611 2352.76,152.611 "/>
<polyline clip-path="url(#clip530)" style="stroke:#000000; stroke-linecap:round; stroke-linejoin:round; stroke-width:4; stroke-opacity:1; fill:none" points="257.204,1153.06 2352.76,1153.06 "/>
<polyline clip-path="url(#clip530)" style="stroke:#000000; stroke-linecap:round; stroke-linejoin:round; stroke-width:4; stroke-opacity:1; fill:none" points="257.204,1153.06 257.204,1138.09 "/>
<polyline clip-path="url(#clip530)" style="stroke:#000000; stroke-linecap:round; stroke-linejoin:round; stroke-width:4; stroke-opacity:1; fill:none" points="590.721,1153.06 590.721,1138.09 "/>
<polyline clip-path="url(#clip530)" style="stroke:#000000; stroke-linecap:round; stroke-linejoin:round; stroke-width:4; stroke-opacity:1; fill:none" points="924.239,1153.06 924.239,1138.09 "/>
<polyline clip-path="url(#clip530)" style="stroke:#000000; stroke-linecap:round; stroke-linejoin:round; stroke-width:4; stroke-opacity:1; fill:none" points="1257.76,1153.06 1257.76,1138.09 "/>
<polyline clip-path="url(#clip530)" style="stroke:#000000; stroke-linecap:round; stroke-linejoin:round; stroke-width:4; stroke-opacity:1; fill:none" points="1591.27,1153.06 1591.27,1138.09 "/>
<polyline clip-path="url(#clip530)" style="stroke:#000000; stroke-linecap:round; stroke-linejoin:round; stroke-width:4; stroke-opacity:1; fill:none" points="1924.79,1153.06 1924.79,1138.09 "/>
<polyline clip-path="url(#clip530)" style="stroke:#000000; stroke-linecap:round; stroke-linejoin:round; stroke-width:4; stroke-opacity:1; fill:none" points="2258.31,1153.06 2258.31,1138.09 "/>
<path clip-path="url(#clip530)" d="M257.204 1183.97 Q253.593 1183.97 251.764 1187.54 Q249.959 1191.08 249.959 1198.21 Q249.959 1205.32 251.764 1208.88 Q253.593 1212.42 257.204 1212.42 Q260.838 1212.42 262.644 1208.88 Q264.473 1205.32 264.473 1198.21 Q264.473 1191.08 262.644 1187.54 Q260.838 1183.97 257.204 1183.97 M257.204 1180.27 Q263.014 1180.27 266.07 1184.88 Q269.148 1189.46 269.148 1198.21 Q269.148 1206.94 266.07 1211.54 Q263.014 1216.13 257.204 1216.13 Q251.394 1216.13 248.315 1211.54 Q245.26 1206.94 245.26 1198.21 Q245.26 1189.46 248.315 1184.88 Q251.394 1180.27 257.204 1180.27 Z" fill="#000000" fill-rule="nonzero" fill-opacity="1" /><path clip-path="url(#clip530)" d="M581.103 1211.52 L588.742 1211.52 L588.742 1185.16 L580.432 1186.82 L580.432 1182.56 L588.696 1180.9 L593.372 1180.9 L593.372 1211.52 L601.011 1211.52 L601.011 1215.46 L581.103 1215.46 L581.103 1211.52 Z" fill="#000000" fill-rule="nonzero" fill-opacity="1" /><path clip-path="url(#clip530)" d="M918.892 1211.52 L935.211 1211.52 L935.211 1215.46 L913.267 1215.46 L913.267 1211.52 Q915.929 1208.77 920.512 1204.14 Q925.119 1199.48 926.299 1198.14 Q928.544 1195.62 929.424 1193.88 Q930.327 1192.12 930.327 1190.43 Q930.327 1187.68 928.382 1185.94 Q926.461 1184.21 923.359 1184.21 Q921.16 1184.21 918.707 1184.97 Q916.276 1185.73 913.498 1187.29 L913.498 1182.56 Q916.322 1181.43 918.776 1180.85 Q921.23 1180.27 923.267 1180.27 Q928.637 1180.27 931.831 1182.96 Q935.026 1185.64 935.026 1190.13 Q935.026 1192.26 934.216 1194.18 Q933.429 1196.08 931.322 1198.67 Q930.744 1199.35 927.642 1202.56 Q924.54 1205.76 918.892 1211.52 Z" fill="#000000" fill-rule="nonzero" fill-opacity="1" /><path clip-path="url(#clip530)" d="M1262 1196.82 Q1265.36 1197.54 1267.24 1199.81 Q1269.13 1202.08 1269.13 1205.41 Q1269.13 1210.53 1265.62 1213.33 Q1262.1 1216.13 1255.62 1216.13 Q1253.44 1216.13 1251.12 1215.69 Q1248.83 1215.27 1246.38 1214.41 L1246.38 1209.9 Q1248.32 1211.03 1250.64 1211.61 Q1252.95 1212.19 1255.48 1212.19 Q1259.87 1212.19 1262.17 1210.46 Q1264.48 1208.72 1264.48 1205.41 Q1264.48 1202.35 1262.33 1200.64 Q1260.2 1198.91 1256.38 1198.91 L1252.35 1198.91 L1252.35 1195.06 L1256.56 1195.06 Q1260.01 1195.06 1261.84 1193.7 Q1263.67 1192.31 1263.67 1189.72 Q1263.67 1187.05 1261.77 1185.64 Q1259.9 1184.21 1256.38 1184.21 Q1254.46 1184.21 1252.26 1184.62 Q1250.06 1185.04 1247.42 1185.92 L1247.42 1181.75 Q1250.08 1181.01 1252.4 1180.64 Q1254.74 1180.27 1256.8 1180.27 Q1262.12 1180.27 1265.22 1182.7 Q1268.32 1185.11 1268.32 1189.23 Q1268.32 1192.1 1266.68 1194.09 Q1265.04 1196.06 1262 1196.82 Z" fill="#000000" fill-rule="nonzero" fill-opacity="1" /><path clip-path="url(#clip530)" d="M1594.28 1184.97 L1582.48 1203.42 L1594.28 1203.42 L1594.28 1184.97 M1593.06 1180.9 L1598.94 1180.9 L1598.94 1203.42 L1603.87 1203.42 L1603.87 1207.31 L1598.94 1207.31 L1598.94 1215.46 L1594.28 1215.46 L1594.28 1207.31 L1578.68 1207.31 L1578.68 1202.79 L1593.06 1180.9 Z" fill="#000000" fill-rule="nonzero" fill-opacity="1" /><path clip-path="url(#clip530)" d="M1915.07 1180.9 L1933.43 1180.9 L1933.43 1184.83 L1919.35 1184.83 L1919.35 1193.3 Q1920.37 1192.96 1921.39 1192.79 Q1922.41 1192.61 1923.43 1192.61 Q1929.21 1192.61 1932.59 1195.78 Q1935.97 1198.95 1935.97 1204.37 Q1935.97 1209.95 1932.5 1213.05 Q1929.03 1216.13 1922.71 1216.13 Q1920.53 1216.13 1918.26 1215.76 Q1916.02 1215.39 1913.61 1214.65 L1913.61 1209.95 Q1915.69 1211.08 1917.92 1211.64 Q1920.14 1212.19 1922.62 1212.19 Q1926.62 1212.19 1928.96 1210.09 Q1931.3 1207.98 1931.3 1204.37 Q1931.3 1200.76 1928.96 1198.65 Q1926.62 1196.54 1922.62 1196.54 Q1920.74 1196.54 1918.87 1196.96 Q1917.01 1197.38 1915.07 1198.26 L1915.07 1180.9 Z" fill="#000000" fill-rule="nonzero" fill-opacity="1" /><path clip-path="url(#clip530)" d="M2258.71 1196.31 Q2255.57 1196.31 2253.71 1198.47 Q2251.89 1200.62 2251.89 1204.37 Q2251.89 1208.1 2253.71 1210.27 Q2255.57 1212.42 2258.71 1212.42 Q2261.86 1212.42 2263.69 1210.27 Q2265.54 1208.1 2265.54 1204.37 Q2265.54 1200.62 2263.69 1198.47 Q2261.86 1196.31 2258.71 1196.31 M2268 1181.66 L2268 1185.92 Q2266.24 1185.09 2264.43 1184.65 Q2262.65 1184.21 2260.89 1184.21 Q2256.26 1184.21 2253.81 1187.33 Q2251.38 1190.46 2251.03 1196.78 Q2252.39 1194.76 2254.45 1193.7 Q2256.51 1192.61 2258.99 1192.61 Q2264.2 1192.61 2267.21 1195.78 Q2270.24 1198.93 2270.24 1204.37 Q2270.24 1209.69 2267.09 1212.91 Q2263.95 1216.13 2258.71 1216.13 Q2252.72 1216.13 2249.55 1211.54 Q2246.38 1206.94 2246.38 1198.21 Q2246.38 1190.02 2250.26 1185.16 Q2254.15 1180.27 2260.7 1180.27 Q2262.46 1180.27 2264.25 1180.62 Q2266.05 1180.97 2268 1181.66 Z" fill="#000000" fill-rule="nonzero" fill-opacity="1" /><path clip-path="url(#clip530)" d="M1321.59 1262.27 L1308.7 1279.62 L1322.26 1297.92 L1315.36 1297.92 L1304.98 1283.92 L1294.6 1297.92 L1287.7 1297.92 L1301.54 1279.27 L1288.87 1262.27 L1295.78 1262.27 L1305.23 1274.97 L1314.69 1262.27 L1321.59 1262.27 Z" fill="#000000" fill-rule="nonzero" fill-opacity="1" /><polyline clip-path="url(#clip530)" style="stroke:#000000; stroke-linecap:round; stroke-linejoin:round; stroke-width:4; stroke-opacity:1; fill:none" points="257.204,1153.06 257.204,123.472 "/>
<polyline clip-path="url(#clip530)" style="stroke:#000000; stroke-linecap:round; stroke-linejoin:round; stroke-width:4; stroke-opacity:1; fill:none" points="257.204,1123.94 276.102,1123.94 "/>
<polyline clip-path="url(#clip530)" style="stroke:#000000; stroke-linecap:round; stroke-linejoin:round; stroke-width:4; stroke-opacity:1; fill:none" points="257.204,881.11 276.102,881.11 "/>
<polyline clip-path="url(#clip530)" style="stroke:#000000; stroke-linecap:round; stroke-linejoin:round; stroke-width:4; stroke-opacity:1; fill:none" points="257.204,638.277 276.102,638.277 "/>
<polyline clip-path="url(#clip530)" style="stroke:#000000; stroke-linecap:round; stroke-linejoin:round; stroke-width:4; stroke-opacity:1; fill:none" points="257.204,395.444 276.102,395.444 "/>
<polyline clip-path="url(#clip530)" style="stroke:#000000; stroke-linecap:round; stroke-linejoin:round; stroke-width:4; stroke-opacity:1; fill:none" points="257.204,152.611 276.102,152.611 "/>
<path clip-path="url(#clip530)" d="M114.26 1124.39 L143.936 1124.39 L143.936 1128.33 L114.26 1128.33 L114.26 1124.39 Z" fill="#000000" fill-rule="nonzero" fill-opacity="1" /><path clip-path="url(#clip530)" d="M154.839 1137.29 L162.477 1137.29 L162.477 1110.92 L154.167 1112.59 L154.167 1108.33 L162.431 1106.66 L167.107 1106.66 L167.107 1137.29 L174.746 1137.29 L174.746 1141.22 L154.839 1141.22 L154.839 1137.29 Z" fill="#000000" fill-rule="nonzero" fill-opacity="1" /><path clip-path="url(#clip530)" d="M184.19 1135.34 L189.075 1135.34 L189.075 1141.22 L184.19 1141.22 L184.19 1135.34 Z" fill="#000000" fill-rule="nonzero" fill-opacity="1" /><path clip-path="url(#clip530)" d="M209.26 1109.74 Q205.649 1109.74 203.82 1113.31 Q202.014 1116.85 202.014 1123.98 Q202.014 1131.08 203.82 1134.65 Q205.649 1138.19 209.26 1138.19 Q212.894 1138.19 214.699 1134.65 Q216.528 1131.08 216.528 1123.98 Q216.528 1116.85 214.699 1113.31 Q212.894 1109.74 209.26 1109.74 M209.26 1106.04 Q215.07 1106.04 218.125 1110.64 Q221.204 1115.23 221.204 1123.98 Q221.204 1132.7 218.125 1137.31 Q215.07 1141.89 209.26 1141.89 Q203.449 1141.89 200.371 1137.31 Q197.315 1132.7 197.315 1123.98 Q197.315 1115.23 200.371 1110.64 Q203.449 1106.04 209.26 1106.04 Z" fill="#000000" fill-rule="nonzero" fill-opacity="1" /><path clip-path="url(#clip530)" d="M115.256 881.561 L144.931 881.561 L144.931 885.496 L115.256 885.496 L115.256 881.561 Z" fill="#000000" fill-rule="nonzero" fill-opacity="1" /><path clip-path="url(#clip530)" d="M165.024 866.909 Q161.413 866.909 159.584 870.473 Q157.778 874.015 157.778 881.145 Q157.778 888.251 159.584 891.816 Q161.413 895.357 165.024 895.357 Q168.658 895.357 170.464 891.816 Q172.292 888.251 172.292 881.145 Q172.292 874.015 170.464 870.473 Q168.658 866.909 165.024 866.909 M165.024 863.205 Q170.834 863.205 173.889 867.811 Q176.968 872.395 176.968 881.145 Q176.968 889.871 173.889 894.478 Q170.834 899.061 165.024 899.061 Q159.214 899.061 156.135 894.478 Q153.079 889.871 153.079 881.145 Q153.079 872.395 156.135 867.811 Q159.214 863.205 165.024 863.205 Z" fill="#000000" fill-rule="nonzero" fill-opacity="1" /><path clip-path="url(#clip530)" d="M185.186 892.51 L190.07 892.51 L190.07 898.39 L185.186 898.39 L185.186 892.51 Z" fill="#000000" fill-rule="nonzero" fill-opacity="1" /><path clip-path="url(#clip530)" d="M200.301 863.83 L218.658 863.83 L218.658 867.765 L204.584 867.765 L204.584 876.237 Q205.602 875.89 206.621 875.728 Q207.639 875.543 208.658 875.543 Q214.445 875.543 217.824 878.714 Q221.204 881.885 221.204 887.302 Q221.204 892.881 217.732 895.982 Q214.26 899.061 207.94 899.061 Q205.764 899.061 203.496 898.691 Q201.25 898.32 198.843 897.58 L198.843 892.881 Q200.926 894.015 203.149 894.57 Q205.371 895.126 207.848 895.126 Q211.852 895.126 214.19 893.02 Q216.528 890.913 216.528 887.302 Q216.528 883.691 214.19 881.584 Q211.852 879.478 207.848 879.478 Q205.973 879.478 204.098 879.895 Q202.246 880.311 200.301 881.191 L200.301 863.83 Z" fill="#000000" fill-rule="nonzero" fill-opacity="1" /><path clip-path="url(#clip530)" d="M164.028 624.076 Q160.417 624.076 158.589 627.641 Q156.783 631.182 156.783 638.312 Q156.783 645.418 158.589 648.983 Q160.417 652.525 164.028 652.525 Q167.663 652.525 169.468 648.983 Q171.297 645.418 171.297 638.312 Q171.297 631.182 169.468 627.641 Q167.663 624.076 164.028 624.076 M164.028 620.372 Q169.839 620.372 172.894 624.978 Q175.973 629.562 175.973 638.312 Q175.973 647.039 172.894 651.645 Q169.839 656.228 164.028 656.228 Q158.218 656.228 155.14 651.645 Q152.084 647.039 152.084 638.312 Q152.084 629.562 155.14 624.978 Q158.218 620.372 164.028 620.372 Z" fill="#000000" fill-rule="nonzero" fill-opacity="1" /><path clip-path="url(#clip530)" d="M184.19 649.677 L189.075 649.677 L189.075 655.557 L184.19 655.557 L184.19 649.677 Z" fill="#000000" fill-rule="nonzero" fill-opacity="1" /><path clip-path="url(#clip530)" d="M209.26 624.076 Q205.649 624.076 203.82 627.641 Q202.014 631.182 202.014 638.312 Q202.014 645.418 203.82 648.983 Q205.649 652.525 209.26 652.525 Q212.894 652.525 214.699 648.983 Q216.528 645.418 216.528 638.312 Q216.528 631.182 214.699 627.641 Q212.894 624.076 209.26 624.076 M209.26 620.372 Q215.07 620.372 218.125 624.978 Q221.204 629.562 221.204 638.312 Q221.204 647.039 218.125 651.645 Q215.07 656.228 209.26 656.228 Q203.449 656.228 200.371 651.645 Q197.315 647.039 197.315 638.312 Q197.315 629.562 200.371 624.978 Q203.449 620.372 209.26 620.372 Z" fill="#000000" fill-rule="nonzero" fill-opacity="1" /><path clip-path="url(#clip530)" d="M165.024 381.243 Q161.413 381.243 159.584 384.808 Q157.778 388.349 157.778 395.479 Q157.778 402.585 159.584 406.15 Q161.413 409.692 165.024 409.692 Q168.658 409.692 170.464 406.15 Q172.292 402.585 172.292 395.479 Q172.292 388.349 170.464 384.808 Q168.658 381.243 165.024 381.243 M165.024 377.539 Q170.834 377.539 173.889 382.146 Q176.968 386.729 176.968 395.479 Q176.968 404.206 173.889 408.812 Q170.834 413.395 165.024 413.395 Q159.214 413.395 156.135 408.812 Q153.079 404.206 153.079 395.479 Q153.079 386.729 156.135 382.146 Q159.214 377.539 165.024 377.539 Z" fill="#000000" fill-rule="nonzero" fill-opacity="1" /><path clip-path="url(#clip530)" d="M185.186 406.845 L190.07 406.845 L190.07 412.724 L185.186 412.724 L185.186 406.845 Z" fill="#000000" fill-rule="nonzero" fill-opacity="1" /><path clip-path="url(#clip530)" d="M200.301 378.164 L218.658 378.164 L218.658 382.099 L204.584 382.099 L204.584 390.571 Q205.602 390.224 206.621 390.062 Q207.639 389.877 208.658 389.877 Q214.445 389.877 217.824 393.048 Q221.204 396.22 221.204 401.636 Q221.204 407.215 217.732 410.317 Q214.26 413.395 207.94 413.395 Q205.764 413.395 203.496 413.025 Q201.25 412.655 198.843 411.914 L198.843 407.215 Q200.926 408.349 203.149 408.905 Q205.371 409.46 207.848 409.46 Q211.852 409.46 214.19 407.354 Q216.528 405.247 216.528 401.636 Q216.528 398.025 214.19 395.919 Q211.852 393.812 207.848 393.812 Q205.973 393.812 204.098 394.229 Q202.246 394.646 200.301 395.525 L200.301 378.164 Z" fill="#000000" fill-rule="nonzero" fill-opacity="1" /><path clip-path="url(#clip530)" d="M154.839 165.956 L162.477 165.956 L162.477 139.591 L154.167 141.257 L154.167 136.998 L162.431 135.331 L167.107 135.331 L167.107 165.956 L174.746 165.956 L174.746 169.891 L154.839 169.891 L154.839 165.956 Z" fill="#000000" fill-rule="nonzero" fill-opacity="1" /><path clip-path="url(#clip530)" d="M184.19 164.012 L189.075 164.012 L189.075 169.891 L184.19 169.891 L184.19 164.012 Z" fill="#000000" fill-rule="nonzero" fill-opacity="1" /><path clip-path="url(#clip530)" d="M209.26 138.41 Q205.649 138.41 203.82 141.975 Q202.014 145.516 202.014 152.646 Q202.014 159.752 203.82 163.317 Q205.649 166.859 209.26 166.859 Q212.894 166.859 214.699 163.317 Q216.528 159.752 216.528 152.646 Q216.528 145.516 214.699 141.975 Q212.894 138.41 209.26 138.41 M209.26 134.706 Q215.07 134.706 218.125 139.313 Q221.204 143.896 221.204 152.646 Q221.204 161.373 218.125 165.979 Q215.07 170.563 209.26 170.563 Q203.449 170.563 200.371 165.979 Q197.315 161.373 197.315 152.646 Q197.315 143.896 200.371 139.313 Q203.449 134.706 209.26 134.706 Z" fill="#000000" fill-rule="nonzero" fill-opacity="1" /><path clip-path="url(#clip530)" d="M67.3143 636.577 Q73.68 639.06 75.6216 641.415 Q77.5631 643.771 77.5631 647.717 L77.5631 652.396 L72.6615 652.396 L72.6615 648.959 Q72.6615 646.54 71.5157 645.203 Q70.3699 643.866 66.1048 642.243 L63.4312 641.192 L28.3562 655.611 L28.3562 649.404 L56.238 638.264 L28.3562 627.124 L28.3562 620.918 L67.3143 636.577 Z" fill="#000000" fill-rule="nonzero" fill-opacity="1" /><path clip-path="url(#clip530)" d="M817.859 12.096 L869.022 12.096 L869.022 18.9825 L847.552 18.9825 L847.552 72.576 L839.329 72.576 L839.329 18.9825 L817.859 18.9825 L817.859 12.096 Z" fill="#000000" fill-rule="nonzero" fill-opacity="1" /><path clip-path="url(#clip530)" d="M890.694 34.1734 Q889.438 33.4443 887.939 33.1202 Q886.481 32.7556 884.699 32.7556 Q878.379 32.7556 874.976 36.8875 Q871.614 40.9789 871.614 48.6757 L871.614 72.576 L864.12 72.576 L864.12 27.2059 L871.614 27.2059 L871.614 34.2544 Q873.964 30.1225 877.731 28.1376 Q881.498 26.1121 886.886 26.1121 Q887.656 26.1121 888.588 26.2337 Q889.519 26.3147 890.653 26.5172 L890.694 34.1734 Z" fill="#000000" fill-rule="nonzero" fill-opacity="1" /><path clip-path="url(#clip530)" d="M898.512 27.2059 L905.966 27.2059 L905.966 72.576 L898.512 72.576 L898.512 27.2059 M898.512 9.54393 L905.966 9.54393 L905.966 18.9825 L898.512 18.9825 L898.512 9.54393 Z" fill="#000000" fill-rule="nonzero" fill-opacity="1" /><path clip-path="url(#clip530)" d="M951.417 49.3643 Q951.417 41.2625 948.055 36.8065 Q944.733 32.3505 938.697 32.3505 Q932.702 32.3505 929.34 36.8065 Q926.018 41.2625 926.018 49.3643 Q926.018 57.4256 929.34 61.8816 Q932.702 66.3376 938.697 66.3376 Q944.733 66.3376 948.055 61.8816 Q951.417 57.4256 951.417 49.3643 M958.871 66.9452 Q958.871 78.5308 953.726 84.1616 Q948.581 89.8329 937.968 89.8329 Q934.039 89.8329 930.555 89.2252 Q927.071 88.6581 923.79 87.4428 L923.79 80.1917 Q927.071 81.9741 930.271 82.8248 Q933.472 83.6755 936.793 83.6755 Q944.125 83.6755 947.771 79.8271 Q951.417 76.0193 951.417 68.282 L951.417 64.5957 Q949.108 68.6061 945.503 70.5911 Q941.897 72.576 936.874 72.576 Q928.529 72.576 923.425 66.2161 Q918.321 59.8562 918.321 49.3643 Q918.321 38.832 923.425 32.472 Q928.529 26.1121 936.874 26.1121 Q941.897 26.1121 945.503 28.0971 Q949.108 30.082 951.417 34.0924 L951.417 27.2059 L958.871 27.2059 L958.871 66.9452 Z" fill="#000000" fill-rule="nonzero" fill-opacity="1" /><path clip-path="url(#clip530)" d="M991.805 32.4315 Q985.809 32.4315 982.325 37.1306 Q978.842 41.7891 978.842 49.9314 Q978.842 58.0738 982.285 62.7728 Q985.769 67.4314 991.805 67.4314 Q997.759 67.4314 1001.24 62.7323 Q1004.73 58.0333 1004.73 49.9314 Q1004.73 41.8701 1001.24 37.1711 Q997.759 32.4315 991.805 32.4315 M991.805 26.1121 Q1001.53 26.1121 1007.08 32.4315 Q1012.63 38.7509 1012.63 49.9314 Q1012.63 61.0714 1007.08 67.4314 Q1001.53 73.7508 991.805 73.7508 Q982.042 73.7508 976.492 67.4314 Q970.983 61.0714 970.983 49.9314 Q970.983 38.7509 976.492 32.4315 Q982.042 26.1121 991.805 26.1121 Z" fill="#000000" fill-rule="nonzero" fill-opacity="1" /><path clip-path="url(#clip530)" d="M1062.7 45.1919 L1062.7 72.576 L1055.24 72.576 L1055.24 45.4349 Q1055.24 38.994 1052.73 35.7938 Q1050.22 32.5936 1045.2 32.5936 Q1039.16 32.5936 1035.68 36.4419 Q1032.19 40.2903 1032.19 46.9338 L1032.19 72.576 L1024.7 72.576 L1024.7 27.2059 L1032.19 27.2059 L1032.19 34.2544 Q1034.87 30.163 1038.47 28.1376 Q1042.12 26.1121 1046.86 26.1121 Q1054.67 26.1121 1058.68 30.9732 Q1062.7 35.7938 1062.7 45.1919 Z" fill="#000000" fill-rule="nonzero" fill-opacity="1" /><path clip-path="url(#clip530)" d="M1095.14 32.4315 Q1089.15 32.4315 1085.66 37.1306 Q1082.18 41.7891 1082.18 49.9314 Q1082.18 58.0738 1085.62 62.7728 Q1089.11 67.4314 1095.14 67.4314 Q1101.1 67.4314 1104.58 62.7323 Q1108.07 58.0333 1108.07 49.9314 Q1108.07 41.8701 1104.58 37.1711 Q1101.1 32.4315 1095.14 32.4315 M1095.14 26.1121 Q1104.87 26.1121 1110.42 32.4315 Q1115.96 38.7509 1115.96 49.9314 Q1115.96 61.0714 1110.42 67.4314 Q1104.87 73.7508 1095.14 73.7508 Q1085.38 73.7508 1079.83 67.4314 Q1074.32 61.0714 1074.32 49.9314 Q1074.32 38.7509 1079.83 32.4315 Q1085.38 26.1121 1095.14 26.1121 Z" fill="#000000" fill-rule="nonzero" fill-opacity="1" /><path clip-path="url(#clip530)" d="M1163.64 35.9153 Q1166.44 30.8922 1170.33 28.5022 Q1174.22 26.1121 1179.48 26.1121 Q1186.57 26.1121 1190.42 31.0947 Q1194.27 36.0368 1194.27 45.1919 L1194.27 72.576 L1186.77 72.576 L1186.77 45.4349 Q1186.77 38.913 1184.47 35.7533 Q1182.16 32.5936 1177.42 32.5936 Q1171.62 32.5936 1168.26 36.4419 Q1164.9 40.2903 1164.9 46.9338 L1164.9 72.576 L1157.41 72.576 L1157.41 45.4349 Q1157.41 38.8725 1155.1 35.7533 Q1152.79 32.5936 1147.97 32.5936 Q1142.26 32.5936 1138.89 36.4824 Q1135.53 40.3308 1135.53 46.9338 L1135.53 72.576 L1128.04 72.576 L1128.04 27.2059 L1135.53 27.2059 L1135.53 34.2544 Q1138.08 30.082 1141.65 28.0971 Q1145.21 26.1121 1150.11 26.1121 Q1155.06 26.1121 1158.5 28.6237 Q1161.98 31.1352 1163.64 35.9153 Z" fill="#000000" fill-rule="nonzero" fill-opacity="1" /><path clip-path="url(#clip530)" d="M1247.94 48.0275 L1247.94 51.6733 L1213.67 51.6733 Q1214.16 59.3701 1218.29 63.421 Q1222.46 67.4314 1229.88 67.4314 Q1234.17 67.4314 1238.18 66.3781 Q1242.23 65.3249 1246.2 63.2184 L1246.2 70.267 Q1242.19 71.9684 1237.98 72.8596 Q1233.77 73.7508 1229.43 73.7508 Q1218.57 73.7508 1212.21 67.4314 Q1205.89 61.1119 1205.89 50.3365 Q1205.89 39.1965 1211.89 32.6746 Q1217.93 26.1121 1228.13 26.1121 Q1237.29 26.1121 1242.6 32.0264 Q1247.94 37.9003 1247.94 48.0275 M1240.49 45.84 Q1240.41 39.7232 1237.05 36.0774 Q1233.72 32.4315 1228.22 32.4315 Q1221.98 32.4315 1218.21 35.9558 Q1214.48 39.4801 1213.92 45.8805 L1240.49 45.84 Z" fill="#000000" fill-rule="nonzero" fill-opacity="1" /><path clip-path="url(#clip530)" d="M1267.55 14.324 L1267.55 27.2059 L1282.9 27.2059 L1282.9 32.9987 L1267.55 32.9987 L1267.55 57.6282 Q1267.55 63.1779 1269.05 64.7578 Q1270.59 66.3376 1275.25 66.3376 L1282.9 66.3376 L1282.9 72.576 L1275.25 72.576 Q1266.62 72.576 1263.34 69.3758 Q1260.06 66.1351 1260.06 57.6282 L1260.06 32.9987 L1254.59 32.9987 L1254.59 27.2059 L1260.06 27.2059 L1260.06 14.324 L1267.55 14.324 Z" fill="#000000" fill-rule="nonzero" fill-opacity="1" /><path clip-path="url(#clip530)" d="M1319 34.1734 Q1317.74 33.4443 1316.24 33.1202 Q1314.78 32.7556 1313 32.7556 Q1306.68 32.7556 1303.28 36.8875 Q1299.92 40.9789 1299.92 48.6757 L1299.92 72.576 L1292.42 72.576 L1292.42 27.2059 L1299.92 27.2059 L1299.92 34.2544 Q1302.27 30.1225 1306.03 28.1376 Q1309.8 26.1121 1315.19 26.1121 Q1315.96 26.1121 1316.89 26.2337 Q1317.82 26.3147 1318.96 26.5172 L1319 34.1734 Z" fill="#000000" fill-rule="nonzero" fill-opacity="1" /><path clip-path="url(#clip530)" d="M1326.81 27.2059 L1334.27 27.2059 L1334.27 72.576 L1326.81 72.576 L1326.81 27.2059 M1326.81 9.54393 L1334.27 9.54393 L1334.27 18.9825 L1326.81 18.9825 L1326.81 9.54393 Z" fill="#000000" fill-rule="nonzero" fill-opacity="1" /><path clip-path="url(#clip530)" d="M1382.51 28.9478 L1382.51 35.9153 Q1379.35 34.1734 1376.15 33.3227 Q1372.99 32.4315 1369.75 32.4315 Q1362.5 32.4315 1358.49 37.0496 Q1354.48 41.6271 1354.48 49.9314 Q1354.48 58.2358 1358.49 62.8538 Q1362.5 67.4314 1369.75 67.4314 Q1372.99 67.4314 1376.15 66.5807 Q1379.35 65.6895 1382.51 63.9476 L1382.51 70.8341 Q1379.4 72.2924 1376.03 73.0216 Q1372.71 73.7508 1368.94 73.7508 Q1358.69 73.7508 1352.66 67.3098 Q1346.62 60.8689 1346.62 49.9314 Q1346.62 38.832 1352.7 32.472 Q1358.82 26.1121 1369.43 26.1121 Q1372.87 26.1121 1376.15 26.8413 Q1379.44 27.5299 1382.51 28.9478 Z" fill="#000000" fill-rule="nonzero" fill-opacity="1" /><path clip-path="url(#clip530)" d="M1444.82 9.54393 L1444.82 15.7418 L1437.69 15.7418 Q1433.68 15.7418 1432.1 17.3622 Q1430.56 18.9825 1430.56 23.1955 L1430.56 27.2059 L1442.83 27.2059 L1442.83 32.9987 L1430.56 32.9987 L1430.56 72.576 L1423.06 72.576 L1423.06 32.9987 L1415.93 32.9987 L1415.93 27.2059 L1423.06 27.2059 L1423.06 24.0462 Q1423.06 16.471 1426.59 13.0277 Q1430.11 9.54393 1437.77 9.54393 L1444.82 9.54393 Z" fill="#000000" fill-rule="nonzero" fill-opacity="1" /><path clip-path="url(#clip530)" d="M1450.29 54.671 L1450.29 27.2059 L1457.74 27.2059 L1457.74 54.3874 Q1457.74 60.8284 1460.25 64.0691 Q1462.76 67.2693 1467.79 67.2693 Q1473.82 67.2693 1477.31 63.421 Q1480.83 59.5726 1480.83 52.9291 L1480.83 27.2059 L1488.28 27.2059 L1488.28 72.576 L1480.83 72.576 L1480.83 65.6084 Q1478.12 69.7404 1474.51 71.7658 Q1470.95 73.7508 1466.21 73.7508 Q1458.39 73.7508 1454.34 68.8897 Q1450.29 64.0286 1450.29 54.671 M1469.04 26.1121 L1469.04 26.1121 Z" fill="#000000" fill-rule="nonzero" fill-opacity="1" /><path clip-path="url(#clip530)" d="M1541.35 45.1919 L1541.35 72.576 L1533.9 72.576 L1533.9 45.4349 Q1533.9 38.994 1531.39 35.7938 Q1528.87 32.5936 1523.85 32.5936 Q1517.81 32.5936 1514.33 36.4419 Q1510.85 40.2903 1510.85 46.9338 L1510.85 72.576 L1503.35 72.576 L1503.35 27.2059 L1510.85 27.2059 L1510.85 34.2544 Q1513.52 30.163 1517.13 28.1376 Q1520.77 26.1121 1525.51 26.1121 Q1533.33 26.1121 1537.34 30.9732 Q1541.35 35.7938 1541.35 45.1919 Z" fill="#000000" fill-rule="nonzero" fill-opacity="1" /><path clip-path="url(#clip530)" d="M1588.87 28.9478 L1588.87 35.9153 Q1585.71 34.1734 1582.51 33.3227 Q1579.35 32.4315 1576.11 32.4315 Q1568.86 32.4315 1564.85 37.0496 Q1560.84 41.6271 1560.84 49.9314 Q1560.84 58.2358 1564.85 62.8538 Q1568.86 67.4314 1576.11 67.4314 Q1579.35 67.4314 1582.51 66.5807 Q1585.71 65.6895 1588.87 63.9476 L1588.87 70.8341 Q1585.75 72.2924 1582.39 73.0216 Q1579.06 73.7508 1575.3 73.7508 Q1565.05 73.7508 1559.01 67.3098 Q1552.98 60.8689 1552.98 49.9314 Q1552.98 38.832 1559.05 32.472 Q1565.17 26.1121 1575.78 26.1121 Q1579.23 26.1121 1582.51 26.8413 Q1585.79 27.5299 1588.87 28.9478 Z" fill="#000000" fill-rule="nonzero" fill-opacity="1" /><path clip-path="url(#clip530)" d="M1609.2 14.324 L1609.2 27.2059 L1624.56 27.2059 L1624.56 32.9987 L1609.2 32.9987 L1609.2 57.6282 Q1609.2 63.1779 1610.7 64.7578 Q1612.24 66.3376 1616.9 66.3376 L1624.56 66.3376 L1624.56 72.576 L1616.9 72.576 Q1608.27 72.576 1604.99 69.3758 Q1601.71 66.1351 1601.71 57.6282 L1601.71 32.9987 L1596.24 32.9987 L1596.24 27.2059 L1601.71 27.2059 L1601.71 14.324 L1609.2 14.324 Z" fill="#000000" fill-rule="nonzero" fill-opacity="1" /><path clip-path="url(#clip530)" d="M1634.36 27.2059 L1641.81 27.2059 L1641.81 72.576 L1634.36 72.576 L1634.36 27.2059 M1634.36 9.54393 L1641.81 9.54393 L1641.81 18.9825 L1634.36 18.9825 L1634.36 9.54393 Z" fill="#000000" fill-rule="nonzero" fill-opacity="1" /><path clip-path="url(#clip530)" d="M1674.99 32.4315 Q1668.99 32.4315 1665.51 37.1306 Q1662.03 41.7891 1662.03 49.9314 Q1662.03 58.0738 1665.47 62.7728 Q1668.95 67.4314 1674.99 67.4314 Q1680.94 67.4314 1684.43 62.7323 Q1687.91 58.0333 1687.91 49.9314 Q1687.91 41.8701 1684.43 37.1711 Q1680.94 32.4315 1674.99 32.4315 M1674.99 26.1121 Q1684.71 26.1121 1690.26 32.4315 Q1695.81 38.7509 1695.81 49.9314 Q1695.81 61.0714 1690.26 67.4314 Q1684.71 73.7508 1674.99 73.7508 Q1665.23 73.7508 1659.68 67.4314 Q1654.17 61.0714 1654.17 49.9314 Q1654.17 38.7509 1659.68 32.4315 Q1665.23 26.1121 1674.99 26.1121 Z" fill="#000000" fill-rule="nonzero" fill-opacity="1" /><path clip-path="url(#clip530)" d="M1745.88 45.1919 L1745.88 72.576 L1738.43 72.576 L1738.43 45.4349 Q1738.43 38.994 1735.92 35.7938 Q1733.4 32.5936 1728.38 32.5936 Q1722.34 32.5936 1718.86 36.4419 Q1715.38 40.2903 1715.38 46.9338 L1715.38 72.576 L1707.88 72.576 L1707.88 27.2059 L1715.38 27.2059 L1715.38 34.2544 Q1718.05 30.163 1721.66 28.1376 Q1725.3 26.1121 1730.04 26.1121 Q1737.86 26.1121 1741.87 30.9732 Q1745.88 35.7938 1745.88 45.1919 Z" fill="#000000" fill-rule="nonzero" fill-opacity="1" /><path clip-path="url(#clip530)" d="M1789.67 28.5427 L1789.67 35.5912 Q1786.51 33.9709 1783.11 33.1607 Q1779.71 32.3505 1776.06 32.3505 Q1770.51 32.3505 1767.71 34.0519 Q1764.96 35.7533 1764.96 39.156 Q1764.96 41.7486 1766.95 43.2475 Q1768.93 44.7058 1774.93 46.0426 L1777.48 46.6097 Q1785.42 48.3111 1788.74 51.4303 Q1792.1 54.509 1792.1 60.0587 Q1792.1 66.3781 1787.08 70.0644 Q1782.1 73.7508 1773.35 73.7508 Q1769.7 73.7508 1765.73 73.0216 Q1761.8 72.3329 1757.43 70.9151 L1757.43 63.2184 Q1761.56 65.3654 1765.57 66.4591 Q1769.58 67.5124 1773.51 67.5124 Q1778.77 67.5124 1781.61 65.73 Q1784.44 63.9071 1784.44 60.6258 Q1784.44 57.5877 1782.38 55.9673 Q1780.35 54.3469 1773.43 52.8481 L1770.83 52.2405 Q1763.91 50.7821 1760.83 47.7845 Q1757.75 44.7463 1757.75 39.4801 Q1757.75 33.0797 1762.29 29.5959 Q1766.82 26.1121 1775.17 26.1121 Q1779.3 26.1121 1782.95 26.7198 Q1786.59 27.3274 1789.67 28.5427 Z" fill="#000000" fill-rule="nonzero" fill-opacity="1" /><polyline clip-path="url(#clip532)" style="stroke:#009af9; stroke-linecap:round; stroke-linejoin:round; stroke-width:8; stroke-opacity:1; fill:none" points="257.204,638.277 290.893,589.303 324.581,540.829 358.27,493.348 391.959,447.344 425.647,403.287 459.336,361.625 493.024,322.784 526.713,287.159 560.402,255.113 594.09,226.974 627.779,203.027 661.468,183.518 695.156,168.644 728.845,158.558 762.533,153.363 796.222,153.111 829.911,157.805 863.599,167.397 897.288,181.789 930.977,200.835 964.665,224.341 998.354,252.066 1032.04,283.728 1065.73,319.005 1099.42,357.537 1133.11,398.93 1166.8,442.764 1200.49,488.59 1234.17,535.943 1267.86,584.339 1301.55,633.285 1335.24,682.281 1368.93,730.829 1402.62,778.434 1436.31,824.61 1469.99,868.886 1503.68,910.811 1537.37,949.958 1571.06,985.927 1604.75,1018.35 1638.44,1046.9 1672.13,1071.29 1705.82,1091.26 1739.5,1106.61 1773.19,1117.19 1806.88,1122.89 1840.57,1123.64 1874.26,1119.45 1907.95,1110.35 1941.64,1096.44 1975.32,1077.86 2009.01,1054.8 2042.7,1027.49 2076.39,996.219 2110.08,961.294 2143.77,923.076 2177.46,881.955 2211.14,838.35 2244.83,792.705 2278.52,745.486 2312.21,697.174 2345.9,648.261 2379.59,599.247 2413.28,550.63 2446.96,502.908 2480.65,456.565 2514.34,412.074 2548.03,369.89 2581.72,330.441 2615.41,294.131 2649.1,261.329 2682.79,232.37 2716.47,207.549 2750.16,187.119 2783.85,171.288 2817.54,160.217 2851.23,154.021 2884.92,152.761 2918.61,156.45 2952.29,165.052 2985.98,178.477 3019.67,196.59 3053.36,219.206 3087.05,246.094 3120.74,276.98 3154.43,311.549 3188.11,349.449 3221.8,390.293 3255.49,433.666 3289.18,479.124 3322.87,526.205 3356.56,574.428 3390.25,623.302 3423.94,672.329 3457.62,721.009 3491.31,768.845 3525,815.35 3558.69,860.05 3592.38,902.489 "/>
<polyline clip-path="url(#clip532)" style="stroke:#e26f46; stroke-linecap:round; stroke-linejoin:round; stroke-width:4; stroke-opacity:1; fill:none" points="257.204,152.611 290.893,155.087 324.581,162.488 358.27,174.74 391.959,191.717 425.647,213.247 459.336,239.109 493.024,269.041 526.713,302.737 560.402,339.853 594.09,380.012 627.779,422.804 661.468,467.792 695.156,514.518 728.845,562.506 762.533,611.266 796.222,660.302 829.911,709.113 863.599,757.202 897.288,804.079 930.977,849.265 964.665,892.3 998.354,932.746 1032.04,970.19 1065.73,1004.25 1099.42,1034.58 1133.11,1060.87 1166.8,1082.85 1200.49,1100.3 1234.17,1113.04 1267.86,1120.94 1301.55,1123.92 1335.24,1121.95 1368.93,1115.04 1402.62,1103.28 1436.31,1086.78 1469.99,1065.7 1503.68,1040.27 1537.37,1010.74 1571.06,977.409 1604.75,940.624 1638.44,900.756 1672.13,858.213 1705.82,813.428 1739.5,766.857 1773.19,718.975 1806.88,670.271 1840.57,621.241 1874.26,572.384 1907.95,524.199 1941.64,477.177 1975.32,431.797 2009.01,388.522 2042.7,347.793 2076.39,310.026 2110.08,275.605 2143.77,244.881 2177.46,218.167 2211.14,195.737 2244.83,177.817 2278.52,164.592 2312.21,156.196 2345.9,152.714 2379.59,154.182 2413.28,160.585 2446.96,171.858 2480.65,187.886 2514.34,208.506 2548.03,233.506 2581.72,262.633 2615.41,295.59 2649.1,332.039 2682.79,371.611 2716.47,413.901 2750.16,458.479 2783.85,504.89 2817.54,552.66 2851.23,601.303 2884.92,650.323 2918.61,699.221 2952.29,747.497 2985.98,794.659 3019.67,840.228 3053.36,883.737 3087.05,924.745 3120.74,962.831 3154.43,997.61 3188.11,1028.72 3221.8,1055.86 3255.49,1078.74 3289.18,1097.13 3322.87,1110.83 3356.56,1119.73 3390.25,1123.71 3423.94,1122.75 3457.62,1116.84 3491.31,1106.06 3525,1090.51 3558.69,1070.35 3592.38,1045.79 "/>
<polyline clip-path="url(#clip532)" style="stroke:#3da44d; stroke-linecap:round; stroke-linejoin:round; stroke-width:12; stroke-opacity:1; fill:none" stroke-dasharray="6, 12" points="257.204,881.11 290.893,876.171 324.581,861.557 358.27,837.861 391.959,806.047 425.647,767.41 459.336,723.52 493.024,676.163 526.713,627.265 560.402,578.815 594.09,532.783 627.779,491.042 661.468,455.29 695.156,426.981 728.845,407.266 762.533,396.946 796.222,396.443 829.911,405.776 863.599,424.565 897.288,452.047 930.977,487.104 964.665,528.309 998.354,573.987 1032.04,622.28 1065.73,671.224 1099.42,718.827 1133.11,763.155 1166.8,802.403 1200.49,834.975 1234.17,859.547 1267.86,875.12 1301.55,881.059 1335.24,877.123 1368.93,863.472 1402.62,840.662 1436.31,809.621 1469.99,771.61 1503.68,728.176 1537.37,681.086 1571.06,632.254 1604.75,583.667 1638.44,537.302 1672.13,495.043 1705.82,458.611 1739.5,429.486 1773.19,408.853 1806.88,397.552 1840.57,396.042 1874.26,404.384 1907.95,422.24 1941.64,448.883 1975.32,483.229 2009.01,523.881 2042.7,569.187 2076.39,617.302 2110.08,666.271 2143.77,714.101 2177.46,758.847 2211.14,798.689 2244.83,832.006 2278.52,857.444 2312.21,873.967 2345.9,880.905 2379.59,877.973 2413.28,865.293 2446.96,843.378 2480.65,813.122 2514.34,775.754 2548.03,732.794 2581.72,685.99 2615.41,637.246 2649.1,588.543 2682.79,541.863 2716.47,499.105 2750.16,462.007 2783.85,432.079 2817.54,410.537 2851.23,398.259 2884.92,395.743 2918.61,403.092 2952.29,420.006 2985.98,445.799 3019.67,479.42 3053.36,519.502 3087.05,564.416 3120.74,612.333 3154.43,661.306 3188.11,709.342 3221.8,754.488 3255.49,794.907 3289.18,828.955 3322.87,855.248 3356.56,872.716 3390.25,880.648 3423.94,878.722 3457.62,867.017 3491.31,846.008 3525,816.549 3558.69,779.84 3592.38,737.373 "/>
<path clip-path="url(#clip530)" d="M535.323 1423.18 L2074.64 1423.18 L2074.64 1319.5 L535.323 1319.5  Z" fill="#ffffff" fill-rule="evenodd" fill-opacity="1"/>
<polyline clip-path="url(#clip530)" style="stroke:#000000; stroke-linecap:round; stroke-linejoin:round; stroke-width:4; stroke-opacity:1; fill:none" points="535.323,1423.18 2074.64,1423.18 2074.64,1319.5 535.323,1319.5 535.323,1423.18 "/>
<polyline clip-path="url(#clip530)" style="stroke:#009af9; stroke-linecap:round; stroke-linejoin:round; stroke-width:8; stroke-opacity:1; fill:none" points="558.606,1371.34 698.31,1371.34 "/>
<path clip-path="url(#clip530)" d="M740.02 1363.46 L740.02 1367.49 Q738.214 1366.56 736.27 1366.1 Q734.325 1365.63 732.242 1365.63 Q729.071 1365.63 727.473 1366.61 Q725.899 1367.58 725.899 1369.52 Q725.899 1371 727.034 1371.86 Q728.168 1372.69 731.594 1373.46 L733.052 1373.78 Q737.589 1374.75 739.487 1376.54 Q741.409 1378.3 741.409 1381.47 Q741.409 1385.08 738.538 1387.18 Q735.691 1389.29 730.691 1389.29 Q728.608 1389.29 726.339 1388.87 Q724.094 1388.48 721.594 1387.67 L721.594 1383.27 Q723.955 1384.5 726.247 1385.12 Q728.538 1385.73 730.784 1385.73 Q733.793 1385.73 735.413 1384.71 Q737.034 1383.67 737.034 1381.79 Q737.034 1380.06 735.853 1379.13 Q734.696 1378.2 730.737 1377.35 L729.256 1377 Q725.298 1376.17 723.538 1374.45 Q721.779 1372.72 721.779 1369.71 Q721.779 1366.05 724.372 1364.06 Q726.964 1362.07 731.733 1362.07 Q734.094 1362.07 736.177 1362.42 Q738.26 1362.76 740.02 1363.46 Z" fill="#000000" fill-rule="nonzero" fill-opacity="1" /><path clip-path="url(#clip530)" d="M748.191 1362.69 L752.45 1362.69 L752.45 1388.62 L748.191 1388.62 L748.191 1362.69 M748.191 1352.6 L752.45 1352.6 L752.45 1358 L748.191 1358 L748.191 1352.6 Z" fill="#000000" fill-rule="nonzero" fill-opacity="1" /><path clip-path="url(#clip530)" d="M782.913 1372.97 L782.913 1388.62 L778.654 1388.62 L778.654 1373.11 Q778.654 1369.43 777.219 1367.6 Q775.783 1365.77 772.913 1365.77 Q769.464 1365.77 767.473 1367.97 Q765.482 1370.17 765.482 1373.97 L765.482 1388.62 L761.2 1388.62 L761.2 1362.69 L765.482 1362.69 L765.482 1366.72 Q767.01 1364.38 769.07 1363.23 Q771.154 1362.07 773.862 1362.07 Q778.33 1362.07 780.621 1364.85 Q782.913 1367.6 782.913 1372.97 Z" fill="#000000" fill-rule="nonzero" fill-opacity="1" /><path clip-path="url(#clip530)" d="M801.64 1352.65 Q798.538 1357.97 797.033 1363.18 Q795.529 1368.39 795.529 1373.74 Q795.529 1379.08 797.033 1384.34 Q798.561 1389.57 801.64 1394.87 L797.936 1394.87 Q794.464 1389.43 792.728 1384.18 Q791.015 1378.92 791.015 1373.74 Q791.015 1368.57 792.728 1363.34 Q794.441 1358.11 797.936 1352.65 L801.64 1352.65 Z" fill="#000000" fill-rule="nonzero" fill-opacity="1" /><path clip-path="url(#clip530)" d="M831.454 1362.69 L822.079 1375.31 L831.94 1388.62 L826.917 1388.62 L819.371 1378.43 L811.825 1388.62 L806.802 1388.62 L816.871 1375.06 L807.658 1362.69 L812.681 1362.69 L819.556 1371.93 L826.431 1362.69 L831.454 1362.69 Z" fill="#000000" fill-rule="nonzero" fill-opacity="1" /><path clip-path="url(#clip530)" d="M837.288 1352.65 L840.991 1352.65 Q844.464 1358.11 846.176 1363.34 Q847.913 1368.57 847.913 1373.74 Q847.913 1378.92 846.176 1384.18 Q844.464 1389.43 840.991 1394.87 L837.288 1394.87 Q840.366 1389.57 841.871 1384.34 Q843.399 1379.08 843.399 1373.74 Q843.399 1368.39 841.871 1363.18 Q840.366 1357.97 837.288 1352.65 Z" fill="#000000" fill-rule="nonzero" fill-opacity="1" /><polyline clip-path="url(#clip530)" style="stroke:#e26f46; stroke-linecap:round; stroke-linejoin:round; stroke-width:4; stroke-opacity:1; fill:none" points="1063.95,1371.34 1203.65,1371.34 "/>
<path clip-path="url(#clip530)" d="M1247.45 1363.69 L1247.45 1367.67 Q1245.64 1366.68 1243.81 1366.19 Q1242.01 1365.68 1240.15 1365.68 Q1236.01 1365.68 1233.72 1368.32 Q1231.43 1370.93 1231.43 1375.68 Q1231.43 1380.43 1233.72 1383.06 Q1236.01 1385.68 1240.15 1385.68 Q1242.01 1385.68 1243.81 1385.19 Q1245.64 1384.68 1247.45 1383.69 L1247.45 1387.62 Q1245.66 1388.46 1243.74 1388.87 Q1241.84 1389.29 1239.69 1389.29 Q1233.84 1389.29 1230.39 1385.61 Q1226.94 1381.93 1226.94 1375.68 Q1226.94 1369.34 1230.41 1365.7 Q1233.91 1362.07 1239.97 1362.07 Q1241.94 1362.07 1243.81 1362.49 Q1245.69 1362.88 1247.45 1363.69 Z" fill="#000000" fill-rule="nonzero" fill-opacity="1" /><path clip-path="url(#clip530)" d="M1264.9 1365.68 Q1261.47 1365.68 1259.48 1368.37 Q1257.49 1371.03 1257.49 1375.68 Q1257.49 1380.33 1259.46 1383.02 Q1261.45 1385.68 1264.9 1385.68 Q1268.3 1385.68 1270.29 1382.99 Q1272.28 1380.31 1272.28 1375.68 Q1272.28 1371.07 1270.29 1368.39 Q1268.3 1365.68 1264.9 1365.68 M1264.9 1362.07 Q1270.46 1362.07 1273.63 1365.68 Q1276.8 1369.29 1276.8 1375.68 Q1276.8 1382.05 1273.63 1385.68 Q1270.46 1389.29 1264.9 1389.29 Q1259.32 1389.29 1256.15 1385.68 Q1253 1382.05 1253 1375.68 Q1253 1369.29 1256.15 1365.68 Q1259.32 1362.07 1264.9 1362.07 Z" fill="#000000" fill-rule="nonzero" fill-opacity="1" /><path clip-path="url(#clip530)" d="M1300.39 1363.46 L1300.39 1367.49 Q1298.58 1366.56 1296.64 1366.1 Q1294.69 1365.63 1292.61 1365.63 Q1289.44 1365.63 1287.84 1366.61 Q1286.27 1367.58 1286.27 1369.52 Q1286.27 1371 1287.4 1371.86 Q1288.53 1372.69 1291.96 1373.46 L1293.42 1373.78 Q1297.96 1374.75 1299.85 1376.54 Q1301.78 1378.3 1301.78 1381.47 Q1301.78 1385.08 1298.9 1387.18 Q1296.06 1389.29 1291.06 1389.29 Q1288.97 1389.29 1286.71 1388.87 Q1284.46 1388.48 1281.96 1387.67 L1281.96 1383.27 Q1284.32 1384.5 1286.61 1385.12 Q1288.9 1385.73 1291.15 1385.73 Q1294.16 1385.73 1295.78 1384.71 Q1297.4 1383.67 1297.4 1381.79 Q1297.4 1380.06 1296.22 1379.13 Q1295.06 1378.2 1291.1 1377.35 L1289.62 1377 Q1285.66 1376.17 1283.9 1374.45 Q1282.15 1372.72 1282.15 1369.71 Q1282.15 1366.05 1284.74 1364.06 Q1287.33 1362.07 1292.1 1362.07 Q1294.46 1362.07 1296.54 1362.42 Q1298.63 1362.76 1300.39 1363.46 Z" fill="#000000" fill-rule="nonzero" fill-opacity="1" /><path clip-path="url(#clip530)" d="M1318.79 1352.65 Q1315.69 1357.97 1314.18 1363.18 Q1312.68 1368.39 1312.68 1373.74 Q1312.68 1379.08 1314.18 1384.34 Q1315.71 1389.57 1318.79 1394.87 L1315.09 1394.87 Q1311.61 1389.43 1309.88 1384.18 Q1308.16 1378.92 1308.16 1373.74 Q1308.16 1368.57 1309.88 1363.34 Q1311.59 1358.11 1315.09 1352.65 L1318.79 1352.65 Z" fill="#000000" fill-rule="nonzero" fill-opacity="1" /><path clip-path="url(#clip530)" d="M1348.6 1362.69 L1339.23 1375.31 L1349.09 1388.62 L1344.07 1388.62 L1336.52 1378.43 L1328.97 1388.62 L1323.95 1388.62 L1334.02 1375.06 L1324.81 1362.69 L1329.83 1362.69 L1336.71 1371.93 L1343.58 1362.69 L1348.6 1362.69 Z" fill="#000000" fill-rule="nonzero" fill-opacity="1" /><path clip-path="url(#clip530)" d="M1354.44 1352.65 L1358.14 1352.65 Q1361.61 1358.11 1363.33 1363.34 Q1365.06 1368.57 1365.06 1373.74 Q1365.06 1378.92 1363.33 1384.18 Q1361.61 1389.43 1358.14 1394.87 L1354.44 1394.87 Q1357.52 1389.57 1359.02 1384.34 Q1360.55 1379.08 1360.55 1373.74 Q1360.55 1368.39 1359.02 1363.18 Q1357.52 1357.97 1354.44 1352.65 Z" fill="#000000" fill-rule="nonzero" fill-opacity="1" /><polyline clip-path="url(#clip530)" style="stroke:#3da44d; stroke-linecap:round; stroke-linejoin:round; stroke-width:12; stroke-opacity:1; fill:none" stroke-dasharray="6, 12" points="1569.29,1371.34 1709,1371.34 "/>
<path clip-path="url(#clip530)" d="M1750.71 1363.46 L1750.71 1367.49 Q1748.9 1366.56 1746.96 1366.1 Q1745.01 1365.63 1742.93 1365.63 Q1739.76 1365.63 1738.16 1366.61 Q1736.59 1367.58 1736.59 1369.52 Q1736.59 1371 1737.72 1371.86 Q1738.86 1372.69 1742.28 1373.46 L1743.74 1373.78 Q1748.28 1374.75 1750.17 1376.54 Q1752.1 1378.3 1752.1 1381.47 Q1752.1 1385.08 1749.23 1387.18 Q1746.38 1389.29 1741.38 1389.29 Q1739.29 1389.29 1737.03 1388.87 Q1734.78 1388.48 1732.28 1387.67 L1732.28 1383.27 Q1734.64 1384.5 1736.93 1385.12 Q1739.23 1385.73 1741.47 1385.73 Q1744.48 1385.73 1746.1 1384.71 Q1747.72 1383.67 1747.72 1381.79 Q1747.72 1380.06 1746.54 1379.13 Q1745.38 1378.2 1741.42 1377.35 L1739.94 1377 Q1735.98 1376.17 1734.23 1374.45 Q1732.47 1372.72 1732.47 1369.71 Q1732.47 1366.05 1735.06 1364.06 Q1737.65 1362.07 1742.42 1362.07 Q1744.78 1362.07 1746.86 1362.42 Q1748.95 1362.76 1750.71 1363.46 Z" fill="#000000" fill-rule="nonzero" fill-opacity="1" /><path clip-path="url(#clip530)" d="M1758.88 1362.69 L1763.14 1362.69 L1763.14 1388.62 L1758.88 1388.62 L1758.88 1362.69 M1758.88 1352.6 L1763.14 1352.6 L1763.14 1358 L1758.88 1358 L1758.88 1352.6 Z" fill="#000000" fill-rule="nonzero" fill-opacity="1" /><path clip-path="url(#clip530)" d="M1793.6 1372.97 L1793.6 1388.62 L1789.34 1388.62 L1789.34 1373.11 Q1789.34 1369.43 1787.91 1367.6 Q1786.47 1365.77 1783.6 1365.77 Q1780.15 1365.77 1778.16 1367.97 Q1776.17 1370.17 1776.17 1373.97 L1776.17 1388.62 L1771.89 1388.62 L1771.89 1362.69 L1776.17 1362.69 L1776.17 1366.72 Q1777.7 1364.38 1779.76 1363.23 Q1781.84 1362.07 1784.55 1362.07 Q1789.02 1362.07 1791.31 1364.85 Q1793.6 1367.6 1793.6 1372.97 Z" fill="#000000" fill-rule="nonzero" fill-opacity="1" /><path clip-path="url(#clip530)" d="M1812.33 1352.65 Q1809.23 1357.97 1807.72 1363.18 Q1806.22 1368.39 1806.22 1373.74 Q1806.22 1379.08 1807.72 1384.34 Q1809.25 1389.57 1812.33 1394.87 L1808.62 1394.87 Q1805.15 1389.43 1803.41 1384.18 Q1801.7 1378.92 1801.7 1373.74 Q1801.7 1368.57 1803.41 1363.34 Q1805.13 1358.11 1808.62 1352.65 L1812.33 1352.65 Z" fill="#000000" fill-rule="nonzero" fill-opacity="1" /><path clip-path="url(#clip530)" d="M1842.14 1362.69 L1832.77 1375.31 L1842.63 1388.62 L1837.6 1388.62 L1830.06 1378.43 L1822.51 1388.62 L1817.49 1388.62 L1827.56 1375.06 L1818.35 1362.69 L1823.37 1362.69 L1830.24 1371.93 L1837.12 1362.69 L1842.14 1362.69 Z" fill="#000000" fill-rule="nonzero" fill-opacity="1" /><path clip-path="url(#clip530)" d="M1847.97 1352.65 L1851.68 1352.65 Q1855.15 1358.11 1856.86 1363.34 Q1858.6 1368.57 1858.6 1373.74 Q1858.6 1378.92 1856.86 1384.18 Q1855.15 1389.43 1851.68 1394.87 L1847.97 1394.87 Q1851.05 1389.57 1852.56 1384.34 Q1854.09 1379.08 1854.09 1373.74 Q1854.09 1368.39 1852.56 1363.18 Q1851.05 1357.97 1847.97 1352.65 Z" fill="#000000" fill-rule="nonzero" fill-opacity="1" /><path clip-path="url(#clip530)" d="M1884.8 1354.06 L1897.37 1366.95 L1892.72 1366.95 L1882.53 1357.81 L1872.35 1366.95 L1867.7 1366.95 L1880.27 1354.06 L1884.8 1354.06 Z" fill="#000000" fill-rule="nonzero" fill-opacity="1" /><path clip-path="url(#clip530)" d="M1911.49 1384.68 L1927.81 1384.68 L1927.81 1388.62 L1905.87 1388.62 L1905.87 1384.68 Q1908.53 1381.93 1913.11 1377.3 Q1917.72 1372.65 1918.9 1371.31 Q1921.15 1368.78 1922.03 1367.05 Q1922.93 1365.29 1922.93 1363.6 Q1922.93 1360.84 1920.98 1359.11 Q1919.06 1357.37 1915.96 1357.37 Q1913.76 1357.37 1911.31 1358.13 Q1908.88 1358.9 1906.1 1360.45 L1906.1 1355.73 Q1908.92 1354.59 1911.38 1354.01 Q1913.83 1353.43 1915.87 1353.43 Q1921.24 1353.43 1924.43 1356.12 Q1927.63 1358.81 1927.63 1363.3 Q1927.63 1365.43 1926.82 1367.35 Q1926.03 1369.24 1923.92 1371.84 Q1923.34 1372.51 1920.24 1375.73 Q1917.14 1378.92 1911.49 1384.68 Z" fill="#000000" fill-rule="nonzero" fill-opacity="1" /><path clip-path="url(#clip530)" d="M1949.94 1373.74 L1962.42 1373.74 L1962.42 1377.53 L1949.94 1377.53 L1949.94 1373.74 Z" fill="#000000" fill-rule="nonzero" fill-opacity="1" /><path clip-path="url(#clip530)" d="M1985.68 1384.68 L1993.32 1384.68 L1993.32 1358.32 L1985.01 1359.99 L1985.01 1355.73 L1993.28 1354.06 L1997.95 1354.06 L1997.95 1384.68 L2005.59 1384.68 L2005.59 1388.62 L1985.68 1388.62 L1985.68 1384.68 Z" fill="#000000" fill-rule="nonzero" fill-opacity="1" /><path clip-path="url(#clip530)" d="M2022 1354.06 L2025.94 1354.06 L2013.9 1393.02 L2009.96 1393.02 L2022 1354.06 Z" fill="#000000" fill-rule="nonzero" fill-opacity="1" /><path clip-path="url(#clip530)" d="M2035.03 1384.68 L2051.35 1384.68 L2051.35 1388.62 L2029.41 1388.62 L2029.41 1384.68 Q2032.07 1381.93 2036.65 1377.3 Q2041.26 1372.65 2042.44 1371.31 Q2044.69 1368.78 2045.57 1367.05 Q2046.47 1365.29 2046.47 1363.6 Q2046.47 1360.84 2044.52 1359.11 Q2042.6 1357.37 2039.5 1357.37 Q2037.3 1357.37 2034.85 1358.13 Q2032.42 1358.9 2029.64 1360.45 L2029.64 1355.73 Q2032.46 1354.59 2034.92 1354.01 Q2037.37 1353.43 2039.41 1353.43 Q2044.78 1353.43 2047.97 1356.12 Q2051.17 1358.81 2051.17 1363.3 Q2051.17 1365.43 2050.36 1367.35 Q2049.57 1369.24 2047.46 1371.84 Q2046.89 1372.51 2043.78 1375.73 Q2040.68 1378.92 2035.03 1384.68 Z" fill="#000000" fill-rule="nonzero" fill-opacity="1" /></svg>
