<?xml version="1.0" encoding="utf-8"?>
<svg xmlns="http://www.w3.org/2000/svg" xmlns:xlink="http://www.w3.org/1999/xlink" width="600" height="400" viewBox="0 0 2400 1600">
<defs>
  <clipPath id="clip130">
    <rect x="0" y="0" width="2400" height="1600"/>
  </clipPath>
</defs>
<path clip-path="url(#clip130)" d="M0 1600 L2400 1600 L2400 0 L0 0  Z" fill="#ffffff" fill-rule="evenodd" fill-opacity="1"/>
<defs>
  <clipPath id="clip131">
    <rect x="480" y="0" width="1681" height="1600"/>
  </clipPath>
</defs>
<path clip-path="url(#clip130)" d="M186.76 1486.45 L2352.76 1486.45 L2352.76 47.2441 L186.76 47.2441  Z" fill="#ffffff" fill-rule="evenodd" fill-opacity="1"/>
<defs>
  <clipPath id="clip132">
    <rect x="186" y="47" width="2167" height="1440"/>
  </clipPath>
</defs>
<polyline clip-path="url(#clip132)" style="stroke:#000000; stroke-linecap:round; stroke-linejoin:round; stroke-width:2; stroke-opacity:0.1; fill:none" points="555.48,1486.45 555.48,47.2441 "/>
<polyline clip-path="url(#clip132)" style="stroke:#000000; stroke-linecap:round; stroke-linejoin:round; stroke-width:2; stroke-opacity:0.1; fill:none" points="1104.92,1486.45 1104.92,47.2441 "/>
<polyline clip-path="url(#clip132)" style="stroke:#000000; stroke-linecap:round; stroke-linejoin:round; stroke-width:2; stroke-opacity:0.1; fill:none" points="1654.37,1486.45 1654.37,47.2441 "/>
<polyline clip-path="url(#clip132)" style="stroke:#000000; stroke-linecap:round; stroke-linejoin:round; stroke-width:2; stroke-opacity:0.1; fill:none" points="2203.81,1486.45 2203.81,47.2441 "/>
<polyline clip-path="url(#clip132)" style="stroke:#000000; stroke-linecap:round; stroke-linejoin:round; stroke-width:2; stroke-opacity:0.1; fill:none" points="186.76,1447.06 2352.76,1447.06 "/>
<polyline clip-path="url(#clip132)" style="stroke:#000000; stroke-linecap:round; stroke-linejoin:round; stroke-width:2; stroke-opacity:0.1; fill:none" points="186.76,1106.34 2352.76,1106.34 "/>
<polyline clip-path="url(#clip132)" style="stroke:#000000; stroke-linecap:round; stroke-linejoin:round; stroke-width:2; stroke-opacity:0.1; fill:none" points="186.76,765.622 2352.76,765.622 "/>
<polyline clip-path="url(#clip132)" style="stroke:#000000; stroke-linecap:round; stroke-linejoin:round; stroke-width:2; stroke-opacity:0.1; fill:none" points="186.76,424.9 2352.76,424.9 "/>
<polyline clip-path="url(#clip132)" style="stroke:#000000; stroke-linecap:round; stroke-linejoin:round; stroke-width:2; stroke-opacity:0.1; fill:none" points="186.76,84.179 2352.76,84.179 "/>
<polyline clip-path="url(#clip130)" style="stroke:#000000; stroke-linecap:round; stroke-linejoin:round; stroke-width:4; stroke-opacity:1; fill:none" points="186.76,1486.45 2352.76,1486.45 "/>
<polyline clip-path="url(#clip130)" style="stroke:#000000; stroke-linecap:round; stroke-linejoin:round; stroke-width:4; stroke-opacity:1; fill:none" points="555.48,1486.45 555.48,1467.55 "/>
<polyline clip-path="url(#clip130)" style="stroke:#000000; stroke-linecap:round; stroke-linejoin:round; stroke-width:4; stroke-opacity:1; fill:none" points="1104.92,1486.45 1104.92,1467.55 "/>
<polyline clip-path="url(#clip130)" style="stroke:#000000; stroke-linecap:round; stroke-linejoin:round; stroke-width:4; stroke-opacity:1; fill:none" points="1654.37,1486.45 1654.37,1467.55 "/>
<polyline clip-path="url(#clip130)" style="stroke:#000000; stroke-linecap:round; stroke-linejoin:round; stroke-width:4; stroke-opacity:1; fill:none" points="2203.81,1486.45 2203.81,1467.55 "/>
<path clip-path="url(#clip130)" d="M509.543 1532.02 L539.219 1532.02 L539.219 1535.95 L509.543 1535.95 L509.543 1532.02 Z" fill="#000000" fill-rule="nonzero" fill-opacity="1" /><path clip-path="url(#clip130)" d="M550.122 1544.91 L557.761 1544.91 L557.761 1518.55 L549.45 1520.21 L549.45 1515.95 L557.714 1514.29 L562.39 1514.29 L562.39 1544.91 L570.029 1544.91 L570.029 1548.85 L550.122 1548.85 L550.122 1544.91 Z" fill="#000000" fill-rule="nonzero" fill-opacity="1" /><path clip-path="url(#clip130)" d="M589.473 1517.37 Q585.862 1517.37 584.034 1520.93 Q582.228 1524.47 582.228 1531.6 Q582.228 1538.71 584.034 1542.27 Q585.862 1545.82 589.473 1545.82 Q593.108 1545.82 594.913 1542.27 Q596.742 1538.71 596.742 1531.6 Q596.742 1524.47 594.913 1520.93 Q593.108 1517.37 589.473 1517.37 M589.473 1513.66 Q595.283 1513.66 598.339 1518.27 Q601.418 1522.85 601.418 1531.6 Q601.418 1540.33 598.339 1544.94 Q595.283 1549.52 589.473 1549.52 Q583.663 1549.52 580.585 1544.94 Q577.529 1540.33 577.529 1531.6 Q577.529 1522.85 580.585 1518.27 Q583.663 1513.66 589.473 1513.66 Z" fill="#000000" fill-rule="nonzero" fill-opacity="1" /><path clip-path="url(#clip130)" d="M1104.92 1517.37 Q1101.31 1517.37 1099.48 1520.93 Q1097.68 1524.47 1097.68 1531.6 Q1097.68 1538.71 1099.48 1542.27 Q1101.31 1545.82 1104.92 1545.82 Q1108.56 1545.82 1110.36 1542.27 Q1112.19 1538.71 1112.19 1531.6 Q1112.19 1524.47 1110.36 1520.93 Q1108.56 1517.37 1104.92 1517.37 M1104.92 1513.66 Q1110.73 1513.66 1113.79 1518.27 Q1116.87 1522.85 1116.87 1531.6 Q1116.87 1540.33 1113.79 1544.94 Q1110.73 1549.52 1104.92 1549.52 Q1099.11 1549.52 1096.04 1544.94 Q1092.98 1540.33 1092.98 1531.6 Q1092.98 1522.85 1096.04 1518.27 Q1099.11 1513.66 1104.92 1513.66 Z" fill="#000000" fill-rule="nonzero" fill-opacity="1" /><path clip-path="url(#clip130)" d="M1629.06 1544.91 L1636.7 1544.91 L1636.7 1518.55 L1628.39 1520.21 L1628.39 1515.95 L1636.65 1514.29 L1641.33 1514.29 L1641.33 1544.91 L1648.96 1544.91 L1648.96 1548.85 L1629.06 1548.85 L1629.06 1544.91 Z" fill="#000000" fill-rule="nonzero" fill-opacity="1" /><path clip-path="url(#clip130)" d="M1668.41 1517.37 Q1664.8 1517.37 1662.97 1520.93 Q1661.16 1524.47 1661.16 1531.6 Q1661.16 1538.71 1662.97 1542.27 Q1664.8 1545.82 1668.41 1545.82 Q1672.04 1545.82 1673.85 1542.27 Q1675.68 1538.71 1675.68 1531.6 Q1675.68 1524.47 1673.85 1520.93 Q1672.04 1517.37 1668.41 1517.37 M1668.41 1513.66 Q1674.22 1513.66 1677.27 1518.27 Q1680.35 1522.85 1680.35 1531.6 Q1680.35 1540.33 1677.27 1544.94 Q1674.22 1549.52 1668.41 1549.52 Q1662.6 1549.52 1659.52 1544.94 Q1656.46 1540.33 1656.46 1531.6 Q1656.46 1522.85 1659.52 1518.27 Q1662.6 1513.66 1668.41 1513.66 Z" fill="#000000" fill-rule="nonzero" fill-opacity="1" /><path clip-path="url(#clip130)" d="M2182.59 1544.91 L2198.91 1544.91 L2198.91 1548.85 L2176.96 1548.85 L2176.96 1544.91 Q2179.62 1542.16 2184.21 1537.53 Q2188.81 1532.88 2189.99 1531.53 Q2192.24 1529.01 2193.12 1527.27 Q2194.02 1525.51 2194.02 1523.82 Q2194.02 1521.07 2192.08 1519.33 Q2190.16 1517.6 2187.05 1517.6 Q2184.86 1517.6 2182.4 1518.36 Q2179.97 1519.13 2177.19 1520.68 L2177.19 1515.95 Q2180.02 1514.82 2182.47 1514.24 Q2184.92 1513.66 2186.96 1513.66 Q2192.33 1513.66 2195.53 1516.35 Q2198.72 1519.03 2198.72 1523.52 Q2198.72 1525.65 2197.91 1527.57 Q2197.12 1529.47 2195.02 1532.07 Q2194.44 1532.74 2191.34 1535.95 Q2188.23 1539.15 2182.59 1544.91 Z" fill="#000000" fill-rule="nonzero" fill-opacity="1" /><path clip-path="url(#clip130)" d="M2218.72 1517.37 Q2215.11 1517.37 2213.28 1520.93 Q2211.48 1524.47 2211.48 1531.6 Q2211.48 1538.71 2213.28 1542.27 Q2215.11 1545.82 2218.72 1545.82 Q2222.35 1545.82 2224.16 1542.27 Q2225.99 1538.71 2225.99 1531.6 Q2225.99 1524.47 2224.16 1520.93 Q2222.35 1517.37 2218.72 1517.37 M2218.72 1513.66 Q2224.53 1513.66 2227.59 1518.27 Q2230.66 1522.85 2230.66 1531.6 Q2230.66 1540.33 2227.59 1544.94 Q2224.53 1549.52 2218.72 1549.52 Q2212.91 1549.52 2209.83 1544.94 Q2206.78 1540.33 2206.78 1531.6 Q2206.78 1522.85 2209.83 1518.27 Q2212.91 1513.66 2218.72 1513.66 Z" fill="#000000" fill-rule="nonzero" fill-opacity="1" /><polyline clip-path="url(#clip130)" style="stroke:#000000; stroke-linecap:round; stroke-linejoin:round; stroke-width:4; stroke-opacity:1; fill:none" points="186.76,1486.45 186.76,47.2441 "/>
<polyline clip-path="url(#clip130)" style="stroke:#000000; stroke-linecap:round; stroke-linejoin:round; stroke-width:4; stroke-opacity:1; fill:none" points="186.76,1447.06 205.658,1447.06 "/>
<polyline clip-path="url(#clip130)" style="stroke:#000000; stroke-linecap:round; stroke-linejoin:round; stroke-width:4; stroke-opacity:1; fill:none" points="186.76,1106.34 205.658,1106.34 "/>
<polyline clip-path="url(#clip130)" style="stroke:#000000; stroke-linecap:round; stroke-linejoin:round; stroke-width:4; stroke-opacity:1; fill:none" points="186.76,765.622 205.658,765.622 "/>
<polyline clip-path="url(#clip130)" style="stroke:#000000; stroke-linecap:round; stroke-linejoin:round; stroke-width:4; stroke-opacity:1; fill:none" points="186.76,424.9 205.658,424.9 "/>
<polyline clip-path="url(#clip130)" style="stroke:#000000; stroke-linecap:round; stroke-linejoin:round; stroke-width:4; stroke-opacity:1; fill:none" points="186.76,84.179 205.658,84.179 "/>
<path clip-path="url(#clip130)" d="M63.4226 1432.86 Q59.8115 1432.86 57.9828 1436.43 Q56.1773 1439.97 56.1773 1447.1 Q56.1773 1454.21 57.9828 1457.77 Q59.8115 1461.31 63.4226 1461.31 Q67.0569 1461.31 68.8624 1457.77 Q70.6911 1454.21 70.6911 1447.1 Q70.6911 1439.97 68.8624 1436.43 Q67.0569 1432.86 63.4226 1432.86 M63.4226 1429.16 Q69.2328 1429.16 72.2883 1433.77 Q75.367 1438.35 75.367 1447.1 Q75.367 1455.83 72.2883 1460.43 Q69.2328 1465.02 63.4226 1465.02 Q57.6125 1465.02 54.5338 1460.43 Q51.4782 1455.83 51.4782 1447.1 Q51.4782 1438.35 54.5338 1433.77 Q57.6125 1429.16 63.4226 1429.16 Z" fill="#000000" fill-rule="nonzero" fill-opacity="1" /><path clip-path="url(#clip130)" d="M83.5845 1458.46 L88.4688 1458.46 L88.4688 1464.34 L83.5845 1464.34 L83.5845 1458.46 Z" fill="#000000" fill-rule="nonzero" fill-opacity="1" /><path clip-path="url(#clip130)" d="M108.654 1432.86 Q105.043 1432.86 103.214 1436.43 Q101.409 1439.97 101.409 1447.1 Q101.409 1454.21 103.214 1457.77 Q105.043 1461.31 108.654 1461.31 Q112.288 1461.31 114.094 1457.77 Q115.922 1454.21 115.922 1447.1 Q115.922 1439.97 114.094 1436.43 Q112.288 1432.86 108.654 1432.86 M108.654 1429.16 Q114.464 1429.16 117.52 1433.77 Q120.598 1438.35 120.598 1447.1 Q120.598 1455.83 117.52 1460.43 Q114.464 1465.02 108.654 1465.02 Q102.844 1465.02 99.765 1460.43 Q96.7095 1455.83 96.7095 1447.1 Q96.7095 1438.35 99.765 1433.77 Q102.844 1429.16 108.654 1429.16 Z" fill="#000000" fill-rule="nonzero" fill-opacity="1" /><path clip-path="url(#clip130)" d="M138.816 1432.86 Q135.205 1432.86 133.376 1436.43 Q131.57 1439.97 131.57 1447.1 Q131.57 1454.21 133.376 1457.77 Q135.205 1461.31 138.816 1461.31 Q142.45 1461.31 144.256 1457.77 Q146.084 1454.21 146.084 1447.1 Q146.084 1439.97 144.256 1436.43 Q142.45 1432.86 138.816 1432.86 M138.816 1429.16 Q144.626 1429.16 147.681 1433.77 Q150.76 1438.35 150.76 1447.1 Q150.76 1455.83 147.681 1460.43 Q144.626 1465.02 138.816 1465.02 Q133.006 1465.02 129.927 1460.43 Q126.871 1455.83 126.871 1447.1 Q126.871 1438.35 129.927 1433.77 Q133.006 1429.16 138.816 1429.16 Z" fill="#000000" fill-rule="nonzero" fill-opacity="1" /><path clip-path="url(#clip130)" d="M65.0198 1092.14 Q61.4087 1092.14 59.58 1095.71 Q57.7745 1099.25 57.7745 1106.38 Q57.7745 1113.48 59.58 1117.05 Q61.4087 1120.59 65.0198 1120.59 Q68.6541 1120.59 70.4596 1117.05 Q72.2883 1113.48 72.2883 1106.38 Q72.2883 1099.25 70.4596 1095.71 Q68.6541 1092.14 65.0198 1092.14 M65.0198 1088.44 Q70.83 1088.44 73.8855 1093.04 Q76.9642 1097.63 76.9642 1106.38 Q76.9642 1115.1 73.8855 1119.71 Q70.83 1124.29 65.0198 1124.29 Q59.2097 1124.29 56.131 1119.71 Q53.0754 1115.1 53.0754 1106.38 Q53.0754 1097.63 56.131 1093.04 Q59.2097 1088.44 65.0198 1088.44 Z" fill="#000000" fill-rule="nonzero" fill-opacity="1" /><path clip-path="url(#clip130)" d="M85.1818 1117.74 L90.066 1117.74 L90.066 1123.62 L85.1818 1123.62 L85.1818 1117.74 Z" fill="#000000" fill-rule="nonzero" fill-opacity="1" /><path clip-path="url(#clip130)" d="M110.251 1092.14 Q106.64 1092.14 104.811 1095.71 Q103.006 1099.25 103.006 1106.38 Q103.006 1113.48 104.811 1117.05 Q106.64 1120.59 110.251 1120.59 Q113.885 1120.59 115.691 1117.05 Q117.52 1113.48 117.52 1106.38 Q117.52 1099.25 115.691 1095.71 Q113.885 1092.14 110.251 1092.14 M110.251 1088.44 Q116.061 1088.44 119.117 1093.04 Q122.195 1097.63 122.195 1106.38 Q122.195 1115.1 119.117 1119.71 Q116.061 1124.29 110.251 1124.29 Q104.441 1124.29 101.362 1119.71 Q98.3067 1115.1 98.3067 1106.38 Q98.3067 1097.63 101.362 1093.04 Q104.441 1088.44 110.251 1088.44 Z" fill="#000000" fill-rule="nonzero" fill-opacity="1" /><path clip-path="url(#clip130)" d="M134.441 1119.69 L150.76 1119.69 L150.76 1123.62 L128.816 1123.62 L128.816 1119.69 Q131.478 1116.93 136.061 1112.3 Q140.668 1107.65 141.848 1106.31 Q144.093 1103.79 144.973 1102.05 Q145.876 1100.29 145.876 1098.6 Q145.876 1095.85 143.931 1094.11 Q142.01 1092.37 138.908 1092.37 Q136.709 1092.37 134.256 1093.14 Q131.825 1093.9 129.047 1095.45 L129.047 1090.73 Q131.871 1089.6 134.325 1089.02 Q136.779 1088.44 138.816 1088.44 Q144.186 1088.44 147.38 1091.12 Q150.575 1093.81 150.575 1098.3 Q150.575 1100.43 149.765 1102.35 Q148.978 1104.25 146.871 1106.84 Q146.293 1107.51 143.191 1110.73 Q140.089 1113.92 134.441 1119.69 Z" fill="#000000" fill-rule="nonzero" fill-opacity="1" /><path clip-path="url(#clip130)" d="M62.9365 751.42 Q59.3254 751.42 57.4967 754.985 Q55.6912 758.527 55.6912 765.656 Q55.6912 772.763 57.4967 776.328 Q59.3254 779.869 62.9365 779.869 Q66.5707 779.869 68.3763 776.328 Q70.205 772.763 70.205 765.656 Q70.205 758.527 68.3763 754.985 Q66.5707 751.42 62.9365 751.42 M62.9365 747.717 Q68.7467 747.717 71.8022 752.323 Q74.8809 756.906 74.8809 765.656 Q74.8809 774.383 71.8022 778.99 Q68.7467 783.573 62.9365 783.573 Q57.1264 783.573 54.0477 778.99 Q50.9921 774.383 50.9921 765.656 Q50.9921 756.906 54.0477 752.323 Q57.1264 747.717 62.9365 747.717 Z" fill="#000000" fill-rule="nonzero" fill-opacity="1" /><path clip-path="url(#clip130)" d="M83.0984 777.022 L87.9827 777.022 L87.9827 782.902 L83.0984 782.902 L83.0984 777.022 Z" fill="#000000" fill-rule="nonzero" fill-opacity="1" /><path clip-path="url(#clip130)" d="M108.168 751.42 Q104.557 751.42 102.728 754.985 Q100.922 758.527 100.922 765.656 Q100.922 772.763 102.728 776.328 Q104.557 779.869 108.168 779.869 Q111.802 779.869 113.608 776.328 Q115.436 772.763 115.436 765.656 Q115.436 758.527 113.608 754.985 Q111.802 751.42 108.168 751.42 M108.168 747.717 Q113.978 747.717 117.033 752.323 Q120.112 756.906 120.112 765.656 Q120.112 774.383 117.033 778.99 Q113.978 783.573 108.168 783.573 Q102.358 783.573 99.2789 778.99 Q96.2234 774.383 96.2234 765.656 Q96.2234 756.906 99.2789 752.323 Q102.358 747.717 108.168 747.717 Z" fill="#000000" fill-rule="nonzero" fill-opacity="1" /><path clip-path="url(#clip130)" d="M141.177 752.416 L129.371 770.865 L141.177 770.865 L141.177 752.416 M139.95 748.342 L145.83 748.342 L145.83 770.865 L150.76 770.865 L150.76 774.754 L145.83 774.754 L145.83 782.902 L141.177 782.902 L141.177 774.754 L125.575 774.754 L125.575 770.24 L139.95 748.342 Z" fill="#000000" fill-rule="nonzero" fill-opacity="1" /><path clip-path="url(#clip130)" d="M63.2606 410.699 Q59.6495 410.699 57.8208 414.264 Q56.0152 417.805 56.0152 424.935 Q56.0152 432.041 57.8208 435.606 Q59.6495 439.148 63.2606 439.148 Q66.8948 439.148 68.7004 435.606 Q70.5291 432.041 70.5291 424.935 Q70.5291 417.805 68.7004 414.264 Q66.8948 410.699 63.2606 410.699 M63.2606 406.995 Q69.0707 406.995 72.1263 411.602 Q75.205 416.185 75.205 424.935 Q75.205 433.662 72.1263 438.268 Q69.0707 442.852 63.2606 442.852 Q57.4504 442.852 54.3717 438.268 Q51.3162 433.662 51.3162 424.935 Q51.3162 416.185 54.3717 411.602 Q57.4504 406.995 63.2606 406.995 Z" fill="#000000" fill-rule="nonzero" fill-opacity="1" /><path clip-path="url(#clip130)" d="M83.4225 436.301 L88.3067 436.301 L88.3067 442.18 L83.4225 442.18 L83.4225 436.301 Z" fill="#000000" fill-rule="nonzero" fill-opacity="1" /><path clip-path="url(#clip130)" d="M108.492 410.699 Q104.881 410.699 103.052 414.264 Q101.246 417.805 101.246 424.935 Q101.246 432.041 103.052 435.606 Q104.881 439.148 108.492 439.148 Q112.126 439.148 113.932 435.606 Q115.76 432.041 115.76 424.935 Q115.76 417.805 113.932 414.264 Q112.126 410.699 108.492 410.699 M108.492 406.995 Q114.302 406.995 117.358 411.602 Q120.436 416.185 120.436 424.935 Q120.436 433.662 117.358 438.268 Q114.302 442.852 108.492 442.852 Q102.682 442.852 99.603 438.268 Q96.5474 433.662 96.5474 424.935 Q96.5474 416.185 99.603 411.602 Q102.682 406.995 108.492 406.995 Z" fill="#000000" fill-rule="nonzero" fill-opacity="1" /><path clip-path="url(#clip130)" d="M139.232 423.037 Q136.084 423.037 134.232 425.19 Q132.404 427.342 132.404 431.092 Q132.404 434.819 134.232 436.995 Q136.084 439.148 139.232 439.148 Q142.381 439.148 144.209 436.995 Q146.061 434.819 146.061 431.092 Q146.061 427.342 144.209 425.19 Q142.381 423.037 139.232 423.037 M148.515 408.384 L148.515 412.643 Q146.756 411.81 144.95 411.37 Q143.168 410.93 141.408 410.93 Q136.779 410.93 134.325 414.055 Q131.894 417.18 131.547 423.5 Q132.913 421.486 134.973 420.421 Q137.033 419.333 139.51 419.333 Q144.718 419.333 147.728 422.505 Q150.76 425.653 150.76 431.092 Q150.76 436.416 147.612 439.634 Q144.464 442.852 139.232 442.852 Q133.237 442.852 130.066 438.268 Q126.894 433.662 126.894 424.935 Q126.894 416.741 130.783 411.88 Q134.672 406.995 141.223 406.995 Q142.982 406.995 144.765 407.343 Q146.57 407.69 148.515 408.384 Z" fill="#000000" fill-rule="nonzero" fill-opacity="1" /><path clip-path="url(#clip130)" d="M63.5152 69.9777 Q59.9041 69.9777 58.0754 73.5424 Q56.2699 77.0841 56.2699 84.2137 Q56.2699 91.3201 58.0754 94.8849 Q59.9041 98.4266 63.5152 98.4266 Q67.1494 98.4266 68.955 94.8849 Q70.7837 91.3201 70.7837 84.2137 Q70.7837 77.0841 68.955 73.5424 Q67.1494 69.9777 63.5152 69.9777 M63.5152 66.274 Q69.3254 66.274 72.3809 70.8804 Q75.4596 75.4637 75.4596 84.2137 Q75.4596 92.9405 72.3809 97.5469 Q69.3254 102.13 63.5152 102.13 Q57.7051 102.13 54.6264 97.5469 Q51.5708 92.9405 51.5708 84.2137 Q51.5708 75.4637 54.6264 70.8804 Q57.7051 66.274 63.5152 66.274 Z" fill="#000000" fill-rule="nonzero" fill-opacity="1" /><path clip-path="url(#clip130)" d="M83.6771 95.5794 L88.5614 95.5794 L88.5614 101.459 L83.6771 101.459 L83.6771 95.5794 Z" fill="#000000" fill-rule="nonzero" fill-opacity="1" /><path clip-path="url(#clip130)" d="M108.746 69.9777 Q105.135 69.9777 103.307 73.5424 Q101.501 77.0841 101.501 84.2137 Q101.501 91.3201 103.307 94.8849 Q105.135 98.4266 108.746 98.4266 Q112.381 98.4266 114.186 94.8849 Q116.015 91.3201 116.015 84.2137 Q116.015 77.0841 114.186 73.5424 Q112.381 69.9777 108.746 69.9777 M108.746 66.274 Q114.557 66.274 117.612 70.8804 Q120.691 75.4637 120.691 84.2137 Q120.691 92.9405 117.612 97.5469 Q114.557 102.13 108.746 102.13 Q102.936 102.13 99.8576 97.5469 Q96.8021 92.9405 96.8021 84.2137 Q96.8021 75.4637 99.8576 70.8804 Q102.936 66.274 108.746 66.274 Z" fill="#000000" fill-rule="nonzero" fill-opacity="1" /><path clip-path="url(#clip130)" d="M138.908 85.047 Q135.575 85.047 133.654 86.8294 Q131.756 88.6118 131.756 91.7368 Q131.756 94.8618 133.654 96.6442 Q135.575 98.4266 138.908 98.4266 Q142.242 98.4266 144.163 96.6442 Q146.084 94.8386 146.084 91.7368 Q146.084 88.6118 144.163 86.8294 Q142.265 85.047 138.908 85.047 M134.232 83.0563 Q131.223 82.3155 129.533 80.2554 Q127.867 78.1952 127.867 75.2323 Q127.867 71.0888 130.807 68.6814 Q133.769 66.274 138.908 66.274 Q144.07 66.274 147.01 68.6814 Q149.95 71.0888 149.95 75.2323 Q149.95 78.1952 148.26 80.2554 Q146.593 82.3155 143.607 83.0563 Q146.987 83.8433 148.862 86.135 Q150.76 88.4266 150.76 91.7368 Q150.76 96.7599 147.681 99.4451 Q144.626 102.13 138.908 102.13 Q133.191 102.13 130.112 99.4451 Q127.057 96.7599 127.057 91.7368 Q127.057 88.4266 128.955 86.135 Q130.853 83.8433 134.232 83.0563 M132.519 75.6721 Q132.519 78.3572 134.186 79.8619 Q135.876 81.3665 138.908 81.3665 Q141.918 81.3665 143.607 79.8619 Q145.32 78.3572 145.32 75.6721 Q145.32 72.9869 143.607 71.4823 Q141.918 69.9777 138.908 69.9777 Q135.876 69.9777 134.186 71.4823 Q132.519 72.9869 132.519 75.6721 Z" fill="#000000" fill-rule="nonzero" fill-opacity="1" /><polyline clip-path="url(#clip132)" style="stroke:#009af9; stroke-linecap:round; stroke-linejoin:round; stroke-width:12; stroke-opacity:1; fill:none" points="248.062,1445.72 258.61,1445.51 269.157,1445.28 330.934,1443.11 392.711,1438.74 421.45,1435.51 450.188,1431.19 488.709,1423.18 527.229,1411.83 543.144,1405.93 559.059,1399.19 574.974,1391.55 590.889,1382.9 605.688,1373.87 620.487,1363.81 635.286,1352.64 650.086,1340.28 668.664,1322.97 687.242,1303.51 705.82,1281.76 724.398,1257.57 741.063,1233.72 757.728,1207.74 774.392,1179.59 791.057,1149.22 810.132,1111.72 829.207,1071.32 848.282,1028.08 867.357,982.102 881.616,946.051 895.874,908.657 910.133,870.029 924.391,830.293 960.865,724.654 997.339,615.707 1030.63,516.418 1063.92,420.458 1073.39,394.217 1082.86,368.589 1092.33,343.65 1101.81,319.475 1111.28,296.139 1120.75,273.716 1130.22,252.277 1139.69,231.892 1154.71,201.895 1169.73,174.964 1184.75,151.329 1199.76,131.192 1209.09,120.523 1218.42,111.309 1227.75,103.581 1237.08,97.3659 1246.41,92.6841 1255.74,89.5523 1265.06,87.9812 1274.39,87.9763 1288.68,91.0037 1302.97,97.6794 1317.26,107.95 1331.55,121.732 1341.62,133.499 1351.69,146.91 1361.76,161.913 1371.84,178.449 1381.91,196.455 1391.98,215.862 1402.05,236.595 1412.12,258.578 1427.18,293.585 1442.23,330.917 1457.29,370.279 1472.34,411.367 1506.58,509.617 1540.82,611.624 1574.72,713.026 1608.63,811.871 1627.29,864.248 1645.94,914.764 1664.59,963.139 1683.24,1009.14 1697.49,1042.57 1711.74,1074.45 1725.98,1104.73 1740.23,1133.41 1758.21,1167.26 1776.19,1198.53 1794.17,1227.25 1812.15,1253.48 1828.78,1275.6 1845.4,1295.74 1862.03,1314.01 1878.66,1330.5 1895.81,1345.76 1912.96,1359.37 1930.11,1371.44 1947.26,1382.1 1964.64,1391.6 1982.03,1399.9 1999.41,1407.11 2016.79,1413.36 2053.09,1423.74 2089.4,1431.2 2117.99,1435.5 2146.59,1438.72 2211.72,1443.26 2276.84,1445.42 2284.15,1445.58 2291.45,1445.72 "/>
<path clip-path="url(#clip130)" d="M2011.53 198.898 L2280.56 198.898 L2280.56 95.2176 L2011.53 95.2176  Z" fill="#ffffff" fill-rule="evenodd" fill-opacity="1"/>
<polyline clip-path="url(#clip130)" style="stroke:#000000; stroke-linecap:round; stroke-linejoin:round; stroke-width:4; stroke-opacity:1; fill:none" points="2011.53,198.898 2280.56,198.898 2280.56,95.2176 2011.53,95.2176 2011.53,198.898 "/>
<polyline clip-path="url(#clip130)" style="stroke:#009af9; stroke-linecap:round; stroke-linejoin:round; stroke-width:12; stroke-opacity:1; fill:none" points="2035.59,147.058 2179.99,147.058 "/>
<path clip-path="url(#clip130)" d="M2217.9 166.745 Q2216.1 171.375 2214.38 172.787 Q2212.67 174.199 2209.8 174.199 L2206.4 174.199 L2206.4 170.634 L2208.9 170.634 Q2210.66 170.634 2211.63 169.8 Q2212.6 168.967 2213.78 165.865 L2214.55 163.921 L2204.06 138.412 L2208.57 138.412 L2216.67 158.689 L2224.78 138.412 L2229.29 138.412 L2217.9 166.745 Z" fill="#000000" fill-rule="nonzero" fill-opacity="1" /><path clip-path="url(#clip130)" d="M2236.58 160.402 L2244.22 160.402 L2244.22 134.037 L2235.91 135.703 L2235.91 131.444 L2244.17 129.778 L2248.85 129.778 L2248.85 160.402 L2256.49 160.402 L2256.49 164.338 L2236.58 164.338 L2236.58 160.402 Z" fill="#000000" fill-rule="nonzero" fill-opacity="1" /></svg>
