<?xml version="1.0" encoding="utf-8"?>
<svg xmlns="http://www.w3.org/2000/svg" xmlns:xlink="http://www.w3.org/1999/xlink" width="600" height="400" viewBox="0 0 2400 1600">
<defs>
  <clipPath id="clip010">
    <rect x="0" y="0" width="2400" height="1600"/>
  </clipPath>
</defs>
<path clip-path="url(#clip010)" d="M0 1600 L2400 1600 L2400 0 L0 0  Z" fill="#ffffff" fill-rule="evenodd" fill-opacity="1"/>
<defs>
  <clipPath id="clip011">
    <rect x="480" y="0" width="1681" height="1600"/>
  </clipPath>
</defs>
<path clip-path="url(#clip010)" d="M112.177 1486.45 L2352.76 1486.45 L2352.76 47.2441 L112.177 47.2441  Z" fill="#ffffff" fill-rule="evenodd" fill-opacity="1"/>
<defs>
  <clipPath id="clip012">
    <rect x="112" y="47" width="2242" height="1440"/>
  </clipPath>
</defs>
<polyline clip-path="url(#clip012)" style="stroke:#000000; stroke-linecap:round; stroke-linejoin:round; stroke-width:2; stroke-opacity:0.1; fill:none" points="410.451,1486.45 410.451,47.2441 "/>
<polyline clip-path="url(#clip012)" style="stroke:#000000; stroke-linecap:round; stroke-linejoin:round; stroke-width:2; stroke-opacity:0.1; fill:none" points="880.174,1486.45 880.174,47.2441 "/>
<polyline clip-path="url(#clip012)" style="stroke:#000000; stroke-linecap:round; stroke-linejoin:round; stroke-width:2; stroke-opacity:0.1; fill:none" points="1349.9,1486.45 1349.9,47.2441 "/>
<polyline clip-path="url(#clip012)" style="stroke:#000000; stroke-linecap:round; stroke-linejoin:round; stroke-width:2; stroke-opacity:0.1; fill:none" points="1819.62,1486.45 1819.62,47.2441 "/>
<polyline clip-path="url(#clip012)" style="stroke:#000000; stroke-linecap:round; stroke-linejoin:round; stroke-width:2; stroke-opacity:0.1; fill:none" points="2289.34,1486.45 2289.34,47.2441 "/>
<polyline clip-path="url(#clip012)" style="stroke:#000000; stroke-linecap:round; stroke-linejoin:round; stroke-width:2; stroke-opacity:0.1; fill:none" points="112.177,1189.33 2352.76,1189.33 "/>
<polyline clip-path="url(#clip012)" style="stroke:#000000; stroke-linecap:round; stroke-linejoin:round; stroke-width:2; stroke-opacity:0.1; fill:none" points="112.177,889.386 2352.76,889.386 "/>
<polyline clip-path="url(#clip012)" style="stroke:#000000; stroke-linecap:round; stroke-linejoin:round; stroke-width:2; stroke-opacity:0.1; fill:none" points="112.177,589.442 2352.76,589.442 "/>
<polyline clip-path="url(#clip012)" style="stroke:#000000; stroke-linecap:round; stroke-linejoin:round; stroke-width:2; stroke-opacity:0.1; fill:none" points="112.177,289.498 2352.76,289.498 "/>
<polyline clip-path="url(#clip010)" style="stroke:#000000; stroke-linecap:round; stroke-linejoin:round; stroke-width:4; stroke-opacity:1; fill:none" points="112.177,1486.45 2352.76,1486.45 "/>
<polyline clip-path="url(#clip010)" style="stroke:#000000; stroke-linecap:round; stroke-linejoin:round; stroke-width:4; stroke-opacity:1; fill:none" points="410.451,1486.45 410.451,1467.55 "/>
<polyline clip-path="url(#clip010)" style="stroke:#000000; stroke-linecap:round; stroke-linejoin:round; stroke-width:4; stroke-opacity:1; fill:none" points="880.174,1486.45 880.174,1467.55 "/>
<polyline clip-path="url(#clip010)" style="stroke:#000000; stroke-linecap:round; stroke-linejoin:round; stroke-width:4; stroke-opacity:1; fill:none" points="1349.9,1486.45 1349.9,1467.55 "/>
<polyline clip-path="url(#clip010)" style="stroke:#000000; stroke-linecap:round; stroke-linejoin:round; stroke-width:4; stroke-opacity:1; fill:none" points="1819.62,1486.45 1819.62,1467.55 "/>
<polyline clip-path="url(#clip010)" style="stroke:#000000; stroke-linecap:round; stroke-linejoin:round; stroke-width:4; stroke-opacity:1; fill:none" points="2289.34,1486.45 2289.34,1467.55 "/>
<path clip-path="url(#clip010)" d="M405.104 1544.91 L421.423 1544.91 L421.423 1548.85 L399.479 1548.85 L399.479 1544.91 Q402.141 1542.16 406.724 1537.53 Q411.331 1532.88 412.511 1531.53 Q414.757 1529.01 415.636 1527.27 Q416.539 1525.51 416.539 1523.82 Q416.539 1521.07 414.595 1519.33 Q412.673 1517.6 409.572 1517.6 Q407.373 1517.6 404.919 1518.36 Q402.488 1519.13 399.711 1520.68 L399.711 1515.95 Q402.535 1514.82 404.988 1514.24 Q407.442 1513.66 409.479 1513.66 Q414.849 1513.66 418.044 1516.35 Q421.238 1519.03 421.238 1523.52 Q421.238 1525.65 420.428 1527.57 Q419.641 1529.47 417.535 1532.07 Q416.956 1532.74 413.854 1535.95 Q410.752 1539.15 405.104 1544.91 Z" fill="#000000" fill-rule="nonzero" fill-opacity="1" /><path clip-path="url(#clip010)" d="M883.184 1518.36 L871.378 1536.81 L883.184 1536.81 L883.184 1518.36 M881.957 1514.29 L887.836 1514.29 L887.836 1536.81 L892.767 1536.81 L892.767 1540.7 L887.836 1540.7 L887.836 1548.85 L883.184 1548.85 L883.184 1540.7 L867.582 1540.7 L867.582 1536.19 L881.957 1514.29 Z" fill="#000000" fill-rule="nonzero" fill-opacity="1" /><path clip-path="url(#clip010)" d="M1350.3 1529.7 Q1347.15 1529.7 1345.3 1531.86 Q1343.47 1534.01 1343.47 1537.76 Q1343.47 1541.49 1345.3 1543.66 Q1347.15 1545.82 1350.3 1545.82 Q1353.45 1545.82 1355.28 1543.66 Q1357.13 1541.49 1357.13 1537.76 Q1357.13 1534.01 1355.28 1531.86 Q1353.45 1529.7 1350.3 1529.7 M1359.58 1515.05 L1359.58 1519.31 Q1357.83 1518.48 1356.02 1518.04 Q1354.24 1517.6 1352.48 1517.6 Q1347.85 1517.6 1345.4 1520.72 Q1342.96 1523.85 1342.62 1530.17 Q1343.98 1528.15 1346.04 1527.09 Q1348.1 1526 1350.58 1526 Q1355.79 1526 1358.8 1529.17 Q1361.83 1532.32 1361.83 1537.76 Q1361.83 1543.08 1358.68 1546.3 Q1355.53 1549.52 1350.3 1549.52 Q1344.31 1549.52 1341.14 1544.94 Q1337.96 1540.33 1337.96 1531.6 Q1337.96 1523.41 1341.85 1518.55 Q1345.74 1513.66 1352.29 1513.66 Q1354.05 1513.66 1355.83 1514.01 Q1357.64 1514.36 1359.58 1515.05 Z" fill="#000000" fill-rule="nonzero" fill-opacity="1" /><path clip-path="url(#clip010)" d="M1819.62 1532.44 Q1816.29 1532.44 1814.37 1534.22 Q1812.47 1536 1812.47 1539.13 Q1812.47 1542.25 1814.37 1544.03 Q1816.29 1545.82 1819.62 1545.82 Q1822.95 1545.82 1824.87 1544.03 Q1826.8 1542.23 1826.8 1539.13 Q1826.8 1536 1824.87 1534.22 Q1822.98 1532.44 1819.62 1532.44 M1814.94 1530.45 Q1811.94 1529.7 1810.25 1527.64 Q1808.58 1525.58 1808.58 1522.62 Q1808.58 1518.48 1811.52 1516.07 Q1814.48 1513.66 1819.62 1513.66 Q1824.78 1513.66 1827.72 1516.07 Q1830.66 1518.48 1830.66 1522.62 Q1830.66 1525.58 1828.97 1527.64 Q1827.31 1529.7 1824.32 1530.45 Q1827.7 1531.23 1829.57 1533.52 Q1831.47 1535.82 1831.47 1539.13 Q1831.47 1544.15 1828.39 1546.83 Q1825.34 1549.52 1819.62 1549.52 Q1813.9 1549.52 1810.82 1546.83 Q1807.77 1544.15 1807.77 1539.13 Q1807.77 1535.82 1809.67 1533.52 Q1811.56 1531.23 1814.94 1530.45 M1813.23 1523.06 Q1813.23 1525.75 1814.9 1527.25 Q1816.59 1528.76 1819.62 1528.76 Q1822.63 1528.76 1824.32 1527.25 Q1826.03 1525.75 1826.03 1523.06 Q1826.03 1520.38 1824.32 1518.87 Q1822.63 1517.37 1819.62 1517.37 Q1816.59 1517.37 1814.9 1518.87 Q1813.23 1520.38 1813.23 1523.06 Z" fill="#000000" fill-rule="nonzero" fill-opacity="1" /><path clip-path="url(#clip010)" d="M2264.03 1544.91 L2271.67 1544.91 L2271.67 1518.55 L2263.36 1520.21 L2263.36 1515.95 L2271.62 1514.29 L2276.3 1514.29 L2276.3 1544.91 L2283.94 1544.91 L2283.94 1548.85 L2264.03 1548.85 L2264.03 1544.91 Z" fill="#000000" fill-rule="nonzero" fill-opacity="1" /><path clip-path="url(#clip010)" d="M2303.38 1517.37 Q2299.77 1517.37 2297.94 1520.93 Q2296.14 1524.47 2296.14 1531.6 Q2296.14 1538.71 2297.94 1542.27 Q2299.77 1545.82 2303.38 1545.82 Q2307.02 1545.82 2308.82 1542.27 Q2310.65 1538.71 2310.65 1531.6 Q2310.65 1524.47 2308.82 1520.93 Q2307.02 1517.37 2303.38 1517.37 M2303.38 1513.66 Q2309.19 1513.66 2312.25 1518.27 Q2315.33 1522.85 2315.33 1531.6 Q2315.33 1540.33 2312.25 1544.94 Q2309.19 1549.52 2303.38 1549.52 Q2297.57 1549.52 2294.49 1544.94 Q2291.44 1540.33 2291.44 1531.6 Q2291.44 1522.85 2294.49 1518.27 Q2297.57 1513.66 2303.38 1513.66 Z" fill="#000000" fill-rule="nonzero" fill-opacity="1" /><polyline clip-path="url(#clip010)" style="stroke:#000000; stroke-linecap:round; stroke-linejoin:round; stroke-width:4; stroke-opacity:1; fill:none" points="112.177,1486.45 112.177,47.2441 "/>
<polyline clip-path="url(#clip010)" style="stroke:#000000; stroke-linecap:round; stroke-linejoin:round; stroke-width:4; stroke-opacity:1; fill:none" points="112.177,1189.33 131.075,1189.33 "/>
<polyline clip-path="url(#clip010)" style="stroke:#000000; stroke-linecap:round; stroke-linejoin:round; stroke-width:4; stroke-opacity:1; fill:none" points="112.177,889.386 131.075,889.386 "/>
<polyline clip-path="url(#clip010)" style="stroke:#000000; stroke-linecap:round; stroke-linejoin:round; stroke-width:4; stroke-opacity:1; fill:none" points="112.177,589.442 131.075,589.442 "/>
<polyline clip-path="url(#clip010)" style="stroke:#000000; stroke-linecap:round; stroke-linejoin:round; stroke-width:4; stroke-opacity:1; fill:none" points="112.177,289.498 131.075,289.498 "/>
<path clip-path="url(#clip010)" d="M59.8578 1202.67 L76.1772 1202.67 L76.1772 1206.61 L54.2328 1206.61 L54.2328 1202.67 Q56.8949 1199.92 61.4782 1195.29 Q66.0846 1190.64 67.2652 1189.29 Q69.5105 1186.77 70.3902 1185.04 Q71.2929 1183.28 71.2929 1181.59 Q71.2929 1178.83 69.3485 1177.1 Q67.4272 1175.36 64.3254 1175.36 Q62.1263 1175.36 59.6726 1176.12 Q57.2421 1176.89 54.4643 1178.44 L54.4643 1173.72 Q57.2884 1172.58 59.7421 1172 Q62.1958 1171.42 64.2328 1171.42 Q69.6031 1171.42 72.7976 1174.11 Q75.992 1176.79 75.992 1181.29 Q75.992 1183.42 75.1818 1185.34 Q74.3948 1187.23 72.2883 1189.83 Q71.7096 1190.5 68.6078 1193.72 Q65.5059 1196.91 59.8578 1202.67 Z" fill="#000000" fill-rule="nonzero" fill-opacity="1" /><path clip-path="url(#clip010)" d="M66.5939 876.18 L54.7884 894.629 L66.5939 894.629 L66.5939 876.18 M65.367 872.106 L71.2466 872.106 L71.2466 894.629 L76.1772 894.629 L76.1772 898.517 L71.2466 898.517 L71.2466 906.666 L66.5939 906.666 L66.5939 898.517 L50.9921 898.517 L50.9921 894.004 L65.367 872.106 Z" fill="#000000" fill-rule="nonzero" fill-opacity="1" /><path clip-path="url(#clip010)" d="M64.6495 587.578 Q61.5013 587.578 59.6495 589.731 Q57.8208 591.884 57.8208 595.634 Q57.8208 599.361 59.6495 601.537 Q61.5013 603.689 64.6495 603.689 Q67.7976 603.689 69.6263 601.537 Q71.4781 599.361 71.4781 595.634 Q71.4781 591.884 69.6263 589.731 Q67.7976 587.578 64.6495 587.578 M73.9318 572.926 L73.9318 577.185 Q72.1726 576.352 70.367 575.912 Q68.5846 575.472 66.8254 575.472 Q62.1958 575.472 59.7421 578.597 Q57.3115 581.722 56.9643 588.041 Q58.33 586.027 60.3902 584.963 Q62.4504 583.875 64.9272 583.875 Q70.1355 583.875 73.1448 587.046 Q76.1772 590.194 76.1772 595.634 Q76.1772 600.958 73.029 604.175 Q69.8809 607.393 64.6495 607.393 Q58.6541 607.393 55.4828 602.81 Q52.3116 598.203 52.3116 589.476 Q52.3116 581.282 56.2004 576.421 Q60.0893 571.537 66.6402 571.537 Q68.3994 571.537 70.1818 571.884 Q71.9874 572.231 73.9318 572.926 Z" fill="#000000" fill-rule="nonzero" fill-opacity="1" /><path clip-path="url(#clip010)" d="M64.3254 290.366 Q60.9921 290.366 59.0708 292.148 Q57.1726 293.931 57.1726 297.056 Q57.1726 300.181 59.0708 301.963 Q60.9921 303.746 64.3254 303.746 Q67.6587 303.746 69.58 301.963 Q71.5013 300.158 71.5013 297.056 Q71.5013 293.931 69.58 292.148 Q67.6819 290.366 64.3254 290.366 M59.6495 288.375 Q56.6402 287.634 54.9504 285.574 Q53.2838 283.514 53.2838 280.551 Q53.2838 276.408 56.2236 274 Q59.1865 271.593 64.3254 271.593 Q69.4874 271.593 72.4272 274 Q75.367 276.408 75.367 280.551 Q75.367 283.514 73.6772 285.574 Q72.0105 287.634 69.0244 288.375 Q72.404 289.162 74.279 291.454 Q76.1772 293.746 76.1772 297.056 Q76.1772 302.079 73.0985 304.764 Q70.0429 307.449 64.3254 307.449 Q58.6078 307.449 55.5291 304.764 Q52.4736 302.079 52.4736 297.056 Q52.4736 293.746 54.3717 291.454 Q56.2699 289.162 59.6495 288.375 M57.9365 280.991 Q57.9365 283.676 59.6032 285.181 Q61.293 286.685 64.3254 286.685 Q67.3346 286.685 69.0244 285.181 Q70.7374 283.676 70.7374 280.991 Q70.7374 278.306 69.0244 276.801 Q67.3346 275.297 64.3254 275.297 Q61.293 275.297 59.6032 276.801 Q57.9365 278.306 57.9365 280.991 Z" fill="#000000" fill-rule="nonzero" fill-opacity="1" /><polyline clip-path="url(#clip012)" style="stroke:#009af9; stroke-linecap:round; stroke-linejoin:round; stroke-width:4; stroke-opacity:1; fill:none" points="175.59,1015.2 410.451,1194.59 645.313,1441.07 880.174,575.981 1115.04,1445.72 1349.9,649.383 1584.76,1374.63 1819.62,625.656 2054.48,87.9763 2289.34,518.766 "/>
<polyline clip-path="url(#clip012)" style="stroke:#e26f46; stroke-linecap:round; stroke-linejoin:round; stroke-width:4; stroke-opacity:1; fill:none" points="175.59,609.834 410.451,1321.27 645.313,1077.12 880.174,141.714 1115.04,238.778 1349.9,957.601 1584.76,435.797 1819.62,1312.73 2054.48,1228.33 2289.34,1155.26 "/>
<path clip-path="url(#clip010)" d="M186.863 250.738 L434.115 250.738 L434.115 95.2176 L186.863 95.2176  Z" fill="#ffffff" fill-rule="evenodd" fill-opacity="1"/>
<polyline clip-path="url(#clip010)" style="stroke:#000000; stroke-linecap:round; stroke-linejoin:round; stroke-width:4; stroke-opacity:1; fill:none" points="186.863,250.738 434.115,250.738 434.115,95.2176 186.863,95.2176 186.863,250.738 "/>
<polyline clip-path="url(#clip010)" style="stroke:#009af9; stroke-linecap:round; stroke-linejoin:round; stroke-width:4; stroke-opacity:1; fill:none" points="211.758,147.058 361.13,147.058 "/>
<path clip-path="url(#clip010)" d="M404.799 151.398 Q404.799 146.699 402.854 144.037 Q400.933 141.352 397.553 141.352 Q394.174 141.352 392.229 144.037 Q390.308 146.699 390.308 151.398 Q390.308 156.097 392.229 158.782 Q394.174 161.444 397.553 161.444 Q400.933 161.444 402.854 158.782 Q404.799 156.097 404.799 151.398 M390.308 142.347 Q391.651 140.032 393.688 138.921 Q395.748 137.787 398.595 137.787 Q403.317 137.787 406.257 141.537 Q409.22 145.287 409.22 151.398 Q409.22 157.509 406.257 161.259 Q403.317 165.009 398.595 165.009 Q395.748 165.009 393.688 163.898 Q391.651 162.763 390.308 160.449 L390.308 164.338 L386.026 164.338 L386.026 128.319 L390.308 128.319 L390.308 142.347 Z" fill="#000000" fill-rule="nonzero" fill-opacity="1" /><polyline clip-path="url(#clip010)" style="stroke:#e26f46; stroke-linecap:round; stroke-linejoin:round; stroke-width:4; stroke-opacity:1; fill:none" points="211.758,198.898 361.13,198.898 "/>
<path clip-path="url(#clip010)" d="M406.535 191.247 L406.535 195.229 Q404.729 194.233 402.901 193.747 Q401.095 193.238 399.243 193.238 Q395.1 193.238 392.808 195.877 Q390.516 198.492 390.516 203.238 Q390.516 207.983 392.808 210.622 Q395.1 213.238 399.243 213.238 Q401.095 213.238 402.901 212.752 Q404.729 212.242 406.535 211.247 L406.535 215.182 Q404.752 216.016 402.831 216.432 Q400.933 216.849 398.78 216.849 Q392.924 216.849 389.475 213.168 Q386.026 209.488 386.026 203.238 Q386.026 196.895 389.498 193.261 Q392.993 189.627 399.058 189.627 Q401.026 189.627 402.901 190.043 Q404.776 190.437 406.535 191.247 Z" fill="#000000" fill-rule="nonzero" fill-opacity="1" /></svg>
