<?xml version="1.0" encoding="utf-8"?>
<svg xmlns="http://www.w3.org/2000/svg" xmlns:xlink="http://www.w3.org/1999/xlink" width="600" height="400" viewBox="0 0 2400 1600">
<defs>
  <clipPath id="clip360">
    <rect x="0" y="0" width="2400" height="1600"/>
  </clipPath>
</defs>
<path clip-path="url(#clip360)" d="M0 1600 L2400 1600 L2400 0 L0 0  Z" fill="#ffffff" fill-rule="evenodd" fill-opacity="1"/>
<defs>
  <clipPath id="clip361">
    <rect x="480" y="0" width="1681" height="1600"/>
  </clipPath>
</defs>
<path clip-path="url(#clip360)" d="M172.015 1486.45 L2352.76 1486.45 L2352.76 47.2441 L172.015 47.2441  Z" fill="#ffffff" fill-rule="evenodd" fill-opacity="1"/>
<defs>
  <clipPath id="clip362">
    <rect x="172" y="47" width="2182" height="1440"/>
  </clipPath>
</defs>
<polyline clip-path="url(#clip362)" style="stroke:#000000; stroke-linecap:round; stroke-linejoin:round; stroke-width:2; stroke-opacity:0.1; fill:none" points="569.224,1486.45 569.224,47.2441 "/>
<polyline clip-path="url(#clip362)" style="stroke:#000000; stroke-linecap:round; stroke-linejoin:round; stroke-width:2; stroke-opacity:0.1; fill:none" points="1123.75,1486.45 1123.75,47.2441 "/>
<polyline clip-path="url(#clip362)" style="stroke:#000000; stroke-linecap:round; stroke-linejoin:round; stroke-width:2; stroke-opacity:0.1; fill:none" points="1678.28,1486.45 1678.28,47.2441 "/>
<polyline clip-path="url(#clip362)" style="stroke:#000000; stroke-linecap:round; stroke-linejoin:round; stroke-width:2; stroke-opacity:0.1; fill:none" points="2232.81,1486.45 2232.81,47.2441 "/>
<polyline clip-path="url(#clip362)" style="stroke:#000000; stroke-linecap:round; stroke-linejoin:round; stroke-width:2; stroke-opacity:0.1; fill:none" points="172.015,1486.45 2352.76,1486.45 "/>
<polyline clip-path="url(#clip362)" style="stroke:#000000; stroke-linecap:round; stroke-linejoin:round; stroke-width:2; stroke-opacity:0.1; fill:none" points="172.015,1237.02 2352.76,1237.02 "/>
<polyline clip-path="url(#clip362)" style="stroke:#000000; stroke-linecap:round; stroke-linejoin:round; stroke-width:2; stroke-opacity:0.1; fill:none" points="172.015,987.59 2352.76,987.59 "/>
<polyline clip-path="url(#clip362)" style="stroke:#000000; stroke-linecap:round; stroke-linejoin:round; stroke-width:2; stroke-opacity:0.1; fill:none" points="172.015,738.162 2352.76,738.162 "/>
<polyline clip-path="url(#clip362)" style="stroke:#000000; stroke-linecap:round; stroke-linejoin:round; stroke-width:2; stroke-opacity:0.1; fill:none" points="172.015,488.733 2352.76,488.733 "/>
<polyline clip-path="url(#clip362)" style="stroke:#000000; stroke-linecap:round; stroke-linejoin:round; stroke-width:2; stroke-opacity:0.1; fill:none" points="172.015,239.304 2352.76,239.304 "/>
<polyline clip-path="url(#clip360)" style="stroke:#000000; stroke-linecap:round; stroke-linejoin:round; stroke-width:4; stroke-opacity:1; fill:none" points="172.015,1486.45 2352.76,1486.45 "/>
<polyline clip-path="url(#clip360)" style="stroke:#000000; stroke-linecap:round; stroke-linejoin:round; stroke-width:4; stroke-opacity:1; fill:none" points="569.224,1486.45 569.224,1467.55 "/>
<polyline clip-path="url(#clip360)" style="stroke:#000000; stroke-linecap:round; stroke-linejoin:round; stroke-width:4; stroke-opacity:1; fill:none" points="1123.75,1486.45 1123.75,1467.55 "/>
<polyline clip-path="url(#clip360)" style="stroke:#000000; stroke-linecap:round; stroke-linejoin:round; stroke-width:4; stroke-opacity:1; fill:none" points="1678.28,1486.45 1678.28,1467.55 "/>
<polyline clip-path="url(#clip360)" style="stroke:#000000; stroke-linecap:round; stroke-linejoin:round; stroke-width:4; stroke-opacity:1; fill:none" points="2232.81,1486.45 2232.81,1467.55 "/>
<path clip-path="url(#clip360)" d="M539.166 1532.02 L568.842 1532.02 L568.842 1535.95 L539.166 1535.95 L539.166 1532.02 Z" fill="#000000" fill-rule="nonzero" fill-opacity="1" /><path clip-path="url(#clip360)" d="M582.962 1544.91 L599.282 1544.91 L599.282 1548.85 L577.337 1548.85 L577.337 1544.91 Q579.999 1542.16 584.583 1537.53 Q589.189 1532.88 590.37 1531.53 Q592.615 1529.01 593.495 1527.27 Q594.397 1525.51 594.397 1523.82 Q594.397 1521.07 592.453 1519.33 Q590.532 1517.6 587.43 1517.6 Q585.231 1517.6 582.777 1518.36 Q580.347 1519.13 577.569 1520.68 L577.569 1515.95 Q580.393 1514.82 582.847 1514.24 Q585.3 1513.66 587.337 1513.66 Q592.708 1513.66 595.902 1516.35 Q599.097 1519.03 599.097 1523.52 Q599.097 1525.65 598.286 1527.57 Q597.499 1529.47 595.393 1532.07 Q594.814 1532.74 591.712 1535.95 Q588.61 1539.15 582.962 1544.91 Z" fill="#000000" fill-rule="nonzero" fill-opacity="1" /><path clip-path="url(#clip360)" d="M1123.75 1517.37 Q1120.14 1517.37 1118.31 1520.93 Q1116.51 1524.47 1116.51 1531.6 Q1116.51 1538.71 1118.31 1542.27 Q1120.14 1545.82 1123.75 1545.82 Q1127.39 1545.82 1129.19 1542.27 Q1131.02 1538.71 1131.02 1531.6 Q1131.02 1524.47 1129.19 1520.93 Q1127.39 1517.37 1123.75 1517.37 M1123.75 1513.66 Q1129.56 1513.66 1132.62 1518.27 Q1135.7 1522.85 1135.7 1531.6 Q1135.7 1540.33 1132.62 1544.94 Q1129.56 1549.52 1123.75 1549.52 Q1117.94 1549.52 1114.86 1544.94 Q1111.81 1540.33 1111.81 1531.6 Q1111.81 1522.85 1114.86 1518.27 Q1117.94 1513.66 1123.75 1513.66 Z" fill="#000000" fill-rule="nonzero" fill-opacity="1" /><path clip-path="url(#clip360)" d="M1672.93 1544.91 L1689.25 1544.91 L1689.25 1548.85 L1667.31 1548.85 L1667.31 1544.91 Q1669.97 1542.16 1674.56 1537.53 Q1679.16 1532.88 1680.34 1531.53 Q1682.59 1529.01 1683.47 1527.27 Q1684.37 1525.51 1684.37 1523.82 Q1684.37 1521.07 1682.43 1519.33 Q1680.5 1517.6 1677.4 1517.6 Q1675.2 1517.6 1672.75 1518.36 Q1670.32 1519.13 1667.54 1520.68 L1667.54 1515.95 Q1670.37 1514.82 1672.82 1514.24 Q1675.27 1513.66 1677.31 1513.66 Q1682.68 1513.66 1685.87 1516.35 Q1689.07 1519.03 1689.07 1523.52 Q1689.07 1525.65 1688.26 1527.57 Q1687.47 1529.47 1685.37 1532.07 Q1684.79 1532.74 1681.68 1535.95 Q1678.58 1539.15 1672.93 1544.91 Z" fill="#000000" fill-rule="nonzero" fill-opacity="1" /><path clip-path="url(#clip360)" d="M2235.82 1518.36 L2224.02 1536.81 L2235.82 1536.81 L2235.82 1518.36 M2234.59 1514.29 L2240.47 1514.29 L2240.47 1536.81 L2245.4 1536.81 L2245.4 1540.7 L2240.47 1540.7 L2240.47 1548.85 L2235.82 1548.85 L2235.82 1540.7 L2220.22 1540.7 L2220.22 1536.19 L2234.59 1514.29 Z" fill="#000000" fill-rule="nonzero" fill-opacity="1" /><polyline clip-path="url(#clip360)" style="stroke:#000000; stroke-linecap:round; stroke-linejoin:round; stroke-width:4; stroke-opacity:1; fill:none" points="172.015,1486.45 172.015,47.2441 "/>
<polyline clip-path="url(#clip360)" style="stroke:#000000; stroke-linecap:round; stroke-linejoin:round; stroke-width:4; stroke-opacity:1; fill:none" points="172.015,1486.45 190.912,1486.45 "/>
<polyline clip-path="url(#clip360)" style="stroke:#000000; stroke-linecap:round; stroke-linejoin:round; stroke-width:4; stroke-opacity:1; fill:none" points="172.015,1237.02 190.912,1237.02 "/>
<polyline clip-path="url(#clip360)" style="stroke:#000000; stroke-linecap:round; stroke-linejoin:round; stroke-width:4; stroke-opacity:1; fill:none" points="172.015,987.59 190.912,987.59 "/>
<polyline clip-path="url(#clip360)" style="stroke:#000000; stroke-linecap:round; stroke-linejoin:round; stroke-width:4; stroke-opacity:1; fill:none" points="172.015,738.162 190.912,738.162 "/>
<polyline clip-path="url(#clip360)" style="stroke:#000000; stroke-linecap:round; stroke-linejoin:round; stroke-width:4; stroke-opacity:1; fill:none" points="172.015,488.733 190.912,488.733 "/>
<polyline clip-path="url(#clip360)" style="stroke:#000000; stroke-linecap:round; stroke-linejoin:round; stroke-width:4; stroke-opacity:1; fill:none" points="172.015,239.304 190.912,239.304 "/>
<path clip-path="url(#clip360)" d="M124.07 1472.25 Q120.459 1472.25 118.631 1475.81 Q116.825 1479.35 116.825 1486.48 Q116.825 1493.59 118.631 1497.15 Q120.459 1500.7 124.07 1500.7 Q127.705 1500.7 129.51 1497.15 Q131.339 1493.59 131.339 1486.48 Q131.339 1479.35 129.51 1475.81 Q127.705 1472.25 124.07 1472.25 M124.07 1468.54 Q129.881 1468.54 132.936 1473.15 Q136.015 1477.73 136.015 1486.48 Q136.015 1495.21 132.936 1499.82 Q129.881 1504.4 124.07 1504.4 Q118.26 1504.4 115.182 1499.82 Q112.126 1495.21 112.126 1486.48 Q112.126 1477.73 115.182 1473.15 Q118.26 1468.54 124.07 1468.54 Z" fill="#000000" fill-rule="nonzero" fill-opacity="1" /><path clip-path="url(#clip360)" d="M54.5569 1250.36 L62.1958 1250.36 L62.1958 1224 L53.8856 1225.67 L53.8856 1221.41 L62.1495 1219.74 L66.8254 1219.74 L66.8254 1250.36 L74.4642 1250.36 L74.4642 1254.3 L54.5569 1254.3 L54.5569 1250.36 Z" fill="#000000" fill-rule="nonzero" fill-opacity="1" /><path clip-path="url(#clip360)" d="M93.9086 1222.82 Q90.2975 1222.82 88.4688 1226.38 Q86.6632 1229.92 86.6632 1237.05 Q86.6632 1244.16 88.4688 1247.73 Q90.2975 1251.27 93.9086 1251.27 Q97.5428 1251.27 99.3483 1247.73 Q101.177 1244.16 101.177 1237.05 Q101.177 1229.92 99.3483 1226.38 Q97.5428 1222.82 93.9086 1222.82 M93.9086 1219.11 Q99.7187 1219.11 102.774 1223.72 Q105.853 1228.3 105.853 1237.05 Q105.853 1245.78 102.774 1250.39 Q99.7187 1254.97 93.9086 1254.97 Q88.0984 1254.97 85.0197 1250.39 Q81.9642 1245.78 81.9642 1237.05 Q81.9642 1228.3 85.0197 1223.72 Q88.0984 1219.11 93.9086 1219.11 Z" fill="#000000" fill-rule="nonzero" fill-opacity="1" /><path clip-path="url(#clip360)" d="M124.07 1222.82 Q120.459 1222.82 118.631 1226.38 Q116.825 1229.92 116.825 1237.05 Q116.825 1244.16 118.631 1247.73 Q120.459 1251.27 124.07 1251.27 Q127.705 1251.27 129.51 1247.73 Q131.339 1244.16 131.339 1237.05 Q131.339 1229.92 129.51 1226.38 Q127.705 1222.82 124.07 1222.82 M124.07 1219.11 Q129.881 1219.11 132.936 1223.72 Q136.015 1228.3 136.015 1237.05 Q136.015 1245.78 132.936 1250.39 Q129.881 1254.97 124.07 1254.97 Q118.26 1254.97 115.182 1250.39 Q112.126 1245.78 112.126 1237.05 Q112.126 1228.3 115.182 1223.72 Q118.26 1219.11 124.07 1219.11 Z" fill="#000000" fill-rule="nonzero" fill-opacity="1" /><path clip-path="url(#clip360)" d="M57.7745 1000.94 L74.0939 1000.94 L74.0939 1004.87 L52.1495 1004.87 L52.1495 1000.94 Q54.8115 998.181 59.3949 993.551 Q64.0013 988.898 65.1819 987.556 Q67.4272 985.033 68.3068 983.296 Q69.2096 981.537 69.2096 979.847 Q69.2096 977.093 67.2652 975.357 Q65.3439 973.621 62.2421 973.621 Q60.043 973.621 57.5893 974.384 Q55.1588 975.148 52.381 976.699 L52.381 971.977 Q55.2051 970.843 57.6588 970.264 Q60.1124 969.685 62.1495 969.685 Q67.5198 969.685 70.7142 972.371 Q73.9087 975.056 73.9087 979.546 Q73.9087 981.676 73.0985 983.597 Q72.3115 985.496 70.205 988.088 Q69.6263 988.759 66.5245 991.977 Q63.4226 995.171 57.7745 1000.94 Z" fill="#000000" fill-rule="nonzero" fill-opacity="1" /><path clip-path="url(#clip360)" d="M93.9086 973.389 Q90.2975 973.389 88.4688 976.954 Q86.6632 980.496 86.6632 987.625 Q86.6632 994.732 88.4688 998.296 Q90.2975 1001.84 93.9086 1001.84 Q97.5428 1001.84 99.3483 998.296 Q101.177 994.732 101.177 987.625 Q101.177 980.496 99.3483 976.954 Q97.5428 973.389 93.9086 973.389 M93.9086 969.685 Q99.7187 969.685 102.774 974.292 Q105.853 978.875 105.853 987.625 Q105.853 996.352 102.774 1000.96 Q99.7187 1005.54 93.9086 1005.54 Q88.0984 1005.54 85.0197 1000.96 Q81.9642 996.352 81.9642 987.625 Q81.9642 978.875 85.0197 974.292 Q88.0984 969.685 93.9086 969.685 Z" fill="#000000" fill-rule="nonzero" fill-opacity="1" /><path clip-path="url(#clip360)" d="M124.07 973.389 Q120.459 973.389 118.631 976.954 Q116.825 980.496 116.825 987.625 Q116.825 994.732 118.631 998.296 Q120.459 1001.84 124.07 1001.84 Q127.705 1001.84 129.51 998.296 Q131.339 994.732 131.339 987.625 Q131.339 980.496 129.51 976.954 Q127.705 973.389 124.07 973.389 M124.07 969.685 Q129.881 969.685 132.936 974.292 Q136.015 978.875 136.015 987.625 Q136.015 996.352 132.936 1000.96 Q129.881 1005.54 124.07 1005.54 Q118.26 1005.54 115.182 1000.96 Q112.126 996.352 112.126 987.625 Q112.126 978.875 115.182 974.292 Q118.26 969.685 124.07 969.685 Z" fill="#000000" fill-rule="nonzero" fill-opacity="1" /><path clip-path="url(#clip360)" d="M67.9133 736.808 Q71.2698 737.525 73.1448 739.794 Q75.0429 742.062 75.0429 745.395 Q75.0429 750.511 71.5244 753.312 Q68.0059 756.113 61.5245 756.113 Q59.3486 756.113 57.0338 755.673 Q54.7421 755.256 52.2884 754.4 L52.2884 749.886 Q54.2328 751.02 56.5477 751.599 Q58.8625 752.178 61.3856 752.178 Q65.7837 752.178 68.0754 750.442 Q70.3902 748.706 70.3902 745.395 Q70.3902 742.34 68.2374 740.627 Q66.1078 738.891 62.2884 738.891 L58.2606 738.891 L58.2606 735.048 L62.4735 735.048 Q65.9226 735.048 67.7513 733.683 Q69.58 732.294 69.58 729.701 Q69.58 727.039 67.6819 725.627 Q65.8069 724.192 62.2884 724.192 Q60.3671 724.192 58.168 724.609 Q55.969 725.025 53.3301 725.905 L53.3301 721.738 Q55.9921 720.997 58.3069 720.627 Q60.6449 720.257 62.705 720.257 Q68.0291 720.257 71.1309 722.687 Q74.2327 725.095 74.2327 729.215 Q74.2327 732.085 72.5892 734.076 Q70.9457 736.044 67.9133 736.808 Z" fill="#000000" fill-rule="nonzero" fill-opacity="1" /><path clip-path="url(#clip360)" d="M93.9086 723.96 Q90.2975 723.96 88.4688 727.525 Q86.6632 731.067 86.6632 738.196 Q86.6632 745.303 88.4688 748.868 Q90.2975 752.409 93.9086 752.409 Q97.5428 752.409 99.3483 748.868 Q101.177 745.303 101.177 738.196 Q101.177 731.067 99.3483 727.525 Q97.5428 723.96 93.9086 723.96 M93.9086 720.257 Q99.7187 720.257 102.774 724.863 Q105.853 729.446 105.853 738.196 Q105.853 746.923 102.774 751.53 Q99.7187 756.113 93.9086 756.113 Q88.0984 756.113 85.0197 751.53 Q81.9642 746.923 81.9642 738.196 Q81.9642 729.446 85.0197 724.863 Q88.0984 720.257 93.9086 720.257 Z" fill="#000000" fill-rule="nonzero" fill-opacity="1" /><path clip-path="url(#clip360)" d="M124.07 723.96 Q120.459 723.96 118.631 727.525 Q116.825 731.067 116.825 738.196 Q116.825 745.303 118.631 748.868 Q120.459 752.409 124.07 752.409 Q127.705 752.409 129.51 748.868 Q131.339 745.303 131.339 738.196 Q131.339 731.067 129.51 727.525 Q127.705 723.96 124.07 723.96 M124.07 720.257 Q129.881 720.257 132.936 724.863 Q136.015 729.446 136.015 738.196 Q136.015 746.923 132.936 751.53 Q129.881 756.113 124.07 756.113 Q118.26 756.113 115.182 751.53 Q112.126 746.923 112.126 738.196 Q112.126 729.446 115.182 724.863 Q118.26 720.257 124.07 720.257 Z" fill="#000000" fill-rule="nonzero" fill-opacity="1" /><path clip-path="url(#clip360)" d="M66.5939 475.527 L54.7884 493.976 L66.5939 493.976 L66.5939 475.527 M65.367 471.453 L71.2466 471.453 L71.2466 493.976 L76.1772 493.976 L76.1772 497.865 L71.2466 497.865 L71.2466 506.013 L66.5939 506.013 L66.5939 497.865 L50.9921 497.865 L50.9921 493.351 L65.367 471.453 Z" fill="#000000" fill-rule="nonzero" fill-opacity="1" /><path clip-path="url(#clip360)" d="M93.9086 474.532 Q90.2975 474.532 88.4688 478.096 Q86.6632 481.638 86.6632 488.768 Q86.6632 495.874 88.4688 499.439 Q90.2975 502.981 93.9086 502.981 Q97.5428 502.981 99.3483 499.439 Q101.177 495.874 101.177 488.768 Q101.177 481.638 99.3483 478.096 Q97.5428 474.532 93.9086 474.532 M93.9086 470.828 Q99.7187 470.828 102.774 475.434 Q105.853 480.018 105.853 488.768 Q105.853 497.494 102.774 502.101 Q99.7187 506.684 93.9086 506.684 Q88.0984 506.684 85.0197 502.101 Q81.9642 497.494 81.9642 488.768 Q81.9642 480.018 85.0197 475.434 Q88.0984 470.828 93.9086 470.828 Z" fill="#000000" fill-rule="nonzero" fill-opacity="1" /><path clip-path="url(#clip360)" d="M124.07 474.532 Q120.459 474.532 118.631 478.096 Q116.825 481.638 116.825 488.768 Q116.825 495.874 118.631 499.439 Q120.459 502.981 124.07 502.981 Q127.705 502.981 129.51 499.439 Q131.339 495.874 131.339 488.768 Q131.339 481.638 129.51 478.096 Q127.705 474.532 124.07 474.532 M124.07 470.828 Q129.881 470.828 132.936 475.434 Q136.015 480.018 136.015 488.768 Q136.015 497.494 132.936 502.101 Q129.881 506.684 124.07 506.684 Q118.26 506.684 115.182 502.101 Q112.126 497.494 112.126 488.768 Q112.126 480.018 115.182 475.434 Q118.26 470.828 124.07 470.828 Z" fill="#000000" fill-rule="nonzero" fill-opacity="1" /><path clip-path="url(#clip360)" d="M53.793 222.024 L72.1494 222.024 L72.1494 225.959 L58.0754 225.959 L58.0754 234.432 Q59.0939 234.084 60.1124 233.922 Q61.131 233.737 62.1495 233.737 Q67.9365 233.737 71.3161 236.908 Q74.6957 240.08 74.6957 245.496 Q74.6957 251.075 71.2235 254.177 Q67.7513 257.256 61.4319 257.256 Q59.256 257.256 56.9875 256.885 Q54.7421 256.515 52.3347 255.774 L52.3347 251.075 Q54.418 252.209 56.6402 252.765 Q58.8625 253.32 61.3393 253.32 Q65.3439 253.32 67.6819 251.214 Q70.0198 249.107 70.0198 245.496 Q70.0198 241.885 67.6819 239.779 Q65.3439 237.672 61.3393 237.672 Q59.4643 237.672 57.5893 238.089 Q55.7375 238.506 53.793 239.385 L53.793 222.024 Z" fill="#000000" fill-rule="nonzero" fill-opacity="1" /><path clip-path="url(#clip360)" d="M93.9086 225.103 Q90.2975 225.103 88.4688 228.668 Q86.6632 232.209 86.6632 239.339 Q86.6632 246.445 88.4688 250.01 Q90.2975 253.552 93.9086 253.552 Q97.5428 253.552 99.3483 250.01 Q101.177 246.445 101.177 239.339 Q101.177 232.209 99.3483 228.668 Q97.5428 225.103 93.9086 225.103 M93.9086 221.399 Q99.7187 221.399 102.774 226.006 Q105.853 230.589 105.853 239.339 Q105.853 248.066 102.774 252.672 Q99.7187 257.256 93.9086 257.256 Q88.0984 257.256 85.0197 252.672 Q81.9642 248.066 81.9642 239.339 Q81.9642 230.589 85.0197 226.006 Q88.0984 221.399 93.9086 221.399 Z" fill="#000000" fill-rule="nonzero" fill-opacity="1" /><path clip-path="url(#clip360)" d="M124.07 225.103 Q120.459 225.103 118.631 228.668 Q116.825 232.209 116.825 239.339 Q116.825 246.445 118.631 250.01 Q120.459 253.552 124.07 253.552 Q127.705 253.552 129.51 250.01 Q131.339 246.445 131.339 239.339 Q131.339 232.209 129.51 228.668 Q127.705 225.103 124.07 225.103 M124.07 221.399 Q129.881 221.399 132.936 226.006 Q136.015 230.589 136.015 239.339 Q136.015 248.066 132.936 252.672 Q129.881 257.256 124.07 257.256 Q118.26 257.256 115.182 252.672 Q112.126 248.066 112.126 239.339 Q112.126 230.589 115.182 226.006 Q118.26 221.399 124.07 221.399 Z" fill="#000000" fill-rule="nonzero" fill-opacity="1" /><path clip-path="url(#clip362)" d="M291.959 1421.6 L291.959 1486.45 L430.592 1486.45 L430.592 1421.6 L291.959 1421.6 L291.959 1421.6  Z" fill="#009af9" fill-rule="evenodd" fill-opacity="1"/>
<polyline clip-path="url(#clip362)" style="stroke:#000000; stroke-linecap:round; stroke-linejoin:round; stroke-width:4; stroke-opacity:1; fill:none" points="291.959,1421.6 291.959,1486.45 430.592,1486.45 430.592,1421.6 291.959,1421.6 "/>
<path clip-path="url(#clip362)" d="M430.592 1366.72 L430.592 1486.45 L569.224 1486.45 L569.224 1366.72 L430.592 1366.72 L430.592 1366.72  Z" fill="#009af9" fill-rule="evenodd" fill-opacity="1"/>
<polyline clip-path="url(#clip362)" style="stroke:#000000; stroke-linecap:round; stroke-linejoin:round; stroke-width:4; stroke-opacity:1; fill:none" points="430.592,1366.72 430.592,1486.45 569.224,1486.45 569.224,1366.72 430.592,1366.72 "/>
<path clip-path="url(#clip362)" d="M569.224 1099.83 L569.224 1486.45 L707.856 1486.45 L707.856 1099.83 L569.224 1099.83 L569.224 1099.83  Z" fill="#009af9" fill-rule="evenodd" fill-opacity="1"/>
<polyline clip-path="url(#clip362)" style="stroke:#000000; stroke-linecap:round; stroke-linejoin:round; stroke-width:4; stroke-opacity:1; fill:none" points="569.224,1099.83 569.224,1486.45 707.856,1486.45 707.856,1099.83 569.224,1099.83 "/>
<path clip-path="url(#clip362)" d="M707.856 780.565 L707.856 1486.45 L846.489 1486.45 L846.489 780.565 L707.856 780.565 L707.856 780.565  Z" fill="#009af9" fill-rule="evenodd" fill-opacity="1"/>
<polyline clip-path="url(#clip362)" style="stroke:#000000; stroke-linecap:round; stroke-linejoin:round; stroke-width:4; stroke-opacity:1; fill:none" points="707.856,780.565 707.856,1486.45 846.489,1486.45 846.489,780.565 707.856,780.565 "/>
<path clip-path="url(#clip362)" d="M846.489 274.224 L846.489 1486.45 L985.121 1486.45 L985.121 274.224 L846.489 274.224 L846.489 274.224  Z" fill="#009af9" fill-rule="evenodd" fill-opacity="1"/>
<polyline clip-path="url(#clip362)" style="stroke:#000000; stroke-linecap:round; stroke-linejoin:round; stroke-width:4; stroke-opacity:1; fill:none" points="846.489,274.224 846.489,1486.45 985.121,1486.45 985.121,274.224 846.489,274.224 "/>
<path clip-path="url(#clip362)" d="M985.121 189.418 L985.121 1486.45 L1123.75 1486.45 L1123.75 189.418 L985.121 189.418 L985.121 189.418  Z" fill="#009af9" fill-rule="evenodd" fill-opacity="1"/>
<polyline clip-path="url(#clip362)" style="stroke:#000000; stroke-linecap:round; stroke-linejoin:round; stroke-width:4; stroke-opacity:1; fill:none" points="985.121,189.418 985.121,1486.45 1123.75,1486.45 1123.75,189.418 985.121,189.418 "/>
<path clip-path="url(#clip362)" d="M1123.75 47.2441 L1123.75 1486.45 L1262.39 1486.45 L1262.39 47.2441 L1123.75 47.2441 L1123.75 47.2441  Z" fill="#009af9" fill-rule="evenodd" fill-opacity="1"/>
<polyline clip-path="url(#clip362)" style="stroke:#000000; stroke-linecap:round; stroke-linejoin:round; stroke-width:4; stroke-opacity:1; fill:none" points="1123.75,47.2441 1123.75,1486.45 1262.39,1486.45 1262.39,47.2441 1123.75,47.2441 "/>
<path clip-path="url(#clip362)" d="M1262.39 321.616 L1262.39 1486.45 L1401.02 1486.45 L1401.02 321.616 L1262.39 321.616 L1262.39 321.616  Z" fill="#009af9" fill-rule="evenodd" fill-opacity="1"/>
<polyline clip-path="url(#clip362)" style="stroke:#000000; stroke-linecap:round; stroke-linejoin:round; stroke-width:4; stroke-opacity:1; fill:none" points="1262.39,321.616 1262.39,1486.45 1401.02,1486.45 1401.02,321.616 1262.39,321.616 "/>
<path clip-path="url(#clip362)" d="M1401.02 867.865 L1401.02 1486.45 L1539.65 1486.45 L1539.65 867.865 L1401.02 867.865 L1401.02 867.865  Z" fill="#009af9" fill-rule="evenodd" fill-opacity="1"/>
<polyline clip-path="url(#clip362)" style="stroke:#000000; stroke-linecap:round; stroke-linejoin:round; stroke-width:4; stroke-opacity:1; fill:none" points="1401.02,867.865 1401.02,1486.45 1539.65,1486.45 1539.65,867.865 1401.02,867.865 "/>
<path clip-path="url(#clip362)" d="M1539.65 1159.7 L1539.65 1486.45 L1678.28 1486.45 L1678.28 1159.7 L1539.65 1159.7 L1539.65 1159.7  Z" fill="#009af9" fill-rule="evenodd" fill-opacity="1"/>
<polyline clip-path="url(#clip362)" style="stroke:#000000; stroke-linecap:round; stroke-linejoin:round; stroke-width:4; stroke-opacity:1; fill:none" points="1539.65,1159.7 1539.65,1486.45 1678.28,1486.45 1678.28,1159.7 1539.65,1159.7 "/>
<path clip-path="url(#clip362)" d="M1678.28 1396.65 L1678.28 1486.45 L1816.91 1486.45 L1816.91 1396.65 L1678.28 1396.65 L1678.28 1396.65  Z" fill="#009af9" fill-rule="evenodd" fill-opacity="1"/>
<polyline clip-path="url(#clip362)" style="stroke:#000000; stroke-linecap:round; stroke-linejoin:round; stroke-width:4; stroke-opacity:1; fill:none" points="1678.28,1396.65 1678.28,1486.45 1816.91,1486.45 1816.91,1396.65 1678.28,1396.65 "/>
<path clip-path="url(#clip362)" d="M1816.91 1444.04 L1816.91 1486.45 L1955.55 1486.45 L1955.55 1444.04 L1816.91 1444.04 L1816.91 1444.04  Z" fill="#009af9" fill-rule="evenodd" fill-opacity="1"/>
<polyline clip-path="url(#clip362)" style="stroke:#000000; stroke-linecap:round; stroke-linejoin:round; stroke-width:4; stroke-opacity:1; fill:none" points="1816.91,1444.04 1816.91,1486.45 1955.55,1486.45 1955.55,1444.04 1816.91,1444.04 "/>
<path clip-path="url(#clip362)" d="M1955.55 1481.46 L1955.55 1486.45 L2094.18 1486.45 L2094.18 1481.46 L1955.55 1481.46 L1955.55 1481.46  Z" fill="#009af9" fill-rule="evenodd" fill-opacity="1"/>
<polyline clip-path="url(#clip362)" style="stroke:#000000; stroke-linecap:round; stroke-linejoin:round; stroke-width:4; stroke-opacity:1; fill:none" points="1955.55,1481.46 1955.55,1486.45 2094.18,1486.45 2094.18,1481.46 1955.55,1481.46 "/>
<path clip-path="url(#clip362)" d="M2094.18 1476.47 L2094.18 1486.45 L2232.81 1486.45 L2232.81 1476.47 L2094.18 1476.47 L2094.18 1476.47  Z" fill="#009af9" fill-rule="evenodd" fill-opacity="1"/>
<polyline clip-path="url(#clip362)" style="stroke:#000000; stroke-linecap:round; stroke-linejoin:round; stroke-width:4; stroke-opacity:1; fill:none" points="2094.18,1476.47 2094.18,1486.45 2232.81,1486.45 2232.81,1476.47 2094.18,1476.47 "/>
<circle clip-path="url(#clip362)" style="fill:#009af9; stroke:none; fill-opacity:0" cx="361.276" cy="1421.6" r="2"/>
<circle clip-path="url(#clip362)" style="fill:#009af9; stroke:none; fill-opacity:0" cx="499.908" cy="1366.72" r="2"/>
<circle clip-path="url(#clip362)" style="fill:#009af9; stroke:none; fill-opacity:0" cx="638.54" cy="1099.83" r="2"/>
<circle clip-path="url(#clip362)" style="fill:#009af9; stroke:none; fill-opacity:0" cx="777.172" cy="780.565" r="2"/>
<circle clip-path="url(#clip362)" style="fill:#009af9; stroke:none; fill-opacity:0" cx="915.805" cy="274.224" r="2"/>
<circle clip-path="url(#clip362)" style="fill:#009af9; stroke:none; fill-opacity:0" cx="1054.44" cy="189.418" r="2"/>
<circle clip-path="url(#clip362)" style="fill:#009af9; stroke:none; fill-opacity:0" cx="1193.07" cy="47.2441" r="2"/>
<circle clip-path="url(#clip362)" style="fill:#009af9; stroke:none; fill-opacity:0" cx="1331.7" cy="321.616" r="2"/>
<circle clip-path="url(#clip362)" style="fill:#009af9; stroke:none; fill-opacity:0" cx="1470.33" cy="867.865" r="2"/>
<circle clip-path="url(#clip362)" style="fill:#009af9; stroke:none; fill-opacity:0" cx="1608.97" cy="1159.7" r="2"/>
<circle clip-path="url(#clip362)" style="fill:#009af9; stroke:none; fill-opacity:0" cx="1747.6" cy="1396.65" r="2"/>
<circle clip-path="url(#clip362)" style="fill:#009af9; stroke:none; fill-opacity:0" cx="1886.23" cy="1444.04" r="2"/>
<circle clip-path="url(#clip362)" style="fill:#009af9; stroke:none; fill-opacity:0" cx="2024.86" cy="1481.46" r="2"/>
<circle clip-path="url(#clip362)" style="fill:#009af9; stroke:none; fill-opacity:0" cx="2163.5" cy="1476.47" r="2"/>
<path clip-path="url(#clip360)" d="M2009.56 198.898 L2280.06 198.898 L2280.06 95.2176 L2009.56 95.2176  Z" fill="#ffffff" fill-rule="evenodd" fill-opacity="1"/>
<polyline clip-path="url(#clip360)" style="stroke:#000000; stroke-linecap:round; stroke-linejoin:round; stroke-width:4; stroke-opacity:1; fill:none" points="2009.56,198.898 2280.06,198.898 2280.06,95.2176 2009.56,95.2176 2009.56,198.898 "/>
<path clip-path="url(#clip360)" d="M2033.79 167.794 L2179.17 167.794 L2179.17 126.322 L2033.79 126.322 L2033.79 167.794  Z" fill="#009af9" fill-rule="evenodd" fill-opacity="1"/>
<polyline clip-path="url(#clip360)" style="stroke:#000000; stroke-linecap:round; stroke-linejoin:round; stroke-width:4; stroke-opacity:1; fill:none" points="2033.79,167.794 2179.17,167.794 2179.17,126.322 2033.79,126.322 2033.79,167.794 "/>
<path clip-path="url(#clip360)" d="M2217.25 166.745 Q2215.44 171.375 2213.73 172.787 Q2212.01 174.199 2209.14 174.199 L2205.74 174.199 L2205.74 170.634 L2208.24 170.634 Q2210 170.634 2210.97 169.8 Q2211.95 168.967 2213.13 165.865 L2213.89 163.921 L2203.4 138.412 L2207.92 138.412 L2216.02 158.689 L2224.12 138.412 L2228.64 138.412 L2217.25 166.745 Z" fill="#000000" fill-rule="nonzero" fill-opacity="1" /><path clip-path="url(#clip360)" d="M2235.93 160.402 L2243.57 160.402 L2243.57 134.037 L2235.26 135.703 L2235.26 131.444 L2243.52 129.778 L2248.2 129.778 L2248.2 160.402 L2255.83 160.402 L2255.83 164.338 L2235.93 164.338 L2235.93 160.402 Z" fill="#000000" fill-rule="nonzero" fill-opacity="1" /></svg>
