<?xml version="1.0" encoding="utf-8"?>
<svg xmlns="http://www.w3.org/2000/svg" xmlns:xlink="http://www.w3.org/1999/xlink" width="600" height="400" viewBox="0 0 2400 1600">
<defs>
  <clipPath id="clip970">
    <rect x="0" y="0" width="2400" height="1600"/>
  </clipPath>
</defs>
<path clip-path="url(#clip970)" d="M0 1600 L2400 1600 L2400 0 L0 0  Z" fill="#ffffff" fill-rule="evenodd" fill-opacity="1"/>
<defs>
  <clipPath id="clip971">
    <rect x="480" y="0" width="1681" height="1600"/>
  </clipPath>
</defs>
<path clip-path="url(#clip970)" d="M156.598 1486.45 L2352.76 1486.45 L2352.76 47.2441 L156.598 47.2441  Z" fill="#ffffff" fill-rule="evenodd" fill-opacity="1"/>
<defs>
  <clipPath id="clip972">
    <rect x="156" y="47" width="2197" height="1440"/>
  </clipPath>
</defs>
<polyline clip-path="url(#clip972)" style="stroke:#000000; stroke-linecap:round; stroke-linejoin:round; stroke-width:2; stroke-opacity:0.1; fill:none" points="197.826,1486.45 197.826,47.2441 "/>
<polyline clip-path="url(#clip972)" style="stroke:#000000; stroke-linecap:round; stroke-linejoin:round; stroke-width:2; stroke-opacity:0.1; fill:none" points="721.02,1486.45 721.02,47.2441 "/>
<polyline clip-path="url(#clip972)" style="stroke:#000000; stroke-linecap:round; stroke-linejoin:round; stroke-width:2; stroke-opacity:0.1; fill:none" points="1244.21,1486.45 1244.21,47.2441 "/>
<polyline clip-path="url(#clip972)" style="stroke:#000000; stroke-linecap:round; stroke-linejoin:round; stroke-width:2; stroke-opacity:0.1; fill:none" points="1767.41,1486.45 1767.41,47.2441 "/>
<polyline clip-path="url(#clip972)" style="stroke:#000000; stroke-linecap:round; stroke-linejoin:round; stroke-width:2; stroke-opacity:0.1; fill:none" points="2290.6,1486.45 2290.6,47.2441 "/>
<polyline clip-path="url(#clip972)" style="stroke:#000000; stroke-linecap:round; stroke-linejoin:round; stroke-width:2; stroke-opacity:0.1; fill:none" points="156.598,1445.72 2352.76,1445.72 "/>
<polyline clip-path="url(#clip972)" style="stroke:#000000; stroke-linecap:round; stroke-linejoin:round; stroke-width:2; stroke-opacity:0.1; fill:none" points="156.598,1165.06 2352.76,1165.06 "/>
<polyline clip-path="url(#clip972)" style="stroke:#000000; stroke-linecap:round; stroke-linejoin:round; stroke-width:2; stroke-opacity:0.1; fill:none" points="156.598,884.398 2352.76,884.398 "/>
<polyline clip-path="url(#clip972)" style="stroke:#000000; stroke-linecap:round; stroke-linejoin:round; stroke-width:2; stroke-opacity:0.1; fill:none" points="156.598,603.739 2352.76,603.739 "/>
<polyline clip-path="url(#clip972)" style="stroke:#000000; stroke-linecap:round; stroke-linejoin:round; stroke-width:2; stroke-opacity:0.1; fill:none" points="156.598,323.08 2352.76,323.08 "/>
<polyline clip-path="url(#clip970)" style="stroke:#000000; stroke-linecap:round; stroke-linejoin:round; stroke-width:4; stroke-opacity:1; fill:none" points="156.598,1486.45 2352.76,1486.45 "/>
<polyline clip-path="url(#clip970)" style="stroke:#000000; stroke-linecap:round; stroke-linejoin:round; stroke-width:4; stroke-opacity:1; fill:none" points="197.826,1486.45 197.826,1467.55 "/>
<polyline clip-path="url(#clip970)" style="stroke:#000000; stroke-linecap:round; stroke-linejoin:round; stroke-width:4; stroke-opacity:1; fill:none" points="721.02,1486.45 721.02,1467.55 "/>
<polyline clip-path="url(#clip970)" style="stroke:#000000; stroke-linecap:round; stroke-linejoin:round; stroke-width:4; stroke-opacity:1; fill:none" points="1244.21,1486.45 1244.21,1467.55 "/>
<polyline clip-path="url(#clip970)" style="stroke:#000000; stroke-linecap:round; stroke-linejoin:round; stroke-width:4; stroke-opacity:1; fill:none" points="1767.41,1486.45 1767.41,1467.55 "/>
<polyline clip-path="url(#clip970)" style="stroke:#000000; stroke-linecap:round; stroke-linejoin:round; stroke-width:4; stroke-opacity:1; fill:none" points="2290.6,1486.45 2290.6,1467.55 "/>
<path clip-path="url(#clip970)" d="M197.826 1517.37 Q194.215 1517.37 192.386 1520.93 Q190.581 1524.47 190.581 1531.6 Q190.581 1538.71 192.386 1542.27 Q194.215 1545.82 197.826 1545.82 Q201.46 1545.82 203.266 1542.27 Q205.094 1538.71 205.094 1531.6 Q205.094 1524.47 203.266 1520.93 Q201.46 1517.37 197.826 1517.37 M197.826 1513.66 Q203.636 1513.66 206.692 1518.27 Q209.77 1522.85 209.77 1531.6 Q209.77 1540.33 206.692 1544.94 Q203.636 1549.52 197.826 1549.52 Q192.016 1549.52 188.937 1544.94 Q185.882 1540.33 185.882 1531.6 Q185.882 1522.85 188.937 1518.27 Q192.016 1513.66 197.826 1513.66 Z" fill="#000000" fill-rule="nonzero" fill-opacity="1" /><path clip-path="url(#clip970)" d="M700.29 1544.91 L716.61 1544.91 L716.61 1548.85 L694.666 1548.85 L694.666 1544.91 Q697.328 1542.16 701.911 1537.53 Q706.517 1532.88 707.698 1531.53 Q709.943 1529.01 710.823 1527.27 Q711.726 1525.51 711.726 1523.82 Q711.726 1521.07 709.781 1519.33 Q707.86 1517.6 704.758 1517.6 Q702.559 1517.6 700.105 1518.36 Q697.675 1519.13 694.897 1520.68 L694.897 1515.95 Q697.721 1514.82 700.175 1514.24 Q702.628 1513.66 704.665 1513.66 Q710.036 1513.66 713.23 1516.35 Q716.425 1519.03 716.425 1523.52 Q716.425 1525.65 715.614 1527.57 Q714.827 1529.47 712.721 1532.07 Q712.142 1532.74 709.04 1535.95 Q705.939 1539.15 700.29 1544.91 Z" fill="#000000" fill-rule="nonzero" fill-opacity="1" /><path clip-path="url(#clip970)" d="M726.471 1514.29 L744.827 1514.29 L744.827 1518.22 L730.753 1518.22 L730.753 1526.7 Q731.772 1526.35 732.79 1526.19 Q733.809 1526 734.827 1526 Q740.614 1526 743.994 1529.17 Q747.374 1532.34 747.374 1537.76 Q747.374 1543.34 743.901 1546.44 Q740.429 1549.52 734.11 1549.52 Q731.934 1549.52 729.665 1549.15 Q727.42 1548.78 725.013 1548.04 L725.013 1543.34 Q727.096 1544.47 729.318 1545.03 Q731.54 1545.58 734.017 1545.58 Q738.022 1545.58 740.36 1543.48 Q742.698 1541.37 742.698 1537.76 Q742.698 1534.15 740.36 1532.04 Q738.022 1529.94 734.017 1529.94 Q732.142 1529.94 730.267 1530.35 Q728.415 1530.77 726.471 1531.65 L726.471 1514.29 Z" fill="#000000" fill-rule="nonzero" fill-opacity="1" /><path clip-path="url(#clip970)" d="M1218.91 1514.29 L1237.27 1514.29 L1237.27 1518.22 L1223.19 1518.22 L1223.19 1526.7 Q1224.21 1526.35 1225.23 1526.19 Q1226.25 1526 1227.27 1526 Q1233.06 1526 1236.44 1529.17 Q1239.82 1532.34 1239.82 1537.76 Q1239.82 1543.34 1236.34 1546.44 Q1232.87 1549.52 1226.55 1549.52 Q1224.38 1549.52 1222.11 1549.15 Q1219.86 1548.78 1217.45 1548.04 L1217.45 1543.34 Q1219.54 1544.47 1221.76 1545.03 Q1223.98 1545.58 1226.46 1545.58 Q1230.46 1545.58 1232.8 1543.48 Q1235.14 1541.37 1235.14 1537.76 Q1235.14 1534.15 1232.8 1532.04 Q1230.46 1529.94 1226.46 1529.94 Q1224.58 1529.94 1222.71 1530.35 Q1220.86 1530.77 1218.91 1531.65 L1218.91 1514.29 Z" fill="#000000" fill-rule="nonzero" fill-opacity="1" /><path clip-path="url(#clip970)" d="M1259.03 1517.37 Q1255.42 1517.37 1253.59 1520.93 Q1251.78 1524.47 1251.78 1531.6 Q1251.78 1538.71 1253.59 1542.27 Q1255.42 1545.82 1259.03 1545.82 Q1262.66 1545.82 1264.47 1542.27 Q1266.3 1538.71 1266.3 1531.6 Q1266.3 1524.47 1264.47 1520.93 Q1262.66 1517.37 1259.03 1517.37 M1259.03 1513.66 Q1264.84 1513.66 1267.89 1518.27 Q1270.97 1522.85 1270.97 1531.6 Q1270.97 1540.33 1267.89 1544.94 Q1264.84 1549.52 1259.03 1549.52 Q1253.22 1549.52 1250.14 1544.94 Q1247.08 1540.33 1247.08 1531.6 Q1247.08 1522.85 1250.14 1518.27 Q1253.22 1513.66 1259.03 1513.66 Z" fill="#000000" fill-rule="nonzero" fill-opacity="1" /><path clip-path="url(#clip970)" d="M1741.26 1514.29 L1763.48 1514.29 L1763.48 1516.28 L1750.94 1548.85 L1746.05 1548.85 L1757.86 1518.22 L1741.26 1518.22 L1741.26 1514.29 Z" fill="#000000" fill-rule="nonzero" fill-opacity="1" /><path clip-path="url(#clip970)" d="M1772.65 1514.29 L1791.01 1514.29 L1791.01 1518.22 L1776.93 1518.22 L1776.93 1526.7 Q1777.95 1526.35 1778.97 1526.19 Q1779.99 1526 1781.01 1526 Q1786.79 1526 1790.17 1529.17 Q1793.55 1532.34 1793.55 1537.76 Q1793.55 1543.34 1790.08 1546.44 Q1786.61 1549.52 1780.29 1549.52 Q1778.11 1549.52 1775.84 1549.15 Q1773.6 1548.78 1771.19 1548.04 L1771.19 1543.34 Q1773.27 1544.47 1775.5 1545.03 Q1777.72 1545.58 1780.2 1545.58 Q1784.2 1545.58 1786.54 1543.48 Q1788.88 1541.37 1788.88 1537.76 Q1788.88 1534.15 1786.54 1532.04 Q1784.2 1529.94 1780.2 1529.94 Q1778.32 1529.94 1776.45 1530.35 Q1774.59 1530.77 1772.65 1531.65 L1772.65 1514.29 Z" fill="#000000" fill-rule="nonzero" fill-opacity="1" /><path clip-path="url(#clip970)" d="M2250.21 1544.91 L2257.85 1544.91 L2257.85 1518.55 L2249.54 1520.21 L2249.54 1515.95 L2257.8 1514.29 L2262.48 1514.29 L2262.48 1544.91 L2270.11 1544.91 L2270.11 1548.85 L2250.21 1548.85 L2250.21 1544.91 Z" fill="#000000" fill-rule="nonzero" fill-opacity="1" /><path clip-path="url(#clip970)" d="M2289.56 1517.37 Q2285.95 1517.37 2284.12 1520.93 Q2282.31 1524.47 2282.31 1531.6 Q2282.31 1538.71 2284.12 1542.27 Q2285.95 1545.82 2289.56 1545.82 Q2293.19 1545.82 2295 1542.27 Q2296.83 1538.71 2296.83 1531.6 Q2296.83 1524.47 2295 1520.93 Q2293.19 1517.37 2289.56 1517.37 M2289.56 1513.66 Q2295.37 1513.66 2298.42 1518.27 Q2301.5 1522.85 2301.5 1531.6 Q2301.5 1540.33 2298.42 1544.94 Q2295.37 1549.52 2289.56 1549.52 Q2283.75 1549.52 2280.67 1544.94 Q2277.61 1540.33 2277.61 1531.6 Q2277.61 1522.85 2280.67 1518.27 Q2283.75 1513.66 2289.56 1513.66 Z" fill="#000000" fill-rule="nonzero" fill-opacity="1" /><path clip-path="url(#clip970)" d="M2319.72 1517.37 Q2316.11 1517.37 2314.28 1520.93 Q2312.48 1524.47 2312.48 1531.6 Q2312.48 1538.71 2314.28 1542.27 Q2316.11 1545.82 2319.72 1545.82 Q2323.35 1545.82 2325.16 1542.27 Q2326.99 1538.71 2326.99 1531.6 Q2326.99 1524.47 2325.16 1520.93 Q2323.35 1517.37 2319.72 1517.37 M2319.72 1513.66 Q2325.53 1513.66 2328.59 1518.27 Q2331.67 1522.85 2331.67 1531.6 Q2331.67 1540.33 2328.59 1544.94 Q2325.53 1549.52 2319.72 1549.52 Q2313.91 1549.52 2310.83 1544.94 Q2307.78 1540.33 2307.78 1531.6 Q2307.78 1522.85 2310.83 1518.27 Q2313.91 1513.66 2319.72 1513.66 Z" fill="#000000" fill-rule="nonzero" fill-opacity="1" /><polyline clip-path="url(#clip970)" style="stroke:#000000; stroke-linecap:round; stroke-linejoin:round; stroke-width:4; stroke-opacity:1; fill:none" points="156.598,1486.45 156.598,47.2441 "/>
<polyline clip-path="url(#clip970)" style="stroke:#000000; stroke-linecap:round; stroke-linejoin:round; stroke-width:4; stroke-opacity:1; fill:none" points="156.598,1445.72 175.496,1445.72 "/>
<polyline clip-path="url(#clip970)" style="stroke:#000000; stroke-linecap:round; stroke-linejoin:round; stroke-width:4; stroke-opacity:1; fill:none" points="156.598,1165.06 175.496,1165.06 "/>
<polyline clip-path="url(#clip970)" style="stroke:#000000; stroke-linecap:round; stroke-linejoin:round; stroke-width:4; stroke-opacity:1; fill:none" points="156.598,884.398 175.496,884.398 "/>
<polyline clip-path="url(#clip970)" style="stroke:#000000; stroke-linecap:round; stroke-linejoin:round; stroke-width:4; stroke-opacity:1; fill:none" points="156.598,603.739 175.496,603.739 "/>
<polyline clip-path="url(#clip970)" style="stroke:#000000; stroke-linecap:round; stroke-linejoin:round; stroke-width:4; stroke-opacity:1; fill:none" points="156.598,323.08 175.496,323.08 "/>
<path clip-path="url(#clip970)" d="M63.4226 1431.51 Q59.8115 1431.51 57.9828 1435.08 Q56.1773 1438.62 56.1773 1445.75 Q56.1773 1452.86 57.9828 1456.42 Q59.8115 1459.96 63.4226 1459.96 Q67.0569 1459.96 68.8624 1456.42 Q70.6911 1452.86 70.6911 1445.75 Q70.6911 1438.62 68.8624 1435.08 Q67.0569 1431.51 63.4226 1431.51 M63.4226 1427.81 Q69.2328 1427.81 72.2883 1432.42 Q75.367 1437 75.367 1445.75 Q75.367 1454.48 72.2883 1459.08 Q69.2328 1463.67 63.4226 1463.67 Q57.6125 1463.67 54.5338 1459.08 Q51.4782 1454.48 51.4782 1445.75 Q51.4782 1437 54.5338 1432.42 Q57.6125 1427.81 63.4226 1427.81 Z" fill="#000000" fill-rule="nonzero" fill-opacity="1" /><path clip-path="url(#clip970)" d="M83.5845 1457.12 L88.4688 1457.12 L88.4688 1463 L83.5845 1463 L83.5845 1457.12 Z" fill="#000000" fill-rule="nonzero" fill-opacity="1" /><path clip-path="url(#clip970)" d="M108.654 1431.51 Q105.043 1431.51 103.214 1435.08 Q101.409 1438.62 101.409 1445.75 Q101.409 1452.86 103.214 1456.42 Q105.043 1459.96 108.654 1459.96 Q112.288 1459.96 114.094 1456.42 Q115.922 1452.86 115.922 1445.75 Q115.922 1438.62 114.094 1435.08 Q112.288 1431.51 108.654 1431.51 M108.654 1427.81 Q114.464 1427.81 117.52 1432.42 Q120.598 1437 120.598 1445.75 Q120.598 1454.48 117.52 1459.08 Q114.464 1463.67 108.654 1463.67 Q102.844 1463.67 99.765 1459.08 Q96.7095 1454.48 96.7095 1445.75 Q96.7095 1437 99.765 1432.42 Q102.844 1427.81 108.654 1427.81 Z" fill="#000000" fill-rule="nonzero" fill-opacity="1" /><path clip-path="url(#clip970)" d="M65.0198 1150.86 Q61.4087 1150.86 59.58 1154.42 Q57.7745 1157.96 57.7745 1165.09 Q57.7745 1172.2 59.58 1175.76 Q61.4087 1179.3 65.0198 1179.3 Q68.6541 1179.3 70.4596 1175.76 Q72.2883 1172.2 72.2883 1165.09 Q72.2883 1157.96 70.4596 1154.42 Q68.6541 1150.86 65.0198 1150.86 M65.0198 1147.15 Q70.83 1147.15 73.8855 1151.76 Q76.9642 1156.34 76.9642 1165.09 Q76.9642 1173.82 73.8855 1178.42 Q70.83 1183.01 65.0198 1183.01 Q59.2097 1183.01 56.131 1178.42 Q53.0754 1173.82 53.0754 1165.09 Q53.0754 1156.34 56.131 1151.76 Q59.2097 1147.15 65.0198 1147.15 Z" fill="#000000" fill-rule="nonzero" fill-opacity="1" /><path clip-path="url(#clip970)" d="M85.1818 1176.46 L90.066 1176.46 L90.066 1182.34 L85.1818 1182.34 L85.1818 1176.46 Z" fill="#000000" fill-rule="nonzero" fill-opacity="1" /><path clip-path="url(#clip970)" d="M104.279 1178.4 L120.598 1178.4 L120.598 1182.34 L98.6539 1182.34 L98.6539 1178.4 Q101.316 1175.65 105.899 1171.02 Q110.506 1166.36 111.686 1165.02 Q113.932 1162.5 114.811 1160.76 Q115.714 1159 115.714 1157.31 Q115.714 1154.56 113.77 1152.82 Q111.848 1151.09 108.746 1151.09 Q106.547 1151.09 104.094 1151.85 Q101.663 1152.61 98.8854 1154.17 L98.8854 1149.44 Q101.709 1148.31 104.163 1147.73 Q106.617 1147.15 108.654 1147.15 Q114.024 1147.15 117.219 1149.84 Q120.413 1152.52 120.413 1157.01 Q120.413 1159.14 119.603 1161.06 Q118.816 1162.96 116.709 1165.55 Q116.131 1166.23 113.029 1169.44 Q109.927 1172.64 104.279 1178.4 Z" fill="#000000" fill-rule="nonzero" fill-opacity="1" /><path clip-path="url(#clip970)" d="M62.9365 870.197 Q59.3254 870.197 57.4967 873.761 Q55.6912 877.303 55.6912 884.433 Q55.6912 891.539 57.4967 895.104 Q59.3254 898.646 62.9365 898.646 Q66.5707 898.646 68.3763 895.104 Q70.205 891.539 70.205 884.433 Q70.205 877.303 68.3763 873.761 Q66.5707 870.197 62.9365 870.197 M62.9365 866.493 Q68.7467 866.493 71.8022 871.099 Q74.8809 875.683 74.8809 884.433 Q74.8809 893.159 71.8022 897.766 Q68.7467 902.349 62.9365 902.349 Q57.1264 902.349 54.0477 897.766 Q50.9921 893.159 50.9921 884.433 Q50.9921 875.683 54.0477 871.099 Q57.1264 866.493 62.9365 866.493 Z" fill="#000000" fill-rule="nonzero" fill-opacity="1" /><path clip-path="url(#clip970)" d="M83.0984 895.798 L87.9827 895.798 L87.9827 901.678 L83.0984 901.678 L83.0984 895.798 Z" fill="#000000" fill-rule="nonzero" fill-opacity="1" /><path clip-path="url(#clip970)" d="M111.015 871.192 L99.2095 889.641 L111.015 889.641 L111.015 871.192 M109.788 867.118 L115.668 867.118 L115.668 889.641 L120.598 889.641 L120.598 893.53 L115.668 893.53 L115.668 901.678 L111.015 901.678 L111.015 893.53 L95.4132 893.53 L95.4132 889.016 L109.788 867.118 Z" fill="#000000" fill-rule="nonzero" fill-opacity="1" /><path clip-path="url(#clip970)" d="M63.2606 589.538 Q59.6495 589.538 57.8208 593.103 Q56.0152 596.644 56.0152 603.774 Q56.0152 610.88 57.8208 614.445 Q59.6495 617.987 63.2606 617.987 Q66.8948 617.987 68.7004 614.445 Q70.5291 610.88 70.5291 603.774 Q70.5291 596.644 68.7004 593.103 Q66.8948 589.538 63.2606 589.538 M63.2606 585.834 Q69.0707 585.834 72.1263 590.44 Q75.205 595.024 75.205 603.774 Q75.205 612.501 72.1263 617.107 Q69.0707 621.69 63.2606 621.69 Q57.4504 621.69 54.3717 617.107 Q51.3162 612.501 51.3162 603.774 Q51.3162 595.024 54.3717 590.44 Q57.4504 585.834 63.2606 585.834 Z" fill="#000000" fill-rule="nonzero" fill-opacity="1" /><path clip-path="url(#clip970)" d="M83.4225 615.139 L88.3067 615.139 L88.3067 621.019 L83.4225 621.019 L83.4225 615.139 Z" fill="#000000" fill-rule="nonzero" fill-opacity="1" /><path clip-path="url(#clip970)" d="M109.071 601.876 Q105.922 601.876 104.071 604.028 Q102.242 606.181 102.242 609.931 Q102.242 613.658 104.071 615.834 Q105.922 617.987 109.071 617.987 Q112.219 617.987 114.047 615.834 Q115.899 613.658 115.899 609.931 Q115.899 606.181 114.047 604.028 Q112.219 601.876 109.071 601.876 M118.353 587.223 L118.353 591.482 Q116.594 590.649 114.788 590.209 Q113.006 589.769 111.246 589.769 Q106.617 589.769 104.163 592.894 Q101.733 596.019 101.385 602.339 Q102.751 600.325 104.811 599.26 Q106.871 598.172 109.348 598.172 Q114.557 598.172 117.566 601.343 Q120.598 604.491 120.598 609.931 Q120.598 615.255 117.45 618.473 Q114.302 621.69 109.071 621.69 Q103.075 621.69 99.9039 617.107 Q96.7326 612.501 96.7326 603.774 Q96.7326 595.579 100.621 590.718 Q104.51 585.834 111.061 585.834 Q112.82 585.834 114.603 586.181 Q116.408 586.528 118.353 587.223 Z" fill="#000000" fill-rule="nonzero" fill-opacity="1" /><path clip-path="url(#clip970)" d="M63.5152 308.879 Q59.9041 308.879 58.0754 312.444 Q56.2699 315.985 56.2699 323.115 Q56.2699 330.221 58.0754 333.786 Q59.9041 337.328 63.5152 337.328 Q67.1494 337.328 68.955 333.786 Q70.7837 330.221 70.7837 323.115 Q70.7837 315.985 68.955 312.444 Q67.1494 308.879 63.5152 308.879 M63.5152 305.175 Q69.3254 305.175 72.3809 309.782 Q75.4596 314.365 75.4596 323.115 Q75.4596 331.842 72.3809 336.448 Q69.3254 341.031 63.5152 341.031 Q57.7051 341.031 54.6264 336.448 Q51.5708 331.842 51.5708 323.115 Q51.5708 314.365 54.6264 309.782 Q57.7051 305.175 63.5152 305.175 Z" fill="#000000" fill-rule="nonzero" fill-opacity="1" /><path clip-path="url(#clip970)" d="M83.6771 334.481 L88.5614 334.481 L88.5614 340.36 L83.6771 340.36 L83.6771 334.481 Z" fill="#000000" fill-rule="nonzero" fill-opacity="1" /><path clip-path="url(#clip970)" d="M108.746 323.948 Q105.413 323.948 103.492 325.731 Q101.594 327.513 101.594 330.638 Q101.594 333.763 103.492 335.545 Q105.413 337.328 108.746 337.328 Q112.08 337.328 114.001 335.545 Q115.922 333.74 115.922 330.638 Q115.922 327.513 114.001 325.731 Q112.103 323.948 108.746 323.948 M104.071 321.957 Q101.061 321.217 99.3715 319.157 Q97.7048 317.096 97.7048 314.133 Q97.7048 309.99 100.645 307.583 Q103.608 305.175 108.746 305.175 Q113.908 305.175 116.848 307.583 Q119.788 309.99 119.788 314.133 Q119.788 317.096 118.098 319.157 Q116.432 321.217 113.445 321.957 Q116.825 322.745 118.7 325.036 Q120.598 327.328 120.598 330.638 Q120.598 335.661 117.52 338.346 Q114.464 341.031 108.746 341.031 Q103.029 341.031 99.9502 338.346 Q96.8947 335.661 96.8947 330.638 Q96.8947 327.328 98.7928 325.036 Q100.691 322.745 104.071 321.957 M102.358 314.573 Q102.358 317.258 104.024 318.763 Q105.714 320.268 108.746 320.268 Q111.756 320.268 113.445 318.763 Q115.158 317.258 115.158 314.573 Q115.158 311.888 113.445 310.383 Q111.756 308.879 108.746 308.879 Q105.714 308.879 104.024 310.383 Q102.358 311.888 102.358 314.573 Z" fill="#000000" fill-rule="nonzero" fill-opacity="1" /><path clip-path="url(#clip972)" d="M218.754 1157.95 L239.681 1142.08 L260.609 1078.5 L281.537 1139.87 L302.465 1213.92 L323.392 1093.01 L344.32 1413.05 L365.248 1418.16 L386.176 1071.42 L407.103 1038.06 L428.031 1118.83 L448.959 1077.52 L469.887 1208.01 L490.814 1261.49 L511.742 1265.59 L532.67 1190.97 L553.598 1353.91 L574.525 1305.51 L595.453 1408.46 L616.381 1402.15 L637.309 1182.21 L658.236 1426.54 L679.164 1153.36 L700.092 1408.91 L721.02 1176.4 L741.947 1386.35 L762.875 1208.33 L783.803 1208.59 L804.731 1336.06 L825.658 1429.79 L846.586 1281.92 L867.514 1167.62 L888.442 1268.87 L909.369 1120.72 L930.297 1411.96 L951.225 1000.26 L972.152 1276.46 L993.08 1417.64 L1014.01 1350.15 L1034.94 1208.12 L1055.86 1256.68 L1076.79 1321.2 L1097.72 1088.36 L1118.65 1206.38 L1139.57 1322.42 L1160.5 1137.73 L1181.43 1302.87 L1202.36 1330.01 L1223.29 1014.25 L1244.21 1125.18 L1265.14 1244.39 L1286.07 1260.27 L1307 1379.47 L1327.92 1054.91 L1348.85 1089.39 L1369.78 1087.81 L1390.71 1328.7 L1411.64 1099.41 L1432.56 1171.63 L1453.49 1271.44 L1474.42 1231.74 L1495.35 1213.28 L1516.27 1099.58 L1537.2 1407.71 L1558.13 1057.6 L1579.06 1434.92 L1599.98 1136.82 L1620.91 1090.93 L1641.84 1179.66 L1662.77 1102.55 L1683.7 1144.49 L1704.62 1287.35 L1725.55 1407.06 L1746.48 1102.56 L1767.41 1053.95 L1788.33 1306.92 L1809.26 1152.64 L1830.19 1272.38 L1851.12 1234.53 L1872.05 1358.37 L1892.97 1118.49 L1913.9 1380.65 L1934.83 1304.3 L1955.76 1421.64 L1976.68 1439.28 L1997.61 1020.71 L2018.54 986.194 L2039.47 1217.35 L2060.4 1088.99 L2081.32 1213.79 L2102.25 1294.3 L2123.18 1246.62 L2144.11 1133.5 L2165.03 1411.45 L2185.96 1133.23 L2206.89 1021.39 L2227.82 1170 L2248.75 1177.11 L2269.67 1163.14 L2290.6 1372.4 L2290.6 1445.72 L2269.67 1445.72 L2248.75 1445.72 L2227.82 1445.72 L2206.89 1445.72 L2185.96 1445.72 L2165.03 1445.72 L2144.11 1445.72 L2123.18 1445.72 L2102.25 1445.72 L2081.32 1445.72 L2060.4 1445.72 L2039.47 1445.72 L2018.54 1445.72 L1997.61 1445.72 L1976.68 1445.72 L1955.76 1445.72 L1934.83 1445.72 L1913.9 1445.72 L1892.97 1445.72 L1872.05 1445.72 L1851.12 1445.72 L1830.19 1445.72 L1809.26 1445.72 L1788.33 1445.72 L1767.41 1445.72 L1746.48 1445.72 L1725.55 1445.72 L1704.62 1445.72 L1683.7 1445.72 L1662.77 1445.72 L1641.84 1445.72 L1620.91 1445.72 L1599.98 1445.72 L1579.06 1445.72 L1558.13 1445.72 L1537.2 1445.72 L1516.27 1445.72 L1495.35 1445.72 L1474.42 1445.72 L1453.49 1445.72 L1432.56 1445.72 L1411.64 1445.72 L1390.71 1445.72 L1369.78 1445.72 L1348.85 1445.72 L1327.92 1445.72 L1307 1445.72 L1286.07 1445.72 L1265.14 1445.72 L1244.21 1445.72 L1223.29 1445.72 L1202.36 1445.72 L1181.43 1445.72 L1160.5 1445.72 L1139.57 1445.72 L1118.65 1445.72 L1097.72 1445.72 L1076.79 1445.72 L1055.86 1445.72 L1034.94 1445.72 L1014.01 1445.72 L993.08 1445.72 L972.152 1445.72 L951.225 1445.72 L930.297 1445.72 L909.369 1445.72 L888.442 1445.72 L867.514 1445.72 L846.586 1445.72 L825.658 1445.72 L804.731 1445.72 L783.803 1445.72 L762.875 1445.72 L741.947 1445.72 L721.02 1445.72 L700.092 1445.72 L679.164 1445.72 L658.236 1445.72 L637.309 1445.72 L616.381 1445.72 L595.453 1445.72 L574.525 1445.72 L553.598 1445.72 L532.67 1445.72 L511.742 1445.72 L490.814 1445.72 L469.887 1445.72 L448.959 1445.72 L428.031 1445.72 L407.103 1445.72 L386.176 1445.72 L365.248 1445.72 L344.32 1445.72 L323.392 1445.72 L302.465 1445.72 L281.537 1445.72 L260.609 1445.72 L239.681 1445.72 L218.754 1445.72  Z" fill="#008000" fill-rule="evenodd" fill-opacity="1"/>
<polyline clip-path="url(#clip972)" style="stroke:#009af9; stroke-linecap:round; stroke-linejoin:round; stroke-width:4; stroke-opacity:1; fill:none" points="218.754,1157.95 239.681,1142.08 260.609,1078.5 281.537,1139.87 302.465,1213.92 323.392,1093.01 344.32,1413.05 365.248,1418.16 386.176,1071.42 407.103,1038.06 428.031,1118.83 448.959,1077.52 469.887,1208.01 490.814,1261.49 511.742,1265.59 532.67,1190.97 553.598,1353.91 574.525,1305.51 595.453,1408.46 616.381,1402.15 637.309,1182.21 658.236,1426.54 679.164,1153.36 700.092,1408.91 721.02,1176.4 741.947,1386.35 762.875,1208.33 783.803,1208.59 804.731,1336.06 825.658,1429.79 846.586,1281.92 867.514,1167.62 888.442,1268.87 909.369,1120.72 930.297,1411.96 951.225,1000.26 972.152,1276.46 993.08,1417.64 1014.01,1350.15 1034.94,1208.12 1055.86,1256.68 1076.79,1321.2 1097.72,1088.36 1118.65,1206.38 1139.57,1322.42 1160.5,1137.73 1181.43,1302.87 1202.36,1330.01 1223.29,1014.25 1244.21,1125.18 1265.14,1244.39 1286.07,1260.27 1307,1379.47 1327.92,1054.91 1348.85,1089.39 1369.78,1087.81 1390.71,1328.7 1411.64,1099.41 1432.56,1171.63 1453.49,1271.44 1474.42,1231.74 1495.35,1213.28 1516.27,1099.58 1537.2,1407.71 1558.13,1057.6 1579.06,1434.92 1599.98,1136.82 1620.91,1090.93 1641.84,1179.66 1662.77,1102.55 1683.7,1144.49 1704.62,1287.35 1725.55,1407.06 1746.48,1102.56 1767.41,1053.95 1788.33,1306.92 1809.26,1152.64 1830.19,1272.38 1851.12,1234.53 1872.05,1358.37 1892.97,1118.49 1913.9,1380.65 1934.83,1304.3 1955.76,1421.64 1976.68,1439.28 1997.61,1020.71 2018.54,986.194 2039.47,1217.35 2060.4,1088.99 2081.32,1213.79 2102.25,1294.3 2123.18,1246.62 2144.11,1133.5 2165.03,1411.45 2185.96,1133.23 2206.89,1021.39 2227.82,1170 2248.75,1177.11 2269.67,1163.14 2290.6,1372.4 "/>
<polyline clip-path="url(#clip972)" style="stroke:#009af9; stroke-linecap:round; stroke-linejoin:round; stroke-width:4; stroke-opacity:1; fill:none" points="218.754,1236.94 2290.6,1212.27 "/>
<circle clip-path="url(#clip972)" cx="218.754" cy="1213.89" r="21.6" fill="#ffa500" fill-rule="evenodd" fill-opacity="1" stroke="#000000" stroke-opacity="1" stroke-width="3.2"/>
<circle clip-path="url(#clip972)" cx="239.681" cy="114.626" r="21.6" fill="#ffa500" fill-rule="evenodd" fill-opacity="1" stroke="#000000" stroke-opacity="1" stroke-width="3.2"/>
<circle clip-path="url(#clip972)" cx="260.609" cy="416.104" r="21.6" fill="#ffa500" fill-rule="evenodd" fill-opacity="1" stroke="#000000" stroke-opacity="1" stroke-width="3.2"/>
<circle clip-path="url(#clip972)" cx="281.537" cy="228.35" r="21.6" fill="#ffa500" fill-rule="evenodd" fill-opacity="1" stroke="#000000" stroke-opacity="1" stroke-width="3.2"/>
<circle clip-path="url(#clip972)" cx="302.465" cy="1153.8" r="21.6" fill="#ffa500" fill-rule="evenodd" fill-opacity="1" stroke="#000000" stroke-opacity="1" stroke-width="3.2"/>
<circle clip-path="url(#clip972)" cx="323.392" cy="1162.6" r="21.6" fill="#ffa500" fill-rule="evenodd" fill-opacity="1" stroke="#000000" stroke-opacity="1" stroke-width="3.2"/>
<circle clip-path="url(#clip972)" cx="344.32" cy="277.935" r="21.6" fill="#ffa500" fill-rule="evenodd" fill-opacity="1" stroke="#000000" stroke-opacity="1" stroke-width="3.2"/>
<circle clip-path="url(#clip972)" cx="365.248" cy="456.965" r="21.6" fill="#ffa500" fill-rule="evenodd" fill-opacity="1" stroke="#000000" stroke-opacity="1" stroke-width="3.2"/>
<circle clip-path="url(#clip972)" cx="386.176" cy="162.141" r="21.6" fill="#ffa500" fill-rule="evenodd" fill-opacity="1" stroke="#000000" stroke-opacity="1" stroke-width="3.2"/>
<circle clip-path="url(#clip972)" cx="407.103" cy="680.228" r="21.6" fill="#ffa500" fill-rule="evenodd" fill-opacity="1" stroke="#000000" stroke-opacity="1" stroke-width="3.2"/>
<circle clip-path="url(#clip972)" cx="428.031" cy="371.831" r="21.6" fill="#ffa500" fill-rule="evenodd" fill-opacity="1" stroke="#000000" stroke-opacity="1" stroke-width="3.2"/>
<circle clip-path="url(#clip972)" cx="448.959" cy="425.523" r="21.6" fill="#ffa500" fill-rule="evenodd" fill-opacity="1" stroke="#000000" stroke-opacity="1" stroke-width="3.2"/>
<circle clip-path="url(#clip972)" cx="469.887" cy="1270.76" r="21.6" fill="#ffa500" fill-rule="evenodd" fill-opacity="1" stroke="#000000" stroke-opacity="1" stroke-width="3.2"/>
<circle clip-path="url(#clip972)" cx="490.814" cy="1123.2" r="21.6" fill="#ffa500" fill-rule="evenodd" fill-opacity="1" stroke="#000000" stroke-opacity="1" stroke-width="3.2"/>
<circle clip-path="url(#clip972)" cx="511.742" cy="308.64" r="21.6" fill="#ffa500" fill-rule="evenodd" fill-opacity="1" stroke="#000000" stroke-opacity="1" stroke-width="3.2"/>
<circle clip-path="url(#clip972)" cx="532.67" cy="971.575" r="21.6" fill="#ffa500" fill-rule="evenodd" fill-opacity="1" stroke="#000000" stroke-opacity="1" stroke-width="3.2"/>
<circle clip-path="url(#clip972)" cx="553.598" cy="907.81" r="21.6" fill="#ffa500" fill-rule="evenodd" fill-opacity="1" stroke="#000000" stroke-opacity="1" stroke-width="3.2"/>
<circle clip-path="url(#clip972)" cx="574.525" cy="689.151" r="21.6" fill="#ffa500" fill-rule="evenodd" fill-opacity="1" stroke="#000000" stroke-opacity="1" stroke-width="3.2"/>
<circle clip-path="url(#clip972)" cx="595.453" cy="320.785" r="21.6" fill="#ffa500" fill-rule="evenodd" fill-opacity="1" stroke="#000000" stroke-opacity="1" stroke-width="3.2"/>
<circle clip-path="url(#clip972)" cx="616.381" cy="758.7" r="21.6" fill="#ffa500" fill-rule="evenodd" fill-opacity="1" stroke="#000000" stroke-opacity="1" stroke-width="3.2"/>
<circle clip-path="url(#clip972)" cx="637.309" cy="395.134" r="21.6" fill="#ffa500" fill-rule="evenodd" fill-opacity="1" stroke="#000000" stroke-opacity="1" stroke-width="3.2"/>
<circle clip-path="url(#clip972)" cx="658.236" cy="1156.2" r="21.6" fill="#ffa500" fill-rule="evenodd" fill-opacity="1" stroke="#000000" stroke-opacity="1" stroke-width="3.2"/>
<circle clip-path="url(#clip972)" cx="679.164" cy="778.742" r="21.6" fill="#ffa500" fill-rule="evenodd" fill-opacity="1" stroke="#000000" stroke-opacity="1" stroke-width="3.2"/>
<circle clip-path="url(#clip972)" cx="700.092" cy="600.366" r="21.6" fill="#ffa500" fill-rule="evenodd" fill-opacity="1" stroke="#000000" stroke-opacity="1" stroke-width="3.2"/>
<circle clip-path="url(#clip972)" cx="721.02" cy="437.655" r="21.6" fill="#ffa500" fill-rule="evenodd" fill-opacity="1" stroke="#000000" stroke-opacity="1" stroke-width="3.2"/>
<circle clip-path="url(#clip972)" cx="741.947" cy="1119.21" r="21.6" fill="#ffa500" fill-rule="evenodd" fill-opacity="1" stroke="#000000" stroke-opacity="1" stroke-width="3.2"/>
<circle clip-path="url(#clip972)" cx="762.875" cy="322.028" r="21.6" fill="#ffa500" fill-rule="evenodd" fill-opacity="1" stroke="#000000" stroke-opacity="1" stroke-width="3.2"/>
<circle clip-path="url(#clip972)" cx="783.803" cy="87.9763" r="21.6" fill="#ffa500" fill-rule="evenodd" fill-opacity="1" stroke="#000000" stroke-opacity="1" stroke-width="3.2"/>
<circle clip-path="url(#clip972)" cx="804.731" cy="392.587" r="21.6" fill="#ffa500" fill-rule="evenodd" fill-opacity="1" stroke="#000000" stroke-opacity="1" stroke-width="3.2"/>
<circle clip-path="url(#clip972)" cx="825.658" cy="1331.68" r="21.6" fill="#ffa500" fill-rule="evenodd" fill-opacity="1" stroke="#000000" stroke-opacity="1" stroke-width="3.2"/>
<circle clip-path="url(#clip972)" cx="846.586" cy="746.562" r="21.6" fill="#ffa500" fill-rule="evenodd" fill-opacity="1" stroke="#000000" stroke-opacity="1" stroke-width="3.2"/>
<circle clip-path="url(#clip972)" cx="867.514" cy="1109.95" r="21.6" fill="#ffa500" fill-rule="evenodd" fill-opacity="1" stroke="#000000" stroke-opacity="1" stroke-width="3.2"/>
<circle clip-path="url(#clip972)" cx="888.442" cy="144.172" r="21.6" fill="#ffa500" fill-rule="evenodd" fill-opacity="1" stroke="#000000" stroke-opacity="1" stroke-width="3.2"/>
<circle clip-path="url(#clip972)" cx="909.369" cy="94.1622" r="21.6" fill="#ffa500" fill-rule="evenodd" fill-opacity="1" stroke="#000000" stroke-opacity="1" stroke-width="3.2"/>
<circle clip-path="url(#clip972)" cx="930.297" cy="223.332" r="21.6" fill="#ffa500" fill-rule="evenodd" fill-opacity="1" stroke="#000000" stroke-opacity="1" stroke-width="3.2"/>
<circle clip-path="url(#clip972)" cx="951.225" cy="863.885" r="21.6" fill="#ffa500" fill-rule="evenodd" fill-opacity="1" stroke="#000000" stroke-opacity="1" stroke-width="3.2"/>
<circle clip-path="url(#clip972)" cx="972.152" cy="1375.51" r="21.6" fill="#ffa500" fill-rule="evenodd" fill-opacity="1" stroke="#000000" stroke-opacity="1" stroke-width="3.2"/>
<circle clip-path="url(#clip972)" cx="993.08" cy="1156.48" r="21.6" fill="#ffa500" fill-rule="evenodd" fill-opacity="1" stroke="#000000" stroke-opacity="1" stroke-width="3.2"/>
<circle clip-path="url(#clip972)" cx="1014.01" cy="1323.5" r="21.6" fill="#ffa500" fill-rule="evenodd" fill-opacity="1" stroke="#000000" stroke-opacity="1" stroke-width="3.2"/>
<circle clip-path="url(#clip972)" cx="1034.94" cy="1388.92" r="21.6" fill="#ffa500" fill-rule="evenodd" fill-opacity="1" stroke="#000000" stroke-opacity="1" stroke-width="3.2"/>
<circle clip-path="url(#clip972)" cx="1055.86" cy="1022.93" r="21.6" fill="#ffa500" fill-rule="evenodd" fill-opacity="1" stroke="#000000" stroke-opacity="1" stroke-width="3.2"/>
<circle clip-path="url(#clip972)" cx="1076.79" cy="1125.11" r="21.6" fill="#ffa500" fill-rule="evenodd" fill-opacity="1" stroke="#000000" stroke-opacity="1" stroke-width="3.2"/>
<circle clip-path="url(#clip972)" cx="1097.72" cy="1181.18" r="21.6" fill="#ffa500" fill-rule="evenodd" fill-opacity="1" stroke="#000000" stroke-opacity="1" stroke-width="3.2"/>
<circle clip-path="url(#clip972)" cx="1118.65" cy="1423.65" r="21.6" fill="#ffa500" fill-rule="evenodd" fill-opacity="1" stroke="#000000" stroke-opacity="1" stroke-width="3.2"/>
<circle clip-path="url(#clip972)" cx="1139.57" cy="299.411" r="21.6" fill="#ffa500" fill-rule="evenodd" fill-opacity="1" stroke="#000000" stroke-opacity="1" stroke-width="3.2"/>
<circle clip-path="url(#clip972)" cx="1160.5" cy="1147.49" r="21.6" fill="#ffa500" fill-rule="evenodd" fill-opacity="1" stroke="#000000" stroke-opacity="1" stroke-width="3.2"/>
<circle clip-path="url(#clip972)" cx="1181.43" cy="381.048" r="21.6" fill="#ffa500" fill-rule="evenodd" fill-opacity="1" stroke="#000000" stroke-opacity="1" stroke-width="3.2"/>
<circle clip-path="url(#clip972)" cx="1202.36" cy="237.08" r="21.6" fill="#ffa500" fill-rule="evenodd" fill-opacity="1" stroke="#000000" stroke-opacity="1" stroke-width="3.2"/>
<circle clip-path="url(#clip972)" cx="1223.29" cy="471.47" r="21.6" fill="#ffa500" fill-rule="evenodd" fill-opacity="1" stroke="#000000" stroke-opacity="1" stroke-width="3.2"/>
<circle clip-path="url(#clip972)" cx="1244.21" cy="818.379" r="21.6" fill="#ffa500" fill-rule="evenodd" fill-opacity="1" stroke="#000000" stroke-opacity="1" stroke-width="3.2"/>
<circle clip-path="url(#clip972)" cx="1265.14" cy="1165.63" r="21.6" fill="#ffa500" fill-rule="evenodd" fill-opacity="1" stroke="#000000" stroke-opacity="1" stroke-width="3.2"/>
<circle clip-path="url(#clip972)" cx="1286.07" cy="211.674" r="21.6" fill="#ffa500" fill-rule="evenodd" fill-opacity="1" stroke="#000000" stroke-opacity="1" stroke-width="3.2"/>
<circle clip-path="url(#clip972)" cx="1307" cy="373.431" r="21.6" fill="#ffa500" fill-rule="evenodd" fill-opacity="1" stroke="#000000" stroke-opacity="1" stroke-width="3.2"/>
<circle clip-path="url(#clip972)" cx="1327.92" cy="179.543" r="21.6" fill="#ffa500" fill-rule="evenodd" fill-opacity="1" stroke="#000000" stroke-opacity="1" stroke-width="3.2"/>
<circle clip-path="url(#clip972)" cx="1348.85" cy="730.238" r="21.6" fill="#ffa500" fill-rule="evenodd" fill-opacity="1" stroke="#000000" stroke-opacity="1" stroke-width="3.2"/>
<circle clip-path="url(#clip972)" cx="1369.78" cy="1200.98" r="21.6" fill="#ffa500" fill-rule="evenodd" fill-opacity="1" stroke="#000000" stroke-opacity="1" stroke-width="3.2"/>
<circle clip-path="url(#clip972)" cx="1390.71" cy="1237.06" r="21.6" fill="#ffa500" fill-rule="evenodd" fill-opacity="1" stroke="#000000" stroke-opacity="1" stroke-width="3.2"/>
<circle clip-path="url(#clip972)" cx="1411.64" cy="749.993" r="21.6" fill="#ffa500" fill-rule="evenodd" fill-opacity="1" stroke="#000000" stroke-opacity="1" stroke-width="3.2"/>
<circle clip-path="url(#clip972)" cx="1432.56" cy="947.799" r="21.6" fill="#ffa500" fill-rule="evenodd" fill-opacity="1" stroke="#000000" stroke-opacity="1" stroke-width="3.2"/>
<circle clip-path="url(#clip972)" cx="1453.49" cy="455.815" r="21.6" fill="#ffa500" fill-rule="evenodd" fill-opacity="1" stroke="#000000" stroke-opacity="1" stroke-width="3.2"/>
<circle clip-path="url(#clip972)" cx="1474.42" cy="856.365" r="21.6" fill="#ffa500" fill-rule="evenodd" fill-opacity="1" stroke="#000000" stroke-opacity="1" stroke-width="3.2"/>
<circle clip-path="url(#clip972)" cx="1495.35" cy="271.978" r="21.6" fill="#ffa500" fill-rule="evenodd" fill-opacity="1" stroke="#000000" stroke-opacity="1" stroke-width="3.2"/>
<circle clip-path="url(#clip972)" cx="1516.27" cy="630.691" r="21.6" fill="#ffa500" fill-rule="evenodd" fill-opacity="1" stroke="#000000" stroke-opacity="1" stroke-width="3.2"/>
<circle clip-path="url(#clip972)" cx="1537.2" cy="449.17" r="21.6" fill="#ffa500" fill-rule="evenodd" fill-opacity="1" stroke="#000000" stroke-opacity="1" stroke-width="3.2"/>
<circle clip-path="url(#clip972)" cx="1558.13" cy="694.526" r="21.6" fill="#ffa500" fill-rule="evenodd" fill-opacity="1" stroke="#000000" stroke-opacity="1" stroke-width="3.2"/>
<circle clip-path="url(#clip972)" cx="1579.06" cy="933.149" r="21.6" fill="#ffa500" fill-rule="evenodd" fill-opacity="1" stroke="#000000" stroke-opacity="1" stroke-width="3.2"/>
<circle clip-path="url(#clip972)" cx="1599.98" cy="448.619" r="21.6" fill="#ffa500" fill-rule="evenodd" fill-opacity="1" stroke="#000000" stroke-opacity="1" stroke-width="3.2"/>
<circle clip-path="url(#clip972)" cx="1620.91" cy="1195.04" r="21.6" fill="#ffa500" fill-rule="evenodd" fill-opacity="1" stroke="#000000" stroke-opacity="1" stroke-width="3.2"/>
<circle clip-path="url(#clip972)" cx="1641.84" cy="518.333" r="21.6" fill="#ffa500" fill-rule="evenodd" fill-opacity="1" stroke="#000000" stroke-opacity="1" stroke-width="3.2"/>
<circle clip-path="url(#clip972)" cx="1662.77" cy="1251.1" r="21.6" fill="#ffa500" fill-rule="evenodd" fill-opacity="1" stroke="#000000" stroke-opacity="1" stroke-width="3.2"/>
<circle clip-path="url(#clip972)" cx="1683.7" cy="248.297" r="21.6" fill="#ffa500" fill-rule="evenodd" fill-opacity="1" stroke="#000000" stroke-opacity="1" stroke-width="3.2"/>
<circle clip-path="url(#clip972)" cx="1704.62" cy="1086.54" r="21.6" fill="#ffa500" fill-rule="evenodd" fill-opacity="1" stroke="#000000" stroke-opacity="1" stroke-width="3.2"/>
<circle clip-path="url(#clip972)" cx="1725.55" cy="254.241" r="21.6" fill="#ffa500" fill-rule="evenodd" fill-opacity="1" stroke="#000000" stroke-opacity="1" stroke-width="3.2"/>
<circle clip-path="url(#clip972)" cx="1746.48" cy="669.429" r="21.6" fill="#ffa500" fill-rule="evenodd" fill-opacity="1" stroke="#000000" stroke-opacity="1" stroke-width="3.2"/>
<circle clip-path="url(#clip972)" cx="1767.41" cy="1254.11" r="21.6" fill="#ffa500" fill-rule="evenodd" fill-opacity="1" stroke="#000000" stroke-opacity="1" stroke-width="3.2"/>
<circle clip-path="url(#clip972)" cx="1788.33" cy="804.155" r="21.6" fill="#ffa500" fill-rule="evenodd" fill-opacity="1" stroke="#000000" stroke-opacity="1" stroke-width="3.2"/>
<circle clip-path="url(#clip972)" cx="1809.26" cy="281.994" r="21.6" fill="#ffa500" fill-rule="evenodd" fill-opacity="1" stroke="#000000" stroke-opacity="1" stroke-width="3.2"/>
<circle clip-path="url(#clip972)" cx="1830.19" cy="1181.37" r="21.6" fill="#ffa500" fill-rule="evenodd" fill-opacity="1" stroke="#000000" stroke-opacity="1" stroke-width="3.2"/>
<circle clip-path="url(#clip972)" cx="1851.12" cy="271.289" r="21.6" fill="#ffa500" fill-rule="evenodd" fill-opacity="1" stroke="#000000" stroke-opacity="1" stroke-width="3.2"/>
<circle clip-path="url(#clip972)" cx="1872.05" cy="221.024" r="21.6" fill="#ffa500" fill-rule="evenodd" fill-opacity="1" stroke="#000000" stroke-opacity="1" stroke-width="3.2"/>
<circle clip-path="url(#clip972)" cx="1892.97" cy="370.289" r="21.6" fill="#ffa500" fill-rule="evenodd" fill-opacity="1" stroke="#000000" stroke-opacity="1" stroke-width="3.2"/>
<circle clip-path="url(#clip972)" cx="1913.9" cy="403.547" r="21.6" fill="#ffa500" fill-rule="evenodd" fill-opacity="1" stroke="#000000" stroke-opacity="1" stroke-width="3.2"/>
<circle clip-path="url(#clip972)" cx="1934.83" cy="871.854" r="21.6" fill="#ffa500" fill-rule="evenodd" fill-opacity="1" stroke="#000000" stroke-opacity="1" stroke-width="3.2"/>
<circle clip-path="url(#clip972)" cx="1955.76" cy="276.542" r="21.6" fill="#ffa500" fill-rule="evenodd" fill-opacity="1" stroke="#000000" stroke-opacity="1" stroke-width="3.2"/>
<circle clip-path="url(#clip972)" cx="1976.68" cy="1236.05" r="21.6" fill="#ffa500" fill-rule="evenodd" fill-opacity="1" stroke="#000000" stroke-opacity="1" stroke-width="3.2"/>
<circle clip-path="url(#clip972)" cx="1997.61" cy="1388.07" r="21.6" fill="#ffa500" fill-rule="evenodd" fill-opacity="1" stroke="#000000" stroke-opacity="1" stroke-width="3.2"/>
<circle clip-path="url(#clip972)" cx="2018.54" cy="744.575" r="21.6" fill="#ffa500" fill-rule="evenodd" fill-opacity="1" stroke="#000000" stroke-opacity="1" stroke-width="3.2"/>
<circle clip-path="url(#clip972)" cx="2039.47" cy="994.364" r="21.6" fill="#ffa500" fill-rule="evenodd" fill-opacity="1" stroke="#000000" stroke-opacity="1" stroke-width="3.2"/>
<circle clip-path="url(#clip972)" cx="2060.4" cy="1274.09" r="21.6" fill="#ffa500" fill-rule="evenodd" fill-opacity="1" stroke="#000000" stroke-opacity="1" stroke-width="3.2"/>
<circle clip-path="url(#clip972)" cx="2081.32" cy="137.589" r="21.6" fill="#ffa500" fill-rule="evenodd" fill-opacity="1" stroke="#000000" stroke-opacity="1" stroke-width="3.2"/>
<circle clip-path="url(#clip972)" cx="2102.25" cy="883.647" r="21.6" fill="#ffa500" fill-rule="evenodd" fill-opacity="1" stroke="#000000" stroke-opacity="1" stroke-width="3.2"/>
<circle clip-path="url(#clip972)" cx="2123.18" cy="977.452" r="21.6" fill="#ffa500" fill-rule="evenodd" fill-opacity="1" stroke="#000000" stroke-opacity="1" stroke-width="3.2"/>
<circle clip-path="url(#clip972)" cx="2144.11" cy="293.108" r="21.6" fill="#ffa500" fill-rule="evenodd" fill-opacity="1" stroke="#000000" stroke-opacity="1" stroke-width="3.2"/>
<circle clip-path="url(#clip972)" cx="2165.03" cy="1004.63" r="21.6" fill="#ffa500" fill-rule="evenodd" fill-opacity="1" stroke="#000000" stroke-opacity="1" stroke-width="3.2"/>
<circle clip-path="url(#clip972)" cx="2185.96" cy="1229.57" r="21.6" fill="#ffa500" fill-rule="evenodd" fill-opacity="1" stroke="#000000" stroke-opacity="1" stroke-width="3.2"/>
<circle clip-path="url(#clip972)" cx="2206.89" cy="426.711" r="21.6" fill="#ffa500" fill-rule="evenodd" fill-opacity="1" stroke="#000000" stroke-opacity="1" stroke-width="3.2"/>
<circle clip-path="url(#clip972)" cx="2227.82" cy="778.276" r="21.6" fill="#ffa500" fill-rule="evenodd" fill-opacity="1" stroke="#000000" stroke-opacity="1" stroke-width="3.2"/>
<circle clip-path="url(#clip972)" cx="2248.75" cy="1272.27" r="21.6" fill="#ffa500" fill-rule="evenodd" fill-opacity="1" stroke="#000000" stroke-opacity="1" stroke-width="3.2"/>
<circle clip-path="url(#clip972)" cx="2269.67" cy="701.037" r="21.6" fill="#ffa500" fill-rule="evenodd" fill-opacity="1" stroke="#000000" stroke-opacity="1" stroke-width="3.2"/>
<circle clip-path="url(#clip972)" cx="2290.6" cy="715.637" r="21.6" fill="#ffa500" fill-rule="evenodd" fill-opacity="1" stroke="#000000" stroke-opacity="1" stroke-width="3.2"/>
<path clip-path="url(#clip970)" d="M2007.5 250.738 L2279.55 250.738 L2279.55 95.2176 L2007.5 95.2176  Z" fill="#ffffff" fill-rule="evenodd" fill-opacity="1"/>
<polyline clip-path="url(#clip970)" style="stroke:#000000; stroke-linecap:round; stroke-linejoin:round; stroke-width:4; stroke-opacity:1; fill:none" points="2007.5,250.738 2279.55,250.738 2279.55,95.2176 2007.5,95.2176 2007.5,250.738 "/>
<path clip-path="url(#clip970)" d="M2031.91 167.794 L2178.32 167.794 L2178.32 126.322 L2031.91 126.322 L2031.91 167.794  Z" fill="#008000" fill-rule="evenodd" fill-opacity="1"/>
<polyline clip-path="url(#clip970)" style="stroke:#009af9; stroke-linecap:round; stroke-linejoin:round; stroke-width:4; stroke-opacity:1; fill:none" points="2031.91,126.322 2178.32,126.322 "/>
<path clip-path="url(#clip970)" d="M2216.56 166.745 Q2214.76 171.375 2213.04 172.787 Q2211.33 174.199 2208.46 174.199 L2205.06 174.199 L2205.06 170.634 L2207.56 170.634 Q2209.32 170.634 2210.29 169.8 Q2211.26 168.967 2212.44 165.865 L2213.2 163.921 L2202.72 138.412 L2207.23 138.412 L2215.33 158.689 L2223.44 138.412 L2227.95 138.412 L2216.56 166.745 Z" fill="#000000" fill-rule="nonzero" fill-opacity="1" /><path clip-path="url(#clip970)" d="M2235.24 160.402 L2242.88 160.402 L2242.88 134.037 L2234.57 135.703 L2234.57 131.444 L2242.83 129.778 L2247.51 129.778 L2247.51 160.402 L2255.15 160.402 L2255.15 164.338 L2235.24 164.338 L2235.24 160.402 Z" fill="#000000" fill-rule="nonzero" fill-opacity="1" /><circle clip-path="url(#clip970)" cx="2105.11" cy="198.898" r="21.2677" fill="#ffa500" fill-rule="evenodd" fill-opacity="1" stroke="#000000" stroke-opacity="1" stroke-width="3.15077"/>
<path clip-path="url(#clip970)" d="M2216.56 218.585 Q2214.76 223.215 2213.04 224.627 Q2211.33 226.039 2208.46 226.039 L2205.06 226.039 L2205.06 222.474 L2207.56 222.474 Q2209.32 222.474 2210.29 221.64 Q2211.26 220.807 2212.44 217.705 L2213.2 215.761 L2202.72 190.252 L2207.23 190.252 L2215.33 210.529 L2223.44 190.252 L2227.95 190.252 L2216.56 218.585 Z" fill="#000000" fill-rule="nonzero" fill-opacity="1" /><path clip-path="url(#clip970)" d="M2238.46 212.242 L2254.78 212.242 L2254.78 216.178 L2232.83 216.178 L2232.83 212.242 Q2235.5 209.488 2240.08 204.858 Q2244.69 200.205 2245.87 198.863 Q2248.11 196.34 2248.99 194.604 Q2249.89 192.844 2249.89 191.155 Q2249.89 188.4 2247.95 186.664 Q2246.03 184.928 2242.93 184.928 Q2240.73 184.928 2238.27 185.692 Q2235.84 186.455 2233.07 188.006 L2233.07 183.284 Q2235.89 182.15 2238.34 181.571 Q2240.8 180.993 2242.83 180.993 Q2248.2 180.993 2251.4 183.678 Q2254.59 186.363 2254.59 190.854 Q2254.59 192.983 2253.78 194.905 Q2253 196.803 2250.89 199.395 Q2250.31 200.067 2247.21 203.284 Q2244.11 206.479 2238.46 212.242 Z" fill="#000000" fill-rule="nonzero" fill-opacity="1" /></svg>
