<?xml version="1.0" encoding="utf-8"?>
<svg xmlns="http://www.w3.org/2000/svg" xmlns:xlink="http://www.w3.org/1999/xlink" width="600" height="400" viewBox="0 0 2400 1600">
<defs>
  <clipPath id="clip940">
    <rect x="0" y="0" width="2400" height="1600"/>
  </clipPath>
</defs>
<path clip-path="url(#clip940)" d="M0 1600 L2400 1600 L2400 0 L0 0  Z" fill="#ffffff" fill-rule="evenodd" fill-opacity="1"/>
<defs>
  <clipPath id="clip941">
    <rect x="480" y="0" width="1681" height="1600"/>
  </clipPath>
</defs>
<path clip-path="url(#clip940)" d="M156.112 1486.45 L2352.76 1486.45 L2352.76 47.2441 L156.112 47.2441  Z" fill="#ffffff" fill-rule="evenodd" fill-opacity="1"/>
<defs>
  <clipPath id="clip942">
    <rect x="156" y="47" width="2198" height="1440"/>
  </clipPath>
</defs>
<polyline clip-path="url(#clip942)" style="stroke:#000000; stroke-linecap:round; stroke-linejoin:round; stroke-width:2; stroke-opacity:0.1; fill:none" points="197.349,1486.45 197.349,47.2441 "/>
<polyline clip-path="url(#clip942)" style="stroke:#000000; stroke-linecap:round; stroke-linejoin:round; stroke-width:2; stroke-opacity:0.1; fill:none" points="720.658,1486.45 720.658,47.2441 "/>
<polyline clip-path="url(#clip942)" style="stroke:#000000; stroke-linecap:round; stroke-linejoin:round; stroke-width:2; stroke-opacity:0.1; fill:none" points="1243.97,1486.45 1243.97,47.2441 "/>
<polyline clip-path="url(#clip942)" style="stroke:#000000; stroke-linecap:round; stroke-linejoin:round; stroke-width:2; stroke-opacity:0.1; fill:none" points="1767.28,1486.45 1767.28,47.2441 "/>
<polyline clip-path="url(#clip942)" style="stroke:#000000; stroke-linecap:round; stroke-linejoin:round; stroke-width:2; stroke-opacity:0.1; fill:none" points="2290.59,1486.45 2290.59,47.2441 "/>
<polyline clip-path="url(#clip942)" style="stroke:#000000; stroke-linecap:round; stroke-linejoin:round; stroke-width:2; stroke-opacity:0.1; fill:none" points="156.112,1445.72 2352.76,1445.72 "/>
<polyline clip-path="url(#clip942)" style="stroke:#000000; stroke-linecap:round; stroke-linejoin:round; stroke-width:2; stroke-opacity:0.1; fill:none" points="156.112,1031.09 2352.76,1031.09 "/>
<polyline clip-path="url(#clip942)" style="stroke:#000000; stroke-linecap:round; stroke-linejoin:round; stroke-width:2; stroke-opacity:0.1; fill:none" points="156.112,616.459 2352.76,616.459 "/>
<polyline clip-path="url(#clip942)" style="stroke:#000000; stroke-linecap:round; stroke-linejoin:round; stroke-width:2; stroke-opacity:0.1; fill:none" points="156.112,201.831 2352.76,201.831 "/>
<polyline clip-path="url(#clip940)" style="stroke:#000000; stroke-linecap:round; stroke-linejoin:round; stroke-width:4; stroke-opacity:1; fill:none" points="156.112,1486.45 2352.76,1486.45 "/>
<polyline clip-path="url(#clip940)" style="stroke:#000000; stroke-linecap:round; stroke-linejoin:round; stroke-width:4; stroke-opacity:1; fill:none" points="197.349,1486.45 197.349,1467.55 "/>
<polyline clip-path="url(#clip940)" style="stroke:#000000; stroke-linecap:round; stroke-linejoin:round; stroke-width:4; stroke-opacity:1; fill:none" points="720.658,1486.45 720.658,1467.55 "/>
<polyline clip-path="url(#clip940)" style="stroke:#000000; stroke-linecap:round; stroke-linejoin:round; stroke-width:4; stroke-opacity:1; fill:none" points="1243.97,1486.45 1243.97,1467.55 "/>
<polyline clip-path="url(#clip940)" style="stroke:#000000; stroke-linecap:round; stroke-linejoin:round; stroke-width:4; stroke-opacity:1; fill:none" points="1767.28,1486.45 1767.28,1467.55 "/>
<polyline clip-path="url(#clip940)" style="stroke:#000000; stroke-linecap:round; stroke-linejoin:round; stroke-width:4; stroke-opacity:1; fill:none" points="2290.59,1486.45 2290.59,1467.55 "/>
<path clip-path="url(#clip940)" d="M197.349 1517.37 Q193.738 1517.37 191.909 1520.93 Q190.104 1524.47 190.104 1531.6 Q190.104 1538.71 191.909 1542.27 Q193.738 1545.82 197.349 1545.82 Q200.983 1545.82 202.789 1542.27 Q204.617 1538.71 204.617 1531.6 Q204.617 1524.47 202.789 1520.93 Q200.983 1517.37 197.349 1517.37 M197.349 1513.66 Q203.159 1513.66 206.215 1518.27 Q209.293 1522.85 209.293 1531.6 Q209.293 1540.33 206.215 1544.94 Q203.159 1549.52 197.349 1549.52 Q191.539 1549.52 188.46 1544.94 Q185.405 1540.33 185.405 1531.6 Q185.405 1522.85 188.46 1518.27 Q191.539 1513.66 197.349 1513.66 Z" fill="#000000" fill-rule="nonzero" fill-opacity="1" /><path clip-path="url(#clip940)" d="M699.929 1544.91 L716.249 1544.91 L716.249 1548.85 L694.304 1548.85 L694.304 1544.91 Q696.966 1542.16 701.55 1537.53 Q706.156 1532.88 707.337 1531.53 Q709.582 1529.01 710.462 1527.27 Q711.364 1525.51 711.364 1523.82 Q711.364 1521.07 709.42 1519.33 Q707.499 1517.6 704.397 1517.6 Q702.198 1517.6 699.744 1518.36 Q697.314 1519.13 694.536 1520.68 L694.536 1515.95 Q697.36 1514.82 699.814 1514.24 Q702.267 1513.66 704.304 1513.66 Q709.675 1513.66 712.869 1516.35 Q716.063 1519.03 716.063 1523.52 Q716.063 1525.65 715.253 1527.57 Q714.466 1529.47 712.36 1532.07 Q711.781 1532.74 708.679 1535.95 Q705.577 1539.15 699.929 1544.91 Z" fill="#000000" fill-rule="nonzero" fill-opacity="1" /><path clip-path="url(#clip940)" d="M726.11 1514.29 L744.466 1514.29 L744.466 1518.22 L730.392 1518.22 L730.392 1526.7 Q731.411 1526.35 732.429 1526.19 Q733.448 1526 734.466 1526 Q740.253 1526 743.633 1529.17 Q747.012 1532.34 747.012 1537.76 Q747.012 1543.34 743.54 1546.44 Q740.068 1549.52 733.749 1549.52 Q731.573 1549.52 729.304 1549.15 Q727.059 1548.78 724.651 1548.04 L724.651 1543.34 Q726.735 1544.47 728.957 1545.03 Q731.179 1545.58 733.656 1545.58 Q737.661 1545.58 739.999 1543.48 Q742.336 1541.37 742.336 1537.76 Q742.336 1534.15 739.999 1532.04 Q737.661 1529.94 733.656 1529.94 Q731.781 1529.94 729.906 1530.35 Q728.054 1530.77 726.11 1531.65 L726.11 1514.29 Z" fill="#000000" fill-rule="nonzero" fill-opacity="1" /><path clip-path="url(#clip940)" d="M1218.67 1514.29 L1237.02 1514.29 L1237.02 1518.22 L1222.95 1518.22 L1222.95 1526.7 Q1223.97 1526.35 1224.99 1526.19 Q1226 1526 1227.02 1526 Q1232.81 1526 1236.19 1529.17 Q1239.57 1532.34 1239.57 1537.76 Q1239.57 1543.34 1236.1 1546.44 Q1232.63 1549.52 1226.31 1549.52 Q1224.13 1549.52 1221.86 1549.15 Q1219.62 1548.78 1217.21 1548.04 L1217.21 1543.34 Q1219.29 1544.47 1221.51 1545.03 Q1223.74 1545.58 1226.21 1545.58 Q1230.22 1545.58 1232.56 1543.48 Q1234.89 1541.37 1234.89 1537.76 Q1234.89 1534.15 1232.56 1532.04 Q1230.22 1529.94 1226.21 1529.94 Q1224.34 1529.94 1222.46 1530.35 Q1220.61 1530.77 1218.67 1531.65 L1218.67 1514.29 Z" fill="#000000" fill-rule="nonzero" fill-opacity="1" /><path clip-path="url(#clip940)" d="M1258.78 1517.37 Q1255.17 1517.37 1253.34 1520.93 Q1251.54 1524.47 1251.54 1531.6 Q1251.54 1538.71 1253.34 1542.27 Q1255.17 1545.82 1258.78 1545.82 Q1262.42 1545.82 1264.22 1542.27 Q1266.05 1538.71 1266.05 1531.6 Q1266.05 1524.47 1264.22 1520.93 Q1262.42 1517.37 1258.78 1517.37 M1258.78 1513.66 Q1264.59 1513.66 1267.65 1518.27 Q1270.73 1522.85 1270.73 1531.6 Q1270.73 1540.33 1267.65 1544.94 Q1264.59 1549.52 1258.78 1549.52 Q1252.97 1549.52 1249.89 1544.94 Q1246.84 1540.33 1246.84 1531.6 Q1246.84 1522.85 1249.89 1518.27 Q1252.97 1513.66 1258.78 1513.66 Z" fill="#000000" fill-rule="nonzero" fill-opacity="1" /><path clip-path="url(#clip940)" d="M1741.13 1514.29 L1763.35 1514.29 L1763.35 1516.28 L1750.81 1548.85 L1745.92 1548.85 L1757.73 1518.22 L1741.13 1518.22 L1741.13 1514.29 Z" fill="#000000" fill-rule="nonzero" fill-opacity="1" /><path clip-path="url(#clip940)" d="M1772.52 1514.29 L1790.88 1514.29 L1790.88 1518.22 L1776.8 1518.22 L1776.8 1526.7 Q1777.82 1526.35 1778.84 1526.19 Q1779.86 1526 1780.88 1526 Q1786.66 1526 1790.04 1529.17 Q1793.42 1532.34 1793.42 1537.76 Q1793.42 1543.34 1789.95 1546.44 Q1786.48 1549.52 1780.16 1549.52 Q1777.98 1549.52 1775.71 1549.15 Q1773.47 1548.78 1771.06 1548.04 L1771.06 1543.34 Q1773.15 1544.47 1775.37 1545.03 Q1777.59 1545.58 1780.07 1545.58 Q1784.07 1545.58 1786.41 1543.48 Q1788.75 1541.37 1788.75 1537.76 Q1788.75 1534.15 1786.41 1532.04 Q1784.07 1529.94 1780.07 1529.94 Q1778.19 1529.94 1776.32 1530.35 Q1774.46 1530.77 1772.52 1531.65 L1772.52 1514.29 Z" fill="#000000" fill-rule="nonzero" fill-opacity="1" /><path clip-path="url(#clip940)" d="M2250.19 1544.91 L2257.83 1544.91 L2257.83 1518.55 L2249.52 1520.21 L2249.52 1515.95 L2257.79 1514.29 L2262.46 1514.29 L2262.46 1544.91 L2270.1 1544.91 L2270.1 1548.85 L2250.19 1548.85 L2250.19 1544.91 Z" fill="#000000" fill-rule="nonzero" fill-opacity="1" /><path clip-path="url(#clip940)" d="M2289.55 1517.37 Q2285.93 1517.37 2284.11 1520.93 Q2282.3 1524.47 2282.3 1531.6 Q2282.3 1538.71 2284.11 1542.27 Q2285.93 1545.82 2289.55 1545.82 Q2293.18 1545.82 2294.98 1542.27 Q2296.81 1538.71 2296.81 1531.6 Q2296.81 1524.47 2294.98 1520.93 Q2293.18 1517.37 2289.55 1517.37 M2289.55 1513.66 Q2295.36 1513.66 2298.41 1518.27 Q2301.49 1522.85 2301.49 1531.6 Q2301.49 1540.33 2298.41 1544.94 Q2295.36 1549.52 2289.55 1549.52 Q2283.73 1549.52 2280.66 1544.94 Q2277.6 1540.33 2277.6 1531.6 Q2277.6 1522.85 2280.66 1518.27 Q2283.73 1513.66 2289.55 1513.66 Z" fill="#000000" fill-rule="nonzero" fill-opacity="1" /><path clip-path="url(#clip940)" d="M2319.71 1517.37 Q2316.1 1517.37 2314.27 1520.93 Q2312.46 1524.47 2312.46 1531.6 Q2312.46 1538.71 2314.27 1542.27 Q2316.1 1545.82 2319.71 1545.82 Q2323.34 1545.82 2325.15 1542.27 Q2326.98 1538.71 2326.98 1531.6 Q2326.98 1524.47 2325.15 1520.93 Q2323.34 1517.37 2319.71 1517.37 M2319.71 1513.66 Q2325.52 1513.66 2328.57 1518.27 Q2331.65 1522.85 2331.65 1531.6 Q2331.65 1540.33 2328.57 1544.94 Q2325.52 1549.52 2319.71 1549.52 Q2313.9 1549.52 2310.82 1544.94 Q2307.76 1540.33 2307.76 1531.6 Q2307.76 1522.85 2310.82 1518.27 Q2313.9 1513.66 2319.71 1513.66 Z" fill="#000000" fill-rule="nonzero" fill-opacity="1" /><polyline clip-path="url(#clip940)" style="stroke:#000000; stroke-linecap:round; stroke-linejoin:round; stroke-width:4; stroke-opacity:1; fill:none" points="156.112,1486.45 156.112,47.2441 "/>
<polyline clip-path="url(#clip940)" style="stroke:#000000; stroke-linecap:round; stroke-linejoin:round; stroke-width:4; stroke-opacity:1; fill:none" points="156.112,1445.72 175.01,1445.72 "/>
<polyline clip-path="url(#clip940)" style="stroke:#000000; stroke-linecap:round; stroke-linejoin:round; stroke-width:4; stroke-opacity:1; fill:none" points="156.112,1031.09 175.01,1031.09 "/>
<polyline clip-path="url(#clip940)" style="stroke:#000000; stroke-linecap:round; stroke-linejoin:round; stroke-width:4; stroke-opacity:1; fill:none" points="156.112,616.459 175.01,616.459 "/>
<polyline clip-path="url(#clip940)" style="stroke:#000000; stroke-linecap:round; stroke-linejoin:round; stroke-width:4; stroke-opacity:1; fill:none" points="156.112,201.831 175.01,201.831 "/>
<path clip-path="url(#clip940)" d="M62.9365 1431.51 Q59.3254 1431.51 57.4967 1435.08 Q55.6912 1438.62 55.6912 1445.75 Q55.6912 1452.86 57.4967 1456.42 Q59.3254 1459.96 62.9365 1459.96 Q66.5707 1459.96 68.3763 1456.42 Q70.205 1452.86 70.205 1445.75 Q70.205 1438.62 68.3763 1435.08 Q66.5707 1431.51 62.9365 1431.51 M62.9365 1427.81 Q68.7467 1427.81 71.8022 1432.42 Q74.8809 1437 74.8809 1445.75 Q74.8809 1454.48 71.8022 1459.08 Q68.7467 1463.67 62.9365 1463.67 Q57.1264 1463.67 54.0477 1459.08 Q50.9921 1454.48 50.9921 1445.75 Q50.9921 1437 54.0477 1432.42 Q57.1264 1427.81 62.9365 1427.81 Z" fill="#000000" fill-rule="nonzero" fill-opacity="1" /><path clip-path="url(#clip940)" d="M83.0984 1457.12 L87.9827 1457.12 L87.9827 1463 L83.0984 1463 L83.0984 1457.12 Z" fill="#000000" fill-rule="nonzero" fill-opacity="1" /><path clip-path="url(#clip940)" d="M108.168 1431.51 Q104.557 1431.51 102.728 1435.08 Q100.922 1438.62 100.922 1445.75 Q100.922 1452.86 102.728 1456.42 Q104.557 1459.96 108.168 1459.96 Q111.802 1459.96 113.608 1456.42 Q115.436 1452.86 115.436 1445.75 Q115.436 1438.62 113.608 1435.08 Q111.802 1431.51 108.168 1431.51 M108.168 1427.81 Q113.978 1427.81 117.033 1432.42 Q120.112 1437 120.112 1445.75 Q120.112 1454.48 117.033 1459.08 Q113.978 1463.67 108.168 1463.67 Q102.358 1463.67 99.2789 1459.08 Q96.2234 1454.48 96.2234 1445.75 Q96.2234 1437 99.2789 1432.42 Q102.358 1427.81 108.168 1427.81 Z" fill="#000000" fill-rule="nonzero" fill-opacity="1" /><path clip-path="url(#clip940)" d="M64.1634 1016.89 Q60.5523 1016.89 58.7236 1020.45 Q56.918 1023.99 56.918 1031.12 Q56.918 1038.23 58.7236 1041.79 Q60.5523 1045.34 64.1634 1045.34 Q67.7976 1045.34 69.6031 1041.79 Q71.4318 1038.23 71.4318 1031.12 Q71.4318 1023.99 69.6031 1020.45 Q67.7976 1016.89 64.1634 1016.89 M64.1634 1013.18 Q69.9735 1013.18 73.029 1017.79 Q76.1077 1022.37 76.1077 1031.12 Q76.1077 1039.85 73.029 1044.46 Q69.9735 1049.04 64.1634 1049.04 Q58.3532 1049.04 55.2745 1044.46 Q52.219 1039.85 52.219 1031.12 Q52.219 1022.37 55.2745 1017.79 Q58.3532 1013.18 64.1634 1013.18 Z" fill="#000000" fill-rule="nonzero" fill-opacity="1" /><path clip-path="url(#clip940)" d="M84.3253 1042.49 L89.2095 1042.49 L89.2095 1048.37 L84.3253 1048.37 L84.3253 1042.49 Z" fill="#000000" fill-rule="nonzero" fill-opacity="1" /><path clip-path="url(#clip940)" d="M100.205 1044.43 L107.844 1044.43 L107.844 1018.07 L99.5335 1019.73 L99.5335 1015.47 L107.797 1013.81 L112.473 1013.81 L112.473 1044.43 L120.112 1044.43 L120.112 1048.37 L100.205 1048.37 L100.205 1044.43 Z" fill="#000000" fill-rule="nonzero" fill-opacity="1" /><path clip-path="url(#clip940)" d="M64.5337 602.258 Q60.9226 602.258 59.0939 605.823 Q57.2884 609.364 57.2884 616.494 Q57.2884 623.6 59.0939 627.165 Q60.9226 630.707 64.5337 630.707 Q68.168 630.707 69.9735 627.165 Q71.8022 623.6 71.8022 616.494 Q71.8022 609.364 69.9735 605.823 Q68.168 602.258 64.5337 602.258 M64.5337 598.554 Q70.3439 598.554 73.3994 603.161 Q76.4781 607.744 76.4781 616.494 Q76.4781 625.221 73.3994 629.827 Q70.3439 634.41 64.5337 634.41 Q58.7236 634.41 55.6449 629.827 Q52.5893 625.221 52.5893 616.494 Q52.5893 607.744 55.6449 603.161 Q58.7236 598.554 64.5337 598.554 Z" fill="#000000" fill-rule="nonzero" fill-opacity="1" /><path clip-path="url(#clip940)" d="M84.6956 627.86 L89.5799 627.86 L89.5799 633.739 L84.6956 633.739 L84.6956 627.86 Z" fill="#000000" fill-rule="nonzero" fill-opacity="1" /><path clip-path="url(#clip940)" d="M103.793 629.804 L120.112 629.804 L120.112 633.739 L98.1678 633.739 L98.1678 629.804 Q100.83 627.049 105.413 622.42 Q110.02 617.767 111.2 616.424 Q113.445 613.901 114.325 612.165 Q115.228 610.406 115.228 608.716 Q115.228 605.961 113.283 604.225 Q111.362 602.489 108.26 602.489 Q106.061 602.489 103.608 603.253 Q101.177 604.017 98.3993 605.568 L98.3993 600.846 Q101.223 599.712 103.677 599.133 Q106.131 598.554 108.168 598.554 Q113.538 598.554 116.733 601.239 Q119.927 603.924 119.927 608.415 Q119.927 610.545 119.117 612.466 Q118.33 614.364 116.223 616.957 Q115.645 617.628 112.543 620.846 Q109.441 624.04 103.793 629.804 Z" fill="#000000" fill-rule="nonzero" fill-opacity="1" /><path clip-path="url(#clip940)" d="M63.5847 187.63 Q59.9736 187.63 58.1449 191.194 Q56.3393 194.736 56.3393 201.866 Q56.3393 208.972 58.1449 212.537 Q59.9736 216.078 63.5847 216.078 Q67.2189 216.078 69.0244 212.537 Q70.8531 208.972 70.8531 201.866 Q70.8531 194.736 69.0244 191.194 Q67.2189 187.63 63.5847 187.63 M63.5847 183.926 Q69.3948 183.926 72.4503 188.532 Q75.529 193.116 75.529 201.866 Q75.529 210.592 72.4503 215.199 Q69.3948 219.782 63.5847 219.782 Q57.7745 219.782 54.6958 215.199 Q51.6403 210.592 51.6403 201.866 Q51.6403 193.116 54.6958 188.532 Q57.7745 183.926 63.5847 183.926 Z" fill="#000000" fill-rule="nonzero" fill-opacity="1" /><path clip-path="url(#clip940)" d="M83.7466 213.231 L88.6308 213.231 L88.6308 219.111 L83.7466 219.111 L83.7466 213.231 Z" fill="#000000" fill-rule="nonzero" fill-opacity="1" /><path clip-path="url(#clip940)" d="M112.983 200.477 Q116.339 201.194 118.214 203.463 Q120.112 205.731 120.112 209.065 Q120.112 214.18 116.594 216.981 Q113.075 219.782 106.594 219.782 Q104.418 219.782 102.103 219.342 Q99.8113 218.926 97.3576 218.069 L97.3576 213.555 Q99.3021 214.69 101.617 215.268 Q103.932 215.847 106.455 215.847 Q110.853 215.847 113.145 214.111 Q115.459 212.375 115.459 209.065 Q115.459 206.009 113.307 204.296 Q111.177 202.56 107.358 202.56 L103.33 202.56 L103.33 198.717 L107.543 198.717 Q110.992 198.717 112.82 197.352 Q114.649 195.963 114.649 193.37 Q114.649 190.708 112.751 189.296 Q110.876 187.861 107.358 187.861 Q105.436 187.861 103.237 188.278 Q101.038 188.694 98.3993 189.574 L98.3993 185.407 Q101.061 184.667 103.376 184.296 Q105.714 183.926 107.774 183.926 Q113.098 183.926 116.2 186.356 Q119.302 188.764 119.302 192.884 Q119.302 195.754 117.658 197.745 Q116.015 199.713 112.983 200.477 Z" fill="#000000" fill-rule="nonzero" fill-opacity="1" /><path clip-path="url(#clip942)" d="M218.281 595.464 L239.214 548.57 L260.146 360.714 L281.078 542.029 L302.011 760.825 L322.943 403.587 L343.876 1349.19 L364.808 1364.31 L385.74 339.781 L406.673 241.234 L427.605 479.881 L448.537 357.819 L469.47 743.379 L490.402 901.397 L511.335 913.492 L532.267 693.029 L553.199 1174.47 L574.132 1031.46 L595.064 1335.63 L615.996 1316.99 L636.929 667.128 L657.861 1389.07 L678.794 581.893 L699.726 1336.97 L720.658 649.961 L741.591 1270.32 L762.523 744.316 L783.456 745.096 L804.388 1121.73 L825.32 1398.66 L846.253 961.758 L867.185 624.029 L888.117 923.193 L909.05 485.466 L929.982 1345.98 L950.915 129.547 L971.847 945.629 L992.779 1362.75 L1013.71 1163.34 L1034.64 743.682 L1055.58 887.17 L1076.51 1077.8 L1097.44 389.84 L1118.37 738.566 L1139.31 1081.41 L1160.24 535.707 L1181.17 1023.66 L1202.1 1103.85 L1223.04 170.877 L1243.97 498.646 L1264.9 850.871 L1285.83 897.774 L1306.76 1249.99 L1327.7 290.998 L1348.63 392.892 L1369.56 388.231 L1390.49 1099.97 L1411.43 422.481 L1432.36 635.887 L1453.29 930.78 L1474.22 813.495 L1495.16 758.936 L1516.09 422.99 L1537.02 1333.43 L1557.95 298.955 L1578.89 1413.82 L1599.82 533.035 L1620.75 397.427 L1641.68 659.593 L1662.62 431.762 L1683.55 555.694 L1704.48 977.807 L1725.41 1331.52 L1746.34 431.795 L1767.28 288.18 L1788.21 1035.62 L1809.14 579.772 L1830.07 933.551 L1851.01 821.721 L1871.94 1187.65 L1892.87 478.87 L1913.8 1253.48 L1934.74 1027.86 L1955.67 1374.57 L1976.6 1426.71 L1997.53 189.947 L2018.47 87.9763 L2039.4 770.979 L2060.33 391.703 L2081.26 760.456 L2102.2 998.327 L2123.13 857.462 L2144.06 523.221 L2164.99 1344.48 L2185.92 522.428 L2206.86 191.962 L2227.79 631.071 L2248.72 652.062 L2269.65 610.801 L2290.59 1229.09 L2290.59 1445.72 L2269.65 1445.72 L2248.72 1445.72 L2227.79 1445.72 L2206.86 1445.72 L2185.92 1445.72 L2164.99 1445.72 L2144.06 1445.72 L2123.13 1445.72 L2102.2 1445.72 L2081.26 1445.72 L2060.33 1445.72 L2039.4 1445.72 L2018.47 1445.72 L1997.53 1445.72 L1976.6 1445.72 L1955.67 1445.72 L1934.74 1445.72 L1913.8 1445.72 L1892.87 1445.72 L1871.94 1445.72 L1851.01 1445.72 L1830.07 1445.72 L1809.14 1445.72 L1788.21 1445.72 L1767.28 1445.72 L1746.34 1445.72 L1725.41 1445.72 L1704.48 1445.72 L1683.55 1445.72 L1662.62 1445.72 L1641.68 1445.72 L1620.75 1445.72 L1599.82 1445.72 L1578.89 1445.72 L1557.95 1445.72 L1537.02 1445.72 L1516.09 1445.72 L1495.16 1445.72 L1474.22 1445.72 L1453.29 1445.72 L1432.36 1445.72 L1411.43 1445.72 L1390.49 1445.72 L1369.56 1445.72 L1348.63 1445.72 L1327.7 1445.72 L1306.76 1445.72 L1285.83 1445.72 L1264.9 1445.72 L1243.97 1445.72 L1223.04 1445.72 L1202.1 1445.72 L1181.17 1445.72 L1160.24 1445.72 L1139.31 1445.72 L1118.37 1445.72 L1097.44 1445.72 L1076.51 1445.72 L1055.58 1445.72 L1034.64 1445.72 L1013.71 1445.72 L992.779 1445.72 L971.847 1445.72 L950.915 1445.72 L929.982 1445.72 L909.05 1445.72 L888.117 1445.72 L867.185 1445.72 L846.253 1445.72 L825.32 1445.72 L804.388 1445.72 L783.456 1445.72 L762.523 1445.72 L741.591 1445.72 L720.658 1445.72 L699.726 1445.72 L678.794 1445.72 L657.861 1445.72 L636.929 1445.72 L615.996 1445.72 L595.064 1445.72 L574.132 1445.72 L553.199 1445.72 L532.267 1445.72 L511.335 1445.72 L490.402 1445.72 L469.47 1445.72 L448.537 1445.72 L427.605 1445.72 L406.673 1445.72 L385.74 1445.72 L364.808 1445.72 L343.876 1445.72 L322.943 1445.72 L302.011 1445.72 L281.078 1445.72 L260.146 1445.72 L239.214 1445.72 L218.281 1445.72  Z" fill="#008000" fill-rule="evenodd" fill-opacity="1"/>
<polyline clip-path="url(#clip942)" style="stroke:#009af9; stroke-linecap:round; stroke-linejoin:round; stroke-width:4; stroke-opacity:1; fill:none" points="218.281,595.464 239.214,548.57 260.146,360.714 281.078,542.029 302.011,760.825 322.943,403.587 343.876,1349.19 364.808,1364.31 385.74,339.781 406.673,241.234 427.605,479.881 448.537,357.819 469.47,743.379 490.402,901.397 511.335,913.492 532.267,693.029 553.199,1174.47 574.132,1031.46 595.064,1335.63 615.996,1316.99 636.929,667.128 657.861,1389.07 678.794,581.893 699.726,1336.97 720.658,649.961 741.591,1270.32 762.523,744.316 783.456,745.096 804.388,1121.73 825.32,1398.66 846.253,961.758 867.185,624.029 888.117,923.193 909.05,485.466 929.982,1345.98 950.915,129.547 971.847,945.629 992.779,1362.75 1013.71,1163.34 1034.64,743.682 1055.58,887.17 1076.51,1077.8 1097.44,389.84 1118.37,738.566 1139.31,1081.41 1160.24,535.707 1181.17,1023.66 1202.1,1103.85 1223.04,170.877 1243.97,498.646 1264.9,850.871 1285.83,897.774 1306.76,1249.99 1327.7,290.998 1348.63,392.892 1369.56,388.231 1390.49,1099.97 1411.43,422.481 1432.36,635.887 1453.29,930.78 1474.22,813.495 1495.16,758.936 1516.09,422.99 1537.02,1333.43 1557.95,298.955 1578.89,1413.82 1599.82,533.035 1620.75,397.427 1641.68,659.593 1662.62,431.762 1683.55,555.694 1704.48,977.807 1725.41,1331.52 1746.34,431.795 1767.28,288.18 1788.21,1035.62 1809.14,579.772 1830.07,933.551 1851.01,821.721 1871.94,1187.65 1892.87,478.87 1913.8,1253.48 1934.74,1027.86 1955.67,1374.57 1976.6,1426.71 1997.53,189.947 2018.47,87.9763 2039.4,770.979 2060.33,391.703 2081.26,760.456 2102.2,998.327 2123.13,857.462 2144.06,523.221 2164.99,1344.48 2185.92,522.428 2206.86,191.962 2227.79,631.071 2248.72,652.062 2269.65,610.801 2290.59,1229.09 "/>
<polyline clip-path="url(#clip942)" style="stroke:#009af9; stroke-linecap:round; stroke-linejoin:round; stroke-width:4; stroke-opacity:1; fill:none" points="218.281,828.862 2290.59,755.965 "/>
<path clip-path="url(#clip940)" d="M229.334 198.898 L501.428 198.898 L501.428 95.2176 L229.334 95.2176  Z" fill="#ffffff" fill-rule="evenodd" fill-opacity="1"/>
<polyline clip-path="url(#clip940)" style="stroke:#000000; stroke-linecap:round; stroke-linejoin:round; stroke-width:4; stroke-opacity:1; fill:none" points="229.334,198.898 501.428,198.898 501.428,95.2176 229.334,95.2176 229.334,198.898 "/>
<path clip-path="url(#clip940)" d="M253.741 167.794 L400.184 167.794 L400.184 126.322 L253.741 126.322 L253.741 167.794  Z" fill="#008000" fill-rule="evenodd" fill-opacity="1"/>
<polyline clip-path="url(#clip940)" style="stroke:#009af9; stroke-linecap:round; stroke-linejoin:round; stroke-width:4; stroke-opacity:1; fill:none" points="253.741,126.322 400.184,126.322 "/>
<path clip-path="url(#clip940)" d="M438.433 166.745 Q436.628 171.375 434.915 172.787 Q433.202 174.199 430.332 174.199 L426.929 174.199 L426.929 170.634 L429.429 170.634 Q431.188 170.634 432.16 169.8 Q433.132 168.967 434.313 165.865 L435.077 163.921 L424.591 138.412 L429.105 138.412 L437.206 158.689 L445.308 138.412 L449.822 138.412 L438.433 166.745 Z" fill="#000000" fill-rule="nonzero" fill-opacity="1" /><path clip-path="url(#clip940)" d="M457.114 160.402 L464.753 160.402 L464.753 134.037 L456.442 135.703 L456.442 131.444 L464.706 129.778 L469.382 129.778 L469.382 160.402 L477.021 160.402 L477.021 164.338 L457.114 164.338 L457.114 160.402 Z" fill="#000000" fill-rule="nonzero" fill-opacity="1" /></svg>
