<?xml version="1.0" encoding="utf-8"?>
<svg xmlns="http://www.w3.org/2000/svg" xmlns:xlink="http://www.w3.org/1999/xlink" width="600" height="400" viewBox="0 0 2400 1600">
<defs>
  <clipPath id="clip300">
    <rect x="0" y="0" width="2400" height="1600"/>
  </clipPath>
</defs>
<path clip-path="url(#clip300)" d="M0 1600 L2400 1600 L2400 0 L0 0  Z" fill="#ffffff" fill-rule="evenodd" fill-opacity="1"/>
<defs>
  <clipPath id="clip301">
    <rect x="480" y="0" width="1681" height="1600"/>
  </clipPath>
</defs>
<path clip-path="url(#clip300)" d="M193.936 1486.45 L1193.64 1486.45 L1193.64 47.2441 L193.936 47.2441  Z" fill="#ffffff" fill-rule="evenodd" fill-opacity="1"/>
<defs>
  <clipPath id="clip302">
    <rect x="193" y="47" width="1001" height="1440"/>
  </clipPath>
</defs>
<polyline clip-path="url(#clip302)" style="stroke:#000000; stroke-linecap:round; stroke-linejoin:round; stroke-width:2; stroke-opacity:0.1; fill:none" points="194.448,1486.45 194.448,47.2441 "/>
<polyline clip-path="url(#clip302)" style="stroke:#000000; stroke-linecap:round; stroke-linejoin:round; stroke-width:2; stroke-opacity:0.1; fill:none" points="421.42,1486.45 421.42,47.2441 "/>
<polyline clip-path="url(#clip302)" style="stroke:#000000; stroke-linecap:round; stroke-linejoin:round; stroke-width:2; stroke-opacity:0.1; fill:none" points="648.391,1486.45 648.391,47.2441 "/>
<polyline clip-path="url(#clip302)" style="stroke:#000000; stroke-linecap:round; stroke-linejoin:round; stroke-width:2; stroke-opacity:0.1; fill:none" points="875.363,1486.45 875.363,47.2441 "/>
<polyline clip-path="url(#clip302)" style="stroke:#000000; stroke-linecap:round; stroke-linejoin:round; stroke-width:2; stroke-opacity:0.1; fill:none" points="1102.33,1486.45 1102.33,47.2441 "/>
<polyline clip-path="url(#clip302)" style="stroke:#000000; stroke-linecap:round; stroke-linejoin:round; stroke-width:2; stroke-opacity:0.1; fill:none" points="193.936,1277.89 1193.64,1277.89 "/>
<polyline clip-path="url(#clip302)" style="stroke:#000000; stroke-linecap:round; stroke-linejoin:round; stroke-width:2; stroke-opacity:0.1; fill:none" points="193.936,1022.05 1193.64,1022.05 "/>
<polyline clip-path="url(#clip302)" style="stroke:#000000; stroke-linecap:round; stroke-linejoin:round; stroke-width:2; stroke-opacity:0.1; fill:none" points="193.936,766.215 1193.64,766.215 "/>
<polyline clip-path="url(#clip302)" style="stroke:#000000; stroke-linecap:round; stroke-linejoin:round; stroke-width:2; stroke-opacity:0.1; fill:none" points="193.936,510.379 1193.64,510.379 "/>
<polyline clip-path="url(#clip302)" style="stroke:#000000; stroke-linecap:round; stroke-linejoin:round; stroke-width:2; stroke-opacity:0.1; fill:none" points="193.936,254.543 1193.64,254.543 "/>
<polyline clip-path="url(#clip300)" style="stroke:#000000; stroke-linecap:round; stroke-linejoin:round; stroke-width:4; stroke-opacity:1; fill:none" points="193.936,1486.45 1193.64,1486.45 "/>
<polyline clip-path="url(#clip300)" style="stroke:#000000; stroke-linecap:round; stroke-linejoin:round; stroke-width:4; stroke-opacity:1; fill:none" points="194.448,1486.45 194.448,1467.55 "/>
<polyline clip-path="url(#clip300)" style="stroke:#000000; stroke-linecap:round; stroke-linejoin:round; stroke-width:4; stroke-opacity:1; fill:none" points="421.42,1486.45 421.42,1467.55 "/>
<polyline clip-path="url(#clip300)" style="stroke:#000000; stroke-linecap:round; stroke-linejoin:round; stroke-width:4; stroke-opacity:1; fill:none" points="648.391,1486.45 648.391,1467.55 "/>
<polyline clip-path="url(#clip300)" style="stroke:#000000; stroke-linecap:round; stroke-linejoin:round; stroke-width:4; stroke-opacity:1; fill:none" points="875.363,1486.45 875.363,1467.55 "/>
<polyline clip-path="url(#clip300)" style="stroke:#000000; stroke-linecap:round; stroke-linejoin:round; stroke-width:4; stroke-opacity:1; fill:none" points="1102.33,1486.45 1102.33,1467.55 "/>
<path clip-path="url(#clip300)" d="M171.832 1517.37 Q168.221 1517.37 166.393 1520.93 Q164.587 1524.47 164.587 1531.6 Q164.587 1538.71 166.393 1542.27 Q168.221 1545.82 171.832 1545.82 Q175.467 1545.82 177.272 1542.27 Q179.101 1538.71 179.101 1531.6 Q179.101 1524.47 177.272 1520.93 Q175.467 1517.37 171.832 1517.37 M171.832 1513.66 Q177.643 1513.66 180.698 1518.27 Q183.777 1522.85 183.777 1531.6 Q183.777 1540.33 180.698 1544.94 Q177.643 1549.52 171.832 1549.52 Q166.022 1549.52 162.944 1544.94 Q159.888 1540.33 159.888 1531.6 Q159.888 1522.85 162.944 1518.27 Q166.022 1513.66 171.832 1513.66 Z" fill="#000000" fill-rule="nonzero" fill-opacity="1" /><path clip-path="url(#clip300)" d="M191.994 1542.97 L196.879 1542.97 L196.879 1548.85 L191.994 1548.85 L191.994 1542.97 Z" fill="#000000" fill-rule="nonzero" fill-opacity="1" /><path clip-path="url(#clip300)" d="M217.064 1517.37 Q213.453 1517.37 211.624 1520.93 Q209.818 1524.47 209.818 1531.6 Q209.818 1538.71 211.624 1542.27 Q213.453 1545.82 217.064 1545.82 Q220.698 1545.82 222.503 1542.27 Q224.332 1538.71 224.332 1531.6 Q224.332 1524.47 222.503 1520.93 Q220.698 1517.37 217.064 1517.37 M217.064 1513.66 Q222.874 1513.66 225.929 1518.27 Q229.008 1522.85 229.008 1531.6 Q229.008 1540.33 225.929 1544.94 Q222.874 1549.52 217.064 1549.52 Q211.254 1549.52 208.175 1544.94 Q205.119 1540.33 205.119 1531.6 Q205.119 1522.85 208.175 1518.27 Q211.254 1513.66 217.064 1513.66 Z" fill="#000000" fill-rule="nonzero" fill-opacity="1" /><path clip-path="url(#clip300)" d="M393.156 1544.91 L409.475 1544.91 L409.475 1548.85 L387.531 1548.85 L387.531 1544.91 Q390.193 1542.16 394.776 1537.53 Q399.383 1532.88 400.563 1531.53 Q402.809 1529.01 403.688 1527.27 Q404.591 1525.51 404.591 1523.82 Q404.591 1521.07 402.647 1519.33 Q400.725 1517.6 397.624 1517.6 Q395.424 1517.6 392.971 1518.36 Q390.54 1519.13 387.762 1520.68 L387.762 1515.95 Q390.587 1514.82 393.04 1514.24 Q395.494 1513.66 397.531 1513.66 Q402.901 1513.66 406.096 1516.35 Q409.29 1519.03 409.29 1523.52 Q409.29 1525.65 408.48 1527.57 Q407.693 1529.47 405.586 1532.07 Q405.008 1532.74 401.906 1535.95 Q398.804 1539.15 393.156 1544.91 Z" fill="#000000" fill-rule="nonzero" fill-opacity="1" /><path clip-path="url(#clip300)" d="M419.29 1542.97 L424.174 1542.97 L424.174 1548.85 L419.29 1548.85 L419.29 1542.97 Z" fill="#000000" fill-rule="nonzero" fill-opacity="1" /><path clip-path="url(#clip300)" d="M434.406 1514.29 L452.762 1514.29 L452.762 1518.22 L438.688 1518.22 L438.688 1526.7 Q439.707 1526.35 440.725 1526.19 Q441.744 1526 442.762 1526 Q448.549 1526 451.929 1529.17 Q455.308 1532.34 455.308 1537.76 Q455.308 1543.34 451.836 1546.44 Q448.364 1549.52 442.045 1549.52 Q439.869 1549.52 437.6 1549.15 Q435.355 1548.78 432.947 1548.04 L432.947 1543.34 Q435.031 1544.47 437.253 1545.03 Q439.475 1545.58 441.952 1545.58 Q445.957 1545.58 448.295 1543.48 Q450.632 1541.37 450.632 1537.76 Q450.632 1534.15 448.295 1532.04 Q445.957 1529.94 441.952 1529.94 Q440.077 1529.94 438.202 1530.35 Q436.35 1530.77 434.406 1531.65 L434.406 1514.29 Z" fill="#000000" fill-rule="nonzero" fill-opacity="1" /><path clip-path="url(#clip300)" d="M615.556 1514.29 L633.912 1514.29 L633.912 1518.22 L619.838 1518.22 L619.838 1526.7 Q620.857 1526.35 621.875 1526.19 Q622.894 1526 623.912 1526 Q629.699 1526 633.079 1529.17 Q636.459 1532.34 636.459 1537.76 Q636.459 1543.34 632.986 1546.44 Q629.514 1549.52 623.195 1549.52 Q621.019 1549.52 618.75 1549.15 Q616.505 1548.78 614.098 1548.04 L614.098 1543.34 Q616.181 1544.47 618.403 1545.03 Q620.625 1545.58 623.102 1545.58 Q627.107 1545.58 629.445 1543.48 Q631.783 1541.37 631.783 1537.76 Q631.783 1534.15 629.445 1532.04 Q627.107 1529.94 623.102 1529.94 Q621.227 1529.94 619.352 1530.35 Q617.5 1530.77 615.556 1531.65 L615.556 1514.29 Z" fill="#000000" fill-rule="nonzero" fill-opacity="1" /><path clip-path="url(#clip300)" d="M645.671 1542.97 L650.556 1542.97 L650.556 1548.85 L645.671 1548.85 L645.671 1542.97 Z" fill="#000000" fill-rule="nonzero" fill-opacity="1" /><path clip-path="url(#clip300)" d="M670.741 1517.37 Q667.13 1517.37 665.301 1520.93 Q663.495 1524.47 663.495 1531.6 Q663.495 1538.71 665.301 1542.27 Q667.13 1545.82 670.741 1545.82 Q674.375 1545.82 676.181 1542.27 Q678.009 1538.71 678.009 1531.6 Q678.009 1524.47 676.181 1520.93 Q674.375 1517.37 670.741 1517.37 M670.741 1513.66 Q676.551 1513.66 679.606 1518.27 Q682.685 1522.85 682.685 1531.6 Q682.685 1540.33 679.606 1544.94 Q676.551 1549.52 670.741 1549.52 Q664.931 1549.52 661.852 1544.94 Q658.796 1540.33 658.796 1531.6 Q658.796 1522.85 661.852 1518.27 Q664.931 1513.66 670.741 1513.66 Z" fill="#000000" fill-rule="nonzero" fill-opacity="1" /><path clip-path="url(#clip300)" d="M841.683 1514.29 L863.905 1514.29 L863.905 1516.28 L851.358 1548.85 L846.474 1548.85 L858.28 1518.22 L841.683 1518.22 L841.683 1514.29 Z" fill="#000000" fill-rule="nonzero" fill-opacity="1" /><path clip-path="url(#clip300)" d="M873.025 1542.97 L877.909 1542.97 L877.909 1548.85 L873.025 1548.85 L873.025 1542.97 Z" fill="#000000" fill-rule="nonzero" fill-opacity="1" /><path clip-path="url(#clip300)" d="M888.141 1514.29 L906.497 1514.29 L906.497 1518.22 L892.423 1518.22 L892.423 1526.7 Q893.442 1526.35 894.46 1526.19 Q895.479 1526 896.497 1526 Q902.284 1526 905.664 1529.17 Q909.043 1532.34 909.043 1537.76 Q909.043 1543.34 905.571 1546.44 Q902.099 1549.52 895.78 1549.52 Q893.604 1549.52 891.335 1549.15 Q889.09 1548.78 886.682 1548.04 L886.682 1543.34 Q888.766 1544.47 890.988 1545.03 Q893.21 1545.58 895.687 1545.58 Q899.692 1545.58 902.029 1543.48 Q904.367 1541.37 904.367 1537.76 Q904.367 1534.15 902.029 1532.04 Q899.692 1529.94 895.687 1529.94 Q893.812 1529.94 891.937 1530.35 Q890.085 1530.77 888.141 1531.65 L888.141 1514.29 Z" fill="#000000" fill-rule="nonzero" fill-opacity="1" /><path clip-path="url(#clip300)" d="M1054.41 1544.91 L1062.05 1544.91 L1062.05 1518.55 L1053.74 1520.21 L1053.74 1515.95 L1062 1514.29 L1066.68 1514.29 L1066.68 1544.91 L1074.31 1544.91 L1074.31 1548.85 L1054.41 1548.85 L1054.41 1544.91 Z" fill="#000000" fill-rule="nonzero" fill-opacity="1" /><path clip-path="url(#clip300)" d="M1093.76 1517.37 Q1090.15 1517.37 1088.32 1520.93 Q1086.51 1524.47 1086.51 1531.6 Q1086.51 1538.71 1088.32 1542.27 Q1090.15 1545.82 1093.76 1545.82 Q1097.39 1545.82 1099.2 1542.27 Q1101.03 1538.71 1101.03 1531.6 Q1101.03 1524.47 1099.2 1520.93 Q1097.39 1517.37 1093.76 1517.37 M1093.76 1513.66 Q1099.57 1513.66 1102.62 1518.27 Q1105.7 1522.85 1105.7 1531.6 Q1105.7 1540.33 1102.62 1544.94 Q1099.57 1549.52 1093.76 1549.52 Q1087.95 1549.52 1084.87 1544.94 Q1081.81 1540.33 1081.81 1531.6 Q1081.81 1522.85 1084.87 1518.27 Q1087.95 1513.66 1093.76 1513.66 Z" fill="#000000" fill-rule="nonzero" fill-opacity="1" /><path clip-path="url(#clip300)" d="M1113.92 1542.97 L1118.8 1542.97 L1118.8 1548.85 L1113.92 1548.85 L1113.92 1542.97 Z" fill="#000000" fill-rule="nonzero" fill-opacity="1" /><path clip-path="url(#clip300)" d="M1138.99 1517.37 Q1135.38 1517.37 1133.55 1520.93 Q1131.74 1524.47 1131.74 1531.6 Q1131.74 1538.71 1133.55 1542.27 Q1135.38 1545.82 1138.99 1545.82 Q1142.62 1545.82 1144.43 1542.27 Q1146.26 1538.71 1146.26 1531.6 Q1146.26 1524.47 1144.43 1520.93 Q1142.62 1517.37 1138.99 1517.37 M1138.99 1513.66 Q1144.8 1513.66 1147.86 1518.27 Q1150.93 1522.85 1150.93 1531.6 Q1150.93 1540.33 1147.86 1544.94 Q1144.8 1549.52 1138.99 1549.52 Q1133.18 1549.52 1130.1 1544.94 Q1127.05 1540.33 1127.05 1531.6 Q1127.05 1522.85 1130.1 1518.27 Q1133.18 1513.66 1138.99 1513.66 Z" fill="#000000" fill-rule="nonzero" fill-opacity="1" /><polyline clip-path="url(#clip300)" style="stroke:#000000; stroke-linecap:round; stroke-linejoin:round; stroke-width:4; stroke-opacity:1; fill:none" points="193.936,1486.45 193.936,47.2441 "/>
<polyline clip-path="url(#clip300)" style="stroke:#000000; stroke-linecap:round; stroke-linejoin:round; stroke-width:4; stroke-opacity:1; fill:none" points="193.936,1277.89 212.834,1277.89 "/>
<polyline clip-path="url(#clip300)" style="stroke:#000000; stroke-linecap:round; stroke-linejoin:round; stroke-width:4; stroke-opacity:1; fill:none" points="193.936,1022.05 212.834,1022.05 "/>
<polyline clip-path="url(#clip300)" style="stroke:#000000; stroke-linecap:round; stroke-linejoin:round; stroke-width:4; stroke-opacity:1; fill:none" points="193.936,766.215 212.834,766.215 "/>
<polyline clip-path="url(#clip300)" style="stroke:#000000; stroke-linecap:round; stroke-linejoin:round; stroke-width:4; stroke-opacity:1; fill:none" points="193.936,510.379 212.834,510.379 "/>
<polyline clip-path="url(#clip300)" style="stroke:#000000; stroke-linecap:round; stroke-linejoin:round; stroke-width:4; stroke-opacity:1; fill:none" points="193.936,254.543 212.834,254.543 "/>
<path clip-path="url(#clip300)" d="M51.9875 1278.34 L81.6633 1278.34 L81.6633 1282.27 L51.9875 1282.27 L51.9875 1278.34 Z" fill="#000000" fill-rule="nonzero" fill-opacity="1" /><path clip-path="url(#clip300)" d="M92.566 1291.23 L100.205 1291.23 L100.205 1264.87 L91.8947 1266.53 L91.8947 1262.27 L100.159 1260.61 L104.834 1260.61 L104.834 1291.23 L112.473 1291.23 L112.473 1295.17 L92.566 1295.17 L92.566 1291.23 Z" fill="#000000" fill-rule="nonzero" fill-opacity="1" /><path clip-path="url(#clip300)" d="M121.918 1289.29 L126.802 1289.29 L126.802 1295.17 L121.918 1295.17 L121.918 1289.29 Z" fill="#000000" fill-rule="nonzero" fill-opacity="1" /><path clip-path="url(#clip300)" d="M137.033 1260.61 L155.39 1260.61 L155.39 1264.54 L141.316 1264.54 L141.316 1273.01 Q142.334 1272.67 143.353 1272.51 Q144.371 1272.32 145.39 1272.32 Q151.177 1272.32 154.556 1275.49 Q157.936 1278.66 157.936 1284.08 Q157.936 1289.66 154.464 1292.76 Q150.992 1295.84 144.672 1295.84 Q142.496 1295.84 140.228 1295.47 Q137.982 1295.1 135.575 1294.36 L135.575 1289.66 Q137.658 1290.79 139.881 1291.35 Q142.103 1291.9 144.58 1291.9 Q148.584 1291.9 150.922 1289.8 Q153.26 1287.69 153.26 1284.08 Q153.26 1280.47 150.922 1278.36 Q148.584 1276.26 144.58 1276.26 Q142.705 1276.26 140.83 1276.67 Q138.978 1277.09 137.033 1277.97 L137.033 1260.61 Z" fill="#000000" fill-rule="nonzero" fill-opacity="1" /><path clip-path="url(#clip300)" d="M50.9921 1022.5 L80.6679 1022.5 L80.6679 1026.44 L50.9921 1026.44 L50.9921 1022.5 Z" fill="#000000" fill-rule="nonzero" fill-opacity="1" /><path clip-path="url(#clip300)" d="M91.5706 1035.4 L99.2095 1035.4 L99.2095 1009.03 L90.8993 1010.7 L90.8993 1006.44 L99.1632 1004.77 L103.839 1004.77 L103.839 1035.4 L111.478 1035.4 L111.478 1039.33 L91.5706 1039.33 L91.5706 1035.4 Z" fill="#000000" fill-rule="nonzero" fill-opacity="1" /><path clip-path="url(#clip300)" d="M120.922 1033.45 L125.807 1033.45 L125.807 1039.33 L120.922 1039.33 L120.922 1033.45 Z" fill="#000000" fill-rule="nonzero" fill-opacity="1" /><path clip-path="url(#clip300)" d="M145.992 1007.85 Q142.381 1007.85 140.552 1011.41 Q138.746 1014.96 138.746 1022.09 Q138.746 1029.19 140.552 1032.76 Q142.381 1036.3 145.992 1036.3 Q149.626 1036.3 151.431 1032.76 Q153.26 1029.19 153.26 1022.09 Q153.26 1014.96 151.431 1011.41 Q149.626 1007.85 145.992 1007.85 M145.992 1004.15 Q151.802 1004.15 154.857 1008.75 Q157.936 1013.34 157.936 1022.09 Q157.936 1030.81 154.857 1035.42 Q151.802 1040 145.992 1040 Q140.181 1040 137.103 1035.42 Q134.047 1030.81 134.047 1022.09 Q134.047 1013.34 137.103 1008.75 Q140.181 1004.15 145.992 1004.15 Z" fill="#000000" fill-rule="nonzero" fill-opacity="1" /><path clip-path="url(#clip300)" d="M51.9875 766.666 L81.6633 766.666 L81.6633 770.601 L51.9875 770.601 L51.9875 766.666 Z" fill="#000000" fill-rule="nonzero" fill-opacity="1" /><path clip-path="url(#clip300)" d="M101.756 752.014 Q98.1447 752.014 96.316 755.578 Q94.5104 759.12 94.5104 766.25 Q94.5104 773.356 96.316 776.921 Q98.1447 780.462 101.756 780.462 Q105.39 780.462 107.196 776.921 Q109.024 773.356 109.024 766.25 Q109.024 759.12 107.196 755.578 Q105.39 752.014 101.756 752.014 M101.756 748.31 Q107.566 748.31 110.621 752.916 Q113.7 757.5 113.7 766.25 Q113.7 774.976 110.621 779.583 Q107.566 784.166 101.756 784.166 Q95.9456 784.166 92.8669 779.583 Q89.8114 774.976 89.8114 766.25 Q89.8114 757.5 92.8669 752.916 Q95.9456 748.31 101.756 748.31 Z" fill="#000000" fill-rule="nonzero" fill-opacity="1" /><path clip-path="url(#clip300)" d="M121.918 777.615 L126.802 777.615 L126.802 783.495 L121.918 783.495 L121.918 777.615 Z" fill="#000000" fill-rule="nonzero" fill-opacity="1" /><path clip-path="url(#clip300)" d="M137.033 748.935 L155.39 748.935 L155.39 752.87 L141.316 752.87 L141.316 761.342 Q142.334 760.995 143.353 760.833 Q144.371 760.648 145.39 760.648 Q151.177 760.648 154.556 763.819 Q157.936 766.99 157.936 772.407 Q157.936 777.986 154.464 781.087 Q150.992 784.166 144.672 784.166 Q142.496 784.166 140.228 783.796 Q137.982 783.425 135.575 782.685 L135.575 777.986 Q137.658 779.12 139.881 779.675 Q142.103 780.231 144.58 780.231 Q148.584 780.231 150.922 778.125 Q153.26 776.018 153.26 772.407 Q153.26 768.796 150.922 766.689 Q148.584 764.583 144.58 764.583 Q142.705 764.583 140.83 765 Q138.978 765.416 137.033 766.296 L137.033 748.935 Z" fill="#000000" fill-rule="nonzero" fill-opacity="1" /><path clip-path="url(#clip300)" d="M100.76 496.178 Q97.1493 496.178 95.3206 499.742 Q93.515 503.284 93.515 510.414 Q93.515 517.52 95.3206 521.085 Q97.1493 524.626 100.76 524.626 Q104.395 524.626 106.2 521.085 Q108.029 517.52 108.029 510.414 Q108.029 503.284 106.2 499.742 Q104.395 496.178 100.76 496.178 M100.76 492.474 Q106.571 492.474 109.626 497.08 Q112.705 501.664 112.705 510.414 Q112.705 519.14 109.626 523.747 Q106.571 528.33 100.76 528.33 Q94.9502 528.33 91.8715 523.747 Q88.816 519.14 88.816 510.414 Q88.816 501.664 91.8715 497.08 Q94.9502 492.474 100.76 492.474 Z" fill="#000000" fill-rule="nonzero" fill-opacity="1" /><path clip-path="url(#clip300)" d="M120.922 521.779 L125.807 521.779 L125.807 527.659 L120.922 527.659 L120.922 521.779 Z" fill="#000000" fill-rule="nonzero" fill-opacity="1" /><path clip-path="url(#clip300)" d="M145.992 496.178 Q142.381 496.178 140.552 499.742 Q138.746 503.284 138.746 510.414 Q138.746 517.52 140.552 521.085 Q142.381 524.626 145.992 524.626 Q149.626 524.626 151.431 521.085 Q153.26 517.52 153.26 510.414 Q153.26 503.284 151.431 499.742 Q149.626 496.178 145.992 496.178 M145.992 492.474 Q151.802 492.474 154.857 497.08 Q157.936 501.664 157.936 510.414 Q157.936 519.14 154.857 523.747 Q151.802 528.33 145.992 528.33 Q140.181 528.33 137.103 523.747 Q134.047 519.14 134.047 510.414 Q134.047 501.664 137.103 497.08 Q140.181 492.474 145.992 492.474 Z" fill="#000000" fill-rule="nonzero" fill-opacity="1" /><path clip-path="url(#clip300)" d="M101.756 240.341 Q98.1447 240.341 96.316 243.906 Q94.5104 247.448 94.5104 254.578 Q94.5104 261.684 96.316 265.249 Q98.1447 268.79 101.756 268.79 Q105.39 268.79 107.196 265.249 Q109.024 261.684 109.024 254.578 Q109.024 247.448 107.196 243.906 Q105.39 240.341 101.756 240.341 M101.756 236.638 Q107.566 236.638 110.621 241.244 Q113.7 245.828 113.7 254.578 Q113.7 263.304 110.621 267.911 Q107.566 272.494 101.756 272.494 Q95.9456 272.494 92.8669 267.911 Q89.8114 263.304 89.8114 254.578 Q89.8114 245.828 92.8669 241.244 Q95.9456 236.638 101.756 236.638 Z" fill="#000000" fill-rule="nonzero" fill-opacity="1" /><path clip-path="url(#clip300)" d="M121.918 265.943 L126.802 265.943 L126.802 271.823 L121.918 271.823 L121.918 265.943 Z" fill="#000000" fill-rule="nonzero" fill-opacity="1" /><path clip-path="url(#clip300)" d="M137.033 237.263 L155.39 237.263 L155.39 241.198 L141.316 241.198 L141.316 249.67 Q142.334 249.323 143.353 249.161 Q144.371 248.976 145.39 248.976 Q151.177 248.976 154.556 252.147 Q157.936 255.318 157.936 260.735 Q157.936 266.314 154.464 269.415 Q150.992 272.494 144.672 272.494 Q142.496 272.494 140.228 272.124 Q137.982 271.753 135.575 271.013 L135.575 266.314 Q137.658 267.448 139.881 268.003 Q142.103 268.559 144.58 268.559 Q148.584 268.559 150.922 266.452 Q153.26 264.346 153.26 260.735 Q153.26 257.124 150.922 255.017 Q148.584 252.911 144.58 252.911 Q142.705 252.911 140.83 253.328 Q138.978 253.744 137.033 254.624 L137.033 237.263 Z" fill="#000000" fill-rule="nonzero" fill-opacity="1" /><path clip-path="url(#clip302)" d="M248.921 244.568 L248.921 510.379 L321.552 510.379 L321.552 244.568 L248.921 244.568 L248.921 244.568  Z" fill="#009af9" fill-rule="evenodd" fill-opacity="1"/>
<polyline clip-path="url(#clip302)" style="stroke:#000000; stroke-linecap:round; stroke-linejoin:round; stroke-width:4; stroke-opacity:1; fill:none" points="248.921,244.568 248.921,510.379 321.552,510.379 321.552,244.568 248.921,244.568 "/>
<path clip-path="url(#clip302)" d="M339.71 47.2441 L339.71 510.379 L412.341 510.379 L412.341 47.2441 L339.71 47.2441 L339.71 47.2441  Z" fill="#009af9" fill-rule="evenodd" fill-opacity="1"/>
<polyline clip-path="url(#clip302)" style="stroke:#000000; stroke-linecap:round; stroke-linejoin:round; stroke-width:4; stroke-opacity:1; fill:none" points="339.71,47.2441 339.71,510.379 412.341,510.379 412.341,47.2441 339.71,47.2441 "/>
<path clip-path="url(#clip302)" d="M430.499 1367.77 L430.499 510.379 L503.129 510.379 L503.129 1367.77 L430.499 1367.77 L430.499 1367.77  Z" fill="#009af9" fill-rule="evenodd" fill-opacity="1"/>
<polyline clip-path="url(#clip302)" style="stroke:#000000; stroke-linecap:round; stroke-linejoin:round; stroke-width:4; stroke-opacity:1; fill:none" points="430.499,1367.77 430.499,510.379 503.129,510.379 503.129,1367.77 430.499,1367.77 "/>
<path clip-path="url(#clip302)" d="M521.287 1172.86 L521.287 510.379 L593.918 510.379 L593.918 1172.86 L521.287 1172.86 L521.287 1172.86  Z" fill="#009af9" fill-rule="evenodd" fill-opacity="1"/>
<polyline clip-path="url(#clip302)" style="stroke:#000000; stroke-linecap:round; stroke-linejoin:round; stroke-width:4; stroke-opacity:1; fill:none" points="521.287,1172.86 521.287,510.379 593.918,510.379 593.918,1172.86 521.287,1172.86 "/>
<path clip-path="url(#clip302)" d="M612.076 860.55 L612.076 510.379 L684.707 510.379 L684.707 860.55 L612.076 860.55 L612.076 860.55  Z" fill="#009af9" fill-rule="evenodd" fill-opacity="1"/>
<polyline clip-path="url(#clip302)" style="stroke:#000000; stroke-linecap:round; stroke-linejoin:round; stroke-width:4; stroke-opacity:1; fill:none" points="612.076,860.55 612.076,510.379 684.707,510.379 684.707,860.55 612.076,860.55 "/>
<path clip-path="url(#clip302)" d="M702.865 861.463 L702.865 510.379 L775.495 510.379 L775.495 861.463 L702.865 861.463 L702.865 861.463  Z" fill="#009af9" fill-rule="evenodd" fill-opacity="1"/>
<polyline clip-path="url(#clip302)" style="stroke:#000000; stroke-linecap:round; stroke-linejoin:round; stroke-width:4; stroke-opacity:1; fill:none" points="702.865,861.463 702.865,510.379 775.495,510.379 775.495,861.463 702.865,861.463 "/>
<path clip-path="url(#clip302)" d="M793.653 463.184 L793.653 510.379 L866.284 510.379 L866.284 463.184 L793.653 463.184 L793.653 463.184  Z" fill="#009af9" fill-rule="evenodd" fill-opacity="1"/>
<polyline clip-path="url(#clip302)" style="stroke:#000000; stroke-linecap:round; stroke-linejoin:round; stroke-width:4; stroke-opacity:1; fill:none" points="793.653,463.184 793.653,510.379 866.284,510.379 866.284,463.184 793.653,463.184 "/>
<path clip-path="url(#clip302)" d="M884.442 556.244 L884.442 510.379 L957.073 510.379 L957.073 556.244 L884.442 556.244 L884.442 556.244  Z" fill="#009af9" fill-rule="evenodd" fill-opacity="1"/>
<polyline clip-path="url(#clip302)" style="stroke:#000000; stroke-linecap:round; stroke-linejoin:round; stroke-width:4; stroke-opacity:1; fill:none" points="884.442,556.244 884.442,510.379 957.073,510.379 957.073,556.244 884.442,556.244 "/>
<path clip-path="url(#clip302)" d="M975.23 1253.38 L975.23 510.379 L1047.86 510.379 L1047.86 1253.38 L975.23 1253.38 L975.23 1253.38  Z" fill="#009af9" fill-rule="evenodd" fill-opacity="1"/>
<polyline clip-path="url(#clip302)" style="stroke:#000000; stroke-linecap:round; stroke-linejoin:round; stroke-width:4; stroke-opacity:1; fill:none" points="975.23,1253.38 975.23,510.379 1047.86,510.379 1047.86,1253.38 975.23,1253.38 "/>
<path clip-path="url(#clip302)" d="M1066.02 1486.45 L1066.02 510.379 L1138.65 510.379 L1138.65 1486.45 L1066.02 1486.45 L1066.02 1486.45  Z" fill="#009af9" fill-rule="evenodd" fill-opacity="1"/>
<polyline clip-path="url(#clip302)" style="stroke:#000000; stroke-linecap:round; stroke-linejoin:round; stroke-width:4; stroke-opacity:1; fill:none" points="1066.02,1486.45 1066.02,510.379 1138.65,510.379 1138.65,1486.45 1066.02,1486.45 "/>
<circle clip-path="url(#clip302)" style="fill:#009af9; stroke:none; fill-opacity:0" cx="285.237" cy="244.568" r="2"/>
<circle clip-path="url(#clip302)" style="fill:#009af9; stroke:none; fill-opacity:0" cx="376.025" cy="47.2441" r="2"/>
<circle clip-path="url(#clip302)" style="fill:#009af9; stroke:none; fill-opacity:0" cx="466.814" cy="1367.77" r="2"/>
<circle clip-path="url(#clip302)" style="fill:#009af9; stroke:none; fill-opacity:0" cx="557.603" cy="1172.86" r="2"/>
<circle clip-path="url(#clip302)" style="fill:#009af9; stroke:none; fill-opacity:0" cx="648.391" cy="860.55" r="2"/>
<circle clip-path="url(#clip302)" style="fill:#009af9; stroke:none; fill-opacity:0" cx="739.18" cy="861.463" r="2"/>
<circle clip-path="url(#clip302)" style="fill:#009af9; stroke:none; fill-opacity:0" cx="829.969" cy="463.184" r="2"/>
<circle clip-path="url(#clip302)" style="fill:#009af9; stroke:none; fill-opacity:0" cx="920.757" cy="556.244" r="2"/>
<circle clip-path="url(#clip302)" style="fill:#009af9; stroke:none; fill-opacity:0" cx="1011.55" cy="1253.38" r="2"/>
<path clip-path="url(#clip300)" d="M1353.06 1486.45 L2352.76 1486.45 L2352.76 47.2441 L1353.06 47.2441  Z" fill="#ffffff" fill-rule="evenodd" fill-opacity="1"/>
<defs>
  <clipPath id="clip303">
    <rect x="1353" y="47" width="1001" height="1440"/>
  </clipPath>
</defs>
<polyline clip-path="url(#clip303)" style="stroke:#000000; stroke-linecap:round; stroke-linejoin:round; stroke-width:2; stroke-opacity:0.1; fill:none" points="1515.89,1486.45 1515.89,47.2441 "/>
<polyline clip-path="url(#clip303)" style="stroke:#000000; stroke-linecap:round; stroke-linejoin:round; stroke-width:2; stroke-opacity:0.1; fill:none" points="1785.5,1486.45 1785.5,47.2441 "/>
<polyline clip-path="url(#clip303)" style="stroke:#000000; stroke-linecap:round; stroke-linejoin:round; stroke-width:2; stroke-opacity:0.1; fill:none" points="2055.12,1486.45 2055.12,47.2441 "/>
<polyline clip-path="url(#clip303)" style="stroke:#000000; stroke-linecap:round; stroke-linejoin:round; stroke-width:2; stroke-opacity:0.1; fill:none" points="2324.73,1486.45 2324.73,47.2441 "/>
<polyline clip-path="url(#clip303)" style="stroke:#000000; stroke-linecap:round; stroke-linejoin:round; stroke-width:2; stroke-opacity:0.1; fill:none" points="1353.06,1486.45 2352.76,1486.45 "/>
<polyline clip-path="url(#clip303)" style="stroke:#000000; stroke-linecap:round; stroke-linejoin:round; stroke-width:2; stroke-opacity:0.1; fill:none" points="1353.06,1246.58 2352.76,1246.58 "/>
<polyline clip-path="url(#clip303)" style="stroke:#000000; stroke-linecap:round; stroke-linejoin:round; stroke-width:2; stroke-opacity:0.1; fill:none" points="1353.06,1006.71 2352.76,1006.71 "/>
<polyline clip-path="url(#clip303)" style="stroke:#000000; stroke-linecap:round; stroke-linejoin:round; stroke-width:2; stroke-opacity:0.1; fill:none" points="1353.06,766.846 2352.76,766.846 "/>
<polyline clip-path="url(#clip303)" style="stroke:#000000; stroke-linecap:round; stroke-linejoin:round; stroke-width:2; stroke-opacity:0.1; fill:none" points="1353.06,526.979 2352.76,526.979 "/>
<polyline clip-path="url(#clip303)" style="stroke:#000000; stroke-linecap:round; stroke-linejoin:round; stroke-width:2; stroke-opacity:0.1; fill:none" points="1353.06,287.111 2352.76,287.111 "/>
<polyline clip-path="url(#clip303)" style="stroke:#000000; stroke-linecap:round; stroke-linejoin:round; stroke-width:2; stroke-opacity:0.1; fill:none" points="1353.06,47.2441 2352.76,47.2441 "/>
<polyline clip-path="url(#clip300)" style="stroke:#000000; stroke-linecap:round; stroke-linejoin:round; stroke-width:4; stroke-opacity:1; fill:none" points="1353.06,1486.45 2352.76,1486.45 "/>
<polyline clip-path="url(#clip300)" style="stroke:#000000; stroke-linecap:round; stroke-linejoin:round; stroke-width:4; stroke-opacity:1; fill:none" points="1515.89,1486.45 1515.89,1467.55 "/>
<polyline clip-path="url(#clip300)" style="stroke:#000000; stroke-linecap:round; stroke-linejoin:round; stroke-width:4; stroke-opacity:1; fill:none" points="1785.5,1486.45 1785.5,1467.55 "/>
<polyline clip-path="url(#clip300)" style="stroke:#000000; stroke-linecap:round; stroke-linejoin:round; stroke-width:4; stroke-opacity:1; fill:none" points="2055.12,1486.45 2055.12,1467.55 "/>
<polyline clip-path="url(#clip300)" style="stroke:#000000; stroke-linecap:round; stroke-linejoin:round; stroke-width:4; stroke-opacity:1; fill:none" points="2324.73,1486.45 2324.73,1467.55 "/>
<path clip-path="url(#clip300)" d="M1515.89 1517.37 Q1512.28 1517.37 1510.45 1520.93 Q1508.64 1524.47 1508.64 1531.6 Q1508.64 1538.71 1510.45 1542.27 Q1512.28 1545.82 1515.89 1545.82 Q1519.52 1545.82 1521.33 1542.27 Q1523.16 1538.71 1523.16 1531.6 Q1523.16 1524.47 1521.33 1520.93 Q1519.52 1517.37 1515.89 1517.37 M1515.89 1513.66 Q1521.7 1513.66 1524.75 1518.27 Q1527.83 1522.85 1527.83 1531.6 Q1527.83 1540.33 1524.75 1544.94 Q1521.7 1549.52 1515.89 1549.52 Q1510.08 1549.52 1507 1544.94 Q1503.94 1540.33 1503.94 1531.6 Q1503.94 1522.85 1507 1518.27 Q1510.08 1513.66 1515.89 1513.66 Z" fill="#000000" fill-rule="nonzero" fill-opacity="1" /><path clip-path="url(#clip300)" d="M1780.16 1544.91 L1796.47 1544.91 L1796.47 1548.85 L1774.53 1548.85 L1774.53 1544.91 Q1777.19 1542.16 1781.78 1537.53 Q1786.38 1532.88 1787.56 1531.53 Q1789.81 1529.01 1790.69 1527.27 Q1791.59 1525.51 1791.59 1523.82 Q1791.59 1521.07 1789.65 1519.33 Q1787.72 1517.6 1784.62 1517.6 Q1782.42 1517.6 1779.97 1518.36 Q1777.54 1519.13 1774.76 1520.68 L1774.76 1515.95 Q1777.59 1514.82 1780.04 1514.24 Q1782.49 1513.66 1784.53 1513.66 Q1789.9 1513.66 1793.1 1516.35 Q1796.29 1519.03 1796.29 1523.52 Q1796.29 1525.65 1795.48 1527.57 Q1794.69 1529.47 1792.59 1532.07 Q1792.01 1532.74 1788.91 1535.95 Q1785.8 1539.15 1780.16 1544.91 Z" fill="#000000" fill-rule="nonzero" fill-opacity="1" /><path clip-path="url(#clip300)" d="M2058.13 1518.36 L2046.32 1536.81 L2058.13 1536.81 L2058.13 1518.36 M2056.9 1514.29 L2062.78 1514.29 L2062.78 1536.81 L2067.71 1536.81 L2067.71 1540.7 L2062.78 1540.7 L2062.78 1548.85 L2058.13 1548.85 L2058.13 1540.7 L2042.52 1540.7 L2042.52 1536.19 L2056.9 1514.29 Z" fill="#000000" fill-rule="nonzero" fill-opacity="1" /><path clip-path="url(#clip300)" d="M2325.14 1529.7 Q2321.99 1529.7 2320.14 1531.86 Q2318.31 1534.01 2318.31 1537.76 Q2318.31 1541.49 2320.14 1543.66 Q2321.99 1545.82 2325.14 1545.82 Q2328.29 1545.82 2330.11 1543.66 Q2331.97 1541.49 2331.97 1537.76 Q2331.97 1534.01 2330.11 1531.86 Q2328.29 1529.7 2325.14 1529.7 M2334.42 1515.05 L2334.42 1519.31 Q2332.66 1518.48 2330.85 1518.04 Q2329.07 1517.6 2327.31 1517.6 Q2322.68 1517.6 2320.23 1520.72 Q2317.8 1523.85 2317.45 1530.17 Q2318.82 1528.15 2320.88 1527.09 Q2322.94 1526 2325.42 1526 Q2330.62 1526 2333.63 1529.17 Q2336.66 1532.32 2336.66 1537.76 Q2336.66 1543.08 2333.52 1546.3 Q2330.37 1549.52 2325.14 1549.52 Q2319.14 1549.52 2315.97 1544.94 Q2312.8 1540.33 2312.8 1531.6 Q2312.8 1523.41 2316.69 1518.55 Q2320.58 1513.66 2327.13 1513.66 Q2328.89 1513.66 2330.67 1514.01 Q2332.48 1514.36 2334.42 1515.05 Z" fill="#000000" fill-rule="nonzero" fill-opacity="1" /><polyline clip-path="url(#clip300)" style="stroke:#000000; stroke-linecap:round; stroke-linejoin:round; stroke-width:4; stroke-opacity:1; fill:none" points="1353.06,1486.45 1353.06,47.2441 "/>
<polyline clip-path="url(#clip300)" style="stroke:#000000; stroke-linecap:round; stroke-linejoin:round; stroke-width:4; stroke-opacity:1; fill:none" points="1353.06,1486.45 1371.95,1486.45 "/>
<polyline clip-path="url(#clip300)" style="stroke:#000000; stroke-linecap:round; stroke-linejoin:round; stroke-width:4; stroke-opacity:1; fill:none" points="1353.06,1246.58 1371.95,1246.58 "/>
<polyline clip-path="url(#clip300)" style="stroke:#000000; stroke-linecap:round; stroke-linejoin:round; stroke-width:4; stroke-opacity:1; fill:none" points="1353.06,1006.71 1371.95,1006.71 "/>
<polyline clip-path="url(#clip300)" style="stroke:#000000; stroke-linecap:round; stroke-linejoin:round; stroke-width:4; stroke-opacity:1; fill:none" points="1353.06,766.846 1371.95,766.846 "/>
<polyline clip-path="url(#clip300)" style="stroke:#000000; stroke-linecap:round; stroke-linejoin:round; stroke-width:4; stroke-opacity:1; fill:none" points="1353.06,526.979 1371.95,526.979 "/>
<polyline clip-path="url(#clip300)" style="stroke:#000000; stroke-linecap:round; stroke-linejoin:round; stroke-width:4; stroke-opacity:1; fill:none" points="1353.06,287.111 1371.95,287.111 "/>
<polyline clip-path="url(#clip300)" style="stroke:#000000; stroke-linecap:round; stroke-linejoin:round; stroke-width:4; stroke-opacity:1; fill:none" points="1353.06,47.2441 1371.95,47.2441 "/>
<path clip-path="url(#clip300)" d="M1305.11 1472.25 Q1301.5 1472.25 1299.67 1475.81 Q1297.87 1479.35 1297.87 1486.48 Q1297.87 1493.59 1299.67 1497.15 Q1301.5 1500.7 1305.11 1500.7 Q1308.75 1500.7 1310.55 1497.15 Q1312.38 1493.59 1312.38 1486.48 Q1312.38 1479.35 1310.55 1475.81 Q1308.75 1472.25 1305.11 1472.25 M1305.11 1468.54 Q1310.92 1468.54 1313.98 1473.15 Q1317.06 1477.73 1317.06 1486.48 Q1317.06 1495.21 1313.98 1499.82 Q1310.92 1504.4 1305.11 1504.4 Q1299.3 1504.4 1296.22 1499.82 Q1293.17 1495.21 1293.17 1486.48 Q1293.17 1477.73 1296.22 1473.15 Q1299.3 1468.54 1305.11 1468.54 Z" fill="#000000" fill-rule="nonzero" fill-opacity="1" /><path clip-path="url(#clip300)" d="M1297.15 1259.93 L1304.79 1259.93 L1304.79 1233.56 L1296.48 1235.23 L1296.48 1230.97 L1304.74 1229.3 L1309.42 1229.3 L1309.42 1259.93 L1317.06 1259.93 L1317.06 1263.86 L1297.15 1263.86 L1297.15 1259.93 Z" fill="#000000" fill-rule="nonzero" fill-opacity="1" /><path clip-path="url(#clip300)" d="M1300.74 1020.06 L1317.06 1020.06 L1317.06 1023.99 L1295.11 1023.99 L1295.11 1020.06 Q1297.77 1017.3 1302.36 1012.67 Q1306.96 1008.02 1308.14 1006.68 Q1310.39 1004.16 1311.27 1002.42 Q1312.17 1000.66 1312.17 998.97 Q1312.17 996.216 1310.23 994.48 Q1308.31 992.743 1305.2 992.743 Q1303.01 992.743 1300.55 993.507 Q1298.12 994.271 1295.34 995.822 L1295.34 991.1 Q1298.17 989.966 1300.62 989.387 Q1303.08 988.808 1305.11 988.808 Q1310.48 988.808 1313.68 991.493 Q1316.87 994.179 1316.87 998.669 Q1316.87 1000.8 1316.06 1002.72 Q1315.27 1004.62 1313.17 1007.21 Q1312.59 1007.88 1309.49 1011.1 Q1306.39 1014.29 1300.74 1020.06 Z" fill="#000000" fill-rule="nonzero" fill-opacity="1" /><path clip-path="url(#clip300)" d="M1309.93 765.492 Q1313.28 766.209 1315.16 768.478 Q1317.06 770.746 1317.06 774.08 Q1317.06 779.195 1313.54 781.996 Q1310.02 784.797 1303.54 784.797 Q1301.36 784.797 1299.05 784.357 Q1296.76 783.941 1294.3 783.084 L1294.3 778.57 Q1296.25 779.705 1298.56 780.283 Q1300.88 780.862 1303.4 780.862 Q1307.8 780.862 1310.09 779.126 Q1312.4 777.39 1312.4 774.08 Q1312.4 771.024 1310.25 769.311 Q1308.12 767.575 1304.3 767.575 L1300.27 767.575 L1300.27 763.733 L1304.49 763.733 Q1307.94 763.733 1309.76 762.367 Q1311.59 760.978 1311.59 758.385 Q1311.59 755.723 1309.7 754.311 Q1307.82 752.876 1304.3 752.876 Q1302.38 752.876 1300.18 753.293 Q1297.98 753.709 1295.34 754.589 L1295.34 750.422 Q1298.01 749.682 1300.32 749.311 Q1302.66 748.941 1304.72 748.941 Q1310.04 748.941 1313.14 751.372 Q1316.25 753.779 1316.25 757.899 Q1316.25 760.77 1314.6 762.76 Q1312.96 764.728 1309.93 765.492 Z" fill="#000000" fill-rule="nonzero" fill-opacity="1" /><path clip-path="url(#clip300)" d="M1307.47 513.773 L1295.67 532.222 L1307.47 532.222 L1307.47 513.773 M1306.25 509.699 L1312.13 509.699 L1312.13 532.222 L1317.06 532.222 L1317.06 536.111 L1312.13 536.111 L1312.13 544.259 L1307.47 544.259 L1307.47 536.111 L1291.87 536.111 L1291.87 531.597 L1306.25 509.699 Z" fill="#000000" fill-rule="nonzero" fill-opacity="1" /><path clip-path="url(#clip300)" d="M1296.15 269.831 L1314.51 269.831 L1314.51 273.767 L1300.44 273.767 L1300.44 282.239 Q1301.45 281.892 1302.47 281.729 Q1303.49 281.544 1304.51 281.544 Q1310.3 281.544 1313.68 284.716 Q1317.06 287.887 1317.06 293.303 Q1317.06 298.882 1313.58 301.984 Q1310.11 305.063 1303.79 305.063 Q1301.62 305.063 1299.35 304.692 Q1297.1 304.322 1294.7 303.581 L1294.7 298.882 Q1296.78 300.016 1299 300.572 Q1301.22 301.128 1303.7 301.128 Q1307.7 301.128 1310.04 299.021 Q1312.38 296.915 1312.38 293.303 Q1312.38 289.692 1310.04 287.586 Q1307.7 285.479 1303.7 285.479 Q1301.83 285.479 1299.95 285.896 Q1298.1 286.313 1296.15 287.192 L1296.15 269.831 Z" fill="#000000" fill-rule="nonzero" fill-opacity="1" /><path clip-path="url(#clip300)" d="M1305.53 45.3807 Q1302.38 45.3807 1300.53 47.5334 Q1298.7 49.6862 1298.7 53.4362 Q1298.7 57.163 1300.53 59.3389 Q1302.38 61.4917 1305.53 61.4917 Q1308.68 61.4917 1310.51 59.3389 Q1312.36 57.163 1312.36 53.4362 Q1312.36 49.6862 1310.51 47.5334 Q1308.68 45.3807 1305.53 45.3807 M1314.81 30.728 L1314.81 34.9872 Q1313.05 34.1539 1311.25 33.7141 Q1309.46 33.2743 1307.7 33.2743 Q1303.08 33.2743 1300.62 36.3992 Q1298.19 39.5242 1297.84 45.8436 Q1299.21 43.8298 1301.27 42.765 Q1303.33 41.677 1305.81 41.677 Q1311.01 41.677 1314.02 44.8483 Q1317.06 47.9964 1317.06 53.4362 Q1317.06 58.7602 1313.91 61.9778 Q1310.76 65.1954 1305.53 65.1954 Q1299.53 65.1954 1296.36 60.6121 Q1293.19 56.0056 1293.19 47.2788 Q1293.19 39.0844 1297.08 34.2233 Q1300.97 29.3391 1307.52 29.3391 Q1309.28 29.3391 1311.06 29.6863 Q1312.87 30.0335 1314.81 30.728 Z" fill="#000000" fill-rule="nonzero" fill-opacity="1" /><path clip-path="url(#clip303)" d="M1408.04 1246.58 L1408.04 1486.45 L1623.73 1486.45 L1623.73 1246.58 L1408.04 1246.58 L1408.04 1246.58  Z" fill="#009af9" fill-rule="evenodd" fill-opacity="1"/>
<polyline clip-path="url(#clip303)" style="stroke:#000000; stroke-linecap:round; stroke-linejoin:round; stroke-width:4; stroke-opacity:1; fill:none" points="1408.04,1246.58 1408.04,1486.45 1623.73,1486.45 1623.73,1246.58 1408.04,1246.58 "/>
<path clip-path="url(#clip303)" d="M1812.46 1006.71 L1812.46 1486.45 L2028.16 1486.45 L2028.16 1006.71 L1812.46 1006.71 L1812.46 1006.71  Z" fill="#009af9" fill-rule="evenodd" fill-opacity="1"/>
<polyline clip-path="url(#clip303)" style="stroke:#000000; stroke-linecap:round; stroke-linejoin:round; stroke-width:4; stroke-opacity:1; fill:none" points="1812.46,1006.71 1812.46,1486.45 2028.16,1486.45 2028.16,1006.71 1812.46,1006.71 "/>
<path clip-path="url(#clip303)" d="M2082.08 47.2441 L2082.08 1486.45 L2297.77 1486.45 L2297.77 47.2441 L2082.08 47.2441 L2082.08 47.2441  Z" fill="#009af9" fill-rule="evenodd" fill-opacity="1"/>
<polyline clip-path="url(#clip303)" style="stroke:#000000; stroke-linecap:round; stroke-linejoin:round; stroke-width:4; stroke-opacity:1; fill:none" points="2082.08,47.2441 2082.08,1486.45 2297.77,1486.45 2297.77,47.2441 2082.08,47.2441 "/>
<circle clip-path="url(#clip303)" style="fill:#009af9; stroke:none; fill-opacity:0" cx="1515.89" cy="1246.58" r="2"/>
<circle clip-path="url(#clip303)" style="fill:#009af9; stroke:none; fill-opacity:0" cx="1920.31" cy="1006.71" r="2"/>
<circle clip-path="url(#clip303)" style="fill:#009af9; stroke:none; fill-opacity:0" cx="2189.92" cy="47.2441" r="2"/>
</svg>
