<?xml version="1.0" encoding="utf-8"?>
<svg xmlns="http://www.w3.org/2000/svg" xmlns:xlink="http://www.w3.org/1999/xlink" width="600" height="400" viewBox="0 0 2400 1600">
<defs>
  <clipPath id="clip920">
    <rect x="0" y="0" width="2400" height="1600"/>
  </clipPath>
</defs>
<path clip-path="url(#clip920)" d="M0 1600 L2400 1600 L2400 0 L0 0  Z" fill="#ffffff" fill-rule="evenodd" fill-opacity="1"/>
<defs>
  <clipPath id="clip921">
    <rect x="480" y="0" width="1681" height="1600"/>
  </clipPath>
</defs>
<path clip-path="url(#clip920)" d="M1199.13 1375.66 L2352.76 1375.66 L2352.76 149.914 L1199.13 149.914  Z" fill="#ffffff" fill-rule="evenodd" fill-opacity="1"/>
<defs>
  <clipPath id="clip922">
    <rect x="1199" y="149" width="1155" height="1227"/>
  </clipPath>
</defs>
<polyline clip-path="url(#clip922)" style="stroke:#000000; stroke-linecap:round; stroke-linejoin:round; stroke-width:2; stroke-opacity:0.05; fill:none" points="1199.13,1283.15 2352.76,1283.15 "/>
<polyline clip-path="url(#clip922)" style="stroke:#000000; stroke-linecap:round; stroke-linejoin:round; stroke-width:2; stroke-opacity:0.05; fill:none" points="1199.13,1225.33 2352.76,1225.33 "/>
<polyline clip-path="url(#clip922)" style="stroke:#000000; stroke-linecap:round; stroke-linejoin:round; stroke-width:2; stroke-opacity:0.05; fill:none" points="1199.13,1167.52 2352.76,1167.52 "/>
<polyline clip-path="url(#clip922)" style="stroke:#000000; stroke-linecap:round; stroke-linejoin:round; stroke-width:2; stroke-opacity:0.05; fill:none" points="1199.13,1109.7 2352.76,1109.7 "/>
<polyline clip-path="url(#clip922)" style="stroke:#000000; stroke-linecap:round; stroke-linejoin:round; stroke-width:2; stroke-opacity:0.05; fill:none" points="1199.13,994.061 2352.76,994.061 "/>
<polyline clip-path="url(#clip922)" style="stroke:#000000; stroke-linecap:round; stroke-linejoin:round; stroke-width:2; stroke-opacity:0.05; fill:none" points="1199.13,936.242 2352.76,936.242 "/>
<polyline clip-path="url(#clip922)" style="stroke:#000000; stroke-linecap:round; stroke-linejoin:round; stroke-width:2; stroke-opacity:0.05; fill:none" points="1199.13,878.424 2352.76,878.424 "/>
<polyline clip-path="url(#clip922)" style="stroke:#000000; stroke-linecap:round; stroke-linejoin:round; stroke-width:2; stroke-opacity:0.05; fill:none" points="1199.13,820.606 2352.76,820.606 "/>
<polyline clip-path="url(#clip922)" style="stroke:#000000; stroke-linecap:round; stroke-linejoin:round; stroke-width:2; stroke-opacity:0.05; fill:none" points="1199.13,704.969 2352.76,704.969 "/>
<polyline clip-path="url(#clip922)" style="stroke:#000000; stroke-linecap:round; stroke-linejoin:round; stroke-width:2; stroke-opacity:0.05; fill:none" points="1199.13,647.151 2352.76,647.151 "/>
<polyline clip-path="url(#clip922)" style="stroke:#000000; stroke-linecap:round; stroke-linejoin:round; stroke-width:2; stroke-opacity:0.05; fill:none" points="1199.13,589.333 2352.76,589.333 "/>
<polyline clip-path="url(#clip922)" style="stroke:#000000; stroke-linecap:round; stroke-linejoin:round; stroke-width:2; stroke-opacity:0.05; fill:none" points="1199.13,531.515 2352.76,531.515 "/>
<polyline clip-path="url(#clip922)" style="stroke:#000000; stroke-linecap:round; stroke-linejoin:round; stroke-width:2; stroke-opacity:0.05; fill:none" points="1199.13,415.878 2352.76,415.878 "/>
<polyline clip-path="url(#clip922)" style="stroke:#000000; stroke-linecap:round; stroke-linejoin:round; stroke-width:2; stroke-opacity:0.05; fill:none" points="1199.13,358.06 2352.76,358.06 "/>
<polyline clip-path="url(#clip922)" style="stroke:#000000; stroke-linecap:round; stroke-linejoin:round; stroke-width:2; stroke-opacity:0.05; fill:none" points="1199.13,300.242 2352.76,300.242 "/>
<polyline clip-path="url(#clip922)" style="stroke:#000000; stroke-linecap:round; stroke-linejoin:round; stroke-width:2; stroke-opacity:0.05; fill:none" points="1199.13,242.423 2352.76,242.423 "/>
<polyline clip-path="url(#clip922)" style="stroke:#000000; stroke-linecap:round; stroke-linejoin:round; stroke-width:2; stroke-opacity:0.1; fill:none" points="1342.91,1375.66 1342.91,149.914 "/>
<polyline clip-path="url(#clip922)" style="stroke:#000000; stroke-linecap:round; stroke-linejoin:round; stroke-width:2; stroke-opacity:0.1; fill:none" points="1559.43,1375.66 1559.43,149.914 "/>
<polyline clip-path="url(#clip922)" style="stroke:#000000; stroke-linecap:round; stroke-linejoin:round; stroke-width:2; stroke-opacity:0.1; fill:none" points="1775.94,1375.66 1775.94,149.914 "/>
<polyline clip-path="url(#clip922)" style="stroke:#000000; stroke-linecap:round; stroke-linejoin:round; stroke-width:2; stroke-opacity:0.1; fill:none" points="1992.46,1375.66 1992.46,149.914 "/>
<polyline clip-path="url(#clip922)" style="stroke:#000000; stroke-linecap:round; stroke-linejoin:round; stroke-width:2; stroke-opacity:0.1; fill:none" points="2208.97,1375.66 2208.97,149.914 "/>
<polyline clip-path="url(#clip922)" style="stroke:#000000; stroke-linecap:round; stroke-linejoin:round; stroke-width:2; stroke-opacity:0.1; fill:none" points="1199.13,1340.97 2352.76,1340.97 "/>
<polyline clip-path="url(#clip922)" style="stroke:#000000; stroke-linecap:round; stroke-linejoin:round; stroke-width:2; stroke-opacity:0.1; fill:none" points="1199.13,1051.88 2352.76,1051.88 "/>
<polyline clip-path="url(#clip922)" style="stroke:#000000; stroke-linecap:round; stroke-linejoin:round; stroke-width:2; stroke-opacity:0.1; fill:none" points="1199.13,762.788 2352.76,762.788 "/>
<polyline clip-path="url(#clip922)" style="stroke:#000000; stroke-linecap:round; stroke-linejoin:round; stroke-width:2; stroke-opacity:0.1; fill:none" points="1199.13,473.696 2352.76,473.696 "/>
<polyline clip-path="url(#clip922)" style="stroke:#000000; stroke-linecap:round; stroke-linejoin:round; stroke-width:2; stroke-opacity:0.1; fill:none" points="1199.13,184.605 2352.76,184.605 "/>
<polyline clip-path="url(#clip920)" style="stroke:#000000; stroke-linecap:round; stroke-linejoin:round; stroke-width:4; stroke-opacity:1; fill:none" points="1199.13,762.788 2352.76,762.788 "/>
<polyline clip-path="url(#clip920)" style="stroke:#000000; stroke-linecap:round; stroke-linejoin:round; stroke-width:4; stroke-opacity:0; fill:none" points="1342.91,762.788 1342.91,762.788 "/>
<polyline clip-path="url(#clip920)" style="stroke:#000000; stroke-linecap:round; stroke-linejoin:round; stroke-width:4; stroke-opacity:0; fill:none" points="1559.43,762.788 1559.43,762.788 "/>
<polyline clip-path="url(#clip920)" style="stroke:#000000; stroke-linecap:round; stroke-linejoin:round; stroke-width:4; stroke-opacity:0; fill:none" points="1775.94,762.788 1775.94,762.788 "/>
<polyline clip-path="url(#clip920)" style="stroke:#000000; stroke-linecap:round; stroke-linejoin:round; stroke-width:4; stroke-opacity:0; fill:none" points="1992.46,762.788 1992.46,762.788 "/>
<polyline clip-path="url(#clip920)" style="stroke:#000000; stroke-linecap:round; stroke-linejoin:round; stroke-width:4; stroke-opacity:0; fill:none" points="2208.97,762.788 2208.97,762.788 "/>
<path clip-path="url(#clip920)" d="M1262.71 1434.42 L1307.22 1434.42 L1307.22 1440.32 L1262.71 1440.32 L1262.71 1434.42 Z" fill="#ffa500" fill-rule="nonzero" fill-opacity="1" /><path clip-path="url(#clip920)" d="M1322.43 1407.82 L1349.96 1407.82 L1349.96 1413.72 L1328.85 1413.72 L1328.85 1426.43 Q1330.38 1425.91 1331.91 1425.67 Q1333.43 1425.39 1334.96 1425.39 Q1343.64 1425.39 1348.71 1430.15 Q1353.78 1434.9 1353.78 1443.03 Q1353.78 1451.4 1348.57 1456.05 Q1343.36 1460.67 1333.89 1460.67 Q1330.62 1460.67 1327.22 1460.11 Q1323.85 1459.56 1320.24 1458.44 L1320.24 1451.4 Q1323.36 1453.1 1326.7 1453.93 Q1330.03 1454.76 1333.75 1454.76 Q1339.75 1454.76 1343.26 1451.6 Q1346.77 1448.44 1346.77 1443.03 Q1346.77 1437.61 1343.26 1434.45 Q1339.75 1431.29 1333.75 1431.29 Q1330.93 1431.29 1328.12 1431.92 Q1325.34 1432.54 1322.43 1433.86 L1322.43 1407.82 Z" fill="#ffa500" fill-rule="nonzero" fill-opacity="1" /><path clip-path="url(#clip920)" d="M1367.6 1450.84 L1374.93 1450.84 L1374.93 1459.66 L1367.6 1459.66 L1367.6 1450.84 Z" fill="#ffa500" fill-rule="nonzero" fill-opacity="1" /><path clip-path="url(#clip920)" d="M1405.2 1412.44 Q1399.79 1412.44 1397.05 1417.79 Q1394.34 1423.1 1394.34 1433.79 Q1394.34 1444.45 1397.05 1449.8 Q1399.79 1455.11 1405.2 1455.11 Q1410.66 1455.11 1413.36 1449.8 Q1416.11 1444.45 1416.11 1433.79 Q1416.11 1423.1 1413.36 1417.79 Q1410.66 1412.44 1405.2 1412.44 M1405.2 1406.88 Q1413.92 1406.88 1418.5 1413.79 Q1423.12 1420.67 1423.12 1433.79 Q1423.12 1446.88 1418.5 1453.79 Q1413.92 1460.67 1405.2 1460.67 Q1396.49 1460.67 1391.87 1453.79 Q1387.29 1446.88 1387.29 1433.79 Q1387.29 1420.67 1391.87 1413.79 Q1396.49 1406.88 1405.2 1406.88 Z" fill="#ffa500" fill-rule="nonzero" fill-opacity="1" /><path clip-path="url(#clip920)" d="M1479.97 1434.42 L1524.48 1434.42 L1524.48 1440.32 L1479.97 1440.32 L1479.97 1434.42 Z" fill="#ffa500" fill-rule="nonzero" fill-opacity="1" /><path clip-path="url(#clip920)" d="M1545.66 1453.76 L1570.14 1453.76 L1570.14 1459.66 L1537.22 1459.66 L1537.22 1453.76 Q1541.22 1449.63 1548.09 1442.68 Q1555 1435.7 1556.77 1433.69 Q1560.14 1429.9 1561.46 1427.3 Q1562.81 1424.66 1562.81 1422.13 Q1562.81 1417.99 1559.9 1415.39 Q1557.02 1412.79 1552.36 1412.79 Q1549.06 1412.79 1545.38 1413.93 Q1541.74 1415.08 1537.57 1417.4 L1537.57 1410.32 Q1541.81 1408.62 1545.49 1407.75 Q1549.17 1406.88 1552.22 1406.88 Q1560.28 1406.88 1565.07 1410.91 Q1569.86 1414.94 1569.86 1421.67 Q1569.86 1424.87 1568.65 1427.75 Q1567.47 1430.6 1564.31 1434.49 Q1563.44 1435.49 1558.79 1440.32 Q1554.13 1445.11 1545.66 1453.76 Z" fill="#ffa500" fill-rule="nonzero" fill-opacity="1" /><path clip-path="url(#clip920)" d="M1584.86 1450.84 L1592.19 1450.84 L1592.19 1459.66 L1584.86 1459.66 L1584.86 1450.84 Z" fill="#ffa500" fill-rule="nonzero" fill-opacity="1" /><path clip-path="url(#clip920)" d="M1607.54 1407.82 L1635.07 1407.82 L1635.07 1413.72 L1613.96 1413.72 L1613.96 1426.43 Q1615.49 1425.91 1617.02 1425.67 Q1618.54 1425.39 1620.07 1425.39 Q1628.75 1425.39 1633.82 1430.15 Q1638.89 1434.9 1638.89 1443.03 Q1638.89 1451.4 1633.68 1456.05 Q1628.47 1460.67 1618.99 1460.67 Q1615.73 1460.67 1612.33 1460.11 Q1608.96 1459.56 1605.35 1458.44 L1605.35 1451.4 Q1608.47 1453.1 1611.81 1453.93 Q1615.14 1454.76 1618.86 1454.76 Q1624.86 1454.76 1628.37 1451.6 Q1631.88 1448.44 1631.88 1443.03 Q1631.88 1437.61 1628.37 1434.45 Q1624.86 1431.29 1618.86 1431.29 Q1616.04 1431.29 1613.23 1431.92 Q1610.45 1432.54 1607.54 1433.86 L1607.54 1407.82 Z" fill="#ffa500" fill-rule="nonzero" fill-opacity="1" /><path clip-path="url(#clip920)" d="M1742.02 1412.44 Q1736.6 1412.44 1733.86 1417.79 Q1731.15 1423.1 1731.15 1433.79 Q1731.15 1444.45 1733.86 1449.8 Q1736.6 1455.11 1742.02 1455.11 Q1747.47 1455.11 1750.18 1449.8 Q1752.92 1444.45 1752.92 1433.79 Q1752.92 1423.1 1750.18 1417.79 Q1747.47 1412.44 1742.02 1412.44 M1742.02 1406.88 Q1750.74 1406.88 1755.32 1413.79 Q1759.94 1420.67 1759.94 1433.79 Q1759.94 1446.88 1755.32 1453.79 Q1750.74 1460.67 1742.02 1460.67 Q1733.31 1460.67 1728.69 1453.79 Q1724.1 1446.88 1724.1 1433.79 Q1724.1 1420.67 1728.69 1413.79 Q1733.31 1406.88 1742.02 1406.88 Z" fill="#ffa500" fill-rule="nonzero" fill-opacity="1" /><path clip-path="url(#clip920)" d="M1772.26 1450.84 L1779.59 1450.84 L1779.59 1459.66 L1772.26 1459.66 L1772.26 1450.84 Z" fill="#ffa500" fill-rule="nonzero" fill-opacity="1" /><path clip-path="url(#clip920)" d="M1809.87 1412.44 Q1804.45 1412.44 1801.71 1417.79 Q1799 1423.1 1799 1433.79 Q1799 1444.45 1801.71 1449.8 Q1804.45 1455.11 1809.87 1455.11 Q1815.32 1455.11 1818.03 1449.8 Q1820.77 1444.45 1820.77 1433.79 Q1820.77 1423.1 1818.03 1417.79 Q1815.32 1412.44 1809.87 1412.44 M1809.87 1406.88 Q1818.58 1406.88 1823.17 1413.79 Q1827.78 1420.67 1827.78 1433.79 Q1827.78 1446.88 1823.17 1453.79 Q1818.58 1460.67 1809.87 1460.67 Q1801.15 1460.67 1796.53 1453.79 Q1791.95 1446.88 1791.95 1433.79 Q1791.95 1420.67 1796.53 1413.79 Q1801.15 1406.88 1809.87 1406.88 Z" fill="#ffa500" fill-rule="nonzero" fill-opacity="1" /><path clip-path="url(#clip920)" d="M1950.06 1453.76 L1974.54 1453.76 L1974.54 1459.66 L1941.63 1459.66 L1941.63 1453.76 Q1945.62 1449.63 1952.49 1442.68 Q1959.4 1435.7 1961.17 1433.69 Q1964.54 1429.9 1965.86 1427.3 Q1967.22 1424.66 1967.22 1422.13 Q1967.22 1417.99 1964.3 1415.39 Q1961.42 1412.79 1956.76 1412.79 Q1953.47 1412.79 1949.79 1413.93 Q1946.14 1415.08 1941.97 1417.4 L1941.97 1410.32 Q1946.21 1408.62 1949.89 1407.75 Q1953.57 1406.88 1956.63 1406.88 Q1964.68 1406.88 1969.47 1410.91 Q1974.26 1414.94 1974.26 1421.67 Q1974.26 1424.87 1973.05 1427.75 Q1971.87 1430.6 1968.71 1434.49 Q1967.84 1435.49 1963.19 1440.32 Q1958.54 1445.11 1950.06 1453.76 Z" fill="#ffa500" fill-rule="nonzero" fill-opacity="1" /><path clip-path="url(#clip920)" d="M1989.26 1450.84 L1996.59 1450.84 L1996.59 1459.66 L1989.26 1459.66 L1989.26 1450.84 Z" fill="#ffa500" fill-rule="nonzero" fill-opacity="1" /><path clip-path="url(#clip920)" d="M2011.94 1407.82 L2039.47 1407.82 L2039.47 1413.72 L2018.36 1413.72 L2018.36 1426.43 Q2019.89 1425.91 2021.42 1425.67 Q2022.95 1425.39 2024.47 1425.39 Q2033.15 1425.39 2038.22 1430.15 Q2043.29 1434.9 2043.29 1443.03 Q2043.29 1451.4 2038.08 1456.05 Q2032.88 1460.67 2023.4 1460.67 Q2020.13 1460.67 2016.73 1460.11 Q2013.36 1459.56 2009.75 1458.44 L2009.75 1451.4 Q2012.88 1453.1 2016.21 1453.93 Q2019.54 1454.76 2023.26 1454.76 Q2029.26 1454.76 2032.77 1451.6 Q2036.28 1448.44 2036.28 1443.03 Q2036.28 1437.61 2032.77 1434.45 Q2029.26 1431.29 2023.26 1431.29 Q2020.45 1431.29 2017.63 1431.92 Q2014.85 1432.54 2011.94 1433.86 L2011.94 1407.82 Z" fill="#ffa500" fill-rule="nonzero" fill-opacity="1" /><path clip-path="url(#clip920)" d="M2159.72 1407.82 L2187.26 1407.82 L2187.26 1413.72 L2166.14 1413.72 L2166.14 1426.43 Q2167.67 1425.91 2169.2 1425.67 Q2170.73 1425.39 2172.26 1425.39 Q2180.94 1425.39 2186.01 1430.15 Q2191.08 1434.9 2191.08 1443.03 Q2191.08 1451.4 2185.87 1456.05 Q2180.66 1460.67 2171.18 1460.67 Q2167.92 1460.67 2164.51 1460.11 Q2161.14 1459.56 2157.53 1458.44 L2157.53 1451.4 Q2160.66 1453.1 2163.99 1453.93 Q2167.33 1454.76 2171.04 1454.76 Q2177.05 1454.76 2180.55 1451.6 Q2184.06 1448.44 2184.06 1443.03 Q2184.06 1437.61 2180.55 1434.45 Q2177.05 1431.29 2171.04 1431.29 Q2168.23 1431.29 2165.42 1431.92 Q2162.64 1432.54 2159.72 1433.86 L2159.72 1407.82 Z" fill="#ffa500" fill-rule="nonzero" fill-opacity="1" /><path clip-path="url(#clip920)" d="M2204.89 1450.84 L2212.22 1450.84 L2212.22 1459.66 L2204.89 1459.66 L2204.89 1450.84 Z" fill="#ffa500" fill-rule="nonzero" fill-opacity="1" /><path clip-path="url(#clip920)" d="M2242.5 1412.44 Q2237.08 1412.44 2234.34 1417.79 Q2231.63 1423.1 2231.63 1433.79 Q2231.63 1444.45 2234.34 1449.8 Q2237.08 1455.11 2242.5 1455.11 Q2247.95 1455.11 2250.66 1449.8 Q2253.4 1444.45 2253.4 1433.79 Q2253.4 1423.1 2250.66 1417.79 Q2247.95 1412.44 2242.5 1412.44 M2242.5 1406.88 Q2251.21 1406.88 2255.8 1413.79 Q2260.42 1420.67 2260.42 1433.79 Q2260.42 1446.88 2255.8 1453.79 Q2251.21 1460.67 2242.5 1460.67 Q2233.78 1460.67 2229.17 1453.79 Q2224.58 1446.88 2224.58 1433.79 Q2224.58 1420.67 2229.17 1413.79 Q2233.78 1406.88 2242.5 1406.88 Z" fill="#ffa500" fill-rule="nonzero" fill-opacity="1" /><path clip-path="url(#clip920)" d="M1792.51 1545.75 L1759.33 1545.75 Q1760.11 1561.33 1763.7 1567.94 Q1768.18 1576.07 1775.94 1576.07 Q1783.76 1576.07 1788.08 1567.89 Q1791.88 1560.7 1792.51 1545.75 M1792.35 1536.9 Q1790.89 1522.11 1788.08 1516.9 Q1783.6 1508.67 1775.94 1508.67 Q1767.98 1508.67 1763.76 1516.79 Q1760.42 1523.36 1759.43 1536.9 L1792.35 1536.9 M1775.94 1500.86 Q1788.44 1500.86 1795.58 1511.9 Q1802.71 1522.89 1802.71 1542.37 Q1802.71 1561.79 1795.58 1572.84 Q1788.44 1583.93 1775.94 1583.93 Q1763.39 1583.93 1756.31 1572.84 Q1749.17 1561.79 1749.17 1542.37 Q1749.17 1522.89 1756.31 1511.9 Q1763.39 1500.86 1775.94 1500.86 Z" fill="#006400" fill-rule="nonzero" fill-opacity="1" /><polyline clip-path="url(#clip920)" style="stroke:#000000; stroke-linecap:round; stroke-linejoin:round; stroke-width:4; stroke-opacity:1; fill:none" points="1775.94,1375.66 1775.94,149.914 "/>
<polyline clip-path="url(#clip920)" style="stroke:#000000; stroke-linecap:round; stroke-linejoin:round; stroke-width:4; stroke-opacity:0; fill:none" points="1775.94,1340.97 1775.94,1340.97 "/>
<polyline clip-path="url(#clip920)" style="stroke:#000000; stroke-linecap:round; stroke-linejoin:round; stroke-width:4; stroke-opacity:0; fill:none" points="1775.94,1051.88 1775.94,1051.88 "/>
<polyline clip-path="url(#clip920)" style="stroke:#000000; stroke-linecap:round; stroke-linejoin:round; stroke-width:4; stroke-opacity:0; fill:none" points="1775.94,762.788 1775.94,762.788 "/>
<polyline clip-path="url(#clip920)" style="stroke:#000000; stroke-linecap:round; stroke-linejoin:round; stroke-width:4; stroke-opacity:0; fill:none" points="1775.94,473.696 1775.94,473.696 "/>
<polyline clip-path="url(#clip920)" style="stroke:#000000; stroke-linecap:round; stroke-linejoin:round; stroke-width:4; stroke-opacity:0; fill:none" points="1775.94,184.605 1775.94,184.605 "/>
<polyline clip-path="url(#clip920)" style="stroke:#000000; stroke-linecap:round; stroke-linejoin:round; stroke-width:4; stroke-opacity:0; fill:none" points="1775.94,1283.15 1775.94,1283.15 "/>
<polyline clip-path="url(#clip920)" style="stroke:#000000; stroke-linecap:round; stroke-linejoin:round; stroke-width:4; stroke-opacity:0; fill:none" points="1775.94,1225.33 1775.94,1225.33 "/>
<polyline clip-path="url(#clip920)" style="stroke:#000000; stroke-linecap:round; stroke-linejoin:round; stroke-width:4; stroke-opacity:0; fill:none" points="1775.94,1167.52 1775.94,1167.52 "/>
<polyline clip-path="url(#clip920)" style="stroke:#000000; stroke-linecap:round; stroke-linejoin:round; stroke-width:4; stroke-opacity:0; fill:none" points="1775.94,1109.7 1775.94,1109.7 "/>
<polyline clip-path="url(#clip920)" style="stroke:#000000; stroke-linecap:round; stroke-linejoin:round; stroke-width:4; stroke-opacity:0; fill:none" points="1775.94,994.061 1775.94,994.061 "/>
<polyline clip-path="url(#clip920)" style="stroke:#000000; stroke-linecap:round; stroke-linejoin:round; stroke-width:4; stroke-opacity:0; fill:none" points="1775.94,936.242 1775.94,936.242 "/>
<polyline clip-path="url(#clip920)" style="stroke:#000000; stroke-linecap:round; stroke-linejoin:round; stroke-width:4; stroke-opacity:0; fill:none" points="1775.94,878.424 1775.94,878.424 "/>
<polyline clip-path="url(#clip920)" style="stroke:#000000; stroke-linecap:round; stroke-linejoin:round; stroke-width:4; stroke-opacity:0; fill:none" points="1775.94,820.606 1775.94,820.606 "/>
<polyline clip-path="url(#clip920)" style="stroke:#000000; stroke-linecap:round; stroke-linejoin:round; stroke-width:4; stroke-opacity:0; fill:none" points="1775.94,704.969 1775.94,704.969 "/>
<polyline clip-path="url(#clip920)" style="stroke:#000000; stroke-linecap:round; stroke-linejoin:round; stroke-width:4; stroke-opacity:0; fill:none" points="1775.94,647.151 1775.94,647.151 "/>
<polyline clip-path="url(#clip920)" style="stroke:#000000; stroke-linecap:round; stroke-linejoin:round; stroke-width:4; stroke-opacity:0; fill:none" points="1775.94,589.333 1775.94,589.333 "/>
<polyline clip-path="url(#clip920)" style="stroke:#000000; stroke-linecap:round; stroke-linejoin:round; stroke-width:4; stroke-opacity:0; fill:none" points="1775.94,531.515 1775.94,531.515 "/>
<polyline clip-path="url(#clip920)" style="stroke:#000000; stroke-linecap:round; stroke-linejoin:round; stroke-width:4; stroke-opacity:0; fill:none" points="1775.94,415.878 1775.94,415.878 "/>
<polyline clip-path="url(#clip920)" style="stroke:#000000; stroke-linecap:round; stroke-linejoin:round; stroke-width:4; stroke-opacity:0; fill:none" points="1775.94,358.06 1775.94,358.06 "/>
<polyline clip-path="url(#clip920)" style="stroke:#000000; stroke-linecap:round; stroke-linejoin:round; stroke-width:4; stroke-opacity:0; fill:none" points="1775.94,300.242 1775.94,300.242 "/>
<polyline clip-path="url(#clip920)" style="stroke:#000000; stroke-linecap:round; stroke-linejoin:round; stroke-width:4; stroke-opacity:0; fill:none" points="1775.94,242.423 1775.94,242.423 "/>
<path clip-path="url(#clip920)" d="M1002.72 1341.65 L1047.23 1341.65 L1047.23 1347.55 L1002.72 1347.55 L1002.72 1341.65 Z" fill="#ffa500" fill-rule="nonzero" fill-opacity="1" /><path clip-path="url(#clip920)" d="M1063.58 1360.99 L1075.04 1360.99 L1075.04 1321.44 L1062.58 1323.94 L1062.58 1317.55 L1074.97 1315.05 L1081.99 1315.05 L1081.99 1360.99 L1093.44 1360.99 L1093.44 1366.89 L1063.58 1366.89 L1063.58 1360.99 Z" fill="#ffa500" fill-rule="nonzero" fill-opacity="1" /><path clip-path="url(#clip920)" d="M1107.61 1358.07 L1114.94 1358.07 L1114.94 1366.89 L1107.61 1366.89 L1107.61 1358.07 Z" fill="#ffa500" fill-rule="nonzero" fill-opacity="1" /><path clip-path="url(#clip920)" d="M1145.22 1319.67 Q1139.8 1319.67 1137.06 1325.02 Q1134.35 1330.33 1134.35 1341.02 Q1134.35 1351.68 1137.06 1357.03 Q1139.8 1362.34 1145.22 1362.34 Q1150.67 1362.34 1153.38 1357.03 Q1156.12 1351.68 1156.12 1341.02 Q1156.12 1330.33 1153.38 1325.02 Q1150.67 1319.67 1145.22 1319.67 M1145.22 1314.11 Q1153.93 1314.11 1158.51 1321.02 Q1163.13 1327.9 1163.13 1341.02 Q1163.13 1354.11 1158.51 1361.02 Q1153.93 1367.9 1145.22 1367.9 Q1136.5 1367.9 1131.88 1361.02 Q1127.3 1354.11 1127.3 1341.02 Q1127.3 1327.9 1131.88 1321.02 Q1136.5 1314.11 1145.22 1314.11 Z" fill="#ffa500" fill-rule="nonzero" fill-opacity="1" /><path clip-path="url(#clip920)" d="M1004.21 1052.56 L1048.72 1052.56 L1048.72 1058.46 L1004.21 1058.46 L1004.21 1052.56 Z" fill="#ffa500" fill-rule="nonzero" fill-opacity="1" /><path clip-path="url(#clip920)" d="M1078.86 1030.58 Q1073.45 1030.58 1070.7 1035.92 Q1067.99 1041.24 1067.99 1051.93 Q1067.99 1062.59 1070.7 1067.94 Q1073.45 1073.25 1078.86 1073.25 Q1084.31 1073.25 1087.02 1067.94 Q1089.76 1062.59 1089.76 1051.93 Q1089.76 1041.24 1087.02 1035.92 Q1084.31 1030.58 1078.86 1030.58 M1078.86 1025.02 Q1087.58 1025.02 1092.16 1031.93 Q1096.78 1038.81 1096.78 1051.93 Q1096.78 1065.02 1092.16 1071.93 Q1087.58 1078.81 1078.86 1078.81 Q1070.15 1078.81 1065.53 1071.93 Q1060.95 1065.02 1060.95 1051.93 Q1060.95 1038.81 1065.53 1031.93 Q1070.15 1025.02 1078.86 1025.02 Z" fill="#ffa500" fill-rule="nonzero" fill-opacity="1" /><path clip-path="url(#clip920)" d="M1109.1 1068.98 L1116.43 1068.98 L1116.43 1077.8 L1109.1 1077.8 L1109.1 1068.98 Z" fill="#ffa500" fill-rule="nonzero" fill-opacity="1" /><path clip-path="url(#clip920)" d="M1131.78 1025.96 L1159.31 1025.96 L1159.31 1031.86 L1138.2 1031.86 L1138.2 1044.57 Q1139.73 1044.05 1141.26 1043.81 Q1142.78 1043.53 1144.31 1043.53 Q1152.99 1043.53 1158.06 1048.29 Q1163.13 1053.04 1163.13 1061.17 Q1163.13 1069.54 1157.92 1074.19 Q1152.72 1078.81 1143.24 1078.81 Q1139.97 1078.81 1136.57 1078.25 Q1133.2 1077.69 1129.59 1076.58 L1129.59 1069.54 Q1132.72 1071.24 1136.05 1072.07 Q1139.38 1072.9 1143.1 1072.9 Q1149.1 1072.9 1152.61 1069.74 Q1156.12 1066.58 1156.12 1061.17 Q1156.12 1055.75 1152.61 1052.59 Q1149.1 1049.43 1143.1 1049.43 Q1140.28 1049.43 1137.47 1050.06 Q1134.69 1050.68 1131.78 1052 L1131.78 1025.96 Z" fill="#ffa500" fill-rule="nonzero" fill-opacity="1" /><path clip-path="url(#clip920)" d="M1077.37 741.486 Q1071.95 741.486 1069.21 746.833 Q1066.5 752.145 1066.5 762.84 Q1066.5 773.499 1069.21 778.847 Q1071.95 784.159 1077.37 784.159 Q1082.82 784.159 1085.53 778.847 Q1088.27 773.499 1088.27 762.84 Q1088.27 752.145 1085.53 746.833 Q1082.82 741.486 1077.37 741.486 M1077.37 735.93 Q1086.08 735.93 1090.67 742.84 Q1095.29 749.715 1095.29 762.84 Q1095.29 775.93 1090.67 782.84 Q1086.08 789.715 1077.37 789.715 Q1068.65 789.715 1064.04 782.84 Q1059.45 775.93 1059.45 762.84 Q1059.45 749.715 1064.04 742.84 Q1068.65 735.93 1077.37 735.93 Z" fill="#ffa500" fill-rule="nonzero" fill-opacity="1" /><path clip-path="url(#clip920)" d="M1107.61 779.888 L1114.94 779.888 L1114.94 788.708 L1107.61 788.708 L1107.61 779.888 Z" fill="#ffa500" fill-rule="nonzero" fill-opacity="1" /><path clip-path="url(#clip920)" d="M1145.22 741.486 Q1139.8 741.486 1137.06 746.833 Q1134.35 752.145 1134.35 762.84 Q1134.35 773.499 1137.06 778.847 Q1139.8 784.159 1145.22 784.159 Q1150.67 784.159 1153.38 778.847 Q1156.12 773.499 1156.12 762.84 Q1156.12 752.145 1153.38 746.833 Q1150.67 741.486 1145.22 741.486 M1145.22 735.93 Q1153.93 735.93 1158.51 742.84 Q1163.13 749.715 1163.13 762.84 Q1163.13 775.93 1158.51 782.84 Q1153.93 789.715 1145.22 789.715 Q1136.5 789.715 1131.88 782.84 Q1127.3 775.93 1127.3 762.84 Q1127.3 749.715 1131.88 742.84 Q1136.5 735.93 1145.22 735.93 Z" fill="#ffa500" fill-rule="nonzero" fill-opacity="1" /><path clip-path="url(#clip920)" d="M1078.86 452.394 Q1073.45 452.394 1070.7 457.742 Q1067.99 463.054 1067.99 473.748 Q1067.99 484.408 1070.7 489.755 Q1073.45 495.068 1078.86 495.068 Q1084.31 495.068 1087.02 489.755 Q1089.76 484.408 1089.76 473.748 Q1089.76 463.054 1087.02 457.742 Q1084.31 452.394 1078.86 452.394 M1078.86 446.839 Q1087.58 446.839 1092.16 453.749 Q1096.78 460.624 1096.78 473.748 Q1096.78 486.839 1092.16 493.748 Q1087.58 500.623 1078.86 500.623 Q1070.15 500.623 1065.53 493.748 Q1060.95 486.839 1060.95 473.748 Q1060.95 460.624 1065.53 453.749 Q1070.15 446.839 1078.86 446.839 Z" fill="#ffa500" fill-rule="nonzero" fill-opacity="1" /><path clip-path="url(#clip920)" d="M1109.1 490.797 L1116.43 490.797 L1116.43 499.616 L1109.1 499.616 L1109.1 490.797 Z" fill="#ffa500" fill-rule="nonzero" fill-opacity="1" /><path clip-path="url(#clip920)" d="M1131.78 447.776 L1159.31 447.776 L1159.31 453.679 L1138.2 453.679 L1138.2 466.387 Q1139.73 465.867 1141.26 465.624 Q1142.78 465.346 1144.31 465.346 Q1152.99 465.346 1158.06 470.103 Q1163.13 474.86 1163.13 482.985 Q1163.13 491.353 1157.92 496.005 Q1152.72 500.623 1143.24 500.623 Q1139.97 500.623 1136.57 500.068 Q1133.2 499.512 1129.59 498.401 L1129.59 491.353 Q1132.72 493.054 1136.05 493.887 Q1139.38 494.721 1143.1 494.721 Q1149.1 494.721 1152.61 491.561 Q1156.12 488.401 1156.12 482.985 Q1156.12 477.568 1152.61 474.408 Q1149.1 471.248 1143.1 471.248 Q1140.28 471.248 1137.47 471.873 Q1134.69 472.498 1131.78 473.818 L1131.78 447.776 Z" fill="#ffa500" fill-rule="nonzero" fill-opacity="1" /><path clip-path="url(#clip920)" d="M1063.58 204.622 L1075.04 204.622 L1075.04 165.074 L1062.58 167.574 L1062.58 161.185 L1074.97 158.685 L1081.99 158.685 L1081.99 204.622 L1093.44 204.622 L1093.44 210.525 L1063.58 210.525 L1063.58 204.622 Z" fill="#ffa500" fill-rule="nonzero" fill-opacity="1" /><path clip-path="url(#clip920)" d="M1107.61 201.706 L1114.94 201.706 L1114.94 210.525 L1107.61 210.525 L1107.61 201.706 Z" fill="#ffa500" fill-rule="nonzero" fill-opacity="1" /><path clip-path="url(#clip920)" d="M1145.22 163.303 Q1139.8 163.303 1137.06 168.65 Q1134.35 173.963 1134.35 184.657 Q1134.35 195.317 1137.06 200.664 Q1139.8 205.977 1145.22 205.977 Q1150.67 205.977 1153.38 200.664 Q1156.12 195.317 1156.12 184.657 Q1156.12 173.963 1153.38 168.65 Q1150.67 163.303 1145.22 163.303 M1145.22 157.748 Q1153.93 157.748 1158.51 164.657 Q1163.13 171.532 1163.13 184.657 Q1163.13 197.747 1158.51 204.657 Q1153.93 211.532 1145.22 211.532 Q1136.5 211.532 1131.88 204.657 Q1127.3 197.747 1127.3 184.657 Q1127.3 171.532 1131.88 164.657 Q1136.5 157.748 1145.22 157.748 Z" fill="#ffa500" fill-rule="nonzero" fill-opacity="1" /><path clip-path="url(#clip920)" d="M885.055 735.6 L913.441 756.693 L943.388 734.506 L943.388 745.808 L920.472 762.787 L943.388 779.766 L943.388 791.068 L912.868 768.412 L885.055 789.141 L885.055 777.839 L905.836 762.37 L885.055 746.902 L885.055 735.6 Z" fill="#006400" fill-rule="nonzero" fill-opacity="1" /><g clip-path="url(#clip920)">
<text style="fill:#000000; fill-opacity:1; font-family:Times New Roman,TimesNewRoman,Times,Baskerville,Georgia,serif; font-size:130px; text-anchor:middle;" transform="rotate(0, 1775.94, 103.2)" x="1775.94" y="103.2">Trigonometric Functions</text>
</g>
<polyline clip-path="url(#clip922)" style="stroke:#009af9; stroke-linecap:round; stroke-linejoin:round; stroke-width:8; stroke-opacity:1; fill:none" points="1231.78,762.788 1234.59,744.039 1237.4,725.31 1240.21,706.62 1243.02,687.989 1251.24,633.955 1259.47,581.082 1267.69,529.847 1275.92,480.712 1280.03,457.071 1284.15,434.119 1288.26,411.908 1292.37,390.489 1296.48,369.909 1300.6,350.215 1304.71,331.451 1308.82,313.66 1312.65,298.015 1316.48,283.278 1320.3,269.477 1324.13,256.638 1327.96,244.788 1331.78,233.949 1335.61,224.141 1339.44,215.386 1344.56,205.328 1349.69,197.226 1354.82,191.106 1359.95,186.991 1365.08,184.895 1370.21,184.825 1375.34,186.781 1380.47,190.758 1384.71,195.557 1388.94,201.715 1393.18,209.217 1397.42,218.043 1401.66,228.174 1405.9,239.585 1410.14,252.249 1414.37,266.135 1418.31,280.116 1422.26,295.096 1426.2,311.044 1430.14,327.927 1434.08,345.711 1438.02,364.358 1441.96,383.83 1445.9,404.087 1450.85,430.563 1455.8,458.122 1460.74,486.675 1465.69,516.129 1475.59,577.352 1485.48,640.994 1503.23,758.583 1520.98,876.349 1531.14,941.92 1541.3,1005.03 1546.38,1035.39 1551.46,1064.81 1556.54,1093.19 1561.62,1120.43 1565.42,1140 1569.22,1158.85 1573.01,1176.93 1576.81,1194.21 1580.61,1210.67 1584.41,1226.26 1588.2,1240.97 1592,1254.76 1596.86,1271.01 1601.71,1285.66 1606.57,1298.67 1611.43,1309.99 1616.28,1319.6 1621.14,1327.45 1626,1333.53 1630.85,1337.82 1635.28,1340.15 1639.72,1340.97 1644.15,1340.28 1648.58,1338.07 1653.01,1334.36 1657.45,1329.15 1661.88,1322.46 1666.31,1314.3 1671.36,1303.26 1676.4,1290.38 1681.45,1275.72 1686.49,1259.31 1691.54,1241.22 1696.58,1221.51 1701.63,1200.24 1706.67,1177.49 1710.67,1158.45 1714.67,1138.57 1718.67,1117.89 1722.67,1096.45 1726.67,1074.29 1730.67,1051.48 1734.67,1028.05 1738.66,1004.05 1748.6,942.307 1758.54,878.205 1768.48,812.585 1778.41,746.31 1786.02,695.654 1793.63,645.517 1801.24,596.285 1808.85,548.337 1814.22,515.51 1819.58,483.632 1824.95,452.825 1830.31,423.206 1835.68,394.89 1841.04,367.985 1846.4,342.594 1851.77,318.815 1855.78,302.152 1859.79,286.477 1863.8,271.821 1867.8,258.217 1871.81,245.694 1875.82,234.279 1879.83,223.996 1883.84,214.867 1888.4,205.913 1892.96,198.502 1897.52,192.654 1902.08,188.385 1906.63,185.708 1911.19,184.629 1915.75,185.152 1920.31,187.275 1924.83,190.95 1929.34,196.177 1933.86,202.945 1938.37,211.233 1942.89,221.021 1947.4,232.28 1951.92,244.98 1956.43,259.088 1961.4,276.188 1966.37,294.889 1971.33,315.129 1976.3,336.84 1981.27,359.953 1986.23,384.39 1991.2,410.071 1996.17,436.913 2003.76,479.955 2011.35,525.168 2018.93,572.203 2026.52,620.701 2045.67,747.087 2064.82,874.238 2073.68,931.572 2082.54,987.142 2086.97,1014.08 2091.39,1040.37 2095.82,1065.93 2100.25,1090.69 2104.82,1115.34 2109.38,1139 2113.95,1161.62 2118.52,1183.13 2123.09,1203.47 2127.65,1222.59 2132.22,1240.42 2136.79,1256.93 2141.42,1272.27 2146.04,1286.14 2150.67,1298.52 2155.3,1309.38 2159.93,1318.67 2164.56,1326.37 2169.19,1332.46 2173.82,1336.93 2178.65,1339.84 2183.49,1340.96 2188.32,1340.27 2193.15,1337.79 2197.99,1333.52 2202.82,1327.46 2207.66,1319.65 2212.49,1310.11 2216.3,1301.39 2220.1,1291.63 2223.91,1280.85 2227.72,1269.06 2231.53,1256.3 2235.34,1242.58 2239.14,1227.94 2242.95,1212.39 2247.29,1193.64 2251.62,1173.81 2255.96,1152.94 2260.29,1131.1 2264.63,1108.33 2268.97,1084.7 2273.3,1060.27 2277.64,1035.08 2286.31,982.737 2294.98,928.187 2303.65,871.98 2312.32,814.679 2314.27,801.729 2316.21,788.759 2318.16,775.777 2320.11,762.788 "/>
<polyline clip-path="url(#clip922)" style="stroke:#e26f46; stroke-linecap:round; stroke-linejoin:round; stroke-width:8; stroke-opacity:1; fill:none" points="1231.78,184.605 1234.59,184.909 1237.4,185.821 1240.21,187.34 1243.02,189.464 1247.13,193.661 1251.24,199.141 1255.36,205.893 1259.47,213.9 1263.58,223.144 1267.69,233.606 1271.81,245.26 1275.92,258.082 1280.03,272.041 1284.15,287.107 1288.26,303.246 1292.37,320.421 1296.48,338.593 1300.6,357.721 1304.71,377.764 1308.82,398.674 1316.48,439.731 1324.13,483.31 1331.78,529.069 1339.44,576.653 1349.69,642.643 1359.95,710.316 1370.21,778.725 1380.47,846.911 1388.94,902.405 1397.42,956.563 1405.9,1008.87 1414.37,1058.81 1422.26,1102.73 1430.14,1143.83 1434.08,1163.21 1438.02,1181.77 1441.96,1199.46 1445.9,1216.25 1450.85,1235.99 1455.8,1254.19 1460.74,1270.78 1465.69,1285.72 1470.64,1298.95 1475.59,1310.43 1480.53,1320.12 1485.48,1328 1489.92,1333.49 1494.36,1337.49 1498.8,1339.98 1503.23,1340.95 1507.67,1340.41 1512.11,1338.35 1516.55,1334.78 1520.98,1329.71 1526.06,1322.08 1531.14,1312.52 1536.22,1301.08 1541.3,1287.78 1546.38,1272.67 1551.46,1255.82 1556.54,1237.27 1561.62,1217.08 1565.42,1200.97 1569.22,1184.02 1573.01,1166.25 1576.81,1147.71 1584.41,1108.45 1592,1066.54 1601.71,1009.57 1611.43,949.498 1621.14,887.083 1630.85,823.106 1648.58,704.945 1666.31,589.199 1671.36,557.386 1676.4,526.27 1681.45,495.956 1686.49,466.547 1691.54,438.143 1696.58,410.84 1701.63,384.731 1706.67,359.904 1710.67,341.191 1714.67,323.377 1718.67,306.499 1722.67,290.594 1726.67,275.695 1730.67,261.835 1734.67,249.043 1738.66,237.347 1743.63,224.378 1748.6,213.181 1753.57,203.792 1758.54,196.242 1763.51,190.556 1768.48,186.754 1773.44,184.846 1778.41,184.84 1782.22,186.121 1786.02,188.516 1789.83,192.018 1793.63,196.623 1797.44,202.32 1801.24,209.098 1805.05,216.946 1808.85,225.846 1814.22,240.151 1819.58,256.46 1824.95,274.712 1830.31,294.835 1835.68,316.754 1841.04,340.383 1846.4,365.632 1851.77,392.405 1859.79,435.033 1867.8,480.469 1875.82,528.322 1883.84,578.184 1902.08,696.781 1920.31,818.293 1929.34,877.887 1938.37,936.232 1947.4,992.693 1956.43,1046.66 1961.4,1075.06 1966.37,1102.44 1971.33,1128.71 1976.3,1153.77 1981.27,1177.54 1986.23,1199.95 1991.2,1220.92 1996.17,1240.39 1999.96,1254.2 2003.76,1267.07 2007.55,1278.97 2011.35,1289.89 2015.14,1299.79 2018.93,1308.66 2022.73,1316.48 2026.52,1323.24 2031.31,1330.23 2036.1,1335.5 2040.89,1339.01 2045.67,1340.76 2050.46,1340.74 2055.25,1338.96 2060.04,1335.42 2064.82,1330.13 2069.25,1323.69 2073.68,1315.79 2078.11,1306.44 2082.54,1295.67 2086.97,1283.5 2091.39,1269.98 2095.82,1255.13 2100.25,1238.99 2104.82,1221.05 2109.38,1201.83 2113.95,1181.39 2118.52,1159.79 2123.09,1137.08 2127.65,1113.33 2132.22,1088.61 2136.79,1062.98 2146.04,1008.54 2155.3,951.297 2164.56,891.901 2173.82,831.031 2193.15,702.222 2212.49,576.42 2220.1,529.074 2227.72,483.535 2235.34,440.153 2242.95,399.264 2247.29,377.221 2251.62,356.143 2255.96,336.085 2260.29,317.095 2264.63,299.223 2268.97,282.512 2273.3,267.004 2277.64,252.739 2281.97,239.752 2286.31,228.075 2290.64,217.739 2294.98,208.768 2299.32,201.185 2303.65,195.009 2307.99,190.257 2312.32,186.938 2314.27,185.918 2316.21,185.189 2318.16,184.751 2320.11,184.605 "/>
<path clip-path="url(#clip920)" d="M340.916 540.692 L855.015 540.692 L855.015 190.772 L340.916 190.772  Z" fill="#ffffff" fill-rule="evenodd" fill-opacity="1"/>
<polyline clip-path="url(#clip920)" style="stroke:#000000; stroke-linecap:round; stroke-linejoin:round; stroke-width:4; stroke-opacity:1; fill:none" points="340.916,540.692 855.015,540.692 855.015,190.772 340.916,190.772 340.916,540.692 "/>
<polyline clip-path="url(#clip920)" style="stroke:#009af9; stroke-linecap:round; stroke-linejoin:round; stroke-width:18; stroke-opacity:1; fill:none" points="363.27,307.412 497.392,307.412 "/>
<path clip-path="url(#clip920)" d="M561.204 289.678 L561.204 298.741 Q557.142 296.657 552.767 295.616 Q548.392 294.574 543.704 294.574 Q536.569 294.574 532.975 296.761 Q529.434 298.949 529.434 303.324 Q529.434 306.657 531.986 308.584 Q534.538 310.459 542.246 312.178 L545.527 312.907 Q555.736 315.095 560.006 319.105 Q564.329 323.063 564.329 330.199 Q564.329 338.324 557.871 343.063 Q551.465 347.803 540.215 347.803 Q535.527 347.803 530.423 346.865 Q525.371 345.98 519.746 344.157 L519.746 334.261 Q525.059 337.022 530.215 338.428 Q535.371 339.782 540.423 339.782 Q547.194 339.782 550.84 337.49 Q554.486 335.147 554.486 330.928 Q554.486 327.022 551.829 324.938 Q549.225 322.855 540.319 320.928 L536.986 320.147 Q528.079 318.272 524.121 314.418 Q520.163 310.511 520.163 303.741 Q520.163 295.511 525.996 291.032 Q531.829 286.553 542.559 286.553 Q547.871 286.553 552.559 287.334 Q557.246 288.116 561.204 289.678 Z" fill="#000000" fill-rule="nonzero" fill-opacity="1" /><path clip-path="url(#clip920)" d="M579.59 287.959 L589.173 287.959 L589.173 346.292 L579.59 346.292 L579.59 287.959 M579.59 265.251 L589.173 265.251 L589.173 277.386 L579.59 277.386 L579.59 265.251 Z" fill="#000000" fill-rule="nonzero" fill-opacity="1" /><path clip-path="url(#clip920)" d="M657.714 311.084 L657.714 346.292 L648.131 346.292 L648.131 311.397 Q648.131 303.116 644.902 299.001 Q641.673 294.886 635.214 294.886 Q627.454 294.886 622.975 299.834 Q618.496 304.782 618.496 313.324 L618.496 346.292 L608.86 346.292 L608.86 287.959 L618.496 287.959 L618.496 297.022 Q621.933 291.761 626.569 289.157 Q631.256 286.553 637.35 286.553 Q647.402 286.553 652.558 292.803 Q657.714 299.001 657.714 311.084 Z" fill="#000000" fill-rule="nonzero" fill-opacity="1" /><path clip-path="url(#clip920)" d="M699.849 265.355 Q692.87 277.334 689.485 289.053 Q686.099 300.772 686.099 312.803 Q686.099 324.834 689.485 336.657 Q692.922 348.428 699.849 360.355 L691.516 360.355 Q683.704 348.115 679.797 336.292 Q675.943 324.47 675.943 312.803 Q675.943 301.188 679.797 289.418 Q683.652 277.647 691.516 265.355 L699.849 265.355 Z" fill="#000000" fill-rule="nonzero" fill-opacity="1" /><path clip-path="url(#clip920)" d="M757.609 309.313 L724.433 309.313 Q725.214 324.886 728.808 331.501 Q733.287 339.626 741.047 339.626 Q748.86 339.626 753.182 331.449 Q756.984 324.261 757.609 309.313 M757.453 300.459 Q755.995 285.668 753.182 280.459 Q748.703 272.23 741.047 272.23 Q733.078 272.23 728.86 280.355 Q725.526 286.918 724.537 300.459 L757.453 300.459 M741.047 264.418 Q753.547 264.418 760.682 275.459 Q767.818 286.449 767.818 305.928 Q767.818 325.355 760.682 336.397 Q753.547 347.49 741.047 347.49 Q728.495 347.49 721.412 336.397 Q714.276 325.355 714.276 305.928 Q714.276 286.449 721.412 275.459 Q728.495 264.418 741.047 264.418 Z" fill="#000000" fill-rule="nonzero" fill-opacity="1" /><path clip-path="url(#clip920)" d="M782.193 265.355 L790.526 265.355 Q798.338 277.647 802.193 289.418 Q806.099 301.188 806.099 312.803 Q806.099 324.47 802.193 336.292 Q798.338 348.115 790.526 360.355 L782.193 360.355 Q789.12 348.428 792.505 336.657 Q795.943 324.834 795.943 312.803 Q795.943 300.772 792.505 289.053 Q789.12 277.334 782.193 265.355 Z" fill="#000000" fill-rule="nonzero" fill-opacity="1" /><polyline clip-path="url(#clip920)" style="stroke:#e26f46; stroke-linecap:round; stroke-linejoin:round; stroke-width:18; stroke-opacity:1; fill:none" points="363.27,424.052 497.392,424.052 "/>
<path clip-path="url(#clip920)" d="M565.892 406.839 L565.892 415.797 Q561.829 413.558 557.715 412.464 Q553.652 411.318 549.486 411.318 Q540.163 411.318 535.007 417.256 Q529.85 423.141 529.85 433.818 Q529.85 444.495 535.007 450.432 Q540.163 456.318 549.486 456.318 Q553.652 456.318 557.715 455.224 Q561.829 454.078 565.892 451.839 L565.892 460.693 Q561.881 462.568 557.558 463.505 Q553.288 464.443 548.444 464.443 Q535.267 464.443 527.507 456.162 Q519.746 447.88 519.746 433.818 Q519.746 419.547 527.559 411.37 Q535.423 403.193 549.069 403.193 Q553.496 403.193 557.715 404.131 Q561.933 405.016 565.892 406.839 Z" fill="#000000" fill-rule="nonzero" fill-opacity="1" /><path clip-path="url(#clip920)" d="M605.162 411.318 Q597.454 411.318 592.975 417.36 Q588.496 423.349 588.496 433.818 Q588.496 444.287 592.923 450.328 Q597.402 456.318 605.162 456.318 Q612.819 456.318 617.298 450.276 Q621.777 444.235 621.777 433.818 Q621.777 423.453 617.298 417.412 Q612.819 411.318 605.162 411.318 M605.162 403.193 Q617.662 403.193 624.798 411.318 Q631.933 419.443 631.933 433.818 Q631.933 448.141 624.798 456.318 Q617.662 464.443 605.162 464.443 Q592.61 464.443 585.475 456.318 Q578.392 448.141 578.392 433.818 Q578.392 419.443 585.475 411.318 Q592.61 403.193 605.162 403.193 Z" fill="#000000" fill-rule="nonzero" fill-opacity="1" /><path clip-path="url(#clip920)" d="M685.006 406.318 L685.006 415.381 Q680.943 413.297 676.568 412.256 Q672.193 411.214 667.506 411.214 Q660.37 411.214 656.777 413.401 Q653.235 415.589 653.235 419.964 Q653.235 423.297 655.787 425.224 Q658.339 427.099 666.047 428.818 L669.329 429.547 Q679.537 431.735 683.808 435.745 Q688.131 439.703 688.131 446.839 Q688.131 454.964 681.672 459.703 Q675.266 464.443 664.016 464.443 Q659.329 464.443 654.225 463.505 Q649.173 462.62 643.548 460.797 L643.548 450.901 Q648.86 453.662 654.016 455.068 Q659.173 456.422 664.225 456.422 Q670.995 456.422 674.641 454.13 Q678.287 451.787 678.287 447.568 Q678.287 443.662 675.631 441.578 Q673.027 439.495 664.12 437.568 L660.787 436.787 Q651.881 434.912 647.923 431.058 Q643.964 427.151 643.964 420.381 Q643.964 412.151 649.798 407.672 Q655.631 403.193 666.36 403.193 Q671.672 403.193 676.36 403.974 Q681.047 404.756 685.006 406.318 Z" fill="#000000" fill-rule="nonzero" fill-opacity="1" /><path clip-path="url(#clip920)" d="M726.412 381.995 Q719.433 393.974 716.047 405.693 Q712.662 417.412 712.662 429.443 Q712.662 441.474 716.047 453.297 Q719.485 465.068 726.412 476.995 L718.078 476.995 Q710.266 464.755 706.36 452.932 Q702.506 441.11 702.506 429.443 Q702.506 417.828 706.36 406.058 Q710.214 394.287 718.078 381.995 L726.412 381.995 Z" fill="#000000" fill-rule="nonzero" fill-opacity="1" /><path clip-path="url(#clip920)" d="M784.172 425.953 L750.995 425.953 Q751.776 441.526 755.37 448.141 Q759.849 456.266 767.609 456.266 Q775.422 456.266 779.745 448.089 Q783.547 440.901 784.172 425.953 M784.016 417.099 Q782.557 402.308 779.745 397.099 Q775.266 388.87 767.609 388.87 Q759.641 388.87 755.422 396.995 Q752.089 403.558 751.099 417.099 L784.016 417.099 M767.609 381.058 Q780.109 381.058 787.245 392.099 Q794.38 403.089 794.38 422.568 Q794.38 441.995 787.245 453.037 Q780.109 464.13 767.609 464.13 Q755.057 464.13 747.974 453.037 Q740.839 441.995 740.839 422.568 Q740.839 403.089 747.974 392.099 Q755.057 381.058 767.609 381.058 Z" fill="#000000" fill-rule="nonzero" fill-opacity="1" /><path clip-path="url(#clip920)" d="M808.755 381.995 L817.088 381.995 Q824.901 394.287 828.755 406.058 Q832.661 417.828 832.661 429.443 Q832.661 441.11 828.755 452.932 Q824.901 464.755 817.088 476.995 L808.755 476.995 Q815.682 465.068 819.067 453.297 Q822.505 441.474 822.505 429.443 Q822.505 417.412 819.067 405.693 Q815.682 393.974 808.755 381.995 Z" fill="#000000" fill-rule="nonzero" fill-opacity="1" /></svg>
