<?xml version="1.0" encoding="utf-8"?>
<svg xmlns="http://www.w3.org/2000/svg" xmlns:xlink="http://www.w3.org/1999/xlink" width="600" height="400" viewBox="0 0 2400 1600">
<defs>
  <clipPath id="clip020">
    <rect x="0" y="0" width="2400" height="1600"/>
  </clipPath>
</defs>
<path clip-path="url(#clip020)" d="M0 1600 L2400 1600 L2400 0 L0 0  Z" fill="#ffffff" fill-rule="evenodd" fill-opacity="1"/>
<defs>
  <clipPath id="clip021">
    <rect x="480" y="0" width="1681" height="1600"/>
  </clipPath>
</defs>
<path clip-path="url(#clip020)" d="M156.598 686.448 L1152.76 686.448 L1152.76 47.2441 L156.598 47.2441  Z" fill="#ffffff" fill-rule="evenodd" fill-opacity="1"/>
<defs>
  <clipPath id="clip022">
    <rect x="156" y="47" width="997" height="640"/>
  </clipPath>
</defs>
<polyline clip-path="url(#clip022)" style="stroke:#000000; stroke-linecap:round; stroke-linejoin:round; stroke-width:2; stroke-opacity:0.1; fill:none" points="203.027,686.448 203.027,47.2441 "/>
<polyline clip-path="url(#clip022)" style="stroke:#000000; stroke-linecap:round; stroke-linejoin:round; stroke-width:2; stroke-opacity:0.1; fill:none" points="430.513,686.448 430.513,47.2441 "/>
<polyline clip-path="url(#clip022)" style="stroke:#000000; stroke-linecap:round; stroke-linejoin:round; stroke-width:2; stroke-opacity:0.1; fill:none" points="657.998,686.448 657.998,47.2441 "/>
<polyline clip-path="url(#clip022)" style="stroke:#000000; stroke-linecap:round; stroke-linejoin:round; stroke-width:2; stroke-opacity:0.1; fill:none" points="885.484,686.448 885.484,47.2441 "/>
<polyline clip-path="url(#clip022)" style="stroke:#000000; stroke-linecap:round; stroke-linejoin:round; stroke-width:2; stroke-opacity:0.1; fill:none" points="1112.97,686.448 1112.97,47.2441 "/>
<polyline clip-path="url(#clip022)" style="stroke:#000000; stroke-linecap:round; stroke-linejoin:round; stroke-width:2; stroke-opacity:0.1; fill:none" points="156.598,686.448 1152.76,686.448 "/>
<polyline clip-path="url(#clip022)" style="stroke:#000000; stroke-linecap:round; stroke-linejoin:round; stroke-width:2; stroke-opacity:0.1; fill:none" points="156.598,546.683 1152.76,546.683 "/>
<polyline clip-path="url(#clip022)" style="stroke:#000000; stroke-linecap:round; stroke-linejoin:round; stroke-width:2; stroke-opacity:0.1; fill:none" points="156.598,406.919 1152.76,406.919 "/>
<polyline clip-path="url(#clip022)" style="stroke:#000000; stroke-linecap:round; stroke-linejoin:round; stroke-width:2; stroke-opacity:0.1; fill:none" points="156.598,267.154 1152.76,267.154 "/>
<polyline clip-path="url(#clip022)" style="stroke:#000000; stroke-linecap:round; stroke-linejoin:round; stroke-width:2; stroke-opacity:0.1; fill:none" points="156.598,127.39 1152.76,127.39 "/>
<polyline clip-path="url(#clip020)" style="stroke:#000000; stroke-linecap:round; stroke-linejoin:round; stroke-width:4; stroke-opacity:1; fill:none" points="156.598,686.448 1152.76,686.448 "/>
<polyline clip-path="url(#clip020)" style="stroke:#000000; stroke-linecap:round; stroke-linejoin:round; stroke-width:4; stroke-opacity:1; fill:none" points="203.027,686.448 203.027,667.55 "/>
<polyline clip-path="url(#clip020)" style="stroke:#000000; stroke-linecap:round; stroke-linejoin:round; stroke-width:4; stroke-opacity:1; fill:none" points="430.513,686.448 430.513,667.55 "/>
<polyline clip-path="url(#clip020)" style="stroke:#000000; stroke-linecap:round; stroke-linejoin:round; stroke-width:4; stroke-opacity:1; fill:none" points="657.998,686.448 657.998,667.55 "/>
<polyline clip-path="url(#clip020)" style="stroke:#000000; stroke-linecap:round; stroke-linejoin:round; stroke-width:4; stroke-opacity:1; fill:none" points="885.484,686.448 885.484,667.55 "/>
<polyline clip-path="url(#clip020)" style="stroke:#000000; stroke-linecap:round; stroke-linejoin:round; stroke-width:4; stroke-opacity:1; fill:none" points="1112.97,686.448 1112.97,667.55 "/>
<path clip-path="url(#clip020)" d="M203.027 717.367 Q199.416 717.367 197.587 720.931 Q195.781 724.473 195.781 731.603 Q195.781 738.709 197.587 742.274 Q199.416 745.815 203.027 745.815 Q206.661 745.815 208.466 742.274 Q210.295 738.709 210.295 731.603 Q210.295 724.473 208.466 720.931 Q206.661 717.367 203.027 717.367 M203.027 713.663 Q208.837 713.663 211.892 718.269 Q214.971 722.853 214.971 731.603 Q214.971 740.329 211.892 744.936 Q208.837 749.519 203.027 749.519 Q197.216 749.519 194.138 744.936 Q191.082 740.329 191.082 731.603 Q191.082 722.853 194.138 718.269 Q197.216 713.663 203.027 713.663 Z" fill="#000000" fill-rule="nonzero" fill-opacity="1" /><path clip-path="url(#clip020)" d="M409.783 744.913 L426.103 744.913 L426.103 748.848 L404.158 748.848 L404.158 744.913 Q406.821 742.158 411.404 737.528 Q416.01 732.876 417.191 731.533 Q419.436 729.01 420.316 727.274 Q421.219 725.515 421.219 723.825 Q421.219 721.07 419.274 719.334 Q417.353 717.598 414.251 717.598 Q412.052 717.598 409.598 718.362 Q407.168 719.126 404.39 720.677 L404.39 715.955 Q407.214 714.82 409.668 714.242 Q412.121 713.663 414.158 713.663 Q419.529 713.663 422.723 716.348 Q425.918 719.033 425.918 723.524 Q425.918 725.654 425.107 727.575 Q424.32 729.473 422.214 732.066 Q421.635 732.737 418.533 735.954 Q415.432 739.149 409.783 744.913 Z" fill="#000000" fill-rule="nonzero" fill-opacity="1" /><path clip-path="url(#clip020)" d="M435.964 714.288 L454.32 714.288 L454.32 718.223 L440.246 718.223 L440.246 726.695 Q441.265 726.348 442.283 726.186 Q443.302 726.001 444.32 726.001 Q450.107 726.001 453.487 729.172 Q456.867 732.343 456.867 737.76 Q456.867 743.339 453.394 746.44 Q449.922 749.519 443.603 749.519 Q441.427 749.519 439.158 749.149 Q436.913 748.778 434.506 748.038 L434.506 743.339 Q436.589 744.473 438.811 745.028 Q441.033 745.584 443.51 745.584 Q447.515 745.584 449.853 743.478 Q452.191 741.371 452.191 737.76 Q452.191 734.149 449.853 732.042 Q447.515 729.936 443.51 729.936 Q441.635 729.936 439.76 730.353 Q437.908 730.769 435.964 731.649 L435.964 714.288 Z" fill="#000000" fill-rule="nonzero" fill-opacity="1" /><path clip-path="url(#clip020)" d="M632.698 714.288 L651.054 714.288 L651.054 718.223 L636.98 718.223 L636.98 726.695 Q637.998 726.348 639.017 726.186 Q640.035 726.001 641.054 726.001 Q646.841 726.001 650.221 729.172 Q653.6 732.343 653.6 737.76 Q653.6 743.339 650.128 746.44 Q646.656 749.519 640.336 749.519 Q638.161 749.519 635.892 749.149 Q633.647 748.778 631.239 748.038 L631.239 743.339 Q633.323 744.473 635.545 745.028 Q637.767 745.584 640.244 745.584 Q644.248 745.584 646.586 743.478 Q648.924 741.371 648.924 737.76 Q648.924 734.149 646.586 732.042 Q644.248 729.936 640.244 729.936 Q638.369 729.936 636.494 730.353 Q634.642 730.769 632.698 731.649 L632.698 714.288 Z" fill="#000000" fill-rule="nonzero" fill-opacity="1" /><path clip-path="url(#clip020)" d="M672.813 717.367 Q669.202 717.367 667.373 720.931 Q665.568 724.473 665.568 731.603 Q665.568 738.709 667.373 742.274 Q669.202 745.815 672.813 745.815 Q676.447 745.815 678.253 742.274 Q680.082 738.709 680.082 731.603 Q680.082 724.473 678.253 720.931 Q676.447 717.367 672.813 717.367 M672.813 713.663 Q678.623 713.663 681.679 718.269 Q684.757 722.853 684.757 731.603 Q684.757 740.329 681.679 744.936 Q678.623 749.519 672.813 749.519 Q667.003 749.519 663.924 744.936 Q660.869 740.329 660.869 731.603 Q660.869 722.853 663.924 718.269 Q667.003 713.663 672.813 713.663 Z" fill="#000000" fill-rule="nonzero" fill-opacity="1" /><path clip-path="url(#clip020)" d="M859.339 714.288 L881.561 714.288 L881.561 716.279 L869.014 748.848 L864.13 748.848 L875.936 718.223 L859.339 718.223 L859.339 714.288 Z" fill="#000000" fill-rule="nonzero" fill-opacity="1" /><path clip-path="url(#clip020)" d="M890.727 714.288 L909.084 714.288 L909.084 718.223 L895.01 718.223 L895.01 726.695 Q896.028 726.348 897.047 726.186 Q898.065 726.001 899.084 726.001 Q904.871 726.001 908.25 729.172 Q911.63 732.343 911.63 737.76 Q911.63 743.339 908.158 746.44 Q904.686 749.519 898.366 749.519 Q896.19 749.519 893.922 749.149 Q891.676 748.778 889.269 748.038 L889.269 743.339 Q891.352 744.473 893.574 745.028 Q895.797 745.584 898.274 745.584 Q902.278 745.584 904.616 743.478 Q906.954 741.371 906.954 737.76 Q906.954 734.149 904.616 732.042 Q902.278 729.936 898.274 729.936 Q896.399 729.936 894.524 730.353 Q892.672 730.769 890.727 731.649 L890.727 714.288 Z" fill="#000000" fill-rule="nonzero" fill-opacity="1" /><path clip-path="url(#clip020)" d="M1072.58 744.913 L1080.22 744.913 L1080.22 718.547 L1071.91 720.214 L1071.91 715.955 L1080.17 714.288 L1084.85 714.288 L1084.85 744.913 L1092.48 744.913 L1092.48 748.848 L1072.58 748.848 L1072.58 744.913 Z" fill="#000000" fill-rule="nonzero" fill-opacity="1" /><path clip-path="url(#clip020)" d="M1111.93 717.367 Q1108.32 717.367 1106.49 720.931 Q1104.68 724.473 1104.68 731.603 Q1104.68 738.709 1106.49 742.274 Q1108.32 745.815 1111.93 745.815 Q1115.56 745.815 1117.37 742.274 Q1119.2 738.709 1119.2 731.603 Q1119.2 724.473 1117.37 720.931 Q1115.56 717.367 1111.93 717.367 M1111.93 713.663 Q1117.74 713.663 1120.79 718.269 Q1123.87 722.853 1123.87 731.603 Q1123.87 740.329 1120.79 744.936 Q1117.74 749.519 1111.93 749.519 Q1106.12 749.519 1103.04 744.936 Q1099.98 740.329 1099.98 731.603 Q1099.98 722.853 1103.04 718.269 Q1106.12 713.663 1111.93 713.663 Z" fill="#000000" fill-rule="nonzero" fill-opacity="1" /><path clip-path="url(#clip020)" d="M1142.09 717.367 Q1138.48 717.367 1136.65 720.931 Q1134.84 724.473 1134.84 731.603 Q1134.84 738.709 1136.65 742.274 Q1138.48 745.815 1142.09 745.815 Q1145.72 745.815 1147.53 742.274 Q1149.36 738.709 1149.36 731.603 Q1149.36 724.473 1147.53 720.931 Q1145.72 717.367 1142.09 717.367 M1142.09 713.663 Q1147.9 713.663 1150.96 718.269 Q1154.03 722.853 1154.03 731.603 Q1154.03 740.329 1150.96 744.936 Q1147.9 749.519 1142.09 749.519 Q1136.28 749.519 1133.2 744.936 Q1130.15 740.329 1130.15 731.603 Q1130.15 722.853 1133.2 718.269 Q1136.28 713.663 1142.09 713.663 Z" fill="#000000" fill-rule="nonzero" fill-opacity="1" /><polyline clip-path="url(#clip020)" style="stroke:#000000; stroke-linecap:round; stroke-linejoin:round; stroke-width:4; stroke-opacity:1; fill:none" points="156.598,686.448 156.598,47.2441 "/>
<polyline clip-path="url(#clip020)" style="stroke:#000000; stroke-linecap:round; stroke-linejoin:round; stroke-width:4; stroke-opacity:1; fill:none" points="156.598,686.448 175.496,686.448 "/>
<polyline clip-path="url(#clip020)" style="stroke:#000000; stroke-linecap:round; stroke-linejoin:round; stroke-width:4; stroke-opacity:1; fill:none" points="156.598,546.683 175.496,546.683 "/>
<polyline clip-path="url(#clip020)" style="stroke:#000000; stroke-linecap:round; stroke-linejoin:round; stroke-width:4; stroke-opacity:1; fill:none" points="156.598,406.919 175.496,406.919 "/>
<polyline clip-path="url(#clip020)" style="stroke:#000000; stroke-linecap:round; stroke-linejoin:round; stroke-width:4; stroke-opacity:1; fill:none" points="156.598,267.154 175.496,267.154 "/>
<polyline clip-path="url(#clip020)" style="stroke:#000000; stroke-linecap:round; stroke-linejoin:round; stroke-width:4; stroke-opacity:1; fill:none" points="156.598,127.39 175.496,127.39 "/>
<path clip-path="url(#clip020)" d="M63.4226 672.247 Q59.8115 672.247 57.9828 675.811 Q56.1773 679.353 56.1773 686.483 Q56.1773 693.589 57.9828 697.154 Q59.8115 700.695 63.4226 700.695 Q67.0569 700.695 68.8624 697.154 Q70.6911 693.589 70.6911 686.483 Q70.6911 679.353 68.8624 675.811 Q67.0569 672.247 63.4226 672.247 M63.4226 668.543 Q69.2328 668.543 72.2883 673.149 Q75.367 677.733 75.367 686.483 Q75.367 695.209 72.2883 699.816 Q69.2328 704.399 63.4226 704.399 Q57.6125 704.399 54.5338 699.816 Q51.4782 695.209 51.4782 686.483 Q51.4782 677.733 54.5338 673.149 Q57.6125 668.543 63.4226 668.543 Z" fill="#000000" fill-rule="nonzero" fill-opacity="1" /><path clip-path="url(#clip020)" d="M83.5845 697.848 L88.4688 697.848 L88.4688 703.728 L83.5845 703.728 L83.5845 697.848 Z" fill="#000000" fill-rule="nonzero" fill-opacity="1" /><path clip-path="url(#clip020)" d="M108.654 672.247 Q105.043 672.247 103.214 675.811 Q101.409 679.353 101.409 686.483 Q101.409 693.589 103.214 697.154 Q105.043 700.695 108.654 700.695 Q112.288 700.695 114.094 697.154 Q115.922 693.589 115.922 686.483 Q115.922 679.353 114.094 675.811 Q112.288 672.247 108.654 672.247 M108.654 668.543 Q114.464 668.543 117.52 673.149 Q120.598 677.733 120.598 686.483 Q120.598 695.209 117.52 699.816 Q114.464 704.399 108.654 704.399 Q102.844 704.399 99.765 699.816 Q96.7095 695.209 96.7095 686.483 Q96.7095 677.733 99.765 673.149 Q102.844 668.543 108.654 668.543 Z" fill="#000000" fill-rule="nonzero" fill-opacity="1" /><path clip-path="url(#clip020)" d="M65.0198 532.482 Q61.4087 532.482 59.58 536.047 Q57.7745 539.588 57.7745 546.718 Q57.7745 553.825 59.58 557.389 Q61.4087 560.931 65.0198 560.931 Q68.6541 560.931 70.4596 557.389 Q72.2883 553.825 72.2883 546.718 Q72.2883 539.588 70.4596 536.047 Q68.6541 532.482 65.0198 532.482 M65.0198 528.778 Q70.83 528.778 73.8855 533.385 Q76.9642 537.968 76.9642 546.718 Q76.9642 555.445 73.8855 560.051 Q70.83 564.635 65.0198 564.635 Q59.2097 564.635 56.131 560.051 Q53.0754 555.445 53.0754 546.718 Q53.0754 537.968 56.131 533.385 Q59.2097 528.778 65.0198 528.778 Z" fill="#000000" fill-rule="nonzero" fill-opacity="1" /><path clip-path="url(#clip020)" d="M85.1818 558.084 L90.066 558.084 L90.066 563.963 L85.1818 563.963 L85.1818 558.084 Z" fill="#000000" fill-rule="nonzero" fill-opacity="1" /><path clip-path="url(#clip020)" d="M104.279 560.028 L120.598 560.028 L120.598 563.963 L98.6539 563.963 L98.6539 560.028 Q101.316 557.274 105.899 552.644 Q110.506 547.991 111.686 546.649 Q113.932 544.125 114.811 542.389 Q115.714 540.63 115.714 538.94 Q115.714 536.186 113.77 534.45 Q111.848 532.714 108.746 532.714 Q106.547 532.714 104.094 533.477 Q101.663 534.241 98.8854 535.792 L98.8854 531.07 Q101.709 529.936 104.163 529.357 Q106.617 528.778 108.654 528.778 Q114.024 528.778 117.219 531.464 Q120.413 534.149 120.413 538.639 Q120.413 540.769 119.603 542.69 Q118.816 544.588 116.709 547.181 Q116.131 547.852 113.029 551.07 Q109.927 554.264 104.279 560.028 Z" fill="#000000" fill-rule="nonzero" fill-opacity="1" /><path clip-path="url(#clip020)" d="M62.9365 392.718 Q59.3254 392.718 57.4967 396.282 Q55.6912 399.824 55.6912 406.954 Q55.6912 414.06 57.4967 417.625 Q59.3254 421.166 62.9365 421.166 Q66.5707 421.166 68.3763 417.625 Q70.205 414.06 70.205 406.954 Q70.205 399.824 68.3763 396.282 Q66.5707 392.718 62.9365 392.718 M62.9365 389.014 Q68.7467 389.014 71.8022 393.62 Q74.8809 398.204 74.8809 406.954 Q74.8809 415.68 71.8022 420.287 Q68.7467 424.87 62.9365 424.87 Q57.1264 424.87 54.0477 420.287 Q50.9921 415.68 50.9921 406.954 Q50.9921 398.204 54.0477 393.62 Q57.1264 389.014 62.9365 389.014 Z" fill="#000000" fill-rule="nonzero" fill-opacity="1" /><path clip-path="url(#clip020)" d="M83.0984 418.319 L87.9827 418.319 L87.9827 424.199 L83.0984 424.199 L83.0984 418.319 Z" fill="#000000" fill-rule="nonzero" fill-opacity="1" /><path clip-path="url(#clip020)" d="M111.015 393.713 L99.2095 412.162 L111.015 412.162 L111.015 393.713 M109.788 389.639 L115.668 389.639 L115.668 412.162 L120.598 412.162 L120.598 416.051 L115.668 416.051 L115.668 424.199 L111.015 424.199 L111.015 416.051 L95.4132 416.051 L95.4132 411.537 L109.788 389.639 Z" fill="#000000" fill-rule="nonzero" fill-opacity="1" /><path clip-path="url(#clip020)" d="M63.2606 252.953 Q59.6495 252.953 57.8208 256.518 Q56.0152 260.059 56.0152 267.189 Q56.0152 274.295 57.8208 277.86 Q59.6495 281.402 63.2606 281.402 Q66.8948 281.402 68.7004 277.86 Q70.5291 274.295 70.5291 267.189 Q70.5291 260.059 68.7004 256.518 Q66.8948 252.953 63.2606 252.953 M63.2606 249.249 Q69.0707 249.249 72.1263 253.856 Q75.205 258.439 75.205 267.189 Q75.205 275.916 72.1263 280.522 Q69.0707 285.106 63.2606 285.106 Q57.4504 285.106 54.3717 280.522 Q51.3162 275.916 51.3162 267.189 Q51.3162 258.439 54.3717 253.856 Q57.4504 249.249 63.2606 249.249 Z" fill="#000000" fill-rule="nonzero" fill-opacity="1" /><path clip-path="url(#clip020)" d="M83.4225 278.555 L88.3067 278.555 L88.3067 284.434 L83.4225 284.434 L83.4225 278.555 Z" fill="#000000" fill-rule="nonzero" fill-opacity="1" /><path clip-path="url(#clip020)" d="M109.071 265.291 Q105.922 265.291 104.071 267.444 Q102.242 269.596 102.242 273.346 Q102.242 277.073 104.071 279.249 Q105.922 281.402 109.071 281.402 Q112.219 281.402 114.047 279.249 Q115.899 277.073 115.899 273.346 Q115.899 269.596 114.047 267.444 Q112.219 265.291 109.071 265.291 M118.353 250.638 L118.353 254.897 Q116.594 254.064 114.788 253.624 Q113.006 253.184 111.246 253.184 Q106.617 253.184 104.163 256.309 Q101.733 259.434 101.385 265.754 Q102.751 263.74 104.811 262.675 Q106.871 261.587 109.348 261.587 Q114.557 261.587 117.566 264.758 Q120.598 267.907 120.598 273.346 Q120.598 278.67 117.45 281.888 Q114.302 285.106 109.071 285.106 Q103.075 285.106 99.9039 280.522 Q96.7326 275.916 96.7326 267.189 Q96.7326 258.995 100.621 254.134 Q104.51 249.249 111.061 249.249 Q112.82 249.249 114.603 249.597 Q116.408 249.944 118.353 250.638 Z" fill="#000000" fill-rule="nonzero" fill-opacity="1" /><path clip-path="url(#clip020)" d="M63.5152 113.188 Q59.9041 113.188 58.0754 116.753 Q56.2699 120.295 56.2699 127.425 Q56.2699 134.531 58.0754 138.096 Q59.9041 141.637 63.5152 141.637 Q67.1494 141.637 68.955 138.096 Q70.7837 134.531 70.7837 127.425 Q70.7837 120.295 68.955 116.753 Q67.1494 113.188 63.5152 113.188 M63.5152 109.485 Q69.3254 109.485 72.3809 114.091 Q75.4596 118.675 75.4596 127.425 Q75.4596 136.151 72.3809 140.758 Q69.3254 145.341 63.5152 145.341 Q57.7051 145.341 54.6264 140.758 Q51.5708 136.151 51.5708 127.425 Q51.5708 118.675 54.6264 114.091 Q57.7051 109.485 63.5152 109.485 Z" fill="#000000" fill-rule="nonzero" fill-opacity="1" /><path clip-path="url(#clip020)" d="M83.6771 138.79 L88.5614 138.79 L88.5614 144.67 L83.6771 144.67 L83.6771 138.79 Z" fill="#000000" fill-rule="nonzero" fill-opacity="1" /><path clip-path="url(#clip020)" d="M108.746 128.258 Q105.413 128.258 103.492 130.04 Q101.594 131.823 101.594 134.948 Q101.594 138.073 103.492 139.855 Q105.413 141.637 108.746 141.637 Q112.08 141.637 114.001 139.855 Q115.922 138.049 115.922 134.948 Q115.922 131.823 114.001 130.04 Q112.103 128.258 108.746 128.258 M104.071 126.267 Q101.061 125.526 99.3715 123.466 Q97.7048 121.406 97.7048 118.443 Q97.7048 114.3 100.645 111.892 Q103.608 109.485 108.746 109.485 Q113.908 109.485 116.848 111.892 Q119.788 114.3 119.788 118.443 Q119.788 121.406 118.098 123.466 Q116.432 125.526 113.445 126.267 Q116.825 127.054 118.7 129.346 Q120.598 131.637 120.598 134.948 Q120.598 139.971 117.52 142.656 Q114.464 145.341 108.746 145.341 Q103.029 145.341 99.9502 142.656 Q96.8947 139.971 96.8947 134.948 Q96.8947 131.637 98.7928 129.346 Q100.691 127.054 104.071 126.267 M102.358 118.883 Q102.358 121.568 104.024 123.073 Q105.714 124.577 108.746 124.577 Q111.756 124.577 113.445 123.073 Q115.158 121.568 115.158 118.883 Q115.158 116.198 113.445 114.693 Q111.756 113.188 108.746 113.188 Q105.714 113.188 104.024 114.693 Q102.358 116.198 102.358 118.883 Z" fill="#000000" fill-rule="nonzero" fill-opacity="1" /><path clip-path="url(#clip022)" d="M208.486 571.003 L208.486 686.448 L215.766 686.448 L215.766 571.003 L208.486 571.003 L208.486 571.003  Z" fill="#009af9" fill-rule="evenodd" fill-opacity="1"/>
<polyline clip-path="url(#clip022)" style="stroke:#009af9; stroke-linecap:round; stroke-linejoin:round; stroke-width:4; stroke-opacity:1; fill:none" points="208.486,571.003 208.486,686.448 215.766,686.448 215.766,571.003 208.486,571.003 "/>
<path clip-path="url(#clip022)" d="M263.083 104.908 L263.083 686.448 L270.362 686.448 L270.362 104.908 L263.083 104.908 L263.083 104.908  Z" fill="#009af9" fill-rule="evenodd" fill-opacity="1"/>
<polyline clip-path="url(#clip022)" style="stroke:#009af9; stroke-linecap:round; stroke-linejoin:round; stroke-width:4; stroke-opacity:1; fill:none" points="263.083,104.908 263.083,686.448 270.362,686.448 270.362,104.908 263.083,104.908 "/>
<path clip-path="url(#clip022)" d="M308.58 178.405 L308.58 686.448 L315.86 686.448 L315.86 178.405 L308.58 178.405 L308.58 178.405  Z" fill="#009af9" fill-rule="evenodd" fill-opacity="1"/>
<polyline clip-path="url(#clip022)" style="stroke:#009af9; stroke-linecap:round; stroke-linejoin:round; stroke-width:4; stroke-opacity:1; fill:none" points="308.58,178.405 308.58,686.448 315.86,686.448 315.86,178.405 308.58,178.405 "/>
<path clip-path="url(#clip022)" d="M335.878 120.199 L335.878 686.448 L343.158 686.448 L343.158 120.199 L335.878 120.199 L335.878 120.199  Z" fill="#009af9" fill-rule="evenodd" fill-opacity="1"/>
<polyline clip-path="url(#clip022)" style="stroke:#009af9; stroke-linecap:round; stroke-linejoin:round; stroke-width:4; stroke-opacity:1; fill:none" points="335.878,120.199 335.878,686.448 343.158,686.448 343.158,120.199 335.878,120.199 "/>
<path clip-path="url(#clip022)" d="M354.077 418.578 L354.077 686.448 L361.357 686.448 L361.357 418.578 L354.077 418.578 L354.077 418.578  Z" fill="#009af9" fill-rule="evenodd" fill-opacity="1"/>
<polyline clip-path="url(#clip022)" style="stroke:#009af9; stroke-linecap:round; stroke-linejoin:round; stroke-width:4; stroke-opacity:1; fill:none" points="354.077,418.578 354.077,686.448 361.357,686.448 361.357,418.578 354.077,418.578 "/>
<path clip-path="url(#clip022)" d="M381.376 344.323 L381.376 686.448 L388.655 686.448 L388.655 344.323 L381.376 344.323 L381.376 344.323  Z" fill="#009af9" fill-rule="evenodd" fill-opacity="1"/>
<polyline clip-path="url(#clip022)" style="stroke:#009af9; stroke-linecap:round; stroke-linejoin:round; stroke-width:4; stroke-opacity:1; fill:none" points="381.376,344.323 381.376,686.448 388.655,686.448 388.655,344.323 381.376,344.323 "/>
<path clip-path="url(#clip022)" d="M426.873 184.447 L426.873 686.448 L434.152 686.448 L434.152 184.447 L426.873 184.447 L426.873 184.447  Z" fill="#009af9" fill-rule="evenodd" fill-opacity="1"/>
<polyline clip-path="url(#clip022)" style="stroke:#009af9; stroke-linecap:round; stroke-linejoin:round; stroke-width:4; stroke-opacity:1; fill:none" points="426.873,184.447 426.873,686.448 434.152,686.448 434.152,184.447 426.873,184.447 "/>
<path clip-path="url(#clip022)" d="M517.867 77.7164 L517.867 686.448 L525.147 686.448 L525.147 77.7164 L517.867 77.7164 L517.867 77.7164  Z" fill="#009af9" fill-rule="evenodd" fill-opacity="1"/>
<polyline clip-path="url(#clip022)" style="stroke:#009af9; stroke-linecap:round; stroke-linejoin:round; stroke-width:4; stroke-opacity:1; fill:none" points="517.867,77.7164 517.867,686.448 525.147,686.448 525.147,77.7164 517.867,77.7164 "/>
<path clip-path="url(#clip022)" d="M554.265 625.585 L554.265 686.448 L561.544 686.448 L561.544 625.585 L554.265 625.585 L554.265 625.585  Z" fill="#009af9" fill-rule="evenodd" fill-opacity="1"/>
<polyline clip-path="url(#clip022)" style="stroke:#009af9; stroke-linecap:round; stroke-linejoin:round; stroke-width:4; stroke-opacity:1; fill:none" points="554.265,625.585 554.265,686.448 561.544,686.448 561.544,625.585 554.265,625.585 "/>
<path clip-path="url(#clip022)" d="M572.464 475.906 L572.464 686.448 L579.743 686.448 L579.743 475.906 L572.464 475.906 L572.464 475.906  Z" fill="#009af9" fill-rule="evenodd" fill-opacity="1"/>
<polyline clip-path="url(#clip022)" style="stroke:#009af9; stroke-linecap:round; stroke-linejoin:round; stroke-width:4; stroke-opacity:1; fill:none" points="572.464,475.906 572.464,686.448 579.743,686.448 579.743,475.906 572.464,475.906 "/>
<path clip-path="url(#clip022)" d="M681.657 152.464 L681.657 686.448 L688.936 686.448 L688.936 152.464 L681.657 152.464 L681.657 152.464  Z" fill="#009af9" fill-rule="evenodd" fill-opacity="1"/>
<polyline clip-path="url(#clip022)" style="stroke:#009af9; stroke-linecap:round; stroke-linejoin:round; stroke-width:4; stroke-opacity:1; fill:none" points="681.657,152.464 681.657,686.448 688.936,686.448 688.936,152.464 681.657,152.464 "/>
<path clip-path="url(#clip022)" d="M708.955 564.572 L708.955 686.448 L716.235 686.448 L716.235 564.572 L708.955 564.572 L708.955 564.572  Z" fill="#009af9" fill-rule="evenodd" fill-opacity="1"/>
<polyline clip-path="url(#clip022)" style="stroke:#009af9; stroke-linecap:round; stroke-linejoin:round; stroke-width:4; stroke-opacity:1; fill:none" points="708.955,564.572 708.955,686.448 716.235,686.448 716.235,564.572 708.955,564.572 "/>
<path clip-path="url(#clip022)" d="M745.353 193.49 L745.353 686.448 L752.632 686.448 L752.632 193.49 L745.353 193.49 L745.353 193.49  Z" fill="#009af9" fill-rule="evenodd" fill-opacity="1"/>
<polyline clip-path="url(#clip022)" style="stroke:#009af9; stroke-linecap:round; stroke-linejoin:round; stroke-width:4; stroke-opacity:1; fill:none" points="745.353,193.49 745.353,686.448 752.632,686.448 752.632,193.49 745.353,193.49 "/>
<path clip-path="url(#clip022)" d="M781.751 190.181 L781.751 686.448 L789.03 686.448 L789.03 190.181 L781.751 190.181 L781.751 190.181  Z" fill="#009af9" fill-rule="evenodd" fill-opacity="1"/>
<polyline clip-path="url(#clip022)" style="stroke:#009af9; stroke-linecap:round; stroke-linejoin:round; stroke-width:4; stroke-opacity:1; fill:none" points="781.751,190.181 781.751,686.448 789.03,686.448 789.03,190.181 781.751,190.181 "/>
<path clip-path="url(#clip022)" d="M790.85 312.365 L790.85 686.448 L798.13 686.448 L798.13 312.365 L790.85 312.365 L790.85 312.365  Z" fill="#009af9" fill-rule="evenodd" fill-opacity="1"/>
<polyline clip-path="url(#clip022)" style="stroke:#009af9; stroke-linecap:round; stroke-linejoin:round; stroke-width:4; stroke-opacity:1; fill:none" points="790.85,312.365 790.85,686.448 798.13,686.448 798.13,312.365 790.85,312.365 "/>
<path clip-path="url(#clip022)" d="M799.95 431.196 L799.95 686.448 L807.229 686.448 L807.229 431.196 L799.95 431.196 L799.95 431.196  Z" fill="#009af9" fill-rule="evenodd" fill-opacity="1"/>
<polyline clip-path="url(#clip022)" style="stroke:#009af9; stroke-linecap:round; stroke-linejoin:round; stroke-width:4; stroke-opacity:1; fill:none" points="799.95,431.196 799.95,686.448 807.229,686.448 807.229,431.196 799.95,431.196 "/>
<path clip-path="url(#clip022)" d="M809.049 189.907 L809.049 686.448 L816.329 686.448 L816.329 189.907 L809.049 189.907 L809.049 189.907  Z" fill="#009af9" fill-rule="evenodd" fill-opacity="1"/>
<polyline clip-path="url(#clip022)" style="stroke:#009af9; stroke-linecap:round; stroke-linejoin:round; stroke-width:4; stroke-opacity:1; fill:none" points="809.049,189.907 809.049,686.448 816.329,686.448 816.329,189.907 809.049,189.907 "/>
<path clip-path="url(#clip022)" d="M854.546 507.585 L854.546 686.448 L861.826 686.448 L861.826 507.585 L854.546 507.585 L854.546 507.585  Z" fill="#009af9" fill-rule="evenodd" fill-opacity="1"/>
<polyline clip-path="url(#clip022)" style="stroke:#009af9; stroke-linecap:round; stroke-linejoin:round; stroke-width:4; stroke-opacity:1; fill:none" points="854.546,507.585 854.546,686.448 861.826,686.448 861.826,507.585 854.546,507.585 "/>
<path clip-path="url(#clip022)" d="M991.038 337.289 L991.038 686.448 L998.317 686.448 L998.317 337.289 L991.038 337.289 L991.038 337.289  Z" fill="#009af9" fill-rule="evenodd" fill-opacity="1"/>
<polyline clip-path="url(#clip022)" style="stroke:#009af9; stroke-linecap:round; stroke-linejoin:round; stroke-width:4; stroke-opacity:1; fill:none" points="991.038,337.289 991.038,686.448 998.317,686.448 998.317,337.289 991.038,337.289 "/>
<circle clip-path="url(#clip022)" style="fill:#009af9; stroke:none; fill-opacity:0" cx="212.126" cy="571.003" r="2"/>
<circle clip-path="url(#clip022)" style="fill:#009af9; stroke:none; fill-opacity:0" cx="266.723" cy="104.908" r="2"/>
<circle clip-path="url(#clip022)" style="fill:#009af9; stroke:none; fill-opacity:0" cx="312.22" cy="178.405" r="2"/>
<circle clip-path="url(#clip022)" style="fill:#009af9; stroke:none; fill-opacity:0" cx="339.518" cy="120.199" r="2"/>
<circle clip-path="url(#clip022)" style="fill:#009af9; stroke:none; fill-opacity:0" cx="357.717" cy="418.578" r="2"/>
<circle clip-path="url(#clip022)" style="fill:#009af9; stroke:none; fill-opacity:0" cx="385.015" cy="344.323" r="2"/>
<circle clip-path="url(#clip022)" style="fill:#009af9; stroke:none; fill-opacity:0" cx="430.513" cy="184.447" r="2"/>
<circle clip-path="url(#clip022)" style="fill:#009af9; stroke:none; fill-opacity:0" cx="521.507" cy="77.7164" r="2"/>
<circle clip-path="url(#clip022)" style="fill:#009af9; stroke:none; fill-opacity:0" cx="557.905" cy="625.585" r="2"/>
<circle clip-path="url(#clip022)" style="fill:#009af9; stroke:none; fill-opacity:0" cx="576.103" cy="475.906" r="2"/>
<circle clip-path="url(#clip022)" style="fill:#009af9; stroke:none; fill-opacity:0" cx="685.297" cy="152.464" r="2"/>
<circle clip-path="url(#clip022)" style="fill:#009af9; stroke:none; fill-opacity:0" cx="712.595" cy="564.572" r="2"/>
<circle clip-path="url(#clip022)" style="fill:#009af9; stroke:none; fill-opacity:0" cx="748.993" cy="193.49" r="2"/>
<circle clip-path="url(#clip022)" style="fill:#009af9; stroke:none; fill-opacity:0" cx="785.39" cy="190.181" r="2"/>
<circle clip-path="url(#clip022)" style="fill:#009af9; stroke:none; fill-opacity:0" cx="794.49" cy="312.365" r="2"/>
<circle clip-path="url(#clip022)" style="fill:#009af9; stroke:none; fill-opacity:0" cx="803.589" cy="431.196" r="2"/>
<circle clip-path="url(#clip022)" style="fill:#009af9; stroke:none; fill-opacity:0" cx="812.689" cy="189.907" r="2"/>
<circle clip-path="url(#clip022)" style="fill:#009af9; stroke:none; fill-opacity:0" cx="858.186" cy="507.585" r="2"/>
<circle clip-path="url(#clip022)" style="fill:#009af9; stroke:none; fill-opacity:0" cx="994.677" cy="337.289" r="2"/>
<path clip-path="url(#clip022)" d="M226.685 173.714 L226.685 686.448 L233.965 686.448 L233.965 173.714 L226.685 173.714 L226.685 173.714  Z" fill="#e26f46" fill-rule="evenodd" fill-opacity="1"/>
<polyline clip-path="url(#clip022)" style="stroke:#e26f46; stroke-linecap:round; stroke-linejoin:round; stroke-width:4; stroke-opacity:1; fill:none" points="226.685,173.714 226.685,686.448 233.965,686.448 233.965,173.714 226.685,173.714 "/>
<path clip-path="url(#clip022)" d="M235.785 80.2156 L235.785 686.448 L243.064 686.448 L243.064 80.2156 L235.785 80.2156 L235.785 80.2156  Z" fill="#e26f46" fill-rule="evenodd" fill-opacity="1"/>
<polyline clip-path="url(#clip022)" style="stroke:#e26f46; stroke-linecap:round; stroke-linejoin:round; stroke-width:4; stroke-opacity:1; fill:none" points="235.785,80.2156 235.785,686.448 243.064,686.448 243.064,80.2156 235.785,80.2156 "/>
<path clip-path="url(#clip022)" d="M244.884 541.078 L244.884 686.448 L252.164 686.448 L252.164 541.078 L244.884 541.078 L244.884 541.078  Z" fill="#e26f46" fill-rule="evenodd" fill-opacity="1"/>
<polyline clip-path="url(#clip022)" style="stroke:#e26f46; stroke-linecap:round; stroke-linejoin:round; stroke-width:4; stroke-opacity:1; fill:none" points="244.884,541.078 244.884,686.448 252.164,686.448 252.164,541.078 244.884,541.078 "/>
<path clip-path="url(#clip022)" d="M253.983 545.461 L253.983 686.448 L261.263 686.448 L261.263 545.461 L253.983 545.461 L253.983 545.461  Z" fill="#e26f46" fill-rule="evenodd" fill-opacity="1"/>
<polyline clip-path="url(#clip022)" style="stroke:#e26f46; stroke-linecap:round; stroke-linejoin:round; stroke-width:4; stroke-opacity:1; fill:none" points="253.983,545.461 253.983,686.448 261.263,686.448 261.263,545.461 253.983,545.461 "/>
<path clip-path="url(#clip022)" d="M281.282 47.2441 L281.282 686.448 L288.561 686.448 L288.561 47.2441 L281.282 47.2441 L281.282 47.2441  Z" fill="#e26f46" fill-rule="evenodd" fill-opacity="1"/>
<polyline clip-path="url(#clip022)" style="stroke:#e26f46; stroke-linecap:round; stroke-linejoin:round; stroke-width:4; stroke-opacity:1; fill:none" points="281.282,47.2441 281.282,686.448 288.561,686.448 288.561,47.2441 281.282,47.2441 "/>
<path clip-path="url(#clip022)" d="M299.481 151.667 L299.481 686.448 L306.76 686.448 L306.76 151.667 L299.481 151.667 L299.481 151.667  Z" fill="#e26f46" fill-rule="evenodd" fill-opacity="1"/>
<polyline clip-path="url(#clip022)" style="stroke:#e26f46; stroke-linecap:round; stroke-linejoin:round; stroke-width:4; stroke-opacity:1; fill:none" points="299.481,151.667 299.481,686.448 306.76,686.448 306.76,151.667 299.481,151.667 "/>
<path clip-path="url(#clip022)" d="M399.574 542.272 L399.574 686.448 L406.854 686.448 L406.854 542.272 L399.574 542.272 L399.574 542.272  Z" fill="#e26f46" fill-rule="evenodd" fill-opacity="1"/>
<polyline clip-path="url(#clip022)" style="stroke:#e26f46; stroke-linecap:round; stroke-linejoin:round; stroke-width:4; stroke-opacity:1; fill:none" points="399.574,542.272 399.574,686.448 406.854,686.448 406.854,542.272 399.574,542.272 "/>
<path clip-path="url(#clip022)" d="M563.364 658.162 L563.364 686.448 L570.644 686.448 L570.644 658.162 L563.364 658.162 L563.364 658.162  Z" fill="#e26f46" fill-rule="evenodd" fill-opacity="1"/>
<polyline clip-path="url(#clip022)" style="stroke:#e26f46; stroke-linecap:round; stroke-linejoin:round; stroke-width:4; stroke-opacity:1; fill:none" points="563.364,658.162 563.364,686.448 570.644,686.448 570.644,658.162 563.364,658.162 "/>
<path clip-path="url(#clip022)" d="M590.663 554.711 L590.663 686.448 L597.942 686.448 L597.942 554.711 L590.663 554.711 L590.663 554.711  Z" fill="#e26f46" fill-rule="evenodd" fill-opacity="1"/>
<polyline clip-path="url(#clip022)" style="stroke:#e26f46; stroke-linecap:round; stroke-linejoin:round; stroke-width:4; stroke-opacity:1; fill:none" points="590.663,554.711 590.663,686.448 597.942,686.448 597.942,554.711 590.663,554.711 "/>
<path clip-path="url(#clip022)" d="M599.762 675.458 L599.762 686.448 L607.042 686.448 L607.042 675.458 L599.762 675.458 L599.762 675.458  Z" fill="#e26f46" fill-rule="evenodd" fill-opacity="1"/>
<polyline clip-path="url(#clip022)" style="stroke:#e26f46; stroke-linecap:round; stroke-linejoin:round; stroke-width:4; stroke-opacity:1; fill:none" points="599.762,675.458 599.762,686.448 607.042,686.448 607.042,675.458 599.762,675.458 "/>
<path clip-path="url(#clip022)" d="M617.961 537.934 L617.961 686.448 L625.24 686.448 L625.24 537.934 L617.961 537.934 L617.961 537.934  Z" fill="#e26f46" fill-rule="evenodd" fill-opacity="1"/>
<polyline clip-path="url(#clip022)" style="stroke:#e26f46; stroke-linecap:round; stroke-linejoin:round; stroke-width:4; stroke-opacity:1; fill:none" points="617.961,537.934 617.961,686.448 625.24,686.448 625.24,537.934 617.961,537.934 "/>
<path clip-path="url(#clip022)" d="M663.458 546.967 L663.458 686.448 L670.738 686.448 L670.738 546.967 L663.458 546.967 L663.458 546.967  Z" fill="#e26f46" fill-rule="evenodd" fill-opacity="1"/>
<polyline clip-path="url(#clip022)" style="stroke:#e26f46; stroke-linecap:round; stroke-linejoin:round; stroke-width:4; stroke-opacity:1; fill:none" points="663.458,546.967 663.458,686.448 670.738,686.448 670.738,546.967 663.458,546.967 "/>
<path clip-path="url(#clip022)" d="M718.055 582.538 L718.055 686.448 L725.334 686.448 L725.334 582.538 L718.055 582.538 L718.055 582.538  Z" fill="#e26f46" fill-rule="evenodd" fill-opacity="1"/>
<polyline clip-path="url(#clip022)" style="stroke:#e26f46; stroke-linecap:round; stroke-linejoin:round; stroke-width:4; stroke-opacity:1; fill:none" points="718.055,582.538 718.055,686.448 725.334,686.448 725.334,582.538 718.055,582.538 "/>
<path clip-path="url(#clip022)" d="M727.154 339.987 L727.154 686.448 L734.434 686.448 L734.434 339.987 L727.154 339.987 L727.154 339.987  Z" fill="#e26f46" fill-rule="evenodd" fill-opacity="1"/>
<polyline clip-path="url(#clip022)" style="stroke:#e26f46; stroke-linecap:round; stroke-linejoin:round; stroke-width:4; stroke-opacity:1; fill:none" points="727.154,339.987 727.154,686.448 734.434,686.448 734.434,339.987 727.154,339.987 "/>
<path clip-path="url(#clip022)" d="M736.253 438.492 L736.253 686.448 L743.533 686.448 L743.533 438.492 L736.253 438.492 L736.253 438.492  Z" fill="#e26f46" fill-rule="evenodd" fill-opacity="1"/>
<polyline clip-path="url(#clip022)" style="stroke:#e26f46; stroke-linecap:round; stroke-linejoin:round; stroke-width:4; stroke-opacity:1; fill:none" points="736.253,438.492 736.253,686.448 743.533,686.448 743.533,438.492 736.253,438.492 "/>
<path clip-path="url(#clip022)" d="M827.248 224.623 L827.248 686.448 L834.527 686.448 L834.527 224.623 L827.248 224.623 L827.248 224.623  Z" fill="#e26f46" fill-rule="evenodd" fill-opacity="1"/>
<polyline clip-path="url(#clip022)" style="stroke:#e26f46; stroke-linecap:round; stroke-linejoin:round; stroke-width:4; stroke-opacity:1; fill:none" points="827.248,224.623 827.248,686.448 834.527,686.448 834.527,224.623 827.248,224.623 "/>
<path clip-path="url(#clip022)" d="M863.646 93.1086 L863.646 686.448 L870.925 686.448 L870.925 93.1086 L863.646 93.1086 L863.646 93.1086  Z" fill="#e26f46" fill-rule="evenodd" fill-opacity="1"/>
<polyline clip-path="url(#clip022)" style="stroke:#e26f46; stroke-linecap:round; stroke-linejoin:round; stroke-width:4; stroke-opacity:1; fill:none" points="863.646,93.1086 863.646,686.448 870.925,686.448 870.925,93.1086 863.646,93.1086 "/>
<path clip-path="url(#clip022)" d="M881.844 591.032 L881.844 686.448 L889.124 686.448 L889.124 591.032 L881.844 591.032 L881.844 591.032  Z" fill="#e26f46" fill-rule="evenodd" fill-opacity="1"/>
<polyline clip-path="url(#clip022)" style="stroke:#e26f46; stroke-linecap:round; stroke-linejoin:round; stroke-width:4; stroke-opacity:1; fill:none" points="881.844,591.032 881.844,686.448 889.124,686.448 889.124,591.032 881.844,591.032 "/>
<path clip-path="url(#clip022)" d="M890.944 366.959 L890.944 686.448 L898.223 686.448 L898.223 366.959 L890.944 366.959 L890.944 366.959  Z" fill="#e26f46" fill-rule="evenodd" fill-opacity="1"/>
<polyline clip-path="url(#clip022)" style="stroke:#e26f46; stroke-linecap:round; stroke-linejoin:round; stroke-width:4; stroke-opacity:1; fill:none" points="890.944,366.959 890.944,686.448 898.223,686.448 898.223,366.959 890.944,366.959 "/>
<path clip-path="url(#clip022)" d="M900.043 106.93 L900.043 686.448 L907.323 686.448 L907.323 106.93 L900.043 106.93 L900.043 106.93  Z" fill="#e26f46" fill-rule="evenodd" fill-opacity="1"/>
<polyline clip-path="url(#clip022)" style="stroke:#e26f46; stroke-linecap:round; stroke-linejoin:round; stroke-width:4; stroke-opacity:1; fill:none" points="900.043,106.93 900.043,686.448 907.323,686.448 907.323,106.93 900.043,106.93 "/>
<path clip-path="url(#clip022)" d="M945.54 167.461 L945.54 686.448 L952.82 686.448 L952.82 167.461 L945.54 167.461 L945.54 167.461  Z" fill="#e26f46" fill-rule="evenodd" fill-opacity="1"/>
<polyline clip-path="url(#clip022)" style="stroke:#e26f46; stroke-linecap:round; stroke-linejoin:round; stroke-width:4; stroke-opacity:1; fill:none" points="945.54,167.461 945.54,686.448 952.82,686.448 952.82,167.461 945.54,167.461 "/>
<path clip-path="url(#clip022)" d="M981.938 657.74 L981.938 686.448 L989.218 686.448 L989.218 657.74 L981.938 657.74 L981.938 657.74  Z" fill="#e26f46" fill-rule="evenodd" fill-opacity="1"/>
<polyline clip-path="url(#clip022)" style="stroke:#e26f46; stroke-linecap:round; stroke-linejoin:round; stroke-width:4; stroke-opacity:1; fill:none" points="981.938,657.74 981.938,686.448 989.218,686.448 989.218,657.74 981.938,657.74 "/>
<path clip-path="url(#clip022)" d="M1027.44 406.545 L1027.44 686.448 L1034.71 686.448 L1034.71 406.545 L1027.44 406.545 L1027.44 406.545  Z" fill="#e26f46" fill-rule="evenodd" fill-opacity="1"/>
<polyline clip-path="url(#clip022)" style="stroke:#e26f46; stroke-linecap:round; stroke-linejoin:round; stroke-width:4; stroke-opacity:1; fill:none" points="1027.44,406.545 1027.44,686.448 1034.71,686.448 1034.71,406.545 1027.44,406.545 "/>
<path clip-path="url(#clip022)" d="M1091.13 600.075 L1091.13 686.448 L1098.41 686.448 L1098.41 600.075 L1091.13 600.075 L1091.13 600.075  Z" fill="#e26f46" fill-rule="evenodd" fill-opacity="1"/>
<polyline clip-path="url(#clip022)" style="stroke:#e26f46; stroke-linecap:round; stroke-linejoin:round; stroke-width:4; stroke-opacity:1; fill:none" points="1091.13,600.075 1091.13,686.448 1098.41,686.448 1098.41,600.075 1091.13,600.075 "/>
<circle clip-path="url(#clip022)" style="fill:#e26f46; stroke:none; fill-opacity:0" cx="230.325" cy="173.714" r="2"/>
<circle clip-path="url(#clip022)" style="fill:#e26f46; stroke:none; fill-opacity:0" cx="239.424" cy="80.2156" r="2"/>
<circle clip-path="url(#clip022)" style="fill:#e26f46; stroke:none; fill-opacity:0" cx="248.524" cy="541.078" r="2"/>
<circle clip-path="url(#clip022)" style="fill:#e26f46; stroke:none; fill-opacity:0" cx="257.623" cy="545.461" r="2"/>
<circle clip-path="url(#clip022)" style="fill:#e26f46; stroke:none; fill-opacity:0" cx="284.922" cy="47.2441" r="2"/>
<circle clip-path="url(#clip022)" style="fill:#e26f46; stroke:none; fill-opacity:0" cx="303.12" cy="151.667" r="2"/>
<circle clip-path="url(#clip022)" style="fill:#e26f46; stroke:none; fill-opacity:0" cx="403.214" cy="542.272" r="2"/>
<circle clip-path="url(#clip022)" style="fill:#e26f46; stroke:none; fill-opacity:0" cx="567.004" cy="658.162" r="2"/>
<circle clip-path="url(#clip022)" style="fill:#e26f46; stroke:none; fill-opacity:0" cx="594.302" cy="554.711" r="2"/>
<circle clip-path="url(#clip022)" style="fill:#e26f46; stroke:none; fill-opacity:0" cx="603.402" cy="675.458" r="2"/>
<circle clip-path="url(#clip022)" style="fill:#e26f46; stroke:none; fill-opacity:0" cx="621.601" cy="537.934" r="2"/>
<circle clip-path="url(#clip022)" style="fill:#e26f46; stroke:none; fill-opacity:0" cx="667.098" cy="546.967" r="2"/>
<circle clip-path="url(#clip022)" style="fill:#e26f46; stroke:none; fill-opacity:0" cx="721.694" cy="582.538" r="2"/>
<circle clip-path="url(#clip022)" style="fill:#e26f46; stroke:none; fill-opacity:0" cx="730.794" cy="339.987" r="2"/>
<circle clip-path="url(#clip022)" style="fill:#e26f46; stroke:none; fill-opacity:0" cx="739.893" cy="438.492" r="2"/>
<circle clip-path="url(#clip022)" style="fill:#e26f46; stroke:none; fill-opacity:0" cx="830.888" cy="224.623" r="2"/>
<circle clip-path="url(#clip022)" style="fill:#e26f46; stroke:none; fill-opacity:0" cx="867.285" cy="93.1086" r="2"/>
<circle clip-path="url(#clip022)" style="fill:#e26f46; stroke:none; fill-opacity:0" cx="885.484" cy="591.032" r="2"/>
<circle clip-path="url(#clip022)" style="fill:#e26f46; stroke:none; fill-opacity:0" cx="894.584" cy="366.959" r="2"/>
<circle clip-path="url(#clip022)" style="fill:#e26f46; stroke:none; fill-opacity:0" cx="903.683" cy="106.93" r="2"/>
<circle clip-path="url(#clip022)" style="fill:#e26f46; stroke:none; fill-opacity:0" cx="949.18" cy="167.461" r="2"/>
<circle clip-path="url(#clip022)" style="fill:#e26f46; stroke:none; fill-opacity:0" cx="985.578" cy="657.74" r="2"/>
<circle clip-path="url(#clip022)" style="fill:#e26f46; stroke:none; fill-opacity:0" cx="1031.08" cy="406.545" r="2"/>
<circle clip-path="url(#clip022)" style="fill:#e26f46; stroke:none; fill-opacity:0" cx="1094.77" cy="600.075" r="2"/>
<path clip-path="url(#clip020)" d="M842.297 224.071 L1119.55 224.071 L1119.55 68.5509 L842.297 68.5509  Z" fill="#ffffff" fill-rule="evenodd" fill-opacity="1"/>
<polyline clip-path="url(#clip020)" style="stroke:#000000; stroke-linecap:round; stroke-linejoin:round; stroke-width:4; stroke-opacity:1; fill:none" points="842.297,224.071 1119.55,224.071 1119.55,68.5509 842.297,68.5509 842.297,224.071 "/>
<path clip-path="url(#clip020)" d="M853.365 141.127 L919.776 141.127 L919.776 99.6549 L853.365 99.6549 L853.365 141.127  Z" fill="#009af9" fill-rule="evenodd" fill-opacity="1"/>
<polyline clip-path="url(#clip020)" style="stroke:#009af9; stroke-linecap:round; stroke-linejoin:round; stroke-width:4; stroke-opacity:1; fill:none" points="853.365,141.127 919.776,141.127 919.776,99.6549 853.365,99.6549 853.365,141.127 "/>
<path clip-path="url(#clip020)" d="M949.756 124.407 Q949.756 119.777 947.835 117.231 Q945.937 114.685 942.488 114.685 Q939.062 114.685 937.141 117.231 Q935.242 119.777 935.242 124.407 Q935.242 129.014 937.141 131.56 Q939.062 134.106 942.488 134.106 Q945.937 134.106 947.835 131.56 Q949.756 129.014 949.756 124.407 M954.015 134.453 Q954.015 141.074 951.076 144.291 Q948.136 147.532 942.071 147.532 Q939.826 147.532 937.835 147.185 Q935.844 146.861 933.969 146.166 L933.969 142.023 Q935.844 143.041 937.673 143.527 Q939.502 144.013 941.4 144.013 Q945.59 144.013 947.673 141.814 Q949.756 139.638 949.756 135.217 L949.756 133.111 Q948.437 135.402 946.377 136.537 Q944.316 137.671 941.446 137.671 Q936.678 137.671 933.761 134.037 Q930.844 130.402 930.844 124.407 Q930.844 118.389 933.761 114.754 Q936.678 111.12 941.446 111.12 Q944.316 111.12 946.377 112.254 Q948.437 113.389 949.756 115.68 L949.756 111.745 L954.015 111.745 L954.015 134.453 Z" fill="#000000" fill-rule="nonzero" fill-opacity="1" /><path clip-path="url(#clip020)" d="M977.812 115.727 Q977.094 115.31 976.238 115.125 Q975.404 114.916 974.386 114.916 Q970.775 114.916 968.83 117.277 Q966.909 119.615 966.909 124.014 L966.909 137.671 L962.627 137.671 L962.627 111.745 L966.909 111.745 L966.909 115.773 Q968.252 113.412 970.404 112.278 Q972.557 111.12 975.636 111.12 Q976.076 111.12 976.608 111.19 Q977.14 111.236 977.788 111.352 L977.812 115.727 Z" fill="#000000" fill-rule="nonzero" fill-opacity="1" /><path clip-path="url(#clip020)" d="M991.284 114.731 Q987.858 114.731 985.867 117.416 Q983.876 120.078 983.876 124.731 Q983.876 129.384 985.844 132.069 Q987.835 134.731 991.284 134.731 Q994.687 134.731 996.677 132.046 Q998.668 129.361 998.668 124.731 Q998.668 120.125 996.677 117.44 Q994.687 114.731 991.284 114.731 M991.284 111.12 Q996.839 111.12 1000.01 114.731 Q1003.18 118.342 1003.18 124.731 Q1003.18 131.097 1000.01 134.731 Q996.839 138.342 991.284 138.342 Q985.705 138.342 982.534 134.731 Q979.386 131.097 979.386 124.731 Q979.386 118.342 982.534 114.731 Q985.705 111.12 991.284 111.12 Z" fill="#000000" fill-rule="nonzero" fill-opacity="1" /><path clip-path="url(#clip020)" d="M1009.8 127.439 L1009.8 111.745 L1014.06 111.745 L1014.06 127.277 Q1014.06 130.958 1015.5 132.81 Q1016.93 134.638 1019.8 134.638 Q1023.25 134.638 1025.24 132.439 Q1027.26 130.24 1027.26 126.444 L1027.26 111.745 L1031.52 111.745 L1031.52 137.671 L1027.26 137.671 L1027.26 133.689 Q1025.7 136.051 1023.64 137.208 Q1021.61 138.342 1018.9 138.342 Q1014.43 138.342 1012.12 135.564 Q1009.8 132.787 1009.8 127.439 M1020.52 111.12 L1020.52 111.12 Z" fill="#000000" fill-rule="nonzero" fill-opacity="1" /><path clip-path="url(#clip020)" d="M1044.41 133.782 L1044.41 147.532 L1040.13 147.532 L1040.13 111.745 L1044.41 111.745 L1044.41 115.68 Q1045.75 113.365 1047.79 112.254 Q1049.85 111.12 1052.7 111.12 Q1057.42 111.12 1060.36 114.87 Q1063.32 118.62 1063.32 124.731 Q1063.32 130.842 1060.36 134.592 Q1057.42 138.342 1052.7 138.342 Q1049.85 138.342 1047.79 137.231 Q1045.75 136.097 1044.41 133.782 M1058.9 124.731 Q1058.9 120.032 1056.95 117.37 Q1055.03 114.685 1051.65 114.685 Q1048.27 114.685 1046.33 117.37 Q1044.41 120.032 1044.41 124.731 Q1044.41 129.43 1046.33 132.115 Q1048.27 134.777 1051.65 134.777 Q1055.03 134.777 1056.95 132.115 Q1058.9 129.43 1058.9 124.731 Z" fill="#000000" fill-rule="nonzero" fill-opacity="1" /><path clip-path="url(#clip020)" d="M1086.86 133.736 L1094.5 133.736 L1094.5 107.37 L1086.19 109.037 L1086.19 104.778 L1094.45 103.111 L1099.13 103.111 L1099.13 133.736 L1106.77 133.736 L1106.77 137.671 L1086.86 137.671 L1086.86 133.736 Z" fill="#000000" fill-rule="nonzero" fill-opacity="1" /><path clip-path="url(#clip020)" d="M853.365 192.967 L919.776 192.967 L919.776 151.495 L853.365 151.495 L853.365 192.967  Z" fill="#e26f46" fill-rule="evenodd" fill-opacity="1"/>
<polyline clip-path="url(#clip020)" style="stroke:#e26f46; stroke-linecap:round; stroke-linejoin:round; stroke-width:4; stroke-opacity:1; fill:none" points="853.365,192.967 919.776,192.967 919.776,151.495 853.365,151.495 853.365,192.967 "/>
<path clip-path="url(#clip020)" d="M949.756 176.247 Q949.756 171.617 947.835 169.071 Q945.937 166.525 942.488 166.525 Q939.062 166.525 937.141 169.071 Q935.242 171.617 935.242 176.247 Q935.242 180.854 937.141 183.4 Q939.062 185.946 942.488 185.946 Q945.937 185.946 947.835 183.4 Q949.756 180.854 949.756 176.247 M954.015 186.293 Q954.015 192.914 951.076 196.131 Q948.136 199.372 942.071 199.372 Q939.826 199.372 937.835 199.025 Q935.844 198.701 933.969 198.006 L933.969 193.863 Q935.844 194.881 937.673 195.367 Q939.502 195.853 941.4 195.853 Q945.59 195.853 947.673 193.654 Q949.756 191.478 949.756 187.057 L949.756 184.951 Q948.437 187.242 946.377 188.377 Q944.316 189.511 941.446 189.511 Q936.678 189.511 933.761 185.877 Q930.844 182.242 930.844 176.247 Q930.844 170.229 933.761 166.594 Q936.678 162.96 941.446 162.96 Q944.316 162.96 946.377 164.094 Q948.437 165.229 949.756 167.52 L949.756 163.585 L954.015 163.585 L954.015 186.293 Z" fill="#000000" fill-rule="nonzero" fill-opacity="1" /><path clip-path="url(#clip020)" d="M977.812 167.567 Q977.094 167.15 976.238 166.965 Q975.404 166.756 974.386 166.756 Q970.775 166.756 968.83 169.117 Q966.909 171.455 966.909 175.854 L966.909 189.511 L962.627 189.511 L962.627 163.585 L966.909 163.585 L966.909 167.613 Q968.252 165.252 970.404 164.118 Q972.557 162.96 975.636 162.96 Q976.076 162.96 976.608 163.03 Q977.14 163.076 977.788 163.192 L977.812 167.567 Z" fill="#000000" fill-rule="nonzero" fill-opacity="1" /><path clip-path="url(#clip020)" d="M991.284 166.571 Q987.858 166.571 985.867 169.256 Q983.876 171.918 983.876 176.571 Q983.876 181.224 985.844 183.909 Q987.835 186.571 991.284 186.571 Q994.687 186.571 996.677 183.886 Q998.668 181.201 998.668 176.571 Q998.668 171.965 996.677 169.28 Q994.687 166.571 991.284 166.571 M991.284 162.96 Q996.839 162.96 1000.01 166.571 Q1003.18 170.182 1003.18 176.571 Q1003.18 182.937 1000.01 186.571 Q996.839 190.182 991.284 190.182 Q985.705 190.182 982.534 186.571 Q979.386 182.937 979.386 176.571 Q979.386 170.182 982.534 166.571 Q985.705 162.96 991.284 162.96 Z" fill="#000000" fill-rule="nonzero" fill-opacity="1" /><path clip-path="url(#clip020)" d="M1009.8 179.279 L1009.8 163.585 L1014.06 163.585 L1014.06 179.117 Q1014.06 182.798 1015.5 184.65 Q1016.93 186.478 1019.8 186.478 Q1023.25 186.478 1025.24 184.279 Q1027.26 182.08 1027.26 178.284 L1027.26 163.585 L1031.52 163.585 L1031.52 189.511 L1027.26 189.511 L1027.26 185.529 Q1025.7 187.891 1023.64 189.048 Q1021.61 190.182 1018.9 190.182 Q1014.43 190.182 1012.12 187.404 Q1009.8 184.627 1009.8 179.279 M1020.52 162.96 L1020.52 162.96 Z" fill="#000000" fill-rule="nonzero" fill-opacity="1" /><path clip-path="url(#clip020)" d="M1044.41 185.622 L1044.41 199.372 L1040.13 199.372 L1040.13 163.585 L1044.41 163.585 L1044.41 167.52 Q1045.75 165.205 1047.79 164.094 Q1049.85 162.96 1052.7 162.96 Q1057.42 162.96 1060.36 166.71 Q1063.32 170.46 1063.32 176.571 Q1063.32 182.682 1060.36 186.432 Q1057.42 190.182 1052.7 190.182 Q1049.85 190.182 1047.79 189.071 Q1045.75 187.937 1044.41 185.622 M1058.9 176.571 Q1058.9 171.872 1056.95 169.21 Q1055.03 166.525 1051.65 166.525 Q1048.27 166.525 1046.33 169.21 Q1044.41 171.872 1044.41 176.571 Q1044.41 181.27 1046.33 183.955 Q1048.27 186.617 1051.65 186.617 Q1055.03 186.617 1056.95 183.955 Q1058.9 181.27 1058.9 176.571 Z" fill="#000000" fill-rule="nonzero" fill-opacity="1" /><path clip-path="url(#clip020)" d="M1098.9 159.025 L1087.09 177.474 L1098.9 177.474 L1098.9 159.025 M1097.67 154.951 L1103.55 154.951 L1103.55 177.474 L1108.48 177.474 L1108.48 181.363 L1103.55 181.363 L1103.55 189.511 L1098.9 189.511 L1098.9 181.363 L1083.3 181.363 L1083.3 176.849 L1097.67 154.951 Z" fill="#000000" fill-rule="nonzero" fill-opacity="1" /><path clip-path="url(#clip020)" d="M1356.6 686.448 L2352.76 686.448 L2352.76 47.2441 L1356.6 47.2441  Z" fill="#ffffff" fill-rule="evenodd" fill-opacity="1"/>
<defs>
  <clipPath id="clip023">
    <rect x="1356" y="47" width="997" height="640"/>
  </clipPath>
</defs>
<polyline clip-path="url(#clip023)" style="stroke:#000000; stroke-linecap:round; stroke-linejoin:round; stroke-width:2; stroke-opacity:0.1; fill:none" points="1511.5,686.448 1511.5,47.2441 "/>
<polyline clip-path="url(#clip023)" style="stroke:#000000; stroke-linecap:round; stroke-linejoin:round; stroke-width:2; stroke-opacity:0.1; fill:none" points="1722.69,686.448 1722.69,47.2441 "/>
<polyline clip-path="url(#clip023)" style="stroke:#000000; stroke-linecap:round; stroke-linejoin:round; stroke-width:2; stroke-opacity:0.1; fill:none" points="1933.87,686.448 1933.87,47.2441 "/>
<polyline clip-path="url(#clip023)" style="stroke:#000000; stroke-linecap:round; stroke-linejoin:round; stroke-width:2; stroke-opacity:0.1; fill:none" points="2145.06,686.448 2145.06,47.2441 "/>
<polyline clip-path="url(#clip023)" style="stroke:#000000; stroke-linecap:round; stroke-linejoin:round; stroke-width:2; stroke-opacity:0.1; fill:none" points="1356.6,569.792 2352.76,569.792 "/>
<polyline clip-path="url(#clip023)" style="stroke:#000000; stroke-linecap:round; stroke-linejoin:round; stroke-width:2; stroke-opacity:0.1; fill:none" points="1356.6,438.344 2352.76,438.344 "/>
<polyline clip-path="url(#clip023)" style="stroke:#000000; stroke-linecap:round; stroke-linejoin:round; stroke-width:2; stroke-opacity:0.1; fill:none" points="1356.6,306.895 2352.76,306.895 "/>
<polyline clip-path="url(#clip023)" style="stroke:#000000; stroke-linecap:round; stroke-linejoin:round; stroke-width:2; stroke-opacity:0.1; fill:none" points="1356.6,175.447 2352.76,175.447 "/>
<polyline clip-path="url(#clip020)" style="stroke:#000000; stroke-linecap:round; stroke-linejoin:round; stroke-width:4; stroke-opacity:1; fill:none" points="1356.6,686.448 2352.76,686.448 "/>
<polyline clip-path="url(#clip020)" style="stroke:#000000; stroke-linecap:round; stroke-linejoin:round; stroke-width:4; stroke-opacity:1; fill:none" points="1511.5,686.448 1511.5,667.55 "/>
<polyline clip-path="url(#clip020)" style="stroke:#000000; stroke-linecap:round; stroke-linejoin:round; stroke-width:4; stroke-opacity:1; fill:none" points="1722.69,686.448 1722.69,667.55 "/>
<polyline clip-path="url(#clip020)" style="stroke:#000000; stroke-linecap:round; stroke-linejoin:round; stroke-width:4; stroke-opacity:1; fill:none" points="1933.87,686.448 1933.87,667.55 "/>
<polyline clip-path="url(#clip020)" style="stroke:#000000; stroke-linecap:round; stroke-linejoin:round; stroke-width:4; stroke-opacity:1; fill:none" points="2145.06,686.448 2145.06,667.55 "/>
<path clip-path="url(#clip020)" d="M1490.28 744.913 L1506.59 744.913 L1506.59 748.848 L1484.65 748.848 L1484.65 744.913 Q1487.31 742.158 1491.9 737.528 Q1496.5 732.876 1497.68 731.533 Q1499.93 729.01 1500.81 727.274 Q1501.71 725.515 1501.71 723.825 Q1501.71 721.07 1499.77 719.334 Q1497.84 717.598 1494.74 717.598 Q1492.54 717.598 1490.09 718.362 Q1487.66 719.126 1484.88 720.677 L1484.88 715.955 Q1487.71 714.82 1490.16 714.242 Q1492.61 713.663 1494.65 713.663 Q1500.02 713.663 1503.22 716.348 Q1506.41 719.033 1506.41 723.524 Q1506.41 725.654 1505.6 727.575 Q1504.81 729.473 1502.71 732.066 Q1502.13 732.737 1499.03 735.954 Q1495.92 739.149 1490.28 744.913 Z" fill="#000000" fill-rule="nonzero" fill-opacity="1" /><path clip-path="url(#clip020)" d="M1526.41 717.367 Q1522.8 717.367 1520.97 720.931 Q1519.16 724.473 1519.16 731.603 Q1519.16 738.709 1520.97 742.274 Q1522.8 745.815 1526.41 745.815 Q1530.04 745.815 1531.85 742.274 Q1533.68 738.709 1533.68 731.603 Q1533.68 724.473 1531.85 720.931 Q1530.04 717.367 1526.41 717.367 M1526.41 713.663 Q1532.22 713.663 1535.28 718.269 Q1538.35 722.853 1538.35 731.603 Q1538.35 740.329 1535.28 744.936 Q1532.22 749.519 1526.41 749.519 Q1520.6 749.519 1517.52 744.936 Q1514.47 740.329 1514.47 731.603 Q1514.47 722.853 1517.52 718.269 Q1520.6 713.663 1526.41 713.663 Z" fill="#000000" fill-rule="nonzero" fill-opacity="1" /><path clip-path="url(#clip020)" d="M1710.86 718.362 L1699.05 736.811 L1710.86 736.811 L1710.86 718.362 M1709.63 714.288 L1715.51 714.288 L1715.51 736.811 L1720.44 736.811 L1720.44 740.7 L1715.51 740.7 L1715.51 748.848 L1710.86 748.848 L1710.86 740.7 L1695.26 740.7 L1695.26 736.186 L1709.63 714.288 Z" fill="#000000" fill-rule="nonzero" fill-opacity="1" /><path clip-path="url(#clip020)" d="M1738.17 717.367 Q1734.56 717.367 1732.73 720.931 Q1730.93 724.473 1730.93 731.603 Q1730.93 738.709 1732.73 742.274 Q1734.56 745.815 1738.17 745.815 Q1741.81 745.815 1743.61 742.274 Q1745.44 738.709 1745.44 731.603 Q1745.44 724.473 1743.61 720.931 Q1741.81 717.367 1738.17 717.367 M1738.17 713.663 Q1743.98 713.663 1747.04 718.269 Q1750.12 722.853 1750.12 731.603 Q1750.12 740.329 1747.04 744.936 Q1743.98 749.519 1738.17 749.519 Q1732.36 749.519 1729.28 744.936 Q1726.23 740.329 1726.23 731.603 Q1726.23 722.853 1729.28 718.269 Q1732.36 713.663 1738.17 713.663 Z" fill="#000000" fill-rule="nonzero" fill-opacity="1" /><path clip-path="url(#clip020)" d="M1919.28 729.704 Q1916.13 729.704 1914.28 731.857 Q1912.45 734.01 1912.45 737.76 Q1912.45 741.487 1914.28 743.663 Q1916.13 745.815 1919.28 745.815 Q1922.42 745.815 1924.25 743.663 Q1926.11 741.487 1926.11 737.76 Q1926.11 734.01 1924.25 731.857 Q1922.42 729.704 1919.28 729.704 M1928.56 715.052 L1928.56 719.311 Q1926.8 718.478 1924.99 718.038 Q1923.21 717.598 1921.45 717.598 Q1916.82 717.598 1914.37 720.723 Q1911.94 723.848 1911.59 730.167 Q1912.96 728.154 1915.02 727.089 Q1917.08 726.001 1919.55 726.001 Q1924.76 726.001 1927.77 729.172 Q1930.8 732.32 1930.8 737.76 Q1930.8 743.084 1927.66 746.302 Q1924.51 749.519 1919.28 749.519 Q1913.28 749.519 1910.11 744.936 Q1906.94 740.329 1906.94 731.603 Q1906.94 723.408 1910.83 718.547 Q1914.72 713.663 1921.27 713.663 Q1923.03 713.663 1924.81 714.01 Q1926.61 714.357 1928.56 715.052 Z" fill="#000000" fill-rule="nonzero" fill-opacity="1" /><path clip-path="url(#clip020)" d="M1948.86 717.367 Q1945.25 717.367 1943.42 720.931 Q1941.61 724.473 1941.61 731.603 Q1941.61 738.709 1943.42 742.274 Q1945.25 745.815 1948.86 745.815 Q1952.49 745.815 1954.3 742.274 Q1956.13 738.709 1956.13 731.603 Q1956.13 724.473 1954.3 720.931 Q1952.49 717.367 1948.86 717.367 M1948.86 713.663 Q1954.67 713.663 1957.73 718.269 Q1960.8 722.853 1960.8 731.603 Q1960.8 740.329 1957.73 744.936 Q1954.67 749.519 1948.86 749.519 Q1943.05 749.519 1939.97 744.936 Q1936.92 740.329 1936.92 731.603 Q1936.92 722.853 1939.97 718.269 Q1943.05 713.663 1948.86 713.663 Z" fill="#000000" fill-rule="nonzero" fill-opacity="1" /><path clip-path="url(#clip020)" d="M2129.93 732.436 Q2126.6 732.436 2124.67 734.218 Q2122.78 736.001 2122.78 739.126 Q2122.78 742.251 2124.67 744.033 Q2126.6 745.815 2129.93 745.815 Q2133.26 745.815 2135.18 744.033 Q2137.1 742.228 2137.1 739.126 Q2137.1 736.001 2135.18 734.218 Q2133.29 732.436 2129.93 732.436 M2125.25 730.445 Q2122.24 729.704 2120.55 727.644 Q2118.89 725.584 2118.89 722.621 Q2118.89 718.478 2121.83 716.07 Q2124.79 713.663 2129.93 713.663 Q2135.09 713.663 2138.03 716.07 Q2140.97 718.478 2140.97 722.621 Q2140.97 725.584 2139.28 727.644 Q2137.61 729.704 2134.63 730.445 Q2138.01 731.232 2139.88 733.524 Q2141.78 735.816 2141.78 739.126 Q2141.78 744.149 2138.7 746.834 Q2135.65 749.519 2129.93 749.519 Q2124.21 749.519 2121.13 746.834 Q2118.08 744.149 2118.08 739.126 Q2118.08 735.816 2119.97 733.524 Q2121.87 731.232 2125.25 730.445 M2123.54 723.061 Q2123.54 725.746 2125.21 727.251 Q2126.9 728.755 2129.93 728.755 Q2132.94 728.755 2134.63 727.251 Q2136.34 725.746 2136.34 723.061 Q2136.34 720.376 2134.63 718.871 Q2132.94 717.367 2129.93 717.367 Q2126.9 717.367 2125.21 718.871 Q2123.54 720.376 2123.54 723.061 Z" fill="#000000" fill-rule="nonzero" fill-opacity="1" /><path clip-path="url(#clip020)" d="M2160.09 717.367 Q2156.48 717.367 2154.65 720.931 Q2152.85 724.473 2152.85 731.603 Q2152.85 738.709 2154.65 742.274 Q2156.48 745.815 2160.09 745.815 Q2163.72 745.815 2165.53 742.274 Q2167.36 738.709 2167.36 731.603 Q2167.36 724.473 2165.53 720.931 Q2163.72 717.367 2160.09 717.367 M2160.09 713.663 Q2165.9 713.663 2168.96 718.269 Q2172.03 722.853 2172.03 731.603 Q2172.03 740.329 2168.96 744.936 Q2165.9 749.519 2160.09 749.519 Q2154.28 749.519 2151.2 744.936 Q2148.15 740.329 2148.15 731.603 Q2148.15 722.853 2151.2 718.269 Q2154.28 713.663 2160.09 713.663 Z" fill="#000000" fill-rule="nonzero" fill-opacity="1" /><polyline clip-path="url(#clip020)" style="stroke:#000000; stroke-linecap:round; stroke-linejoin:round; stroke-width:4; stroke-opacity:1; fill:none" points="1356.6,686.448 1356.6,47.2441 "/>
<polyline clip-path="url(#clip020)" style="stroke:#000000; stroke-linecap:round; stroke-linejoin:round; stroke-width:4; stroke-opacity:1; fill:none" points="1356.6,569.792 1375.5,569.792 "/>
<polyline clip-path="url(#clip020)" style="stroke:#000000; stroke-linecap:round; stroke-linejoin:round; stroke-width:4; stroke-opacity:1; fill:none" points="1356.6,438.344 1375.5,438.344 "/>
<polyline clip-path="url(#clip020)" style="stroke:#000000; stroke-linecap:round; stroke-linejoin:round; stroke-width:4; stroke-opacity:1; fill:none" points="1356.6,306.895 1375.5,306.895 "/>
<polyline clip-path="url(#clip020)" style="stroke:#000000; stroke-linecap:round; stroke-linejoin:round; stroke-width:4; stroke-opacity:1; fill:none" points="1356.6,175.447 1375.5,175.447 "/>
<path clip-path="url(#clip020)" d="M1265.02 555.59 Q1261.41 555.59 1259.58 559.155 Q1257.77 562.697 1257.77 569.826 Q1257.77 576.933 1259.58 580.498 Q1261.41 584.039 1265.02 584.039 Q1268.65 584.039 1270.46 580.498 Q1272.29 576.933 1272.29 569.826 Q1272.29 562.697 1270.46 559.155 Q1268.65 555.59 1265.02 555.59 M1265.02 551.887 Q1270.83 551.887 1273.89 556.493 Q1276.96 561.077 1276.96 569.826 Q1276.96 578.553 1273.89 583.16 Q1270.83 587.743 1265.02 587.743 Q1259.21 587.743 1256.13 583.16 Q1253.08 578.553 1253.08 569.826 Q1253.08 561.077 1256.13 556.493 Q1259.21 551.887 1265.02 551.887 Z" fill="#000000" fill-rule="nonzero" fill-opacity="1" /><path clip-path="url(#clip020)" d="M1285.18 581.192 L1290.07 581.192 L1290.07 587.072 L1285.18 587.072 L1285.18 581.192 Z" fill="#000000" fill-rule="nonzero" fill-opacity="1" /><path clip-path="url(#clip020)" d="M1304.28 583.137 L1320.6 583.137 L1320.6 587.072 L1298.65 587.072 L1298.65 583.137 Q1301.32 580.382 1305.9 575.752 Q1310.51 571.1 1311.69 569.757 Q1313.93 567.234 1314.81 565.498 Q1315.71 563.739 1315.71 562.049 Q1315.71 559.294 1313.77 557.558 Q1311.85 555.822 1308.75 555.822 Q1306.55 555.822 1304.09 556.586 Q1301.66 557.35 1298.89 558.901 L1298.89 554.178 Q1301.71 553.044 1304.16 552.465 Q1306.62 551.887 1308.65 551.887 Q1314.02 551.887 1317.22 554.572 Q1320.41 557.257 1320.41 561.748 Q1320.41 563.877 1319.6 565.799 Q1318.82 567.697 1316.71 570.289 Q1316.13 570.961 1313.03 574.178 Q1309.93 577.373 1304.28 583.137 Z" fill="#000000" fill-rule="nonzero" fill-opacity="1" /><path clip-path="url(#clip020)" d="M1262.94 424.142 Q1259.33 424.142 1257.5 427.707 Q1255.69 431.249 1255.69 438.378 Q1255.69 445.485 1257.5 449.049 Q1259.33 452.591 1262.94 452.591 Q1266.57 452.591 1268.38 449.049 Q1270.2 445.485 1270.2 438.378 Q1270.2 431.249 1268.38 427.707 Q1266.57 424.142 1262.94 424.142 M1262.94 420.439 Q1268.75 420.439 1271.8 425.045 Q1274.88 429.628 1274.88 438.378 Q1274.88 447.105 1271.8 451.712 Q1268.75 456.295 1262.94 456.295 Q1257.13 456.295 1254.05 451.712 Q1250.99 447.105 1250.99 438.378 Q1250.99 429.628 1254.05 425.045 Q1257.13 420.439 1262.94 420.439 Z" fill="#000000" fill-rule="nonzero" fill-opacity="1" /><path clip-path="url(#clip020)" d="M1283.1 449.744 L1287.98 449.744 L1287.98 455.624 L1283.1 455.624 L1283.1 449.744 Z" fill="#000000" fill-rule="nonzero" fill-opacity="1" /><path clip-path="url(#clip020)" d="M1311.01 425.138 L1299.21 443.587 L1311.01 443.587 L1311.01 425.138 M1309.79 421.064 L1315.67 421.064 L1315.67 443.587 L1320.6 443.587 L1320.6 447.475 L1315.67 447.475 L1315.67 455.624 L1311.01 455.624 L1311.01 447.475 L1295.41 447.475 L1295.41 442.962 L1309.79 421.064 Z" fill="#000000" fill-rule="nonzero" fill-opacity="1" /><path clip-path="url(#clip020)" d="M1263.26 292.694 Q1259.65 292.694 1257.82 296.259 Q1256.02 299.8 1256.02 306.93 Q1256.02 314.036 1257.82 317.601 Q1259.65 321.143 1263.26 321.143 Q1266.89 321.143 1268.7 317.601 Q1270.53 314.036 1270.53 306.93 Q1270.53 299.8 1268.7 296.259 Q1266.89 292.694 1263.26 292.694 M1263.26 288.99 Q1269.07 288.99 1272.13 293.597 Q1275.2 298.18 1275.2 306.93 Q1275.2 315.657 1272.13 320.263 Q1269.07 324.847 1263.26 324.847 Q1257.45 324.847 1254.37 320.263 Q1251.32 315.657 1251.32 306.93 Q1251.32 298.18 1254.37 293.597 Q1257.45 288.99 1263.26 288.99 Z" fill="#000000" fill-rule="nonzero" fill-opacity="1" /><path clip-path="url(#clip020)" d="M1283.42 318.296 L1288.31 318.296 L1288.31 324.175 L1283.42 324.175 L1283.42 318.296 Z" fill="#000000" fill-rule="nonzero" fill-opacity="1" /><path clip-path="url(#clip020)" d="M1309.07 305.032 Q1305.92 305.032 1304.07 307.185 Q1302.24 309.337 1302.24 313.087 Q1302.24 316.814 1304.07 318.99 Q1305.92 321.143 1309.07 321.143 Q1312.22 321.143 1314.05 318.99 Q1315.9 316.814 1315.9 313.087 Q1315.9 309.337 1314.05 307.185 Q1312.22 305.032 1309.07 305.032 M1318.35 290.379 L1318.35 294.638 Q1316.59 293.805 1314.79 293.365 Q1313.01 292.925 1311.25 292.925 Q1306.62 292.925 1304.16 296.05 Q1301.73 299.175 1301.39 305.495 Q1302.75 303.481 1304.81 302.416 Q1306.87 301.328 1309.35 301.328 Q1314.56 301.328 1317.57 304.499 Q1320.6 307.648 1320.6 313.087 Q1320.6 318.411 1317.45 321.629 Q1314.3 324.847 1309.07 324.847 Q1303.08 324.847 1299.9 320.263 Q1296.73 315.657 1296.73 306.93 Q1296.73 298.736 1300.62 293.875 Q1304.51 288.99 1311.06 288.99 Q1312.82 288.99 1314.6 289.338 Q1316.41 289.685 1318.35 290.379 Z" fill="#000000" fill-rule="nonzero" fill-opacity="1" /><path clip-path="url(#clip020)" d="M1263.52 161.246 Q1259.9 161.246 1258.08 164.811 Q1256.27 168.352 1256.27 175.482 Q1256.27 182.588 1258.08 186.153 Q1259.9 189.695 1263.52 189.695 Q1267.15 189.695 1268.95 186.153 Q1270.78 182.588 1270.78 175.482 Q1270.78 168.352 1268.95 164.811 Q1267.15 161.246 1263.52 161.246 M1263.52 157.542 Q1269.33 157.542 1272.38 162.149 Q1275.46 166.732 1275.46 175.482 Q1275.46 184.209 1272.38 188.815 Q1269.33 193.398 1263.52 193.398 Q1257.71 193.398 1254.63 188.815 Q1251.57 184.209 1251.57 175.482 Q1251.57 166.732 1254.63 162.149 Q1257.71 157.542 1263.52 157.542 Z" fill="#000000" fill-rule="nonzero" fill-opacity="1" /><path clip-path="url(#clip020)" d="M1283.68 186.847 L1288.56 186.847 L1288.56 192.727 L1283.68 192.727 L1283.68 186.847 Z" fill="#000000" fill-rule="nonzero" fill-opacity="1" /><path clip-path="url(#clip020)" d="M1308.75 176.315 Q1305.41 176.315 1303.49 178.097 Q1301.59 179.88 1301.59 183.005 Q1301.59 186.13 1303.49 187.912 Q1305.41 189.695 1308.75 189.695 Q1312.08 189.695 1314 187.912 Q1315.92 186.107 1315.92 183.005 Q1315.92 179.88 1314 178.097 Q1312.1 176.315 1308.75 176.315 M1304.07 174.324 Q1301.06 173.584 1299.37 171.523 Q1297.7 169.463 1297.7 166.5 Q1297.7 162.357 1300.64 159.949 Q1303.61 157.542 1308.75 157.542 Q1313.91 157.542 1316.85 159.949 Q1319.79 162.357 1319.79 166.5 Q1319.79 169.463 1318.1 171.523 Q1316.43 173.584 1313.45 174.324 Q1316.83 175.111 1318.7 177.403 Q1320.6 179.695 1320.6 183.005 Q1320.6 188.028 1317.52 190.713 Q1314.46 193.398 1308.75 193.398 Q1303.03 193.398 1299.95 190.713 Q1296.89 188.028 1296.89 183.005 Q1296.89 179.695 1298.79 177.403 Q1300.69 175.111 1304.07 174.324 M1302.36 166.94 Q1302.36 169.625 1304.02 171.13 Q1305.71 172.635 1308.75 172.635 Q1311.76 172.635 1313.45 171.13 Q1315.16 169.625 1315.16 166.94 Q1315.16 164.255 1313.45 162.75 Q1311.76 161.246 1308.75 161.246 Q1305.71 161.246 1304.02 162.75 Q1302.36 164.255 1302.36 166.94 Z" fill="#000000" fill-rule="nonzero" fill-opacity="1" /><circle clip-path="url(#clip023)" cx="1384.79" cy="238.153" r="14.4" fill="#009af9" fill-rule="evenodd" fill-opacity="1" stroke="#000000" stroke-opacity="1" stroke-width="3.2"/>
<circle clip-path="url(#clip023)" cx="1405.91" cy="342.719" r="14.4" fill="#009af9" fill-rule="evenodd" fill-opacity="1" stroke="#000000" stroke-opacity="1" stroke-width="3.2"/>
<circle clip-path="url(#clip023)" cx="1437.59" cy="619.299" r="14.4" fill="#009af9" fill-rule="evenodd" fill-opacity="1" stroke="#000000" stroke-opacity="1" stroke-width="3.2"/>
<circle clip-path="url(#clip023)" cx="1448.15" cy="550.188" r="14.4" fill="#009af9" fill-rule="evenodd" fill-opacity="1" stroke="#000000" stroke-opacity="1" stroke-width="3.2"/>
<circle clip-path="url(#clip023)" cx="1469.27" cy="479.173" r="14.4" fill="#009af9" fill-rule="evenodd" fill-opacity="1" stroke="#000000" stroke-opacity="1" stroke-width="3.2"/>
<circle clip-path="url(#clip023)" cx="1500.94" cy="174.372" r="14.4" fill="#009af9" fill-rule="evenodd" fill-opacity="1" stroke="#000000" stroke-opacity="1" stroke-width="3.2"/>
<circle clip-path="url(#clip023)" cx="1522.06" cy="209.194" r="14.4" fill="#009af9" fill-rule="evenodd" fill-opacity="1" stroke="#000000" stroke-opacity="1" stroke-width="3.2"/>
<circle clip-path="url(#clip023)" cx="1543.18" cy="388.859" r="14.4" fill="#009af9" fill-rule="evenodd" fill-opacity="1" stroke="#000000" stroke-opacity="1" stroke-width="3.2"/>
<circle clip-path="url(#clip023)" cx="1553.74" cy="305.315" r="14.4" fill="#009af9" fill-rule="evenodd" fill-opacity="1" stroke="#000000" stroke-opacity="1" stroke-width="3.2"/>
<circle clip-path="url(#clip023)" cx="1595.98" cy="65.3348" r="14.4" fill="#009af9" fill-rule="evenodd" fill-opacity="1" stroke="#000000" stroke-opacity="1" stroke-width="3.2"/>
<circle clip-path="url(#clip023)" cx="1606.54" cy="208.001" r="14.4" fill="#009af9" fill-rule="evenodd" fill-opacity="1" stroke="#000000" stroke-opacity="1" stroke-width="3.2"/>
<circle clip-path="url(#clip023)" cx="1617.09" cy="647.829" r="14.4" fill="#009af9" fill-rule="evenodd" fill-opacity="1" stroke="#000000" stroke-opacity="1" stroke-width="3.2"/>
<circle clip-path="url(#clip023)" cx="1627.65" cy="373.787" r="14.4" fill="#009af9" fill-rule="evenodd" fill-opacity="1" stroke="#000000" stroke-opacity="1" stroke-width="3.2"/>
<circle clip-path="url(#clip023)" cx="1638.21" cy="543.982" r="14.4" fill="#009af9" fill-rule="evenodd" fill-opacity="1" stroke="#000000" stroke-opacity="1" stroke-width="3.2"/>
<circle clip-path="url(#clip023)" cx="1691.01" cy="668.357" r="14.4" fill="#009af9" fill-rule="evenodd" fill-opacity="1" stroke="#000000" stroke-opacity="1" stroke-width="3.2"/>
<circle clip-path="url(#clip023)" cx="1701.57" cy="565.776" r="14.4" fill="#009af9" fill-rule="evenodd" fill-opacity="1" stroke="#000000" stroke-opacity="1" stroke-width="3.2"/>
<circle clip-path="url(#clip023)" cx="1743.81" cy="551.084" r="14.4" fill="#009af9" fill-rule="evenodd" fill-opacity="1" stroke="#000000" stroke-opacity="1" stroke-width="3.2"/>
<circle clip-path="url(#clip023)" cx="1796.6" cy="202.597" r="14.4" fill="#009af9" fill-rule="evenodd" fill-opacity="1" stroke="#000000" stroke-opacity="1" stroke-width="3.2"/>
<circle clip-path="url(#clip023)" cx="1828.28" cy="407.423" r="14.4" fill="#009af9" fill-rule="evenodd" fill-opacity="1" stroke="#000000" stroke-opacity="1" stroke-width="3.2"/>
<circle clip-path="url(#clip023)" cx="1870.52" cy="108.221" r="14.4" fill="#009af9" fill-rule="evenodd" fill-opacity="1" stroke="#000000" stroke-opacity="1" stroke-width="3.2"/>
<circle clip-path="url(#clip023)" cx="1881.08" cy="366.142" r="14.4" fill="#009af9" fill-rule="evenodd" fill-opacity="1" stroke="#000000" stroke-opacity="1" stroke-width="3.2"/>
<circle clip-path="url(#clip023)" cx="1944.43" cy="425.214" r="14.4" fill="#009af9" fill-rule="evenodd" fill-opacity="1" stroke="#000000" stroke-opacity="1" stroke-width="3.2"/>
<circle clip-path="url(#clip023)" cx="2134.5" cy="151.19" r="14.4" fill="#009af9" fill-rule="evenodd" fill-opacity="1" stroke="#000000" stroke-opacity="1" stroke-width="3.2"/>
<circle clip-path="url(#clip023)" cx="2176.73" cy="432.468" r="14.4" fill="#009af9" fill-rule="evenodd" fill-opacity="1" stroke="#000000" stroke-opacity="1" stroke-width="3.2"/>
<circle clip-path="url(#clip023)" cx="2271.77" cy="481.926" r="14.4" fill="#009af9" fill-rule="evenodd" fill-opacity="1" stroke="#000000" stroke-opacity="1" stroke-width="3.2"/>
<circle clip-path="url(#clip023)" cx="2282.33" cy="161.409" r="14.4" fill="#009af9" fill-rule="evenodd" fill-opacity="1" stroke="#000000" stroke-opacity="1" stroke-width="3.2"/>
<circle clip-path="url(#clip023)" cx="2292.89" cy="494.655" r="14.4" fill="#009af9" fill-rule="evenodd" fill-opacity="1" stroke="#000000" stroke-opacity="1" stroke-width="3.2"/>
<circle clip-path="url(#clip023)" cx="2303.44" cy="600.007" r="14.4" fill="#009af9" fill-rule="evenodd" fill-opacity="1" stroke="#000000" stroke-opacity="1" stroke-width="3.2"/>
<circle clip-path="url(#clip023)" cx="2324.56" cy="388.641" r="14.4" fill="#009af9" fill-rule="evenodd" fill-opacity="1" stroke="#000000" stroke-opacity="1" stroke-width="3.2"/>
<path clip-path="url(#clip020)" d="M1389.8 172.231 L1664.97 172.231 L1664.97 68.5509 L1389.8 68.5509  Z" fill="#ffffff" fill-rule="evenodd" fill-opacity="1"/>
<polyline clip-path="url(#clip020)" style="stroke:#000000; stroke-linecap:round; stroke-linejoin:round; stroke-width:4; stroke-opacity:1; fill:none" points="1389.8,172.231 1664.97,172.231 1664.97,68.5509 1389.8,68.5509 1389.8,172.231 "/>
<circle clip-path="url(#clip020)" cx="1434.08" cy="120.391" r="20.48" fill="#009af9" fill-rule="evenodd" fill-opacity="1" stroke="#000000" stroke-opacity="1" stroke-width="4.55111"/>
<path clip-path="url(#clip020)" d="M1497.26 124.407 Q1497.26 119.777 1495.34 117.231 Q1493.44 114.685 1489.99 114.685 Q1486.57 114.685 1484.65 117.231 Q1482.75 119.777 1482.75 124.407 Q1482.75 129.014 1484.65 131.56 Q1486.57 134.106 1489.99 134.106 Q1493.44 134.106 1495.34 131.56 Q1497.26 129.014 1497.26 124.407 M1501.52 134.453 Q1501.52 141.074 1498.58 144.291 Q1495.64 147.532 1489.58 147.532 Q1487.33 147.532 1485.34 147.185 Q1483.35 146.861 1481.48 146.166 L1481.48 142.023 Q1483.35 143.041 1485.18 143.527 Q1487.01 144.013 1488.91 144.013 Q1493.1 144.013 1495.18 141.814 Q1497.26 139.638 1497.26 135.217 L1497.26 133.111 Q1495.94 135.402 1493.88 136.537 Q1491.82 137.671 1488.95 137.671 Q1484.18 137.671 1481.27 134.037 Q1478.35 130.402 1478.35 124.407 Q1478.35 118.389 1481.27 114.754 Q1484.18 111.12 1488.95 111.12 Q1491.82 111.12 1493.88 112.254 Q1495.94 113.389 1497.26 115.68 L1497.26 111.745 L1501.52 111.745 L1501.52 134.453 Z" fill="#000000" fill-rule="nonzero" fill-opacity="1" /><path clip-path="url(#clip020)" d="M1525.32 115.727 Q1524.6 115.31 1523.74 115.125 Q1522.91 114.916 1521.89 114.916 Q1518.28 114.916 1516.34 117.277 Q1514.42 119.615 1514.42 124.014 L1514.42 137.671 L1510.13 137.671 L1510.13 111.745 L1514.42 111.745 L1514.42 115.773 Q1515.76 113.412 1517.91 112.278 Q1520.06 111.12 1523.14 111.12 Q1523.58 111.12 1524.11 111.19 Q1524.65 111.236 1525.3 111.352 L1525.32 115.727 Z" fill="#000000" fill-rule="nonzero" fill-opacity="1" /><path clip-path="url(#clip020)" d="M1538.79 114.731 Q1535.36 114.731 1533.37 117.416 Q1531.38 120.078 1531.38 124.731 Q1531.38 129.384 1533.35 132.069 Q1535.34 134.731 1538.79 134.731 Q1542.19 134.731 1544.18 132.046 Q1546.17 129.361 1546.17 124.731 Q1546.17 120.125 1544.18 117.44 Q1542.19 114.731 1538.79 114.731 M1538.79 111.12 Q1544.35 111.12 1547.52 114.731 Q1550.69 118.342 1550.69 124.731 Q1550.69 131.097 1547.52 134.731 Q1544.35 138.342 1538.79 138.342 Q1533.21 138.342 1530.04 134.731 Q1526.89 131.097 1526.89 124.731 Q1526.89 118.342 1530.04 114.731 Q1533.21 111.12 1538.79 111.12 Z" fill="#000000" fill-rule="nonzero" fill-opacity="1" /><path clip-path="url(#clip020)" d="M1557.31 127.439 L1557.31 111.745 L1561.57 111.745 L1561.57 127.277 Q1561.57 130.958 1563 132.81 Q1564.44 134.638 1567.31 134.638 Q1570.76 134.638 1572.75 132.439 Q1574.76 130.24 1574.76 126.444 L1574.76 111.745 L1579.02 111.745 L1579.02 137.671 L1574.76 137.671 L1574.76 133.689 Q1573.21 136.051 1571.15 137.208 Q1569.11 138.342 1566.41 138.342 Q1561.94 138.342 1559.62 135.564 Q1557.31 132.787 1557.31 127.439 M1568.03 111.12 L1568.03 111.12 Z" fill="#000000" fill-rule="nonzero" fill-opacity="1" /><path clip-path="url(#clip020)" d="M1591.92 133.782 L1591.92 147.532 L1587.63 147.532 L1587.63 111.745 L1591.92 111.745 L1591.92 115.68 Q1593.26 113.365 1595.29 112.254 Q1597.35 111.12 1600.2 111.12 Q1604.92 111.12 1607.86 114.87 Q1610.83 118.62 1610.83 124.731 Q1610.83 130.842 1607.86 134.592 Q1604.92 138.342 1600.2 138.342 Q1597.35 138.342 1595.29 137.231 Q1593.26 136.097 1591.92 133.782 M1606.41 124.731 Q1606.41 120.032 1604.46 117.37 Q1602.54 114.685 1599.16 114.685 Q1595.78 114.685 1593.84 117.37 Q1591.92 120.032 1591.92 124.731 Q1591.92 129.43 1593.84 132.115 Q1595.78 134.777 1599.16 134.777 Q1602.54 134.777 1604.46 132.115 Q1606.41 129.43 1606.41 124.731 Z" fill="#000000" fill-rule="nonzero" fill-opacity="1" /><path clip-path="url(#clip020)" d="M1637.59 133.736 L1653.91 133.736 L1653.91 137.671 L1631.96 137.671 L1631.96 133.736 Q1634.62 130.981 1639.21 126.352 Q1643.81 121.699 1644.99 120.356 Q1647.24 117.833 1648.12 116.097 Q1649.02 114.338 1649.02 112.648 Q1649.02 109.893 1647.08 108.157 Q1645.16 106.421 1642.05 106.421 Q1639.85 106.421 1637.4 107.185 Q1634.97 107.949 1632.19 109.5 L1632.19 104.778 Q1635.02 103.643 1637.47 103.065 Q1639.92 102.486 1641.96 102.486 Q1647.33 102.486 1650.53 105.171 Q1653.72 107.856 1653.72 112.347 Q1653.72 114.477 1652.91 116.398 Q1652.12 118.296 1650.02 120.889 Q1649.44 121.56 1646.34 124.777 Q1643.23 127.972 1637.59 133.736 Z" fill="#000000" fill-rule="nonzero" fill-opacity="1" /><path clip-path="url(#clip020)" d="M156.598 1486.45 L2352.76 1486.45 L2352.76 847.244 L156.598 847.244  Z" fill="#ffffff" fill-rule="evenodd" fill-opacity="1"/>
<defs>
  <clipPath id="clip024">
    <rect x="156" y="847" width="2197" height="640"/>
  </clipPath>
</defs>
<polyline clip-path="url(#clip024)" style="stroke:#000000; stroke-linecap:round; stroke-linejoin:round; stroke-width:2; stroke-opacity:0.1; fill:none" points="176.471,1486.45 176.471,847.244 "/>
<polyline clip-path="url(#clip024)" style="stroke:#000000; stroke-linecap:round; stroke-linejoin:round; stroke-width:2; stroke-opacity:0.1; fill:none" points="705.003,1486.45 705.003,847.244 "/>
<polyline clip-path="url(#clip024)" style="stroke:#000000; stroke-linecap:round; stroke-linejoin:round; stroke-width:2; stroke-opacity:0.1; fill:none" points="1233.54,1486.45 1233.54,847.244 "/>
<polyline clip-path="url(#clip024)" style="stroke:#000000; stroke-linecap:round; stroke-linejoin:round; stroke-width:2; stroke-opacity:0.1; fill:none" points="1762.07,1486.45 1762.07,847.244 "/>
<polyline clip-path="url(#clip024)" style="stroke:#000000; stroke-linecap:round; stroke-linejoin:round; stroke-width:2; stroke-opacity:0.1; fill:none" points="2290.6,1486.45 2290.6,847.244 "/>
<polyline clip-path="url(#clip024)" style="stroke:#000000; stroke-linecap:round; stroke-linejoin:round; stroke-width:2; stroke-opacity:0.1; fill:none" points="156.598,1412.63 2352.76,1412.63 "/>
<polyline clip-path="url(#clip024)" style="stroke:#000000; stroke-linecap:round; stroke-linejoin:round; stroke-width:2; stroke-opacity:0.1; fill:none" points="156.598,1269.2 2352.76,1269.2 "/>
<polyline clip-path="url(#clip024)" style="stroke:#000000; stroke-linecap:round; stroke-linejoin:round; stroke-width:2; stroke-opacity:0.1; fill:none" points="156.598,1125.76 2352.76,1125.76 "/>
<polyline clip-path="url(#clip024)" style="stroke:#000000; stroke-linecap:round; stroke-linejoin:round; stroke-width:2; stroke-opacity:0.1; fill:none" points="156.598,982.327 2352.76,982.327 "/>
<polyline clip-path="url(#clip020)" style="stroke:#000000; stroke-linecap:round; stroke-linejoin:round; stroke-width:4; stroke-opacity:1; fill:none" points="156.598,1486.45 2352.76,1486.45 "/>
<polyline clip-path="url(#clip020)" style="stroke:#000000; stroke-linecap:round; stroke-linejoin:round; stroke-width:4; stroke-opacity:1; fill:none" points="176.471,1486.45 176.471,1467.55 "/>
<polyline clip-path="url(#clip020)" style="stroke:#000000; stroke-linecap:round; stroke-linejoin:round; stroke-width:4; stroke-opacity:1; fill:none" points="705.003,1486.45 705.003,1467.55 "/>
<polyline clip-path="url(#clip020)" style="stroke:#000000; stroke-linecap:round; stroke-linejoin:round; stroke-width:4; stroke-opacity:1; fill:none" points="1233.54,1486.45 1233.54,1467.55 "/>
<polyline clip-path="url(#clip020)" style="stroke:#000000; stroke-linecap:round; stroke-linejoin:round; stroke-width:4; stroke-opacity:1; fill:none" points="1762.07,1486.45 1762.07,1467.55 "/>
<polyline clip-path="url(#clip020)" style="stroke:#000000; stroke-linecap:round; stroke-linejoin:round; stroke-width:4; stroke-opacity:1; fill:none" points="2290.6,1486.45 2290.6,1467.55 "/>
<path clip-path="url(#clip020)" d="M176.471 1517.37 Q172.86 1517.37 171.031 1520.93 Q169.226 1524.47 169.226 1531.6 Q169.226 1538.71 171.031 1542.27 Q172.86 1545.82 176.471 1545.82 Q180.105 1545.82 181.911 1542.27 Q183.74 1538.71 183.74 1531.6 Q183.74 1524.47 181.911 1520.93 Q180.105 1517.37 176.471 1517.37 M176.471 1513.66 Q182.281 1513.66 185.337 1518.27 Q188.415 1522.85 188.415 1531.6 Q188.415 1540.33 185.337 1544.94 Q182.281 1549.52 176.471 1549.52 Q170.661 1549.52 167.582 1544.94 Q164.527 1540.33 164.527 1531.6 Q164.527 1522.85 167.582 1518.27 Q170.661 1513.66 176.471 1513.66 Z" fill="#000000" fill-rule="nonzero" fill-opacity="1" /><path clip-path="url(#clip020)" d="M684.274 1544.91 L700.594 1544.91 L700.594 1548.85 L678.649 1548.85 L678.649 1544.91 Q681.311 1542.16 685.895 1537.53 Q690.501 1532.88 691.682 1531.53 Q693.927 1529.01 694.807 1527.27 Q695.709 1525.51 695.709 1523.82 Q695.709 1521.07 693.765 1519.33 Q691.844 1517.6 688.742 1517.6 Q686.543 1517.6 684.089 1518.36 Q681.659 1519.13 678.881 1520.68 L678.881 1515.95 Q681.705 1514.82 684.159 1514.24 Q686.612 1513.66 688.649 1513.66 Q694.02 1513.66 697.214 1516.35 Q700.409 1519.03 700.409 1523.52 Q700.409 1525.65 699.598 1527.57 Q698.811 1529.47 696.705 1532.07 Q696.126 1532.74 693.024 1535.95 Q689.922 1539.15 684.274 1544.91 Z" fill="#000000" fill-rule="nonzero" fill-opacity="1" /><path clip-path="url(#clip020)" d="M710.455 1514.29 L728.811 1514.29 L728.811 1518.22 L714.737 1518.22 L714.737 1526.7 Q715.756 1526.35 716.774 1526.19 Q717.793 1526 718.811 1526 Q724.598 1526 727.978 1529.17 Q731.357 1532.34 731.357 1537.76 Q731.357 1543.34 727.885 1546.44 Q724.413 1549.52 718.094 1549.52 Q715.918 1549.52 713.649 1549.15 Q711.404 1548.78 708.996 1548.04 L708.996 1543.34 Q711.08 1544.47 713.302 1545.03 Q715.524 1545.58 718.001 1545.58 Q722.006 1545.58 724.344 1543.48 Q726.682 1541.37 726.682 1537.76 Q726.682 1534.15 724.344 1532.04 Q722.006 1529.94 718.001 1529.94 Q716.126 1529.94 714.251 1530.35 Q712.399 1530.77 710.455 1531.65 L710.455 1514.29 Z" fill="#000000" fill-rule="nonzero" fill-opacity="1" /><path clip-path="url(#clip020)" d="M1208.23 1514.29 L1226.59 1514.29 L1226.59 1518.22 L1212.52 1518.22 L1212.52 1526.7 Q1213.54 1526.35 1214.55 1526.19 Q1215.57 1526 1216.59 1526 Q1222.38 1526 1225.76 1529.17 Q1229.14 1532.34 1229.14 1537.76 Q1229.14 1543.34 1225.67 1546.44 Q1222.19 1549.52 1215.87 1549.52 Q1213.7 1549.52 1211.43 1549.15 Q1209.18 1548.78 1206.78 1548.04 L1206.78 1543.34 Q1208.86 1544.47 1211.08 1545.03 Q1213.3 1545.58 1215.78 1545.58 Q1219.79 1545.58 1222.12 1543.48 Q1224.46 1541.37 1224.46 1537.76 Q1224.46 1534.15 1222.12 1532.04 Q1219.79 1529.94 1215.78 1529.94 Q1213.91 1529.94 1212.03 1530.35 Q1210.18 1530.77 1208.23 1531.65 L1208.23 1514.29 Z" fill="#000000" fill-rule="nonzero" fill-opacity="1" /><path clip-path="url(#clip020)" d="M1248.35 1517.37 Q1244.74 1517.37 1242.91 1520.93 Q1241.11 1524.47 1241.11 1531.6 Q1241.11 1538.71 1242.91 1542.27 Q1244.74 1545.82 1248.35 1545.82 Q1251.98 1545.82 1253.79 1542.27 Q1255.62 1538.71 1255.62 1531.6 Q1255.62 1524.47 1253.79 1520.93 Q1251.98 1517.37 1248.35 1517.37 M1248.35 1513.66 Q1254.16 1513.66 1257.22 1518.27 Q1260.29 1522.85 1260.29 1531.6 Q1260.29 1540.33 1257.22 1544.94 Q1254.16 1549.52 1248.35 1549.52 Q1242.54 1549.52 1239.46 1544.94 Q1236.41 1540.33 1236.41 1531.6 Q1236.41 1522.85 1239.46 1518.27 Q1242.54 1513.66 1248.35 1513.66 Z" fill="#000000" fill-rule="nonzero" fill-opacity="1" /><path clip-path="url(#clip020)" d="M1735.92 1514.29 L1758.14 1514.29 L1758.14 1516.28 L1745.6 1548.85 L1740.71 1548.85 L1752.52 1518.22 L1735.92 1518.22 L1735.92 1514.29 Z" fill="#000000" fill-rule="nonzero" fill-opacity="1" /><path clip-path="url(#clip020)" d="M1767.31 1514.29 L1785.67 1514.29 L1785.67 1518.22 L1771.59 1518.22 L1771.59 1526.7 Q1772.61 1526.35 1773.63 1526.19 Q1774.65 1526 1775.67 1526 Q1781.45 1526 1784.83 1529.17 Q1788.21 1532.34 1788.21 1537.76 Q1788.21 1543.34 1784.74 1546.44 Q1781.27 1549.52 1774.95 1549.52 Q1772.77 1549.52 1770.51 1549.15 Q1768.26 1548.78 1765.85 1548.04 L1765.85 1543.34 Q1767.94 1544.47 1770.16 1545.03 Q1772.38 1545.58 1774.86 1545.58 Q1778.86 1545.58 1781.2 1543.48 Q1783.54 1541.37 1783.54 1537.76 Q1783.54 1534.15 1781.2 1532.04 Q1778.86 1529.94 1774.86 1529.94 Q1772.98 1529.94 1771.11 1530.35 Q1769.26 1530.77 1767.31 1531.65 L1767.31 1514.29 Z" fill="#000000" fill-rule="nonzero" fill-opacity="1" /><path clip-path="url(#clip020)" d="M2250.21 1544.91 L2257.85 1544.91 L2257.85 1518.55 L2249.54 1520.21 L2249.54 1515.95 L2257.8 1514.29 L2262.48 1514.29 L2262.48 1544.91 L2270.11 1544.91 L2270.11 1548.85 L2250.21 1548.85 L2250.21 1544.91 Z" fill="#000000" fill-rule="nonzero" fill-opacity="1" /><path clip-path="url(#clip020)" d="M2289.56 1517.37 Q2285.95 1517.37 2284.12 1520.93 Q2282.31 1524.47 2282.31 1531.6 Q2282.31 1538.71 2284.12 1542.27 Q2285.95 1545.82 2289.56 1545.82 Q2293.19 1545.82 2295 1542.27 Q2296.83 1538.71 2296.83 1531.6 Q2296.83 1524.47 2295 1520.93 Q2293.19 1517.37 2289.56 1517.37 M2289.56 1513.66 Q2295.37 1513.66 2298.42 1518.27 Q2301.5 1522.85 2301.5 1531.6 Q2301.5 1540.33 2298.42 1544.94 Q2295.37 1549.52 2289.56 1549.52 Q2283.75 1549.52 2280.67 1544.94 Q2277.61 1540.33 2277.61 1531.6 Q2277.61 1522.85 2280.67 1518.27 Q2283.75 1513.66 2289.56 1513.66 Z" fill="#000000" fill-rule="nonzero" fill-opacity="1" /><path clip-path="url(#clip020)" d="M2319.72 1517.37 Q2316.11 1517.37 2314.28 1520.93 Q2312.48 1524.47 2312.48 1531.6 Q2312.48 1538.71 2314.28 1542.27 Q2316.11 1545.82 2319.72 1545.82 Q2323.35 1545.82 2325.16 1542.27 Q2326.99 1538.71 2326.99 1531.6 Q2326.99 1524.47 2325.16 1520.93 Q2323.35 1517.37 2319.72 1517.37 M2319.72 1513.66 Q2325.53 1513.66 2328.59 1518.27 Q2331.67 1522.85 2331.67 1531.6 Q2331.67 1540.33 2328.59 1544.94 Q2325.53 1549.52 2319.72 1549.52 Q2313.91 1549.52 2310.83 1544.94 Q2307.78 1540.33 2307.78 1531.6 Q2307.78 1522.85 2310.83 1518.27 Q2313.91 1513.66 2319.72 1513.66 Z" fill="#000000" fill-rule="nonzero" fill-opacity="1" /><polyline clip-path="url(#clip020)" style="stroke:#000000; stroke-linecap:round; stroke-linejoin:round; stroke-width:4; stroke-opacity:1; fill:none" points="156.598,1486.45 156.598,847.244 "/>
<polyline clip-path="url(#clip020)" style="stroke:#000000; stroke-linecap:round; stroke-linejoin:round; stroke-width:4; stroke-opacity:1; fill:none" points="156.598,1412.63 175.496,1412.63 "/>
<polyline clip-path="url(#clip020)" style="stroke:#000000; stroke-linecap:round; stroke-linejoin:round; stroke-width:4; stroke-opacity:1; fill:none" points="156.598,1269.2 175.496,1269.2 "/>
<polyline clip-path="url(#clip020)" style="stroke:#000000; stroke-linecap:round; stroke-linejoin:round; stroke-width:4; stroke-opacity:1; fill:none" points="156.598,1125.76 175.496,1125.76 "/>
<polyline clip-path="url(#clip020)" style="stroke:#000000; stroke-linecap:round; stroke-linejoin:round; stroke-width:4; stroke-opacity:1; fill:none" points="156.598,982.327 175.496,982.327 "/>
<path clip-path="url(#clip020)" d="M65.0198 1398.43 Q61.4087 1398.43 59.58 1402 Q57.7745 1405.54 57.7745 1412.67 Q57.7745 1419.78 59.58 1423.34 Q61.4087 1426.88 65.0198 1426.88 Q68.6541 1426.88 70.4596 1423.34 Q72.2883 1419.78 72.2883 1412.67 Q72.2883 1405.54 70.4596 1402 Q68.6541 1398.43 65.0198 1398.43 M65.0198 1394.73 Q70.83 1394.73 73.8855 1399.34 Q76.9642 1403.92 76.9642 1412.67 Q76.9642 1421.4 73.8855 1426 Q70.83 1430.59 65.0198 1430.59 Q59.2097 1430.59 56.131 1426 Q53.0754 1421.4 53.0754 1412.67 Q53.0754 1403.92 56.131 1399.34 Q59.2097 1394.73 65.0198 1394.73 Z" fill="#000000" fill-rule="nonzero" fill-opacity="1" /><path clip-path="url(#clip020)" d="M85.1818 1424.03 L90.066 1424.03 L90.066 1429.91 L85.1818 1429.91 L85.1818 1424.03 Z" fill="#000000" fill-rule="nonzero" fill-opacity="1" /><path clip-path="url(#clip020)" d="M104.279 1425.98 L120.598 1425.98 L120.598 1429.91 L98.6539 1429.91 L98.6539 1425.98 Q101.316 1423.22 105.899 1418.59 Q110.506 1413.94 111.686 1412.6 Q113.932 1410.08 114.811 1408.34 Q115.714 1406.58 115.714 1404.89 Q115.714 1402.14 113.77 1400.4 Q111.848 1398.66 108.746 1398.66 Q106.547 1398.66 104.094 1399.43 Q101.663 1400.19 98.8854 1401.74 L98.8854 1397.02 Q101.709 1395.89 104.163 1395.31 Q106.617 1394.73 108.654 1394.73 Q114.024 1394.73 117.219 1397.41 Q120.413 1400.1 120.413 1404.59 Q120.413 1406.72 119.603 1408.64 Q118.816 1410.54 116.709 1413.13 Q116.131 1413.8 113.029 1417.02 Q109.927 1420.21 104.279 1425.98 Z" fill="#000000" fill-rule="nonzero" fill-opacity="1" /><path clip-path="url(#clip020)" d="M62.9365 1255 Q59.3254 1255 57.4967 1258.56 Q55.6912 1262.1 55.6912 1269.23 Q55.6912 1276.34 57.4967 1279.9 Q59.3254 1283.45 62.9365 1283.45 Q66.5707 1283.45 68.3763 1279.9 Q70.205 1276.34 70.205 1269.23 Q70.205 1262.1 68.3763 1258.56 Q66.5707 1255 62.9365 1255 M62.9365 1251.29 Q68.7467 1251.29 71.8022 1255.9 Q74.8809 1260.48 74.8809 1269.23 Q74.8809 1277.96 71.8022 1282.57 Q68.7467 1287.15 62.9365 1287.15 Q57.1264 1287.15 54.0477 1282.57 Q50.9921 1277.96 50.9921 1269.23 Q50.9921 1260.48 54.0477 1255.9 Q57.1264 1251.29 62.9365 1251.29 Z" fill="#000000" fill-rule="nonzero" fill-opacity="1" /><path clip-path="url(#clip020)" d="M83.0984 1280.6 L87.9827 1280.6 L87.9827 1286.48 L83.0984 1286.48 L83.0984 1280.6 Z" fill="#000000" fill-rule="nonzero" fill-opacity="1" /><path clip-path="url(#clip020)" d="M111.015 1255.99 L99.2095 1274.44 L111.015 1274.44 L111.015 1255.99 M109.788 1251.92 L115.668 1251.92 L115.668 1274.44 L120.598 1274.44 L120.598 1278.33 L115.668 1278.33 L115.668 1286.48 L111.015 1286.48 L111.015 1278.33 L95.4132 1278.33 L95.4132 1273.82 L109.788 1251.92 Z" fill="#000000" fill-rule="nonzero" fill-opacity="1" /><path clip-path="url(#clip020)" d="M63.2606 1111.56 Q59.6495 1111.56 57.8208 1115.13 Q56.0152 1118.67 56.0152 1125.8 Q56.0152 1132.9 57.8208 1136.47 Q59.6495 1140.01 63.2606 1140.01 Q66.8948 1140.01 68.7004 1136.47 Q70.5291 1132.9 70.5291 1125.8 Q70.5291 1118.67 68.7004 1115.13 Q66.8948 1111.56 63.2606 1111.56 M63.2606 1107.86 Q69.0707 1107.86 72.1263 1112.46 Q75.205 1117.05 75.205 1125.8 Q75.205 1134.52 72.1263 1139.13 Q69.0707 1143.71 63.2606 1143.71 Q57.4504 1143.71 54.3717 1139.13 Q51.3162 1134.52 51.3162 1125.8 Q51.3162 1117.05 54.3717 1112.46 Q57.4504 1107.86 63.2606 1107.86 Z" fill="#000000" fill-rule="nonzero" fill-opacity="1" /><path clip-path="url(#clip020)" d="M83.4225 1137.16 L88.3067 1137.16 L88.3067 1143.04 L83.4225 1143.04 L83.4225 1137.16 Z" fill="#000000" fill-rule="nonzero" fill-opacity="1" /><path clip-path="url(#clip020)" d="M109.071 1123.9 Q105.922 1123.9 104.071 1126.05 Q102.242 1128.2 102.242 1131.95 Q102.242 1135.68 104.071 1137.86 Q105.922 1140.01 109.071 1140.01 Q112.219 1140.01 114.047 1137.86 Q115.899 1135.68 115.899 1131.95 Q115.899 1128.2 114.047 1126.05 Q112.219 1123.9 109.071 1123.9 M118.353 1109.25 L118.353 1113.51 Q116.594 1112.67 114.788 1112.23 Q113.006 1111.79 111.246 1111.79 Q106.617 1111.79 104.163 1114.92 Q101.733 1118.04 101.385 1124.36 Q102.751 1122.35 104.811 1121.28 Q106.871 1120.2 109.348 1120.2 Q114.557 1120.2 117.566 1123.37 Q120.598 1126.52 120.598 1131.95 Q120.598 1137.28 117.45 1140.5 Q114.302 1143.71 109.071 1143.71 Q103.075 1143.71 99.9039 1139.13 Q96.7326 1134.52 96.7326 1125.8 Q96.7326 1117.6 100.621 1112.74 Q104.51 1107.86 111.061 1107.86 Q112.82 1107.86 114.603 1108.21 Q116.408 1108.55 118.353 1109.25 Z" fill="#000000" fill-rule="nonzero" fill-opacity="1" /><path clip-path="url(#clip020)" d="M63.5152 968.126 Q59.9041 968.126 58.0754 971.691 Q56.2699 975.232 56.2699 982.362 Q56.2699 989.468 58.0754 993.033 Q59.9041 996.575 63.5152 996.575 Q67.1494 996.575 68.955 993.033 Q70.7837 989.468 70.7837 982.362 Q70.7837 975.232 68.955 971.691 Q67.1494 968.126 63.5152 968.126 M63.5152 964.422 Q69.3254 964.422 72.3809 969.029 Q75.4596 973.612 75.4596 982.362 Q75.4596 991.089 72.3809 995.695 Q69.3254 1000.28 63.5152 1000.28 Q57.7051 1000.28 54.6264 995.695 Q51.5708 991.089 51.5708 982.362 Q51.5708 973.612 54.6264 969.029 Q57.7051 964.422 63.5152 964.422 Z" fill="#000000" fill-rule="nonzero" fill-opacity="1" /><path clip-path="url(#clip020)" d="M83.6771 993.728 L88.5614 993.728 L88.5614 999.607 L83.6771 999.607 L83.6771 993.728 Z" fill="#000000" fill-rule="nonzero" fill-opacity="1" /><path clip-path="url(#clip020)" d="M108.746 983.195 Q105.413 983.195 103.492 984.978 Q101.594 986.76 101.594 989.885 Q101.594 993.01 103.492 994.792 Q105.413 996.575 108.746 996.575 Q112.08 996.575 114.001 994.792 Q115.922 992.987 115.922 989.885 Q115.922 986.76 114.001 984.978 Q112.103 983.195 108.746 983.195 M104.071 981.205 Q101.061 980.464 99.3715 978.404 Q97.7048 976.343 97.7048 973.381 Q97.7048 969.237 100.645 966.83 Q103.608 964.422 108.746 964.422 Q113.908 964.422 116.848 966.83 Q119.788 969.237 119.788 973.381 Q119.788 976.343 118.098 978.404 Q116.432 980.464 113.445 981.205 Q116.825 981.992 118.7 984.283 Q120.598 986.575 120.598 989.885 Q120.598 994.908 117.52 997.593 Q114.464 1000.28 108.746 1000.28 Q103.029 1000.28 99.9502 997.593 Q96.8947 994.908 96.8947 989.885 Q96.8947 986.575 98.7928 984.283 Q100.691 981.992 104.071 981.205 M102.358 973.82 Q102.358 976.506 104.024 978.01 Q105.714 979.515 108.746 979.515 Q111.756 979.515 113.445 978.01 Q115.158 976.506 115.158 973.82 Q115.158 971.135 113.445 969.631 Q111.756 968.126 108.746 968.126 Q105.714 968.126 104.024 969.631 Q102.358 971.135 102.358 973.82 Z" fill="#000000" fill-rule="nonzero" fill-opacity="1" /><polyline clip-path="url(#clip024)" style="stroke:#009af9; stroke-linecap:round; stroke-linejoin:round; stroke-width:4; stroke-opacity:1; fill:none" points="218.754,875.793 218.754,1169.41 557.014,1169.41 557.014,1389.2 726.145,1389.2 726.145,981.789 747.286,981.789 747.286,890.893 874.134,890.893 874.134,865.335 895.275,865.335 895.275,1258.71 937.558,1258.71 937.558,970.231 1127.83,970.231 1127.83,938.375 1191.25,938.375 1191.25,1058.16 1212.39,1058.16 1212.39,925.391 1275.82,925.391 1275.82,956.211 1487.23,956.211 1487.23,1139.54 1508.37,1139.54 1508.37,1427.96 1614.08,1427.96 1614.08,1456.61 1656.36,1456.61 1656.36,944.108 1677.5,944.108 1677.5,1159.33 1740.93,1159.33 1740.93,1420.97 1825.49,1420.97 1825.49,930.169 1867.77,930.169 1867.77,1006.45 1888.92,1006.45 1888.92,958.543 1952.34,958.543 1952.34,1448.91 1973.48,1448.91 1973.48,1325.4 2036.9,1325.4 2036.9,1468.36 2058.05,1468.36 2058.05,887.529 2079.19,887.529 2079.19,1035.29 2206.04,1035.29 2206.04,1175.49 2269.46,1175.49 2269.46,1182.95 2290.6,1182.95 "/>
<path clip-path="url(#clip020)" d="M229.803 1465.14 L625.923 1465.14 L625.923 1361.46 L229.803 1361.46  Z" fill="#ffffff" fill-rule="evenodd" fill-opacity="1"/>
<polyline clip-path="url(#clip020)" style="stroke:#000000; stroke-linecap:round; stroke-linejoin:round; stroke-width:4; stroke-opacity:1; fill:none" points="229.803,1465.14 625.923,1465.14 625.923,1361.46 229.803,1361.46 229.803,1465.14 "/>
<polyline clip-path="url(#clip020)" style="stroke:#009af9; stroke-linecap:round; stroke-linejoin:round; stroke-width:4; stroke-opacity:1; fill:none" points="254.205,1413.3 400.616,1413.3 "/>
<path clip-path="url(#clip020)" d="M443.929 1417.32 Q443.929 1412.69 442.008 1410.14 Q440.11 1407.6 436.661 1407.6 Q433.235 1407.6 431.314 1410.14 Q429.416 1412.69 429.416 1417.32 Q429.416 1421.92 431.314 1424.47 Q433.235 1427.02 436.661 1427.02 Q440.11 1427.02 442.008 1424.47 Q443.929 1421.92 443.929 1417.32 M448.189 1427.36 Q448.189 1433.98 445.249 1437.2 Q442.309 1440.44 436.244 1440.44 Q433.999 1440.44 432.008 1440.09 Q430.017 1439.77 428.142 1439.08 L428.142 1434.93 Q430.017 1435.95 431.846 1436.44 Q433.675 1436.92 435.573 1436.92 Q439.763 1436.92 441.846 1434.72 Q443.929 1432.55 443.929 1428.13 L443.929 1426.02 Q442.61 1428.31 440.55 1429.45 Q438.49 1430.58 435.619 1430.58 Q430.851 1430.58 427.934 1426.95 Q425.018 1423.31 425.018 1417.32 Q425.018 1411.3 427.934 1407.66 Q430.851 1404.03 435.619 1404.03 Q438.49 1404.03 440.55 1405.16 Q442.61 1406.3 443.929 1408.59 L443.929 1404.66 L448.189 1404.66 L448.189 1427.36 Z" fill="#000000" fill-rule="nonzero" fill-opacity="1" /><path clip-path="url(#clip020)" d="M471.985 1408.64 Q471.267 1408.22 470.411 1408.03 Q469.577 1407.83 468.559 1407.83 Q464.948 1407.83 463.003 1410.19 Q461.082 1412.53 461.082 1416.92 L461.082 1430.58 L456.8 1430.58 L456.8 1404.66 L461.082 1404.66 L461.082 1408.68 Q462.425 1406.32 464.577 1405.19 Q466.73 1404.03 469.809 1404.03 Q470.249 1404.03 470.781 1404.1 Q471.314 1404.15 471.962 1404.26 L471.985 1408.64 Z" fill="#000000" fill-rule="nonzero" fill-opacity="1" /><path clip-path="url(#clip020)" d="M485.457 1407.64 Q482.031 1407.64 480.04 1410.33 Q478.05 1412.99 478.05 1417.64 Q478.05 1422.29 480.017 1424.98 Q482.008 1427.64 485.457 1427.64 Q488.86 1427.64 490.85 1424.96 Q492.841 1422.27 492.841 1417.64 Q492.841 1413.03 490.85 1410.35 Q488.86 1407.64 485.457 1407.64 M485.457 1404.03 Q491.013 1404.03 494.184 1407.64 Q497.355 1411.25 497.355 1417.64 Q497.355 1424.01 494.184 1427.64 Q491.013 1431.25 485.457 1431.25 Q479.878 1431.25 476.707 1427.64 Q473.559 1424.01 473.559 1417.64 Q473.559 1411.25 476.707 1407.64 Q479.878 1404.03 485.457 1404.03 Z" fill="#000000" fill-rule="nonzero" fill-opacity="1" /><path clip-path="url(#clip020)" d="M503.975 1420.35 L503.975 1404.66 L508.235 1404.66 L508.235 1420.19 Q508.235 1423.87 509.67 1425.72 Q511.105 1427.55 513.975 1427.55 Q517.424 1427.55 519.415 1425.35 Q521.429 1423.15 521.429 1419.35 L521.429 1404.66 L525.688 1404.66 L525.688 1430.58 L521.429 1430.58 L521.429 1426.6 Q519.878 1428.96 517.818 1430.12 Q515.781 1431.25 513.073 1431.25 Q508.605 1431.25 506.29 1428.47 Q503.975 1425.7 503.975 1420.35 M514.693 1404.03 L514.693 1404.03 Z" fill="#000000" fill-rule="nonzero" fill-opacity="1" /><path clip-path="url(#clip020)" d="M538.582 1426.69 L538.582 1440.44 L534.299 1440.44 L534.299 1404.66 L538.582 1404.66 L538.582 1408.59 Q539.924 1406.28 541.961 1405.16 Q544.021 1404.03 546.869 1404.03 Q551.591 1404.03 554.531 1407.78 Q557.494 1411.53 557.494 1417.64 Q557.494 1423.75 554.531 1427.5 Q551.591 1431.25 546.869 1431.25 Q544.021 1431.25 541.961 1430.14 Q539.924 1429.01 538.582 1426.69 M553.072 1417.64 Q553.072 1412.94 551.128 1410.28 Q549.207 1407.6 545.827 1407.6 Q542.447 1407.6 540.503 1410.28 Q538.582 1412.94 538.582 1417.64 Q538.582 1422.34 540.503 1425.03 Q542.447 1427.69 545.827 1427.69 Q549.207 1427.69 551.128 1425.03 Q553.072 1422.34 553.072 1417.64 Z" fill="#000000" fill-rule="nonzero" fill-opacity="1" /><path clip-path="url(#clip020)" d="M594.392 1411.95 Q597.748 1412.66 599.623 1414.93 Q601.521 1417.2 601.521 1420.53 Q601.521 1425.65 598.003 1428.45 Q594.484 1431.25 588.003 1431.25 Q585.827 1431.25 583.512 1430.81 Q581.22 1430.4 578.767 1429.54 L578.767 1425.03 Q580.711 1426.16 583.026 1426.74 Q585.341 1427.32 587.864 1427.32 Q592.262 1427.32 594.554 1425.58 Q596.868 1423.85 596.868 1420.53 Q596.868 1417.48 594.716 1415.77 Q592.586 1414.03 588.767 1414.03 L584.739 1414.03 L584.739 1410.19 L588.952 1410.19 Q592.401 1410.19 594.23 1408.82 Q596.058 1407.43 596.058 1404.84 Q596.058 1402.18 594.16 1400.77 Q592.285 1399.33 588.767 1399.33 Q586.845 1399.33 584.646 1399.75 Q582.447 1400.16 579.808 1401.04 L579.808 1396.88 Q582.47 1396.14 584.785 1395.77 Q587.123 1395.4 589.183 1395.4 Q594.507 1395.4 597.609 1397.83 Q600.711 1400.23 600.711 1404.35 Q600.711 1407.22 599.067 1409.22 Q597.424 1411.18 594.392 1411.95 Z" fill="#000000" fill-rule="nonzero" fill-opacity="1" /></svg>
