<?xml version="1.0" encoding="utf-8"?>
<svg xmlns="http://www.w3.org/2000/svg" xmlns:xlink="http://www.w3.org/1999/xlink" width="600" height="400" viewBox="0 0 2400 1600">
<defs>
  <clipPath id="clip940">
    <rect x="0" y="0" width="2400" height="1600"/>
  </clipPath>
</defs>
<path clip-path="url(#clip940)" d="M0 1600 L2400 1600 L2400 0 L0 0  Z" fill="#ffffff" fill-rule="evenodd" fill-opacity="1"/>
<defs>
  <clipPath id="clip941">
    <rect x="480" y="0" width="1681" height="1600"/>
  </clipPath>
</defs>
<path clip-path="url(#clip940)" d="M144.92 1434.61 L2352.76 1434.61 L2352.76 47.2441 L144.92 47.2441  Z" fill="#ffffff" fill-rule="evenodd" fill-opacity="1"/>
<defs>
  <clipPath id="clip942">
    <rect x="144" y="47" width="2209" height="1388"/>
  </clipPath>
</defs>
<polyline clip-path="url(#clip942)" style="stroke:#000000; stroke-linecap:round; stroke-linejoin:round; stroke-width:2; stroke-opacity:0.1; fill:none" points="207.406,1434.61 207.406,47.2441 "/>
<polyline clip-path="url(#clip942)" style="stroke:#000000; stroke-linecap:round; stroke-linejoin:round; stroke-width:2; stroke-opacity:0.1; fill:none" points="2290.27,1434.61 2290.27,47.2441 "/>
<polyline clip-path="url(#clip942)" style="stroke:#000000; stroke-linecap:round; stroke-linejoin:round; stroke-width:2; stroke-opacity:0.1; fill:none" points="144.92,1395.34 2352.76,1395.34 "/>
<polyline clip-path="url(#clip942)" style="stroke:#000000; stroke-linecap:round; stroke-linejoin:round; stroke-width:2; stroke-opacity:0.1; fill:none" points="144.92,86.5091 2352.76,86.5091 "/>
<polyline clip-path="url(#clip940)" style="stroke:#000000; stroke-linecap:round; stroke-linejoin:round; stroke-width:4; stroke-opacity:1; fill:none" points="144.92,1434.61 2352.76,1434.61 "/>
<polyline clip-path="url(#clip940)" style="stroke:#000000; stroke-linecap:round; stroke-linejoin:round; stroke-width:4; stroke-opacity:1; fill:none" points="207.406,1434.61 207.406,1415.71 "/>
<polyline clip-path="url(#clip940)" style="stroke:#000000; stroke-linecap:round; stroke-linejoin:round; stroke-width:4; stroke-opacity:1; fill:none" points="2290.27,1434.61 2290.27,1415.71 "/>
<path clip-path="url(#clip940)" d="M213.54 1529.23 Q200.635 1529.23 195.658 1532.18 Q190.682 1535.13 190.682 1542.25 Q190.682 1547.92 194.385 1551.28 Q198.147 1554.57 204.57 1554.57 Q213.424 1554.57 218.749 1548.32 Q224.13 1542.02 224.13 1531.6 L224.13 1529.23 L213.54 1529.23 M234.779 1524.83 L234.779 1561.81 L224.13 1561.81 L224.13 1551.97 Q220.485 1557.87 215.045 1560.71 Q209.605 1563.49 201.735 1563.49 Q191.781 1563.49 185.878 1557.93 Q180.033 1552.32 180.033 1542.94 Q180.033 1532 187.325 1526.45 Q194.675 1520.89 209.2 1520.89 L224.13 1520.89 L224.13 1519.85 Q224.13 1512.5 219.269 1508.51 Q214.466 1504.46 205.728 1504.46 Q200.172 1504.46 194.906 1505.79 Q189.64 1507.12 184.779 1509.78 L184.779 1499.94 Q190.624 1497.69 196.121 1496.59 Q201.619 1495.43 206.827 1495.43 Q220.89 1495.43 227.834 1502.72 Q234.779 1510.01 234.779 1524.83 Z" fill="#000000" fill-rule="nonzero" fill-opacity="1" /><path clip-path="url(#clip940)" d="M2308.21 1529.46 Q2308.21 1517.71 2303.35 1511.06 Q2298.55 1504.34 2290.1 1504.34 Q2281.65 1504.34 2276.79 1511.06 Q2271.98 1517.71 2271.98 1529.46 Q2271.98 1541.21 2276.79 1547.92 Q2281.65 1554.57 2290.1 1554.57 Q2298.55 1554.57 2303.35 1547.92 Q2308.21 1541.21 2308.21 1529.46 M2271.98 1506.83 Q2275.34 1501.04 2280.43 1498.27 Q2285.58 1495.43 2292.7 1495.43 Q2304.51 1495.43 2311.86 1504.81 Q2319.26 1514.18 2319.26 1529.46 Q2319.26 1544.74 2311.86 1554.11 Q2304.51 1563.49 2292.7 1563.49 Q2285.58 1563.49 2280.43 1560.71 Q2275.34 1557.87 2271.98 1552.09 L2271.98 1561.81 L2261.28 1561.81 L2261.28 1471.76 L2271.98 1471.76 L2271.98 1506.83 Z" fill="#000000" fill-rule="nonzero" fill-opacity="1" /><polyline clip-path="url(#clip940)" style="stroke:#000000; stroke-linecap:round; stroke-linejoin:round; stroke-width:4; stroke-opacity:1; fill:none" points="144.92,1434.61 144.92,47.2441 "/>
<polyline clip-path="url(#clip940)" style="stroke:#000000; stroke-linecap:round; stroke-linejoin:round; stroke-width:4; stroke-opacity:1; fill:none" points="144.92,1395.34 163.818,1395.34 "/>
<polyline clip-path="url(#clip940)" style="stroke:#000000; stroke-linecap:round; stroke-linejoin:round; stroke-width:4; stroke-opacity:1; fill:none" points="144.92,86.5091 163.818,86.5091 "/>
<path clip-path="url(#clip940)" d="M61.9874 1406.19 Q61.9874 1417.94 66.7907 1424.65 Q71.6517 1431.31 80.1008 1431.31 Q88.5498 1431.31 93.4109 1424.65 Q98.272 1417.94 98.272 1406.19 Q98.272 1394.45 93.4109 1387.79 Q88.5498 1381.08 80.1008 1381.08 Q71.6517 1381.08 66.7907 1387.79 Q61.9874 1394.45 61.9874 1406.19 M98.272 1428.82 Q94.9155 1434.61 89.7651 1437.44 Q84.6725 1440.22 77.4966 1440.22 Q65.749 1440.22 58.3416 1430.85 Q50.9921 1421.47 50.9921 1406.19 Q50.9921 1390.92 58.3416 1381.54 Q65.749 1372.17 77.4966 1372.17 Q84.6725 1372.17 89.7651 1375 Q94.9155 1377.78 98.272 1383.57 L98.272 1373.73 L108.92 1373.73 L108.92 1463.2 L98.272 1463.2 L98.272 1428.82 Z" fill="#000000" fill-rule="nonzero" fill-opacity="1" /><path clip-path="url(#clip940)" d="M108.92 74.8483 Q107.126 73.8066 104.985 73.3437 Q102.902 72.8228 100.355 72.8228 Q91.3276 72.8228 86.4665 78.7256 Q81.6633 84.5705 81.6633 95.5658 L81.6633 129.709 L70.9573 129.709 L70.9573 64.8946 L81.6633 64.8946 L81.6633 74.964 Q85.0197 69.0613 90.4016 66.2257 Q95.7836 63.3321 103.48 63.3321 Q104.58 63.3321 105.911 63.5058 Q107.242 63.6215 108.862 63.9108 L108.92 74.8483 Z" fill="#000000" fill-rule="nonzero" fill-opacity="1" /><circle clip-path="url(#clip942)" cx="207.406" cy="1395.34" r="28.8" fill="#009af9" fill-rule="evenodd" fill-opacity="1" stroke="#000000" stroke-opacity="1" stroke-width="3.2"/>
<circle clip-path="url(#clip942)" cx="2290.27" cy="86.5091" r="28.8" fill="#009af9" fill-rule="evenodd" fill-opacity="1" stroke="#000000" stroke-opacity="1" stroke-width="3.2"/>
<path clip-path="url(#clip940)" d="M291.173 264.257 Q258.91 264.257 246.468 271.635 Q234.026 279.014 234.026 296.809 Q234.026 310.987 243.285 319.378 Q252.689 327.625 268.748 327.625 Q290.884 327.625 304.194 312 Q317.648 296.23 317.648 270.189 L317.648 264.257 L291.173 264.257 M344.269 253.262 L344.269 345.709 L317.648 345.709 L317.648 321.114 Q308.534 335.871 294.934 342.96 Q281.335 349.905 261.659 349.905 Q236.775 349.905 222.018 336.016 Q207.406 321.982 207.406 298.545 Q207.406 271.201 225.635 257.313 Q244.009 243.424 280.322 243.424 L317.648 243.424 L317.648 240.82 Q317.648 222.446 305.496 212.463 Q293.488 202.336 271.642 202.336 Q257.753 202.336 244.587 205.664 Q231.422 208.991 219.269 215.646 L219.269 191.051 Q233.882 185.409 247.626 182.66 Q261.37 179.767 274.391 179.767 Q309.547 179.767 326.908 197.996 Q344.269 216.225 344.269 253.262 Z" fill="#000000" fill-rule="nonzero" fill-opacity="1" /><path clip-path="url(#clip940)" d="M492.995 208.557 Q488.51 205.953 483.157 204.796 Q477.949 203.493 471.583 203.493 Q449.013 203.493 436.861 218.25 Q424.853 232.862 424.853 260.351 L424.853 345.709 L398.088 345.709 L398.088 183.673 L424.853 183.673 L424.853 208.846 Q433.244 194.09 446.699 187 Q460.153 179.767 479.395 179.767 Q482.144 179.767 485.472 180.201 Q488.799 180.49 492.85 181.213 L492.995 208.557 Z" fill="#000000" fill-rule="nonzero" fill-opacity="1" /><path clip-path="url(#clip940)" d="M2208.27 1337.07 Q2208.27 1325.33 2203.41 1318.67 Q2198.6 1311.96 2190.15 1311.96 Q2181.71 1311.96 2176.84 1318.67 Q2172.04 1325.33 2172.04 1337.07 Q2172.04 1348.82 2176.84 1355.53 Q2181.71 1362.19 2190.15 1362.19 Q2198.6 1362.19 2203.41 1355.53 Q2208.27 1348.82 2208.27 1337.07 M2172.04 1314.45 Q2175.4 1308.66 2180.49 1305.88 Q2185.64 1303.05 2192.76 1303.05 Q2204.56 1303.05 2211.91 1312.42 Q2219.32 1321.8 2219.32 1337.07 Q2219.32 1352.35 2211.91 1361.73 Q2204.56 1371.1 2192.76 1371.1 Q2185.64 1371.1 2180.49 1368.32 Q2175.4 1365.49 2172.04 1359.7 L2172.04 1369.42 L2161.34 1369.42 L2161.34 1279.38 L2172.04 1279.38 L2172.04 1314.45 Z" fill="#000000" fill-rule="nonzero" fill-opacity="1" /><path clip-path="url(#clip940)" d="M2243.34 1337.07 Q2243.34 1348.82 2248.14 1355.53 Q2253 1362.19 2261.45 1362.19 Q2269.9 1362.19 2274.76 1355.53 Q2279.62 1348.82 2279.62 1337.07 Q2279.62 1325.33 2274.76 1318.67 Q2269.9 1311.96 2261.45 1311.96 Q2253 1311.96 2248.14 1318.67 Q2243.34 1325.33 2243.34 1337.07 M2279.62 1359.7 Q2276.27 1365.49 2271.11 1368.32 Q2266.02 1371.1 2258.85 1371.1 Q2247.1 1371.1 2239.69 1361.73 Q2232.34 1352.35 2232.34 1337.07 Q2232.34 1321.8 2239.69 1312.42 Q2247.1 1303.05 2258.85 1303.05 Q2266.02 1303.05 2271.11 1305.88 Q2276.27 1308.66 2279.62 1314.45 L2279.62 1304.61 L2290.27 1304.61 L2290.27 1394.08 L2279.62 1394.08 L2279.62 1359.7 Z" fill="#000000" fill-rule="nonzero" fill-opacity="1" /></svg>
