<?xml version="1.0" encoding="utf-8"?>
<svg xmlns="http://www.w3.org/2000/svg" xmlns:xlink="http://www.w3.org/1999/xlink" width="600" height="400" viewBox="0 0 2400 1600">
<defs>
  <clipPath id="clip670">
    <rect x="0" y="0" width="2400" height="1600"/>
  </clipPath>
</defs>
<path clip-path="url(#clip670)" d="M0 1600 L2400 1600 L2400 0 L0 0  Z" fill="#ffffff" fill-rule="evenodd" fill-opacity="1"/>
<defs>
  <clipPath id="clip671">
    <rect x="228" y="47" width="1899" height="1328"/>
  </clipPath>
</defs>
<path clip-path="url(#clip670)" d="M228.881 1374.14 L2126.7 1374.14 L2126.7 47.2441 L228.881 47.2441  Z" fill="#ffffff" fill-rule="evenodd" fill-opacity="1"/>
<polyline clip-path="url(#clip671)" style="stroke:#000000; stroke-linecap:round; stroke-linejoin:round; stroke-width:2; stroke-opacity:0.1; fill:none" points="282.593,1374.14 282.593,47.2441 "/>
<polyline clip-path="url(#clip671)" style="stroke:#000000; stroke-linecap:round; stroke-linejoin:round; stroke-width:2; stroke-opacity:0.1; fill:none" points="730.191,1374.14 730.191,47.2441 "/>
<polyline clip-path="url(#clip671)" style="stroke:#000000; stroke-linecap:round; stroke-linejoin:round; stroke-width:2; stroke-opacity:0.1; fill:none" points="1177.79,1374.14 1177.79,47.2441 "/>
<polyline clip-path="url(#clip671)" style="stroke:#000000; stroke-linecap:round; stroke-linejoin:round; stroke-width:2; stroke-opacity:0.1; fill:none" points="1625.39,1374.14 1625.39,47.2441 "/>
<polyline clip-path="url(#clip671)" style="stroke:#000000; stroke-linecap:round; stroke-linejoin:round; stroke-width:2; stroke-opacity:0.1; fill:none" points="2072.99,1374.14 2072.99,47.2441 "/>
<polyline clip-path="url(#clip670)" style="stroke:#000000; stroke-linecap:round; stroke-linejoin:round; stroke-width:4; stroke-opacity:1; fill:none" points="228.881,1374.14 2126.7,1374.14 "/>
<polyline clip-path="url(#clip670)" style="stroke:#000000; stroke-linecap:round; stroke-linejoin:round; stroke-width:4; stroke-opacity:1; fill:none" points="282.593,1374.14 282.593,1355.24 "/>
<polyline clip-path="url(#clip670)" style="stroke:#000000; stroke-linecap:round; stroke-linejoin:round; stroke-width:4; stroke-opacity:1; fill:none" points="730.191,1374.14 730.191,1355.24 "/>
<polyline clip-path="url(#clip670)" style="stroke:#000000; stroke-linecap:round; stroke-linejoin:round; stroke-width:4; stroke-opacity:1; fill:none" points="1177.79,1374.14 1177.79,1355.24 "/>
<polyline clip-path="url(#clip670)" style="stroke:#000000; stroke-linecap:round; stroke-linejoin:round; stroke-width:4; stroke-opacity:1; fill:none" points="1625.39,1374.14 1625.39,1355.24 "/>
<polyline clip-path="url(#clip670)" style="stroke:#000000; stroke-linecap:round; stroke-linejoin:round; stroke-width:4; stroke-opacity:1; fill:none" points="2072.99,1374.14 2072.99,1355.24 "/>
<path clip-path="url(#clip670)" d="M259.977 1405.06 Q256.366 1405.06 254.537 1408.62 Q252.732 1412.16 252.732 1419.29 Q252.732 1426.4 254.537 1429.97 Q256.366 1433.51 259.977 1433.51 Q263.611 1433.51 265.417 1429.97 Q267.246 1426.4 267.246 1419.29 Q267.246 1412.16 265.417 1408.62 Q263.611 1405.06 259.977 1405.06 M259.977 1401.35 Q265.787 1401.35 268.843 1405.96 Q271.922 1410.54 271.922 1419.29 Q271.922 1428.02 268.843 1432.63 Q265.787 1437.21 259.977 1437.21 Q254.167 1437.21 251.088 1432.63 Q248.033 1428.02 248.033 1419.29 Q248.033 1410.54 251.088 1405.96 Q254.167 1401.35 259.977 1401.35 Z" fill="#000000" fill-rule="nonzero" fill-opacity="1" /><path clip-path="url(#clip670)" d="M280.139 1430.66 L285.023 1430.66 L285.023 1436.54 L280.139 1436.54 L280.139 1430.66 Z" fill="#000000" fill-rule="nonzero" fill-opacity="1" /><path clip-path="url(#clip670)" d="M305.208 1405.06 Q301.597 1405.06 299.769 1408.62 Q297.963 1412.16 297.963 1419.29 Q297.963 1426.4 299.769 1429.97 Q301.597 1433.51 305.208 1433.51 Q308.843 1433.51 310.648 1429.97 Q312.477 1426.4 312.477 1419.29 Q312.477 1412.16 310.648 1408.62 Q308.843 1405.06 305.208 1405.06 M305.208 1401.35 Q311.019 1401.35 314.074 1405.96 Q317.153 1410.54 317.153 1419.29 Q317.153 1428.02 314.074 1432.63 Q311.019 1437.21 305.208 1437.21 Q299.398 1437.21 296.32 1432.63 Q293.264 1428.02 293.264 1419.29 Q293.264 1410.54 296.32 1405.96 Q299.398 1401.35 305.208 1401.35 Z" fill="#000000" fill-rule="nonzero" fill-opacity="1" /><path clip-path="url(#clip670)" d="M701.927 1432.6 L718.247 1432.6 L718.247 1436.54 L696.302 1436.54 L696.302 1432.6 Q698.964 1429.85 703.548 1425.22 Q708.154 1420.57 709.335 1419.23 Q711.58 1416.7 712.46 1414.97 Q713.363 1413.21 713.363 1411.52 Q713.363 1408.76 711.418 1407.03 Q709.497 1405.29 706.395 1405.29 Q704.196 1405.29 701.742 1406.05 Q699.312 1406.82 696.534 1408.37 L696.534 1403.65 Q699.358 1402.51 701.812 1401.93 Q704.265 1401.35 706.302 1401.35 Q711.673 1401.35 714.867 1404.04 Q718.062 1406.73 718.062 1411.22 Q718.062 1413.35 717.251 1415.27 Q716.464 1417.16 714.358 1419.76 Q713.779 1420.43 710.677 1423.65 Q707.576 1426.84 701.927 1432.6 Z" fill="#000000" fill-rule="nonzero" fill-opacity="1" /><path clip-path="url(#clip670)" d="M728.062 1430.66 L732.946 1430.66 L732.946 1436.54 L728.062 1436.54 L728.062 1430.66 Z" fill="#000000" fill-rule="nonzero" fill-opacity="1" /><path clip-path="url(#clip670)" d="M743.177 1401.98 L761.534 1401.98 L761.534 1405.92 L747.46 1405.92 L747.46 1414.39 Q748.478 1414.04 749.497 1413.88 Q750.515 1413.69 751.534 1413.69 Q757.321 1413.69 760.7 1416.86 Q764.08 1420.04 764.08 1425.45 Q764.08 1431.03 760.608 1434.13 Q757.135 1437.21 750.816 1437.21 Q748.64 1437.21 746.372 1436.84 Q744.126 1436.47 741.719 1435.73 L741.719 1431.03 Q743.802 1432.16 746.024 1432.72 Q748.247 1433.28 750.723 1433.28 Q754.728 1433.28 757.066 1431.17 Q759.404 1429.06 759.404 1425.45 Q759.404 1421.84 757.066 1419.73 Q754.728 1417.63 750.723 1417.63 Q748.848 1417.63 746.973 1418.04 Q745.122 1418.46 743.177 1419.34 L743.177 1401.98 Z" fill="#000000" fill-rule="nonzero" fill-opacity="1" /><path clip-path="url(#clip670)" d="M1144.95 1401.98 L1163.31 1401.98 L1163.31 1405.92 L1149.24 1405.92 L1149.24 1414.39 Q1150.25 1414.04 1151.27 1413.88 Q1152.29 1413.69 1153.31 1413.69 Q1159.1 1413.69 1162.48 1416.86 Q1165.86 1420.04 1165.86 1425.45 Q1165.86 1431.03 1162.38 1434.13 Q1158.91 1437.21 1152.59 1437.21 Q1150.42 1437.21 1148.15 1436.84 Q1145.9 1436.47 1143.5 1435.73 L1143.5 1431.03 Q1145.58 1432.16 1147.8 1432.72 Q1150.02 1433.28 1152.5 1433.28 Q1156.5 1433.28 1158.84 1431.17 Q1161.18 1429.06 1161.18 1425.45 Q1161.18 1421.84 1158.84 1419.73 Q1156.5 1417.63 1152.5 1417.63 Q1150.63 1417.63 1148.75 1418.04 Q1146.9 1418.46 1144.95 1419.34 L1144.95 1401.98 Z" fill="#000000" fill-rule="nonzero" fill-opacity="1" /><path clip-path="url(#clip670)" d="M1175.07 1430.66 L1179.95 1430.66 L1179.95 1436.54 L1175.07 1436.54 L1175.07 1430.66 Z" fill="#000000" fill-rule="nonzero" fill-opacity="1" /><path clip-path="url(#clip670)" d="M1200.14 1405.06 Q1196.53 1405.06 1194.7 1408.62 Q1192.89 1412.16 1192.89 1419.29 Q1192.89 1426.4 1194.7 1429.97 Q1196.53 1433.51 1200.14 1433.51 Q1203.77 1433.51 1205.58 1429.97 Q1207.41 1426.4 1207.41 1419.29 Q1207.41 1412.16 1205.58 1408.62 Q1203.77 1405.06 1200.14 1405.06 M1200.14 1401.35 Q1205.95 1401.35 1209 1405.96 Q1212.08 1410.54 1212.08 1419.29 Q1212.08 1428.02 1209 1432.63 Q1205.95 1437.21 1200.14 1437.21 Q1194.33 1437.21 1191.25 1432.63 Q1188.19 1428.02 1188.19 1419.29 Q1188.19 1410.54 1191.25 1405.96 Q1194.33 1401.35 1200.14 1401.35 Z" fill="#000000" fill-rule="nonzero" fill-opacity="1" /><path clip-path="url(#clip670)" d="M1591.71 1401.98 L1613.93 1401.98 L1613.93 1403.97 L1601.38 1436.54 L1596.5 1436.54 L1608.3 1405.92 L1591.71 1405.92 L1591.71 1401.98 Z" fill="#000000" fill-rule="nonzero" fill-opacity="1" /><path clip-path="url(#clip670)" d="M1623.05 1430.66 L1627.93 1430.66 L1627.93 1436.54 L1623.05 1436.54 L1623.05 1430.66 Z" fill="#000000" fill-rule="nonzero" fill-opacity="1" /><path clip-path="url(#clip670)" d="M1638.17 1401.98 L1656.52 1401.98 L1656.52 1405.92 L1642.45 1405.92 L1642.45 1414.39 Q1643.47 1414.04 1644.48 1413.88 Q1645.5 1413.69 1646.52 1413.69 Q1652.31 1413.69 1655.69 1416.86 Q1659.07 1420.04 1659.07 1425.45 Q1659.07 1431.03 1655.6 1434.13 Q1652.12 1437.21 1645.8 1437.21 Q1643.63 1437.21 1641.36 1436.84 Q1639.11 1436.47 1636.71 1435.73 L1636.71 1431.03 Q1638.79 1432.16 1641.01 1432.72 Q1643.23 1433.28 1645.71 1433.28 Q1649.72 1433.28 1652.05 1431.17 Q1654.39 1429.06 1654.39 1425.45 Q1654.39 1421.84 1652.05 1419.73 Q1649.72 1417.63 1645.71 1417.63 Q1643.84 1417.63 1641.96 1418.04 Q1640.11 1418.46 1638.17 1419.34 L1638.17 1401.98 Z" fill="#000000" fill-rule="nonzero" fill-opacity="1" /><path clip-path="url(#clip670)" d="M2025.06 1432.6 L2032.7 1432.6 L2032.7 1406.24 L2024.39 1407.91 L2024.39 1403.65 L2032.65 1401.98 L2037.33 1401.98 L2037.33 1432.6 L2044.97 1432.6 L2044.97 1436.54 L2025.06 1436.54 L2025.06 1432.6 Z" fill="#000000" fill-rule="nonzero" fill-opacity="1" /><path clip-path="url(#clip670)" d="M2064.41 1405.06 Q2060.8 1405.06 2058.97 1408.62 Q2057.16 1412.16 2057.16 1419.29 Q2057.16 1426.4 2058.97 1429.97 Q2060.8 1433.51 2064.41 1433.51 Q2068.04 1433.51 2069.85 1429.97 Q2071.68 1426.4 2071.68 1419.29 Q2071.68 1412.16 2069.85 1408.62 Q2068.04 1405.06 2064.41 1405.06 M2064.41 1401.35 Q2070.22 1401.35 2073.28 1405.96 Q2076.35 1410.54 2076.35 1419.29 Q2076.35 1428.02 2073.28 1432.63 Q2070.22 1437.21 2064.41 1437.21 Q2058.6 1437.21 2055.52 1432.63 Q2052.47 1428.02 2052.47 1419.29 Q2052.47 1410.54 2055.52 1405.96 Q2058.6 1401.35 2064.41 1401.35 Z" fill="#000000" fill-rule="nonzero" fill-opacity="1" /><path clip-path="url(#clip670)" d="M2084.57 1430.66 L2089.46 1430.66 L2089.46 1436.54 L2084.57 1436.54 L2084.57 1430.66 Z" fill="#000000" fill-rule="nonzero" fill-opacity="1" /><path clip-path="url(#clip670)" d="M2109.64 1405.06 Q2106.03 1405.06 2104.2 1408.62 Q2102.4 1412.16 2102.4 1419.29 Q2102.4 1426.4 2104.2 1429.97 Q2106.03 1433.51 2109.64 1433.51 Q2113.28 1433.51 2115.08 1429.97 Q2116.91 1426.4 2116.91 1419.29 Q2116.91 1412.16 2115.08 1408.62 Q2113.28 1405.06 2109.64 1405.06 M2109.64 1401.35 Q2115.45 1401.35 2118.51 1405.96 Q2121.59 1410.54 2121.59 1419.29 Q2121.59 1428.02 2118.51 1432.63 Q2115.45 1437.21 2109.64 1437.21 Q2103.83 1437.21 2100.75 1432.63 Q2097.7 1428.02 2097.7 1419.29 Q2097.7 1410.54 2100.75 1405.96 Q2103.83 1401.35 2109.64 1401.35 Z" fill="#000000" fill-rule="nonzero" fill-opacity="1" /><path clip-path="url(#clip670)" d="M1189.5 1484.41 L1189.5 1489.94 Q1187.02 1488.67 1184.35 1488.03 Q1181.67 1487.4 1178.81 1487.4 Q1174.45 1487.4 1172.25 1488.73 Q1170.09 1490.07 1170.09 1492.75 Q1170.09 1494.78 1171.65 1495.96 Q1173.21 1497.11 1177.92 1498.16 L1179.92 1498.6 Q1186.16 1499.94 1188.77 1502.39 Q1191.41 1504.81 1191.41 1509.17 Q1191.41 1514.13 1187.47 1517.03 Q1183.55 1519.93 1176.68 1519.93 Q1173.81 1519.93 1170.69 1519.35 Q1167.6 1518.81 1164.17 1517.7 L1164.17 1511.65 Q1167.41 1513.34 1170.56 1514.2 Q1173.72 1515.03 1176.8 1515.03 Q1180.94 1515.03 1183.17 1513.62 Q1185.4 1512.19 1185.4 1509.61 Q1185.4 1507.23 1183.77 1505.95 Q1182.18 1504.68 1176.74 1503.5 L1174.7 1503.03 Q1169.26 1501.88 1166.84 1499.52 Q1164.42 1497.14 1164.42 1493 Q1164.42 1487.97 1167.99 1485.23 Q1171.55 1482.5 1178.11 1482.5 Q1181.35 1482.5 1184.22 1482.97 Q1187.08 1483.45 1189.5 1484.41 Z" fill="#000000" fill-rule="nonzero" fill-opacity="1" /><polyline clip-path="url(#clip670)" style="stroke:#000000; stroke-linecap:round; stroke-linejoin:round; stroke-width:4; stroke-opacity:1; fill:none" points="228.881,1374.14 228.881,47.2441 "/>
<polyline clip-path="url(#clip670)" style="stroke:#000000; stroke-linecap:round; stroke-linejoin:round; stroke-width:4; stroke-opacity:1; fill:none" points="228.881,1361.62 247.779,1361.62 "/>
<polyline clip-path="url(#clip670)" style="stroke:#000000; stroke-linecap:round; stroke-linejoin:round; stroke-width:4; stroke-opacity:1; fill:none" points="228.881,1111.26 247.779,1111.26 "/>
<polyline clip-path="url(#clip670)" style="stroke:#000000; stroke-linecap:round; stroke-linejoin:round; stroke-width:4; stroke-opacity:1; fill:none" points="228.881,860.907 247.779,860.907 "/>
<polyline clip-path="url(#clip670)" style="stroke:#000000; stroke-linecap:round; stroke-linejoin:round; stroke-width:4; stroke-opacity:1; fill:none" points="228.881,610.549 247.779,610.549 "/>
<polyline clip-path="url(#clip670)" style="stroke:#000000; stroke-linecap:round; stroke-linejoin:round; stroke-width:4; stroke-opacity:1; fill:none" points="228.881,360.191 247.779,360.191 "/>
<polyline clip-path="url(#clip670)" style="stroke:#000000; stroke-linecap:round; stroke-linejoin:round; stroke-width:4; stroke-opacity:1; fill:none" points="228.881,109.834 247.779,109.834 "/>
<path clip-path="url(#clip670)" d="M180.937 1347.42 Q177.326 1347.42 175.497 1350.99 Q173.691 1354.53 173.691 1361.66 Q173.691 1368.76 175.497 1372.33 Q177.326 1375.87 180.937 1375.87 Q184.571 1375.87 186.376 1372.33 Q188.205 1368.76 188.205 1361.66 Q188.205 1354.53 186.376 1350.99 Q184.571 1347.42 180.937 1347.42 M180.937 1343.72 Q186.747 1343.72 189.802 1348.32 Q192.881 1352.91 192.881 1361.66 Q192.881 1370.38 189.802 1374.99 Q186.747 1379.57 180.937 1379.57 Q175.126 1379.57 172.048 1374.99 Q168.992 1370.38 168.992 1361.66 Q168.992 1352.91 172.048 1348.32 Q175.126 1343.72 180.937 1343.72 Z" fill="#000000" fill-rule="nonzero" fill-opacity="1" /><path clip-path="url(#clip670)" d="M141.585 1124.61 L149.224 1124.61 L149.224 1098.24 L140.914 1099.91 L140.914 1095.65 L149.178 1093.98 L153.853 1093.98 L153.853 1124.61 L161.492 1124.61 L161.492 1128.54 L141.585 1128.54 L141.585 1124.61 Z" fill="#000000" fill-rule="nonzero" fill-opacity="1" /><path clip-path="url(#clip670)" d="M180.937 1097.06 Q177.326 1097.06 175.497 1100.63 Q173.691 1104.17 173.691 1111.3 Q173.691 1118.41 175.497 1121.97 Q177.326 1125.51 180.937 1125.51 Q184.571 1125.51 186.376 1121.97 Q188.205 1118.41 188.205 1111.3 Q188.205 1104.17 186.376 1100.63 Q184.571 1097.06 180.937 1097.06 M180.937 1093.36 Q186.747 1093.36 189.802 1097.97 Q192.881 1102.55 192.881 1111.3 Q192.881 1120.03 189.802 1124.63 Q186.747 1129.22 180.937 1129.22 Q175.126 1129.22 172.048 1124.63 Q168.992 1120.03 168.992 1111.3 Q168.992 1102.55 172.048 1097.97 Q175.126 1093.36 180.937 1093.36 Z" fill="#000000" fill-rule="nonzero" fill-opacity="1" /><path clip-path="url(#clip670)" d="M144.803 874.251 L161.122 874.251 L161.122 878.187 L139.178 878.187 L139.178 874.251 Q141.84 871.497 146.423 866.867 Q151.029 862.214 152.21 860.872 Q154.455 858.349 155.335 856.613 Q156.238 854.853 156.238 853.164 Q156.238 850.409 154.293 848.673 Q152.372 846.937 149.27 846.937 Q147.071 846.937 144.617 847.701 Q142.187 848.465 139.409 850.015 L139.409 845.293 Q142.233 844.159 144.687 843.58 Q147.14 843.002 149.178 843.002 Q154.548 843.002 157.742 845.687 Q160.937 848.372 160.937 852.863 Q160.937 854.992 160.127 856.914 Q159.339 858.812 157.233 861.404 Q156.654 862.076 153.552 865.293 Q150.451 868.488 144.803 874.251 Z" fill="#000000" fill-rule="nonzero" fill-opacity="1" /><path clip-path="url(#clip670)" d="M180.937 846.705 Q177.326 846.705 175.497 850.27 Q173.691 853.812 173.691 860.941 Q173.691 868.048 175.497 871.613 Q177.326 875.154 180.937 875.154 Q184.571 875.154 186.376 871.613 Q188.205 868.048 188.205 860.941 Q188.205 853.812 186.376 850.27 Q184.571 846.705 180.937 846.705 M180.937 843.002 Q186.747 843.002 189.802 847.608 Q192.881 852.191 192.881 860.941 Q192.881 869.668 189.802 874.275 Q186.747 878.858 180.937 878.858 Q175.126 878.858 172.048 874.275 Q168.992 869.668 168.992 860.941 Q168.992 852.191 172.048 847.608 Q175.126 843.002 180.937 843.002 Z" fill="#000000" fill-rule="nonzero" fill-opacity="1" /><path clip-path="url(#clip670)" d="M154.941 609.195 Q158.298 609.912 160.173 612.181 Q162.071 614.449 162.071 617.783 Q162.071 622.898 158.552 625.699 Q155.034 628.5 148.553 628.5 Q146.377 628.5 144.062 628.06 Q141.77 627.644 139.316 626.787 L139.316 622.273 Q141.261 623.408 143.576 623.986 Q145.89 624.565 148.414 624.565 Q152.812 624.565 155.103 622.829 Q157.418 621.093 157.418 617.783 Q157.418 614.727 155.265 613.014 Q153.136 611.278 149.316 611.278 L145.289 611.278 L145.289 607.435 L149.502 607.435 Q152.951 607.435 154.779 606.07 Q156.608 604.681 156.608 602.088 Q156.608 599.426 154.71 598.014 Q152.835 596.579 149.316 596.579 Q147.395 596.579 145.196 596.996 Q142.997 597.412 140.358 598.292 L140.358 594.125 Q143.02 593.385 145.335 593.014 Q147.673 592.644 149.733 592.644 Q155.057 592.644 158.159 595.074 Q161.261 597.482 161.261 601.602 Q161.261 604.473 159.617 606.463 Q157.974 608.431 154.941 609.195 Z" fill="#000000" fill-rule="nonzero" fill-opacity="1" /><path clip-path="url(#clip670)" d="M180.937 596.348 Q177.326 596.348 175.497 599.912 Q173.691 603.454 173.691 610.584 Q173.691 617.69 175.497 621.255 Q177.326 624.797 180.937 624.797 Q184.571 624.797 186.376 621.255 Q188.205 617.69 188.205 610.584 Q188.205 603.454 186.376 599.912 Q184.571 596.348 180.937 596.348 M180.937 592.644 Q186.747 592.644 189.802 597.25 Q192.881 601.834 192.881 610.584 Q192.881 619.31 189.802 623.917 Q186.747 628.5 180.937 628.5 Q175.126 628.5 172.048 623.917 Q168.992 619.31 168.992 610.584 Q168.992 601.834 172.048 597.25 Q175.126 592.644 180.937 592.644 Z" fill="#000000" fill-rule="nonzero" fill-opacity="1" /><path clip-path="url(#clip670)" d="M153.622 346.985 L141.816 365.434 L153.622 365.434 L153.622 346.985 M152.395 342.911 L158.275 342.911 L158.275 365.434 L163.205 365.434 L163.205 369.323 L158.275 369.323 L158.275 377.471 L153.622 377.471 L153.622 369.323 L138.02 369.323 L138.02 364.809 L152.395 342.911 Z" fill="#000000" fill-rule="nonzero" fill-opacity="1" /><path clip-path="url(#clip670)" d="M180.937 345.99 Q177.326 345.99 175.497 349.555 Q173.691 353.096 173.691 360.226 Q173.691 367.332 175.497 370.897 Q177.326 374.439 180.937 374.439 Q184.571 374.439 186.376 370.897 Q188.205 367.332 188.205 360.226 Q188.205 353.096 186.376 349.555 Q184.571 345.99 180.937 345.99 M180.937 342.286 Q186.747 342.286 189.802 346.893 Q192.881 351.476 192.881 360.226 Q192.881 368.953 189.802 373.559 Q186.747 378.142 180.937 378.142 Q175.126 378.142 172.048 373.559 Q168.992 368.953 168.992 360.226 Q168.992 351.476 172.048 346.893 Q175.126 342.286 180.937 342.286 Z" fill="#000000" fill-rule="nonzero" fill-opacity="1" /><path clip-path="url(#clip670)" d="M140.821 92.5535 L159.177 92.5535 L159.177 96.4887 L145.103 96.4887 L145.103 104.961 Q146.122 104.614 147.14 104.452 Q148.159 104.266 149.178 104.266 Q154.965 104.266 158.344 107.438 Q161.724 110.609 161.724 116.026 Q161.724 121.604 158.252 124.706 Q154.779 127.785 148.46 127.785 Q146.284 127.785 144.015 127.414 Q141.77 127.044 139.363 126.303 L139.363 121.604 Q141.446 122.739 143.668 123.294 Q145.89 123.85 148.367 123.85 Q152.372 123.85 154.71 121.743 Q157.048 119.637 157.048 116.026 Q157.048 112.415 154.71 110.308 Q152.372 108.202 148.367 108.202 Q146.492 108.202 144.617 108.618 Q142.766 109.035 140.821 109.915 L140.821 92.5535 Z" fill="#000000" fill-rule="nonzero" fill-opacity="1" /><path clip-path="url(#clip670)" d="M180.937 95.6322 Q177.326 95.6322 175.497 99.197 Q173.691 102.739 173.691 109.868 Q173.691 116.975 175.497 120.539 Q177.326 124.081 180.937 124.081 Q184.571 124.081 186.376 120.539 Q188.205 116.975 188.205 109.868 Q188.205 102.739 186.376 99.197 Q184.571 95.6322 180.937 95.6322 M180.937 91.9285 Q186.747 91.9285 189.802 96.535 Q192.881 101.118 192.881 109.868 Q192.881 118.595 189.802 123.202 Q186.747 127.785 180.937 127.785 Q175.126 127.785 172.048 123.202 Q168.992 118.595 168.992 109.868 Q168.992 101.118 172.048 96.535 Q175.126 91.9285 180.937 91.9285 Z" fill="#000000" fill-rule="nonzero" fill-opacity="1" /><path clip-path="url(#clip670)" d="M58.9593 708.735 Q55.0126 706.538 53.1347 703.483 Q51.2568 700.427 51.2568 696.29 Q51.2568 690.72 55.1717 687.696 Q59.0548 684.672 66.2481 684.672 L87.7642 684.672 L87.7642 690.56 L66.439 690.56 Q61.3146 690.56 58.832 692.375 Q56.3494 694.189 56.3494 697.913 Q56.3494 702.464 59.3731 705.106 Q62.3968 707.748 67.6167 707.748 L87.7642 707.748 L87.7642 713.636 L66.439 713.636 Q61.2828 713.636 58.832 715.45 Q56.3494 717.265 56.3494 721.052 Q56.3494 725.54 59.4049 728.182 Q62.4286 730.824 67.6167 730.824 L87.7642 730.824 L87.7642 736.712 L52.1162 736.712 L52.1162 730.824 L57.6544 730.824 Q54.376 728.818 52.8164 726.017 Q51.2568 723.216 51.2568 719.365 Q51.2568 715.482 53.2302 712.777 Q55.2036 710.039 58.9593 708.735 Z" fill="#000000" fill-rule="nonzero" fill-opacity="1" /><polyline clip-path="url(#clip671)" style="stroke:#009af9; stroke-linecap:round; stroke-linejoin:round; stroke-width:4; stroke-opacity:1; fill:none" points="282.593,1336.59 372.112,1274 461.632,1211.41 551.152,1148.82 640.671,1086.23 730.191,1023.64 819.711,961.05 909.23,898.46 998.75,835.871 1088.27,773.281 1177.79,710.692 1267.31,648.103 1356.83,585.513 1446.35,522.924 1535.87,460.334 1625.39,397.745 1714.91,335.155 1804.43,272.566 1893.95,209.977 1983.47,147.387 2072.99,84.7977 "/>
<polyline clip-path="url(#clip670)" style="stroke:#000000; stroke-linecap:round; stroke-linejoin:round; stroke-width:4; stroke-opacity:1; fill:none" points="2126.7,1374.14 2126.7,47.2441 "/>
<polyline clip-path="url(#clip670)" style="stroke:#000000; stroke-linecap:round; stroke-linejoin:round; stroke-width:4; stroke-opacity:1; fill:none" points="2126.7,1361.62 2107.8,1361.62 "/>
<polyline clip-path="url(#clip670)" style="stroke:#000000; stroke-linecap:round; stroke-linejoin:round; stroke-width:4; stroke-opacity:1; fill:none" points="2126.7,1042.42 2107.8,1042.42 "/>
<polyline clip-path="url(#clip670)" style="stroke:#000000; stroke-linecap:round; stroke-linejoin:round; stroke-width:4; stroke-opacity:1; fill:none" points="2126.7,723.21 2107.8,723.21 "/>
<polyline clip-path="url(#clip670)" style="stroke:#000000; stroke-linecap:round; stroke-linejoin:round; stroke-width:4; stroke-opacity:1; fill:none" points="2126.7,404.004 2107.8,404.004 "/>
<polyline clip-path="url(#clip670)" style="stroke:#000000; stroke-linecap:round; stroke-linejoin:round; stroke-width:4; stroke-opacity:1; fill:none" points="2126.7,84.7977 2107.8,84.7977 "/>
<path clip-path="url(#clip670)" d="M2174.64 1347.42 Q2171.03 1347.42 2169.2 1350.99 Q2167.4 1354.53 2167.4 1361.66 Q2167.4 1368.76 2169.2 1372.33 Q2171.03 1375.87 2174.64 1375.87 Q2178.28 1375.87 2180.08 1372.33 Q2181.91 1368.76 2181.91 1361.66 Q2181.91 1354.53 2180.08 1350.99 Q2178.28 1347.42 2174.64 1347.42 M2174.64 1343.72 Q2180.45 1343.72 2183.51 1348.32 Q2186.59 1352.91 2186.59 1361.66 Q2186.59 1370.38 2183.51 1374.99 Q2180.45 1379.57 2174.64 1379.57 Q2168.83 1379.57 2165.75 1374.99 Q2162.7 1370.38 2162.7 1361.66 Q2162.7 1352.91 2165.75 1348.32 Q2168.83 1343.72 2174.64 1343.72 Z" fill="#000000" fill-rule="nonzero" fill-opacity="1" /><path clip-path="url(#clip670)" d="M2194.8 1373.02 L2199.69 1373.02 L2199.69 1378.9 L2194.8 1378.9 L2194.8 1373.02 Z" fill="#000000" fill-rule="nonzero" fill-opacity="1" /><path clip-path="url(#clip670)" d="M2219.87 1347.42 Q2216.26 1347.42 2214.43 1350.99 Q2212.63 1354.53 2212.63 1361.66 Q2212.63 1368.76 2214.43 1372.33 Q2216.26 1375.87 2219.87 1375.87 Q2223.51 1375.87 2225.31 1372.33 Q2227.14 1368.76 2227.14 1361.66 Q2227.14 1354.53 2225.31 1350.99 Q2223.51 1347.42 2219.87 1347.42 M2219.87 1343.72 Q2225.68 1343.72 2228.74 1348.32 Q2231.82 1352.91 2231.82 1361.66 Q2231.82 1370.38 2228.74 1374.99 Q2225.68 1379.57 2219.87 1379.57 Q2214.06 1379.57 2210.98 1374.99 Q2207.93 1370.38 2207.93 1361.66 Q2207.93 1352.91 2210.98 1348.32 Q2214.06 1343.72 2219.87 1343.72 Z" fill="#000000" fill-rule="nonzero" fill-opacity="1" /><path clip-path="url(#clip670)" d="M2250.04 1347.42 Q2246.42 1347.42 2244.6 1350.99 Q2242.79 1354.53 2242.79 1361.66 Q2242.79 1368.76 2244.6 1372.33 Q2246.42 1375.87 2250.04 1375.87 Q2253.67 1375.87 2255.48 1372.33 Q2257.3 1368.76 2257.3 1361.66 Q2257.3 1354.53 2255.48 1350.99 Q2253.67 1347.42 2250.04 1347.42 M2250.04 1343.72 Q2255.85 1343.72 2258.9 1348.32 Q2261.98 1352.91 2261.98 1361.66 Q2261.98 1370.38 2258.9 1374.99 Q2255.85 1379.57 2250.04 1379.57 Q2244.23 1379.57 2241.15 1374.99 Q2238.09 1370.38 2238.09 1361.66 Q2238.09 1352.91 2241.15 1348.32 Q2244.23 1343.72 2250.04 1343.72 Z" fill="#000000" fill-rule="nonzero" fill-opacity="1" /><path clip-path="url(#clip670)" d="M2174.64 1028.21 Q2171.03 1028.21 2169.2 1031.78 Q2167.4 1035.32 2167.4 1042.45 Q2167.4 1049.56 2169.2 1053.12 Q2171.03 1056.66 2174.64 1056.66 Q2178.28 1056.66 2180.08 1053.12 Q2181.91 1049.56 2181.91 1042.45 Q2181.91 1035.32 2180.08 1031.78 Q2178.28 1028.21 2174.64 1028.21 M2174.64 1024.51 Q2180.45 1024.51 2183.51 1029.12 Q2186.59 1033.7 2186.59 1042.45 Q2186.59 1051.18 2183.51 1055.78 Q2180.45 1060.37 2174.64 1060.37 Q2168.83 1060.37 2165.75 1055.78 Q2162.7 1051.18 2162.7 1042.45 Q2162.7 1033.7 2165.75 1029.12 Q2168.83 1024.51 2174.64 1024.51 Z" fill="#000000" fill-rule="nonzero" fill-opacity="1" /><path clip-path="url(#clip670)" d="M2194.8 1053.82 L2199.69 1053.82 L2199.69 1059.7 L2194.8 1059.7 L2194.8 1053.82 Z" fill="#000000" fill-rule="nonzero" fill-opacity="1" /><path clip-path="url(#clip670)" d="M2213.9 1055.76 L2230.22 1055.76 L2230.22 1059.7 L2208.28 1059.7 L2208.28 1055.76 Q2210.94 1053.01 2215.52 1048.38 Q2220.13 1043.72 2221.31 1042.38 Q2223.55 1039.86 2224.43 1038.12 Q2225.34 1036.36 2225.34 1034.67 Q2225.34 1031.92 2223.39 1030.18 Q2221.47 1028.45 2218.37 1028.45 Q2216.17 1028.45 2213.72 1029.21 Q2211.29 1029.97 2208.51 1031.52 L2208.51 1026.8 Q2211.33 1025.67 2213.79 1025.09 Q2216.24 1024.51 2218.28 1024.51 Q2223.65 1024.51 2226.84 1027.2 Q2230.04 1029.88 2230.04 1034.37 Q2230.04 1036.5 2229.23 1038.42 Q2228.44 1040.32 2226.33 1042.91 Q2225.75 1043.58 2222.65 1046.8 Q2219.55 1050 2213.9 1055.76 Z" fill="#000000" fill-rule="nonzero" fill-opacity="1" /><path clip-path="url(#clip670)" d="M2240.08 1025.14 L2258.44 1025.14 L2258.44 1029.07 L2244.36 1029.07 L2244.36 1037.54 Q2245.38 1037.2 2246.4 1037.03 Q2247.42 1036.85 2248.44 1036.85 Q2254.23 1036.85 2257.6 1040.02 Q2260.98 1043.19 2260.98 1048.61 Q2260.98 1054.19 2257.51 1057.29 Q2254.04 1060.37 2247.72 1060.37 Q2245.54 1060.37 2243.28 1060 Q2241.03 1059.63 2238.62 1058.89 L2238.62 1054.19 Q2240.71 1055.32 2242.93 1055.88 Q2245.15 1056.43 2247.63 1056.43 Q2251.63 1056.43 2253.97 1054.33 Q2256.31 1052.22 2256.31 1048.61 Q2256.31 1045 2253.97 1042.89 Q2251.63 1040.78 2247.63 1040.78 Q2245.75 1040.78 2243.88 1041.2 Q2242.03 1041.62 2240.08 1042.5 L2240.08 1025.14 Z" fill="#000000" fill-rule="nonzero" fill-opacity="1" /><path clip-path="url(#clip670)" d="M2174.64 709.009 Q2171.03 709.009 2169.2 712.573 Q2167.4 716.115 2167.4 723.245 Q2167.4 730.351 2169.2 733.916 Q2171.03 737.457 2174.64 737.457 Q2178.28 737.457 2180.08 733.916 Q2181.91 730.351 2181.91 723.245 Q2181.91 716.115 2180.08 712.573 Q2178.28 709.009 2174.64 709.009 M2174.64 705.305 Q2180.45 705.305 2183.51 709.911 Q2186.59 714.495 2186.59 723.245 Q2186.59 731.971 2183.51 736.578 Q2180.45 741.161 2174.64 741.161 Q2168.83 741.161 2165.75 736.578 Q2162.7 731.971 2162.7 723.245 Q2162.7 714.495 2165.75 709.911 Q2168.83 705.305 2174.64 705.305 Z" fill="#000000" fill-rule="nonzero" fill-opacity="1" /><path clip-path="url(#clip670)" d="M2194.8 734.61 L2199.69 734.61 L2199.69 740.49 L2194.8 740.49 L2194.8 734.61 Z" fill="#000000" fill-rule="nonzero" fill-opacity="1" /><path clip-path="url(#clip670)" d="M2209.92 705.93 L2228.28 705.93 L2228.28 709.865 L2214.2 709.865 L2214.2 718.337 Q2215.22 717.99 2216.24 717.828 Q2217.26 717.643 2218.28 717.643 Q2224.06 717.643 2227.44 720.814 Q2230.82 723.985 2230.82 729.402 Q2230.82 734.981 2227.35 738.082 Q2223.88 741.161 2217.56 741.161 Q2215.38 741.161 2213.11 740.791 Q2210.87 740.42 2208.46 739.68 L2208.46 734.981 Q2210.54 736.115 2212.77 736.67 Q2214.99 737.226 2217.47 737.226 Q2221.47 737.226 2223.81 735.12 Q2226.15 733.013 2226.15 729.402 Q2226.15 725.791 2223.81 723.684 Q2221.47 721.578 2217.47 721.578 Q2215.59 721.578 2213.72 721.995 Q2211.86 722.411 2209.92 723.291 L2209.92 705.93 Z" fill="#000000" fill-rule="nonzero" fill-opacity="1" /><path clip-path="url(#clip670)" d="M2250.04 709.009 Q2246.42 709.009 2244.6 712.573 Q2242.79 716.115 2242.79 723.245 Q2242.79 730.351 2244.6 733.916 Q2246.42 737.457 2250.04 737.457 Q2253.67 737.457 2255.48 733.916 Q2257.3 730.351 2257.3 723.245 Q2257.3 716.115 2255.48 712.573 Q2253.67 709.009 2250.04 709.009 M2250.04 705.305 Q2255.85 705.305 2258.9 709.911 Q2261.98 714.495 2261.98 723.245 Q2261.98 731.971 2258.9 736.578 Q2255.85 741.161 2250.04 741.161 Q2244.23 741.161 2241.15 736.578 Q2238.09 731.971 2238.09 723.245 Q2238.09 714.495 2241.15 709.911 Q2244.23 705.305 2250.04 705.305 Z" fill="#000000" fill-rule="nonzero" fill-opacity="1" /><path clip-path="url(#clip670)" d="M2174.64 389.802 Q2171.03 389.802 2169.2 393.367 Q2167.4 396.909 2167.4 404.039 Q2167.4 411.145 2169.2 414.71 Q2171.03 418.251 2174.64 418.251 Q2178.28 418.251 2180.08 414.71 Q2181.91 411.145 2181.91 404.039 Q2181.91 396.909 2180.08 393.367 Q2178.28 389.802 2174.64 389.802 M2174.64 386.099 Q2180.45 386.099 2183.51 390.705 Q2186.59 395.289 2186.59 404.039 Q2186.59 412.765 2183.51 417.372 Q2180.45 421.955 2174.64 421.955 Q2168.83 421.955 2165.75 417.372 Q2162.7 412.765 2162.7 404.039 Q2162.7 395.289 2165.75 390.705 Q2168.83 386.099 2174.64 386.099 Z" fill="#000000" fill-rule="nonzero" fill-opacity="1" /><path clip-path="url(#clip670)" d="M2194.8 415.404 L2199.69 415.404 L2199.69 421.284 L2194.8 421.284 L2194.8 415.404 Z" fill="#000000" fill-rule="nonzero" fill-opacity="1" /><path clip-path="url(#clip670)" d="M2208.69 386.724 L2230.92 386.724 L2230.92 388.715 L2218.37 421.284 L2213.48 421.284 L2225.29 390.659 L2208.69 390.659 L2208.69 386.724 Z" fill="#000000" fill-rule="nonzero" fill-opacity="1" /><path clip-path="url(#clip670)" d="M2240.08 386.724 L2258.44 386.724 L2258.44 390.659 L2244.36 390.659 L2244.36 399.131 Q2245.38 398.784 2246.4 398.622 Q2247.42 398.437 2248.44 398.437 Q2254.23 398.437 2257.6 401.608 Q2260.98 404.779 2260.98 410.196 Q2260.98 415.775 2257.51 418.876 Q2254.04 421.955 2247.72 421.955 Q2245.54 421.955 2243.28 421.585 Q2241.03 421.214 2238.62 420.474 L2238.62 415.775 Q2240.71 416.909 2242.93 417.464 Q2245.15 418.02 2247.63 418.02 Q2251.63 418.02 2253.97 415.913 Q2256.31 413.807 2256.31 410.196 Q2256.31 406.585 2253.97 404.478 Q2251.63 402.372 2247.63 402.372 Q2245.75 402.372 2243.88 402.789 Q2242.03 403.205 2240.08 404.085 L2240.08 386.724 Z" fill="#000000" fill-rule="nonzero" fill-opacity="1" /><path clip-path="url(#clip670)" d="M2163.37 98.1426 L2171.01 98.1426 L2171.01 71.777 L2162.7 73.4436 L2162.7 69.1844 L2170.96 67.5177 L2175.64 67.5177 L2175.64 98.1426 L2183.28 98.1426 L2183.28 102.078 L2163.37 102.078 L2163.37 98.1426 Z" fill="#000000" fill-rule="nonzero" fill-opacity="1" /><path clip-path="url(#clip670)" d="M2192.72 96.1981 L2197.61 96.1981 L2197.61 102.078 L2192.72 102.078 L2192.72 96.1981 Z" fill="#000000" fill-rule="nonzero" fill-opacity="1" /><path clip-path="url(#clip670)" d="M2217.79 70.5964 Q2214.18 70.5964 2212.35 74.1612 Q2210.54 77.7029 2210.54 84.8325 Q2210.54 91.9389 2212.35 95.5037 Q2214.18 99.0454 2217.79 99.0454 Q2221.42 99.0454 2223.23 95.5037 Q2225.06 91.9389 2225.06 84.8325 Q2225.06 77.7029 2223.23 74.1612 Q2221.42 70.5964 2217.79 70.5964 M2217.79 66.8928 Q2223.6 66.8928 2226.66 71.4992 Q2229.73 76.0825 2229.73 84.8325 Q2229.73 93.5593 2226.66 98.1657 Q2223.6 102.749 2217.79 102.749 Q2211.98 102.749 2208.9 98.1657 Q2205.85 93.5593 2205.85 84.8325 Q2205.85 76.0825 2208.9 71.4992 Q2211.98 66.8928 2217.79 66.8928 Z" fill="#000000" fill-rule="nonzero" fill-opacity="1" /><path clip-path="url(#clip670)" d="M2247.95 70.5964 Q2244.34 70.5964 2242.51 74.1612 Q2240.71 77.7029 2240.71 84.8325 Q2240.71 91.9389 2242.51 95.5037 Q2244.34 99.0454 2247.95 99.0454 Q2251.59 99.0454 2253.39 95.5037 Q2255.22 91.9389 2255.22 84.8325 Q2255.22 77.7029 2253.39 74.1612 Q2251.59 70.5964 2247.95 70.5964 M2247.95 66.8928 Q2253.76 66.8928 2256.82 71.4992 Q2259.9 76.0825 2259.9 84.8325 Q2259.9 93.5593 2256.82 98.1657 Q2253.76 102.749 2247.95 102.749 Q2242.14 102.749 2239.06 98.1657 Q2236.01 93.5593 2236.01 84.8325 Q2236.01 76.0825 2239.06 71.4992 Q2242.14 66.8928 2247.95 66.8928 Z" fill="#000000" fill-rule="nonzero" fill-opacity="1" /><path clip-path="url(#clip670)" d="M2319.36 1100.11 L2319.36 1094.26 L2355 1094.26 L2355 1100.11 L2319.36 1100.11 M2305.48 1100.11 L2305.48 1094.26 L2312.89 1094.26 L2312.89 1100.11 L2305.48 1100.11 Z" fill="#000000" fill-rule="nonzero" fill-opacity="1" /><path clip-path="url(#clip670)" d="M2333.49 1052.37 L2355 1052.37 L2355 1058.23 L2333.68 1058.23 Q2328.62 1058.23 2326.1 1060.2 Q2323.59 1062.17 2323.59 1066.12 Q2323.59 1070.86 2326.61 1073.6 Q2329.64 1076.34 2334.86 1076.34 L2355 1076.34 L2355 1082.23 L2319.36 1082.23 L2319.36 1076.34 L2324.89 1076.34 Q2321.68 1074.24 2320.09 1071.4 Q2318.5 1068.54 2318.5 1064.82 Q2318.5 1058.67 2322.32 1055.52 Q2326.1 1052.37 2333.49 1052.37 Z" fill="#000000" fill-rule="nonzero" fill-opacity="1" /><path clip-path="url(#clip670)" d="M2319.36 1044.89 L2319.36 1038.69 L2349.27 1027.55 L2319.36 1016.41 L2319.36 1010.2 L2355 1023.57 L2355 1031.52 L2319.36 1044.89 Z" fill="#000000" fill-rule="nonzero" fill-opacity="1" /><path clip-path="url(#clip670)" d="M2335.72 971.622 L2338.58 971.622 L2338.58 998.549 Q2344.63 998.167 2347.81 994.921 Q2350.96 991.642 2350.96 985.818 Q2350.96 982.444 2350.13 979.293 Q2349.31 976.11 2347.65 972.991 L2353.19 972.991 Q2354.53 976.142 2355.23 979.452 Q2355.93 982.762 2355.93 986.168 Q2355.93 994.698 2350.96 999.695 Q2346 1004.66 2337.53 1004.66 Q2328.78 1004.66 2323.65 999.95 Q2318.5 995.207 2318.5 987.186 Q2318.5 979.993 2323.14 975.824 Q2327.76 971.622 2335.72 971.622 M2334 977.479 Q2329.19 977.542 2326.33 980.184 Q2323.46 982.794 2323.46 987.123 Q2323.46 992.024 2326.23 994.984 Q2329 997.913 2334.03 998.358 L2334 977.479 Z" fill="#000000" fill-rule="nonzero" fill-opacity="1" /><path clip-path="url(#clip670)" d="M2324.83 941.353 Q2324.26 942.34 2324 943.518 Q2323.72 944.664 2323.72 946.064 Q2323.72 951.029 2326.96 953.703 Q2330.18 956.345 2336.23 956.345 L2355 956.345 L2355 962.233 L2319.36 962.233 L2319.36 956.345 L2324.89 956.345 Q2321.65 954.499 2320.09 951.538 Q2318.5 948.578 2318.5 944.345 Q2318.5 943.74 2318.59 943.008 Q2318.66 942.276 2318.81 941.385 L2324.83 941.353 Z" fill="#000000" fill-rule="nonzero" fill-opacity="1" /><path clip-path="url(#clip670)" d="M2320.41 912.485 L2325.94 912.485 Q2324.67 914.967 2324.03 917.641 Q2323.4 920.315 2323.4 923.179 Q2323.4 927.54 2324.73 929.736 Q2326.07 931.9 2328.75 931.9 Q2330.78 931.9 2331.96 930.341 Q2333.11 928.781 2334.16 924.07 L2334.6 922.065 Q2335.94 915.827 2338.39 913.217 Q2340.81 910.575 2345.17 910.575 Q2350.13 910.575 2353.03 914.522 Q2355.93 918.437 2355.93 925.312 Q2355.93 928.176 2355.35 931.296 Q2354.81 934.383 2353.7 937.82 L2347.65 937.82 Q2349.34 934.574 2350.2 931.423 Q2351.03 928.272 2351.03 925.184 Q2351.03 921.047 2349.62 918.819 Q2348.19 916.591 2345.61 916.591 Q2343.23 916.591 2341.95 918.214 Q2340.68 919.805 2339.5 925.248 L2339.03 927.285 Q2337.88 932.728 2335.52 935.147 Q2333.14 937.566 2329 937.566 Q2323.97 937.566 2321.23 934.001 Q2318.5 930.436 2318.5 923.879 Q2318.5 920.633 2318.97 917.768 Q2319.45 914.904 2320.41 912.485 Z" fill="#000000" fill-rule="nonzero" fill-opacity="1" /><path clip-path="url(#clip670)" d="M2335.72 870.758 L2338.58 870.758 L2338.58 897.685 Q2344.63 897.303 2347.81 894.056 Q2350.96 890.778 2350.96 884.953 Q2350.96 881.579 2350.13 878.428 Q2349.31 875.245 2347.65 872.126 L2353.19 872.126 Q2354.53 875.277 2355.23 878.587 Q2355.93 881.898 2355.93 885.303 Q2355.93 893.833 2350.96 898.83 Q2346 903.796 2337.53 903.796 Q2328.78 903.796 2323.65 899.085 Q2318.5 894.343 2318.5 886.322 Q2318.5 879.129 2323.14 874.959 Q2327.76 870.758 2335.72 870.758 M2334 876.614 Q2329.19 876.678 2326.33 879.32 Q2323.46 881.929 2323.46 886.258 Q2323.46 891.16 2326.23 894.12 Q2329 897.048 2334.03 897.494 L2334 876.614 Z" fill="#000000" fill-rule="nonzero" fill-opacity="1" /><path clip-path="url(#clip670)" d="M2324.77 816.967 L2305.48 816.967 L2305.48 811.111 L2355 811.111 L2355 816.967 L2349.66 816.967 Q2352.84 818.813 2354.4 821.646 Q2355.93 824.447 2355.93 828.394 Q2355.93 834.855 2350.77 838.929 Q2345.61 842.971 2337.21 842.971 Q2328.81 842.971 2323.65 838.929 Q2318.5 834.855 2318.5 828.394 Q2318.5 824.447 2320.06 821.646 Q2321.58 818.813 2324.77 816.967 M2337.21 836.924 Q2343.67 836.924 2347.36 834.282 Q2351.03 831.609 2351.03 826.962 Q2351.03 822.315 2347.36 819.641 Q2343.67 816.967 2337.21 816.967 Q2330.75 816.967 2327.09 819.641 Q2323.4 822.315 2323.4 826.962 Q2323.4 831.609 2327.09 834.282 Q2330.75 836.924 2337.21 836.924 Z" fill="#000000" fill-rule="nonzero" fill-opacity="1" /><path clip-path="url(#clip670)" d="M2319.36 799.048 L2319.36 793.192 L2355 793.192 L2355 799.048 L2319.36 799.048 M2305.48 799.048 L2305.48 793.192 L2312.89 793.192 L2312.89 799.048 L2305.48 799.048 Z" fill="#000000" fill-rule="nonzero" fill-opacity="1" /><path clip-path="url(#clip670)" d="M2320.41 758.212 L2325.94 758.212 Q2324.67 760.695 2324.03 763.368 Q2323.4 766.042 2323.4 768.906 Q2323.4 773.267 2324.73 775.463 Q2326.07 777.627 2328.75 777.627 Q2330.78 777.627 2331.96 776.068 Q2333.11 774.508 2334.16 769.798 L2334.6 767.792 Q2335.94 761.554 2338.39 758.944 Q2340.81 756.302 2345.17 756.302 Q2350.13 756.302 2353.03 760.249 Q2355.93 764.164 2355.93 771.039 Q2355.93 773.903 2355.35 777.023 Q2354.81 780.11 2353.7 783.547 L2347.65 783.547 Q2349.34 780.301 2350.2 777.15 Q2351.03 773.999 2351.03 770.912 Q2351.03 766.774 2349.62 764.546 Q2348.19 762.318 2345.61 762.318 Q2343.23 762.318 2341.95 763.941 Q2340.68 765.533 2339.5 770.975 L2339.03 773.012 Q2337.88 778.455 2335.52 780.874 Q2333.14 783.293 2329 783.293 Q2323.97 783.293 2321.23 779.728 Q2318.5 776.163 2318.5 769.607 Q2318.5 766.36 2318.97 763.496 Q2319.45 760.631 2320.41 758.212 Z" fill="#000000" fill-rule="nonzero" fill-opacity="1" /><path clip-path="url(#clip670)" d="M2309.23 741.184 L2319.36 741.184 L2319.36 729.121 L2323.91 729.121 L2323.91 741.184 L2343.26 741.184 Q2347.62 741.184 2348.86 740.006 Q2350.1 738.797 2350.1 735.136 L2350.1 729.121 L2355 729.121 L2355 735.136 Q2355 741.916 2352.49 744.494 Q2349.94 747.072 2343.26 747.072 L2323.91 747.072 L2323.91 751.369 L2319.36 751.369 L2319.36 747.072 L2309.23 747.072 L2309.23 741.184 Z" fill="#000000" fill-rule="nonzero" fill-opacity="1" /><path clip-path="url(#clip670)" d="M2337.08 705.217 Q2337.08 712.315 2338.71 715.052 Q2340.33 717.79 2344.25 717.79 Q2347.36 717.79 2349.21 715.753 Q2351.03 713.684 2351.03 710.151 Q2351.03 705.281 2347.59 702.353 Q2344.12 699.393 2338.39 699.393 L2337.08 699.393 L2337.08 705.217 M2334.67 693.536 L2355 693.536 L2355 699.393 L2349.59 699.393 Q2352.84 701.398 2354.4 704.39 Q2355.93 707.382 2355.93 711.71 Q2355.93 717.185 2352.87 720.431 Q2349.78 723.646 2344.63 723.646 Q2338.61 723.646 2335.56 719.636 Q2332.5 715.594 2332.5 707.605 L2332.5 699.393 L2331.93 699.393 Q2327.89 699.393 2325.69 702.066 Q2323.46 704.708 2323.46 709.514 Q2323.46 712.57 2324.19 715.466 Q2324.93 718.363 2326.39 721.036 L2320.98 721.036 Q2319.74 717.822 2319.13 714.798 Q2318.5 711.774 2318.5 708.91 Q2318.5 701.175 2322.51 697.356 Q2326.52 693.536 2334.67 693.536 Z" fill="#000000" fill-rule="nonzero" fill-opacity="1" /><path clip-path="url(#clip670)" d="M2333.49 651.841 L2355 651.841 L2355 657.697 L2333.68 657.697 Q2328.62 657.697 2326.1 659.671 Q2323.59 661.644 2323.59 665.591 Q2323.59 670.333 2326.61 673.071 Q2329.64 675.808 2334.86 675.808 L2355 675.808 L2355 681.696 L2319.36 681.696 L2319.36 675.808 L2324.89 675.808 Q2321.68 673.707 2320.09 670.874 Q2318.5 668.01 2318.5 664.286 Q2318.5 658.143 2322.32 654.992 Q2326.1 651.841 2333.49 651.841 Z" fill="#000000" fill-rule="nonzero" fill-opacity="1" /><path clip-path="url(#clip670)" d="M2320.72 614.506 L2326.2 614.506 Q2324.83 616.989 2324.16 619.503 Q2323.46 621.986 2323.46 624.532 Q2323.46 630.229 2327.09 633.38 Q2330.69 636.531 2337.21 636.531 Q2343.74 636.531 2347.36 633.38 Q2350.96 630.229 2350.96 624.532 Q2350.96 621.986 2350.29 619.503 Q2349.59 616.989 2348.22 614.506 L2353.64 614.506 Q2354.78 616.957 2355.35 619.599 Q2355.93 622.209 2355.93 625.169 Q2355.93 633.221 2350.87 637.964 Q2345.81 642.706 2337.21 642.706 Q2328.49 642.706 2323.49 637.932 Q2318.5 633.126 2318.5 624.787 Q2318.5 622.081 2319.07 619.503 Q2319.61 616.925 2320.72 614.506 Z" fill="#000000" fill-rule="nonzero" fill-opacity="1" /><path clip-path="url(#clip670)" d="M2335.72 573.829 L2338.58 573.829 L2338.58 600.756 Q2344.63 600.374 2347.81 597.128 Q2350.96 593.849 2350.96 588.025 Q2350.96 584.651 2350.13 581.5 Q2349.31 578.317 2347.65 575.198 L2353.19 575.198 Q2354.53 578.349 2355.23 581.659 Q2355.93 584.969 2355.93 588.375 Q2355.93 596.905 2350.96 601.902 Q2346 606.867 2337.53 606.867 Q2328.78 606.867 2323.65 602.157 Q2318.5 597.414 2318.5 589.393 Q2318.5 582.2 2323.14 578.031 Q2327.76 573.829 2335.72 573.829 M2334 579.686 Q2329.19 579.749 2326.33 582.391 Q2323.46 585.001 2323.46 589.33 Q2323.46 594.231 2326.23 597.191 Q2329 600.12 2334.03 600.565 L2334 579.686 Z" fill="#000000" fill-rule="nonzero" fill-opacity="1" /><path clip-path="url(#clip670)" d="M2305.54 529.428 Q2312.86 533.693 2320.02 535.762 Q2327.19 537.831 2334.54 537.831 Q2341.89 537.831 2349.12 535.762 Q2356.31 533.662 2363.6 529.428 L2363.6 534.521 Q2356.12 539.295 2348.89 541.682 Q2341.67 544.038 2334.54 544.038 Q2327.44 544.038 2320.25 541.682 Q2313.05 539.327 2305.54 534.521 L2305.54 529.428 Z" fill="#000000" fill-rule="nonzero" fill-opacity="1" /><path clip-path="url(#clip670)" d="M2326.2 490.311 Q2322.25 488.115 2320.37 485.059 Q2318.5 482.004 2318.5 477.866 Q2318.5 472.296 2322.41 469.273 Q2326.29 466.249 2333.49 466.249 L2355 466.249 L2355 472.137 L2333.68 472.137 Q2328.55 472.137 2326.07 473.951 Q2323.59 475.766 2323.59 479.49 Q2323.59 484.041 2326.61 486.683 Q2329.64 489.325 2334.86 489.325 L2355 489.325 L2355 495.213 L2333.68 495.213 Q2328.52 495.213 2326.07 497.027 Q2323.59 498.841 2323.59 502.629 Q2323.59 507.117 2326.64 509.758 Q2329.67 512.4 2334.86 512.4 L2355 512.4 L2355 518.288 L2319.36 518.288 L2319.36 512.4 L2324.89 512.4 Q2321.62 510.395 2320.06 507.594 Q2318.5 504.793 2318.5 500.942 Q2318.5 497.059 2320.47 494.353 Q2322.44 491.616 2326.2 490.311 Z" fill="#000000" fill-rule="nonzero" fill-opacity="1" /><path clip-path="url(#clip670)" d="M2307.48 430.283 L2325.21 413 L2325.21 419.397 L2312.64 433.402 L2325.21 447.406 L2325.21 453.804 L2307.48 436.521 L2307.48 430.283 Z" fill="#000000" fill-rule="nonzero" fill-opacity="1" /><path clip-path="url(#clip670)" d="M2334.54 402.91 L2334.54 385.754 L2339.76 385.754 L2339.76 402.91 L2334.54 402.91 Z" fill="#000000" fill-rule="nonzero" fill-opacity="1" /><path clip-path="url(#clip670)" d="M2349.59 374.487 L2349.59 363.984 L2313.34 363.984 L2315.63 375.41 L2309.78 375.41 L2307.48 364.047 L2307.48 357.618 L2349.59 357.618 L2349.59 347.115 L2355 347.115 L2355 374.487 L2349.59 374.487 Z" fill="#000000" fill-rule="nonzero" fill-opacity="1" /><path clip-path="url(#clip670)" d="M2305.54 335.879 L2305.54 330.787 Q2313.05 326.012 2320.25 323.657 Q2327.44 321.27 2334.54 321.27 Q2341.67 321.27 2348.89 323.657 Q2356.12 326.012 2363.6 330.787 L2363.6 335.879 Q2356.31 331.646 2349.12 329.577 Q2341.89 327.476 2334.54 327.476 Q2327.19 327.476 2320.02 329.577 Q2312.86 331.646 2305.54 335.879 Z" fill="#000000" fill-rule="nonzero" fill-opacity="1" /><polyline clip-path="url(#clip671)" style="stroke:#009af9; stroke-linecap:round; stroke-linejoin:round; stroke-width:4; stroke-opacity:1; fill:none" points="282.593,84.7977 372.112,996.815 461.632,1148.82 551.152,1211.41 640.671,1245.55 730.191,1267.04 819.711,1281.82 909.23,1292.6 998.75,1300.82 1088.27,1307.29 1177.79,1312.51 1267.31,1316.82 1356.83,1320.43 1446.35,1323.51 1535.87,1326.15 1625.39,1328.46 1714.91,1330.48 1804.43,1332.27 1893.95,1333.86 1983.47,1335.3 2072.99,1336.59 "/>
</svg>
