<svg class="main-svg" xmlns="http://www.w3.org/2000/svg" xmlns:xlink="http://www.w3.org/1999/xlink" width="700" height="500" style="" viewBox="0 0 700 500"><rect x="0" y="0" width="700" height="500" style="fill: rgb(255, 255, 255); fill-opacity: 1;"/><defs id="defs-05839d"><g class="clips"><clipPath id="clip05839dxyplot" class="plotclip"><rect width="647.4769320501604" height="433.4044181977253"/></clipPath><clipPath class="axesclip" id="clip05839dx"><rect x="47.94301545640128" y="0" width="647.4769320501604" height="500"/></clipPath><clipPath class="axesclip" id="clip05839dy"><rect x="0" y="24.478346456692904" width="700" height="433.4044181977253"/></clipPath><clipPath class="axesclip" id="clip05839dxy"><rect x="47.94301545640128" y="24.478346456692904" width="647.4769320501604" height="433.4044181977253"/></clipPath></g><g class="gradients"/><g class="patterns"/></defs><g class="bglayer"/><g class="layer-below"><g class="imagelayer"/><g class="shapelayer"/></g><g class="cartesianlayer"><g class="subplot xy"><g class="layer-subplot"><g class="shapelayer"/><g class="imagelayer"/></g><g class="minor-gridlayer"><g class="x"/><g class="y"/></g><g class="gridlayer"><g class="x"><path class="xgrid crisp" transform="translate(53.803015456401276,0)" d="M0,24.478346456692904v433.4044181977253" style="stroke: rgb(0, 0, 0); stroke-opacity: 0.1; stroke-width: 0.5px;"/><path class="xgrid crisp" transform="translate(178.46301545640128,0)" d="M0,24.478346456692904v433.4044181977253" style="stroke: rgb(0, 0, 0); stroke-opacity: 0.1; stroke-width: 0.5px;"/><path class="xgrid crisp" transform="translate(303.1230154564013,0)" d="M0,24.478346456692904v433.4044181977253" style="stroke: rgb(0, 0, 0); stroke-opacity: 0.1; stroke-width: 0.5px;"/><path class="xgrid crisp" transform="translate(427.77301545640125,0)" d="M0,24.478346456692904v433.4044181977253" style="stroke: rgb(0, 0, 0); stroke-opacity: 0.1; stroke-width: 0.5px;"/><path class="xgrid crisp" transform="translate(552.4330154564013,0)" d="M0,24.478346456692904v433.4044181977253" style="stroke: rgb(0, 0, 0); stroke-opacity: 0.1; stroke-width: 0.5px;"/><path class="xgrid crisp" transform="translate(677.0930154564013,0)" d="M0,24.478346456692904v433.4044181977253" style="stroke: rgb(0, 0, 0); stroke-opacity: 0.1; stroke-width: 0.5px;"/></g><g class="y"><path class="ygrid crisp" transform="translate(0,404.51834645669294)" d="M47.94301545640128,0h647.4769320501604" style="stroke: rgb(0, 0, 0); stroke-opacity: 0.1; stroke-width: 0.5px;"/><path class="ygrid crisp" transform="translate(0,338.08834645669293)" d="M47.94301545640128,0h647.4769320501604" style="stroke: rgb(0, 0, 0); stroke-opacity: 0.1; stroke-width: 0.5px;"/><path class="ygrid crisp" transform="translate(0,271.6483464566929)" d="M47.94301545640128,0h647.4769320501604" style="stroke: rgb(0, 0, 0); stroke-opacity: 0.1; stroke-width: 0.5px;"/><path class="ygrid crisp" transform="translate(0,205.21834645669293)" d="M47.94301545640128,0h647.4769320501604" style="stroke: rgb(0, 0, 0); stroke-opacity: 0.1; stroke-width: 0.5px;"/><path class="ygrid crisp" transform="translate(0,138.78834645669292)" d="M47.94301545640128,0h647.4769320501604" style="stroke: rgb(0, 0, 0); stroke-opacity: 0.1; stroke-width: 0.5px;"/><path class="ygrid crisp" transform="translate(0,72.35834645669291)" d="M47.94301545640128,0h647.4769320501604" style="stroke: rgb(0, 0, 0); stroke-opacity: 0.1; stroke-width: 0.5px;"/></g></g><g class="zerolinelayer"/><g class="layer-between"><g class="shapelayer"/><g class="imagelayer"/></g><path class="xlines-below"/><path class="ylines-below"/><g class="overlines-below"/><g class="xaxislayer-below"/><g class="yaxislayer-below"/><g class="overaxes-below"/><g class="overplot"><g class="xy" transform="translate(47.94301545640128,24.478346456692904)" clip-path="url(#clip05839dxyplot)"><g class="scatterlayer mlayer"><g class="trace scatter trace20cb5e" style="stroke-miterlimit: 2; opacity: 1;"><g class="fills"/><g class="errorbars"/><g class="lines"><path class="js-line" d="M18.32,247.17L30.79,233.37L43.26,252.29L55.72,275.43L68.19,295.45L80.65,305.07L93.12,292.28L105.59,292.69L118.05,274.8L130.52,260.41L142.98,285.08L155.45,315.11L167.92,288.24L180.38,313.07L192.85,308.67L205.31,308.81L217.78,285.31L230.24,303.43L242.71,288.14L255.18,316.29L267.64,340.53L280.11,299.71L292.57,254.31L305.04,262.46L317.51,284.97L329.97,257.96L342.44,237.58L354.9,299.52L367.37,286.7L379.83,295.26L392.3,270.27L404.77,243.96L417.23,206.93L429.7,165.87L442.16,160.41L454.63,127.3L467.1,122.71L479.56,107.52L492.03,95.08L504.49,81.87L516.96,87.75L529.43,101.21L541.89,105.77L554.36,165.03L566.82,195.89L579.29,191.38L591.75,162.41L604.22,179.11L616.69,155.97L629.15,205.61" style="vector-effect: none; fill: none; stroke: rgb(0, 154, 250); stroke-opacity: 1; stroke-width: 3px; opacity: 1;"/></g><g class="points"/><g class="text"/></g><g class="trace scatter tracec2f7e3" style="stroke-miterlimit: 2; opacity: 1;"><g class="fills"/><g class="errorbars"/><g class="lines"><path class="js-line" d="M18.32,247.17L30.79,223.12L43.26,221.87L55.72,178.71L68.19,170.95L80.65,176.9L93.12,154.41L105.59,187.84L118.05,198.93L130.52,215.94L142.98,234.41L155.45,223.42L167.92,228.71L180.38,203L192.85,148.63L205.31,132.93L217.78,153.34L230.24,156.78L242.71,126.65L255.18,135.2L267.64,124.82L280.11,98.64L292.57,117.92L305.04,115.86L317.51,144.97L329.97,110.17L342.44,71.45L354.9,35.73L367.37,43.04L379.83,52.59L392.3,17.26L404.77,12.27L417.23,37.98L429.7,27.47L442.16,74.7L454.63,104.8L467.1,153.33L479.56,199.43L492.03,207.47L516.96,191.89L529.43,190.72L541.89,177.95L554.36,216.82L579.29,179.91L591.75,229.48L604.22,231.45L616.69,189.78L629.15,200.08" style="vector-effect: none; fill: none; stroke: rgb(227, 111, 71); stroke-opacity: 1; stroke-width: 3px; opacity: 1;"/></g><g class="points"/><g class="text"/></g><g class="trace scatter trace387099" style="stroke-miterlimit: 2; opacity: 1;"><g class="fills"/><g class="errorbars"/><g class="lines"><path class="js-line" d="M18.32,247.17L30.79,291.7L43.26,291.86L55.72,293.49L68.19,273.27L80.65,297.24L93.12,327.86L105.59,319.17L118.05,316.35L130.52,344.75L142.98,327.2L155.45,312.31L167.92,337.53L180.38,301.89L192.85,242.9L205.31,258.13L217.78,250.13L230.24,249.66L242.71,227.2L255.18,246.57L267.64,244.67L280.11,230.81L292.57,215.74L305.04,282.51L317.51,254.14L329.97,228.58L342.44,225.18L354.9,201.43L367.37,205.95L379.83,254.8L392.3,272.34L404.77,286.33L417.23,314.05L429.7,283.4L442.16,288.48L454.63,295.4L467.1,246.23L479.56,251.52L492.03,284.84L504.49,287.48L516.96,245.96L529.43,284.93L541.89,284.5L554.36,271.1L566.82,232.68L579.29,251.62L591.75,274.7L604.22,286.56L616.69,287.17L629.15,263.96" style="vector-effect: none; fill: none; stroke: rgb(62, 164, 78); stroke-opacity: 1; stroke-width: 3px; opacity: 1;"/></g><g class="points"/><g class="text"/></g><g class="trace scatter trace3a44c3" style="stroke-miterlimit: 2; opacity: 1;"><g class="fills"/><g class="errorbars"/><g class="lines"><path class="js-line" d="M18.32,247.17L30.79,281.58L43.26,318.44L55.72,325.71L68.19,323.4L80.65,322.51L93.12,327.72L105.59,295.48L118.05,290.41L130.52,303.66L142.98,279.89L155.45,317.7L167.92,346.77L180.38,339.23L192.85,376.81L205.31,379.93L217.78,364.68L230.24,414.28L242.71,421.14L255.18,380.44L267.64,369.71L280.11,371.09L292.57,309.87L305.04,328.25L317.51,300.66L329.97,286.27L342.44,332.69L354.9,306.8L367.37,319.96L379.83,319.19L392.3,310.1L417.23,287.6L429.7,277.88L442.16,304.75L454.63,310.83L467.1,377.89L479.56,372.61L492.03,343.16L504.49,309.78L529.43,335.12L541.89,322.92L554.36,279.03L566.82,307.48L579.29,307.5L591.75,261.08L604.22,212.43L616.69,168.22L629.15,198.3" style="vector-effect: none; fill: none; stroke: rgb(195, 113, 210); stroke-opacity: 1; stroke-width: 3px; opacity: 1;"/></g><g class="points"/><g class="text"/></g><g class="trace scatter trace95fbf0" style="stroke-miterlimit: 2; opacity: 1;"><g class="fills"/><g class="errorbars"/><g class="lines"><path class="js-line" d="M18.32,247.17L30.79,265.36L43.26,315.14L55.72,297.54L68.19,293.62L80.65,279.66L93.12,278.8L105.59,274.82L118.05,293.89L130.52,276.14L142.98,300.45L155.45,351.55L167.92,333.66L180.38,286.64L192.85,275.5L205.31,302.55L217.78,306.05L230.24,259.78L242.71,283.41L255.18,307.15L267.64,242.17L280.11,285.24L292.57,235.83L305.04,206.06L317.51,195.37L329.97,220.31L342.44,227.83L354.9,226.06L367.37,218.78L379.83,244.19L392.3,303.03L404.77,303.45L417.23,354.93L429.7,370.66L442.16,350.45L454.63,377.19L467.1,333.94L479.56,367.54L492.03,340.79L504.49,356.64L516.96,378L529.43,359.72L541.89,372.78L566.82,341.27L579.29,284.31L591.75,307.54L604.22,290.95L616.69,255.58L629.15,265.44" style="vector-effect: none; fill: none; stroke: rgb(172, 142, 24); stroke-opacity: 1; stroke-width: 3px; opacity: 1;"/></g><g class="points"/><g class="text"/></g></g></g></g><path class="xlines-above crisp" d="M46.94301545640128,458.3827646544182H695.4199475065617" style="fill: none; stroke-width: 1px; stroke: rgb(0, 0, 0); stroke-opacity: 1;"/><path class="ylines-above crisp" d="M47.44301545640128,24.478346456692904V457.8827646544182" style="fill: none; stroke-width: 1px; stroke: rgb(0, 0, 0); stroke-opacity: 1;"/><g class="overlines-above"/><g class="xaxislayer-above"><path class="xtick ticks crisp" d="M0,457.8827646544182v-5" transform="translate(53.803015456401276,0)" style="stroke: rgb(0, 0, 0); stroke-opacity: 1; stroke-width: 1px;"/><path class="xtick ticks crisp" d="M0,457.8827646544182v-5" transform="translate(178.46301545640128,0)" style="stroke: rgb(0, 0, 0); stroke-opacity: 1; stroke-width: 1px;"/><path class="xtick ticks crisp" d="M0,457.8827646544182v-5" transform="translate(303.1230154564013,0)" style="stroke: rgb(0, 0, 0); stroke-opacity: 1; stroke-width: 1px;"/><path class="xtick ticks crisp" d="M0,457.8827646544182v-5" transform="translate(427.77301545640125,0)" style="stroke: rgb(0, 0, 0); stroke-opacity: 1; stroke-width: 1px;"/><path class="xtick ticks crisp" d="M0,457.8827646544182v-5" transform="translate(552.4330154564013,0)" style="stroke: rgb(0, 0, 0); stroke-opacity: 1; stroke-width: 1px;"/><path class="xtick ticks crisp" d="M0,457.8827646544182v-5" transform="translate(677.0930154564013,0)" style="stroke: rgb(0, 0, 0); stroke-opacity: 1; stroke-width: 1px;"/><g class="xtick"><text text-anchor="middle" x="0" y="472.0827646544182" transform="translate(53.803015456401276,0)" style="font-family: sans-serif; font-size: 11px; fill: rgb(0, 0, 0); fill-opacity: 1; white-space: pre; opacity: 1;">0</text></g><g class="xtick"><text text-anchor="middle" x="0" y="472.0827646544182" style="font-family: sans-serif; font-size: 11px; fill: rgb(0, 0, 0); fill-opacity: 1; white-space: pre; opacity: 1;" transform="translate(178.46301545640128,0)">10</text></g><g class="xtick"><text text-anchor="middle" x="0" y="472.0827646544182" style="font-family: sans-serif; font-size: 11px; fill: rgb(0, 0, 0); fill-opacity: 1; white-space: pre; opacity: 1;" transform="translate(303.1230154564013,0)">20</text></g><g class="xtick"><text text-anchor="middle" x="0" y="472.0827646544182" style="font-family: sans-serif; font-size: 11px; fill: rgb(0, 0, 0); fill-opacity: 1; white-space: pre; opacity: 1;" transform="translate(427.77301545640125,0)">30</text></g><g class="xtick"><text text-anchor="middle" x="0" y="472.0827646544182" style="font-family: sans-serif; font-size: 11px; fill: rgb(0, 0, 0); fill-opacity: 1; white-space: pre; opacity: 1;" transform="translate(552.4330154564013,0)">40</text></g><g class="xtick"><text text-anchor="middle" x="0" y="472.0827646544182" style="font-family: sans-serif; font-size: 11px; fill: rgb(0, 0, 0); fill-opacity: 1; white-space: pre; opacity: 1;" transform="translate(677.0930154564013,0)">50</text></g></g><g class="yaxislayer-above"><path class="ytick ticks crisp" d="M47.94301545640128,0h5" transform="translate(0,404.51834645669294)" style="stroke: rgb(0, 0, 0); stroke-opacity: 1; stroke-width: 1px;"/><path class="ytick ticks crisp" d="M47.94301545640128,0h5" transform="translate(0,338.08834645669293)" style="stroke: rgb(0, 0, 0); stroke-opacity: 1; stroke-width: 1px;"/><path class="ytick ticks crisp" d="M47.94301545640128,0h5" transform="translate(0,271.6483464566929)" style="stroke: rgb(0, 0, 0); stroke-opacity: 1; stroke-width: 1px;"/><path class="ytick ticks crisp" d="M47.94301545640128,0h5" transform="translate(0,205.21834645669293)" style="stroke: rgb(0, 0, 0); stroke-opacity: 1; stroke-width: 1px;"/><path class="ytick ticks crisp" d="M47.94301545640128,0h5" transform="translate(0,138.78834645669292)" style="stroke: rgb(0, 0, 0); stroke-opacity: 1; stroke-width: 1px;"/><path class="ytick ticks crisp" d="M47.94301545640128,0h5" transform="translate(0,72.35834645669291)" style="stroke: rgb(0, 0, 0); stroke-opacity: 1; stroke-width: 1px;"/><g class="ytick"><text text-anchor="end" x="44.743015456401274" y="3.8499999999999996" transform="translate(0,404.51834645669294)" style="font-family: sans-serif; font-size: 11px; fill: rgb(0, 0, 0); fill-opacity: 1; white-space: pre; opacity: 1;">-5.0</text></g><g class="ytick"><text text-anchor="end" x="44.743015456401274" y="3.8499999999999996" style="font-family: sans-serif; font-size: 11px; fill: rgb(0, 0, 0); fill-opacity: 1; white-space: pre; opacity: 1;" transform="translate(0,338.08834645669293)">-2.5</text></g><g class="ytick"><text text-anchor="end" x="44.743015456401274" y="3.8499999999999996" style="font-family: sans-serif; font-size: 11px; fill: rgb(0, 0, 0); fill-opacity: 1; white-space: pre; opacity: 1;" transform="translate(0,271.6483464566929)">0.0</text></g><g class="ytick"><text text-anchor="end" x="44.743015456401274" y="3.8499999999999996" style="font-family: sans-serif; font-size: 11px; fill: rgb(0, 0, 0); fill-opacity: 1; white-space: pre; opacity: 1;" transform="translate(0,205.21834645669293)">2.5</text></g><g class="ytick"><text text-anchor="end" x="44.743015456401274" y="3.8499999999999996" style="font-family: sans-serif; font-size: 11px; fill: rgb(0, 0, 0); fill-opacity: 1; white-space: pre; opacity: 1;" transform="translate(0,138.78834645669292)">5.0</text></g><g class="ytick"><text text-anchor="end" x="44.743015456401274" y="3.8499999999999996" style="font-family: sans-serif; font-size: 11px; fill: rgb(0, 0, 0); fill-opacity: 1; white-space: pre; opacity: 1;" transform="translate(0,72.35834645669291)">7.5</text></g></g><g class="overaxes-above"/></g></g><g class="polarlayer"/><g class="smithlayer"/><g class="ternarylayer"/><g class="geolayer"/><g class="funnelarealayer"/><g class="pielayer"/><g class="iciclelayer"/><g class="treemaplayer"/><g class="sunburstlayer"/><g class="glimages"/><defs id="topdefs-05839d"><g class="clips"/><clipPath id="legend05839d"><rect width="57" height="105" x="1" y="1"/></clipPath></defs><g class="layer-above"><g class="imagelayer"/><g class="shapelayer"/></g><g class="infolayer"><g class="legend" pointer-events="all" transform="translate(641,20)"><rect class="bg" shape-rendering="crispEdges" style="stroke: rgb(0, 0, 0); stroke-opacity: 1; fill: rgb(255, 255, 255); fill-opacity: 1; stroke-width: 1px;" width="58" height="106" x="0.5" y="0.5"/><g class="scrollbox" transform="" clip-path="url(#legend05839d)"><g class="groups"><g class="traces" transform="translate(1,15.5)" style="opacity: 1;"><text class="legendtext" text-anchor="start" x="40" y="4.29" style="font-family: sans-serif; font-size: 11px; fill: rgb(0, 0, 0); fill-opacity: 1; white-space: pre;">y1</text><g class="layers" style="opacity: 1;"><g class="legendfill"/><g class="legendlines"><path class="js-line" d="M5,0h30" style="fill: none; stroke: rgb(0, 154, 250); stroke-opacity: 1; stroke-width: 3px;"/></g><g class="legendsymbols"><g class="legendpoints"/></g></g><rect class="legendtoggle" x="0" y="-9.5" width="51.625" height="19" style="fill: rgb(0, 0, 0); fill-opacity: 0;"/></g><g class="traces" transform="translate(1,34.5)" style="opacity: 1;"><text class="legendtext" text-anchor="start" x="40" y="4.29" style="font-family: sans-serif; font-size: 11px; fill: rgb(0, 0, 0); fill-opacity: 1; white-space: pre;">y2</text><g class="layers" style="opacity: 1;"><g class="legendfill"/><g class="legendlines"><path class="js-line" d="M5,0h30" style="fill: none; stroke: rgb(227, 111, 71); stroke-opacity: 1; stroke-width: 3px;"/></g><g class="legendsymbols"><g class="legendpoints"/></g></g><rect class="legendtoggle" x="0" y="-9.5" width="51.625" height="19" style="fill: rgb(0, 0, 0); fill-opacity: 0;"/></g><g class="traces" transform="translate(1,53.5)" style="opacity: 1;"><text class="legendtext" text-anchor="start" x="40" y="4.29" style="font-family: sans-serif; font-size: 11px; fill: rgb(0, 0, 0); fill-opacity: 1; white-space: pre;">y3</text><g class="layers" style="opacity: 1;"><g class="legendfill"/><g class="legendlines"><path class="js-line" d="M5,0h30" style="fill: none; stroke: rgb(62, 164, 78); stroke-opacity: 1; stroke-width: 3px;"/></g><g class="legendsymbols"><g class="legendpoints"/></g></g><rect class="legendtoggle" x="0" y="-9.5" width="51.625" height="19" style="fill: rgb(0, 0, 0); fill-opacity: 0;"/></g><g class="traces" transform="translate(1,72.5)" style="opacity: 1;"><text class="legendtext" text-anchor="start" x="40" y="4.29" style="font-family: sans-serif; font-size: 11px; fill: rgb(0, 0, 0); fill-opacity: 1; white-space: pre;">y4</text><g class="layers" style="opacity: 1;"><g class="legendfill"/><g class="legendlines"><path class="js-line" d="M5,0h30" style="fill: none; stroke: rgb(195, 113, 210); stroke-opacity: 1; stroke-width: 3px;"/></g><g class="legendsymbols"><g class="legendpoints"/></g></g><rect class="legendtoggle" x="0" y="-9.5" width="51.625" height="19" style="fill: rgb(0, 0, 0); fill-opacity: 0;"/></g><g class="traces" transform="translate(1,91.5)" style="opacity: 1;"><text class="legendtext" text-anchor="start" x="40" y="4.29" style="font-family: sans-serif; font-size: 11px; fill: rgb(0, 0, 0); fill-opacity: 1; white-space: pre;">y5</text><g class="layers" style="opacity: 1;"><g class="legendfill"/><g class="legendlines"><path class="js-line" d="M5,0h30" style="fill: none; stroke: rgb(172, 142, 24); stroke-opacity: 1; stroke-width: 3px;"/></g><g class="legendsymbols"><g class="legendpoints"/></g></g><rect class="legendtoggle" x="0" y="-9.5" width="51.625" height="19" style="fill: rgb(0, 0, 0); fill-opacity: 0;"/></g></g></g><rect class="scrollbar" rx="20" ry="3" width="0" height="0" style="fill: rgb(128, 139, 164); fill-opacity: 1;" x="0" y="0"/></g><g class="g-gtitle"/><g class="g-xtitle"/><g class="g-ytitle"/></g></svg>