<svg class="main-svg" xmlns="http://www.w3.org/2000/svg" xmlns:xlink="http://www.w3.org/1999/xlink" width="700" height="500" style="" viewBox="0 0 700 500"><rect x="0" y="0" width="700" height="500" style="fill: rgb(255, 255, 255); fill-opacity: 1;"/><defs id="defs-70c8c9"><g class="clips"><clipPath id="clip70c8c9xyplot" class="plotclip"><rect width="649.3321668124817" height="415.80599300087493"/></clipPath><clipPath class="axesclip" id="clip70c8c9x"><rect x="46.07465733449989" y="0" width="649.3321668124817" height="500"/></clipPath><clipPath class="axesclip" id="clip70c8c9y"><rect x="0" y="46.88867016622919" width="700" height="415.80599300087493"/></clipPath><clipPath class="axesclip" id="clip70c8c9xy"><rect x="46.07465733449989" y="46.88867016622919" width="649.3321668124817" height="415.80599300087493"/></clipPath></g><g class="gradients"/><g class="patterns"/></defs><g class="bglayer"/><g class="layer-below"><g class="imagelayer"/><g class="shapelayer"/></g><g class="cartesianlayer"><g class="subplot xy"><g class="layer-subplot"><g class="shapelayer"/><g class="imagelayer"/></g><g class="minor-gridlayer"><g class="x"/><g class="y"/></g><g class="gridlayer"><g class="x"/><g class="y"/></g><g class="zerolinelayer"/><g class="layer-between"><g class="shapelayer"/><g class="imagelayer"/></g><path class="xlines-below"/><path class="ylines-below"/><g class="overlines-below"/><g class="xaxislayer-below"/><g class="yaxislayer-below"/><g class="overaxes-below"/><g class="overplot"><g class="xy" transform="translate(46.07465733449989,46.88867016622919)" clip-path="url(#clip70c8c9xyplot)"><g class="scatterlayer mlayer"><g class="trace scatter traceb30238" style="stroke-miterlimit: 2;"><g class="fills"><g><path class="js-fill" d="M324.67,207.88L324.67,207.88L324.67,207.88L523.66,207.88L523.4,197.83L521.31,177.82L519.49,167.92L514.31,148.47L510.97,138.96L502.83,120.52L498.05,111.63L487.14,94.63L481.04,86.57L467.61,71.42L460.33,64.38L444.71,51.44L436.41,45.58L418.96,35.15L409.86,30.62L390.99,22.95L381.29,19.84L361.45,15.11L351.38,13.51L331.04,11.83L320.84,11.77L300.48,13.19L290.39,14.66L270.5,19.14L260.75,22.12L241.79,29.55L232.62,33.98L215.04,44.18L206.67,49.94L190.88,62.68L183.5,69.63L169.88,84.6L163.68,92.59L324.67,207.88" style="fill: rgb(0, 154, 250); fill-opacity: 1; stroke-width: 0;"/></g></g><g class="errorbars"/><g class="lines"><path class="js-line" d="M324.67,207.88L523.66,207.88L523.4,197.83L521.31,177.82L519.49,167.92L514.31,148.47L510.97,138.96L502.83,120.52L498.05,111.63L487.14,94.63L481.04,86.57L467.61,71.42L460.33,64.38L444.71,51.44L436.41,45.58L418.96,35.15L409.86,30.62L390.99,22.95L381.29,19.84L361.45,15.11L351.38,13.51L331.04,11.83L320.84,11.77L300.48,13.19L290.39,14.66L270.5,19.14L260.75,22.12L241.79,29.55L232.62,33.98L215.04,44.18L206.67,49.94L190.88,62.68L183.5,69.63L169.88,84.6L163.68,92.59L324.67,207.88" style="vector-effect: none; fill: none; stroke: rgb(0, 0, 0); stroke-opacity: 0.5; stroke-width: 1px; opacity: 1;"/></g><g class="points"/><g class="text"/></g><g class="trace scatter traceb397d1" style="stroke-miterlimit: 2;"><g class="fills"><g><path class="js-fill" d="M324.67,207.88L324.67,207.88L324.67,207.88L163.68,92.59L158.59,99.82L149.43,114.93L145.38,122.78L138.36,138.96L135.41,147.27L130.66,164.24L128.87,172.86L126.47,190.3L125.87,199.08L125.87,216.69L126.47,225.47L128.87,242.91L130.66,251.53L135.41,268.5L138.36,276.81L145.38,292.99L149.43,300.84L158.59,315.94L163.68,323.18L174.81,336.94L180.83,343.44L193.74,355.6L200.59,361.24L215.04,371.59L222.6,376.27L238.33,384.61L246.46,388.25L263.17,394.44L271.73,396.97L289.13,400.89L297.95,402.26L315.74,403.84L324.67,404.04L324.67,207.88" style="fill: rgb(227, 111, 71); fill-opacity: 1; stroke-width: 0;"/></g></g><g class="errorbars"/><g class="lines"><path class="js-line" d="M324.67,207.88L163.68,92.59L158.59,99.82L149.43,114.93L145.38,122.78L138.36,138.96L135.41,147.27L130.66,164.24L128.87,172.86L126.47,190.3L125.87,199.08L125.87,216.69L126.47,225.47L128.87,242.91L130.66,251.53L135.41,268.5L138.36,276.81L145.38,292.99L149.43,300.84L158.59,315.94L163.68,323.18L174.81,336.94L180.83,343.44L193.74,355.6L200.59,361.24L215.04,371.59L222.6,376.27L238.33,384.61L246.46,388.25L263.17,394.44L271.73,396.97L289.13,400.89L297.95,402.26L315.74,403.84L324.67,404.04L324.67,207.88" style="vector-effect: none; fill: none; stroke: rgb(0, 0, 0); stroke-opacity: 0.5; stroke-width: 1px; opacity: 1;"/></g><g class="points"/><g class="text"/></g><g class="trace scatter trace441007" style="stroke-miterlimit: 2;"><g class="fills"><g><path class="js-fill" d="M324.67,207.88L324.67,207.88L324.67,207.88L324.67,404.04L331.04,403.94L350.11,402.43L356.43,401.52L375.14,397.62L381.29,395.93L399.34,389.7L405.22,387.25L422.32,378.8L427.82,375.62L443.69,365.08L448.74,361.24L463.1,348.79L467.61,344.35L480.25,330.18L484.14,325.21L494.84,309.57L498.05,304.14L506.63,287.28L509.12,281.49L515.44,263.7L517.15,257.64L521.11,239.19L522.03,232.97L523.56,214.17L523.66,207.88L324.67,207.88" style="fill: rgb(62, 164, 78); fill-opacity: 1; stroke-width: 0;"/></g></g><g class="errorbars"/><g class="lines"><path class="js-line" d="M324.67,207.88L324.67,404.04L331.04,403.94L350.11,402.43L356.43,401.52L375.14,397.62L381.29,395.93L399.34,389.7L405.22,387.25L422.32,378.8L427.82,375.62L443.69,365.08L448.74,361.24L463.1,348.79L467.61,344.35L480.25,330.18L484.14,325.21L494.84,309.57L498.05,304.14L506.63,287.28L509.12,281.49L515.44,263.7L517.15,257.64L521.11,239.19L522.03,232.97L523.56,214.17L523.66,207.88L324.67,207.88" style="vector-effect: none; fill: none; stroke: rgb(0, 0, 0); stroke-opacity: 0.5; stroke-width: 1px; opacity: 1;"/></g><g class="points"/><g class="text"/></g></g></g></g><path class="xlines-above crisp" d="M0,0" style="fill: none;"/><path class="ylines-above crisp" d="M0,0" style="fill: none;"/><g class="overlines-above"/><g class="xaxislayer-above"/><g class="yaxislayer-above"/><g class="overaxes-above"/></g></g><g class="polarlayer"/><g class="smithlayer"/><g class="ternarylayer"/><g class="geolayer"/><g class="funnelarealayer"/><g class="pielayer"/><g class="iciclelayer"/><g class="treemaplayer"/><g class="sunburstlayer"/><g class="glimages"/><defs id="topdefs-70c8c9"><g class="clips"/><clipPath id="legend70c8c9"><rect width="93" height="67" x="1" y="1"/></clipPath></defs><g class="layer-above"><g class="imagelayer"/><g class="shapelayer"/></g><g class="infolayer"><g class="legend" pointer-events="all" transform="translate(605,20)"><rect class="bg" shape-rendering="crispEdges" style="stroke: rgb(0, 0, 0); stroke-opacity: 1; fill: rgb(255, 255, 255); fill-opacity: 1; stroke-width: 1px;" width="94" height="68" x="0.5" y="0.5"/><g class="scrollbox" transform="" clip-path="url(#legend70c8c9)"><g class="groups"><g class="traces" transform="translate(1,15.5)" style="opacity: 1;"><text class="legendtext" text-anchor="start" x="40" y="4.29" style="font-family: sans-serif; font-size: 11px; fill: rgb(0, 0, 0); fill-opacity: 1; white-space: pre;">Nerds</text><g class="layers"><g class="legendfill"><path class="js-fill" d="M5,-2h30v6h-30z" style="stroke-width: 0; fill: rgb(0, 154, 250); fill-opacity: 1;"/></g><g class="legendlines"><path class="js-line" d="M5,-2h30" style="fill: none; stroke: rgb(0, 0, 0); stroke-opacity: 0.5; stroke-width: 1px;"/></g><g class="legendsymbols"><g class="legendpoints"/></g></g><rect class="legendtoggle" x="0" y="-9.5" width="87.578125" height="19" style="fill: rgb(0, 0, 0); fill-opacity: 0;"/></g><g class="traces" transform="translate(1,34.5)" style="opacity: 1;"><text class="legendtext" text-anchor="start" x="40" y="4.29" style="font-family: sans-serif; font-size: 11px; fill: rgb(0, 0, 0); fill-opacity: 1; white-space: pre;">Hackers</text><g class="layers"><g class="legendfill"><path class="js-fill" d="M5,-2h30v6h-30z" style="stroke-width: 0; fill: rgb(227, 111, 71); fill-opacity: 1;"/></g><g class="legendlines"><path class="js-line" d="M5,-2h30" style="fill: none; stroke: rgb(0, 0, 0); stroke-opacity: 0.5; stroke-width: 1px;"/></g><g class="legendsymbols"><g class="legendpoints"/></g></g><rect class="legendtoggle" x="0" y="-9.5" width="87.578125" height="19" style="fill: rgb(0, 0, 0); fill-opacity: 0;"/></g><g class="traces" transform="translate(1,53.5)" style="opacity: 1;"><text class="legendtext" text-anchor="start" x="40" y="4.29" style="font-family: sans-serif; font-size: 11px; fill: rgb(0, 0, 0); fill-opacity: 1; white-space: pre;">Scientists</text><g class="layers"><g class="legendfill"><path class="js-fill" d="M5,-2h30v6h-30z" style="stroke-width: 0; fill: rgb(62, 164, 78); fill-opacity: 1;"/></g><g class="legendlines"><path class="js-line" d="M5,-2h30" style="fill: none; stroke: rgb(0, 0, 0); stroke-opacity: 0.5; stroke-width: 1px;"/></g><g class="legendsymbols"><g class="legendpoints"/></g></g><rect class="legendtoggle" x="0" y="-9.5" width="87.578125" height="19" style="fill: rgb(0, 0, 0); fill-opacity: 0;"/></g></g></g><rect class="scrollbar" rx="20" ry="3" width="0" height="0" style="fill: rgb(128, 139, 164); fill-opacity: 1;" x="0" y="0"/></g><g class="g-gtitle"/><g class="annotation" data-index="0" style="opacity: 1;"><g class="annotation-text-g" transform="rotate(0,370.7407407407407,33.00000000000001)"><g class="cursor-pointer" transform="translate(275,20)"><rect class="bg" x="0.5" y="0.5" width="191" height="25" style="stroke-width: 1px; stroke: rgb(0, 0, 0); stroke-opacity: 0; fill: rgb(0, 0, 0); fill-opacity: 0;"/><text class="annotation-text" text-anchor="middle" x="95.921875" y="20" style="font-family: sans-serif; font-size: 20px; fill: rgb(0, 0, 0); fill-opacity: 1; white-space: pre;">The Julia Community</text></g></g></g></g></svg>