<svg class="main-svg" xmlns="http://www.w3.org/2000/svg" xmlns:xlink="http://www.w3.org/1999/xlink" width="700" height="500" style="" viewBox="0 0 700 500"><rect x="0" y="0" width="700" height="500" style="fill: rgb(255, 255, 255); fill-opacity: 1;"/><defs id="defs-05387a"><g class="clips"><clipPath id="clip05387axyplot" class="plotclip"><rect width="648.3933508311461" height="433.4044181977253"/></clipPath><clipPath class="axesclip" id="clip05387ax"><rect x="47.09221347331584" y="0" width="648.3933508311461" height="500"/></clipPath><clipPath class="axesclip" id="clip05387ay"><rect x="0" y="24.478346456692904" width="700" height="433.4044181977253"/></clipPath><clipPath class="axesclip" id="clip05387axy"><rect x="47.09221347331584" y="24.478346456692904" width="648.3933508311461" height="433.4044181977253"/></clipPath></g><g class="gradients"/><g class="patterns"/></defs><g class="bglayer"/><g class="layer-below"><g class="imagelayer"/><g class="shapelayer"/></g><g class="cartesianlayer"><g class="subplot xy"><g class="layer-subplot"><g class="shapelayer"/><g class="imagelayer"/></g><g class="minor-gridlayer"><g class="x"/><g class="y"/></g><g class="gridlayer"><g class="x"><path class="xgrid crisp" transform="translate(165.19221347331583,0)" d="M0,24.478346456692904v433.4044181977253" style="stroke: rgb(0, 0, 0); stroke-opacity: 0.1; stroke-width: 0.5px;"/><path class="xgrid crisp" transform="translate(330.07221347331586,0)" d="M0,24.478346456692904v433.4044181977253" style="stroke: rgb(0, 0, 0); stroke-opacity: 0.1; stroke-width: 0.5px;"/><path class="xgrid crisp" transform="translate(494.94221347331586,0)" d="M0,24.478346456692904v433.4044181977253" style="stroke: rgb(0, 0, 0); stroke-opacity: 0.1; stroke-width: 0.5px;"/><path class="xgrid crisp" transform="translate(659.8222134733159,0)" d="M0,24.478346456692904v433.4044181977253" style="stroke: rgb(0, 0, 0); stroke-opacity: 0.1; stroke-width: 0.5px;"/></g><g class="y"><path class="ygrid crisp" transform="translate(0,382.76834645669294)" d="M47.09221347331584,0h648.3933508311461" style="stroke: rgb(0, 0, 0); stroke-opacity: 0.1; stroke-width: 0.5px;"/><path class="ygrid crisp" transform="translate(0,307.6583464566929)" d="M47.09221347331584,0h648.3933508311461" style="stroke: rgb(0, 0, 0); stroke-opacity: 0.1; stroke-width: 0.5px;"/><path class="ygrid crisp" transform="translate(0,232.53834645669292)" d="M47.09221347331584,0h648.3933508311461" style="stroke: rgb(0, 0, 0); stroke-opacity: 0.1; stroke-width: 0.5px;"/><path class="ygrid crisp" transform="translate(0,157.4283464566929)" d="M47.09221347331584,0h648.3933508311461" style="stroke: rgb(0, 0, 0); stroke-opacity: 0.1; stroke-width: 0.5px;"/><path class="ygrid crisp" transform="translate(0,82.31834645669291)" d="M47.09221347331584,0h648.3933508311461" style="stroke: rgb(0, 0, 0); stroke-opacity: 0.1; stroke-width: 0.5px;"/></g></g><g class="zerolinelayer"/><g class="layer-between"><g class="shapelayer"/><g class="imagelayer"/></g><path class="xlines-below"/><path class="ylines-below"/><g class="overlines-below"/><g class="xaxislayer-below"/><g class="yaxislayer-below"/><g class="overaxes-below"/><g class="overplot"><g class="xy" transform="translate(47.09221347331584,24.478346456692904)" clip-path="url(#clip05387axyplot)"><g class="scatterlayer mlayer"><g class="trace scatter tracee1c6a4" style="stroke-miterlimit: 2;"><g class="fills"><g><path class="js-fill" d="M35.66,433.4L35.66,433.4L35.66,413.87L35.66,433.4L76.88,433.4L76.88,413.87L35.66,413.87L35.66,413.87" style="fill: rgb(0, 154, 250); fill-opacity: 1; stroke-width: 0;"/></g></g><g class="errorbars"/><g class="lines"><path class="js-line" d="M35.66,413.87L35.66,433.4L76.88,433.4L76.88,413.87L35.66,413.87L35.66,413.87" style="vector-effect: none; fill: none; stroke: rgb(0, 0, 0); stroke-opacity: 1; stroke-width: 1px; opacity: 1;"/></g><g class="points"/><g class="text"/></g><g class="trace scatter tracea53591" style="stroke-miterlimit: 2;"><g class="fills"><g><path class="js-fill" d="M76.88,433.4L76.88,433.4L76.88,397.35L76.88,433.4L118.1,433.4L118.1,397.35L76.88,397.35L76.88,397.35" style="fill: rgb(0, 154, 250); fill-opacity: 1; stroke-width: 0;"/></g></g><g class="errorbars"/><g class="lines"><path class="js-line" d="M76.88,397.35L76.88,433.4L118.1,433.4L118.1,397.35L76.88,397.35L76.88,397.35" style="vector-effect: none; fill: none; stroke: rgb(0, 0, 0); stroke-opacity: 1; stroke-width: 1px; opacity: 1;"/></g><g class="points"/><g class="text"/></g><g class="trace scatter trace81af7a" style="stroke-miterlimit: 2;"><g class="fills"><g><path class="js-fill" d="M118.1,433.4L118.1,433.4L118.1,316.98L118.1,433.4L159.32,433.4L159.32,316.98L118.1,316.98L118.1,316.98" style="fill: rgb(0, 154, 250); fill-opacity: 1; stroke-width: 0;"/></g></g><g class="errorbars"/><g class="lines"><path class="js-line" d="M118.1,316.98L118.1,433.4L159.32,433.4L159.32,316.98L118.1,316.98L118.1,316.98" style="vector-effect: none; fill: none; stroke: rgb(0, 0, 0); stroke-opacity: 1; stroke-width: 1px; opacity: 1;"/></g><g class="points"/><g class="text"/></g><g class="trace scatter trace8cd9db" style="stroke-miterlimit: 2;"><g class="fills"><g><path class="js-fill" d="M159.32,433.4L159.32,433.4L159.32,220.83L159.32,433.4L200.54,433.4L200.54,220.83L159.32,220.83L159.32,220.83" style="fill: rgb(0, 154, 250); fill-opacity: 1; stroke-width: 0;"/></g></g><g class="errorbars"/><g class="lines"><path class="js-line" d="M159.32,220.83L159.32,433.4L200.54,433.4L200.54,220.83L159.32,220.83L159.32,220.83" style="vector-effect: none; fill: none; stroke: rgb(0, 0, 0); stroke-opacity: 1; stroke-width: 1px; opacity: 1;"/></g><g class="points"/><g class="text"/></g><g class="trace scatter trace1584e7" style="stroke-miterlimit: 2;"><g class="fills"><g><path class="js-fill" d="M200.54,433.4L200.54,433.4L200.54,68.35L200.54,433.4L241.76,433.4L241.76,68.35L200.54,68.35L200.54,68.35" style="fill: rgb(0, 154, 250); fill-opacity: 1; stroke-width: 0;"/></g></g><g class="errorbars"/><g class="lines"><path class="js-line" d="M200.54,68.35L200.54,433.4L241.76,433.4L241.76,68.35L200.54,68.35L200.54,68.35" style="vector-effect: none; fill: none; stroke: rgb(0, 0, 0); stroke-opacity: 1; stroke-width: 1px; opacity: 1;"/></g><g class="points"/><g class="text"/></g><g class="trace scatter trace20e756" style="stroke-miterlimit: 2;"><g class="fills"><g><path class="js-fill" d="M241.76,433.4L241.76,433.4L241.76,42.81L241.76,433.4L282.98,433.4L282.98,42.81L241.76,42.81L241.76,42.81" style="fill: rgb(0, 154, 250); fill-opacity: 1; stroke-width: 0;"/></g></g><g class="errorbars"/><g class="lines"><path class="js-line" d="M241.76,42.81L241.76,433.4L282.98,433.4L282.98,42.81L241.76,42.81L241.76,42.81" style="vector-effect: none; fill: none; stroke: rgb(0, 0, 0); stroke-opacity: 1; stroke-width: 1px; opacity: 1;"/></g><g class="points"/><g class="text"/></g><g class="trace scatter traced6aef2" style="stroke-miterlimit: 2;"><g class="fills"><g><path class="js-fill" d="M282.98,433.4L282.98,433.4L282.98,0L282.98,433.4L324.2,433.4L324.2,0L282.98,0L282.98,0" style="fill: rgb(0, 154, 250); fill-opacity: 1; stroke-width: 0;"/></g></g><g class="errorbars"/><g class="lines"><path class="js-line" d="M282.98,0L282.98,433.4L324.2,433.4L324.2,0L282.98,0L282.98,0" style="vector-effect: none; fill: none; stroke: rgb(0, 0, 0); stroke-opacity: 1; stroke-width: 1px; opacity: 1;"/></g><g class="points"/><g class="text"/></g><g class="trace scatter tracec4f50c" style="stroke-miterlimit: 2;"><g class="fills"><g><path class="js-fill" d="M324.2,433.4L324.2,433.4L324.2,82.62L324.2,433.4L365.42,433.4L365.42,82.62L324.2,82.62L324.2,82.62" style="fill: rgb(0, 154, 250); fill-opacity: 1; stroke-width: 0;"/></g></g><g class="errorbars"/><g class="lines"><path class="js-line" d="M324.2,82.62L324.2,433.4L365.42,433.4L365.42,82.62L324.2,82.62L324.2,82.62" style="vector-effect: none; fill: none; stroke: rgb(0, 0, 0); stroke-opacity: 1; stroke-width: 1px; opacity: 1;"/></g><g class="points"/><g class="text"/></g><g class="trace scatter trace6e019c" style="stroke-miterlimit: 2;"><g class="fills"><g><path class="js-fill" d="M365.42,433.4L365.42,433.4L365.42,247.12L365.42,433.4L406.63,433.4L406.63,247.12L365.42,247.12L365.42,247.12" style="fill: rgb(0, 154, 250); fill-opacity: 1; stroke-width: 0;"/></g></g><g class="errorbars"/><g class="lines"><path class="js-line" d="M365.42,247.12L365.42,433.4L406.63,433.4L406.63,247.12L365.42,247.12L365.42,247.12" style="vector-effect: none; fill: none; stroke: rgb(0, 0, 0); stroke-opacity: 1; stroke-width: 1px; opacity: 1;"/></g><g class="points"/><g class="text"/></g><g class="trace scatter tracea98675" style="stroke-miterlimit: 2;"><g class="fills"><g><path class="js-fill" d="M406.63,433.4L406.63,433.4L406.63,335.01L406.63,433.4L447.85,433.4L447.85,335.01L406.63,335.01L406.63,335.01" style="fill: rgb(0, 154, 250); fill-opacity: 1; stroke-width: 0;"/></g></g><g class="errorbars"/><g class="lines"><path class="js-line" d="M406.63,335.01L406.63,433.4L447.85,433.4L447.85,335.01L406.63,335.01L406.63,335.01" style="vector-effect: none; fill: none; stroke: rgb(0, 0, 0); stroke-opacity: 1; stroke-width: 1px; opacity: 1;"/></g><g class="points"/><g class="text"/></g><g class="trace scatter trace550c4a" style="stroke-miterlimit: 2;"><g class="fills"><g><path class="js-fill" d="M447.85,433.4L447.85,433.4L447.85,406.36L447.85,433.4L489.07,433.4L489.07,406.36L447.85,406.36L447.85,406.36" style="fill: rgb(0, 154, 250); fill-opacity: 1; stroke-width: 0;"/></g></g><g class="errorbars"/><g class="lines"><path class="js-line" d="M447.85,406.36L447.85,433.4L489.07,433.4L489.07,406.36L447.85,406.36L447.85,406.36" style="vector-effect: none; fill: none; stroke: rgb(0, 0, 0); stroke-opacity: 1; stroke-width: 1px; opacity: 1;"/></g><g class="points"/><g class="text"/></g><g class="trace scatter traceb5d96e" style="stroke-miterlimit: 2;"><g class="fills"><g><path class="js-fill" d="M489.07,433.4L489.07,433.4L489.07,420.64L489.07,433.4L530.29,433.4L530.29,420.64L489.07,420.64L489.07,420.64" style="fill: rgb(0, 154, 250); fill-opacity: 1; stroke-width: 0;"/></g></g><g class="errorbars"/><g class="lines"><path class="js-line" d="M489.07,420.64L489.07,433.4L530.29,433.4L530.29,420.64L489.07,420.64L489.07,420.64" style="vector-effect: none; fill: none; stroke: rgb(0, 0, 0); stroke-opacity: 1; stroke-width: 1px; opacity: 1;"/></g><g class="points"/><g class="text"/></g><g class="trace scatter trace98543d" style="stroke-miterlimit: 2;"><g class="fills"><g><path class="js-fill" d="M530.29,433.4L530.29,433.4L530.29,431.9L530.29,433.4L571.51,433.4L571.51,431.9L530.29,431.9L530.29,431.9" style="fill: rgb(0, 154, 250); fill-opacity: 1; stroke-width: 0;"/></g></g><g class="errorbars"/><g class="lines"><path class="js-line" d="M530.29,431.9L530.29,433.4L571.51,433.4L571.51,431.9L530.29,431.9L530.29,431.9" style="vector-effect: none; fill: none; stroke: rgb(0, 0, 0); stroke-opacity: 1; stroke-width: 1px; opacity: 1;"/></g><g class="points"/><g class="text"/></g><g class="trace scatter trace4a0fd4" style="stroke-miterlimit: 2;"><g class="fills"><g><path class="js-fill" d="M571.51,433.4L571.51,433.4L571.51,430.4L571.51,433.4L612.73,433.4L612.73,430.4L571.51,430.4L571.51,430.4" style="fill: rgb(0, 154, 250); fill-opacity: 1; stroke-width: 0;"/></g></g><g class="errorbars"/><g class="lines"><path class="js-line" d="M571.51,430.4L571.51,433.4L612.73,433.4L612.73,430.4L571.51,430.4L571.51,430.4" style="vector-effect: none; fill: none; stroke: rgb(0, 0, 0); stroke-opacity: 1; stroke-width: 1px; opacity: 1;"/></g><g class="points"/><g class="text"/></g><g class="trace scatter trace6da475" style="stroke-miterlimit: 2; opacity: 1;"><g class="fills"/><g class="errorbars"/><g class="lines"/><g class="points"><path class="point" transform="translate(56.27,413.87)" d="M3,0A3,3 0 1,1 0,-3A3,3 0 0,1 3,0Z" style="opacity: 1; stroke-width: 1px; fill: rgb(0, 154, 250); fill-opacity: 0; stroke: rgb(0, 0, 0); stroke-opacity: 0;"/><path class="point" transform="translate(97.49,397.35)" d="M3,0A3,3 0 1,1 0,-3A3,3 0 0,1 3,0Z" style="opacity: 1; stroke-width: 1px; fill: rgb(0, 154, 250); fill-opacity: 0; stroke: rgb(0, 0, 0); stroke-opacity: 0;"/><path class="point" transform="translate(138.71,316.98)" d="M3,0A3,3 0 1,1 0,-3A3,3 0 0,1 3,0Z" style="opacity: 1; stroke-width: 1px; fill: rgb(0, 154, 250); fill-opacity: 0; stroke: rgb(0, 0, 0); stroke-opacity: 0;"/><path class="point" transform="translate(179.93,220.83)" d="M3,0A3,3 0 1,1 0,-3A3,3 0 0,1 3,0Z" style="opacity: 1; stroke-width: 1px; fill: rgb(0, 154, 250); fill-opacity: 0; stroke: rgb(0, 0, 0); stroke-opacity: 0;"/><path class="point" transform="translate(221.15,68.35)" d="M3,0A3,3 0 1,1 0,-3A3,3 0 0,1 3,0Z" style="opacity: 1; stroke-width: 1px; fill: rgb(0, 154, 250); fill-opacity: 0; stroke: rgb(0, 0, 0); stroke-opacity: 0;"/><path class="point" transform="translate(262.37,42.81)" d="M3,0A3,3 0 1,1 0,-3A3,3 0 0,1 3,0Z" style="opacity: 1; stroke-width: 1px; fill: rgb(0, 154, 250); fill-opacity: 0; stroke: rgb(0, 0, 0); stroke-opacity: 0;"/><path class="point" transform="translate(303.59,0)" d="M3,0A3,3 0 1,1 0,-3A3,3 0 0,1 3,0Z" style="opacity: 1; stroke-width: 1px; fill: rgb(0, 154, 250); fill-opacity: 0; stroke: rgb(0, 0, 0); stroke-opacity: 0;"/><path class="point" transform="translate(344.81,82.62)" d="M3,0A3,3 0 1,1 0,-3A3,3 0 0,1 3,0Z" style="opacity: 1; stroke-width: 1px; fill: rgb(0, 154, 250); fill-opacity: 0; stroke: rgb(0, 0, 0); stroke-opacity: 0;"/><path class="point" transform="translate(386.03,247.12)" d="M3,0A3,3 0 1,1 0,-3A3,3 0 0,1 3,0Z" style="opacity: 1; stroke-width: 1px; fill: rgb(0, 154, 250); fill-opacity: 0; stroke: rgb(0, 0, 0); stroke-opacity: 0;"/><path class="point" transform="translate(427.24,335.01)" d="M3,0A3,3 0 1,1 0,-3A3,3 0 0,1 3,0Z" style="opacity: 1; stroke-width: 1px; fill: rgb(0, 154, 250); fill-opacity: 0; stroke: rgb(0, 0, 0); stroke-opacity: 0;"/><path class="point" transform="translate(468.46,406.36)" d="M3,0A3,3 0 1,1 0,-3A3,3 0 0,1 3,0Z" style="opacity: 1; stroke-width: 1px; fill: rgb(0, 154, 250); fill-opacity: 0; stroke: rgb(0, 0, 0); stroke-opacity: 0;"/><path class="point" transform="translate(509.68,420.64)" d="M3,0A3,3 0 1,1 0,-3A3,3 0 0,1 3,0Z" style="opacity: 1; stroke-width: 1px; fill: rgb(0, 154, 250); fill-opacity: 0; stroke: rgb(0, 0, 0); stroke-opacity: 0;"/><path class="point" transform="translate(550.9,431.9)" d="M3,0A3,3 0 1,1 0,-3A3,3 0 0,1 3,0Z" style="opacity: 1; stroke-width: 1px; fill: rgb(0, 154, 250); fill-opacity: 0; stroke: rgb(0, 0, 0); stroke-opacity: 0;"/><path class="point" transform="translate(592.12,430.4)" d="M3,0A3,3 0 1,1 0,-3A3,3 0 0,1 3,0Z" style="opacity: 1; stroke-width: 1px; fill: rgb(0, 154, 250); fill-opacity: 0; stroke: rgb(0, 0, 0); stroke-opacity: 0;"/></g><g class="text"/></g></g></g></g><path class="xlines-above crisp" d="M46.09221347331584,458.3827646544182H695.485564304462" style="fill: none; stroke-width: 1px; stroke: rgb(0, 0, 0); stroke-opacity: 1;"/><path class="ylines-above crisp" d="M46.59221347331584,24.478346456692904V457.8827646544182" style="fill: none; stroke-width: 1px; stroke: rgb(0, 0, 0); stroke-opacity: 1;"/><g class="overlines-above"/><g class="xaxislayer-above"><path class="xtick ticks crisp" d="M0,457.8827646544182v-5" transform="translate(165.19221347331583,0)" style="stroke: rgb(0, 0, 0); stroke-opacity: 1; stroke-width: 1px;"/><path class="xtick ticks crisp" d="M0,457.8827646544182v-5" transform="translate(330.07221347331586,0)" style="stroke: rgb(0, 0, 0); stroke-opacity: 1; stroke-width: 1px;"/><path class="xtick ticks crisp" d="M0,457.8827646544182v-5" transform="translate(494.94221347331586,0)" style="stroke: rgb(0, 0, 0); stroke-opacity: 1; stroke-width: 1px;"/><path class="xtick ticks crisp" d="M0,457.8827646544182v-5" transform="translate(659.8222134733159,0)" style="stroke: rgb(0, 0, 0); stroke-opacity: 1; stroke-width: 1px;"/><g class="xtick"><text text-anchor="middle" x="0" y="472.0827646544182" transform="translate(165.19221347331583,0)" style="font-family: sans-serif; font-size: 11px; fill: rgb(0, 0, 0); fill-opacity: 1; white-space: pre; opacity: 1;">-2</text></g><g class="xtick"><text text-anchor="middle" x="0" y="472.0827646544182" style="font-family: sans-serif; font-size: 11px; fill: rgb(0, 0, 0); fill-opacity: 1; white-space: pre; opacity: 1;" transform="translate(330.07221347331586,0)">0</text></g><g class="xtick"><text text-anchor="middle" x="0" y="472.0827646544182" style="font-family: sans-serif; font-size: 11px; fill: rgb(0, 0, 0); fill-opacity: 1; white-space: pre; opacity: 1;" transform="translate(494.94221347331586,0)">2</text></g><g class="xtick"><text text-anchor="middle" x="0" y="472.0827646544182" style="font-family: sans-serif; font-size: 11px; fill: rgb(0, 0, 0); fill-opacity: 1; white-space: pre; opacity: 1;" transform="translate(659.8222134733159,0)">4</text></g></g><g class="yaxislayer-above"><path class="ytick ticks crisp" d="M47.09221347331584,0h5" transform="translate(0,382.76834645669294)" style="stroke: rgb(0, 0, 0); stroke-opacity: 1; stroke-width: 1px;"/><path class="ytick ticks crisp" d="M47.09221347331584,0h5" transform="translate(0,307.6583464566929)" style="stroke: rgb(0, 0, 0); stroke-opacity: 1; stroke-width: 1px;"/><path class="ytick ticks crisp" d="M47.09221347331584,0h5" transform="translate(0,232.53834645669292)" style="stroke: rgb(0, 0, 0); stroke-opacity: 1; stroke-width: 1px;"/><path class="ytick ticks crisp" d="M47.09221347331584,0h5" transform="translate(0,157.4283464566929)" style="stroke: rgb(0, 0, 0); stroke-opacity: 1; stroke-width: 1px;"/><path class="ytick ticks crisp" d="M47.09221347331584,0h5" transform="translate(0,82.31834645669291)" style="stroke: rgb(0, 0, 0); stroke-opacity: 1; stroke-width: 1px;"/><g class="ytick"><text text-anchor="end" x="43.892213473315834" y="3.8499999999999996" transform="translate(0,457.8783464566929)" style="font-family: sans-serif; font-size: 11px; fill: rgb(0, 0, 0); fill-opacity: 1; white-space: pre; opacity: 1;">0</text></g><g class="ytick"><text text-anchor="end" x="43.892213473315834" y="3.8499999999999996" style="font-family: sans-serif; font-size: 11px; fill: rgb(0, 0, 0); fill-opacity: 1; white-space: pre; opacity: 1;" transform="translate(0,382.76834645669294)">100</text></g><g class="ytick"><text text-anchor="end" x="43.892213473315834" y="3.8499999999999996" style="font-family: sans-serif; font-size: 11px; fill: rgb(0, 0, 0); fill-opacity: 1; white-space: pre; opacity: 1;" transform="translate(0,307.6583464566929)">200</text></g><g class="ytick"><text text-anchor="end" x="43.892213473315834" y="3.8499999999999996" style="font-family: sans-serif; font-size: 11px; fill: rgb(0, 0, 0); fill-opacity: 1; white-space: pre; opacity: 1;" transform="translate(0,232.53834645669292)">300</text></g><g class="ytick"><text text-anchor="end" x="43.892213473315834" y="3.8499999999999996" style="font-family: sans-serif; font-size: 11px; fill: rgb(0, 0, 0); fill-opacity: 1; white-space: pre; opacity: 1;" transform="translate(0,157.4283464566929)">400</text></g><g class="ytick"><text text-anchor="end" x="43.892213473315834" y="3.8499999999999996" style="font-family: sans-serif; font-size: 11px; fill: rgb(0, 0, 0); fill-opacity: 1; white-space: pre; opacity: 1;" transform="translate(0,82.31834645669291)">500</text></g></g><g class="overaxes-above"/></g></g><g class="polarlayer"/><g class="smithlayer"/><g class="ternarylayer"/><g class="geolayer"/><g class="funnelarealayer"/><g class="pielayer"/><g class="iciclelayer"/><g class="treemaplayer"/><g class="sunburstlayer"/><g class="glimages"/><defs id="topdefs-05387a"><g class="clips"/><clipPath id="legend05387a"><rect width="57" height="29" x="1" y="1"/></clipPath></defs><g class="layer-above"><g class="imagelayer"/><g class="shapelayer"/></g><g class="infolayer"><g class="legend" pointer-events="all" transform="translate(641,20)"><rect class="bg" shape-rendering="crispEdges" width="58" height="30" x="0.5" y="0.5" style="stroke: rgb(0, 0, 0); stroke-opacity: 1; fill: rgb(255, 255, 255); fill-opacity: 1; stroke-width: 1px;"/><g class="scrollbox" transform="" clip-path="url(#legend05387a)"><g class="groups"><g class="traces" transform="translate(1,15.5)" style="opacity: 1;"><text class="legendtext" text-anchor="start" x="40" y="4.29" style="font-family: sans-serif; font-size: 11px; fill: rgb(0, 0, 0); fill-opacity: 1; white-space: pre;">y1</text><g class="layers"><g class="legendfill"><path class="js-fill" d="M5,-2h30v6h-30z" style="stroke-width: 0; fill: rgb(0, 154, 250); fill-opacity: 1;"/></g><g class="legendlines"><path class="js-line" d="M5,-2h30" style="fill: none; stroke: rgb(0, 0, 0); stroke-opacity: 1; stroke-width: 1px;"/></g><g class="legendsymbols"><g class="legendpoints"/></g></g><rect class="legendtoggle" x="0" y="-9.5" width="51.625" height="19" style="fill: rgb(0, 0, 0); fill-opacity: 0;"/></g></g></g><rect class="scrollbar" rx="20" ry="3" width="0" height="0" x="0" y="0" style="fill: rgb(128, 139, 164); fill-opacity: 1;"/></g><g class="g-gtitle"/><g class="g-xtitle"/><g class="g-ytitle"/></g></svg>