<svg class="main-svg" xmlns="http://www.w3.org/2000/svg" xmlns:xlink="http://www.w3.org/1999/xlink" width="700" height="500" style="" viewBox="0 0 700 500"><rect x="0" y="0" width="700" height="500" style="fill: rgb(255, 255, 255); fill-opacity: 1;"/><defs id="defs-eaccfd"><g class="clips"><clipPath id="clipeaccfdxyplot" class="plotclip"><rect width="240.16678331875187" height="183.55383311461068"/></clipPath><clipPath id="clipeaccfdx2y2plot" class="plotclip"><rect width="240.16678331875187" height="183.55383311461068"/></clipPath><clipPath id="clipeaccfdx3y3plot" class="plotclip"><rect width="240.16678331875187" height="183.55383311461068"/></clipPath><clipPath id="clipeaccfdx4y4plot" class="plotclip"><rect width="240.16678331875187" height="183.55383311461068"/></clipPath><clipPath class="axesclip" id="clipeaccfdx"><rect x="60.91660834062408" y="0" width="240.16678331875187" height="500"/></clipPath><clipPath class="axesclip" id="clipeaccfdy"><rect x="0" y="24.360236220472434" width="700" height="183.55383311461068"/></clipPath><clipPath class="axesclip" id="clipeaccfdxy"><rect x="60.91660834062408" y="24.360236220472434" width="240.16678331875187" height="183.55383311461068"/></clipPath><clipPath class="axesclip" id="clipeaccfdy2"><rect x="0" y="24.360236220472434" width="700" height="183.55383311461068"/></clipPath><clipPath class="axesclip" id="clipeaccfdxy2"><rect x="60.91660834062408" y="24.360236220472434" width="240.16678331875187" height="183.55383311461068"/></clipPath><clipPath class="axesclip" id="clipeaccfdy3"><rect x="0" y="275.08593066491693" width="700" height="183.55383311461068"/></clipPath><clipPath class="axesclip" id="clipeaccfdxy3"><rect x="60.91660834062408" y="275.08593066491693" width="240.16678331875187" height="183.55383311461068"/></clipPath><clipPath class="axesclip" id="clipeaccfdy4"><rect x="0" y="275.08593066491693" width="700" height="183.55383311461068"/></clipPath><clipPath class="axesclip" id="clipeaccfdxy4"><rect x="60.91660834062408" y="275.08593066491693" width="240.16678331875187" height="183.55383311461068"/></clipPath><clipPath class="axesclip" id="clipeaccfdx2"><rect x="406.91660834062407" y="0" width="240.16678331875187" height="500"/></clipPath><clipPath class="axesclip" id="clipeaccfdx2y"><rect x="406.91660834062407" y="24.360236220472434" width="240.16678331875187" height="183.55383311461068"/></clipPath><clipPath class="axesclip" id="clipeaccfdx2y2"><rect x="406.91660834062407" y="24.360236220472434" width="240.16678331875187" height="183.55383311461068"/></clipPath><clipPath class="axesclip" id="clipeaccfdx2y3"><rect x="406.91660834062407" y="275.08593066491693" width="240.16678331875187" height="183.55383311461068"/></clipPath><clipPath class="axesclip" id="clipeaccfdx2y4"><rect x="406.91660834062407" y="275.08593066491693" width="240.16678331875187" height="183.55383311461068"/></clipPath><clipPath class="axesclip" id="clipeaccfdx3"><rect x="60.91660834062408" y="0" width="240.16678331875187" height="500"/></clipPath><clipPath class="axesclip" id="clipeaccfdx3y"><rect x="60.91660834062408" y="24.360236220472434" width="240.16678331875187" height="183.55383311461068"/></clipPath><clipPath class="axesclip" id="clipeaccfdx3y2"><rect x="60.91660834062408" y="24.360236220472434" width="240.16678331875187" height="183.55383311461068"/></clipPath><clipPath class="axesclip" id="clipeaccfdx3y3"><rect x="60.91660834062408" y="275.08593066491693" width="240.16678331875187" height="183.55383311461068"/></clipPath><clipPath class="axesclip" id="clipeaccfdx3y4"><rect x="60.91660834062408" y="275.08593066491693" width="240.16678331875187" height="183.55383311461068"/></clipPath><clipPath class="axesclip" id="clipeaccfdx4"><rect x="406.91660834062407" y="0" width="240.16678331875187" height="500"/></clipPath><clipPath class="axesclip" id="clipeaccfdx4y"><rect x="406.91660834062407" y="24.360236220472434" width="240.16678331875187" height="183.55383311461068"/></clipPath><clipPath class="axesclip" id="clipeaccfdx4y2"><rect x="406.91660834062407" y="24.360236220472434" width="240.16678331875187" height="183.55383311461068"/></clipPath><clipPath class="axesclip" id="clipeaccfdx4y3"><rect x="406.91660834062407" y="275.08593066491693" width="240.16678331875187" height="183.55383311461068"/></clipPath><clipPath class="axesclip" id="clipeaccfdx4y4"><rect x="406.91660834062407" y="275.08593066491693" width="240.16678331875187" height="183.55383311461068"/></clipPath></g><g class="gradients"/><g class="patterns"/></defs><g class="bglayer"/><g class="layer-below"><g class="imagelayer"/><g class="shapelayer"/></g><g class="cartesianlayer"><g class="subplot xy"><g class="layer-subplot"><g class="shapelayer"/><g class="imagelayer"/></g><g class="minor-gridlayer"><g class="x"/><g class="y"/></g><g class="gridlayer"><g class="x"><path class="xgrid crisp" transform="translate(115.56660834062407,0)" d="M0,24.360236220472434v183.55383311461068" style="stroke: rgb(0, 0, 0); stroke-opacity: 0.1; stroke-width: 0.5px;"/><path class="xgrid crisp" transform="translate(170.09660834062407,0)" d="M0,24.360236220472434v183.55383311461068" style="stroke: rgb(0, 0, 0); stroke-opacity: 0.1; stroke-width: 0.5px;"/><path class="xgrid crisp" transform="translate(224.6266083406241,0)" d="M0,24.360236220472434v183.55383311461068" style="stroke: rgb(0, 0, 0); stroke-opacity: 0.1; stroke-width: 0.5px;"/><path class="xgrid crisp" transform="translate(279.1466083406241,0)" d="M0,24.360236220472434v183.55383311461068" style="stroke: rgb(0, 0, 0); stroke-opacity: 0.1; stroke-width: 0.5px;"/></g><g class="y"><path class="ygrid crisp" transform="translate(0,165.79023622047245)" d="M60.91660834062408,0h240.16678331875187" style="stroke: rgb(0, 0, 0); stroke-opacity: 0.1; stroke-width: 0.5px;"/><path class="ygrid crisp" transform="translate(0,123.67023622047243)" d="M60.91660834062408,0h240.16678331875187" style="stroke: rgb(0, 0, 0); stroke-opacity: 0.1; stroke-width: 0.5px;"/><path class="ygrid crisp" transform="translate(0,81.54023622047244)" d="M60.91660834062408,0h240.16678331875187" style="stroke: rgb(0, 0, 0); stroke-opacity: 0.1; stroke-width: 0.5px;"/><path class="ygrid crisp" transform="translate(0,39.42023622047243)" d="M60.91660834062408,0h240.16678331875187" style="stroke: rgb(0, 0, 0); stroke-opacity: 0.1; stroke-width: 0.5px;"/></g></g><g class="zerolinelayer"/><g class="layer-between"><g class="shapelayer"/><g class="imagelayer"/></g><path class="xlines-below"/><path class="ylines-below"/><g class="overlines-below"/><g class="xaxislayer-below"/><g class="yaxislayer-below"/><g class="overaxes-below"/><g class="overplot"><g class="xy" transform="translate(60.91660834062408,24.360236220472434)" clip-path="url(#clipeaccfdxyplot)"><g class="scatterlayer mlayer"><g class="trace scatter trace0cbfaf" style="stroke-miterlimit: 2;"><g class="fills"><g><path class="js-fill" d="M13.21,183.55L13.21,183.55L13.21,53.98L13.21,183.55L30.66,183.55L30.66,53.98L13.21,53.98L13.21,53.98" style="fill: rgb(0, 154, 250); fill-opacity: 1; stroke-width: 0;"/></g></g><g class="errorbars"/><g class="lines"><path class="js-line" d="M13.21,53.98L13.21,183.55L30.66,183.55L30.66,53.98L13.21,53.98L13.21,53.98" style="vector-effect: none; fill: none; stroke: rgb(0, 0, 0); stroke-opacity: 1; stroke-width: 1px; opacity: 1;"/></g><g class="points"/><g class="text"/></g><g class="trace scatter traced013ba" style="stroke-miterlimit: 2;"><g class="fills"><g><path class="js-fill" d="M35.02,183.55L35.02,183.55L35.02,46.84L35.02,183.55L52.47,183.55L52.47,46.84L35.02,46.84L35.02,46.84" style="fill: rgb(0, 154, 250); fill-opacity: 1; stroke-width: 0;"/></g></g><g class="errorbars"/><g class="lines"><path class="js-line" d="M35.02,46.84L35.02,183.55L52.47,183.55L52.47,46.84L35.02,46.84L35.02,46.84" style="vector-effect: none; fill: none; stroke: rgb(0, 0, 0); stroke-opacity: 1; stroke-width: 1px; opacity: 1;"/></g><g class="points"/><g class="text"/></g><g class="trace scatter traced86db2" style="stroke-miterlimit: 2;"><g class="fills"><g><path class="js-fill" d="M56.83,183.55L56.83,183.55L56.83,18.21L56.83,183.55L74.28,183.55L74.28,18.21L56.83,18.21L56.83,18.21" style="fill: rgb(0, 154, 250); fill-opacity: 1; stroke-width: 0;"/></g></g><g class="errorbars"/><g class="lines"><path class="js-line" d="M56.83,18.21L56.83,183.55L74.28,183.55L74.28,18.21L56.83,18.21L56.83,18.21" style="vector-effect: none; fill: none; stroke: rgb(0, 0, 0); stroke-opacity: 1; stroke-width: 1px; opacity: 1;"/></g><g class="points"/><g class="text"/></g><g class="trace scatter trace1a7dc1" style="stroke-miterlimit: 2;"><g class="fills"><g><path class="js-fill" d="M78.64,183.55L78.64,183.55L78.64,45.84L78.64,183.55L96.09,183.55L96.09,45.84L78.64,45.84L78.64,45.84" style="fill: rgb(0, 154, 250); fill-opacity: 1; stroke-width: 0;"/></g></g><g class="errorbars"/><g class="lines"><path class="js-line" d="M78.64,45.84L78.64,183.55L96.09,183.55L96.09,45.84L78.64,45.84L78.64,45.84" style="vector-effect: none; fill: none; stroke: rgb(0, 0, 0); stroke-opacity: 1; stroke-width: 1px; opacity: 1;"/></g><g class="points"/><g class="text"/></g><g class="trace scatter tracea26aec" style="stroke-miterlimit: 2;"><g class="fills"><g><path class="js-fill" d="M100.45,183.55L100.45,183.55L100.45,79.18L100.45,183.55L117.9,183.55L117.9,79.18L100.45,79.18L100.45,79.18" style="fill: rgb(0, 154, 250); fill-opacity: 1; stroke-width: 0;"/></g></g><g class="errorbars"/><g class="lines"><path class="js-line" d="M100.45,79.18L100.45,183.55L117.9,183.55L117.9,79.18L100.45,79.18L100.45,79.18" style="vector-effect: none; fill: none; stroke: rgb(0, 0, 0); stroke-opacity: 1; stroke-width: 1px; opacity: 1;"/></g><g class="points"/><g class="text"/></g><g class="trace scatter trace55efd6" style="stroke-miterlimit: 2;"><g class="fills"><g><path class="js-fill" d="M122.26,183.55L122.26,183.55L122.26,24.74L122.26,183.55L139.71,183.55L139.71,24.74L122.26,24.74L122.26,24.74" style="fill: rgb(0, 154, 250); fill-opacity: 1; stroke-width: 0;"/></g></g><g class="errorbars"/><g class="lines"><path class="js-line" d="M122.26,24.74L122.26,183.55L139.71,183.55L139.71,24.74L122.26,24.74L122.26,24.74" style="vector-effect: none; fill: none; stroke: rgb(0, 0, 0); stroke-opacity: 1; stroke-width: 1px; opacity: 1;"/></g><g class="points"/><g class="text"/></g><g class="trace scatter tracef8e363" style="stroke-miterlimit: 2;"><g class="fills"><g><path class="js-fill" d="M144.08,183.55L144.08,183.55L144.08,168.84L144.08,183.55L161.52,183.55L161.52,168.84L144.08,168.84L144.08,168.84" style="fill: rgb(0, 154, 250); fill-opacity: 1; stroke-width: 0;"/></g></g><g class="errorbars"/><g class="lines"><path class="js-line" d="M144.08,168.84L144.08,183.55L161.52,183.55L161.52,168.84L144.08,168.84L144.08,168.84" style="vector-effect: none; fill: none; stroke: rgb(0, 0, 0); stroke-opacity: 1; stroke-width: 1px; opacity: 1;"/></g><g class="points"/><g class="text"/></g><g class="trace scatter traced4700a" style="stroke-miterlimit: 2;"><g class="fills"><g><path class="js-fill" d="M165.89,183.55L165.89,183.55L165.89,171.15L165.89,183.55L183.34,183.55L183.34,171.15L165.89,171.15L165.89,171.15" style="fill: rgb(0, 154, 250); fill-opacity: 1; stroke-width: 0;"/></g></g><g class="errorbars"/><g class="lines"><path class="js-line" d="M165.89,171.15L165.89,183.55L183.34,183.55L183.34,171.15L165.89,171.15L165.89,171.15" style="vector-effect: none; fill: none; stroke: rgb(0, 0, 0); stroke-opacity: 1; stroke-width: 1px; opacity: 1;"/></g><g class="points"/><g class="text"/></g><g class="trace scatter tracec7f24e" style="stroke-miterlimit: 2;"><g class="fills"><g><path class="js-fill" d="M187.7,183.55L187.7,183.55L187.7,15.02L187.7,183.55L205.15,183.55L205.15,15.02L187.7,15.02L187.7,15.02" style="fill: rgb(0, 154, 250); fill-opacity: 1; stroke-width: 0;"/></g></g><g class="errorbars"/><g class="lines"><path class="js-line" d="M187.7,15.02L187.7,183.55L205.15,183.55L205.15,15.02L187.7,15.02L187.7,15.02" style="vector-effect: none; fill: none; stroke: rgb(0, 0, 0); stroke-opacity: 1; stroke-width: 1px; opacity: 1;"/></g><g class="points"/><g class="text"/></g><g class="trace scatter traceafcba7" style="stroke-miterlimit: 2;"><g class="fills"><g><path class="js-fill" d="M209.51,183.55L209.51,183.55L209.51,0L209.51,183.55L226.96,183.55L226.96,0L209.51,0L209.51,0" style="fill: rgb(0, 154, 250); fill-opacity: 1; stroke-width: 0;"/></g></g><g class="errorbars"/><g class="lines"><path class="js-line" d="M209.51,0L209.51,183.55L226.96,183.55L226.96,0L209.51,0L209.51,0" style="vector-effect: none; fill: none; stroke: rgb(0, 0, 0); stroke-opacity: 1; stroke-width: 1px; opacity: 1;"/></g><g class="points"/><g class="text"/></g><g class="trace scatter trace548f7f" style="stroke-miterlimit: 2; opacity: 1;"><g class="fills"/><g class="errorbars"/><g class="lines"/><g class="points"><path class="point" transform="translate(21.93,53.98)" d="M3,0A3,3 0 1,1 0,-3A3,3 0 0,1 3,0Z" style="opacity: 1; stroke-width: 1px; fill: rgb(0, 154, 250); fill-opacity: 0; stroke: rgb(0, 0, 0); stroke-opacity: 0;"/><path class="point" transform="translate(43.74,46.84)" d="M3,0A3,3 0 1,1 0,-3A3,3 0 0,1 3,0Z" style="opacity: 1; stroke-width: 1px; fill: rgb(0, 154, 250); fill-opacity: 0; stroke: rgb(0, 0, 0); stroke-opacity: 0;"/><path class="point" transform="translate(65.56,18.21)" d="M3,0A3,3 0 1,1 0,-3A3,3 0 0,1 3,0Z" style="opacity: 1; stroke-width: 1px; fill: rgb(0, 154, 250); fill-opacity: 0; stroke: rgb(0, 0, 0); stroke-opacity: 0;"/><path class="point" transform="translate(87.37,45.84)" d="M3,0A3,3 0 1,1 0,-3A3,3 0 0,1 3,0Z" style="opacity: 1; stroke-width: 1px; fill: rgb(0, 154, 250); fill-opacity: 0; stroke: rgb(0, 0, 0); stroke-opacity: 0;"/><path class="point" transform="translate(109.18,79.18)" d="M3,0A3,3 0 1,1 0,-3A3,3 0 0,1 3,0Z" style="opacity: 1; stroke-width: 1px; fill: rgb(0, 154, 250); fill-opacity: 0; stroke: rgb(0, 0, 0); stroke-opacity: 0;"/><path class="point" transform="translate(130.99,24.74)" d="M3,0A3,3 0 1,1 0,-3A3,3 0 0,1 3,0Z" style="opacity: 1; stroke-width: 1px; fill: rgb(0, 154, 250); fill-opacity: 0; stroke: rgb(0, 0, 0); stroke-opacity: 0;"/><path class="point" transform="translate(152.8,168.84)" d="M3,0A3,3 0 1,1 0,-3A3,3 0 0,1 3,0Z" style="opacity: 1; stroke-width: 1px; fill: rgb(0, 154, 250); fill-opacity: 0; stroke: rgb(0, 0, 0); stroke-opacity: 0;"/><path class="point" transform="translate(174.61,171.15)" d="M3,0A3,3 0 1,1 0,-3A3,3 0 0,1 3,0Z" style="opacity: 1; stroke-width: 1px; fill: rgb(0, 154, 250); fill-opacity: 0; stroke: rgb(0, 0, 0); stroke-opacity: 0;"/><path class="point" transform="translate(196.42,15.02)" d="M3,0A3,3 0 1,1 0,-3A3,3 0 0,1 3,0Z" style="opacity: 1; stroke-width: 1px; fill: rgb(0, 154, 250); fill-opacity: 0; stroke: rgb(0, 0, 0); stroke-opacity: 0;"/><path class="point" transform="translate(218.23,0)" d="M3,0A3,3 0 1,1 0,-3A3,3 0 0,1 3,0Z" style="opacity: 1; stroke-width: 1px; fill: rgb(0, 154, 250); fill-opacity: 0; stroke: rgb(0, 0, 0); stroke-opacity: 0;"/></g><g class="text"/></g></g></g></g><path class="xlines-above crisp" d="M59.91660834062408,208.41406933508313H301.08339165937593" style="fill: none; stroke-width: 1px; stroke: rgb(0, 0, 0); stroke-opacity: 1;"/><path class="ylines-above crisp" d="M60.41660834062408,24.360236220472434V207.91406933508313" style="fill: none; stroke-width: 1px; stroke: rgb(0, 0, 0); stroke-opacity: 1;"/><g class="overlines-above"/><g class="xaxislayer-above"><path class="xtick ticks crisp" d="M0,207.91406933508313v-5" transform="translate(115.56660834062407,0)" style="stroke: rgb(0, 0, 0); stroke-opacity: 1; stroke-width: 1px;"/><path class="xtick ticks crisp" d="M0,207.91406933508313v-5" transform="translate(170.09660834062407,0)" style="stroke: rgb(0, 0, 0); stroke-opacity: 1; stroke-width: 1px;"/><path class="xtick ticks crisp" d="M0,207.91406933508313v-5" transform="translate(224.6266083406241,0)" style="stroke: rgb(0, 0, 0); stroke-opacity: 1; stroke-width: 1px;"/><path class="xtick ticks crisp" d="M0,207.91406933508313v-5" transform="translate(279.1466083406241,0)" style="stroke: rgb(0, 0, 0); stroke-opacity: 1; stroke-width: 1px;"/><g class="xtick"><text text-anchor="middle" x="0" y="222.11406933508312" transform="translate(61.03660834062408,0)" style="font-family: sans-serif; font-size: 11px; fill: rgb(0, 0, 0); fill-opacity: 1; white-space: pre; opacity: 1;">0.0</text></g><g class="xtick"><text text-anchor="middle" x="0" y="222.11406933508312" style="font-family: sans-serif; font-size: 11px; fill: rgb(0, 0, 0); fill-opacity: 1; white-space: pre; opacity: 1;" transform="translate(115.56660834062407,0)">2.5</text></g><g class="xtick"><text text-anchor="middle" x="0" y="222.11406933508312" style="font-family: sans-serif; font-size: 11px; fill: rgb(0, 0, 0); fill-opacity: 1; white-space: pre; opacity: 1;" transform="translate(170.09660834062407,0)">5.0</text></g><g class="xtick"><text text-anchor="middle" x="0" y="222.11406933508312" style="font-family: sans-serif; font-size: 11px; fill: rgb(0, 0, 0); fill-opacity: 1; white-space: pre; opacity: 1;" transform="translate(224.6266083406241,0)">7.5</text></g><g class="xtick"><text text-anchor="middle" x="0" y="222.11406933508312" style="font-family: sans-serif; font-size: 11px; fill: rgb(0, 0, 0); fill-opacity: 1; white-space: pre; opacity: 1;" transform="translate(279.1466083406241,0)">10.0</text></g></g><g class="yaxislayer-above"><path class="ytick ticks crisp" d="M60.91660834062408,0h5" transform="translate(0,165.79023622047245)" style="stroke: rgb(0, 0, 0); stroke-opacity: 1; stroke-width: 1px;"/><path class="ytick ticks crisp" d="M60.91660834062408,0h5" transform="translate(0,123.67023622047243)" style="stroke: rgb(0, 0, 0); stroke-opacity: 1; stroke-width: 1px;"/><path class="ytick ticks crisp" d="M60.91660834062408,0h5" transform="translate(0,81.54023622047244)" style="stroke: rgb(0, 0, 0); stroke-opacity: 1; stroke-width: 1px;"/><path class="ytick ticks crisp" d="M60.91660834062408,0h5" transform="translate(0,39.42023622047243)" style="stroke: rgb(0, 0, 0); stroke-opacity: 1; stroke-width: 1px;"/><g class="ytick"><text text-anchor="end" x="57.71660834062408" y="3.8499999999999996" transform="translate(0,207.91023622047246)" style="font-family: sans-serif; font-size: 11px; fill: rgb(0, 0, 0); fill-opacity: 1; white-space: pre; opacity: 1;">0.0</text></g><g class="ytick"><text text-anchor="end" x="57.71660834062408" y="3.8499999999999996" style="font-family: sans-serif; font-size: 11px; fill: rgb(0, 0, 0); fill-opacity: 1; white-space: pre; opacity: 1;" transform="translate(0,165.79023622047245)">0.2</text></g><g class="ytick"><text text-anchor="end" x="57.71660834062408" y="3.8499999999999996" style="font-family: sans-serif; font-size: 11px; fill: rgb(0, 0, 0); fill-opacity: 1; white-space: pre; opacity: 1;" transform="translate(0,123.67023622047243)">0.4</text></g><g class="ytick"><text text-anchor="end" x="57.71660834062408" y="3.8499999999999996" style="font-family: sans-serif; font-size: 11px; fill: rgb(0, 0, 0); fill-opacity: 1; white-space: pre; opacity: 1;" transform="translate(0,81.54023622047244)">0.6</text></g><g class="ytick"><text text-anchor="end" x="57.71660834062408" y="3.8499999999999996" style="font-family: sans-serif; font-size: 11px; fill: rgb(0, 0, 0); fill-opacity: 1; white-space: pre; opacity: 1;" transform="translate(0,39.42023622047243)">0.8</text></g></g><g class="overaxes-above"/></g><g class="subplot x2y2"><g class="layer-subplot"><g class="shapelayer"/><g class="imagelayer"/></g><g class="minor-gridlayer"><g class="x2"/><g class="y2"/></g><g class="gridlayer"><g class="x2"><path class="x2grid crisp" transform="translate(438.8866083406241,0)" d="M0,24.360236220472434v183.55383311461068" style="stroke: rgb(0, 0, 0); stroke-opacity: 0.1; stroke-width: 0.5px;"/><path class="x2grid crisp" transform="translate(489.23660834062406,0)" d="M0,24.360236220472434v183.55383311461068" style="stroke: rgb(0, 0, 0); stroke-opacity: 0.1; stroke-width: 0.5px;"/><path class="x2grid crisp" transform="translate(539.586608340624,0)" d="M0,24.360236220472434v183.55383311461068" style="stroke: rgb(0, 0, 0); stroke-opacity: 0.1; stroke-width: 0.5px;"/><path class="x2grid crisp" transform="translate(589.936608340624,0)" d="M0,24.360236220472434v183.55383311461068" style="stroke: rgb(0, 0, 0); stroke-opacity: 0.1; stroke-width: 0.5px;"/><path class="x2grid crisp" transform="translate(640.2866083406241,0)" d="M0,24.360236220472434v183.55383311461068" style="stroke: rgb(0, 0, 0); stroke-opacity: 0.1; stroke-width: 0.5px;"/></g><g class="y2"><path class="y2grid crisp" transform="translate(0,173.26023622047245)" d="M406.91660834062407,0h240.16678331875187" style="stroke: rgb(0, 0, 0); stroke-opacity: 0.1; stroke-width: 0.5px;"/><path class="y2grid crisp" transform="translate(0,124.31023622047243)" d="M406.91660834062407,0h240.16678331875187" style="stroke: rgb(0, 0, 0); stroke-opacity: 0.1; stroke-width: 0.5px;"/><path class="y2grid crisp" transform="translate(0,75.36023622047243)" d="M406.91660834062407,0h240.16678331875187" style="stroke: rgb(0, 0, 0); stroke-opacity: 0.1; stroke-width: 0.5px;"/><path class="y2grid crisp" transform="translate(0,26.410236220472434)" d="M406.91660834062407,0h240.16678331875187" style="stroke: rgb(0, 0, 0); stroke-opacity: 0.1; stroke-width: 0.5px;"/></g></g><g class="zerolinelayer"/><g class="layer-between"><g class="shapelayer"/><g class="imagelayer"/></g><path class="xlines-below"/><path class="ylines-below"/><g class="overlines-below"/><g class="xaxislayer-below"/><g class="yaxislayer-below"/><g class="overaxes-below"/><g class="overplot"><g class="x2y2" transform="translate(406.91660834062407,24.360236220472434)" clip-path="url(#clipeaccfdx2y2plot)"><g class="scatterlayer mlayer"><g class="trace scatter trace2a2dca" style="stroke-miterlimit: 2; opacity: 1;"><g class="fills"/><g class="errorbars"/><g class="lines"/><g class="points"><path class="point" transform="translate(6.8,26.81)" d="M4,0A4,4 0 1,1 0,-4A4,4 0 0,1 4,0Z" style="opacity: 1; stroke-width: 1px; fill: rgb(0, 154, 250); fill-opacity: 1; stroke: rgb(0, 0, 0); stroke-opacity: 1;"/><path class="point" transform="translate(31.97,5.19)" d="M4,0A4,4 0 1,1 0,-4A4,4 0 0,1 4,0Z" style="opacity: 1; stroke-width: 1px; fill: rgb(0, 154, 250); fill-opacity: 1; stroke: rgb(0, 0, 0); stroke-opacity: 1;"/><path class="point" transform="translate(57.15,73.48)" d="M4,0A4,4 0 1,1 0,-4A4,4 0 0,1 4,0Z" style="opacity: 1; stroke-width: 1px; fill: rgb(0, 154, 250); fill-opacity: 1; stroke: rgb(0, 0, 0); stroke-opacity: 1;"/><path class="point" transform="translate(82.32,101.46)" d="M4,0A4,4 0 1,1 0,-4A4,4 0 0,1 4,0Z" style="opacity: 1; stroke-width: 1px; fill: rgb(0, 154, 250); fill-opacity: 1; stroke: rgb(0, 0, 0); stroke-opacity: 1;"/><path class="point" transform="translate(107.5,103.6)" d="M4,0A4,4 0 1,1 0,-4A4,4 0 0,1 4,0Z" style="opacity: 1; stroke-width: 1px; fill: rgb(0, 154, 250); fill-opacity: 1; stroke: rgb(0, 0, 0); stroke-opacity: 1;"/><path class="point" transform="translate(132.67,64.56)" d="M4,0A4,4 0 1,1 0,-4A4,4 0 0,1 4,0Z" style="opacity: 1; stroke-width: 1px; fill: rgb(0, 154, 250); fill-opacity: 1; stroke: rgb(0, 0, 0); stroke-opacity: 1;"/><path class="point" transform="translate(157.85,149.82)" d="M4,0A4,4 0 1,1 0,-4A4,4 0 0,1 4,0Z" style="opacity: 1; stroke-width: 1px; fill: rgb(0, 154, 250); fill-opacity: 1; stroke: rgb(0, 0, 0); stroke-opacity: 1;"/><path class="point" transform="translate(183.02,124.49)" d="M4,0A4,4 0 1,1 0,-4A4,4 0 0,1 4,0Z" style="opacity: 1; stroke-width: 1px; fill: rgb(0, 154, 250); fill-opacity: 1; stroke: rgb(0, 0, 0); stroke-opacity: 1;"/><path class="point" transform="translate(208.19,178.36)" d="M4,0A4,4 0 1,1 0,-4A4,4 0 0,1 4,0Z" style="opacity: 1; stroke-width: 1px; fill: rgb(0, 154, 250); fill-opacity: 1; stroke: rgb(0, 0, 0); stroke-opacity: 1;"/><path class="point" transform="translate(233.37,175.06)" d="M4,0A4,4 0 1,1 0,-4A4,4 0 0,1 4,0Z" style="opacity: 1; stroke-width: 1px; fill: rgb(0, 154, 250); fill-opacity: 1; stroke: rgb(0, 0, 0); stroke-opacity: 1;"/></g><g class="text"/></g></g></g></g><path class="xlines-above crisp" d="M405.91660834062407,208.41406933508313H647.0833916593759" style="fill: none; stroke-width: 1px; stroke: rgb(0, 0, 0); stroke-opacity: 1;"/><path class="ylines-above crisp" d="M406.41660834062407,24.360236220472434V207.91406933508313" style="fill: none; stroke-width: 1px; stroke: rgb(0, 0, 0); stroke-opacity: 1;"/><g class="overlines-above"/><g class="xaxislayer-above"><path class="x2tick ticks crisp" d="M0,207.91406933508313v-5" transform="translate(438.8866083406241,0)" style="stroke: rgb(0, 0, 0); stroke-opacity: 1; stroke-width: 1px;"/><path class="x2tick ticks crisp" d="M0,207.91406933508313v-5" transform="translate(489.23660834062406,0)" style="stroke: rgb(0, 0, 0); stroke-opacity: 1; stroke-width: 1px;"/><path class="x2tick ticks crisp" d="M0,207.91406933508313v-5" transform="translate(539.586608340624,0)" style="stroke: rgb(0, 0, 0); stroke-opacity: 1; stroke-width: 1px;"/><path class="x2tick ticks crisp" d="M0,207.91406933508313v-5" transform="translate(589.936608340624,0)" style="stroke: rgb(0, 0, 0); stroke-opacity: 1; stroke-width: 1px;"/><path class="x2tick ticks crisp" d="M0,207.91406933508313v-5" transform="translate(640.2866083406241,0)" style="stroke: rgb(0, 0, 0); stroke-opacity: 1; stroke-width: 1px;"/><g class="x2tick"><text text-anchor="middle" x="0" y="222.11406933508312" transform="translate(438.8866083406241,0)" style="font-family: sans-serif; font-size: 11px; fill: rgb(0, 0, 0); fill-opacity: 1; white-space: pre; opacity: 1;">2</text></g><g class="x2tick"><text text-anchor="middle" x="0" y="222.11406933508312" style="font-family: sans-serif; font-size: 11px; fill: rgb(0, 0, 0); fill-opacity: 1; white-space: pre; opacity: 1;" transform="translate(489.23660834062406,0)">4</text></g><g class="x2tick"><text text-anchor="middle" x="0" y="222.11406933508312" style="font-family: sans-serif; font-size: 11px; fill: rgb(0, 0, 0); fill-opacity: 1; white-space: pre; opacity: 1;" transform="translate(539.586608340624,0)">6</text></g><g class="x2tick"><text text-anchor="middle" x="0" y="222.11406933508312" style="font-family: sans-serif; font-size: 11px; fill: rgb(0, 0, 0); fill-opacity: 1; white-space: pre; opacity: 1;" transform="translate(589.936608340624,0)">8</text></g><g class="x2tick"><text text-anchor="middle" x="0" y="222.11406933508312" style="font-family: sans-serif; font-size: 11px; fill: rgb(0, 0, 0); fill-opacity: 1; white-space: pre; opacity: 1;" transform="translate(640.2866083406241,0)">10</text></g></g><g class="yaxislayer-above"><path class="y2tick ticks crisp" d="M406.91660834062407,0h5" transform="translate(0,173.26023622047245)" style="stroke: rgb(0, 0, 0); stroke-opacity: 1; stroke-width: 1px;"/><path class="y2tick ticks crisp" d="M406.91660834062407,0h5" transform="translate(0,124.31023622047243)" style="stroke: rgb(0, 0, 0); stroke-opacity: 1; stroke-width: 1px;"/><path class="y2tick ticks crisp" d="M406.91660834062407,0h5" transform="translate(0,75.36023622047243)" style="stroke: rgb(0, 0, 0); stroke-opacity: 1; stroke-width: 1px;"/><path class="y2tick ticks crisp" d="M406.91660834062407,0h5" transform="translate(0,26.410236220472434)" style="stroke: rgb(0, 0, 0); stroke-opacity: 1; stroke-width: 1px;"/><g class="y2tick"><text text-anchor="end" x="403.7166083406241" y="3.8499999999999996" transform="translate(0,173.26023622047245)" style="font-family: sans-serif; font-size: 11px; fill: rgb(0, 0, 0); fill-opacity: 1; white-space: pre; opacity: 1;">0.2</text></g><g class="y2tick"><text text-anchor="end" x="403.7166083406241" y="3.8499999999999996" style="font-family: sans-serif; font-size: 11px; fill: rgb(0, 0, 0); fill-opacity: 1; white-space: pre; opacity: 1;" transform="translate(0,124.31023622047243)">0.4</text></g><g class="y2tick"><text text-anchor="end" x="403.7166083406241" y="3.8499999999999996" style="font-family: sans-serif; font-size: 11px; fill: rgb(0, 0, 0); fill-opacity: 1; white-space: pre; opacity: 1;" transform="translate(0,75.36023622047243)">0.6</text></g><g class="y2tick"><text text-anchor="end" x="403.7166083406241" y="3.8499999999999996" style="font-family: sans-serif; font-size: 11px; fill: rgb(0, 0, 0); fill-opacity: 1; white-space: pre; opacity: 1;" transform="translate(0,26.410236220472434)">0.8</text></g></g><g class="overaxes-above"/></g><g class="subplot x3y3"><g class="layer-subplot"><g class="shapelayer"/><g class="imagelayer"/></g><g class="minor-gridlayer"><g class="x3"/><g class="y3"/></g><g class="gridlayer"><g class="x3"><path class="x3grid crisp" transform="translate(92.88660834062408,0)" d="M0,275.08593066491693v183.55383311461068" style="stroke: rgb(0, 0, 0); stroke-opacity: 0.1; stroke-width: 0.5px;"/><path class="x3grid crisp" transform="translate(143.23660834062406,0)" d="M0,275.08593066491693v183.55383311461068" style="stroke: rgb(0, 0, 0); stroke-opacity: 0.1; stroke-width: 0.5px;"/><path class="x3grid crisp" transform="translate(193.58660834062408,0)" d="M0,275.08593066491693v183.55383311461068" style="stroke: rgb(0, 0, 0); stroke-opacity: 0.1; stroke-width: 0.5px;"/><path class="x3grid crisp" transform="translate(243.9366083406241,0)" d="M0,275.08593066491693v183.55383311461068" style="stroke: rgb(0, 0, 0); stroke-opacity: 0.1; stroke-width: 0.5px;"/><path class="x3grid crisp" transform="translate(294.28660834062407,0)" d="M0,275.08593066491693v183.55383311461068" style="stroke: rgb(0, 0, 0); stroke-opacity: 0.1; stroke-width: 0.5px;"/></g><g class="y3"><path class="y3grid crisp" transform="translate(0,434.11593066491696)" d="M60.91660834062408,0h240.16678331875187" style="stroke: rgb(0, 0, 0); stroke-opacity: 0.1; stroke-width: 0.5px;"/><path class="y3grid crisp" transform="translate(0,404.8159306649169)" d="M60.91660834062408,0h240.16678331875187" style="stroke: rgb(0, 0, 0); stroke-opacity: 0.1; stroke-width: 0.5px;"/><path class="y3grid crisp" transform="translate(0,375.51593066491694)" d="M60.91660834062408,0h240.16678331875187" style="stroke: rgb(0, 0, 0); stroke-opacity: 0.1; stroke-width: 0.5px;"/><path class="y3grid crisp" transform="translate(0,346.2159306649169)" d="M60.91660834062408,0h240.16678331875187" style="stroke: rgb(0, 0, 0); stroke-opacity: 0.1; stroke-width: 0.5px;"/><path class="y3grid crisp" transform="translate(0,316.9159306649169)" d="M60.91660834062408,0h240.16678331875187" style="stroke: rgb(0, 0, 0); stroke-opacity: 0.1; stroke-width: 0.5px;"/><path class="y3grid crisp" transform="translate(0,287.6059306649169)" d="M60.91660834062408,0h240.16678331875187" style="stroke: rgb(0, 0, 0); stroke-opacity: 0.1; stroke-width: 0.5px;"/></g></g><g class="zerolinelayer"/><g class="layer-between"><g class="shapelayer"/><g class="imagelayer"/></g><path class="xlines-below"/><path class="ylines-below"/><g class="overlines-below"/><g class="xaxislayer-below"/><g class="yaxislayer-below"/><g class="overaxes-below"/><g class="overplot"><g class="x3y3" transform="translate(60.91660834062408,275.08593066491693)" clip-path="url(#clipeaccfdx3y3plot)"><g class="scatterlayer mlayer"><g class="trace scatter tracec20a8b" style="stroke-miterlimit: 2; opacity: 1;"><g class="fills"/><g class="errorbars"/><g class="lines"><path class="js-line" d="M6.8,23.27L31.97,176.33L57.15,5.19L82.32,165.28L107.5,19.63L132.67,151.15L157.85,39.63L183.02,39.8L208.19,119.65L233.37,178.36" style="vector-effect: none; fill: none; stroke: rgb(0, 154, 250); stroke-opacity: 1; stroke-width: 1px; opacity: 1;"/></g><g class="points"/><g class="text"/></g></g></g></g><path class="xlines-above crisp" d="M59.91660834062408,459.1397637795276H301.08339165937593" style="fill: none; stroke-width: 1px; stroke: rgb(0, 0, 0); stroke-opacity: 1;"/><path class="ylines-above crisp" d="M60.41660834062408,275.08593066491693V458.6397637795276" style="fill: none; stroke-width: 1px; stroke: rgb(0, 0, 0); stroke-opacity: 1;"/><g class="overlines-above"/><g class="xaxislayer-above"><path class="x3tick ticks crisp" d="M0,458.6397637795276v-5" transform="translate(92.88660834062408,0)" style="stroke: rgb(0, 0, 0); stroke-opacity: 1; stroke-width: 1px;"/><path class="x3tick ticks crisp" d="M0,458.6397637795276v-5" transform="translate(143.23660834062406,0)" style="stroke: rgb(0, 0, 0); stroke-opacity: 1; stroke-width: 1px;"/><path class="x3tick ticks crisp" d="M0,458.6397637795276v-5" transform="translate(193.58660834062408,0)" style="stroke: rgb(0, 0, 0); stroke-opacity: 1; stroke-width: 1px;"/><path class="x3tick ticks crisp" d="M0,458.6397637795276v-5" transform="translate(243.9366083406241,0)" style="stroke: rgb(0, 0, 0); stroke-opacity: 1; stroke-width: 1px;"/><path class="x3tick ticks crisp" d="M0,458.6397637795276v-5" transform="translate(294.28660834062407,0)" style="stroke: rgb(0, 0, 0); stroke-opacity: 1; stroke-width: 1px;"/><g class="x3tick"><text text-anchor="middle" x="0" y="472.8397637795276" transform="translate(92.88660834062408,0)" style="font-family: sans-serif; font-size: 11px; fill: rgb(0, 0, 0); fill-opacity: 1; white-space: pre; opacity: 1;">2</text></g><g class="x3tick"><text text-anchor="middle" x="0" y="472.8397637795276" style="font-family: sans-serif; font-size: 11px; fill: rgb(0, 0, 0); fill-opacity: 1; white-space: pre; opacity: 1;" transform="translate(143.23660834062406,0)">4</text></g><g class="x3tick"><text text-anchor="middle" x="0" y="472.8397637795276" style="font-family: sans-serif; font-size: 11px; fill: rgb(0, 0, 0); fill-opacity: 1; white-space: pre; opacity: 1;" transform="translate(193.58660834062408,0)">6</text></g><g class="x3tick"><text text-anchor="middle" x="0" y="472.8397637795276" style="font-family: sans-serif; font-size: 11px; fill: rgb(0, 0, 0); fill-opacity: 1; white-space: pre; opacity: 1;" transform="translate(243.9366083406241,0)">8</text></g><g class="x3tick"><text text-anchor="middle" x="0" y="472.8397637795276" style="font-family: sans-serif; font-size: 11px; fill: rgb(0, 0, 0); fill-opacity: 1; white-space: pre; opacity: 1;" transform="translate(294.28660834062407,0)">10</text></g></g><g class="yaxislayer-above"><path class="y3tick ticks crisp" d="M60.91660834062408,0h5" transform="translate(0,434.11593066491696)" style="stroke: rgb(0, 0, 0); stroke-opacity: 1; stroke-width: 1px;"/><path class="y3tick ticks crisp" d="M60.91660834062408,0h5" transform="translate(0,404.8159306649169)" style="stroke: rgb(0, 0, 0); stroke-opacity: 1; stroke-width: 1px;"/><path class="y3tick ticks crisp" d="M60.91660834062408,0h5" transform="translate(0,375.51593066491694)" style="stroke: rgb(0, 0, 0); stroke-opacity: 1; stroke-width: 1px;"/><path class="y3tick ticks crisp" d="M60.91660834062408,0h5" transform="translate(0,346.2159306649169)" style="stroke: rgb(0, 0, 0); stroke-opacity: 1; stroke-width: 1px;"/><path class="y3tick ticks crisp" d="M60.91660834062408,0h5" transform="translate(0,316.9159306649169)" style="stroke: rgb(0, 0, 0); stroke-opacity: 1; stroke-width: 1px;"/><path class="y3tick ticks crisp" d="M60.91660834062408,0h5" transform="translate(0,287.6059306649169)" style="stroke: rgb(0, 0, 0); stroke-opacity: 1; stroke-width: 1px;"/><g class="y3tick"><text text-anchor="end" x="57.71660834062408" y="3.8499999999999996" transform="translate(0,434.11593066491696)" style="font-family: sans-serif; font-size: 11px; fill: rgb(0, 0, 0); fill-opacity: 1; white-space: pre; opacity: 1;">0.1</text></g><g class="y3tick"><text text-anchor="end" x="57.71660834062408" y="3.8499999999999996" style="font-family: sans-serif; font-size: 11px; fill: rgb(0, 0, 0); fill-opacity: 1; white-space: pre; opacity: 1;" transform="translate(0,404.8159306649169)">0.2</text></g><g class="y3tick"><text text-anchor="end" x="57.71660834062408" y="3.8499999999999996" style="font-family: sans-serif; font-size: 11px; fill: rgb(0, 0, 0); fill-opacity: 1; white-space: pre; opacity: 1;" transform="translate(0,375.51593066491694)">0.3</text></g><g class="y3tick"><text text-anchor="end" x="57.71660834062408" y="3.8499999999999996" style="font-family: sans-serif; font-size: 11px; fill: rgb(0, 0, 0); fill-opacity: 1; white-space: pre; opacity: 1;" transform="translate(0,346.2159306649169)">0.4</text></g><g class="y3tick"><text text-anchor="end" x="57.71660834062408" y="3.8499999999999996" style="font-family: sans-serif; font-size: 11px; fill: rgb(0, 0, 0); fill-opacity: 1; white-space: pre; opacity: 1;" transform="translate(0,316.9159306649169)">0.5</text></g><g class="y3tick"><text text-anchor="end" x="57.71660834062408" y="3.8499999999999996" style="font-family: sans-serif; font-size: 11px; fill: rgb(0, 0, 0); fill-opacity: 1; white-space: pre; opacity: 1;" transform="translate(0,287.6059306649169)">0.6</text></g></g><g class="overaxes-above"/></g><g class="subplot x4y4"><g class="layer-subplot"><g class="shapelayer"/><g class="imagelayer"/></g><g class="minor-gridlayer"><g class="x4"/><g class="y4"/></g><g class="gridlayer"><g class="x4"><path class="x4grid crisp" transform="translate(438.8866083406241,0)" d="M0,275.08593066491693v183.55383311461068" style="stroke: rgb(0, 0, 0); stroke-opacity: 0.1; stroke-width: 0.5px;"/><path class="x4grid crisp" transform="translate(489.23660834062406,0)" d="M0,275.08593066491693v183.55383311461068" style="stroke: rgb(0, 0, 0); stroke-opacity: 0.1; stroke-width: 0.5px;"/><path class="x4grid crisp" transform="translate(539.586608340624,0)" d="M0,275.08593066491693v183.55383311461068" style="stroke: rgb(0, 0, 0); stroke-opacity: 0.1; stroke-width: 0.5px;"/><path class="x4grid crisp" transform="translate(589.936608340624,0)" d="M0,275.08593066491693v183.55383311461068" style="stroke: rgb(0, 0, 0); stroke-opacity: 0.1; stroke-width: 0.5px;"/><path class="x4grid crisp" transform="translate(640.2866083406241,0)" d="M0,275.08593066491693v183.55383311461068" style="stroke: rgb(0, 0, 0); stroke-opacity: 0.1; stroke-width: 0.5px;"/></g><g class="y4"><path class="y4grid crisp" transform="translate(0,426.2759306649169)" d="M406.91660834062407,0h240.16678331875187" style="stroke: rgb(0, 0, 0); stroke-opacity: 0.1; stroke-width: 0.5px;"/><path class="y4grid crisp" transform="translate(0,387.4659306649169)" d="M406.91660834062407,0h240.16678331875187" style="stroke: rgb(0, 0, 0); stroke-opacity: 0.1; stroke-width: 0.5px;"/><path class="y4grid crisp" transform="translate(0,348.6559306649169)" d="M406.91660834062407,0h240.16678331875187" style="stroke: rgb(0, 0, 0); stroke-opacity: 0.1; stroke-width: 0.5px;"/><path class="y4grid crisp" transform="translate(0,309.83593066491693)" d="M406.91660834062407,0h240.16678331875187" style="stroke: rgb(0, 0, 0); stroke-opacity: 0.1; stroke-width: 0.5px;"/></g></g><g class="zerolinelayer"/><g class="layer-between"><g class="shapelayer"/><g class="imagelayer"/></g><path class="xlines-below"/><path class="ylines-below"/><g class="overlines-below"/><g class="xaxislayer-below"/><g class="yaxislayer-below"/><g class="overaxes-below"/><g class="overplot"><g class="x4y4" transform="translate(406.91660834062407,275.08593066491693)" clip-path="url(#clipeaccfdx4y4plot)"><g class="scatterlayer mlayer"><g class="trace scatter trace51494a" style="stroke-miterlimit: 2; opacity: 1;"><g class="fills"/><g class="errorbars"/><g class="lines"><path class="js-line" d="M6.8,122.05L19.38,122.05L19.38,74.63L44.56,74.63L44.56,116.64L69.73,116.64L69.73,55.17L94.91,55.17L94.91,176L120.08,176L120.08,5.19L145.26,5.19L145.26,119.79L170.43,119.79L170.43,178.36L195.61,178.36L195.61,150.36L220.78,150.36L220.78,91.43L233.37,91.43" style="vector-effect: none; fill: none; stroke: rgb(0, 154, 250); stroke-opacity: 1; stroke-width: 1px; opacity: 1;"/></g><g class="points"/><g class="text"/></g></g></g></g><path class="xlines-above crisp" d="M405.91660834062407,459.1397637795276H647.0833916593759" style="fill: none; stroke-width: 1px; stroke: rgb(0, 0, 0); stroke-opacity: 1;"/><path class="ylines-above crisp" d="M406.41660834062407,275.08593066491693V458.6397637795276" style="fill: none; stroke-width: 1px; stroke: rgb(0, 0, 0); stroke-opacity: 1;"/><g class="overlines-above"/><g class="xaxislayer-above"><path class="x4tick ticks crisp" d="M0,458.6397637795276v-5" transform="translate(438.8866083406241,0)" style="stroke: rgb(0, 0, 0); stroke-opacity: 1; stroke-width: 1px;"/><path class="x4tick ticks crisp" d="M0,458.6397637795276v-5" transform="translate(489.23660834062406,0)" style="stroke: rgb(0, 0, 0); stroke-opacity: 1; stroke-width: 1px;"/><path class="x4tick ticks crisp" d="M0,458.6397637795276v-5" transform="translate(539.586608340624,0)" style="stroke: rgb(0, 0, 0); stroke-opacity: 1; stroke-width: 1px;"/><path class="x4tick ticks crisp" d="M0,458.6397637795276v-5" transform="translate(589.936608340624,0)" style="stroke: rgb(0, 0, 0); stroke-opacity: 1; stroke-width: 1px;"/><path class="x4tick ticks crisp" d="M0,458.6397637795276v-5" transform="translate(640.2866083406241,0)" style="stroke: rgb(0, 0, 0); stroke-opacity: 1; stroke-width: 1px;"/><g class="x4tick"><text text-anchor="middle" x="0" y="472.8397637795276" transform="translate(438.8866083406241,0)" style="font-family: sans-serif; font-size: 11px; fill: rgb(0, 0, 0); fill-opacity: 1; white-space: pre; opacity: 1;">2</text></g><g class="x4tick"><text text-anchor="middle" x="0" y="472.8397637795276" style="font-family: sans-serif; font-size: 11px; fill: rgb(0, 0, 0); fill-opacity: 1; white-space: pre; opacity: 1;" transform="translate(489.23660834062406,0)">4</text></g><g class="x4tick"><text text-anchor="middle" x="0" y="472.8397637795276" style="font-family: sans-serif; font-size: 11px; fill: rgb(0, 0, 0); fill-opacity: 1; white-space: pre; opacity: 1;" transform="translate(539.586608340624,0)">6</text></g><g class="x4tick"><text text-anchor="middle" x="0" y="472.8397637795276" style="font-family: sans-serif; font-size: 11px; fill: rgb(0, 0, 0); fill-opacity: 1; white-space: pre; opacity: 1;" transform="translate(589.936608340624,0)">8</text></g><g class="x4tick"><text text-anchor="middle" x="0" y="472.8397637795276" style="font-family: sans-serif; font-size: 11px; fill: rgb(0, 0, 0); fill-opacity: 1; white-space: pre; opacity: 1;" transform="translate(640.2866083406241,0)">10</text></g></g><g class="yaxislayer-above"><path class="y4tick ticks crisp" d="M406.91660834062407,0h5" transform="translate(0,426.2759306649169)" style="stroke: rgb(0, 0, 0); stroke-opacity: 1; stroke-width: 1px;"/><path class="y4tick ticks crisp" d="M406.91660834062407,0h5" transform="translate(0,387.4659306649169)" style="stroke: rgb(0, 0, 0); stroke-opacity: 1; stroke-width: 1px;"/><path class="y4tick ticks crisp" d="M406.91660834062407,0h5" transform="translate(0,348.6559306649169)" style="stroke: rgb(0, 0, 0); stroke-opacity: 1; stroke-width: 1px;"/><path class="y4tick ticks crisp" d="M406.91660834062407,0h5" transform="translate(0,309.83593066491693)" style="stroke: rgb(0, 0, 0); stroke-opacity: 1; stroke-width: 1px;"/><g class="y4tick"><text text-anchor="end" x="403.7166083406241" y="3.8499999999999996" transform="translate(0,426.2759306649169)" style="font-family: sans-serif; font-size: 11px; fill: rgb(0, 0, 0); fill-opacity: 1; white-space: pre; opacity: 1;">0.2</text></g><g class="y4tick"><text text-anchor="end" x="403.7166083406241" y="3.8499999999999996" style="font-family: sans-serif; font-size: 11px; fill: rgb(0, 0, 0); fill-opacity: 1; white-space: pre; opacity: 1;" transform="translate(0,387.4659306649169)">0.4</text></g><g class="y4tick"><text text-anchor="end" x="403.7166083406241" y="3.8499999999999996" style="font-family: sans-serif; font-size: 11px; fill: rgb(0, 0, 0); fill-opacity: 1; white-space: pre; opacity: 1;" transform="translate(0,348.6559306649169)">0.6</text></g><g class="y4tick"><text text-anchor="end" x="403.7166083406241" y="3.8499999999999996" style="font-family: sans-serif; font-size: 11px; fill: rgb(0, 0, 0); fill-opacity: 1; white-space: pre; opacity: 1;" transform="translate(0,309.83593066491693)">0.8</text></g></g><g class="overaxes-above"/></g></g><g class="polarlayer"/><g class="smithlayer"/><g class="ternarylayer"/><g class="geolayer"/><g class="funnelarealayer"/><g class="pielayer"/><g class="iciclelayer"/><g class="treemaplayer"/><g class="sunburstlayer"/><g class="glimages"/><defs id="topdefs-eaccfd"><g class="clips"/></defs><g class="layer-above"><g class="imagelayer"/><g class="shapelayer"/></g><g class="infolayer"><g class="g-gtitle"/><g class="g-xtitle"><text class="xtitle" x="181" y="249.125" text-anchor="middle" style="opacity: 1; font-family: sans-serif; font-size: 15px; fill: rgb(0, 0, 0); fill-opacity: 1; white-space: pre;">x guide</text></g><g class="g-x2title"><text class="x2title" x="527" y="249.125" text-anchor="middle" style="opacity: 1; font-family: sans-serif; font-size: 15px; fill: rgb(0, 0, 0); fill-opacity: 1; white-space: pre;">x guide</text></g><g class="g-x3title" transform="translate(0,-2.84375)"><text class="x3title" x="181" y="499.84375" text-anchor="middle" style="opacity: 1; font-family: sans-serif; font-size: 15px; fill: rgb(0, 0, 0); fill-opacity: 1; white-space: pre;">x guide</text></g><g class="g-x4title" transform="translate(0,-2.84375)"><text class="x4title" x="527" y="499.84375" text-anchor="middle" style="opacity: 1; font-family: sans-serif; font-size: 15px; fill: rgb(0, 0, 0); fill-opacity: 1; white-space: pre;">x guide</text></g><g class="g-ytitle"><text class="ytitle" transform="rotate(-90,22.671875,116.13715277777777)" x="22.671875" y="116.13715277777777" text-anchor="middle" style="opacity: 1; font-family: sans-serif; font-size: 15px; fill: rgb(0, 0, 0); fill-opacity: 1; white-space: pre;">y guide</text></g><g class="g-y2title"><text class="y2title" transform="rotate(-90,368.671875,116.13715277777777)" x="368.671875" y="116.13715277777777" text-anchor="middle" style="opacity: 1; font-family: sans-serif; font-size: 15px; fill: rgb(0, 0, 0); fill-opacity: 1; white-space: pre;">y guide</text></g><g class="g-y3title"><text class="y3title" transform="rotate(-90,22.671875,366.8628472222223)" x="22.671875" y="366.8628472222223" text-anchor="middle" style="opacity: 1; font-family: sans-serif; font-size: 15px; fill: rgb(0, 0, 0); fill-opacity: 1; white-space: pre;">y guide</text></g><g class="g-y4title"><text class="y4title" transform="rotate(-90,368.671875,366.8628472222223)" x="368.671875" y="366.8628472222223" text-anchor="middle" style="opacity: 1; font-family: sans-serif; font-size: 15px; fill: rgb(0, 0, 0); fill-opacity: 1; white-space: pre;">y guide</text></g></g></svg>