<svg class="main-svg" xmlns="http://www.w3.org/2000/svg" xmlns:xlink="http://www.w3.org/1999/xlink" width="700" height="500" style="" viewBox="0 0 700 500"><rect x="0" y="0" width="700" height="500" style="fill: rgb(255, 255, 255); fill-opacity: 1;"/><defs id="defs-b79c2e"><g class="clips"><clipPath id="clipb79c2exyplot" class="plotclip"><rect width="257.25645960921554" height="158.66432856215908"/></clipPath><clipPath id="clipb79c2ex2y2plot" class="plotclip"><rect width="257.25645960921554" height="158.66432856215908"/></clipPath><clipPath id="clipb79c2ex3y3plot" class="plotclip"><rect width="560.4559346748323" height="158.6643285621591"/></clipPath><clipPath class="axesclip" id="clipb79c2ex"><rect x="134.96401283172935" y="0" width="257.25645960921554" height="500"/></clipPath><clipPath class="axesclip" id="clipb79c2ey"><rect x="0" y="46.88867016622923" width="700" height="158.66432856215908"/></clipPath><clipPath class="axesclip" id="clipb79c2exy"><rect x="134.96401283172935" y="46.88867016622923" width="257.25645960921554" height="158.66432856215908"/></clipPath><clipPath class="axesclip" id="clipb79c2ey2"><rect x="0" y="46.88867016622923" width="700" height="158.66432856215908"/></clipPath><clipPath class="axesclip" id="clipb79c2exy2"><rect x="134.96401283172935" y="46.88867016622923" width="257.25645960921554" height="158.66432856215908"/></clipPath><clipPath class="axesclip" id="clipb79c2ey3"><rect x="0" y="276.88867016622925" width="700" height="158.6643285621591"/></clipPath><clipPath class="axesclip" id="clipb79c2exy3"><rect x="134.96401283172935" y="276.88867016622925" width="257.25645960921554" height="158.6643285621591"/></clipPath><clipPath class="axesclip" id="clipb79c2ex2"><rect x="438.1634878973462" y="0" width="257.25645960921554" height="500"/></clipPath><clipPath class="axesclip" id="clipb79c2ex2y"><rect x="438.1634878973462" y="46.88867016622923" width="257.25645960921554" height="158.66432856215908"/></clipPath><clipPath class="axesclip" id="clipb79c2ex2y2"><rect x="438.1634878973462" y="46.88867016622923" width="257.25645960921554" height="158.66432856215908"/></clipPath><clipPath class="axesclip" id="clipb79c2ex2y3"><rect x="438.1634878973462" y="276.88867016622925" width="257.25645960921554" height="158.6643285621591"/></clipPath><clipPath class="axesclip" id="clipb79c2ex3"><rect x="134.96401283172935" y="0" width="560.4559346748323" height="500"/></clipPath><clipPath class="axesclip" id="clipb79c2ex3y"><rect x="134.96401283172935" y="46.88867016622923" width="560.4559346748323" height="158.66432856215908"/></clipPath><clipPath class="axesclip" id="clipb79c2ex3y2"><rect x="134.96401283172935" y="46.88867016622923" width="560.4559346748323" height="158.66432856215908"/></clipPath><clipPath class="axesclip" id="clipb79c2ex3y3"><rect x="134.96401283172935" y="276.88867016622925" width="560.4559346748323" height="158.6643285621591"/></clipPath></g><g class="gradients"/><g class="patterns"/></defs><g class="bglayer"/><g class="layer-below"><g class="imagelayer"/><g class="shapelayer"/></g><g class="cartesianlayer"><g class="subplot xy"><g class="layer-subplot"><g class="shapelayer"/><g class="imagelayer"/></g><g class="minor-gridlayer"><g class="x"/><g class="y"/></g><g class="gridlayer"><g class="x"><path class="xgrid crisp" transform="translate(139.79401283172936,0)" d="M0,46.88867016622923v158.66432856215908" style="stroke: rgb(0, 0, 0); stroke-opacity: 0.1; stroke-width: 0.5px;"/><path class="xgrid crisp" transform="translate(201.08401283172935,0)" d="M0,46.88867016622923v158.66432856215908" style="stroke: rgb(0, 0, 0); stroke-opacity: 0.1; stroke-width: 0.5px;"/><path class="xgrid crisp" transform="translate(262.3640128317294,0)" d="M0,46.88867016622923v158.66432856215908" style="stroke: rgb(0, 0, 0); stroke-opacity: 0.1; stroke-width: 0.5px;"/><path class="xgrid crisp" transform="translate(323.65401283172935,0)" d="M0,46.88867016622923v158.66432856215908" style="stroke: rgb(0, 0, 0); stroke-opacity: 0.1; stroke-width: 0.5px;"/><path class="xgrid crisp" transform="translate(384.9440128317293,0)" d="M0,46.88867016622923v158.66432856215908" style="stroke: rgb(0, 0, 0); stroke-opacity: 0.1; stroke-width: 0.5px;"/></g><g class="y"><path class="ygrid crisp" transform="translate(0,203.14867016622924)" d="M134.96401283172935,0h257.25645960921554" style="stroke: rgb(0, 0, 0); stroke-opacity: 0.1; stroke-width: 0.5px;"/><path class="ygrid crisp" transform="translate(0,165.12867016622923)" d="M134.96401283172935,0h257.25645960921554" style="stroke: rgb(0, 0, 0); stroke-opacity: 0.1; stroke-width: 0.5px;"/><path class="ygrid crisp" transform="translate(0,127.09867016622923)" d="M134.96401283172935,0h257.25645960921554" style="stroke: rgb(0, 0, 0); stroke-opacity: 0.1; stroke-width: 0.5px;"/><path class="ygrid crisp" transform="translate(0,89.06867016622923)" d="M134.96401283172935,0h257.25645960921554" style="stroke: rgb(0, 0, 0); stroke-opacity: 0.1; stroke-width: 0.5px;"/><path class="ygrid crisp" transform="translate(0,51.04867016622923)" d="M134.96401283172935,0h257.25645960921554" style="stroke: rgb(0, 0, 0); stroke-opacity: 0.1; stroke-width: 0.5px;"/></g></g><g class="zerolinelayer"/><g class="layer-between"><g class="shapelayer"/><g class="imagelayer"/></g><path class="xlines-below"/><path class="ylines-below"/><g class="overlines-below"/><g class="xaxislayer-below"/><g class="yaxislayer-below"/><g class="overaxes-below"/><g class="overplot"><g class="xy" transform="translate(134.96401283172935,46.88867016622923)" clip-path="url(#clipb79c2exyplot)"><g class="scatterlayer mlayer"><g class="trace scatter tracea13922" style="stroke-miterlimit: 2; opacity: 1;"><g class="fills"/><g class="errorbars"/><g class="lines"><path class="js-line" d="M7.28,62.69L9.73,57.53L12.18,36.85L17.09,80.89L19.54,41.57L21.99,145.64L24.44,147.31L26.89,34.55L29.34,23.7L31.8,49.97L34.25,36.53L36.7,78.97L39.15,96.36L41.6,97.69L44.05,73.43L46.5,126.41L48.96,110.67L51.41,144.15L53.86,142.1L56.31,70.58L58.76,150.03L61.21,61.2L63.66,144.3L66.12,68.69L68.57,136.96L71.02,79.07L73.47,79.16L78.37,151.09L80.82,103L83.28,65.83L85.73,98.76L88.18,50.58L90.63,145.29L93.08,11.41L95.53,101.23L97.98,147.13L100.44,125.19L102.89,79L105.34,94.79L107.79,115.77L110.24,40.06L115.15,116.17L117.6,56.11L120.05,109.82L122.5,118.64L124.95,15.96L127.4,52.03L129.85,90.8L132.31,95.96L134.76,134.72L137.21,29.18L139.66,40.39L142.11,39.88L144.56,118.21L147.01,43.65L149.47,67.14L151.92,99.59L154.37,86.69L156.82,80.68L159.27,43.71L161.72,143.91L164.17,30.06L166.63,152.76L169.08,55.82L171.53,40.89L173.98,69.75L176.43,44.67L178.88,58.31L181.33,104.77L183.79,143.7L186.24,44.68L188.69,28.87L191.14,111.13L193.59,60.96L196.04,99.9L198.49,87.59L200.95,127.86L203.4,49.86L205.85,135.11L208.3,110.28L210.75,148.43L213.2,154.17L215.66,18.06L218.11,6.84L220.56,82.01L223.01,40.26L225.46,80.85L227.91,107.03L230.36,91.52L232.82,54.74L235.27,145.12L237.72,54.65L240.17,18.28L242.62,66.61L245.07,68.92L247.52,64.38L249.98,132.42" style="vector-effect: none; fill: none; stroke: rgb(0, 154, 250); stroke-opacity: 1; stroke-width: 1px; opacity: 1;"/></g><g class="points"/><g class="text"/></g><g class="trace scatter trace6c1e6b" style="stroke-miterlimit: 2; opacity: 1;"><g class="fills"/><g class="errorbars"/><g class="lines"><path class="js-line" d="M7.28,146.03L9.73,74.86L12.18,54.17L14.64,120.61L17.09,76.54L19.54,99.79L21.99,24.51L24.44,59.01L26.89,64.94L29.34,64.79L31.8,57.88L34.25,27.46L36.7,127.26L39.15,49.81L41.6,62.01L44.05,120.23L46.5,148.94L48.96,142.65L51.41,142.43L53.86,107.15L56.31,36.96L58.76,47.5L61.21,100.31L63.66,151.45L66.12,8.8L68.57,86.53L71.02,59.75L73.47,72.41L75.92,74.6L78.37,98.02L80.82,134.71L83.28,136.75L85.73,116.29L88.18,45.9L90.63,27.3L93.08,65.01L95.53,4.49L97.98,14.14L100.44,72.19L102.89,81.75L105.34,137.38L107.79,65.88L110.24,113.11L112.69,108.46L115.15,95.25L117.6,82.5L120.05,57.03L122.5,74.01L124.95,17.11L129.85,128.41L132.31,80L134.76,24.68L137.21,67.62L139.66,106.26L142.11,27.27L144.56,105.54L147.01,104.55L149.47,35.08L151.92,96.87L154.37,90.2L156.82,34.19L159.27,70.42L161.72,124.26L164.17,68.41L166.63,122.43L169.08,132.64L171.53,95.93L173.98,129.54L176.43,81.2L178.88,31.23L181.33,98.13L183.79,103.38L186.24,72.14L188.69,145.15L191.14,56.16L193.59,7.78L196.04,127.3L198.49,23.54L200.95,60.49L203.4,57.31L205.85,135.74L208.3,99.42L210.75,117.25L213.2,92.57L215.66,46.07L220.56,113.94L223.01,34.42L225.46,16.85L227.91,96.45L230.36,149.1L232.82,61.52L235.27,55.6L237.72,96.6L240.17,118.66L242.62,123.67L245.07,114.57L247.52,35.09L249.98,15.03" style="vector-effect: none; fill: none; stroke: rgb(227, 111, 71); stroke-opacity: 1; stroke-width: 1px; opacity: 1;"/></g><g class="points"/><g class="text"/></g></g></g></g><path class="xlines-above crisp" d="M133.96401283172935,206.05299872838833H392.2204724409449" style="fill: none; stroke-width: 1px; stroke: rgb(0, 0, 0); stroke-opacity: 1;"/><path class="ylines-above crisp" d="M134.46401283172935,46.88867016622923V205.55299872838833" style="fill: none; stroke-width: 1px; stroke: rgb(0, 0, 0); stroke-opacity: 1;"/><g class="overlines-above"/><g class="xaxislayer-above"><path class="xtick ticks crisp" d="M0,205.55299872838833v-5" transform="translate(139.79401283172936,0)" style="stroke: rgb(0, 0, 0); stroke-opacity: 1; stroke-width: 1px;"/><path class="xtick ticks crisp" d="M0,205.55299872838833v-5" transform="translate(201.08401283172935,0)" style="stroke: rgb(0, 0, 0); stroke-opacity: 1; stroke-width: 1px;"/><path class="xtick ticks crisp" d="M0,205.55299872838833v-5" transform="translate(262.3640128317294,0)" style="stroke: rgb(0, 0, 0); stroke-opacity: 1; stroke-width: 1px;"/><path class="xtick ticks crisp" d="M0,205.55299872838833v-5" transform="translate(323.65401283172935,0)" style="stroke: rgb(0, 0, 0); stroke-opacity: 1; stroke-width: 1px;"/><path class="xtick ticks crisp" d="M0,205.55299872838833v-5" transform="translate(384.9440128317293,0)" style="stroke: rgb(0, 0, 0); stroke-opacity: 1; stroke-width: 1px;"/><g class="xtick"><text text-anchor="end" x="0" y="219.75299872838832" transform="translate(139.79401283172936,0) rotate(-60,0,214.25299872838832)" style="font-family: sans-serif; font-size: 11px; fill: rgb(0, 0, 0); fill-opacity: 1; white-space: pre; opacity: 1;">0</text></g><g class="xtick"><text text-anchor="end" x="0" y="219.75299872838832" style="font-family: sans-serif; font-size: 11px; fill: rgb(0, 0, 0); fill-opacity: 1; white-space: pre; opacity: 1;" transform="translate(201.08401283172935,0) rotate(-60,0,214.25299872838832)">25</text></g><g class="xtick"><text text-anchor="end" x="0" y="219.75299872838832" style="font-family: sans-serif; font-size: 11px; fill: rgb(0, 0, 0); fill-opacity: 1; white-space: pre; opacity: 1;" transform="translate(262.3640128317294,0) rotate(-60,0,214.25299872838832)">50</text></g><g class="xtick"><text text-anchor="end" x="0" y="219.75299872838832" style="font-family: sans-serif; font-size: 11px; fill: rgb(0, 0, 0); fill-opacity: 1; white-space: pre; opacity: 1;" transform="translate(323.65401283172935,0) rotate(-60,0,214.25299872838832)">75</text></g><g class="xtick"><text text-anchor="end" x="0" y="219.75299872838832" style="font-family: sans-serif; font-size: 11px; fill: rgb(0, 0, 0); fill-opacity: 1; white-space: pre; opacity: 1;" transform="translate(384.9440128317293,0) rotate(-60,0,214.25299872838832)">100</text></g></g><g class="yaxislayer-above"><path class="ytick ticks crisp" d="M134.96401283172935,0h5" transform="translate(0,203.14867016622924)" style="stroke: rgb(0, 0, 0); stroke-opacity: 1; stroke-width: 1px;"/><path class="ytick ticks crisp" d="M134.96401283172935,0h5" transform="translate(0,165.12867016622923)" style="stroke: rgb(0, 0, 0); stroke-opacity: 1; stroke-width: 1px;"/><path class="ytick ticks crisp" d="M134.96401283172935,0h5" transform="translate(0,127.09867016622923)" style="stroke: rgb(0, 0, 0); stroke-opacity: 1; stroke-width: 1px;"/><path class="ytick ticks crisp" d="M134.96401283172935,0h5" transform="translate(0,89.06867016622923)" style="stroke: rgb(0, 0, 0); stroke-opacity: 1; stroke-width: 1px;"/><path class="ytick ticks crisp" d="M134.96401283172935,0h5" transform="translate(0,51.04867016622923)" style="stroke: rgb(0, 0, 0); stroke-opacity: 1; stroke-width: 1px;"/><g class="ytick"><text text-anchor="end" x="131.76401283172936" y="3.8499999999999996" transform="translate(0,203.14867016622924)" style="font-family: sans-serif; font-size: 11px; fill: rgb(0, 0, 0); fill-opacity: 1; white-space: pre; opacity: 1;">0.00</text></g><g class="ytick"><text text-anchor="end" x="131.76401283172936" y="3.8499999999999996" style="font-family: sans-serif; font-size: 11px; fill: rgb(0, 0, 0); fill-opacity: 1; white-space: pre; opacity: 1;" transform="translate(0,165.12867016622923)">0.25</text></g><g class="ytick"><text text-anchor="end" x="131.76401283172936" y="3.8499999999999996" style="font-family: sans-serif; font-size: 11px; fill: rgb(0, 0, 0); fill-opacity: 1; white-space: pre; opacity: 1;" transform="translate(0,127.09867016622923)">0.50</text></g><g class="ytick"><text text-anchor="end" x="131.76401283172936" y="3.8499999999999996" style="font-family: sans-serif; font-size: 11px; fill: rgb(0, 0, 0); fill-opacity: 1; white-space: pre; opacity: 1;" transform="translate(0,89.06867016622923)">0.75</text></g><g class="ytick"><text text-anchor="end" x="131.76401283172936" y="3.8499999999999996" style="font-family: sans-serif; font-size: 11px; fill: rgb(0, 0, 0); fill-opacity: 1; white-space: pre; opacity: 1;" transform="translate(0,51.04867016622923)">1.00</text></g></g><g class="overaxes-above"/></g><g class="subplot x2y2"><g class="layer-subplot"><g class="shapelayer"/><g class="imagelayer"/></g><g class="minor-gridlayer"><g class="x2"/><g class="y2"/></g><g class="gridlayer"><g class="x2"><path class="x2grid crisp" transform="translate(442.9934878973462,0)" d="M0,46.88867016622923v158.66432856215908" style="stroke: rgb(0, 0, 0); stroke-opacity: 0.1; stroke-width: 0.5px;"/><path class="x2grid crisp" transform="translate(504.2834878973462,0)" d="M0,46.88867016622923v158.66432856215908" style="stroke: rgb(0, 0, 0); stroke-opacity: 0.1; stroke-width: 0.5px;"/><path class="x2grid crisp" transform="translate(565.5634878973462,0)" d="M0,46.88867016622923v158.66432856215908" style="stroke: rgb(0, 0, 0); stroke-opacity: 0.1; stroke-width: 0.5px;"/><path class="x2grid crisp" transform="translate(626.8534878973462,0)" d="M0,46.88867016622923v158.66432856215908" style="stroke: rgb(0, 0, 0); stroke-opacity: 0.1; stroke-width: 0.5px;"/><path class="x2grid crisp" transform="translate(688.1434878973462,0)" d="M0,46.88867016622923v158.66432856215908" style="stroke: rgb(0, 0, 0); stroke-opacity: 0.1; stroke-width: 0.5px;"/></g><g class="y2"><path class="y2grid crisp" transform="translate(0,202.0586701662292)" d="M438.1634878973462,0h257.25645960921554" style="stroke: rgb(0, 0, 0); stroke-opacity: 0.1; stroke-width: 0.5px;"/><path class="y2grid crisp" transform="translate(0,164.37867016622923)" d="M438.1634878973462,0h257.25645960921554" style="stroke: rgb(0, 0, 0); stroke-opacity: 0.1; stroke-width: 0.5px;"/><path class="y2grid crisp" transform="translate(0,126.70867016622923)" d="M438.1634878973462,0h257.25645960921554" style="stroke: rgb(0, 0, 0); stroke-opacity: 0.1; stroke-width: 0.5px;"/><path class="y2grid crisp" transform="translate(0,89.02867016622923)" d="M438.1634878973462,0h257.25645960921554" style="stroke: rgb(0, 0, 0); stroke-opacity: 0.1; stroke-width: 0.5px;"/><path class="y2grid crisp" transform="translate(0,51.35867016622923)" d="M438.1634878973462,0h257.25645960921554" style="stroke: rgb(0, 0, 0); stroke-opacity: 0.1; stroke-width: 0.5px;"/></g></g><g class="zerolinelayer"/><g class="layer-between"><g class="shapelayer"/><g class="imagelayer"/></g><path class="xlines-below"/><path class="ylines-below"/><g class="overlines-below"/><g class="xaxislayer-below"/><g class="yaxislayer-below"/><g class="overaxes-below"/><g class="overplot"><g class="x2y2" transform="translate(438.1634878973462,46.88867016622923)" clip-path="url(#clipb79c2ex2y2plot)"><g class="scatterlayer mlayer"><g class="trace scatter trace58b90d" style="stroke-miterlimit: 2; opacity: 1;"><g class="fills"/><g class="errorbars"/><g class="lines"><path class="js-line" d="M7.28,130.27L9.73,12.22L12.18,44.6L14.64,24.43L17.09,123.82L19.54,124.77L21.99,29.76L24.44,48.99L26.89,17.32L29.34,72.96L31.8,39.84L34.25,45.61L36.7,136.38L39.15,120.53L41.6,33.06L44.05,104.25L46.5,97.4L48.96,73.92L51.41,34.36L53.86,81.39L56.31,42.35L58.76,124.08L61.21,83.54L66.12,46.91L68.57,120.11L71.02,34.49L73.47,9.36L75.92,42.07L78.37,142.92L80.82,80.09L83.28,119.11L85.73,15.39L88.18,10.02L90.63,23.89L93.08,92.69L95.53,147.63L97.98,124.11L100.44,142.04L102.89,149.07L105.34,109.77L107.79,120.74L110.24,126.76L112.69,152.8L115.15,32.07L117.6,123.14L120.05,40.83L122.5,25.37L124.95,50.54L127.4,87.8L129.85,125.09L132.31,22.64L134.76,40.01L137.21,19.19L142.11,128.89L144.56,132.76L147.01,80.45L149.47,101.7L151.92,48.86L154.37,91.88L156.82,29.12L159.27,67.64L161.72,48.15L164.17,74.5L166.63,100.12L169.08,48.09L171.53,128.25L173.98,55.58L176.43,134.27L178.88,26.58L181.33,116.6L183.79,27.21L186.24,71.8L188.69,134.59L193.59,30.19L196.04,126.78L198.49,29.05L200.95,23.65L203.4,39.68L205.85,43.25L208.3,93.54L210.75,29.61L213.2,132.65L215.66,148.98L218.11,79.87L220.56,106.7L223.01,136.74L225.46,14.69L227.91,94.81L230.36,104.88L232.82,31.39L235.27,107.8L237.72,131.96L240.17,45.74L242.62,83.49L245.07,136.54L247.52,75.2L249.98,76.77" style="vector-effect: none; fill: none; stroke: rgb(0, 154, 250); stroke-opacity: 1; stroke-width: 1px; opacity: 1;"/></g><g class="points"/><g class="text"/></g><g class="trace scatter trace496ffa" style="stroke-miterlimit: 2; opacity: 1;"><g class="fills"/><g class="errorbars"/><g class="lines"><path class="js-line" d="M7.28,103.37L9.73,88.49L12.18,27.72L14.64,80.34L17.09,94.12L19.54,39.91L21.99,142.57L24.44,115.2L26.89,109.06L29.34,47.93L31.8,141.9L34.25,107.67L36.7,140.45L39.15,43.42L41.6,95.6L44.05,92.54L46.5,77.82L48.96,107.87L51.41,59.89L53.86,142.77L56.31,4.49L58.76,110.46L61.21,142.25L63.66,35.22L66.12,26.74L68.57,94.59L71.02,80.49L73.47,6.05L75.92,137.73L78.37,55.33L80.82,105.14L83.28,8.48L85.73,96.79L88.18,153.26L90.63,117.38L93.08,86.86L95.53,127.38L97.98,122.23L100.44,18.51L102.89,109.93L105.34,92.92L107.79,113.73L110.24,149.02L112.69,54.48L115.15,22.65L120.05,110.83L122.5,81.29L124.95,147.88L127.4,49.93L129.85,134.9L132.31,44.3L134.76,69.29L137.21,127.72L139.66,42.78L142.11,77.87L144.56,31.59L147.01,80.98L149.47,108.2L151.92,43.67L154.37,59.07L156.82,140.09L159.27,100.76L161.72,150.14L164.17,106.36L166.63,47.25L169.08,72.92L171.53,151.05L173.98,144.65L176.43,13.61L178.88,37L181.33,24.15L183.79,122.57L186.24,99.37L188.69,74.18L191.14,138.73L193.59,151.5L196.04,85.57L198.49,38.57L200.95,82.1L203.4,120.88L205.85,110.14L208.3,4.52L210.75,91.63L213.2,72L215.66,84.73L218.11,51.09L220.56,95.62L223.01,66.7L225.46,58L227.91,8.58L230.36,4.92L232.82,61.13L235.27,7.45L237.72,130.36L240.17,67.22L242.62,146.53L245.07,22.51L247.52,32.26L249.98,154.17" style="vector-effect: none; fill: none; stroke: rgb(227, 111, 71); stroke-opacity: 1; stroke-width: 1px; opacity: 1;"/></g><g class="points"/><g class="text"/></g></g></g></g><path class="xlines-above crisp" d="M437.1634878973462,206.05299872838833H695.4199475065618" style="fill: none; stroke-width: 1px; stroke: rgb(0, 0, 0); stroke-opacity: 1;"/><path class="ylines-above crisp" d="M437.6634878973462,46.88867016622923V205.55299872838833" style="fill: none; stroke-width: 1px; stroke: rgb(0, 0, 0); stroke-opacity: 1;"/><g class="overlines-above"/><g class="xaxislayer-above"><path class="x2tick ticks crisp" d="M0,205.55299872838833v-5" transform="translate(442.9934878973462,0)" style="stroke: rgb(0, 0, 0); stroke-opacity: 1; stroke-width: 1px;"/><path class="x2tick ticks crisp" d="M0,205.55299872838833v-5" transform="translate(504.2834878973462,0)" style="stroke: rgb(0, 0, 0); stroke-opacity: 1; stroke-width: 1px;"/><path class="x2tick ticks crisp" d="M0,205.55299872838833v-5" transform="translate(565.5634878973462,0)" style="stroke: rgb(0, 0, 0); stroke-opacity: 1; stroke-width: 1px;"/><path class="x2tick ticks crisp" d="M0,205.55299872838833v-5" transform="translate(626.8534878973462,0)" style="stroke: rgb(0, 0, 0); stroke-opacity: 1; stroke-width: 1px;"/><path class="x2tick ticks crisp" d="M0,205.55299872838833v-5" transform="translate(688.1434878973462,0)" style="stroke: rgb(0, 0, 0); stroke-opacity: 1; stroke-width: 1px;"/><g class="x2tick"><text text-anchor="end" x="0" y="219.75299872838832" transform="translate(442.9934878973462,0) rotate(-60,0,214.25299872838832)" style="font-family: sans-serif; font-size: 11px; fill: rgb(0, 0, 0); fill-opacity: 1; white-space: pre; opacity: 1;">0</text></g><g class="x2tick"><text text-anchor="end" x="0" y="219.75299872838832" style="font-family: sans-serif; font-size: 11px; fill: rgb(0, 0, 0); fill-opacity: 1; white-space: pre; opacity: 1;" transform="translate(504.2834878973462,0) rotate(-60,0,214.25299872838832)">25</text></g><g class="x2tick"><text text-anchor="end" x="0" y="219.75299872838832" style="font-family: sans-serif; font-size: 11px; fill: rgb(0, 0, 0); fill-opacity: 1; white-space: pre; opacity: 1;" transform="translate(565.5634878973462,0) rotate(-60,0,214.25299872838832)">50</text></g><g class="x2tick"><text text-anchor="end" x="0" y="219.75299872838832" style="font-family: sans-serif; font-size: 11px; fill: rgb(0, 0, 0); fill-opacity: 1; white-space: pre; opacity: 1;" transform="translate(626.8534878973462,0) rotate(-60,0,214.25299872838832)">75</text></g><g class="x2tick"><text text-anchor="end" x="0" y="219.75299872838832" style="font-family: sans-serif; font-size: 11px; fill: rgb(0, 0, 0); fill-opacity: 1; white-space: pre; opacity: 1;" transform="translate(688.1434878973462,0) rotate(-60,0,214.25299872838832)">100</text></g></g><g class="yaxislayer-above"><path class="y2tick ticks crisp" d="M438.1634878973462,0h5" transform="translate(0,202.0586701662292)" style="stroke: rgb(0, 0, 0); stroke-opacity: 1; stroke-width: 1px;"/><path class="y2tick ticks crisp" d="M438.1634878973462,0h5" transform="translate(0,164.37867016622923)" style="stroke: rgb(0, 0, 0); stroke-opacity: 1; stroke-width: 1px;"/><path class="y2tick ticks crisp" d="M438.1634878973462,0h5" transform="translate(0,126.70867016622923)" style="stroke: rgb(0, 0, 0); stroke-opacity: 1; stroke-width: 1px;"/><path class="y2tick ticks crisp" d="M438.1634878973462,0h5" transform="translate(0,89.02867016622923)" style="stroke: rgb(0, 0, 0); stroke-opacity: 1; stroke-width: 1px;"/><path class="y2tick ticks crisp" d="M438.1634878973462,0h5" transform="translate(0,51.35867016622923)" style="stroke: rgb(0, 0, 0); stroke-opacity: 1; stroke-width: 1px;"/><g class="y2tick"><text text-anchor="end" x="434.9634878973462" y="3.8499999999999996" transform="translate(0,202.0586701662292)" style="font-family: sans-serif; font-size: 11px; fill: rgb(0, 0, 0); fill-opacity: 1; white-space: pre; opacity: 1;">0.00</text></g><g class="y2tick"><text text-anchor="end" x="434.9634878973462" y="3.8499999999999996" style="font-family: sans-serif; font-size: 11px; fill: rgb(0, 0, 0); fill-opacity: 1; white-space: pre; opacity: 1;" transform="translate(0,164.37867016622923)">0.25</text></g><g class="y2tick"><text text-anchor="end" x="434.9634878973462" y="3.8499999999999996" style="font-family: sans-serif; font-size: 11px; fill: rgb(0, 0, 0); fill-opacity: 1; white-space: pre; opacity: 1;" transform="translate(0,126.70867016622923)">0.50</text></g><g class="y2tick"><text text-anchor="end" x="434.9634878973462" y="3.8499999999999996" style="font-family: sans-serif; font-size: 11px; fill: rgb(0, 0, 0); fill-opacity: 1; white-space: pre; opacity: 1;" transform="translate(0,89.02867016622923)">0.75</text></g><g class="y2tick"><text text-anchor="end" x="434.9634878973462" y="3.8499999999999996" style="font-family: sans-serif; font-size: 11px; fill: rgb(0, 0, 0); fill-opacity: 1; white-space: pre; opacity: 1;" transform="translate(0,51.35867016622923)">1.00</text></g></g><g class="overaxes-above"/></g><g class="subplot x3y3"><g class="layer-subplot"><g class="shapelayer"/><g class="imagelayer"/></g><g class="minor-gridlayer"><g class="x3"/><g class="y3"/></g><g class="gridlayer"><g class="x3"><path class="x3grid crisp" transform="translate(145.48401283172936,0)" d="M0,276.88867016622925v158.6643285621591" style="stroke: rgb(0, 0, 0); stroke-opacity: 0.1; stroke-width: 0.5px;"/><path class="x3grid crisp" transform="translate(279.00401283172937,0)" d="M0,276.88867016622925v158.6643285621591" style="stroke: rgb(0, 0, 0); stroke-opacity: 0.1; stroke-width: 0.5px;"/><path class="x3grid crisp" transform="translate(412.52401283172935,0)" d="M0,276.88867016622925v158.6643285621591" style="stroke: rgb(0, 0, 0); stroke-opacity: 0.1; stroke-width: 0.5px;"/><path class="x3grid crisp" transform="translate(546.0440128317293,0)" d="M0,276.88867016622925v158.6643285621591" style="stroke: rgb(0, 0, 0); stroke-opacity: 0.1; stroke-width: 0.5px;"/><path class="x3grid crisp" transform="translate(679.5540128317293,0)" d="M0,276.88867016622925v158.6643285621591" style="stroke: rgb(0, 0, 0); stroke-opacity: 0.1; stroke-width: 0.5px;"/></g><g class="y3"><path class="y3grid crisp" transform="translate(0,431.27867016622923)" d="M134.96401283172935,0h560.4559346748323" style="stroke: rgb(0, 0, 0); stroke-opacity: 0.1; stroke-width: 0.5px;"/><path class="y3grid crisp" transform="translate(0,393.57867016622924)" d="M134.96401283172935,0h560.4559346748323" style="stroke: rgb(0, 0, 0); stroke-opacity: 0.1; stroke-width: 0.5px;"/><path class="y3grid crisp" transform="translate(0,355.88867016622925)" d="M134.96401283172935,0h560.4559346748323" style="stroke: rgb(0, 0, 0); stroke-opacity: 0.1; stroke-width: 0.5px;"/><path class="y3grid crisp" transform="translate(0,318.19867016622925)" d="M134.96401283172935,0h560.4559346748323" style="stroke: rgb(0, 0, 0); stroke-opacity: 0.1; stroke-width: 0.5px;"/><path class="y3grid crisp" transform="translate(0,280.50867016622925)" d="M134.96401283172935,0h560.4559346748323" style="stroke: rgb(0, 0, 0); stroke-opacity: 0.1; stroke-width: 0.5px;"/></g></g><g class="zerolinelayer"/><g class="layer-between"><g class="shapelayer"/><g class="imagelayer"/></g><path class="xlines-below"/><path class="ylines-below"/><g class="overlines-below"/><g class="xaxislayer-below"/><g class="yaxislayer-below"/><g class="overaxes-below"/><g class="overplot"><g class="x3y3" transform="translate(134.96401283172935,276.88867016622925)" clip-path="url(#clipb79c2ex3y3plot)"><g class="scatterlayer mlayer"><g class="trace scatter trace18d51c" style="stroke-miterlimit: 2; opacity: 1;"><g class="fills"/><g class="errorbars"/><g class="lines"><path class="js-line" d="M15.86,113.34L21.2,46.24L26.54,130.58L31.88,76.37L37.22,49.44L42.57,75.67L47.91,92.33L53.25,145.46L58.59,97.52L63.93,137.46L69.27,113.41L74.61,95.94L79.95,20.49L90.63,96.25L95.97,10.06L101.31,123.47L106.65,51.01L112,71.33L117.34,6.46L122.68,87.02L128.02,131.43L133.36,99.97L138.7,79.94L144.04,57.39L149.38,144.93L154.72,35.49L160.06,33.29L165.4,53.97L170.74,88.21L176.08,49.04L181.42,70.79L186.77,121.74L192.11,149.45L197.45,7.01L202.79,105.73L208.13,12.65L213.47,88.12L218.81,88.45L224.15,48.37L229.49,133.9L234.83,8.25L240.17,8.06L245.51,26.95L250.85,82.32L256.19,50.8L261.54,7.74L266.88,67.91L272.22,124.86L277.56,22.53L282.9,115.25L288.24,14.53L293.58,108.83L298.92,126.27L304.26,88.34L309.6,84.93L314.94,82.79L320.28,61.37L325.62,139.55L330.96,24.66L336.31,118.24L341.65,117.97L346.99,30.99L352.33,134.88L357.67,14.76L363.01,14.74L368.35,95.95L373.69,36.15L379.03,71.3L384.37,93.39L389.71,25.46L395.05,95.04L400.39,124.12L405.74,110.82L411.08,154.08L416.42,11.85L421.76,8.57L427.1,69.76L432.44,71.35L437.78,4.99L443.12,7.85L448.46,58.79L453.8,81.05L459.14,114.17L464.48,142.57L469.82,44.27L475.16,37.45L480.51,32.21L485.85,143.69L491.19,49.74L496.53,46.59L501.87,62.74L507.21,4.72L512.55,78.54L517.89,125.59L523.23,31.6L528.57,122.88L533.91,142.4L539.25,62.02L544.59,85.78" style="vector-effect: none; fill: none; stroke: rgb(0, 154, 250); stroke-opacity: 1; stroke-width: 1px; opacity: 1;"/></g><g class="points"/><g class="text"/></g><g class="trace scatter trace5021c8" style="stroke-miterlimit: 2; opacity: 1;"><g class="fills"/><g class="errorbars"/><g class="lines"><path class="js-line" d="M15.86,22.28L21.2,106.47L26.54,139.12L31.88,40.71L37.22,4.49L42.57,80.45L47.91,17.05L53.25,142.39L58.59,24.31L63.93,36.76L69.27,105.56L74.61,91.39L79.95,115.89L85.29,27.83L90.63,82.91L95.97,151.9L101.31,20.13L106.65,76.06L112,42.71L117.34,154.17L122.68,147.06L128.02,27.6L133.36,84.88L138.7,103.12L144.04,141.59L149.38,8.71L154.72,8.91L160.06,58.35L165.4,134.65L170.74,87.17L176.08,102.59L181.42,117.64L186.77,34.07L192.11,28.64L197.45,19.93L202.79,9.62L208.13,86.46L213.47,39.12L218.81,131.58L224.15,5.49L229.49,135.04L234.83,77.62L240.17,52.35L245.51,89.9L250.85,7.83L256.19,8.23L261.54,71.8L266.88,135.76L272.22,80.29L277.56,107.51L282.9,36.85L288.24,90.12L293.58,71.27L298.92,19.68L304.26,6.32L309.6,76.45L314.94,34.75L320.28,120.99L325.62,66.5L330.96,21.05L336.31,71.08L341.65,132.97L346.99,104.3L352.33,22.11L357.67,139.38L363.01,151.68L368.35,30.38L373.69,22.75L379.03,37.43L384.37,8.27L389.71,65.43L395.05,148.7L400.39,48.34L405.74,41.96L411.08,118.09L416.42,15.26L421.76,80.6L427.1,41.83L432.44,26.54L437.78,107.83L443.12,142.45L448.46,121.59L453.8,52.67L459.14,111.01L464.48,8.42L469.82,103.89L475.16,131.85L480.51,56.12L485.85,141.35L491.19,15.31L496.53,67.06L501.87,121.7L507.21,8.51L512.55,132.24L517.89,13.72L523.23,65.94L528.57,153.07L533.91,152.1L539.25,116.03L544.59,22.32" style="vector-effect: none; fill: none; stroke: rgb(227, 111, 71); stroke-opacity: 1; stroke-width: 1px; opacity: 1;"/></g><g class="points"/><g class="text"/></g></g></g></g><path class="xlines-above crisp" d="M133.96401283172935,436.0529987283884H695.4199475065616" style="fill: none; stroke-width: 1px; stroke: rgb(0, 0, 0); stroke-opacity: 1;"/><path class="ylines-above crisp" d="M134.46401283172935,276.88867016622925V435.5529987283884" style="fill: none; stroke-width: 1px; stroke: rgb(0, 0, 0); stroke-opacity: 1;"/><g class="overlines-above"/><g class="xaxislayer-above"><path class="x3tick ticks crisp" d="M0,435.5529987283884v-5" transform="translate(145.48401283172936,0)" style="stroke: rgb(0, 0, 0); stroke-opacity: 1; stroke-width: 1px;"/><path class="x3tick ticks crisp" d="M0,435.5529987283884v-5" transform="translate(279.00401283172937,0)" style="stroke: rgb(0, 0, 0); stroke-opacity: 1; stroke-width: 1px;"/><path class="x3tick ticks crisp" d="M0,435.5529987283884v-5" transform="translate(412.52401283172935,0)" style="stroke: rgb(0, 0, 0); stroke-opacity: 1; stroke-width: 1px;"/><path class="x3tick ticks crisp" d="M0,435.5529987283884v-5" transform="translate(546.0440128317293,0)" style="stroke: rgb(0, 0, 0); stroke-opacity: 1; stroke-width: 1px;"/><path class="x3tick ticks crisp" d="M0,435.5529987283884v-5" transform="translate(679.5540128317293,0)" style="stroke: rgb(0, 0, 0); stroke-opacity: 1; stroke-width: 1px;"/><g class="x3tick"><text text-anchor="end" x="0" y="449.7529987283884" transform="translate(145.48401283172936,0) rotate(-60,0,444.2529987283884)" style="font-family: sans-serif; font-size: 11px; fill: rgb(0, 0, 0); fill-opacity: 1; white-space: pre; opacity: 1;">0</text></g><g class="x3tick"><text text-anchor="end" x="0" y="449.7529987283884" style="font-family: sans-serif; font-size: 11px; fill: rgb(0, 0, 0); fill-opacity: 1; white-space: pre; opacity: 1;" transform="translate(279.00401283172937,0) rotate(-60,0,444.2529987283884)">25</text></g><g class="x3tick"><text text-anchor="end" x="0" y="449.7529987283884" style="font-family: sans-serif; font-size: 11px; fill: rgb(0, 0, 0); fill-opacity: 1; white-space: pre; opacity: 1;" transform="translate(412.52401283172935,0) rotate(-60,0,444.2529987283884)">50</text></g><g class="x3tick"><text text-anchor="end" x="0" y="449.7529987283884" style="font-family: sans-serif; font-size: 11px; fill: rgb(0, 0, 0); fill-opacity: 1; white-space: pre; opacity: 1;" transform="translate(546.0440128317293,0) rotate(-60,0,444.2529987283884)">75</text></g><g class="x3tick"><text text-anchor="end" x="0" y="449.7529987283884" style="font-family: sans-serif; font-size: 11px; fill: rgb(0, 0, 0); fill-opacity: 1; white-space: pre; opacity: 1;" transform="translate(679.5540128317293,0) rotate(-60,0,444.2529987283884)">100</text></g></g><g class="yaxislayer-above"><path class="y3tick ticks crisp" d="M134.96401283172935,0h5" transform="translate(0,431.27867016622923)" style="stroke: rgb(0, 0, 0); stroke-opacity: 1; stroke-width: 1px;"/><path class="y3tick ticks crisp" d="M134.96401283172935,0h5" transform="translate(0,393.57867016622924)" style="stroke: rgb(0, 0, 0); stroke-opacity: 1; stroke-width: 1px;"/><path class="y3tick ticks crisp" d="M134.96401283172935,0h5" transform="translate(0,355.88867016622925)" style="stroke: rgb(0, 0, 0); stroke-opacity: 1; stroke-width: 1px;"/><path class="y3tick ticks crisp" d="M134.96401283172935,0h5" transform="translate(0,318.19867016622925)" style="stroke: rgb(0, 0, 0); stroke-opacity: 1; stroke-width: 1px;"/><path class="y3tick ticks crisp" d="M134.96401283172935,0h5" transform="translate(0,280.50867016622925)" style="stroke: rgb(0, 0, 0); stroke-opacity: 1; stroke-width: 1px;"/><g class="y3tick"><text text-anchor="end" x="131.76401283172936" y="3.8499999999999996" transform="translate(0,431.27867016622923)" style="font-family: sans-serif; font-size: 11px; fill: rgb(0, 0, 0); fill-opacity: 1; white-space: pre; opacity: 1;">0.00</text></g><g class="y3tick"><text text-anchor="end" x="131.76401283172936" y="3.8499999999999996" style="font-family: sans-serif; font-size: 11px; fill: rgb(0, 0, 0); fill-opacity: 1; white-space: pre; opacity: 1;" transform="translate(0,393.57867016622924)">0.25</text></g><g class="y3tick"><text text-anchor="end" x="131.76401283172936" y="3.8499999999999996" style="font-family: sans-serif; font-size: 11px; fill: rgb(0, 0, 0); fill-opacity: 1; white-space: pre; opacity: 1;" transform="translate(0,355.88867016622925)">0.50</text></g><g class="y3tick"><text text-anchor="end" x="131.76401283172936" y="3.8499999999999996" style="font-family: sans-serif; font-size: 11px; fill: rgb(0, 0, 0); fill-opacity: 1; white-space: pre; opacity: 1;" transform="translate(0,318.19867016622925)">0.75</text></g><g class="y3tick"><text text-anchor="end" x="131.76401283172936" y="3.8499999999999996" style="font-family: sans-serif; font-size: 11px; fill: rgb(0, 0, 0); fill-opacity: 1; white-space: pre; opacity: 1;" transform="translate(0,280.50867016622925)">1.00</text></g></g><g class="overaxes-above"/></g></g><g class="polarlayer"/><g class="smithlayer"/><g class="ternarylayer"/><g class="geolayer"/><g class="funnelarealayer"/><g class="pielayer"/><g class="iciclelayer"/><g class="treemaplayer"/><g class="sunburstlayer"/><g class="glimages"/><defs id="topdefs-b79c2e"><g class="clips"/><clipPath id="legendb79c2e"><rect width="57" height="124" x="1" y="1"/></clipPath></defs><g class="layer-above"><g class="imagelayer"/><g class="shapelayer"/></g><g class="infolayer"><g class="legend" pointer-events="all" transform="translate(641,20)"><rect class="bg" shape-rendering="crispEdges" width="58" height="125" x="0.5" y="0.5" style="stroke: rgb(0, 0, 0); stroke-opacity: 1; fill: rgb(255, 255, 255); fill-opacity: 1; stroke-width: 1px;"/><g class="scrollbox" transform="" clip-path="url(#legendb79c2e)"><g class="groups"><g class="traces" transform="translate(1,15.5)" style="opacity: 1;"><text class="legendtext" text-anchor="start" x="40" y="4.29" style="font-family: sans-serif; font-size: 11px; fill: rgb(0, 0, 0); fill-opacity: 1; white-space: pre;">y1</text><g class="layers" style="opacity: 1;"><g class="legendfill"/><g class="legendlines"><path class="js-line" d="M5,0h30" style="fill: none; stroke: rgb(0, 154, 250); stroke-opacity: 1; stroke-width: 1px;"/></g><g class="legendsymbols"><g class="legendpoints"/></g></g><rect class="legendtoggle" x="0" y="-9.5" width="51.625" height="19" style="fill: rgb(0, 0, 0); fill-opacity: 0;"/></g><g class="traces" transform="translate(1,34.5)" style="opacity: 1;"><text class="legendtext" text-anchor="start" x="40" y="4.29" style="font-family: sans-serif; font-size: 11px; fill: rgb(0, 0, 0); fill-opacity: 1; white-space: pre;">y2</text><g class="layers" style="opacity: 1;"><g class="legendfill"/><g class="legendlines"><path class="js-line" d="M5,0h30" style="fill: none; stroke: rgb(0, 154, 250); stroke-opacity: 1; stroke-width: 1px;"/></g><g class="legendsymbols"><g class="legendpoints"/></g></g><rect class="legendtoggle" x="0" y="-9.5" width="51.625" height="19" style="fill: rgb(0, 0, 0); fill-opacity: 0;"/></g><g class="traces" transform="translate(1,53.5)" style="opacity: 1;"><text class="legendtext" text-anchor="start" x="40" y="4.29" style="font-family: sans-serif; font-size: 11px; fill: rgb(0, 0, 0); fill-opacity: 1; white-space: pre;">y3</text><g class="layers" style="opacity: 1;"><g class="legendfill"/><g class="legendlines"><path class="js-line" d="M5,0h30" style="fill: none; stroke: rgb(0, 154, 250); stroke-opacity: 1; stroke-width: 1px;"/></g><g class="legendsymbols"><g class="legendpoints"/></g></g><rect class="legendtoggle" x="0" y="-9.5" width="51.625" height="19" style="fill: rgb(0, 0, 0); fill-opacity: 0;"/></g><g class="traces" transform="translate(1,72.5)" style="opacity: 1;"><text class="legendtext" text-anchor="start" x="40" y="4.29" style="font-family: sans-serif; font-size: 11px; fill: rgb(0, 0, 0); fill-opacity: 1; white-space: pre;">y4</text><g class="layers" style="opacity: 1;"><g class="legendfill"/><g class="legendlines"><path class="js-line" d="M5,0h30" style="fill: none; stroke: rgb(227, 111, 71); stroke-opacity: 1; stroke-width: 1px;"/></g><g class="legendsymbols"><g class="legendpoints"/></g></g><rect class="legendtoggle" x="0" y="-9.5" width="51.625" height="19" style="fill: rgb(0, 0, 0); fill-opacity: 0;"/></g><g class="traces" transform="translate(1,91.5)" style="opacity: 1;"><text class="legendtext" text-anchor="start" x="40" y="4.29" style="font-family: sans-serif; font-size: 11px; fill: rgb(0, 0, 0); fill-opacity: 1; white-space: pre;">y5</text><g class="layers" style="opacity: 1;"><g class="legendfill"/><g class="legendlines"><path class="js-line" d="M5,0h30" style="fill: none; stroke: rgb(227, 111, 71); stroke-opacity: 1; stroke-width: 1px;"/></g><g class="legendsymbols"><g class="legendpoints"/></g></g><rect class="legendtoggle" x="0" y="-9.5" width="51.625" height="19" style="fill: rgb(0, 0, 0); fill-opacity: 0;"/></g><g class="traces" transform="translate(1,110.5)" style="opacity: 1;"><text class="legendtext" text-anchor="start" x="40" y="4.29" style="font-family: sans-serif; font-size: 11px; fill: rgb(0, 0, 0); fill-opacity: 1; white-space: pre;">y6</text><g class="layers" style="opacity: 1;"><g class="legendfill"/><g class="legendlines"><path class="js-line" d="M5,0h30" style="fill: none; stroke: rgb(227, 111, 71); stroke-opacity: 1; stroke-width: 1px;"/></g><g class="legendsymbols"><g class="legendpoints"/></g></g><rect class="legendtoggle" x="0" y="-9.5" width="51.625" height="19" style="fill: rgb(0, 0, 0); fill-opacity: 0;"/></g></g></g><rect class="scrollbar" rx="20" ry="3" width="0" height="0" x="0" y="0" style="fill: rgb(128, 139, 164); fill-opacity: 1;"/></g><g class="g-gtitle"/><g class="g-xtitle"/><g class="g-x2title"/><g class="g-x3title"/><g class="g-ytitle"/><g class="g-y2title"/><g class="g-y3title"/><g class="annotation" data-index="0" style="opacity: 1;"><g class="annotation-text-g" transform="rotate(0,143.96401283172935,33)"><g class="cursor-pointer" transform="translate(135,20)"><rect class="bg" x="0.5" y="0.5" width="17" height="25" style="stroke-width: 1px; stroke: rgb(0, 0, 0); stroke-opacity: 0; fill: rgb(0, 0, 0); fill-opacity: 0;"/><text class="annotation-text" text-anchor="middle" x="8.671875" y="20" style="font-family: sans-serif; font-size: 20px; fill: rgb(0, 0, 0); fill-opacity: 1; white-space: pre;">A</text></g></g></g><g class="annotation" data-index="1" style="opacity: 1;"><g class="annotation-text-g" transform="rotate(0,446.6634878973462,33)"><g class="cursor-pointer" transform="translate(438,20)"><rect class="bg" x="0.5" y="0.5" width="16" height="25" style="stroke-width: 1px; stroke: rgb(0, 0, 0); stroke-opacity: 0; fill: rgb(0, 0, 0); fill-opacity: 0;"/><text class="annotation-text" text-anchor="middle" x="8.671875" y="20" style="font-family: sans-serif; font-size: 20px; fill: rgb(0, 0, 0); fill-opacity: 1; white-space: pre;">B</text></g></g></g><g class="annotation" data-index="2" style="opacity: 1;"><g class="annotation-text-g" transform="rotate(0,143.96401283172935,263)"><g class="cursor-pointer" transform="translate(135,250)"><rect class="bg" x="0.5" y="0.5" width="17" height="25" style="stroke-width: 1px; stroke: rgb(0, 0, 0); stroke-opacity: 0; fill: rgb(0, 0, 0); fill-opacity: 0;"/><text class="annotation-text" text-anchor="middle" x="9.234375" y="20" style="font-family: sans-serif; font-size: 20px; fill: rgb(0, 0, 0); fill-opacity: 1; white-space: pre;">C</text></g></g></g></g></svg>