<svg class="main-svg" xmlns="http://www.w3.org/2000/svg" xmlns:xlink="http://www.w3.org/1999/xlink" width="700" height="500" style="" viewBox="0 0 700 500"><rect x="0" y="0" width="700" height="500" style="fill: rgb(255, 255, 255); fill-opacity: 1;"/><defs id="defs-e10a77"><g class="clips"><clipPath id="clipe10a77xyplot" class="plotclip"><rect width="308.8176727909012" height="205.9044181977253"/></clipPath><clipPath id="clipe10a77x2y2plot" class="plotclip"><rect width="308.81767279090116" height="205.9044181977253"/></clipPath><clipPath id="clipe10a77x3y3plot" class="plotclip"><rect width="308.8176727909012" height="205.90441819772528"/></clipPath><clipPath id="clipe10a77x4y4plot" class="plotclip"><rect width="308.81767279090116" height="205.90441819772528"/></clipPath><clipPath class="axesclip" id="clipe10a77x"><rect x="47.94301545640128" y="0" width="308.8176727909012" height="500"/></clipPath><clipPath class="axesclip" id="clipe10a77y"><rect x="0" y="24.478346456692904" width="700" height="205.9044181977253"/></clipPath><clipPath class="axesclip" id="clipe10a77xy"><rect x="47.94301545640128" y="24.478346456692904" width="308.8176727909012" height="205.9044181977253"/></clipPath><clipPath class="axesclip" id="clipe10a77y2"><rect x="0" y="24.478346456692904" width="700" height="205.9044181977253"/></clipPath><clipPath class="axesclip" id="clipe10a77xy2"><rect x="47.94301545640128" y="24.478346456692904" width="308.8176727909012" height="205.9044181977253"/></clipPath><clipPath class="axesclip" id="clipe10a77y3"><rect x="0" y="251.97834645669292" width="700" height="205.90441819772528"/></clipPath><clipPath class="axesclip" id="clipe10a77xy3"><rect x="47.94301545640128" y="251.97834645669292" width="308.8176727909012" height="205.90441819772528"/></clipPath><clipPath class="axesclip" id="clipe10a77y4"><rect x="0" y="251.97834645669292" width="700" height="205.90441819772528"/></clipPath><clipPath class="axesclip" id="clipe10a77xy4"><rect x="47.94301545640128" y="251.97834645669292" width="308.8176727909012" height="205.90441819772528"/></clipPath><clipPath class="axesclip" id="clipe10a77x2"><rect x="386.60227471566054" y="0" width="308.81767279090116" height="500"/></clipPath><clipPath class="axesclip" id="clipe10a77x2y"><rect x="386.60227471566054" y="24.478346456692904" width="308.81767279090116" height="205.9044181977253"/></clipPath><clipPath class="axesclip" id="clipe10a77x2y2"><rect x="386.60227471566054" y="24.478346456692904" width="308.81767279090116" height="205.9044181977253"/></clipPath><clipPath class="axesclip" id="clipe10a77x2y3"><rect x="386.60227471566054" y="251.97834645669292" width="308.81767279090116" height="205.90441819772528"/></clipPath><clipPath class="axesclip" id="clipe10a77x2y4"><rect x="386.60227471566054" y="251.97834645669292" width="308.81767279090116" height="205.90441819772528"/></clipPath><clipPath class="axesclip" id="clipe10a77x3"><rect x="47.94301545640128" y="0" width="308.8176727909012" height="500"/></clipPath><clipPath class="axesclip" id="clipe10a77x3y"><rect x="47.94301545640128" y="24.478346456692904" width="308.8176727909012" height="205.9044181977253"/></clipPath><clipPath class="axesclip" id="clipe10a77x3y2"><rect x="47.94301545640128" y="24.478346456692904" width="308.8176727909012" height="205.9044181977253"/></clipPath><clipPath class="axesclip" id="clipe10a77x3y3"><rect x="47.94301545640128" y="251.97834645669292" width="308.8176727909012" height="205.90441819772528"/></clipPath><clipPath class="axesclip" id="clipe10a77x3y4"><rect x="47.94301545640128" y="251.97834645669292" width="308.8176727909012" height="205.90441819772528"/></clipPath><clipPath class="axesclip" id="clipe10a77x4"><rect x="386.60227471566054" y="0" width="308.81767279090116" height="500"/></clipPath><clipPath class="axesclip" id="clipe10a77x4y"><rect x="386.60227471566054" y="24.478346456692904" width="308.81767279090116" height="205.9044181977253"/></clipPath><clipPath class="axesclip" id="clipe10a77x4y2"><rect x="386.60227471566054" y="24.478346456692904" width="308.81767279090116" height="205.9044181977253"/></clipPath><clipPath class="axesclip" id="clipe10a77x4y3"><rect x="386.60227471566054" y="251.97834645669292" width="308.81767279090116" height="205.90441819772528"/></clipPath><clipPath class="axesclip" id="clipe10a77x4y4"><rect x="386.60227471566054" y="251.97834645669292" width="308.81767279090116" height="205.90441819772528"/></clipPath></g><g class="gradients"/><g class="patterns"/></defs><g class="bglayer"><rect class="bg" x="47.94301545640128" y="24.478346456692904" width="308.8176727909012" height="205.9044181977253" style="fill: rgb(0, 0, 0); fill-opacity: 1; stroke-width: 0;"/><rect class="bg" x="386.60227471566054" y="24.478346456692904" width="308.81767279090116" height="205.9044181977253" style="fill: rgb(0, 0, 0); fill-opacity: 1; stroke-width: 0;"/><rect class="bg" x="47.94301545640128" y="251.97834645669292" width="308.8176727909012" height="205.90441819772528" style="fill: rgb(0, 0, 0); fill-opacity: 1; stroke-width: 0;"/><rect class="bg" x="386.60227471566054" y="251.97834645669292" width="308.81767279090116" height="205.90441819772528" style="fill: rgb(0, 0, 0); fill-opacity: 1; stroke-width: 0;"/></g><g class="layer-below"><g class="imagelayer"/><g class="shapelayer"/></g><g class="cartesianlayer"><g class="subplot xy"><g class="layer-subplot"><g class="shapelayer"/><g class="imagelayer"/></g><g class="minor-gridlayer"><g class="x"/><g class="y"/></g><g class="gridlayer"><g class="x"><path class="xgrid crisp" transform="translate(53.743015456401274,0)" d="M0,24.478346456692904v205.9044181977253" style="stroke: rgb(0, 0, 0); stroke-opacity: 0.1; stroke-width: 0.5px;"/><path class="xgrid crisp" transform="translate(127.31301545640127,0)" d="M0,24.478346456692904v205.9044181977253" style="stroke: rgb(0, 0, 0); stroke-opacity: 0.1; stroke-width: 0.5px;"/><path class="xgrid crisp" transform="translate(200.88301545640127,0)" d="M0,24.478346456692904v205.9044181977253" style="stroke: rgb(0, 0, 0); stroke-opacity: 0.1; stroke-width: 0.5px;"/><path class="xgrid crisp" transform="translate(274.45301545640126,0)" d="M0,24.478346456692904v205.9044181977253" style="stroke: rgb(0, 0, 0); stroke-opacity: 0.1; stroke-width: 0.5px;"/><path class="xgrid crisp" transform="translate(348.02301545640125,0)" d="M0,24.478346456692904v205.9044181977253" style="stroke: rgb(0, 0, 0); stroke-opacity: 0.1; stroke-width: 0.5px;"/></g><g class="y"><path class="ygrid crisp" transform="translate(0,208.40834645669293)" d="M47.94301545640128,0h308.8176727909012" style="stroke: rgb(0, 0, 0); stroke-opacity: 0.1; stroke-width: 0.5px;"/><path class="ygrid crisp" transform="translate(0,180.08834645669293)" d="M47.94301545640128,0h308.8176727909012" style="stroke: rgb(0, 0, 0); stroke-opacity: 0.1; stroke-width: 0.5px;"/><path class="ygrid crisp" transform="translate(0,151.7683464566929)" d="M47.94301545640128,0h308.8176727909012" style="stroke: rgb(0, 0, 0); stroke-opacity: 0.1; stroke-width: 0.5px;"/><path class="ygrid crisp" transform="translate(0,123.4483464566929)" d="M47.94301545640128,0h308.8176727909012" style="stroke: rgb(0, 0, 0); stroke-opacity: 0.1; stroke-width: 0.5px;"/><path class="ygrid crisp" transform="translate(0,95.12834645669291)" d="M47.94301545640128,0h308.8176727909012" style="stroke: rgb(0, 0, 0); stroke-opacity: 0.1; stroke-width: 0.5px;"/><path class="ygrid crisp" transform="translate(0,66.8083464566929)" d="M47.94301545640128,0h308.8176727909012" style="stroke: rgb(0, 0, 0); stroke-opacity: 0.1; stroke-width: 0.5px;"/><path class="ygrid crisp" transform="translate(0,38.4983464566929)" d="M47.94301545640128,0h308.8176727909012" style="stroke: rgb(0, 0, 0); stroke-opacity: 0.1; stroke-width: 0.5px;"/></g></g><g class="zerolinelayer"/><g class="layer-between"><g class="shapelayer"/><g class="imagelayer"/></g><path class="xlines-below"/><path class="ylines-below"/><g class="overlines-below"/><g class="xaxislayer-below"/><g class="yaxislayer-below"/><g class="overaxes-below"/><g class="overplot"><g class="xy" transform="translate(47.94301545640128,24.478346456692904)" clip-path="url(#clipe10a77xyplot)"><g class="scatterlayer mlayer"><g class="trace scatter trace70b332" style="stroke-miterlimit: 2; opacity: 1;"><g class="fills"/><g class="errorbars"/><g class="lines"><path class="js-line" d="M8.74,98.97L11.68,93.09L14.63,103.35L17.57,108.26L20.51,108.93L23.45,102.89L26.4,116.3L29.34,126.89L32.28,126.87L35.23,134.01L38.17,145.13L41.11,127.42L44.05,129.62L47,117.38L49.94,142.66L52.88,144.96L55.82,131.94L61.71,95.32L64.65,86.37L67.6,78.13L70.54,81.51L73.48,104.63L76.42,101.33L79.37,106.53L82.31,125.37L88.2,127.35L91.14,121.83L94.08,116.44L97.02,123.24L99.97,116.63L102.91,137.41L105.85,136.14L108.8,119.49L111.74,128.14L114.68,149.14L117.62,143.71L120.57,130.63L123.51,137.14L126.45,131.38L129.4,140.32L132.34,129.71L135.28,115.31L138.22,120.99L141.17,119.33L144.11,123.42L147.05,125.29L149.99,114.84L152.94,104.96L155.88,105.92L158.82,110.21L161.77,105.8L167.65,132.71L170.59,150.96L176.48,151.11L179.42,143.7L182.37,154L185.31,143.71L188.25,130.56L191.19,142.36L194.14,135.5L197.08,134.09L200.02,144.93L202.97,161.74L205.91,154.52L208.85,154.4L211.79,135.54L214.74,122.92L217.68,100.47L220.62,94.72L223.56,86.34L226.51,69.56L232.39,30.55L235.34,25.04L238.28,40.09L241.22,43.62L244.16,36.4L247.11,23.34L252.99,5.83L255.94,13.62L258.88,20.12L261.82,23.85L264.76,35.39L267.71,43.84L270.65,44.65L273.59,40.74L276.54,61.99L279.48,63.75L282.42,54.83L285.36,56.07L288.31,65.11L291.25,62.77L294.19,66.57L297.13,59.95L300.08,59.69" style="vector-effect: none; fill: none; stroke: rgb(13, 13, 13); stroke-opacity: 1; stroke-width: 1px; opacity: 1;"/></g><g class="points"/><g class="text"/></g><g class="trace scatter trace1fec44" style="stroke-miterlimit: 2; opacity: 1;"><g class="fills"/><g class="errorbars"/><g class="lines"><path class="js-line" d="M8.74,98.97L11.68,106.72L14.63,100.28L17.57,95.26L20.51,94.42L23.45,88.08L26.4,111.54L29.34,92.71L32.28,105.16L35.23,86.38L38.17,97.91L41.11,116.21L44.05,102.42L47,111.78L49.94,109.97L52.88,119.65L55.82,119.99L58.77,127.94L61.71,140.09L64.65,154.2L67.6,160.19L73.48,145.65L76.42,121.04L79.37,114.15L82.31,117.78L85.25,126.49L88.2,130.98L91.14,108.27L94.08,117.87L97.02,117.91L99.97,129.35L102.91,126.9L105.85,132.3L108.8,141.33L111.74,146.71L114.68,151.6L117.62,142.93L120.57,147.53L123.51,116.44L126.45,127.71L129.4,147.32L132.34,143.24L135.28,132.64L138.22,130.24L141.17,112.91L147.05,105.62L149.99,118.19L152.94,118.9L155.88,139L158.82,130.2L161.77,141.87L164.71,126.17L167.65,138.23L170.59,146.01L173.54,172.83L176.48,180.36L179.42,185.42L182.37,195.07L185.31,200.08L188.25,176.23L191.19,169.06L194.14,155.36L197.08,154.38L200.02,142.86L202.97,150.95L205.91,145.83L208.85,146.12L217.68,118.54L220.62,122.72L223.56,139.58L226.51,130.95L229.45,139.63L232.39,144.25L235.34,126.76L238.28,130.75L241.22,130.24L244.16,98.18L247.11,111.33L250.05,101.2L252.99,101.09L255.94,96.4L261.82,96.03L264.76,75.22L267.71,92.02L270.65,78.3L273.59,68.65L276.54,90.57L279.48,87.51L282.42,67.23L285.36,56.49L288.31,60.44L291.25,72.96L294.19,67.99L297.13,79.82L300.08,71.2" style="vector-effect: none; fill: none; stroke: rgb(242, 242, 242); stroke-opacity: 1; stroke-width: 1px; opacity: 1;"/></g><g class="points"/><g class="text"/></g><g class="trace scatter tracecd43f3" style="stroke-miterlimit: 2; opacity: 1;"><g class="fills"/><g class="errorbars"/><g class="lines"><path class="js-line" d="M8.74,98.97L11.68,115.42L14.63,115.28L17.57,118.3L20.51,116.2L23.45,106.41L26.4,119.94L29.34,136.87L32.28,131.3L35.23,136.17L38.17,132.57L41.11,107.44L44.05,96.98L47,117.7L49.94,123.65L55.82,115.35L58.77,126.64L61.71,155.2L64.65,142.51L67.6,146.94L70.54,141.22L73.48,151.91L76.42,130.76L79.37,109.58L82.31,120.57L85.25,123.9L88.2,115.86L91.14,131.91L94.08,126.13L97.02,135.45L99.97,153.14L102.91,132.23L105.85,128.6L108.8,136.49L111.74,127.89L114.68,122.42L117.62,104.75L120.57,101.36L123.51,90.19L126.45,75.41L129.4,68.09L132.34,64.45L135.28,68.73L138.22,67.12L141.17,82.48L144.11,67.88L147.05,69.11L149.99,57.38L152.94,40.74L155.88,50.75L158.82,52.59L161.77,47.78L164.71,47.78L167.65,56.85L170.59,47.11L173.54,57.76L176.48,77.69L179.42,76.87L182.37,67.62L185.31,67.83L188.25,72.89L191.19,93.65L194.14,96.78L197.08,107.52L200.02,103.93L202.97,108.34L205.91,121.35L208.85,124.8L211.79,118.04L214.74,105.38L217.68,114.19L220.62,100.67L223.56,107.09L226.51,102.04L229.45,90.84L232.39,94.93L235.34,108.36L238.28,66.35L241.22,78.8L244.16,84.54L247.11,78.8L250.05,64.32L252.99,71.45L255.94,91.41L258.88,91.86L261.82,98.06L264.76,116.72L267.71,136.35L270.65,133.79L273.59,141.32L276.54,141.93L279.48,152.34L282.42,174.66L285.36,162.11L288.31,155.83L291.25,136.55L294.19,133.39L297.13,116.65L300.08,122.8" style="vector-effect: none; fill: none; stroke: rgb(128, 128, 128); stroke-opacity: 1; stroke-width: 1px; opacity: 1;"/></g><g class="points"/><g class="text"/></g><g class="trace scatter traceb6bbd4" style="stroke-miterlimit: 2; opacity: 1;"><g class="fills"/><g class="errorbars"/><g class="lines"><path class="js-line" d="M8.74,98.97L11.68,109.87L14.63,127.62L20.51,118.92L23.45,100.15L26.4,80.59L29.34,79.91L32.28,83.76L35.23,76.96L41.11,81.86L44.05,88.53L47,70.4L49.94,68.01L55.82,87.54L58.77,90.19L61.71,78.78L64.65,81.46L67.6,88.15L70.54,105.62L76.42,144.56L79.37,143.33L82.31,146.04L85.25,133.51L88.2,141.4L91.14,132.77L94.08,144.9L97.02,152.7L99.97,141.91L102.91,144.03L105.85,129.55L108.8,107.59L111.74,110.26L114.68,107.14L117.62,106.96L120.57,87.13L123.51,85.21L126.45,107.05L129.4,115.56L132.34,110.64L135.28,112.17L138.22,109.28L141.17,95.2L144.11,87.69L147.05,76.79L149.99,60.55L152.94,55.31L155.88,57.49L158.82,47.02L161.77,55.81L164.71,70.6L167.65,91.59L170.59,82.62L173.54,76.12L176.48,77.48L179.42,89.21L182.37,94.05L185.31,85.76L188.25,104.53L191.19,108.61L194.14,118.56L197.08,109.64L200.02,102.02L202.97,106.86L205.91,124.89L208.85,103.49L211.79,113.16L214.74,99.85L220.62,116.57L223.56,89.21L226.51,93.7L229.45,76.77L232.39,66.76L235.34,66.79L238.28,73.93L241.22,49.47L244.16,63.19L247.11,61.58L250.05,29.11L252.99,40.94L255.94,49.94L258.88,40.79L261.82,37.74L264.76,45.98L267.71,61.88L270.65,63.03L273.59,79.19L276.54,79.12L279.48,81.58L282.42,104.38L285.36,119.63L288.31,120.47L291.25,113.81L294.19,120.55L297.13,127.91L300.08,150.37" style="vector-effect: none; fill: none; stroke: rgb(70, 70, 70); stroke-opacity: 1; stroke-width: 1px; opacity: 1;"/></g><g class="points"/><g class="text"/></g><g class="trace scatter trace5993e8" style="stroke-miterlimit: 2; opacity: 1;"><g class="fills"/><g class="errorbars"/><g class="lines"><path class="js-line" d="M8.74,98.97L17.57,110.89L20.51,96.41L23.45,112.95L26.4,120.35L29.34,119.81L32.28,111.82L35.23,122.61L38.17,127.27L41.11,133.67L44.05,133.58L47,116.1L49.94,110.74L52.88,119.49L55.82,138.55L58.77,155.09L61.71,143.39L64.65,137.62L67.6,127.15L70.54,125.34L73.48,113.62L76.42,126.51L79.37,125.4L82.31,120.92L85.25,123.93L88.2,127.08L91.14,117.61L97.02,103.9L99.97,105.88L102.91,103.75L105.85,94.02L108.8,94.05L111.74,79.84L114.68,100.56L117.62,106.1L120.57,124.06L123.51,131.41L129.4,153L132.34,158.38L135.28,130.75L138.22,120.14L141.17,100.2L144.11,109.18L147.05,89.04L149.99,85.69L152.94,98.43L155.88,86.91L158.82,91.26L161.77,101.57L164.71,117.46L167.65,115.66L170.59,121.65L173.54,107.07L176.48,112.51L179.42,102.9L182.37,114.92L185.31,107.52L188.25,102.77L191.19,105.62L197.08,121.12L200.02,102.16L202.97,107.92L205.91,109.79L208.85,116.27L211.79,110.53L217.68,92.89L220.62,98.51L223.56,118.25L226.51,108.3L229.45,105.47L232.39,104.28L235.34,108.89L238.28,111.38L241.22,118.49L244.16,98.08L247.11,112.15L250.05,114.49L255.94,131.96L258.88,130.58L261.82,140.39L264.76,130.64L267.71,137.85L270.65,133.7L273.59,126.97L276.54,124.87L279.48,143.27L282.42,142.4L288.31,184.39L291.25,172.7L294.19,168.75L297.13,160.03L300.08,160.99" style="vector-effect: none; fill: none; stroke: rgb(185, 185, 185); stroke-opacity: 1; stroke-width: 1px; opacity: 1;"/></g><g class="points"/><g class="text"/></g><g class="trace scatter trace5a41a4" style="stroke-miterlimit: 2; opacity: 1;"><g class="fills"/><g class="errorbars"/><g class="lines"><path class="js-line" d="M8.74,98.97L11.68,103.76L14.63,106.94L17.57,124.49L20.51,121.91L23.45,109.04L26.4,116.37L29.34,115.67L32.28,117.91L35.23,111.96L38.17,104.24L41.11,90.95L44.05,109.29L47,118.52L49.94,113.09L52.88,127.03L55.82,119.16L58.77,128.92L61.71,124.25L64.65,125.37L67.6,131.81L70.54,129.63L73.48,129.99L76.42,109.33L79.37,107.68L82.31,129.27L85.25,119.26L88.2,134.65L91.14,122.63L94.08,110.1L97.02,104.62L99.97,93.41L102.91,97.4L105.85,80.55L108.8,85.42L111.74,90.04L114.68,77.48L117.62,101.27L120.57,117.63L123.51,118.87L126.45,114.07L129.4,115.18L132.34,122.74L135.28,122.45L138.22,132.46L141.17,135.26L144.11,140.74L147.05,130.53L149.99,132.65L152.94,105.6L155.88,98.32L158.82,100.81L161.77,99.16L164.71,134.19L167.65,129.01L170.59,117.38L173.54,116.78L176.48,102.1L179.42,102.41L182.37,96.15L185.31,87.03L188.25,110.92L191.19,105.51L194.14,103.26L197.08,95.61L200.02,118.19L202.97,95.16L205.91,83.25L208.85,99.28L214.74,78.17L217.68,68.1L220.62,69.8L223.56,67.14L226.51,45.74L229.45,38.13L232.39,29.18L235.34,40.08L238.28,27.64L241.22,53.87L244.16,59.34L247.11,66.83L250.05,48.57L252.99,37.18L255.94,57.95L258.88,62.85L261.82,57.07L264.76,72.24L267.71,56.19L270.65,49.13L273.59,32.83L276.54,23.4L282.42,49.83L285.36,48.02L288.31,50.03L291.25,50.23L294.19,64.37L297.13,64.4L300.08,73.61" style="vector-effect: none; fill: none; stroke: rgb(41, 41, 41); stroke-opacity: 1; stroke-width: 1px; opacity: 1;"/></g><g class="points"/><g class="text"/></g></g></g></g><path class="xlines-above crisp" d="M46.94301545640128,230.88276465441822H356.7606882473025" style="fill: none; stroke-width: 1px; stroke: rgb(0, 0, 0); stroke-opacity: 1;"/><path class="ylines-above crisp" d="M47.44301545640128,24.478346456692904V230.38276465441822" style="fill: none; stroke-width: 1px; stroke: rgb(0, 0, 0); stroke-opacity: 1;"/><g class="overlines-above"/><g class="xaxislayer-above"><path class="xtick ticks crisp" d="M0,230.38276465441822v-5" transform="translate(53.743015456401274,0)" style="stroke: rgb(0, 0, 0); stroke-opacity: 1; stroke-width: 1px;"/><path class="xtick ticks crisp" d="M0,230.38276465441822v-5" transform="translate(127.31301545640127,0)" style="stroke: rgb(0, 0, 0); stroke-opacity: 1; stroke-width: 1px;"/><path class="xtick ticks crisp" d="M0,230.38276465441822v-5" transform="translate(200.88301545640127,0)" style="stroke: rgb(0, 0, 0); stroke-opacity: 1; stroke-width: 1px;"/><path class="xtick ticks crisp" d="M0,230.38276465441822v-5" transform="translate(274.45301545640126,0)" style="stroke: rgb(0, 0, 0); stroke-opacity: 1; stroke-width: 1px;"/><path class="xtick ticks crisp" d="M0,230.38276465441822v-5" transform="translate(348.02301545640125,0)" style="stroke: rgb(0, 0, 0); stroke-opacity: 1; stroke-width: 1px;"/><g class="xtick"><text text-anchor="middle" x="0" y="244.5827646544182" transform="translate(53.743015456401274,0)" style="font-family: sans-serif; font-size: 11px; fill: rgb(0, 0, 0); fill-opacity: 1; white-space: pre; opacity: 1;">0</text></g><g class="xtick"><text text-anchor="middle" x="0" y="244.5827646544182" style="font-family: sans-serif; font-size: 11px; fill: rgb(0, 0, 0); fill-opacity: 1; white-space: pre; opacity: 1;" transform="translate(127.31301545640127,0)">25</text></g><g class="xtick"><text text-anchor="middle" x="0" y="244.5827646544182" style="font-family: sans-serif; font-size: 11px; fill: rgb(0, 0, 0); fill-opacity: 1; white-space: pre; opacity: 1;" transform="translate(200.88301545640127,0)">50</text></g><g class="xtick"><text text-anchor="middle" x="0" y="244.5827646544182" style="font-family: sans-serif; font-size: 11px; fill: rgb(0, 0, 0); fill-opacity: 1; white-space: pre; opacity: 1;" transform="translate(274.45301545640126,0)">75</text></g><g class="xtick"><text text-anchor="middle" x="0" y="244.5827646544182" style="font-family: sans-serif; font-size: 11px; fill: rgb(0, 0, 0); fill-opacity: 1; white-space: pre; opacity: 1;" transform="translate(348.02301545640125,0)">100</text></g></g><g class="yaxislayer-above"><path class="ytick ticks crisp" d="M47.94301545640128,0h5" transform="translate(0,208.40834645669293)" style="stroke: rgb(0, 0, 0); stroke-opacity: 1; stroke-width: 1px;"/><path class="ytick ticks crisp" d="M47.94301545640128,0h5" transform="translate(0,180.08834645669293)" style="stroke: rgb(0, 0, 0); stroke-opacity: 1; stroke-width: 1px;"/><path class="ytick ticks crisp" d="M47.94301545640128,0h5" transform="translate(0,151.7683464566929)" style="stroke: rgb(0, 0, 0); stroke-opacity: 1; stroke-width: 1px;"/><path class="ytick ticks crisp" d="M47.94301545640128,0h5" transform="translate(0,123.4483464566929)" style="stroke: rgb(0, 0, 0); stroke-opacity: 1; stroke-width: 1px;"/><path class="ytick ticks crisp" d="M47.94301545640128,0h5" transform="translate(0,95.12834645669291)" style="stroke: rgb(0, 0, 0); stroke-opacity: 1; stroke-width: 1px;"/><path class="ytick ticks crisp" d="M47.94301545640128,0h5" transform="translate(0,66.8083464566929)" style="stroke: rgb(0, 0, 0); stroke-opacity: 1; stroke-width: 1px;"/><path class="ytick ticks crisp" d="M47.94301545640128,0h5" transform="translate(0,38.4983464566929)" style="stroke: rgb(0, 0, 0); stroke-opacity: 1; stroke-width: 1px;"/><g class="ytick"><text text-anchor="end" x="44.743015456401274" y="3.8499999999999996" transform="translate(0,208.40834645669293)" style="font-family: sans-serif; font-size: 11px; fill: rgb(0, 0, 0); fill-opacity: 1; white-space: pre; opacity: 1;">-7.5</text></g><g class="ytick"><text text-anchor="end" x="44.743015456401274" y="3.8499999999999996" style="font-family: sans-serif; font-size: 11px; fill: rgb(0, 0, 0); fill-opacity: 1; white-space: pre; opacity: 1;" transform="translate(0,180.08834645669293)">-5.0</text></g><g class="ytick"><text text-anchor="end" x="44.743015456401274" y="3.8499999999999996" style="font-family: sans-serif; font-size: 11px; fill: rgb(0, 0, 0); fill-opacity: 1; white-space: pre; opacity: 1;" transform="translate(0,151.7683464566929)">-2.5</text></g><g class="ytick"><text text-anchor="end" x="44.743015456401274" y="3.8499999999999996" style="font-family: sans-serif; font-size: 11px; fill: rgb(0, 0, 0); fill-opacity: 1; white-space: pre; opacity: 1;" transform="translate(0,123.4483464566929)">0.0</text></g><g class="ytick"><text text-anchor="end" x="44.743015456401274" y="3.8499999999999996" style="font-family: sans-serif; font-size: 11px; fill: rgb(0, 0, 0); fill-opacity: 1; white-space: pre; opacity: 1;" transform="translate(0,95.12834645669291)">2.5</text></g><g class="ytick"><text text-anchor="end" x="44.743015456401274" y="3.8499999999999996" style="font-family: sans-serif; font-size: 11px; fill: rgb(0, 0, 0); fill-opacity: 1; white-space: pre; opacity: 1;" transform="translate(0,66.8083464566929)">5.0</text></g><g class="ytick"><text text-anchor="end" x="44.743015456401274" y="3.8499999999999996" style="font-family: sans-serif; font-size: 11px; fill: rgb(0, 0, 0); fill-opacity: 1; white-space: pre; opacity: 1;" transform="translate(0,38.4983464566929)">7.5</text></g></g><g class="overaxes-above"/></g><g class="subplot x2y2"><g class="layer-subplot"><g class="shapelayer"/><g class="imagelayer"/></g><g class="minor-gridlayer"><g class="x2"/><g class="y2"/></g><g class="gridlayer"><g class="x2"><path class="x2grid crisp" transform="translate(392.40227471566055,0)" d="M0,24.478346456692904v205.9044181977253" style="stroke: rgb(0, 0, 0); stroke-opacity: 0.1; stroke-width: 0.5px;"/><path class="x2grid crisp" transform="translate(465.97227471566055,0)" d="M0,24.478346456692904v205.9044181977253" style="stroke: rgb(0, 0, 0); stroke-opacity: 0.1; stroke-width: 0.5px;"/><path class="x2grid crisp" transform="translate(539.5422747156606,0)" d="M0,24.478346456692904v205.9044181977253" style="stroke: rgb(0, 0, 0); stroke-opacity: 0.1; stroke-width: 0.5px;"/><path class="x2grid crisp" transform="translate(613.1122747156605,0)" d="M0,24.478346456692904v205.9044181977253" style="stroke: rgb(0, 0, 0); stroke-opacity: 0.1; stroke-width: 0.5px;"/><path class="x2grid crisp" transform="translate(686.6822747156605,0)" d="M0,24.478346456692904v205.9044181977253" style="stroke: rgb(0, 0, 0); stroke-opacity: 0.1; stroke-width: 0.5px;"/></g><g class="y2"><path class="y2grid crisp" transform="translate(0,207.91834645669292)" d="M386.60227471566054,0h308.81767279090116" style="stroke: rgb(0, 0, 0); stroke-opacity: 0.1; stroke-width: 0.5px;"/><path class="y2grid crisp" transform="translate(0,180.1383464566929)" d="M386.60227471566054,0h308.81767279090116" style="stroke: rgb(0, 0, 0); stroke-opacity: 0.1; stroke-width: 0.5px;"/><path class="y2grid crisp" transform="translate(0,152.34834645669292)" d="M386.60227471566054,0h308.81767279090116" style="stroke: rgb(0, 0, 0); stroke-opacity: 0.1; stroke-width: 0.5px;"/><path class="y2grid crisp" transform="translate(0,124.56834645669291)" d="M386.60227471566054,0h308.81767279090116" style="stroke: rgb(0, 0, 0); stroke-opacity: 0.1; stroke-width: 0.5px;"/><path class="y2grid crisp" transform="translate(0,96.7883464566929)" d="M386.60227471566054,0h308.81767279090116" style="stroke: rgb(0, 0, 0); stroke-opacity: 0.1; stroke-width: 0.5px;"/><path class="y2grid crisp" transform="translate(0,68.9983464566929)" d="M386.60227471566054,0h308.81767279090116" style="stroke: rgb(0, 0, 0); stroke-opacity: 0.1; stroke-width: 0.5px;"/><path class="y2grid crisp" transform="translate(0,41.2183464566929)" d="M386.60227471566054,0h308.81767279090116" style="stroke: rgb(0, 0, 0); stroke-opacity: 0.1; stroke-width: 0.5px;"/></g></g><g class="zerolinelayer"/><g class="layer-between"><g class="shapelayer"/><g class="imagelayer"/></g><path class="xlines-below"/><path class="ylines-below"/><g class="overlines-below"/><g class="xaxislayer-below"/><g class="yaxislayer-below"/><g class="overaxes-below"/><g class="overplot"><g class="x2y2" transform="translate(386.60227471566054,24.478346456692904)" clip-path="url(#clipe10a77x2y2plot)"><g class="scatterlayer mlayer"><g class="trace scatter traceecceb3" style="stroke-miterlimit: 2; opacity: 1;"><g class="fills"/><g class="errorbars"/><g class="lines"><path class="js-line" d="M8.74,100.09L11.68,87.52L14.63,64.92L17.57,67.79L20.51,84.46L23.45,92.87L26.4,87.16L29.34,73.88L32.28,64.41L35.23,65.54L38.17,68.59L41.11,53.28L44.05,51.17L49.94,12.84L52.88,16.86L55.82,12.4L58.77,5.83L61.71,21.77L64.65,47.33L67.6,44.99L70.54,45.69L73.48,66.92L76.42,57.48L79.37,60.18L82.31,66.06L85.25,64.66L88.2,81.38L91.14,82.34L94.08,84.74L97.02,89.58L99.97,97.87L102.91,103.9L105.85,89.88L108.8,75.47L111.74,69.51L114.68,62.95L117.62,62.73L120.57,104.39L123.51,120.04L126.45,112.2L129.4,112.61L132.34,99.64L135.28,99.32L138.22,106.67L141.17,126.45L147.05,86.79L149.99,78.2L152.94,97.83L155.88,88.41L158.82,76.74L161.77,83.53L164.71,59.38L167.65,56.7L170.59,68.65L173.54,70.8L176.48,25.42L179.42,24.12L182.37,27.65L185.31,42.76L188.25,61.62L191.19,31.86L194.14,48.26L197.08,42.95L200.02,63.28L202.97,53.18L205.91,39.73L208.85,39.97L211.79,34.91L214.74,48.97L217.68,45.18L220.62,40.11L223.56,66.44L226.51,83.4L232.39,109.19L235.34,111.7L238.28,116.44L241.22,96.75L244.16,90.8L247.11,69.82L250.05,70.47L252.99,75.86L255.94,69.42L258.88,51.97L261.82,50.21L264.76,47.38L267.71,33.88L270.65,40.05L273.59,49.53L276.54,53.99L279.48,60.87L282.42,60.69L285.36,54.13L288.31,72.04L291.25,87.89L294.19,58.15L300.08,76.83" style="vector-effect: none; fill: none; stroke: rgb(173, 216, 230); stroke-opacity: 1; stroke-width: 1px; opacity: 1;"/></g><g class="points"/><g class="text"/></g><g class="trace scatter traceb97665" style="stroke-miterlimit: 2; opacity: 1;"><g class="fills"/><g class="errorbars"/><g class="lines"><path class="js-line" d="M8.74,100.09L14.63,120.35L17.57,114.17L20.51,105.3L23.45,118.28L26.4,105.1L29.34,104.28L32.28,93.39L35.23,87.2L38.17,102.32L41.11,79.85L44.05,93.03L47,83.01L49.94,78.53L52.88,67.8L55.82,49.97L58.77,47.5L61.71,44.6L64.65,37.22L70.54,40.74L73.48,57.69L79.37,32.17L82.31,37.89L85.25,43.89L88.2,40.01L91.14,29.54L94.08,30.95L97.02,24.1L99.97,33.04L102.91,34.63L105.85,8.73L108.8,15.87L111.74,16.91L114.68,16.77L117.62,44.72L120.57,41.16L123.51,39.83L126.45,36.86L129.4,42.03L132.34,43.13L135.28,46.32L138.22,65.93L141.17,64.86L144.11,65.02L147.05,57.75L149.99,44.41L152.94,35.85L155.88,42.31L158.82,31.64L161.77,19.54L164.71,14.4L167.65,6.01L170.59,40.53L173.54,67.02L176.48,61.97L179.42,55.42L182.37,73.27L185.31,74.63L188.25,61.55L191.19,74.68L194.14,81.57L197.08,46.35L200.02,78.98L202.97,75.97L205.91,49.52L208.85,69.07L211.79,62.14L214.74,57.69L217.68,72.14L220.62,89.13L223.56,97.6L226.51,94.26L229.45,99.34L232.39,85.56L235.34,83.06L238.28,97.17L241.22,86.76L244.16,78.48L247.11,93.16L250.05,133.59L252.99,119.99L255.94,139.05L258.88,136.83L261.82,117.75L264.76,124.62L267.71,133.81L270.65,156.61L273.59,123.61L276.54,141.15L279.48,124.61L282.42,98.71L285.36,75.22L288.31,59.94L294.19,32.18L297.13,29.31L300.08,67.65" style="vector-effect: none; fill: none; stroke: rgb(0, 0, 139); stroke-opacity: 1; stroke-width: 1px; opacity: 1;"/></g><g class="points"/><g class="text"/></g><g class="trace scatter tracef66fad" style="stroke-miterlimit: 2; opacity: 1;"><g class="fills"/><g class="errorbars"/><g class="lines"><path class="js-line" d="M8.74,100.09L11.68,126.59L14.63,124.53L17.57,123.71L20.51,133.22L23.45,145.03L26.4,136.15L29.34,129.56L32.28,131.36L35.23,142.48L38.17,107.95L41.11,82.73L44.05,76.93L47,81.32L49.94,77.89L55.82,137.59L58.77,128.37L61.71,107.75L64.65,96.53L67.6,110.73L70.54,119.98L73.48,113.36L76.42,125.81L79.37,107.18L82.31,108.54L85.25,86.67L88.2,82.65L91.14,88.96L94.08,71.67L97.02,61.1L99.97,60.39L102.91,50.95L105.85,46.31L108.8,57.36L111.74,55.3L114.68,73.5L117.62,73.11L120.57,80.66L123.51,75.26L129.4,92.29L132.34,86L135.28,90.98L138.22,98.64L141.17,86.36L144.11,87.91L147.05,98.94L149.99,104.23L152.94,106.75L155.88,102.14L158.82,94.83L161.77,101.13L164.71,111.6L167.65,125.71L173.54,81.84L176.48,89.5L179.42,127.06L182.37,126.25L188.25,141.53L191.19,118.95L194.14,103.54L197.08,107.32L200.02,113.61L202.97,101.39L205.91,100L208.85,99.49L211.79,108.1L214.74,124.38L217.68,135.14L220.62,123.85L223.56,108.57L226.51,120.01L229.45,124.68L232.39,122.51L235.34,124.17L238.28,135.82L241.22,128.88L244.16,136.65L247.11,137.84L250.05,127.57L252.99,142.12L255.94,121.55L258.88,130.59L261.82,118.38L264.76,127.12L267.71,99.21L270.65,114.18L273.59,105.84L276.54,102.63L279.48,115.28L282.42,122.89L285.36,142.35L291.25,114.61L294.19,116.52L297.13,113.45L300.08,106.91" style="vector-effect: none; fill: none; stroke: rgb(86, 108, 184); stroke-opacity: 1; stroke-width: 1px; opacity: 1;"/></g><g class="points"/><g class="text"/></g><g class="trace scatter trace62d276" style="stroke-miterlimit: 2; opacity: 1;"><g class="fills"/><g class="errorbars"/><g class="lines"><path class="js-line" d="M8.74,100.09L11.68,75.12L14.63,65.29L17.57,64.36L20.51,80.78L23.45,54.62L26.4,54.13L29.34,55.78L32.28,40.31L35.23,57.93L38.17,54.37L41.11,56.24L44.05,33.74L47,22.98L49.94,52.26L52.88,37.32L55.82,41.26L58.77,58.17L61.71,92.05L64.65,111.34L67.6,109.32L70.54,88.89L73.48,76.2L76.42,84.4L79.37,80.29L82.31,80.75L85.25,83.36L88.2,80.87L91.14,97.42L94.08,83.38L97.02,94.25L99.97,98.61L102.91,130.64L105.85,129.55L108.8,122.53L111.74,119.63L114.68,149.51L120.57,110.39L123.51,137.96L126.45,122.69L129.4,173.4L132.34,176.94L135.28,167.07L138.22,172.14L141.17,191.24L144.11,174.62L147.05,164.01L149.99,153.62L152.94,148.37L155.88,141.79L158.82,162.29L161.77,152.27L164.71,149.69L167.65,159.88L170.59,138.04L173.54,115.77L176.48,109.8L179.42,101.03L182.37,132.07L185.31,154.39L188.25,131.61L191.19,128.53L194.14,138.55L197.08,162.87L200.02,141.74L205.91,130.65L208.85,132.07L211.79,143.47L214.74,129.71L217.68,123.57L220.62,127.4L223.56,137.99L226.51,128.9L229.45,129.66L232.39,136.23L235.34,133.46L238.28,124.11L241.22,92.64L244.16,79.6L247.11,90.22L250.05,93.65L252.99,100.16L255.94,96.94L261.82,51.63L264.76,32.98L267.71,42.05L270.65,63.42L276.54,61.15L279.48,65.57L282.42,51.27L285.36,60.12L288.31,77.59L291.25,81.77L297.13,97.98L300.08,86.63" style="vector-effect: none; fill: none; stroke: rgb(130, 162, 207); stroke-opacity: 1; stroke-width: 1px; opacity: 1;"/></g><g class="points"/><g class="text"/></g><g class="trace scatter tracee7da28" style="stroke-miterlimit: 2; opacity: 1;"><g class="fills"/><g class="errorbars"/><g class="lines"><path class="js-line" d="M8.74,100.09L14.63,78.94L17.57,90.88L20.51,79.67L23.45,64.56L26.4,40.09L29.34,52.45L32.28,52.85L35.23,51.93L38.17,62.03L41.11,55.49L44.05,81.39L47,87.24L49.94,98.76L52.88,78.8L55.82,93.81L58.77,89.74L61.71,73.41L64.65,65.02L67.6,66.26L70.54,74.09L73.48,68.75L76.42,68.49L79.37,79.36L82.31,81.1L85.25,86.26L88.2,69.11L94.08,53.71L97.02,72.87L99.97,79.31L102.91,69.59L108.8,90.55L111.74,86.23L117.62,109.11L120.57,105.62L123.51,115.18L126.45,134.84L129.4,142.74L132.34,160.64L135.28,154.2L138.22,163.61L141.17,171.52L144.11,176.07L147.05,172.76L149.99,167.86L152.94,164.3L155.88,153.1L158.82,132.11L161.77,141.82L164.71,143.79L167.65,161.58L170.59,139.81L173.54,146.18L176.48,126.82L179.42,120.4L182.37,130.58L185.31,113.86L188.25,112.32L191.19,114.51L194.14,132.02L197.08,121.11L200.02,129.57L202.97,144.15L205.91,142.11L208.85,147.61L211.79,161.88L214.74,181.18L217.68,165.1L220.62,161.94L223.56,165.85L226.51,197.07L229.45,197.1L232.39,200.08L235.34,192.81L238.28,178.3L241.22,158.6L244.16,174.17L247.11,197.2L250.05,192.37L252.99,199.45L255.94,187.39L261.82,179.11L264.76,154.14L267.71,139.84L270.65,149L273.59,162.95L276.54,156.53L282.42,165.75L285.36,163.6L288.31,135.43L291.25,141.66L294.19,136.31L297.13,121.97L300.08,115.21" style="vector-effect: none; fill: none; stroke: rgb(43, 54, 162); stroke-opacity: 1; stroke-width: 1px; opacity: 1;"/></g><g class="points"/><g class="text"/></g><g class="trace scatter tracea388d4" style="stroke-miterlimit: 2; opacity: 1;"><g class="fills"/><g class="errorbars"/><g class="lines"><path class="js-line" d="M8.74,100.09L11.68,120.57L14.63,151.71L17.57,133.73L20.51,129.78L23.45,150.5L26.4,131.62L29.34,155.03L32.28,141.76L35.23,145.48L38.17,134.29L44.05,141.88L47,134.9L49.94,120.69L52.88,127.76L55.82,119.71L58.77,115.55L61.71,124.07L64.65,102.81L70.54,88.28L73.48,86.73L76.42,122.75L79.37,133.16L82.31,146.69L85.25,156.6L88.2,138.91L91.14,148.05L94.08,162.97L97.02,160.52L99.97,159.42L102.91,151.7L108.8,134.7L111.74,124.2L114.68,101.38L117.62,101.51L123.51,114.58L126.45,103.27L129.4,103.24L132.34,108.71L135.28,116.46L138.22,116.66L141.17,125.97L144.11,150.13L147.05,158.45L149.99,159.41L152.94,144.41L155.88,159.33L158.82,154.35L161.77,146.04L164.71,138.08L167.65,134.77L170.59,122.17L173.54,129.6L176.48,123.79L179.42,127.78L182.37,97.55L185.31,117.69L188.25,149.3L191.19,130.64L194.14,137.3L197.08,150.74L200.02,152.13L202.97,177.39L205.91,177.6L208.85,172.57L211.79,183.18L214.74,147.74L217.68,137.79L220.62,122.02L223.56,131.5L226.51,129.31L229.45,150.85L232.39,166.4L235.34,164.71L238.28,140.19L241.22,162.7L244.16,148.81L247.11,157.39L250.05,144.8L252.99,152.03L255.94,171.61L258.88,154.48L261.82,144.8L264.76,148.82L267.71,168.5L270.65,164.52L273.59,146.84L276.54,156.16L279.48,139.95L282.42,142.73L285.36,153.51L291.25,126.95L294.19,98.9L297.13,104.59L300.08,122.12" style="vector-effect: none; fill: none; stroke: rgb(151, 189, 219); stroke-opacity: 1; stroke-width: 1px; opacity: 1;"/></g><g class="points"/><g class="text"/></g></g></g></g><path class="xlines-above crisp" d="M385.60227471566054,230.88276465441822H695.4199475065617" style="fill: none; stroke-width: 1px; stroke: rgb(0, 0, 0); stroke-opacity: 1;"/><path class="ylines-above crisp" d="M386.10227471566054,24.478346456692904V230.38276465441822" style="fill: none; stroke-width: 1px; stroke: rgb(0, 0, 0); stroke-opacity: 1;"/><g class="overlines-above"/><g class="xaxislayer-above"><path class="x2tick ticks crisp" d="M0,230.38276465441822v-5" transform="translate(392.40227471566055,0)" style="stroke: rgb(0, 0, 0); stroke-opacity: 1; stroke-width: 1px;"/><path class="x2tick ticks crisp" d="M0,230.38276465441822v-5" transform="translate(465.97227471566055,0)" style="stroke: rgb(0, 0, 0); stroke-opacity: 1; stroke-width: 1px;"/><path class="x2tick ticks crisp" d="M0,230.38276465441822v-5" transform="translate(539.5422747156606,0)" style="stroke: rgb(0, 0, 0); stroke-opacity: 1; stroke-width: 1px;"/><path class="x2tick ticks crisp" d="M0,230.38276465441822v-5" transform="translate(613.1122747156605,0)" style="stroke: rgb(0, 0, 0); stroke-opacity: 1; stroke-width: 1px;"/><path class="x2tick ticks crisp" d="M0,230.38276465441822v-5" transform="translate(686.6822747156605,0)" style="stroke: rgb(0, 0, 0); stroke-opacity: 1; stroke-width: 1px;"/><g class="x2tick"><text text-anchor="middle" x="0" y="244.5827646544182" transform="translate(392.40227471566055,0)" style="font-family: sans-serif; font-size: 11px; fill: rgb(0, 0, 0); fill-opacity: 1; white-space: pre; opacity: 1;">0</text></g><g class="x2tick"><text text-anchor="middle" x="0" y="244.5827646544182" style="font-family: sans-serif; font-size: 11px; fill: rgb(0, 0, 0); fill-opacity: 1; white-space: pre; opacity: 1;" transform="translate(465.97227471566055,0)">25</text></g><g class="x2tick"><text text-anchor="middle" x="0" y="244.5827646544182" style="font-family: sans-serif; font-size: 11px; fill: rgb(0, 0, 0); fill-opacity: 1; white-space: pre; opacity: 1;" transform="translate(539.5422747156606,0)">50</text></g><g class="x2tick"><text text-anchor="middle" x="0" y="244.5827646544182" style="font-family: sans-serif; font-size: 11px; fill: rgb(0, 0, 0); fill-opacity: 1; white-space: pre; opacity: 1;" transform="translate(613.1122747156605,0)">75</text></g><g class="x2tick"><text text-anchor="middle" x="0" y="244.5827646544182" style="font-family: sans-serif; font-size: 11px; fill: rgb(0, 0, 0); fill-opacity: 1; white-space: pre; opacity: 1;" transform="translate(686.6822747156605,0)">100</text></g></g><g class="yaxislayer-above"><path class="y2tick ticks crisp" d="M386.60227471566054,0h5" transform="translate(0,207.91834645669292)" style="stroke: rgb(0, 0, 0); stroke-opacity: 1; stroke-width: 1px;"/><path class="y2tick ticks crisp" d="M386.60227471566054,0h5" transform="translate(0,180.1383464566929)" style="stroke: rgb(0, 0, 0); stroke-opacity: 1; stroke-width: 1px;"/><path class="y2tick ticks crisp" d="M386.60227471566054,0h5" transform="translate(0,152.34834645669292)" style="stroke: rgb(0, 0, 0); stroke-opacity: 1; stroke-width: 1px;"/><path class="y2tick ticks crisp" d="M386.60227471566054,0h5" transform="translate(0,124.56834645669291)" style="stroke: rgb(0, 0, 0); stroke-opacity: 1; stroke-width: 1px;"/><path class="y2tick ticks crisp" d="M386.60227471566054,0h5" transform="translate(0,96.7883464566929)" style="stroke: rgb(0, 0, 0); stroke-opacity: 1; stroke-width: 1px;"/><path class="y2tick ticks crisp" d="M386.60227471566054,0h5" transform="translate(0,68.9983464566929)" style="stroke: rgb(0, 0, 0); stroke-opacity: 1; stroke-width: 1px;"/><path class="y2tick ticks crisp" d="M386.60227471566054,0h5" transform="translate(0,41.2183464566929)" style="stroke: rgb(0, 0, 0); stroke-opacity: 1; stroke-width: 1px;"/><g class="y2tick"><text text-anchor="end" x="383.40227471566055" y="3.8499999999999996" transform="translate(0,207.91834645669292)" style="font-family: sans-serif; font-size: 11px; fill: rgb(0, 0, 0); fill-opacity: 1; white-space: pre; opacity: 1;">-6</text></g><g class="y2tick"><text text-anchor="end" x="383.40227471566055" y="3.8499999999999996" style="font-family: sans-serif; font-size: 11px; fill: rgb(0, 0, 0); fill-opacity: 1; white-space: pre; opacity: 1;" transform="translate(0,180.1383464566929)">-4</text></g><g class="y2tick"><text text-anchor="end" x="383.40227471566055" y="3.8499999999999996" style="font-family: sans-serif; font-size: 11px; fill: rgb(0, 0, 0); fill-opacity: 1; white-space: pre; opacity: 1;" transform="translate(0,152.34834645669292)">-2</text></g><g class="y2tick"><text text-anchor="end" x="383.40227471566055" y="3.8499999999999996" style="font-family: sans-serif; font-size: 11px; fill: rgb(0, 0, 0); fill-opacity: 1; white-space: pre; opacity: 1;" transform="translate(0,124.56834645669291)">0</text></g><g class="y2tick"><text text-anchor="end" x="383.40227471566055" y="3.8499999999999996" style="font-family: sans-serif; font-size: 11px; fill: rgb(0, 0, 0); fill-opacity: 1; white-space: pre; opacity: 1;" transform="translate(0,96.7883464566929)">2</text></g><g class="y2tick"><text text-anchor="end" x="383.40227471566055" y="3.8499999999999996" style="font-family: sans-serif; font-size: 11px; fill: rgb(0, 0, 0); fill-opacity: 1; white-space: pre; opacity: 1;" transform="translate(0,68.9983464566929)">4</text></g><g class="y2tick"><text text-anchor="end" x="383.40227471566055" y="3.8499999999999996" style="font-family: sans-serif; font-size: 11px; fill: rgb(0, 0, 0); fill-opacity: 1; white-space: pre; opacity: 1;" transform="translate(0,41.2183464566929)">6</text></g></g><g class="overaxes-above"/></g><g class="subplot x3y3"><g class="layer-subplot"><g class="shapelayer"/><g class="imagelayer"/></g><g class="minor-gridlayer"><g class="x3"/><g class="y3"/></g><g class="gridlayer"><g class="x3"><path class="x3grid crisp" transform="translate(53.743015456401274,0)" d="M0,251.97834645669292v205.90441819772528" style="stroke: rgb(0, 0, 0); stroke-opacity: 0.1; stroke-width: 0.5px;"/><path class="x3grid crisp" transform="translate(127.31301545640127,0)" d="M0,251.97834645669292v205.90441819772528" style="stroke: rgb(0, 0, 0); stroke-opacity: 0.1; stroke-width: 0.5px;"/><path class="x3grid crisp" transform="translate(200.88301545640127,0)" d="M0,251.97834645669292v205.90441819772528" style="stroke: rgb(0, 0, 0); stroke-opacity: 0.1; stroke-width: 0.5px;"/><path class="x3grid crisp" transform="translate(274.45301545640126,0)" d="M0,251.97834645669292v205.90441819772528" style="stroke: rgb(0, 0, 0); stroke-opacity: 0.1; stroke-width: 0.5px;"/><path class="x3grid crisp" transform="translate(348.02301545640125,0)" d="M0,251.97834645669292v205.90441819772528" style="stroke: rgb(0, 0, 0); stroke-opacity: 0.1; stroke-width: 0.5px;"/></g><g class="y3"><path class="y3grid crisp" transform="translate(0,449.8183464566929)" d="M47.94301545640128,0h308.8176727909012" style="stroke: rgb(0, 0, 0); stroke-opacity: 0.1; stroke-width: 0.5px;"/><path class="y3grid crisp" transform="translate(0,388.5583464566929)" d="M47.94301545640128,0h308.8176727909012" style="stroke: rgb(0, 0, 0); stroke-opacity: 0.1; stroke-width: 0.5px;"/><path class="y3grid crisp" transform="translate(0,327.2983464566929)" d="M47.94301545640128,0h308.8176727909012" style="stroke: rgb(0, 0, 0); stroke-opacity: 0.1; stroke-width: 0.5px;"/><path class="y3grid crisp" transform="translate(0,266.02834645669293)" d="M47.94301545640128,0h308.8176727909012" style="stroke: rgb(0, 0, 0); stroke-opacity: 0.1; stroke-width: 0.5px;"/></g></g><g class="zerolinelayer"/><g class="layer-between"><g class="shapelayer"/><g class="imagelayer"/></g><path class="xlines-below"/><path class="ylines-below"/><g class="overlines-below"/><g class="xaxislayer-below"/><g class="yaxislayer-below"/><g class="overaxes-below"/><g class="overplot"><g class="x3y3" transform="translate(47.94301545640128,251.97834645669292)" clip-path="url(#clipe10a77x3y3plot)"><g class="scatterlayer mlayer"><g class="trace scatter trace797d75" style="stroke-miterlimit: 2; opacity: 1;"><g class="fills"/><g class="errorbars"/><g class="lines"><path class="js-line" d="M8.74,75.32L11.68,95.85L14.63,96.6L17.57,107.19L20.51,103.45L23.45,116.73L26.4,109.64L29.34,93.57L32.28,99.58L35.23,98.22L38.17,105.55L41.11,97.59L44.05,126.53L49.94,99.04L52.88,119.43L55.82,124.25L58.77,109.22L61.71,111.67L64.65,112.27L67.6,112.5L70.54,128.58L73.48,120.6L76.42,126.74L79.37,130.27L82.31,117.74L85.25,113.5L88.2,88.92L91.14,103.22L94.08,93.93L97.02,85.08L99.97,86.81L102.91,83.9L105.85,73.19L108.8,92.04L111.74,102.97L114.68,91.61L117.62,95.67L120.57,91.79L123.51,83L126.45,79.01L129.4,88.84L132.34,83.04L135.28,86.28L138.22,91.65L141.17,93.8L144.11,111.59L147.05,118.52L149.99,120.34L152.94,117.11L155.88,135.58L158.82,142.46L161.77,137.61L164.71,150.97L167.65,143.63L170.59,146.36L173.54,129.57L176.48,130.56L179.42,143.9L182.37,140.05L185.31,134.22L188.25,110.17L191.19,122.87L194.14,124.58L197.08,112.82L200.02,130.33L202.97,141.28L205.91,138.94L208.85,128.51L211.79,130.85L214.74,112.23L217.68,126L220.62,125.56L223.56,123.09L226.51,148.46L229.45,166.11L232.39,176.76L235.34,165.77L238.28,178.58L241.22,184.77L244.16,200.08L247.11,175.47L250.05,179.93L252.99,179.75L255.94,160.55L258.88,160.31L261.82,146.81L264.76,124.66L270.65,117.94L273.59,110.41L276.54,102.31L279.48,101.56L282.42,107.96L285.36,127.81L288.31,114.6L291.25,112.27L294.19,124.98L297.13,114.96L300.08,108.02" style="vector-effect: none; fill: none; stroke: rgb(255, 255, 224); stroke-opacity: 1; stroke-width: 1px; opacity: 1;"/></g><g class="points"/><g class="text"/></g><g class="trace scatter trace58ccc4" style="stroke-miterlimit: 2; opacity: 1;"><g class="fills"/><g class="errorbars"/><g class="lines"><path class="js-line" d="M8.74,75.32L11.68,74.19L14.63,69.08L17.57,57.41L20.51,62.05L23.45,70.5L26.4,72.64L29.34,46.68L32.28,54.89L35.23,39.93L38.17,34.34L41.11,41.85L44.05,53.92L47,33.98L49.94,34.54L52.88,15.8L55.82,25.22L61.71,65.07L64.65,68.19L67.6,63.75L70.54,57.14L73.48,49L76.42,71.62L79.37,52.23L82.31,46.3L85.25,76.86L88.2,68.59L91.14,94.34L94.08,77.89L97.02,67.51L99.97,53.76L102.91,46.13L105.85,54.57L108.8,49.12L111.74,60.54L114.68,44.03L117.62,50.83L123.51,55L126.45,68.85L129.4,77.62L132.34,60.11L135.28,58.43L138.22,82.05L141.17,93.96L144.11,85.67L147.05,68.96L149.99,64.33L152.94,49.88L155.88,56.3L158.82,66.43L161.77,65.05L164.71,61.4L167.65,45.62L170.59,39.48L173.54,50.18L176.48,53.87L179.42,60L182.37,77.44L185.31,85.52L188.25,67.31L191.19,71.52L194.14,54.19L197.08,56.96L200.02,53.24L202.97,62.2L205.91,90.21L208.85,90.83L211.79,86.11L214.74,92L217.68,101.99L220.62,81.33L226.51,95.82L229.45,88.68L232.39,88.75L235.34,100.99L238.28,90L241.22,82.95L244.16,76.62L247.11,77.73L250.05,85.4L252.99,76.21L255.94,66.96L258.88,39.95L261.82,52.94L264.76,32.92L267.71,41.08L270.65,41.51L276.54,52.33L279.48,19.17L282.42,14.28L285.36,14.07L288.31,5.83L291.25,22.03L297.13,50.57L300.08,43.69" style="vector-effect: none; fill: none; stroke: rgb(139, 0, 0); stroke-opacity: 1; stroke-width: 1px; opacity: 1;"/></g><g class="points"/><g class="text"/></g><g class="trace scatter trace90f524" style="stroke-miterlimit: 2; opacity: 1;"><g class="fills"/><g class="errorbars"/><g class="lines"><path class="js-line" d="M8.74,75.32L11.68,86.43L14.63,80.2L17.57,83.98L20.51,93.99L23.45,102.87L26.4,86.02L29.34,85.94L32.28,92.44L35.23,86.38L38.17,78.23L41.11,88.48L44.05,90.52L47,69.6L49.94,76.68L52.88,72.84L55.82,87.82L58.77,74.18L61.71,46.18L64.65,38.49L67.6,47.73L70.54,58.63L73.48,81.18L76.42,91.07L79.37,73.12L82.31,73.62L85.25,45.08L88.2,55.8L91.14,59.59L94.08,63.87L97.02,70.06L102.91,70.3L105.85,90.9L108.8,95.92L111.74,78.15L114.68,73.72L117.62,67.48L120.57,85.54L123.51,79.51L129.4,90.49L132.34,106.43L135.28,124.17L138.22,128.06L141.17,121.99L144.11,118.38L147.05,104.29L149.99,124.99L152.94,135.49L155.88,125.31L158.82,110.04L161.77,133.26L164.71,113.44L167.65,129.38L170.59,125.85L173.54,110.18L176.48,109.68L179.42,91.87L182.37,101.15L185.31,94.87L188.25,79.74L191.19,115.33L194.14,119.21L197.08,96.54L200.02,98.73L202.97,114.57L205.91,105.42L208.85,80.22L211.79,76.6L214.74,83.84L217.68,92.92L220.62,94.71L223.56,94.17L226.51,87.89L232.39,59.58L235.34,75.05L238.28,76.47L241.22,92.1L244.16,93.48L247.11,98.52L250.05,100.59L252.99,107.41L255.94,116.22L258.88,101.22L261.82,93.77L264.76,111.22L267.71,127.4L270.65,110.62L273.59,112.41L276.54,101.27L279.48,100.87L282.42,70.5L285.36,77.82L288.31,73.57L291.25,71.77L294.19,76.38L297.13,85.47L300.08,85.65" style="vector-effect: none; fill: none; stroke: rgb(255, 165, 0); stroke-opacity: 1; stroke-width: 1px; opacity: 1;"/></g><g class="points"/><g class="text"/></g><g class="trace scatter tracea8097a" style="stroke-miterlimit: 2; opacity: 1;"><g class="fills"/><g class="errorbars"/><g class="lines"><path class="js-line" d="M8.74,75.32L11.68,60.45L14.63,35.36L17.57,49.73L20.51,57.84L23.45,71.78L26.4,75.99L29.34,71.9L32.28,64.52L35.23,51.86L38.17,96.15L41.11,84.04L44.05,92.38L47,100.48L49.94,121.44L52.88,123.41L55.82,131.29L58.77,132.39L61.71,143.87L64.65,146.11L67.6,144.39L70.54,155.12L73.48,138.47L76.42,126.56L79.37,134.07L82.31,115.49L85.25,111.34L88.2,104.72L91.14,94.8L94.08,97.54L97.02,96.19L99.97,100.59L102.91,99.32L105.85,91.8L108.8,61.99L111.74,71.41L114.68,66.5L117.62,47.95L120.57,52.56L123.51,59.96L126.45,59.66L129.4,55.91L132.34,61.02L135.28,69.13L138.22,68.25L141.17,65.06L144.11,79.18L147.05,96.71L149.99,89.95L152.94,103.41L155.88,101.08L158.82,105.46L161.77,92.46L164.71,104.72L167.65,85.6L170.59,104.9L173.54,116.67L176.48,127.78L179.42,144.64L182.37,149.79L185.31,148.15L188.25,133.41L191.19,131.59L194.14,115.84L197.08,124.78L200.02,127.17L202.97,97.67L205.91,121.76L208.85,102.59L211.79,100.53L214.74,103.04L217.68,106.44L220.62,76.2L223.56,71.85L226.51,62.8L229.45,56.4L232.39,36.22L235.34,37.53L238.28,24.84L241.22,20.39L244.16,22.46L247.11,18.08L250.05,21.93L252.99,25.06L255.94,29.55L261.82,59.17L264.76,55.14L267.71,55.42L270.65,80.35L273.59,55.78L276.54,66.02L279.48,64.75L282.42,71.48L285.36,58.34L288.31,61.28L291.25,68.4L294.19,59.85L297.13,61.8L300.08,60.92" style="vector-effect: none; fill: none; stroke: rgb(255, 210, 112); stroke-opacity: 1; stroke-width: 1px; opacity: 1;"/></g><g class="points"/><g class="text"/></g></g></g></g><path class="xlines-above crisp" d="M46.94301545640128,458.3827646544182H356.7606882473025" style="fill: none; stroke-width: 1px; stroke: rgb(0, 0, 0); stroke-opacity: 1;"/><path class="ylines-above crisp" d="M47.44301545640128,251.97834645669292V457.8827646544182" style="fill: none; stroke-width: 1px; stroke: rgb(0, 0, 0); stroke-opacity: 1;"/><g class="overlines-above"/><g class="xaxislayer-above"><path class="x3tick ticks crisp" d="M0,457.8827646544182v-5" transform="translate(53.743015456401274,0)" style="stroke: rgb(0, 0, 0); stroke-opacity: 1; stroke-width: 1px;"/><path class="x3tick ticks crisp" d="M0,457.8827646544182v-5" transform="translate(127.31301545640127,0)" style="stroke: rgb(0, 0, 0); stroke-opacity: 1; stroke-width: 1px;"/><path class="x3tick ticks crisp" d="M0,457.8827646544182v-5" transform="translate(200.88301545640127,0)" style="stroke: rgb(0, 0, 0); stroke-opacity: 1; stroke-width: 1px;"/><path class="x3tick ticks crisp" d="M0,457.8827646544182v-5" transform="translate(274.45301545640126,0)" style="stroke: rgb(0, 0, 0); stroke-opacity: 1; stroke-width: 1px;"/><path class="x3tick ticks crisp" d="M0,457.8827646544182v-5" transform="translate(348.02301545640125,0)" style="stroke: rgb(0, 0, 0); stroke-opacity: 1; stroke-width: 1px;"/><g class="x3tick"><text text-anchor="middle" x="0" y="472.0827646544182" transform="translate(53.743015456401274,0)" style="font-family: sans-serif; font-size: 11px; fill: rgb(0, 0, 0); fill-opacity: 1; white-space: pre; opacity: 1;">0</text></g><g class="x3tick"><text text-anchor="middle" x="0" y="472.0827646544182" style="font-family: sans-serif; font-size: 11px; fill: rgb(0, 0, 0); fill-opacity: 1; white-space: pre; opacity: 1;" transform="translate(127.31301545640127,0)">25</text></g><g class="x3tick"><text text-anchor="middle" x="0" y="472.0827646544182" style="font-family: sans-serif; font-size: 11px; fill: rgb(0, 0, 0); fill-opacity: 1; white-space: pre; opacity: 1;" transform="translate(200.88301545640127,0)">50</text></g><g class="x3tick"><text text-anchor="middle" x="0" y="472.0827646544182" style="font-family: sans-serif; font-size: 11px; fill: rgb(0, 0, 0); fill-opacity: 1; white-space: pre; opacity: 1;" transform="translate(274.45301545640126,0)">75</text></g><g class="x3tick"><text text-anchor="middle" x="0" y="472.0827646544182" style="font-family: sans-serif; font-size: 11px; fill: rgb(0, 0, 0); fill-opacity: 1; white-space: pre; opacity: 1;" transform="translate(348.02301545640125,0)">100</text></g></g><g class="yaxislayer-above"><path class="y3tick ticks crisp" d="M47.94301545640128,0h5" transform="translate(0,449.8183464566929)" style="stroke: rgb(0, 0, 0); stroke-opacity: 1; stroke-width: 1px;"/><path class="y3tick ticks crisp" d="M47.94301545640128,0h5" transform="translate(0,388.5583464566929)" style="stroke: rgb(0, 0, 0); stroke-opacity: 1; stroke-width: 1px;"/><path class="y3tick ticks crisp" d="M47.94301545640128,0h5" transform="translate(0,327.2983464566929)" style="stroke: rgb(0, 0, 0); stroke-opacity: 1; stroke-width: 1px;"/><path class="y3tick ticks crisp" d="M47.94301545640128,0h5" transform="translate(0,266.02834645669293)" style="stroke: rgb(0, 0, 0); stroke-opacity: 1; stroke-width: 1px;"/><g class="y3tick"><text text-anchor="end" x="44.743015456401274" y="3.8499999999999996" transform="translate(0,449.8183464566929)" style="font-family: sans-serif; font-size: 11px; fill: rgb(0, 0, 0); fill-opacity: 1; white-space: pre; opacity: 1;">-10</text></g><g class="y3tick"><text text-anchor="end" x="44.743015456401274" y="3.8499999999999996" style="font-family: sans-serif; font-size: 11px; fill: rgb(0, 0, 0); fill-opacity: 1; white-space: pre; opacity: 1;" transform="translate(0,388.5583464566929)">-5</text></g><g class="y3tick"><text text-anchor="end" x="44.743015456401274" y="3.8499999999999996" style="font-family: sans-serif; font-size: 11px; fill: rgb(0, 0, 0); fill-opacity: 1; white-space: pre; opacity: 1;" transform="translate(0,327.2983464566929)">0</text></g><g class="y3tick"><text text-anchor="end" x="44.743015456401274" y="3.8499999999999996" style="font-family: sans-serif; font-size: 11px; fill: rgb(0, 0, 0); fill-opacity: 1; white-space: pre; opacity: 1;" transform="translate(0,266.02834645669293)">5</text></g></g><g class="overaxes-above"/></g><g class="subplot x4y4"><g class="layer-subplot"><g class="shapelayer"/><g class="imagelayer"/></g><g class="minor-gridlayer"><g class="x4"/><g class="y4"/></g><g class="gridlayer"><g class="x4"><path class="x4grid crisp" transform="translate(392.40227471566055,0)" d="M0,251.97834645669292v205.90441819772528" style="stroke: rgb(0, 0, 0); stroke-opacity: 0.1; stroke-width: 0.5px;"/><path class="x4grid crisp" transform="translate(465.97227471566055,0)" d="M0,251.97834645669292v205.90441819772528" style="stroke: rgb(0, 0, 0); stroke-opacity: 0.1; stroke-width: 0.5px;"/><path class="x4grid crisp" transform="translate(539.5422747156606,0)" d="M0,251.97834645669292v205.90441819772528" style="stroke: rgb(0, 0, 0); stroke-opacity: 0.1; stroke-width: 0.5px;"/><path class="x4grid crisp" transform="translate(613.1122747156605,0)" d="M0,251.97834645669292v205.90441819772528" style="stroke: rgb(0, 0, 0); stroke-opacity: 0.1; stroke-width: 0.5px;"/><path class="x4grid crisp" transform="translate(686.6822747156605,0)" d="M0,251.97834645669292v205.90441819772528" style="stroke: rgb(0, 0, 0); stroke-opacity: 0.1; stroke-width: 0.5px;"/></g><g class="y4"><path class="y4grid crisp" transform="translate(0,438.0683464566929)" d="M386.60227471566054,0h308.81767279090116" style="stroke: rgb(0, 0, 0); stroke-opacity: 0.1; stroke-width: 0.5px;"/><path class="y4grid crisp" transform="translate(0,411.0683464566929)" d="M386.60227471566054,0h308.81767279090116" style="stroke: rgb(0, 0, 0); stroke-opacity: 0.1; stroke-width: 0.5px;"/><path class="y4grid crisp" transform="translate(0,384.0683464566929)" d="M386.60227471566054,0h308.81767279090116" style="stroke: rgb(0, 0, 0); stroke-opacity: 0.1; stroke-width: 0.5px;"/><path class="y4grid crisp" transform="translate(0,357.0683464566929)" d="M386.60227471566054,0h308.81767279090116" style="stroke: rgb(0, 0, 0); stroke-opacity: 0.1; stroke-width: 0.5px;"/><path class="y4grid crisp" transform="translate(0,330.0683464566929)" d="M386.60227471566054,0h308.81767279090116" style="stroke: rgb(0, 0, 0); stroke-opacity: 0.1; stroke-width: 0.5px;"/><path class="y4grid crisp" transform="translate(0,303.0683464566929)" d="M386.60227471566054,0h308.81767279090116" style="stroke: rgb(0, 0, 0); stroke-opacity: 0.1; stroke-width: 0.5px;"/><path class="y4grid crisp" transform="translate(0,276.0683464566929)" d="M386.60227471566054,0h308.81767279090116" style="stroke: rgb(0, 0, 0); stroke-opacity: 0.1; stroke-width: 0.5px;"/></g></g><g class="zerolinelayer"/><g class="layer-between"><g class="shapelayer"/><g class="imagelayer"/></g><path class="xlines-below"/><path class="ylines-below"/><g class="overlines-below"/><g class="xaxislayer-below"/><g class="yaxislayer-below"/><g class="overaxes-below"/><g class="overplot"><g class="x4y4" transform="translate(386.60227471566054,251.97834645669292)" clip-path="url(#clipe10a77x4y4plot)"><g class="scatterlayer mlayer"><g class="trace scatter tracecbf73a" style="stroke-miterlimit: 2; opacity: 1;"><g class="fills"/><g class="errorbars"/><g class="lines"><path class="js-line" d="M8.74,105.09L11.68,122.56L14.63,127.19L17.57,127.58L20.51,112.11L23.45,119.59L26.4,138.9L29.34,135.91L32.28,139.25L35.23,165.73L38.17,146.44L41.11,148.19L44.05,156.96L47,148.41L49.94,135.26L52.88,135.22L55.82,129.56L58.77,124.43L61.71,128.01L64.65,127.5L67.6,111.86L70.54,120.01L73.48,98.89L76.42,100.75L79.37,76.6L82.31,91.31L85.25,80.51L88.2,69.78L91.14,90.63L97.02,101L99.97,119.48L102.91,119.58L105.85,129.99L108.8,142.58L111.74,124.81L114.68,145.32L117.62,148.39L120.57,169.24L123.51,200.08L126.45,159.62L129.4,166.73L132.34,142.51L135.28,160.02L138.22,151.42L141.17,169.8L144.11,164.55L147.05,142.51L149.99,152.31L152.94,142.57L155.88,129.38L158.82,127.79L161.77,135.46L164.71,164.99L167.65,157.6L170.59,158L173.54,193.36L176.48,183.23L179.42,178.16L182.37,169.83L185.31,156.7L188.25,177L191.19,165.28L194.14,146.95L200.02,138.08L202.97,143.7L205.91,128.93L208.85,130.88L211.79,101.49L214.74,86.71L217.68,103.37L220.62,93.2L223.56,102.24L226.51,119.56L229.45,143.52L232.39,135.19L235.34,151.97L238.28,150.28L241.22,139.94L244.16,143.54L247.11,166.78L250.05,150.05L252.99,156.37L255.94,169.84L258.88,191.53L261.82,190.03L264.76,187.16L267.71,168L270.65,167.33L273.59,153.74L276.54,117.84L279.48,111.64L282.42,122.06L285.36,125.89L288.31,109.02L291.25,104.47L294.19,104.66L297.13,96.04L300.08,88.56" style="vector-effect: none; fill: none; stroke: rgb(204, 76, 204); stroke-opacity: 1; stroke-width: 1px; opacity: 1;"/></g><g class="points"/><g class="text"/></g><g class="trace scatter trace40cdce" style="stroke-miterlimit: 2; opacity: 1;"><g class="fills"/><g class="errorbars"/><g class="lines"><path class="js-line" d="M8.74,105.09L11.68,106.3L14.63,97.14L17.57,114.37L20.51,114.3L23.45,107.4L26.4,121.76L29.34,92.35L32.28,89.2L35.23,78.64L38.17,78.98L41.11,72.22L44.05,60.35L47,60.38L49.94,63.75L52.88,74.92L55.82,91.5L58.77,95.69L61.71,72.4L64.65,91.07L67.6,71.71L70.54,74.12L73.48,56.75L76.42,71.01L79.37,74.02L82.31,68.09L85.25,64.91L88.2,87.95L91.14,102.29L94.08,116.08L97.02,116.63L99.97,142.49L102.91,127.5L105.85,127.16L108.8,129.9L111.74,115.69L114.68,110.97L117.62,121.17L120.57,125.78L123.51,132.84L126.45,107.08L129.4,110.51L132.34,141.68L135.28,132.96L138.22,127.33L141.17,118.94L144.11,137.39L147.05,133.27L149.99,143.6L152.94,141.7L155.88,123.62L158.82,122.67L161.77,107.88L164.71,94.92L167.65,86.51L170.59,89.8L173.54,89.35L176.48,91.33L179.42,79.02L182.37,86.65L185.31,87.33L188.25,98.2L191.19,80.87L194.14,54.47L197.08,52.89L200.02,48.89L202.97,74.82L205.91,63.1L208.85,77.43L211.79,76.24L214.74,81.93L217.68,77.56L220.62,78.84L223.56,81.28L226.51,72.57L232.39,118.95L235.34,108.16L238.28,119.47L241.22,114.23L244.16,104.16L247.11,131.18L250.05,132.72L252.99,122.84L255.94,108.84L258.88,107.12L261.82,97.93L264.76,70.17L267.71,68.83L270.65,69.28L276.54,46.48L279.48,54.04L282.42,42.98L285.36,49.57L288.31,74.09L291.25,77.64L294.19,111.25L297.13,93.97L300.08,107.1" style="vector-effect: none; fill: none; stroke: rgb(255, 76, 76); stroke-opacity: 1; stroke-width: 1px; opacity: 1;"/></g><g class="points"/><g class="text"/></g><g class="trace scatter tracefc4e9d" style="stroke-miterlimit: 2; opacity: 1;"><g class="fills"/><g class="errorbars"/><g class="lines"><path class="js-line" d="M8.74,105.09L11.68,99.02L14.63,98.47L20.51,122.16L23.45,117.47L26.4,98.4L29.34,92.5L35.23,42.8L38.17,25.35L41.11,13.15L44.05,25.31L47,5.83L49.94,21.01L52.88,39.56L55.82,41.25L61.71,78.44L64.65,64.32L67.6,70.47L70.54,96.93L73.48,136.14L76.42,135.68L79.37,120.75L82.31,119.72L88.2,83.33L91.14,64.21L97.02,87.55L99.97,79.5L105.85,99.81L108.8,111.48L111.74,84.53L114.68,73.89L117.62,105.94L120.57,101.24L123.51,85.1L126.45,89.69L132.34,108.22L135.28,111.34L138.22,116.56L141.17,124.21L144.11,115.05L147.05,118.33L149.99,102.42L152.94,119.1L155.88,144.04L158.82,132.94L161.77,120.5L164.71,137.33L167.65,151.23L170.59,176.93L173.54,156.47L176.48,146.57L179.42,133.45L182.37,124.54L188.25,125.65L191.19,119.89L194.14,140.54L197.08,129.28L200.02,137.79L202.97,110.07L205.91,105.08L208.85,93.15L211.79,115.37L214.74,89.94L220.62,58.3L223.56,80.92L226.51,82.69L229.45,95.57L232.39,86.12L235.34,97.79L238.28,111.45L241.22,104.62L250.05,74.78L252.99,83.16L255.94,93.92L258.88,92.37L261.82,69L264.76,61.47L270.65,87.73L273.59,92.57L276.54,55.65L279.48,72.05L282.42,43.14L285.36,39.47L288.31,33.59L291.25,18.14L297.13,62.4L300.08,51.94" style="vector-effect: none; fill: none; stroke: rgb(76, 204, 76); stroke-opacity: 1; stroke-width: 1px; opacity: 1;"/></g><g class="points"/><g class="text"/></g><g class="trace scatter trace2d7304" style="stroke-miterlimit: 2; opacity: 1;"><g class="fills"/><g class="errorbars"/><g class="lines"><path class="js-line" d="M8.74,105.09L11.68,121.21L14.63,118.29L17.57,101.21L20.51,101.24L23.45,123.69L26.4,134.96L29.34,132.98L32.28,108.11L35.23,120.37L38.17,125.14L41.11,107.68L44.05,108.81L47,116.62L49.94,107.13L52.88,73.32L55.82,63.66L58.77,58.92L61.71,52.02L64.65,49.05L67.6,66.28L70.54,57.74L73.48,77.93L76.42,55.52L79.37,44.32L82.31,65.22L85.25,54.23L91.14,80.96L94.08,68.74L97.02,73.75L99.97,37.8L102.91,68.88L105.85,76.77L108.8,87.43L111.74,88.29L114.68,100.26L117.62,104.87L120.57,95.69L123.51,89.05L126.45,95.55L129.4,63.2L132.34,38.37L135.28,72.6L138.22,59.22L141.17,39.75L144.11,42.97L147.05,80.27L149.99,84.94L152.94,58.3L155.88,59.12L158.82,73.18L161.77,78.29L164.71,78.96L167.65,73.2L170.59,69.73L173.54,79.13L176.48,105.42L179.42,88.18L182.37,65.75L185.31,63.82L188.25,60.7L191.19,81.93L194.14,66.48L197.08,66.69L200.02,63.47L202.97,76.1L205.91,66.38L208.85,88.57L211.79,77.49L214.74,76.64L217.68,84.31L220.62,95.67L223.56,87.01L226.51,88.26L229.45,73.85L232.39,66.58L235.34,67.37L238.28,69.5L241.22,62.66L244.16,65.13L247.11,76.91L250.05,74.68L252.99,73.66L255.94,96.47L258.88,105.03L264.76,123.73L267.71,128.81L270.65,117.57L273.59,109.75L276.54,100.98L279.48,123.43L282.42,93.7L285.36,108.27L288.31,107.73L291.25,96.28L294.19,101.42L297.13,73.04L300.08,84.52" style="vector-effect: none; fill: none; stroke: rgb(76, 76, 255); stroke-opacity: 1; stroke-width: 1px; opacity: 1;"/></g><g class="points"/><g class="text"/></g></g></g></g><path class="xlines-above crisp" d="M385.60227471566054,458.3827646544182H695.4199475065617" style="fill: none; stroke-width: 1px; stroke: rgb(0, 0, 0); stroke-opacity: 1;"/><path class="ylines-above crisp" d="M386.10227471566054,251.97834645669292V457.8827646544182" style="fill: none; stroke-width: 1px; stroke: rgb(0, 0, 0); stroke-opacity: 1;"/><g class="overlines-above"/><g class="xaxislayer-above"><path class="x4tick ticks crisp" d="M0,457.8827646544182v-5" transform="translate(392.40227471566055,0)" style="stroke: rgb(0, 0, 0); stroke-opacity: 1; stroke-width: 1px;"/><path class="x4tick ticks crisp" d="M0,457.8827646544182v-5" transform="translate(465.97227471566055,0)" style="stroke: rgb(0, 0, 0); stroke-opacity: 1; stroke-width: 1px;"/><path class="x4tick ticks crisp" d="M0,457.8827646544182v-5" transform="translate(539.5422747156606,0)" style="stroke: rgb(0, 0, 0); stroke-opacity: 1; stroke-width: 1px;"/><path class="x4tick ticks crisp" d="M0,457.8827646544182v-5" transform="translate(613.1122747156605,0)" style="stroke: rgb(0, 0, 0); stroke-opacity: 1; stroke-width: 1px;"/><path class="x4tick ticks crisp" d="M0,457.8827646544182v-5" transform="translate(686.6822747156605,0)" style="stroke: rgb(0, 0, 0); stroke-opacity: 1; stroke-width: 1px;"/><g class="x4tick"><text text-anchor="middle" x="0" y="472.0827646544182" transform="translate(392.40227471566055,0)" style="font-family: sans-serif; font-size: 11px; fill: rgb(0, 0, 0); fill-opacity: 1; white-space: pre; opacity: 1;">0</text></g><g class="x4tick"><text text-anchor="middle" x="0" y="472.0827646544182" style="font-family: sans-serif; font-size: 11px; fill: rgb(0, 0, 0); fill-opacity: 1; white-space: pre; opacity: 1;" transform="translate(465.97227471566055,0)">25</text></g><g class="x4tick"><text text-anchor="middle" x="0" y="472.0827646544182" style="font-family: sans-serif; font-size: 11px; fill: rgb(0, 0, 0); fill-opacity: 1; white-space: pre; opacity: 1;" transform="translate(539.5422747156606,0)">50</text></g><g class="x4tick"><text text-anchor="middle" x="0" y="472.0827646544182" style="font-family: sans-serif; font-size: 11px; fill: rgb(0, 0, 0); fill-opacity: 1; white-space: pre; opacity: 1;" transform="translate(613.1122747156605,0)">75</text></g><g class="x4tick"><text text-anchor="middle" x="0" y="472.0827646544182" style="font-family: sans-serif; font-size: 11px; fill: rgb(0, 0, 0); fill-opacity: 1; white-space: pre; opacity: 1;" transform="translate(686.6822747156605,0)">100</text></g></g><g class="yaxislayer-above"><path class="y4tick ticks crisp" d="M386.60227471566054,0h5" transform="translate(0,438.0683464566929)" style="stroke: rgb(0, 0, 0); stroke-opacity: 1; stroke-width: 1px;"/><path class="y4tick ticks crisp" d="M386.60227471566054,0h5" transform="translate(0,411.0683464566929)" style="stroke: rgb(0, 0, 0); stroke-opacity: 1; stroke-width: 1px;"/><path class="y4tick ticks crisp" d="M386.60227471566054,0h5" transform="translate(0,384.0683464566929)" style="stroke: rgb(0, 0, 0); stroke-opacity: 1; stroke-width: 1px;"/><path class="y4tick ticks crisp" d="M386.60227471566054,0h5" transform="translate(0,357.0683464566929)" style="stroke: rgb(0, 0, 0); stroke-opacity: 1; stroke-width: 1px;"/><path class="y4tick ticks crisp" d="M386.60227471566054,0h5" transform="translate(0,330.0683464566929)" style="stroke: rgb(0, 0, 0); stroke-opacity: 1; stroke-width: 1px;"/><path class="y4tick ticks crisp" d="M386.60227471566054,0h5" transform="translate(0,303.0683464566929)" style="stroke: rgb(0, 0, 0); stroke-opacity: 1; stroke-width: 1px;"/><path class="y4tick ticks crisp" d="M386.60227471566054,0h5" transform="translate(0,276.0683464566929)" style="stroke: rgb(0, 0, 0); stroke-opacity: 1; stroke-width: 1px;"/><g class="y4tick"><text text-anchor="end" x="383.40227471566055" y="3.8499999999999996" transform="translate(0,438.0683464566929)" style="font-family: sans-serif; font-size: 11px; fill: rgb(0, 0, 0); fill-opacity: 1; white-space: pre; opacity: 1;">-6</text></g><g class="y4tick"><text text-anchor="end" x="383.40227471566055" y="3.8499999999999996" style="font-family: sans-serif; font-size: 11px; fill: rgb(0, 0, 0); fill-opacity: 1; white-space: pre; opacity: 1;" transform="translate(0,411.0683464566929)">-4</text></g><g class="y4tick"><text text-anchor="end" x="383.40227471566055" y="3.8499999999999996" style="font-family: sans-serif; font-size: 11px; fill: rgb(0, 0, 0); fill-opacity: 1; white-space: pre; opacity: 1;" transform="translate(0,384.0683464566929)">-2</text></g><g class="y4tick"><text text-anchor="end" x="383.40227471566055" y="3.8499999999999996" style="font-family: sans-serif; font-size: 11px; fill: rgb(0, 0, 0); fill-opacity: 1; white-space: pre; opacity: 1;" transform="translate(0,357.0683464566929)">0</text></g><g class="y4tick"><text text-anchor="end" x="383.40227471566055" y="3.8499999999999996" style="font-family: sans-serif; font-size: 11px; fill: rgb(0, 0, 0); fill-opacity: 1; white-space: pre; opacity: 1;" transform="translate(0,330.0683464566929)">2</text></g><g class="y4tick"><text text-anchor="end" x="383.40227471566055" y="3.8499999999999996" style="font-family: sans-serif; font-size: 11px; fill: rgb(0, 0, 0); fill-opacity: 1; white-space: pre; opacity: 1;" transform="translate(0,303.0683464566929)">4</text></g><g class="y4tick"><text text-anchor="end" x="383.40227471566055" y="3.8499999999999996" style="font-family: sans-serif; font-size: 11px; fill: rgb(0, 0, 0); fill-opacity: 1; white-space: pre; opacity: 1;" transform="translate(0,276.0683464566929)">6</text></g></g><g class="overaxes-above"/></g></g><g class="polarlayer"/><g class="smithlayer"/><g class="ternarylayer"/><g class="geolayer"/><g class="funnelarealayer"/><g class="pielayer"/><g class="iciclelayer"/><g class="treemaplayer"/><g class="sunburstlayer"/><g class="glimages"/><defs id="topdefs-e10a77"><g class="clips"/><clipPath id="legende10a77"><rect width="63" height="390" x="1" y="1"/></clipPath></defs><g class="layer-above"><g class="imagelayer"/><g class="shapelayer"/></g><g class="infolayer"><g class="legend" pointer-events="all" transform="translate(635,20)"><rect class="bg" shape-rendering="crispEdges" style="stroke: rgb(0, 0, 0); stroke-opacity: 1; fill: rgb(255, 255, 255); fill-opacity: 1; stroke-width: 1px;" width="64" height="391" x="0.5" y="0.5"/><g class="scrollbox" transform="" clip-path="url(#legende10a77)"><g class="groups"><g class="traces" transform="translate(1,15.5)" style="opacity: 1;"><text class="legendtext" text-anchor="start" x="40" y="4.29" style="font-family: sans-serif; font-size: 11px; fill: rgb(0, 0, 0); fill-opacity: 1; white-space: pre;">y1</text><g class="layers" style="opacity: 1;"><g class="legendfill"/><g class="legendlines"><path class="js-line" d="M5,0h30" style="fill: none; stroke: rgb(13, 13, 13); stroke-opacity: 1; stroke-width: 1px;"/></g><g class="legendsymbols"><g class="legendpoints"/></g></g><rect class="legendtoggle" x="0" y="-9.5" width="57.75" height="19" style="fill: rgb(0, 0, 0); fill-opacity: 0;"/></g><g class="traces" transform="translate(1,34.5)" style="opacity: 1;"><text class="legendtext" text-anchor="start" x="40" y="4.29" style="font-family: sans-serif; font-size: 11px; fill: rgb(0, 0, 0); fill-opacity: 1; white-space: pre;">y2</text><g class="layers" style="opacity: 1;"><g class="legendfill"/><g class="legendlines"><path class="js-line" d="M5,0h30" style="fill: none; stroke: rgb(173, 216, 230); stroke-opacity: 1; stroke-width: 1px;"/></g><g class="legendsymbols"><g class="legendpoints"/></g></g><rect class="legendtoggle" x="0" y="-9.5" width="57.75" height="19" style="fill: rgb(0, 0, 0); fill-opacity: 0;"/></g><g class="traces" transform="translate(1,53.5)" style="opacity: 1;"><text class="legendtext" text-anchor="start" x="40" y="4.29" style="font-family: sans-serif; font-size: 11px; fill: rgb(0, 0, 0); fill-opacity: 1; white-space: pre;">y3</text><g class="layers" style="opacity: 1;"><g class="legendfill"/><g class="legendlines"><path class="js-line" d="M5,0h30" style="fill: none; stroke: rgb(255, 255, 224); stroke-opacity: 1; stroke-width: 1px;"/></g><g class="legendsymbols"><g class="legendpoints"/></g></g><rect class="legendtoggle" x="0" y="-9.5" width="57.75" height="19" style="fill: rgb(0, 0, 0); fill-opacity: 0;"/></g><g class="traces" transform="translate(1,72.5)" style="opacity: 1;"><text class="legendtext" text-anchor="start" x="40" y="4.29" style="font-family: sans-serif; font-size: 11px; fill: rgb(0, 0, 0); fill-opacity: 1; white-space: pre;">y4</text><g class="layers" style="opacity: 1;"><g class="legendfill"/><g class="legendlines"><path class="js-line" d="M5,0h30" style="fill: none; stroke: rgb(204, 76, 204); stroke-opacity: 1; stroke-width: 1px;"/></g><g class="legendsymbols"><g class="legendpoints"/></g></g><rect class="legendtoggle" x="0" y="-9.5" width="57.75" height="19" style="fill: rgb(0, 0, 0); fill-opacity: 0;"/></g><g class="traces" transform="translate(1,91.5)" style="opacity: 1;"><text class="legendtext" text-anchor="start" x="40" y="4.29" style="font-family: sans-serif; font-size: 11px; fill: rgb(0, 0, 0); fill-opacity: 1; white-space: pre;">y5</text><g class="layers" style="opacity: 1;"><g class="legendfill"/><g class="legendlines"><path class="js-line" d="M5,0h30" style="fill: none; stroke: rgb(242, 242, 242); stroke-opacity: 1; stroke-width: 1px;"/></g><g class="legendsymbols"><g class="legendpoints"/></g></g><rect class="legendtoggle" x="0" y="-9.5" width="57.75" height="19" style="fill: rgb(0, 0, 0); fill-opacity: 0;"/></g><g class="traces" transform="translate(1,110.5)" style="opacity: 1;"><text class="legendtext" text-anchor="start" x="40" y="4.29" style="font-family: sans-serif; font-size: 11px; fill: rgb(0, 0, 0); fill-opacity: 1; white-space: pre;">y6</text><g class="layers" style="opacity: 1;"><g class="legendfill"/><g class="legendlines"><path class="js-line" d="M5,0h30" style="fill: none; stroke: rgb(0, 0, 139); stroke-opacity: 1; stroke-width: 1px;"/></g><g class="legendsymbols"><g class="legendpoints"/></g></g><rect class="legendtoggle" x="0" y="-9.5" width="57.75" height="19" style="fill: rgb(0, 0, 0); fill-opacity: 0;"/></g><g class="traces" transform="translate(1,129.5)" style="opacity: 1;"><text class="legendtext" text-anchor="start" x="40" y="4.29" style="font-family: sans-serif; font-size: 11px; fill: rgb(0, 0, 0); fill-opacity: 1; white-space: pre;">y7</text><g class="layers" style="opacity: 1;"><g class="legendfill"/><g class="legendlines"><path class="js-line" d="M5,0h30" style="fill: none; stroke: rgb(139, 0, 0); stroke-opacity: 1; stroke-width: 1px;"/></g><g class="legendsymbols"><g class="legendpoints"/></g></g><rect class="legendtoggle" x="0" y="-9.5" width="57.75" height="19" style="fill: rgb(0, 0, 0); fill-opacity: 0;"/></g><g class="traces" transform="translate(1,148.5)" style="opacity: 1;"><text class="legendtext" text-anchor="start" x="40" y="4.29" style="font-family: sans-serif; font-size: 11px; fill: rgb(0, 0, 0); fill-opacity: 1; white-space: pre;">y8</text><g class="layers" style="opacity: 1;"><g class="legendfill"/><g class="legendlines"><path class="js-line" d="M5,0h30" style="fill: none; stroke: rgb(255, 76, 76); stroke-opacity: 1; stroke-width: 1px;"/></g><g class="legendsymbols"><g class="legendpoints"/></g></g><rect class="legendtoggle" x="0" y="-9.5" width="57.75" height="19" style="fill: rgb(0, 0, 0); fill-opacity: 0;"/></g><g class="traces" transform="translate(1,167.5)" style="opacity: 1;"><text class="legendtext" text-anchor="start" x="40" y="4.29" style="font-family: sans-serif; font-size: 11px; fill: rgb(0, 0, 0); fill-opacity: 1; white-space: pre;">y9</text><g class="layers" style="opacity: 1;"><g class="legendfill"/><g class="legendlines"><path class="js-line" d="M5,0h30" style="fill: none; stroke: rgb(128, 128, 128); stroke-opacity: 1; stroke-width: 1px;"/></g><g class="legendsymbols"><g class="legendpoints"/></g></g><rect class="legendtoggle" x="0" y="-9.5" width="57.75" height="19" style="fill: rgb(0, 0, 0); fill-opacity: 0;"/></g><g class="traces" transform="translate(1,186.5)" style="opacity: 1;"><text class="legendtext" text-anchor="start" x="40" y="4.29" style="font-family: sans-serif; font-size: 11px; fill: rgb(0, 0, 0); fill-opacity: 1; white-space: pre;">y10</text><g class="layers" style="opacity: 1;"><g class="legendfill"/><g class="legendlines"><path class="js-line" d="M5,0h30" style="fill: none; stroke: rgb(86, 108, 184); stroke-opacity: 1; stroke-width: 1px;"/></g><g class="legendsymbols"><g class="legendpoints"/></g></g><rect class="legendtoggle" x="0" y="-9.5" width="57.75" height="19" style="fill: rgb(0, 0, 0); fill-opacity: 0;"/></g><g class="traces" transform="translate(1,205.5)" style="opacity: 1;"><text class="legendtext" text-anchor="start" x="40" y="4.29" style="font-family: sans-serif; font-size: 11px; fill: rgb(0, 0, 0); fill-opacity: 1; white-space: pre;">y11</text><g class="layers" style="opacity: 1;"><g class="legendfill"/><g class="legendlines"><path class="js-line" d="M5,0h30" style="fill: none; stroke: rgb(70, 70, 70); stroke-opacity: 1; stroke-width: 1px;"/></g><g class="legendsymbols"><g class="legendpoints"/></g></g><rect class="legendtoggle" x="0" y="-9.5" width="57.75" height="19" style="fill: rgb(0, 0, 0); fill-opacity: 0;"/></g><g class="traces" transform="translate(1,224.5)" style="opacity: 1;"><text class="legendtext" text-anchor="start" x="40" y="4.29" style="font-family: sans-serif; font-size: 11px; fill: rgb(0, 0, 0); fill-opacity: 1; white-space: pre;">y12</text><g class="layers" style="opacity: 1;"><g class="legendfill"/><g class="legendlines"><path class="js-line" d="M5,0h30" style="fill: none; stroke: rgb(130, 162, 207); stroke-opacity: 1; stroke-width: 1px;"/></g><g class="legendsymbols"><g class="legendpoints"/></g></g><rect class="legendtoggle" x="0" y="-9.5" width="57.75" height="19" style="fill: rgb(0, 0, 0); fill-opacity: 0;"/></g><g class="traces" transform="translate(1,243.5)" style="opacity: 1;"><text class="legendtext" text-anchor="start" x="40" y="4.29" style="font-family: sans-serif; font-size: 11px; fill: rgb(0, 0, 0); fill-opacity: 1; white-space: pre;">y13</text><g class="layers" style="opacity: 1;"><g class="legendfill"/><g class="legendlines"><path class="js-line" d="M5,0h30" style="fill: none; stroke: rgb(255, 165, 0); stroke-opacity: 1; stroke-width: 1px;"/></g><g class="legendsymbols"><g class="legendpoints"/></g></g><rect class="legendtoggle" x="0" y="-9.5" width="57.75" height="19" style="fill: rgb(0, 0, 0); fill-opacity: 0;"/></g><g class="traces" transform="translate(1,262.5)" style="opacity: 1;"><text class="legendtext" text-anchor="start" x="40" y="4.29" style="font-family: sans-serif; font-size: 11px; fill: rgb(0, 0, 0); fill-opacity: 1; white-space: pre;">y14</text><g class="layers" style="opacity: 1;"><g class="legendfill"/><g class="legendlines"><path class="js-line" d="M5,0h30" style="fill: none; stroke: rgb(76, 204, 76); stroke-opacity: 1; stroke-width: 1px;"/></g><g class="legendsymbols"><g class="legendpoints"/></g></g><rect class="legendtoggle" x="0" y="-9.5" width="57.75" height="19" style="fill: rgb(0, 0, 0); fill-opacity: 0;"/></g><g class="traces" transform="translate(1,281.5)" style="opacity: 1;"><text class="legendtext" text-anchor="start" x="40" y="4.29" style="font-family: sans-serif; font-size: 11px; fill: rgb(0, 0, 0); fill-opacity: 1; white-space: pre;">y15</text><g class="layers" style="opacity: 1;"><g class="legendfill"/><g class="legendlines"><path class="js-line" d="M5,0h30" style="fill: none; stroke: rgb(185, 185, 185); stroke-opacity: 1; stroke-width: 1px;"/></g><g class="legendsymbols"><g class="legendpoints"/></g></g><rect class="legendtoggle" x="0" y="-9.5" width="57.75" height="19" style="fill: rgb(0, 0, 0); fill-opacity: 0;"/></g><g class="traces" transform="translate(1,300.5)" style="opacity: 1;"><text class="legendtext" text-anchor="start" x="40" y="4.29" style="font-family: sans-serif; font-size: 11px; fill: rgb(0, 0, 0); fill-opacity: 1; white-space: pre;">y16</text><g class="layers" style="opacity: 1;"><g class="legendfill"/><g class="legendlines"><path class="js-line" d="M5,0h30" style="fill: none; stroke: rgb(43, 54, 162); stroke-opacity: 1; stroke-width: 1px;"/></g><g class="legendsymbols"><g class="legendpoints"/></g></g><rect class="legendtoggle" x="0" y="-9.5" width="57.75" height="19" style="fill: rgb(0, 0, 0); fill-opacity: 0;"/></g><g class="traces" transform="translate(1,319.5)" style="opacity: 1;"><text class="legendtext" text-anchor="start" x="40" y="4.29" style="font-family: sans-serif; font-size: 11px; fill: rgb(0, 0, 0); fill-opacity: 1; white-space: pre;">y17</text><g class="layers" style="opacity: 1;"><g class="legendfill"/><g class="legendlines"><path class="js-line" d="M5,0h30" style="fill: none; stroke: rgb(255, 210, 112); stroke-opacity: 1; stroke-width: 1px;"/></g><g class="legendsymbols"><g class="legendpoints"/></g></g><rect class="legendtoggle" x="0" y="-9.5" width="57.75" height="19" style="fill: rgb(0, 0, 0); fill-opacity: 0;"/></g><g class="traces" transform="translate(1,338.5)" style="opacity: 1;"><text class="legendtext" text-anchor="start" x="40" y="4.29" style="font-family: sans-serif; font-size: 11px; fill: rgb(0, 0, 0); fill-opacity: 1; white-space: pre;">y18</text><g class="layers" style="opacity: 1;"><g class="legendfill"/><g class="legendlines"><path class="js-line" d="M5,0h30" style="fill: none; stroke: rgb(76, 76, 255); stroke-opacity: 1; stroke-width: 1px;"/></g><g class="legendsymbols"><g class="legendpoints"/></g></g><rect class="legendtoggle" x="0" y="-9.5" width="57.75" height="19" style="fill: rgb(0, 0, 0); fill-opacity: 0;"/></g><g class="traces" transform="translate(1,357.5)" style="opacity: 1;"><text class="legendtext" text-anchor="start" x="40" y="4.29" style="font-family: sans-serif; font-size: 11px; fill: rgb(0, 0, 0); fill-opacity: 1; white-space: pre;">y19</text><g class="layers" style="opacity: 1;"><g class="legendfill"/><g class="legendlines"><path class="js-line" d="M5,0h30" style="fill: none; stroke: rgb(41, 41, 41); stroke-opacity: 1; stroke-width: 1px;"/></g><g class="legendsymbols"><g class="legendpoints"/></g></g><rect class="legendtoggle" x="0" y="-9.5" width="57.75" height="19" style="fill: rgb(0, 0, 0); fill-opacity: 0;"/></g><g class="traces" transform="translate(1,376.5)" style="opacity: 1;"><text class="legendtext" text-anchor="start" x="40" y="4.29" style="font-family: sans-serif; font-size: 11px; fill: rgb(0, 0, 0); fill-opacity: 1; white-space: pre;">y20</text><g class="layers" style="opacity: 1;"><g class="legendfill"/><g class="legendlines"><path class="js-line" d="M5,0h30" style="fill: none; stroke: rgb(151, 189, 219); stroke-opacity: 1; stroke-width: 1px;"/></g><g class="legendsymbols"><g class="legendpoints"/></g></g><rect class="legendtoggle" x="0" y="-9.5" width="57.75" height="19" style="fill: rgb(0, 0, 0); fill-opacity: 0;"/></g></g></g><rect class="scrollbar" rx="20" ry="3" width="0" height="0" style="fill: rgb(128, 139, 164); fill-opacity: 1;" x="0" y="0"/></g><g class="g-gtitle"/><g class="g-xtitle"/><g class="g-x2title"/><g class="g-x3title"/><g class="g-x4title"/><g class="g-ytitle"/><g class="g-y2title"/><g class="g-y3title"/><g class="g-y4title"/></g></svg>