<svg class="main-svg" xmlns="http://www.w3.org/2000/svg" xmlns:xlink="http://www.w3.org/1999/xlink" width="700" height="500" style="" viewBox="0 0 700 500"><rect x="0" y="0" width="700" height="500" style="fill: rgb(255, 255, 255); fill-opacity: 1;"/><defs id="defs-34695d"><g class="clips"><clipPath id="clip34695dxyplot" class="plotclip"><rect width="651.2206474190725" height="130.07108486439193"/></clipPath><clipPath id="clip34695dx2y2plot" class="plotclip"><rect width="651.2206474190725" height="130.07108486439196"/></clipPath><clipPath id="clip34695dx3y3plot" class="plotclip"><rect width="651.2206474190725" height="130.07108486439193"/></clipPath><clipPath class="axesclip" id="clip34695dx"><rect x="44.24523184601925" y="0" width="651.2206474190725" height="500"/></clipPath><clipPath class="axesclip" id="clip34695dy"><rect x="0" y="24.478346456692904" width="700" height="130.07108486439193"/></clipPath><clipPath class="axesclip" id="clip34695dxy"><rect x="44.24523184601925" y="24.478346456692904" width="651.2206474190725" height="130.07108486439193"/></clipPath><clipPath class="axesclip" id="clip34695dy2"><rect x="0" y="176.14501312335955" width="700" height="130.07108486439196"/></clipPath><clipPath class="axesclip" id="clip34695dxy2"><rect x="44.24523184601925" y="176.14501312335955" width="651.2206474190725" height="130.07108486439196"/></clipPath><clipPath class="axesclip" id="clip34695dy3"><rect x="0" y="327.8116797900262" width="700" height="130.07108486439193"/></clipPath><clipPath class="axesclip" id="clip34695dxy3"><rect x="44.24523184601925" y="327.8116797900262" width="651.2206474190725" height="130.07108486439193"/></clipPath><clipPath class="axesclip" id="clip34695dx2"><rect x="44.24523184601925" y="0" width="651.2206474190725" height="500"/></clipPath><clipPath class="axesclip" id="clip34695dx2y"><rect x="44.24523184601925" y="24.478346456692904" width="651.2206474190725" height="130.07108486439193"/></clipPath><clipPath class="axesclip" id="clip34695dx2y2"><rect x="44.24523184601925" y="176.14501312335955" width="651.2206474190725" height="130.07108486439196"/></clipPath><clipPath class="axesclip" id="clip34695dx2y3"><rect x="44.24523184601925" y="327.8116797900262" width="651.2206474190725" height="130.07108486439193"/></clipPath><clipPath class="axesclip" id="clip34695dx3"><rect x="44.24523184601925" y="0" width="651.2206474190725" height="500"/></clipPath><clipPath class="axesclip" id="clip34695dx3y"><rect x="44.24523184601925" y="24.478346456692904" width="651.2206474190725" height="130.07108486439193"/></clipPath><clipPath class="axesclip" id="clip34695dx3y2"><rect x="44.24523184601925" y="176.14501312335955" width="651.2206474190725" height="130.07108486439196"/></clipPath><clipPath class="axesclip" id="clip34695dx3y3"><rect x="44.24523184601925" y="327.8116797900262" width="651.2206474190725" height="130.07108486439193"/></clipPath></g><g class="gradients"/><g class="patterns"/></defs><g class="bglayer"/><g class="layer-below"><g class="imagelayer"/><g class="shapelayer"/></g><g class="cartesianlayer"><g class="subplot xy"><g class="layer-subplot"><g class="shapelayer"/><g class="imagelayer"/></g><g class="minor-gridlayer"><g class="x"/><g class="y"/></g><g class="gridlayer"><g class="x"><path class="xgrid crisp" transform="translate(62.67523184601925,0)" d="M0,24.478346456692904v130.07108486439193" style="stroke: rgb(0, 0, 0); stroke-opacity: 0.1; stroke-width: 0.5px;"/><path class="xgrid crisp" transform="translate(216.26523184601928,0)" d="M0,24.478346456692904v130.07108486439193" style="stroke: rgb(0, 0, 0); stroke-opacity: 0.1; stroke-width: 0.5px;"/><path class="xgrid crisp" transform="translate(369.85523184601925,0)" d="M0,24.478346456692904v130.07108486439193" style="stroke: rgb(0, 0, 0); stroke-opacity: 0.1; stroke-width: 0.5px;"/><path class="xgrid crisp" transform="translate(523.4452318460193,0)" d="M0,24.478346456692904v130.07108486439193" style="stroke: rgb(0, 0, 0); stroke-opacity: 0.1; stroke-width: 0.5px;"/><path class="xgrid crisp" transform="translate(677.0352318460192,0)" d="M0,24.478346456692904v130.07108486439193" style="stroke: rgb(0, 0, 0); stroke-opacity: 0.1; stroke-width: 0.5px;"/></g><g class="y"><path class="ygrid crisp" transform="translate(0,150.8683464566929)" d="M44.24523184601925,0h651.2206474190725" style="stroke: rgb(0, 0, 0); stroke-opacity: 0.1; stroke-width: 0.5px;"/><path class="ygrid crisp" transform="translate(0,120.1883464566929)" d="M44.24523184601925,0h651.2206474190725" style="stroke: rgb(0, 0, 0); stroke-opacity: 0.1; stroke-width: 0.5px;"/><path class="ygrid crisp" transform="translate(0,89.51834645669291)" d="M44.24523184601925,0h651.2206474190725" style="stroke: rgb(0, 0, 0); stroke-opacity: 0.1; stroke-width: 0.5px;"/><path class="ygrid crisp" transform="translate(0,58.8383464566929)" d="M44.24523184601925,0h651.2206474190725" style="stroke: rgb(0, 0, 0); stroke-opacity: 0.1; stroke-width: 0.5px;"/><path class="ygrid crisp" transform="translate(0,28.158346456692904)" d="M44.24523184601925,0h651.2206474190725" style="stroke: rgb(0, 0, 0); stroke-opacity: 0.1; stroke-width: 0.5px;"/></g></g><g class="zerolinelayer"/><g class="layer-between"><g class="shapelayer"/><g class="imagelayer"/></g><path class="xlines-below"/><path class="ylines-below"/><g class="overlines-below"/><g class="xaxislayer-below"/><g class="yaxislayer-below"/><g class="overaxes-below"/><g class="overplot"><g class="xy" transform="translate(44.24523184601925,24.478346456692904)" clip-path="url(#clip34695dxyplot)"><g class="scatterlayer mlayer"><g class="trace scatter trace3059ef" style="stroke-miterlimit: 2; opacity: 1;"><g class="fills"/><g class="errorbars"/><g class="lines"/><g class="points"><path class="point" transform="translate(18.43,126.39)" d="M4,0A4,4 0 1,1 0,-4A4,4 0 0,1 4,0Z" style="opacity: 1; stroke-width: 1px; fill: rgb(108, 159, 51); fill-opacity: 1; stroke: rgb(0, 0, 0); stroke-opacity: 1;"/><path class="point" transform="translate(172.02,65.04)" d="M4,0A4,4 0 1,1 0,-4A4,4 0 0,1 4,0Z" style="opacity: 1; stroke-width: 1px; fill: rgb(108, 159, 51); fill-opacity: 1; stroke: rgb(0, 0, 0); stroke-opacity: 1;"/><path class="point" transform="translate(325.61,3.68)" d="M4,0A4,4 0 1,1 0,-4A4,4 0 0,1 4,0Z" style="opacity: 1; stroke-width: 1px; fill: rgb(108, 159, 51); fill-opacity: 1; stroke: rgb(0, 0, 0); stroke-opacity: 1;"/><path class="point" transform="translate(479.2,65.04)" d="M4,0A4,4 0 1,1 0,-4A4,4 0 0,1 4,0Z" style="opacity: 1; stroke-width: 1px; fill: rgb(108, 159, 51); fill-opacity: 1; stroke: rgb(0, 0, 0); stroke-opacity: 1;"/><path class="point" transform="translate(632.79,126.39)" d="M4,0A4,4 0 1,1 0,-4A4,4 0 0,1 4,0Z" style="opacity: 1; stroke-width: 1px; fill: rgb(108, 159, 51); fill-opacity: 1; stroke: rgb(0, 0, 0); stroke-opacity: 1;"/></g><g class="text"/></g><g class="trace scatter tracee168c2" style="stroke-miterlimit: 2; opacity: 1;"><g class="fills"/><g class="errorbars"/><g class="lines"><path class="js-line" d="M18.43,126.39L18.43,65.04L172.02,65.04L172.02,3.68L325.61,3.68L325.61,65.04L479.2,65.04L479.2,126.39L632.79,126.39" style="vector-effect: none; fill: none; stroke: rgb(0, 154, 250); stroke-opacity: 1; stroke-width: 1px; opacity: 1;"/></g><g class="points"/><g class="text"/></g></g></g></g><path class="xlines-above crisp" d="M43.24523184601925,155.04943132108485H695.4658792650918" style="fill: none; stroke-width: 1px; stroke: rgb(0, 0, 0); stroke-opacity: 1;"/><path class="ylines-above crisp" d="M43.74523184601925,24.478346456692904V154.54943132108485" style="fill: none; stroke-width: 1px; stroke: rgb(0, 0, 0); stroke-opacity: 1;"/><g class="overlines-above"/><g class="xaxislayer-above"><path class="xtick ticks crisp" d="M0,154.54943132108485v-5" transform="translate(62.67523184601925,0)" style="stroke: rgb(0, 0, 0); stroke-opacity: 1; stroke-width: 1px;"/><path class="xtick ticks crisp" d="M0,154.54943132108485v-5" transform="translate(216.26523184601928,0)" style="stroke: rgb(0, 0, 0); stroke-opacity: 1; stroke-width: 1px;"/><path class="xtick ticks crisp" d="M0,154.54943132108485v-5" transform="translate(369.85523184601925,0)" style="stroke: rgb(0, 0, 0); stroke-opacity: 1; stroke-width: 1px;"/><path class="xtick ticks crisp" d="M0,154.54943132108485v-5" transform="translate(523.4452318460193,0)" style="stroke: rgb(0, 0, 0); stroke-opacity: 1; stroke-width: 1px;"/><path class="xtick ticks crisp" d="M0,154.54943132108485v-5" transform="translate(677.0352318460192,0)" style="stroke: rgb(0, 0, 0); stroke-opacity: 1; stroke-width: 1px;"/><g class="xtick"><text text-anchor="middle" x="0" y="168.74943132108484" transform="translate(62.67523184601925,0)" style="font-family: sans-serif; font-size: 11px; fill: rgb(0, 0, 0); fill-opacity: 1; white-space: pre; opacity: 1;">1</text></g><g class="xtick"><text text-anchor="middle" x="0" y="168.74943132108484" style="font-family: sans-serif; font-size: 11px; fill: rgb(0, 0, 0); fill-opacity: 1; white-space: pre; opacity: 1;" transform="translate(216.26523184601928,0)">2</text></g><g class="xtick"><text text-anchor="middle" x="0" y="168.74943132108484" style="font-family: sans-serif; font-size: 11px; fill: rgb(0, 0, 0); fill-opacity: 1; white-space: pre; opacity: 1;" transform="translate(369.85523184601925,0)">3</text></g><g class="xtick"><text text-anchor="middle" x="0" y="168.74943132108484" style="font-family: sans-serif; font-size: 11px; fill: rgb(0, 0, 0); fill-opacity: 1; white-space: pre; opacity: 1;" transform="translate(523.4452318460193,0)">4</text></g><g class="xtick"><text text-anchor="middle" x="0" y="168.74943132108484" style="font-family: sans-serif; font-size: 11px; fill: rgb(0, 0, 0); fill-opacity: 1; white-space: pre; opacity: 1;" transform="translate(677.0352318460192,0)">5</text></g></g><g class="yaxislayer-above"><path class="ytick ticks crisp" d="M44.24523184601925,0h5" transform="translate(0,150.8683464566929)" style="stroke: rgb(0, 0, 0); stroke-opacity: 1; stroke-width: 1px;"/><path class="ytick ticks crisp" d="M44.24523184601925,0h5" transform="translate(0,120.1883464566929)" style="stroke: rgb(0, 0, 0); stroke-opacity: 1; stroke-width: 1px;"/><path class="ytick ticks crisp" d="M44.24523184601925,0h5" transform="translate(0,89.51834645669291)" style="stroke: rgb(0, 0, 0); stroke-opacity: 1; stroke-width: 1px;"/><path class="ytick ticks crisp" d="M44.24523184601925,0h5" transform="translate(0,58.8383464566929)" style="stroke: rgb(0, 0, 0); stroke-opacity: 1; stroke-width: 1px;"/><path class="ytick ticks crisp" d="M44.24523184601925,0h5" transform="translate(0,28.158346456692904)" style="stroke: rgb(0, 0, 0); stroke-opacity: 1; stroke-width: 1px;"/><g class="ytick"><text text-anchor="end" x="41.04523184601925" y="3.8499999999999996" transform="translate(0,150.8683464566929)" style="font-family: sans-serif; font-size: 11px; fill: rgb(0, 0, 0); fill-opacity: 1; white-space: pre; opacity: 1;">1.0</text></g><g class="ytick"><text text-anchor="end" x="41.04523184601925" y="3.8499999999999996" style="font-family: sans-serif; font-size: 11px; fill: rgb(0, 0, 0); fill-opacity: 1; white-space: pre; opacity: 1;" transform="translate(0,120.1883464566929)">1.5</text></g><g class="ytick"><text text-anchor="end" x="41.04523184601925" y="3.8499999999999996" style="font-family: sans-serif; font-size: 11px; fill: rgb(0, 0, 0); fill-opacity: 1; white-space: pre; opacity: 1;" transform="translate(0,89.51834645669291)">2.0</text></g><g class="ytick"><text text-anchor="end" x="41.04523184601925" y="3.8499999999999996" style="font-family: sans-serif; font-size: 11px; fill: rgb(0, 0, 0); fill-opacity: 1; white-space: pre; opacity: 1;" transform="translate(0,58.8383464566929)">2.5</text></g><g class="ytick"><text text-anchor="end" x="41.04523184601925" y="3.8499999999999996" style="font-family: sans-serif; font-size: 11px; fill: rgb(0, 0, 0); fill-opacity: 1; white-space: pre; opacity: 1;" transform="translate(0,28.158346456692904)">3.0</text></g></g><g class="overaxes-above"/></g><g class="subplot x2y2"><g class="layer-subplot"><g class="shapelayer"/><g class="imagelayer"/></g><g class="minor-gridlayer"><g class="x2"/><g class="y2"/></g><g class="gridlayer"><g class="x2"><path class="x2grid crisp" transform="translate(62.67523184601925,0)" d="M0,176.14501312335955v130.07108486439196" style="stroke: rgb(0, 0, 0); stroke-opacity: 0.1; stroke-width: 0.5px;"/><path class="x2grid crisp" transform="translate(216.26523184601928,0)" d="M0,176.14501312335955v130.07108486439196" style="stroke: rgb(0, 0, 0); stroke-opacity: 0.1; stroke-width: 0.5px;"/><path class="x2grid crisp" transform="translate(369.85523184601925,0)" d="M0,176.14501312335955v130.07108486439196" style="stroke: rgb(0, 0, 0); stroke-opacity: 0.1; stroke-width: 0.5px;"/><path class="x2grid crisp" transform="translate(523.4452318460193,0)" d="M0,176.14501312335955v130.07108486439196" style="stroke: rgb(0, 0, 0); stroke-opacity: 0.1; stroke-width: 0.5px;"/><path class="x2grid crisp" transform="translate(677.0352318460192,0)" d="M0,176.14501312335955v130.07108486439196" style="stroke: rgb(0, 0, 0); stroke-opacity: 0.1; stroke-width: 0.5px;"/></g><g class="y2"><path class="y2grid crisp" transform="translate(0,302.53501312335953)" d="M44.24523184601925,0h651.2206474190725" style="stroke: rgb(0, 0, 0); stroke-opacity: 0.1; stroke-width: 0.5px;"/><path class="y2grid crisp" transform="translate(0,271.8550131233595)" d="M44.24523184601925,0h651.2206474190725" style="stroke: rgb(0, 0, 0); stroke-opacity: 0.1; stroke-width: 0.5px;"/><path class="y2grid crisp" transform="translate(0,241.18501312335957)" d="M44.24523184601925,0h651.2206474190725" style="stroke: rgb(0, 0, 0); stroke-opacity: 0.1; stroke-width: 0.5px;"/><path class="y2grid crisp" transform="translate(0,210.50501312335956)" d="M44.24523184601925,0h651.2206474190725" style="stroke: rgb(0, 0, 0); stroke-opacity: 0.1; stroke-width: 0.5px;"/><path class="y2grid crisp" transform="translate(0,179.82501312335955)" d="M44.24523184601925,0h651.2206474190725" style="stroke: rgb(0, 0, 0); stroke-opacity: 0.1; stroke-width: 0.5px;"/></g></g><g class="zerolinelayer"/><g class="layer-between"><g class="shapelayer"/><g class="imagelayer"/></g><path class="xlines-below"/><path class="ylines-below"/><g class="overlines-below"/><g class="xaxislayer-below"/><g class="yaxislayer-below"/><g class="overaxes-below"/><g class="overplot"><g class="x2y2" transform="translate(44.24523184601925,176.14501312335955)" clip-path="url(#clip34695dx2y2plot)"><g class="scatterlayer mlayer"><g class="trace scatter trace53d56a" style="stroke-miterlimit: 2; opacity: 1;"><g class="fills"/><g class="errorbars"/><g class="lines"/><g class="points"><path class="point" transform="translate(18.43,126.39)" d="M4,0A4,4 0 1,1 0,-4A4,4 0 0,1 4,0Z" style="opacity: 1; stroke-width: 1px; fill: rgb(108, 159, 51); fill-opacity: 1; stroke: rgb(0, 0, 0); stroke-opacity: 1;"/><path class="point" transform="translate(172.02,65.04)" d="M4,0A4,4 0 1,1 0,-4A4,4 0 0,1 4,0Z" style="opacity: 1; stroke-width: 1px; fill: rgb(108, 159, 51); fill-opacity: 1; stroke: rgb(0, 0, 0); stroke-opacity: 1;"/><path class="point" transform="translate(325.61,3.68)" d="M4,0A4,4 0 1,1 0,-4A4,4 0 0,1 4,0Z" style="opacity: 1; stroke-width: 1px; fill: rgb(108, 159, 51); fill-opacity: 1; stroke: rgb(0, 0, 0); stroke-opacity: 1;"/><path class="point" transform="translate(479.2,65.04)" d="M4,0A4,4 0 1,1 0,-4A4,4 0 0,1 4,0Z" style="opacity: 1; stroke-width: 1px; fill: rgb(108, 159, 51); fill-opacity: 1; stroke: rgb(0, 0, 0); stroke-opacity: 1;"/><path class="point" transform="translate(632.79,126.39)" d="M4,0A4,4 0 1,1 0,-4A4,4 0 0,1 4,0Z" style="opacity: 1; stroke-width: 1px; fill: rgb(108, 159, 51); fill-opacity: 1; stroke: rgb(0, 0, 0); stroke-opacity: 1;"/></g><g class="text"/></g><g class="trace scatter traceeacdcc" style="stroke-miterlimit: 2; opacity: 1;"><g class="fills"/><g class="errorbars"/><g class="lines"><path class="js-line" d="M18.43,126.39L95.23,126.39L95.23,65.04L248.82,65.04L248.82,3.68L402.41,3.68L402.41,65.04L555.99,65.04L555.99,126.39L632.79,126.39" style="vector-effect: none; fill: none; stroke: rgb(0, 154, 250); stroke-opacity: 1; stroke-width: 1px; opacity: 1;"/></g><g class="points"/><g class="text"/></g></g></g></g><path class="xlines-above crisp" d="M43.24523184601925,306.7160979877515H695.4658792650918" style="fill: none; stroke-width: 1px; stroke: rgb(0, 0, 0); stroke-opacity: 1;"/><path class="ylines-above crisp" d="M43.74523184601925,176.14501312335955V306.2160979877515" style="fill: none; stroke-width: 1px; stroke: rgb(0, 0, 0); stroke-opacity: 1;"/><g class="overlines-above"/><g class="xaxislayer-above"><path class="x2tick ticks crisp" d="M0,306.2160979877515v-5" transform="translate(62.67523184601925,0)" style="stroke: rgb(0, 0, 0); stroke-opacity: 1; stroke-width: 1px;"/><path class="x2tick ticks crisp" d="M0,306.2160979877515v-5" transform="translate(216.26523184601928,0)" style="stroke: rgb(0, 0, 0); stroke-opacity: 1; stroke-width: 1px;"/><path class="x2tick ticks crisp" d="M0,306.2160979877515v-5" transform="translate(369.85523184601925,0)" style="stroke: rgb(0, 0, 0); stroke-opacity: 1; stroke-width: 1px;"/><path class="x2tick ticks crisp" d="M0,306.2160979877515v-5" transform="translate(523.4452318460193,0)" style="stroke: rgb(0, 0, 0); stroke-opacity: 1; stroke-width: 1px;"/><path class="x2tick ticks crisp" d="M0,306.2160979877515v-5" transform="translate(677.0352318460192,0)" style="stroke: rgb(0, 0, 0); stroke-opacity: 1; stroke-width: 1px;"/><g class="x2tick"><text text-anchor="middle" x="0" y="320.41609798775147" transform="translate(62.67523184601925,0)" style="font-family: sans-serif; font-size: 11px; fill: rgb(0, 0, 0); fill-opacity: 1; white-space: pre; opacity: 1;">1</text></g><g class="x2tick"><text text-anchor="middle" x="0" y="320.41609798775147" style="font-family: sans-serif; font-size: 11px; fill: rgb(0, 0, 0); fill-opacity: 1; white-space: pre; opacity: 1;" transform="translate(216.26523184601928,0)">2</text></g><g class="x2tick"><text text-anchor="middle" x="0" y="320.41609798775147" style="font-family: sans-serif; font-size: 11px; fill: rgb(0, 0, 0); fill-opacity: 1; white-space: pre; opacity: 1;" transform="translate(369.85523184601925,0)">3</text></g><g class="x2tick"><text text-anchor="middle" x="0" y="320.41609798775147" style="font-family: sans-serif; font-size: 11px; fill: rgb(0, 0, 0); fill-opacity: 1; white-space: pre; opacity: 1;" transform="translate(523.4452318460193,0)">4</text></g><g class="x2tick"><text text-anchor="middle" x="0" y="320.41609798775147" style="font-family: sans-serif; font-size: 11px; fill: rgb(0, 0, 0); fill-opacity: 1; white-space: pre; opacity: 1;" transform="translate(677.0352318460192,0)">5</text></g></g><g class="yaxislayer-above"><path class="y2tick ticks crisp" d="M44.24523184601925,0h5" transform="translate(0,302.53501312335953)" style="stroke: rgb(0, 0, 0); stroke-opacity: 1; stroke-width: 1px;"/><path class="y2tick ticks crisp" d="M44.24523184601925,0h5" transform="translate(0,271.8550131233595)" style="stroke: rgb(0, 0, 0); stroke-opacity: 1; stroke-width: 1px;"/><path class="y2tick ticks crisp" d="M44.24523184601925,0h5" transform="translate(0,241.18501312335957)" style="stroke: rgb(0, 0, 0); stroke-opacity: 1; stroke-width: 1px;"/><path class="y2tick ticks crisp" d="M44.24523184601925,0h5" transform="translate(0,210.50501312335956)" style="stroke: rgb(0, 0, 0); stroke-opacity: 1; stroke-width: 1px;"/><path class="y2tick ticks crisp" d="M44.24523184601925,0h5" transform="translate(0,179.82501312335955)" style="stroke: rgb(0, 0, 0); stroke-opacity: 1; stroke-width: 1px;"/><g class="y2tick"><text text-anchor="end" x="41.04523184601925" y="3.8499999999999996" transform="translate(0,302.53501312335953)" style="font-family: sans-serif; font-size: 11px; fill: rgb(0, 0, 0); fill-opacity: 1; white-space: pre; opacity: 1;">1.0</text></g><g class="y2tick"><text text-anchor="end" x="41.04523184601925" y="3.8499999999999996" style="font-family: sans-serif; font-size: 11px; fill: rgb(0, 0, 0); fill-opacity: 1; white-space: pre; opacity: 1;" transform="translate(0,271.8550131233595)">1.5</text></g><g class="y2tick"><text text-anchor="end" x="41.04523184601925" y="3.8499999999999996" style="font-family: sans-serif; font-size: 11px; fill: rgb(0, 0, 0); fill-opacity: 1; white-space: pre; opacity: 1;" transform="translate(0,241.18501312335957)">2.0</text></g><g class="y2tick"><text text-anchor="end" x="41.04523184601925" y="3.8499999999999996" style="font-family: sans-serif; font-size: 11px; fill: rgb(0, 0, 0); fill-opacity: 1; white-space: pre; opacity: 1;" transform="translate(0,210.50501312335956)">2.5</text></g><g class="y2tick"><text text-anchor="end" x="41.04523184601925" y="3.8499999999999996" style="font-family: sans-serif; font-size: 11px; fill: rgb(0, 0, 0); fill-opacity: 1; white-space: pre; opacity: 1;" transform="translate(0,179.82501312335955)">3.0</text></g></g><g class="overaxes-above"/></g><g class="subplot x3y3"><g class="layer-subplot"><g class="shapelayer"/><g class="imagelayer"/></g><g class="minor-gridlayer"><g class="x3"/><g class="y3"/></g><g class="gridlayer"><g class="x3"><path class="x3grid crisp" transform="translate(62.67523184601925,0)" d="M0,327.8116797900262v130.07108486439193" style="stroke: rgb(0, 0, 0); stroke-opacity: 0.1; stroke-width: 0.5px;"/><path class="x3grid crisp" transform="translate(216.26523184601928,0)" d="M0,327.8116797900262v130.07108486439193" style="stroke: rgb(0, 0, 0); stroke-opacity: 0.1; stroke-width: 0.5px;"/><path class="x3grid crisp" transform="translate(369.85523184601925,0)" d="M0,327.8116797900262v130.07108486439193" style="stroke: rgb(0, 0, 0); stroke-opacity: 0.1; stroke-width: 0.5px;"/><path class="x3grid crisp" transform="translate(523.4452318460193,0)" d="M0,327.8116797900262v130.07108486439193" style="stroke: rgb(0, 0, 0); stroke-opacity: 0.1; stroke-width: 0.5px;"/><path class="x3grid crisp" transform="translate(677.0352318460192,0)" d="M0,327.8116797900262v130.07108486439193" style="stroke: rgb(0, 0, 0); stroke-opacity: 0.1; stroke-width: 0.5px;"/></g><g class="y3"><path class="y3grid crisp" transform="translate(0,454.20167979002616)" d="M44.24523184601925,0h651.2206474190725" style="stroke: rgb(0, 0, 0); stroke-opacity: 0.1; stroke-width: 0.5px;"/><path class="y3grid crisp" transform="translate(0,423.52167979002616)" d="M44.24523184601925,0h651.2206474190725" style="stroke: rgb(0, 0, 0); stroke-opacity: 0.1; stroke-width: 0.5px;"/><path class="y3grid crisp" transform="translate(0,392.8516797900262)" d="M44.24523184601925,0h651.2206474190725" style="stroke: rgb(0, 0, 0); stroke-opacity: 0.1; stroke-width: 0.5px;"/><path class="y3grid crisp" transform="translate(0,362.1716797900262)" d="M44.24523184601925,0h651.2206474190725" style="stroke: rgb(0, 0, 0); stroke-opacity: 0.1; stroke-width: 0.5px;"/><path class="y3grid crisp" transform="translate(0,331.4916797900262)" d="M44.24523184601925,0h651.2206474190725" style="stroke: rgb(0, 0, 0); stroke-opacity: 0.1; stroke-width: 0.5px;"/></g></g><g class="zerolinelayer"/><g class="layer-between"><g class="shapelayer"/><g class="imagelayer"/></g><path class="xlines-below"/><path class="ylines-below"/><g class="overlines-below"/><g class="xaxislayer-below"/><g class="yaxislayer-below"/><g class="overaxes-below"/><g class="overplot"><g class="x3y3" transform="translate(44.24523184601925,327.8116797900262)" clip-path="url(#clip34695dx3y3plot)"><g class="scatterlayer mlayer"><g class="trace scatter traceb6c2a6" style="stroke-miterlimit: 2; opacity: 1;"><g class="fills"/><g class="errorbars"/><g class="lines"/><g class="points"><path class="point" transform="translate(18.43,126.39)" d="M4,0A4,4 0 1,1 0,-4A4,4 0 0,1 4,0Z" style="opacity: 1; stroke-width: 1px; fill: rgb(108, 159, 51); fill-opacity: 1; stroke: rgb(0, 0, 0); stroke-opacity: 1;"/><path class="point" transform="translate(172.02,65.04)" d="M4,0A4,4 0 1,1 0,-4A4,4 0 0,1 4,0Z" style="opacity: 1; stroke-width: 1px; fill: rgb(108, 159, 51); fill-opacity: 1; stroke: rgb(0, 0, 0); stroke-opacity: 1;"/><path class="point" transform="translate(325.61,3.68)" d="M4,0A4,4 0 1,1 0,-4A4,4 0 0,1 4,0Z" style="opacity: 1; stroke-width: 1px; fill: rgb(108, 159, 51); fill-opacity: 1; stroke: rgb(0, 0, 0); stroke-opacity: 1;"/><path class="point" transform="translate(479.2,65.04)" d="M4,0A4,4 0 1,1 0,-4A4,4 0 0,1 4,0Z" style="opacity: 1; stroke-width: 1px; fill: rgb(108, 159, 51); fill-opacity: 1; stroke: rgb(0, 0, 0); stroke-opacity: 1;"/><path class="point" transform="translate(632.79,126.39)" d="M4,0A4,4 0 1,1 0,-4A4,4 0 0,1 4,0Z" style="opacity: 1; stroke-width: 1px; fill: rgb(108, 159, 51); fill-opacity: 1; stroke: rgb(0, 0, 0); stroke-opacity: 1;"/></g><g class="text"/></g><g class="trace scatter trace65cd25" style="stroke-miterlimit: 2; opacity: 1;"><g class="fills"/><g class="errorbars"/><g class="lines"><path class="js-line" d="M18.43,126.39L172.02,126.39L172.02,65.04L325.61,65.04L325.61,3.68L479.2,3.68L479.2,65.04L632.79,65.04L632.79,126.39" style="vector-effect: none; fill: none; stroke: rgb(0, 154, 250); stroke-opacity: 1; stroke-width: 1px; opacity: 1;"/></g><g class="points"/><g class="text"/></g></g></g></g><path class="xlines-above crisp" d="M43.24523184601925,458.3827646544181H695.4658792650918" style="fill: none; stroke-width: 1px; stroke: rgb(0, 0, 0); stroke-opacity: 1;"/><path class="ylines-above crisp" d="M43.74523184601925,327.8116797900262V457.8827646544181" style="fill: none; stroke-width: 1px; stroke: rgb(0, 0, 0); stroke-opacity: 1;"/><g class="overlines-above"/><g class="xaxislayer-above"><path class="x3tick ticks crisp" d="M0,457.8827646544181v-5" transform="translate(62.67523184601925,0)" style="stroke: rgb(0, 0, 0); stroke-opacity: 1; stroke-width: 1px;"/><path class="x3tick ticks crisp" d="M0,457.8827646544181v-5" transform="translate(216.26523184601928,0)" style="stroke: rgb(0, 0, 0); stroke-opacity: 1; stroke-width: 1px;"/><path class="x3tick ticks crisp" d="M0,457.8827646544181v-5" transform="translate(369.85523184601925,0)" style="stroke: rgb(0, 0, 0); stroke-opacity: 1; stroke-width: 1px;"/><path class="x3tick ticks crisp" d="M0,457.8827646544181v-5" transform="translate(523.4452318460193,0)" style="stroke: rgb(0, 0, 0); stroke-opacity: 1; stroke-width: 1px;"/><path class="x3tick ticks crisp" d="M0,457.8827646544181v-5" transform="translate(677.0352318460192,0)" style="stroke: rgb(0, 0, 0); stroke-opacity: 1; stroke-width: 1px;"/><g class="x3tick"><text text-anchor="middle" x="0" y="472.0827646544181" transform="translate(62.67523184601925,0)" style="font-family: sans-serif; font-size: 11px; fill: rgb(0, 0, 0); fill-opacity: 1; white-space: pre; opacity: 1;">1</text></g><g class="x3tick"><text text-anchor="middle" x="0" y="472.0827646544181" style="font-family: sans-serif; font-size: 11px; fill: rgb(0, 0, 0); fill-opacity: 1; white-space: pre; opacity: 1;" transform="translate(216.26523184601928,0)">2</text></g><g class="x3tick"><text text-anchor="middle" x="0" y="472.0827646544181" style="font-family: sans-serif; font-size: 11px; fill: rgb(0, 0, 0); fill-opacity: 1; white-space: pre; opacity: 1;" transform="translate(369.85523184601925,0)">3</text></g><g class="x3tick"><text text-anchor="middle" x="0" y="472.0827646544181" style="font-family: sans-serif; font-size: 11px; fill: rgb(0, 0, 0); fill-opacity: 1; white-space: pre; opacity: 1;" transform="translate(523.4452318460193,0)">4</text></g><g class="x3tick"><text text-anchor="middle" x="0" y="472.0827646544181" style="font-family: sans-serif; font-size: 11px; fill: rgb(0, 0, 0); fill-opacity: 1; white-space: pre; opacity: 1;" transform="translate(677.0352318460192,0)">5</text></g></g><g class="yaxislayer-above"><path class="y3tick ticks crisp" d="M44.24523184601925,0h5" transform="translate(0,454.20167979002616)" style="stroke: rgb(0, 0, 0); stroke-opacity: 1; stroke-width: 1px;"/><path class="y3tick ticks crisp" d="M44.24523184601925,0h5" transform="translate(0,423.52167979002616)" style="stroke: rgb(0, 0, 0); stroke-opacity: 1; stroke-width: 1px;"/><path class="y3tick ticks crisp" d="M44.24523184601925,0h5" transform="translate(0,392.8516797900262)" style="stroke: rgb(0, 0, 0); stroke-opacity: 1; stroke-width: 1px;"/><path class="y3tick ticks crisp" d="M44.24523184601925,0h5" transform="translate(0,362.1716797900262)" style="stroke: rgb(0, 0, 0); stroke-opacity: 1; stroke-width: 1px;"/><path class="y3tick ticks crisp" d="M44.24523184601925,0h5" transform="translate(0,331.4916797900262)" style="stroke: rgb(0, 0, 0); stroke-opacity: 1; stroke-width: 1px;"/><g class="y3tick"><text text-anchor="end" x="41.04523184601925" y="3.8499999999999996" transform="translate(0,454.20167979002616)" style="font-family: sans-serif; font-size: 11px; fill: rgb(0, 0, 0); fill-opacity: 1; white-space: pre; opacity: 1;">1.0</text></g><g class="y3tick"><text text-anchor="end" x="41.04523184601925" y="3.8499999999999996" style="font-family: sans-serif; font-size: 11px; fill: rgb(0, 0, 0); fill-opacity: 1; white-space: pre; opacity: 1;" transform="translate(0,423.52167979002616)">1.5</text></g><g class="y3tick"><text text-anchor="end" x="41.04523184601925" y="3.8499999999999996" style="font-family: sans-serif; font-size: 11px; fill: rgb(0, 0, 0); fill-opacity: 1; white-space: pre; opacity: 1;" transform="translate(0,392.8516797900262)">2.0</text></g><g class="y3tick"><text text-anchor="end" x="41.04523184601925" y="3.8499999999999996" style="font-family: sans-serif; font-size: 11px; fill: rgb(0, 0, 0); fill-opacity: 1; white-space: pre; opacity: 1;" transform="translate(0,362.1716797900262)">2.5</text></g><g class="y3tick"><text text-anchor="end" x="41.04523184601925" y="3.8499999999999996" style="font-family: sans-serif; font-size: 11px; fill: rgb(0, 0, 0); fill-opacity: 1; white-space: pre; opacity: 1;" transform="translate(0,331.4916797900262)">3.0</text></g></g><g class="overaxes-above"/></g></g><g class="polarlayer"/><g class="smithlayer"/><g class="ternarylayer"/><g class="geolayer"/><g class="funnelarealayer"/><g class="pielayer"/><g class="iciclelayer"/><g class="treemaplayer"/><g class="sunburstlayer"/><g class="glimages"/><defs id="topdefs-34695d"><g class="clips"/><clipPath id="legend34695d"><rect width="87" height="67" x="1" y="1"/></clipPath></defs><g class="layer-above"><g class="imagelayer"/><g class="shapelayer"/></g><g class="infolayer"><g class="legend" pointer-events="all" transform="translate(611,20)"><rect class="bg" shape-rendering="crispEdges" style="stroke: rgb(0, 0, 0); stroke-opacity: 1; fill: rgb(255, 255, 255); fill-opacity: 1; stroke-width: 1px;" width="88" height="68" x="0.5" y="0.5"/><g class="scrollbox" transform="" clip-path="url(#legend34695d)"><g class="groups"><g class="traces" transform="translate(1,15.5)" style="opacity: 1;"><text class="legendtext" text-anchor="start" x="40" y="4.29" style="font-family: sans-serif; font-size: 11px; fill: rgb(0, 0, 0); fill-opacity: 1; white-space: pre;">steppre</text><g class="layers" style="opacity: 1;"><g class="legendfill"/><g class="legendlines"><path class="js-line" d="M5,0h30" style="fill: none; stroke: rgb(0, 154, 250); stroke-opacity: 1; stroke-width: 1px;"/></g><g class="legendsymbols"><g class="legendpoints"/></g></g><rect class="legendtoggle" x="0" y="-9.5" width="81.59375" height="19" style="fill: rgb(0, 0, 0); fill-opacity: 0;"/></g><g class="traces" transform="translate(1,34.5)" style="opacity: 1;"><text class="legendtext" text-anchor="start" x="40" y="4.29" style="font-family: sans-serif; font-size: 11px; fill: rgb(0, 0, 0); fill-opacity: 1; white-space: pre;">stepmid</text><g class="layers" style="opacity: 1;"><g class="legendfill"/><g class="legendlines"><path class="js-line" d="M5,0h30" style="fill: none; stroke: rgb(0, 154, 250); stroke-opacity: 1; stroke-width: 1px;"/></g><g class="legendsymbols"><g class="legendpoints"/></g></g><rect class="legendtoggle" x="0" y="-9.5" width="81.59375" height="19" style="fill: rgb(0, 0, 0); fill-opacity: 0;"/></g><g class="traces" transform="translate(1,53.5)" style="opacity: 1;"><text class="legendtext" text-anchor="start" x="40" y="4.29" style="font-family: sans-serif; font-size: 11px; fill: rgb(0, 0, 0); fill-opacity: 1; white-space: pre;">steppost</text><g class="layers" style="opacity: 1;"><g class="legendfill"/><g class="legendlines"><path class="js-line" d="M5,0h30" style="fill: none; stroke: rgb(0, 154, 250); stroke-opacity: 1; stroke-width: 1px;"/></g><g class="legendsymbols"><g class="legendpoints"/></g></g><rect class="legendtoggle" x="0" y="-9.5" width="81.59375" height="19" style="fill: rgb(0, 0, 0); fill-opacity: 0;"/></g></g></g><rect class="scrollbar" rx="20" ry="3" width="0" height="0" style="fill: rgb(128, 139, 164); fill-opacity: 1;" x="0" y="0"/></g><g class="g-gtitle"/><g class="g-xtitle"/><g class="g-x2title"/><g class="g-x3title"/><g class="g-ytitle"/><g class="g-y2title"/><g class="g-y3title"/></g></svg>