<svg class="main-svg" xmlns="http://www.w3.org/2000/svg" xmlns:xlink="http://www.w3.org/1999/xlink" width="700" height="500" style="" viewBox="0 0 700 500"><rect x="0" y="0" width="700" height="500" style="fill: rgb(255, 255, 255); fill-opacity: 1;"/><defs id="defs-3ea62d"><g class="clips"><clipPath id="clip3ea62dxyplot" class="plotclip"><rect width="207.6687080781569" height="184.99814085739285"/></clipPath><clipPath id="clip3ea62dx2y2plot" class="plotclip"><rect width="207.66870807815693" height="184.99814085739285"/></clipPath><clipPath id="clip3ea62dx3y3plot" class="plotclip"><rect width="207.6687080781569" height="184.99814085739285"/></clipPath><clipPath id="clip3ea62dx4y4plot" class="plotclip"><rect width="207.6687080781569" height="184.99814085739283"/></clipPath><clipPath id="clip3ea62dx5y5plot" class="plotclip"><rect width="207.66870807815693" height="184.99814085739283"/></clipPath><clipPath id="clip3ea62dx6y6plot" class="plotclip"><rect width="207.6687080781569" height="184.99814085739283"/></clipPath><clipPath class="axesclip" id="clip3ea62dx"><rect x="34.53601633129192" y="0" width="207.6687080781569" height="500"/></clipPath><clipPath class="axesclip" id="clip3ea62dy"><rect x="0" y="46.77176290463694" width="700" height="184.99814085739285"/></clipPath><clipPath class="axesclip" id="clip3ea62dxy"><rect x="34.53601633129192" y="46.77176290463694" width="207.6687080781569" height="184.99814085739285"/></clipPath><clipPath class="axesclip" id="clip3ea62dy2"><rect x="0" y="46.77176290463694" width="700" height="184.99814085739285"/></clipPath><clipPath class="axesclip" id="clip3ea62dxy2"><rect x="34.53601633129192" y="46.77176290463694" width="207.6687080781569" height="184.99814085739285"/></clipPath><clipPath class="axesclip" id="clip3ea62dy3"><rect x="0" y="46.77176290463694" width="700" height="184.99814085739285"/></clipPath><clipPath class="axesclip" id="clip3ea62dxy3"><rect x="34.53601633129192" y="46.77176290463694" width="207.6687080781569" height="184.99814085739285"/></clipPath><clipPath class="axesclip" id="clip3ea62dy4"><rect x="0" y="275.77176290463694" width="700" height="184.99814085739283"/></clipPath><clipPath class="axesclip" id="clip3ea62dxy4"><rect x="34.53601633129192" y="275.77176290463694" width="207.6687080781569" height="184.99814085739283"/></clipPath><clipPath class="axesclip" id="clip3ea62dy5"><rect x="0" y="275.77176290463694" width="700" height="184.99814085739283"/></clipPath><clipPath class="axesclip" id="clip3ea62dxy5"><rect x="34.53601633129192" y="275.77176290463694" width="207.6687080781569" height="184.99814085739283"/></clipPath><clipPath class="axesclip" id="clip3ea62dy6"><rect x="0" y="275.77176290463694" width="700" height="184.99814085739283"/></clipPath><clipPath class="axesclip" id="clip3ea62dxy6"><rect x="34.53601633129192" y="275.77176290463694" width="207.6687080781569" height="184.99814085739283"/></clipPath><clipPath class="axesclip" id="clip3ea62dx2"><rect x="261.20268299795856" y="0" width="207.66870807815693" height="500"/></clipPath><clipPath class="axesclip" id="clip3ea62dx2y"><rect x="261.20268299795856" y="46.77176290463694" width="207.66870807815693" height="184.99814085739285"/></clipPath><clipPath class="axesclip" id="clip3ea62dx2y2"><rect x="261.20268299795856" y="46.77176290463694" width="207.66870807815693" height="184.99814085739285"/></clipPath><clipPath class="axesclip" id="clip3ea62dx2y3"><rect x="261.20268299795856" y="46.77176290463694" width="207.66870807815693" height="184.99814085739285"/></clipPath><clipPath class="axesclip" id="clip3ea62dx2y4"><rect x="261.20268299795856" y="275.77176290463694" width="207.66870807815693" height="184.99814085739283"/></clipPath><clipPath class="axesclip" id="clip3ea62dx2y5"><rect x="261.20268299795856" y="275.77176290463694" width="207.66870807815693" height="184.99814085739283"/></clipPath><clipPath class="axesclip" id="clip3ea62dx2y6"><rect x="261.20268299795856" y="275.77176290463694" width="207.66870807815693" height="184.99814085739283"/></clipPath><clipPath class="axesclip" id="clip3ea62dx3"><rect x="487.8693496646252" y="0" width="207.6687080781569" height="500"/></clipPath><clipPath class="axesclip" id="clip3ea62dx3y"><rect x="487.8693496646252" y="46.77176290463694" width="207.6687080781569" height="184.99814085739285"/></clipPath><clipPath class="axesclip" id="clip3ea62dx3y2"><rect x="487.8693496646252" y="46.77176290463694" width="207.6687080781569" height="184.99814085739285"/></clipPath><clipPath class="axesclip" id="clip3ea62dx3y3"><rect x="487.8693496646252" y="46.77176290463694" width="207.6687080781569" height="184.99814085739285"/></clipPath><clipPath class="axesclip" id="clip3ea62dx3y4"><rect x="487.8693496646252" y="275.77176290463694" width="207.6687080781569" height="184.99814085739283"/></clipPath><clipPath class="axesclip" id="clip3ea62dx3y5"><rect x="487.8693496646252" y="275.77176290463694" width="207.6687080781569" height="184.99814085739283"/></clipPath><clipPath class="axesclip" id="clip3ea62dx3y6"><rect x="487.8693496646252" y="275.77176290463694" width="207.6687080781569" height="184.99814085739283"/></clipPath><clipPath class="axesclip" id="clip3ea62dx4"><rect x="34.53601633129192" y="0" width="207.6687080781569" height="500"/></clipPath><clipPath class="axesclip" id="clip3ea62dx4y"><rect x="34.53601633129192" y="46.77176290463694" width="207.6687080781569" height="184.99814085739285"/></clipPath><clipPath class="axesclip" id="clip3ea62dx4y2"><rect x="34.53601633129192" y="46.77176290463694" width="207.6687080781569" height="184.99814085739285"/></clipPath><clipPath class="axesclip" id="clip3ea62dx4y3"><rect x="34.53601633129192" y="46.77176290463694" width="207.6687080781569" height="184.99814085739285"/></clipPath><clipPath class="axesclip" id="clip3ea62dx4y4"><rect x="34.53601633129192" y="275.77176290463694" width="207.6687080781569" height="184.99814085739283"/></clipPath><clipPath class="axesclip" id="clip3ea62dx4y5"><rect x="34.53601633129192" y="275.77176290463694" width="207.6687080781569" height="184.99814085739283"/></clipPath><clipPath class="axesclip" id="clip3ea62dx4y6"><rect x="34.53601633129192" y="275.77176290463694" width="207.6687080781569" height="184.99814085739283"/></clipPath><clipPath class="axesclip" id="clip3ea62dx5"><rect x="261.20268299795856" y="0" width="207.66870807815693" height="500"/></clipPath><clipPath class="axesclip" id="clip3ea62dx5y"><rect x="261.20268299795856" y="46.77176290463694" width="207.66870807815693" height="184.99814085739285"/></clipPath><clipPath class="axesclip" id="clip3ea62dx5y2"><rect x="261.20268299795856" y="46.77176290463694" width="207.66870807815693" height="184.99814085739285"/></clipPath><clipPath class="axesclip" id="clip3ea62dx5y3"><rect x="261.20268299795856" y="46.77176290463694" width="207.66870807815693" height="184.99814085739285"/></clipPath><clipPath class="axesclip" id="clip3ea62dx5y4"><rect x="261.20268299795856" y="275.77176290463694" width="207.66870807815693" height="184.99814085739283"/></clipPath><clipPath class="axesclip" id="clip3ea62dx5y5"><rect x="261.20268299795856" y="275.77176290463694" width="207.66870807815693" height="184.99814085739283"/></clipPath><clipPath class="axesclip" id="clip3ea62dx5y6"><rect x="261.20268299795856" y="275.77176290463694" width="207.66870807815693" height="184.99814085739283"/></clipPath><clipPath class="axesclip" id="clip3ea62dx6"><rect x="487.8693496646252" y="0" width="207.6687080781569" height="500"/></clipPath><clipPath class="axesclip" id="clip3ea62dx6y"><rect x="487.8693496646252" y="46.77176290463694" width="207.6687080781569" height="184.99814085739285"/></clipPath><clipPath class="axesclip" id="clip3ea62dx6y2"><rect x="487.8693496646252" y="46.77176290463694" width="207.6687080781569" height="184.99814085739285"/></clipPath><clipPath class="axesclip" id="clip3ea62dx6y3"><rect x="487.8693496646252" y="46.77176290463694" width="207.6687080781569" height="184.99814085739285"/></clipPath><clipPath class="axesclip" id="clip3ea62dx6y4"><rect x="487.8693496646252" y="275.77176290463694" width="207.6687080781569" height="184.99814085739283"/></clipPath><clipPath class="axesclip" id="clip3ea62dx6y5"><rect x="487.8693496646252" y="275.77176290463694" width="207.6687080781569" height="184.99814085739283"/></clipPath><clipPath class="axesclip" id="clip3ea62dx6y6"><rect x="487.8693496646252" y="275.77176290463694" width="207.6687080781569" height="184.99814085739283"/></clipPath></g><g class="gradients"/><g class="patterns"/></defs><g class="bglayer"/><g class="layer-below"><g class="imagelayer"/><g class="shapelayer"/></g><g class="cartesianlayer"><g class="subplot xy"><g class="layer-subplot"><g class="shapelayer"/><g class="imagelayer"/></g><g class="minor-gridlayer"><g class="x"/><g class="y"/></g><g class="gridlayer"><g class="x"><path class="xgrid crisp" transform="translate(103.62601633129192,0)" d="M0,46.77176290463694v184.99814085739285" style="stroke: rgb(0, 0, 0); stroke-opacity: 0.1; stroke-width: 0.5px;"/><path class="xgrid crisp" transform="translate(173.28601633129193,0)" d="M0,46.77176290463694v184.99814085739285" style="stroke: rgb(0, 0, 0); stroke-opacity: 0.1; stroke-width: 0.5px;"/></g><g class="y"><path class="ygrid crisp" transform="translate(0,166.34176290463694)" d="M34.53601633129192,0h207.6687080781569" style="stroke: rgb(0, 0, 0); stroke-opacity: 0.1; stroke-width: 0.5px;"/><path class="ygrid crisp" transform="translate(0,97.95176290463694)" d="M34.53601633129192,0h207.6687080781569" style="stroke: rgb(0, 0, 0); stroke-opacity: 0.1; stroke-width: 0.5px;"/></g></g><g class="zerolinelayer"/><g class="layer-between"><g class="shapelayer"/><g class="imagelayer"/></g><path class="xlines-below"/><path class="ylines-below"/><g class="overlines-below"/><g class="xaxislayer-below"/><g class="yaxislayer-below"/><g class="overaxes-below"/><g class="overplot"><g class="xy" transform="translate(34.53601633129192,46.77176290463694)" clip-path="url(#clip3ea62dxyplot)"><g class="scatterlayer mlayer"><g class="trace scatter tracebaccca" style="stroke-miterlimit: 2; opacity: 1;"><g class="fills"/><g class="errorbars"/><g class="lines"/><g class="points"><path class="point" transform="translate(174.93,179.76)" d="M4,0A4,4 0 1,1 0,-4A4,4 0 0,1 4,0Z" style="opacity: 1; stroke-width: 0px; fill: rgb(0, 154, 250); fill-opacity: 1;"/><path class="point" transform="translate(201.79,5.24)" d="M4,0A4,4 0 1,1 0,-4A4,4 0 0,1 4,0Z" style="opacity: 1; stroke-width: 0px; fill: rgb(0, 154, 250); fill-opacity: 1;"/><path class="point" transform="translate(22.03,129.52)" d="M4,0A4,4 0 1,1 0,-4A4,4 0 0,1 4,0Z" style="opacity: 1; stroke-width: 0px; fill: rgb(0, 154, 250); fill-opacity: 1;"/><path class="point" transform="translate(48.57,147.45)" d="M4,0A4,4 0 1,1 0,-4A4,4 0 0,1 4,0Z" style="opacity: 1; stroke-width: 0px; fill: rgb(0, 154, 250); fill-opacity: 1;"/><path class="point" transform="translate(91.08,83.03)" d="M4,0A4,4 0 1,1 0,-4A4,4 0 0,1 4,0Z" style="opacity: 1; stroke-width: 0px; fill: rgb(0, 154, 250); fill-opacity: 1;"/><path class="point" transform="translate(90.95,174.74)" d="M4,0A4,4 0 1,1 0,-4A4,4 0 0,1 4,0Z" style="opacity: 1; stroke-width: 0px; fill: rgb(0, 154, 250); fill-opacity: 1;"/><path class="point" transform="translate(145.17,90.78)" d="M4,0A4,4 0 1,1 0,-4A4,4 0 0,1 4,0Z" style="opacity: 1; stroke-width: 0px; fill: rgb(0, 154, 250); fill-opacity: 1;"/><path class="point" transform="translate(132.5,73.51)" d="M4,0A4,4 0 1,1 0,-4A4,4 0 0,1 4,0Z" style="opacity: 1; stroke-width: 0px; fill: rgb(0, 154, 250); fill-opacity: 1;"/><path class="point" transform="translate(37.6,123.71)" d="M4,0A4,4 0 1,1 0,-4A4,4 0 0,1 4,0Z" style="opacity: 1; stroke-width: 0px; fill: rgb(0, 154, 250); fill-opacity: 1;"/><path class="point" transform="translate(5.88,115.96)" d="M4,0A4,4 0 1,1 0,-4A4,4 0 0,1 4,0Z" style="opacity: 1; stroke-width: 0px; fill: rgb(0, 154, 250); fill-opacity: 1;"/></g><g class="text"/></g></g></g></g><path class="xlines-above crisp" d="M33.53601633129192,232.2699037620298H243.20472440944883M33.53601633129192,46.27176290463694H243.20472440944883" style="fill: none; stroke-width: 1px; stroke: rgb(0, 0, 0); stroke-opacity: 1;"/><path class="ylines-above crisp" d="M34.03601633129192,46.77176290463694V231.7699037620298M242.70472440944883,46.77176290463694V231.7699037620298" style="fill: none; stroke-width: 1px; stroke: rgb(0, 0, 0); stroke-opacity: 1;"/><g class="overlines-above"/><g class="xaxislayer-above"><path class="xtick ticks crisp" d="M0,231.7699037620298v-5" transform="translate(103.62601633129192,0)" style="stroke: rgb(0, 0, 0); stroke-opacity: 1; stroke-width: 1px;"/><path class="xtick ticks crisp" d="M0,231.7699037620298v-5" transform="translate(173.28601633129193,0)" style="stroke: rgb(0, 0, 0); stroke-opacity: 1; stroke-width: 1px;"/><g class="xtick"><text text-anchor="middle" x="0" y="245.9699037620298" transform="translate(103.62601633129192,0)" style="font-family: sans-serif; font-size: 11px; fill: rgb(0, 0, 0); fill-opacity: 1; white-space: pre; opacity: 1;">-1</text></g><g class="xtick"><text text-anchor="middle" x="0" y="245.9699037620298" style="font-family: sans-serif; font-size: 11px; fill: rgb(0, 0, 0); fill-opacity: 1; white-space: pre; opacity: 1;" transform="translate(173.28601633129193,0)">0</text></g></g><g class="yaxislayer-above"><path class="ytick ticks crisp" d="M34.53601633129192,0h5" transform="translate(0,166.34176290463694)" style="stroke: rgb(0, 0, 0); stroke-opacity: 1; stroke-width: 1px;"/><path class="ytick ticks crisp" d="M34.53601633129192,0h5" transform="translate(0,97.95176290463694)" style="stroke: rgb(0, 0, 0); stroke-opacity: 1; stroke-width: 1px;"/><g class="ytick"><text text-anchor="end" x="31.33601633129192" y="3.8499999999999996" transform="translate(0,166.34176290463694)" style="font-family: sans-serif; font-size: 11px; fill: rgb(0, 0, 0); fill-opacity: 1; white-space: pre; opacity: 1;">0</text></g><g class="ytick"><text text-anchor="end" x="31.33601633129192" y="3.8499999999999996" style="font-family: sans-serif; font-size: 11px; fill: rgb(0, 0, 0); fill-opacity: 1; white-space: pre; opacity: 1;" transform="translate(0,97.95176290463694)">1</text></g></g><g class="overaxes-above"/></g><g class="subplot x2y2"><g class="layer-subplot"><g class="shapelayer"/><g class="imagelayer"/></g><g class="minor-gridlayer"><g class="x2"/><g class="y2"/></g><g class="gridlayer"><g class="x2"><path class="x2grid crisp" transform="translate(330.29268299795854,0)" d="M0,46.77176290463694v184.99814085739285" style="stroke: rgb(0, 0, 0); stroke-opacity: 0.1; stroke-width: 0.5px;"/><path class="x2grid crisp" transform="translate(399.95268299795856,0)" d="M0,46.77176290463694v184.99814085739285" style="stroke: rgb(0, 0, 0); stroke-opacity: 0.1; stroke-width: 0.5px;"/></g><g class="y2"><path class="y2grid crisp" transform="translate(0,166.34176290463694)" d="M261.20268299795856,0h207.66870807815693" style="stroke: rgb(0, 0, 0); stroke-opacity: 0.1; stroke-width: 0.5px;"/><path class="y2grid crisp" transform="translate(0,97.95176290463694)" d="M261.20268299795856,0h207.66870807815693" style="stroke: rgb(0, 0, 0); stroke-opacity: 0.1; stroke-width: 0.5px;"/></g></g><g class="zerolinelayer"/><g class="layer-between"><g class="shapelayer"/><g class="imagelayer"/></g><path class="xlines-below"/><path class="ylines-below"/><g class="overlines-below"/><g class="xaxislayer-below"/><g class="yaxislayer-below"/><g class="overaxes-below"/><g class="overplot"><g class="x2y2" transform="translate(261.20268299795856,46.77176290463694)" clip-path="url(#clip3ea62dx2y2plot)"><g class="scatterlayer mlayer"><g class="trace scatter traced39eab" style="stroke-miterlimit: 2; opacity: 1;"><g class="fills"/><g class="errorbars"/><g class="lines"/><g class="points"><path class="point" transform="translate(174.93,179.76)" d="M4,0A4,4 0 1,1 0,-4A4,4 0 0,1 4,0Z" style="opacity: 1; stroke-width: 0px; fill: rgb(227, 111, 71); fill-opacity: 1;"/><path class="point" transform="translate(201.79,5.24)" d="M4,0A4,4 0 1,1 0,-4A4,4 0 0,1 4,0Z" style="opacity: 1; stroke-width: 0px; fill: rgb(227, 111, 71); fill-opacity: 1;"/><path class="point" transform="translate(22.03,129.52)" d="M4,0A4,4 0 1,1 0,-4A4,4 0 0,1 4,0Z" style="opacity: 1; stroke-width: 0px; fill: rgb(227, 111, 71); fill-opacity: 1;"/><path class="point" transform="translate(48.57,147.45)" d="M4,0A4,4 0 1,1 0,-4A4,4 0 0,1 4,0Z" style="opacity: 1; stroke-width: 0px; fill: rgb(227, 111, 71); fill-opacity: 1;"/><path class="point" transform="translate(91.08,83.03)" d="M4,0A4,4 0 1,1 0,-4A4,4 0 0,1 4,0Z" style="opacity: 1; stroke-width: 0px; fill: rgb(227, 111, 71); fill-opacity: 1;"/><path class="point" transform="translate(90.95,174.74)" d="M4,0A4,4 0 1,1 0,-4A4,4 0 0,1 4,0Z" style="opacity: 1; stroke-width: 0px; fill: rgb(227, 111, 71); fill-opacity: 1;"/><path class="point" transform="translate(145.17,90.78)" d="M4,0A4,4 0 1,1 0,-4A4,4 0 0,1 4,0Z" style="opacity: 1; stroke-width: 0px; fill: rgb(227, 111, 71); fill-opacity: 1;"/><path class="point" transform="translate(132.5,73.51)" d="M4,0A4,4 0 1,1 0,-4A4,4 0 0,1 4,0Z" style="opacity: 1; stroke-width: 0px; fill: rgb(227, 111, 71); fill-opacity: 1;"/><path class="point" transform="translate(37.6,123.71)" d="M4,0A4,4 0 1,1 0,-4A4,4 0 0,1 4,0Z" style="opacity: 1; stroke-width: 0px; fill: rgb(227, 111, 71); fill-opacity: 1;"/><path class="point" transform="translate(5.88,115.96)" d="M4,0A4,4 0 1,1 0,-4A4,4 0 0,1 4,0Z" style="opacity: 1; stroke-width: 0px; fill: rgb(227, 111, 71); fill-opacity: 1;"/></g><g class="text"/></g></g></g></g><path class="xlines-above crisp" d="M260.20268299795856,232.2699037620298H469.8713910761155M260.20268299795856,46.27176290463694H469.8713910761155" style="fill: none; stroke-width: 1px; stroke: rgb(0, 0, 0); stroke-opacity: 1;"/><path class="ylines-above crisp" d="M260.70268299795856,46.77176290463694V231.7699037620298M469.3713910761155,46.77176290463694V231.7699037620298" style="fill: none; stroke-width: 1px; stroke: rgb(0, 0, 0); stroke-opacity: 1;"/><g class="overlines-above"/><g class="xaxislayer-above"><path class="x2tick ticks crisp" d="M0,231.7699037620298v-5" transform="translate(330.29268299795854,0)" style="stroke: rgb(0, 0, 0); stroke-opacity: 1; stroke-width: 1px;"/><path class="x2tick ticks crisp" d="M0,231.7699037620298v-5" transform="translate(399.95268299795856,0)" style="stroke: rgb(0, 0, 0); stroke-opacity: 1; stroke-width: 1px;"/><g class="x2tick"><text text-anchor="middle" x="0" y="245.9699037620298" transform="translate(330.29268299795854,0)" style="font-family: sans-serif; font-size: 11px; fill: rgb(0, 0, 0); fill-opacity: 1; white-space: pre; opacity: 1;">-1</text></g><g class="x2tick"><text text-anchor="middle" x="0" y="245.9699037620298" style="font-family: sans-serif; font-size: 11px; fill: rgb(0, 0, 0); fill-opacity: 1; white-space: pre; opacity: 1;" transform="translate(399.95268299795856,0)">0</text></g></g><g class="yaxislayer-above"><path class="y2tick ticks crisp" d="M261.20268299795856,0h5" transform="translate(0,166.34176290463694)" style="stroke: rgb(0, 0, 0); stroke-opacity: 1; stroke-width: 1px;"/><path class="y2tick ticks crisp" d="M261.20268299795856,0h5" transform="translate(0,97.95176290463694)" style="stroke: rgb(0, 0, 0); stroke-opacity: 1; stroke-width: 1px;"/><g class="y2tick"><text text-anchor="end" x="258.0026829979586" y="3.8499999999999996" transform="translate(0,166.34176290463694)" style="font-family: sans-serif; font-size: 11px; fill: rgb(0, 0, 0); fill-opacity: 1; white-space: pre; opacity: 1;">0</text></g><g class="y2tick"><text text-anchor="end" x="258.0026829979586" y="3.8499999999999996" style="font-family: sans-serif; font-size: 11px; fill: rgb(0, 0, 0); fill-opacity: 1; white-space: pre; opacity: 1;" transform="translate(0,97.95176290463694)">1</text></g></g><g class="overaxes-above"/></g><g class="subplot x3y3"><g class="layer-subplot"><g class="shapelayer"/><g class="imagelayer"/></g><g class="minor-gridlayer"><g class="x3"/><g class="y3"/></g><g class="gridlayer"><g class="x3"><path class="x3grid crisp" transform="translate(556.9593496646252,0)" d="M0,46.77176290463694v184.99814085739285" style="stroke: rgb(0, 0, 0); stroke-opacity: 0.1; stroke-width: 0.5px;"/></g><g class="y3"><path class="y3grid crisp" transform="translate(0,97.95176290463694)" d="M487.8693496646252,0h207.6687080781569" style="stroke: rgb(0, 0, 0); stroke-opacity: 0.1; stroke-width: 0.5px;"/></g></g><g class="zerolinelayer"><path class="x3zl zl crisp" transform="translate(626.6193496646251,0)" d="M0,46.77176290463694v184.99814085739285" style="stroke: rgb(0, 0, 0); stroke-opacity: 1; stroke-width: 2px;"/><path class="y3zl zl crisp" transform="translate(0,166.34176290463694)" d="M487.8693496646252,0h207.6687080781569" style="stroke: rgb(0, 0, 0); stroke-opacity: 1; stroke-width: 2px;"/></g><g class="layer-between"><g class="shapelayer"/><g class="imagelayer"/></g><path class="xlines-below"/><path class="ylines-below"/><g class="overlines-below"/><g class="xaxislayer-below"/><g class="yaxislayer-below"/><g class="overaxes-below"/><g class="overplot"><g class="x3y3" transform="translate(487.8693496646252,46.77176290463694)" clip-path="url(#clip3ea62dx3y3plot)"><g class="scatterlayer mlayer"><g class="trace scatter tracebd16e0" style="stroke-miterlimit: 2; opacity: 1;"><g class="fills"/><g class="errorbars"/><g class="lines"/><g class="points"><path class="point" transform="translate(174.93,179.76)" d="M4,0A4,4 0 1,1 0,-4A4,4 0 0,1 4,0Z" style="opacity: 1; stroke-width: 0px; fill: rgb(62, 164, 78); fill-opacity: 1;"/><path class="point" transform="translate(201.79,5.24)" d="M4,0A4,4 0 1,1 0,-4A4,4 0 0,1 4,0Z" style="opacity: 1; stroke-width: 0px; fill: rgb(62, 164, 78); fill-opacity: 1;"/><path class="point" transform="translate(22.03,129.52)" d="M4,0A4,4 0 1,1 0,-4A4,4 0 0,1 4,0Z" style="opacity: 1; stroke-width: 0px; fill: rgb(62, 164, 78); fill-opacity: 1;"/><path class="point" transform="translate(48.57,147.45)" d="M4,0A4,4 0 1,1 0,-4A4,4 0 0,1 4,0Z" style="opacity: 1; stroke-width: 0px; fill: rgb(62, 164, 78); fill-opacity: 1;"/><path class="point" transform="translate(91.08,83.03)" d="M4,0A4,4 0 1,1 0,-4A4,4 0 0,1 4,0Z" style="opacity: 1; stroke-width: 0px; fill: rgb(62, 164, 78); fill-opacity: 1;"/><path class="point" transform="translate(90.95,174.74)" d="M4,0A4,4 0 1,1 0,-4A4,4 0 0,1 4,0Z" style="opacity: 1; stroke-width: 0px; fill: rgb(62, 164, 78); fill-opacity: 1;"/><path class="point" transform="translate(145.17,90.78)" d="M4,0A4,4 0 1,1 0,-4A4,4 0 0,1 4,0Z" style="opacity: 1; stroke-width: 0px; fill: rgb(62, 164, 78); fill-opacity: 1;"/><path class="point" transform="translate(132.5,73.51)" d="M4,0A4,4 0 1,1 0,-4A4,4 0 0,1 4,0Z" style="opacity: 1; stroke-width: 0px; fill: rgb(62, 164, 78); fill-opacity: 1;"/><path class="point" transform="translate(37.6,123.71)" d="M4,0A4,4 0 1,1 0,-4A4,4 0 0,1 4,0Z" style="opacity: 1; stroke-width: 0px; fill: rgb(62, 164, 78); fill-opacity: 1;"/><path class="point" transform="translate(5.88,115.96)" d="M4,0A4,4 0 1,1 0,-4A4,4 0 0,1 4,0Z" style="opacity: 1; stroke-width: 0px; fill: rgb(62, 164, 78); fill-opacity: 1;"/></g><g class="text"/></g></g></g></g><path class="xlines-above crisp" d="" style="fill: none; stroke-width: 1px; stroke: rgb(0, 0, 0); stroke-opacity: 0;"/><path class="ylines-above crisp" d="" style="fill: none; stroke-width: 1px; stroke: rgb(0, 0, 0); stroke-opacity: 0;"/><g class="overlines-above"/><g class="xaxislayer-above"><path class="x3tick ticks crisp" d="M0,231.7699037620298v-5" transform="translate(556.9593496646252,0)" style="stroke: rgb(0, 0, 0); stroke-opacity: 0; stroke-width: 1px;"/><path class="x3tick ticks crisp" d="M0,231.7699037620298v-5" transform="translate(626.6193496646251,0)" style="stroke: rgb(0, 0, 0); stroke-opacity: 0; stroke-width: 1px;"/><g class="x3tick"><text text-anchor="middle" x="0" y="243.7699037620298" transform="translate(556.9593496646252,0)" style="font-family: sans-serif; font-size: 11px; fill: rgb(0, 0, 0); fill-opacity: 1; white-space: pre; opacity: 1;">-1</text></g><g class="x3tick"><text text-anchor="middle" x="0" y="243.7699037620298" style="font-family: sans-serif; font-size: 11px; fill: rgb(0, 0, 0); fill-opacity: 1; white-space: pre; opacity: 1;" transform="translate(626.6193496646251,0)">0</text></g></g><g class="yaxislayer-above"><path class="y3tick ticks crisp" d="M487.8693496646252,0h5" transform="translate(0,166.34176290463694)" style="stroke: rgb(0, 0, 0); stroke-opacity: 0; stroke-width: 1px;"/><path class="y3tick ticks crisp" d="M487.8693496646252,0h5" transform="translate(0,97.95176290463694)" style="stroke: rgb(0, 0, 0); stroke-opacity: 0; stroke-width: 1px;"/><g class="y3tick"><text text-anchor="end" x="486.8693496646252" y="3.8499999999999996" transform="translate(0,166.34176290463694)" style="font-family: sans-serif; font-size: 11px; fill: rgb(0, 0, 0); fill-opacity: 1; white-space: pre; opacity: 1;">0</text></g><g class="y3tick"><text text-anchor="end" x="486.8693496646252" y="3.8499999999999996" style="font-family: sans-serif; font-size: 11px; fill: rgb(0, 0, 0); fill-opacity: 1; white-space: pre; opacity: 1;" transform="translate(0,97.95176290463694)">1</text></g></g><g class="overaxes-above"/></g><g class="subplot x4y4"><g class="layer-subplot"><g class="shapelayer"/><g class="imagelayer"/></g><g class="minor-gridlayer"><g class="x4"/><g class="y4"/></g><g class="gridlayer"><g class="x4"><path class="x4grid crisp" transform="translate(103.62601633129192,0)" d="M0,275.77176290463694v184.99814085739283" style="stroke: rgb(0, 0, 0); stroke-opacity: 0.1; stroke-width: 0.5px;"/></g><g class="y4"><path class="y4grid crisp" transform="translate(0,326.95176290463695)" d="M34.53601633129192,0h207.6687080781569" style="stroke: rgb(0, 0, 0); stroke-opacity: 0.1; stroke-width: 0.5px;"/></g></g><g class="zerolinelayer"><path class="x4zl zl crisp" transform="translate(173.28601633129193,0)" d="M0,275.77176290463694v184.99814085739283" style="stroke: rgb(0, 0, 0); stroke-opacity: 1; stroke-width: 2px;"/><path class="y4zl zl crisp" transform="translate(0,395.34176290463694)" d="M34.53601633129192,0h207.6687080781569" style="stroke: rgb(0, 0, 0); stroke-opacity: 1; stroke-width: 2px;"/></g><g class="layer-between"><g class="shapelayer"/><g class="imagelayer"/></g><path class="xlines-below"/><path class="ylines-below"/><g class="overlines-below"/><g class="xaxislayer-below"/><g class="yaxislayer-below"/><g class="overaxes-below"/><g class="overplot"><g class="x4y4" transform="translate(34.53601633129192,275.77176290463694)" clip-path="url(#clip3ea62dx4y4plot)"><g class="scatterlayer mlayer"><g class="trace scatter trace4453f2" style="stroke-miterlimit: 2; opacity: 1;"><g class="fills"/><g class="errorbars"/><g class="lines"/><g class="points"><path class="point" transform="translate(174.93,179.76)" d="M4,0A4,4 0 1,1 0,-4A4,4 0 0,1 4,0Z" style="opacity: 1; stroke-width: 0px; fill: rgb(195, 113, 210); fill-opacity: 1;"/><path class="point" transform="translate(201.79,5.24)" d="M4,0A4,4 0 1,1 0,-4A4,4 0 0,1 4,0Z" style="opacity: 1; stroke-width: 0px; fill: rgb(195, 113, 210); fill-opacity: 1;"/><path class="point" transform="translate(22.03,129.52)" d="M4,0A4,4 0 1,1 0,-4A4,4 0 0,1 4,0Z" style="opacity: 1; stroke-width: 0px; fill: rgb(195, 113, 210); fill-opacity: 1;"/><path class="point" transform="translate(48.57,147.45)" d="M4,0A4,4 0 1,1 0,-4A4,4 0 0,1 4,0Z" style="opacity: 1; stroke-width: 0px; fill: rgb(195, 113, 210); fill-opacity: 1;"/><path class="point" transform="translate(91.08,83.03)" d="M4,0A4,4 0 1,1 0,-4A4,4 0 0,1 4,0Z" style="opacity: 1; stroke-width: 0px; fill: rgb(195, 113, 210); fill-opacity: 1;"/><path class="point" transform="translate(90.95,174.74)" d="M4,0A4,4 0 1,1 0,-4A4,4 0 0,1 4,0Z" style="opacity: 1; stroke-width: 0px; fill: rgb(195, 113, 210); fill-opacity: 1;"/><path class="point" transform="translate(145.17,90.78)" d="M4,0A4,4 0 1,1 0,-4A4,4 0 0,1 4,0Z" style="opacity: 1; stroke-width: 0px; fill: rgb(195, 113, 210); fill-opacity: 1;"/><path class="point" transform="translate(132.5,73.51)" d="M4,0A4,4 0 1,1 0,-4A4,4 0 0,1 4,0Z" style="opacity: 1; stroke-width: 0px; fill: rgb(195, 113, 210); fill-opacity: 1;"/><path class="point" transform="translate(37.6,123.71)" d="M4,0A4,4 0 1,1 0,-4A4,4 0 0,1 4,0Z" style="opacity: 1; stroke-width: 0px; fill: rgb(195, 113, 210); fill-opacity: 1;"/><path class="point" transform="translate(5.88,115.96)" d="M4,0A4,4 0 1,1 0,-4A4,4 0 0,1 4,0Z" style="opacity: 1; stroke-width: 0px; fill: rgb(195, 113, 210); fill-opacity: 1;"/></g><g class="text"/></g></g></g></g><path class="xlines-above crisp" d="" style="fill: none; stroke-width: 1px; stroke: rgb(0, 0, 0); stroke-opacity: 0;"/><path class="ylines-above crisp" d="" style="fill: none; stroke-width: 1px; stroke: rgb(0, 0, 0); stroke-opacity: 0;"/><g class="overlines-above"/><g class="xaxislayer-above"><path class="x4tick ticks crisp" d="M0,460.7699037620298v-5" transform="translate(103.62601633129192,0)" style="stroke: rgb(0, 0, 0); stroke-opacity: 0; stroke-width: 1px;"/><path class="x4tick ticks crisp" d="M0,460.7699037620298v-5" transform="translate(173.28601633129193,0)" style="stroke: rgb(0, 0, 0); stroke-opacity: 0; stroke-width: 1px;"/><g class="x4tick"><text text-anchor="middle" x="0" y="472.7699037620298" transform="translate(103.62601633129192,0)" style="font-family: sans-serif; font-size: 11px; fill: rgb(0, 0, 0); fill-opacity: 1; white-space: pre; opacity: 1;">-1</text></g><g class="x4tick"><text text-anchor="middle" x="0" y="472.7699037620298" style="font-family: sans-serif; font-size: 11px; fill: rgb(0, 0, 0); fill-opacity: 1; white-space: pre; opacity: 1;" transform="translate(173.28601633129193,0)">0</text></g></g><g class="yaxislayer-above"><path class="y4tick ticks crisp" d="M34.53601633129192,0h5" transform="translate(0,395.34176290463694)" style="stroke: rgb(0, 0, 0); stroke-opacity: 0; stroke-width: 1px;"/><path class="y4tick ticks crisp" d="M34.53601633129192,0h5" transform="translate(0,326.95176290463695)" style="stroke: rgb(0, 0, 0); stroke-opacity: 0; stroke-width: 1px;"/><g class="y4tick"><text text-anchor="end" x="33.53601633129192" y="3.8499999999999996" transform="translate(0,395.34176290463694)" style="font-family: sans-serif; font-size: 11px; fill: rgb(0, 0, 0); fill-opacity: 1; white-space: pre; opacity: 1;">0</text></g><g class="y4tick"><text text-anchor="end" x="33.53601633129192" y="3.8499999999999996" style="font-family: sans-serif; font-size: 11px; fill: rgb(0, 0, 0); fill-opacity: 1; white-space: pre; opacity: 1;" transform="translate(0,326.95176290463695)">1</text></g></g><g class="overaxes-above"/></g><g class="subplot x5y5"><g class="layer-subplot"><g class="shapelayer"/><g class="imagelayer"/></g><g class="minor-gridlayer"><g class="x5"/><g class="y5"/></g><g class="gridlayer"><g class="x5"><path class="x5grid crisp" transform="translate(330.29268299795854,0)" d="M0,275.77176290463694v184.99814085739283" style="stroke: rgb(0, 0, 0); stroke-opacity: 0.1; stroke-width: 0.5px;"/><path class="x5grid crisp" transform="translate(399.95268299795856,0)" d="M0,275.77176290463694v184.99814085739283" style="stroke: rgb(0, 0, 0); stroke-opacity: 0.1; stroke-width: 0.5px;"/></g><g class="y5"><path class="y5grid crisp" transform="translate(0,395.34176290463694)" d="M261.20268299795856,0h207.66870807815693" style="stroke: rgb(0, 0, 0); stroke-opacity: 0.1; stroke-width: 0.5px;"/><path class="y5grid crisp" transform="translate(0,326.95176290463695)" d="M261.20268299795856,0h207.66870807815693" style="stroke: rgb(0, 0, 0); stroke-opacity: 0.1; stroke-width: 0.5px;"/></g></g><g class="zerolinelayer"/><g class="layer-between"><g class="shapelayer"/><g class="imagelayer"/></g><path class="xlines-below"/><path class="ylines-below"/><g class="overlines-below"/><g class="xaxislayer-below"/><g class="yaxislayer-below"/><g class="overaxes-below"/><g class="overplot"><g class="x5y5" transform="translate(261.20268299795856,275.77176290463694)" clip-path="url(#clip3ea62dx5y5plot)"><g class="scatterlayer mlayer"><g class="trace scatter tracec12cbd" style="stroke-miterlimit: 2; opacity: 1;"><g class="fills"/><g class="errorbars"/><g class="lines"/><g class="points"><path class="point" transform="translate(174.93,179.76)" d="M4,0A4,4 0 1,1 0,-4A4,4 0 0,1 4,0Z" style="opacity: 1; stroke-width: 0px; fill: rgb(172, 142, 24); fill-opacity: 1;"/><path class="point" transform="translate(201.79,5.24)" d="M4,0A4,4 0 1,1 0,-4A4,4 0 0,1 4,0Z" style="opacity: 1; stroke-width: 0px; fill: rgb(172, 142, 24); fill-opacity: 1;"/><path class="point" transform="translate(22.03,129.52)" d="M4,0A4,4 0 1,1 0,-4A4,4 0 0,1 4,0Z" style="opacity: 1; stroke-width: 0px; fill: rgb(172, 142, 24); fill-opacity: 1;"/><path class="point" transform="translate(48.57,147.45)" d="M4,0A4,4 0 1,1 0,-4A4,4 0 0,1 4,0Z" style="opacity: 1; stroke-width: 0px; fill: rgb(172, 142, 24); fill-opacity: 1;"/><path class="point" transform="translate(91.08,83.03)" d="M4,0A4,4 0 1,1 0,-4A4,4 0 0,1 4,0Z" style="opacity: 1; stroke-width: 0px; fill: rgb(172, 142, 24); fill-opacity: 1;"/><path class="point" transform="translate(90.95,174.74)" d="M4,0A4,4 0 1,1 0,-4A4,4 0 0,1 4,0Z" style="opacity: 1; stroke-width: 0px; fill: rgb(172, 142, 24); fill-opacity: 1;"/><path class="point" transform="translate(145.17,90.78)" d="M4,0A4,4 0 1,1 0,-4A4,4 0 0,1 4,0Z" style="opacity: 1; stroke-width: 0px; fill: rgb(172, 142, 24); fill-opacity: 1;"/><path class="point" transform="translate(132.5,73.51)" d="M4,0A4,4 0 1,1 0,-4A4,4 0 0,1 4,0Z" style="opacity: 1; stroke-width: 0px; fill: rgb(172, 142, 24); fill-opacity: 1;"/><path class="point" transform="translate(37.6,123.71)" d="M4,0A4,4 0 1,1 0,-4A4,4 0 0,1 4,0Z" style="opacity: 1; stroke-width: 0px; fill: rgb(172, 142, 24); fill-opacity: 1;"/><path class="point" transform="translate(5.88,115.96)" d="M4,0A4,4 0 1,1 0,-4A4,4 0 0,1 4,0Z" style="opacity: 1; stroke-width: 0px; fill: rgb(172, 142, 24); fill-opacity: 1;"/></g><g class="text"/></g></g></g></g><path class="xlines-above crisp" d="" style="fill: none; stroke-width: 1px; stroke: rgb(0, 0, 0); stroke-opacity: 0;"/><path class="ylines-above crisp" d="" style="fill: none; stroke-width: 1px; stroke: rgb(0, 0, 0); stroke-opacity: 0;"/><g class="overlines-above"/><g class="xaxislayer-above"><path class="x5tick ticks crisp" d="M0,460.7699037620298v-5" transform="translate(330.29268299795854,0)" style="stroke: rgb(0, 0, 0); stroke-opacity: 0; stroke-width: 1px;"/><path class="x5tick ticks crisp" d="M0,460.7699037620298v-5" transform="translate(399.95268299795856,0)" style="stroke: rgb(0, 0, 0); stroke-opacity: 0; stroke-width: 1px;"/><g class="x5tick"><text text-anchor="middle" x="0" y="472.7699037620298" transform="translate(330.29268299795854,0)" style="font-family: sans-serif; font-size: 11px; fill: rgb(0, 0, 0); fill-opacity: 1; white-space: pre; opacity: 1;">-1</text></g><g class="x5tick"><text text-anchor="middle" x="0" y="472.7699037620298" style="font-family: sans-serif; font-size: 11px; fill: rgb(0, 0, 0); fill-opacity: 1; white-space: pre; opacity: 1;" transform="translate(399.95268299795856,0)">0</text></g></g><g class="yaxislayer-above"><path class="y5tick ticks crisp" d="M261.20268299795856,0h5" transform="translate(0,395.34176290463694)" style="stroke: rgb(0, 0, 0); stroke-opacity: 0; stroke-width: 1px;"/><path class="y5tick ticks crisp" d="M261.20268299795856,0h5" transform="translate(0,326.95176290463695)" style="stroke: rgb(0, 0, 0); stroke-opacity: 0; stroke-width: 1px;"/><g class="y5tick"><text text-anchor="end" x="260.20268299795856" y="3.8499999999999996" transform="translate(0,395.34176290463694)" style="font-family: sans-serif; font-size: 11px; fill: rgb(0, 0, 0); fill-opacity: 1; white-space: pre; opacity: 1;">0</text></g><g class="y5tick"><text text-anchor="end" x="260.20268299795856" y="3.8499999999999996" style="font-family: sans-serif; font-size: 11px; fill: rgb(0, 0, 0); fill-opacity: 1; white-space: pre; opacity: 1;" transform="translate(0,326.95176290463695)">1</text></g></g><g class="overaxes-above"/></g><g class="subplot x6y6"><g class="layer-subplot"><g class="shapelayer"/><g class="imagelayer"/></g><g class="minor-gridlayer"><g class="x6"/><g class="y6"/></g><g class="gridlayer"><g class="x6"/><g class="y6"/></g><g class="zerolinelayer"/><g class="layer-between"><g class="shapelayer"/><g class="imagelayer"/></g><path class="xlines-below"/><path class="ylines-below"/><g class="overlines-below"/><g class="xaxislayer-below"/><g class="yaxislayer-below"/><g class="overaxes-below"/><g class="overplot"><g class="x6y6" transform="translate(487.8693496646252,275.77176290463694)" clip-path="url(#clip3ea62dx6y6plot)"><g class="scatterlayer mlayer"><g class="trace scatter trace790d83" style="stroke-miterlimit: 2; opacity: 1;"><g class="fills"/><g class="errorbars"/><g class="lines"/><g class="points"><path class="point" transform="translate(174.93,179.76)" d="M4,0A4,4 0 1,1 0,-4A4,4 0 0,1 4,0Z" style="opacity: 1; stroke-width: 0px; fill: rgb(0, 170, 174); fill-opacity: 1;"/><path class="point" transform="translate(201.79,5.24)" d="M4,0A4,4 0 1,1 0,-4A4,4 0 0,1 4,0Z" style="opacity: 1; stroke-width: 0px; fill: rgb(0, 170, 174); fill-opacity: 1;"/><path class="point" transform="translate(22.03,129.52)" d="M4,0A4,4 0 1,1 0,-4A4,4 0 0,1 4,0Z" style="opacity: 1; stroke-width: 0px; fill: rgb(0, 170, 174); fill-opacity: 1;"/><path class="point" transform="translate(48.57,147.45)" d="M4,0A4,4 0 1,1 0,-4A4,4 0 0,1 4,0Z" style="opacity: 1; stroke-width: 0px; fill: rgb(0, 170, 174); fill-opacity: 1;"/><path class="point" transform="translate(91.08,83.03)" d="M4,0A4,4 0 1,1 0,-4A4,4 0 0,1 4,0Z" style="opacity: 1; stroke-width: 0px; fill: rgb(0, 170, 174); fill-opacity: 1;"/><path class="point" transform="translate(90.95,174.74)" d="M4,0A4,4 0 1,1 0,-4A4,4 0 0,1 4,0Z" style="opacity: 1; stroke-width: 0px; fill: rgb(0, 170, 174); fill-opacity: 1;"/><path class="point" transform="translate(145.17,90.78)" d="M4,0A4,4 0 1,1 0,-4A4,4 0 0,1 4,0Z" style="opacity: 1; stroke-width: 0px; fill: rgb(0, 170, 174); fill-opacity: 1;"/><path class="point" transform="translate(132.5,73.51)" d="M4,0A4,4 0 1,1 0,-4A4,4 0 0,1 4,0Z" style="opacity: 1; stroke-width: 0px; fill: rgb(0, 170, 174); fill-opacity: 1;"/><path class="point" transform="translate(37.6,123.71)" d="M4,0A4,4 0 1,1 0,-4A4,4 0 0,1 4,0Z" style="opacity: 1; stroke-width: 0px; fill: rgb(0, 170, 174); fill-opacity: 1;"/><path class="point" transform="translate(5.88,115.96)" d="M4,0A4,4 0 1,1 0,-4A4,4 0 0,1 4,0Z" style="opacity: 1; stroke-width: 0px; fill: rgb(0, 170, 174); fill-opacity: 1;"/></g><g class="text"/></g></g></g></g><path class="xlines-above crisp" d="M0,0" style="fill: none;"/><path class="ylines-above crisp" d="M0,0" style="fill: none;"/><g class="overlines-above"/><g class="xaxislayer-above"/><g class="yaxislayer-above"/><g class="overaxes-above"/></g></g><g class="polarlayer"/><g class="smithlayer"/><g class="ternarylayer"/><g class="geolayer"/><g class="funnelarealayer"/><g class="pielayer"/><g class="iciclelayer"/><g class="treemaplayer"/><g class="sunburstlayer"/><g class="glimages"/><defs id="topdefs-3ea62d"><g class="clips"/></defs><g class="layer-above"><g class="imagelayer"/><g class="shapelayer"/></g><g class="infolayer"><g class="g-gtitle"/><g class="g-xtitle"/><g class="g-x2title"/><g class="g-x3title"/><g class="g-x4title"/><g class="g-x5title"/><g class="g-ytitle"/><g class="g-y2title"/><g class="g-y3title"/><g class="g-y4title"/><g class="g-y5title"/><g class="annotation" data-index="0" style="opacity: 1;"><g class="annotation-text-g" transform="rotate(0,138.37037037037035,33)"><g class="cursor-pointer" transform="translate(117,20)"><rect class="bg" x="0.5" y="0.5" width="41" height="25" style="stroke-width: 1px; stroke: rgb(0, 0, 0); stroke-opacity: 0; fill: rgb(0, 0, 0); fill-opacity: 0;"/><text class="annotation-text" text-anchor="middle" x="20.90625" y="20" style="font-family: sans-serif; font-size: 20px; fill: rgb(0, 0, 0); fill-opacity: 1; white-space: pre;">:box</text></g></g></g><g class="annotation" data-index="1" style="opacity: 1;"><g class="annotation-text-g" transform="rotate(0,365.03703703703695,33)"><g class="cursor-pointer" transform="translate(339,20)"><rect class="bg" x="0.5" y="0.5" width="51" height="25" style="stroke-width: 1px; stroke: rgb(0, 0, 0); stroke-opacity: 0; fill: rgb(0, 0, 0); fill-opacity: 0;"/><text class="annotation-text" text-anchor="middle" x="25.90625" y="20" style="font-family: sans-serif; font-size: 20px; fill: rgb(0, 0, 0); fill-opacity: 1; white-space: pre;">:semi</text></g></g></g><g class="annotation" data-index="2" style="opacity: 1;"><g class="annotation-text-g" transform="rotate(0,591.7037037037036,33)"><g class="cursor-pointer" transform="translate(562,20)"><rect class="bg" x="0.5" y="0.5" width="58" height="25" style="stroke-width: 1px; stroke: rgb(0, 0, 0); stroke-opacity: 0; fill: rgb(0, 0, 0); fill-opacity: 0;"/><text class="annotation-text" text-anchor="middle" x="29.25" y="20" style="font-family: sans-serif; font-size: 20px; fill: rgb(0, 0, 0); fill-opacity: 1; white-space: pre;">:origin</text></g></g></g><g class="annotation" data-index="3" style="opacity: 1;"><g class="annotation-text-g" transform="rotate(0,138.37037037037035,262)"><g class="cursor-pointer" transform="translate(93,249)"><rect class="bg" x="0.5" y="0.5" width="89" height="25" style="stroke-width: 1px; stroke: rgb(0, 0, 0); stroke-opacity: 0; fill: rgb(0, 0, 0); fill-opacity: 0;"/><text class="annotation-text" text-anchor="middle" x="44.8125" y="20" style="font-family: sans-serif; font-size: 20px; fill: rgb(0, 0, 0); fill-opacity: 1; white-space: pre;">:zerolines</text></g></g></g><g class="annotation" data-index="4" style="opacity: 1;"><g class="annotation-text-g" transform="rotate(0,365.03703703703695,262)"><g class="cursor-pointer" transform="translate(344,249)"><rect class="bg" x="0.5" y="0.5" width="42" height="25" style="stroke-width: 1px; stroke: rgb(0, 0, 0); stroke-opacity: 0; fill: rgb(0, 0, 0); fill-opacity: 0;"/><text class="annotation-text" text-anchor="middle" x="21.453125" y="20" style="font-family: sans-serif; font-size: 20px; fill: rgb(0, 0, 0); fill-opacity: 1; white-space: pre;">:grid</text></g></g></g><g class="annotation" data-index="5" style="opacity: 1;"><g class="annotation-text-g" transform="rotate(0,591.7037037037036,262)"><g class="cursor-pointer" transform="translate(565,249)"><rect class="bg" x="0.5" y="0.5" width="53" height="25" style="stroke-width: 1px; stroke: rgb(0, 0, 0); stroke-opacity: 0; fill: rgb(0, 0, 0); fill-opacity: 0;"/><text class="annotation-text" text-anchor="middle" x="27.03125" y="20" style="font-family: sans-serif; font-size: 20px; fill: rgb(0, 0, 0); fill-opacity: 1; white-space: pre;">:none</text></g></g></g></g></svg>