<svg class="main-svg" xmlns="http://www.w3.org/2000/svg" xmlns:xlink="http://www.w3.org/1999/xlink" width="700" height="500" style="" viewBox="0 0 700 500"><rect x="0" y="0" width="700" height="500" style="fill: rgb(255, 255, 255); fill-opacity: 1;"/><defs id="defs-3e99ad"><g class="clips"><clipPath id="clip3e99adxyplot" class="plotclip"><rect width="298.04931466899967" height="205.9044181977253"/></clipPath><clipPath id="clip3e99adx2y2plot" class="plotclip"><rect width="298.0493146689996" height="205.9044181977253"/></clipPath><clipPath id="clip3e99adx3y3plot" class="plotclip"><rect width="298.04931466899967" height="205.90441819772528"/></clipPath><clipPath id="clip3e99adx4y4plot" class="plotclip"><rect width="298.0493146689996" height="205.90441819772528"/></clipPath><clipPath class="axesclip" id="clip3e99adx"><rect x="47.877194517351995" y="0" width="298.04931466899967" height="500"/></clipPath><clipPath class="axesclip" id="clip3e99ady"><rect x="0" y="24.478346456692904" width="700" height="205.9044181977253"/></clipPath><clipPath class="axesclip" id="clip3e99adxy"><rect x="47.877194517351995" y="24.478346456692904" width="298.04931466899967" height="205.9044181977253"/></clipPath><clipPath class="axesclip" id="clip3e99ady2"><rect x="0" y="24.478346456692904" width="700" height="205.9044181977253"/></clipPath><clipPath class="axesclip" id="clip3e99adxy2"><rect x="47.877194517351995" y="24.478346456692904" width="298.04931466899967" height="205.9044181977253"/></clipPath><clipPath class="axesclip" id="clip3e99ady3"><rect x="0" y="251.97834645669292" width="700" height="205.90441819772528"/></clipPath><clipPath class="axesclip" id="clip3e99adxy3"><rect x="47.877194517351995" y="251.97834645669292" width="298.04931466899967" height="205.90441819772528"/></clipPath><clipPath class="axesclip" id="clip3e99ady4"><rect x="0" y="251.97834645669292" width="700" height="205.90441819772528"/></clipPath><clipPath class="axesclip" id="clip3e99adxy4"><rect x="47.877194517351995" y="251.97834645669292" width="298.04931466899967" height="205.90441819772528"/></clipPath><clipPath class="axesclip" id="clip3e99adx2"><rect x="396.377194517352" y="0" width="298.0493146689996" height="500"/></clipPath><clipPath class="axesclip" id="clip3e99adx2y"><rect x="396.377194517352" y="24.478346456692904" width="298.0493146689996" height="205.9044181977253"/></clipPath><clipPath class="axesclip" id="clip3e99adx2y2"><rect x="396.377194517352" y="24.478346456692904" width="298.0493146689996" height="205.9044181977253"/></clipPath><clipPath class="axesclip" id="clip3e99adx2y3"><rect x="396.377194517352" y="251.97834645669292" width="298.0493146689996" height="205.90441819772528"/></clipPath><clipPath class="axesclip" id="clip3e99adx2y4"><rect x="396.377194517352" y="251.97834645669292" width="298.0493146689996" height="205.90441819772528"/></clipPath><clipPath class="axesclip" id="clip3e99adx3"><rect x="47.877194517351995" y="0" width="298.04931466899967" height="500"/></clipPath><clipPath class="axesclip" id="clip3e99adx3y"><rect x="47.877194517351995" y="24.478346456692904" width="298.04931466899967" height="205.9044181977253"/></clipPath><clipPath class="axesclip" id="clip3e99adx3y2"><rect x="47.877194517351995" y="24.478346456692904" width="298.04931466899967" height="205.9044181977253"/></clipPath><clipPath class="axesclip" id="clip3e99adx3y3"><rect x="47.877194517351995" y="251.97834645669292" width="298.04931466899967" height="205.90441819772528"/></clipPath><clipPath class="axesclip" id="clip3e99adx3y4"><rect x="47.877194517351995" y="251.97834645669292" width="298.04931466899967" height="205.90441819772528"/></clipPath><clipPath class="axesclip" id="clip3e99adx4"><rect x="396.377194517352" y="0" width="298.0493146689996" height="500"/></clipPath><clipPath class="axesclip" id="clip3e99adx4y"><rect x="396.377194517352" y="24.478346456692904" width="298.0493146689996" height="205.9044181977253"/></clipPath><clipPath class="axesclip" id="clip3e99adx4y2"><rect x="396.377194517352" y="24.478346456692904" width="298.0493146689996" height="205.9044181977253"/></clipPath><clipPath class="axesclip" id="clip3e99adx4y3"><rect x="396.377194517352" y="251.97834645669292" width="298.0493146689996" height="205.90441819772528"/></clipPath><clipPath class="axesclip" id="clip3e99adx4y4"><rect x="396.377194517352" y="251.97834645669292" width="298.0493146689996" height="205.90441819772528"/></clipPath></g><g class="gradients"/><g class="patterns"/></defs><g class="bglayer"><rect class="bg" x="47.877194517351995" y="24.478346456692904" width="298.04931466899967" height="205.9044181977253" style="fill: rgb(0, 0, 0); fill-opacity: 1; stroke-width: 0;"/><rect class="bg" x="396.377194517352" y="24.478346456692904" width="298.0493146689996" height="205.9044181977253" style="fill: rgb(0, 0, 0); fill-opacity: 1; stroke-width: 0;"/><rect class="bg" x="47.877194517351995" y="251.97834645669292" width="298.04931466899967" height="205.90441819772528" style="fill: rgb(0, 0, 0); fill-opacity: 1; stroke-width: 0;"/><rect class="bg" x="396.377194517352" y="251.97834645669292" width="298.0493146689996" height="205.90441819772528" style="fill: rgb(0, 0, 0); fill-opacity: 1; stroke-width: 0;"/></g><g class="layer-below"><g class="imagelayer"/><g class="shapelayer"/></g><g class="cartesianlayer"><g class="subplot xy"><g class="layer-subplot"><g class="shapelayer"/><g class="imagelayer"/></g><g class="minor-gridlayer"><g class="x"/><g class="y"/></g><g class="gridlayer"><g class="x"><path class="xgrid crisp" transform="translate(53.477194517352,0)" d="M0,24.478346456692904v205.9044181977253" style="stroke: rgb(0, 0, 0); stroke-opacity: 0.1; stroke-width: 0.5px;"/><path class="xgrid crisp" transform="translate(124.47719451735199,0)" d="M0,24.478346456692904v205.9044181977253" style="stroke: rgb(0, 0, 0); stroke-opacity: 0.1; stroke-width: 0.5px;"/><path class="xgrid crisp" transform="translate(195.477194517352,0)" d="M0,24.478346456692904v205.9044181977253" style="stroke: rgb(0, 0, 0); stroke-opacity: 0.1; stroke-width: 0.5px;"/><path class="xgrid crisp" transform="translate(266.487194517352,0)" d="M0,24.478346456692904v205.9044181977253" style="stroke: rgb(0, 0, 0); stroke-opacity: 0.1; stroke-width: 0.5px;"/><path class="xgrid crisp" transform="translate(337.487194517352,0)" d="M0,24.478346456692904v205.9044181977253" style="stroke: rgb(0, 0, 0); stroke-opacity: 0.1; stroke-width: 0.5px;"/></g><g class="y"><path class="ygrid crisp" transform="translate(0,208.40834645669293)" d="M47.877194517351995,0h298.04931466899967" style="stroke: rgb(0, 0, 0); stroke-opacity: 0.1; stroke-width: 0.5px;"/><path class="ygrid crisp" transform="translate(0,180.08834645669293)" d="M47.877194517351995,0h298.04931466899967" style="stroke: rgb(0, 0, 0); stroke-opacity: 0.1; stroke-width: 0.5px;"/><path class="ygrid crisp" transform="translate(0,151.7683464566929)" d="M47.877194517351995,0h298.04931466899967" style="stroke: rgb(0, 0, 0); stroke-opacity: 0.1; stroke-width: 0.5px;"/><path class="ygrid crisp" transform="translate(0,123.4483464566929)" d="M47.877194517351995,0h298.04931466899967" style="stroke: rgb(0, 0, 0); stroke-opacity: 0.1; stroke-width: 0.5px;"/><path class="ygrid crisp" transform="translate(0,95.12834645669291)" d="M47.877194517351995,0h298.04931466899967" style="stroke: rgb(0, 0, 0); stroke-opacity: 0.1; stroke-width: 0.5px;"/><path class="ygrid crisp" transform="translate(0,66.8083464566929)" d="M47.877194517351995,0h298.04931466899967" style="stroke: rgb(0, 0, 0); stroke-opacity: 0.1; stroke-width: 0.5px;"/><path class="ygrid crisp" transform="translate(0,38.4983464566929)" d="M47.877194517351995,0h298.04931466899967" style="stroke: rgb(0, 0, 0); stroke-opacity: 0.1; stroke-width: 0.5px;"/></g></g><g class="zerolinelayer"/><g class="layer-between"><g class="shapelayer"/><g class="imagelayer"/></g><path class="xlines-below"/><path class="ylines-below"/><g class="overlines-below"/><g class="xaxislayer-below"/><g class="yaxislayer-below"/><g class="overaxes-below"/><g class="overplot"><g class="xy" transform="translate(47.877194517351995,24.478346456692904)" clip-path="url(#clip3e99adxyplot)"><g class="scatterlayer mlayer"><g class="trace scatter trace201406" style="stroke-miterlimit: 2; opacity: 1;"><g class="fills"/><g class="errorbars"/><g class="lines"><path class="js-line" d="M8.44,98.97L11.28,93.09L14.12,103.35L16.96,108.26L19.8,108.93L22.64,102.89L25.48,116.3L28.32,126.89L31.16,126.87L34,134.01L36.84,145.13L39.68,127.42L42.52,129.62L45.36,117.38L48.2,142.66L51.04,144.96L53.88,131.94L59.56,95.32L62.4,86.37L65.24,78.13L68.08,81.51L70.92,104.63L73.76,101.33L76.6,106.53L79.44,125.37L85.12,127.35L87.96,121.83L90.8,116.44L93.64,123.24L96.48,116.63L99.32,137.41L102.16,136.14L105,119.49L107.84,128.14L110.68,149.14L113.52,143.71L116.36,130.63L119.2,137.14L122.04,131.38L124.88,140.32L127.72,129.71L130.56,115.31L133.4,120.99L136.24,119.33L139.08,123.42L141.92,125.29L144.76,114.84L147.6,104.96L150.44,105.92L153.28,110.21L156.13,105.8L161.81,132.71L164.65,150.96L170.33,151.11L173.17,143.7L176.01,154L178.85,143.71L181.69,130.56L184.53,142.36L187.37,135.5L190.21,134.09L193.05,144.93L195.89,161.74L198.73,154.52L201.57,154.4L204.41,135.54L207.25,122.92L210.09,100.47L212.93,94.72L215.77,86.34L218.61,69.56L224.29,30.55L227.13,25.04L229.97,40.09L232.81,43.62L235.65,36.4L238.49,23.34L244.17,5.83L247.01,13.62L249.85,20.12L252.69,23.85L258.37,43.84L261.21,44.65L264.05,40.74L266.89,61.99L269.73,63.75L272.57,54.83L275.41,56.07L278.25,65.11L281.09,62.77L283.93,66.57L286.77,59.95L289.61,59.69" style="vector-effect: none; fill: none; stroke: rgb(13, 13, 13); stroke-opacity: 1; stroke-width: 1px; opacity: 1;"/></g><g class="points"/><g class="text"/></g><g class="trace scatter trace2f1adb" style="stroke-miterlimit: 2; opacity: 1;"><g class="fills"/><g class="errorbars"/><g class="lines"><path class="js-line" d="M8.44,98.97L11.28,106.72L14.12,100.28L16.96,95.26L19.8,94.42L22.64,88.08L25.48,111.54L28.32,92.71L31.16,105.16L34,86.38L36.84,97.91L39.68,116.21L42.52,102.42L45.36,111.78L48.2,109.97L51.04,119.65L53.88,119.99L56.72,127.94L59.56,140.09L62.4,154.2L65.24,160.19L70.92,145.65L73.76,121.04L76.6,114.15L79.44,117.78L82.28,126.49L85.12,130.98L87.96,108.27L90.8,117.87L93.64,117.91L96.48,129.35L99.32,126.9L102.16,132.3L105,141.33L107.84,146.71L110.68,151.6L113.52,142.93L116.36,147.53L119.2,116.44L122.04,127.71L124.88,147.32L127.72,143.24L130.56,132.64L133.4,130.24L136.24,112.91L141.92,105.62L144.76,118.19L147.6,118.9L150.44,139L153.28,130.2L156.13,141.87L158.97,126.17L161.81,138.23L164.65,146.01L167.49,172.83L170.33,180.36L173.17,185.42L176.01,195.07L178.85,200.08L181.69,176.23L184.53,169.06L187.37,155.36L190.21,154.38L193.05,142.86L195.89,150.95L198.73,145.83L201.57,146.12L210.09,118.54L212.93,122.72L215.77,139.58L218.61,130.95L221.45,139.63L224.29,144.25L227.13,126.76L229.97,130.75L232.81,130.24L235.65,98.18L238.49,111.33L241.33,101.2L244.17,101.09L247.01,96.4L252.69,96.03L255.53,75.22L258.37,92.02L261.21,78.3L264.05,68.65L266.89,90.57L269.73,87.51L272.57,67.23L275.41,56.49L278.25,60.44L281.09,72.96L283.93,67.99L286.77,79.82L289.61,71.2" style="vector-effect: none; fill: none; stroke: rgb(242, 242, 242); stroke-opacity: 1; stroke-width: 1px; opacity: 1;"/></g><g class="points"/><g class="text"/></g><g class="trace scatter trace26cd97" style="stroke-miterlimit: 2; opacity: 1;"><g class="fills"/><g class="errorbars"/><g class="lines"><path class="js-line" d="M8.44,98.97L11.28,115.42L14.12,115.28L16.96,118.3L19.8,116.2L22.64,106.41L25.48,119.94L28.32,136.87L31.16,131.3L34,136.17L36.84,132.57L39.68,107.44L42.52,96.98L45.36,117.7L48.2,123.65L53.88,115.35L56.72,126.64L59.56,155.2L62.4,142.51L65.24,146.94L68.08,141.22L70.92,151.91L73.76,130.76L76.6,109.58L79.44,120.57L82.28,123.9L85.12,115.86L87.96,131.91L90.8,126.13L93.64,135.45L96.48,153.14L99.32,132.23L102.16,128.6L105,136.49L107.84,127.89L110.68,122.42L113.52,104.75L116.36,101.36L119.2,90.19L122.04,75.41L124.88,68.09L127.72,64.45L130.56,68.73L133.4,67.12L136.24,82.48L139.08,67.88L141.92,69.11L144.76,57.38L147.6,40.74L150.44,50.75L153.28,52.59L156.13,47.78L158.97,47.78L161.81,56.85L164.65,47.11L167.49,57.76L170.33,77.69L173.17,76.87L176.01,67.62L178.85,67.83L181.69,72.89L184.53,93.65L187.37,96.78L190.21,107.52L193.05,103.93L195.89,108.34L198.73,121.35L201.57,124.8L204.41,118.04L207.25,105.38L210.09,114.19L212.93,100.67L215.77,107.09L218.61,102.04L221.45,90.84L224.29,94.93L227.13,108.36L229.97,66.35L232.81,78.8L235.65,84.54L238.49,78.8L241.33,64.32L244.17,71.45L247.01,91.41L249.85,91.86L252.69,98.06L255.53,116.72L258.37,136.35L261.21,133.79L264.05,141.32L266.89,141.93L269.73,152.34L272.57,174.66L275.41,162.11L278.25,155.83L281.09,136.55L283.93,133.39L286.77,116.65L289.61,122.8" style="vector-effect: none; fill: none; stroke: rgb(128, 128, 128); stroke-opacity: 1; stroke-width: 1px; opacity: 1;"/></g><g class="points"/><g class="text"/></g></g></g></g><path class="xlines-above crisp" d="M46.877194517351995,230.88276465441822H345.92650918635167" style="fill: none; stroke-width: 1px; stroke: rgb(0, 0, 0); stroke-opacity: 1;"/><path class="ylines-above crisp" d="M47.377194517351995,24.478346456692904V230.38276465441822" style="fill: none; stroke-width: 1px; stroke: rgb(0, 0, 0); stroke-opacity: 1;"/><g class="overlines-above"/><g class="xaxislayer-above"><path class="xtick ticks crisp" d="M0,230.38276465441822v-5" transform="translate(53.477194517352,0)" style="stroke: rgb(0, 0, 0); stroke-opacity: 1; stroke-width: 1px;"/><path class="xtick ticks crisp" d="M0,230.38276465441822v-5" transform="translate(124.47719451735199,0)" style="stroke: rgb(0, 0, 0); stroke-opacity: 1; stroke-width: 1px;"/><path class="xtick ticks crisp" d="M0,230.38276465441822v-5" transform="translate(195.477194517352,0)" style="stroke: rgb(0, 0, 0); stroke-opacity: 1; stroke-width: 1px;"/><path class="xtick ticks crisp" d="M0,230.38276465441822v-5" transform="translate(266.487194517352,0)" style="stroke: rgb(0, 0, 0); stroke-opacity: 1; stroke-width: 1px;"/><path class="xtick ticks crisp" d="M0,230.38276465441822v-5" transform="translate(337.487194517352,0)" style="stroke: rgb(0, 0, 0); stroke-opacity: 1; stroke-width: 1px;"/><g class="xtick"><text text-anchor="middle" x="0" y="244.5827646544182" transform="translate(53.477194517352,0)" style="font-family: sans-serif; font-size: 11px; fill: rgb(0, 0, 0); fill-opacity: 1; white-space: pre; opacity: 1;">0</text></g><g class="xtick"><text text-anchor="middle" x="0" y="244.5827646544182" style="font-family: sans-serif; font-size: 11px; fill: rgb(0, 0, 0); fill-opacity: 1; white-space: pre; opacity: 1;" transform="translate(124.47719451735199,0)">25</text></g><g class="xtick"><text text-anchor="middle" x="0" y="244.5827646544182" style="font-family: sans-serif; font-size: 11px; fill: rgb(0, 0, 0); fill-opacity: 1; white-space: pre; opacity: 1;" transform="translate(195.477194517352,0)">50</text></g><g class="xtick"><text text-anchor="middle" x="0" y="244.5827646544182" style="font-family: sans-serif; font-size: 11px; fill: rgb(0, 0, 0); fill-opacity: 1; white-space: pre; opacity: 1;" transform="translate(266.487194517352,0)">75</text></g><g class="xtick"><text text-anchor="middle" x="0" y="244.5827646544182" style="font-family: sans-serif; font-size: 11px; fill: rgb(0, 0, 0); fill-opacity: 1; white-space: pre; opacity: 1;" transform="translate(337.487194517352,0)">100</text></g></g><g class="yaxislayer-above"><path class="ytick ticks crisp" d="M47.877194517351995,0h5" transform="translate(0,208.40834645669293)" style="stroke: rgb(0, 0, 0); stroke-opacity: 1; stroke-width: 1px;"/><path class="ytick ticks crisp" d="M47.877194517351995,0h5" transform="translate(0,180.08834645669293)" style="stroke: rgb(0, 0, 0); stroke-opacity: 1; stroke-width: 1px;"/><path class="ytick ticks crisp" d="M47.877194517351995,0h5" transform="translate(0,151.7683464566929)" style="stroke: rgb(0, 0, 0); stroke-opacity: 1; stroke-width: 1px;"/><path class="ytick ticks crisp" d="M47.877194517351995,0h5" transform="translate(0,123.4483464566929)" style="stroke: rgb(0, 0, 0); stroke-opacity: 1; stroke-width: 1px;"/><path class="ytick ticks crisp" d="M47.877194517351995,0h5" transform="translate(0,95.12834645669291)" style="stroke: rgb(0, 0, 0); stroke-opacity: 1; stroke-width: 1px;"/><path class="ytick ticks crisp" d="M47.877194517351995,0h5" transform="translate(0,66.8083464566929)" style="stroke: rgb(0, 0, 0); stroke-opacity: 1; stroke-width: 1px;"/><path class="ytick ticks crisp" d="M47.877194517351995,0h5" transform="translate(0,38.4983464566929)" style="stroke: rgb(0, 0, 0); stroke-opacity: 1; stroke-width: 1px;"/><g class="ytick"><text text-anchor="end" x="44.67719451735199" y="3.8499999999999996" transform="translate(0,208.40834645669293)" style="font-family: sans-serif; font-size: 11px; fill: rgb(0, 0, 0); fill-opacity: 1; white-space: pre; opacity: 1;">-7.5</text></g><g class="ytick"><text text-anchor="end" x="44.67719451735199" y="3.8499999999999996" style="font-family: sans-serif; font-size: 11px; fill: rgb(0, 0, 0); fill-opacity: 1; white-space: pre; opacity: 1;" transform="translate(0,180.08834645669293)">-5.0</text></g><g class="ytick"><text text-anchor="end" x="44.67719451735199" y="3.8499999999999996" style="font-family: sans-serif; font-size: 11px; fill: rgb(0, 0, 0); fill-opacity: 1; white-space: pre; opacity: 1;" transform="translate(0,151.7683464566929)">-2.5</text></g><g class="ytick"><text text-anchor="end" x="44.67719451735199" y="3.8499999999999996" style="font-family: sans-serif; font-size: 11px; fill: rgb(0, 0, 0); fill-opacity: 1; white-space: pre; opacity: 1;" transform="translate(0,123.4483464566929)">0.0</text></g><g class="ytick"><text text-anchor="end" x="44.67719451735199" y="3.8499999999999996" style="font-family: sans-serif; font-size: 11px; fill: rgb(0, 0, 0); fill-opacity: 1; white-space: pre; opacity: 1;" transform="translate(0,95.12834645669291)">2.5</text></g><g class="ytick"><text text-anchor="end" x="44.67719451735199" y="3.8499999999999996" style="font-family: sans-serif; font-size: 11px; fill: rgb(0, 0, 0); fill-opacity: 1; white-space: pre; opacity: 1;" transform="translate(0,66.8083464566929)">5.0</text></g><g class="ytick"><text text-anchor="end" x="44.67719451735199" y="3.8499999999999996" style="font-family: sans-serif; font-size: 11px; fill: rgb(0, 0, 0); fill-opacity: 1; white-space: pre; opacity: 1;" transform="translate(0,38.4983464566929)">7.5</text></g></g><g class="overaxes-above"/></g><g class="subplot x2y2"><g class="layer-subplot"><g class="shapelayer"/><g class="imagelayer"/></g><g class="minor-gridlayer"><g class="x2"/><g class="y2"/></g><g class="gridlayer"><g class="x2"><path class="x2grid crisp" transform="translate(401.977194517352,0)" d="M0,24.478346456692904v205.9044181977253" style="stroke: rgb(0, 0, 0); stroke-opacity: 0.1; stroke-width: 0.5px;"/><path class="x2grid crisp" transform="translate(472.977194517352,0)" d="M0,24.478346456692904v205.9044181977253" style="stroke: rgb(0, 0, 0); stroke-opacity: 0.1; stroke-width: 0.5px;"/><path class="x2grid crisp" transform="translate(543.977194517352,0)" d="M0,24.478346456692904v205.9044181977253" style="stroke: rgb(0, 0, 0); stroke-opacity: 0.1; stroke-width: 0.5px;"/><path class="x2grid crisp" transform="translate(614.987194517352,0)" d="M0,24.478346456692904v205.9044181977253" style="stroke: rgb(0, 0, 0); stroke-opacity: 0.1; stroke-width: 0.5px;"/><path class="x2grid crisp" transform="translate(685.987194517352,0)" d="M0,24.478346456692904v205.9044181977253" style="stroke: rgb(0, 0, 0); stroke-opacity: 0.1; stroke-width: 0.5px;"/></g><g class="y2"><path class="y2grid crisp" transform="translate(0,196.4883464566929)" d="M396.377194517352,0h298.0493146689996" style="stroke: rgb(0, 0, 0); stroke-opacity: 0.1; stroke-width: 0.5px;"/><path class="y2grid crisp" transform="translate(0,151.7483464566929)" d="M396.377194517352,0h298.0493146689996" style="stroke: rgb(0, 0, 0); stroke-opacity: 0.1; stroke-width: 0.5px;"/><path class="y2grid crisp" transform="translate(0,106.9983464566929)" d="M396.377194517352,0h298.0493146689996" style="stroke: rgb(0, 0, 0); stroke-opacity: 0.1; stroke-width: 0.5px;"/><path class="y2grid crisp" transform="translate(0,62.258346456692905)" d="M396.377194517352,0h298.0493146689996" style="stroke: rgb(0, 0, 0); stroke-opacity: 0.1; stroke-width: 0.5px;"/></g></g><g class="zerolinelayer"/><g class="layer-between"><g class="shapelayer"/><g class="imagelayer"/></g><path class="xlines-below"/><path class="ylines-below"/><g class="overlines-below"/><g class="xaxislayer-below"/><g class="yaxislayer-below"/><g class="overaxes-below"/><g class="overplot"><g class="x2y2" transform="translate(396.377194517352,24.478346456692904)" clip-path="url(#clip3e99adx2y2plot)"><g class="scatterlayer mlayer"><g class="trace scatter trace3dfa1e" style="stroke-miterlimit: 2; opacity: 1;"><g class="fills"/><g class="errorbars"/><g class="lines"><path class="js-line" d="M8.44,127.27L11.28,111.07L14.12,81.96L16.96,85.66L19.8,107.13L22.64,117.97L25.48,110.61L28.32,93.51L31.16,81.3L34,82.76L36.84,86.68L39.68,66.96L42.52,64.24L48.2,14.87L51.04,20.04L53.88,14.3L56.72,5.83L59.56,26.37L62.4,59.3L65.24,56.28L68.08,57.18L70.92,84.53L73.76,72.38L76.6,75.85L79.44,83.42L82.28,81.62L85.12,103.16L87.96,104.4L90.8,107.5L93.64,113.73L96.48,124.41L99.32,132.18L102.16,114.11L105,95.55L107.84,87.88L110.68,79.42L113.52,79.14L116.36,132.81L119.2,152.97L122.04,142.87L124.88,143.4L127.72,126.69L130.56,126.27L133.4,135.74L136.24,161.23L141.92,110.14L144.76,99.07L147.6,124.35L150.44,112.22L153.28,97.19L156.13,105.94L158.97,74.82L161.81,71.37L164.65,86.76L167.49,89.54L170.33,31.07L173.17,29.39L176.01,33.94L178.85,53.41L181.69,77.71L184.53,39.37L187.37,60.49L190.21,53.66L193.05,79.85L195.89,66.83L198.73,49.5L201.57,49.81L204.41,43.29L207.25,61.41L210.09,56.52L212.93,49.99L215.77,83.92L218.61,105.76L224.29,139L227.13,142.23L229.97,148.33L232.81,122.97L235.65,115.29L238.49,88.27L241.33,89.11L244.17,96.05L247.01,87.75L249.85,65.27L252.69,63L255.53,59.37L258.37,41.97L261.21,49.92L264.05,62.13L266.89,67.87L269.73,76.74L272.57,76.5L275.41,68.05L278.25,91.13L281.09,111.54L283.93,73.23L289.61,97.31" style="vector-effect: none; fill: none; stroke: rgb(173, 216, 230); stroke-opacity: 1; stroke-width: 1px; opacity: 1;"/></g><g class="points"/><g class="text"/></g><g class="trace scatter trace15a7c1" style="stroke-miterlimit: 2; opacity: 1;"><g class="fills"/><g class="errorbars"/><g class="lines"><path class="js-line" d="M8.44,127.27L14.12,153.37L16.96,145.4L19.8,133.98L22.64,150.71L25.48,133.72L28.32,132.66L31.16,118.64L34,110.67L36.84,130.15L39.68,101.19L42.52,118.17L45.36,105.26L48.2,99.49L51.04,85.67L53.88,62.7L56.72,59.51L59.56,55.77L62.4,46.27L68.08,50.8L70.92,72.64L76.6,39.76L79.44,47.13L82.28,54.86L85.12,49.87L87.96,36.37L90.8,38.19L93.64,29.37L96.48,40.89L99.32,42.93L102.16,9.57L105,18.76L107.84,20.1L110.68,19.92L113.52,55.93L116.36,51.34L119.2,49.63L122.04,45.81L124.88,52.47L127.72,53.89L130.56,58L133.4,83.25L136.24,81.88L139.08,82.09L141.92,72.73L144.76,55.54L147.6,44.51L150.44,52.83L153.28,39.09L156.13,23.5L158.97,16.87L161.81,6.06L164.65,50.53L167.49,84.66L170.33,78.15L173.17,69.72L176.01,92.71L178.85,94.46L181.69,77.62L184.53,94.54L187.37,103.41L190.21,58.03L193.05,100.07L195.89,96.2L198.73,62.11L201.57,87.3L204.41,78.38L207.25,72.64L210.09,91.26L212.93,113.15L215.77,124.06L218.61,119.76L221.45,126.3L224.29,108.54L227.13,105.33L229.97,123.51L232.81,110.09L235.65,99.43L238.49,118.34L241.33,170.42L244.17,152.9L247.01,177.45L249.85,174.6L252.69,150.01L255.53,158.87L258.37,170.71L261.21,200.08L264.05,157.56L266.89,180.16L269.73,158.86L272.57,125.49L275.41,95.23L278.25,75.55L283.93,39.78L286.77,36.09L289.61,85.47" style="vector-effect: none; fill: none; stroke: rgb(0, 0, 139); stroke-opacity: 1; stroke-width: 1px; opacity: 1;"/></g><g class="points"/><g class="text"/></g><g class="trace scatter trace80720c" style="stroke-miterlimit: 2; opacity: 1;"><g class="fills"/><g class="errorbars"/><g class="lines"><path class="js-line" d="M8.44,127.27L11.28,161.41L14.12,158.75L16.96,157.69L19.8,169.95L22.64,185.16L25.48,173.73L28.32,165.23L31.16,167.55L34,181.88L36.84,137.4L39.68,104.9L42.52,97.43L45.36,103.08L48.2,98.67L53.88,175.57L56.72,163.71L59.56,137.13L62.4,122.68L65.24,140.98L68.08,152.89L70.92,144.37L73.76,160.41L76.6,136.4L79.44,138.15L82.28,109.98L85.12,104.8L87.96,112.92L90.8,90.66L93.64,77.03L96.48,76.12L99.32,63.96L102.16,57.98L105,72.22L107.84,69.57L110.68,93.01L113.52,92.51L116.36,102.24L119.2,95.28L124.88,117.22L127.72,109.12L130.56,115.53L133.4,125.4L136.24,109.58L139.08,111.57L141.92,125.78L144.76,132.6L147.6,135.85L150.44,129.9L153.28,120.49L156.13,128.61L158.97,142.1L161.81,160.28L167.49,103.76L170.33,113.63L173.17,162.02L176.01,160.97L181.69,180.65L184.53,151.57L187.37,131.71L190.21,136.58L193.05,144.69L195.89,128.94L198.73,127.15L201.57,126.5L204.41,137.59L207.25,158.57L210.09,172.43L212.93,157.88L215.77,138.19L218.61,152.92L221.45,158.94L224.29,156.15L227.13,158.29L229.97,173.3L232.81,164.35L235.65,174.36L238.49,175.9L241.33,162.67L244.17,181.41L247.01,154.92L249.85,166.56L252.69,150.82L255.53,162.09L258.37,126.14L261.21,145.42L264.05,134.67L266.89,130.54L269.73,146.84L272.57,156.64L275.41,181.71L281.09,145.97L283.93,148.44L286.77,144.48L289.61,136.05" style="vector-effect: none; fill: none; stroke: rgb(86, 108, 184); stroke-opacity: 1; stroke-width: 1px; opacity: 1;"/></g><g class="points"/><g class="text"/></g></g></g></g><path class="xlines-above crisp" d="M395.377194517352,230.88276465441822H694.4265091863516" style="fill: none; stroke-width: 1px; stroke: rgb(0, 0, 0); stroke-opacity: 1;"/><path class="ylines-above crisp" d="M395.877194517352,24.478346456692904V230.38276465441822" style="fill: none; stroke-width: 1px; stroke: rgb(0, 0, 0); stroke-opacity: 1;"/><g class="overlines-above"/><g class="xaxislayer-above"><path class="x2tick ticks crisp" d="M0,230.38276465441822v-5" transform="translate(401.977194517352,0)" style="stroke: rgb(0, 0, 0); stroke-opacity: 1; stroke-width: 1px;"/><path class="x2tick ticks crisp" d="M0,230.38276465441822v-5" transform="translate(472.977194517352,0)" style="stroke: rgb(0, 0, 0); stroke-opacity: 1; stroke-width: 1px;"/><path class="x2tick ticks crisp" d="M0,230.38276465441822v-5" transform="translate(543.977194517352,0)" style="stroke: rgb(0, 0, 0); stroke-opacity: 1; stroke-width: 1px;"/><path class="x2tick ticks crisp" d="M0,230.38276465441822v-5" transform="translate(614.987194517352,0)" style="stroke: rgb(0, 0, 0); stroke-opacity: 1; stroke-width: 1px;"/><path class="x2tick ticks crisp" d="M0,230.38276465441822v-5" transform="translate(685.987194517352,0)" style="stroke: rgb(0, 0, 0); stroke-opacity: 1; stroke-width: 1px;"/><g class="x2tick"><text text-anchor="middle" x="0" y="244.5827646544182" transform="translate(401.977194517352,0)" style="font-family: sans-serif; font-size: 11px; fill: rgb(0, 0, 0); fill-opacity: 1; white-space: pre; opacity: 1;">0</text></g><g class="x2tick"><text text-anchor="middle" x="0" y="244.5827646544182" style="font-family: sans-serif; font-size: 11px; fill: rgb(0, 0, 0); fill-opacity: 1; white-space: pre; opacity: 1;" transform="translate(472.977194517352,0)">25</text></g><g class="x2tick"><text text-anchor="middle" x="0" y="244.5827646544182" style="font-family: sans-serif; font-size: 11px; fill: rgb(0, 0, 0); fill-opacity: 1; white-space: pre; opacity: 1;" transform="translate(543.977194517352,0)">50</text></g><g class="x2tick"><text text-anchor="middle" x="0" y="244.5827646544182" style="font-family: sans-serif; font-size: 11px; fill: rgb(0, 0, 0); fill-opacity: 1; white-space: pre; opacity: 1;" transform="translate(614.987194517352,0)">75</text></g><g class="x2tick"><text text-anchor="middle" x="0" y="244.5827646544182" style="font-family: sans-serif; font-size: 11px; fill: rgb(0, 0, 0); fill-opacity: 1; white-space: pre; opacity: 1;" transform="translate(685.987194517352,0)">100</text></g></g><g class="yaxislayer-above"><path class="y2tick ticks crisp" d="M396.377194517352,0h5" transform="translate(0,196.4883464566929)" style="stroke: rgb(0, 0, 0); stroke-opacity: 1; stroke-width: 1px;"/><path class="y2tick ticks crisp" d="M396.377194517352,0h5" transform="translate(0,151.7483464566929)" style="stroke: rgb(0, 0, 0); stroke-opacity: 1; stroke-width: 1px;"/><path class="y2tick ticks crisp" d="M396.377194517352,0h5" transform="translate(0,106.9983464566929)" style="stroke: rgb(0, 0, 0); stroke-opacity: 1; stroke-width: 1px;"/><path class="y2tick ticks crisp" d="M396.377194517352,0h5" transform="translate(0,62.258346456692905)" style="stroke: rgb(0, 0, 0); stroke-opacity: 1; stroke-width: 1px;"/><g class="y2tick"><text text-anchor="end" x="393.177194517352" y="3.8499999999999996" transform="translate(0,196.4883464566929)" style="font-family: sans-serif; font-size: 11px; fill: rgb(0, 0, 0); fill-opacity: 1; white-space: pre; opacity: 1;">-2.5</text></g><g class="y2tick"><text text-anchor="end" x="393.177194517352" y="3.8499999999999996" style="font-family: sans-serif; font-size: 11px; fill: rgb(0, 0, 0); fill-opacity: 1; white-space: pre; opacity: 1;" transform="translate(0,151.7483464566929)">0.0</text></g><g class="y2tick"><text text-anchor="end" x="393.177194517352" y="3.8499999999999996" style="font-family: sans-serif; font-size: 11px; fill: rgb(0, 0, 0); fill-opacity: 1; white-space: pre; opacity: 1;" transform="translate(0,106.9983464566929)">2.5</text></g><g class="y2tick"><text text-anchor="end" x="393.177194517352" y="3.8499999999999996" style="font-family: sans-serif; font-size: 11px; fill: rgb(0, 0, 0); fill-opacity: 1; white-space: pre; opacity: 1;" transform="translate(0,62.258346456692905)">5.0</text></g></g><g class="overaxes-above"/></g><g class="subplot x3y3"><g class="layer-subplot"><g class="shapelayer"/><g class="imagelayer"/></g><g class="minor-gridlayer"><g class="x3"/><g class="y3"/></g><g class="gridlayer"><g class="x3"><path class="x3grid crisp" transform="translate(53.477194517352,0)" d="M0,251.97834645669292v205.90441819772528" style="stroke: rgb(0, 0, 0); stroke-opacity: 0.1; stroke-width: 0.5px;"/><path class="x3grid crisp" transform="translate(124.47719451735199,0)" d="M0,251.97834645669292v205.90441819772528" style="stroke: rgb(0, 0, 0); stroke-opacity: 0.1; stroke-width: 0.5px;"/><path class="x3grid crisp" transform="translate(195.477194517352,0)" d="M0,251.97834645669292v205.90441819772528" style="stroke: rgb(0, 0, 0); stroke-opacity: 0.1; stroke-width: 0.5px;"/><path class="x3grid crisp" transform="translate(266.487194517352,0)" d="M0,251.97834645669292v205.90441819772528" style="stroke: rgb(0, 0, 0); stroke-opacity: 0.1; stroke-width: 0.5px;"/><path class="x3grid crisp" transform="translate(337.487194517352,0)" d="M0,251.97834645669292v205.90441819772528" style="stroke: rgb(0, 0, 0); stroke-opacity: 0.1; stroke-width: 0.5px;"/></g><g class="y3"><path class="y3grid crisp" transform="translate(0,449.8183464566929)" d="M47.877194517351995,0h298.04931466899967" style="stroke: rgb(0, 0, 0); stroke-opacity: 0.1; stroke-width: 0.5px;"/><path class="y3grid crisp" transform="translate(0,388.5583464566929)" d="M47.877194517351995,0h298.04931466899967" style="stroke: rgb(0, 0, 0); stroke-opacity: 0.1; stroke-width: 0.5px;"/><path class="y3grid crisp" transform="translate(0,327.2983464566929)" d="M47.877194517351995,0h298.04931466899967" style="stroke: rgb(0, 0, 0); stroke-opacity: 0.1; stroke-width: 0.5px;"/><path class="y3grid crisp" transform="translate(0,266.02834645669293)" d="M47.877194517351995,0h298.04931466899967" style="stroke: rgb(0, 0, 0); stroke-opacity: 0.1; stroke-width: 0.5px;"/></g></g><g class="zerolinelayer"/><g class="layer-between"><g class="shapelayer"/><g class="imagelayer"/></g><path class="xlines-below"/><path class="ylines-below"/><g class="overlines-below"/><g class="xaxislayer-below"/><g class="yaxislayer-below"/><g class="overaxes-below"/><g class="overplot"><g class="x3y3" transform="translate(47.877194517351995,251.97834645669292)" clip-path="url(#clip3e99adx3y3plot)"><g class="scatterlayer mlayer"><g class="trace scatter tracefbabf4" style="stroke-miterlimit: 2; opacity: 1;"><g class="fills"/><g class="errorbars"/><g class="lines"><path class="js-line" d="M8.44,75.32L11.28,95.85L14.12,96.6L16.96,107.19L19.8,103.45L22.64,116.73L25.48,109.64L28.32,93.57L31.16,99.58L34,98.22L36.84,105.55L39.68,97.59L42.52,126.53L48.2,99.04L51.04,119.43L53.88,124.25L56.72,109.22L59.56,111.67L62.4,112.27L65.24,112.5L68.08,128.58L70.92,120.6L73.76,126.74L76.6,130.27L79.44,117.74L82.28,113.5L85.12,88.92L87.96,103.22L90.8,93.93L93.64,85.08L96.48,86.81L99.32,83.9L102.16,73.19L105,92.04L107.84,102.97L110.68,91.61L113.52,95.67L116.36,91.79L119.2,83L122.04,79.01L124.88,88.84L127.72,83.04L130.56,86.28L133.4,91.65L136.24,93.8L139.08,111.59L141.92,118.52L144.76,120.34L147.6,117.11L150.44,135.58L153.28,142.46L156.13,137.61L158.97,150.97L161.81,143.63L164.65,146.36L167.49,129.57L170.33,130.56L173.17,143.9L176.01,140.05L178.85,134.22L181.69,110.17L184.53,122.87L187.37,124.58L190.21,112.82L193.05,130.33L195.89,141.28L198.73,138.94L201.57,128.51L204.41,130.85L207.25,112.23L210.09,126L212.93,125.56L215.77,123.09L218.61,148.46L221.45,166.11L224.29,176.76L227.13,165.77L229.97,178.58L232.81,184.77L235.65,200.08L238.49,175.47L241.33,179.93L244.17,179.75L247.01,160.55L249.85,160.31L252.69,146.81L255.53,124.66L261.21,117.94L264.05,110.41L266.89,102.31L269.73,101.56L272.57,107.96L275.41,127.81L278.25,114.6L281.09,112.27L283.93,124.98L286.77,114.96L289.61,108.02" style="vector-effect: none; fill: none; stroke: rgb(255, 255, 224); stroke-opacity: 1; stroke-width: 1px; opacity: 1;"/></g><g class="points"/><g class="text"/></g><g class="trace scatter traceceb5d7" style="stroke-miterlimit: 2; opacity: 1;"><g class="fills"/><g class="errorbars"/><g class="lines"><path class="js-line" d="M8.44,75.32L11.28,74.19L14.12,69.08L16.96,57.41L19.8,62.05L22.64,70.5L25.48,72.64L28.32,46.68L31.16,54.89L34,39.93L36.84,34.34L39.68,41.85L42.52,53.92L45.36,33.98L48.2,34.54L51.04,15.8L53.88,25.22L59.56,65.07L62.4,68.19L65.24,63.75L68.08,57.14L70.92,49L73.76,71.62L76.6,52.23L79.44,46.3L82.28,76.86L85.12,68.59L87.96,94.34L90.8,77.89L93.64,67.51L96.48,53.76L99.32,46.13L102.16,54.57L105,49.12L107.84,60.54L110.68,44.03L113.52,50.83L119.2,55L122.04,68.85L124.88,77.62L127.72,60.11L130.56,58.43L133.4,82.05L136.24,93.96L139.08,85.67L141.92,68.96L144.76,64.33L147.6,49.88L150.44,56.3L153.28,66.43L156.13,65.05L158.97,61.4L161.81,45.62L164.65,39.48L167.49,50.18L170.33,53.87L173.17,60L176.01,77.44L178.85,85.52L181.69,67.31L184.53,71.52L187.37,54.19L190.21,56.96L193.05,53.24L195.89,62.2L198.73,90.21L201.57,90.83L204.41,86.11L207.25,92L210.09,101.99L212.93,81.33L218.61,95.82L221.45,88.68L224.29,88.75L227.13,100.99L229.97,90L232.81,82.95L235.65,76.62L238.49,77.73L241.33,85.4L244.17,76.21L247.01,66.96L249.85,39.95L252.69,52.94L255.53,32.92L258.37,41.08L261.21,41.51L266.89,52.33L269.73,19.17L272.57,14.28L275.41,14.07L278.25,5.83L281.09,22.03L286.77,50.57L289.61,43.69" style="vector-effect: none; fill: none; stroke: rgb(139, 0, 0); stroke-opacity: 1; stroke-width: 1px; opacity: 1;"/></g><g class="points"/><g class="text"/></g></g></g></g><path class="xlines-above crisp" d="M46.877194517351995,458.3827646544182H345.92650918635167" style="fill: none; stroke-width: 1px; stroke: rgb(0, 0, 0); stroke-opacity: 1;"/><path class="ylines-above crisp" d="M47.377194517351995,251.97834645669292V457.8827646544182" style="fill: none; stroke-width: 1px; stroke: rgb(0, 0, 0); stroke-opacity: 1;"/><g class="overlines-above"/><g class="xaxislayer-above"><path class="x3tick ticks crisp" d="M0,457.8827646544182v-5" transform="translate(53.477194517352,0)" style="stroke: rgb(0, 0, 0); stroke-opacity: 1; stroke-width: 1px;"/><path class="x3tick ticks crisp" d="M0,457.8827646544182v-5" transform="translate(124.47719451735199,0)" style="stroke: rgb(0, 0, 0); stroke-opacity: 1; stroke-width: 1px;"/><path class="x3tick ticks crisp" d="M0,457.8827646544182v-5" transform="translate(195.477194517352,0)" style="stroke: rgb(0, 0, 0); stroke-opacity: 1; stroke-width: 1px;"/><path class="x3tick ticks crisp" d="M0,457.8827646544182v-5" transform="translate(266.487194517352,0)" style="stroke: rgb(0, 0, 0); stroke-opacity: 1; stroke-width: 1px;"/><path class="x3tick ticks crisp" d="M0,457.8827646544182v-5" transform="translate(337.487194517352,0)" style="stroke: rgb(0, 0, 0); stroke-opacity: 1; stroke-width: 1px;"/><g class="x3tick"><text text-anchor="middle" x="0" y="472.0827646544182" transform="translate(53.477194517352,0)" style="font-family: sans-serif; font-size: 11px; fill: rgb(0, 0, 0); fill-opacity: 1; white-space: pre; opacity: 1;">0</text></g><g class="x3tick"><text text-anchor="middle" x="0" y="472.0827646544182" style="font-family: sans-serif; font-size: 11px; fill: rgb(0, 0, 0); fill-opacity: 1; white-space: pre; opacity: 1;" transform="translate(124.47719451735199,0)">25</text></g><g class="x3tick"><text text-anchor="middle" x="0" y="472.0827646544182" style="font-family: sans-serif; font-size: 11px; fill: rgb(0, 0, 0); fill-opacity: 1; white-space: pre; opacity: 1;" transform="translate(195.477194517352,0)">50</text></g><g class="x3tick"><text text-anchor="middle" x="0" y="472.0827646544182" style="font-family: sans-serif; font-size: 11px; fill: rgb(0, 0, 0); fill-opacity: 1; white-space: pre; opacity: 1;" transform="translate(266.487194517352,0)">75</text></g><g class="x3tick"><text text-anchor="middle" x="0" y="472.0827646544182" style="font-family: sans-serif; font-size: 11px; fill: rgb(0, 0, 0); fill-opacity: 1; white-space: pre; opacity: 1;" transform="translate(337.487194517352,0)">100</text></g></g><g class="yaxislayer-above"><path class="y3tick ticks crisp" d="M47.877194517351995,0h5" transform="translate(0,449.8183464566929)" style="stroke: rgb(0, 0, 0); stroke-opacity: 1; stroke-width: 1px;"/><path class="y3tick ticks crisp" d="M47.877194517351995,0h5" transform="translate(0,388.5583464566929)" style="stroke: rgb(0, 0, 0); stroke-opacity: 1; stroke-width: 1px;"/><path class="y3tick ticks crisp" d="M47.877194517351995,0h5" transform="translate(0,327.2983464566929)" style="stroke: rgb(0, 0, 0); stroke-opacity: 1; stroke-width: 1px;"/><path class="y3tick ticks crisp" d="M47.877194517351995,0h5" transform="translate(0,266.02834645669293)" style="stroke: rgb(0, 0, 0); stroke-opacity: 1; stroke-width: 1px;"/><g class="y3tick"><text text-anchor="end" x="44.67719451735199" y="3.8499999999999996" transform="translate(0,449.8183464566929)" style="font-family: sans-serif; font-size: 11px; fill: rgb(0, 0, 0); fill-opacity: 1; white-space: pre; opacity: 1;">-10</text></g><g class="y3tick"><text text-anchor="end" x="44.67719451735199" y="3.8499999999999996" style="font-family: sans-serif; font-size: 11px; fill: rgb(0, 0, 0); fill-opacity: 1; white-space: pre; opacity: 1;" transform="translate(0,388.5583464566929)">-5</text></g><g class="y3tick"><text text-anchor="end" x="44.67719451735199" y="3.8499999999999996" style="font-family: sans-serif; font-size: 11px; fill: rgb(0, 0, 0); fill-opacity: 1; white-space: pre; opacity: 1;" transform="translate(0,327.2983464566929)">0</text></g><g class="y3tick"><text text-anchor="end" x="44.67719451735199" y="3.8499999999999996" style="font-family: sans-serif; font-size: 11px; fill: rgb(0, 0, 0); fill-opacity: 1; white-space: pre; opacity: 1;" transform="translate(0,266.02834645669293)">5</text></g></g><g class="overaxes-above"/></g><g class="subplot x4y4"><g class="layer-subplot"><g class="shapelayer"/><g class="imagelayer"/></g><g class="minor-gridlayer"><g class="x4"/><g class="y4"/></g><g class="gridlayer"><g class="x4"><path class="x4grid crisp" transform="translate(401.977194517352,0)" d="M0,251.97834645669292v205.90441819772528" style="stroke: rgb(0, 0, 0); stroke-opacity: 0.1; stroke-width: 0.5px;"/><path class="x4grid crisp" transform="translate(472.977194517352,0)" d="M0,251.97834645669292v205.90441819772528" style="stroke: rgb(0, 0, 0); stroke-opacity: 0.1; stroke-width: 0.5px;"/><path class="x4grid crisp" transform="translate(543.977194517352,0)" d="M0,251.97834645669292v205.90441819772528" style="stroke: rgb(0, 0, 0); stroke-opacity: 0.1; stroke-width: 0.5px;"/><path class="x4grid crisp" transform="translate(614.987194517352,0)" d="M0,251.97834645669292v205.90441819772528" style="stroke: rgb(0, 0, 0); stroke-opacity: 0.1; stroke-width: 0.5px;"/><path class="x4grid crisp" transform="translate(685.987194517352,0)" d="M0,251.97834645669292v205.90441819772528" style="stroke: rgb(0, 0, 0); stroke-opacity: 0.1; stroke-width: 0.5px;"/></g><g class="y4"><path class="y4grid crisp" transform="translate(0,418.0583464566929)" d="M396.377194517352,0h298.0493146689996" style="stroke: rgb(0, 0, 0); stroke-opacity: 0.1; stroke-width: 0.5px;"/><path class="y4grid crisp" transform="translate(0,376.3283464566929)" d="M396.377194517352,0h298.0493146689996" style="stroke: rgb(0, 0, 0); stroke-opacity: 0.1; stroke-width: 0.5px;"/><path class="y4grid crisp" transform="translate(0,334.5983464566929)" d="M396.377194517352,0h298.0493146689996" style="stroke: rgb(0, 0, 0); stroke-opacity: 0.1; stroke-width: 0.5px;"/><path class="y4grid crisp" transform="translate(0,292.8683464566929)" d="M396.377194517352,0h298.0493146689996" style="stroke: rgb(0, 0, 0); stroke-opacity: 0.1; stroke-width: 0.5px;"/></g></g><g class="zerolinelayer"/><g class="layer-between"><g class="shapelayer"/><g class="imagelayer"/></g><path class="xlines-below"/><path class="ylines-below"/><g class="overlines-below"/><g class="xaxislayer-below"/><g class="yaxislayer-below"/><g class="overaxes-below"/><g class="overplot"><g class="x4y4" transform="translate(396.377194517352,251.97834645669292)" clip-path="url(#clip3e99adx4y4plot)"><g class="scatterlayer mlayer"><g class="trace scatter traceece637" style="stroke-miterlimit: 2; opacity: 1;"><g class="fills"/><g class="errorbars"/><g class="lines"><path class="js-line" d="M8.44,82.62L11.28,104.23L14.12,109.96L16.96,110.43L19.8,91.31L22.64,100.55L25.48,124.43L28.32,120.74L31.16,124.86L34,157.6L36.84,133.75L39.68,135.91L42.52,146.76L45.36,136.2L48.2,119.94L51.04,119.88L53.88,112.89L56.72,106.54L59.56,110.97L62.4,110.34L65.24,91L68.08,101.07L70.92,74.96L73.76,77.26L76.6,47.4L79.44,65.58L82.28,52.23L85.12,38.97L87.96,64.74L93.64,77.57L96.48,100.41L99.32,100.54L102.16,113.42L105,128.98L107.84,107.02L110.68,132.37L113.52,136.17L116.36,161.95L119.2,200.08L122.04,150.05L124.88,158.84L127.72,128.9L130.56,150.54L133.4,139.91L136.24,162.63L139.08,156.15L141.92,128.89L144.76,141.02L147.6,128.97L150.44,112.66L153.28,110.7L156.13,120.17L158.97,156.69L161.81,147.56L164.65,148.05L167.49,191.77L170.33,179.25L173.17,172.98L176.01,162.68L178.85,146.44L181.69,171.54L184.53,157.05L187.37,134.38L193.05,123.42L195.89,130.36L198.73,112.1L201.57,114.51L204.41,78.18L207.25,59.9L210.09,80.49L212.93,67.92L215.77,79.1L218.61,100.52L221.45,130.15L224.29,119.84L227.13,140.59L229.97,138.51L232.81,125.71L235.65,130.17L238.49,158.9L241.33,138.22L244.17,146.04L247.01,162.69L249.85,189.51L252.69,187.66L255.53,184.1L258.37,160.42L261.21,159.59L264.05,142.78L266.89,98.4L269.73,90.73L272.57,103.61L275.41,108.34L278.25,87.49L281.09,81.86L283.93,82.1L286.77,71.44L289.61,62.19" style="vector-effect: none; fill: none; stroke: rgb(204, 76, 204); stroke-opacity: 1; stroke-width: 1px; opacity: 1;"/></g><g class="points"/><g class="text"/></g><g class="trace scatter tracecb740e" style="stroke-miterlimit: 2; opacity: 1;"><g class="fills"/><g class="errorbars"/><g class="lines"><path class="js-line" d="M8.44,82.62L11.28,84.12L14.12,72.8L16.96,94.1L19.8,94.01L22.64,85.48L25.48,103.23L28.32,66.87L31.16,62.97L34,49.92L36.84,50.35L39.68,41.98L42.52,27.3L45.36,27.35L48.2,31.51L51.04,45.32L53.88,65.83L56.72,71L59.56,42.2L62.4,65.3L65.24,41.35L68.08,44.33L70.92,22.86L73.76,40.48L76.6,44.21L79.44,36.88L82.28,32.94L85.12,61.44L87.96,79.16L90.8,96.22L93.64,96.9L96.48,128.87L99.32,110.34L102.16,109.92L105,113.31L107.84,95.73L110.68,89.9L113.52,102.51L116.36,108.21L119.2,116.93L122.04,85.09L124.88,89.33L127.72,127.87L130.56,117.09L133.4,110.12L136.24,99.75L139.08,122.56L141.92,117.47L144.76,130.24L147.6,127.89L150.44,105.54L153.28,104.36L156.13,86.08L158.97,70.05L161.81,59.65L164.65,63.72L167.49,63.16L170.33,65.62L173.17,50.39L176.01,59.83L178.85,60.67L181.69,74.11L184.53,52.68L187.37,20.03L190.21,18.08L193.05,13.13L195.89,45.2L198.73,30.7L201.57,48.42L204.41,46.95L207.25,53.98L210.09,48.58L212.93,50.16L215.77,53.18L218.61,42.41L224.29,99.76L227.13,86.42L229.97,100.41L232.81,93.93L235.65,81.48L238.49,114.88L241.33,116.79L244.17,104.57L247.01,87.27L249.85,85.14L252.69,73.78L255.53,39.45L258.37,37.79L261.21,38.34L266.89,10.15L269.73,19.5L272.57,5.83L275.41,13.97L278.25,44.29L281.09,48.68L283.93,90.25L286.77,68.87L289.61,85.11" style="vector-effect: none; fill: none; stroke: rgb(255, 76, 76); stroke-opacity: 1; stroke-width: 1px; opacity: 1;"/></g><g class="points"/><g class="text"/></g></g></g></g><path class="xlines-above crisp" d="M395.377194517352,458.3827646544182H694.4265091863516" style="fill: none; stroke-width: 1px; stroke: rgb(0, 0, 0); stroke-opacity: 1;"/><path class="ylines-above crisp" d="M395.877194517352,251.97834645669292V457.8827646544182" style="fill: none; stroke-width: 1px; stroke: rgb(0, 0, 0); stroke-opacity: 1;"/><g class="overlines-above"/><g class="xaxislayer-above"><path class="x4tick ticks crisp" d="M0,457.8827646544182v-5" transform="translate(401.977194517352,0)" style="stroke: rgb(0, 0, 0); stroke-opacity: 1; stroke-width: 1px;"/><path class="x4tick ticks crisp" d="M0,457.8827646544182v-5" transform="translate(472.977194517352,0)" style="stroke: rgb(0, 0, 0); stroke-opacity: 1; stroke-width: 1px;"/><path class="x4tick ticks crisp" d="M0,457.8827646544182v-5" transform="translate(543.977194517352,0)" style="stroke: rgb(0, 0, 0); stroke-opacity: 1; stroke-width: 1px;"/><path class="x4tick ticks crisp" d="M0,457.8827646544182v-5" transform="translate(614.987194517352,0)" style="stroke: rgb(0, 0, 0); stroke-opacity: 1; stroke-width: 1px;"/><path class="x4tick ticks crisp" d="M0,457.8827646544182v-5" transform="translate(685.987194517352,0)" style="stroke: rgb(0, 0, 0); stroke-opacity: 1; stroke-width: 1px;"/><g class="x4tick"><text text-anchor="middle" x="0" y="472.0827646544182" transform="translate(401.977194517352,0)" style="font-family: sans-serif; font-size: 11px; fill: rgb(0, 0, 0); fill-opacity: 1; white-space: pre; opacity: 1;">0</text></g><g class="x4tick"><text text-anchor="middle" x="0" y="472.0827646544182" style="font-family: sans-serif; font-size: 11px; fill: rgb(0, 0, 0); fill-opacity: 1; white-space: pre; opacity: 1;" transform="translate(472.977194517352,0)">25</text></g><g class="x4tick"><text text-anchor="middle" x="0" y="472.0827646544182" style="font-family: sans-serif; font-size: 11px; fill: rgb(0, 0, 0); fill-opacity: 1; white-space: pre; opacity: 1;" transform="translate(543.977194517352,0)">50</text></g><g class="x4tick"><text text-anchor="middle" x="0" y="472.0827646544182" style="font-family: sans-serif; font-size: 11px; fill: rgb(0, 0, 0); fill-opacity: 1; white-space: pre; opacity: 1;" transform="translate(614.987194517352,0)">75</text></g><g class="x4tick"><text text-anchor="middle" x="0" y="472.0827646544182" style="font-family: sans-serif; font-size: 11px; fill: rgb(0, 0, 0); fill-opacity: 1; white-space: pre; opacity: 1;" transform="translate(685.987194517352,0)">100</text></g></g><g class="yaxislayer-above"><path class="y4tick ticks crisp" d="M396.377194517352,0h5" transform="translate(0,418.0583464566929)" style="stroke: rgb(0, 0, 0); stroke-opacity: 1; stroke-width: 1px;"/><path class="y4tick ticks crisp" d="M396.377194517352,0h5" transform="translate(0,376.3283464566929)" style="stroke: rgb(0, 0, 0); stroke-opacity: 1; stroke-width: 1px;"/><path class="y4tick ticks crisp" d="M396.377194517352,0h5" transform="translate(0,334.5983464566929)" style="stroke: rgb(0, 0, 0); stroke-opacity: 1; stroke-width: 1px;"/><path class="y4tick ticks crisp" d="M396.377194517352,0h5" transform="translate(0,292.8683464566929)" style="stroke: rgb(0, 0, 0); stroke-opacity: 1; stroke-width: 1px;"/><g class="y4tick"><text text-anchor="end" x="393.177194517352" y="3.8499999999999996" transform="translate(0,418.0583464566929)" style="font-family: sans-serif; font-size: 11px; fill: rgb(0, 0, 0); fill-opacity: 1; white-space: pre; opacity: 1;">-5.0</text></g><g class="y4tick"><text text-anchor="end" x="393.177194517352" y="3.8499999999999996" style="font-family: sans-serif; font-size: 11px; fill: rgb(0, 0, 0); fill-opacity: 1; white-space: pre; opacity: 1;" transform="translate(0,376.3283464566929)">-2.5</text></g><g class="y4tick"><text text-anchor="end" x="393.177194517352" y="3.8499999999999996" style="font-family: sans-serif; font-size: 11px; fill: rgb(0, 0, 0); fill-opacity: 1; white-space: pre; opacity: 1;" transform="translate(0,334.5983464566929)">0.0</text></g><g class="y4tick"><text text-anchor="end" x="393.177194517352" y="3.8499999999999996" style="font-family: sans-serif; font-size: 11px; fill: rgb(0, 0, 0); fill-opacity: 1; white-space: pre; opacity: 1;" transform="translate(0,292.8683464566929)">2.5</text></g></g><g class="overaxes-above"/></g></g><g class="polarlayer"/><g class="smithlayer"/><g class="ternarylayer"/><g class="geolayer"/><g class="funnelarealayer"/><g class="pielayer"/><g class="iciclelayer"/><g class="treemaplayer"/><g class="sunburstlayer"/><g class="glimages"/><defs id="topdefs-3e99ad"><g class="clips"/><clipPath id="legend3e99ad"><rect width="63" height="200" x="1" y="1"/></clipPath></defs><g class="layer-above"><g class="imagelayer"/><g class="shapelayer"/></g><g class="infolayer"><g class="legend" pointer-events="all" transform="translate(634,20)"><rect class="bg" shape-rendering="crispEdges" style="stroke: rgb(0, 0, 0); stroke-opacity: 1; fill: rgb(255, 255, 255); fill-opacity: 1; stroke-width: 1px;" width="64" height="201" x="0.5" y="0.5"/><g class="scrollbox" transform="" clip-path="url(#legend3e99ad)"><g class="groups"><g class="traces" transform="translate(1,15.5)" style="opacity: 1;"><text class="legendtext" text-anchor="start" x="40" y="4.29" style="font-family: sans-serif; font-size: 11px; fill: rgb(0, 0, 0); fill-opacity: 1; white-space: pre;">y1</text><g class="layers" style="opacity: 1;"><g class="legendfill"/><g class="legendlines"><path class="js-line" d="M5,0h30" style="fill: none; stroke: rgb(13, 13, 13); stroke-opacity: 1; stroke-width: 1px;"/></g><g class="legendsymbols"><g class="legendpoints"/></g></g><rect class="legendtoggle" x="0" y="-9.5" width="57.75" height="19" style="fill: rgb(0, 0, 0); fill-opacity: 0;"/></g><g class="traces" transform="translate(1,34.5)" style="opacity: 1;"><text class="legendtext" text-anchor="start" x="40" y="4.29" style="font-family: sans-serif; font-size: 11px; fill: rgb(0, 0, 0); fill-opacity: 1; white-space: pre;">y2</text><g class="layers" style="opacity: 1;"><g class="legendfill"/><g class="legendlines"><path class="js-line" d="M5,0h30" style="fill: none; stroke: rgb(173, 216, 230); stroke-opacity: 1; stroke-width: 1px;"/></g><g class="legendsymbols"><g class="legendpoints"/></g></g><rect class="legendtoggle" x="0" y="-9.5" width="57.75" height="19" style="fill: rgb(0, 0, 0); fill-opacity: 0;"/></g><g class="traces" transform="translate(1,53.5)" style="opacity: 1;"><text class="legendtext" text-anchor="start" x="40" y="4.29" style="font-family: sans-serif; font-size: 11px; fill: rgb(0, 0, 0); fill-opacity: 1; white-space: pre;">y3</text><g class="layers" style="opacity: 1;"><g class="legendfill"/><g class="legendlines"><path class="js-line" d="M5,0h30" style="fill: none; stroke: rgb(255, 255, 224); stroke-opacity: 1; stroke-width: 1px;"/></g><g class="legendsymbols"><g class="legendpoints"/></g></g><rect class="legendtoggle" x="0" y="-9.5" width="57.75" height="19" style="fill: rgb(0, 0, 0); fill-opacity: 0;"/></g><g class="traces" transform="translate(1,72.5)" style="opacity: 1;"><text class="legendtext" text-anchor="start" x="40" y="4.29" style="font-family: sans-serif; font-size: 11px; fill: rgb(0, 0, 0); fill-opacity: 1; white-space: pre;">y4</text><g class="layers" style="opacity: 1;"><g class="legendfill"/><g class="legendlines"><path class="js-line" d="M5,0h30" style="fill: none; stroke: rgb(204, 76, 204); stroke-opacity: 1; stroke-width: 1px;"/></g><g class="legendsymbols"><g class="legendpoints"/></g></g><rect class="legendtoggle" x="0" y="-9.5" width="57.75" height="19" style="fill: rgb(0, 0, 0); fill-opacity: 0;"/></g><g class="traces" transform="translate(1,91.5)" style="opacity: 1;"><text class="legendtext" text-anchor="start" x="40" y="4.29" style="font-family: sans-serif; font-size: 11px; fill: rgb(0, 0, 0); fill-opacity: 1; white-space: pre;">y5</text><g class="layers" style="opacity: 1;"><g class="legendfill"/><g class="legendlines"><path class="js-line" d="M5,0h30" style="fill: none; stroke: rgb(242, 242, 242); stroke-opacity: 1; stroke-width: 1px;"/></g><g class="legendsymbols"><g class="legendpoints"/></g></g><rect class="legendtoggle" x="0" y="-9.5" width="57.75" height="19" style="fill: rgb(0, 0, 0); fill-opacity: 0;"/></g><g class="traces" transform="translate(1,110.5)" style="opacity: 1;"><text class="legendtext" text-anchor="start" x="40" y="4.29" style="font-family: sans-serif; font-size: 11px; fill: rgb(0, 0, 0); fill-opacity: 1; white-space: pre;">y6</text><g class="layers" style="opacity: 1;"><g class="legendfill"/><g class="legendlines"><path class="js-line" d="M5,0h30" style="fill: none; stroke: rgb(0, 0, 139); stroke-opacity: 1; stroke-width: 1px;"/></g><g class="legendsymbols"><g class="legendpoints"/></g></g><rect class="legendtoggle" x="0" y="-9.5" width="57.75" height="19" style="fill: rgb(0, 0, 0); fill-opacity: 0;"/></g><g class="traces" transform="translate(1,129.5)" style="opacity: 1;"><text class="legendtext" text-anchor="start" x="40" y="4.29" style="font-family: sans-serif; font-size: 11px; fill: rgb(0, 0, 0); fill-opacity: 1; white-space: pre;">y7</text><g class="layers" style="opacity: 1;"><g class="legendfill"/><g class="legendlines"><path class="js-line" d="M5,0h30" style="fill: none; stroke: rgb(139, 0, 0); stroke-opacity: 1; stroke-width: 1px;"/></g><g class="legendsymbols"><g class="legendpoints"/></g></g><rect class="legendtoggle" x="0" y="-9.5" width="57.75" height="19" style="fill: rgb(0, 0, 0); fill-opacity: 0;"/></g><g class="traces" transform="translate(1,148.5)" style="opacity: 1;"><text class="legendtext" text-anchor="start" x="40" y="4.29" style="font-family: sans-serif; font-size: 11px; fill: rgb(0, 0, 0); fill-opacity: 1; white-space: pre;">y8</text><g class="layers" style="opacity: 1;"><g class="legendfill"/><g class="legendlines"><path class="js-line" d="M5,0h30" style="fill: none; stroke: rgb(255, 76, 76); stroke-opacity: 1; stroke-width: 1px;"/></g><g class="legendsymbols"><g class="legendpoints"/></g></g><rect class="legendtoggle" x="0" y="-9.5" width="57.75" height="19" style="fill: rgb(0, 0, 0); fill-opacity: 0;"/></g><g class="traces" transform="translate(1,167.5)" style="opacity: 1;"><text class="legendtext" text-anchor="start" x="40" y="4.29" style="font-family: sans-serif; font-size: 11px; fill: rgb(0, 0, 0); fill-opacity: 1; white-space: pre;">y9</text><g class="layers" style="opacity: 1;"><g class="legendfill"/><g class="legendlines"><path class="js-line" d="M5,0h30" style="fill: none; stroke: rgb(128, 128, 128); stroke-opacity: 1; stroke-width: 1px;"/></g><g class="legendsymbols"><g class="legendpoints"/></g></g><rect class="legendtoggle" x="0" y="-9.5" width="57.75" height="19" style="fill: rgb(0, 0, 0); fill-opacity: 0;"/></g><g class="traces" transform="translate(1,186.5)" style="opacity: 1;"><text class="legendtext" text-anchor="start" x="40" y="4.29" style="font-family: sans-serif; font-size: 11px; fill: rgb(0, 0, 0); fill-opacity: 1; white-space: pre;">y10</text><g class="layers" style="opacity: 1;"><g class="legendfill"/><g class="legendlines"><path class="js-line" d="M5,0h30" style="fill: none; stroke: rgb(86, 108, 184); stroke-opacity: 1; stroke-width: 1px;"/></g><g class="legendsymbols"><g class="legendpoints"/></g></g><rect class="legendtoggle" x="0" y="-9.5" width="57.75" height="19" style="fill: rgb(0, 0, 0); fill-opacity: 0;"/></g></g></g><rect class="scrollbar" rx="20" ry="3" width="0" height="0" style="fill: rgb(128, 139, 164); fill-opacity: 1;" x="0" y="0"/></g><g class="g-gtitle"/><g class="g-xtitle"/><g class="g-x2title"/><g class="g-x3title"/><g class="g-x4title"/><g class="g-ytitle"/><g class="g-y2title"/><g class="g-y3title"/><g class="g-y4title"/></g></svg>