<svg class="main-svg" xmlns="http://www.w3.org/2000/svg" xmlns:xlink="http://www.w3.org/1999/xlink" width="700" height="500" style="" viewBox="0 0 700 500"><rect x="0" y="0" width="700" height="500" style="fill: rgb(255, 255, 255); fill-opacity: 1;"/><defs id="defs-723aaf"><g class="clips"><clipPath id="clip723aafxyplot" class="plotclip"><rect width="521.4995406824146" height="371.08377077865265"/></clipPath><clipPath class="axesclip" id="clip723aafx"><rect x="174.5043963254593" y="0" width="521.4995406824146" height="500"/></clipPath><clipPath class="axesclip" id="clip723aafy"><rect x="0" y="56.47200349956259" width="700" height="371.08377077865265"/></clipPath><clipPath class="axesclip" id="clip723aafxy"><rect x="174.5043963254593" y="56.47200349956259" width="521.4995406824146" height="371.08377077865265"/></clipPath></g><g class="gradients"/><g class="patterns"/></defs><g class="bglayer"/><g class="layer-below"><g class="imagelayer"/><g class="shapelayer"/></g><g class="cartesianlayer"><g class="subplot xy"><g class="layer-subplot"><g class="shapelayer"/><g class="imagelayer"/></g><g class="minor-gridlayer"><g class="x"/><g class="y"/></g><g class="gridlayer"><g class="x"><path class="xgrid crisp" transform="translate(239.5043963254593,0)" d="M0,56.47200349956259v371.08377077865265" style="stroke: rgb(0, 0, 0); stroke-opacity: 0.1; stroke-width: 0.5px;"/><path class="xgrid crisp" transform="translate(337.3743963254593,0)" d="M0,56.47200349956259v371.08377077865265" style="stroke: rgb(0, 0, 0); stroke-opacity: 0.1; stroke-width: 0.5px;"/><path class="xgrid crisp" transform="translate(533.1343963254593,0)" d="M0,56.47200349956259v371.08377077865265" style="stroke: rgb(0, 0, 0); stroke-opacity: 0.1; stroke-width: 0.5px;"/><path class="xgrid crisp" transform="translate(631.0043963254593,0)" d="M0,56.47200349956259v371.08377077865265" style="stroke: rgb(0, 0, 0); stroke-opacity: 0.1; stroke-width: 0.5px;"/></g><g class="y"><path class="ygrid crisp" transform="translate(0,417.0520034995626)" d="M174.5043963254593,0h521.4995406824146" style="stroke: rgb(0, 0, 0); stroke-opacity: 0.1; stroke-width: 0.5px;"/><path class="ygrid crisp" transform="translate(0,329.5320034995626)" d="M174.5043963254593,0h521.4995406824146" style="stroke: rgb(0, 0, 0); stroke-opacity: 0.1; stroke-width: 0.5px;"/><path class="ygrid crisp" transform="translate(0,154.4920034995626)" d="M174.5043963254593,0h521.4995406824146" style="stroke: rgb(0, 0, 0); stroke-opacity: 0.1; stroke-width: 0.5px;"/><path class="ygrid crisp" transform="translate(0,66.97200349956259)" d="M174.5043963254593,0h521.4995406824146" style="stroke: rgb(0, 0, 0); stroke-opacity: 0.1; stroke-width: 0.5px;"/></g></g><g class="zerolinelayer"><path class="xzl zl crisp" transform="translate(435.2543963254593,0)" d="M0,56.47200349956259v371.08377077865265" style="stroke: rgb(0, 0, 0); stroke-opacity: 1; stroke-width: 2px;"/><path class="yzl zl crisp" transform="translate(0,242.01200349956258)" d="M174.5043963254593,0h521.4995406824146" style="stroke: rgb(0, 0, 0); stroke-opacity: 1; stroke-width: 2px;"/></g><g class="layer-between"><g class="shapelayer"/><g class="imagelayer"/></g><path class="xlines-below"/><path class="ylines-below"/><g class="overlines-below"/><g class="xaxislayer-below"/><g class="yaxislayer-below"/><g class="overaxes-below"/><g class="overplot"><g class="xy" transform="translate(174.5043963254593,56.47200349956259)" clip-path="url(#clip723aafxyplot)"><g class="scatterlayer mlayer"><g class="trace scatter trace7b829e" style="stroke-miterlimit: 2; opacity: 1;"><g class="fills"/><g class="errorbars"/><g class="lines"><path class="js-line" d="M14.76,185.54L30.99,115.02L34.71,100.15L44.01,66.6L45.87,60.64L53.05,40.37L54.78,36.2L61.69,22.47L63.42,19.82L68.06,14.32L70.38,12.47L75.02,10.59L77.34,10.57L81.97,12.36L83.89,13.82L87.72,17.95L89.64,20.63L95.38,30.98L97.3,35.18L104.43,53.89L106.21,59.28L113.79,84.96L116.03,93.31L124.97,129.4L129.45,148.67L156.98,268.07L159.27,276.98L169.01,310.92L170.73,316.15L177.6,334.48L179.79,339.4L186.38,351.2L188.57,354.11L192.96,358.33L195.16,359.63L199.17,360.58L201.17,360.37L205.18,358.58L207.18,357L211.19,352.51L213.47,349.16L218.03,340.83L220.31,335.86L227.15,317.98L229.43,311.09L238.47,279.85L240.28,272.94L248.39,239.89L252.88,220.48L280.48,101.03L282.9,91.7L292.6,58.33L295.03,51.13L302.28,32.79L304.09,29L309.52,19.66L311.59,16.95L315.71,12.94L317.77,11.65L321.89,10.51L323.95,10.67L328.05,12.42L330.09,14.01L334.18,18.56L336.22,21.53L342.34,33.05L344.58,38.23L351.32,56.59L353.57,63.59L360.3,86.89L363.73,99.92L374.02,142.53L382.68,180.79L403.35,269.58L405.35,277.32L413.55,306.29L415.61,312.8L423.87,335.14L425.96,339.78L432.24,351.02L434.33,353.83L438.52,358.01L440.61,359.36L444.98,360.58L447.17,360.37L451.54,358.32L453.72,356.49L458.09,351.24L459.81,348.6L464.98,338.81L466.7,334.95L473.82,315.98L475.78,309.97L483.62,283L485.58,275.6L495.38,235.62L499.3,218.6L506.74,185.54" style="vector-effect: none; fill: none; stroke: rgb(0, 154, 250); stroke-opacity: 1; stroke-width: 2px; opacity: 1;"/></g><g class="points"/><g class="text"/></g><g class="trace scatter trace608c79" style="stroke-miterlimit: 2; opacity: 1;"><g class="fills"/><g class="errorbars"/><g class="lines"><path class="js-line" d="M14.76,10.5L18.57,11.33L19.84,11.97L23.56,14.9L25.42,16.95L30.99,25.34L32.85,28.87L38.43,41.53L40.29,46.42L47.73,68.98L49.59,75.31L59.97,114.79L63.42,129.19L97.3,275.16L100.86,288.46L109.77,317.74L111.55,322.82L118.26,339.33L120.5,343.85L124.97,351.34L127.21,354.27L131.45,358.32L133.46,359.53L137.47,360.58L139.48,360.41L143.49,358.71L145.49,357.17L150.09,351.97L152.38,348.5L156.98,339.91L159.27,334.8L165.58,318.2L167.3,313.07L174.16,290.19L177.6,277.5L190.77,223.17L195.16,203.8L218.03,104.76L220.31,95.86L229.43,63.57L231.24,57.91L238.47,38.08L240.28,33.88L246.14,22.54L248.39,19.15L252.88,14.03L255.13,12.3L259.62,10.58L261.87,10.57L265.31,11.69L267.03,12.75L270.47,15.87L272.19,17.92L275.63,22.99L278.05,27.32L282.9,37.78L285.33,43.87L292.6,65.31L295.03,73.41L305.9,114.56L309.52,129.65L342.34,271.48L344.58,280.08L353.57,311.1L355.81,317.89L363.73,338.21L365.45,341.81L370.59,350.8L372.31,353.17L376.19,357.33L378.35,358.92L382.68,360.52L384.85,360.51L389.17,358.9L391.34,357.3L395.34,352.96L397.34,350.13L403.35,339.09L405.35,334.59L411.48,318.46L413.55,312.27L421.81,284.18L423.87,276.42L436.43,224.63L440.61,206.2L461.53,114.79L464.98,101L475.78,62.43L477.74,56.36L485.58,35.45L487.54,31.13L493.42,20.53L495.38,17.82L499.3,13.65L501.26,12.21L505.86,10.55L506.74,10.5" style="vector-effect: none; fill: none; stroke: rgb(227, 111, 71); stroke-opacity: 1; stroke-width: 2px; opacity: 1;"/></g><g class="points"/><g class="text"/></g></g></g></g><path class="xlines-above crisp" d="" style="fill: none; stroke-width: 1px; stroke: rgb(0, 0, 0); stroke-opacity: 0;"/><path class="ylines-above crisp" d="" style="fill: none; stroke-width: 1px; stroke: rgb(0, 0, 0); stroke-opacity: 0;"/><g class="overlines-above"/><g class="xaxislayer-above"><path class="xtick ticks crisp" d="M0,427.55577427821527v-5" transform="translate(239.5043963254593,0)" style="stroke: rgb(0, 0, 0); stroke-opacity: 0; stroke-width: 1px;"/><path class="xtick ticks crisp" d="M0,427.55577427821527v-5" transform="translate(337.3743963254593,0)" style="stroke: rgb(0, 0, 0); stroke-opacity: 0; stroke-width: 1px;"/><path class="xtick ticks crisp" d="M0,427.55577427821527v-5" transform="translate(435.2543963254593,0)" style="stroke: rgb(0, 0, 0); stroke-opacity: 0; stroke-width: 1px;"/><path class="xtick ticks crisp" d="M0,427.55577427821527v-5" transform="translate(533.1343963254593,0)" style="stroke: rgb(0, 0, 0); stroke-opacity: 0; stroke-width: 1px;"/><path class="xtick ticks crisp" d="M0,427.55577427821527v-5" transform="translate(631.0043963254593,0)" style="stroke: rgb(0, 0, 0); stroke-opacity: 0; stroke-width: 1px;"/><g class="xtick"><text text-anchor="middle" x="0" y="445.55577427821527" transform="translate(239.5043963254593,0)" style="font-family: sans-serif; font-size: 17px; fill: rgb(255, 165, 0); fill-opacity: 1; white-space: pre; opacity: 1;">-5.0</text></g><g class="xtick"><text text-anchor="middle" x="0" y="445.55577427821527" style="font-family: sans-serif; font-size: 17px; fill: rgb(255, 165, 0); fill-opacity: 1; white-space: pre; opacity: 1;" transform="translate(337.3743963254593,0)">-2.5</text></g><g class="xtick"><text text-anchor="middle" x="0" y="445.55577427821527" style="font-family: sans-serif; font-size: 17px; fill: rgb(255, 165, 0); fill-opacity: 1; white-space: pre; opacity: 1;" transform="translate(435.2543963254593,0)">0.0</text></g><g class="xtick"><text text-anchor="middle" x="0" y="445.55577427821527" style="font-family: sans-serif; font-size: 17px; fill: rgb(255, 165, 0); fill-opacity: 1; white-space: pre; opacity: 1;" transform="translate(533.1343963254593,0)">2.5</text></g><g class="xtick"><text text-anchor="middle" x="0" y="445.55577427821527" style="font-family: sans-serif; font-size: 17px; fill: rgb(255, 165, 0); fill-opacity: 1; white-space: pre; opacity: 1;" transform="translate(631.0043963254593,0)">5.0</text></g></g><g class="yaxislayer-above"><path class="ytick ticks crisp" d="M174.5043963254593,0h5" transform="translate(0,417.0520034995626)" style="stroke: rgb(0, 0, 0); stroke-opacity: 0; stroke-width: 1px;"/><path class="ytick ticks crisp" d="M174.5043963254593,0h5" transform="translate(0,329.5320034995626)" style="stroke: rgb(0, 0, 0); stroke-opacity: 0; stroke-width: 1px;"/><path class="ytick ticks crisp" d="M174.5043963254593,0h5" transform="translate(0,242.01200349956258)" style="stroke: rgb(0, 0, 0); stroke-opacity: 0; stroke-width: 1px;"/><path class="ytick ticks crisp" d="M174.5043963254593,0h5" transform="translate(0,154.4920034995626)" style="stroke: rgb(0, 0, 0); stroke-opacity: 0; stroke-width: 1px;"/><path class="ytick ticks crisp" d="M174.5043963254593,0h5" transform="translate(0,66.97200349956259)" style="stroke: rgb(0, 0, 0); stroke-opacity: 0; stroke-width: 1px;"/><g class="ytick"><text text-anchor="end" x="173.5043963254593" y="5.949999999999999" transform="translate(0,417.0520034995626)" style="font-family: sans-serif; font-size: 17px; fill: rgb(255, 165, 0); fill-opacity: 1; white-space: pre; opacity: 1;">-1.0</text></g><g class="ytick"><text text-anchor="end" x="173.5043963254593" y="5.949999999999999" style="font-family: sans-serif; font-size: 17px; fill: rgb(255, 165, 0); fill-opacity: 1; white-space: pre; opacity: 1;" transform="translate(0,329.5320034995626)">-0.5</text></g><g class="ytick"><text text-anchor="end" x="173.5043963254593" y="5.949999999999999" style="font-family: sans-serif; font-size: 17px; fill: rgb(255, 165, 0); fill-opacity: 1; white-space: pre; opacity: 1;" transform="translate(0,242.01200349956258)">0.0</text></g><g class="ytick"><text text-anchor="end" x="173.5043963254593" y="5.949999999999999" style="font-family: sans-serif; font-size: 17px; fill: rgb(255, 165, 0); fill-opacity: 1; white-space: pre; opacity: 1;" transform="translate(0,154.4920034995626)">0.5</text></g><g class="ytick"><text text-anchor="end" x="173.5043963254593" y="5.949999999999999" style="font-family: sans-serif; font-size: 17px; fill: rgb(255, 165, 0); fill-opacity: 1; white-space: pre; opacity: 1;" transform="translate(0,66.97200349956259)">1.0</text></g></g><g class="overaxes-above"/></g></g><g class="polarlayer"/><g class="smithlayer"/><g class="ternarylayer"/><g class="geolayer"/><g class="funnelarealayer"/><g class="pielayer"/><g class="iciclelayer"/><g class="treemaplayer"/><g class="sunburstlayer"/><g class="glimages"/><defs id="topdefs-723aaf"><g class="clips"/><clipPath id="legend723aaf"><rect width="115" height="81" x="1" y="1"/></clipPath></defs><g class="layer-above"><g class="imagelayer"/><g class="shapelayer"/></g><g class="infolayer"><g class="legend" pointer-events="all" transform="translate(0,20)"><rect class="bg" shape-rendering="crispEdges" style="stroke: rgb(0, 0, 0); stroke-opacity: 1; fill: rgb(255, 255, 255); fill-opacity: 1; stroke-width: 1px;" width="116" height="82" x="0.5" y="0.5"/><g class="scrollbox" transform="" clip-path="url(#legend723aaf)"><g class="groups"><g class="traces" transform="translate(1,23.75)" style="opacity: 1;"><text class="legendtext" text-anchor="start" x="40" y="9.75" style="font-family: sans-serif; font-size: 25px; fill: rgb(0, 0, 0); fill-opacity: 1; white-space: pre;">sin(θ)</text><g class="layers" style="opacity: 1;"><g class="legendfill"/><g class="legendlines"><path class="js-line" d="M5,0h30" style="fill: none; stroke: rgb(0, 154, 250); stroke-opacity: 1; stroke-width: 2px;"/></g><g class="legendsymbols"><g class="legendpoints"/></g></g><rect class="legendtoggle" x="0" y="-17.75" width="109.46875" height="35.5" style="fill: rgb(0, 0, 0); fill-opacity: 0;"/></g><g class="traces" transform="translate(1,59.25)" style="opacity: 1;"><text class="legendtext" text-anchor="start" x="40" y="9.75" style="font-family: sans-serif; font-size: 25px; fill: rgb(0, 0, 0); fill-opacity: 1; white-space: pre;">cos(θ)</text><g class="layers" style="opacity: 1;"><g class="legendfill"/><g class="legendlines"><path class="js-line" d="M5,0h30" style="fill: none; stroke: rgb(227, 111, 71); stroke-opacity: 1; stroke-width: 2px;"/></g><g class="legendsymbols"><g class="legendpoints"/></g></g><rect class="legendtoggle" x="0" y="-17.75" width="109.46875" height="35.5" style="fill: rgb(0, 0, 0); fill-opacity: 0;"/></g></g></g><rect class="scrollbar" rx="20" ry="3" width="0" height="0" style="fill: rgb(128, 139, 164); fill-opacity: 1;" x="0" y="0"/></g><g class="g-gtitle"/><g class="g-xtitle"><text class="xtitle" x="435.2541666666666" y="481.5625" text-anchor="middle" style="opacity: 1; font-family: sans-serif; font-size: 25px; fill: rgb(0, 100, 0); fill-opacity: 1; white-space: pre;">θ</text></g><g class="g-ytitle"><text class="ytitle" transform="rotate(-90,120.953125,242.0138888888889)" x="120.953125" y="242.0138888888889" text-anchor="middle" style="opacity: 1; font-family: sans-serif; font-size: 25px; fill: rgb(0, 100, 0); fill-opacity: 1; white-space: pre;">x</text></g><g class="annotation" data-index="0" style="opacity: 1;"><g class="annotation-text-g" transform="rotate(0,435.25416666666666,37.50000000000001)"><g class="cursor-pointer" transform="translate(294,20)"><rect class="bg" x="0.5" y="0.5" width="281" height="34" style="stroke-width: 1px; stroke: rgb(0, 0, 0); stroke-opacity: 0; fill: rgb(0, 0, 0); fill-opacity: 0;"/><text class="annotation-text" text-anchor="middle" x="141.109375" y="27" style="font-family: times; font-size: 28px; fill: rgb(0, 0, 0); fill-opacity: 1; white-space: pre;">Trigonometric Functions</text></g></g></g></g></svg>