<svg class="main-svg" xmlns="http://www.w3.org/2000/svg" xmlns:xlink="http://www.w3.org/1999/xlink" width="700" height="500" style="" viewBox="0 0 700 500"><rect x="0" y="0" width="700" height="500" style="fill: rgb(255, 255, 255); fill-opacity: 1;"/><defs id="defs-a51f87"><g class="clips"><clipPath id="clipa51f87xyplot" class="plotclip"><rect width="651.2206474190725" height="433.4044181977253"/></clipPath><clipPath class="axesclip" id="clipa51f87x"><rect x="44.24523184601925" y="0" width="651.2206474190725" height="500"/></clipPath><clipPath class="axesclip" id="clipa51f87y"><rect x="0" y="24.478346456692904" width="700" height="433.4044181977253"/></clipPath><clipPath class="axesclip" id="clipa51f87xy"><rect x="44.24523184601925" y="24.478346456692904" width="651.2206474190725" height="433.4044181977253"/></clipPath></g><g class="gradients"/><g class="patterns"/></defs><g class="bglayer"/><g class="layer-below"><g class="imagelayer"/><g class="shapelayer"/></g><g class="cartesianlayer"><g class="subplot xy"><g class="layer-subplot"><g class="shapelayer"/><g class="imagelayer"/></g><g class="minor-gridlayer"><g class="x"/><g class="y"/></g><g class="gridlayer"><g class="x"><path class="xgrid crisp" transform="translate(192.01523184601928,0)" d="M0,24.478346456692904v433.4044181977253" style="stroke: rgb(0, 0, 0); stroke-opacity: 0.1; stroke-width: 0.5px;"/><path class="xgrid crisp" transform="translate(353.68523184601924,0)" d="M0,24.478346456692904v433.4044181977253" style="stroke: rgb(0, 0, 0); stroke-opacity: 0.1; stroke-width: 0.5px;"/><path class="xgrid crisp" transform="translate(515.3652318460192,0)" d="M0,24.478346456692904v433.4044181977253" style="stroke: rgb(0, 0, 0); stroke-opacity: 0.1; stroke-width: 0.5px;"/><path class="xgrid crisp" transform="translate(677.0352318460192,0)" d="M0,24.478346456692904v433.4044181977253" style="stroke: rgb(0, 0, 0); stroke-opacity: 0.1; stroke-width: 0.5px;"/></g><g class="y"><path class="ygrid crisp" transform="translate(0,364.58834645669293)" d="M44.24523184601925,0h651.2206474190725" style="stroke: rgb(0, 0, 0); stroke-opacity: 0.1; stroke-width: 0.5px;"/><path class="ygrid crisp" transform="translate(0,266.9483464566929)" d="M44.24523184601925,0h651.2206474190725" style="stroke: rgb(0, 0, 0); stroke-opacity: 0.1; stroke-width: 0.5px;"/><path class="ygrid crisp" transform="translate(0,169.2983464566929)" d="M44.24523184601925,0h651.2206474190725" style="stroke: rgb(0, 0, 0); stroke-opacity: 0.1; stroke-width: 0.5px;"/><path class="ygrid crisp" transform="translate(0,71.6483464566929)" d="M44.24523184601925,0h651.2206474190725" style="stroke: rgb(0, 0, 0); stroke-opacity: 0.1; stroke-width: 0.5px;"/></g></g><g class="zerolinelayer"/><g class="layer-between"><g class="shapelayer"/><g class="imagelayer"/></g><path class="xlines-below"/><path class="ylines-below"/><g class="overlines-below"/><g class="xaxislayer-below"/><g class="yaxislayer-below"/><g class="overaxes-below"/><g class="overplot"><g class="xy" transform="translate(44.24523184601925,24.478346456692904)" clip-path="url(#clipa51f87xyplot)"><g class="scatterlayer mlayer"><g class="trace scatter trace1db260" style="stroke-miterlimit: 2; opacity: 1;"><g class="fills"/><g class="errorbars"/><g class="lines"><path class="js-line" d="M18.43,137.4L50.77,120.84L83.1,54.47L115.43,118.52L147.77,195.82L180.1,69.62L212.44,403.66L244.77,409L277.11,47.08L309.44,12.27" style="vector-effect: none; fill: none; stroke: rgb(0, 0, 0); stroke-opacity: 1; stroke-dasharray: 4px, 4px; stroke-width: 4px; opacity: 1;"/></g><g class="points"><path class="point" transform="translate(18.43,137.4)" d="M10.39,-6V6L0,12L-10.39,6V-6L0,-12Z" style="opacity: 1; stroke-width: 3px; fill: rgb(0, 0, 0); fill-opacity: 0.8; stroke: rgb(128, 128, 128); stroke-opacity: 0.8;"/><path class="point" transform="translate(50.77,120.84)" d="M10.39,-6V6L0,12L-10.39,6V-6L0,-12Z" style="opacity: 1; stroke-width: 3px; fill: rgb(0, 0, 0); fill-opacity: 0.8; stroke: rgb(128, 128, 128); stroke-opacity: 0.8;"/><path class="point" transform="translate(83.1,54.47)" d="M10.39,-6V6L0,12L-10.39,6V-6L0,-12Z" style="opacity: 1; stroke-width: 3px; fill: rgb(0, 0, 0); fill-opacity: 0.8; stroke: rgb(128, 128, 128); stroke-opacity: 0.8;"/><path class="point" transform="translate(115.43,118.52)" d="M10.39,-6V6L0,12L-10.39,6V-6L0,-12Z" style="opacity: 1; stroke-width: 3px; fill: rgb(0, 0, 0); fill-opacity: 0.8; stroke: rgb(128, 128, 128); stroke-opacity: 0.8;"/><path class="point" transform="translate(147.77,195.82)" d="M10.39,-6V6L0,12L-10.39,6V-6L0,-12Z" style="opacity: 1; stroke-width: 3px; fill: rgb(0, 0, 0); fill-opacity: 0.8; stroke: rgb(128, 128, 128); stroke-opacity: 0.8;"/><path class="point" transform="translate(180.1,69.62)" d="M10.39,-6V6L0,12L-10.39,6V-6L0,-12Z" style="opacity: 1; stroke-width: 3px; fill: rgb(0, 0, 0); fill-opacity: 0.8; stroke: rgb(128, 128, 128); stroke-opacity: 0.8;"/><path class="point" transform="translate(212.44,403.66)" d="M10.39,-6V6L0,12L-10.39,6V-6L0,-12Z" style="opacity: 1; stroke-width: 3px; fill: rgb(0, 0, 0); fill-opacity: 0.8; stroke: rgb(128, 128, 128); stroke-opacity: 0.8;"/><path class="point" transform="translate(244.77,409)" d="M10.39,-6V6L0,12L-10.39,6V-6L0,-12Z" style="opacity: 1; stroke-width: 3px; fill: rgb(0, 0, 0); fill-opacity: 0.8; stroke: rgb(128, 128, 128); stroke-opacity: 0.8;"/><path class="point" transform="translate(277.11,47.08)" d="M10.39,-6V6L0,12L-10.39,6V-6L0,-12Z" style="opacity: 1; stroke-width: 3px; fill: rgb(0, 0, 0); fill-opacity: 0.8; stroke: rgb(128, 128, 128); stroke-opacity: 0.8;"/><path class="point" transform="translate(309.44,12.27)" d="M10.39,-6V6L0,12L-10.39,6V-6L0,-12Z" style="opacity: 1; stroke-width: 3px; fill: rgb(0, 0, 0); fill-opacity: 0.8; stroke: rgb(128, 128, 128); stroke-opacity: 0.8;"/></g><g class="text"/></g><g class="trace scatter trace24d566" style="stroke-miterlimit: 2; opacity: 1;"><g class="fills"/><g class="errorbars"/><g class="lines"><path class="js-line" d="M18.43,96.57L50.77,53.45L83.1,189.65L115.43,245.48L147.77,249.75L180.1,171.87L212.44,341.94L244.77,291.42L277.11,398.87L309.44,392.29L341.78,162.72L374.11,417.75L406.45,132.61L438.78,399.35L471.12,156.65L503.45,375.8L535.79,189.99L568.12,190.26L600.46,323.31L632.79,421.14" style="vector-effect: none; fill: none; stroke: rgb(255, 165, 0); stroke-opacity: 1; stroke-dasharray: 4px, 4px; stroke-width: 4px; opacity: 1;"/></g><g class="points"><path class="point" transform="translate(18.43,96.57)" d="M15.6,0L0,15.6L-15.6,0L0,-15.6Z" style="opacity: 1; stroke-width: 3px; fill: rgb(255, 165, 0); fill-opacity: 0.8; stroke: rgb(128, 128, 128); stroke-opacity: 0.8;"/><path class="point" transform="translate(50.77,53.45)" d="M15.6,0L0,15.6L-15.6,0L0,-15.6Z" style="opacity: 1; stroke-width: 3px; fill: rgb(255, 165, 0); fill-opacity: 0.8; stroke: rgb(128, 128, 128); stroke-opacity: 0.8;"/><path class="point" transform="translate(83.1,189.65)" d="M15.6,0L0,15.6L-15.6,0L0,-15.6Z" style="opacity: 1; stroke-width: 3px; fill: rgb(255, 165, 0); fill-opacity: 0.8; stroke: rgb(128, 128, 128); stroke-opacity: 0.8;"/><path class="point" transform="translate(115.43,245.48)" d="M15.6,0L0,15.6L-15.6,0L0,-15.6Z" style="opacity: 1; stroke-width: 3px; fill: rgb(255, 165, 0); fill-opacity: 0.8; stroke: rgb(128, 128, 128); stroke-opacity: 0.8;"/><path class="point" transform="translate(147.77,249.75)" d="M15.6,0L0,15.6L-15.6,0L0,-15.6Z" style="opacity: 1; stroke-width: 3px; fill: rgb(255, 165, 0); fill-opacity: 0.8; stroke: rgb(128, 128, 128); stroke-opacity: 0.8;"/><path class="point" transform="translate(180.1,171.87)" d="M15.6,0L0,15.6L-15.6,0L0,-15.6Z" style="opacity: 1; stroke-width: 3px; fill: rgb(255, 165, 0); fill-opacity: 0.8; stroke: rgb(128, 128, 128); stroke-opacity: 0.8;"/><path class="point" transform="translate(212.44,341.94)" d="M15.6,0L0,15.6L-15.6,0L0,-15.6Z" style="opacity: 1; stroke-width: 3px; fill: rgb(255, 165, 0); fill-opacity: 0.8; stroke: rgb(128, 128, 128); stroke-opacity: 0.8;"/><path class="point" transform="translate(244.77,291.42)" d="M15.6,0L0,15.6L-15.6,0L0,-15.6Z" style="opacity: 1; stroke-width: 3px; fill: rgb(255, 165, 0); fill-opacity: 0.8; stroke: rgb(128, 128, 128); stroke-opacity: 0.8;"/><path class="point" transform="translate(277.11,398.87)" d="M15.6,0L0,15.6L-15.6,0L0,-15.6Z" style="opacity: 1; stroke-width: 3px; fill: rgb(255, 165, 0); fill-opacity: 0.8; stroke: rgb(128, 128, 128); stroke-opacity: 0.8;"/><path class="point" transform="translate(309.44,392.29)" d="M15.6,0L0,15.6L-15.6,0L0,-15.6Z" style="opacity: 1; stroke-width: 3px; fill: rgb(255, 165, 0); fill-opacity: 0.8; stroke: rgb(128, 128, 128); stroke-opacity: 0.8;"/><path class="point" transform="translate(341.78,162.72)" d="M15.6,0L0,15.6L-15.6,0L0,-15.6Z" style="opacity: 1; stroke-width: 3px; fill: rgb(255, 165, 0); fill-opacity: 0.8; stroke: rgb(128, 128, 128); stroke-opacity: 0.8;"/><path class="point" transform="translate(374.11,417.75)" d="M15.6,0L0,15.6L-15.6,0L0,-15.6Z" style="opacity: 1; stroke-width: 3px; fill: rgb(255, 165, 0); fill-opacity: 0.8; stroke: rgb(128, 128, 128); stroke-opacity: 0.8;"/><path class="point" transform="translate(406.45,132.61)" d="M15.6,0L0,15.6L-15.6,0L0,-15.6Z" style="opacity: 1; stroke-width: 3px; fill: rgb(255, 165, 0); fill-opacity: 0.8; stroke: rgb(128, 128, 128); stroke-opacity: 0.8;"/><path class="point" transform="translate(438.78,399.35)" d="M15.6,0L0,15.6L-15.6,0L0,-15.6Z" style="opacity: 1; stroke-width: 3px; fill: rgb(255, 165, 0); fill-opacity: 0.8; stroke: rgb(128, 128, 128); stroke-opacity: 0.8;"/><path class="point" transform="translate(471.12,156.65)" d="M15.6,0L0,15.6L-15.6,0L0,-15.6Z" style="opacity: 1; stroke-width: 3px; fill: rgb(255, 165, 0); fill-opacity: 0.8; stroke: rgb(128, 128, 128); stroke-opacity: 0.8;"/><path class="point" transform="translate(503.45,375.8)" d="M15.6,0L0,15.6L-15.6,0L0,-15.6Z" style="opacity: 1; stroke-width: 3px; fill: rgb(255, 165, 0); fill-opacity: 0.8; stroke: rgb(128, 128, 128); stroke-opacity: 0.8;"/><path class="point" transform="translate(535.79,189.99)" d="M15.6,0L0,15.6L-15.6,0L0,-15.6Z" style="opacity: 1; stroke-width: 3px; fill: rgb(255, 165, 0); fill-opacity: 0.8; stroke: rgb(128, 128, 128); stroke-opacity: 0.8;"/><path class="point" transform="translate(568.12,190.26)" d="M15.6,0L0,15.6L-15.6,0L0,-15.6Z" style="opacity: 1; stroke-width: 3px; fill: rgb(255, 165, 0); fill-opacity: 0.8; stroke: rgb(128, 128, 128); stroke-opacity: 0.8;"/><path class="point" transform="translate(600.46,323.31)" d="M15.6,0L0,15.6L-15.6,0L0,-15.6Z" style="opacity: 1; stroke-width: 3px; fill: rgb(255, 165, 0); fill-opacity: 0.8; stroke: rgb(128, 128, 128); stroke-opacity: 0.8;"/><path class="point" transform="translate(632.79,421.14)" d="M15.6,0L0,15.6L-15.6,0L0,-15.6Z" style="opacity: 1; stroke-width: 3px; fill: rgb(255, 165, 0); fill-opacity: 0.8; stroke: rgb(128, 128, 128); stroke-opacity: 0.8;"/></g><g class="text"/></g></g></g></g><path class="xlines-above crisp" d="M43.24523184601925,458.3827646544182H695.4658792650918" style="fill: none; stroke-width: 1px; stroke: rgb(0, 0, 0); stroke-opacity: 1;"/><path class="ylines-above crisp" d="M43.74523184601925,24.478346456692904V457.8827646544182" style="fill: none; stroke-width: 1px; stroke: rgb(0, 0, 0); stroke-opacity: 1;"/><g class="overlines-above"/><g class="xaxislayer-above"><path class="xtick ticks crisp" d="M0,457.8827646544182v-5" transform="translate(192.01523184601928,0)" style="stroke: rgb(0, 0, 0); stroke-opacity: 1; stroke-width: 1px;"/><path class="xtick ticks crisp" d="M0,457.8827646544182v-5" transform="translate(353.68523184601924,0)" style="stroke: rgb(0, 0, 0); stroke-opacity: 1; stroke-width: 1px;"/><path class="xtick ticks crisp" d="M0,457.8827646544182v-5" transform="translate(515.3652318460192,0)" style="stroke: rgb(0, 0, 0); stroke-opacity: 1; stroke-width: 1px;"/><path class="xtick ticks crisp" d="M0,457.8827646544182v-5" transform="translate(677.0352318460192,0)" style="stroke: rgb(0, 0, 0); stroke-opacity: 1; stroke-width: 1px;"/><g class="xtick"><text text-anchor="middle" x="0" y="472.0827646544182" transform="translate(192.01523184601928,0)" style="font-family: sans-serif; font-size: 11px; fill: rgb(0, 0, 0); fill-opacity: 1; white-space: pre; opacity: 1;">5</text></g><g class="xtick"><text text-anchor="middle" x="0" y="472.0827646544182" style="font-family: sans-serif; font-size: 11px; fill: rgb(0, 0, 0); fill-opacity: 1; white-space: pre; opacity: 1;" transform="translate(353.68523184601924,0)">10</text></g><g class="xtick"><text text-anchor="middle" x="0" y="472.0827646544182" style="font-family: sans-serif; font-size: 11px; fill: rgb(0, 0, 0); fill-opacity: 1; white-space: pre; opacity: 1;" transform="translate(515.3652318460192,0)">15</text></g><g class="xtick"><text text-anchor="middle" x="0" y="472.0827646544182" style="font-family: sans-serif; font-size: 11px; fill: rgb(0, 0, 0); fill-opacity: 1; white-space: pre; opacity: 1;" transform="translate(677.0352318460192,0)">20</text></g></g><g class="yaxislayer-above"><path class="ytick ticks crisp" d="M44.24523184601925,0h5" transform="translate(0,364.58834645669293)" style="stroke: rgb(0, 0, 0); stroke-opacity: 1; stroke-width: 1px;"/><path class="ytick ticks crisp" d="M44.24523184601925,0h5" transform="translate(0,266.9483464566929)" style="stroke: rgb(0, 0, 0); stroke-opacity: 1; stroke-width: 1px;"/><path class="ytick ticks crisp" d="M44.24523184601925,0h5" transform="translate(0,169.2983464566929)" style="stroke: rgb(0, 0, 0); stroke-opacity: 1; stroke-width: 1px;"/><path class="ytick ticks crisp" d="M44.24523184601925,0h5" transform="translate(0,71.6483464566929)" style="stroke: rgb(0, 0, 0); stroke-opacity: 1; stroke-width: 1px;"/><g class="ytick"><text text-anchor="end" x="41.04523184601925" y="3.8499999999999996" transform="translate(0,364.58834645669293)" style="font-family: sans-serif; font-size: 11px; fill: rgb(0, 0, 0); fill-opacity: 1; white-space: pre; opacity: 1;">0.2</text></g><g class="ytick"><text text-anchor="end" x="41.04523184601925" y="3.8499999999999996" style="font-family: sans-serif; font-size: 11px; fill: rgb(0, 0, 0); fill-opacity: 1; white-space: pre; opacity: 1;" transform="translate(0,266.9483464566929)">0.4</text></g><g class="ytick"><text text-anchor="end" x="41.04523184601925" y="3.8499999999999996" style="font-family: sans-serif; font-size: 11px; fill: rgb(0, 0, 0); fill-opacity: 1; white-space: pre; opacity: 1;" transform="translate(0,169.2983464566929)">0.6</text></g><g class="ytick"><text text-anchor="end" x="41.04523184601925" y="3.8499999999999996" style="font-family: sans-serif; font-size: 11px; fill: rgb(0, 0, 0); fill-opacity: 1; white-space: pre; opacity: 1;" transform="translate(0,71.6483464566929)">0.8</text></g></g><g class="overaxes-above"/></g></g><g class="polarlayer"/><g class="smithlayer"/><g class="ternarylayer"/><g class="geolayer"/><g class="funnelarealayer"/><g class="pielayer"/><g class="iciclelayer"/><g class="treemaplayer"/><g class="sunburstlayer"/><g class="glimages"/><defs id="topdefs-a51f87"><g class="clips"/><clipPath id="legenda51f87"><rect width="57" height="48" x="1" y="1"/></clipPath></defs><g class="layer-above"><g class="imagelayer"/><g class="shapelayer"/></g><g class="infolayer"><g class="legend" pointer-events="all" transform="translate(641,20)"><rect class="bg" shape-rendering="crispEdges" width="58" height="49" x="0.5" y="0.5" style="stroke: rgb(0, 0, 0); stroke-opacity: 1; fill: rgb(255, 255, 255); fill-opacity: 1; stroke-width: 1px;"/><g class="scrollbox" transform="" clip-path="url(#legenda51f87)"><g class="groups"><g class="traces" transform="translate(1,15.5)" style="opacity: 1;"><text class="legendtext" text-anchor="start" x="40" y="4.29" style="font-family: sans-serif; font-size: 11px; fill: rgb(0, 0, 0); fill-opacity: 1; white-space: pre;">y1</text><g class="layers" style="opacity: 1;"><g class="legendfill"/><g class="legendlines"><path class="js-line" d="M5,0h30" style="fill: none; stroke: rgb(0, 0, 0); stroke-opacity: 1; stroke-dasharray: 4px, 4px; stroke-width: 4px;"/></g><g class="legendsymbols"><g class="legendpoints"><path class="scatterpts" transform="translate(20,0)" d="M6.93,-4V4L0,8L-6.93,4V-4L0,-8Z" style="opacity: 1; stroke-width: 3px; fill: rgb(0, 0, 0); fill-opacity: 0.8; stroke: rgb(128, 128, 128); stroke-opacity: 0.8;"/></g></g></g><rect class="legendtoggle" x="0" y="-9.5" width="51.625" height="19" style="fill: rgb(0, 0, 0); fill-opacity: 0;"/></g><g class="traces" transform="translate(1,34.5)" style="opacity: 1;"><text class="legendtext" text-anchor="start" x="40" y="4.29" style="font-family: sans-serif; font-size: 11px; fill: rgb(0, 0, 0); fill-opacity: 1; white-space: pre;">y2</text><g class="layers" style="opacity: 1;"><g class="legendfill"/><g class="legendlines"><path class="js-line" d="M5,0h30" style="fill: none; stroke: rgb(255, 165, 0); stroke-opacity: 1; stroke-dasharray: 4px, 4px; stroke-width: 4px;"/></g><g class="legendsymbols"><g class="legendpoints"><path class="scatterpts" transform="translate(20,0)" d="M10.4,0L0,10.4L-10.4,0L0,-10.4Z" style="opacity: 1; stroke-width: 3px; fill: rgb(255, 165, 0); fill-opacity: 0.8; stroke: rgb(128, 128, 128); stroke-opacity: 0.8;"/></g></g></g><rect class="legendtoggle" x="0" y="-9.5" width="51.625" height="19" style="fill: rgb(0, 0, 0); fill-opacity: 0;"/></g></g></g><rect class="scrollbar" rx="20" ry="3" width="0" height="0" x="0" y="0" style="fill: rgb(128, 139, 164); fill-opacity: 1;"/></g><g class="g-gtitle"/><g class="g-xtitle"/><g class="g-ytitle"/></g></svg>