<svg class="main-svg" xmlns="http://www.w3.org/2000/svg" xmlns:xlink="http://www.w3.org/1999/xlink" width="700" height="500" style="" viewBox="0 0 700 500"><rect x="0" y="0" width="700" height="500" style="fill: rgb(255, 255, 255); fill-opacity: 1;"/><defs id="defs-2716a3"><g class="clips"><clipPath id="clip2716a3xyplot" class="plotclip"><rect width="647.4769320501604" height="433.4044181977253"/></clipPath><clipPath class="axesclip" id="clip2716a3x"><rect x="47.94301545640128" y="0" width="647.4769320501604" height="500"/></clipPath><clipPath class="axesclip" id="clip2716a3y"><rect x="0" y="24.478346456692904" width="700" height="433.4044181977253"/></clipPath><clipPath class="axesclip" id="clip2716a3xy"><rect x="47.94301545640128" y="24.478346456692904" width="647.4769320501604" height="433.4044181977253"/></clipPath></g><g class="gradients"/><g class="patterns"/></defs><g class="bglayer"/><g class="layer-below"><g class="imagelayer"/><g class="shapelayer"/></g><g class="cartesianlayer"><g class="subplot xy"><g class="layer-subplot"><g class="shapelayer"/><g class="imagelayer"/></g><g class="minor-gridlayer"><g class="x"/><g class="y"/></g><g class="gridlayer"><g class="x"><path class="xgrid crisp" transform="translate(66.26301545640128,0)" d="M0,24.478346456692904v433.4044181977253" style="stroke: rgb(0, 0, 0); stroke-opacity: 0.1; stroke-width: 0.5px;"/><path class="xgrid crisp" transform="translate(218.97301545640127,0)" d="M0,24.478346456692904v433.4044181977253" style="stroke: rgb(0, 0, 0); stroke-opacity: 0.1; stroke-width: 0.5px;"/><path class="xgrid crisp" transform="translate(371.6830154564013,0)" d="M0,24.478346456692904v433.4044181977253" style="stroke: rgb(0, 0, 0); stroke-opacity: 0.1; stroke-width: 0.5px;"/><path class="xgrid crisp" transform="translate(524.3930154564013,0)" d="M0,24.478346456692904v433.4044181977253" style="stroke: rgb(0, 0, 0); stroke-opacity: 0.1; stroke-width: 0.5px;"/><path class="xgrid crisp" transform="translate(677.1030154564013,0)" d="M0,24.478346456692904v433.4044181977253" style="stroke: rgb(0, 0, 0); stroke-opacity: 0.1; stroke-width: 0.5px;"/></g><g class="y"><path class="ygrid crisp" transform="translate(0,445.6183464566929)" d="M47.94301545640128,0h647.4769320501604" style="stroke: rgb(0, 0, 0); stroke-opacity: 0.1; stroke-width: 0.5px;"/><path class="ygrid crisp" transform="translate(0,343.39834645669293)" d="M47.94301545640128,0h647.4769320501604" style="stroke: rgb(0, 0, 0); stroke-opacity: 0.1; stroke-width: 0.5px;"/><path class="ygrid crisp" transform="translate(0,241.1783464566929)" d="M47.94301545640128,0h647.4769320501604" style="stroke: rgb(0, 0, 0); stroke-opacity: 0.1; stroke-width: 0.5px;"/><path class="ygrid crisp" transform="translate(0,138.9583464566929)" d="M47.94301545640128,0h647.4769320501604" style="stroke: rgb(0, 0, 0); stroke-opacity: 0.1; stroke-width: 0.5px;"/><path class="ygrid crisp" transform="translate(0,36.7383464566929)" d="M47.94301545640128,0h647.4769320501604" style="stroke: rgb(0, 0, 0); stroke-opacity: 0.1; stroke-width: 0.5px;"/></g></g><g class="zerolinelayer"/><g class="layer-between"><g class="shapelayer"/><g class="imagelayer"/></g><path class="xlines-below"/><path class="ylines-below"/><g class="overlines-below"/><g class="xaxislayer-below"/><g class="yaxislayer-below"/><g class="overaxes-below"/><g class="overplot"><g class="xy" transform="translate(47.94301545640128,24.478346456692904)" clip-path="url(#clip2716a3xyplot)"><g class="scatterlayer mlayer"><g class="trace scatter trace5c44b0" style="stroke-miterlimit: 2;"><g class="fills"><g><path class="js-fill" d="M323.74,216.7L323.74,216.7L323.74,216.7L381.25,141.08L390.69,129.25L418.58,96.01L427.7,85.84L454.39,58.6L463.04,50.74L479.92,37.02L488.12,31.23L504.04,21.87L511.73,18.35L526.55,13.69L533.66,12.57L547.24,12.78L553.7,14.1L565.92,19.16L571.68,22.87L582.44,32.61L587.44,38.58L596.63,52.64L600.83,60.67L608.38,78.55L611.74,88.34L617.58,109.4L620.06,120.6L624.14,144.09L625.73,156.29L628.7,194.16L629.08,207.02L628.39,245.65L627.56,258.37L623.23,295.31L621.19,307.06L616.23,329.44L613.31,339.98L606.6,359.54L602.82,368.49L594.44,384.53L589.84,391.56L579.84,403.51L574.46,408.38L562.96,415.81L556.84,418.34L543.92,420.99L537.13,421.09L522.92,418.85L515.51,416.52L500.13,409.48L492.17,404.8L475.75,393.21L467.32,386.35L450.02,370.63L441.18,361.83L413.98,332.12L404.73,321.24L376.51,286.29L366.99,274.02L299.66,184.56L290.06,171.88L252.09,123.46L242.75,112.16L215.26,80.95L206.3,71.57L188.74,54.59L180.16,47.05L163.44,34.03L155.31,28.6L139.57,20.01L131.97,16.89L117.35,13.03L110.34,12.32L96.98,13.34L90.63,15.06L78.64,20.92L73.01,25.02L62.51,35.5L57.64,41.84L48.71,56.58L44.66,64.92L37.38,83.38L34.17,93.42L28.62,114.95L26.28,126.34L22.5,150.16L21.06,162.49L18.55,200.58L18.32,213.47L19.47,252.03L20.45,264.66L25.23,301.23L27.41,312.81L32.67,334.77L35.74,345.07L42.73,364.09L46.65,372.74L55.31,388.13L60.04,394.82L70.29,406.04L75.8,410.53L87.55,417.18L93.78,419.31L106.92,421.14L113.82,420.83L128.24,417.78L135.74,415.05L151.31,407.24L159.35,402.18L175.92,389.87L184.44,382.67L201.87,366.31L210.77,357.22L238.11,326.74L247.41,315.65L285.27,267.8L294.85,255.2L323.74,216.7" style="fill: rgb(255, 165, 0); fill-opacity: 1; stroke-width: 0;"/></g></g><g class="errorbars"/><g class="lines"><path class="js-line" d="M323.74,216.7L381.25,141.08L390.69,129.25L418.58,96.01L427.7,85.84L454.39,58.6L463.04,50.74L479.92,37.02L488.12,31.23L504.04,21.87L511.73,18.35L526.55,13.69L533.66,12.57L547.24,12.78L553.7,14.1L565.92,19.16L571.68,22.87L582.44,32.61L587.44,38.58L596.63,52.64L600.83,60.67L608.38,78.55L611.74,88.34L617.58,109.4L620.06,120.6L624.14,144.09L625.73,156.29L628.7,194.16L629.08,207.02L628.39,245.65L627.56,258.37L623.23,295.31L621.19,307.06L616.23,329.44L613.31,339.98L606.6,359.54L602.82,368.49L594.44,384.53L589.84,391.56L579.84,403.51L574.46,408.38L562.96,415.81L556.84,418.34L543.92,420.99L537.13,421.09L522.92,418.85L515.51,416.52L500.13,409.48L492.17,404.8L475.75,393.21L467.32,386.35L450.02,370.63L441.18,361.83L413.98,332.12L404.73,321.24L376.51,286.29L366.99,274.02L299.66,184.56L290.06,171.88L252.09,123.46L242.75,112.16L215.26,80.95L206.3,71.57L188.74,54.59L180.16,47.05L163.44,34.03L155.31,28.6L139.57,20.01L131.97,16.89L117.35,13.03L110.34,12.32L96.98,13.34L90.63,15.06L78.64,20.92L73.01,25.02L62.51,35.5L57.64,41.84L48.71,56.58L44.66,64.92L37.38,83.38L34.17,93.42L28.62,114.95L26.28,126.34L22.5,150.16L21.06,162.49L18.55,200.58L18.32,213.47L19.47,252.03L20.45,264.66L25.23,301.23L27.41,312.81L32.67,334.77L35.74,345.07L42.73,364.09L46.65,372.74L55.31,388.13L60.04,394.82L70.29,406.04L75.8,410.53L87.55,417.18L93.78,419.31L106.92,421.14L113.82,420.83L128.24,417.78L135.74,415.05L151.31,407.24L159.35,402.18L175.92,389.87L184.44,382.67L201.87,366.31L210.77,357.22L238.11,326.74L247.41,315.65L285.27,267.8L294.85,255.2L323.74,216.7" style="vector-effect: none; fill: none; stroke: rgb(0, 154, 250); stroke-opacity: 1; stroke-width: 4px; opacity: 1;"/></g><g class="points"/><g class="text"/></g></g></g></g><path class="xlines-above crisp" d="M46.94301545640128,458.3827646544182H695.4199475065617" style="fill: none; stroke-width: 1px; stroke: rgb(0, 0, 0); stroke-opacity: 1;"/><path class="ylines-above crisp" d="M47.44301545640128,24.478346456692904V457.8827646544182" style="fill: none; stroke-width: 1px; stroke: rgb(0, 0, 0); stroke-opacity: 1;"/><g class="overlines-above"/><g class="xaxislayer-above"><path class="xtick ticks crisp" d="M0,457.8827646544182v-5" transform="translate(66.26301545640128,0)" style="stroke: rgb(0, 0, 0); stroke-opacity: 1; stroke-width: 1px;"/><path class="xtick ticks crisp" d="M0,457.8827646544182v-5" transform="translate(218.97301545640127,0)" style="stroke: rgb(0, 0, 0); stroke-opacity: 1; stroke-width: 1px;"/><path class="xtick ticks crisp" d="M0,457.8827646544182v-5" transform="translate(371.6830154564013,0)" style="stroke: rgb(0, 0, 0); stroke-opacity: 1; stroke-width: 1px;"/><path class="xtick ticks crisp" d="M0,457.8827646544182v-5" transform="translate(524.3930154564013,0)" style="stroke: rgb(0, 0, 0); stroke-opacity: 1; stroke-width: 1px;"/><path class="xtick ticks crisp" d="M0,457.8827646544182v-5" transform="translate(677.1030154564013,0)" style="stroke: rgb(0, 0, 0); stroke-opacity: 1; stroke-width: 1px;"/><g class="xtick"><text text-anchor="middle" x="0" y="472.0827646544182" transform="translate(66.26301545640128,0)" style="font-family: sans-serif; font-size: 11px; fill: rgb(0, 0, 0); fill-opacity: 1; white-space: pre; opacity: 1;">-1.0</text></g><g class="xtick"><text text-anchor="middle" x="0" y="472.0827646544182" style="font-family: sans-serif; font-size: 11px; fill: rgb(0, 0, 0); fill-opacity: 1; white-space: pre; opacity: 1;" transform="translate(218.97301545640127,0)">-0.5</text></g><g class="xtick"><text text-anchor="middle" x="0" y="472.0827646544182" style="font-family: sans-serif; font-size: 11px; fill: rgb(0, 0, 0); fill-opacity: 1; white-space: pre; opacity: 1;" transform="translate(371.6830154564013,0)">0.0</text></g><g class="xtick"><text text-anchor="middle" x="0" y="472.0827646544182" style="font-family: sans-serif; font-size: 11px; fill: rgb(0, 0, 0); fill-opacity: 1; white-space: pre; opacity: 1;" transform="translate(524.3930154564013,0)">0.5</text></g><g class="xtick"><text text-anchor="middle" x="0" y="472.0827646544182" style="font-family: sans-serif; font-size: 11px; fill: rgb(0, 0, 0); fill-opacity: 1; white-space: pre; opacity: 1;" transform="translate(677.1030154564013,0)">1.0</text></g></g><g class="yaxislayer-above"><path class="ytick ticks crisp" d="M47.94301545640128,0h5" transform="translate(0,445.6183464566929)" style="stroke: rgb(0, 0, 0); stroke-opacity: 1; stroke-width: 1px;"/><path class="ytick ticks crisp" d="M47.94301545640128,0h5" transform="translate(0,343.39834645669293)" style="stroke: rgb(0, 0, 0); stroke-opacity: 1; stroke-width: 1px;"/><path class="ytick ticks crisp" d="M47.94301545640128,0h5" transform="translate(0,241.1783464566929)" style="stroke: rgb(0, 0, 0); stroke-opacity: 1; stroke-width: 1px;"/><path class="ytick ticks crisp" d="M47.94301545640128,0h5" transform="translate(0,138.9583464566929)" style="stroke: rgb(0, 0, 0); stroke-opacity: 1; stroke-width: 1px;"/><path class="ytick ticks crisp" d="M47.94301545640128,0h5" transform="translate(0,36.7383464566929)" style="stroke: rgb(0, 0, 0); stroke-opacity: 1; stroke-width: 1px;"/><g class="ytick"><text text-anchor="end" x="44.743015456401274" y="3.8499999999999996" transform="translate(0,445.6183464566929)" style="font-family: sans-serif; font-size: 11px; fill: rgb(0, 0, 0); fill-opacity: 1; white-space: pre; opacity: 1;">-1.0</text></g><g class="ytick"><text text-anchor="end" x="44.743015456401274" y="3.8499999999999996" style="font-family: sans-serif; font-size: 11px; fill: rgb(0, 0, 0); fill-opacity: 1; white-space: pre; opacity: 1;" transform="translate(0,343.39834645669293)">-0.5</text></g><g class="ytick"><text text-anchor="end" x="44.743015456401274" y="3.8499999999999996" style="font-family: sans-serif; font-size: 11px; fill: rgb(0, 0, 0); fill-opacity: 1; white-space: pre; opacity: 1;" transform="translate(0,241.1783464566929)">0.0</text></g><g class="ytick"><text text-anchor="end" x="44.743015456401274" y="3.8499999999999996" style="font-family: sans-serif; font-size: 11px; fill: rgb(0, 0, 0); fill-opacity: 1; white-space: pre; opacity: 1;" transform="translate(0,138.9583464566929)">0.5</text></g><g class="ytick"><text text-anchor="end" x="44.743015456401274" y="3.8499999999999996" style="font-family: sans-serif; font-size: 11px; fill: rgb(0, 0, 0); fill-opacity: 1; white-space: pre; opacity: 1;" transform="translate(0,36.7383464566929)">1.0</text></g></g><g class="overaxes-above"/></g></g><g class="polarlayer"/><g class="smithlayer"/><g class="ternarylayer"/><g class="geolayer"/><g class="funnelarealayer"/><g class="pielayer"/><g class="iciclelayer"/><g class="treemaplayer"/><g class="sunburstlayer"/><g class="glimages"/><defs id="topdefs-2716a3"><g class="clips"/></defs><g class="layer-above"><g class="imagelayer"/><g class="shapelayer"/></g><g class="infolayer"><g class="g-gtitle"/><g class="g-xtitle"/><g class="g-ytitle"/></g></svg>