<svg class="main-svg" xmlns="http://www.w3.org/2000/svg" xmlns:xlink="http://www.w3.org/1999/xlink" width="700" height="500" style="" viewBox="0 0 700 500"><rect x="0" y="0" width="700" height="500" style="fill: rgb(255, 255, 255); fill-opacity: 1;"/><defs id="defs-363806"><g class="clips"><clipPath id="clip363806xyplot" class="plotclip"><rect width="651.2206474190725" height="433.4044181977253"/></clipPath><clipPath class="axesclip" id="clip363806x"><rect x="44.24523184601925" y="0" width="651.2206474190725" height="500"/></clipPath><clipPath class="axesclip" id="clip363806y"><rect x="0" y="24.478346456692904" width="700" height="433.4044181977253"/></clipPath><clipPath class="axesclip" id="clip363806xy"><rect x="44.24523184601925" y="24.478346456692904" width="651.2206474190725" height="433.4044181977253"/></clipPath></g><g class="gradients"/><g class="patterns"/></defs><g class="bglayer"/><g class="layer-below"><g class="imagelayer"/><g class="shapelayer"/></g><g class="cartesianlayer"><g class="subplot xy"><g class="layer-subplot"><g class="shapelayer"/><g class="imagelayer"/></g><g class="minor-gridlayer"><g class="x"/><g class="y"/></g><g class="gridlayer"><g class="x"><path class="xgrid crisp" transform="translate(56.475231846019255,0)" d="M0,24.478346456692904v433.4044181977253" style="stroke: rgb(0, 0, 0); stroke-opacity: 0.1; stroke-width: 0.5px;"/><path class="xgrid crisp" transform="translate(211.61523184601924,0)" d="M0,24.478346456692904v433.4044181977253" style="stroke: rgb(0, 0, 0); stroke-opacity: 0.1; stroke-width: 0.5px;"/><path class="xgrid crisp" transform="translate(366.7552318460192,0)" d="M0,24.478346456692904v433.4044181977253" style="stroke: rgb(0, 0, 0); stroke-opacity: 0.1; stroke-width: 0.5px;"/><path class="xgrid crisp" transform="translate(521.8952318460192,0)" d="M0,24.478346456692904v433.4044181977253" style="stroke: rgb(0, 0, 0); stroke-opacity: 0.1; stroke-width: 0.5px;"/><path class="xgrid crisp" transform="translate(677.0352318460192,0)" d="M0,24.478346456692904v433.4044181977253" style="stroke: rgb(0, 0, 0); stroke-opacity: 0.1; stroke-width: 0.5px;"/></g><g class="y"><path class="ygrid crisp" transform="translate(0,445.6183464566929)" d="M44.24523184601925,0h651.2206474190725" style="stroke: rgb(0, 0, 0); stroke-opacity: 0.1; stroke-width: 0.5px;"/><path class="ygrid crisp" transform="translate(0,320.7583464566929)" d="M44.24523184601925,0h651.2206474190725" style="stroke: rgb(0, 0, 0); stroke-opacity: 0.1; stroke-width: 0.5px;"/><path class="ygrid crisp" transform="translate(0,195.8883464566929)" d="M44.24523184601925,0h651.2206474190725" style="stroke: rgb(0, 0, 0); stroke-opacity: 0.1; stroke-width: 0.5px;"/><path class="ygrid crisp" transform="translate(0,71.0283464566929)" d="M44.24523184601925,0h651.2206474190725" style="stroke: rgb(0, 0, 0); stroke-opacity: 0.1; stroke-width: 0.5px;"/></g></g><g class="zerolinelayer"/><g class="layer-between"><g class="shapelayer"/><g class="imagelayer"/></g><path class="xlines-below"/><path class="ylines-below"/><g class="overlines-below"/><g class="xaxislayer-below"/><g class="yaxislayer-below"/><g class="overaxes-below"/><g class="overplot"><g class="xy" transform="translate(44.24523184601925,24.478346456692904)" clip-path="url(#clip363806xyplot)"><g class="scatterlayer mlayer"><g class="trace scatter trace1a00f4" style="stroke-miterlimit: 2;"><g class="fills"><g><path class="js-fill" d="M632.79,421.14L18.43,421.14L18.43,165.09L24.64,150.97L30.84,94.4L37.05,149L43.25,214.89L49.46,107.31L55.66,392.07L61.87,396.62L68.08,88.09L74.28,58.42L80.49,130.29L86.69,93.53L92.9,209.64L99.1,257.22L105.31,260.86L111.52,194.47L117.72,339.45L123.93,296.39L130.13,387.99L136.34,382.37L142.54,186.67L148.75,404.08L154.96,161.01L161.16,388.39L167.37,181.5L173.57,368.32L179.78,209.92L185.98,210.15L192.19,323.57L198.39,406.97L204.6,275.4L210.81,173.69L217.01,263.78L223.22,131.97L229.42,391.1L235.63,24.78L241.83,270.54L248.04,396.15L254.25,336.1L260.45,209.73L266.66,252.94L272.86,310.34L279.07,103.17L291.48,311.43L297.68,147.1L303.89,294.04L310.1,318.19L316.3,37.23L322.51,135.94L328.71,242.01L334.92,256.13L341.12,362.2L347.33,73.4L353.54,104.09L359.74,102.69L365.95,317.02L372.15,113L378.36,177.27L384.56,266.07L390.77,230.75L396.98,214.32L403.18,113.15L409.39,387.32L415.59,75.8L421.8,411.53L428,146.29L434.21,105.45L440.41,184.4L446.62,115.79L452.83,153.12L459.03,280.23L465.24,386.75L471.44,115.8L477.65,72.56L483.85,297.64L490.06,160.37L496.27,266.9L502.47,233.23L508.68,343.42L514.88,129.98L521.09,363.25L527.29,295.31L533.5,399.71L539.71,415.42L545.91,42.97L552.12,12.27L558.32,217.95L564.53,103.73L570.73,214.78L576.94,286.41L583.14,243.99L589.35,143.34L595.56,390.65L601.76,143.1L607.97,43.58L614.17,175.81L620.38,182.14L626.58,169.71L632.79,355.9" style="fill: rgb(0, 128, 0); fill-opacity: 1; stroke-width: 0;"/></g></g><g class="errorbars"/><g class="lines"><path class="js-line" d="M18.43,165.09L24.64,150.97L30.84,94.4L37.05,149L43.25,214.89L49.46,107.31L55.66,392.07L61.87,396.62L68.08,88.09L74.28,58.42L80.49,130.29L86.69,93.53L92.9,209.64L99.1,257.22L105.31,260.86L111.52,194.47L117.72,339.45L123.93,296.39L130.13,387.99L136.34,382.37L142.54,186.67L148.75,404.08L154.96,161.01L161.16,388.39L167.37,181.5L173.57,368.32L179.78,209.92L185.98,210.15L192.19,323.57L198.39,406.97L204.6,275.4L210.81,173.69L217.01,263.78L223.22,131.97L229.42,391.1L235.63,24.78L241.83,270.54L248.04,396.15L254.25,336.1L260.45,209.73L266.66,252.94L272.86,310.34L279.07,103.17L291.48,311.43L297.68,147.1L303.89,294.04L310.1,318.19L316.3,37.23L322.51,135.94L328.71,242.01L334.92,256.13L341.12,362.2L347.33,73.4L353.54,104.09L359.74,102.69L365.95,317.02L372.15,113L378.36,177.27L384.56,266.07L390.77,230.75L396.98,214.32L403.18,113.15L409.39,387.32L415.59,75.8L421.8,411.53L428,146.29L434.21,105.45L440.41,184.4L446.62,115.79L452.83,153.12L459.03,280.23L465.24,386.75L471.44,115.8L477.65,72.56L483.85,297.64L490.06,160.37L496.27,266.9L502.47,233.23L508.68,343.42L514.88,129.98L521.09,363.25L527.29,295.31L533.5,399.71L539.71,415.42L545.91,42.97L552.12,12.27L558.32,217.95L564.53,103.73L570.73,214.78L576.94,286.41L583.14,243.99L589.35,143.34L595.56,390.65L601.76,143.1L607.97,43.58L614.17,175.81L620.38,182.14L626.58,169.71L632.79,355.9" style="vector-effect: none; fill: none; stroke: rgb(0, 154, 250); stroke-opacity: 1; stroke-width: 1px; opacity: 1;"/></g><g class="points"/><g class="text"/></g><g class="trace scatter traceb9a1e2" style="stroke-miterlimit: 2; opacity: 1;"><g class="fills"/><g class="errorbars"/><g class="lines"><path class="js-line" d="M18.43,235.38L632.79,213.43" style="vector-effect: none; fill: none; stroke: rgb(0, 154, 250); stroke-opacity: 1; stroke-width: 1px; opacity: 1;"/></g><g class="points"/><g class="text"/></g></g></g></g><path class="xlines-above crisp" d="M43.24523184601925,458.3827646544182H695.4658792650918" style="fill: none; stroke-width: 1px; stroke: rgb(0, 0, 0); stroke-opacity: 1;"/><path class="ylines-above crisp" d="M43.74523184601925,24.478346456692904V457.8827646544182" style="fill: none; stroke-width: 1px; stroke: rgb(0, 0, 0); stroke-opacity: 1;"/><g class="overlines-above"/><g class="xaxislayer-above"><path class="xtick ticks crisp" d="M0,457.8827646544182v-5" transform="translate(56.475231846019255,0)" style="stroke: rgb(0, 0, 0); stroke-opacity: 1; stroke-width: 1px;"/><path class="xtick ticks crisp" d="M0,457.8827646544182v-5" transform="translate(211.61523184601924,0)" style="stroke: rgb(0, 0, 0); stroke-opacity: 1; stroke-width: 1px;"/><path class="xtick ticks crisp" d="M0,457.8827646544182v-5" transform="translate(366.7552318460192,0)" style="stroke: rgb(0, 0, 0); stroke-opacity: 1; stroke-width: 1px;"/><path class="xtick ticks crisp" d="M0,457.8827646544182v-5" transform="translate(521.8952318460192,0)" style="stroke: rgb(0, 0, 0); stroke-opacity: 1; stroke-width: 1px;"/><path class="xtick ticks crisp" d="M0,457.8827646544182v-5" transform="translate(677.0352318460192,0)" style="stroke: rgb(0, 0, 0); stroke-opacity: 1; stroke-width: 1px;"/><g class="xtick"><text text-anchor="middle" x="0" y="472.0827646544182" transform="translate(56.475231846019255,0)" style="font-family: sans-serif; font-size: 11px; fill: rgb(0, 0, 0); fill-opacity: 1; white-space: pre; opacity: 1;">0</text></g><g class="xtick"><text text-anchor="middle" x="0" y="472.0827646544182" style="font-family: sans-serif; font-size: 11px; fill: rgb(0, 0, 0); fill-opacity: 1; white-space: pre; opacity: 1;" transform="translate(211.61523184601924,0)">25</text></g><g class="xtick"><text text-anchor="middle" x="0" y="472.0827646544182" style="font-family: sans-serif; font-size: 11px; fill: rgb(0, 0, 0); fill-opacity: 1; white-space: pre; opacity: 1;" transform="translate(366.7552318460192,0)">50</text></g><g class="xtick"><text text-anchor="middle" x="0" y="472.0827646544182" style="font-family: sans-serif; font-size: 11px; fill: rgb(0, 0, 0); fill-opacity: 1; white-space: pre; opacity: 1;" transform="translate(521.8952318460192,0)">75</text></g><g class="xtick"><text text-anchor="middle" x="0" y="472.0827646544182" style="font-family: sans-serif; font-size: 11px; fill: rgb(0, 0, 0); fill-opacity: 1; white-space: pre; opacity: 1;" transform="translate(677.0352318460192,0)">100</text></g></g><g class="yaxislayer-above"><path class="ytick ticks crisp" d="M44.24523184601925,0h5" transform="translate(0,445.6183464566929)" style="stroke: rgb(0, 0, 0); stroke-opacity: 1; stroke-width: 1px;"/><path class="ytick ticks crisp" d="M44.24523184601925,0h5" transform="translate(0,320.7583464566929)" style="stroke: rgb(0, 0, 0); stroke-opacity: 1; stroke-width: 1px;"/><path class="ytick ticks crisp" d="M44.24523184601925,0h5" transform="translate(0,195.8883464566929)" style="stroke: rgb(0, 0, 0); stroke-opacity: 1; stroke-width: 1px;"/><path class="ytick ticks crisp" d="M44.24523184601925,0h5" transform="translate(0,71.0283464566929)" style="stroke: rgb(0, 0, 0); stroke-opacity: 1; stroke-width: 1px;"/><g class="ytick"><text text-anchor="end" x="41.04523184601925" y="3.8499999999999996" transform="translate(0,445.6183464566929)" style="font-family: sans-serif; font-size: 11px; fill: rgb(0, 0, 0); fill-opacity: 1; white-space: pre; opacity: 1;">0.0</text></g><g class="ytick"><text text-anchor="end" x="41.04523184601925" y="3.8499999999999996" style="font-family: sans-serif; font-size: 11px; fill: rgb(0, 0, 0); fill-opacity: 1; white-space: pre; opacity: 1;" transform="translate(0,320.7583464566929)">0.1</text></g><g class="ytick"><text text-anchor="end" x="41.04523184601925" y="3.8499999999999996" style="font-family: sans-serif; font-size: 11px; fill: rgb(0, 0, 0); fill-opacity: 1; white-space: pre; opacity: 1;" transform="translate(0,195.8883464566929)">0.2</text></g><g class="ytick"><text text-anchor="end" x="41.04523184601925" y="3.8499999999999996" style="font-family: sans-serif; font-size: 11px; fill: rgb(0, 0, 0); fill-opacity: 1; white-space: pre; opacity: 1;" transform="translate(0,71.0283464566929)">0.3</text></g></g><g class="overaxes-above"/></g></g><g class="polarlayer"/><g class="smithlayer"/><g class="ternarylayer"/><g class="geolayer"/><g class="funnelarealayer"/><g class="pielayer"/><g class="iciclelayer"/><g class="treemaplayer"/><g class="sunburstlayer"/><g class="glimages"/><defs id="topdefs-363806"><g class="clips"/><clipPath id="legend363806"><rect width="57" height="29" x="1" y="1"/></clipPath></defs><g class="layer-above"><g class="imagelayer"/><g class="shapelayer"/></g><g class="infolayer"><g class="legend" pointer-events="all" transform="translate(641,20)"><rect class="bg" shape-rendering="crispEdges" width="58" height="30" x="0.5" y="0.5" style="stroke: rgb(0, 0, 0); stroke-opacity: 1; fill: rgb(255, 255, 255); fill-opacity: 1; stroke-width: 1px;"/><g class="scrollbox" transform="" clip-path="url(#legend363806)"><g class="groups"><g class="traces" transform="translate(1,15.5)" style="opacity: 1;"><text class="legendtext" text-anchor="start" x="40" y="4.29" style="font-family: sans-serif; font-size: 11px; fill: rgb(0, 0, 0); fill-opacity: 1; white-space: pre;">y1</text><g class="layers"><g class="legendfill"><path class="js-fill" d="M5,-2h30v6h-30z" style="stroke-width: 0; fill: rgb(0, 128, 0); fill-opacity: 1;"/></g><g class="legendlines"><path class="js-line" d="M5,-2h30" style="fill: none; stroke: rgb(0, 154, 250); stroke-opacity: 1; stroke-width: 1px;"/></g><g class="legendsymbols"><g class="legendpoints"/></g></g><rect class="legendtoggle" x="0" y="-9.5" width="51.625" height="19" style="fill: rgb(0, 0, 0); fill-opacity: 0;"/></g></g></g><rect class="scrollbar" rx="20" ry="3" width="0" height="0" x="0" y="0" style="fill: rgb(128, 139, 164); fill-opacity: 1;"/></g><g class="g-gtitle"/><g class="g-xtitle"/><g class="g-ytitle"/></g></svg>