<svg class="main-svg" xmlns="http://www.w3.org/2000/svg" xmlns:xlink="http://www.w3.org/1999/xlink" width="700" height="500" style="" viewBox="0 0 700 500"><rect x="0" y="0" width="700" height="500" style="fill: rgb(255, 255, 255); fill-opacity: 1;"/><defs id="defs-a7b0fa"><g class="clips"><clipPath id="clipa7b0faxyplot" class="plotclip"><rect width="312.75695538057744" height="433.4044181977253"/></clipPath><clipPath id="clipa7b0fax2yplot" class="plotclip"><rect width="312.75695538057744" height="433.4044181977253"/></clipPath><clipPath class="axesclip" id="clipa7b0fax"><rect x="40.754855643044614" y="0" width="312.75695538057744" height="500"/></clipPath><clipPath class="axesclip" id="clipa7b0fay"><rect x="0" y="24.478346456692904" width="700" height="433.4044181977253"/></clipPath><clipPath class="axesclip" id="clipa7b0faxy"><rect x="40.754855643044614" y="24.478346456692904" width="312.75695538057744" height="433.4044181977253"/></clipPath><clipPath class="axesclip" id="clipa7b0fax2"><rect x="382.7548556430446" y="0" width="312.75695538057744" height="500"/></clipPath><clipPath class="axesclip" id="clipa7b0fax2y"><rect x="382.7548556430446" y="24.478346456692904" width="312.75695538057744" height="433.4044181977253"/></clipPath></g><g class="gradients"/><g class="patterns"/></defs><g class="bglayer"/><g class="layer-below"><g class="imagelayer"/><g class="shapelayer"/></g><g class="cartesianlayer"><g class="subplot xy"><g class="layer-subplot"><g class="shapelayer"/><g class="imagelayer"/></g><g class="minor-gridlayer"><g class="x"/><g class="y"/></g><g class="gridlayer"><g class="x"><path class="xgrid crisp" transform="translate(79.11485564304462,0)" d="M0,24.478346456692904v433.4044181977253" style="stroke: rgb(0, 0, 0); stroke-opacity: 0.1; stroke-width: 0.5px;"/><path class="xgrid crisp" transform="translate(138.1248556430446,0)" d="M0,24.478346456692904v433.4044181977253" style="stroke: rgb(0, 0, 0); stroke-opacity: 0.1; stroke-width: 0.5px;"/><path class="xgrid crisp" transform="translate(197.1348556430446,0)" d="M0,24.478346456692904v433.4044181977253" style="stroke: rgb(0, 0, 0); stroke-opacity: 0.1; stroke-width: 0.5px;"/><path class="xgrid crisp" transform="translate(256.1448556430446,0)" d="M0,24.478346456692904v433.4044181977253" style="stroke: rgb(0, 0, 0); stroke-opacity: 0.1; stroke-width: 0.5px;"/><path class="xgrid crisp" transform="translate(315.1548556430446,0)" d="M0,24.478346456692904v433.4044181977253" style="stroke: rgb(0, 0, 0); stroke-opacity: 0.1; stroke-width: 0.5px;"/></g><g class="y"><path class="ygrid crisp" transform="translate(0,429.88834645669294)" d="M40.754855643044614,0h312.75695538057744" style="stroke: rgb(0, 0, 0); stroke-opacity: 0.1; stroke-width: 0.5px;"/><path class="ygrid crisp" transform="translate(0,351.2583464566929)" d="M40.754855643044614,0h312.75695538057744" style="stroke: rgb(0, 0, 0); stroke-opacity: 0.1; stroke-width: 0.5px;"/><path class="ygrid crisp" transform="translate(0,272.6283464566929)" d="M40.754855643044614,0h312.75695538057744" style="stroke: rgb(0, 0, 0); stroke-opacity: 0.1; stroke-width: 0.5px;"/><path class="ygrid crisp" transform="translate(0,194.0083464566929)" d="M40.754855643044614,0h312.75695538057744" style="stroke: rgb(0, 0, 0); stroke-opacity: 0.1; stroke-width: 0.5px;"/><path class="ygrid crisp" transform="translate(0,115.37834645669291)" d="M40.754855643044614,0h312.75695538057744" style="stroke: rgb(0, 0, 0); stroke-opacity: 0.1; stroke-width: 0.5px;"/><path class="ygrid crisp" transform="translate(0,36.7483464566929)" d="M40.754855643044614,0h312.75695538057744" style="stroke: rgb(0, 0, 0); stroke-opacity: 0.1; stroke-width: 0.5px;"/></g></g><g class="zerolinelayer"/><g class="layer-between"><g class="shapelayer"/><g class="imagelayer"/></g><path class="xlines-below"/><path class="ylines-below"/><g class="overlines-below"/><g class="xaxislayer-below"/><g class="yaxislayer-below"/><g class="overaxes-below"/><g class="overplot"><g class="xy" transform="translate(40.754855643044614,24.478346456692904)" clip-path="url(#clipa7b0faxyplot)"><g class="scatterlayer mlayer"><g class="trace scatter trace413aa5" style="stroke-miterlimit: 2; opacity: 1;"><g class="fills"/><g class="errorbars"/><g class="lines"><path class="js-line" d="M8.85,12.27L23.6,86.96L26.55,100.96L41.31,166.22L44.26,178.33L56.06,223.62L59.01,234.16L70.81,273.16L73.76,282.12L85.57,314.83L88.52,322.22L100.32,348.64L103.27,354.46L112.12,370.03L115.07,374.59L123.92,386.39L126.87,389.69L135.72,397.71L138.68,399.75L144.58,402.9L147.53,404L153.43,405.26L156.38,405.41L162.28,404.78L165.23,404L171.13,401.48L174.08,399.75L179.98,395.35L182.93,392.68L191.78,382.77L194.74,378.84L203.59,365.16L206.54,359.97L215.39,342.51L218.34,336.06L227.19,314.83L230.14,307.13L241.94,273.16L244.89,263.88L256.7,223.62L259.65,212.77L271.45,166.22L274.4,153.8L289.15,86.96L292.1,72.65L303.91,12.27" style="vector-effect: none; fill: none; stroke: rgb(0, 154, 250); stroke-opacity: 1; stroke-width: 1px; opacity: 1;"/></g><g class="points"/><g class="text"/></g></g></g></g><path class="xlines-above crisp" d="M39.754855643044614,458.3827646544182H353.51181102362204" style="fill: none; stroke-width: 1px; stroke: rgb(0, 0, 0); stroke-opacity: 1;"/><path class="ylines-above crisp" d="M40.254855643044614,24.478346456692904V457.8827646544182" style="fill: none; stroke-width: 1px; stroke: rgb(0, 0, 0); stroke-opacity: 1;"/><g class="overlines-above"/><g class="xaxislayer-above"><path class="xtick ticks crisp" d="M0,457.8827646544182v-5" transform="translate(79.11485564304462,0)" style="stroke: rgb(0, 0, 0); stroke-opacity: 1; stroke-width: 1px;"/><path class="xtick ticks crisp" d="M0,457.8827646544182v-5" transform="translate(138.1248556430446,0)" style="stroke: rgb(0, 0, 0); stroke-opacity: 1; stroke-width: 1px;"/><path class="xtick ticks crisp" d="M0,457.8827646544182v-5" transform="translate(197.1348556430446,0)" style="stroke: rgb(0, 0, 0); stroke-opacity: 1; stroke-width: 1px;"/><path class="xtick ticks crisp" d="M0,457.8827646544182v-5" transform="translate(256.1448556430446,0)" style="stroke: rgb(0, 0, 0); stroke-opacity: 1; stroke-width: 1px;"/><path class="xtick ticks crisp" d="M0,457.8827646544182v-5" transform="translate(315.1548556430446,0)" style="stroke: rgb(0, 0, 0); stroke-opacity: 1; stroke-width: 1px;"/><g class="xtick"><text text-anchor="middle" x="0" y="472.0827646544182" transform="translate(79.11485564304462,0)" style="font-family: sans-serif; font-size: 11px; fill: rgb(0, 0, 0); fill-opacity: 1; white-space: pre; opacity: 1;">-4</text></g><g class="xtick"><text text-anchor="middle" x="0" y="472.0827646544182" style="font-family: sans-serif; font-size: 11px; fill: rgb(0, 0, 0); fill-opacity: 1; white-space: pre; opacity: 1;" transform="translate(138.1248556430446,0)">-2</text></g><g class="xtick"><text text-anchor="middle" x="0" y="472.0827646544182" style="font-family: sans-serif; font-size: 11px; fill: rgb(0, 0, 0); fill-opacity: 1; white-space: pre; opacity: 1;" transform="translate(197.1348556430446,0)">0</text></g><g class="xtick"><text text-anchor="middle" x="0" y="472.0827646544182" style="font-family: sans-serif; font-size: 11px; fill: rgb(0, 0, 0); fill-opacity: 1; white-space: pre; opacity: 1;" transform="translate(256.1448556430446,0)">2</text></g><g class="xtick"><text text-anchor="middle" x="0" y="472.0827646544182" style="font-family: sans-serif; font-size: 11px; fill: rgb(0, 0, 0); fill-opacity: 1; white-space: pre; opacity: 1;" transform="translate(315.1548556430446,0)">4</text></g></g><g class="yaxislayer-above"><path class="ytick ticks crisp" d="M40.754855643044614,0h5" transform="translate(0,429.88834645669294)" style="stroke: rgb(0, 0, 0); stroke-opacity: 1; stroke-width: 1px;"/><path class="ytick ticks crisp" d="M40.754855643044614,0h5" transform="translate(0,351.2583464566929)" style="stroke: rgb(0, 0, 0); stroke-opacity: 1; stroke-width: 1px;"/><path class="ytick ticks crisp" d="M40.754855643044614,0h5" transform="translate(0,272.6283464566929)" style="stroke: rgb(0, 0, 0); stroke-opacity: 1; stroke-width: 1px;"/><path class="ytick ticks crisp" d="M40.754855643044614,0h5" transform="translate(0,194.0083464566929)" style="stroke: rgb(0, 0, 0); stroke-opacity: 1; stroke-width: 1px;"/><path class="ytick ticks crisp" d="M40.754855643044614,0h5" transform="translate(0,115.37834645669291)" style="stroke: rgb(0, 0, 0); stroke-opacity: 1; stroke-width: 1px;"/><path class="ytick ticks crisp" d="M40.754855643044614,0h5" transform="translate(0,36.7483464566929)" style="stroke: rgb(0, 0, 0); stroke-opacity: 1; stroke-width: 1px;"/><g class="ytick"><text text-anchor="end" x="37.55485564304461" y="3.8499999999999996" transform="translate(0,429.88834645669294)" style="font-family: sans-serif; font-size: 11px; fill: rgb(0, 0, 0); fill-opacity: 1; white-space: pre; opacity: 1;">0</text></g><g class="ytick"><text text-anchor="end" x="37.55485564304461" y="3.8499999999999996" style="font-family: sans-serif; font-size: 11px; fill: rgb(0, 0, 0); fill-opacity: 1; white-space: pre; opacity: 1;" transform="translate(0,351.2583464566929)">5</text></g><g class="ytick"><text text-anchor="end" x="37.55485564304461" y="3.8499999999999996" style="font-family: sans-serif; font-size: 11px; fill: rgb(0, 0, 0); fill-opacity: 1; white-space: pre; opacity: 1;" transform="translate(0,272.6283464566929)">10</text></g><g class="ytick"><text text-anchor="end" x="37.55485564304461" y="3.8499999999999996" style="font-family: sans-serif; font-size: 11px; fill: rgb(0, 0, 0); fill-opacity: 1; white-space: pre; opacity: 1;" transform="translate(0,194.0083464566929)">15</text></g><g class="ytick"><text text-anchor="end" x="37.55485564304461" y="3.8499999999999996" style="font-family: sans-serif; font-size: 11px; fill: rgb(0, 0, 0); fill-opacity: 1; white-space: pre; opacity: 1;" transform="translate(0,115.37834645669291)">20</text></g><g class="ytick"><text text-anchor="end" x="37.55485564304461" y="3.8499999999999996" style="font-family: sans-serif; font-size: 11px; fill: rgb(0, 0, 0); fill-opacity: 1; white-space: pre; opacity: 1;" transform="translate(0,36.7483464566929)">25</text></g></g><g class="overaxes-above"/></g><g class="subplot x2y"><g class="layer-subplot"><g class="shapelayer"/><g class="imagelayer"/></g><g class="minor-gridlayer"><g class="x2"/><g class="y"/></g><g class="gridlayer"><g class="x2"><path class="x2grid crisp" transform="translate(421.1148556430446,0)" d="M0,24.478346456692904v433.4044181977253" style="stroke: rgb(0, 0, 0); stroke-opacity: 0.1; stroke-width: 0.5px;"/><path class="x2grid crisp" transform="translate(480.1248556430446,0)" d="M0,24.478346456692904v433.4044181977253" style="stroke: rgb(0, 0, 0); stroke-opacity: 0.1; stroke-width: 0.5px;"/><path class="x2grid crisp" transform="translate(539.1348556430446,0)" d="M0,24.478346456692904v433.4044181977253" style="stroke: rgb(0, 0, 0); stroke-opacity: 0.1; stroke-width: 0.5px;"/><path class="x2grid crisp" transform="translate(598.1448556430446,0)" d="M0,24.478346456692904v433.4044181977253" style="stroke: rgb(0, 0, 0); stroke-opacity: 0.1; stroke-width: 0.5px;"/><path class="x2grid crisp" transform="translate(657.1548556430446,0)" d="M0,24.478346456692904v433.4044181977253" style="stroke: rgb(0, 0, 0); stroke-opacity: 0.1; stroke-width: 0.5px;"/></g><g class="y"><path class="ygrid crisp" transform="translate(0,429.88834645669294)" d="M382.7548556430446,0h312.75695538057744" style="stroke: rgb(0, 0, 0); stroke-opacity: 0.1; stroke-width: 0.5px;"/><path class="ygrid crisp" transform="translate(0,351.2583464566929)" d="M382.7548556430446,0h312.75695538057744" style="stroke: rgb(0, 0, 0); stroke-opacity: 0.1; stroke-width: 0.5px;"/><path class="ygrid crisp" transform="translate(0,272.6283464566929)" d="M382.7548556430446,0h312.75695538057744" style="stroke: rgb(0, 0, 0); stroke-opacity: 0.1; stroke-width: 0.5px;"/><path class="ygrid crisp" transform="translate(0,194.0083464566929)" d="M382.7548556430446,0h312.75695538057744" style="stroke: rgb(0, 0, 0); stroke-opacity: 0.1; stroke-width: 0.5px;"/><path class="ygrid crisp" transform="translate(0,115.37834645669291)" d="M382.7548556430446,0h312.75695538057744" style="stroke: rgb(0, 0, 0); stroke-opacity: 0.1; stroke-width: 0.5px;"/><path class="ygrid crisp" transform="translate(0,36.7483464566929)" d="M382.7548556430446,0h312.75695538057744" style="stroke: rgb(0, 0, 0); stroke-opacity: 0.1; stroke-width: 0.5px;"/></g></g><g class="zerolinelayer"/><g class="layer-between"><g class="shapelayer"/><g class="imagelayer"/></g><path class="xlines-below"/><path class="ylines-below"/><g class="overlines-below"/><g class="xaxislayer-below"/><g class="yaxislayer-below"/><g class="overaxes-below"/><g class="overplot"><g class="x2y" transform="translate(382.7548556430446,24.478346456692904)" clip-path="url(#clipa7b0fax2yplot)"><g class="scatterlayer mlayer"><g class="trace scatter trace342de5" style="stroke-miterlimit: 2; opacity: 1;"><g class="fills"/><g class="errorbars"/><g class="lines"><path class="js-line" d="M8.85,390.33L17.7,389.69L20.65,389.79L29.51,391.01L32.46,391.71L44.26,395.79L47.21,397.08L64.91,406.07L67.86,407.63L82.62,414.83L85.57,416.04L97.37,419.71L100.32,420.29L109.17,421.13L112.12,421.1L120.97,420.07L123.92,419.43L135.72,415.54L138.68,414.29L153.43,406.98L156.38,405.41L174.08,396.53L177.03,395.28L188.83,391.4L191.78,390.76L200.64,389.73L203.59,389.69L212.44,390.53L215.39,391.11L227.19,394.79L230.14,396L244.89,403.19L247.85,404.76L268.5,415.04L271.45,416.23L283.25,419.82L286.2,420.38L295.05,421.14L298,421.08L303.91,420.49" style="vector-effect: none; fill: none; stroke: rgb(0, 154, 250); stroke-opacity: 1; stroke-width: 1px; opacity: 1;"/></g><g class="points"/><g class="text"/></g></g></g></g><path class="xlines-above crisp" d="M382.7548556430446,458.3827646544182H695.511811023622" style="fill: none; stroke-width: 1px; stroke: rgb(0, 0, 0); stroke-opacity: 1;"/><path class="ylines-above crisp" d="M0,0" style="fill: none;"/><g class="overlines-above"/><g class="xaxislayer-above"><path class="x2tick ticks crisp" d="M0,457.8827646544182v-5" transform="translate(421.1148556430446,0)" style="stroke: rgb(0, 0, 0); stroke-opacity: 1; stroke-width: 1px;"/><path class="x2tick ticks crisp" d="M0,457.8827646544182v-5" transform="translate(480.1248556430446,0)" style="stroke: rgb(0, 0, 0); stroke-opacity: 1; stroke-width: 1px;"/><path class="x2tick ticks crisp" d="M0,457.8827646544182v-5" transform="translate(539.1348556430446,0)" style="stroke: rgb(0, 0, 0); stroke-opacity: 1; stroke-width: 1px;"/><path class="x2tick ticks crisp" d="M0,457.8827646544182v-5" transform="translate(598.1448556430446,0)" style="stroke: rgb(0, 0, 0); stroke-opacity: 1; stroke-width: 1px;"/><path class="x2tick ticks crisp" d="M0,457.8827646544182v-5" transform="translate(657.1548556430446,0)" style="stroke: rgb(0, 0, 0); stroke-opacity: 1; stroke-width: 1px;"/><g class="x2tick"><text text-anchor="middle" x="0" y="472.0827646544182" transform="translate(421.1148556430446,0)" style="font-family: sans-serif; font-size: 11px; fill: rgb(0, 0, 0); fill-opacity: 1; white-space: pre; opacity: 1;">-4</text></g><g class="x2tick"><text text-anchor="middle" x="0" y="472.0827646544182" style="font-family: sans-serif; font-size: 11px; fill: rgb(0, 0, 0); fill-opacity: 1; white-space: pre; opacity: 1;" transform="translate(480.1248556430446,0)">-2</text></g><g class="x2tick"><text text-anchor="middle" x="0" y="472.0827646544182" style="font-family: sans-serif; font-size: 11px; fill: rgb(0, 0, 0); fill-opacity: 1; white-space: pre; opacity: 1;" transform="translate(539.1348556430446,0)">0</text></g><g class="x2tick"><text text-anchor="middle" x="0" y="472.0827646544182" style="font-family: sans-serif; font-size: 11px; fill: rgb(0, 0, 0); fill-opacity: 1; white-space: pre; opacity: 1;" transform="translate(598.1448556430446,0)">2</text></g><g class="x2tick"><text text-anchor="middle" x="0" y="472.0827646544182" style="font-family: sans-serif; font-size: 11px; fill: rgb(0, 0, 0); fill-opacity: 1; white-space: pre; opacity: 1;" transform="translate(657.1548556430446,0)">4</text></g></g><g class="yaxislayer-above"/><g class="overaxes-above"/></g></g><g class="polarlayer"/><g class="smithlayer"/><g class="ternarylayer"/><g class="geolayer"/><g class="funnelarealayer"/><g class="pielayer"/><g class="iciclelayer"/><g class="treemaplayer"/><g class="sunburstlayer"/><g class="glimages"/><defs id="topdefs-a7b0fa"><g class="clips"/><clipPath id="legenda7b0fa"><rect width="57" height="48" x="1" y="1"/></clipPath></defs><g class="layer-above"><g class="imagelayer"/><g class="shapelayer"/></g><g class="infolayer"><g class="legend" pointer-events="all" transform="translate(641,20)"><rect class="bg" shape-rendering="crispEdges" width="58" height="49" x="0.5" y="0.5" style="stroke: rgb(0, 0, 0); stroke-opacity: 1; fill: rgb(255, 255, 255); fill-opacity: 1; stroke-width: 1px;"/><g class="scrollbox" transform="" clip-path="url(#legenda7b0fa)"><g class="groups"><g class="traces" transform="translate(1,15.5)" style="opacity: 1;"><text class="legendtext" text-anchor="start" x="40" y="4.29" style="font-family: sans-serif; font-size: 11px; fill: rgb(0, 0, 0); fill-opacity: 1; white-space: pre;">y1</text><g class="layers" style="opacity: 1;"><g class="legendfill"/><g class="legendlines"><path class="js-line" d="M5,0h30" style="fill: none; stroke: rgb(0, 154, 250); stroke-opacity: 1; stroke-width: 1px;"/></g><g class="legendsymbols"><g class="legendpoints"/></g></g><rect class="legendtoggle" x="0" y="-9.5" width="51.625" height="19" style="fill: rgb(0, 0, 0); fill-opacity: 0;"/></g><g class="traces" transform="translate(1,34.5)" style="opacity: 1;"><text class="legendtext" text-anchor="start" x="40" y="4.29" style="font-family: sans-serif; font-size: 11px; fill: rgb(0, 0, 0); fill-opacity: 1; white-space: pre;">y1</text><g class="layers" style="opacity: 1;"><g class="legendfill"/><g class="legendlines"><path class="js-line" d="M5,0h30" style="fill: none; stroke: rgb(0, 154, 250); stroke-opacity: 1; stroke-width: 1px;"/></g><g class="legendsymbols"><g class="legendpoints"/></g></g><rect class="legendtoggle" x="0" y="-9.5" width="51.625" height="19" style="fill: rgb(0, 0, 0); fill-opacity: 0;"/></g></g></g><rect class="scrollbar" rx="20" ry="3" width="0" height="0" x="0" y="0" style="fill: rgb(128, 139, 164); fill-opacity: 1;"/></g><g class="g-gtitle"/><g class="g-xtitle"/><g class="g-x2title"/><g class="g-ytitle"/></g></svg>