<?xml version="1.0" encoding="utf-8"?>
<svg xmlns="http://www.w3.org/2000/svg" xmlns:xlink="http://www.w3.org/1999/xlink" width="600" height="400" viewBox="0 0 2400 1600">
<defs>
  <clipPath id="clip340">
    <rect x="0" y="0" width="2400" height="1600"/>
  </clipPath>
</defs>
<path clip-path="url(#clip340)" d="M0 1600 L2400 1600 L2400 0 L0 0  Z" fill="#ffffff" fill-rule="evenodd" fill-opacity="1"/>
<defs>
  <clipPath id="clip341">
    <rect x="480" y="0" width="1681" height="1600"/>
  </clipPath>
</defs>
<path clip-path="url(#clip340)" d="M156.598 1486.45 L2352.76 1486.45 L2352.76 47.2441 L156.598 47.2441  Z" fill="#ffffff" fill-rule="evenodd" fill-opacity="1"/>
<defs>
  <clipPath id="clip342">
    <rect x="156" y="47" width="2197" height="1440"/>
  </clipPath>
</defs>
<polyline clip-path="url(#clip342)" style="stroke:#000000; stroke-linecap:round; stroke-linejoin:round; stroke-width:2; stroke-opacity:0.1; fill:none" points="448.959,1486.45 448.959,47.2441 "/>
<polyline clip-path="url(#clip342)" style="stroke:#000000; stroke-linecap:round; stroke-linejoin:round; stroke-width:2; stroke-opacity:0.1; fill:none" points="909.369,1486.45 909.369,47.2441 "/>
<polyline clip-path="url(#clip342)" style="stroke:#000000; stroke-linecap:round; stroke-linejoin:round; stroke-width:2; stroke-opacity:0.1; fill:none" points="1369.78,1486.45 1369.78,47.2441 "/>
<polyline clip-path="url(#clip342)" style="stroke:#000000; stroke-linecap:round; stroke-linejoin:round; stroke-width:2; stroke-opacity:0.1; fill:none" points="1830.19,1486.45 1830.19,47.2441 "/>
<polyline clip-path="url(#clip342)" style="stroke:#000000; stroke-linecap:round; stroke-linejoin:round; stroke-width:2; stroke-opacity:0.1; fill:none" points="2290.6,1486.45 2290.6,47.2441 "/>
<polyline clip-path="url(#clip342)" style="stroke:#000000; stroke-linecap:round; stroke-linejoin:round; stroke-width:2; stroke-opacity:0.1; fill:none" points="156.598,1442.43 2352.76,1442.43 "/>
<polyline clip-path="url(#clip342)" style="stroke:#000000; stroke-linecap:round; stroke-linejoin:round; stroke-width:2; stroke-opacity:0.1; fill:none" points="156.598,1229.89 2352.76,1229.89 "/>
<polyline clip-path="url(#clip342)" style="stroke:#000000; stroke-linecap:round; stroke-linejoin:round; stroke-width:2; stroke-opacity:0.1; fill:none" points="156.598,1017.35 2352.76,1017.35 "/>
<polyline clip-path="url(#clip342)" style="stroke:#000000; stroke-linecap:round; stroke-linejoin:round; stroke-width:2; stroke-opacity:0.1; fill:none" points="156.598,804.816 2352.76,804.816 "/>
<polyline clip-path="url(#clip342)" style="stroke:#000000; stroke-linecap:round; stroke-linejoin:round; stroke-width:2; stroke-opacity:0.1; fill:none" points="156.598,592.277 2352.76,592.277 "/>
<polyline clip-path="url(#clip342)" style="stroke:#000000; stroke-linecap:round; stroke-linejoin:round; stroke-width:2; stroke-opacity:0.1; fill:none" points="156.598,379.738 2352.76,379.738 "/>
<polyline clip-path="url(#clip342)" style="stroke:#000000; stroke-linecap:round; stroke-linejoin:round; stroke-width:2; stroke-opacity:0.1; fill:none" points="156.598,167.2 2352.76,167.2 "/>
<polyline clip-path="url(#clip340)" style="stroke:#000000; stroke-linecap:round; stroke-linejoin:round; stroke-width:4; stroke-opacity:1; fill:none" points="156.598,1486.45 2352.76,1486.45 "/>
<polyline clip-path="url(#clip340)" style="stroke:#000000; stroke-linecap:round; stroke-linejoin:round; stroke-width:4; stroke-opacity:1; fill:none" points="448.959,1486.45 448.959,1467.55 "/>
<polyline clip-path="url(#clip340)" style="stroke:#000000; stroke-linecap:round; stroke-linejoin:round; stroke-width:4; stroke-opacity:1; fill:none" points="909.369,1486.45 909.369,1467.55 "/>
<polyline clip-path="url(#clip340)" style="stroke:#000000; stroke-linecap:round; stroke-linejoin:round; stroke-width:4; stroke-opacity:1; fill:none" points="1369.78,1486.45 1369.78,1467.55 "/>
<polyline clip-path="url(#clip340)" style="stroke:#000000; stroke-linecap:round; stroke-linejoin:round; stroke-width:4; stroke-opacity:1; fill:none" points="1830.19,1486.45 1830.19,1467.55 "/>
<polyline clip-path="url(#clip340)" style="stroke:#000000; stroke-linecap:round; stroke-linejoin:round; stroke-width:4; stroke-opacity:1; fill:none" points="2290.6,1486.45 2290.6,1467.55 "/>
<path clip-path="url(#clip340)" d="M443.612 1544.91 L459.931 1544.91 L459.931 1548.85 L437.987 1548.85 L437.987 1544.91 Q440.649 1542.16 445.232 1537.53 Q449.838 1532.88 451.019 1531.53 Q453.264 1529.01 454.144 1527.27 Q455.047 1525.51 455.047 1523.82 Q455.047 1521.07 453.102 1519.33 Q451.181 1517.6 448.079 1517.6 Q445.88 1517.6 443.426 1518.36 Q440.996 1519.13 438.218 1520.68 L438.218 1515.95 Q441.042 1514.82 443.496 1514.24 Q445.95 1513.66 447.987 1513.66 Q453.357 1513.66 456.551 1516.35 Q459.746 1519.03 459.746 1523.52 Q459.746 1525.65 458.936 1527.57 Q458.149 1529.47 456.042 1532.07 Q455.463 1532.74 452.362 1535.95 Q449.26 1539.15 443.612 1544.91 Z" fill="#000000" fill-rule="nonzero" fill-opacity="1" /><path clip-path="url(#clip340)" d="M912.379 1518.36 L900.573 1536.81 L912.379 1536.81 L912.379 1518.36 M911.152 1514.29 L917.031 1514.29 L917.031 1536.81 L921.962 1536.81 L921.962 1540.7 L917.031 1540.7 L917.031 1548.85 L912.379 1548.85 L912.379 1540.7 L896.777 1540.7 L896.777 1536.19 L911.152 1514.29 Z" fill="#000000" fill-rule="nonzero" fill-opacity="1" /><path clip-path="url(#clip340)" d="M1370.18 1529.7 Q1367.04 1529.7 1365.18 1531.86 Q1363.36 1534.01 1363.36 1537.76 Q1363.36 1541.49 1365.18 1543.66 Q1367.04 1545.82 1370.18 1545.82 Q1373.33 1545.82 1375.16 1543.66 Q1377.01 1541.49 1377.01 1537.76 Q1377.01 1534.01 1375.16 1531.86 Q1373.33 1529.7 1370.18 1529.7 M1379.47 1515.05 L1379.47 1519.31 Q1377.71 1518.48 1375.9 1518.04 Q1374.12 1517.6 1372.36 1517.6 Q1367.73 1517.6 1365.28 1520.72 Q1362.85 1523.85 1362.5 1530.17 Q1363.87 1528.15 1365.93 1527.09 Q1367.99 1526 1370.46 1526 Q1375.67 1526 1378.68 1529.17 Q1381.71 1532.32 1381.71 1537.76 Q1381.71 1543.08 1378.56 1546.3 Q1375.42 1549.52 1370.18 1549.52 Q1364.19 1549.52 1361.02 1544.94 Q1357.85 1540.33 1357.85 1531.6 Q1357.85 1523.41 1361.74 1518.55 Q1365.62 1513.66 1372.18 1513.66 Q1373.93 1513.66 1375.72 1514.01 Q1377.52 1514.36 1379.47 1515.05 Z" fill="#000000" fill-rule="nonzero" fill-opacity="1" /><path clip-path="url(#clip340)" d="M1830.19 1532.44 Q1826.86 1532.44 1824.94 1534.22 Q1823.04 1536 1823.04 1539.13 Q1823.04 1542.25 1824.94 1544.03 Q1826.86 1545.82 1830.19 1545.82 Q1833.52 1545.82 1835.44 1544.03 Q1837.37 1542.23 1837.37 1539.13 Q1837.37 1536 1835.44 1534.22 Q1833.55 1532.44 1830.19 1532.44 M1825.51 1530.45 Q1822.5 1529.7 1820.82 1527.64 Q1819.15 1525.58 1819.15 1522.62 Q1819.15 1518.48 1822.09 1516.07 Q1825.05 1513.66 1830.19 1513.66 Q1835.35 1513.66 1838.29 1516.07 Q1841.23 1518.48 1841.23 1522.62 Q1841.23 1525.58 1839.54 1527.64 Q1837.88 1529.7 1834.89 1530.45 Q1838.27 1531.23 1840.14 1533.52 Q1842.04 1535.82 1842.04 1539.13 Q1842.04 1544.15 1838.96 1546.83 Q1835.91 1549.52 1830.19 1549.52 Q1824.47 1549.52 1821.39 1546.83 Q1818.34 1544.15 1818.34 1539.13 Q1818.34 1535.82 1820.24 1533.52 Q1822.13 1531.23 1825.51 1530.45 M1823.8 1523.06 Q1823.8 1525.75 1825.47 1527.25 Q1827.16 1528.76 1830.19 1528.76 Q1833.2 1528.76 1834.89 1527.25 Q1836.6 1525.75 1836.6 1523.06 Q1836.6 1520.38 1834.89 1518.87 Q1833.2 1517.37 1830.19 1517.37 Q1827.16 1517.37 1825.47 1518.87 Q1823.8 1520.38 1823.8 1523.06 Z" fill="#000000" fill-rule="nonzero" fill-opacity="1" /><path clip-path="url(#clip340)" d="M2265.29 1544.91 L2272.93 1544.91 L2272.93 1518.55 L2264.62 1520.21 L2264.62 1515.95 L2272.88 1514.29 L2277.56 1514.29 L2277.56 1544.91 L2285.2 1544.91 L2285.2 1548.85 L2265.29 1548.85 L2265.29 1544.91 Z" fill="#000000" fill-rule="nonzero" fill-opacity="1" /><path clip-path="url(#clip340)" d="M2304.64 1517.37 Q2301.03 1517.37 2299.2 1520.93 Q2297.39 1524.47 2297.39 1531.6 Q2297.39 1538.71 2299.2 1542.27 Q2301.03 1545.82 2304.64 1545.82 Q2308.27 1545.82 2310.08 1542.27 Q2311.91 1538.71 2311.91 1531.6 Q2311.91 1524.47 2310.08 1520.93 Q2308.27 1517.37 2304.64 1517.37 M2304.64 1513.66 Q2310.45 1513.66 2313.51 1518.27 Q2316.58 1522.85 2316.58 1531.6 Q2316.58 1540.33 2313.51 1544.94 Q2310.45 1549.52 2304.64 1549.52 Q2298.83 1549.52 2295.75 1544.94 Q2292.7 1540.33 2292.7 1531.6 Q2292.7 1522.85 2295.75 1518.27 Q2298.83 1513.66 2304.64 1513.66 Z" fill="#000000" fill-rule="nonzero" fill-opacity="1" /><polyline clip-path="url(#clip340)" style="stroke:#000000; stroke-linecap:round; stroke-linejoin:round; stroke-width:4; stroke-opacity:1; fill:none" points="156.598,1486.45 156.598,47.2441 "/>
<polyline clip-path="url(#clip340)" style="stroke:#000000; stroke-linecap:round; stroke-linejoin:round; stroke-width:4; stroke-opacity:1; fill:none" points="156.598,1442.43 175.496,1442.43 "/>
<polyline clip-path="url(#clip340)" style="stroke:#000000; stroke-linecap:round; stroke-linejoin:round; stroke-width:4; stroke-opacity:1; fill:none" points="156.598,1229.89 175.496,1229.89 "/>
<polyline clip-path="url(#clip340)" style="stroke:#000000; stroke-linecap:round; stroke-linejoin:round; stroke-width:4; stroke-opacity:1; fill:none" points="156.598,1017.35 175.496,1017.35 "/>
<polyline clip-path="url(#clip340)" style="stroke:#000000; stroke-linecap:round; stroke-linejoin:round; stroke-width:4; stroke-opacity:1; fill:none" points="156.598,804.816 175.496,804.816 "/>
<polyline clip-path="url(#clip340)" style="stroke:#000000; stroke-linecap:round; stroke-linejoin:round; stroke-width:4; stroke-opacity:1; fill:none" points="156.598,592.277 175.496,592.277 "/>
<polyline clip-path="url(#clip340)" style="stroke:#000000; stroke-linecap:round; stroke-linejoin:round; stroke-width:4; stroke-opacity:1; fill:none" points="156.598,379.738 175.496,379.738 "/>
<polyline clip-path="url(#clip340)" style="stroke:#000000; stroke-linecap:round; stroke-linejoin:round; stroke-width:4; stroke-opacity:1; fill:none" points="156.598,167.2 175.496,167.2 "/>
<path clip-path="url(#clip340)" d="M64.6495 1428.23 Q61.0384 1428.23 59.2097 1431.79 Q57.4041 1435.34 57.4041 1442.47 Q57.4041 1449.57 59.2097 1453.14 Q61.0384 1456.68 64.6495 1456.68 Q68.2837 1456.68 70.0892 1453.14 Q71.9179 1449.57 71.9179 1442.47 Q71.9179 1435.34 70.0892 1431.79 Q68.2837 1428.23 64.6495 1428.23 M64.6495 1424.53 Q70.4596 1424.53 73.5152 1429.13 Q76.5938 1433.72 76.5938 1442.47 Q76.5938 1451.19 73.5152 1455.8 Q70.4596 1460.38 64.6495 1460.38 Q58.8393 1460.38 55.7606 1455.8 Q52.7051 1451.19 52.7051 1442.47 Q52.7051 1433.72 55.7606 1429.13 Q58.8393 1424.53 64.6495 1424.53 Z" fill="#000000" fill-rule="nonzero" fill-opacity="1" /><path clip-path="url(#clip340)" d="M84.8114 1453.83 L89.6956 1453.83 L89.6956 1459.71 L84.8114 1459.71 L84.8114 1453.83 Z" fill="#000000" fill-rule="nonzero" fill-opacity="1" /><path clip-path="url(#clip340)" d="M100.691 1455.78 L108.33 1455.78 L108.33 1429.41 L100.02 1431.08 L100.02 1426.82 L108.283 1425.15 L112.959 1425.15 L112.959 1455.78 L120.598 1455.78 L120.598 1459.71 L100.691 1459.71 L100.691 1455.78 Z" fill="#000000" fill-rule="nonzero" fill-opacity="1" /><path clip-path="url(#clip340)" d="M65.0198 1215.69 Q61.4087 1215.69 59.58 1219.26 Q57.7745 1222.8 57.7745 1229.93 Q57.7745 1237.03 59.58 1240.6 Q61.4087 1244.14 65.0198 1244.14 Q68.6541 1244.14 70.4596 1240.6 Q72.2883 1237.03 72.2883 1229.93 Q72.2883 1222.8 70.4596 1219.26 Q68.6541 1215.69 65.0198 1215.69 M65.0198 1211.99 Q70.83 1211.99 73.8855 1216.59 Q76.9642 1221.18 76.9642 1229.93 Q76.9642 1238.65 73.8855 1243.26 Q70.83 1247.84 65.0198 1247.84 Q59.2097 1247.84 56.131 1243.26 Q53.0754 1238.65 53.0754 1229.93 Q53.0754 1221.18 56.131 1216.59 Q59.2097 1211.99 65.0198 1211.99 Z" fill="#000000" fill-rule="nonzero" fill-opacity="1" /><path clip-path="url(#clip340)" d="M85.1818 1241.29 L90.066 1241.29 L90.066 1247.17 L85.1818 1247.17 L85.1818 1241.29 Z" fill="#000000" fill-rule="nonzero" fill-opacity="1" /><path clip-path="url(#clip340)" d="M104.279 1243.24 L120.598 1243.24 L120.598 1247.17 L98.6539 1247.17 L98.6539 1243.24 Q101.316 1240.48 105.899 1235.85 Q110.506 1231.2 111.686 1229.86 Q113.932 1227.33 114.811 1225.6 Q115.714 1223.84 115.714 1222.15 Q115.714 1219.4 113.77 1217.66 Q111.848 1215.92 108.746 1215.92 Q106.547 1215.92 104.094 1216.69 Q101.663 1217.45 98.8854 1219 L98.8854 1214.28 Q101.709 1213.15 104.163 1212.57 Q106.617 1211.99 108.654 1211.99 Q114.024 1211.99 117.219 1214.67 Q120.413 1217.36 120.413 1221.85 Q120.413 1223.98 119.603 1225.9 Q118.816 1227.8 116.709 1230.39 Q116.131 1231.06 113.029 1234.28 Q109.927 1237.47 104.279 1243.24 Z" fill="#000000" fill-rule="nonzero" fill-opacity="1" /><path clip-path="url(#clip340)" d="M64.0708 1003.15 Q60.4597 1003.15 58.631 1006.72 Q56.8254 1010.26 56.8254 1017.39 Q56.8254 1024.5 58.631 1028.06 Q60.4597 1031.6 64.0708 1031.6 Q67.705 1031.6 69.5105 1028.06 Q71.3392 1024.5 71.3392 1017.39 Q71.3392 1010.26 69.5105 1006.72 Q67.705 1003.15 64.0708 1003.15 M64.0708 999.449 Q69.8809 999.449 72.9365 1004.06 Q76.0151 1008.64 76.0151 1017.39 Q76.0151 1026.12 72.9365 1030.72 Q69.8809 1035.31 64.0708 1035.31 Q58.2606 1035.31 55.1819 1030.72 Q52.1264 1026.12 52.1264 1017.39 Q52.1264 1008.64 55.1819 1004.06 Q58.2606 999.449 64.0708 999.449 Z" fill="#000000" fill-rule="nonzero" fill-opacity="1" /><path clip-path="url(#clip340)" d="M84.2327 1028.75 L89.1169 1028.75 L89.1169 1034.63 L84.2327 1034.63 L84.2327 1028.75 Z" fill="#000000" fill-rule="nonzero" fill-opacity="1" /><path clip-path="url(#clip340)" d="M113.469 1016 Q116.825 1016.72 118.7 1018.99 Q120.598 1021.25 120.598 1024.59 Q120.598 1029.7 117.08 1032.5 Q113.561 1035.31 107.08 1035.31 Q104.904 1035.31 102.589 1034.87 Q100.297 1034.45 97.8437 1033.59 L97.8437 1029.08 Q99.7882 1030.21 102.103 1030.79 Q104.418 1031.37 106.941 1031.37 Q111.339 1031.37 113.631 1029.63 Q115.945 1027.9 115.945 1024.59 Q115.945 1021.53 113.793 1019.82 Q111.663 1018.08 107.844 1018.08 L103.816 1018.08 L103.816 1014.24 L108.029 1014.24 Q111.478 1014.24 113.307 1012.87 Q115.135 1011.49 115.135 1008.89 Q115.135 1006.23 113.237 1004.82 Q111.362 1003.38 107.844 1003.38 Q105.922 1003.38 103.723 1003.8 Q101.524 1004.22 98.8854 1005.1 L98.8854 1000.93 Q101.547 1000.19 103.862 999.82 Q106.2 999.449 108.26 999.449 Q113.584 999.449 116.686 1001.88 Q119.788 1004.29 119.788 1008.41 Q119.788 1011.28 118.145 1013.27 Q116.501 1015.24 113.469 1016 Z" fill="#000000" fill-rule="nonzero" fill-opacity="1" /><path clip-path="url(#clip340)" d="M62.9365 790.614 Q59.3254 790.614 57.4967 794.179 Q55.6912 797.721 55.6912 804.85 Q55.6912 811.957 57.4967 815.522 Q59.3254 819.063 62.9365 819.063 Q66.5707 819.063 68.3763 815.522 Q70.205 811.957 70.205 804.85 Q70.205 797.721 68.3763 794.179 Q66.5707 790.614 62.9365 790.614 M62.9365 786.911 Q68.7467 786.911 71.8022 791.517 Q74.8809 796.1 74.8809 804.85 Q74.8809 813.577 71.8022 818.184 Q68.7467 822.767 62.9365 822.767 Q57.1264 822.767 54.0477 818.184 Q50.9921 813.577 50.9921 804.85 Q50.9921 796.1 54.0477 791.517 Q57.1264 786.911 62.9365 786.911 Z" fill="#000000" fill-rule="nonzero" fill-opacity="1" /><path clip-path="url(#clip340)" d="M83.0984 816.216 L87.9827 816.216 L87.9827 822.096 L83.0984 822.096 L83.0984 816.216 Z" fill="#000000" fill-rule="nonzero" fill-opacity="1" /><path clip-path="url(#clip340)" d="M111.015 791.61 L99.2095 810.059 L111.015 810.059 L111.015 791.61 M109.788 787.536 L115.668 787.536 L115.668 810.059 L120.598 810.059 L120.598 813.947 L115.668 813.947 L115.668 822.096 L111.015 822.096 L111.015 813.947 L95.4132 813.947 L95.4132 809.434 L109.788 787.536 Z" fill="#000000" fill-rule="nonzero" fill-opacity="1" /><path clip-path="url(#clip340)" d="M64.418 578.076 Q60.8069 578.076 58.9782 581.64 Q57.1726 585.182 57.1726 592.312 Q57.1726 599.418 58.9782 602.983 Q60.8069 606.525 64.418 606.525 Q68.0522 606.525 69.8578 602.983 Q71.6865 599.418 71.6865 592.312 Q71.6865 585.182 69.8578 581.64 Q68.0522 578.076 64.418 578.076 M64.418 574.372 Q70.2281 574.372 73.2837 578.978 Q76.3624 583.562 76.3624 592.312 Q76.3624 601.038 73.2837 605.645 Q70.2281 610.228 64.418 610.228 Q58.6078 610.228 55.5291 605.645 Q52.4736 601.038 52.4736 592.312 Q52.4736 583.562 55.5291 578.978 Q58.6078 574.372 64.418 574.372 Z" fill="#000000" fill-rule="nonzero" fill-opacity="1" /><path clip-path="url(#clip340)" d="M84.5799 603.677 L89.4641 603.677 L89.4641 609.557 L84.5799 609.557 L84.5799 603.677 Z" fill="#000000" fill-rule="nonzero" fill-opacity="1" /><path clip-path="url(#clip340)" d="M99.6956 574.997 L118.052 574.997 L118.052 578.932 L103.978 578.932 L103.978 587.404 Q104.996 587.057 106.015 586.895 Q107.033 586.71 108.052 586.71 Q113.839 586.71 117.219 589.881 Q120.598 593.052 120.598 598.469 Q120.598 604.048 117.126 607.15 Q113.654 610.228 107.334 610.228 Q105.159 610.228 102.89 609.858 Q100.645 609.487 98.2372 608.747 L98.2372 604.048 Q100.321 605.182 102.543 605.738 Q104.765 606.293 107.242 606.293 Q111.246 606.293 113.584 604.187 Q115.922 602.08 115.922 598.469 Q115.922 594.858 113.584 592.751 Q111.246 590.645 107.242 590.645 Q105.367 590.645 103.492 591.062 Q101.64 591.478 99.6956 592.358 L99.6956 574.997 Z" fill="#000000" fill-rule="nonzero" fill-opacity="1" /><path clip-path="url(#clip340)" d="M63.2606 365.537 Q59.6495 365.537 57.8208 369.102 Q56.0152 372.643 56.0152 379.773 Q56.0152 386.88 57.8208 390.444 Q59.6495 393.986 63.2606 393.986 Q66.8948 393.986 68.7004 390.444 Q70.5291 386.88 70.5291 379.773 Q70.5291 372.643 68.7004 369.102 Q66.8948 365.537 63.2606 365.537 M63.2606 361.833 Q69.0707 361.833 72.1263 366.44 Q75.205 371.023 75.205 379.773 Q75.205 388.5 72.1263 393.106 Q69.0707 397.69 63.2606 397.69 Q57.4504 397.69 54.3717 393.106 Q51.3162 388.5 51.3162 379.773 Q51.3162 371.023 54.3717 366.44 Q57.4504 361.833 63.2606 361.833 Z" fill="#000000" fill-rule="nonzero" fill-opacity="1" /><path clip-path="url(#clip340)" d="M83.4225 391.139 L88.3067 391.139 L88.3067 397.018 L83.4225 397.018 L83.4225 391.139 Z" fill="#000000" fill-rule="nonzero" fill-opacity="1" /><path clip-path="url(#clip340)" d="M109.071 377.875 Q105.922 377.875 104.071 380.028 Q102.242 382.18 102.242 385.93 Q102.242 389.657 104.071 391.833 Q105.922 393.986 109.071 393.986 Q112.219 393.986 114.047 391.833 Q115.899 389.657 115.899 385.93 Q115.899 382.18 114.047 380.028 Q112.219 377.875 109.071 377.875 M118.353 363.222 L118.353 367.481 Q116.594 366.648 114.788 366.208 Q113.006 365.769 111.246 365.769 Q106.617 365.769 104.163 368.893 Q101.733 372.018 101.385 378.338 Q102.751 376.324 104.811 375.259 Q106.871 374.171 109.348 374.171 Q114.557 374.171 117.566 377.343 Q120.598 380.491 120.598 385.93 Q120.598 391.254 117.45 394.472 Q114.302 397.69 109.071 397.69 Q103.075 397.69 99.9039 393.106 Q96.7326 388.5 96.7326 379.773 Q96.7326 371.579 100.621 366.718 Q104.51 361.833 111.061 361.833 Q112.82 361.833 114.603 362.181 Q116.408 362.528 118.353 363.222 Z" fill="#000000" fill-rule="nonzero" fill-opacity="1" /><path clip-path="url(#clip340)" d="M64.3254 152.998 Q60.7143 152.998 58.8856 156.563 Q57.0801 160.105 57.0801 167.234 Q57.0801 174.341 58.8856 177.906 Q60.7143 181.447 64.3254 181.447 Q67.9596 181.447 69.7652 177.906 Q71.5939 174.341 71.5939 167.234 Q71.5939 160.105 69.7652 156.563 Q67.9596 152.998 64.3254 152.998 M64.3254 149.295 Q70.1355 149.295 73.1911 153.901 Q76.2698 158.485 76.2698 167.234 Q76.2698 175.961 73.1911 180.568 Q70.1355 185.151 64.3254 185.151 Q58.5152 185.151 55.4365 180.568 Q52.381 175.961 52.381 167.234 Q52.381 158.485 55.4365 153.901 Q58.5152 149.295 64.3254 149.295 Z" fill="#000000" fill-rule="nonzero" fill-opacity="1" /><path clip-path="url(#clip340)" d="M84.4873 178.6 L89.3715 178.6 L89.3715 184.48 L84.4873 184.48 L84.4873 178.6 Z" fill="#000000" fill-rule="nonzero" fill-opacity="1" /><path clip-path="url(#clip340)" d="M98.3761 149.92 L120.598 149.92 L120.598 151.91 L108.052 184.48 L103.168 184.48 L114.973 153.855 L98.3761 153.855 L98.3761 149.92 Z" fill="#000000" fill-rule="nonzero" fill-opacity="1" /><polyline clip-path="url(#clip342)" style="stroke:#0000ff; stroke-linecap:round; stroke-linejoin:round; stroke-width:4; stroke-opacity:1; fill:none" points="218.754,231.951 448.959,1445.72 679.164,949.298 909.369,1377.05 1139.57,87.9763 1369.78,464.157 1599.98,116.124 1830.19,825.875 2060.4,846.142 2290.6,104.639 "/>
<path clip-path="url(#clip340)" d="M2007.5 1438.47 L2279.55 1438.47 L2279.55 1334.79 L2007.5 1334.79  Z" fill="#ffffff" fill-rule="evenodd" fill-opacity="1"/>
<polyline clip-path="url(#clip340)" style="stroke:#000000; stroke-linecap:round; stroke-linejoin:round; stroke-width:4; stroke-opacity:1; fill:none" points="2007.5,1438.47 2279.55,1438.47 2279.55,1334.79 2007.5,1334.79 2007.5,1438.47 "/>
<polyline clip-path="url(#clip340)" style="stroke:#0000ff; stroke-linecap:round; stroke-linejoin:round; stroke-width:4; stroke-opacity:1; fill:none" points="2031.91,1386.63 2178.32,1386.63 "/>
<path clip-path="url(#clip340)" d="M2216.56 1406.32 Q2214.76 1410.95 2213.04 1412.36 Q2211.33 1413.78 2208.46 1413.78 L2205.06 1413.78 L2205.06 1410.21 L2207.56 1410.21 Q2209.32 1410.21 2210.29 1409.38 Q2211.26 1408.54 2212.44 1405.44 L2213.2 1403.5 L2202.72 1377.99 L2207.23 1377.99 L2215.33 1398.27 L2223.44 1377.99 L2227.95 1377.99 L2216.56 1406.32 Z" fill="#000000" fill-rule="nonzero" fill-opacity="1" /><path clip-path="url(#clip340)" d="M2235.24 1399.98 L2242.88 1399.98 L2242.88 1373.61 L2234.57 1375.28 L2234.57 1371.02 L2242.83 1369.35 L2247.51 1369.35 L2247.51 1399.98 L2255.15 1399.98 L2255.15 1403.91 L2235.24 1403.91 L2235.24 1399.98 Z" fill="#000000" fill-rule="nonzero" fill-opacity="1" /></svg>
