<?xml version="1.0" encoding="UTF-8"?>
<!DOCTYPE svg PUBLIC "-//W3C//DTD SVG 1.1//EN"
 "http://www.w3.org/Graphics/SVG/1.1/DTD/svg11.dtd">
<svg xmlns="http://www.w3.org/2000/svg" version="1.1"
     width="180mm" height="25mm" viewBox="0 0 100 1" stroke="none"
     preserveAspectRatio="none" shape-rendering="crispEdges">
<defs>
    <pattern id="pat_1rvvoc" width=".2" height=".2"
             patternUnits="userSpaceOnUse" patternTransform="scale(13.889,1)" >
        <path d="M.1,0h.1v.1h-.2v.1h.1z" fill="#999" opacity=".5" />
    </pattern>
</defs>
<rect width="100" height="1" fill="url(#pat_1rvvoc)" />
<path d="M1,.46V1h-1V.54z" fill="#260D40" />
<path d="M0,0h1v1h-1z" fill="#260D40" fill-opacity="1" />
<path d="M2,.46V1h-1V.54z" fill="#281043" />
<path d="M1,0h1v1h-1z" fill="#281043" fill-opacity="1" />
<path d="M3,.46V1h-1V.54z" fill="#2B1345" />
<path d="M2,0h1v1h-1z" fill="#2B1345" fill-opacity="1" />
<path d="M4,.46V1h-1V.54z" fill="#2D1748" />
<path d="M3,0h1v1h-1z" fill="#2D1748" fill-opacity="1" />
<path d="M5,.46V1h-1V.54z" fill="#2F1A4B" />
<path d="M4,0h1v1h-1z" fill="#2F1A4B" fill-opacity="1" />
<path d="M6,.46V1h-1V.54z" fill="#311D4E" />
<path d="M5,0h1v1h-1z" fill="#311D4E" fill-opacity="1" />
<path d="M7,.46V1h-1V.54z" fill="#342051" />
<path d="M6,0h1v1h-1z" fill="#342051" fill-opacity="1" />
<path d="M8,.46V1h-1V.54z" fill="#362354" />
<path d="M7,0h1v1h-1z" fill="#362354" fill-opacity="1" />
<path d="M9,.46V1h-1V.54z" fill="#382657" />
<path d="M8,0h1v1h-1z" fill="#382657" fill-opacity="1" />
<path d="M10,.46V1h-1V.54z" fill="#3A2959" />
<path d="M9,0h1v1h-1z" fill="#3A2959" fill-opacity="1" />
<path d="M11,.46V1h-1V.54z" fill="#3C2C5C" />
<path d="M10,0h1v1h-1z" fill="#3C2C5C" fill-opacity="1" />
<path d="M12,.46V1h-1V.54z" fill="#3E2F5F" />
<path d="M11,0h1v1h-1z" fill="#3E2F5F" fill-opacity="1" />
<path d="M13,.46V1h-1V.54z" fill="#403261" />
<path d="M12,0h1v1h-1z" fill="#403261" fill-opacity="1" />
<path d="M14,.46V1h-1V.54z" fill="#423464" />
<path d="M13,0h1v1h-1z" fill="#423464" fill-opacity="1" />
<path d="M15,.46V1h-1V.54z" fill="#443766" />
<path d="M14,0h1v1h-1z" fill="#443766" fill-opacity="1" />
<path d="M16,.46V1h-1V.54z" fill="#463A69" />
<path d="M15,0h1v1h-1z" fill="#463A69" fill-opacity="1" />
<path d="M17,.46V1h-1V.54z" fill="#483D6B" />
<path d="M16,0h1v1h-1z" fill="#483D6B" fill-opacity="1" />
<path d="M18,.46V1h-1V.54z" fill="#4A406E" />
<path d="M17,0h1v1h-1z" fill="#4A406E" fill-opacity="1" />
<path d="M19,.46V1h-1V.54z" fill="#4C4270" />
<path d="M18,0h1v1h-1z" fill="#4C4270" fill-opacity="1" />
<path d="M20,.46V1h-1V.54z" fill="#4E4573" />
<path d="M19,0h1v1h-1z" fill="#4E4573" fill-opacity="1" />
<path d="M21,.46V1h-1V.54z" fill="#4F4875" />
<path d="M20,0h1v1h-1z" fill="#4F4875" fill-opacity="1" />
<path d="M22,.46V1h-1V.54z" fill="#514A78" />
<path d="M21,0h1v1h-1z" fill="#514A78" fill-opacity="1" />
<path d="M23,.46V1h-1V.54z" fill="#534D7A" />
<path d="M22,0h1v1h-1z" fill="#534D7A" fill-opacity="1" />
<path d="M24,.46V1h-1V.54z" fill="#55507D" />
<path d="M23,0h1v1h-1z" fill="#55507D" fill-opacity="1" />
<path d="M25,.46V1h-1V.54z" fill="#57527F" />
<path d="M24,0h1v1h-1z" fill="#57527F" fill-opacity="1" />
<path d="M26,.46V1h-1V.54z" fill="#595581" />
<path d="M25,0h1v1h-1z" fill="#595581" fill-opacity="1" />
<path d="M27,.46V1h-1V.54z" fill="#5C5783" />
<path d="M26,0h1v1h-1z" fill="#5C5783" fill-opacity="1" />
<path d="M28,.46V1h-1V.54z" fill="#5E5985" />
<path d="M27,0h1v1h-1z" fill="#5E5985" fill-opacity="1" />
<path d="M29,.46V1h-1V.54z" fill="#615B87" />
<path d="M28,0h1v1h-1z" fill="#615B87" fill-opacity="1" />
<path d="M30,.46V1h-1V.54z" fill="#645D89" />
<path d="M29,0h1v1h-1z" fill="#645D89" fill-opacity="1" />
<path d="M31,.46V1h-1V.54z" fill="#675F8A" />
<path d="M30,0h1v1h-1z" fill="#675F8A" fill-opacity="1" />
<path d="M32,.46V1h-1V.54z" fill="#6A608B" />
<path d="M31,0h1v1h-1z" fill="#6A608B" fill-opacity="1" />
<path d="M33,.46V1h-1V.54z" fill="#6E618C" />
<path d="M32,0h1v1h-1z" fill="#6E618C" fill-opacity="1" />
<path d="M34,.46V1h-1V.54z" fill="#71618C" />
<path d="M33,0h1v1h-1z" fill="#71618C" fill-opacity="1" />
<path d="M35,.46V1h-1V.54z" fill="#74628D" />
<path d="M34,0h1v1h-1z" fill="#74628D" fill-opacity="1" />
<path d="M36,.46V1h-1V.54z" fill="#77628D" />
<path d="M35,0h1v1h-1z" fill="#77628D" fill-opacity="1" />
<path d="M37,.46V1h-1V.54z" fill="#7A638D" />
<path d="M36,0h1v1h-1z" fill="#7A638D" fill-opacity="1" />
<path d="M38,.46V1h-1V.54z" fill="#7D638E" />
<path d="M37,0h1v1h-1z" fill="#7D638E" fill-opacity="1" />
<path d="M39,.46V1h-1V.54z" fill="#80638E" />
<path d="M38,0h1v1h-1z" fill="#80638E" fill-opacity="1" />
<path d="M40,.46V1h-1V.54z" fill="#83638E" />
<path d="M39,0h1v1h-1z" fill="#83638E" fill-opacity="1" />
<path d="M41,.46V1h-1V.54z" fill="#86648E" />
<path d="M40,0h1v1h-1z" fill="#86648E" fill-opacity="1" />
<path d="M42,.46V1h-1V.54z" fill="#8A648E" />
<path d="M41,0h1v1h-1z" fill="#8A648E" fill-opacity="1" />
<path d="M43,.46V1h-1V.54z" fill="#8D648E" />
<path d="M42,0h1v1h-1z" fill="#8D648E" fill-opacity="1" />
<path d="M44,.46V1h-1V.54z" fill="#90648F" />
<path d="M43,0h1v1h-1z" fill="#90648F" fill-opacity="1" />
<path d="M45,.46V1h-1V.54z" fill="#94658F" />
<path d="M44,0h1v1h-1z" fill="#94658F" fill-opacity="1" />
<path d="M46,.46V1h-1V.54z" fill="#97658F" />
<path d="M45,0h1v1h-1z" fill="#97658F" fill-opacity="1" />
<path d="M47,.46V1h-1V.54z" fill="#9B658F" />
<path d="M46,0h1v1h-1z" fill="#9B658F" fill-opacity="1" />
<path d="M48,.46V1h-1V.54z" fill="#9E658F" />
<path d="M47,0h1v1h-1z" fill="#9E658F" fill-opacity="1" />
<path d="M49,.46V1h-1V.54z" fill="#A2668F" />
<path d="M48,0h1v1h-1z" fill="#A2668F" fill-opacity="1" />
<path d="M50,.46V1h-1V.54z" fill="#A66690" />
<path d="M49,0h1v1h-1z" fill="#A66690" fill-opacity="1" />
<path d="M51,.46V1h-1V.54z" fill="#A96690" />
<path d="M50,0h1v1h-1z" fill="#A96690" fill-opacity="1" />
<path d="M52,.46V1h-1V.54z" fill="#AD6790" />
<path d="M51,0h1v1h-1z" fill="#AD6790" fill-opacity="1" />
<path d="M53,.46V1h-1V.54z" fill="#B16790" />
<path d="M52,0h1v1h-1z" fill="#B16790" fill-opacity="1" />
<path d="M54,.46V1h-1V.54z" fill="#B56791" />
<path d="M53,0h1v1h-1z" fill="#B56791" fill-opacity="1" />
<path d="M55,.46V1h-1V.54z" fill="#B86891" />
<path d="M54,0h1v1h-1z" fill="#B86891" fill-opacity="1" />
<path d="M56,.46V1h-1V.54z" fill="#BC6992" />
<path d="M55,0h1v1h-1z" fill="#BC6992" fill-opacity="1" />
<path d="M57,.46V1h-1V.54z" fill="#C06A93" />
<path d="M56,0h1v1h-1z" fill="#C06A93" fill-opacity="1" />
<path d="M58,.46V1h-1V.54z" fill="#C36C94" />
<path d="M57,0h1v1h-1z" fill="#C36C94" fill-opacity="1" />
<path d="M59,.46V1h-1V.54z" fill="#C66E96" />
<path d="M58,0h1v1h-1z" fill="#C66E96" fill-opacity="1" />
<path d="M60,.46V1h-1V.54z" fill="#C97098" />
<path d="M59,0h1v1h-1z" fill="#C97098" fill-opacity="1" />
<path d="M61,.46V1h-1V.54z" fill="#CC739A" />
<path d="M60,0h1v1h-1z" fill="#CC739A" fill-opacity="1" />
<path d="M62,.46V1h-1V.54z" fill="#CE769C" />
<path d="M61,0h1v1h-1z" fill="#CE769C" fill-opacity="1" />
<path d="M63,.46V1h-1V.54z" fill="#D0799F" />
<path d="M62,0h1v1h-1z" fill="#D0799F" fill-opacity="1" />
<path d="M64,.46V1h-1V.54z" fill="#D17CA2" />
<path d="M63,0h1v1h-1z" fill="#D17CA2" fill-opacity="1" />
<path d="M65,.46V1h-1V.54z" fill="#D27FA4" />
<path d="M64,0h1v1h-1z" fill="#D27FA4" fill-opacity="1" />
<path d="M66,.46V1h-1V.54z" fill="#D482A7" />
<path d="M65,0h1v1h-1z" fill="#D482A7" fill-opacity="1" />
<path d="M67,.46V1h-1V.54z" fill="#D586AA" />
<path d="M66,0h1v1h-1z" fill="#D586AA" fill-opacity="1" />
<path d="M68,.46V1h-1V.54z" fill="#D689AD" />
<path d="M67,0h1v1h-1z" fill="#D689AD" fill-opacity="1" />
<path d="M69,.46V1h-1V.54z" fill="#D78DB0" />
<path d="M68,0h1v1h-1z" fill="#D78DB0" fill-opacity="1" />
<path d="M70,.46V1h-1V.54z" fill="#D890B3" />
<path d="M69,0h1v1h-1z" fill="#D890B3" fill-opacity="1" />
<path d="M71,.46V1h-1V.54z" fill="#D993B6" />
<path d="M70,0h1v1h-1z" fill="#D993B6" fill-opacity="1" />
<path d="M72,.46V1h-1V.54z" fill="#DA97B9" />
<path d="M71,0h1v1h-1z" fill="#DA97B9" fill-opacity="1" />
<path d="M73,.46V1h-1V.54z" fill="#DB9ABB" />
<path d="M72,0h1v1h-1z" fill="#DB9ABB" fill-opacity="1" />
<path d="M74,.46V1h-1V.54z" fill="#DC9DBE" />
<path d="M73,0h1v1h-1z" fill="#DC9DBE" fill-opacity="1" />
<path d="M75,.46V1h-1V.54z" fill="#DDA1C1" />
<path d="M74,0h1v1h-1z" fill="#DDA1C1" fill-opacity="1" />
<path d="M76,.46V1h-1V.54z" fill="#DEA4C4" />
<path d="M75,0h1v1h-1z" fill="#DEA4C4" fill-opacity="1" />
<path d="M77,.46V1h-1V.54z" fill="#DFA8C7" />
<path d="M76,0h1v1h-1z" fill="#DFA8C7" fill-opacity="1" />
<path d="M78,.46V1h-1V.54z" fill="#E0ABC9" />
<path d="M77,0h1v1h-1z" fill="#E0ABC9" fill-opacity="1" />
<path d="M79,.46V1h-1V.54z" fill="#E1AECC" />
<path d="M78,0h1v1h-1z" fill="#E1AECC" fill-opacity="1" />
<path d="M80,.46V1h-1V.54z" fill="#E1B2CF" />
<path d="M79,0h1v1h-1z" fill="#E1B2CF" fill-opacity="1" />
<path d="M81,.46V1h-1V.54z" fill="#E2B5D1" />
<path d="M80,0h1v1h-1z" fill="#E2B5D1" fill-opacity="1" />
<path d="M82,.46V1h-1V.54z" fill="#E3B8D4" />
<path d="M81,0h1v1h-1z" fill="#E3B8D4" fill-opacity="1" />
<path d="M83,.46V1h-1V.54z" fill="#E4BBD6" />
<path d="M82,0h1v1h-1z" fill="#E4BBD6" fill-opacity="1" />
<path d="M84,.46V1h-1V.54z" fill="#E5BFD9" />
<path d="M83,0h1v1h-1z" fill="#E5BFD9" fill-opacity="1" />
<path d="M85,.46V1h-1V.54z" fill="#E6C2DB" />
<path d="M84,0h1v1h-1z" fill="#E6C2DB" fill-opacity="1" />
<path d="M86,.46V1h-1V.54z" fill="#E6C5DD" />
<path d="M85,0h1v1h-1z" fill="#E6C5DD" fill-opacity="1" />
<path d="M87,.46V1h-1V.54z" fill="#E7C8E0" />
<path d="M86,0h1v1h-1z" fill="#E7C8E0" fill-opacity="1" />
<path d="M88,.46V1h-1V.54z" fill="#E8CBE2" />
<path d="M87,0h1v1h-1z" fill="#E8CBE2" fill-opacity="1" />
<path d="M89,.46V1h-1V.54z" fill="#E9CEE4" />
<path d="M88,0h1v1h-1z" fill="#E9CEE4" fill-opacity="1" />
<path d="M90,.46V1h-1V.54z" fill="#E9D1E6" />
<path d="M89,0h1v1h-1z" fill="#E9D1E6" fill-opacity="1" />
<path d="M91,.46V1h-1V.54z" fill="#EAD3E8" />
<path d="M90,0h1v1h-1z" fill="#EAD3E8" fill-opacity="1" />
<path d="M92,.46V1h-1V.54z" fill="#EBD6EB" />
<path d="M91,0h1v1h-1z" fill="#EBD6EB" fill-opacity="1" />
<path d="M93,.46V1h-1V.54z" fill="#EBD9ED" />
<path d="M92,0h1v1h-1z" fill="#EBD9ED" fill-opacity="1" />
<path d="M94,.46V1h-1V.54z" fill="#ECDCEF" />
<path d="M93,0h1v1h-1z" fill="#ECDCEF" fill-opacity="1" />
<path d="M95,.46V1h-1V.54z" fill="#EDDEF1" />
<path d="M94,0h1v1h-1z" fill="#EDDEF1" fill-opacity="1" />
<path d="M96,.46V1h-1V.54z" fill="#EDE1F2" />
<path d="M95,0h1v1h-1z" fill="#EDE1F2" fill-opacity="1" />
<path d="M97,.46V1h-1V.54z" fill="#EEE3F4" />
<path d="M96,0h1v1h-1z" fill="#EEE3F4" fill-opacity="1" />
<path d="M98,.46V1h-1V.54z" fill="#EFE6F6" />
<path d="M97,0h1v1h-1z" fill="#EFE6F6" fill-opacity="1" />
<path d="M99,.46V1h-1V.54z" fill="#EFE8F8" />
<path d="M98,0h1v1h-1z" fill="#EFE8F8" fill-opacity="1" />
<path d="M100,.46V1h-1V.54z" fill="#F0EAFA" />
<path d="M99,0h1v1h-1z" fill="#F0EAFA" fill-opacity="1" />
</svg>