<?xml version="1.0" encoding="utf-8"?>
<svg xmlns="http://www.w3.org/2000/svg" xmlns:xlink="http://www.w3.org/1999/xlink" width="600" height="400" viewBox="0 0 2400 1600">
<defs>
  <clipPath id="clip510">
    <rect x="0" y="0" width="2400" height="1600"/>
  </clipPath>
</defs>
<path clip-path="url(#clip510)" d="M0 1600 L2400 1600 L2400 0 L0 0  Z" fill="#ffffff" fill-rule="evenodd" fill-opacity="1"/>
<defs>
  <clipPath id="clip511">
    <rect x="480" y="0" width="1681" height="1600"/>
  </clipPath>
</defs>
<path clip-path="url(#clip510)" d="M290.012 1486.45 L2352.76 1486.45 L2352.76 47.2441 L290.012 47.2441  Z" fill="#ffffff" fill-rule="evenodd" fill-opacity="1"/>
<defs>
  <clipPath id="clip512">
    <rect x="290" y="47" width="2064" height="1440"/>
  </clipPath>
</defs>
<polyline clip-path="url(#clip512)" style="stroke:#000000; stroke-linecap:round; stroke-linejoin:round; stroke-width:2; stroke-opacity:0.1; fill:none" points="564.612,1486.45 564.612,47.2441 "/>
<polyline clip-path="url(#clip512)" style="stroke:#000000; stroke-linecap:round; stroke-linejoin:round; stroke-width:2; stroke-opacity:0.1; fill:none" points="997.053,1486.45 997.053,47.2441 "/>
<polyline clip-path="url(#clip512)" style="stroke:#000000; stroke-linecap:round; stroke-linejoin:round; stroke-width:2; stroke-opacity:0.1; fill:none" points="1429.49,1486.45 1429.49,47.2441 "/>
<polyline clip-path="url(#clip512)" style="stroke:#000000; stroke-linecap:round; stroke-linejoin:round; stroke-width:2; stroke-opacity:0.1; fill:none" points="1861.94,1486.45 1861.94,47.2441 "/>
<polyline clip-path="url(#clip512)" style="stroke:#000000; stroke-linecap:round; stroke-linejoin:round; stroke-width:2; stroke-opacity:0.1; fill:none" points="2294.38,1486.45 2294.38,47.2441 "/>
<polyline clip-path="url(#clip512)" style="stroke:#000000; stroke-linecap:round; stroke-linejoin:round; stroke-width:2; stroke-opacity:0.1; fill:none" points="290.012,1446.51 2352.76,1446.51 "/>
<polyline clip-path="url(#clip512)" style="stroke:#000000; stroke-linecap:round; stroke-linejoin:round; stroke-width:2; stroke-opacity:0.1; fill:none" points="290.012,1125.46 2352.76,1125.46 "/>
<polyline clip-path="url(#clip512)" style="stroke:#000000; stroke-linecap:round; stroke-linejoin:round; stroke-width:2; stroke-opacity:0.1; fill:none" points="290.012,804.41 2352.76,804.41 "/>
<polyline clip-path="url(#clip512)" style="stroke:#000000; stroke-linecap:round; stroke-linejoin:round; stroke-width:2; stroke-opacity:0.1; fill:none" points="290.012,483.36 2352.76,483.36 "/>
<polyline clip-path="url(#clip512)" style="stroke:#000000; stroke-linecap:round; stroke-linejoin:round; stroke-width:2; stroke-opacity:0.1; fill:none" points="290.012,162.31 2352.76,162.31 "/>
<polyline clip-path="url(#clip510)" style="stroke:#000000; stroke-linecap:round; stroke-linejoin:round; stroke-width:4; stroke-opacity:1; fill:none" points="290.012,1486.45 2352.76,1486.45 "/>
<polyline clip-path="url(#clip510)" style="stroke:#000000; stroke-linecap:round; stroke-linejoin:round; stroke-width:4; stroke-opacity:1; fill:none" points="564.612,1486.45 564.612,1467.55 "/>
<polyline clip-path="url(#clip510)" style="stroke:#000000; stroke-linecap:round; stroke-linejoin:round; stroke-width:4; stroke-opacity:1; fill:none" points="997.053,1486.45 997.053,1467.55 "/>
<polyline clip-path="url(#clip510)" style="stroke:#000000; stroke-linecap:round; stroke-linejoin:round; stroke-width:4; stroke-opacity:1; fill:none" points="1429.49,1486.45 1429.49,1467.55 "/>
<polyline clip-path="url(#clip510)" style="stroke:#000000; stroke-linecap:round; stroke-linejoin:round; stroke-width:4; stroke-opacity:1; fill:none" points="1861.94,1486.45 1861.94,1467.55 "/>
<polyline clip-path="url(#clip510)" style="stroke:#000000; stroke-linecap:round; stroke-linejoin:round; stroke-width:4; stroke-opacity:1; fill:none" points="2294.38,1486.45 2294.38,1467.55 "/>
<path clip-path="url(#clip510)" d="M559.265 1544.91 L575.585 1544.91 L575.585 1548.85 L553.64 1548.85 L553.64 1544.91 Q556.302 1542.16 560.886 1537.53 Q565.492 1532.88 566.673 1531.53 Q568.918 1529.01 569.798 1527.27 Q570.7 1525.51 570.7 1523.82 Q570.7 1521.07 568.756 1519.33 Q566.835 1517.6 563.733 1517.6 Q561.534 1517.6 559.08 1518.36 Q556.649 1519.13 553.872 1520.68 L553.872 1515.95 Q556.696 1514.82 559.149 1514.24 Q561.603 1513.66 563.64 1513.66 Q569.011 1513.66 572.205 1516.35 Q575.399 1519.03 575.399 1523.52 Q575.399 1525.65 574.589 1527.57 Q573.802 1529.47 571.696 1532.07 Q571.117 1532.74 568.015 1535.95 Q564.913 1539.15 559.265 1544.91 Z" fill="#000000" fill-rule="nonzero" fill-opacity="1" /><path clip-path="url(#clip510)" d="M1000.06 1518.36 L988.257 1536.81 L1000.06 1536.81 L1000.06 1518.36 M998.836 1514.29 L1004.72 1514.29 L1004.72 1536.81 L1009.65 1536.81 L1009.65 1540.7 L1004.72 1540.7 L1004.72 1548.85 L1000.06 1548.85 L1000.06 1540.7 L984.461 1540.7 L984.461 1536.19 L998.836 1514.29 Z" fill="#000000" fill-rule="nonzero" fill-opacity="1" /><path clip-path="url(#clip510)" d="M1429.9 1529.7 Q1426.75 1529.7 1424.9 1531.86 Q1423.07 1534.01 1423.07 1537.76 Q1423.07 1541.49 1424.9 1543.66 Q1426.75 1545.82 1429.9 1545.82 Q1433.05 1545.82 1434.88 1543.66 Q1436.73 1541.49 1436.73 1537.76 Q1436.73 1534.01 1434.88 1531.86 Q1433.05 1529.7 1429.9 1529.7 M1439.18 1515.05 L1439.18 1519.31 Q1437.42 1518.48 1435.62 1518.04 Q1433.83 1517.6 1432.08 1517.6 Q1427.45 1517.6 1424.99 1520.72 Q1422.56 1523.85 1422.21 1530.17 Q1423.58 1528.15 1425.64 1527.09 Q1427.7 1526 1430.18 1526 Q1435.39 1526 1438.39 1529.17 Q1441.43 1532.32 1441.43 1537.76 Q1441.43 1543.08 1438.28 1546.3 Q1435.13 1549.52 1429.9 1549.52 Q1423.9 1549.52 1420.73 1544.94 Q1417.56 1540.33 1417.56 1531.6 Q1417.56 1523.41 1421.45 1518.55 Q1425.34 1513.66 1431.89 1513.66 Q1433.65 1513.66 1435.43 1514.01 Q1437.24 1514.36 1439.18 1515.05 Z" fill="#000000" fill-rule="nonzero" fill-opacity="1" /><path clip-path="url(#clip510)" d="M1861.94 1532.44 Q1858.6 1532.44 1856.68 1534.22 Q1854.78 1536 1854.78 1539.13 Q1854.78 1542.25 1856.68 1544.03 Q1858.6 1545.82 1861.94 1545.82 Q1865.27 1545.82 1867.19 1544.03 Q1869.11 1542.23 1869.11 1539.13 Q1869.11 1536 1867.19 1534.22 Q1865.29 1532.44 1861.94 1532.44 M1857.26 1530.45 Q1854.25 1529.7 1852.56 1527.64 Q1850.89 1525.58 1850.89 1522.62 Q1850.89 1518.48 1853.83 1516.07 Q1856.8 1513.66 1861.94 1513.66 Q1867.1 1513.66 1870.04 1516.07 Q1872.98 1518.48 1872.98 1522.62 Q1872.98 1525.58 1871.29 1527.64 Q1869.62 1529.7 1866.63 1530.45 Q1870.01 1531.23 1871.89 1533.52 Q1873.79 1535.82 1873.79 1539.13 Q1873.79 1544.15 1870.71 1546.83 Q1867.65 1549.52 1861.94 1549.52 Q1856.22 1549.52 1853.14 1546.83 Q1850.08 1544.15 1850.08 1539.13 Q1850.08 1535.82 1851.98 1533.52 Q1853.88 1531.23 1857.26 1530.45 M1855.55 1523.06 Q1855.55 1525.75 1857.21 1527.25 Q1858.9 1528.76 1861.94 1528.76 Q1864.94 1528.76 1866.63 1527.25 Q1868.35 1525.75 1868.35 1523.06 Q1868.35 1520.38 1866.63 1518.87 Q1864.94 1517.37 1861.94 1517.37 Q1858.9 1517.37 1857.21 1518.87 Q1855.55 1520.38 1855.55 1523.06 Z" fill="#000000" fill-rule="nonzero" fill-opacity="1" /><path clip-path="url(#clip510)" d="M2269.06 1544.91 L2276.7 1544.91 L2276.7 1518.55 L2268.39 1520.21 L2268.39 1515.95 L2276.66 1514.29 L2281.33 1514.29 L2281.33 1544.91 L2288.97 1544.91 L2288.97 1548.85 L2269.06 1548.85 L2269.06 1544.91 Z" fill="#000000" fill-rule="nonzero" fill-opacity="1" /><path clip-path="url(#clip510)" d="M2308.42 1517.37 Q2304.8 1517.37 2302.98 1520.93 Q2301.17 1524.47 2301.17 1531.6 Q2301.17 1538.71 2302.98 1542.27 Q2304.8 1545.82 2308.42 1545.82 Q2312.05 1545.82 2313.86 1542.27 Q2315.68 1538.71 2315.68 1531.6 Q2315.68 1524.47 2313.86 1520.93 Q2312.05 1517.37 2308.42 1517.37 M2308.42 1513.66 Q2314.23 1513.66 2317.28 1518.27 Q2320.36 1522.85 2320.36 1531.6 Q2320.36 1540.33 2317.28 1544.94 Q2314.23 1549.52 2308.42 1549.52 Q2302.61 1549.52 2299.53 1544.94 Q2296.47 1540.33 2296.47 1531.6 Q2296.47 1522.85 2299.53 1518.27 Q2302.61 1513.66 2308.42 1513.66 Z" fill="#000000" fill-rule="nonzero" fill-opacity="1" /><polyline clip-path="url(#clip510)" style="stroke:#000000; stroke-linecap:round; stroke-linejoin:round; stroke-width:4; stroke-opacity:1; fill:none" points="290.012,1486.45 290.012,47.2441 "/>
<polyline clip-path="url(#clip510)" style="stroke:#000000; stroke-linecap:round; stroke-linejoin:round; stroke-width:4; stroke-opacity:1; fill:none" points="290.012,1446.51 308.91,1446.51 "/>
<polyline clip-path="url(#clip510)" style="stroke:#000000; stroke-linecap:round; stroke-linejoin:round; stroke-width:4; stroke-opacity:1; fill:none" points="290.012,1125.46 308.91,1125.46 "/>
<polyline clip-path="url(#clip510)" style="stroke:#000000; stroke-linecap:round; stroke-linejoin:round; stroke-width:4; stroke-opacity:1; fill:none" points="290.012,804.41 308.91,804.41 "/>
<polyline clip-path="url(#clip510)" style="stroke:#000000; stroke-linecap:round; stroke-linejoin:round; stroke-width:4; stroke-opacity:1; fill:none" points="290.012,483.36 308.91,483.36 "/>
<polyline clip-path="url(#clip510)" style="stroke:#000000; stroke-linecap:round; stroke-linejoin:round; stroke-width:4; stroke-opacity:1; fill:none" points="290.012,162.31 308.91,162.31 "/>
<path clip-path="url(#clip510)" d="M148.064 1446.96 L177.74 1446.96 L177.74 1450.9 L148.064 1450.9 L148.064 1446.96 Z" fill="#000000" fill-rule="nonzero" fill-opacity="1" /><path clip-path="url(#clip510)" d="M188.642 1459.85 L196.281 1459.85 L196.281 1433.49 L187.971 1435.15 L187.971 1430.9 L196.235 1429.23 L200.911 1429.23 L200.911 1459.85 L208.55 1459.85 L208.55 1463.79 L188.642 1463.79 L188.642 1459.85 Z" fill="#000000" fill-rule="nonzero" fill-opacity="1" /><path clip-path="url(#clip510)" d="M217.994 1457.91 L222.878 1457.91 L222.878 1463.79 L217.994 1463.79 L217.994 1457.91 Z" fill="#000000" fill-rule="nonzero" fill-opacity="1" /><path clip-path="url(#clip510)" d="M233.11 1429.23 L251.466 1429.23 L251.466 1433.16 L237.392 1433.16 L237.392 1441.64 Q238.411 1441.29 239.429 1441.13 Q240.448 1440.94 241.466 1440.94 Q247.253 1440.94 250.633 1444.11 Q254.012 1447.28 254.012 1452.7 Q254.012 1458.28 250.54 1461.38 Q247.068 1464.46 240.749 1464.46 Q238.573 1464.46 236.304 1464.09 Q234.059 1463.72 231.651 1462.98 L231.651 1458.28 Q233.735 1459.41 235.957 1459.97 Q238.179 1460.52 240.656 1460.52 Q244.661 1460.52 246.999 1458.42 Q249.336 1456.31 249.336 1452.7 Q249.336 1449.09 246.999 1446.98 Q244.661 1444.88 240.656 1444.88 Q238.781 1444.88 236.906 1445.29 Q235.054 1445.71 233.11 1446.59 L233.11 1429.23 Z" fill="#000000" fill-rule="nonzero" fill-opacity="1" /><path clip-path="url(#clip510)" d="M147.068 1125.91 L176.744 1125.91 L176.744 1129.85 L147.068 1129.85 L147.068 1125.91 Z" fill="#000000" fill-rule="nonzero" fill-opacity="1" /><path clip-path="url(#clip510)" d="M187.647 1138.8 L195.286 1138.8 L195.286 1112.44 L186.976 1114.11 L186.976 1109.85 L195.24 1108.18 L199.915 1108.18 L199.915 1138.8 L207.554 1138.8 L207.554 1142.74 L187.647 1142.74 L187.647 1138.8 Z" fill="#000000" fill-rule="nonzero" fill-opacity="1" /><path clip-path="url(#clip510)" d="M216.999 1136.86 L221.883 1136.86 L221.883 1142.74 L216.999 1142.74 L216.999 1136.86 Z" fill="#000000" fill-rule="nonzero" fill-opacity="1" /><path clip-path="url(#clip510)" d="M242.068 1111.26 Q238.457 1111.26 236.628 1114.82 Q234.823 1118.36 234.823 1125.49 Q234.823 1132.6 236.628 1136.17 Q238.457 1139.71 242.068 1139.71 Q245.702 1139.71 247.508 1136.17 Q249.336 1132.6 249.336 1125.49 Q249.336 1118.36 247.508 1114.82 Q245.702 1111.26 242.068 1111.26 M242.068 1107.55 Q247.878 1107.55 250.934 1112.16 Q254.012 1116.74 254.012 1125.49 Q254.012 1134.22 250.934 1138.83 Q247.878 1143.41 242.068 1143.41 Q236.258 1143.41 233.179 1138.83 Q230.124 1134.22 230.124 1125.49 Q230.124 1116.74 233.179 1112.16 Q236.258 1107.55 242.068 1107.55 Z" fill="#000000" fill-rule="nonzero" fill-opacity="1" /><path clip-path="url(#clip510)" d="M148.064 804.861 L177.74 804.861 L177.74 808.796 L148.064 808.796 L148.064 804.861 Z" fill="#000000" fill-rule="nonzero" fill-opacity="1" /><path clip-path="url(#clip510)" d="M197.832 790.208 Q194.221 790.208 192.392 793.773 Q190.587 797.315 190.587 804.444 Q190.587 811.551 192.392 815.116 Q194.221 818.657 197.832 818.657 Q201.466 818.657 203.272 815.116 Q205.101 811.551 205.101 804.444 Q205.101 797.315 203.272 793.773 Q201.466 790.208 197.832 790.208 M197.832 786.505 Q203.642 786.505 206.698 791.111 Q209.776 795.694 209.776 804.444 Q209.776 813.171 206.698 817.778 Q203.642 822.361 197.832 822.361 Q192.022 822.361 188.943 817.778 Q185.888 813.171 185.888 804.444 Q185.888 795.694 188.943 791.111 Q192.022 786.505 197.832 786.505 Z" fill="#000000" fill-rule="nonzero" fill-opacity="1" /><path clip-path="url(#clip510)" d="M217.994 815.81 L222.878 815.81 L222.878 821.69 L217.994 821.69 L217.994 815.81 Z" fill="#000000" fill-rule="nonzero" fill-opacity="1" /><path clip-path="url(#clip510)" d="M233.11 787.13 L251.466 787.13 L251.466 791.065 L237.392 791.065 L237.392 799.537 Q238.411 799.19 239.429 799.028 Q240.448 798.843 241.466 798.843 Q247.253 798.843 250.633 802.014 Q254.012 805.185 254.012 810.602 Q254.012 816.18 250.54 819.282 Q247.068 822.361 240.749 822.361 Q238.573 822.361 236.304 821.991 Q234.059 821.62 231.651 820.879 L231.651 816.18 Q233.735 817.315 235.957 817.87 Q238.179 818.426 240.656 818.426 Q244.661 818.426 246.999 816.319 Q249.336 814.213 249.336 810.602 Q249.336 806.991 246.999 804.884 Q244.661 802.778 240.656 802.778 Q238.781 802.778 236.906 803.194 Q235.054 803.611 233.11 804.491 L233.11 787.13 Z" fill="#000000" fill-rule="nonzero" fill-opacity="1" /><path clip-path="url(#clip510)" d="M196.837 469.159 Q193.226 469.159 191.397 472.724 Q189.591 476.265 189.591 483.395 Q189.591 490.501 191.397 494.066 Q193.226 497.608 196.837 497.608 Q200.471 497.608 202.277 494.066 Q204.105 490.501 204.105 483.395 Q204.105 476.265 202.277 472.724 Q200.471 469.159 196.837 469.159 M196.837 465.455 Q202.647 465.455 205.702 470.061 Q208.781 474.645 208.781 483.395 Q208.781 492.122 205.702 496.728 Q202.647 501.311 196.837 501.311 Q191.027 501.311 187.948 496.728 Q184.892 492.122 184.892 483.395 Q184.892 474.645 187.948 470.061 Q191.027 465.455 196.837 465.455 Z" fill="#000000" fill-rule="nonzero" fill-opacity="1" /><path clip-path="url(#clip510)" d="M216.999 494.76 L221.883 494.76 L221.883 500.64 L216.999 500.64 L216.999 494.76 Z" fill="#000000" fill-rule="nonzero" fill-opacity="1" /><path clip-path="url(#clip510)" d="M242.068 469.159 Q238.457 469.159 236.628 472.724 Q234.823 476.265 234.823 483.395 Q234.823 490.501 236.628 494.066 Q238.457 497.608 242.068 497.608 Q245.702 497.608 247.508 494.066 Q249.336 490.501 249.336 483.395 Q249.336 476.265 247.508 472.724 Q245.702 469.159 242.068 469.159 M242.068 465.455 Q247.878 465.455 250.934 470.061 Q254.012 474.645 254.012 483.395 Q254.012 492.122 250.934 496.728 Q247.878 501.311 242.068 501.311 Q236.258 501.311 233.179 496.728 Q230.124 492.122 230.124 483.395 Q230.124 474.645 233.179 470.061 Q236.258 465.455 242.068 465.455 Z" fill="#000000" fill-rule="nonzero" fill-opacity="1" /><path clip-path="url(#clip510)" d="M197.832 148.109 Q194.221 148.109 192.392 151.674 Q190.587 155.216 190.587 162.345 Q190.587 169.452 192.392 173.016 Q194.221 176.558 197.832 176.558 Q201.466 176.558 203.272 173.016 Q205.101 169.452 205.101 162.345 Q205.101 155.216 203.272 151.674 Q201.466 148.109 197.832 148.109 M197.832 144.405 Q203.642 144.405 206.698 149.012 Q209.776 153.595 209.776 162.345 Q209.776 171.072 206.698 175.678 Q203.642 180.262 197.832 180.262 Q192.022 180.262 188.943 175.678 Q185.888 171.072 185.888 162.345 Q185.888 153.595 188.943 149.012 Q192.022 144.405 197.832 144.405 Z" fill="#000000" fill-rule="nonzero" fill-opacity="1" /><path clip-path="url(#clip510)" d="M217.994 173.711 L222.878 173.711 L222.878 179.59 L217.994 179.59 L217.994 173.711 Z" fill="#000000" fill-rule="nonzero" fill-opacity="1" /><path clip-path="url(#clip510)" d="M233.11 145.03 L251.466 145.03 L251.466 148.966 L237.392 148.966 L237.392 157.438 Q238.411 157.091 239.429 156.929 Q240.448 156.743 241.466 156.743 Q247.253 156.743 250.633 159.915 Q254.012 163.086 254.012 168.503 Q254.012 174.081 250.54 177.183 Q247.068 180.262 240.749 180.262 Q238.573 180.262 236.304 179.891 Q234.059 179.521 231.651 178.78 L231.651 174.081 Q233.735 175.215 235.957 175.771 Q238.179 176.327 240.656 176.327 Q244.661 176.327 246.999 174.22 Q249.336 172.114 249.336 168.503 Q249.336 164.891 246.999 162.785 Q244.661 160.679 240.656 160.679 Q238.781 160.679 236.906 161.095 Q235.054 161.512 233.11 162.391 L233.11 145.03 Z" fill="#000000" fill-rule="nonzero" fill-opacity="1" /><path clip-path="url(#clip510)" d="M31.9065 836.346 L29.8775 836.346 Q29.8775 832.835 29.4588 832.03 Q29.008 831.225 26.8824 831.225 L9.20136 831.225 Q6.75371 831.225 6.1418 832.094 Q5.52989 832.932 5.52989 836.346 L3.46872 836.346 L2.76019 827.07 L9.68445 827.07 Q2.76019 823.979 2.76019 817.312 Q2.76019 809.583 9.20136 808.52 Q6.6893 807.393 4.72474 805.042 Q2.76019 802.658 2.76019 798.955 Q2.76019 793.995 5.20783 792.03 Q6.85033 790.581 8.68606 790.291 Q10.5218 790.001 15.2883 790.001 L27.8808 790.001 Q29.2656 789.937 29.5877 788.874 Q29.8775 787.811 29.8775 784.848 L31.9065 784.848 Q31.7133 791.58 31.7133 792.224 Q31.7133 792.739 31.9065 799.695 L29.8775 799.695 Q29.8775 796.185 29.4588 795.38 Q29.008 794.542 26.8824 794.542 L11.5202 794.542 Q8.17077 794.542 6.20621 795.573 Q4.20945 796.604 4.20945 799.438 Q4.20945 802.852 7.07577 805.589 Q9.94209 808.327 14.773 808.327 L26.8824 808.327 Q29.008 808.327 29.4588 807.521 Q29.8775 806.684 29.8775 803.174 L31.9065 803.174 Q31.7133 809.905 31.7133 810.581 Q31.7133 811.096 31.9065 818.021 L29.8775 818.021 Q29.8775 814.51 29.4588 813.705 Q29.008 812.868 26.8824 812.868 L11.5202 812.868 Q8.17077 812.868 6.20621 813.898 Q4.20945 814.929 4.20945 817.763 Q4.20945 821.177 7.07577 823.914 Q9.94209 826.652 14.773 826.652 L26.8824 826.652 Q29.008 826.652 29.4588 825.847 Q29.8775 825.009 29.8775 821.531 L31.9065 821.531 Q31.7133 828.262 31.7133 828.906 Q31.7133 829.421 31.9065 836.346 Z" fill="#000000" fill-rule="nonzero" fill-opacity="1" /><path clip-path="url(#clip510)" d="M25.6263 781.167 Q20.0225 781.167 17.0596 774.565 Q15.1594 770.603 14.6764 762.423 L12.2609 762.423 Q8.17077 762.423 6.01298 764.581 Q3.82298 766.706 3.82298 769.412 Q3.82298 774.242 6.85033 776.561 Q6.91474 774.597 7.91312 773.888 Q8.8793 773.18 9.87768 773.18 Q11.1981 773.18 12.0677 774.017 Q12.905 774.822 12.905 776.207 Q12.905 777.527 12.0999 778.397 Q11.2625 779.267 9.81327 779.267 Q6.59268 779.267 4.4671 776.368 Q2.34151 773.437 2.34151 769.283 Q2.34151 763.872 5.98077 760.265 Q7.10798 759.138 8.55724 758.59 Q10.0065 758.011 10.9727 757.946 Q11.9067 757.882 13.7746 757.882 L26.9468 757.882 Q27.3333 757.882 27.9774 757.753 Q28.6215 757.624 29.4588 757.045 Q30.264 756.433 30.264 755.434 Q30.264 753.051 26.045 753.083 L22.3413 753.083 L22.3413 751.409 L26.045 751.409 Q29.5555 751.409 30.9403 753.276 Q32.293 755.112 32.293 756.819 Q32.293 759.009 30.6827 760.394 Q29.0724 761.779 26.8824 761.972 Q29.3944 762.97 31.0369 765.257 Q32.6472 767.511 32.6472 770.603 Q32.6472 772.986 32.0353 775.241 Q31.4556 777.463 29.8131 779.331 Q28.1384 781.167 25.6263 781.167 M25.5619 776.078 Q28.0096 776.078 29.5877 774.339 Q31.1658 772.6 31.1658 770.152 Q31.1658 767.383 29.0402 764.903 Q26.8824 762.423 22.6634 762.423 L16.0612 762.423 Q16.3189 769.734 19.2496 772.922 Q22.1481 776.078 25.5619 776.078 Z" fill="#000000" fill-rule="nonzero" fill-opacity="1" /><path clip-path="url(#clip510)" d="M31.0369 748.503 L22.3413 748.503 Q21.6006 748.503 21.343 748.47 Q21.0853 748.438 20.8921 748.245 Q20.6989 748.052 20.6989 747.665 Q20.6989 747.214 20.8921 747.053 Q21.0853 746.86 21.8261 746.731 Q26.3671 745.733 28.7825 743.607 Q31.1658 741.45 31.1658 737.553 Q31.1658 733.849 29.5233 731.981 Q27.8808 730.113 25.1755 730.113 Q20.3446 730.113 19.1208 736.973 Q18.3156 740.934 17.8003 742.577 Q17.2528 744.219 16.0612 745.669 Q13.7424 748.503 10.4574 748.503 Q7.17239 748.503 4.75695 746.023 Q2.34151 743.511 2.34151 737.971 Q2.34151 734.268 4.20945 731.756 Q3.62974 731.015 3.14666 730.628 Q2.34151 729.759 2.34151 729.308 Q2.34151 728.793 2.69577 728.696 Q3.01783 728.599 3.9518 728.599 L10.5862 728.599 Q11.3269 728.599 11.5846 728.632 Q11.8422 728.664 12.0355 728.857 Q12.1965 729.05 12.1965 729.469 Q12.1965 730.21 11.5846 730.242 Q3.59754 730.757 3.59754 737.971 Q3.59754 741.868 5.11121 743.607 Q6.59268 745.347 8.62165 745.347 Q9.74886 745.347 10.6184 744.831 Q11.4558 744.284 11.9711 743.607 Q12.4542 742.899 12.9372 741.611 Q13.3881 740.322 13.5491 739.549 Q13.7102 738.744 14.0322 737.231 Q15.0306 731.949 17.1884 729.727 Q19.9581 726.957 23.4686 726.957 Q27.3655 726.957 30.0063 729.598 Q32.6472 732.239 32.6472 737.553 Q32.6472 741.836 29.7809 744.831 Q30.1674 745.218 30.5216 745.508 Q30.8437 745.797 30.9725 745.926 Q31.1013 746.023 31.198 746.055 Q31.2624 746.087 31.3268 746.152 Q32.6472 747.472 32.6472 747.794 Q32.6472 748.309 32.293 748.406 Q31.9709 748.503 31.0369 748.503 Z" fill="#000000" fill-rule="nonzero" fill-opacity="1" /><path clip-path="url(#clip510)" d="M31.0369 723.056 L22.3413 723.056 Q21.6006 723.056 21.343 723.024 Q21.0853 722.992 20.8921 722.799 Q20.6989 722.606 20.6989 722.219 Q20.6989 721.768 20.8921 721.607 Q21.0853 721.414 21.8261 721.285 Q26.3671 720.287 28.7825 718.161 Q31.1658 716.003 31.1658 712.106 Q31.1658 708.403 29.5233 706.535 Q27.8808 704.667 25.1755 704.667 Q20.3446 704.667 19.1208 711.527 Q18.3156 715.488 17.8003 717.131 Q17.2528 718.773 16.0612 720.222 Q13.7424 723.056 10.4574 723.056 Q7.17239 723.056 4.75695 720.577 Q2.34151 718.065 2.34151 712.525 Q2.34151 708.821 4.20945 706.309 Q3.62974 705.569 3.14666 705.182 Q2.34151 704.313 2.34151 703.862 Q2.34151 703.346 2.69577 703.25 Q3.01783 703.153 3.9518 703.153 L10.5862 703.153 Q11.3269 703.153 11.5846 703.185 Q11.8422 703.218 12.0355 703.411 Q12.1965 703.604 12.1965 704.023 Q12.1965 704.764 11.5846 704.796 Q3.59754 705.311 3.59754 712.525 Q3.59754 716.422 5.11121 718.161 Q6.59268 719.9 8.62165 719.9 Q9.74886 719.9 10.6184 719.385 Q11.4558 718.838 11.9711 718.161 Q12.4542 717.453 12.9372 716.164 Q13.3881 714.876 13.5491 714.103 Q13.7102 713.298 14.0322 711.784 Q15.0306 706.503 17.1884 704.28 Q19.9581 701.511 23.4686 701.511 Q27.3655 701.511 30.0063 704.152 Q32.6472 706.793 32.6472 712.106 Q32.6472 716.39 29.7809 719.385 Q30.1674 719.771 30.5216 720.061 Q30.8437 720.351 30.9725 720.48 Q31.1013 720.577 31.198 720.609 Q31.2624 720.641 31.3268 720.705 Q32.6472 722.026 32.6472 722.348 Q32.6472 722.863 32.293 722.96 Q31.9709 723.056 31.0369 723.056 Z" fill="#000000" fill-rule="nonzero" fill-opacity="1" /><path clip-path="url(#clip510)" d="M50.2409 836.346 L50.2409 690.306 L46.7209 690.306 L46.7209 836.346  Z" fill="#000000" fill-rule="evenodd" fill-opacity="1"/>
<path clip-path="url(#clip510)" d="M109.649 799.346 L107.62 799.346 Q107.62 795.835 107.201 795.03 Q106.75 794.193 104.625 794.193 L70.3256 794.193 Q67.878 794.193 67.2661 795.062 Q66.6542 795.9 66.6542 799.346 L64.593 799.346 L63.8845 789.845 L95.5428 789.845 L87.4914 780.537 Q86.2353 779.088 84.9149 779.088 Q83.4012 779.088 83.2724 780.988 L81.2112 780.988 Q81.4045 778.219 81.4045 773.613 Q81.4045 770.908 81.2112 769.008 L83.2724 769.008 Q83.4656 773.162 86.815 777.317 Q87.5558 778.251 89.4881 780.473 Q91.3883 782.663 91.5815 782.663 Q91.6459 782.663 91.8069 782.599 Q91.968 782.502 92.0968 782.373 Q92.2256 782.244 92.29 782.244 L104.11 773.871 Q106.493 772.164 107.073 770.908 Q107.62 769.652 107.62 767.462 L109.649 767.462 Q109.456 770.296 109.456 773.227 Q109.456 774.805 109.649 780.344 L107.62 780.344 Q107.62 777.961 106.074 777.961 Q105.011 777.961 97.6362 783.307 Q97.1209 783.694 95.9937 784.563 Q94.8021 785.368 94.2224 785.819 L97.8294 790.038 L104.625 790.038 Q106.75 790.038 107.201 789.233 Q107.62 788.396 107.62 784.885 L109.649 784.885 Q109.456 788.847 109.456 792.132 Q109.456 792.808 109.649 799.346 Z" fill="#000000" fill-rule="nonzero" fill-opacity="1" /><path clip-path="url(#clip510)" d="M114.866 767.844 Q112.741 767.844 110.905 766.234 Q109.069 764.591 108.264 761.757 Q106.428 764.656 102.403 764.656 Q99.3109 764.656 96.9277 762.627 Q94.3512 765.719 90.1322 765.719 Q86.2353 765.719 83.369 762.627 Q80.5027 759.535 80.5027 755.026 Q80.5027 751.065 82.8859 748.038 Q79.7942 744.881 79.762 741.049 Q79.762 739.342 80.8247 738.537 Q81.8875 737.7 83.0147 737.7 Q84.0131 737.7 84.4962 738.344 Q84.9793 738.956 84.9793 739.6 Q84.9793 740.405 84.464 740.985 Q83.9165 741.532 83.0792 741.532 Q81.6943 741.532 81.2756 740.469 Q81.2112 740.662 81.2112 741.113 Q81.2112 744.334 83.7877 747.071 Q86.2997 744.366 90.1967 744.366 Q94.0936 744.366 96.9599 747.458 Q99.8262 750.55 99.8262 755.026 Q99.8262 758.73 97.765 761.564 Q99.0855 762.691 100.889 762.691 Q102.531 762.691 103.82 761.693 Q105.108 760.694 105.301 759.181 Q105.366 758.73 105.366 754.253 Q105.366 751.612 105.43 750.163 Q105.494 748.714 105.945 746.653 Q106.364 744.559 107.201 742.917 Q109.585 738.633 114.738 738.601 Q118.506 738.601 120.857 742.949 Q123.24 747.265 123.24 753.255 Q123.24 759.31 120.824 763.593 Q118.441 767.844 114.866 767.844 M114.866 764.398 Q117.572 764.398 119.633 761.21 Q121.726 758.021 121.726 753.191 Q121.726 748.456 119.665 745.268 Q117.636 742.047 114.866 742.047 Q112.902 742.047 111.646 743.175 Q110.39 744.302 109.874 746.621 Q109.391 748.907 109.295 750.517 Q109.198 752.128 109.198 755.091 L109.198 758.988 Q109.327 761.242 110.969 762.82 Q112.612 764.398 114.866 764.398 M90.1967 760.791 Q98.3125 760.791 98.3125 755.026 Q98.3125 752.128 95.6716 750.356 Q93.9003 749.294 90.1322 749.294 Q82.0164 749.294 82.0164 755.026 Q82.0164 757.925 84.6572 759.728 Q86.4286 760.791 90.1967 760.791 Z" fill="#000000" fill-rule="nonzero" fill-opacity="1" /><polyline clip-path="url(#clip512)" style="stroke:#009af9; stroke-linecap:round; stroke-linejoin:round; stroke-width:4; stroke-opacity:1; fill:none" points="348.392,1376.62 564.612,859.816 780.833,210.146 997.053,430.661 1213.27,630.058 1429.49,695.037 1645.71,1445.72 1861.94,240.251 2078.16,393.518 2294.38,87.9763 "/>
<path clip-path="url(#clip510)" d="M2025.29 1438.47 L2284 1438.47 L2284 1334.79 L2025.29 1334.79  Z" fill="#ffffff" fill-rule="evenodd" fill-opacity="1"/>
<polyline clip-path="url(#clip510)" style="stroke:#000000; stroke-linecap:round; stroke-linejoin:round; stroke-width:4; stroke-opacity:1; fill:none" points="2025.29,1438.47 2284,1438.47 2284,1334.79 2025.29,1334.79 2025.29,1438.47 "/>
<polyline clip-path="url(#clip510)" style="stroke:#009af9; stroke-linecap:round; stroke-linejoin:round; stroke-width:4; stroke-opacity:1; fill:none" points="2048.21,1386.63 2185.73,1386.63 "/>
<path clip-path="url(#clip510)" d="M2222.49 1406.32 Q2220.69 1410.95 2218.97 1412.36 Q2217.26 1413.78 2214.39 1413.78 L2210.99 1413.78 L2210.99 1410.21 L2213.49 1410.21 Q2215.25 1410.21 2216.22 1409.38 Q2217.19 1408.54 2218.37 1405.44 L2219.13 1403.5 L2208.65 1377.99 L2213.16 1377.99 L2221.26 1398.27 L2229.37 1377.99 L2233.88 1377.99 L2222.49 1406.32 Z" fill="#000000" fill-rule="nonzero" fill-opacity="1" /><path clip-path="url(#clip510)" d="M2241.17 1399.98 L2248.81 1399.98 L2248.81 1373.61 L2240.5 1375.28 L2240.5 1371.02 L2248.76 1369.35 L2253.44 1369.35 L2253.44 1399.98 L2261.08 1399.98 L2261.08 1403.91 L2241.17 1403.91 L2241.17 1399.98 Z" fill="#000000" fill-rule="nonzero" fill-opacity="1" /></svg>
