<?xml version="1.0" encoding="utf-8"?>
<svg xmlns="http://www.w3.org/2000/svg" xmlns:xlink="http://www.w3.org/1999/xlink" width="600" height="400" viewBox="0 0 2400 1600">
<defs>
  <clipPath id="clip930">
    <rect x="0" y="0" width="2400" height="1600"/>
  </clipPath>
</defs>
<path clip-path="url(#clip930)" d="M0 1600 L2400 1600 L2400 0 L0 0  Z" fill="#ffffff" fill-rule="evenodd" fill-opacity="1"/>
<defs>
  <clipPath id="clip931">
    <rect x="480" y="0" width="1681" height="1600"/>
  </clipPath>
</defs>
<path clip-path="url(#clip930)" d="M219.866 1423.18 L2352.76 1423.18 L2352.76 123.472 L219.866 123.472  Z" fill="#ffffff" fill-rule="evenodd" fill-opacity="1"/>
<defs>
  <clipPath id="clip932">
    <rect x="219" y="123" width="2134" height="1301"/>
  </clipPath>
</defs>
<polyline clip-path="url(#clip932)" style="stroke:#000000; stroke-linecap:round; stroke-linejoin:round; stroke-width:2; stroke-opacity:0.1; fill:none" points="503.804,1423.18 503.804,123.472 "/>
<polyline clip-path="url(#clip932)" style="stroke:#000000; stroke-linecap:round; stroke-linejoin:round; stroke-width:2; stroke-opacity:0.1; fill:none" points="950.951,1423.18 950.951,123.472 "/>
<polyline clip-path="url(#clip932)" style="stroke:#000000; stroke-linecap:round; stroke-linejoin:round; stroke-width:2; stroke-opacity:0.1; fill:none" points="1398.1,1423.18 1398.1,123.472 "/>
<polyline clip-path="url(#clip932)" style="stroke:#000000; stroke-linecap:round; stroke-linejoin:round; stroke-width:2; stroke-opacity:0.1; fill:none" points="1845.24,1423.18 1845.24,123.472 "/>
<polyline clip-path="url(#clip932)" style="stroke:#000000; stroke-linecap:round; stroke-linejoin:round; stroke-width:2; stroke-opacity:0.1; fill:none" points="2292.39,1423.18 2292.39,123.472 "/>
<polyline clip-path="url(#clip932)" style="stroke:#000000; stroke-linecap:round; stroke-linejoin:round; stroke-width:2; stroke-opacity:0.1; fill:none" points="219.866,1346.19 2352.76,1346.19 "/>
<polyline clip-path="url(#clip932)" style="stroke:#000000; stroke-linecap:round; stroke-linejoin:round; stroke-width:2; stroke-opacity:0.1; fill:none" points="219.866,1067.36 2352.76,1067.36 "/>
<polyline clip-path="url(#clip932)" style="stroke:#000000; stroke-linecap:round; stroke-linejoin:round; stroke-width:2; stroke-opacity:0.1; fill:none" points="219.866,788.526 2352.76,788.526 "/>
<polyline clip-path="url(#clip932)" style="stroke:#000000; stroke-linecap:round; stroke-linejoin:round; stroke-width:2; stroke-opacity:0.1; fill:none" points="219.866,509.695 2352.76,509.695 "/>
<polyline clip-path="url(#clip932)" style="stroke:#000000; stroke-linecap:round; stroke-linejoin:round; stroke-width:2; stroke-opacity:0.1; fill:none" points="219.866,230.865 2352.76,230.865 "/>
<polyline clip-path="url(#clip930)" style="stroke:#000000; stroke-linecap:round; stroke-linejoin:round; stroke-width:4; stroke-opacity:1; fill:none" points="219.866,1423.18 2352.76,1423.18 "/>
<polyline clip-path="url(#clip930)" style="stroke:#000000; stroke-linecap:round; stroke-linejoin:round; stroke-width:4; stroke-opacity:1; fill:none" points="503.804,1423.18 503.804,1404.28 "/>
<polyline clip-path="url(#clip930)" style="stroke:#000000; stroke-linecap:round; stroke-linejoin:round; stroke-width:4; stroke-opacity:1; fill:none" points="950.951,1423.18 950.951,1404.28 "/>
<polyline clip-path="url(#clip930)" style="stroke:#000000; stroke-linecap:round; stroke-linejoin:round; stroke-width:4; stroke-opacity:1; fill:none" points="1398.1,1423.18 1398.1,1404.28 "/>
<polyline clip-path="url(#clip930)" style="stroke:#000000; stroke-linecap:round; stroke-linejoin:round; stroke-width:4; stroke-opacity:1; fill:none" points="1845.24,1423.18 1845.24,1404.28 "/>
<polyline clip-path="url(#clip930)" style="stroke:#000000; stroke-linecap:round; stroke-linejoin:round; stroke-width:4; stroke-opacity:1; fill:none" points="2292.39,1423.18 2292.39,1404.28 "/>
<path clip-path="url(#clip930)" d="M498.457 1481.64 L514.777 1481.64 L514.777 1485.58 L492.832 1485.58 L492.832 1481.64 Q495.494 1478.89 500.078 1474.26 Q504.684 1469.61 505.865 1468.27 Q508.11 1465.74 508.99 1464.01 Q509.892 1462.25 509.892 1460.56 Q509.892 1457.8 507.948 1456.07 Q506.027 1454.33 502.925 1454.33 Q500.726 1454.33 498.272 1455.09 Q495.841 1455.86 493.064 1457.41 L493.064 1452.69 Q495.888 1451.55 498.341 1450.97 Q500.795 1450.39 502.832 1450.39 Q508.203 1450.39 511.397 1453.08 Q514.591 1455.77 514.591 1460.26 Q514.591 1462.39 513.781 1464.31 Q512.994 1466.2 510.888 1468.8 Q510.309 1469.47 507.207 1472.69 Q504.105 1475.88 498.457 1481.64 Z" fill="#000000" fill-rule="nonzero" fill-opacity="1" /><path clip-path="url(#clip930)" d="M953.96 1455.09 L942.155 1473.54 L953.96 1473.54 L953.96 1455.09 M952.733 1451.02 L958.613 1451.02 L958.613 1473.54 L963.544 1473.54 L963.544 1477.43 L958.613 1477.43 L958.613 1485.58 L953.96 1485.58 L953.96 1477.43 L938.359 1477.43 L938.359 1472.92 L952.733 1451.02 Z" fill="#000000" fill-rule="nonzero" fill-opacity="1" /><path clip-path="url(#clip930)" d="M1398.5 1466.44 Q1395.35 1466.44 1393.5 1468.59 Q1391.67 1470.74 1391.67 1474.49 Q1391.67 1478.22 1393.5 1480.39 Q1395.35 1482.55 1398.5 1482.55 Q1401.65 1482.55 1403.48 1480.39 Q1405.33 1478.22 1405.33 1474.49 Q1405.33 1470.74 1403.48 1468.59 Q1401.65 1466.44 1398.5 1466.44 M1407.79 1451.78 L1407.79 1456.04 Q1406.03 1455.21 1404.22 1454.77 Q1402.44 1454.33 1400.68 1454.33 Q1396.05 1454.33 1393.6 1457.45 Q1391.16 1460.58 1390.82 1466.9 Q1392.18 1464.89 1394.24 1463.82 Q1396.3 1462.73 1398.78 1462.73 Q1403.99 1462.73 1407 1465.9 Q1410.03 1469.05 1410.03 1474.49 Q1410.03 1479.82 1406.88 1483.03 Q1403.73 1486.25 1398.5 1486.25 Q1392.51 1486.25 1389.34 1481.67 Q1386.16 1477.06 1386.16 1468.33 Q1386.16 1460.14 1390.05 1455.28 Q1393.94 1450.39 1400.49 1450.39 Q1402.25 1450.39 1404.04 1450.74 Q1405.84 1451.09 1407.79 1451.78 Z" fill="#000000" fill-rule="nonzero" fill-opacity="1" /><path clip-path="url(#clip930)" d="M1845.24 1469.17 Q1841.91 1469.17 1839.99 1470.95 Q1838.09 1472.73 1838.09 1475.86 Q1838.09 1478.98 1839.99 1480.77 Q1841.91 1482.55 1845.24 1482.55 Q1848.58 1482.55 1850.5 1480.77 Q1852.42 1478.96 1852.42 1475.86 Q1852.42 1472.73 1850.5 1470.95 Q1848.6 1469.17 1845.24 1469.17 M1840.57 1467.18 Q1837.56 1466.44 1835.87 1464.38 Q1834.2 1462.32 1834.2 1459.35 Q1834.2 1455.21 1837.14 1452.8 Q1840.11 1450.39 1845.24 1450.39 Q1850.41 1450.39 1853.35 1452.8 Q1856.29 1455.21 1856.29 1459.35 Q1856.29 1462.32 1854.6 1464.38 Q1852.93 1466.44 1849.94 1467.18 Q1853.32 1467.96 1855.2 1470.26 Q1857.1 1472.55 1857.1 1475.86 Q1857.1 1480.88 1854.02 1483.57 Q1850.96 1486.25 1845.24 1486.25 Q1839.53 1486.25 1836.45 1483.57 Q1833.39 1480.88 1833.39 1475.86 Q1833.39 1472.55 1835.29 1470.26 Q1837.19 1467.96 1840.57 1467.18 M1838.86 1459.79 Q1838.86 1462.48 1840.52 1463.98 Q1842.21 1465.49 1845.24 1465.49 Q1848.25 1465.49 1849.94 1463.98 Q1851.66 1462.48 1851.66 1459.79 Q1851.66 1457.11 1849.94 1455.6 Q1848.25 1454.1 1845.24 1454.1 Q1842.21 1454.1 1840.52 1455.6 Q1838.86 1457.11 1838.86 1459.79 Z" fill="#000000" fill-rule="nonzero" fill-opacity="1" /><path clip-path="url(#clip930)" d="M2267.08 1481.64 L2274.72 1481.64 L2274.72 1455.28 L2266.41 1456.95 L2266.41 1452.69 L2274.67 1451.02 L2279.35 1451.02 L2279.35 1481.64 L2286.99 1481.64 L2286.99 1485.58 L2267.08 1485.58 L2267.08 1481.64 Z" fill="#000000" fill-rule="nonzero" fill-opacity="1" /><path clip-path="url(#clip930)" d="M2306.43 1454.1 Q2302.82 1454.1 2300.99 1457.66 Q2299.19 1461.2 2299.19 1468.33 Q2299.19 1475.44 2300.99 1479.01 Q2302.82 1482.55 2306.43 1482.55 Q2310.06 1482.55 2311.87 1479.01 Q2313.7 1475.44 2313.7 1468.33 Q2313.7 1461.2 2311.87 1457.66 Q2310.06 1454.1 2306.43 1454.1 M2306.43 1450.39 Q2312.24 1450.39 2315.3 1455 Q2318.37 1459.58 2318.37 1468.33 Q2318.37 1477.06 2315.3 1481.67 Q2312.24 1486.25 2306.43 1486.25 Q2300.62 1486.25 2297.54 1481.67 Q2294.49 1477.06 2294.49 1468.33 Q2294.49 1459.58 2297.54 1455 Q2300.62 1450.39 2306.43 1450.39 Z" fill="#000000" fill-rule="nonzero" fill-opacity="1" /><path clip-path="url(#clip930)" d="M1170.6 1561.26 L1170.6 1548.5 L1160.1 1548.5 L1160.1 1543.22 L1176.96 1543.22 L1176.96 1563.62 Q1173.24 1566.26 1168.75 1567.63 Q1164.26 1568.97 1159.17 1568.97 Q1148.03 1568.97 1141.73 1562.47 Q1135.46 1555.95 1135.46 1544.33 Q1135.46 1532.68 1141.73 1526.19 Q1148.03 1519.66 1159.17 1519.66 Q1163.82 1519.66 1167.99 1520.81 Q1172.19 1521.96 1175.72 1524.18 L1175.72 1531.03 Q1172.16 1528 1168.15 1526.48 Q1164.14 1524.95 1159.71 1524.95 Q1150.99 1524.95 1146.6 1529.82 Q1142.24 1534.69 1142.24 1544.33 Q1142.24 1553.94 1146.6 1558.81 Q1150.99 1563.68 1159.71 1563.68 Q1163.12 1563.68 1165.79 1563.11 Q1168.47 1562.51 1170.6 1561.26 Z" fill="#000000" fill-rule="nonzero" fill-opacity="1" /><path clip-path="url(#clip930)" d="M1218.95 1548.76 L1218.95 1551.62 L1192.02 1551.62 Q1192.4 1557.67 1195.65 1560.85 Q1198.93 1564 1204.75 1564 Q1208.12 1564 1211.28 1563.17 Q1214.46 1562.35 1217.58 1560.69 L1217.58 1566.23 Q1214.43 1567.57 1211.12 1568.27 Q1207.81 1568.97 1204.4 1568.97 Q1195.87 1568.97 1190.87 1564 Q1185.91 1559.04 1185.91 1550.57 Q1185.91 1541.82 1190.62 1536.69 Q1195.36 1531.54 1203.38 1531.54 Q1210.58 1531.54 1214.74 1536.18 Q1218.95 1540.8 1218.95 1548.76 M1213.09 1547.04 Q1213.03 1542.23 1210.38 1539.37 Q1207.77 1536.5 1203.45 1536.5 Q1198.54 1536.5 1195.58 1539.27 Q1192.66 1542.04 1192.21 1547.07 L1213.09 1547.04 Z" fill="#000000" fill-rule="nonzero" fill-opacity="1" /><path clip-path="url(#clip930)" d="M1241.07 1568.04 L1222.92 1520.52 L1229.64 1520.52 L1244.7 1560.53 L1259.78 1520.52 L1266.47 1520.52 L1248.36 1568.04 L1241.07 1568.04 Z" fill="#000000" fill-rule="nonzero" fill-opacity="1" /><path clip-path="url(#clip930)" d="M1319.52 1533.76 L1319.52 1539.24 Q1317.04 1537.87 1314.53 1537.2 Q1312.04 1536.5 1309.5 1536.5 Q1303.8 1536.5 1300.65 1540.13 Q1297.5 1543.73 1297.5 1550.25 Q1297.5 1556.78 1300.65 1560.4 Q1303.8 1564 1309.5 1564 Q1312.04 1564 1314.53 1563.33 Q1317.04 1562.63 1319.52 1561.26 L1319.52 1566.68 Q1317.07 1567.82 1314.43 1568.39 Q1311.82 1568.97 1308.86 1568.97 Q1300.81 1568.97 1296.07 1563.91 Q1291.32 1558.85 1291.32 1550.25 Q1291.32 1541.53 1296.1 1536.53 Q1300.9 1531.54 1309.24 1531.54 Q1311.95 1531.54 1314.53 1532.11 Q1317.11 1532.65 1319.52 1533.76 Z" fill="#000000" fill-rule="nonzero" fill-opacity="1" /><path clip-path="url(#clip930)" d="M1353.99 1520.52 L1371.28 1538.25 L1364.88 1538.25 L1350.88 1525.68 L1336.87 1538.25 L1330.47 1538.25 L1347.76 1520.52 L1353.99 1520.52 Z" fill="#000000" fill-rule="nonzero" fill-opacity="1" /><path clip-path="url(#clip930)" d="M1381.37 1547.58 L1398.52 1547.58 L1398.52 1552.8 L1381.37 1552.8 L1381.37 1547.58 Z" fill="#000000" fill-rule="nonzero" fill-opacity="1" /><path clip-path="url(#clip930)" d="M1409.79 1562.63 L1420.29 1562.63 L1420.29 1526.38 L1408.87 1528.67 L1408.87 1522.82 L1420.23 1520.52 L1426.66 1520.52 L1426.66 1562.63 L1437.16 1562.63 L1437.16 1568.04 L1409.79 1568.04 L1409.79 1562.63 Z" fill="#000000" fill-rule="nonzero" fill-opacity="1" /><polyline clip-path="url(#clip930)" style="stroke:#000000; stroke-linecap:round; stroke-linejoin:round; stroke-width:4; stroke-opacity:1; fill:none" points="219.866,1423.18 219.866,123.472 "/>
<polyline clip-path="url(#clip930)" style="stroke:#000000; stroke-linecap:round; stroke-linejoin:round; stroke-width:4; stroke-opacity:1; fill:none" points="219.866,1346.19 238.764,1346.19 "/>
<polyline clip-path="url(#clip930)" style="stroke:#000000; stroke-linecap:round; stroke-linejoin:round; stroke-width:4; stroke-opacity:1; fill:none" points="219.866,1067.36 238.764,1067.36 "/>
<polyline clip-path="url(#clip930)" style="stroke:#000000; stroke-linecap:round; stroke-linejoin:round; stroke-width:4; stroke-opacity:1; fill:none" points="219.866,788.526 238.764,788.526 "/>
<polyline clip-path="url(#clip930)" style="stroke:#000000; stroke-linecap:round; stroke-linejoin:round; stroke-width:4; stroke-opacity:1; fill:none" points="219.866,509.695 238.764,509.695 "/>
<polyline clip-path="url(#clip930)" style="stroke:#000000; stroke-linecap:round; stroke-linejoin:round; stroke-width:4; stroke-opacity:1; fill:none" points="219.866,230.865 238.764,230.865 "/>
<path clip-path="url(#clip930)" d="M126.205 1331.99 Q122.593 1331.99 120.765 1335.55 Q118.959 1339.09 118.959 1346.22 Q118.959 1353.33 120.765 1356.89 Q122.593 1360.43 126.205 1360.43 Q129.839 1360.43 131.644 1356.89 Q133.473 1353.33 133.473 1346.22 Q133.473 1339.09 131.644 1335.55 Q129.839 1331.99 126.205 1331.99 M126.205 1328.28 Q132.015 1328.28 135.07 1332.89 Q138.149 1337.47 138.149 1346.22 Q138.149 1354.95 135.07 1359.55 Q132.015 1364.14 126.205 1364.14 Q120.394 1364.14 117.316 1359.55 Q114.26 1354.95 114.26 1346.22 Q114.26 1337.47 117.316 1332.89 Q120.394 1328.28 126.205 1328.28 Z" fill="#000000" fill-rule="nonzero" fill-opacity="1" /><path clip-path="url(#clip930)" d="M146.366 1357.59 L151.251 1357.59 L151.251 1363.47 L146.366 1363.47 L146.366 1357.59 Z" fill="#000000" fill-rule="nonzero" fill-opacity="1" /><path clip-path="url(#clip930)" d="M174.283 1332.98 L162.477 1351.43 L174.283 1351.43 L174.283 1332.98 M173.056 1328.91 L178.936 1328.91 L178.936 1351.43 L183.866 1351.43 L183.866 1355.32 L178.936 1355.32 L178.936 1363.47 L174.283 1363.47 L174.283 1355.32 L158.681 1355.32 L158.681 1350.8 L173.056 1328.91 Z" fill="#000000" fill-rule="nonzero" fill-opacity="1" /><path clip-path="url(#clip930)" d="M126.529 1053.16 Q122.918 1053.16 121.089 1056.72 Q119.283 1060.26 119.283 1067.39 Q119.283 1074.5 121.089 1078.06 Q122.918 1081.6 126.529 1081.6 Q130.163 1081.6 131.968 1078.06 Q133.797 1074.5 133.797 1067.39 Q133.797 1060.26 131.968 1056.72 Q130.163 1053.16 126.529 1053.16 M126.529 1049.45 Q132.339 1049.45 135.394 1054.06 Q138.473 1058.64 138.473 1067.39 Q138.473 1076.12 135.394 1080.72 Q132.339 1085.31 126.529 1085.31 Q120.718 1085.31 117.64 1080.72 Q114.584 1076.12 114.584 1067.39 Q114.584 1058.64 117.64 1054.06 Q120.718 1049.45 126.529 1049.45 Z" fill="#000000" fill-rule="nonzero" fill-opacity="1" /><path clip-path="url(#clip930)" d="M146.691 1078.76 L151.575 1078.76 L151.575 1084.64 L146.691 1084.64 L146.691 1078.76 Z" fill="#000000" fill-rule="nonzero" fill-opacity="1" /><path clip-path="url(#clip930)" d="M172.339 1065.49 Q169.19 1065.49 167.339 1067.65 Q165.51 1069.8 165.51 1073.55 Q165.51 1077.28 167.339 1079.45 Q169.19 1081.6 172.339 1081.6 Q175.487 1081.6 177.315 1079.45 Q179.167 1077.28 179.167 1073.55 Q179.167 1069.8 177.315 1067.65 Q175.487 1065.49 172.339 1065.49 M181.621 1050.84 L181.621 1055.1 Q179.862 1054.27 178.056 1053.83 Q176.274 1053.39 174.514 1053.39 Q169.885 1053.39 167.431 1056.51 Q165.001 1059.64 164.653 1065.96 Q166.019 1063.94 168.079 1062.88 Q170.139 1061.79 172.616 1061.79 Q177.825 1061.79 180.834 1064.96 Q183.866 1068.11 183.866 1073.55 Q183.866 1078.87 180.718 1082.09 Q177.57 1085.31 172.339 1085.31 Q166.343 1085.31 163.172 1080.72 Q160.001 1076.12 160.001 1067.39 Q160.001 1059.2 163.89 1054.34 Q167.778 1049.45 174.329 1049.45 Q176.089 1049.45 177.871 1049.8 Q179.676 1050.15 181.621 1050.84 Z" fill="#000000" fill-rule="nonzero" fill-opacity="1" /><path clip-path="url(#clip930)" d="M126.783 774.324 Q123.172 774.324 121.343 777.889 Q119.538 781.431 119.538 788.561 Q119.538 795.667 121.343 799.232 Q123.172 802.773 126.783 802.773 Q130.417 802.773 132.223 799.232 Q134.052 795.667 134.052 788.561 Q134.052 781.431 132.223 777.889 Q130.417 774.324 126.783 774.324 M126.783 770.621 Q132.593 770.621 135.649 775.227 Q138.728 779.811 138.728 788.561 Q138.728 797.287 135.649 801.894 Q132.593 806.477 126.783 806.477 Q120.973 806.477 117.894 801.894 Q114.839 797.287 114.839 788.561 Q114.839 779.811 117.894 775.227 Q120.973 770.621 126.783 770.621 Z" fill="#000000" fill-rule="nonzero" fill-opacity="1" /><path clip-path="url(#clip930)" d="M146.945 799.926 L151.829 799.926 L151.829 805.806 L146.945 805.806 L146.945 799.926 Z" fill="#000000" fill-rule="nonzero" fill-opacity="1" /><path clip-path="url(#clip930)" d="M172.014 789.394 Q168.681 789.394 166.76 791.176 Q164.862 792.959 164.862 796.084 Q164.862 799.209 166.76 800.991 Q168.681 802.773 172.014 802.773 Q175.348 802.773 177.269 800.991 Q179.19 799.185 179.19 796.084 Q179.19 792.959 177.269 791.176 Q175.371 789.394 172.014 789.394 M167.339 787.403 Q164.329 786.662 162.64 784.602 Q160.973 782.542 160.973 779.579 Q160.973 775.436 163.913 773.028 Q166.876 770.621 172.014 770.621 Q177.176 770.621 180.116 773.028 Q183.056 775.436 183.056 779.579 Q183.056 782.542 181.366 784.602 Q179.7 786.662 176.714 787.403 Q180.093 788.19 181.968 790.482 Q183.866 792.773 183.866 796.084 Q183.866 801.107 180.788 803.792 Q177.732 806.477 172.014 806.477 Q166.297 806.477 163.218 803.792 Q160.163 801.107 160.163 796.084 Q160.163 792.773 162.061 790.482 Q163.959 788.19 167.339 787.403 M165.626 780.019 Q165.626 782.704 167.292 784.209 Q168.982 785.713 172.014 785.713 Q175.024 785.713 176.714 784.209 Q178.426 782.704 178.426 780.019 Q178.426 777.334 176.714 775.829 Q175.024 774.324 172.014 774.324 Q168.982 774.324 167.292 775.829 Q165.626 777.334 165.626 780.019 Z" fill="#000000" fill-rule="nonzero" fill-opacity="1" /><path clip-path="url(#clip930)" d="M117.501 523.04 L125.14 523.04 L125.14 496.674 L116.83 498.341 L116.83 494.082 L125.093 492.415 L129.769 492.415 L129.769 523.04 L137.408 523.04 L137.408 526.975 L117.501 526.975 L117.501 523.04 Z" fill="#000000" fill-rule="nonzero" fill-opacity="1" /><path clip-path="url(#clip930)" d="M146.853 521.096 L151.737 521.096 L151.737 526.975 L146.853 526.975 L146.853 521.096 Z" fill="#000000" fill-rule="nonzero" fill-opacity="1" /><path clip-path="url(#clip930)" d="M171.922 495.494 Q168.311 495.494 166.482 499.059 Q164.677 502.6 164.677 509.73 Q164.677 516.836 166.482 520.401 Q168.311 523.943 171.922 523.943 Q175.556 523.943 177.362 520.401 Q179.19 516.836 179.19 509.73 Q179.19 502.6 177.362 499.059 Q175.556 495.494 171.922 495.494 M171.922 491.79 Q177.732 491.79 180.788 496.397 Q183.866 500.98 183.866 509.73 Q183.866 518.457 180.788 523.063 Q177.732 527.647 171.922 527.647 Q166.112 527.647 163.033 523.063 Q159.978 518.457 159.978 509.73 Q159.978 500.98 163.033 496.397 Q166.112 491.79 171.922 491.79 Z" fill="#000000" fill-rule="nonzero" fill-opacity="1" /><path clip-path="url(#clip930)" d="M119.098 244.21 L126.737 244.21 L126.737 217.844 L118.427 219.511 L118.427 215.251 L126.691 213.585 L131.367 213.585 L131.367 244.21 L139.005 244.21 L139.005 248.145 L119.098 248.145 L119.098 244.21 Z" fill="#000000" fill-rule="nonzero" fill-opacity="1" /><path clip-path="url(#clip930)" d="M148.45 242.265 L153.334 242.265 L153.334 248.145 L148.45 248.145 L148.45 242.265 Z" fill="#000000" fill-rule="nonzero" fill-opacity="1" /><path clip-path="url(#clip930)" d="M167.547 244.21 L183.866 244.21 L183.866 248.145 L161.922 248.145 L161.922 244.21 Q164.584 241.455 169.167 236.825 Q173.774 232.173 174.954 230.83 Q177.2 228.307 178.079 226.571 Q178.982 224.811 178.982 223.122 Q178.982 220.367 177.038 218.631 Q175.116 216.895 172.014 216.895 Q169.815 216.895 167.362 217.659 Q164.931 218.423 162.153 219.974 L162.153 215.251 Q164.977 214.117 167.431 213.538 Q169.885 212.96 171.922 212.96 Q177.292 212.96 180.487 215.645 Q183.681 218.33 183.681 222.821 Q183.681 224.95 182.871 226.872 Q182.084 228.77 179.977 231.362 Q179.399 232.034 176.297 235.251 Q173.195 238.446 167.547 244.21 Z" fill="#000000" fill-rule="nonzero" fill-opacity="1" /><path clip-path="url(#clip930)" d="M57.2247 888.784 L44.4614 888.784 L44.4614 899.287 L39.1779 899.287 L39.1779 882.418 L59.58 882.418 Q62.2218 886.142 63.5904 890.63 Q64.9272 895.118 64.9272 900.21 Q64.9272 911.35 58.4342 917.652 Q51.9093 923.923 40.2919 923.923 Q28.6427 923.923 22.1496 917.652 Q15.6248 911.35 15.6248 900.21 Q15.6248 895.563 16.7706 891.394 Q17.9164 887.193 20.1444 883.66 L26.9876 883.66 Q23.9639 887.224 22.4361 891.235 Q20.9083 895.245 20.9083 899.669 Q20.9083 908.39 25.7781 912.783 Q30.6479 917.143 40.2919 917.143 Q49.9041 917.143 54.7739 912.783 Q59.6436 908.39 59.6436 899.669 Q59.6436 896.264 59.0707 893.59 Q58.466 890.916 57.2247 888.784 Z" fill="#000000" fill-rule="nonzero" fill-opacity="1" /><path clip-path="url(#clip930)" d="M44.7161 840.436 L47.5806 840.436 L47.5806 867.363 Q53.6281 866.981 56.8109 863.735 Q59.9619 860.457 59.9619 854.632 Q59.9619 851.258 59.1344 848.107 Q58.3069 844.924 56.6518 841.805 L62.1899 841.805 Q63.5267 844.956 64.227 848.266 Q64.9272 851.576 64.9272 854.982 Q64.9272 863.512 59.9619 868.509 Q54.9967 873.474 46.5303 873.474 Q37.7774 873.474 32.6531 868.764 Q27.4968 864.021 27.4968 856.001 Q27.4968 848.807 32.1438 844.638 Q36.7589 840.436 44.7161 840.436 M42.9973 846.293 Q38.1912 846.357 35.3266 848.998 Q32.4621 851.608 32.4621 855.937 Q32.4621 860.839 35.2312 863.799 Q38.0002 866.727 43.0292 867.172 L42.9973 846.293 Z" fill="#000000" fill-rule="nonzero" fill-opacity="1" /><path clip-path="url(#clip930)" d="M64.0042 818.316 L16.4842 836.458 L16.4842 829.742 L56.4926 814.687 L16.4842 799.6 L16.4842 792.916 L64.0042 811.027 L64.0042 818.316 Z" fill="#000000" fill-rule="nonzero" fill-opacity="1" /><path clip-path="url(#clip930)" d="M29.7248 739.858 L35.1993 739.858 Q33.8307 742.341 33.1623 744.855 Q32.4621 747.338 32.4621 749.884 Q32.4621 755.582 36.0905 758.733 Q39.6872 761.884 46.212 761.884 Q52.7369 761.884 56.3653 758.733 Q59.9619 755.582 59.9619 749.884 Q59.9619 747.338 59.2935 744.855 Q58.5933 742.341 57.2247 739.858 L62.6355 739.858 Q63.7814 742.309 64.3543 744.951 Q64.9272 747.561 64.9272 750.521 Q64.9272 758.573 59.8664 763.316 Q54.8057 768.058 46.212 768.058 Q37.491 768.058 32.4939 763.284 Q27.4968 758.478 27.4968 750.139 Q27.4968 747.433 28.0697 744.855 Q28.6108 742.277 29.7248 739.858 Z" fill="#000000" fill-rule="nonzero" fill-opacity="1" /><path clip-path="url(#clip930)" d="M16.4842 705.388 L34.2127 688.105 L34.2127 694.503 L21.6404 708.507 L34.2127 722.512 L34.2127 728.909 L16.4842 711.626 L16.4842 705.388 Z" fill="#000000" fill-rule="nonzero" fill-opacity="1" /><path clip-path="url(#clip930)" d="M43.5384 678.015 L43.5384 660.86 L48.7583 660.86 L48.7583 678.015 L43.5384 678.015 Z" fill="#000000" fill-rule="nonzero" fill-opacity="1" /><path clip-path="url(#clip930)" d="M58.5933 645.168 L58.5933 622.729 L64.0042 622.729 L64.0042 652.903 L58.5933 652.903 Q54.8057 649.242 48.44 642.94 Q42.0425 636.607 40.1964 634.983 Q36.7271 631.896 34.34 630.686 Q31.921 629.445 29.5975 629.445 Q25.8099 629.445 23.4228 632.119 Q21.0356 634.76 21.0356 639.025 Q21.0356 642.049 22.086 645.423 Q23.1363 648.765 25.2688 652.584 L18.7758 652.584 Q17.2162 648.701 16.4205 645.328 Q15.6248 641.954 15.6248 639.153 Q15.6248 631.769 19.3169 627.376 Q23.009 622.984 29.1837 622.984 Q32.112 622.984 34.7537 624.098 Q37.3637 625.18 40.9285 628.076 Q41.8515 628.872 46.2757 633.137 Q50.668 637.402 58.5933 645.168 Z" fill="#000000" fill-rule="nonzero" fill-opacity="1" /><path clip-path="url(#clip930)" d="M636.526 12.096 L648.719 12.096 L664.153 53.2532 L679.668 12.096 L691.861 12.096 L691.861 72.576 L683.881 72.576 L683.881 19.4686 L668.285 60.9499 L660.062 60.9499 L644.466 19.4686 L644.466 72.576 L636.526 72.576 L636.526 12.096 Z" fill="#000000" fill-rule="nonzero" fill-opacity="1" /><path clip-path="url(#clip930)" d="M726.658 76.7889 Q723.499 84.8907 720.501 87.3618 Q717.503 89.8329 712.48 89.8329 L706.525 89.8329 L706.525 83.5945 L710.9 83.5945 Q713.979 83.5945 715.68 82.1361 Q717.382 80.6778 719.448 75.2496 L720.785 71.8468 L702.434 27.2059 L710.333 27.2059 L724.511 62.6918 L738.69 27.2059 L746.589 27.2059 L726.658 76.7889 Z" fill="#000000" fill-rule="nonzero" fill-opacity="1" /><path clip-path="url(#clip930)" d="M782.48 54.671 L782.48 27.2059 L789.934 27.2059 L789.934 54.3874 Q789.934 60.8284 792.445 64.0691 Q794.957 67.2693 799.98 67.2693 Q806.016 67.2693 809.499 63.421 Q813.024 59.5726 813.024 52.9291 L813.024 27.2059 L820.477 27.2059 L820.477 72.576 L813.024 72.576 L813.024 65.6084 Q810.31 69.7404 806.704 71.7658 Q803.139 73.7508 798.4 73.7508 Q790.582 73.7508 786.531 68.8897 Q782.48 64.0286 782.48 54.671 M801.236 26.1121 L801.236 26.1121 Z" fill="#000000" fill-rule="nonzero" fill-opacity="1" /><path clip-path="url(#clip930)" d="M873.544 45.1919 L873.544 72.576 L866.091 72.576 L866.091 45.4349 Q866.091 38.994 863.579 35.7938 Q861.067 32.5936 856.044 32.5936 Q850.008 32.5936 846.525 36.4419 Q843.041 40.2903 843.041 46.9338 L843.041 72.576 L835.547 72.576 L835.547 27.2059 L843.041 27.2059 L843.041 34.2544 Q845.714 30.163 849.32 28.1376 Q852.966 26.1121 857.705 26.1121 Q865.523 26.1121 869.534 30.9732 Q873.544 35.7938 873.544 45.1919 Z" fill="#000000" fill-rule="nonzero" fill-opacity="1" /><path clip-path="url(#clip930)" d="M888.411 27.2059 L895.865 27.2059 L895.865 72.576 L888.411 72.576 L888.411 27.2059 M888.411 9.54393 L895.865 9.54393 L895.865 18.9825 L888.411 18.9825 L888.411 9.54393 Z" fill="#000000" fill-rule="nonzero" fill-opacity="1" /><path clip-path="url(#clip930)" d="M918.833 14.324 L918.833 27.2059 L934.186 27.2059 L934.186 32.9987 L918.833 32.9987 L918.833 57.6282 Q918.833 63.1779 920.332 64.7578 Q921.871 66.3376 926.53 66.3376 L934.186 66.3376 L934.186 72.576 L926.53 72.576 Q917.902 72.576 914.62 69.3758 Q911.339 66.1351 911.339 57.6282 L911.339 32.9987 L905.87 32.9987 L905.87 27.2059 L911.339 27.2059 L911.339 14.324 L918.833 14.324 Z" fill="#000000" fill-rule="nonzero" fill-opacity="1" /><path clip-path="url(#clip930)" d="M966.958 9.54393 L966.958 15.7418 L959.828 15.7418 Q955.818 15.7418 954.238 17.3622 Q952.699 18.9825 952.699 23.1955 L952.699 27.2059 L964.973 27.2059 L964.973 32.9987 L952.699 32.9987 L952.699 72.576 L945.205 72.576 L945.205 32.9987 L938.075 32.9987 L938.075 27.2059 L945.205 27.2059 L945.205 24.0462 Q945.205 16.471 948.729 13.0277 Q952.253 9.54393 959.909 9.54393 L966.958 9.54393 Z" fill="#000000" fill-rule="nonzero" fill-opacity="1" /><path clip-path="url(#clip930)" d="M972.427 54.671 L972.427 27.2059 L979.88 27.2059 L979.88 54.3874 Q979.88 60.8284 982.392 64.0691 Q984.904 67.2693 989.927 67.2693 Q995.963 67.2693 999.446 63.421 Q1002.97 59.5726 1002.97 52.9291 L1002.97 27.2059 L1010.42 27.2059 L1010.42 72.576 L1002.97 72.576 L1002.97 65.6084 Q1000.26 69.7404 996.651 71.7658 Q993.086 73.7508 988.347 73.7508 Q980.529 73.7508 976.478 68.8897 Q972.427 64.0286 972.427 54.671 M991.182 26.1121 L991.182 26.1121 Z" fill="#000000" fill-rule="nonzero" fill-opacity="1" /><path clip-path="url(#clip930)" d="M1025.78 9.54393 L1033.23 9.54393 L1033.23 72.576 L1025.78 72.576 L1025.78 9.54393 Z" fill="#000000" fill-rule="nonzero" fill-opacity="1" /><path clip-path="url(#clip930)" d="M1105.05 34.0924 L1105.05 9.54393 L1112.51 9.54393 L1112.51 72.576 L1105.05 72.576 L1105.05 65.7705 Q1102.7 69.8214 1099.1 71.8063 Q1095.53 73.7508 1090.51 73.7508 Q1082.29 73.7508 1077.1 67.1883 Q1071.96 60.6258 1071.96 49.9314 Q1071.96 39.2371 1077.1 32.6746 Q1082.29 26.1121 1090.51 26.1121 Q1095.53 26.1121 1099.1 28.0971 Q1102.7 30.0415 1105.05 34.0924 M1079.65 49.9314 Q1079.65 58.1548 1083.02 62.8538 Q1086.42 67.5124 1092.33 67.5124 Q1098.25 67.5124 1101.65 62.8538 Q1105.05 58.1548 1105.05 49.9314 Q1105.05 41.7081 1101.65 37.0496 Q1098.25 32.3505 1092.33 32.3505 Q1086.42 32.3505 1083.02 37.0496 Q1079.65 41.7081 1079.65 49.9314 Z" fill="#000000" fill-rule="nonzero" fill-opacity="1" /><path clip-path="url(#clip930)" d="M1148.48 49.7694 Q1139.45 49.7694 1135.96 51.8354 Q1132.48 53.9013 1132.48 58.8839 Q1132.48 62.8538 1135.07 65.2034 Q1137.7 67.5124 1142.2 67.5124 Q1148.4 67.5124 1152.12 63.1374 Q1155.89 58.7219 1155.89 51.4303 L1155.89 49.7694 L1148.48 49.7694 M1163.35 46.6907 L1163.35 72.576 L1155.89 72.576 L1155.89 65.6895 Q1153.34 69.8214 1149.53 71.8063 Q1145.72 73.7508 1140.22 73.7508 Q1133.25 73.7508 1129.12 69.8619 Q1125.02 65.9325 1125.02 59.3701 Q1125.02 51.7138 1130.13 47.825 Q1135.27 43.9361 1145.44 43.9361 L1155.89 43.9361 L1155.89 43.2069 Q1155.89 38.0623 1152.49 35.2672 Q1149.13 32.4315 1143.01 32.4315 Q1139.12 32.4315 1135.44 33.3632 Q1131.75 34.295 1128.35 36.1584 L1128.35 29.2718 Q1132.44 27.692 1136.29 26.9223 Q1140.13 26.1121 1143.78 26.1121 Q1153.62 26.1121 1158.48 31.2163 Q1163.35 36.3204 1163.35 46.6907 Z" fill="#000000" fill-rule="nonzero" fill-opacity="1" /><path clip-path="url(#clip930)" d="M1186.07 14.324 L1186.07 27.2059 L1201.42 27.2059 L1201.42 32.9987 L1186.07 32.9987 L1186.07 57.6282 Q1186.07 63.1779 1187.57 64.7578 Q1189.11 66.3376 1193.77 66.3376 L1201.42 66.3376 L1201.42 72.576 L1193.77 72.576 Q1185.14 72.576 1181.86 69.3758 Q1178.58 66.1351 1178.58 57.6282 L1178.58 32.9987 L1173.11 32.9987 L1173.11 27.2059 L1178.58 27.2059 L1178.58 14.324 L1186.07 14.324 Z" fill="#000000" fill-rule="nonzero" fill-opacity="1" /><path clip-path="url(#clip930)" d="M1231.85 49.7694 Q1222.81 49.7694 1219.33 51.8354 Q1215.85 53.9013 1215.85 58.8839 Q1215.85 62.8538 1218.44 65.2034 Q1221.07 67.5124 1225.57 67.5124 Q1231.77 67.5124 1235.49 63.1374 Q1239.26 58.7219 1239.26 51.4303 L1239.26 49.7694 L1231.85 49.7694 M1246.71 46.6907 L1246.71 72.576 L1239.26 72.576 L1239.26 65.6895 Q1236.71 69.8214 1232.9 71.8063 Q1229.09 73.7508 1223.58 73.7508 Q1216.62 73.7508 1212.48 69.8619 Q1208.39 65.9325 1208.39 59.3701 Q1208.39 51.7138 1213.5 47.825 Q1218.64 43.9361 1228.81 43.9361 L1239.26 43.9361 L1239.26 43.2069 Q1239.26 38.0623 1235.86 35.2672 Q1232.49 32.4315 1226.38 32.4315 Q1222.49 32.4315 1218.8 33.3632 Q1215.12 34.295 1211.71 36.1584 L1211.71 29.2718 Q1215.81 27.692 1219.65 26.9223 Q1223.5 26.1121 1227.15 26.1121 Q1236.99 26.1121 1241.85 31.2163 Q1246.71 36.3204 1246.71 46.6907 Z" fill="#000000" fill-rule="nonzero" fill-opacity="1" /><path clip-path="url(#clip930)" d="M1284.1 27.2059 L1291.56 27.2059 L1300.87 62.6108 L1310.15 27.2059 L1318.94 27.2059 L1328.26 62.6108 L1337.53 27.2059 L1344.99 27.2059 L1333.12 72.576 L1324.33 72.576 L1314.57 35.3887 L1304.76 72.576 L1295.97 72.576 L1284.1 27.2059 Z" fill="#000000" fill-rule="nonzero" fill-opacity="1" /><path clip-path="url(#clip930)" d="M1356.29 27.2059 L1363.74 27.2059 L1363.74 72.576 L1356.29 72.576 L1356.29 27.2059 M1356.29 9.54393 L1363.74 9.54393 L1363.74 18.9825 L1356.29 18.9825 L1356.29 9.54393 Z" fill="#000000" fill-rule="nonzero" fill-opacity="1" /><path clip-path="url(#clip930)" d="M1386.71 14.324 L1386.71 27.2059 L1402.07 27.2059 L1402.07 32.9987 L1386.71 32.9987 L1386.71 57.6282 Q1386.71 63.1779 1388.21 64.7578 Q1389.75 66.3376 1394.41 66.3376 L1402.07 66.3376 L1402.07 72.576 L1394.41 72.576 Q1385.78 72.576 1382.5 69.3758 Q1379.22 66.1351 1379.22 57.6282 L1379.22 32.9987 L1373.75 32.9987 L1373.75 27.2059 L1379.22 27.2059 L1379.22 14.324 L1386.71 14.324 Z" fill="#000000" fill-rule="nonzero" fill-opacity="1" /><path clip-path="url(#clip930)" d="M1449.58 45.1919 L1449.58 72.576 L1442.13 72.576 L1442.13 45.4349 Q1442.13 38.994 1439.62 35.7938 Q1437.11 32.5936 1432.08 32.5936 Q1426.05 32.5936 1422.56 36.4419 Q1419.08 40.2903 1419.08 46.9338 L1419.08 72.576 L1411.59 72.576 L1411.59 9.54393 L1419.08 9.54393 L1419.08 34.2544 Q1421.75 30.163 1425.36 28.1376 Q1429 26.1121 1433.74 26.1121 Q1441.56 26.1121 1445.57 30.9732 Q1449.58 35.7938 1449.58 45.1919 Z" fill="#000000" fill-rule="nonzero" fill-opacity="1" /><path clip-path="url(#clip930)" d="M1509.7 76.7889 Q1506.54 84.8907 1503.54 87.3618 Q1500.54 89.8329 1495.52 89.8329 L1489.57 89.8329 L1489.57 83.5945 L1493.94 83.5945 Q1497.02 83.5945 1498.72 82.1361 Q1500.42 80.6778 1502.49 75.2496 L1503.82 71.8468 L1485.47 27.2059 L1493.37 27.2059 L1507.55 62.6918 L1521.73 27.2059 L1529.63 27.2059 L1509.7 76.7889 Z" fill="#000000" fill-rule="nonzero" fill-opacity="1" /><path clip-path="url(#clip930)" d="M1578.73 48.0275 L1578.73 51.6733 L1544.45 51.6733 Q1544.94 59.3701 1549.07 63.421 Q1553.25 67.4314 1560.66 67.4314 Q1564.95 67.4314 1568.96 66.3781 Q1573.01 65.3249 1576.98 63.2184 L1576.98 70.267 Q1572.97 71.9684 1568.76 72.8596 Q1564.55 73.7508 1560.21 73.7508 Q1549.36 73.7508 1543 67.4314 Q1536.68 61.1119 1536.68 50.3365 Q1536.68 39.1965 1542.67 32.6746 Q1548.71 26.1121 1558.92 26.1121 Q1568.07 26.1121 1573.38 32.0264 Q1578.73 37.9003 1578.73 48.0275 M1571.27 45.84 Q1571.19 39.7232 1567.83 36.0774 Q1564.51 32.4315 1559 32.4315 Q1552.76 32.4315 1548.99 35.9558 Q1545.27 39.4801 1544.7 45.8805 L1571.27 45.84 Z" fill="#000000" fill-rule="nonzero" fill-opacity="1" /><path clip-path="url(#clip930)" d="M1617.25 34.1734 Q1615.99 33.4443 1614.5 33.1202 Q1613.04 32.7556 1611.25 32.7556 Q1604.93 32.7556 1601.53 36.8875 Q1598.17 40.9789 1598.17 48.6757 L1598.17 72.576 L1590.68 72.576 L1590.68 27.2059 L1598.17 27.2059 L1598.17 34.2544 Q1600.52 30.1225 1604.29 28.1376 Q1608.05 26.1121 1613.44 26.1121 Q1614.21 26.1121 1615.14 26.2337 Q1616.07 26.3147 1617.21 26.5172 L1617.25 34.1734 Z" fill="#000000" fill-rule="nonzero" fill-opacity="1" /><path clip-path="url(#clip930)" d="M1649.9 34.1734 Q1648.64 33.4443 1647.15 33.1202 Q1645.69 32.7556 1643.9 32.7556 Q1637.59 32.7556 1634.18 36.8875 Q1630.82 40.9789 1630.82 48.6757 L1630.82 72.576 L1623.33 72.576 L1623.33 27.2059 L1630.82 27.2059 L1630.82 34.2544 Q1633.17 30.1225 1636.94 28.1376 Q1640.7 26.1121 1646.09 26.1121 Q1646.86 26.1121 1647.79 26.2337 Q1648.73 26.3147 1649.86 26.5172 L1649.9 34.1734 Z" fill="#000000" fill-rule="nonzero" fill-opacity="1" /><path clip-path="url(#clip930)" d="M1673.48 32.4315 Q1667.48 32.4315 1664 37.1306 Q1660.51 41.7891 1660.51 49.9314 Q1660.51 58.0738 1663.96 62.7728 Q1667.44 67.4314 1673.48 67.4314 Q1679.43 67.4314 1682.91 62.7323 Q1686.4 58.0333 1686.4 49.9314 Q1686.4 41.8701 1682.91 37.1711 Q1679.43 32.4315 1673.48 32.4315 M1673.48 26.1121 Q1683.2 26.1121 1688.75 32.4315 Q1694.3 38.7509 1694.3 49.9314 Q1694.3 61.0714 1688.75 67.4314 Q1683.2 73.7508 1673.48 73.7508 Q1663.71 73.7508 1658.16 67.4314 Q1652.65 61.0714 1652.65 49.9314 Q1652.65 38.7509 1658.16 32.4315 Q1663.71 26.1121 1673.48 26.1121 Z" fill="#000000" fill-rule="nonzero" fill-opacity="1" /><path clip-path="url(#clip930)" d="M1732.94 34.1734 Q1731.69 33.4443 1730.19 33.1202 Q1728.73 32.7556 1726.95 32.7556 Q1720.63 32.7556 1717.23 36.8875 Q1713.86 40.9789 1713.86 48.6757 L1713.86 72.576 L1706.37 72.576 L1706.37 27.2059 L1713.86 27.2059 L1713.86 34.2544 Q1716.21 30.1225 1719.98 28.1376 Q1723.75 26.1121 1729.14 26.1121 Q1729.91 26.1121 1730.84 26.2337 Q1731.77 26.3147 1732.9 26.5172 L1732.94 34.1734 Z" fill="#000000" fill-rule="nonzero" fill-opacity="1" /><path clip-path="url(#clip930)" d="M1799.7 49.9314 Q1799.7 41.7081 1796.3 37.0496 Q1792.94 32.3505 1787.02 32.3505 Q1781.11 32.3505 1777.71 37.0496 Q1774.34 41.7081 1774.34 49.9314 Q1774.34 58.1548 1777.71 62.8538 Q1781.11 67.5124 1787.02 67.5124 Q1792.94 67.5124 1796.3 62.8538 Q1799.7 58.1548 1799.7 49.9314 M1774.34 34.0924 Q1776.69 30.0415 1780.26 28.0971 Q1783.86 26.1121 1788.85 26.1121 Q1797.11 26.1121 1802.25 32.6746 Q1807.44 39.2371 1807.44 49.9314 Q1807.44 60.6258 1802.25 67.1883 Q1797.11 73.7508 1788.85 73.7508 Q1783.86 73.7508 1780.26 71.8063 Q1776.69 69.8214 1774.34 65.7705 L1774.34 72.576 L1766.85 72.576 L1766.85 9.54393 L1774.34 9.54393 L1774.34 34.0924 Z" fill="#000000" fill-rule="nonzero" fill-opacity="1" /><path clip-path="url(#clip930)" d="M1840.41 49.7694 Q1831.38 49.7694 1827.9 51.8354 Q1824.41 53.9013 1824.41 58.8839 Q1824.41 62.8538 1827.01 65.2034 Q1829.64 67.5124 1834.14 67.5124 Q1840.33 67.5124 1844.06 63.1374 Q1847.83 58.7219 1847.83 51.4303 L1847.83 49.7694 L1840.41 49.7694 M1855.28 46.6907 L1855.28 72.576 L1847.83 72.576 L1847.83 65.6895 Q1845.28 69.8214 1841.47 71.8063 Q1837.66 73.7508 1832.15 73.7508 Q1825.18 73.7508 1821.05 69.8619 Q1816.96 65.9325 1816.96 59.3701 Q1816.96 51.7138 1822.06 47.825 Q1827.21 43.9361 1837.38 43.9361 L1847.83 43.9361 L1847.83 43.2069 Q1847.83 38.0623 1844.42 35.2672 Q1841.06 32.4315 1834.95 32.4315 Q1831.06 32.4315 1827.37 33.3632 Q1823.68 34.295 1820.28 36.1584 L1820.28 29.2718 Q1824.37 27.692 1828.22 26.9223 Q1832.07 26.1121 1835.71 26.1121 Q1845.56 26.1121 1850.42 31.2163 Q1855.28 36.3204 1855.28 46.6907 Z" fill="#000000" fill-rule="nonzero" fill-opacity="1" /><path clip-path="url(#clip930)" d="M1896.92 34.1734 Q1895.67 33.4443 1894.17 33.1202 Q1892.71 32.7556 1890.93 32.7556 Q1884.61 32.7556 1881.21 36.8875 Q1877.84 40.9789 1877.84 48.6757 L1877.84 72.576 L1870.35 72.576 L1870.35 27.2059 L1877.84 27.2059 L1877.84 34.2544 Q1880.19 30.1225 1883.96 28.1376 Q1887.73 26.1121 1893.12 26.1121 Q1893.89 26.1121 1894.82 26.2337 Q1895.75 26.3147 1896.88 26.5172 L1896.92 34.1734 Z" fill="#000000" fill-rule="nonzero" fill-opacity="1" /><path clip-path="url(#clip930)" d="M1933.67 28.5427 L1933.67 35.5912 Q1930.51 33.9709 1927.1 33.1607 Q1923.7 32.3505 1920.05 32.3505 Q1914.51 32.3505 1911.71 34.0519 Q1908.96 35.7533 1908.96 39.156 Q1908.96 41.7486 1910.94 43.2475 Q1912.93 44.7058 1918.92 46.0426 L1921.47 46.6097 Q1929.41 48.3111 1932.73 51.4303 Q1936.1 54.509 1936.1 60.0587 Q1936.1 66.3781 1931.07 70.0644 Q1926.09 73.7508 1917.34 73.7508 Q1913.69 73.7508 1909.72 73.0216 Q1905.8 72.3329 1901.42 70.9151 L1901.42 63.2184 Q1905.55 65.3654 1909.56 66.4591 Q1913.57 67.5124 1917.5 67.5124 Q1922.77 67.5124 1925.6 65.73 Q1928.44 63.9071 1928.44 60.6258 Q1928.44 57.5877 1926.37 55.9673 Q1924.35 54.3469 1917.42 52.8481 L1914.83 52.2405 Q1907.9 50.7821 1904.82 47.7845 Q1901.74 44.7463 1901.74 39.4801 Q1901.74 33.0797 1906.28 29.5959 Q1910.82 26.1121 1919.16 26.1121 Q1923.3 26.1121 1926.94 26.7198 Q1930.59 27.3274 1933.67 28.5427 Z" fill="#000000" fill-rule="nonzero" fill-opacity="1" /><polyline clip-path="url(#clip932)" style="stroke:#009af9; stroke-linecap:round; stroke-linejoin:round; stroke-width:4; stroke-opacity:1; fill:none" points="280.231,319.27 302.588,291.534 324.946,268.764 347.303,251.187 369.66,238.979 392.018,232.262 414.375,231.102 436.732,235.513 459.09,245.449 481.447,260.811 503.804,281.446 526.162,307.147 548.519,337.659 570.876,372.675 593.234,411.846 615.591,454.781 637.948,501.051 660.306,550.193 682.663,601.716 705.02,655.106 727.378,709.829 749.735,765.338 772.092,821.079 794.45,876.494 816.807,931.031 839.164,984.144 861.522,1035.3 883.879,1083.99 906.236,1129.74 928.594,1172.07 950.951,1210.57 973.308,1244.85 995.666,1274.57 1018.02,1299.44 1040.38,1319.2 1062.74,1333.66 1085.1,1342.67 1107.45,1346.14 1129.81,1344.05 1152.17,1336.4 1174.52,1323.28 1196.88,1304.82 1219.24,1281.19 1241.6,1252.65 1263.95,1219.47 1286.31,1181.98 1308.67,1140.56 1331.03,1095.62 1353.38,1047.62 1375.74,997.022 1398.1,944.345 1420.46,890.111 1442.81,834.862 1465.17,779.149 1487.53,723.531 1509.88,668.562 1532.24,614.791 1554.6,562.757 1576.96,512.978 1599.31,465.952 1621.67,422.15 1644.03,382.008 1666.39,345.928 1688.74,314.27 1711.1,287.351 1733.46,265.44 1755.82,248.755 1778.17,237.463 1800.53,231.677 1822.89,231.455 1845.24,236.799 1867.6,247.656 1889.96,263.917 1912.32,285.42 1934.67,311.949 1957.03,343.241 1979.39,378.981 2001.75,418.814 2024.1,462.34 2046.46,509.126 2068.82,558.703 2091.18,610.577 2113.53,664.229 2135.89,719.122 2158.25,774.71 2180.6,830.435 2202.96,885.741 2225.32,940.076 2247.68,992.897 2270.03,1043.68 2292.39,1091.91 "/>
<polyline clip-path="url(#clip932)" style="stroke:#000000; stroke-linecap:round; stroke-linejoin:round; stroke-width:4; stroke-opacity:1; fill:none" points="280.231,354.756 280.231,283.784 "/>
<polyline clip-path="url(#clip932)" style="stroke:#000000; stroke-linecap:round; stroke-linejoin:round; stroke-width:4; stroke-opacity:1; fill:none" points="302.588,318.079 302.588,264.989 "/>
<polyline clip-path="url(#clip932)" style="stroke:#000000; stroke-linecap:round; stroke-linejoin:round; stroke-width:4; stroke-opacity:1; fill:none" points="324.946,275.811 324.946,261.716 "/>
<polyline clip-path="url(#clip932)" style="stroke:#000000; stroke-linecap:round; stroke-linejoin:round; stroke-width:4; stroke-opacity:1; fill:none" points="347.303,259.793 347.303,242.581 "/>
<polyline clip-path="url(#clip932)" style="stroke:#000000; stroke-linecap:round; stroke-linejoin:round; stroke-width:4; stroke-opacity:1; fill:none" points="369.66,265.156 369.66,212.802 "/>
<polyline clip-path="url(#clip932)" style="stroke:#000000; stroke-linecap:round; stroke-linejoin:round; stroke-width:4; stroke-opacity:1; fill:none" points="392.018,234.342 392.018,230.182 "/>
<polyline clip-path="url(#clip932)" style="stroke:#000000; stroke-linecap:round; stroke-linejoin:round; stroke-width:4; stroke-opacity:1; fill:none" points="414.375,242.141 414.375,220.064 "/>
<polyline clip-path="url(#clip932)" style="stroke:#000000; stroke-linecap:round; stroke-linejoin:round; stroke-width:4; stroke-opacity:1; fill:none" points="436.732,240.097 436.732,230.929 "/>
<polyline clip-path="url(#clip932)" style="stroke:#000000; stroke-linecap:round; stroke-linejoin:round; stroke-width:4; stroke-opacity:1; fill:none" points="459.09,282.012 459.09,208.886 "/>
<polyline clip-path="url(#clip932)" style="stroke:#000000; stroke-linecap:round; stroke-linejoin:round; stroke-width:4; stroke-opacity:1; fill:none" points="481.447,269.32 481.447,252.302 "/>
<polyline clip-path="url(#clip932)" style="stroke:#000000; stroke-linecap:round; stroke-linejoin:round; stroke-width:4; stroke-opacity:1; fill:none" points="503.804,360.742 503.804,202.15 "/>
<polyline clip-path="url(#clip932)" style="stroke:#000000; stroke-linecap:round; stroke-linejoin:round; stroke-width:4; stroke-opacity:1; fill:none" points="526.162,339.214 526.162,275.081 "/>
<polyline clip-path="url(#clip932)" style="stroke:#000000; stroke-linecap:round; stroke-linejoin:round; stroke-width:4; stroke-opacity:1; fill:none" points="548.519,378.241 548.519,297.076 "/>
<polyline clip-path="url(#clip932)" style="stroke:#000000; stroke-linecap:round; stroke-linejoin:round; stroke-width:4; stroke-opacity:1; fill:none" points="570.876,374.461 570.876,370.889 "/>
<polyline clip-path="url(#clip932)" style="stroke:#000000; stroke-linecap:round; stroke-linejoin:round; stroke-width:4; stroke-opacity:1; fill:none" points="593.234,425.076 593.234,398.617 "/>
<polyline clip-path="url(#clip932)" style="stroke:#000000; stroke-linecap:round; stroke-linejoin:round; stroke-width:4; stroke-opacity:1; fill:none" points="615.591,490.736 615.591,418.826 "/>
<polyline clip-path="url(#clip932)" style="stroke:#000000; stroke-linecap:round; stroke-linejoin:round; stroke-width:4; stroke-opacity:1; fill:none" points="637.948,510.968 637.948,491.134 "/>
<polyline clip-path="url(#clip932)" style="stroke:#000000; stroke-linecap:round; stroke-linejoin:round; stroke-width:4; stroke-opacity:1; fill:none" points="660.306,578.871 660.306,521.515 "/>
<polyline clip-path="url(#clip932)" style="stroke:#000000; stroke-linecap:round; stroke-linejoin:round; stroke-width:4; stroke-opacity:1; fill:none" points="682.663,607.757 682.663,595.675 "/>
<polyline clip-path="url(#clip932)" style="stroke:#000000; stroke-linecap:round; stroke-linejoin:round; stroke-width:4; stroke-opacity:1; fill:none" points="705.02,675.694 705.02,634.518 "/>
<polyline clip-path="url(#clip932)" style="stroke:#000000; stroke-linecap:round; stroke-linejoin:round; stroke-width:4; stroke-opacity:1; fill:none" points="727.378,729.977 727.378,689.68 "/>
<polyline clip-path="url(#clip932)" style="stroke:#000000; stroke-linecap:round; stroke-linejoin:round; stroke-width:4; stroke-opacity:1; fill:none" points="749.735,847.75 749.735,682.926 "/>
<polyline clip-path="url(#clip932)" style="stroke:#000000; stroke-linecap:round; stroke-linejoin:round; stroke-width:4; stroke-opacity:1; fill:none" points="772.092,838.522 772.092,803.636 "/>
<polyline clip-path="url(#clip932)" style="stroke:#000000; stroke-linecap:round; stroke-linejoin:round; stroke-width:4; stroke-opacity:1; fill:none" points="794.45,938.821 794.45,814.168 "/>
<polyline clip-path="url(#clip932)" style="stroke:#000000; stroke-linecap:round; stroke-linejoin:round; stroke-width:4; stroke-opacity:1; fill:none" points="816.807,936.176 816.807,925.886 "/>
<polyline clip-path="url(#clip932)" style="stroke:#000000; stroke-linecap:round; stroke-linejoin:round; stroke-width:4; stroke-opacity:1; fill:none" points="839.164,989.459 839.164,978.829 "/>
<polyline clip-path="url(#clip932)" style="stroke:#000000; stroke-linecap:round; stroke-linejoin:round; stroke-width:4; stroke-opacity:1; fill:none" points="861.522,1063.77 861.522,1006.84 "/>
<polyline clip-path="url(#clip932)" style="stroke:#000000; stroke-linecap:round; stroke-linejoin:round; stroke-width:4; stroke-opacity:1; fill:none" points="883.879,1092.33 883.879,1075.66 "/>
<polyline clip-path="url(#clip932)" style="stroke:#000000; stroke-linecap:round; stroke-linejoin:round; stroke-width:4; stroke-opacity:1; fill:none" points="906.236,1134.39 906.236,1125.08 "/>
<polyline clip-path="url(#clip932)" style="stroke:#000000; stroke-linecap:round; stroke-linejoin:round; stroke-width:4; stroke-opacity:1; fill:none" points="928.594,1203.43 928.594,1140.7 "/>
<polyline clip-path="url(#clip932)" style="stroke:#000000; stroke-linecap:round; stroke-linejoin:round; stroke-width:4; stroke-opacity:1; fill:none" points="950.951,1259.34 950.951,1161.79 "/>
<polyline clip-path="url(#clip932)" style="stroke:#000000; stroke-linecap:round; stroke-linejoin:round; stroke-width:4; stroke-opacity:1; fill:none" points="973.308,1311.18 973.308,1178.51 "/>
<polyline clip-path="url(#clip932)" style="stroke:#000000; stroke-linecap:round; stroke-linejoin:round; stroke-width:4; stroke-opacity:1; fill:none" points="995.666,1290.72 995.666,1258.42 "/>
<polyline clip-path="url(#clip932)" style="stroke:#000000; stroke-linecap:round; stroke-linejoin:round; stroke-width:4; stroke-opacity:1; fill:none" points="1018.02,1316.15 1018.02,1282.73 "/>
<polyline clip-path="url(#clip932)" style="stroke:#000000; stroke-linecap:round; stroke-linejoin:round; stroke-width:4; stroke-opacity:1; fill:none" points="1040.38,1326.84 1040.38,1311.56 "/>
<polyline clip-path="url(#clip932)" style="stroke:#000000; stroke-linecap:round; stroke-linejoin:round; stroke-width:4; stroke-opacity:1; fill:none" points="1062.74,1342.82 1062.74,1324.5 "/>
<polyline clip-path="url(#clip932)" style="stroke:#000000; stroke-linecap:round; stroke-linejoin:round; stroke-width:4; stroke-opacity:1; fill:none" points="1085.1,1347.25 1085.1,1338.09 "/>
<polyline clip-path="url(#clip932)" style="stroke:#000000; stroke-linecap:round; stroke-linejoin:round; stroke-width:4; stroke-opacity:1; fill:none" points="1107.45,1360.09 1107.45,1332.2 "/>
<polyline clip-path="url(#clip932)" style="stroke:#000000; stroke-linecap:round; stroke-linejoin:round; stroke-width:4; stroke-opacity:1; fill:none" points="1129.81,1386.4 1129.81,1301.7 "/>
<polyline clip-path="url(#clip932)" style="stroke:#000000; stroke-linecap:round; stroke-linejoin:round; stroke-width:4; stroke-opacity:1; fill:none" points="1152.17,1345.05 1152.17,1327.75 "/>
<polyline clip-path="url(#clip932)" style="stroke:#000000; stroke-linecap:round; stroke-linejoin:round; stroke-width:4; stroke-opacity:1; fill:none" points="1174.52,1333.76 1174.52,1312.8 "/>
<polyline clip-path="url(#clip932)" style="stroke:#000000; stroke-linecap:round; stroke-linejoin:round; stroke-width:4; stroke-opacity:1; fill:none" points="1196.88,1315.25 1196.88,1294.38 "/>
<polyline clip-path="url(#clip932)" style="stroke:#000000; stroke-linecap:round; stroke-linejoin:round; stroke-width:4; stroke-opacity:1; fill:none" points="1219.24,1337.46 1219.24,1224.93 "/>
<polyline clip-path="url(#clip932)" style="stroke:#000000; stroke-linecap:round; stroke-linejoin:round; stroke-width:4; stroke-opacity:1; fill:none" points="1241.6,1272.04 1241.6,1233.26 "/>
<polyline clip-path="url(#clip932)" style="stroke:#000000; stroke-linecap:round; stroke-linejoin:round; stroke-width:4; stroke-opacity:1; fill:none" points="1263.95,1246.42 1263.95,1192.51 "/>
<polyline clip-path="url(#clip932)" style="stroke:#000000; stroke-linecap:round; stroke-linejoin:round; stroke-width:4; stroke-opacity:1; fill:none" points="1286.31,1201.82 1286.31,1162.14 "/>
<polyline clip-path="url(#clip932)" style="stroke:#000000; stroke-linecap:round; stroke-linejoin:round; stroke-width:4; stroke-opacity:1; fill:none" points="1308.67,1152.88 1308.67,1128.23 "/>
<polyline clip-path="url(#clip932)" style="stroke:#000000; stroke-linecap:round; stroke-linejoin:round; stroke-width:4; stroke-opacity:1; fill:none" points="1331.03,1119.78 1331.03,1071.46 "/>
<polyline clip-path="url(#clip932)" style="stroke:#000000; stroke-linecap:round; stroke-linejoin:round; stroke-width:4; stroke-opacity:1; fill:none" points="1353.38,1054.3 1353.38,1040.93 "/>
<polyline clip-path="url(#clip932)" style="stroke:#000000; stroke-linecap:round; stroke-linejoin:round; stroke-width:4; stroke-opacity:1; fill:none" points="1375.74,1030 1375.74,964.046 "/>
<polyline clip-path="url(#clip932)" style="stroke:#000000; stroke-linecap:round; stroke-linejoin:round; stroke-width:4; stroke-opacity:1; fill:none" points="1398.1,968.24 1398.1,920.45 "/>
<polyline clip-path="url(#clip932)" style="stroke:#000000; stroke-linecap:round; stroke-linejoin:round; stroke-width:4; stroke-opacity:1; fill:none" points="1420.46,996.014 1420.46,784.208 "/>
<polyline clip-path="url(#clip932)" style="stroke:#000000; stroke-linecap:round; stroke-linejoin:round; stroke-width:4; stroke-opacity:1; fill:none" points="1442.81,846.819 1442.81,822.904 "/>
<polyline clip-path="url(#clip932)" style="stroke:#000000; stroke-linecap:round; stroke-linejoin:round; stroke-width:4; stroke-opacity:1; fill:none" points="1465.17,788.1 1465.17,770.199 "/>
<polyline clip-path="url(#clip932)" style="stroke:#000000; stroke-linecap:round; stroke-linejoin:round; stroke-width:4; stroke-opacity:1; fill:none" points="1487.53,746.879 1487.53,700.182 "/>
<polyline clip-path="url(#clip932)" style="stroke:#000000; stroke-linecap:round; stroke-linejoin:round; stroke-width:4; stroke-opacity:1; fill:none" points="1509.88,737.327 1509.88,599.796 "/>
<polyline clip-path="url(#clip932)" style="stroke:#000000; stroke-linecap:round; stroke-linejoin:round; stroke-width:4; stroke-opacity:1; fill:none" points="1532.24,621.597 1532.24,607.986 "/>
<polyline clip-path="url(#clip932)" style="stroke:#000000; stroke-linecap:round; stroke-linejoin:round; stroke-width:4; stroke-opacity:1; fill:none" points="1554.6,566.768 1554.6,558.746 "/>
<polyline clip-path="url(#clip932)" style="stroke:#000000; stroke-linecap:round; stroke-linejoin:round; stroke-width:4; stroke-opacity:1; fill:none" points="1576.96,527.756 1576.96,498.2 "/>
<polyline clip-path="url(#clip932)" style="stroke:#000000; stroke-linecap:round; stroke-linejoin:round; stroke-width:4; stroke-opacity:1; fill:none" points="1599.31,475.716 1599.31,456.189 "/>
<polyline clip-path="url(#clip932)" style="stroke:#000000; stroke-linecap:round; stroke-linejoin:round; stroke-width:4; stroke-opacity:1; fill:none" points="1621.67,440.14 1621.67,404.16 "/>
<polyline clip-path="url(#clip932)" style="stroke:#000000; stroke-linecap:round; stroke-linejoin:round; stroke-width:4; stroke-opacity:1; fill:none" points="1644.03,398.815 1644.03,365.202 "/>
<polyline clip-path="url(#clip932)" style="stroke:#000000; stroke-linecap:round; stroke-linejoin:round; stroke-width:4; stroke-opacity:1; fill:none" points="1666.39,398.853 1666.39,293.003 "/>
<polyline clip-path="url(#clip932)" style="stroke:#000000; stroke-linecap:round; stroke-linejoin:round; stroke-width:4; stroke-opacity:1; fill:none" points="1688.74,341.211 1688.74,287.33 "/>
<polyline clip-path="url(#clip932)" style="stroke:#000000; stroke-linecap:round; stroke-linejoin:round; stroke-width:4; stroke-opacity:1; fill:none" points="1711.1,303.182 1711.1,271.52 "/>
<polyline clip-path="url(#clip932)" style="stroke:#000000; stroke-linecap:round; stroke-linejoin:round; stroke-width:4; stroke-opacity:1; fill:none" points="1733.46,290.658 1733.46,240.222 "/>
<polyline clip-path="url(#clip932)" style="stroke:#000000; stroke-linecap:round; stroke-linejoin:round; stroke-width:4; stroke-opacity:1; fill:none" points="1755.82,307.713 1755.82,189.796 "/>
<polyline clip-path="url(#clip932)" style="stroke:#000000; stroke-linecap:round; stroke-linejoin:round; stroke-width:4; stroke-opacity:1; fill:none" points="1778.17,261.248 1778.17,213.678 "/>
<polyline clip-path="url(#clip932)" style="stroke:#000000; stroke-linecap:round; stroke-linejoin:round; stroke-width:4; stroke-opacity:1; fill:none" points="1800.53,260.376 1800.53,202.978 "/>
<polyline clip-path="url(#clip932)" style="stroke:#000000; stroke-linecap:round; stroke-linejoin:round; stroke-width:4; stroke-opacity:1; fill:none" points="1822.89,234.5 1822.89,228.41 "/>
<polyline clip-path="url(#clip932)" style="stroke:#000000; stroke-linecap:round; stroke-linejoin:round; stroke-width:4; stroke-opacity:1; fill:none" points="1845.24,246.652 1845.24,226.946 "/>
<polyline clip-path="url(#clip932)" style="stroke:#000000; stroke-linecap:round; stroke-linejoin:round; stroke-width:4; stroke-opacity:1; fill:none" points="1867.6,335.056 1867.6,160.256 "/>
<polyline clip-path="url(#clip932)" style="stroke:#000000; stroke-linecap:round; stroke-linejoin:round; stroke-width:4; stroke-opacity:1; fill:none" points="1889.96,287.177 1889.96,240.657 "/>
<polyline clip-path="url(#clip932)" style="stroke:#000000; stroke-linecap:round; stroke-linejoin:round; stroke-width:4; stroke-opacity:1; fill:none" points="1912.32,287.253 1912.32,283.586 "/>
<polyline clip-path="url(#clip932)" style="stroke:#000000; stroke-linecap:round; stroke-linejoin:round; stroke-width:4; stroke-opacity:1; fill:none" points="1934.67,316.112 1934.67,307.786 "/>
<polyline clip-path="url(#clip932)" style="stroke:#000000; stroke-linecap:round; stroke-linejoin:round; stroke-width:4; stroke-opacity:1; fill:none" points="1957.03,354.543 1957.03,331.938 "/>
<polyline clip-path="url(#clip932)" style="stroke:#000000; stroke-linecap:round; stroke-linejoin:round; stroke-width:4; stroke-opacity:1; fill:none" points="1979.39,387.979 1979.39,369.983 "/>
<polyline clip-path="url(#clip932)" style="stroke:#000000; stroke-linecap:round; stroke-linejoin:round; stroke-width:4; stroke-opacity:1; fill:none" points="2001.75,426.487 2001.75,411.141 "/>
<polyline clip-path="url(#clip932)" style="stroke:#000000; stroke-linecap:round; stroke-linejoin:round; stroke-width:4; stroke-opacity:1; fill:none" points="2024.1,469.894 2024.1,454.787 "/>
<polyline clip-path="url(#clip932)" style="stroke:#000000; stroke-linecap:round; stroke-linejoin:round; stroke-width:4; stroke-opacity:1; fill:none" points="2046.46,517.153 2046.46,501.099 "/>
<polyline clip-path="url(#clip932)" style="stroke:#000000; stroke-linecap:round; stroke-linejoin:round; stroke-width:4; stroke-opacity:1; fill:none" points="2068.82,590.17 2068.82,527.236 "/>
<polyline clip-path="url(#clip932)" style="stroke:#000000; stroke-linecap:round; stroke-linejoin:round; stroke-width:4; stroke-opacity:1; fill:none" points="2091.18,624.003 2091.18,597.151 "/>
<polyline clip-path="url(#clip932)" style="stroke:#000000; stroke-linecap:round; stroke-linejoin:round; stroke-width:4; stroke-opacity:1; fill:none" points="2113.53,680.183 2113.53,648.275 "/>
<polyline clip-path="url(#clip932)" style="stroke:#000000; stroke-linecap:round; stroke-linejoin:round; stroke-width:4; stroke-opacity:1; fill:none" points="2135.89,739.074 2135.89,699.171 "/>
<polyline clip-path="url(#clip932)" style="stroke:#000000; stroke-linecap:round; stroke-linejoin:round; stroke-width:4; stroke-opacity:1; fill:none" points="2158.25,778.772 2158.25,770.648 "/>
<polyline clip-path="url(#clip932)" style="stroke:#000000; stroke-linecap:round; stroke-linejoin:round; stroke-width:4; stroke-opacity:1; fill:none" points="2180.6,836.541 2180.6,824.329 "/>
<polyline clip-path="url(#clip932)" style="stroke:#000000; stroke-linecap:round; stroke-linejoin:round; stroke-width:4; stroke-opacity:1; fill:none" points="2202.96,895.948 2202.96,875.534 "/>
<polyline clip-path="url(#clip932)" style="stroke:#000000; stroke-linecap:round; stroke-linejoin:round; stroke-width:4; stroke-opacity:1; fill:none" points="2225.32,955.776 2225.32,924.376 "/>
<polyline clip-path="url(#clip932)" style="stroke:#000000; stroke-linecap:round; stroke-linejoin:round; stroke-width:4; stroke-opacity:1; fill:none" points="2247.68,1025.74 2247.68,960.052 "/>
<polyline clip-path="url(#clip932)" style="stroke:#000000; stroke-linecap:round; stroke-linejoin:round; stroke-width:4; stroke-opacity:1; fill:none" points="2270.03,1085.7 2270.03,1001.65 "/>
<polyline clip-path="url(#clip932)" style="stroke:#000000; stroke-linecap:round; stroke-linejoin:round; stroke-width:4; stroke-opacity:1; fill:none" points="2292.39,1102.45 2292.39,1081.36 "/>
<line clip-path="url(#clip932)" x1="296.231" y1="354.756" x2="264.231" y2="354.756" style="stroke:#000000; stroke-width:4; stroke-opacity:1"/>
<line clip-path="url(#clip932)" x1="296.231" y1="283.784" x2="264.231" y2="283.784" style="stroke:#000000; stroke-width:4; stroke-opacity:1"/>
<line clip-path="url(#clip932)" x1="318.588" y1="318.079" x2="286.588" y2="318.079" style="stroke:#000000; stroke-width:4; stroke-opacity:1"/>
<line clip-path="url(#clip932)" x1="318.588" y1="264.989" x2="286.588" y2="264.989" style="stroke:#000000; stroke-width:4; stroke-opacity:1"/>
<line clip-path="url(#clip932)" x1="340.946" y1="275.811" x2="308.946" y2="275.811" style="stroke:#000000; stroke-width:4; stroke-opacity:1"/>
<line clip-path="url(#clip932)" x1="340.946" y1="261.716" x2="308.946" y2="261.716" style="stroke:#000000; stroke-width:4; stroke-opacity:1"/>
<line clip-path="url(#clip932)" x1="363.303" y1="259.793" x2="331.303" y2="259.793" style="stroke:#000000; stroke-width:4; stroke-opacity:1"/>
<line clip-path="url(#clip932)" x1="363.303" y1="242.581" x2="331.303" y2="242.581" style="stroke:#000000; stroke-width:4; stroke-opacity:1"/>
<line clip-path="url(#clip932)" x1="385.66" y1="265.156" x2="353.66" y2="265.156" style="stroke:#000000; stroke-width:4; stroke-opacity:1"/>
<line clip-path="url(#clip932)" x1="385.66" y1="212.802" x2="353.66" y2="212.802" style="stroke:#000000; stroke-width:4; stroke-opacity:1"/>
<line clip-path="url(#clip932)" x1="408.018" y1="234.342" x2="376.018" y2="234.342" style="stroke:#000000; stroke-width:4; stroke-opacity:1"/>
<line clip-path="url(#clip932)" x1="408.018" y1="230.182" x2="376.018" y2="230.182" style="stroke:#000000; stroke-width:4; stroke-opacity:1"/>
<line clip-path="url(#clip932)" x1="430.375" y1="242.141" x2="398.375" y2="242.141" style="stroke:#000000; stroke-width:4; stroke-opacity:1"/>
<line clip-path="url(#clip932)" x1="430.375" y1="220.064" x2="398.375" y2="220.064" style="stroke:#000000; stroke-width:4; stroke-opacity:1"/>
<line clip-path="url(#clip932)" x1="452.732" y1="240.097" x2="420.732" y2="240.097" style="stroke:#000000; stroke-width:4; stroke-opacity:1"/>
<line clip-path="url(#clip932)" x1="452.732" y1="230.929" x2="420.732" y2="230.929" style="stroke:#000000; stroke-width:4; stroke-opacity:1"/>
<line clip-path="url(#clip932)" x1="475.09" y1="282.012" x2="443.09" y2="282.012" style="stroke:#000000; stroke-width:4; stroke-opacity:1"/>
<line clip-path="url(#clip932)" x1="475.09" y1="208.886" x2="443.09" y2="208.886" style="stroke:#000000; stroke-width:4; stroke-opacity:1"/>
<line clip-path="url(#clip932)" x1="497.447" y1="269.32" x2="465.447" y2="269.32" style="stroke:#000000; stroke-width:4; stroke-opacity:1"/>
<line clip-path="url(#clip932)" x1="497.447" y1="252.302" x2="465.447" y2="252.302" style="stroke:#000000; stroke-width:4; stroke-opacity:1"/>
<line clip-path="url(#clip932)" x1="519.804" y1="360.742" x2="487.804" y2="360.742" style="stroke:#000000; stroke-width:4; stroke-opacity:1"/>
<line clip-path="url(#clip932)" x1="519.804" y1="202.15" x2="487.804" y2="202.15" style="stroke:#000000; stroke-width:4; stroke-opacity:1"/>
<line clip-path="url(#clip932)" x1="542.162" y1="339.214" x2="510.162" y2="339.214" style="stroke:#000000; stroke-width:4; stroke-opacity:1"/>
<line clip-path="url(#clip932)" x1="542.162" y1="275.081" x2="510.162" y2="275.081" style="stroke:#000000; stroke-width:4; stroke-opacity:1"/>
<line clip-path="url(#clip932)" x1="564.519" y1="378.241" x2="532.519" y2="378.241" style="stroke:#000000; stroke-width:4; stroke-opacity:1"/>
<line clip-path="url(#clip932)" x1="564.519" y1="297.076" x2="532.519" y2="297.076" style="stroke:#000000; stroke-width:4; stroke-opacity:1"/>
<line clip-path="url(#clip932)" x1="586.876" y1="374.461" x2="554.876" y2="374.461" style="stroke:#000000; stroke-width:4; stroke-opacity:1"/>
<line clip-path="url(#clip932)" x1="586.876" y1="370.889" x2="554.876" y2="370.889" style="stroke:#000000; stroke-width:4; stroke-opacity:1"/>
<line clip-path="url(#clip932)" x1="609.234" y1="425.076" x2="577.234" y2="425.076" style="stroke:#000000; stroke-width:4; stroke-opacity:1"/>
<line clip-path="url(#clip932)" x1="609.234" y1="398.617" x2="577.234" y2="398.617" style="stroke:#000000; stroke-width:4; stroke-opacity:1"/>
<line clip-path="url(#clip932)" x1="631.591" y1="490.736" x2="599.591" y2="490.736" style="stroke:#000000; stroke-width:4; stroke-opacity:1"/>
<line clip-path="url(#clip932)" x1="631.591" y1="418.826" x2="599.591" y2="418.826" style="stroke:#000000; stroke-width:4; stroke-opacity:1"/>
<line clip-path="url(#clip932)" x1="653.948" y1="510.968" x2="621.948" y2="510.968" style="stroke:#000000; stroke-width:4; stroke-opacity:1"/>
<line clip-path="url(#clip932)" x1="653.948" y1="491.134" x2="621.948" y2="491.134" style="stroke:#000000; stroke-width:4; stroke-opacity:1"/>
<line clip-path="url(#clip932)" x1="676.306" y1="578.871" x2="644.306" y2="578.871" style="stroke:#000000; stroke-width:4; stroke-opacity:1"/>
<line clip-path="url(#clip932)" x1="676.306" y1="521.515" x2="644.306" y2="521.515" style="stroke:#000000; stroke-width:4; stroke-opacity:1"/>
<line clip-path="url(#clip932)" x1="698.663" y1="607.757" x2="666.663" y2="607.757" style="stroke:#000000; stroke-width:4; stroke-opacity:1"/>
<line clip-path="url(#clip932)" x1="698.663" y1="595.675" x2="666.663" y2="595.675" style="stroke:#000000; stroke-width:4; stroke-opacity:1"/>
<line clip-path="url(#clip932)" x1="721.02" y1="675.694" x2="689.02" y2="675.694" style="stroke:#000000; stroke-width:4; stroke-opacity:1"/>
<line clip-path="url(#clip932)" x1="721.02" y1="634.518" x2="689.02" y2="634.518" style="stroke:#000000; stroke-width:4; stroke-opacity:1"/>
<line clip-path="url(#clip932)" x1="743.378" y1="729.977" x2="711.378" y2="729.977" style="stroke:#000000; stroke-width:4; stroke-opacity:1"/>
<line clip-path="url(#clip932)" x1="743.378" y1="689.68" x2="711.378" y2="689.68" style="stroke:#000000; stroke-width:4; stroke-opacity:1"/>
<line clip-path="url(#clip932)" x1="765.735" y1="847.75" x2="733.735" y2="847.75" style="stroke:#000000; stroke-width:4; stroke-opacity:1"/>
<line clip-path="url(#clip932)" x1="765.735" y1="682.926" x2="733.735" y2="682.926" style="stroke:#000000; stroke-width:4; stroke-opacity:1"/>
<line clip-path="url(#clip932)" x1="788.092" y1="838.522" x2="756.092" y2="838.522" style="stroke:#000000; stroke-width:4; stroke-opacity:1"/>
<line clip-path="url(#clip932)" x1="788.092" y1="803.636" x2="756.092" y2="803.636" style="stroke:#000000; stroke-width:4; stroke-opacity:1"/>
<line clip-path="url(#clip932)" x1="810.45" y1="938.821" x2="778.45" y2="938.821" style="stroke:#000000; stroke-width:4; stroke-opacity:1"/>
<line clip-path="url(#clip932)" x1="810.45" y1="814.168" x2="778.45" y2="814.168" style="stroke:#000000; stroke-width:4; stroke-opacity:1"/>
<line clip-path="url(#clip932)" x1="832.807" y1="936.176" x2="800.807" y2="936.176" style="stroke:#000000; stroke-width:4; stroke-opacity:1"/>
<line clip-path="url(#clip932)" x1="832.807" y1="925.886" x2="800.807" y2="925.886" style="stroke:#000000; stroke-width:4; stroke-opacity:1"/>
<line clip-path="url(#clip932)" x1="855.164" y1="989.459" x2="823.164" y2="989.459" style="stroke:#000000; stroke-width:4; stroke-opacity:1"/>
<line clip-path="url(#clip932)" x1="855.164" y1="978.829" x2="823.164" y2="978.829" style="stroke:#000000; stroke-width:4; stroke-opacity:1"/>
<line clip-path="url(#clip932)" x1="877.522" y1="1063.77" x2="845.522" y2="1063.77" style="stroke:#000000; stroke-width:4; stroke-opacity:1"/>
<line clip-path="url(#clip932)" x1="877.522" y1="1006.84" x2="845.522" y2="1006.84" style="stroke:#000000; stroke-width:4; stroke-opacity:1"/>
<line clip-path="url(#clip932)" x1="899.879" y1="1092.33" x2="867.879" y2="1092.33" style="stroke:#000000; stroke-width:4; stroke-opacity:1"/>
<line clip-path="url(#clip932)" x1="899.879" y1="1075.66" x2="867.879" y2="1075.66" style="stroke:#000000; stroke-width:4; stroke-opacity:1"/>
<line clip-path="url(#clip932)" x1="922.236" y1="1134.39" x2="890.236" y2="1134.39" style="stroke:#000000; stroke-width:4; stroke-opacity:1"/>
<line clip-path="url(#clip932)" x1="922.236" y1="1125.08" x2="890.236" y2="1125.08" style="stroke:#000000; stroke-width:4; stroke-opacity:1"/>
<line clip-path="url(#clip932)" x1="944.594" y1="1203.43" x2="912.594" y2="1203.43" style="stroke:#000000; stroke-width:4; stroke-opacity:1"/>
<line clip-path="url(#clip932)" x1="944.594" y1="1140.7" x2="912.594" y2="1140.7" style="stroke:#000000; stroke-width:4; stroke-opacity:1"/>
<line clip-path="url(#clip932)" x1="966.951" y1="1259.34" x2="934.951" y2="1259.34" style="stroke:#000000; stroke-width:4; stroke-opacity:1"/>
<line clip-path="url(#clip932)" x1="966.951" y1="1161.79" x2="934.951" y2="1161.79" style="stroke:#000000; stroke-width:4; stroke-opacity:1"/>
<line clip-path="url(#clip932)" x1="989.308" y1="1311.18" x2="957.308" y2="1311.18" style="stroke:#000000; stroke-width:4; stroke-opacity:1"/>
<line clip-path="url(#clip932)" x1="989.308" y1="1178.51" x2="957.308" y2="1178.51" style="stroke:#000000; stroke-width:4; stroke-opacity:1"/>
<line clip-path="url(#clip932)" x1="1011.67" y1="1290.72" x2="979.666" y2="1290.72" style="stroke:#000000; stroke-width:4; stroke-opacity:1"/>
<line clip-path="url(#clip932)" x1="1011.67" y1="1258.42" x2="979.666" y2="1258.42" style="stroke:#000000; stroke-width:4; stroke-opacity:1"/>
<line clip-path="url(#clip932)" x1="1034.02" y1="1316.15" x2="1002.02" y2="1316.15" style="stroke:#000000; stroke-width:4; stroke-opacity:1"/>
<line clip-path="url(#clip932)" x1="1034.02" y1="1282.73" x2="1002.02" y2="1282.73" style="stroke:#000000; stroke-width:4; stroke-opacity:1"/>
<line clip-path="url(#clip932)" x1="1056.38" y1="1326.84" x2="1024.38" y2="1326.84" style="stroke:#000000; stroke-width:4; stroke-opacity:1"/>
<line clip-path="url(#clip932)" x1="1056.38" y1="1311.56" x2="1024.38" y2="1311.56" style="stroke:#000000; stroke-width:4; stroke-opacity:1"/>
<line clip-path="url(#clip932)" x1="1078.74" y1="1342.82" x2="1046.74" y2="1342.82" style="stroke:#000000; stroke-width:4; stroke-opacity:1"/>
<line clip-path="url(#clip932)" x1="1078.74" y1="1324.5" x2="1046.74" y2="1324.5" style="stroke:#000000; stroke-width:4; stroke-opacity:1"/>
<line clip-path="url(#clip932)" x1="1101.1" y1="1347.25" x2="1069.1" y2="1347.25" style="stroke:#000000; stroke-width:4; stroke-opacity:1"/>
<line clip-path="url(#clip932)" x1="1101.1" y1="1338.09" x2="1069.1" y2="1338.09" style="stroke:#000000; stroke-width:4; stroke-opacity:1"/>
<line clip-path="url(#clip932)" x1="1123.45" y1="1360.09" x2="1091.45" y2="1360.09" style="stroke:#000000; stroke-width:4; stroke-opacity:1"/>
<line clip-path="url(#clip932)" x1="1123.45" y1="1332.2" x2="1091.45" y2="1332.2" style="stroke:#000000; stroke-width:4; stroke-opacity:1"/>
<line clip-path="url(#clip932)" x1="1145.81" y1="1386.4" x2="1113.81" y2="1386.4" style="stroke:#000000; stroke-width:4; stroke-opacity:1"/>
<line clip-path="url(#clip932)" x1="1145.81" y1="1301.7" x2="1113.81" y2="1301.7" style="stroke:#000000; stroke-width:4; stroke-opacity:1"/>
<line clip-path="url(#clip932)" x1="1168.17" y1="1345.05" x2="1136.17" y2="1345.05" style="stroke:#000000; stroke-width:4; stroke-opacity:1"/>
<line clip-path="url(#clip932)" x1="1168.17" y1="1327.75" x2="1136.17" y2="1327.75" style="stroke:#000000; stroke-width:4; stroke-opacity:1"/>
<line clip-path="url(#clip932)" x1="1190.52" y1="1333.76" x2="1158.52" y2="1333.76" style="stroke:#000000; stroke-width:4; stroke-opacity:1"/>
<line clip-path="url(#clip932)" x1="1190.52" y1="1312.8" x2="1158.52" y2="1312.8" style="stroke:#000000; stroke-width:4; stroke-opacity:1"/>
<line clip-path="url(#clip932)" x1="1212.88" y1="1315.25" x2="1180.88" y2="1315.25" style="stroke:#000000; stroke-width:4; stroke-opacity:1"/>
<line clip-path="url(#clip932)" x1="1212.88" y1="1294.38" x2="1180.88" y2="1294.38" style="stroke:#000000; stroke-width:4; stroke-opacity:1"/>
<line clip-path="url(#clip932)" x1="1235.24" y1="1337.46" x2="1203.24" y2="1337.46" style="stroke:#000000; stroke-width:4; stroke-opacity:1"/>
<line clip-path="url(#clip932)" x1="1235.24" y1="1224.93" x2="1203.24" y2="1224.93" style="stroke:#000000; stroke-width:4; stroke-opacity:1"/>
<line clip-path="url(#clip932)" x1="1257.6" y1="1272.04" x2="1225.6" y2="1272.04" style="stroke:#000000; stroke-width:4; stroke-opacity:1"/>
<line clip-path="url(#clip932)" x1="1257.6" y1="1233.26" x2="1225.6" y2="1233.26" style="stroke:#000000; stroke-width:4; stroke-opacity:1"/>
<line clip-path="url(#clip932)" x1="1279.95" y1="1246.42" x2="1247.95" y2="1246.42" style="stroke:#000000; stroke-width:4; stroke-opacity:1"/>
<line clip-path="url(#clip932)" x1="1279.95" y1="1192.51" x2="1247.95" y2="1192.51" style="stroke:#000000; stroke-width:4; stroke-opacity:1"/>
<line clip-path="url(#clip932)" x1="1302.31" y1="1201.82" x2="1270.31" y2="1201.82" style="stroke:#000000; stroke-width:4; stroke-opacity:1"/>
<line clip-path="url(#clip932)" x1="1302.31" y1="1162.14" x2="1270.31" y2="1162.14" style="stroke:#000000; stroke-width:4; stroke-opacity:1"/>
<line clip-path="url(#clip932)" x1="1324.67" y1="1152.88" x2="1292.67" y2="1152.88" style="stroke:#000000; stroke-width:4; stroke-opacity:1"/>
<line clip-path="url(#clip932)" x1="1324.67" y1="1128.23" x2="1292.67" y2="1128.23" style="stroke:#000000; stroke-width:4; stroke-opacity:1"/>
<line clip-path="url(#clip932)" x1="1347.03" y1="1119.78" x2="1315.03" y2="1119.78" style="stroke:#000000; stroke-width:4; stroke-opacity:1"/>
<line clip-path="url(#clip932)" x1="1347.03" y1="1071.46" x2="1315.03" y2="1071.46" style="stroke:#000000; stroke-width:4; stroke-opacity:1"/>
<line clip-path="url(#clip932)" x1="1369.38" y1="1054.3" x2="1337.38" y2="1054.3" style="stroke:#000000; stroke-width:4; stroke-opacity:1"/>
<line clip-path="url(#clip932)" x1="1369.38" y1="1040.93" x2="1337.38" y2="1040.93" style="stroke:#000000; stroke-width:4; stroke-opacity:1"/>
<line clip-path="url(#clip932)" x1="1391.74" y1="1030" x2="1359.74" y2="1030" style="stroke:#000000; stroke-width:4; stroke-opacity:1"/>
<line clip-path="url(#clip932)" x1="1391.74" y1="964.046" x2="1359.74" y2="964.046" style="stroke:#000000; stroke-width:4; stroke-opacity:1"/>
<line clip-path="url(#clip932)" x1="1414.1" y1="968.24" x2="1382.1" y2="968.24" style="stroke:#000000; stroke-width:4; stroke-opacity:1"/>
<line clip-path="url(#clip932)" x1="1414.1" y1="920.45" x2="1382.1" y2="920.45" style="stroke:#000000; stroke-width:4; stroke-opacity:1"/>
<line clip-path="url(#clip932)" x1="1436.46" y1="996.014" x2="1404.46" y2="996.014" style="stroke:#000000; stroke-width:4; stroke-opacity:1"/>
<line clip-path="url(#clip932)" x1="1436.46" y1="784.208" x2="1404.46" y2="784.208" style="stroke:#000000; stroke-width:4; stroke-opacity:1"/>
<line clip-path="url(#clip932)" x1="1458.81" y1="846.819" x2="1426.81" y2="846.819" style="stroke:#000000; stroke-width:4; stroke-opacity:1"/>
<line clip-path="url(#clip932)" x1="1458.81" y1="822.904" x2="1426.81" y2="822.904" style="stroke:#000000; stroke-width:4; stroke-opacity:1"/>
<line clip-path="url(#clip932)" x1="1481.17" y1="788.1" x2="1449.17" y2="788.1" style="stroke:#000000; stroke-width:4; stroke-opacity:1"/>
<line clip-path="url(#clip932)" x1="1481.17" y1="770.199" x2="1449.17" y2="770.199" style="stroke:#000000; stroke-width:4; stroke-opacity:1"/>
<line clip-path="url(#clip932)" x1="1503.53" y1="746.879" x2="1471.53" y2="746.879" style="stroke:#000000; stroke-width:4; stroke-opacity:1"/>
<line clip-path="url(#clip932)" x1="1503.53" y1="700.182" x2="1471.53" y2="700.182" style="stroke:#000000; stroke-width:4; stroke-opacity:1"/>
<line clip-path="url(#clip932)" x1="1525.88" y1="737.327" x2="1493.88" y2="737.327" style="stroke:#000000; stroke-width:4; stroke-opacity:1"/>
<line clip-path="url(#clip932)" x1="1525.88" y1="599.796" x2="1493.88" y2="599.796" style="stroke:#000000; stroke-width:4; stroke-opacity:1"/>
<line clip-path="url(#clip932)" x1="1548.24" y1="621.597" x2="1516.24" y2="621.597" style="stroke:#000000; stroke-width:4; stroke-opacity:1"/>
<line clip-path="url(#clip932)" x1="1548.24" y1="607.986" x2="1516.24" y2="607.986" style="stroke:#000000; stroke-width:4; stroke-opacity:1"/>
<line clip-path="url(#clip932)" x1="1570.6" y1="566.768" x2="1538.6" y2="566.768" style="stroke:#000000; stroke-width:4; stroke-opacity:1"/>
<line clip-path="url(#clip932)" x1="1570.6" y1="558.746" x2="1538.6" y2="558.746" style="stroke:#000000; stroke-width:4; stroke-opacity:1"/>
<line clip-path="url(#clip932)" x1="1592.96" y1="527.756" x2="1560.96" y2="527.756" style="stroke:#000000; stroke-width:4; stroke-opacity:1"/>
<line clip-path="url(#clip932)" x1="1592.96" y1="498.2" x2="1560.96" y2="498.2" style="stroke:#000000; stroke-width:4; stroke-opacity:1"/>
<line clip-path="url(#clip932)" x1="1615.31" y1="475.716" x2="1583.31" y2="475.716" style="stroke:#000000; stroke-width:4; stroke-opacity:1"/>
<line clip-path="url(#clip932)" x1="1615.31" y1="456.189" x2="1583.31" y2="456.189" style="stroke:#000000; stroke-width:4; stroke-opacity:1"/>
<line clip-path="url(#clip932)" x1="1637.67" y1="440.14" x2="1605.67" y2="440.14" style="stroke:#000000; stroke-width:4; stroke-opacity:1"/>
<line clip-path="url(#clip932)" x1="1637.67" y1="404.16" x2="1605.67" y2="404.16" style="stroke:#000000; stroke-width:4; stroke-opacity:1"/>
<line clip-path="url(#clip932)" x1="1660.03" y1="398.815" x2="1628.03" y2="398.815" style="stroke:#000000; stroke-width:4; stroke-opacity:1"/>
<line clip-path="url(#clip932)" x1="1660.03" y1="365.202" x2="1628.03" y2="365.202" style="stroke:#000000; stroke-width:4; stroke-opacity:1"/>
<line clip-path="url(#clip932)" x1="1682.39" y1="398.853" x2="1650.39" y2="398.853" style="stroke:#000000; stroke-width:4; stroke-opacity:1"/>
<line clip-path="url(#clip932)" x1="1682.39" y1="293.003" x2="1650.39" y2="293.003" style="stroke:#000000; stroke-width:4; stroke-opacity:1"/>
<line clip-path="url(#clip932)" x1="1704.74" y1="341.211" x2="1672.74" y2="341.211" style="stroke:#000000; stroke-width:4; stroke-opacity:1"/>
<line clip-path="url(#clip932)" x1="1704.74" y1="287.33" x2="1672.74" y2="287.33" style="stroke:#000000; stroke-width:4; stroke-opacity:1"/>
<line clip-path="url(#clip932)" x1="1727.1" y1="303.182" x2="1695.1" y2="303.182" style="stroke:#000000; stroke-width:4; stroke-opacity:1"/>
<line clip-path="url(#clip932)" x1="1727.1" y1="271.52" x2="1695.1" y2="271.52" style="stroke:#000000; stroke-width:4; stroke-opacity:1"/>
<line clip-path="url(#clip932)" x1="1749.46" y1="290.658" x2="1717.46" y2="290.658" style="stroke:#000000; stroke-width:4; stroke-opacity:1"/>
<line clip-path="url(#clip932)" x1="1749.46" y1="240.222" x2="1717.46" y2="240.222" style="stroke:#000000; stroke-width:4; stroke-opacity:1"/>
<line clip-path="url(#clip932)" x1="1771.82" y1="307.713" x2="1739.82" y2="307.713" style="stroke:#000000; stroke-width:4; stroke-opacity:1"/>
<line clip-path="url(#clip932)" x1="1771.82" y1="189.796" x2="1739.82" y2="189.796" style="stroke:#000000; stroke-width:4; stroke-opacity:1"/>
<line clip-path="url(#clip932)" x1="1794.17" y1="261.248" x2="1762.17" y2="261.248" style="stroke:#000000; stroke-width:4; stroke-opacity:1"/>
<line clip-path="url(#clip932)" x1="1794.17" y1="213.678" x2="1762.17" y2="213.678" style="stroke:#000000; stroke-width:4; stroke-opacity:1"/>
<line clip-path="url(#clip932)" x1="1816.53" y1="260.376" x2="1784.53" y2="260.376" style="stroke:#000000; stroke-width:4; stroke-opacity:1"/>
<line clip-path="url(#clip932)" x1="1816.53" y1="202.978" x2="1784.53" y2="202.978" style="stroke:#000000; stroke-width:4; stroke-opacity:1"/>
<line clip-path="url(#clip932)" x1="1838.89" y1="234.5" x2="1806.89" y2="234.5" style="stroke:#000000; stroke-width:4; stroke-opacity:1"/>
<line clip-path="url(#clip932)" x1="1838.89" y1="228.41" x2="1806.89" y2="228.41" style="stroke:#000000; stroke-width:4; stroke-opacity:1"/>
<line clip-path="url(#clip932)" x1="1861.24" y1="246.652" x2="1829.24" y2="246.652" style="stroke:#000000; stroke-width:4; stroke-opacity:1"/>
<line clip-path="url(#clip932)" x1="1861.24" y1="226.946" x2="1829.24" y2="226.946" style="stroke:#000000; stroke-width:4; stroke-opacity:1"/>
<line clip-path="url(#clip932)" x1="1883.6" y1="335.056" x2="1851.6" y2="335.056" style="stroke:#000000; stroke-width:4; stroke-opacity:1"/>
<line clip-path="url(#clip932)" x1="1883.6" y1="160.256" x2="1851.6" y2="160.256" style="stroke:#000000; stroke-width:4; stroke-opacity:1"/>
<line clip-path="url(#clip932)" x1="1905.96" y1="287.177" x2="1873.96" y2="287.177" style="stroke:#000000; stroke-width:4; stroke-opacity:1"/>
<line clip-path="url(#clip932)" x1="1905.96" y1="240.657" x2="1873.96" y2="240.657" style="stroke:#000000; stroke-width:4; stroke-opacity:1"/>
<line clip-path="url(#clip932)" x1="1928.32" y1="287.253" x2="1896.32" y2="287.253" style="stroke:#000000; stroke-width:4; stroke-opacity:1"/>
<line clip-path="url(#clip932)" x1="1928.32" y1="283.586" x2="1896.32" y2="283.586" style="stroke:#000000; stroke-width:4; stroke-opacity:1"/>
<line clip-path="url(#clip932)" x1="1950.67" y1="316.112" x2="1918.67" y2="316.112" style="stroke:#000000; stroke-width:4; stroke-opacity:1"/>
<line clip-path="url(#clip932)" x1="1950.67" y1="307.786" x2="1918.67" y2="307.786" style="stroke:#000000; stroke-width:4; stroke-opacity:1"/>
<line clip-path="url(#clip932)" x1="1973.03" y1="354.543" x2="1941.03" y2="354.543" style="stroke:#000000; stroke-width:4; stroke-opacity:1"/>
<line clip-path="url(#clip932)" x1="1973.03" y1="331.938" x2="1941.03" y2="331.938" style="stroke:#000000; stroke-width:4; stroke-opacity:1"/>
<line clip-path="url(#clip932)" x1="1995.39" y1="387.979" x2="1963.39" y2="387.979" style="stroke:#000000; stroke-width:4; stroke-opacity:1"/>
<line clip-path="url(#clip932)" x1="1995.39" y1="369.983" x2="1963.39" y2="369.983" style="stroke:#000000; stroke-width:4; stroke-opacity:1"/>
<line clip-path="url(#clip932)" x1="2017.75" y1="426.487" x2="1985.75" y2="426.487" style="stroke:#000000; stroke-width:4; stroke-opacity:1"/>
<line clip-path="url(#clip932)" x1="2017.75" y1="411.141" x2="1985.75" y2="411.141" style="stroke:#000000; stroke-width:4; stroke-opacity:1"/>
<line clip-path="url(#clip932)" x1="2040.1" y1="469.894" x2="2008.1" y2="469.894" style="stroke:#000000; stroke-width:4; stroke-opacity:1"/>
<line clip-path="url(#clip932)" x1="2040.1" y1="454.787" x2="2008.1" y2="454.787" style="stroke:#000000; stroke-width:4; stroke-opacity:1"/>
<line clip-path="url(#clip932)" x1="2062.46" y1="517.153" x2="2030.46" y2="517.153" style="stroke:#000000; stroke-width:4; stroke-opacity:1"/>
<line clip-path="url(#clip932)" x1="2062.46" y1="501.099" x2="2030.46" y2="501.099" style="stroke:#000000; stroke-width:4; stroke-opacity:1"/>
<line clip-path="url(#clip932)" x1="2084.82" y1="590.17" x2="2052.82" y2="590.17" style="stroke:#000000; stroke-width:4; stroke-opacity:1"/>
<line clip-path="url(#clip932)" x1="2084.82" y1="527.236" x2="2052.82" y2="527.236" style="stroke:#000000; stroke-width:4; stroke-opacity:1"/>
<line clip-path="url(#clip932)" x1="2107.18" y1="624.003" x2="2075.18" y2="624.003" style="stroke:#000000; stroke-width:4; stroke-opacity:1"/>
<line clip-path="url(#clip932)" x1="2107.18" y1="597.151" x2="2075.18" y2="597.151" style="stroke:#000000; stroke-width:4; stroke-opacity:1"/>
<line clip-path="url(#clip932)" x1="2129.53" y1="680.183" x2="2097.53" y2="680.183" style="stroke:#000000; stroke-width:4; stroke-opacity:1"/>
<line clip-path="url(#clip932)" x1="2129.53" y1="648.275" x2="2097.53" y2="648.275" style="stroke:#000000; stroke-width:4; stroke-opacity:1"/>
<line clip-path="url(#clip932)" x1="2151.89" y1="739.074" x2="2119.89" y2="739.074" style="stroke:#000000; stroke-width:4; stroke-opacity:1"/>
<line clip-path="url(#clip932)" x1="2151.89" y1="699.171" x2="2119.89" y2="699.171" style="stroke:#000000; stroke-width:4; stroke-opacity:1"/>
<line clip-path="url(#clip932)" x1="2174.25" y1="778.772" x2="2142.25" y2="778.772" style="stroke:#000000; stroke-width:4; stroke-opacity:1"/>
<line clip-path="url(#clip932)" x1="2174.25" y1="770.648" x2="2142.25" y2="770.648" style="stroke:#000000; stroke-width:4; stroke-opacity:1"/>
<line clip-path="url(#clip932)" x1="2196.6" y1="836.541" x2="2164.6" y2="836.541" style="stroke:#000000; stroke-width:4; stroke-opacity:1"/>
<line clip-path="url(#clip932)" x1="2196.6" y1="824.329" x2="2164.6" y2="824.329" style="stroke:#000000; stroke-width:4; stroke-opacity:1"/>
<line clip-path="url(#clip932)" x1="2218.96" y1="895.948" x2="2186.96" y2="895.948" style="stroke:#000000; stroke-width:4; stroke-opacity:1"/>
<line clip-path="url(#clip932)" x1="2218.96" y1="875.534" x2="2186.96" y2="875.534" style="stroke:#000000; stroke-width:4; stroke-opacity:1"/>
<line clip-path="url(#clip932)" x1="2241.32" y1="955.776" x2="2209.32" y2="955.776" style="stroke:#000000; stroke-width:4; stroke-opacity:1"/>
<line clip-path="url(#clip932)" x1="2241.32" y1="924.376" x2="2209.32" y2="924.376" style="stroke:#000000; stroke-width:4; stroke-opacity:1"/>
<line clip-path="url(#clip932)" x1="2263.68" y1="1025.74" x2="2231.68" y2="1025.74" style="stroke:#000000; stroke-width:4; stroke-opacity:1"/>
<line clip-path="url(#clip932)" x1="2263.68" y1="960.052" x2="2231.68" y2="960.052" style="stroke:#000000; stroke-width:4; stroke-opacity:1"/>
<line clip-path="url(#clip932)" x1="2286.03" y1="1085.7" x2="2254.03" y2="1085.7" style="stroke:#000000; stroke-width:4; stroke-opacity:1"/>
<line clip-path="url(#clip932)" x1="2286.03" y1="1001.65" x2="2254.03" y2="1001.65" style="stroke:#000000; stroke-width:4; stroke-opacity:1"/>
<line clip-path="url(#clip932)" x1="2308.39" y1="1102.45" x2="2276.39" y2="1102.45" style="stroke:#000000; stroke-width:4; stroke-opacity:1"/>
<line clip-path="url(#clip932)" x1="2308.39" y1="1081.36" x2="2276.39" y2="1081.36" style="stroke:#000000; stroke-width:4; stroke-opacity:1"/>
</svg>
