<?xml version="1.0" encoding="utf-8" standalone="no"?>
<!DOCTYPE svg PUBLIC "-//W3C//DTD SVG 1.1//EN"
  "http://www.w3.org/Graphics/SVG/1.1/DTD/svg11.dtd">
<svg xmlns:xlink="http://www.w3.org/1999/xlink" width="288pt" height="216pt" viewBox="0 0 288 216" xmlns="http://www.w3.org/2000/svg" version="1.1">
 <metadata>
  <rdf:RDF xmlns:dc="http://purl.org/dc/elements/1.1/" xmlns:cc="http://creativecommons.org/ns#" xmlns:rdf="http://www.w3.org/1999/02/22-rdf-syntax-ns#">
   <cc:Work>
    <dc:type rdf:resource="http://purl.org/dc/dcmitype/StillImage"/>
    <dc:date>2022-03-17T17:10:22.104415</dc:date>
    <dc:format>image/svg+xml</dc:format>
    <dc:creator>
     <cc:Agent>
      <dc:title>Matplotlib v3.5.1, https://matplotlib.org/</dc:title>
     </cc:Agent>
    </dc:creator>
   </cc:Work>
  </rdf:RDF>
 </metadata>
 <defs>
  <style type="text/css">*{stroke-linejoin: round; stroke-linecap: butt}</style>
 </defs>
 <g id="figure_1">
  <g id="patch_1">
   <path d="M 0 216 
L 288 216 
L 288 0 
L 0 0 
z
" style="fill: #ffffff"/>
  </g>
  <g id="axes_1">
   <g id="patch_2">
    <path d="M 36 192.24 
L 259.2 192.24 
L 259.2 25.92 
L 36 25.92 
z
" style="fill: #ffffff"/>
   </g>
   <g id="PathCollection_1">
    <defs>
     <path id="m51356af318" d="M -5 0 
L 5 0 
M 0 5 
L 0 -5 
" style="stroke: #ff4500; stroke-opacity: 0.5; stroke-width: 1.5"/>
    </defs>
    <g clip-path="url(#p39f0cd566d)">
     <use xlink:href="#m51356af318" x="36" y="95.736868" style="fill: #ff4500; fill-opacity: 0.5; stroke: #ff4500; stroke-opacity: 0.5; stroke-width: 1.5"/>
     <use xlink:href="#m51356af318" x="38.147186" y="100.858611" style="fill: #ff4500; fill-opacity: 0.5; stroke: #ff4500; stroke-opacity: 0.5; stroke-width: 1.5"/>
     <use xlink:href="#m51356af318" x="40.294372" y="76.187642" style="fill: #ff4500; fill-opacity: 0.5; stroke: #ff4500; stroke-opacity: 0.5; stroke-width: 1.5"/>
     <use xlink:href="#m51356af318" x="42.441558" y="152.648641" style="fill: #ff4500; fill-opacity: 0.5; stroke: #ff4500; stroke-opacity: 0.5; stroke-width: 1.5"/>
     <use xlink:href="#m51356af318" x="44.588745" y="126.880712" style="fill: #ff4500; fill-opacity: 0.5; stroke: #ff4500; stroke-opacity: 0.5; stroke-width: 1.5"/>
     <use xlink:href="#m51356af318" x="46.735931" y="129.293805" style="fill: #ff4500; fill-opacity: 0.5; stroke: #ff4500; stroke-opacity: 0.5; stroke-width: 1.5"/>
     <use xlink:href="#m51356af318" x="48.883117" y="147.373858" style="fill: #ff4500; fill-opacity: 0.5; stroke: #ff4500; stroke-opacity: 0.5; stroke-width: 1.5"/>
     <use xlink:href="#m51356af318" x="51.030303" y="96.519212" style="fill: #ff4500; fill-opacity: 0.5; stroke: #ff4500; stroke-opacity: 0.5; stroke-width: 1.5"/>
     <use xlink:href="#m51356af318" x="53.177489" y="122.687805" style="fill: #ff4500; fill-opacity: 0.5; stroke: #ff4500; stroke-opacity: 0.5; stroke-width: 1.5"/>
     <use xlink:href="#m51356af318" x="55.324675" y="138.254044" style="fill: #ff4500; fill-opacity: 0.5; stroke: #ff4500; stroke-opacity: 0.5; stroke-width: 1.5"/>
     <use xlink:href="#m51356af318" x="57.471861" y="96.686239" style="fill: #ff4500; fill-opacity: 0.5; stroke: #ff4500; stroke-opacity: 0.5; stroke-width: 1.5"/>
     <use xlink:href="#m51356af318" x="59.619048" y="143.733283" style="fill: #ff4500; fill-opacity: 0.5; stroke: #ff4500; stroke-opacity: 0.5; stroke-width: 1.5"/>
     <use xlink:href="#m51356af318" x="61.766234" y="143.477599" style="fill: #ff4500; fill-opacity: 0.5; stroke: #ff4500; stroke-opacity: 0.5; stroke-width: 1.5"/>
     <use xlink:href="#m51356af318" x="63.91342" y="126.724064" style="fill: #ff4500; fill-opacity: 0.5; stroke: #ff4500; stroke-opacity: 0.5; stroke-width: 1.5"/>
     <use xlink:href="#m51356af318" x="66.060606" y="175.453684" style="fill: #ff4500; fill-opacity: 0.5; stroke: #ff4500; stroke-opacity: 0.5; stroke-width: 1.5"/>
     <use xlink:href="#m51356af318" x="68.207792" y="135.706944" style="fill: #ff4500; fill-opacity: 0.5; stroke: #ff4500; stroke-opacity: 0.5; stroke-width: 1.5"/>
     <use xlink:href="#m51356af318" x="70.354978" y="115.371507" style="fill: #ff4500; fill-opacity: 0.5; stroke: #ff4500; stroke-opacity: 0.5; stroke-width: 1.5"/>
     <use xlink:href="#m51356af318" x="72.502165" y="143.010933" style="fill: #ff4500; fill-opacity: 0.5; stroke: #ff4500; stroke-opacity: 0.5; stroke-width: 1.5"/>
     <use xlink:href="#m51356af318" x="74.649351" y="88.568116" style="fill: #ff4500; fill-opacity: 0.5; stroke: #ff4500; stroke-opacity: 0.5; stroke-width: 1.5"/>
     <use xlink:href="#m51356af318" x="76.796537" y="146.389964" style="fill: #ff4500; fill-opacity: 0.5; stroke: #ff4500; stroke-opacity: 0.5; stroke-width: 1.5"/>
     <use xlink:href="#m51356af318" x="78.943723" y="90.76071" style="fill: #ff4500; fill-opacity: 0.5; stroke: #ff4500; stroke-opacity: 0.5; stroke-width: 1.5"/>
     <use xlink:href="#m51356af318" x="81.090909" y="49.650709" style="fill: #ff4500; fill-opacity: 0.5; stroke: #ff4500; stroke-opacity: 0.5; stroke-width: 1.5"/>
     <use xlink:href="#m51356af318" x="83.238095" y="119.289608" style="fill: #ff4500; fill-opacity: 0.5; stroke: #ff4500; stroke-opacity: 0.5; stroke-width: 1.5"/>
     <use xlink:href="#m51356af318" x="85.385281" y="133.024165" style="fill: #ff4500; fill-opacity: 0.5; stroke: #ff4500; stroke-opacity: 0.5; stroke-width: 1.5"/>
     <use xlink:href="#m51356af318" x="87.532468" y="139.401338" style="fill: #ff4500; fill-opacity: 0.5; stroke: #ff4500; stroke-opacity: 0.5; stroke-width: 1.5"/>
     <use xlink:href="#m51356af318" x="89.679654" y="153.849314" style="fill: #ff4500; fill-opacity: 0.5; stroke: #ff4500; stroke-opacity: 0.5; stroke-width: 1.5"/>
     <use xlink:href="#m51356af318" x="91.82684" y="149.5044" style="fill: #ff4500; fill-opacity: 0.5; stroke: #ff4500; stroke-opacity: 0.5; stroke-width: 1.5"/>
     <use xlink:href="#m51356af318" x="93.974026" y="79.053906" style="fill: #ff4500; fill-opacity: 0.5; stroke: #ff4500; stroke-opacity: 0.5; stroke-width: 1.5"/>
     <use xlink:href="#m51356af318" x="96.121212" y="148.9662" style="fill: #ff4500; fill-opacity: 0.5; stroke: #ff4500; stroke-opacity: 0.5; stroke-width: 1.5"/>
     <use xlink:href="#m51356af318" x="98.268398" y="147.386571" style="fill: #ff4500; fill-opacity: 0.5; stroke: #ff4500; stroke-opacity: 0.5; stroke-width: 1.5"/>
     <use xlink:href="#m51356af318" x="100.415584" y="184.68" style="fill: #ff4500; fill-opacity: 0.5; stroke: #ff4500; stroke-opacity: 0.5; stroke-width: 1.5"/>
     <use xlink:href="#m51356af318" x="102.562771" y="122.62536" style="fill: #ff4500; fill-opacity: 0.5; stroke: #ff4500; stroke-opacity: 0.5; stroke-width: 1.5"/>
     <use xlink:href="#m51356af318" x="104.709957" y="94.994942" style="fill: #ff4500; fill-opacity: 0.5; stroke: #ff4500; stroke-opacity: 0.5; stroke-width: 1.5"/>
     <use xlink:href="#m51356af318" x="106.857143" y="135.9962" style="fill: #ff4500; fill-opacity: 0.5; stroke: #ff4500; stroke-opacity: 0.5; stroke-width: 1.5"/>
     <use xlink:href="#m51356af318" x="109.004329" y="78.683642" style="fill: #ff4500; fill-opacity: 0.5; stroke: #ff4500; stroke-opacity: 0.5; stroke-width: 1.5"/>
     <use xlink:href="#m51356af318" x="111.151515" y="138.672041" style="fill: #ff4500; fill-opacity: 0.5; stroke: #ff4500; stroke-opacity: 0.5; stroke-width: 1.5"/>
     <use xlink:href="#m51356af318" x="113.298701" y="138.77779" style="fill: #ff4500; fill-opacity: 0.5; stroke: #ff4500; stroke-opacity: 0.5; stroke-width: 1.5"/>
     <use xlink:href="#m51356af318" x="115.445887" y="114.332354" style="fill: #ff4500; fill-opacity: 0.5; stroke: #ff4500; stroke-opacity: 0.5; stroke-width: 1.5"/>
     <use xlink:href="#m51356af318" x="117.593074" y="102.346491" style="fill: #ff4500; fill-opacity: 0.5; stroke: #ff4500; stroke-opacity: 0.5; stroke-width: 1.5"/>
     <use xlink:href="#m51356af318" x="119.74026" y="98.621466" style="fill: #ff4500; fill-opacity: 0.5; stroke: #ff4500; stroke-opacity: 0.5; stroke-width: 1.5"/>
     <use xlink:href="#m51356af318" x="121.887446" y="148.285568" style="fill: #ff4500; fill-opacity: 0.5; stroke: #ff4500; stroke-opacity: 0.5; stroke-width: 1.5"/>
     <use xlink:href="#m51356af318" x="124.034632" y="111.855131" style="fill: #ff4500; fill-opacity: 0.5; stroke: #ff4500; stroke-opacity: 0.5; stroke-width: 1.5"/>
     <use xlink:href="#m51356af318" x="126.181818" y="141.159996" style="fill: #ff4500; fill-opacity: 0.5; stroke: #ff4500; stroke-opacity: 0.5; stroke-width: 1.5"/>
     <use xlink:href="#m51356af318" x="128.329004" y="109.087289" style="fill: #ff4500; fill-opacity: 0.5; stroke: #ff4500; stroke-opacity: 0.5; stroke-width: 1.5"/>
     <use xlink:href="#m51356af318" x="130.47619" y="121.83821" style="fill: #ff4500; fill-opacity: 0.5; stroke: #ff4500; stroke-opacity: 0.5; stroke-width: 1.5"/>
     <use xlink:href="#m51356af318" x="132.623377" y="116.605702" style="fill: #ff4500; fill-opacity: 0.5; stroke: #ff4500; stroke-opacity: 0.5; stroke-width: 1.5"/>
     <use xlink:href="#m51356af318" x="134.770563" y="90.544603" style="fill: #ff4500; fill-opacity: 0.5; stroke: #ff4500; stroke-opacity: 0.5; stroke-width: 1.5"/>
     <use xlink:href="#m51356af318" x="136.917749" y="76.487681" style="fill: #ff4500; fill-opacity: 0.5; stroke: #ff4500; stroke-opacity: 0.5; stroke-width: 1.5"/>
     <use xlink:href="#m51356af318" x="139.064935" y="116.389245" style="fill: #ff4500; fill-opacity: 0.5; stroke: #ff4500; stroke-opacity: 0.5; stroke-width: 1.5"/>
     <use xlink:href="#m51356af318" x="141.212121" y="119.289287" style="fill: #ff4500; fill-opacity: 0.5; stroke: #ff4500; stroke-opacity: 0.5; stroke-width: 1.5"/>
     <use xlink:href="#m51356af318" x="143.359307" y="130.836989" style="fill: #ff4500; fill-opacity: 0.5; stroke: #ff4500; stroke-opacity: 0.5; stroke-width: 1.5"/>
     <use xlink:href="#m51356af318" x="145.506494" y="102.318129" style="fill: #ff4500; fill-opacity: 0.5; stroke: #ff4500; stroke-opacity: 0.5; stroke-width: 1.5"/>
     <use xlink:href="#m51356af318" x="147.65368" y="127.189196" style="fill: #ff4500; fill-opacity: 0.5; stroke: #ff4500; stroke-opacity: 0.5; stroke-width: 1.5"/>
     <use xlink:href="#m51356af318" x="149.800866" y="121.482127" style="fill: #ff4500; fill-opacity: 0.5; stroke: #ff4500; stroke-opacity: 0.5; stroke-width: 1.5"/>
     <use xlink:href="#m51356af318" x="151.948052" y="123.717889" style="fill: #ff4500; fill-opacity: 0.5; stroke: #ff4500; stroke-opacity: 0.5; stroke-width: 1.5"/>
     <use xlink:href="#m51356af318" x="154.095238" y="98.720981" style="fill: #ff4500; fill-opacity: 0.5; stroke: #ff4500; stroke-opacity: 0.5; stroke-width: 1.5"/>
     <use xlink:href="#m51356af318" x="156.242424" y="102.74844" style="fill: #ff4500; fill-opacity: 0.5; stroke: #ff4500; stroke-opacity: 0.5; stroke-width: 1.5"/>
     <use xlink:href="#m51356af318" x="158.38961" y="102.322716" style="fill: #ff4500; fill-opacity: 0.5; stroke: #ff4500; stroke-opacity: 0.5; stroke-width: 1.5"/>
     <use xlink:href="#m51356af318" x="160.536797" y="93.461818" style="fill: #ff4500; fill-opacity: 0.5; stroke: #ff4500; stroke-opacity: 0.5; stroke-width: 1.5"/>
     <use xlink:href="#m51356af318" x="162.683983" y="72.751872" style="fill: #ff4500; fill-opacity: 0.5; stroke: #ff4500; stroke-opacity: 0.5; stroke-width: 1.5"/>
     <use xlink:href="#m51356af318" x="164.831169" y="134.058872" style="fill: #ff4500; fill-opacity: 0.5; stroke: #ff4500; stroke-opacity: 0.5; stroke-width: 1.5"/>
     <use xlink:href="#m51356af318" x="166.978355" y="124.685121" style="fill: #ff4500; fill-opacity: 0.5; stroke: #ff4500; stroke-opacity: 0.5; stroke-width: 1.5"/>
     <use xlink:href="#m51356af318" x="169.125541" y="81.044292" style="fill: #ff4500; fill-opacity: 0.5; stroke: #ff4500; stroke-opacity: 0.5; stroke-width: 1.5"/>
     <use xlink:href="#m51356af318" x="171.272727" y="83.508569" style="fill: #ff4500; fill-opacity: 0.5; stroke: #ff4500; stroke-opacity: 0.5; stroke-width: 1.5"/>
     <use xlink:href="#m51356af318" x="173.419913" y="158.610837" style="fill: #ff4500; fill-opacity: 0.5; stroke: #ff4500; stroke-opacity: 0.5; stroke-width: 1.5"/>
     <use xlink:href="#m51356af318" x="175.5671" y="142.1432" style="fill: #ff4500; fill-opacity: 0.5; stroke: #ff4500; stroke-opacity: 0.5; stroke-width: 1.5"/>
     <use xlink:href="#m51356af318" x="177.714286" y="101.350816" style="fill: #ff4500; fill-opacity: 0.5; stroke: #ff4500; stroke-opacity: 0.5; stroke-width: 1.5"/>
     <use xlink:href="#m51356af318" x="179.861472" y="122.16597" style="fill: #ff4500; fill-opacity: 0.5; stroke: #ff4500; stroke-opacity: 0.5; stroke-width: 1.5"/>
     <use xlink:href="#m51356af318" x="182.008658" y="132.596711" style="fill: #ff4500; fill-opacity: 0.5; stroke: #ff4500; stroke-opacity: 0.5; stroke-width: 1.5"/>
     <use xlink:href="#m51356af318" x="184.155844" y="112.983484" style="fill: #ff4500; fill-opacity: 0.5; stroke: #ff4500; stroke-opacity: 0.5; stroke-width: 1.5"/>
     <use xlink:href="#m51356af318" x="186.30303" y="94.031667" style="fill: #ff4500; fill-opacity: 0.5; stroke: #ff4500; stroke-opacity: 0.5; stroke-width: 1.5"/>
     <use xlink:href="#m51356af318" x="188.450216" y="111.791349" style="fill: #ff4500; fill-opacity: 0.5; stroke: #ff4500; stroke-opacity: 0.5; stroke-width: 1.5"/>
     <use xlink:href="#m51356af318" x="190.597403" y="142.845495" style="fill: #ff4500; fill-opacity: 0.5; stroke: #ff4500; stroke-opacity: 0.5; stroke-width: 1.5"/>
     <use xlink:href="#m51356af318" x="192.744589" y="115.06455" style="fill: #ff4500; fill-opacity: 0.5; stroke: #ff4500; stroke-opacity: 0.5; stroke-width: 1.5"/>
     <use xlink:href="#m51356af318" x="194.891775" y="122.642479" style="fill: #ff4500; fill-opacity: 0.5; stroke: #ff4500; stroke-opacity: 0.5; stroke-width: 1.5"/>
     <use xlink:href="#m51356af318" x="197.038961" y="107.962065" style="fill: #ff4500; fill-opacity: 0.5; stroke: #ff4500; stroke-opacity: 0.5; stroke-width: 1.5"/>
     <use xlink:href="#m51356af318" x="199.186147" y="112.64402" style="fill: #ff4500; fill-opacity: 0.5; stroke: #ff4500; stroke-opacity: 0.5; stroke-width: 1.5"/>
     <use xlink:href="#m51356af318" x="201.333333" y="116.410748" style="fill: #ff4500; fill-opacity: 0.5; stroke: #ff4500; stroke-opacity: 0.5; stroke-width: 1.5"/>
     <use xlink:href="#m51356af318" x="203.480519" y="125.712084" style="fill: #ff4500; fill-opacity: 0.5; stroke: #ff4500; stroke-opacity: 0.5; stroke-width: 1.5"/>
     <use xlink:href="#m51356af318" x="205.627706" y="106.907899" style="fill: #ff4500; fill-opacity: 0.5; stroke: #ff4500; stroke-opacity: 0.5; stroke-width: 1.5"/>
     <use xlink:href="#m51356af318" x="207.774892" y="99.080811" style="fill: #ff4500; fill-opacity: 0.5; stroke: #ff4500; stroke-opacity: 0.5; stroke-width: 1.5"/>
     <use xlink:href="#m51356af318" x="209.922078" y="103.832176" style="fill: #ff4500; fill-opacity: 0.5; stroke: #ff4500; stroke-opacity: 0.5; stroke-width: 1.5"/>
     <use xlink:href="#m51356af318" x="212.069264" y="107.246154" style="fill: #ff4500; fill-opacity: 0.5; stroke: #ff4500; stroke-opacity: 0.5; stroke-width: 1.5"/>
     <use xlink:href="#m51356af318" x="214.21645" y="104.995137" style="fill: #ff4500; fill-opacity: 0.5; stroke: #ff4500; stroke-opacity: 0.5; stroke-width: 1.5"/>
     <use xlink:href="#m51356af318" x="216.363636" y="184.672024" style="fill: #ff4500; fill-opacity: 0.5; stroke: #ff4500; stroke-opacity: 0.5; stroke-width: 1.5"/>
     <use xlink:href="#m51356af318" x="218.510823" y="161.91897" style="fill: #ff4500; fill-opacity: 0.5; stroke: #ff4500; stroke-opacity: 0.5; stroke-width: 1.5"/>
     <use xlink:href="#m51356af318" x="220.658009" y="136.720385" style="fill: #ff4500; fill-opacity: 0.5; stroke: #ff4500; stroke-opacity: 0.5; stroke-width: 1.5"/>
     <use xlink:href="#m51356af318" x="222.805195" y="141.518865" style="fill: #ff4500; fill-opacity: 0.5; stroke: #ff4500; stroke-opacity: 0.5; stroke-width: 1.5"/>
     <use xlink:href="#m51356af318" x="224.952381" y="50.783352" style="fill: #ff4500; fill-opacity: 0.5; stroke: #ff4500; stroke-opacity: 0.5; stroke-width: 1.5"/>
     <use xlink:href="#m51356af318" x="227.099567" y="123.157313" style="fill: #ff4500; fill-opacity: 0.5; stroke: #ff4500; stroke-opacity: 0.5; stroke-width: 1.5"/>
     <use xlink:href="#m51356af318" x="229.246753" y="110.468081" style="fill: #ff4500; fill-opacity: 0.5; stroke: #ff4500; stroke-opacity: 0.5; stroke-width: 1.5"/>
     <use xlink:href="#m51356af318" x="231.393939" y="118.488347" style="fill: #ff4500; fill-opacity: 0.5; stroke: #ff4500; stroke-opacity: 0.5; stroke-width: 1.5"/>
     <use xlink:href="#m51356af318" x="233.541126" y="129.823593" style="fill: #ff4500; fill-opacity: 0.5; stroke: #ff4500; stroke-opacity: 0.5; stroke-width: 1.5"/>
     <use xlink:href="#m51356af318" x="235.688312" y="98.395101" style="fill: #ff4500; fill-opacity: 0.5; stroke: #ff4500; stroke-opacity: 0.5; stroke-width: 1.5"/>
     <use xlink:href="#m51356af318" x="237.835498" y="89.92435" style="fill: #ff4500; fill-opacity: 0.5; stroke: #ff4500; stroke-opacity: 0.5; stroke-width: 1.5"/>
     <use xlink:href="#m51356af318" x="239.982684" y="73.241056" style="fill: #ff4500; fill-opacity: 0.5; stroke: #ff4500; stroke-opacity: 0.5; stroke-width: 1.5"/>
     <use xlink:href="#m51356af318" x="242.12987" y="104.497402" style="fill: #ff4500; fill-opacity: 0.5; stroke: #ff4500; stroke-opacity: 0.5; stroke-width: 1.5"/>
     <use xlink:href="#m51356af318" x="244.277056" y="131.08503" style="fill: #ff4500; fill-opacity: 0.5; stroke: #ff4500; stroke-opacity: 0.5; stroke-width: 1.5"/>
     <use xlink:href="#m51356af318" x="246.424242" y="139.027458" style="fill: #ff4500; fill-opacity: 0.5; stroke: #ff4500; stroke-opacity: 0.5; stroke-width: 1.5"/>
     <use xlink:href="#m51356af318" x="248.571429" y="62.015871" style="fill: #ff4500; fill-opacity: 0.5; stroke: #ff4500; stroke-opacity: 0.5; stroke-width: 1.5"/>
    </g>
   </g>
   <g id="patch_3">
    <path d="M 36 173.615244 
L 62.499718 173.615244 
L 62.499718 169.346677 
L 36 169.346677 
z
" clip-path="url(#p39f0cd566d)" style="fill: #008000; opacity: 0.5"/>
   </g>
   <g id="patch_4">
    <path d="M 36 169.346677 
L 49.249859 169.346677 
L 49.249859 165.07811 
L 36 165.07811 
z
" clip-path="url(#p39f0cd566d)" style="fill: #008000; opacity: 0.5"/>
   </g>
   <g id="patch_5">
    <path d="M 36 165.07811 
L 62.499718 165.07811 
L 62.499718 160.809543 
L 36 160.809543 
z
" clip-path="url(#p39f0cd566d)" style="fill: #008000; opacity: 0.5"/>
   </g>
   <g id="patch_6">
    <path d="M 36 160.809543 
L 62.499718 160.809543 
L 62.499718 156.540976 
L 36 156.540976 
z
" clip-path="url(#p39f0cd566d)" style="fill: #008000; opacity: 0.5"/>
   </g>
   <g id="patch_7">
    <path d="M 36 156.540976 
L 49.249859 156.540976 
L 49.249859 152.272409 
L 36 152.272409 
z
" clip-path="url(#p39f0cd566d)" style="fill: #008000; opacity: 0.5"/>
   </g>
   <g id="patch_8">
    <path d="M 36 152.272409 
L 102.249294 152.272409 
L 102.249294 148.003842 
L 36 148.003842 
z
" clip-path="url(#p39f0cd566d)" style="fill: #008000; opacity: 0.5"/>
   </g>
   <g id="patch_9">
    <path d="M 36 148.003842 
L 49.249859 148.003842 
L 49.249859 143.735275 
L 36 143.735275 
z
" clip-path="url(#p39f0cd566d)" style="fill: #008000; opacity: 0.5"/>
   </g>
   <g id="patch_10">
    <path d="M 36 143.735275 
L 102.249294 143.735275 
L 102.249294 139.466708 
L 36 139.466708 
z
" clip-path="url(#p39f0cd566d)" style="fill: #008000; opacity: 0.5"/>
   </g>
   <g id="patch_11">
    <path d="M 36 139.466708 
L 115.499153 139.466708 
L 115.499153 135.198141 
L 36 135.198141 
z
" clip-path="url(#p39f0cd566d)" style="fill: #008000; opacity: 0.5"/>
   </g>
   <g id="patch_12">
    <path d="M 36 135.198141 
L 75.749577 135.198141 
L 75.749577 130.929574 
L 36 130.929574 
z
" clip-path="url(#p39f0cd566d)" style="fill: #008000; opacity: 0.5"/>
   </g>
   <g id="patch_13">
    <path d="M 36 130.929574 
L 88.999435 130.929574 
L 88.999435 126.661007 
L 36 126.661007 
z
" clip-path="url(#p39f0cd566d)" style="fill: #008000; opacity: 0.5"/>
   </g>
   <g id="patch_14">
    <path d="M 36 126.661007 
L 168.498588 126.661007 
L 168.498588 122.39244 
L 36 122.39244 
z
" clip-path="url(#p39f0cd566d)" style="fill: #008000; opacity: 0.5"/>
   </g>
   <g id="patch_15">
    <path d="M 36 122.39244 
L 155.24873 122.39244 
L 155.24873 118.123873 
L 36 118.123873 
z
" clip-path="url(#p39f0cd566d)" style="fill: #008000; opacity: 0.5"/>
   </g>
   <g id="patch_16">
    <path d="M 36 118.123873 
L 75.749577 118.123873 
L 75.749577 113.855306 
L 36 113.855306 
z
" clip-path="url(#p39f0cd566d)" style="fill: #008000; opacity: 0.5"/>
   </g>
   <g id="patch_17">
    <path d="M 36 113.855306 
L 155.24873 113.855306 
L 155.24873 109.586739 
L 36 109.586739 
z
" clip-path="url(#p39f0cd566d)" style="fill: #008000; opacity: 0.5"/>
   </g>
   <g id="patch_18">
    <path d="M 36 109.586739 
L 102.249294 109.586739 
L 102.249294 105.318172 
L 36 105.318172 
z
" clip-path="url(#p39f0cd566d)" style="fill: #008000; opacity: 0.5"/>
   </g>
   <g id="patch_19">
    <path d="M 36 105.318172 
L 115.499153 105.318172 
L 115.499153 101.049605 
L 36 101.049605 
z
" clip-path="url(#p39f0cd566d)" style="fill: #008000; opacity: 0.5"/>
   </g>
   <g id="patch_20">
    <path d="M 36 101.049605 
L 88.999435 101.049605 
L 88.999435 96.781038 
L 36 96.781038 
z
" clip-path="url(#p39f0cd566d)" style="fill: #008000; opacity: 0.5"/>
   </g>
   <g id="patch_21">
    <path d="M 36 96.781038 
L 88.999435 96.781038 
L 88.999435 92.512471 
L 36 92.512471 
z
" clip-path="url(#p39f0cd566d)" style="fill: #008000; opacity: 0.5"/>
   </g>
   <g id="patch_22">
    <path d="M 36 92.512471 
L 102.249294 92.512471 
L 102.249294 88.243904 
L 36 88.243904 
z
" clip-path="url(#p39f0cd566d)" style="fill: #008000; opacity: 0.5"/>
   </g>
   <g id="patch_23">
    <path d="M 36 88.243904 
L 62.499718 88.243904 
L 62.499718 83.975337 
L 36 83.975337 
z
" clip-path="url(#p39f0cd566d)" style="fill: #008000; opacity: 0.5"/>
   </g>
   <g id="patch_24">
    <path d="M 36 83.975337 
L 49.249859 83.975337 
L 49.249859 79.70677 
L 36 79.70677 
z
" clip-path="url(#p39f0cd566d)" style="fill: #008000; opacity: 0.5"/>
   </g>
   <g id="patch_25">
    <path d="M 36 79.70677 
L 75.749577 79.70677 
L 75.749577 75.438203 
L 36 75.438203 
z
" clip-path="url(#p39f0cd566d)" style="fill: #008000; opacity: 0.5"/>
   </g>
   <g id="patch_26">
    <path d="M 36 75.438203 
L 75.749577 75.438203 
L 75.749577 71.169636 
L 36 71.169636 
z
" clip-path="url(#p39f0cd566d)" style="fill: #008000; opacity: 0.5"/>
   </g>
   <g id="patch_27">
    <path d="M 36 71.169636 
L 62.499718 71.169636 
L 62.499718 66.901068 
L 36 66.901068 
z
" clip-path="url(#p39f0cd566d)" style="fill: #008000; opacity: 0.5"/>
   </g>
   <g id="patch_28">
    <path d="M 36 66.901068 
L 36 66.901068 
L 36 62.632501 
L 36 62.632501 
z
" clip-path="url(#p39f0cd566d)" style="fill: #008000; opacity: 0.5"/>
   </g>
   <g id="patch_29">
    <path d="M 36 62.632501 
L 36 62.632501 
L 36 58.363934 
L 36 58.363934 
z
" clip-path="url(#p39f0cd566d)" style="fill: #008000; opacity: 0.5"/>
   </g>
   <g id="patch_30">
    <path d="M 36 58.363934 
L 49.249859 58.363934 
L 49.249859 54.095367 
L 36 54.095367 
z
" clip-path="url(#p39f0cd566d)" style="fill: #008000; opacity: 0.5"/>
   </g>
   <g id="patch_31">
    <path d="M 36 54.095367 
L 36 54.095367 
L 36 49.8268 
L 36 49.8268 
z
" clip-path="url(#p39f0cd566d)" style="fill: #008000; opacity: 0.5"/>
   </g>
   <g id="patch_32">
    <path d="M 36 49.8268 
L 49.249859 49.8268 
L 49.249859 45.558233 
L 36 45.558233 
z
" clip-path="url(#p39f0cd566d)" style="fill: #008000; opacity: 0.5"/>
   </g>
   <g id="matplotlib.axis_1">
    <g id="xtick_1">
     <g id="line2d_1">
      <path d="M 36 192.24 
L 36 25.92 
" clip-path="url(#p39f0cd566d)" style="fill: none; stroke: #b0b0b0; stroke-width: 0.8; stroke-linecap: square"/>
     </g>
     <g id="line2d_2">
      <defs>
       <path id="m54ba754fa4" d="M 0 0 
L 0 3.5 
" style="stroke: #000000; stroke-width: 0.8"/>
      </defs>
      <g>
       <use xlink:href="#m54ba754fa4" x="36" y="192.24" style="stroke: #000000; stroke-width: 0.8"/>
      </g>
     </g>
     <g id="text_1">
      <!-- 0.0 -->
      <g transform="translate(28.048437 206.838437)scale(0.1 -0.1)">
       <defs>
        <path id="DejaVuSans-30" d="M 2034 4250 
Q 1547 4250 1301 3770 
Q 1056 3291 1056 2328 
Q 1056 1369 1301 889 
Q 1547 409 2034 409 
Q 2525 409 2770 889 
Q 3016 1369 3016 2328 
Q 3016 3291 2770 3770 
Q 2525 4250 2034 4250 
z
M 2034 4750 
Q 2819 4750 3233 4129 
Q 3647 3509 3647 2328 
Q 3647 1150 3233 529 
Q 2819 -91 2034 -91 
Q 1250 -91 836 529 
Q 422 1150 422 2328 
Q 422 3509 836 4129 
Q 1250 4750 2034 4750 
z
" transform="scale(0.015625)"/>
        <path id="DejaVuSans-2e" d="M 684 794 
L 1344 794 
L 1344 0 
L 684 0 
L 684 794 
z
" transform="scale(0.015625)"/>
       </defs>
       <use xlink:href="#DejaVuSans-30"/>
       <use xlink:href="#DejaVuSans-2e" x="63.623047"/>
       <use xlink:href="#DejaVuSans-30" x="95.410156"/>
      </g>
     </g>
    </g>
    <g id="xtick_2">
     <g id="line2d_3">
      <path d="M 78.514286 192.24 
L 78.514286 25.92 
" clip-path="url(#p39f0cd566d)" style="fill: none; stroke: #b0b0b0; stroke-width: 0.8; stroke-linecap: square"/>
     </g>
     <g id="line2d_4">
      <g>
       <use xlink:href="#m54ba754fa4" x="78.514286" y="192.24" style="stroke: #000000; stroke-width: 0.8"/>
      </g>
     </g>
     <g id="text_2">
      <!-- 0.2 -->
      <g transform="translate(70.562723 206.838437)scale(0.1 -0.1)">
       <defs>
        <path id="DejaVuSans-32" d="M 1228 531 
L 3431 531 
L 3431 0 
L 469 0 
L 469 531 
Q 828 903 1448 1529 
Q 2069 2156 2228 2338 
Q 2531 2678 2651 2914 
Q 2772 3150 2772 3378 
Q 2772 3750 2511 3984 
Q 2250 4219 1831 4219 
Q 1534 4219 1204 4116 
Q 875 4013 500 3803 
L 500 4441 
Q 881 4594 1212 4672 
Q 1544 4750 1819 4750 
Q 2544 4750 2975 4387 
Q 3406 4025 3406 3419 
Q 3406 3131 3298 2873 
Q 3191 2616 2906 2266 
Q 2828 2175 2409 1742 
Q 1991 1309 1228 531 
z
" transform="scale(0.015625)"/>
       </defs>
       <use xlink:href="#DejaVuSans-30"/>
       <use xlink:href="#DejaVuSans-2e" x="63.623047"/>
       <use xlink:href="#DejaVuSans-32" x="95.410156"/>
      </g>
     </g>
    </g>
    <g id="xtick_3">
     <g id="line2d_5">
      <path d="M 121.028571 192.24 
L 121.028571 25.92 
" clip-path="url(#p39f0cd566d)" style="fill: none; stroke: #b0b0b0; stroke-width: 0.8; stroke-linecap: square"/>
     </g>
     <g id="line2d_6">
      <g>
       <use xlink:href="#m54ba754fa4" x="121.028571" y="192.24" style="stroke: #000000; stroke-width: 0.8"/>
      </g>
     </g>
     <g id="text_3">
      <!-- 0.4 -->
      <g transform="translate(113.077009 206.838437)scale(0.1 -0.1)">
       <defs>
        <path id="DejaVuSans-34" d="M 2419 4116 
L 825 1625 
L 2419 1625 
L 2419 4116 
z
M 2253 4666 
L 3047 4666 
L 3047 1625 
L 3713 1625 
L 3713 1100 
L 3047 1100 
L 3047 0 
L 2419 0 
L 2419 1100 
L 313 1100 
L 313 1709 
L 2253 4666 
z
" transform="scale(0.015625)"/>
       </defs>
       <use xlink:href="#DejaVuSans-30"/>
       <use xlink:href="#DejaVuSans-2e" x="63.623047"/>
       <use xlink:href="#DejaVuSans-34" x="95.410156"/>
      </g>
     </g>
    </g>
    <g id="xtick_4">
     <g id="line2d_7">
      <path d="M 163.542857 192.24 
L 163.542857 25.92 
" clip-path="url(#p39f0cd566d)" style="fill: none; stroke: #b0b0b0; stroke-width: 0.8; stroke-linecap: square"/>
     </g>
     <g id="line2d_8">
      <g>
       <use xlink:href="#m54ba754fa4" x="163.542857" y="192.24" style="stroke: #000000; stroke-width: 0.8"/>
      </g>
     </g>
     <g id="text_4">
      <!-- 0.6 -->
      <g transform="translate(155.591295 206.838437)scale(0.1 -0.1)">
       <defs>
        <path id="DejaVuSans-36" d="M 2113 2584 
Q 1688 2584 1439 2293 
Q 1191 2003 1191 1497 
Q 1191 994 1439 701 
Q 1688 409 2113 409 
Q 2538 409 2786 701 
Q 3034 994 3034 1497 
Q 3034 2003 2786 2293 
Q 2538 2584 2113 2584 
z
M 3366 4563 
L 3366 3988 
Q 3128 4100 2886 4159 
Q 2644 4219 2406 4219 
Q 1781 4219 1451 3797 
Q 1122 3375 1075 2522 
Q 1259 2794 1537 2939 
Q 1816 3084 2150 3084 
Q 2853 3084 3261 2657 
Q 3669 2231 3669 1497 
Q 3669 778 3244 343 
Q 2819 -91 2113 -91 
Q 1303 -91 875 529 
Q 447 1150 447 2328 
Q 447 3434 972 4092 
Q 1497 4750 2381 4750 
Q 2619 4750 2861 4703 
Q 3103 4656 3366 4563 
z
" transform="scale(0.015625)"/>
       </defs>
       <use xlink:href="#DejaVuSans-30"/>
       <use xlink:href="#DejaVuSans-2e" x="63.623047"/>
       <use xlink:href="#DejaVuSans-36" x="95.410156"/>
      </g>
     </g>
    </g>
    <g id="xtick_5">
     <g id="line2d_9">
      <path d="M 206.057143 192.24 
L 206.057143 25.92 
" clip-path="url(#p39f0cd566d)" style="fill: none; stroke: #b0b0b0; stroke-width: 0.8; stroke-linecap: square"/>
     </g>
     <g id="line2d_10">
      <g>
       <use xlink:href="#m54ba754fa4" x="206.057143" y="192.24" style="stroke: #000000; stroke-width: 0.8"/>
      </g>
     </g>
     <g id="text_5">
      <!-- 0.8 -->
      <g transform="translate(198.10558 206.838437)scale(0.1 -0.1)">
       <defs>
        <path id="DejaVuSans-38" d="M 2034 2216 
Q 1584 2216 1326 1975 
Q 1069 1734 1069 1313 
Q 1069 891 1326 650 
Q 1584 409 2034 409 
Q 2484 409 2743 651 
Q 3003 894 3003 1313 
Q 3003 1734 2745 1975 
Q 2488 2216 2034 2216 
z
M 1403 2484 
Q 997 2584 770 2862 
Q 544 3141 544 3541 
Q 544 4100 942 4425 
Q 1341 4750 2034 4750 
Q 2731 4750 3128 4425 
Q 3525 4100 3525 3541 
Q 3525 3141 3298 2862 
Q 3072 2584 2669 2484 
Q 3125 2378 3379 2068 
Q 3634 1759 3634 1313 
Q 3634 634 3220 271 
Q 2806 -91 2034 -91 
Q 1263 -91 848 271 
Q 434 634 434 1313 
Q 434 1759 690 2068 
Q 947 2378 1403 2484 
z
M 1172 3481 
Q 1172 3119 1398 2916 
Q 1625 2713 2034 2713 
Q 2441 2713 2670 2916 
Q 2900 3119 2900 3481 
Q 2900 3844 2670 4047 
Q 2441 4250 2034 4250 
Q 1625 4250 1398 4047 
Q 1172 3844 1172 3481 
z
" transform="scale(0.015625)"/>
       </defs>
       <use xlink:href="#DejaVuSans-30"/>
       <use xlink:href="#DejaVuSans-2e" x="63.623047"/>
       <use xlink:href="#DejaVuSans-38" x="95.410156"/>
      </g>
     </g>
    </g>
    <g id="xtick_6">
     <g id="line2d_11">
      <path d="M 248.571429 192.24 
L 248.571429 25.92 
" clip-path="url(#p39f0cd566d)" style="fill: none; stroke: #b0b0b0; stroke-width: 0.8; stroke-linecap: square"/>
     </g>
     <g id="line2d_12">
      <g>
       <use xlink:href="#m54ba754fa4" x="248.571429" y="192.24" style="stroke: #000000; stroke-width: 0.8"/>
      </g>
     </g>
     <g id="text_6">
      <!-- 1.0 -->
      <g transform="translate(240.619866 206.838437)scale(0.1 -0.1)">
       <defs>
        <path id="DejaVuSans-31" d="M 794 531 
L 1825 531 
L 1825 4091 
L 703 3866 
L 703 4441 
L 1819 4666 
L 2450 4666 
L 2450 531 
L 3481 531 
L 3481 0 
L 794 0 
L 794 531 
z
" transform="scale(0.015625)"/>
       </defs>
       <use xlink:href="#DejaVuSans-31"/>
       <use xlink:href="#DejaVuSans-2e" x="63.623047"/>
       <use xlink:href="#DejaVuSans-30" x="95.410156"/>
      </g>
     </g>
    </g>
   </g>
   <g id="matplotlib.axis_2">
    <g id="ytick_1">
     <g id="line2d_13">
      <path d="M 36 170.892078 
L 259.2 170.892078 
" clip-path="url(#p39f0cd566d)" style="fill: none; stroke: #b0b0b0; stroke-width: 0.8; stroke-linecap: square"/>
     </g>
     <g id="line2d_14">
      <defs>
       <path id="m71a91cb70e" d="M 0 0 
L -3.5 0 
" style="stroke: #000000; stroke-width: 0.8"/>
      </defs>
      <g>
       <use xlink:href="#m71a91cb70e" x="36" y="170.892078" style="stroke: #000000; stroke-width: 0.8"/>
      </g>
     </g>
     <g id="text_7">
      <!-- −2 -->
      <g transform="translate(14.257812 174.691297)scale(0.1 -0.1)">
       <defs>
        <path id="DejaVuSans-2212" d="M 678 2272 
L 4684 2272 
L 4684 1741 
L 678 1741 
L 678 2272 
z
" transform="scale(0.015625)"/>
       </defs>
       <use xlink:href="#DejaVuSans-2212"/>
       <use xlink:href="#DejaVuSans-32" x="83.789062"/>
      </g>
     </g>
    </g>
    <g id="ytick_2">
     <g id="line2d_15">
      <path d="M 36 144.285534 
L 259.2 144.285534 
" clip-path="url(#p39f0cd566d)" style="fill: none; stroke: #b0b0b0; stroke-width: 0.8; stroke-linecap: square"/>
     </g>
     <g id="line2d_16">
      <g>
       <use xlink:href="#m71a91cb70e" x="36" y="144.285534" style="stroke: #000000; stroke-width: 0.8"/>
      </g>
     </g>
     <g id="text_8">
      <!-- −1 -->
      <g transform="translate(14.257812 148.084753)scale(0.1 -0.1)">
       <use xlink:href="#DejaVuSans-2212"/>
       <use xlink:href="#DejaVuSans-31" x="83.789062"/>
      </g>
     </g>
    </g>
    <g id="ytick_3">
     <g id="line2d_17">
      <path d="M 36 117.67899 
L 259.2 117.67899 
" clip-path="url(#p39f0cd566d)" style="fill: none; stroke: #b0b0b0; stroke-width: 0.8; stroke-linecap: square"/>
     </g>
     <g id="line2d_18">
      <g>
       <use xlink:href="#m71a91cb70e" x="36" y="117.67899" style="stroke: #000000; stroke-width: 0.8"/>
      </g>
     </g>
     <g id="text_9">
      <!-- 0 -->
      <g transform="translate(22.6375 121.478209)scale(0.1 -0.1)">
       <use xlink:href="#DejaVuSans-30"/>
      </g>
     </g>
    </g>
    <g id="ytick_4">
     <g id="line2d_19">
      <path d="M 36 91.072447 
L 259.2 91.072447 
" clip-path="url(#p39f0cd566d)" style="fill: none; stroke: #b0b0b0; stroke-width: 0.8; stroke-linecap: square"/>
     </g>
     <g id="line2d_20">
      <g>
       <use xlink:href="#m71a91cb70e" x="36" y="91.072447" style="stroke: #000000; stroke-width: 0.8"/>
      </g>
     </g>
     <g id="text_10">
      <!-- 1 -->
      <g transform="translate(22.6375 94.871665)scale(0.1 -0.1)">
       <use xlink:href="#DejaVuSans-31"/>
      </g>
     </g>
    </g>
    <g id="ytick_5">
     <g id="line2d_21">
      <path d="M 36 64.465903 
L 259.2 64.465903 
" clip-path="url(#p39f0cd566d)" style="fill: none; stroke: #b0b0b0; stroke-width: 0.8; stroke-linecap: square"/>
     </g>
     <g id="line2d_22">
      <g>
       <use xlink:href="#m71a91cb70e" x="36" y="64.465903" style="stroke: #000000; stroke-width: 0.8"/>
      </g>
     </g>
     <g id="text_11">
      <!-- 2 -->
      <g transform="translate(22.6375 68.265121)scale(0.1 -0.1)">
       <use xlink:href="#DejaVuSans-32"/>
      </g>
     </g>
    </g>
    <g id="ytick_6">
     <g id="line2d_23">
      <path d="M 36 37.859359 
L 259.2 37.859359 
" clip-path="url(#p39f0cd566d)" style="fill: none; stroke: #b0b0b0; stroke-width: 0.8; stroke-linecap: square"/>
     </g>
     <g id="line2d_24">
      <g>
       <use xlink:href="#m71a91cb70e" x="36" y="37.859359" style="stroke: #000000; stroke-width: 0.8"/>
      </g>
     </g>
     <g id="text_12">
      <!-- 3 -->
      <g transform="translate(22.6375 41.658577)scale(0.1 -0.1)">
       <defs>
        <path id="DejaVuSans-33" d="M 2597 2516 
Q 3050 2419 3304 2112 
Q 3559 1806 3559 1356 
Q 3559 666 3084 287 
Q 2609 -91 1734 -91 
Q 1441 -91 1130 -33 
Q 819 25 488 141 
L 488 750 
Q 750 597 1062 519 
Q 1375 441 1716 441 
Q 2309 441 2620 675 
Q 2931 909 2931 1356 
Q 2931 1769 2642 2001 
Q 2353 2234 1838 2234 
L 1294 2234 
L 1294 2753 
L 1863 2753 
Q 2328 2753 2575 2939 
Q 2822 3125 2822 3475 
Q 2822 3834 2567 4026 
Q 2313 4219 1838 4219 
Q 1578 4219 1281 4162 
Q 984 4106 628 3988 
L 628 4550 
Q 988 4650 1302 4700 
Q 1616 4750 1894 4750 
Q 2613 4750 3031 4423 
Q 3450 4097 3450 3541 
Q 3450 3153 3228 2886 
Q 3006 2619 2597 2516 
z
" transform="scale(0.015625)"/>
       </defs>
       <use xlink:href="#DejaVuSans-33"/>
      </g>
     </g>
    </g>
   </g>
   <g id="line2d_25">
    <path d="M 36 115.644517 
L 38.147186 78.424842 
L 40.294372 116.102905 
L 42.441558 89.214104 
L 44.588745 96.551115 
L 46.735931 97.533567 
L 48.883117 94.56624 
L 51.030303 33.48 
L 53.177489 128.444721 
L 55.324675 115.555598 
L 57.471861 124.813437 
L 59.619048 144.213269 
L 61.766234 116.868874 
L 63.91342 97.936363 
L 66.060606 56.013099 
L 68.207792 70.006245 
L 70.354978 118.980824 
L 72.502165 136.368899 
L 74.649351 63.847254 
L 76.796537 166.297285 
L 78.943723 123.934704 
L 81.090909 136.306405 
L 83.238095 67.686489 
L 85.385281 90.442216 
L 87.532468 103.942681 
L 89.679654 136.160216 
L 91.82684 125.08806 
L 93.974026 72.590696 
L 96.121212 148.874071 
L 98.268398 149.268181 
L 100.415584 95.081659 
L 102.562771 116.605942 
L 104.709957 115.514004 
L 106.857143 144.385425 
L 109.004329 94.841659 
L 111.151515 93.575342 
L 113.298701 93.089903 
L 115.445887 104.820042 
L 117.593074 137.246889 
L 119.74026 137.784504 
L 121.887446 126.195232 
L 124.034632 116.62263 
L 126.181818 133.275836 
L 128.329004 105.438138 
L 130.47619 79.255191 
L 132.623377 117.298717 
L 134.770563 121.868758 
L 136.917749 100.530553 
L 139.064935 127.645329 
L 141.212121 115.33567 
L 143.359307 136.446099 
L 145.506494 137.955939 
L 147.65368 119.576702 
L 149.800866 153.572989 
L 151.948052 93.441873 
L 154.095238 110.512034 
L 156.242424 148.124481 
L 158.38961 120.895538 
L 160.536797 112.016851 
L 162.683983 147.350202 
L 164.831169 125.509683 
L 166.978355 96.216781 
L 169.125541 74.764398 
L 171.272727 99.186118 
L 173.419913 112.391345 
L 175.5671 142.211036 
L 177.714286 89.728644 
L 179.861472 97.041684 
L 182.008658 122.848272 
L 184.155844 137.584205 
L 186.30303 167.613733 
L 188.450216 141.456515 
L 190.597403 113.952972 
L 192.744589 148.807257 
L 194.891775 119.678685 
L 197.038961 105.329245 
L 199.186147 139.597183 
L 201.333333 183.916832 
L 203.480519 162.947779 
L 205.627706 46.886584 
L 207.774892 110.985479 
L 209.922078 154.150564 
L 212.069264 153.680604 
L 214.21645 56.355586 
L 216.363636 111.092051 
L 218.510823 95.972221 
L 220.658009 124.802653 
L 222.805195 116.897594 
L 224.952381 76.339584 
L 227.099567 131.212023 
L 229.246753 150.60603 
L 231.393939 42.23007 
L 233.541126 82.721361 
L 235.688312 100.207454 
L 237.835498 108.919246 
L 239.982684 152.451678 
L 242.12987 116.164687 
L 244.277056 138.684406 
L 246.424242 82.358958 
L 248.571429 94.914695 
" clip-path="url(#p39f0cd566d)" style="fill: none; stroke: #4682b4; stroke-opacity: 0.5; stroke-width: 4; stroke-linecap: square"/>
   </g>
   <g id="patch_33">
    <path d="M 36 192.24 
L 36 25.92 
" style="fill: none; stroke: #000000; stroke-width: 0.8; stroke-linejoin: miter; stroke-linecap: square"/>
   </g>
   <g id="patch_34">
    <path d="M 259.2 192.24 
L 259.2 25.92 
" style="fill: none; stroke: #000000; stroke-width: 0.8; stroke-linejoin: miter; stroke-linecap: square"/>
   </g>
   <g id="patch_35">
    <path d="M 36 192.24 
L 259.2 192.24 
" style="fill: none; stroke: #000000; stroke-width: 0.8; stroke-linejoin: miter; stroke-linecap: square"/>
   </g>
   <g id="patch_36">
    <path d="M 36 25.92 
L 259.2 25.92 
" style="fill: none; stroke: #000000; stroke-width: 0.8; stroke-linejoin: miter; stroke-linecap: square"/>
   </g>
   <g id="text_13">
    <!-- My title -->
    <g transform="translate(125.235 19.92)scale(0.12 -0.12)">
     <defs>
      <path id="DejaVuSans-4d" d="M 628 4666 
L 1569 4666 
L 2759 1491 
L 3956 4666 
L 4897 4666 
L 4897 0 
L 4281 0 
L 4281 4097 
L 3078 897 
L 2444 897 
L 1241 4097 
L 1241 0 
L 628 0 
L 628 4666 
z
" transform="scale(0.015625)"/>
      <path id="DejaVuSans-79" d="M 2059 -325 
Q 1816 -950 1584 -1140 
Q 1353 -1331 966 -1331 
L 506 -1331 
L 506 -850 
L 844 -850 
Q 1081 -850 1212 -737 
Q 1344 -625 1503 -206 
L 1606 56 
L 191 3500 
L 800 3500 
L 1894 763 
L 2988 3500 
L 3597 3500 
L 2059 -325 
z
" transform="scale(0.015625)"/>
      <path id="DejaVuSans-20" transform="scale(0.015625)"/>
      <path id="DejaVuSans-74" d="M 1172 4494 
L 1172 3500 
L 2356 3500 
L 2356 3053 
L 1172 3053 
L 1172 1153 
Q 1172 725 1289 603 
Q 1406 481 1766 481 
L 2356 481 
L 2356 0 
L 1766 0 
Q 1100 0 847 248 
Q 594 497 594 1153 
L 594 3053 
L 172 3053 
L 172 3500 
L 594 3500 
L 594 4494 
L 1172 4494 
z
" transform="scale(0.015625)"/>
      <path id="DejaVuSans-69" d="M 603 3500 
L 1178 3500 
L 1178 0 
L 603 0 
L 603 3500 
z
M 603 4863 
L 1178 4863 
L 1178 4134 
L 603 4134 
L 603 4863 
z
" transform="scale(0.015625)"/>
      <path id="DejaVuSans-6c" d="M 603 4863 
L 1178 4863 
L 1178 0 
L 603 0 
L 603 4863 
z
" transform="scale(0.015625)"/>
      <path id="DejaVuSans-65" d="M 3597 1894 
L 3597 1613 
L 953 1613 
Q 991 1019 1311 708 
Q 1631 397 2203 397 
Q 2534 397 2845 478 
Q 3156 559 3463 722 
L 3463 178 
Q 3153 47 2828 -22 
Q 2503 -91 2169 -91 
Q 1331 -91 842 396 
Q 353 884 353 1716 
Q 353 2575 817 3079 
Q 1281 3584 2069 3584 
Q 2775 3584 3186 3129 
Q 3597 2675 3597 1894 
z
M 3022 2063 
Q 3016 2534 2758 2815 
Q 2500 3097 2075 3097 
Q 1594 3097 1305 2825 
Q 1016 2553 972 2059 
L 3022 2063 
z
" transform="scale(0.015625)"/>
     </defs>
     <use xlink:href="#DejaVuSans-4d"/>
     <use xlink:href="#DejaVuSans-79" x="86.279297"/>
     <use xlink:href="#DejaVuSans-20" x="145.458984"/>
     <use xlink:href="#DejaVuSans-74" x="177.246094"/>
     <use xlink:href="#DejaVuSans-69" x="216.455078"/>
     <use xlink:href="#DejaVuSans-74" x="244.238281"/>
     <use xlink:href="#DejaVuSans-6c" x="283.447266"/>
     <use xlink:href="#DejaVuSans-65" x="311.230469"/>
    </g>
   </g>
   <g id="legend_1">
    <g id="patch_37">
     <path d="M 125.459375 187.24 
L 169.740625 187.24 
Q 171.740625 187.24 171.740625 185.24 
L 171.740625 156.88375 
Q 171.740625 154.88375 169.740625 154.88375 
L 125.459375 154.88375 
Q 123.459375 154.88375 123.459375 156.88375 
L 123.459375 185.24 
Q 123.459375 187.24 125.459375 187.24 
z
" style="fill: #ffffff; opacity: 0.8; stroke: #cccccc; stroke-linejoin: miter"/>
    </g>
    <g id="line2d_26">
     <path d="M 127.459375 162.982188 
L 137.459375 162.982188 
L 147.459375 162.982188 
" style="fill: none; stroke: #4682b4; stroke-opacity: 0.5; stroke-width: 4; stroke-linecap: square"/>
    </g>
    <g id="text_14">
     <!-- y1 -->
     <g transform="translate(155.459375 166.482188)scale(0.1 -0.1)">
      <use xlink:href="#DejaVuSans-79"/>
      <use xlink:href="#DejaVuSans-31" x="59.179688"/>
     </g>
    </g>
    <g id="PathCollection_2">
     <g>
      <use xlink:href="#m51356af318" x="137.459375" y="178.535313" style="fill: #ff4500; fill-opacity: 0.5; stroke: #ff4500; stroke-opacity: 0.5; stroke-width: 1.5"/>
     </g>
    </g>
    <g id="text_15">
     <!-- y2 -->
     <g transform="translate(155.459375 181.160313)scale(0.1 -0.1)">
      <use xlink:href="#DejaVuSans-79"/>
      <use xlink:href="#DejaVuSans-32" x="59.179688"/>
     </g>
    </g>
   </g>
  </g>
 </g>
 <defs>
  <clipPath id="p39f0cd566d">
   <rect x="36" y="25.92" width="223.2" height="166.32"/>
  </clipPath>
 </defs>
</svg>
